<svg width="262" height="189" viewBox="0 0 262 189" fill="none" xmlns="http://www.w3.org/2000/svg">
<path d="M234.582 178.269C231.981 178.269 229.38 178.262 226.787 178.269C224.659 178.277 222.553 178.018 220.433 177.833C215.017 177.353 209.638 177.198 204.311 179.001C199.959 180.471 195.437 181.446 190.989 182.636C188.802 183.22 186.556 183.33 184.31 183.308C177.461 183.242 170.604 183.441 163.77 182.784C163.186 182.725 162.558 182.68 162.011 182.843C160.408 183.316 159.048 182.954 157.652 182.082C156.44 181.321 154.97 181.18 153.544 181.18C150.234 181.166 146.924 181.136 143.621 181.203C139.018 181.299 134.422 181.476 129.827 181.609C128.408 181.653 126.982 181.572 125.578 181.712C122.091 182.052 118.729 181.528 115.471 180.353C112.862 179.415 110.306 179.075 107.498 179.422C103.287 179.947 99.0236 180.05 94.7751 180.242C93.3713 180.309 91.9453 180.153 90.5415 179.991C85.2143 179.385 79.8428 179.429 74.6708 180.604C69.9495 181.675 65.1839 182.51 60.4921 183.693C58.5489 184.18 56.5909 184.616 54.5813 184.83C52.4681 185.059 50.4363 185.687 48.434 186.456C44.7471 187.874 40.9715 188.562 36.9816 187.608C34.8094 187.091 32.5485 186.966 30.3245 186.678C28.5439 186.448 26.8667 185.909 25.2929 185.059C23.8226 184.269 22.2858 183.626 20.6529 183.353C17.7418 182.85 15.5178 181.01 13.0722 179.614C11.8531 178.919 11.491 177.604 11.1881 176.319C10.5527 173.681 9.98376 171.021 9.28185 168.398C8.52082 165.561 8.07751 162.613 6.41508 160.064C5.75749 159.052 5.6245 157.847 5.66883 156.65C5.70577 155.468 5.77227 154.286 5.80183 153.111C5.85355 150.983 5.75011 148.87 5.37329 146.757C4.05073 139.435 2.78728 132.105 1.50167 124.776C1.39823 124.192 1.36129 123.594 1.20613 123.032C-0.471081 116.981 -0.182926 110.878 0.762812 104.76C1.1618 102.189 1.50906 99.6252 1.56817 97.0097C1.60511 95.4876 1.86371 93.9582 2.13709 92.4509C2.55824 90.1235 3.01633 87.8109 2.86856 85.4244C2.80945 84.4786 2.92767 83.5403 3.34882 82.661C3.54831 82.2399 3.82169 81.7596 3.78474 81.3311C3.53353 78.5234 5.00386 76.3733 6.39291 74.1715C9.73994 68.8813 13.0205 63.5468 16.4044 58.2787C18.0743 55.6779 19.5741 53.0106 20.446 50.0404C22.2414 43.9522 25.5589 38.6546 29.0094 33.4161C31.6175 31.1257 33.0879 27.9707 35.1788 25.3035C38.1786 21.4909 41.6143 18.1882 46.3578 16.3189C49.6161 15.0407 52.8006 13.4078 55.5344 11.0509C58.1721 8.78258 61.5265 8.40576 64.8071 7.94767C65.738 7.82206 66.6985 7.85901 67.6369 7.85901C70.7179 7.87378 73.7251 7.45263 76.7618 6.84677C83.1234 5.57593 89.5588 4.65236 95.9573 3.57363C97.3538 3.33719 98.7502 3.09337 100.139 2.81999C107.099 1.46788 114.133 0.729022 121.248 0.802908C125.039 0.84724 128.792 1.261 132.42 2.4284C135.25 3.34458 138.19 3.68446 141.102 4.14994C144.478 4.6893 147.87 5.19173 151.276 5.49466C154.091 5.74587 156.935 5.7237 159.773 5.74587C162.144 5.76065 164.479 5.96753 166.821 6.31479C169.23 6.67683 171.417 7.45263 173.331 8.9008C177.04 11.7085 181.162 13.7255 185.477 15.4027C185.699 15.4914 185.906 15.6096 186.128 15.6835C194.765 18.4395 202.36 23.2716 209.971 27.9855C213.547 30.2021 216.953 32.8176 219.893 35.9356C221.098 37.2138 222.575 38.2482 223.95 39.3639C225.893 40.9377 227.6 42.711 228.907 44.861C230.075 46.7747 231.287 48.6662 232.484 50.565C232.801 51.0674 233.067 51.6068 233.459 52.0353C240.781 59.9855 244.859 69.5685 247.453 79.8903C248.317 83.326 248.99 86.8134 249.788 90.2639C250.268 92.3327 250.807 94.3941 251.384 96.4333C252.255 99.4996 253.172 102.551 254.088 105.61C254.361 106.511 254.605 107.435 254.974 108.299C257.974 115.319 259.156 122.781 260.531 130.229C262.348 140.085 262.09 149.993 261.779 159.909C261.668 163.322 261.151 166.721 260.708 170.12C260.242 173.688 258.1 175.779 254.657 176.718C251.561 177.567 248.399 177.981 245.214 178.114C241.675 178.262 238.128 178.151 234.582 178.151V178.269Z" fill="#CCFF6C"/>
<path d="M3.76926 81.346C3.8062 81.7746 3.54021 82.2548 3.33333 82.676C3.18556 82.9789 3.08951 83.2966 3.01562 83.6069H248.317C248.043 82.3656 247.762 81.1318 247.452 79.9052C247.43 79.8314 247.415 79.7575 247.393 79.6836H3.83576C3.75448 80.2156 3.71754 80.7623 3.76926 81.346Z" fill="#FF85FD"/>
<path d="M230.769 47.854C230.141 46.8639 229.52 45.8665 228.914 44.869C228.715 44.5439 228.493 44.241 228.271 43.9307H22.8245C22.2113 45.2089 21.6498 46.5167 21.1621 47.8614H230.769V47.854Z" fill="#FF85FD"/>
<path d="M237.325 56.793C236.357 55.4483 235.308 54.1405 234.185 52.8623H19.3911C18.7926 54.2144 18.0907 55.5148 17.3223 56.793H237.317H237.325Z" fill="#FF85FD"/>
<path d="M242.531 65.7266C241.903 64.3967 241.238 63.0815 240.514 61.7959H14.172C13.3445 63.1037 12.5096 64.4115 11.6895 65.7266H242.531Z" fill="#FF85FD"/>
<path d="M6.07575 74.6671H245.983C245.569 73.3445 245.119 72.0293 244.638 70.7363H8.54353C7.82684 71.8816 7.10276 73.0342 6.37868 74.1794C6.27524 74.342 6.1718 74.5045 6.06836 74.6671H6.07575Z" fill="#FF85FD"/>
<path d="M47.1489 186.929H32.416C33.9528 187.091 35.4897 187.261 36.9822 187.623C40.5065 188.466 43.8683 188.022 47.1489 186.929Z" fill="#FF85FD"/>
<path d="M212.954 29.9805C211.972 29.286 210.982 28.621 209.962 27.993C208.92 27.3428 207.871 26.7 206.829 26.0498H34.6161C33.6851 27.328 32.8502 28.6801 31.9414 29.9805H212.947H212.954Z" fill="#FF85FD"/>
<path d="M100.131 2.84219C99.555 2.95302 98.9787 3.06384 98.4023 3.16728H135.22C134.281 2.96779 133.343 2.73136 132.419 2.43582C128.792 1.26842 125.038 0.854658 121.248 0.802938C114.14 0.721664 107.106 1.46052 100.131 2.8348V2.84219Z" fill="#FF85FD"/>
<path d="M245.213 178.122C245.871 178.092 246.528 178.048 247.186 177.996H222.102C223.661 178.144 225.212 178.284 226.786 178.277C229.387 178.269 231.987 178.277 234.581 178.277V178.159C238.127 178.159 241.674 178.277 245.213 178.122Z" fill="#FF85FD"/>
<path d="M198.302 21.0401C195.628 19.5846 192.887 18.2546 190.049 17.1094H44.5977C42.5141 18.1512 40.6965 19.5033 39.0488 21.0401H198.302Z" fill="#FF85FD"/>
<path d="M54.2203 12.0997H178.304C176.583 11.1539 174.92 10.1048 173.332 8.90041C172.977 8.63443 172.615 8.39799 172.238 8.16895H63.2787C60.5006 8.57532 57.752 9.14424 55.5207 11.0579C55.0995 11.4199 54.6636 11.7598 54.2129 12.0923L54.2203 12.0997Z" fill="#FF85FD"/>
<path d="M223.373 38.9204C222.169 37.9747 220.928 37.0511 219.886 35.9502C219.583 35.6251 219.265 35.3074 218.948 34.9971H27.9823C27.14 36.2975 26.3199 37.5979 25.5293 38.9278H223.373V38.9204Z" fill="#FF85FD"/>
<path d="M261.471 164.046C261.611 162.738 261.722 161.43 261.766 160.115H6.43164C7.22961 161.349 7.74681 162.679 8.15318 164.046H261.471Z" fill="#FF85FD"/>
<path d="M5.79459 153.125C5.77981 153.783 5.75026 154.448 5.7207 155.106H261.912C261.942 153.798 261.972 152.49 261.986 151.175H5.7872C5.80198 151.825 5.80937 152.468 5.7872 153.118L5.79459 153.125Z" fill="#FF85FD"/>
<path d="M259.8 172.979C260.243 172.151 260.568 171.213 260.709 170.127C260.753 169.772 260.805 169.41 260.849 169.056H9.44531C9.78519 170.356 10.0955 171.671 10.4058 172.986H259.8V172.979Z" fill="#FF85FD"/>
<path d="M13.0715 179.629C14.3498 180.36 15.5689 181.203 16.8471 181.919H68.5302C70.5769 181.498 72.6235 181.077 74.6628 180.619C79.8348 179.444 85.2063 179.4 90.5334 180.006C91.9373 180.168 93.3633 180.316 94.7671 180.257C99.0155 180.065 103.279 179.954 107.49 179.437C110.298 179.089 112.854 179.437 115.463 180.368C118.721 181.535 122.083 182.06 125.57 181.727C126.974 181.594 128.407 181.668 129.819 181.624C134.414 181.491 139.017 181.306 143.613 181.217C146.923 181.151 150.226 181.18 153.536 181.195C154.858 181.195 156.203 181.321 157.356 181.941H193.774C197.313 181.047 200.86 180.19 204.31 179.023C205.64 178.572 206.978 178.24 208.322 178.011H11.6973C11.9854 178.668 12.3918 179.259 13.0715 179.644V179.629Z" fill="#FF85FD"/>
<path d="M261.971 146.165C261.949 144.857 261.905 143.55 261.846 142.234H4.56055C4.78959 143.542 5.01864 144.85 5.25507 146.165H261.971Z" fill="#FF85FD"/>
<path d="M2.1001 128.293H260.176C259.939 126.985 259.696 125.67 259.452 124.362H1.42773C1.4499 124.503 1.47207 124.65 1.49423 124.791C1.70111 125.958 1.9006 127.126 2.10748 128.293H2.1001Z" fill="#FF85FD"/>
<path d="M261.492 137.233C261.367 135.926 261.211 134.618 261.027 133.303H2.98047C3.20951 134.611 3.43856 135.918 3.66761 137.233H261.492Z" fill="#FF85FD"/>
<path d="M255.809 110.419C255.543 109.71 255.27 109.008 254.974 108.314C254.723 107.723 254.531 107.109 254.346 106.496H0.504028C0.326702 107.804 0.186319 109.119 0.0976562 110.427H255.809V110.419Z" fill="#FF85FD"/>
<path d="M252.853 101.48C252.462 100.172 252.085 98.864 251.708 97.5488H1.53799C1.48627 98.864 1.37544 100.172 1.21289 101.48H252.853Z" fill="#FF85FD"/>
<path d="M258.417 119.353C258.122 118.037 257.797 116.73 257.435 115.422H0.03125C0.0903587 116.73 0.208576 118.045 0.408068 119.353H258.417Z" fill="#FF85FD"/>
<path d="M2.11523 92.5405H250.349C250.157 91.7869 249.965 91.0333 249.788 90.2722C249.662 89.7181 249.537 89.1639 249.411 88.6172H2.75065C2.60288 89.9102 2.36645 91.1884 2.13001 92.474C2.13001 92.4962 2.12262 92.5257 2.11523 92.5479V92.5405Z" fill="#FF85FD"/>
<path d="M117.753 181.062L239.207 59.6088C239.03 59.328 238.852 59.0546 238.675 58.7812L116.689 180.767C117.044 180.878 117.399 180.974 117.753 181.062Z" fill="#8398DC"/>
<path d="M110.365 179.319L235.395 54.2892C235.188 54.038 234.989 53.7868 234.782 53.543L109.006 179.319C109.464 179.304 109.915 179.304 110.365 179.319Z" fill="#8398DC"/>
<path d="M125.57 181.713C125.807 181.69 126.043 181.683 126.28 181.668L242.428 65.5197C242.281 65.2094 242.133 64.9064 241.985 64.6035L124.824 181.764C125.075 181.75 125.319 181.742 125.57 181.713Z" fill="#8398DC"/>
<path d="M135.663 181.424L245.088 71.9994C244.97 71.6669 244.852 71.3344 244.726 71.002L134.252 181.476C134.717 181.461 135.19 181.446 135.656 181.432L135.663 181.424Z" fill="#8398DC"/>
<path d="M153.544 181.173C153.751 181.173 153.958 181.173 154.172 181.188L248.938 86.4219C248.857 86.0451 248.776 85.6756 248.695 85.2988L152.82 181.173C153.064 181.173 153.301 181.173 153.544 181.173Z" fill="#8398DC"/>
<path d="M145.032 181.188L247.217 79.0035C247.121 78.6415 247.032 78.2795 246.936 77.9248L143.658 181.202C144.116 181.195 144.574 181.202 145.032 181.188Z" fill="#8398DC"/>
<path d="M71.9227 181.21L218.549 34.5908C218.32 34.3691 218.084 34.1474 217.847 33.9258L70.2012 181.579C70.7775 181.461 71.3538 181.335 71.9301 181.217L71.9227 181.21Z" fill="#8398DC"/>
<path d="M82.6287 179.644L223.366 38.9061C223.115 38.7066 222.857 38.5071 222.605 38.3076L81.1953 179.71C81.6756 179.681 82.1484 179.651 82.6287 179.636V179.644Z" fill="#8398DC"/>
<path d="M90.5401 179.999C90.7987 180.028 91.0573 180.058 91.3233 180.08L227.946 43.4577C227.754 43.1991 227.539 42.9553 227.34 42.7041L90.082 179.954C90.2298 179.969 90.385 179.984 90.5327 179.999H90.5401Z" fill="#8398DC"/>
<path d="M100.553 179.991L231.508 49.0361C231.33 48.7553 231.153 48.4819 230.983 48.2012L99.1191 180.065C99.5994 180.043 100.072 180.021 100.553 179.999V179.991Z" fill="#8398DC"/>
<path d="M170.442 183.19L252.691 100.94C252.588 100.586 252.485 100.238 252.381 99.8838L169.119 183.146C169.555 183.16 169.998 183.175 170.434 183.19H170.442Z" fill="#8398DC"/>
<path d="M230.172 178.269L261.98 146.461C261.98 146.018 261.965 145.567 261.958 145.124L228.812 178.269C229.263 178.269 229.721 178.269 230.172 178.269Z" fill="#8398DC"/>
<path d="M220.432 177.834C220.75 177.863 221.067 177.893 221.378 177.922L261.542 137.758C261.505 137.344 261.461 136.93 261.416 136.517L220.129 177.804C220.232 177.811 220.328 177.819 220.432 177.826V177.834Z" fill="#8398DC"/>
<path d="M239.384 178.189L261.897 155.676C261.912 155.21 261.919 154.745 261.934 154.279L238.039 178.174C238.49 178.174 238.94 178.181 239.391 178.189H239.384Z" fill="#8398DC"/>
<path d="M248.902 177.811L261.323 165.391C261.382 164.881 261.434 164.372 261.485 163.869L247.373 177.981C247.883 177.937 248.393 177.878 248.902 177.819V177.811Z" fill="#8398DC"/>
<path d="M60.2338 183.766L213.576 30.4234C213.31 30.2313 213.052 30.0392 212.786 29.8545L58.4531 184.18C59.0442 184.047 59.6427 183.914 60.2338 183.766Z" fill="#8398DC"/>
<path d="M161.539 182.953L250.675 93.8176C250.579 93.4555 250.49 93.0935 250.394 92.7314L160.113 183.013C160.571 183.064 161.044 183.049 161.539 182.953Z" fill="#8398DC"/>
<path d="M201.001 180.028L258.987 122.043C258.913 121.666 258.832 121.289 258.75 120.912L199.117 180.545C199.745 180.375 200.373 180.205 201.001 180.028Z" fill="#8398DC"/>
<path d="M179.47 183.294L254.827 107.938C254.701 107.606 254.583 107.266 254.472 106.926L178.104 183.294C178.554 183.294 179.012 183.294 179.463 183.294H179.47Z" fill="#8398DC"/>
<path d="M188.831 183.065L257.219 114.676C257.116 114.329 257.012 113.974 256.909 113.627L187.309 183.227C187.818 183.19 188.328 183.139 188.831 183.065Z" fill="#8398DC"/>
<path d="M212.616 177.553L260.435 129.734C260.361 129.349 260.294 128.965 260.22 128.581L211.16 177.641C211.64 177.604 212.128 177.575 212.608 177.553H212.616Z" fill="#8398DC"/>
<path d="M0.511719 106.452L104.964 2C104.425 2.08127 103.878 2.16994 103.339 2.26599L0.740765 104.864C0.65949 105.396 0.585605 105.92 0.511719 106.452Z" fill="#8398DC"/>
<path d="M0.0610618 116.043L115.16 0.943359C114.68 0.965525 114.193 0.995079 113.712 1.02463L0.00195312 114.735C0.0167303 115.171 0.0315075 115.607 0.0536732 116.043H0.0610618Z" fill="#8398DC"/>
<path d="M1.19107 123.047C1.26496 123.321 1.31668 123.594 1.35362 123.875L124.3 0.936191C123.871 0.906636 123.443 0.88447 123.014 0.862305L1.11719 122.759C1.14674 122.855 1.16891 122.951 1.19107 123.055V123.047Z" fill="#8398DC"/>
<path d="M2.69168 131.677L132.044 2.32497C131.696 2.21414 131.342 2.1107 130.987 2.01465L2.49219 130.517C2.55868 130.901 2.62518 131.293 2.69168 131.677Z" fill="#8398DC"/>
<path d="M1.60547 96.2185L93.8963 3.92773C93.3569 4.0164 92.8101 4.10506 92.2708 4.19372L1.76063 94.7039C1.69413 95.2063 1.64241 95.7161 1.60547 96.2185Z" fill="#8398DC"/>
<path d="M2.8625 85.4385C2.86989 85.5641 2.86989 85.6897 2.87727 85.8227L82.9621 5.73047C82.4154 5.82652 81.8686 5.91518 81.3145 6.01123L2.87727 84.4558C2.84772 84.7809 2.84033 85.1134 2.8625 85.4385Z" fill="#8398DC"/>
<path d="M48.3763 186.493L208.058 26.8107C207.778 26.6334 207.497 26.4635 207.216 26.2861L46.3223 187.18C47.0094 186.973 47.6965 186.751 48.3763 186.493Z" fill="#8398DC"/>
<path d="M35.1723 25.3188C34.4926 26.1832 33.8793 27.0994 33.2734 28.023L43.647 17.6494C40.2556 19.5704 37.5662 22.2747 35.1723 25.3188Z" fill="#8398DC"/>
<path d="M8.07617 71.482L71.9209 7.62988C71.4259 7.68899 70.9235 7.72593 70.421 7.76288L10.374 67.8173C9.613 69.0364 8.84458 70.2555 8.07617 71.482Z" fill="#8398DC"/>
<path d="M4.0643 139.442L139.586 3.92104C139.194 3.86193 138.795 3.80283 138.404 3.73633L3.85742 138.29C3.92392 138.674 3.99781 139.058 4.0643 139.45V139.442Z" fill="#8398DC"/>
<path d="M20.4688 49.9521L62.0517 8.36914C61.4754 8.47258 60.8991 8.58341 60.3302 8.73118L21.1411 47.9202C20.8973 48.5852 20.6756 49.2649 20.4688 49.9521Z" fill="#8398DC"/>
<path d="M23.3134 184.143L190.258 17.1982C189.933 17.0652 189.616 16.9322 189.283 16.8066L22.3086 183.789C22.6485 183.899 22.981 184.01 23.3134 184.143Z" fill="#8398DC"/>
<path d="M16.5661 181.757L183.651 14.6716C183.334 14.5386 183.016 14.3982 182.698 14.2578L15.709 181.247C15.9898 181.425 16.2779 181.594 16.5587 181.757H16.5661Z" fill="#8398DC"/>
<path d="M29.9695 186.626L196.501 20.087C196.198 19.9318 195.902 19.7767 195.599 19.6289L28.8242 186.411C29.201 186.5 29.5852 186.567 29.9695 186.633V186.626Z" fill="#8398DC"/>
<path d="M36.9827 187.623C37.3004 187.697 37.6107 187.749 37.9284 187.801L202.376 23.353C202.088 23.1831 201.807 23.0131 201.519 22.8506L36.7832 187.579C36.8497 187.594 36.9162 187.601 36.9827 187.616V187.623Z" fill="#8398DC"/>
<path d="M7.83971 163.071L164.847 6.06408C164.433 6.01975 164.02 5.97542 163.606 5.93848L7.46289 162.089C7.59589 162.414 7.72149 162.739 7.83971 163.071Z" fill="#8398DC"/>
<path d="M5.68555 156.097L156.065 5.71705C155.622 5.71705 155.179 5.69489 154.735 5.6875L5.73727 154.678C5.7151 155.151 5.70032 155.624 5.68555 156.097Z" fill="#8398DC"/>
<path d="M11.5564 177.626L177.519 11.6641C177.231 11.5016 176.95 11.3242 176.669 11.1543L11.2461 176.577C11.3348 176.932 11.4308 177.287 11.5564 177.634V177.626Z" fill="#8398DC"/>
<path d="M5.36542 146.772C5.39497 146.92 5.40975 147.068 5.43191 147.216L147.551 5.08875C147.145 5.03703 146.746 4.9927 146.34 4.93359L5.23242 146.048C5.27675 146.292 5.32108 146.528 5.35803 146.772H5.36542Z" fill="#8398DC"/>
<path d="M9.76123 170.29L172.007 8.04361C171.712 7.87367 171.416 7.71851 171.113 7.57812L9.48047 169.203C9.57652 169.565 9.67257 169.927 9.76123 170.29Z" fill="#8398DC"/>
</svg>
