<svg width="179" height="168" viewBox="0 0 179 168" fill="none" xmlns="http://www.w3.org/2000/svg">
<path d="M121.465 167.494V49.0723C121.142 48.3696 120.824 47.6575 120.516 46.9453V167.509C120.834 167.509 121.147 167.499 121.465 167.49V167.494Z" fill="#518A97"/>
<path d="M116.522 167.452V40.764C116.194 40.275 115.881 39.7812 115.572 39.2827V167.457C115.89 167.457 116.204 167.457 116.522 167.457V167.452Z" fill="#518A97"/>
<path d="M118.583 167.48C118.958 167.494 119.333 167.494 119.708 167.499V45.407C119.342 44.8136 118.939 44.2391 118.54 43.6694C118.136 43.0949 117.733 42.5252 117.334 41.9507V167.456C117.752 167.456 118.17 167.466 118.583 167.48Z" fill="#518A97"/>
<path d="M112.568 167.461C113.299 167.471 114.035 167.466 114.766 167.461V37.8914C114.591 37.5685 114.415 37.2409 114.249 36.9086C113.755 35.9116 113.119 35.038 112.393 34.2451V167.461C112.45 167.461 112.511 167.461 112.568 167.461Z" fill="#518A97"/>
<path d="M124.645 167.361V55.0922C123.777 53.6963 122.993 52.253 122.271 50.7812V167.48C123.064 167.452 123.857 167.418 124.645 167.366V167.361Z" fill="#518A97"/>
<path d="M111.584 167.447V33.4287C111.276 33.1391 110.962 32.859 110.635 32.5884V167.419C110.953 167.433 111.266 167.442 111.584 167.447Z" fill="#518A97"/>
<path d="M131.34 166.763V66.0215C131.013 65.5989 130.699 65.1669 130.391 64.7349V166.858C130.709 166.825 131.022 166.796 131.34 166.763Z" fill="#518A97"/>
<path d="M129.583 166.934V63.5577C128.728 62.2806 127.935 60.9607 127.209 59.5981V167.158C128.002 167.086 128.79 167.015 129.583 166.934Z" fill="#518A97"/>
<path d="M126.403 167.229V58.0076C126.35 57.8984 126.289 57.7892 126.236 57.68C126.094 57.3809 125.952 57.0723 125.762 56.797C125.657 56.645 125.558 56.4884 125.453 56.3364V167.3C125.771 167.276 126.085 167.252 126.403 167.229Z" fill="#518A97"/>
<path d="M101.703 166.388V26.2878C101.381 26.0789 101.067 25.8605 100.754 25.6421V166.312C101.072 166.336 101.385 166.359 101.703 166.388Z" fill="#518A97"/>
<path d="M96.7679 166.175V22.5185C96.4451 22.2289 96.1317 21.9251 95.8184 21.626V166.18C96.1365 166.175 96.4498 166.175 96.7679 166.175Z" fill="#518A97"/>
<path d="M95.0047 166.184V20.8421C94.1739 19.9923 93.381 19.095 92.6309 18.1597V166.098C93.419 166.165 94.2118 166.189 95.0047 166.184Z" fill="#518A97"/>
<path d="M91.8245 166.013V17.111C91.5824 16.7834 91.3308 16.4653 91.0981 16.1282C91.0269 16.0238 90.9462 15.9288 90.875 15.8291V165.862C91.1883 165.923 91.5064 165.971 91.8245 166.013Z" fill="#518A97"/>
<path d="M99.9461 166.265V25.082C99.1295 24.4886 98.3414 23.8619 97.5723 23.2114V166.179C98.3651 166.194 99.158 166.222 99.9461 166.269V166.265Z" fill="#518A97"/>
<path d="M104.886 166.711V28.2727C104.378 27.9356 103.865 27.6127 103.338 27.2994C103.058 27.1332 102.787 26.9575 102.512 26.7866V166.455C103.305 166.526 104.093 166.616 104.886 166.711Z" fill="#518A97"/>
<path d="M106.643 166.934V29.4973C106.33 29.2694 106.011 29.0415 105.693 28.8184V166.806C106.011 166.849 106.325 166.891 106.643 166.934Z" fill="#518A97"/>
<path d="M134.524 166.465V69.7158C133.693 68.8517 132.901 67.9591 132.15 67.0381V166.683C132.943 166.607 133.731 166.531 134.524 166.465Z" fill="#518A97"/>
<path d="M108.908 167.262C109.212 167.31 109.52 167.343 109.829 167.372V31.9384C109.041 31.3212 108.253 30.704 107.455 30.1011V167.049C107.939 167.12 108.424 167.191 108.908 167.262Z" fill="#518A97"/>
<path d="M165.918 159.917V107.854C165.614 107.517 165.296 107.189 164.969 106.866V160.563C165.287 160.354 165.605 160.14 165.918 159.917Z" fill="#518A97"/>
<path d="M88.3742 165.135C88.925 165.363 89.4899 165.543 90.0692 165.686V14.8271C89.357 14.0247 88.5689 13.3315 87.6953 12.7476V164.874C87.9232 164.954 88.1511 165.04 88.3742 165.135Z" fill="#518A97"/>
<path d="M167.693 158.607C168.163 158.246 168.628 157.881 169.098 157.515V112.032C168.372 110.907 167.589 109.82 166.725 108.78V159.333C167.047 159.096 167.37 158.854 167.693 158.607Z" fill="#518A97"/>
<path d="M160.981 162.742V103.652C160.658 103.382 160.34 103.106 160.031 102.826V163.127C160.349 163.008 160.667 162.88 160.981 162.747V162.742Z" fill="#518A97"/>
<path d="M170.86 156.185V114.975C170.551 114.424 170.233 113.878 169.91 113.337V156.892C170.224 156.655 170.542 156.418 170.86 156.185Z" fill="#518A97"/>
<path d="M136.282 166.293V71.9181C135.982 71.4624 135.674 71.0161 135.332 70.603V166.383C135.65 166.35 135.963 166.322 136.282 166.293Z" fill="#518A97"/>
<path d="M177.436 148.418C178.068 147.549 178.59 146.638 178.979 145.659V139.331C178.148 137.489 177.854 135.523 177.536 133.562C177.413 132.803 177.28 131.986 177.432 131.25C177.792 129.541 177.341 128.064 176.605 126.607V149.553C176.881 149.173 177.161 148.798 177.436 148.423V148.418Z" fill="#518A97"/>
<path d="M175.265 151.765C175.417 151.418 175.603 151.081 175.797 150.754V124.964C175.479 124.252 175.185 123.521 174.871 122.804C174.862 122.785 174.857 122.761 174.848 122.737V152.553C175 152.301 175.142 152.04 175.265 151.76V151.765Z" fill="#518A97"/>
<path d="M171.972 155.411C172.75 154.889 173.448 154.329 174.042 153.659V121.019C173.244 119.504 172.47 117.976 171.668 116.466V155.625C171.768 155.554 171.867 155.483 171.972 155.411Z" fill="#518A97"/>
<path d="M164.161 161.076V106.05C163.933 105.812 163.696 105.584 163.42 105.423C162.846 105.081 162.309 104.697 161.787 104.298V162.377C162.599 161.987 163.387 161.55 164.161 161.076Z" fill="#518A97"/>
<path d="M141.221 166.009V78.1C141.05 77.9243 140.889 77.7392 140.713 77.5683C140.561 77.4116 140.419 77.2454 140.271 77.084V166.075C140.59 166.056 140.903 166.037 141.221 166.013V166.009Z" fill="#518A97"/>
<path d="M146.162 165.524V84.1291C146.058 83.982 145.958 83.83 145.854 83.6828C145.645 83.398 145.427 83.1131 145.213 82.833V165.638C145.531 165.6 145.844 165.567 146.162 165.524Z" fill="#518A97"/>
<path d="M144.401 165.728V81.7793C143.642 80.8108 142.858 79.8613 142.027 78.9497V165.947C142.82 165.885 143.613 165.814 144.401 165.728Z" fill="#518A97"/>
<path d="M156.037 164.114V99.1129C155.966 99.0512 155.9 98.9895 155.829 98.9325C155.577 98.7189 155.33 98.5005 155.088 98.2773V164.209C155.406 164.185 155.724 164.157 156.037 164.119V164.114Z" fill="#518A97"/>
<path d="M137.213 166.232C137.963 166.203 138.714 166.165 139.464 166.123V76.1629C138.642 75.1611 137.878 74.0976 137.09 73.0674V166.246C137.133 166.246 137.171 166.241 137.213 166.236V166.232Z" fill="#518A97"/>
<path d="M152.11 164.536C152.761 164.399 153.43 164.252 154.09 164.247C154.157 164.247 154.218 164.242 154.28 164.237V97.4988C153.397 96.6062 152.604 95.6472 151.906 94.6074V164.574C151.973 164.56 152.044 164.551 152.11 164.536Z" fill="#518A97"/>
<path d="M151.098 164.737V93.2977C150.894 92.9274 150.694 92.5523 150.514 92.163C150.395 91.9067 150.272 91.6455 150.148 91.3892V164.926C150.467 164.869 150.78 164.803 151.098 164.741V164.737Z" fill="#518A97"/>
<path d="M149.343 165.058V89.698C148.621 88.212 147.847 86.7544 146.969 85.3491V165.419C147.762 165.31 148.554 165.191 149.343 165.058Z" fill="#518A97"/>
<path d="M159.223 163.401V102.075C158.431 101.325 157.652 100.565 156.85 99.8296V163.995C157.666 163.852 158.454 163.653 159.223 163.406V163.401Z" fill="#518A97"/>
<path d="M30.1271 147.506C30.3218 147.82 30.5449 148.095 30.7918 148.342V11.3706C30.1224 11.9973 29.6381 12.8092 29.2108 13.6353C28.9782 14.0863 28.7076 14.5088 28.418 14.9124V144.729C28.9877 145.655 29.5574 146.581 30.1271 147.506Z" fill="#518A97"/>
<path d="M25.6236 140.091C25.6996 140.219 25.7803 140.347 25.8563 140.475V17.5098C25.1441 18.0225 24.3702 18.4261 23.4824 18.616V136.26C24.1756 137.546 24.8877 138.828 25.6236 140.091Z" fill="#518A97"/>
<path d="M27.6117 143.404V15.9189C27.3125 16.2465 26.9992 16.5599 26.6621 16.8542V141.823C26.9802 142.35 27.2936 142.882 27.6117 143.404Z" fill="#518A97"/>
<path d="M22.6742 134.754V18.7915C22.3561 18.8675 22.038 18.9482 21.7246 19.0431V132.898C22.038 133.52 22.3513 134.137 22.6742 134.754Z" fill="#518A97"/>
<path d="M42.0122 151.447C42.1499 151.561 42.2876 151.666 42.43 151.765V1.83252C42.1072 1.93697 41.7938 2.05566 41.4805 2.1791V151.072C41.6609 151.186 41.8413 151.305 42.0122 151.447Z" fill="#518A97"/>
<path d="M37.4925 150.498V4.65283C37.1649 4.94244 36.8468 5.25579 36.543 5.57864V150.446C36.8563 150.479 37.1744 150.493 37.4925 150.498Z" fill="#518A97"/>
<path d="M32.5492 149.467V10.0889C32.25 10.331 31.9367 10.5589 31.5996 10.7678V148.988C31.894 149.178 32.2121 149.339 32.5492 149.472V149.467Z" fill="#518A97"/>
<path d="M38.5979 150.45C39.3528 150.365 40.0365 150.445 40.6727 150.673V2.53516C39.8371 2.93871 39.0442 3.42298 38.2988 3.9927V150.474C38.3985 150.464 38.4982 150.464 38.5979 150.455V150.45Z" fill="#518A97"/>
<path d="M19.7355 128.857C20.1201 129.674 20.5141 130.481 20.9129 131.288V19.3135C20.1106 19.5983 19.3272 19.9307 18.5391 20.263V126.754C19.0138 127.405 19.3889 128.131 19.7355 128.857Z" fill="#518A97"/>
<path d="M35.7352 150.331V6.51855C35.6497 6.623 35.569 6.72745 35.4883 6.8319C34.8189 7.72447 34.14 8.58856 33.3613 9.36243V149.738C34.1447 149.975 34.9376 150.189 35.7352 150.331Z" fill="#518A97"/>
<path d="M2.91439 94.4986V39.729C2.76246 40.199 2.64851 40.688 2.53932 41.1723C2.33991 42.0649 2.15475 42.9622 1.96484 43.8548V90.0073C2.26395 91.5075 2.5773 93.0031 2.91439 94.4939V94.4986Z" fill="#518A97"/>
<path d="M5.05956 102.698C5.32543 103.557 5.64353 104.359 6.09456 105.062V35.0332C5.37291 35.959 4.64176 36.8801 3.90112 37.7916C3.83465 37.8723 3.77768 37.953 3.7207 38.0385V97.8739C4.12901 99.4929 4.57054 101.102 5.05956 102.698Z" fill="#518A97"/>
<path d="M0.493046 54.1383C0.208183 55.4961 0.350615 57.0391 0.644973 58.5821C0.725684 59.0142 0.777909 59.4842 0.697198 59.9115C0.113229 63.0213 0.782656 66.1263 0.716188 69.236C0.659216 71.795 0.796899 74.3445 0.203435 76.8798C-0.128904 78.2899 -0.0149592 79.7759 0.265156 81.2002C0.569009 82.7622 0.863367 84.3242 1.16247 85.8815V47.1924C1.09126 47.4535 1.02479 47.7146 0.944079 47.9758C0.364858 49.8653 0.250913 51.9164 0.497794 54.1383H0.493046Z" fill="#518A97"/>
<path d="M7.85189 106.786V32.7402C7.53854 33.158 7.22044 33.5758 6.90234 33.9889V106.059C7.17771 106.33 7.49581 106.567 7.85189 106.786Z" fill="#518A97"/>
<path d="M17.4565 125.596C17.5562 125.676 17.6464 125.757 17.7367 125.843V20.6001C17.4233 20.7283 17.1052 20.8565 16.7871 20.9752V125.002C17.0008 125.206 17.2239 125.406 17.4565 125.596Z" fill="#518A97"/>
<path d="M13.6728 120.953C14.3802 122.054 15.1066 123.16 15.9754 124.157V21.3408C14.9167 21.9105 14.1475 22.7651 13.7108 23.9521C13.6775 24.0423 13.6348 24.1277 13.6016 24.2179V120.839C13.6253 120.877 13.649 120.915 13.6728 120.953Z" fill="#518A97"/>
<path d="M11.0379 111.191V28.3818C10.8812 28.6002 10.7198 28.8186 10.5679 29.037C9.94594 29.9201 9.30975 30.7937 8.66406 31.6625V107.303C10.0456 108.286 10.7673 109.682 11.0379 111.191Z" fill="#518A97"/>
<path d="M12.7952 119.486V25.8276C12.5009 26.3214 12.178 26.7962 11.8457 27.2662V117.444C12.1068 118.147 12.4297 118.821 12.7952 119.481V119.486Z" fill="#518A97"/>
<path d="M47.1491 153.764C47.2203 153.797 47.2963 153.831 47.3675 153.864V1.01123C47.0494 1.04446 46.7361 1.07295 46.418 1.10618V153.489C46.6648 153.569 46.9117 153.655 47.1491 153.759V153.764Z" fill="#518A97"/>
<path d="M72.0706 165.648V1.79933C71.7573 1.6569 71.4392 1.52397 71.1211 1.40527V165.747C71.4297 165.733 71.7478 165.705 72.0706 165.648Z" fill="#518A97"/>
<path d="M77.0081 164.499V5.19385C76.6616 4.9802 76.3292 4.74282 76.0586 4.43896V164.755C76.3767 164.66 76.69 164.575 77.0081 164.494V164.499Z" fill="#518A97"/>
<path d="M75.2508 164.988V3.46583C74.4674 3.0148 73.6793 2.57326 72.877 2.1792V165.505C73.6746 165.363 74.4722 165.201 75.2508 164.988Z" fill="#518A97"/>
<path d="M70.3074 165.728V1.12519C69.5336 0.878312 68.7455 0.702646 67.9336 0.617188V164.879C68.6505 165.382 69.4481 165.652 70.3074 165.733V165.728Z" fill="#518A97"/>
<path d="M81.9456 163.853V9.48104C81.6085 9.17719 81.2905 8.8496 80.9961 8.48877V163.881C81.3142 163.867 81.6275 163.853 81.9456 163.853Z" fill="#518A97"/>
<path d="M45.6102 153.247V1.18701C45.5342 1.19651 45.4535 1.20125 45.3775 1.21075C44.6464 1.28671 43.9295 1.4149 43.2363 1.59531V152.273C43.9865 152.691 44.7841 152.995 45.6102 153.247Z" fill="#518A97"/>
<path d="M80.1883 163.938V7.49624C79.5236 6.79358 78.7118 6.26184 77.8952 5.73484C77.8667 5.71585 77.8382 5.70161 77.8145 5.68262V164.308C78.6073 164.137 79.4002 164.014 80.1883 163.938Z" fill="#518A97"/>
<path d="M66.9365 163.972C66.9982 164.043 67.0647 164.1 67.1312 164.166V0.565084C66.8178 0.555589 66.4997 0.565084 66.1816 0.59357V163.184C66.4475 163.431 66.6991 163.696 66.9365 163.977V163.972Z" fill="#518A97"/>
<path d="M85.1297 164.157V11.4132C84.2894 11.0714 83.487 10.6536 82.7559 10.1313V163.872C83.5487 163.91 84.3368 164.005 85.1297 164.157Z" fill="#518A97"/>
<path d="M52.3089 156.147V0.507812C51.9908 0.541046 51.6775 0.57428 51.3594 0.602767V155.706C51.6775 155.853 51.9908 156 52.3089 156.143V156.147Z" fill="#518A97"/>
<path d="M63.4993 161.356C64.164 161.669 64.786 162.054 65.3699 162.496V0.684082C65.275 0.698325 65.18 0.707821 65.0851 0.726811C64.3729 0.859747 63.6798 0.983188 62.9961 1.04966V161.119C63.1623 161.199 63.3332 161.275 63.4993 161.356Z" fill="#518A97"/>
<path d="M55.491 157.614V0.185059C54.6982 0.26577 53.9101 0.346481 53.1172 0.427192V156.522C53.9101 156.888 54.6982 157.254 55.491 157.619V157.614Z" fill="#518A97"/>
<path d="M86.887 164.599V12.2494C86.5832 12.0785 86.2651 11.9171 85.9375 11.7651V164.338C86.2556 164.414 86.5689 164.504 86.887 164.603V164.599Z" fill="#518A97"/>
<path d="M50.5516 155.336V0.684082C49.7587 0.764793 48.9706 0.845504 48.1777 0.926215V154.239C48.9706 154.605 49.7587 154.97 50.5516 155.336Z" fill="#518A97"/>
<path d="M62.1898 160.744V1.08746C61.8717 1.08746 61.5536 1.06847 61.2402 1.021V160.297C61.5583 160.444 61.8717 160.592 62.1898 160.739V160.744Z" fill="#518A97"/>
<path d="M60.4344 159.922V0.845093C60.0451 0.7264 59.6605 0.564978 59.276 0.341835C58.8961 0.123441 58.4878 0.0284863 58.0605 0V158.816C58.8534 159.186 59.6415 159.552 60.4344 159.922Z" fill="#518A97"/>
<path d="M57.2464 158.436V0.00927734C57.161 0.0140251 57.0755 0.0235205 56.99 0.0330159C56.7574 0.0567545 56.5295 0.080493 56.2969 0.104232V157.999C56.615 158.146 56.9283 158.293 57.2464 158.44V158.436Z" fill="#518A97"/>
</svg>
