<svg width="260" height="131" viewBox="0 0 260 131" fill="none" xmlns="http://www.w3.org/2000/svg">
<path d="M199.079 129.54C195.323 129.437 192.457 129.423 189.598 129.05C187.195 128.739 184.744 128.795 182.327 129.126C179.572 129.499 176.838 129.52 174.076 129.112C172.446 128.871 170.775 128.891 169.118 128.836C166.142 128.732 163.159 128.615 160.183 128.505C157.449 128.401 154.694 128.898 151.953 129.112C150.302 129.243 148.652 129.409 147.002 129.43C141.036 129.506 135.077 129.499 129.111 129.575C127.35 129.596 125.589 129.823 123.829 129.886C122.068 129.955 120.266 130.155 118.546 129.906C114.155 129.271 109.729 129.582 105.323 129.154C102.948 128.926 100.49 129.471 98.0731 129.706C96.4298 129.865 94.7864 130.1 93.1499 130.3C83.2758 131.515 73.8229 129.823 64.5979 126.33C62.4367 125.515 60.1788 124.935 57.9485 124.306C56.5675 123.92 55.1589 123.644 53.7572 123.333C49.552 122.387 45.7819 120.087 41.4663 119.445C37.1784 118.81 33.1873 117.111 29.0927 115.799C25.1776 114.543 21.6215 112.52 18.0724 110.49C16.1528 109.399 14.2884 108.218 12.3343 107.189C10.2352 106.091 8.46756 104.62 7.03824 102.763C5.28438 100.491 3.64791 98.1297 1.89405 95.858C0.968783 94.6565 0.519961 93.3584 0.582106 91.8669C0.68568 89.4295 0.471627 87.0197 0.140189 84.6029C-0.129104 82.6212 -0.00481517 80.6464 0.464722 78.6785C1.2657 75.3503 1.84571 72.0014 2.16334 68.5696C2.50168 64.9445 3.51671 61.4161 4.54555 57.9153C5.10485 56.0095 5.62272 54.0899 6.22345 52.198C7.62516 47.7788 8.80591 43.2699 10.5667 38.9957C12.286 34.832 14.5508 30.8893 16.7052 26.9189C18.6593 23.3145 21.8908 21.3121 25.7576 20.2004C29.576 19.1094 33.3944 17.9908 37.1853 16.8101C40.9001 15.6501 44.7807 15.4636 48.5715 14.7248C51.2852 14.1931 53.9643 13.5509 56.5053 12.4254C57.2096 12.1147 57.9485 11.8385 58.6942 11.6728C65.0606 10.278 71.4476 9.09034 77.9728 8.69676C84.132 8.32389 90.3534 8.14437 96.3331 6.47337C101.035 5.16143 105.758 4.34664 110.619 3.93234C115.556 3.51114 120.438 2.48921 125.355 1.79181C127.972 1.41894 130.609 1.13584 133.24 0.880354C134.669 0.742255 136.106 0.866544 137.514 1.2187C139.123 1.62609 140.739 1.98515 142.348 2.38563C144.495 2.91732 146.649 3.3178 148.859 3.54567C151.048 3.77353 153.209 4.29831 155.357 4.80927C158.63 5.58263 161.93 5.52048 165.238 5.20286C168.635 4.87832 172.032 4.51926 175.429 4.12568C179.918 3.60781 184.413 3.18661 188.887 2.52373C196.103 1.46037 203.215 1.923 209.899 5.25809C215.43 8.02008 220.954 10.8028 226.478 13.5924C228.356 14.5453 230.11 15.6777 231.615 17.1829C232.312 17.8803 233.169 18.412 233.942 19.0335C235.482 20.2626 237.215 20.8011 239.19 20.6492C240.626 20.5388 242.048 20.6216 243.45 21.0497C245.397 21.6366 247.075 22.5895 248.511 24.0603C249.803 25.3791 250.624 26.7808 250.631 28.7211C250.645 31.4141 251.722 33.8722 252.682 36.3442C253.158 37.5802 253.732 38.7816 254.097 40.0522C254.588 41.7577 255.154 43.3942 256.114 44.9132C257.087 46.4461 257.398 48.2069 257.294 50.0022C257.156 52.4949 257.522 54.7942 259.014 56.9141C260.236 58.6472 260.153 60.6911 259.67 62.6728C258.344 68.1415 257.212 73.6586 255.409 78.9961C254.629 81.3162 254.415 83.7398 254.035 86.1358C253.725 88.0968 253.511 90.0785 253.138 92.0257C252.178 97.0318 249.961 101.389 246.35 105.035C243.084 108.335 239.542 111.332 236.02 114.349C234.515 115.641 232.975 116.918 231.58 118.327C227.244 122.691 221.948 125.259 216.093 126.82C214.601 127.22 213.075 127.517 211.597 127.952C207.213 129.257 202.773 129.948 199.079 129.506V129.54Z" fill="#FF944D"/>
<path d="M28.4213 19.4482C27.5305 19.7037 26.6398 19.9661 25.7491 20.2216C24.7202 20.5185 23.7397 20.8845 22.8145 21.3195C24.8859 20.8016 26.7296 20.1664 28.4282 19.4482H28.4213Z" fill="#00D4B1"/>
<path d="M106.277 22.5898C118.271 22.5898 124.361 19.1925 130.244 15.9127C136.016 12.695 141.982 9.3668 153.707 9.3668C165.431 9.3668 171.397 12.695 177.17 15.9127C183.06 19.1925 189.143 22.5898 201.137 22.5898C213.131 22.5898 219.221 19.1925 225.111 15.9127C226.036 15.3948 226.955 14.8908 227.887 14.3936C227.535 14.1865 227.169 13.9931 226.796 13.7998C226.057 14.2003 225.325 14.6077 224.607 15.0081C218.834 18.2259 212.868 21.554 201.137 21.554C189.405 21.554 183.709 18.3778 177.674 15.0081C171.784 11.7283 165.701 8.33105 153.707 8.33105C141.713 8.33105 135.623 11.7283 129.74 15.0081C123.705 18.3709 118.001 21.554 106.277 21.554C94.5521 21.554 88.5862 18.2259 82.8137 15.0081C79.1126 12.9436 75.3218 10.8376 70.0395 9.55323C69.0797 9.69133 68.1199 9.85014 67.1602 10.009C73.6646 11.1068 77.9043 13.4545 82.3027 15.9058C88.1926 19.1856 94.2759 22.5829 106.27 22.5829L106.277 22.5898Z" fill="#00D4B1"/>
<path d="M35.3749 21.8365C41.1475 18.6187 47.1134 15.2906 58.838 15.2906C70.5626 15.2906 76.2661 18.4668 82.301 21.8365C88.1909 25.1163 94.2742 28.5135 106.268 28.5135C118.262 28.5135 124.352 25.1163 130.235 21.8365C136.008 18.6187 141.974 15.2906 153.698 15.2906C165.423 15.2906 171.389 18.6187 177.161 21.8365C183.051 25.1163 189.134 28.5135 201.128 28.5135C213.122 28.5135 219.212 25.1163 225.102 21.8365C227.519 20.49 229.894 19.1711 232.615 18.0802C232.304 17.8454 232.007 17.5968 231.724 17.3344C229.107 18.4254 226.836 19.689 224.598 20.9388C218.826 24.1565 212.86 27.4847 201.128 27.4847C189.397 27.4847 183.7 24.3084 177.665 20.9388C171.775 17.659 165.692 14.2617 153.698 14.2617C141.704 14.2617 135.614 17.659 129.731 20.9388C123.696 24.3015 117.993 27.4847 106.268 27.4847C94.5435 27.4847 88.5776 24.1565 82.8051 20.9388C76.9151 17.659 70.8319 14.2617 58.838 14.2617C46.8441 14.2617 40.7539 17.659 34.8709 20.9388C29.7888 23.7698 24.9278 26.4628 16.5313 27.2499C16.3311 27.6159 16.1377 27.975 15.9375 28.3409C25.0313 27.6021 30.2791 24.6882 35.3749 21.8434V21.8365Z" fill="#00D4B1"/>
<path d="M11.4091 40.3486C23.403 40.3486 29.4932 36.9513 35.3762 33.6715C41.1487 30.4538 47.1146 27.1256 58.8392 27.1256C70.5638 27.1256 76.2673 30.3019 82.3023 33.6715C88.1922 36.9513 94.2755 40.3486 106.269 40.3486C118.263 40.3486 124.353 36.9513 130.236 33.6715C136.009 30.4538 141.975 27.1256 153.699 27.1256C165.424 27.1256 171.39 30.4538 177.163 33.6715C183.052 36.9513 189.136 40.3486 201.13 40.3486C213.124 40.3486 219.214 36.9513 225.104 33.6715C231.145 30.3088 236.842 27.1256 248.567 27.1256C249.195 27.1256 249.796 27.1394 250.39 27.1601C250.286 26.7941 250.162 26.4489 249.996 26.1175C249.526 26.1037 249.064 26.0898 248.574 26.0898C236.58 26.0898 230.489 29.4871 224.606 32.7669C218.834 35.9846 212.868 39.3128 201.137 39.3128C189.405 39.3128 183.708 36.1366 177.673 32.7669C171.784 29.4871 165.7 26.0898 153.706 26.0898C141.712 26.0898 135.622 29.4871 129.739 32.7669C123.704 36.1296 118.001 39.3128 106.276 39.3128C94.5517 39.3128 88.5858 35.9846 82.8132 32.7669C76.9233 29.4871 70.84 26.0898 58.8461 26.0898C46.8522 26.0898 40.7621 29.4871 34.879 32.7669C28.8441 36.1296 23.1406 39.3128 11.416 39.3128C11.0846 39.3128 10.7808 39.299 10.4562 39.299C10.3181 39.6374 10.18 39.9826 10.0488 40.3279C10.4977 40.3348 10.9465 40.3555 11.416 40.3555L11.4091 40.3486Z" fill="#00D4B1"/>
<path d="M11.4094 52.1845C23.4033 52.1845 29.4935 48.7942 35.3765 45.5074C41.149 42.2897 47.1149 38.9615 58.8395 38.9615C70.5641 38.9615 76.2676 42.1378 82.3026 45.5074C88.1925 48.7873 94.2758 52.1845 106.27 52.1845C118.264 52.1845 124.354 48.7942 130.237 45.5074C136.009 42.2897 141.975 38.9615 153.7 38.9615C165.424 38.9615 171.39 42.2897 177.163 45.5074C183.053 48.7873 189.136 52.1845 201.13 52.1845C213.124 52.1845 219.214 48.7942 225.104 45.5074C231.146 42.1447 236.842 38.9615 248.567 38.9615C250.452 38.9615 252.178 39.0582 253.794 39.217C253.663 38.851 253.525 38.492 253.38 38.1329C251.881 38.0017 250.293 37.9258 248.574 37.9258C236.58 37.9258 230.49 41.3161 224.607 44.6029C218.834 47.8206 212.868 51.1488 201.137 51.1488C189.405 51.1488 183.709 47.9725 177.674 44.6029C171.784 41.323 165.701 37.9258 153.707 37.9258C141.713 37.9258 135.623 41.3161 129.74 44.6029C123.705 47.9656 118.001 51.1488 106.277 51.1488C94.552 51.1488 88.5861 47.8206 82.8135 44.6029C76.9236 41.323 70.8403 37.9258 58.8464 37.9258C46.8525 37.9258 40.7624 41.3161 34.8793 44.6029C28.8444 47.9656 23.1409 51.1488 11.4163 51.1488C9.69697 51.1488 8.11574 51.0728 6.62427 50.9347C6.52069 51.2731 6.41712 51.6114 6.30664 51.9497C7.88788 52.0947 9.57268 52.1845 11.4163 52.1845H11.4094Z" fill="#00D4B1"/>
<path d="M11.4084 46.2666C23.4023 46.2666 29.4925 42.8763 35.3755 39.5895C41.148 36.3718 47.1139 33.0436 58.8385 33.0436C70.5631 33.0436 76.2666 36.2199 82.3016 39.5895C88.1915 42.8694 94.2748 46.2666 106.269 46.2666C118.263 46.2666 124.353 42.8763 130.236 39.5895C136.008 36.3718 141.974 33.0436 153.699 33.0436C165.423 33.0436 171.389 36.3718 177.162 39.5895C183.052 42.8694 189.135 46.2666 201.129 46.2666C213.123 46.2666 219.213 42.8763 225.103 39.5895C231.145 36.2268 236.841 33.0436 248.566 33.0436C249.567 33.0436 250.513 33.0782 251.438 33.1196C251.321 32.7674 251.211 32.4153 251.114 32.0631C250.292 32.0286 249.45 32.001 248.566 32.001C236.572 32.001 230.482 35.3913 224.599 38.6781C218.826 41.8958 212.86 45.224 201.129 45.224C189.397 45.224 183.701 42.0477 177.666 38.6781C171.776 35.3982 165.693 32.001 153.699 32.001C141.705 32.001 135.615 35.3913 129.732 38.6781C123.697 42.0408 117.993 45.224 106.269 45.224C94.544 45.224 88.5782 41.8958 82.8056 38.6781C76.9157 35.3982 70.8324 32.001 58.8385 32.001C46.8446 32.001 40.7545 35.3913 34.8714 38.6781C28.8365 42.0408 23.133 45.224 11.4084 45.224C10.3519 45.224 9.35073 45.1894 8.38403 45.1342C8.28046 45.4725 8.16998 45.8109 8.06641 46.1561C9.12977 46.2183 10.2346 46.2597 11.4084 46.2597V46.2666Z" fill="#00D4B1"/>
<path d="M103.996 4.79516C104.728 4.82278 105.488 4.83659 106.275 4.83659C112.738 4.83659 117.481 3.84918 121.403 2.42676C117.813 3.01368 114.229 3.64203 110.611 3.95275C108.381 4.14609 106.178 4.42229 103.996 4.79516Z" fill="#00D4B1"/>
<path d="M35.3761 27.7545C41.1487 24.5368 47.1146 21.2086 58.8392 21.2086C70.5638 21.2086 76.2673 24.3849 82.3022 27.7545C88.1921 31.0343 94.2754 34.4316 106.269 34.4316C118.263 34.4316 124.353 31.0413 130.236 27.7545C136.009 24.5368 141.975 21.2086 153.699 21.2086C165.424 21.2086 171.39 24.5368 177.162 27.7545C183.052 31.0343 189.136 34.4316 201.13 34.4316C213.123 34.4316 219.214 31.0413 225.104 27.7545C230.351 24.8268 235.357 22.0441 244.272 21.3674C243.996 21.2638 243.712 21.1672 243.429 21.0774C242.677 20.8495 241.924 20.7252 241.164 20.6769C233.797 21.7403 229.129 24.3227 224.599 26.8499C218.827 30.0677 212.861 33.3958 201.13 33.3958C189.398 33.3958 183.701 30.2196 177.667 26.8499C171.777 23.5701 165.693 20.1729 153.699 20.1729C141.706 20.1729 135.615 23.5632 129.732 26.8499C123.697 30.2127 117.994 33.3958 106.269 33.3958C94.5447 33.3958 88.5788 30.0677 82.8063 26.8499C76.9163 23.5701 70.8331 20.1729 58.8392 20.1729C46.8453 20.1729 40.7551 23.5632 34.8721 26.8499C29.1548 30.0331 23.7344 33.0506 13.2319 33.3613C13.0524 33.7066 12.8729 34.0587 12.6934 34.404C23.831 34.1692 29.7072 30.9101 35.3761 27.7545Z" fill="#00D4B1"/>
<path d="M187.076 2.80019C190.791 4.02236 195.252 4.84405 201.135 4.84405C203.655 4.84405 205.899 4.68524 207.943 4.42285C207.218 4.12594 206.493 3.84974 205.754 3.61497C204.311 3.73926 202.785 3.80831 201.128 3.80831C196.439 3.80831 192.718 3.29734 189.548 2.46875C189.32 2.49637 189.093 2.52399 188.865 2.55851C188.264 2.64828 187.663 2.72423 187.062 2.80019H187.076Z" fill="#00D4B1"/>
<path d="M201.142 16.6719C211.258 16.6719 217.169 14.2552 222.313 11.5277C221.933 11.3344 221.554 11.148 221.174 10.9546C216.292 13.4749 210.588 15.6293 201.142 15.6293C189.418 15.6293 183.714 12.453 177.679 9.08339C174.987 7.57811 172.238 6.05902 168.91 4.84375C168.061 4.93351 167.218 5.01637 166.369 5.09923C170.671 6.36284 173.958 8.19265 177.175 9.98794C183.065 13.2678 189.149 16.665 201.142 16.665V16.6719Z" fill="#00D4B1"/>
<path d="M35.3753 86.9381C41.1478 83.7204 47.1137 80.3922 58.8383 80.3922C70.5629 80.3922 76.2664 83.5685 82.3013 86.9381C88.1912 90.2179 94.2745 93.6152 106.268 93.6152C118.262 93.6152 124.352 90.2248 130.236 86.9381C136.008 83.7204 141.974 80.3922 153.699 80.3922C165.423 80.3922 171.389 83.7204 177.162 86.9381C183.051 90.2179 189.135 93.6152 201.129 93.6152C213.123 93.6152 219.213 90.2248 225.103 86.9381C231.145 83.5754 236.841 80.3922 248.566 80.3922C250.893 80.3922 252.992 80.5303 254.911 80.7651C254.987 80.4267 255.077 80.0884 255.174 79.75C253.178 79.5014 251.003 79.3564 248.566 79.3564C236.572 79.3564 230.482 82.7468 224.599 86.0335C218.826 89.2512 212.86 92.5794 201.129 92.5794C189.397 92.5794 183.701 89.4032 177.666 86.0335C171.776 82.7537 165.692 79.3564 153.699 79.3564C141.705 79.3564 135.614 82.7468 129.731 86.0335C123.697 89.3963 117.993 92.5794 106.268 92.5794C94.5438 92.5794 88.5779 89.2512 82.8054 86.0335C76.9155 82.7537 70.8322 79.3564 58.8383 79.3564C46.8444 79.3564 40.7542 82.7468 34.8712 86.0335C28.8363 89.3963 23.1328 92.5794 11.4082 92.5794C7.12019 92.5794 3.60556 92.1306 0.581194 91.4056C0.581194 91.5644 0.581194 91.7232 0.581194 91.882C0.574289 92.0823 0.581194 92.2825 0.581194 92.4759C3.61247 93.1802 7.134 93.6152 11.4082 93.6152C23.4021 93.6152 29.4922 90.2248 35.3753 86.9381Z" fill="#00D4B1"/>
<path d="M11.4075 69.9374C23.4014 69.9374 29.4916 66.5401 35.3746 63.2603C41.1471 60.0426 47.113 56.7144 58.8376 56.7144C70.5622 56.7144 76.2657 59.8907 82.3006 63.2603C88.1906 66.5401 94.2738 69.9374 106.268 69.9374C118.262 69.9374 124.352 66.5401 130.235 63.2603C136.007 60.0426 141.973 56.7144 153.698 56.7144C165.422 56.7144 171.388 60.0426 177.161 63.2603C183.051 66.5401 189.134 69.9374 201.128 69.9374C213.122 69.9374 219.212 66.5401 225.102 63.2603C231.144 59.8976 236.84 56.7144 248.565 56.7144C252.915 56.7144 256.471 57.177 259.523 57.9158C259.385 57.5844 259.219 57.253 258.992 56.9422C258.936 56.8594 258.895 56.7834 258.84 56.7006C255.933 56.0722 252.584 55.6855 248.565 55.6855C236.571 55.6855 230.481 59.0828 224.598 62.3626C218.825 65.5803 212.86 68.9085 201.128 68.9085C189.396 68.9085 183.7 65.7323 177.665 62.3626C171.775 59.0828 165.692 55.6855 153.698 55.6855C141.704 55.6855 135.614 59.0828 129.731 62.3626C123.696 65.7253 117.992 68.9085 106.268 68.9085C94.5431 68.9085 88.5772 65.5803 82.8047 62.3626C76.9148 59.0828 70.8315 55.6855 58.8376 55.6855C46.8437 55.6855 40.7535 59.0828 34.8705 62.3626C28.8356 65.7253 23.1321 68.9085 11.4075 68.9085C7.86525 68.9085 4.86159 68.6047 2.21699 68.0868C2.19628 68.2526 2.17556 68.4252 2.16175 68.5909C2.14794 68.7704 2.12032 68.9431 2.09961 69.1226C4.77873 69.6336 7.82382 69.9443 11.4075 69.9443V69.9374Z" fill="#00D4B1"/>
<path d="M178.763 3.78125C178.169 3.84339 177.582 3.91244 176.988 3.98149C177.05 4.01602 177.113 4.05054 177.175 4.08507C183.065 7.36492 189.148 10.7622 201.142 10.7622C207.508 10.7622 212.204 9.80237 216.091 8.41447C215.656 8.19352 215.221 7.97946 214.793 7.7585C211.175 8.93925 206.845 9.72641 201.142 9.72641C190.122 9.72641 184.418 6.9161 178.763 3.78816V3.78125Z" fill="#00D4B1"/>
<path d="M82.3016 10.002C88.1915 13.2818 94.2747 16.6791 106.269 16.6791C118.263 16.6791 124.353 13.2887 130.236 10.002C135.235 7.21238 140.393 4.34682 149.307 3.62871C149.155 3.60799 149.003 3.58037 148.852 3.56656C147.678 3.44227 146.525 3.27655 145.378 3.0625C138.536 4.20182 134.075 6.67379 129.732 9.09052C123.697 12.4532 117.993 15.6364 106.269 15.6364C94.544 15.6364 88.5782 12.3082 82.8056 9.09052C82.4466 8.89028 82.0944 8.69004 81.7353 8.4967C81.0863 8.53813 80.4303 8.57265 79.7812 8.61408C80.6306 9.06981 81.4661 9.53244 82.3085 10.002H82.3016Z" fill="#00D4B1"/>
<path d="M130.242 4.07795C132.141 3.01459 134.074 1.95123 136.215 0.984535C135.497 0.880961 134.778 0.832626 134.06 0.853341C132.555 1.59908 131.139 2.38624 129.738 3.17341C123.703 6.53612 117.999 9.7193 106.275 9.7193C100.157 9.7193 95.6135 8.80785 91.8365 7.4821C91.1322 7.59948 90.4348 7.70306 89.7305 7.79972C93.9287 9.51215 99.0176 10.755 106.275 10.755C118.269 10.755 124.359 7.35781 130.242 4.07795Z" fill="#00D4B1"/>
<path d="M58.8379 115.903C70.5625 115.903 76.266 119.079 82.3009 122.449C88.1909 125.729 94.2741 129.126 106.268 129.126C118.262 129.126 124.352 125.736 130.235 122.449C136.008 119.231 141.974 115.903 153.698 115.903C165.423 115.903 171.389 119.231 177.161 122.449C183.051 125.729 189.134 129.126 201.128 129.126C204.733 129.126 207.792 128.815 210.485 128.297C210.85 128.201 211.216 128.097 211.582 127.993C212.798 127.634 214.041 127.365 215.277 127.061C219.095 125.798 222.126 124.113 225.102 122.456C226.697 121.565 228.279 120.688 229.943 119.88C230.495 119.404 231.041 118.9 231.565 118.368C231.772 118.161 231.987 117.961 232.201 117.76C229.383 118.893 226.974 120.225 224.598 121.551C218.826 124.769 212.86 128.097 201.128 128.097C189.397 128.097 183.7 124.921 177.665 121.551C171.775 118.271 165.692 114.874 153.698 114.874C141.704 114.874 135.614 118.264 129.731 121.551C123.696 124.914 117.993 128.097 106.268 128.097C94.5434 128.097 88.5775 124.769 82.805 121.551C76.9151 118.271 70.8318 114.874 58.8379 114.874C49.8891 114.874 44.2339 116.766 39.4902 119.086C40.0633 119.21 40.6434 119.328 41.2303 119.417C45.6149 117.436 50.911 115.91 58.8379 115.91V115.903Z" fill="#00D4B1"/>
<path d="M58.8382 120.785C54.9438 120.785 51.6847 121.144 48.8398 121.738C49.4682 121.98 50.0965 122.221 50.7318 122.442C53.1071 122.049 55.7724 121.821 58.8313 121.821C70.5559 121.821 76.2594 124.997 82.2944 128.367C83.703 129.154 85.1185 129.941 86.6307 130.687C87.4109 130.687 88.1912 130.673 88.9783 130.639C86.7549 129.651 84.7594 128.553 82.7984 127.455C76.9085 124.176 70.8252 120.778 58.8313 120.778L58.8382 120.785Z" fill="#00D4B1"/>
<path d="M153.704 120.785C141.71 120.785 135.62 124.182 129.737 127.462C128.301 128.263 126.878 129.057 125.387 129.796C126.25 129.734 127.113 129.665 127.976 129.617C128.743 129.202 129.495 128.788 130.241 128.367C136.013 125.149 141.979 121.821 153.704 121.821C165.429 121.821 171.394 125.149 177.167 128.367C177.782 128.712 178.403 129.057 179.031 129.396C179.687 129.375 180.336 129.333 180.992 129.271C179.867 128.684 178.776 128.077 177.671 127.462C171.781 124.182 165.698 120.785 153.704 120.785Z" fill="#00D4B1"/>
<path d="M224.605 115.62C218.832 118.838 212.867 122.166 201.135 122.166C189.403 122.166 183.707 118.99 177.672 115.62C171.782 112.341 165.699 108.943 153.705 108.943C141.711 108.943 135.621 112.334 129.738 115.62C123.703 118.983 117.999 122.166 106.275 122.166C94.5501 122.166 88.5843 118.838 82.8117 115.62C76.9218 112.341 70.8385 108.943 58.8446 108.943C46.8507 108.943 40.7606 112.334 34.8775 115.62C34.0766 116.069 33.2756 116.511 32.4746 116.946C32.9165 117.098 33.3584 117.25 33.8004 117.402C34.332 117.112 34.8637 116.815 35.3885 116.525C41.161 113.307 47.1269 109.979 58.8515 109.979C70.5761 109.979 76.2796 113.155 82.3146 116.525C88.2045 119.805 94.2877 123.202 106.282 123.202C118.276 123.202 124.366 119.812 130.249 116.525C136.021 113.307 141.987 109.979 153.712 109.979C165.436 109.979 171.402 113.307 177.175 116.525C183.065 119.805 189.148 123.202 201.142 123.202C213.136 123.202 219.226 119.812 225.116 116.525C229.549 114.053 233.809 111.692 240.397 110.601C240.866 110.193 241.329 109.779 241.791 109.365C234.058 110.366 229.266 113.024 224.605 115.62Z" fill="#00D4B1"/>
<path d="M153.706 126.702C146.67 126.702 141.678 127.876 137.549 129.499C138.626 129.499 139.71 129.478 140.787 129.471C144.254 128.421 148.383 127.731 153.7 127.731C157.373 127.731 160.487 128.056 163.201 128.608C164.775 128.67 166.342 128.725 167.917 128.787C164.174 127.538 159.665 126.702 153.706 126.702Z" fill="#00D4B1"/>
<path d="M67.7598 127.448C70.0039 128.187 72.2687 128.815 74.5473 129.319C72.5449 128.56 70.3146 127.911 67.7598 127.448Z" fill="#00D4B1"/>
<path d="M248.58 97.1084C236.586 97.1084 230.496 100.499 224.613 103.785C218.841 107.003 212.875 110.331 201.143 110.331C189.412 110.331 183.715 107.155 177.68 103.785C171.79 100.506 165.707 97.1084 153.713 97.1084C141.719 97.1084 135.629 100.499 129.746 103.785C123.711 107.148 118.008 110.331 106.283 110.331C94.5585 110.331 88.5926 107.003 82.8201 103.785C76.9301 100.506 70.8469 97.1084 58.853 97.1084C46.8591 97.1084 40.7689 100.499 34.8859 103.785C29.9557 106.534 25.2397 109.158 17.2852 110.028C17.5544 110.186 17.8168 110.338 18.0861 110.497C18.3071 110.621 18.528 110.753 18.749 110.877C26.1649 109.82 30.8396 107.231 35.3899 104.697C41.1625 101.479 47.1284 98.151 58.853 98.151C70.5776 98.151 76.2811 101.327 82.316 104.697C88.2059 107.977 94.2892 111.374 106.283 111.374C118.277 111.374 124.367 107.984 130.25 104.697C136.023 101.479 141.989 98.151 153.713 98.151C165.438 98.151 171.404 101.479 177.176 104.697C183.066 107.977 189.149 111.374 201.143 111.374C213.137 111.374 219.227 107.984 225.117 104.697C231.159 101.334 236.856 98.151 248.58 98.151C249.471 98.151 250.314 98.1787 251.142 98.2132C251.301 97.8748 251.46 97.5434 251.598 97.1982C250.631 97.1498 249.637 97.1153 248.58 97.1153V97.1084Z" fill="#00D4B1"/>
<path d="M201.143 116.248C189.419 116.248 183.715 113.072 177.68 109.702C171.79 106.423 165.707 103.025 153.713 103.025C141.719 103.025 135.629 106.423 129.746 109.702C123.711 113.065 118.008 116.248 106.283 116.248C94.5586 116.248 88.5927 112.92 82.8201 109.702C76.9302 106.423 70.847 103.025 58.8531 103.025C46.8591 103.025 40.769 106.423 34.886 109.702C31.8409 111.401 28.8787 113.044 25.1914 114.267C25.6471 114.474 26.1029 114.674 26.5655 114.867C29.9144 113.652 32.6764 112.119 35.3831 110.614C41.1557 107.396 47.1215 104.068 58.8462 104.068C70.5708 104.068 76.2743 107.244 82.3092 110.614C88.1991 113.894 94.2824 117.291 106.276 117.291C118.27 117.291 124.36 113.894 130.243 110.614C136.016 107.396 141.982 104.068 153.706 104.068C165.431 104.068 171.397 107.396 177.169 110.614C183.059 113.894 189.143 117.291 201.137 117.291C213.13 117.291 219.221 113.894 225.111 110.614C230.911 107.382 236.421 104.324 247.248 104.096C247.552 103.75 247.849 103.398 248.132 103.046C236.442 103.129 230.42 106.471 224.606 109.716C218.834 112.934 212.868 116.262 201.137 116.262L201.143 116.248Z" fill="#00D4B1"/>
<path d="M11.4085 87.6894C23.4024 87.6894 29.4926 84.2922 35.3756 81.0123C41.1482 77.7946 47.1141 74.4664 58.8387 74.4664C70.5633 74.4664 76.2668 77.6427 82.3017 81.0123C88.1916 84.2922 94.2749 87.6894 106.269 87.6894C118.263 87.6894 124.353 84.2922 130.236 81.0123C136.008 77.7946 141.974 74.4664 153.699 74.4664C165.424 74.4664 171.389 77.7946 177.162 81.0123C183.052 84.2922 189.135 87.6894 201.129 87.6894C213.123 87.6894 219.213 84.2922 225.103 81.0123C231.145 77.6496 236.841 74.4664 248.566 74.4664C251.604 74.4664 254.242 74.6943 256.603 75.0809C256.7 74.7495 256.79 74.4112 256.88 74.0728C254.442 73.6723 251.715 73.4307 248.566 73.4307C236.572 73.4307 230.482 76.8279 224.599 80.1078C218.826 83.3255 212.861 86.6536 201.129 86.6536C189.398 86.6536 183.701 83.4774 177.666 80.1078C171.776 76.8279 165.693 73.4307 153.699 73.4307C141.705 73.4307 135.615 76.8279 129.732 80.1078C123.697 83.4705 117.993 86.6536 106.269 86.6536C94.5442 86.6536 88.5783 83.3255 82.8058 80.1078C76.9158 76.8279 70.8326 73.4307 58.8387 73.4307C46.8448 73.4307 40.7546 76.8279 34.8716 80.1078C28.8366 83.4705 23.1332 86.6536 11.4085 86.6536C6.95485 86.6536 3.32975 86.1703 0.236328 85.3969C0.284663 85.7629 0.332997 86.1289 0.367522 86.4948C3.44713 87.2268 7.0308 87.6825 11.4085 87.6825V87.6894Z" fill="#00D4B1"/>
<path d="M11.409 75.8544C23.4029 75.8544 29.4931 72.4641 35.3761 69.1773C41.1486 65.9596 47.1145 62.6314 58.8391 62.6314C70.5637 62.6314 76.2672 65.8077 82.3022 69.1773C88.1921 72.4572 94.2753 75.8544 106.269 75.8544C118.263 75.8544 124.353 72.4641 130.236 69.1773C136.009 65.9596 141.975 62.6314 153.699 62.6314C165.424 62.6314 171.39 65.9596 177.162 69.1773C183.052 72.4572 189.136 75.8544 201.13 75.8544C213.123 75.8544 219.214 72.4641 225.103 69.1773C231.145 65.8146 236.842 62.6314 248.567 62.6314C252.854 62.6314 256.369 63.0803 259.393 63.8053C259.476 63.4669 259.552 63.1286 259.635 62.7903C256.549 62.0514 252.958 61.5957 248.567 61.5957C236.573 61.5957 230.482 64.986 224.599 68.2728C218.827 71.4905 212.861 74.8187 201.13 74.8187C189.398 74.8187 183.701 71.6424 177.666 68.2728C171.777 64.9929 165.693 61.5957 153.699 61.5957C141.705 61.5957 135.615 64.986 129.732 68.2728C123.697 71.6355 117.994 74.8187 106.269 74.8187C94.5446 74.8187 88.5788 71.4905 82.8062 68.2728C76.9163 64.9929 70.833 61.5957 58.8391 61.5957C46.8452 61.5957 40.7551 64.986 34.872 68.2728C28.8371 71.6355 23.1336 74.8187 11.409 74.8187C7.52151 74.8187 4.28309 74.4458 1.45896 73.8451C1.39682 74.1903 1.32777 74.5287 1.26562 74.867C4.14499 75.4816 7.45246 75.8544 11.409 75.8544Z" fill="#00D4B1"/>
<path d="M11.4095 81.7724C23.4034 81.7724 29.4936 78.3821 35.3766 75.0953C41.1491 71.8776 47.115 68.5494 58.8396 68.5494C70.5642 68.5494 76.2677 71.7257 82.3027 75.0953C88.1926 78.3752 94.2759 81.7724 106.27 81.7724C118.264 81.7724 124.354 78.3821 130.237 75.0953C136.009 71.8776 141.975 68.5494 153.7 68.5494C165.425 68.5494 171.39 71.8776 177.163 75.0953C183.053 78.3752 189.136 81.7724 201.13 81.7724C213.124 81.7724 219.214 78.3821 225.104 75.0953C231.146 71.7326 236.842 68.5494 248.567 68.5494C252.24 68.5494 255.348 68.8739 258.061 69.4263C258.144 69.088 258.22 68.7497 258.303 68.4113C255.52 67.852 252.337 67.5137 248.567 67.5137C236.573 67.5137 230.483 70.904 224.6 74.1908C218.827 77.4085 212.862 80.7367 201.13 80.7367C189.399 80.7367 183.702 77.5604 177.667 74.1908C171.777 70.9109 165.694 67.5137 153.7 67.5137C141.706 67.5137 135.616 70.904 129.733 74.1908C123.698 77.5535 117.994 80.7367 106.27 80.7367C94.5452 80.7367 88.5793 77.4085 82.8067 74.1908C76.9168 70.9109 70.8335 67.5137 58.8396 67.5137C46.8457 67.5137 40.7556 70.904 34.8725 74.1908C28.8376 77.5535 23.1341 80.7367 11.4095 80.7367C6.99034 80.7367 3.38595 80.2602 0.306344 79.5007C0.244199 79.8459 0.182055 80.1912 0.140625 80.5295C3.27547 81.296 6.9282 81.7724 11.4164 81.7724H11.4095Z" fill="#00D4B1"/>
<path d="M11.4076 64.0195C23.4015 64.0195 29.4917 60.6291 35.3747 57.3424C41.1472 54.1247 47.1131 50.7965 58.8377 50.7965C70.5623 50.7965 76.2658 53.9728 82.3008 57.3424C88.1907 60.6222 94.2739 64.0195 106.268 64.0195C118.262 64.0195 124.352 60.6291 130.235 57.3424C136.007 54.1247 141.973 50.7965 153.698 50.7965C165.423 50.7965 171.388 54.1247 177.161 57.3424C183.051 60.6222 189.134 64.0195 201.128 64.0195C213.122 64.0195 219.212 60.6291 225.102 57.3424C231.144 53.9797 236.841 50.7965 248.565 50.7965C251.886 50.7965 254.738 51.0727 257.265 51.5284C257.252 51.1832 257.252 50.831 257.265 50.472C254.731 50.03 251.886 49.7607 248.572 49.7607C236.578 49.7607 230.488 53.1511 224.605 56.4378C218.832 59.6555 212.867 62.9837 201.135 62.9837C189.403 62.9837 183.707 59.8075 177.672 56.4378C171.782 53.158 165.699 49.7607 153.705 49.7607C141.711 49.7607 135.621 53.1511 129.738 56.4378C123.703 59.8005 117.999 62.9837 106.275 62.9837C94.5501 62.9837 88.5843 59.6555 82.8117 56.4378C76.9218 53.158 70.8385 49.7607 58.8446 49.7607C46.8507 49.7607 40.7605 53.1511 34.8775 56.4378C28.8426 59.8005 23.1391 62.9837 11.4145 62.9837C8.3487 62.9837 5.69029 62.7559 3.31498 62.3623C3.23213 62.7006 3.14236 63.039 3.06641 63.3704C5.51076 63.7778 8.25203 64.0195 11.4145 64.0195H11.4076Z" fill="#00D4B1"/>
<path d="M11.4096 105.449C23.4035 105.449 29.4937 102.052 35.3767 98.7721C41.1493 95.5544 47.1151 92.2262 58.8398 92.2262C70.5644 92.2262 76.2679 95.4025 82.3028 98.7721C88.1927 102.052 94.276 105.449 106.27 105.449C118.264 105.449 124.354 102.052 130.237 98.7721C136.01 95.5544 141.975 92.2262 153.7 92.2262C165.425 92.2262 171.39 95.5544 177.163 98.7721C183.053 102.052 189.136 105.449 201.13 105.449C213.124 105.449 219.214 102.052 225.104 98.7721C231.146 95.4094 236.843 92.2262 248.567 92.2262C250.162 92.2262 251.647 92.2952 253.042 92.4057C253.069 92.2883 253.097 92.1709 253.124 92.0535C253.166 91.8326 253.2 91.6047 253.242 91.3838C251.785 91.2595 250.238 91.1904 248.574 91.1904C236.58 91.1904 230.49 94.5877 224.607 97.8675C218.834 101.085 212.869 104.413 201.137 104.413C189.406 104.413 183.709 101.237 177.674 97.8675C171.784 94.5877 165.701 91.1904 153.707 91.1904C141.713 91.1904 135.623 94.5877 129.74 97.8675C123.705 101.23 118.001 104.413 106.277 104.413C94.5522 104.413 88.5863 101.085 82.8138 97.8675C76.9238 94.5877 70.8406 91.1904 58.8467 91.1904C46.8528 91.1904 40.7626 94.5877 34.8796 97.8675C28.8446 101.23 23.1411 104.413 11.4165 104.413C10.3739 104.413 9.39338 104.379 8.43359 104.331C8.82027 104.71 9.22076 105.076 9.64196 105.422C10.222 105.435 10.802 105.456 11.4096 105.456V105.449Z" fill="#00D4B1"/>
<path d="M11.4088 58.1024C23.4027 58.1024 29.4929 54.7052 35.3759 51.4253C41.1484 48.2076 47.1143 44.8794 58.8389 44.8794C70.5635 44.8794 76.267 48.0557 82.302 51.4253C88.1919 54.7052 94.2752 58.1024 106.269 58.1024C118.263 58.1024 124.353 54.7052 130.236 51.4253C136.009 48.2076 141.975 44.8794 153.699 44.8794C165.424 44.8794 171.39 48.2076 177.162 51.4253C183.052 54.7052 189.135 58.1024 201.129 58.1024C213.123 58.1024 219.213 54.7052 225.103 51.4253C231.145 48.0626 236.842 44.8794 248.566 44.8794C251.508 44.8794 254.083 45.0866 256.383 45.4525C256.293 45.2799 256.196 45.1073 256.086 44.9416C255.955 44.7413 255.851 44.5273 255.734 44.3201C253.586 44.0232 251.225 43.8506 248.559 43.8506C236.566 43.8506 230.475 47.2478 224.592 50.5277C218.82 53.7454 212.854 57.0736 201.122 57.0736C189.391 57.0736 183.694 53.8973 177.659 50.5277C171.769 47.2478 165.686 43.8506 153.692 43.8506C141.698 43.8506 135.608 47.2478 129.725 50.5277C123.69 53.8904 117.987 57.0736 106.262 57.0736C94.5375 57.0736 88.5717 53.7454 82.7991 50.5277C76.9092 47.2478 70.8259 43.8506 58.832 43.8506C46.8381 43.8506 40.7479 47.2478 34.8649 50.5277C28.83 53.8904 23.1265 57.0736 11.4019 57.0736C9.00588 57.0736 6.85844 56.9286 4.89743 56.68C4.80076 57.0183 4.70409 57.3498 4.60742 57.6881C6.65129 57.9505 8.8954 58.1093 11.4019 58.1093L11.4088 58.1024Z" fill="#00D4B1"/>
<path d="M11.409 99.5312C23.4029 99.5312 29.493 96.1409 35.376 92.8541C41.1486 89.6364 47.1145 86.3082 58.8391 86.3082C70.5637 86.3082 76.2672 89.4845 82.3021 92.8541C88.192 96.134 94.2753 99.5312 106.269 99.5312C118.263 99.5312 124.353 96.1409 130.236 92.8541C136.009 89.6364 141.975 86.3082 153.699 86.3082C165.424 86.3082 171.39 89.6364 177.162 92.8541C183.052 96.134 189.136 99.5312 201.129 99.5312C213.123 99.5312 219.214 96.1409 225.103 92.8541C231.145 89.4914 236.842 86.3082 248.566 86.3082C250.521 86.3082 252.302 86.4049 253.959 86.5775C253.98 86.4394 254.001 86.3013 254.021 86.1632C254.056 85.9561 254.084 85.7558 254.118 85.5487C252.413 85.376 250.583 85.2725 248.573 85.2725C236.579 85.2725 230.489 88.6628 224.606 91.9496C218.834 95.1673 212.868 98.4954 201.136 98.4954C189.405 98.4954 183.708 95.3192 177.673 91.9496C171.783 88.6697 165.7 85.2725 153.706 85.2725C141.712 85.2725 135.622 88.6628 129.739 91.9496C123.704 95.3123 118.001 98.4954 106.276 98.4954C94.5515 98.4954 88.5856 95.1673 82.8131 91.9496C76.9232 88.6697 70.8399 85.2725 58.846 85.2725C46.8521 85.2725 40.7619 88.6628 34.8789 91.9496C28.844 95.3123 23.1405 98.4954 11.4159 98.4954C8.39839 98.4954 5.76761 98.2745 3.41992 97.8878C3.70993 98.2814 3.99303 98.6681 4.28304 99.0617C6.41667 99.3586 8.76436 99.5312 11.4159 99.5312H11.409Z" fill="#00D4B1"/>
</svg>
