<svg width="169" height="145" viewBox="0 0 169 145" fill="none" xmlns="http://www.w3.org/2000/svg">
<path d="M96.0025 143.32C93.0159 143.293 90.16 143.582 87.3041 143.69C81.1598 143.928 75.011 144.19 68.8668 144.451C63.8847 144.663 58.8936 144.564 53.907 144.613C52.952 144.622 51.9745 144.555 51.0466 144.735C48.2763 145.271 45.542 144.852 42.8077 144.555C40.0914 144.262 37.713 143.221 35.8165 141.149C31.2263 136.14 25.546 132.649 19.5594 129.608C18.0369 128.833 16.636 127.892 15.262 126.896C13.8566 125.878 12.762 124.604 12.0052 123.05C11.4512 121.905 10.9196 120.748 10.4016 119.586C10.0592 118.811 9.88806 117.928 9.42409 117.239C7.74838 114.743 6.89251 111.883 5.68527 109.18C4.59066 106.738 3.81587 104.22 3.33387 101.599C2.33385 96.1751 1.17167 90.7741 0.396875 85.319C-0.368906 79.9361 -0.0445752 74.6206 1.52753 69.2827C3.12216 63.8591 6.09519 59.278 9.0457 54.6292C12.8025 48.7102 17.1134 43.1875 21.1991 37.5027C23.2577 34.6378 25.5145 32.0026 28.0551 29.5836C29.2894 28.4124 30.5507 27.2818 31.9921 26.3629C32.4381 26.0791 32.9336 25.8178 33.2759 25.4304C35.5373 22.8448 38.5238 21.1646 41.195 19.0969C42.7761 17.8762 44.6005 16.9663 46.2942 15.8852C49.9565 13.5473 53.5962 11.1688 57.2719 8.84898C59.6368 7.35345 62.209 6.43001 65.0334 6.24532C67.2496 6.10117 69.092 5.08764 70.6776 3.59211C72.5831 1.79478 74.7813 0.592048 77.385 0.191138C78.0111 0.0965419 78.6598 -0.0476053 79.2769 0.0154591C84.0247 0.479433 88.7771 0.997462 93.4123 2.14163C95.4619 2.65065 97.4304 3.49751 99.4125 4.24978C103.381 5.75432 107.327 7.31741 111.291 8.82195C112.989 9.46611 114.593 10.295 116.03 11.3941C117.643 12.6238 119.386 13.6103 121.17 14.5608C122.476 15.2545 123.742 16.0563 124.913 16.9527C126.954 18.5158 129.143 19.7726 131.553 20.66C135.265 22.0294 138.584 24.016 141.765 26.3989C145.67 29.3269 149.436 32.4305 153.328 35.363C155.977 37.3631 158.274 39.6649 160.143 42.4263C163.571 47.4939 166.238 52.9265 167.306 58.9536C168.36 64.8952 169.409 70.8998 168.833 76.972C168.504 80.4631 168.396 83.9451 168.229 87.4407C168.067 90.7921 166.986 93.8417 164.608 96.3959C162.657 98.486 160.932 100.783 159.071 102.964C158.387 103.77 157.711 104.648 156.855 105.234C154.774 106.653 153.436 108.68 151.981 110.635C148.112 115.847 143.936 120.77 138.706 124.703C136.837 126.108 135.192 127.73 133.665 129.527C131.954 131.541 129.972 133.329 128.075 135.185C127.161 136.081 126.107 136.816 124.931 137.329C120.944 139.081 116.922 140.726 112.584 141.433C109.444 141.942 106.309 142.505 103.174 143.032C100.75 143.442 98.3043 143.275 95.989 143.316L96.0025 143.32Z" fill="#E2E2E2"/>
<path d="M88.1572 143.654L141.541 26.2187C141.424 26.1331 141.307 26.0475 141.19 25.9619L87.6797 143.672C87.8373 143.663 87.9995 143.658 88.1572 143.649V143.654Z" fill="#C679F2"/>
<path d="M90.3941 143.528L143.161 27.4533C143.044 27.3632 142.931 27.2776 142.814 27.1875L89.9121 143.555C90.0743 143.546 90.2319 143.537 90.3941 143.528Z" fill="#C679F2"/>
<path d="M85.9306 143.743L139.891 25.0466C139.774 24.9655 139.652 24.8799 139.535 24.7988L85.4531 143.765C85.6108 143.761 85.773 143.752 85.9306 143.747V143.743Z" fill="#C679F2"/>
<path d="M79.2562 144.014L134.721 22.0115C134.595 21.9484 134.469 21.8808 134.338 21.8223L78.7832 144.037C78.9409 144.032 79.103 144.023 79.2607 144.019L79.2562 144.014Z" fill="#C679F2"/>
<path d="M83.7066 143.833L138.208 23.9434C138.086 23.8668 137.96 23.7947 137.838 23.7227L83.2246 143.856C83.3823 143.851 83.5444 143.842 83.7021 143.838L83.7066 143.833Z" fill="#C679F2"/>
<path d="M81.4794 143.923L136.481 22.9299C136.354 22.8623 136.228 22.7947 136.107 22.7227L81.002 143.941C81.1596 143.937 81.3218 143.928 81.4794 143.923Z" fill="#C679F2"/>
<path d="M97.0413 143.312L147.997 31.2146C147.88 31.1245 147.768 31.0344 147.651 30.9443L96.5684 143.312C96.726 143.312 96.8792 143.312 97.0368 143.312H97.0413Z" fill="#C679F2"/>
<path d="M99.2249 143.315L149.609 32.4793C149.492 32.3892 149.379 32.2991 149.262 32.209L98.752 143.319C98.9096 143.319 99.0673 143.319 99.2204 143.319L99.2249 143.315Z" fill="#C679F2"/>
<path d="M94.8538 143.325L146.391 29.9529C146.274 29.8628 146.161 29.7727 146.044 29.6826L94.3809 143.334C94.5385 143.334 94.6962 143.325 94.8538 143.32V143.325Z" fill="#C679F2"/>
<path d="M92.6376 143.402L144.783 28.6964C144.666 28.6063 144.549 28.5163 144.436 28.4307L92.1602 143.429C92.3223 143.42 92.48 143.411 92.6421 143.402H92.6376Z" fill="#C679F2"/>
<path d="M72.579 144.293L129.242 19.6511C129.116 19.588 128.986 19.525 128.859 19.4619L72.1016 144.32C72.2592 144.311 72.4214 144.307 72.579 144.302V144.293Z" fill="#C679F2"/>
<path d="M65.9163 144.541L124.17 16.3942C124.053 16.3087 123.931 16.2276 123.814 16.1465L65.4434 144.55C65.601 144.55 65.7587 144.541 65.9163 144.541Z" fill="#C679F2"/>
<path d="M63.7146 144.577L122.486 15.2998C122.364 15.2278 122.243 15.1512 122.117 15.0791L63.2461 144.586C63.4038 144.586 63.5614 144.586 63.7191 144.582L63.7146 144.577Z" fill="#C679F2"/>
<path d="M61.5238 144.59L120.746 14.317C120.62 14.2494 120.493 14.1818 120.367 14.1143L61.0508 144.594C61.2084 144.594 61.3661 144.594 61.5193 144.594L61.5238 144.59Z" fill="#C679F2"/>
<path d="M59.3409 144.595L119.009 13.3442C118.887 13.2721 118.761 13.2045 118.639 13.1279L58.877 144.595C59.0346 144.595 59.1878 144.595 59.3454 144.595H59.3409Z" fill="#C679F2"/>
<path d="M68.1273 144.478L125.809 17.5927C125.692 17.5071 125.574 17.4215 125.457 17.3359L67.6543 144.492C67.812 144.487 67.9741 144.483 68.1318 144.474L68.1273 144.478Z" fill="#C679F2"/>
<path d="M74.8056 144.198L131.059 20.4565C130.928 20.4024 130.793 20.3529 130.663 20.2988L74.3281 144.22C74.4858 144.216 74.648 144.207 74.8056 144.202V144.198Z" fill="#C679F2"/>
<path d="M101.445 143.239L151.225 33.7326C151.108 33.6425 150.991 33.5569 150.878 33.4668L100.963 143.266C101.125 143.257 101.283 143.248 101.445 143.239Z" fill="#C679F2"/>
<path d="M70.3531 144.388L127.489 18.692C127.368 18.62 127.242 18.5434 127.12 18.4668L69.8711 144.406C70.0288 144.397 70.1909 144.393 70.3486 144.388H70.3531Z" fill="#C679F2"/>
<path d="M77.0283 144.104L132.908 21.187C132.777 21.1329 132.642 21.0834 132.511 21.0293L76.5508 144.126C76.7084 144.122 76.8706 144.113 77.0283 144.108V144.104Z" fill="#C679F2"/>
<path d="M126.296 136.599L165.059 51.3274C164.987 51.1518 164.905 50.9761 164.829 50.7959L125.652 136.978C125.873 136.861 126.085 136.73 126.292 136.599H126.296Z" fill="#C679F2"/>
<path d="M145.351 118.699L168.644 67.4595C168.613 67.1847 168.581 66.9144 168.55 66.6396L144.459 119.636C144.761 119.325 145.058 119.015 145.355 118.699H145.351Z" fill="#C679F2"/>
<path d="M129.927 133.414L166.045 53.9622C165.977 53.764 165.914 53.5658 165.847 53.3721L129.094 134.221C129.373 133.95 129.652 133.68 129.932 133.41L129.927 133.414Z" fill="#C679F2"/>
<path d="M137.982 125.302L167.555 60.2511C167.51 60.0033 167.469 59.7556 167.424 59.5078L137.234 125.919C137.478 125.707 137.734 125.505 137.982 125.302Z" fill="#C679F2"/>
<path d="M133.685 129.527C133.811 129.378 133.946 129.234 134.077 129.086L166.893 56.8995C166.839 56.6788 166.78 56.458 166.726 56.2373L133.131 130.144C133.316 129.937 133.509 129.739 133.689 129.527H133.685Z" fill="#C679F2"/>
<path d="M141.454 122.469L168.139 63.7648C168.098 63.508 168.058 63.2558 168.017 62.999L140.67 123.153C140.936 122.928 141.192 122.694 141.454 122.464V122.469Z" fill="#C679F2"/>
<path d="M163.807 97.3148L168.239 87.5624C168.239 87.5218 168.244 87.4813 168.248 87.4407C168.266 87.0984 168.28 86.756 168.293 86.4092L162.82 98.45C163.145 98.0671 163.473 97.6887 163.807 97.3148Z" fill="#C679F2"/>
<path d="M150.025 113.221L168.971 71.5442C168.958 71.2333 168.94 70.927 168.922 70.6162L148.926 114.604C149.295 114.149 149.66 113.685 150.025 113.221Z" fill="#C679F2"/>
<path d="M159.013 103.053L168.486 82.2101C168.504 81.8137 168.531 81.4218 168.554 81.0254L158.018 104.206C158.36 103.832 158.684 103.436 159.013 103.053Z" fill="#C679F2"/>
<path d="M155.199 106.643L168.889 76.5348C168.92 76.1338 168.947 75.7329 168.965 75.332L154.271 107.657C154.564 107.31 154.875 106.972 155.199 106.648V106.643Z" fill="#C679F2"/>
<path d="M57.156 144.599L117.306 12.2855C117.184 12.2044 117.072 12.1143 116.95 12.0332L56.6875 144.599C56.8452 144.599 57.0028 144.599 57.156 144.599Z" fill="#C679F2"/>
<path d="M110.864 141.726L157.514 39.1064C157.411 38.9938 157.307 38.8812 157.199 38.7686L110.355 141.811C110.527 141.784 110.693 141.753 110.864 141.726Z" fill="#C679F2"/>
<path d="M103.765 142.936L152.842 34.9748C152.725 34.8847 152.613 34.7946 152.496 34.709L103.256 143.022C103.427 142.995 103.594 142.964 103.765 142.936Z" fill="#C679F2"/>
<path d="M108.499 142.126L156.014 37.6055C155.906 37.5019 155.793 37.4028 155.68 37.3037L107.99 142.211C108.161 142.184 108.328 142.153 108.499 142.126Z" fill="#C679F2"/>
<path d="M106.134 142.528L154.455 36.2328C154.342 36.1382 154.225 36.0481 154.112 35.958L105.625 142.613C105.796 142.586 105.963 142.555 106.134 142.528Z" fill="#C679F2"/>
<path d="M113.238 141.312L158.942 40.769C158.843 40.6429 158.744 40.5168 158.644 40.3906L112.725 141.406C112.896 141.379 113.067 141.339 113.238 141.307V141.312Z" fill="#C679F2"/>
<path d="M123.495 137.964L163.969 48.9311C163.888 48.7644 163.807 48.6022 163.726 48.4355L122.914 138.208C123.108 138.127 123.301 138.046 123.495 137.964Z" fill="#C679F2"/>
<path d="M120.81 139.063L162.797 46.6964C162.712 46.5432 162.626 46.3856 162.54 46.2324L120.242 139.284C120.431 139.212 120.621 139.14 120.81 139.063Z" fill="#C679F2"/>
<path d="M118.198 140.014L161.573 44.602C161.483 44.4578 161.393 44.3092 161.303 44.165L117.648 140.194C117.833 140.136 118.018 140.072 118.203 140.009L118.198 140.014Z" fill="#C679F2"/>
<path d="M115.666 140.776L160.288 42.616C160.248 42.5529 160.207 42.4898 160.162 42.4268C160.113 42.3502 160.054 42.2781 160.004 42.2061L115.139 140.906C115.314 140.861 115.49 140.825 115.666 140.78V140.776Z" fill="#C679F2"/>
<path d="M1.16774 90.0485L29.0827 28.6328C28.808 28.8806 28.5422 29.1283 28.2719 29.3851L1.03711 89.3007C1.07765 89.5485 1.1227 89.7962 1.16774 90.044V90.0485Z" fill="#C679F2"/>
<path d="M11.0819 121.072L63.1686 6.48438C62.9929 6.51591 62.8217 6.55645 62.6505 6.59249L10.8477 120.554C10.9242 120.726 11.0008 120.901 11.0819 121.072Z" fill="#C679F2"/>
<path d="M10.032 118.573L60.6727 7.17383C60.4835 7.2414 60.2943 7.30897 60.1051 7.38554L9.82031 118.005C9.89689 118.19 9.96446 118.383 10.032 118.577V118.573Z" fill="#C679F2"/>
<path d="M8.87004 116.329L57.8981 8.47949C57.6909 8.60112 57.4837 8.71824 57.281 8.84887C57.272 8.85337 57.2629 8.86238 57.2539 8.86689L8.61328 115.86C8.69887 116.018 8.77995 116.175 8.87004 116.329Z" fill="#C679F2"/>
<path d="M7.72192 114.049L54.8355 10.4121C54.6148 10.5518 54.3941 10.6959 54.1733 10.8355L7.49219 113.522C7.56877 113.698 7.64534 113.874 7.72192 114.049Z" fill="#C679F2"/>
<path d="M5.63148 109.04L48.6729 14.3623C48.4522 14.5065 48.2315 14.6461 48.0107 14.7902L5.40625 108.508C5.48283 108.684 5.5549 108.864 5.63598 109.04H5.63148Z" fill="#C679F2"/>
<path d="M6.6758 111.545L51.7533 12.3809C51.5326 12.525 51.3119 12.6646 51.0911 12.8088L6.45508 110.996C6.52715 111.176 6.60373 111.36 6.6758 111.541V111.545Z" fill="#C679F2"/>
<path d="M16.708 127.902L74.3534 1.09766C74.1507 1.18775 73.9525 1.27784 73.7543 1.37694L16.3477 127.659C16.4648 127.74 16.5864 127.817 16.708 127.898V127.902Z" fill="#C679F2"/>
<path d="M12.0097 123.046C12.0683 123.172 12.1359 123.289 12.1989 123.41L65.4883 6.19629C65.3397 6.21431 65.1955 6.23683 65.0424 6.24584C65.0243 6.24584 65.0108 6.24584 64.9928 6.25034L11.9512 122.924C11.9692 122.964 11.9872 123.005 12.0097 123.046Z" fill="#C679F2"/>
<path d="M15.0533 126.735L71.2707 3.07031C71.0725 3.23698 70.8743 3.40816 70.6851 3.58834C70.6175 3.65141 70.5499 3.70546 70.4824 3.76402L14.7109 126.465C14.8236 126.559 14.9407 126.645 15.0578 126.735H15.0533Z" fill="#C679F2"/>
<path d="M13.5186 125.311L67.9972 5.4707C67.8035 5.5608 67.6098 5.64638 67.4116 5.72296L13.2168 124.951C13.3159 125.072 13.415 125.194 13.5231 125.316L13.5186 125.311Z" fill="#C679F2"/>
<path d="M0.0488281 78.0887L14.0356 47.3223C13.5987 47.9304 13.1662 48.543 12.7338 49.1556L0.125406 76.8859C0.0938741 77.2869 0.0668465 77.6878 0.0488281 78.0842V78.0887Z" fill="#C679F2"/>
<path d="M0.58587 86.5172L25.0503 32.6963C24.717 33.0702 24.3882 33.4486 24.0638 33.8314L0.46875 85.7424C0.504787 85.9992 0.545328 86.2605 0.58587 86.5172Z" fill="#C679F2"/>
<path d="M18.4065 128.973L76.9077 0.286133C76.7365 0.32217 76.5609 0.349197 76.3897 0.389739L18.0371 128.748C18.1587 128.825 18.2804 128.901 18.402 128.973H18.4065Z" fill="#C679F2"/>
<path d="M0.126919 82.7285L19.812 39.4258C19.4021 39.9889 18.9877 40.5519 18.5778 41.1105L0.0683594 81.8231C0.0863778 82.1249 0.104396 82.4267 0.126919 82.7285Z" fill="#C679F2"/>
<path d="M1.53608 69.2778C1.3604 69.8769 1.20274 70.4715 1.05859 71.0661L7.19386 57.5703C6.51366 58.6649 5.85149 59.7641 5.21634 60.8857L1.82888 68.3363C1.72527 68.6471 1.62617 68.9624 1.53608 69.2778Z" fill="#C679F2"/>
<path d="M2.43847 96.8508L36.0923 22.8223C35.8401 23.0205 35.5923 23.2277 35.3446 23.4349L2.29883 96.1301L2.43847 96.8553V96.8508Z" fill="#C679F2"/>
<path d="M1.78943 93.4759L32.4207 26.1006C32.2811 26.1862 32.1369 26.2763 32.0018 26.3619C31.9162 26.4159 31.8396 26.4745 31.7585 26.533L1.6543 92.7416C1.69934 92.9849 1.74439 93.2281 1.78943 93.4759Z" fill="#C679F2"/>
<path d="M54.971 144.604L115.652 11.1188C115.535 11.0333 115.414 10.9522 115.297 10.8711L54.498 144.608C54.6557 144.608 54.8134 144.608 54.9665 144.608L54.971 144.604Z" fill="#C679F2"/>
<path d="M3.76118 103.554L42.5953 18.124C42.3701 18.2682 42.1449 18.4168 41.9241 18.57L3.60352 102.869C3.65307 103.099 3.70712 103.329 3.76118 103.554Z" fill="#C679F2"/>
<path d="M4.62008 106.464L45.5984 16.3223C45.3867 16.4529 45.1705 16.579 44.9543 16.7052L4.42188 105.869C4.48494 106.067 4.55251 106.27 4.62008 106.468V106.464Z" fill="#C679F2"/>
<path d="M3.08496 100.234L39.3515 20.4531C39.1217 20.6153 38.892 20.782 38.6578 20.9441L2.94531 99.5043C2.99036 99.7476 3.0354 99.9908 3.08045 100.234H3.08496Z" fill="#C679F2"/>
<path d="M41.9475 144.428L104.742 6.29476C104.606 6.24521 104.476 6.19115 104.341 6.1416L41.5195 144.338C41.6637 144.37 41.8033 144.401 41.9475 144.424V144.428Z" fill="#C679F2"/>
<path d="M39.998 143.919L102.887 5.57796C102.752 5.52841 102.621 5.47436 102.486 5.4248L39.6016 143.761C39.7322 143.815 39.8628 143.869 39.998 143.919Z" fill="#C679F2"/>
<path d="M38.1963 143.081L101.026 4.86605C100.891 4.8165 100.761 4.76244 100.626 4.71289L37.8359 142.842C37.9576 142.918 38.0747 143.004 38.1963 143.076V143.081Z" fill="#C679F2"/>
<path d="M44.0143 144.686L106.601 7.01155C106.466 6.962 106.335 6.90795 106.2 6.8584L43.5684 144.636C43.717 144.654 43.8657 144.668 44.0143 144.686Z" fill="#C679F2"/>
<path d="M46.1054 144.897L108.458 7.72738C108.323 7.67782 108.192 7.62377 108.057 7.57422L45.6504 144.856C45.799 144.87 45.9522 144.883 46.1009 144.897H46.1054Z" fill="#C679F2"/>
<path d="M50.5065 144.815L112.165 9.17681C112.035 9.12276 111.904 9.0687 111.769 9.01465L50.002 144.891C50.1686 144.873 50.3398 144.842 50.5065 144.815Z" fill="#C679F2"/>
<path d="M52.7855 144.609L113.953 10.0474C113.827 9.97986 113.701 9.9123 113.575 9.84473L52.3125 144.618C52.4702 144.618 52.6278 144.613 52.7855 144.613V144.609Z" fill="#C679F2"/>
<path d="M48.2439 144.983L110.317 8.44417C110.182 8.39462 110.051 8.34057 109.916 8.29102L47.7754 144.983C47.9331 144.983 48.0862 144.983 48.2439 144.983Z" fill="#C679F2"/>
<path d="M36.5562 141.878L99.1701 4.15023C99.0349 4.10068 98.9043 4.04662 98.7692 3.99707L36.2363 141.559C36.3444 141.667 36.448 141.779 36.5607 141.878H36.5562Z" fill="#C679F2"/>
<path d="M31.9966 137.5L93.5205 2.16415C93.4889 2.15514 93.4574 2.14613 93.4213 2.13713C93.3132 2.1101 93.2051 2.08757 93.097 2.06055L31.6543 137.221C31.7669 137.316 31.884 137.406 31.9966 137.5Z" fill="#C679F2"/>
<path d="M25.3864 132.82L85.4507 0.695279C85.302 0.67726 85.1534 0.654737 85.0092 0.636719L25.0215 132.599C25.1431 132.671 25.2647 132.748 25.3909 132.824L25.3864 132.82Z" fill="#C679F2"/>
<path d="M27.0914 133.887L87.5026 0.983585C87.3585 0.961062 87.2098 0.938539 87.0612 0.916016L26.7266 133.653C26.8482 133.73 26.9698 133.806 27.0914 133.887Z" fill="#C679F2"/>
<path d="M23.6668 131.807L83.3843 0.443704C83.2357 0.425685 83.087 0.407667 82.9384 0.389648L23.293 131.595C23.4191 131.667 23.5407 131.735 23.6668 131.807Z" fill="#C679F2"/>
<path d="M21.9253 130.843L81.3049 0.213991C81.1562 0.200477 81.0076 0.182459 80.8544 0.168945L21.5469 130.64C21.673 130.708 21.7991 130.775 21.9253 130.843Z" fill="#C679F2"/>
<path d="M20.1641 129.915L79.2149 0.0114587C79.0618 0.00244946 78.9041 -0.00205514 78.7464 0.0114587L19.7812 129.717C19.9074 129.78 20.0335 129.848 20.1596 129.911L20.1641 129.915Z" fill="#C679F2"/>
<path d="M33.5554 138.878L95.4396 2.74451C95.3044 2.69947 95.1693 2.64992 95.0342 2.60938L33.2266 138.572C33.3392 138.671 33.4473 138.774 33.5554 138.878Z" fill="#C679F2"/>
<path d="M35.0685 140.352L97.313 3.4305C97.1779 3.38095 97.0472 3.32689 96.9121 3.27734L34.7441 140.028C34.8523 140.136 34.9604 140.244 35.064 140.352H35.0685Z" fill="#C679F2"/>
<path d="M28.7582 135.018L89.5342 1.3217C89.3901 1.29467 89.246 1.27214 89.0973 1.24512L28.4023 134.77C28.5195 134.852 28.6411 134.937 28.7582 135.018Z" fill="#C679F2"/>
<path d="M30.3982 136.216L91.5437 1.70863C91.3995 1.6771 91.2554 1.65007 91.1112 1.62305L30.0469 135.955C30.164 136.04 30.2811 136.13 30.3937 136.22L30.3982 136.216Z" fill="#C679F2"/>
<path d="M128.264 73.3823C115.629 69.63 102.295 76.8554 98.5386 89.4908C96.7188 95.6125 97.3945 102.077 100.44 107.689C103.48 113.302 108.53 117.397 114.652 119.217C116.904 119.888 119.206 120.217 121.49 120.217C125.413 120.217 129.301 119.239 132.85 117.316C138.463 114.275 142.558 109.225 144.377 103.104C146.197 96.9819 145.522 90.5178 142.476 84.9051C139.431 79.2924 134.386 75.1977 128.264 73.3778V73.3823ZM143.963 102.987C142.179 109 138.157 113.955 132.643 116.942C127.129 119.928 120.782 120.595 114.769 118.807C102.359 115.122 95.2593 102.027 98.9486 89.6124C101.976 79.423 111.341 72.8148 121.467 72.8148C123.674 72.8148 125.918 73.1301 128.143 73.7878C140.553 77.477 147.652 90.5719 143.963 102.982V102.987Z" fill="#00F02B"/>
<path d="M123.639 82.7421C116.162 81.5349 109.103 86.6431 107.9 94.1162C106.697 101.589 111.801 108.653 119.274 109.855C120.009 109.972 120.743 110.031 121.464 110.031C128.081 110.031 133.928 105.22 135.013 98.4812C136.216 91.0081 131.112 83.9448 123.639 82.7421ZM134.59 98.4136C134.027 101.923 132.13 104.999 129.248 107.08C126.369 109.162 122.851 109.995 119.342 109.432C112.099 108.265 107.157 101.427 108.319 94.1838C109.369 87.6521 115.035 82.9944 121.446 82.9944C122.144 82.9944 122.855 83.0484 123.567 83.1656C127.076 83.7286 130.153 85.6251 132.234 88.508C134.315 91.3864 135.153 94.9045 134.585 98.4136H134.59Z" fill="#00F02B"/>
<path d="M127.107 75.7244C121.611 74.2154 115.855 74.9361 110.899 77.7515C105.944 80.5713 102.386 85.148 100.877 90.6436C99.3677 96.1392 100.088 101.896 102.904 106.851C105.724 111.806 110.3 115.365 115.796 116.874C117.674 117.392 119.584 117.644 121.481 117.644C125.134 117.644 128.738 116.698 131.999 114.842C136.954 112.022 140.513 107.446 142.022 101.95C145.139 90.6031 138.445 78.8371 127.098 75.7199L127.107 75.7244ZM141.621 101.838C140.139 107.225 136.652 111.712 131.796 114.473C126.94 117.234 121.301 117.941 115.918 116.464C110.53 114.982 106.044 111.495 103.282 106.639C100.521 101.784 99.8137 96.1437 101.291 90.7607C102.773 85.3732 106.26 80.8867 111.116 78.1253C114.309 76.3055 117.846 75.382 121.422 75.382C123.283 75.382 125.152 75.6343 126.994 76.1388C138.112 79.1929 144.675 90.7247 141.621 101.842V101.838Z" fill="#00F02B"/>
<path d="M124.796 80.404C120.553 79.5121 116.21 80.3274 112.579 82.6968C108.944 85.0663 106.453 88.7105 105.561 92.9583C104.669 97.2062 105.485 101.544 107.854 105.175C110.223 108.81 113.868 111.301 118.116 112.193C119.237 112.427 120.359 112.544 121.458 112.544C128.976 112.544 135.742 107.283 137.35 99.6386C139.193 90.8727 133.562 82.2419 124.796 80.3995V80.404ZM136.936 99.5531C135.373 106.995 128.782 112.116 121.462 112.116C120.39 112.116 119.296 112.004 118.206 111.779C114.07 110.909 110.521 108.481 108.214 104.945C105.908 101.409 105.111 97.1836 105.98 93.0484C106.85 88.9132 109.278 85.3636 112.814 83.0572C115.417 81.359 118.39 80.4806 121.426 80.4806C122.517 80.4806 123.62 80.5932 124.71 80.8229C133.246 82.6158 138.729 91.0213 136.936 99.5531Z" fill="#00F02B"/>
<path d="M125.954 78.0624C115.9 75.5848 105.702 81.7471 103.22 91.8014C100.742 101.856 106.904 112.054 116.959 114.536C118.463 114.905 119.972 115.086 121.454 115.086C129.891 115.086 137.581 109.351 139.693 100.797C140.896 95.9276 140.126 90.878 137.531 86.5851C134.936 82.2922 130.824 79.2651 125.954 78.0624ZM139.279 100.693C136.855 110.518 126.891 116.545 117.062 114.117C107.238 111.694 101.215 101.73 103.639 91.9005C105.702 83.5445 113.215 77.9408 121.459 77.9408C122.909 77.9408 124.382 78.1119 125.855 78.4768C130.617 79.6525 134.635 82.6075 137.171 86.8058C139.707 91.0041 140.455 95.9366 139.283 100.693H139.279Z" fill="#00F02B"/>
<path d="M135.175 59.3371C114.792 51.7739 92.0572 62.2021 84.494 82.5809C80.8318 92.4549 81.2282 103.162 85.6202 112.735C90.0121 122.307 97.8636 129.595 107.738 133.262C112.206 134.92 116.846 135.749 121.477 135.749C123.698 135.749 125.914 135.555 128.108 135.177C128.292 134.996 128.477 134.821 128.662 134.645C121.77 135.951 114.634 135.37 107.886 132.866C87.7283 125.384 77.4128 102.892 84.8949 82.734C90.7239 67.031 105.652 57.3011 121.499 57.3011C125.999 57.3011 130.572 58.0848 135.027 59.738C144.793 63.3642 152.563 70.5716 156.905 80.0403C160.072 86.9458 161.131 94.446 160.072 101.788C160.243 101.581 160.419 101.374 160.586 101.167C161.496 93.964 160.396 86.6305 157.293 79.8646C152.901 70.2923 145.049 63.0039 135.175 59.3371Z" fill="#00F02B"/>
<path d="M29.2303 131.955C19.7075 107.319 20.3472 80.4538 31.0321 56.3001C41.717 32.1465 61.1679 13.5965 85.799 4.0738C87.9072 3.25847 90.0333 2.51972 92.173 1.85304C91.8982 1.78997 91.6235 1.73141 91.3442 1.67285C89.4342 2.28548 87.5333 2.94765 85.6458 3.6774C60.9066 13.2407 41.3702 31.8672 30.6402 56.1289C19.9103 80.3862 19.2661 107.369 28.8339 132.113C29.3924 133.554 29.9825 134.977 30.5997 136.383C30.8429 136.572 31.0817 136.757 31.3204 136.95C30.5816 135.311 29.8834 133.649 29.2303 131.959V131.955Z" fill="#00F02B"/>
<path d="M61.3221 120.991C54.7274 104.927 54.7814 87.2601 61.4707 71.2372C71.8809 46.3268 96.0886 31.2905 121.54 31.2905C129.878 31.2905 138.351 32.9031 146.513 36.3131C152.292 38.7276 157.536 41.8853 162.185 45.6286C161.982 45.2817 161.775 44.9394 161.563 44.5925C157.103 41.133 152.126 38.196 146.675 35.9167C113.386 22.0065 74.9845 37.7771 61.0743 71.0706C54.3355 87.197 54.2814 104.981 60.9212 121.148C64.5519 129.995 69.9574 137.775 76.7413 144.113C76.9395 144.104 77.1422 144.095 77.3404 144.086C70.4529 137.739 64.9798 129.91 61.3176 120.986L61.3221 120.991Z" fill="#00F02B"/>
<path d="M16.9835 49.3994C20.2853 42.0434 24.2944 35.1514 28.9252 28.7773C28.6369 29.0431 28.3486 29.3089 28.0648 29.5792C27.8035 29.8269 27.5468 30.0792 27.29 30.3359C23.1863 36.2234 19.5961 42.5344 16.5916 49.2282C7.26705 70.0034 4.36158 92.5444 7.93373 114.513C8.13644 114.95 8.35266 115.383 8.5869 115.811C4.68141 93.4949 7.50129 70.5305 16.9835 49.4039V49.3994Z" fill="#00F02B"/>
<path d="M14.6402 48.2503C15.4195 46.516 16.2394 44.8087 17.0953 43.124C16.6043 43.7907 16.1178 44.4574 15.6313 45.1196C15.1583 46.0971 14.6988 47.0791 14.2529 48.0701C6.0725 66.2551 2.70757 85.7691 4.18958 105.107C4.36526 105.688 4.55445 106.269 4.75716 106.842C2.9328 86.9943 6.24368 66.9173 14.6402 48.2458V48.2503Z" fill="#00F02B"/>
<path d="M0.027784 80.9269C0.721492 75.5033 1.78908 70.1203 3.21704 64.7959C2.77108 65.7779 2.36567 66.7869 2.0053 67.823C1.23502 71.0258 0.586354 74.251 0.0818392 77.4899C0.00976562 78.634 -0.00825277 79.7827 0.027784 80.9314V80.9269Z" fill="#00F02B"/>
<path d="M106.738 135.203C85.2867 127.086 74.4351 103.031 82.5524 81.5804C88.8408 64.9584 104.697 54.7015 121.504 54.7015C126.382 54.7015 131.346 55.5663 136.175 57.3952C153.419 63.9179 163.806 80.738 163.009 98.2294C163.158 98.0537 163.311 97.8825 163.46 97.7114C164.032 80.238 153.572 63.5215 136.328 56.9988C114.652 48.8004 90.3544 59.7601 82.156 81.4317C73.9577 103.103 84.9173 127.406 106.589 135.604C111.467 137.451 116.481 138.325 121.414 138.325C121.846 138.325 122.274 138.316 122.702 138.302C123.076 138.145 123.45 137.987 123.824 137.825C118.175 138.154 112.368 137.334 106.742 135.203H106.738Z" fill="#00F02B"/>
<path d="M118.889 92.1391C116.596 93.5535 115.88 96.5671 117.294 98.8644C117.979 99.9771 119.056 100.756 120.326 101.054C120.704 101.144 121.087 101.189 121.466 101.189C122.362 101.189 123.24 100.941 124.02 100.459C126.312 99.0446 127.029 96.031 125.614 93.7337C124.2 91.4408 121.186 90.7201 118.889 92.1391ZM123.794 100.094C122.781 100.72 121.583 100.91 120.425 100.635C119.267 100.36 118.285 99.6482 117.659 98.6347C116.371 96.5401 117.024 93.7877 119.119 92.4994C119.844 92.0535 120.655 91.8373 121.452 91.8373C122.948 91.8373 124.416 92.5895 125.258 93.9589C126.547 96.0536 125.894 98.8059 123.799 100.094H123.794Z" fill="#00F02B"/>
<path d="M121.3 87.4225C118.931 87.4631 116.719 88.4271 115.071 90.1343C113.422 91.8415 112.539 94.0848 112.579 96.4543C112.62 98.8237 113.584 101.035 115.291 102.684C116.958 104.292 119.143 105.175 121.454 105.175C121.508 105.175 121.562 105.175 121.616 105.175C126.508 105.09 130.422 101.035 130.337 96.1434C130.296 93.774 129.332 91.5623 127.625 89.9136C125.918 88.2649 123.692 87.3775 121.305 87.4225H121.3ZM121.602 104.747C121.553 104.747 121.503 104.747 121.449 104.747C119.251 104.747 117.17 103.909 115.584 102.378C113.962 100.81 113.043 98.702 113.003 96.4452C112.922 91.7875 116.643 87.9316 121.305 87.8505C121.354 87.8505 121.404 87.8505 121.454 87.8505C126.044 87.8505 129.819 91.5442 129.9 96.1524C129.981 100.81 126.26 104.666 121.598 104.747H121.602Z" fill="#00F02B"/>
<path d="M120.112 89.7698C116.513 90.513 114.184 94.0446 114.927 97.6438C115.288 99.3871 116.301 100.887 117.792 101.869C118.896 102.594 120.157 102.968 121.445 102.968C121.896 102.968 122.351 102.923 122.806 102.829C124.549 102.468 126.049 101.455 127.031 99.9637C128.009 98.4771 128.351 96.6978 127.991 94.9546C127.247 91.3554 123.72 89.031 120.117 89.7698H120.112ZM126.666 99.7294C125.752 101.121 124.346 102.072 122.716 102.41C121.085 102.748 119.418 102.428 118.026 101.509C116.635 100.594 115.684 99.1889 115.346 97.5582C114.653 94.1888 116.828 90.8824 120.198 90.1887C120.621 90.1031 121.045 90.058 121.459 90.058C124.355 90.058 126.964 92.0941 127.567 95.0401C127.905 96.6708 127.585 98.3375 126.666 99.7294Z" fill="#00F02B"/>
<path d="M132.873 64.0163C124.251 60.9667 114.958 61.4577 106.706 65.3993C98.4534 69.3408 92.2281 76.2598 89.1785 84.8816C86.1288 93.5034 86.6198 102.796 90.5614 111.049C94.5029 119.301 101.422 125.527 110.044 128.576C113.805 129.905 117.648 130.536 121.427 130.536C126.364 130.536 131.193 129.455 135.603 127.455C135.918 127.135 136.243 126.824 136.571 126.522C131.918 128.847 126.738 130.112 121.427 130.108C117.693 130.108 113.9 129.486 110.183 128.171C101.67 125.157 94.8362 119.013 90.9443 110.864C87.0523 102.715 86.5703 93.535 89.5794 85.0213C92.5884 76.5076 98.7372 69.6741 106.886 65.7821C111.508 63.5749 116.458 62.4668 121.431 62.4668C125.229 62.4668 129.044 63.1154 132.729 64.4173C141.243 67.4263 148.076 73.5751 151.968 81.7239C155.86 89.8727 156.342 99.0531 153.333 107.567C152.995 108.522 152.612 109.454 152.202 110.36C152.567 109.864 152.928 109.369 153.297 108.878C153.45 108.49 153.599 108.103 153.738 107.711C156.788 99.0891 156.297 89.7962 152.355 81.5437C148.414 73.2913 141.495 67.066 132.873 64.0163Z" fill="#00F02B"/>
<path d="M122.471 85.0799C119.471 84.8096 116.552 85.7195 114.241 87.6475C111.93 89.5755 110.506 92.2827 110.236 95.2828C109.966 98.2783 110.876 101.202 112.804 103.513C114.732 105.824 117.439 107.247 120.439 107.517C120.781 107.549 121.124 107.562 121.466 107.562C127.223 107.562 132.146 103.157 132.674 97.3144C132.944 94.3188 132.034 91.3953 130.106 89.0845C128.178 86.7736 125.471 85.3501 122.471 85.0799ZM132.246 97.2783C131.984 100.161 130.615 102.769 128.394 104.621C126.173 106.472 123.358 107.355 120.475 107.089C117.592 106.828 114.984 105.459 113.133 103.238C111.277 101.017 110.403 98.2018 110.664 95.3188C110.925 92.4359 112.295 89.8277 114.515 87.9763C116.479 86.3367 118.907 85.4628 121.435 85.4628C121.768 85.4628 122.097 85.4763 122.43 85.5078C125.313 85.7691 127.921 87.1385 129.773 89.3592C131.628 91.58 132.502 94.3954 132.241 97.2738L132.246 97.2783Z" fill="#00F02B"/>
<path d="M123.18 92.504C121.09 91.5535 118.612 92.4815 117.657 94.5761C117.198 95.5897 117.157 96.7248 117.549 97.7654C117.941 98.8104 118.711 99.6348 119.729 100.099C120.279 100.351 120.864 100.473 121.454 100.473C121.95 100.473 122.445 100.383 122.918 100.207C123.963 99.815 124.788 99.0447 125.252 98.0266C126.202 95.932 125.274 93.459 123.18 92.504ZM124.864 97.8465C124.45 98.7564 123.707 99.4501 122.77 99.8015C121.833 100.153 120.819 100.117 119.909 99.7023C118.999 99.2879 118.306 98.5447 117.954 97.6077C117.603 96.6708 117.639 95.6572 118.053 94.7473C118.68 93.3689 120.044 92.5536 121.468 92.5536C121.986 92.5536 122.508 92.6617 123.008 92.8869C124.887 93.7428 125.72 95.9635 124.864 97.842V97.8465Z" fill="#00F02B"/>
<path d="M26.7624 132.797C17.0144 107.504 17.6991 79.9269 28.6904 55.1471C39.6816 30.3673 59.664 11.3534 84.9573 1.60543C85.5969 1.35768 86.2321 1.12344 86.8763 0.893707C86.5835 0.853165 86.2862 0.80812 85.9934 0.767578C85.5969 0.91623 85.2005 1.05587 84.8086 1.20903C59.4072 10.9975 39.3392 30.0925 28.303 54.9759C17.2667 79.8593 16.5775 107.549 26.366 132.951C26.4471 133.162 26.5372 133.374 26.6182 133.586C26.8255 133.716 27.0327 133.847 27.2354 133.982C27.0777 133.586 26.9155 133.194 26.7624 132.797Z" fill="#00F02B"/>
<path d="M42.3489 61.8723C30.1054 90.008 34.101 121.18 50.1869 144.861C50.3445 144.842 50.4977 144.815 50.6553 144.788C34.5559 121.202 30.5288 90.1026 42.7408 62.039C55.8672 31.8852 84.3407 13.0515 115.062 10.7046C114.859 10.5739 114.648 10.4523 114.44 10.3262C83.7957 12.8803 55.4572 31.7545 42.3489 61.8723Z" fill="#00F02B"/>
<path d="M35.3224 58.4272C25.2051 81.4322 24.6555 107.005 33.7683 130.424C35.6152 135.177 37.827 139.717 40.3541 144.033C40.5523 144.096 40.7505 144.159 40.9532 144.213C38.3405 139.798 36.0657 135.145 34.1647 130.267C25.0925 106.951 25.642 81.4998 35.7098 58.5939C48.1695 30.278 73.0304 11.192 101.13 4.90359C100.864 4.79999 100.594 4.69638 100.328 4.59277C95.9453 5.61081 91.6029 6.94868 87.3325 8.61088C63.9086 17.7237 45.4397 35.4177 35.3224 58.4227V58.4272Z" fill="#00F02B"/>
<path d="M37.6635 59.5757C25.1047 88.2295 28.4606 119.91 43.8438 144.668C44.024 144.69 44.2042 144.708 44.3799 144.726C28.9201 120.041 25.5056 88.3781 38.0554 59.7469C50.7268 30.8364 76.6958 11.7954 105.665 6.6512C105.408 6.5521 105.156 6.453 104.899 6.3584C76.0742 11.7099 50.2944 30.7643 37.6635 59.5757Z" fill="#00F02B"/>
<path d="M40.0041 60.7234C27.5715 89.1924 31.2922 120.702 47.1169 144.959C47.2926 144.968 47.4638 144.973 47.6394 144.977C31.7517 120.806 27.9814 89.3231 40.396 60.8945C53.3287 31.2858 80.6221 12.3034 110.569 8.5376C110.289 8.42949 110.01 8.32138 109.735 8.21777C79.9509 12.2314 52.8873 31.2318 40.0041 60.7234Z" fill="#00F02B"/>
<path d="M49.3712 65.3236C41.0963 84.5763 40.817 105.901 48.5829 125.365C51.3713 132.361 55.0876 138.812 59.5877 144.596C59.7678 144.596 59.948 144.596 60.1282 144.596C55.5605 138.776 51.7947 132.271 48.9793 125.208C41.2584 105.847 41.5377 84.6393 49.7631 65.4903C57.993 46.3412 73.1825 31.5436 92.5433 23.8228C101.899 20.0885 111.688 18.2281 121.467 18.2281C123.337 18.2281 125.206 18.3001 127.071 18.4353C126.846 18.2911 126.616 18.147 126.395 17.9983C94.246 16.0028 62.7994 34.0752 49.3757 65.3236H49.3712Z" fill="#00F02B"/>
<path d="M47.0327 64.1736C38.4515 84.0524 38.1272 106.084 46.1138 126.206C48.749 132.842 52.186 139.004 56.3212 144.594C56.4969 144.594 56.6726 144.594 56.8528 144.594C52.659 138.963 49.1724 132.747 46.5147 126.049C38.5686 106.03 38.8929 84.1155 47.4291 64.3403C55.9654 44.5651 71.6909 29.299 91.7094 21.3529C101.345 17.5285 111.417 15.6186 121.48 15.6186C122.007 15.6186 122.53 15.6276 123.057 15.6366C122.818 15.4879 122.575 15.3393 122.336 15.1951C111.935 15.0825 101.511 16.997 91.5562 20.952C71.4342 28.9432 55.623 44.2903 47.0418 64.1691L47.0327 64.1736Z" fill="#00F02B"/>
<path d="M44.6919 63.0257C32.6646 90.7695 36.9034 121.536 53.1741 144.613C53.3497 144.613 53.5254 144.613 53.7011 144.613C37.3719 121.631 33.079 90.9002 45.0838 63.1969C53.9263 42.7956 70.1834 27.061 90.8595 18.8897C99.8327 15.3446 109.171 13.4121 118.54 13.0742C118.351 12.9571 118.162 12.8355 117.977 12.7139C86.954 14.0562 57.8498 32.6737 44.6919 63.0257Z" fill="#00F02B"/>
<path d="M23.6146 52.6745C12.6819 77.1931 11.3215 104.329 19.6505 129.649C19.8352 129.744 20.0154 129.838 20.2001 129.933C11.754 104.59 13.0558 77.4048 24.0065 52.8502C32.6463 33.4759 46.516 17.4711 64.0208 6.34473C63.665 6.38977 63.3136 6.44833 62.9622 6.52041C45.7817 17.6648 32.1508 33.53 23.6146 52.6745Z" fill="#00F02B"/>
<path d="M16.2786 127.612C16.4633 127.743 16.6525 127.864 16.8417 127.99C9.16585 102.792 10.81 75.9849 21.6616 51.7006C28.3239 36.7949 38.0088 23.8441 50.0181 13.4971C49.2342 14.0016 48.4459 14.5061 47.6621 15.0106C36.5628 25.0784 27.5716 37.4345 21.2697 51.5249C10.4452 75.7416 8.74692 102.463 16.2786 127.612Z" fill="#00F02B"/>
<path d="M12.606 124.108C12.8177 124.437 13.0474 124.748 13.2907 125.045C6.66442 100.301 8.705 74.2466 19.3223 50.5524C24.2414 39.5702 30.764 29.6285 38.6245 20.9707C38.093 21.3446 37.566 21.7185 37.0434 22.1059C29.719 30.4574 23.6062 39.9531 18.9349 50.3767C8.43022 73.8322 6.29054 99.585 12.6105 124.108H12.606Z" fill="#00F02B"/>
<path d="M1.70743 93.0261C2.06779 79.8142 4.64893 66.6697 9.42831 54.0479C9.30218 54.2415 9.17605 54.4307 9.05443 54.6244C8.81568 54.9983 8.58144 55.3722 8.3427 55.7461C4.20297 67.2328 1.8741 79.1295 1.35156 91.0982C1.46868 91.7423 1.5858 92.382 1.70743 93.0261Z" fill="#00F02B"/>
<path d="M51.7148 66.4754C43.7506 85.1019 43.5119 105.719 51.0526 124.526C54.0076 131.891 58.0167 138.63 62.9177 144.585C63.1024 144.585 63.2826 144.585 63.4673 144.581C58.4942 138.594 54.4265 131.801 51.449 124.364C43.9533 105.665 44.1876 85.165 52.1067 66.6421C64.3366 38.0424 92.2561 20.8753 121.559 20.8753C125.964 20.8753 130.401 21.2672 134.825 22.0646C134.343 21.8258 133.852 21.6006 133.356 21.3844C99.8464 16.0644 65.6475 33.8891 51.7148 66.4754Z" fill="#00F02B"/>
<path d="M32.9841 57.274C22.5605 80.9051 21.9613 107.185 31.3039 131.262C32.6102 134.627 34.0922 137.893 35.7364 141.051C35.7679 141.082 35.795 141.114 35.8265 141.145C36.1103 141.456 36.4076 141.735 36.7139 142.001C34.8355 138.505 33.1643 134.87 31.7048 131.109C22.4073 107.135 23.0019 80.9727 33.376 57.4452C43.7546 33.9177 62.6739 15.8407 86.6474 6.54323C89.9943 5.2459 93.3817 4.14678 96.7962 3.23235C96.5665 3.14676 96.3368 3.06117 96.1025 2.97559C92.8682 3.86299 89.661 4.91256 86.4897 6.14232C62.4081 15.4804 43.4077 33.6384 32.9841 57.274Z" fill="#00F02B"/>
<path d="M25.9555 53.827C14.9508 78.5708 13.9328 106.035 23.023 131.446C23.2167 131.554 23.4059 131.662 23.5996 131.77C14.3652 106.333 15.3157 78.796 26.3474 53.9982C37.2486 29.4842 56.7355 10.4883 81.4026 0.226811C81.1098 0.195279 80.817 0.168251 80.5242 0.136719C56.0913 10.5108 36.7981 29.4526 25.9555 53.827Z" fill="#00F02B"/>
<path d="M142.08 45.291C128.454 39.7819 113.499 39.908 99.9714 45.6469C86.4396 51.3857 75.9574 62.0526 70.4482 75.6745C64.9391 89.3009 65.0653 104.256 70.8041 117.784C75.3853 128.586 83.1107 137.446 92.9757 143.383C93.2325 143.37 93.4938 143.361 93.7505 143.352C83.6963 137.46 75.8312 128.54 71.196 117.617C65.5022 104.193 65.3761 89.355 70.8401 75.8322C76.3042 62.3094 86.7098 51.7326 100.134 46.0343C106.99 43.1243 114.215 41.6693 121.445 41.6693C128.675 41.6693 135.301 43.0072 141.914 45.6784C153.4 50.3227 162.761 58.53 168.811 69.1249C168.779 68.787 168.748 68.4492 168.712 68.1113C162.603 57.8228 153.355 49.8452 142.071 45.282L142.08 45.291Z" fill="#00F02B"/>
<path d="M138.624 52.3138C126.876 47.7282 114.042 47.9894 102.492 53.0571C90.9424 58.1203 82.0548 67.3817 77.4691 79.1297C72.8834 90.8777 73.1447 103.711 78.2124 115.261C83.28 126.811 92.537 135.698 104.285 140.284C105.992 140.951 107.713 141.509 109.447 141.964C109.794 141.906 110.141 141.847 110.488 141.789C108.452 141.293 106.429 140.663 104.443 139.883C92.7983 135.338 83.6224 126.532 78.6043 115.085C73.5862 103.639 73.3249 90.9228 77.87 79.2784C82.4152 67.634 91.2217 58.4581 102.668 53.44C108.69 50.8003 115.06 49.4759 121.443 49.4759C127.195 49.4759 132.952 50.5525 138.47 52.7057C150.115 57.2509 159.291 66.0574 164.309 77.5036C166.115 81.6208 167.3 85.9001 167.872 90.2336C167.962 89.8326 168.039 89.4227 168.097 89.0083C165.566 72.9629 154.822 58.6293 138.628 52.3048L138.624 52.3138Z" fill="#00F02B"/>
<path d="M137.477 54.6558C126.355 50.3765 114.229 50.6873 103.337 55.5252C92.4446 60.3632 84.0885 69.1561 79.8092 80.2825C75.5298 91.4044 75.8406 103.531 80.6785 114.423C85.5165 125.315 94.3095 133.671 105.436 137.95C108.958 139.306 112.576 140.189 116.229 140.626C116.58 140.527 116.932 140.428 117.278 140.32C113.323 139.937 109.395 139.018 105.589 137.554C94.5707 133.315 85.8633 125.04 81.0705 114.252C76.2776 103.463 75.9712 91.4584 80.2101 80.4402C84.4489 69.4219 92.7238 60.7145 103.512 55.9216C109.256 53.3675 115.341 52.0882 121.441 52.0882C126.801 52.0882 132.171 53.0747 137.324 55.0568C148.342 59.2956 157.05 67.5705 161.842 78.359C164.234 83.742 165.509 89.4313 165.658 95.1522C165.797 94.9585 165.933 94.7648 166.063 94.5666C165.842 88.9854 164.568 83.4447 162.23 78.1879C157.392 67.2957 148.599 58.9397 137.473 54.6603L137.477 54.6558Z" fill="#00F02B"/>
<path d="M139.779 49.971C114.233 39.8672 85.2328 52.4306 75.129 77.9761C70.237 90.3503 70.4532 103.891 75.7416 116.099C81.03 128.311 90.7599 137.73 103.134 142.622C103.386 142.721 103.639 142.815 103.891 142.91C104.17 142.86 104.454 142.815 104.733 142.766C104.251 142.59 103.769 142.414 103.292 142.225C91.0212 137.374 81.3769 128.036 76.1335 115.927C70.8902 103.824 70.6739 90.3998 75.5254 78.1293C80.3768 65.8588 89.7149 56.2144 101.823 50.9711C108.125 48.2413 114.778 46.8764 121.445 46.8764C127.585 46.8764 133.738 48.0386 139.621 50.3629C151.892 55.2144 161.536 64.5524 166.78 76.6608C167.451 78.2059 168.036 79.7735 168.541 81.3546C168.559 80.9942 168.581 80.6339 168.604 80.2735C164.054 66.9128 153.901 55.5522 139.779 49.9665V49.971Z" fill="#00F02B"/>
<path d="M140.928 47.629C114.089 36.8946 83.5257 49.9895 72.7867 76.8233C62.5568 102.391 73.9669 131.352 98.2782 143.316C98.6071 143.316 98.9359 143.316 99.2692 143.316C74.6066 131.698 62.9261 102.626 73.1831 76.9855C81.3094 56.6788 100.877 44.3047 121.517 44.3047C127.932 44.3047 134.455 45.5029 140.766 48.0255C153.451 53.1021 163.437 62.7375 168.969 75.2017C168.982 74.8774 168.996 74.5575 169 74.2332C163.356 62.0528 153.442 52.6382 140.928 47.629Z" fill="#00F02B"/>
<path d="M130.566 68.7018C115.35 63.6792 98.881 71.9676 93.8539 87.1887C88.8268 102.41 97.1197 118.874 112.341 123.901C115.336 124.892 118.417 125.383 121.481 125.383C125.958 125.383 130.409 124.334 134.521 122.261C141.454 118.77 146.612 112.788 149.049 105.414C151.481 98.0447 150.9 90.1662 147.409 83.2291C143.918 76.292 137.936 71.1388 130.562 68.7018H130.566ZM148.648 105.279C146.251 112.541 141.166 118.437 134.337 121.879C127.503 125.32 119.742 125.892 112.48 123.496C97.4846 118.545 89.3178 102.32 94.2683 87.3238C98.2369 75.301 109.458 67.6657 121.481 67.6657C124.449 67.6657 127.467 68.1297 130.436 69.1117C137.697 71.5081 143.594 76.5938 147.035 83.4228C150.477 90.2563 151.049 98.0177 148.652 105.279H148.648Z" fill="#00F02B"/>
<path d="M94.0698 28.3622C75.9253 35.6777 61.7133 49.6194 54.0554 67.6243C42.7084 94.296 48.4562 124.026 66.344 144.531C66.5107 144.531 66.6773 144.522 66.8485 144.518C61.443 138.392 57.0645 131.319 53.9203 123.517C46.6499 105.476 46.8391 85.6832 54.4518 67.7865C62.0646 49.8897 76.1955 36.0291 94.2365 28.7541C103.038 25.2045 112.255 23.4342 121.471 23.4342C128.282 23.4342 135.089 24.4072 141.719 26.3442C141.391 26.0964 141.057 25.8577 140.728 25.6189C125.359 21.3936 109.115 22.299 94.0788 28.3577L94.0698 28.3622Z" fill="#00F02B"/>
<path d="M134.023 61.6783C124.775 58.3224 114.775 58.7684 105.86 62.9306C96.9458 67.0974 90.1889 74.4849 86.833 83.7284C79.905 102.819 89.7971 123.986 108.888 130.919C113.023 132.419 117.253 133.13 121.419 133.13C124.933 133.13 128.397 132.617 131.717 131.648C131.924 131.441 132.136 131.234 132.334 131.022C128.834 132.121 125.154 132.702 121.419 132.702C117.302 132.702 113.122 132 109.032 130.518C90.1619 123.666 80.3869 102.747 87.2339 83.877C90.5538 74.7372 97.2296 67.4352 106.041 63.318C110.942 61.0252 116.176 59.8765 121.433 59.8765C125.622 59.8765 129.82 60.6108 133.875 62.0793C151.627 68.5253 161.33 87.4266 156.708 105.355C156.762 105.314 156.812 105.274 156.871 105.233C157.001 105.143 157.127 105.044 157.249 104.945C161.605 86.9627 151.807 68.1379 134.019 61.6783H134.023Z" fill="#00F02B"/>
<path d="M131.721 66.3587C115.212 60.7009 97.1753 69.5255 91.5175 86.0348C88.7742 94.0305 89.3103 102.616 93.0266 110.211C96.7429 117.806 103.193 123.495 111.189 126.238C114.554 127.392 118.023 127.964 121.482 127.964C126.239 127.964 130.969 126.878 135.365 124.725C142.96 121.009 148.649 114.558 151.393 106.562C157.055 90.0529 148.226 72.0165 131.721 66.3587ZM150.992 106.423C148.289 114.31 142.672 120.675 135.181 124.342C127.689 128.009 119.221 128.536 111.329 125.833C103.437 123.13 97.0762 117.513 93.4095 110.022C89.7427 102.531 89.2157 94.062 91.9184 86.1699C96.3555 73.2237 108.504 65.0704 121.478 65.0704C124.829 65.0704 128.235 65.6155 131.577 66.7596C147.861 72.3453 156.568 90.134 150.987 106.418L150.992 106.423Z" fill="#00F02B"/>
<path d="M58.7419 69.9269C47.7507 96.0671 54.386 125.284 73.2152 144.271C73.4089 144.262 73.6026 144.253 73.7963 144.248C54.8725 125.387 48.1606 96.2022 59.1383 70.0935C70.0034 44.2597 95.1391 28.6918 121.55 28.6918C130.27 28.6918 139.135 30.39 147.667 33.9802C151.14 35.4397 154.424 37.1649 157.514 39.1064C157.109 38.6695 156.69 38.2415 156.257 37.8271C153.573 36.237 150.762 34.8135 147.834 33.5838C113.252 19.0429 73.2873 35.3451 58.7419 69.9269Z" fill="#00F02B"/>
<path d="M63.4191 72.2236C52.7612 97.9223 60.4866 126.734 80.5185 143.964C80.7257 143.955 80.9375 143.946 81.1447 143.937C60.9911 126.864 53.1621 98.0619 63.811 72.3857C73.7616 48.3942 97.0459 33.8939 121.533 33.8939C129.488 33.8939 137.569 35.4255 145.362 38.6553C152.894 41.7815 159.606 46.25 165.246 51.7997C165.11 51.4619 164.971 51.124 164.827 50.7907C159.299 45.5248 152.79 41.2725 145.524 38.2589C113.524 24.9838 76.6896 40.2184 63.4146 72.2191L63.4191 72.2236Z" fill="#00F02B"/>
<path d="M94.9126 30.8317C77.4257 37.9219 63.7453 51.3952 56.3938 68.7739C49.0423 86.1527 48.8981 105.351 55.9883 122.838C59.2677 130.928 63.9209 138.203 69.6868 144.415C69.8715 144.406 70.0607 144.402 70.2454 144.393C64.3984 138.163 59.6911 130.838 56.3848 122.68C49.3396 105.302 49.4837 86.2157 56.7902 68.9451C64.0966 51.6745 77.696 38.2778 95.0747 31.2326C103.597 27.7776 112.535 26.0523 121.463 26.0523C130.391 26.0523 139.598 27.8406 148.225 31.3993C147.824 31.084 147.423 30.7686 147.017 30.4533C130.161 23.8946 111.746 24.0162 94.9126 30.8362V30.8317Z" fill="#00F02B"/>
<path d="M143.228 42.9479C113.813 30.9431 80.1095 45.1101 68.1048 74.5251C57.7262 99.9536 66.9065 128.58 88.5872 143.63C88.8214 143.617 89.0511 143.603 89.2854 143.59C67.4426 128.738 58.1271 100.102 68.5012 74.6873C77.5374 52.5382 98.9658 39.101 121.529 39.101C128.714 39.101 136.016 40.4659 143.07 43.3443C153.246 47.4976 161.818 54.322 168.035 63.0654C167.985 62.7546 167.931 62.4393 167.882 62.1285C161.665 53.6508 153.215 47.0201 143.232 42.9479H143.228Z" fill="#00F02B"/>
<path d="M129.418 71.0389C122.675 68.9128 115.503 69.5389 109.228 72.8092C102.953 76.0751 98.3272 81.5932 96.2011 88.3366C94.0749 95.0845 94.701 102.256 97.9714 108.526C101.237 114.801 106.755 119.427 113.499 121.554C116.138 122.387 118.81 122.779 121.44 122.779C132.693 122.779 143.157 115.54 146.716 104.256C148.842 97.508 148.216 90.3366 144.945 84.0662C141.679 77.7913 136.161 73.1651 129.418 71.0389ZM146.306 104.13C144.216 110.769 139.661 116.193 133.49 119.409C127.319 122.626 120.26 123.243 113.625 121.148C99.9218 116.828 92.2866 102.17 96.6065 88.4672C100.107 77.3589 110.4 70.2416 121.472 70.2416C124.062 70.2416 126.693 70.629 129.287 71.4489C135.927 73.539 141.351 78.0931 144.567 84.2644C147.783 90.4357 148.4 97.4944 146.306 104.13Z" fill="#00F02B"/>
<path d="M144.378 40.606C129.504 34.4843 113.134 34.5203 98.2822 40.7096C83.435 46.8989 71.8853 58.4983 65.759 73.377C55.2498 98.9135 63.6463 127.599 84.4306 143.806C84.6513 143.797 84.8765 143.788 85.0972 143.779C64.1644 127.743 55.6507 99.0577 66.1554 73.5391C72.2366 58.7685 83.7008 47.2503 98.4444 41.106C105.859 38.0159 113.652 36.4708 121.449 36.4708C129.247 36.4708 136.869 37.9798 144.211 41.0024C153.18 44.6917 160.946 50.372 167.04 57.5613C166.973 57.2595 166.905 56.9577 166.829 56.6559C160.774 49.7098 153.144 44.2142 144.373 40.6015L144.378 40.606Z" fill="#00F02B"/>
</svg>
