<svg width="283" height="148" viewBox="0 0 283 148" fill="none" xmlns="http://www.w3.org/2000/svg">
<path d="M43.6665 15.2168C46.3526 15.2168 49.0387 15.2252 51.7163 15.2168C55.0739 15.2 58.4315 15.0657 61.7471 15.7372C62.4018 15.8715 63.0817 15.8967 63.7532 15.8799C73.3139 15.6701 82.7235 17.3573 92.2003 18.1463C98.2104 18.6415 104.246 18.8682 110.264 19.2039C113.244 19.3718 116.148 18.9857 119.011 18.1127C122.234 17.1306 125.407 16.4927 128.882 17.3237C131.501 17.9532 134.22 17.0383 136.739 16.0898C139.248 15.1496 141.75 14.2179 144.209 13.1099C147.004 11.8508 150.009 11.0282 152.972 10.1972C157.874 8.82901 162.827 7.61189 167.754 6.33601C169.71 5.83237 171.691 5.50501 173.722 5.48822C180.37 5.44625 186.775 4.16198 192.953 1.73613C198.275 -0.353964 203.655 -0.471479 209.145 0.972279C212.351 1.81167 215.113 3.42331 217.446 5.69807C219.1 7.3097 220.888 8.64434 222.902 9.76913C227.024 12.0775 230.432 15.3595 234.066 18.3142C234.889 18.9773 235.619 19.8335 236.173 20.7316C238.717 24.8698 241.906 28.4876 245.012 32.181C247.69 35.3539 250.107 38.7366 253.582 41.1876C254.858 42.0858 255.714 43.5799 256.789 44.7719C260.02 48.3561 263.277 51.9151 266.492 55.5161C267.29 56.4143 268.07 57.3628 268.649 58.412C271.369 63.356 273.896 68.3924 275.776 73.7309C276.674 76.2743 277.035 78.9436 277.362 81.6129C277.471 82.5446 277.48 83.4931 277.606 84.4164C278.093 87.858 278.605 91.2323 280.552 94.3129C281.668 96.0756 282.08 98.3084 282.701 100.357C283.221 102.077 283.011 103.798 282.466 105.51C281.895 107.298 281.341 109.086 280.888 110.908C280.359 113.015 279.57 114.996 278.37 116.8C275.683 120.846 273.627 125.236 271.915 129.744C270.143 134.411 267.331 138.238 263.663 141.47C260.247 144.475 256.126 146.003 251.618 146.59C244.408 147.53 237.172 147.682 229.92 147.371C225.773 147.195 221.626 146.783 217.488 146.406C212.947 145.986 208.398 145.633 203.89 144.996C197.343 144.064 190.779 144.257 184.206 144.358C179.909 144.425 175.619 144.467 171.364 143.644C170.449 143.468 169.492 143.476 168.552 143.426C163.062 143.149 157.556 142.956 152.074 142.586C147.533 142.276 143 141.747 138.468 141.319C138.065 141.277 137.67 141.193 137.267 141.168C132.584 140.891 127.9 140.589 123.216 140.362C120.933 140.253 118.675 140.404 116.408 140.874C110.407 142.116 104.422 141.504 98.395 140.773C90.5299 139.825 82.7487 138.373 74.9256 137.256C63.4762 135.611 52.2368 133.101 41.0141 130.424C39.0331 129.954 37.0689 129.693 35.046 129.719C30.2111 129.777 25.3845 129.769 20.5496 129.819C18.0902 129.844 15.7651 129.316 13.4987 128.392C11.1652 127.435 9.41087 125.899 8.27769 123.616C7.26202 121.56 6.25475 119.503 5.82665 117.245C5.17193 113.82 4.55917 110.396 4.08071 106.946C3.90444 105.636 4.08071 104.268 4.2402 102.942C4.57596 100.147 5.02923 97.3599 5.40696 94.5731C5.75111 92.0297 5.71753 89.5032 5.15514 86.9766C4.13947 82.3935 3.19096 77.7936 2.30959 73.1769C1.55414 69.2234 0.840654 65.2615 0.253078 61.2827C-0.158225 58.4876 -0.0658918 55.6756 0.51329 52.872C1.29393 49.0612 1.90668 45.2167 2.7125 41.4143C3.35884 38.4009 4.05553 35.379 4.97047 32.4412C7.72368 23.594 13.7589 18.2134 22.7572 16.2073C25.6364 15.5609 28.5491 15.1245 31.5373 15.1832C35.5664 15.2588 39.5871 15.2 43.6162 15.2V15.242L43.6665 15.2168Z" fill="#E6E98B"/>
<path d="M194.984 1.03141H209.388C209.313 1.01462 209.237 0.981044 209.162 0.964256C204.36 -0.294835 199.643 -0.37038 194.984 1.03141Z" fill="#64B0FD"/>
<path d="M280.207 113.141C280.475 112.41 280.719 111.663 280.912 110.899C280.979 110.639 281.054 110.379 281.13 110.11H227.795V113.141H280.215H280.207Z" fill="#64B0FD"/>
<path d="M5.65728 91.9375C5.6321 92.8105 5.56494 93.6834 5.44743 94.5564C5.43064 94.6907 5.40546 94.825 5.38867 94.9677H55.2739V91.9375H5.65728Z" fill="#64B0FD"/>
<path d="M116.442 140.857C117.482 140.639 118.532 140.496 119.581 140.412H112.773V141.386C113.999 141.268 115.216 141.109 116.442 140.857Z" fill="#64B0FD"/>
<path d="M276.891 119.201C277.37 118.386 277.865 117.581 278.394 116.792C278.528 116.59 278.637 116.38 278.763 116.17H227.795V119.201H276.899H276.891Z" fill="#64B0FD"/>
<path d="M95.8508 140.412H112.781V137.382H75.8984C82.5548 138.356 89.1776 139.522 95.8508 140.412Z" fill="#64B0FD"/>
<path d="M5.66602 116.17C5.73317 116.523 5.80032 116.876 5.86747 117.228C5.99338 117.9 6.17805 118.554 6.39629 119.201H55.2742V116.17H5.66602Z" fill="#64B0FD"/>
<path d="M282.884 101.028C282.842 100.802 282.783 100.583 282.716 100.357C282.481 99.5845 282.279 98.7871 282.053 97.998H227.777V101.028H282.875H282.884Z" fill="#64B0FD"/>
<path d="M170.28 143.493C170.658 143.518 171.027 143.56 171.388 143.628C175.635 144.459 179.933 144.408 184.231 144.341C190.803 144.232 197.367 144.047 203.914 144.979C208.422 145.617 212.98 145.978 217.513 146.389C217.815 146.414 218.109 146.448 218.411 146.473H227.778V143.443H170.271V143.493H170.28Z" fill="#64B0FD"/>
<path d="M4.96289 85.877C5.03844 86.2379 5.11398 86.5988 5.19792 86.9598C5.34062 87.6061 5.44974 88.2608 5.52528 88.9072H55.2762V85.877H4.96289Z" fill="#64B0FD"/>
<path d="M51.7148 15.2174C49.0287 15.2258 46.3427 15.2174 43.665 15.2174V15.1754C39.6359 15.1754 35.6068 15.2342 31.5861 15.1586C28.6063 15.0999 25.6936 15.5363 22.8145 16.1827H55.2738V15.2006C54.0903 15.2006 52.9067 15.2174 51.7232 15.2174H51.7148Z" fill="#64B0FD"/>
<path d="M227.788 137.382H170.281V140.412H227.788V137.382Z" fill="#64B0FD"/>
<path d="M4.14641 104.05C4.04568 105.015 3.98692 105.989 4.12123 106.929C4.12123 106.979 4.13801 107.03 4.14641 107.08H55.2739V104.05H4.14641Z" fill="#64B0FD"/>
<path d="M7.64844 122.231C7.86668 122.693 8.09332 123.146 8.31995 123.6C8.62213 124.204 8.96629 124.758 9.35241 125.262H55.2757V122.231H7.64844Z" fill="#64B0FD"/>
<path d="M261.002 143.442C261.934 142.872 262.832 142.208 263.688 141.461C264.074 141.117 264.443 140.773 264.813 140.412H227.787V143.442H261.002Z" fill="#64B0FD"/>
<path d="M267.574 137.382C268.338 136.417 269.043 135.41 269.681 134.352H227.787V137.382H267.574Z" fill="#64B0FD"/>
<path d="M229.953 147.363C237.197 147.673 244.441 147.522 251.643 146.582C251.869 146.549 252.096 146.507 252.323 146.473H227.787V147.237C228.509 147.279 229.231 147.329 229.953 147.355V147.363Z" fill="#64B0FD"/>
<path d="M271.276 131.322C271.511 130.801 271.729 130.272 271.939 129.735C272.124 129.257 272.309 128.77 272.502 128.292H227.787V131.322H271.276Z" fill="#64B0FD"/>
<path d="M280.946 94.9677C280.828 94.7411 280.711 94.5228 280.568 94.313C280.081 93.5407 279.678 92.7517 279.351 91.9375H227.787V94.9677H280.946Z" fill="#64B0FD"/>
<path d="M273.777 125.262C274.231 124.238 274.718 123.23 275.23 122.231H227.787V125.262H273.777Z" fill="#64B0FD"/>
<path d="M4.95095 97.998C4.79986 99.0053 4.67395 100.021 4.53125 101.028H55.2642V97.998H4.95095Z" fill="#64B0FD"/>
<path d="M124.482 140.412C128.755 140.63 133.027 140.899 137.3 141.151C137.703 141.176 138.097 141.26 138.5 141.302C143.033 141.738 147.566 142.259 152.107 142.569C157.597 142.947 163.095 143.132 168.584 143.409C168.836 143.417 169.079 143.434 169.331 143.442H170.28V140.412H124.482Z" fill="#64B0FD"/>
<path d="M4.60156 110.11C4.76105 111.118 4.93732 112.133 5.11359 113.141H55.2758V110.11H4.60156Z" fill="#64B0FD"/>
<path d="M281.995 107.08C282.155 106.551 282.314 106.022 282.482 105.502C282.633 105.024 282.759 104.537 282.851 104.05H227.787V107.08H281.995Z" fill="#64B0FD"/>
<path d="M231.539 16.1821C230.33 15.158 229.122 14.1339 227.871 13.1519H227.787V16.1821H231.539Z" fill="#64B0FD"/>
<path d="M227.788 13.0851C226.428 12.0107 225.01 11.0118 223.516 10.1221H170.281V13.1523H227.788V13.0851Z" fill="#64B0FD"/>
<path d="M5.38934 31.3335C5.26343 31.6944 5.12913 32.047 5.02001 32.4247C4.81855 33.071 4.63389 33.7174 4.44922 34.3637H55.2661V31.3335H5.38934Z" fill="#64B0FD"/>
<path d="M3.66935 37.3936C3.42593 38.4008 3.19929 39.4081 2.97266 40.4238H55.2753V37.3936H3.66935Z" fill="#64B0FD"/>
<path d="M237.163 22.2426C236.827 21.7474 236.508 21.2437 236.189 20.7317C235.861 20.1945 235.467 19.6825 235.031 19.2124H227.795V22.2426H237.163Z" fill="#64B0FD"/>
<path d="M2.34285 43.4541C2.1414 44.4614 1.94834 45.4686 1.76367 46.4843H55.2667V43.4541H2.34285Z" fill="#64B0FD"/>
<path d="M241.763 28.3032C240.94 27.3043 240.126 26.297 239.337 25.2729H227.787V28.3032H241.763Z" fill="#64B0FD"/>
<path d="M227.788 16.1821H170.281V19.2123H227.788V16.1821Z" fill="#64B0FD"/>
<path d="M217.463 5.68995C216.859 5.10237 216.221 4.55677 215.566 4.06152H185.532C181.688 4.97646 177.76 5.45492 173.739 5.48849C172.572 5.48849 171.422 5.6144 170.289 5.80746V7.10013H219.033C218.495 6.65525 217.975 6.19358 217.463 5.69834V5.68995Z" fill="#64B0FD"/>
<path d="M14.9985 19.2124C13.5463 20.077 12.2369 21.0926 11.0449 22.2426H55.2642V19.2124H14.9985Z" fill="#64B0FD"/>
<path d="M13.3477 128.292C13.4148 128.317 13.4736 128.35 13.5323 128.375C15.7987 129.307 18.1238 129.828 20.5832 129.802C25.4181 129.752 30.2447 129.76 35.0796 129.702C37.1109 129.677 39.0751 129.928 41.0477 130.407C42.3403 130.717 43.633 131.02 44.9257 131.322H55.267V128.292H13.3477Z" fill="#64B0FD"/>
<path d="M8.46174 25.2729C7.79862 26.2131 7.20265 27.2287 6.67383 28.3032H55.2747V25.2729H8.46174Z" fill="#64B0FD"/>
<path d="M144.126 13.1519C141.7 14.2347 139.224 15.158 136.756 16.0813C136.672 16.1149 136.58 16.1485 136.496 16.1821H170.29V13.1519H144.135H144.126Z" fill="#64B0FD"/>
<path d="M164.816 7.0918C160.963 8.08228 157.102 9.05598 153.266 10.122H170.28V7.0918H164.807H164.816Z" fill="#64B0FD"/>
<path d="M3.67773 79.8164C3.88758 80.8237 4.10583 81.8393 4.32407 82.8466H55.2753V79.8164H3.67773Z" fill="#64B0FD"/>
<path d="M276.631 76.787C276.413 75.763 276.153 74.7473 275.8 73.7568H227.787V76.787H276.631Z" fill="#64B0FD"/>
<path d="M274.65 70.7265C274.239 69.7108 273.811 68.6952 273.366 67.6963H227.787V70.7265H274.65Z" fill="#64B0FD"/>
<path d="M271.939 64.666C271.444 63.6503 270.932 62.643 270.403 61.6357H227.787V64.666H271.939Z" fill="#64B0FD"/>
<path d="M1.3457 67.6963C1.52198 68.712 1.71504 69.7192 1.8997 70.7265H55.2684V67.6963H1.3457Z" fill="#64B0FD"/>
<path d="M278.411 88.9072C278.176 87.9083 277.991 86.901 277.84 85.877H227.787V88.9072H278.411Z" fill="#64B0FD"/>
<path d="M277.478 82.8466C277.453 82.4353 277.419 82.0156 277.369 81.6043C277.293 81.0084 277.218 80.4124 277.142 79.8164H227.777V82.8466H277.469H277.478Z" fill="#64B0FD"/>
<path d="M2.4707 73.7568C2.66376 74.7641 2.87361 75.7798 3.07507 76.787H55.277V73.7568H2.4707Z" fill="#64B0FD"/>
<path d="M263.839 52.5453C262.924 51.5381 262.018 50.5224 261.103 49.5151H227.787V52.5453H263.831H263.839Z" fill="#64B0FD"/>
<path d="M252.598 40.4238C251.44 39.5004 250.399 38.4764 249.409 37.3936H227.777V40.4238H252.59H252.598Z" fill="#64B0FD"/>
<path d="M0.151934 55.5752C0.0596002 56.5825 0.0260245 57.5981 0.0596002 58.6054H55.2665V55.5752H0.151934Z" fill="#64B0FD"/>
<path d="M246.824 34.3637C246.228 33.6334 245.632 32.9032 245.028 32.1813C244.793 31.8959 244.549 31.6189 244.314 31.3335H227.795V34.3637H246.832H246.824Z" fill="#64B0FD"/>
<path d="M258.358 46.4843C257.837 45.9135 257.325 45.3427 256.805 44.772C256.427 44.3606 256.083 43.9074 255.739 43.4541H227.787V46.4843H258.358Z" fill="#64B0FD"/>
<path d="M0.353516 61.6357C0.504607 62.6514 0.680879 63.6587 0.840364 64.666H55.2667V61.6357H0.353516Z" fill="#64B0FD"/>
<path d="M1.20086 49.5151C1.01619 50.5308 0.814736 51.5381 0.613281 52.5453H55.2662V49.5151H1.20086Z" fill="#64B0FD"/>
<path d="M268.775 58.6054C268.741 58.5383 268.708 58.4711 268.666 58.4123C268.103 57.3883 267.339 56.4566 266.559 55.5752H227.787V58.6054H268.775Z" fill="#64B0FD"/>
<path d="M110.28 19.2039C104.253 18.8682 98.2266 18.6499 92.2165 18.1463C85.77 17.6091 79.357 16.669 72.9105 16.1821H55.2832V19.2123H110.633C110.515 19.2123 110.398 19.2123 110.28 19.2039Z" fill="#64B0FD"/>
<path d="M227.788 22.2427H170.281V25.2729H227.788V22.2427Z" fill="#64B0FD"/>
<path d="M227.788 28.3037H170.281V31.3339H227.788V28.3037Z" fill="#64B0FD"/>
<path d="M170.28 19.2124H112.773V22.2426H170.28V19.2124Z" fill="#64B0FD"/>
<path d="M170.28 25.2729H112.773V28.3032H170.28V25.2729Z" fill="#64B0FD"/>
<path d="M227.788 34.3633H170.281V37.3935H227.788V34.3633Z" fill="#64B0FD"/>
<path d="M112.782 28.3037H55.2754V31.3339H112.782V28.3037Z" fill="#64B0FD"/>
<path d="M227.788 76.7866H170.281V79.8168H227.788V76.7866Z" fill="#64B0FD"/>
<path d="M112.782 34.3633H55.2754V37.3935H112.782V34.3633Z" fill="#64B0FD"/>
<path d="M227.788 58.605H170.281V61.6352H227.788V58.605Z" fill="#64B0FD"/>
<path d="M227.788 64.6655H170.281V67.6957H227.788V64.6655Z" fill="#64B0FD"/>
<path d="M227.788 70.7261H170.281V73.7563H227.788V70.7261Z" fill="#64B0FD"/>
<path d="M227.788 40.4238H170.281V43.454H227.788V40.4238Z" fill="#64B0FD"/>
<path d="M227.788 46.4844H170.281V49.5146H227.788V46.4844Z" fill="#64B0FD"/>
<path d="M227.788 52.5449H170.281V55.5751H227.788V52.5449Z" fill="#64B0FD"/>
<path d="M112.782 22.2427H55.2754V25.2729H112.782V22.2427Z" fill="#64B0FD"/>
<path d="M112.782 88.9072H55.2754V91.9374H112.782V88.9072Z" fill="#64B0FD"/>
<path d="M112.782 101.028H55.2754V104.059H112.782V101.028Z" fill="#64B0FD"/>
<path d="M112.782 94.9683H55.2754V97.9985H112.782V94.9683Z" fill="#64B0FD"/>
<path d="M112.782 107.08H55.2754V110.11H112.782V107.08Z" fill="#64B0FD"/>
<path d="M112.782 113.141H55.2754V116.171H112.782V113.141Z" fill="#64B0FD"/>
<path d="M112.782 125.262H55.2754V128.292H112.782V125.262Z" fill="#64B0FD"/>
<path d="M112.782 119.201H55.2754V122.231H112.782V119.201Z" fill="#64B0FD"/>
<path d="M112.782 76.7866H55.2754V79.8168H112.782V76.7866Z" fill="#64B0FD"/>
<path d="M112.782 64.6655H55.2754V67.6957H112.782V64.6655Z" fill="#64B0FD"/>
<path d="M112.782 82.8472H55.2754V85.8774H112.782V82.8472Z" fill="#64B0FD"/>
<path d="M112.782 52.5449H55.2754V55.5751H112.782V52.5449Z" fill="#64B0FD"/>
<path d="M112.782 58.605H55.2754V61.6352H112.782V58.605Z" fill="#64B0FD"/>
<path d="M112.782 46.4844H55.2754V49.5146H112.782V46.4844Z" fill="#64B0FD"/>
<path d="M112.782 70.7261H55.2754V73.7563H112.782V70.7261Z" fill="#64B0FD"/>
<path d="M112.782 40.4238H55.2754V43.454H112.782V40.4238Z" fill="#64B0FD"/>
<path d="M170.28 79.8164H112.773V82.8466H170.28V79.8164Z" fill="#64B0FD"/>
<path d="M170.28 85.877H112.773V88.9072H170.28V85.877Z" fill="#64B0FD"/>
<path d="M170.28 73.7568H112.773V76.787H170.28V73.7568Z" fill="#64B0FD"/>
<path d="M170.28 104.05H112.773V107.08H170.28V104.05Z" fill="#64B0FD"/>
<path d="M170.28 67.6963H112.773V70.7265H170.28V67.6963Z" fill="#64B0FD"/>
<path d="M170.28 97.998H112.773V101.028H170.28V97.998Z" fill="#64B0FD"/>
<path d="M170.28 110.11H112.773V113.141H170.28V110.11Z" fill="#64B0FD"/>
<path d="M227.788 82.8472H170.281V85.8774H227.788V82.8472Z" fill="#64B0FD"/>
<path d="M170.28 43.4541H112.773V46.4843H170.28V43.4541Z" fill="#64B0FD"/>
<path d="M170.28 61.6357H112.773V64.666H170.28V61.6357Z" fill="#64B0FD"/>
<path d="M170.28 31.3335H112.773V34.3637H170.28V31.3335Z" fill="#64B0FD"/>
<path d="M170.28 37.3936H112.773V40.4238H170.28V37.3936Z" fill="#64B0FD"/>
<path d="M170.28 49.5151H112.773V52.5453H170.28V49.5151Z" fill="#64B0FD"/>
<path d="M170.28 55.5752H112.773V58.6054H170.28V55.5752Z" fill="#64B0FD"/>
<path d="M170.28 91.9375H112.773V94.9677H170.28V91.9375Z" fill="#64B0FD"/>
<path d="M227.788 107.08H170.281V110.11H227.788V107.08Z" fill="#64B0FD"/>
<path d="M227.788 101.028H170.281V104.059H227.788V101.028Z" fill="#64B0FD"/>
<path d="M227.788 119.201H170.281V122.231H227.788V119.201Z" fill="#64B0FD"/>
<path d="M227.788 113.141H170.281V116.171H227.788V113.141Z" fill="#64B0FD"/>
<path d="M227.788 88.9072H170.281V91.9374H227.788V88.9072Z" fill="#64B0FD"/>
<path d="M227.788 94.9683H170.281V97.9985H227.788V94.9683Z" fill="#64B0FD"/>
<path d="M170.28 134.352H112.773V137.382H170.28V134.352Z" fill="#64B0FD"/>
<path d="M170.28 128.292H112.773V131.322H170.28V128.292Z" fill="#64B0FD"/>
<path d="M170.28 122.231H112.773V125.262H170.28V122.231Z" fill="#64B0FD"/>
<path d="M55.2754 131.322V133.647C56.3918 133.882 57.5082 134.126 58.6246 134.352H112.782V131.322H55.2754Z" fill="#64B0FD"/>
<path d="M227.788 125.262H170.281V128.292H227.788V125.262Z" fill="#64B0FD"/>
<path d="M227.788 131.322H170.281V134.352H227.788V131.322Z" fill="#64B0FD"/>
<path d="M170.28 116.17H112.773V119.201H170.28V116.17Z" fill="#64B0FD"/>
</svg>
