<svg width="260" height="131" viewBox="0 0 260 131" fill="none" xmlns="http://www.w3.org/2000/svg">
<path d="M199.079 128.964C195.323 128.861 192.457 128.847 189.598 128.474C187.195 128.163 184.744 128.218 182.327 128.55C179.572 128.923 176.838 128.943 174.076 128.536C172.446 128.294 170.775 128.315 169.118 128.26C166.142 128.156 163.159 128.039 160.183 127.928C157.449 127.825 154.694 128.322 151.952 128.536C150.302 128.667 148.652 128.833 147.002 128.854C141.036 128.93 135.077 128.923 129.111 128.999C127.35 129.019 125.589 129.247 123.829 129.309C122.068 129.378 120.266 129.579 118.546 129.33C114.155 128.695 109.729 129.006 105.323 128.578C102.948 128.35 100.49 128.895 98.0731 129.13C96.4298 129.289 94.7864 129.523 93.1499 129.724C83.2758 130.939 73.8229 129.247 64.5979 125.753C62.4367 124.939 60.1788 124.359 57.9485 123.73C56.5675 123.344 55.1589 123.067 53.7572 122.757C49.552 121.811 45.7819 119.511 41.4663 118.869C37.1784 118.234 33.1873 116.535 29.0927 115.223C25.1776 113.967 21.6215 111.943 18.0724 109.913C16.1528 108.822 14.2884 107.642 12.3343 106.613C10.2352 105.515 8.46756 104.044 7.03824 102.187C5.28438 99.915 3.64791 97.5536 1.89405 95.2818C0.968783 94.0804 0.519961 92.7822 0.582106 91.2908C0.68568 88.8533 0.471627 86.4435 0.140189 84.0267C-0.129104 82.045 -0.00481517 80.0702 0.464722 78.1023C1.2657 74.7741 1.84571 71.4252 2.16334 67.9934C2.50168 64.3683 3.51671 60.8399 4.54555 57.3391C5.10485 55.4333 5.62272 53.5138 6.22345 51.6218C7.62516 47.2026 8.80591 42.6937 10.5667 38.4195C12.286 34.2558 14.5508 30.3131 16.7052 26.3428C18.6593 22.7384 21.8908 20.7359 25.7576 19.6242C29.576 18.5333 33.3944 17.4147 37.1853 16.2339C40.9001 15.0739 44.7807 14.8874 48.5715 14.1486C51.2852 13.6169 53.9643 12.9748 56.5053 11.8493C57.2096 11.5385 57.9485 11.2623 58.6942 11.0966C65.0606 9.70183 71.4476 8.51417 77.9728 8.12059C84.132 7.74772 90.3534 7.56819 96.3331 5.89719C101.035 4.58525 105.758 3.77047 110.619 3.35617C115.556 2.93497 120.438 1.91304 125.355 1.21564C127.972 0.842769 130.609 0.559666 133.24 0.304182C134.669 0.166083 136.106 0.290372 137.514 0.642525C139.123 1.04992 140.739 1.40898 142.348 1.80946C144.495 2.34114 146.649 2.74163 148.859 2.96949C151.048 3.19736 153.209 3.72213 155.357 4.2331C158.63 5.00646 161.93 4.94431 165.238 4.62668C168.635 4.30215 172.032 3.94309 175.429 3.54951C179.918 3.03164 184.413 2.61044 188.887 1.94756C196.103 0.884199 203.215 1.34683 209.899 4.68192C215.43 7.4439 220.954 10.2266 226.478 13.0162C228.356 13.9691 230.11 15.1015 231.615 16.6068C232.312 17.3042 233.169 17.8359 233.942 18.4573C235.482 19.6864 237.215 20.225 239.19 20.0731C240.626 19.9626 242.048 20.0454 243.45 20.4736C245.397 21.0605 247.075 22.0134 248.511 23.4841C249.803 24.803 250.624 26.2047 250.631 28.145C250.645 30.8379 251.722 33.2961 252.682 35.768C253.158 37.004 253.732 38.2055 254.097 39.476C254.588 41.1815 255.154 42.818 256.114 44.3371C257.087 45.87 257.398 47.6307 257.294 49.426C257.156 51.9187 257.522 54.2181 259.014 56.3379C260.236 58.071 260.153 60.1149 259.67 62.0966C258.344 67.5653 257.212 73.0824 255.409 78.4199C254.629 80.74 254.415 83.1636 254.035 85.5596C253.725 87.5207 253.511 89.5024 253.138 91.4496C252.178 96.4557 249.961 100.813 246.35 104.458C243.084 107.759 239.542 110.756 236.02 113.773C234.515 115.065 232.975 116.342 231.58 117.751C227.244 122.114 221.948 124.683 216.093 126.244C214.601 126.644 213.075 126.941 211.597 127.376C207.213 128.681 202.773 129.372 199.079 128.93V128.964Z" fill="#FF944D"/>
<path d="M28.4213 18.8721C27.5305 19.1276 26.6398 19.3899 25.7491 19.6454C24.7202 19.9423 23.7397 20.3083 22.8145 20.7433C24.8859 20.2254 26.7296 19.5902 28.4282 18.8721H28.4213Z" fill="#00D4B1"/>
<path d="M106.277 22.0136C118.271 22.0136 124.361 18.6164 130.244 15.3365C136.016 12.1188 141.982 8.79063 153.707 8.79063C165.431 8.79063 171.397 12.1188 177.17 15.3365C183.06 18.6164 189.143 22.0136 201.137 22.0136C213.131 22.0136 219.221 18.6164 225.111 15.3365C226.036 14.8187 226.955 14.3146 227.887 13.8174C227.535 13.6103 227.169 13.4169 226.796 13.2236C226.057 13.6241 225.325 14.0315 224.607 14.432C218.834 17.6497 212.868 20.9779 201.137 20.9779C189.405 20.9779 183.709 17.8016 177.674 14.432C171.784 11.1521 165.701 7.75488 153.707 7.75488C141.713 7.75488 135.623 11.1521 129.74 14.432C123.705 17.7947 118.001 20.9779 106.277 20.9779C94.5521 20.9779 88.5862 17.6497 82.8137 14.432C79.1126 12.3674 75.3218 10.2614 70.0395 8.97706C69.0797 9.11516 68.1199 9.27397 67.1602 9.43279C73.6646 10.5307 77.9043 12.8784 82.3027 15.3296C88.1926 18.6095 94.2759 22.0067 106.27 22.0067L106.277 22.0136Z" fill="#00D4B1"/>
<path d="M35.3749 21.2603C41.1475 18.0426 47.1134 14.7144 58.838 14.7144C70.5626 14.7144 76.2661 17.8907 82.301 21.2603C88.1909 24.5401 94.2742 27.9374 106.268 27.9374C118.262 27.9374 124.352 24.5401 130.235 21.2603C136.008 18.0426 141.974 14.7144 153.698 14.7144C165.423 14.7144 171.389 18.0426 177.161 21.2603C183.051 24.5401 189.134 27.9374 201.128 27.9374C213.122 27.9374 219.212 24.5401 225.102 21.2603C227.519 19.9138 229.894 18.595 232.615 17.504C232.304 17.2692 232.007 17.0206 231.724 16.7583C229.107 17.8492 226.836 19.1128 224.598 20.3626C218.826 23.5803 212.86 26.9085 201.128 26.9085C189.397 26.9085 183.7 23.7323 177.665 20.3626C171.775 17.0828 165.692 13.6855 153.698 13.6855C141.704 13.6855 135.614 17.0828 129.731 20.3626C123.696 23.7253 117.993 26.9085 106.268 26.9085C94.5435 26.9085 88.5776 23.5803 82.8051 20.3626C76.9151 17.0828 70.8319 13.6855 58.838 13.6855C46.8441 13.6855 40.7539 17.0828 34.8709 20.3626C29.7888 23.1937 24.9277 25.8866 16.5313 26.6738C16.3311 27.0397 16.1377 27.3988 15.9375 27.7647C25.0313 27.0259 30.2791 24.112 35.3749 21.2672V21.2603Z" fill="#00D4B1"/>
<path d="M11.4091 39.7724C23.403 39.7724 29.4932 36.3752 35.3762 33.0953C41.1487 29.8776 47.1146 26.5494 58.8392 26.5494C70.5638 26.5494 76.2673 29.7257 82.3023 33.0953C88.1922 36.3752 94.2755 39.7724 106.269 39.7724C118.263 39.7724 124.353 36.3752 130.236 33.0953C136.009 29.8776 141.975 26.5494 153.699 26.5494C165.424 26.5494 171.39 29.8776 177.163 33.0953C183.052 36.3752 189.136 39.7724 201.13 39.7724C213.124 39.7724 219.214 36.3752 225.104 33.0953C231.145 29.7326 236.842 26.5494 248.567 26.5494C249.195 26.5494 249.796 26.5632 250.39 26.5839C250.286 26.218 250.162 25.8727 249.996 25.5413C249.526 25.5275 249.064 25.5137 248.574 25.5137C236.58 25.5137 230.489 28.9109 224.606 32.1908C218.834 35.4085 212.868 38.7367 201.137 38.7367C189.405 38.7367 183.708 35.5604 177.673 32.1908C171.784 28.9109 165.7 25.5137 153.706 25.5137C141.712 25.5137 135.622 28.9109 129.739 32.1908C123.704 35.5535 118.001 38.7367 106.276 38.7367C94.5517 38.7367 88.5858 35.4085 82.8132 32.1908C76.9233 28.9109 70.84 25.5137 58.8461 25.5137C46.8522 25.5137 40.7621 28.9109 34.879 32.1908C28.8441 35.5535 23.1406 38.7367 11.416 38.7367C11.0846 38.7367 10.7808 38.7228 10.4562 38.7228C10.3181 39.0612 10.18 39.4064 10.0488 39.7517C10.4977 39.7586 10.9465 39.7793 11.416 39.7793L11.4091 39.7724Z" fill="#00D4B1"/>
<path d="M11.4094 51.6083C23.4033 51.6083 29.4935 48.218 35.3765 44.9312C41.149 41.7135 47.1149 38.3854 58.8395 38.3854C70.5641 38.3854 76.2676 41.5616 82.3026 44.9312C88.1925 48.2111 94.2758 51.6083 106.27 51.6083C118.264 51.6083 124.354 48.218 130.237 44.9312C136.009 41.7135 141.975 38.3854 153.7 38.3854C165.424 38.3854 171.39 41.7135 177.163 44.9312C183.053 48.2111 189.136 51.6083 201.13 51.6083C213.124 51.6083 219.214 48.218 225.104 44.9312C231.146 41.5685 236.842 38.3854 248.567 38.3854C250.452 38.3854 252.178 38.482 253.794 38.6408C253.663 38.2749 253.525 37.9158 253.38 37.5568C251.881 37.4256 250.293 37.3496 248.574 37.3496C236.58 37.3496 230.49 40.7399 224.607 44.0267C218.834 47.2444 212.868 50.5726 201.137 50.5726C189.405 50.5726 183.709 47.3963 177.674 44.0267C171.784 40.7468 165.701 37.3496 153.707 37.3496C141.713 37.3496 135.623 40.7399 129.74 44.0267C123.705 47.3894 118.001 50.5726 106.277 50.5726C94.552 50.5726 88.5861 47.2444 82.8135 44.0267C76.9236 40.7468 70.8403 37.3496 58.8464 37.3496C46.8525 37.3496 40.7624 40.7399 34.8793 44.0267C28.8444 47.3894 23.1409 50.5726 11.4163 50.5726C9.69697 50.5726 8.11574 50.4966 6.62427 50.3585C6.52069 50.6969 6.41712 51.0352 6.30664 51.3736C7.88788 51.5186 9.57268 51.6083 11.4163 51.6083H11.4094Z" fill="#00D4B1"/>
<path d="M11.4084 45.6904C23.4023 45.6904 29.4925 42.3001 35.3755 39.0134C41.148 35.7956 47.1139 32.4675 58.8385 32.4675C70.5631 32.4675 76.2666 35.6437 82.3016 39.0134C88.1915 42.2932 94.2748 45.6904 106.269 45.6904C118.263 45.6904 124.353 42.3001 130.236 39.0134C136.008 35.7956 141.974 32.4675 153.699 32.4675C165.423 32.4675 171.389 35.7956 177.162 39.0134C183.052 42.2932 189.135 45.6904 201.129 45.6904C213.123 45.6904 219.213 42.3001 225.103 39.0134C231.145 35.6506 236.841 32.4675 248.566 32.4675C249.567 32.4675 250.513 32.502 251.438 32.5434C251.321 32.1913 251.211 31.8391 251.114 31.4869C250.292 31.4524 249.45 31.4248 248.566 31.4248C236.572 31.4248 230.482 34.8151 224.599 38.1019C218.826 41.3196 212.86 44.6478 201.129 44.6478C189.397 44.6478 183.701 41.4715 177.666 38.1019C171.776 34.822 165.693 31.4248 153.699 31.4248C141.705 31.4248 135.615 34.8151 129.732 38.1019C123.697 41.4646 117.993 44.6478 106.269 44.6478C94.544 44.6478 88.5782 41.3196 82.8056 38.1019C76.9157 34.822 70.8324 31.4248 58.8385 31.4248C46.8446 31.4248 40.7545 34.8151 34.8714 38.1019C28.8365 41.4646 23.133 44.6478 11.4084 44.6478C10.3519 44.6478 9.35073 44.6133 8.38403 44.558C8.28046 44.8964 8.16998 45.2347 8.06641 45.58C9.12977 45.6421 10.2346 45.6835 11.4084 45.6835V45.6904Z" fill="#00D4B1"/>
<path d="M103.996 4.21899C104.728 4.2466 105.488 4.26042 106.275 4.26042C112.738 4.26042 117.481 3.27301 121.403 1.85059C117.813 2.43751 114.229 3.06586 110.611 3.37658C108.381 3.56992 106.178 3.84612 103.996 4.21899Z" fill="#00D4B1"/>
<path d="M35.3761 27.1783C41.1487 23.9606 47.1146 20.6324 58.8392 20.6324C70.5638 20.6324 76.2673 23.8087 82.3022 27.1783C88.1921 30.4582 94.2754 33.8554 106.269 33.8554C118.263 33.8554 124.353 30.4651 130.236 27.1783C136.009 23.9606 141.975 20.6324 153.699 20.6324C165.424 20.6324 171.39 23.9606 177.162 27.1783C183.052 30.4582 189.136 33.8554 201.13 33.8554C213.123 33.8554 219.214 30.4651 225.104 27.1783C230.351 24.2506 235.357 21.4679 244.272 20.7912C243.995 20.6877 243.712 20.591 243.429 20.5012C242.677 20.2734 241.924 20.1491 241.164 20.1007C233.797 21.1641 229.129 23.7466 224.599 26.2738C218.827 29.4915 212.861 32.8197 201.13 32.8197C189.398 32.8197 183.701 29.6434 177.667 26.2738C171.777 22.9939 165.693 19.5967 153.699 19.5967C141.706 19.5967 135.615 22.987 129.732 26.2738C123.697 29.6365 117.994 32.8197 106.269 32.8197C94.5447 32.8197 88.5788 29.4915 82.8063 26.2738C76.9163 22.9939 70.8331 19.5967 58.8392 19.5967C46.8453 19.5967 40.7551 22.987 34.8721 26.2738C29.1548 29.457 23.7344 32.4744 13.2319 32.7851C13.0524 33.1304 12.8729 33.4825 12.6934 33.8278C23.831 33.593 29.7072 30.3339 35.3761 27.1783Z" fill="#00D4B1"/>
<path d="M187.076 2.22402C190.791 3.44619 195.252 4.26788 201.135 4.26788C203.655 4.26788 205.899 4.10907 207.943 3.84668C207.218 3.54977 206.493 3.27357 205.754 3.0388C204.311 3.16309 202.785 3.23214 201.128 3.23214C196.439 3.23214 192.718 2.72117 189.548 1.89258C189.32 1.9202 189.093 1.94782 188.865 1.98234C188.264 2.07211 187.663 2.14806 187.062 2.22402H187.076Z" fill="#00D4B1"/>
<path d="M201.142 16.0958C211.258 16.0958 217.169 13.679 222.313 10.9516C221.933 10.7582 221.554 10.5718 221.174 10.3785C216.292 12.8988 210.588 15.0531 201.142 15.0531C189.418 15.0531 183.714 11.8768 177.679 8.50722C174.987 7.00194 172.238 5.48285 168.91 4.26758C168.061 4.35734 167.218 4.4402 166.369 4.52306C170.671 5.78667 173.958 7.61648 177.175 9.41177C183.065 12.6916 189.149 16.0889 201.142 16.0889V16.0958Z" fill="#00D4B1"/>
<path d="M35.3753 86.3619C41.1478 83.1442 47.1137 79.816 58.8383 79.816C70.5629 79.816 76.2664 82.9923 82.3013 86.3619C88.1912 89.6418 94.2745 93.039 106.268 93.039C118.262 93.039 124.352 89.6487 130.236 86.3619C136.008 83.1442 141.974 79.816 153.699 79.816C165.423 79.816 171.389 83.1442 177.162 86.3619C183.051 89.6418 189.135 93.039 201.129 93.039C213.123 93.039 219.213 89.6487 225.103 86.3619C231.145 82.9992 236.841 79.816 248.566 79.816C250.893 79.816 252.992 79.9541 254.911 80.1889C254.987 79.8505 255.077 79.5122 255.174 79.1739C253.178 78.9253 251.003 78.7803 248.566 78.7803C236.572 78.7803 230.482 82.1706 224.599 85.4574C218.826 88.6751 212.86 92.0033 201.129 92.0033C189.397 92.0033 183.701 88.827 177.666 85.4574C171.776 82.1775 165.692 78.7803 153.699 78.7803C141.705 78.7803 135.614 82.1706 129.731 85.4574C123.697 88.8201 117.993 92.0033 106.268 92.0033C94.5438 92.0033 88.5779 88.6751 82.8054 85.4574C76.9155 82.1775 70.8322 78.7803 58.8383 78.7803C46.8444 78.7803 40.7542 82.1706 34.8712 85.4574C28.8363 88.8201 23.1328 92.0033 11.4082 92.0033C7.12019 92.0033 3.60556 91.5544 0.581194 90.8294C0.581194 90.9882 0.581194 91.147 0.581194 91.3059C0.574289 91.5061 0.581194 91.7063 0.581194 91.8997C3.61247 92.604 7.134 93.039 11.4082 93.039C23.4021 93.039 29.4922 89.6487 35.3753 86.3619Z" fill="#00D4B1"/>
<path d="M11.4075 69.3612C23.4014 69.3612 29.4916 65.964 35.3746 62.6841C41.1471 59.4664 47.113 56.1382 58.8376 56.1382C70.5622 56.1382 76.2657 59.3145 82.3006 62.6841C88.1906 65.964 94.2738 69.3612 106.268 69.3612C118.262 69.3612 124.352 65.964 130.235 62.6841C136.007 59.4664 141.973 56.1382 153.698 56.1382C165.422 56.1382 171.388 59.4664 177.161 62.6841C183.051 65.964 189.134 69.3612 201.128 69.3612C213.122 69.3612 219.212 65.964 225.102 62.6841C231.144 59.3214 236.84 56.1382 248.565 56.1382C252.915 56.1382 256.471 56.6008 259.523 57.3397C259.385 57.0082 259.219 56.6768 258.992 56.3661C258.936 56.2832 258.895 56.2073 258.84 56.1244C255.933 55.4961 252.584 55.1094 248.565 55.1094C236.571 55.1094 230.481 58.5066 224.598 61.7865C218.825 65.0042 212.86 68.3324 201.128 68.3324C189.396 68.3324 183.7 65.1561 177.665 61.7865C171.775 58.5066 165.692 55.1094 153.698 55.1094C141.704 55.1094 135.614 58.5066 129.731 61.7865C123.696 65.1492 117.992 68.3324 106.268 68.3324C94.5431 68.3324 88.5772 65.0042 82.8047 61.7865C76.9148 58.5066 70.8315 55.1094 58.8376 55.1094C46.8437 55.1094 40.7535 58.5066 34.8705 61.7865C28.8356 65.1492 23.1321 68.3324 11.4075 68.3324C7.86525 68.3324 4.86159 68.0285 2.21699 67.5107C2.19628 67.6764 2.17556 67.849 2.16175 68.0147C2.14794 68.1943 2.12032 68.3669 2.09961 68.5464C4.77873 69.0574 7.82382 69.3681 11.4075 69.3681V69.3612Z" fill="#00D4B1"/>
<path d="M178.763 3.20508C178.169 3.26722 177.582 3.33627 176.988 3.40532C177.05 3.43985 177.113 3.47437 177.175 3.5089C183.065 6.78875 189.148 10.186 201.142 10.186C207.508 10.186 212.204 9.2262 216.091 7.8383C215.656 7.61734 215.221 7.40329 214.793 7.18233C211.175 8.36308 206.845 9.15024 201.142 9.15024C190.122 9.15024 184.418 6.33993 178.763 3.21198V3.20508Z" fill="#00D4B1"/>
<path d="M82.3016 9.42581C88.1915 12.7057 94.2747 16.1029 106.269 16.1029C118.263 16.1029 124.353 12.7126 130.236 9.42581C135.235 6.63621 140.393 3.77065 149.307 3.05253C149.155 3.03182 149.003 3.0042 148.852 2.99039C147.678 2.8661 146.525 2.70038 145.378 2.48633C138.536 3.62565 134.075 6.09762 129.732 8.51435C123.697 11.8771 117.993 15.0602 106.269 15.0602C94.544 15.0602 88.5782 11.7321 82.8056 8.51435C82.4466 8.31411 82.0944 8.11387 81.7353 7.92053C81.0863 7.96196 80.4303 7.99648 79.7812 8.03791C80.6306 8.49364 81.4661 8.95627 82.3085 9.42581H82.3016Z" fill="#00D4B1"/>
<path d="M130.242 3.50178C132.141 2.43842 134.074 1.37506 136.215 0.408364C135.497 0.304789 134.778 0.256455 134.06 0.277169C132.555 1.0229 131.139 1.81007 129.738 2.59723C123.703 5.95995 117.999 9.14313 106.275 9.14313C100.157 9.14313 95.6135 8.23168 91.8365 6.90593C91.1322 7.02331 90.4348 7.12688 89.7305 7.22355C93.9287 8.93598 99.0176 10.1789 106.275 10.1789C118.269 10.1789 124.359 6.78164 130.242 3.50178Z" fill="#00D4B1"/>
<path d="M58.8379 115.327C70.5625 115.327 76.266 118.503 82.3009 121.873C88.1909 125.152 94.2741 128.55 106.268 128.55C118.262 128.55 124.352 125.159 130.235 121.873C136.008 118.655 141.974 115.327 153.698 115.327C165.423 115.327 171.389 118.655 177.161 121.873C183.051 125.152 189.134 128.55 201.128 128.55C204.733 128.55 207.792 128.239 210.485 127.721C210.85 127.624 211.216 127.521 211.582 127.417C212.798 127.058 214.041 126.789 215.277 126.485C219.095 125.221 222.126 123.537 225.102 121.879C226.697 120.989 228.279 120.112 229.943 119.304C230.495 118.828 231.041 118.323 231.565 117.792C231.772 117.585 231.987 117.384 232.201 117.184C229.383 118.317 226.974 119.649 224.598 120.975C218.826 124.193 212.86 127.521 201.128 127.521C189.397 127.521 183.7 124.345 177.665 120.975C171.775 117.695 165.692 114.298 153.698 114.298C141.704 114.298 135.614 117.688 129.731 120.975C123.696 124.338 117.993 127.521 106.268 127.521C94.5434 127.521 88.5775 124.193 82.805 120.975C76.9151 117.695 70.8318 114.298 58.8379 114.298C49.8891 114.298 44.2339 116.19 39.4902 118.51C40.0633 118.634 40.6434 118.752 41.2303 118.841C45.6149 116.86 50.911 115.334 58.8379 115.334V115.327Z" fill="#00D4B1"/>
<path d="M58.8382 120.209C54.9438 120.209 51.6847 120.568 48.8398 121.162C49.4682 121.404 50.0965 121.645 50.7318 121.866C53.1071 121.473 55.7724 121.245 58.8313 121.245C70.5559 121.245 76.2594 124.421 82.2943 127.791C83.703 128.578 85.1185 129.365 86.6307 130.111C87.4109 130.111 88.1912 130.097 88.9783 130.062C86.7549 129.075 84.7594 127.977 82.7984 126.879C76.9085 123.599 70.8252 120.202 58.8313 120.202L58.8382 120.209Z" fill="#00D4B1"/>
<path d="M153.704 120.209C141.71 120.209 135.62 123.606 129.737 126.886C128.301 127.687 126.878 128.481 125.387 129.22C126.25 129.158 127.113 129.089 127.976 129.04C128.743 128.626 129.495 128.212 130.241 127.791C136.013 124.573 141.979 121.245 153.704 121.245C165.429 121.245 171.394 124.573 177.167 127.791C177.782 128.136 178.403 128.481 179.031 128.819C179.687 128.799 180.336 128.757 180.992 128.695C179.867 128.108 178.776 127.501 177.671 126.886C171.781 123.606 165.698 120.209 153.704 120.209Z" fill="#00D4B1"/>
<path d="M224.605 115.044C218.832 118.262 212.867 121.59 201.135 121.59C189.403 121.59 183.707 118.414 177.672 115.044C171.782 111.764 165.699 108.367 153.705 108.367C141.711 108.367 135.621 111.758 129.738 115.044C123.703 118.407 117.999 121.59 106.275 121.59C94.5501 121.59 88.5843 118.262 82.8117 115.044C76.9218 111.764 70.8385 108.367 58.8446 108.367C46.8507 108.367 40.7606 111.758 34.8775 115.044C34.0766 115.493 33.2756 115.935 32.4746 116.37C32.9165 116.522 33.3584 116.674 33.8004 116.826C34.332 116.536 34.8637 116.239 35.3885 115.949C41.161 112.731 47.1269 109.403 58.8515 109.403C70.5761 109.403 76.2796 112.579 82.3146 115.949C88.2045 119.229 94.2878 122.626 106.282 122.626C118.276 122.626 124.366 119.236 130.249 115.949C136.021 112.731 141.987 109.403 153.712 109.403C165.436 109.403 171.402 112.731 177.175 115.949C183.065 119.229 189.148 122.626 201.142 122.626C213.136 122.626 219.226 119.236 225.116 115.949C229.549 113.477 233.809 111.115 240.397 110.024C240.866 109.617 241.329 109.203 241.791 108.788C234.058 109.79 229.266 112.448 224.605 115.044Z" fill="#00D4B1"/>
<path d="M153.706 126.126C146.67 126.126 141.678 127.3 137.549 128.922C138.626 128.922 139.71 128.902 140.787 128.895C144.254 127.845 148.383 127.155 153.7 127.155C157.373 127.155 160.487 127.479 163.201 128.032C164.775 128.094 166.342 128.149 167.917 128.211C164.174 126.961 159.665 126.126 153.706 126.126Z" fill="#00D4B1"/>
<path d="M67.7598 126.872C70.0039 127.611 72.2687 128.239 74.5473 128.743C72.5449 127.984 70.3146 127.335 67.7598 126.872Z" fill="#00D4B1"/>
<path d="M248.58 96.5322C236.586 96.5322 230.496 99.9226 224.613 103.209C218.841 106.427 212.875 109.755 201.143 109.755C189.412 109.755 183.715 106.579 177.68 103.209C171.79 99.9295 165.707 96.5322 153.713 96.5322C141.719 96.5322 135.629 99.9226 129.746 103.209C123.711 106.572 118.008 109.755 106.283 109.755C94.5585 109.755 88.5926 106.427 82.8201 103.209C76.9301 99.9295 70.8469 96.5322 58.853 96.5322C46.8591 96.5322 40.7689 99.9226 34.8859 103.209C29.9557 105.957 25.2397 108.581 17.2852 109.451C17.5544 109.61 17.8168 109.762 18.0861 109.921C18.3071 110.045 18.528 110.176 18.749 110.301C26.1649 109.244 30.8396 106.655 35.3899 104.121C41.1625 100.903 47.1284 97.5749 58.853 97.5749C70.5776 97.5749 76.2811 100.751 82.316 104.121C88.2059 107.401 94.2892 110.798 106.283 110.798C118.277 110.798 124.367 107.408 130.25 104.121C136.023 100.903 141.989 97.5749 153.713 97.5749C165.438 97.5749 171.404 100.903 177.176 104.121C183.066 107.401 189.149 110.798 201.143 110.798C213.137 110.798 219.227 107.408 225.117 104.121C231.159 100.758 236.856 97.5749 248.58 97.5749C249.471 97.5749 250.314 97.6025 251.142 97.637C251.301 97.2987 251.46 96.9672 251.598 96.622C250.631 96.5736 249.637 96.5391 248.58 96.5391V96.5322Z" fill="#00D4B1"/>
<path d="M201.143 115.672C189.419 115.672 183.715 112.496 177.68 109.126C171.79 105.846 165.707 102.449 153.713 102.449C141.719 102.449 135.629 105.846 129.746 109.126C123.711 112.489 118.008 115.672 106.283 115.672C94.5586 115.672 88.5927 112.344 82.8201 109.126C76.9302 105.846 70.847 102.449 58.8531 102.449C46.8591 102.449 40.769 105.846 34.886 109.126C31.8409 110.825 28.8787 112.468 25.1914 113.69C25.6471 113.898 26.1029 114.098 26.5655 114.291C29.9144 113.076 32.6764 111.543 35.3831 110.038C41.1557 106.82 47.1215 103.492 58.8462 103.492C70.5708 103.492 76.2743 106.668 82.3092 110.038C88.1991 113.318 94.2824 116.715 106.276 116.715C118.27 116.715 124.36 113.318 130.243 110.038C136.016 106.82 141.982 103.492 153.706 103.492C165.431 103.492 171.397 106.82 177.169 110.038C183.059 113.318 189.143 116.715 201.137 116.715C213.13 116.715 219.221 113.318 225.111 110.038C230.911 106.806 236.421 103.747 247.248 103.519C247.552 103.174 247.849 102.822 248.132 102.47C236.442 102.553 230.42 105.895 224.606 109.14C218.834 112.358 212.868 115.686 201.137 115.686L201.143 115.672Z" fill="#00D4B1"/>
<path d="M11.4085 87.1132C23.4024 87.1132 29.4926 83.716 35.3756 80.4361C41.1482 77.2184 47.1141 73.8902 58.8387 73.8902C70.5633 73.8902 76.2668 77.0665 82.3017 80.4361C88.1916 83.716 94.2749 87.1132 106.269 87.1132C118.263 87.1132 124.353 83.716 130.236 80.4361C136.008 77.2184 141.974 73.8902 153.699 73.8902C165.424 73.8902 171.389 77.2184 177.162 80.4361C183.052 83.716 189.135 87.1132 201.129 87.1132C213.123 87.1132 219.213 83.716 225.103 80.4361C231.145 77.0734 236.841 73.8902 248.566 73.8902C251.604 73.8902 254.242 74.1181 256.603 74.5048C256.7 74.1733 256.79 73.835 256.88 73.4967C254.442 73.0962 251.715 72.8545 248.566 72.8545C236.572 72.8545 230.482 76.2517 224.599 79.5316C218.826 82.7493 212.861 86.0775 201.129 86.0775C189.398 86.0775 183.701 82.9012 177.666 79.5316C171.776 76.2517 165.693 72.8545 153.699 72.8545C141.705 72.8545 135.615 76.2517 129.732 79.5316C123.697 82.8943 117.993 86.0775 106.269 86.0775C94.5442 86.0775 88.5783 82.7493 82.8058 79.5316C76.9158 76.2517 70.8326 72.8545 58.8387 72.8545C46.8448 72.8545 40.7546 76.2517 34.8716 79.5316C28.8366 82.8943 23.1332 86.0775 11.4085 86.0775C6.95485 86.0775 3.32975 85.5941 0.236328 84.8208C0.284663 85.1867 0.332997 85.5527 0.367522 85.9187C3.44713 86.6506 7.0308 87.1063 11.4085 87.1063V87.1132Z" fill="#00D4B1"/>
<path d="M11.409 75.2783C23.4029 75.2783 29.4931 71.8879 35.3761 68.6012C41.1486 65.3835 47.1145 62.0553 58.8391 62.0553C70.5637 62.0553 76.2672 65.2316 82.3022 68.6012C88.1921 71.881 94.2753 75.2783 106.269 75.2783C118.263 75.2783 124.353 71.8879 130.236 68.6012C136.009 65.3835 141.975 62.0553 153.699 62.0553C165.424 62.0553 171.39 65.3835 177.162 68.6012C183.052 71.881 189.136 75.2783 201.13 75.2783C213.123 75.2783 219.214 71.8879 225.104 68.6012C231.145 65.2385 236.842 62.0553 248.567 62.0553C252.854 62.0553 256.369 62.5041 259.393 63.2291C259.476 62.8908 259.552 62.5524 259.635 62.2141C256.549 61.4753 252.958 61.0195 248.567 61.0195C236.573 61.0195 230.482 64.4099 224.599 67.6966C218.827 70.9143 212.861 74.2425 201.13 74.2425C189.398 74.2425 183.701 71.0662 177.666 67.6966C171.777 64.4168 165.693 61.0195 153.699 61.0195C141.705 61.0195 135.615 64.4099 129.732 67.6966C123.697 71.0593 117.994 74.2425 106.269 74.2425C94.5446 74.2425 88.5788 70.9143 82.8062 67.6966C76.9163 64.4168 70.833 61.0195 58.8391 61.0195C46.8452 61.0195 40.7551 64.4099 34.872 67.6966C28.8371 71.0593 23.1336 74.2425 11.409 74.2425C7.52151 74.2425 4.28309 73.8696 1.45896 73.2689C1.39682 73.6142 1.32777 73.9525 1.26562 74.2908C4.14499 74.9054 7.45246 75.2783 11.409 75.2783Z" fill="#00D4B1"/>
<path d="M11.4095 81.1962C23.4034 81.1962 29.4936 77.8059 35.3766 74.5191C41.1491 71.3014 47.115 67.9732 58.8396 67.9732C70.5642 67.9732 76.2677 71.1495 82.3027 74.5191C88.1926 77.799 94.2759 81.1962 106.27 81.1962C118.264 81.1962 124.354 77.8059 130.237 74.5191C136.009 71.3014 141.975 67.9732 153.7 67.9732C165.424 67.9732 171.39 71.3014 177.163 74.5191C183.053 77.799 189.136 81.1962 201.13 81.1962C213.124 81.1962 219.214 77.8059 225.104 74.5191C231.146 71.1564 236.842 67.9732 248.567 67.9732C252.24 67.9732 255.348 68.2978 258.061 68.8502C258.144 68.5118 258.22 68.1735 258.303 67.8351C255.52 67.2758 252.337 66.9375 248.567 66.9375C236.573 66.9375 230.483 70.3278 224.6 73.6146C218.827 76.8323 212.862 80.1605 201.13 80.1605C189.399 80.1605 183.702 76.9842 177.667 73.6146C171.777 70.3347 165.694 66.9375 153.7 66.9375C141.706 66.9375 135.616 70.3278 129.733 73.6146C123.698 76.9773 117.994 80.1605 106.27 80.1605C94.5452 80.1605 88.5793 76.8323 82.8067 73.6146C76.9168 70.3347 70.8335 66.9375 58.8396 66.9375C46.8457 66.9375 40.7556 70.3278 34.8725 73.6146C28.8376 76.9773 23.1341 80.1605 11.4095 80.1605C6.99034 80.1605 3.38595 79.684 0.306344 78.9245C0.244199 79.2697 0.182055 79.615 0.140625 79.9533C3.27547 80.7198 6.9282 81.1962 11.4164 81.1962H11.4095Z" fill="#00D4B1"/>
<path d="M11.4076 63.4433C23.4015 63.4433 29.4917 60.053 35.3747 56.7662C41.1472 53.5485 47.1131 50.2203 58.8377 50.2203C70.5623 50.2203 76.2658 53.3966 82.3008 56.7662C88.1907 60.0461 94.2739 63.4433 106.268 63.4433C118.262 63.4433 124.352 60.053 130.235 56.7662C136.007 53.5485 141.973 50.2203 153.698 50.2203C165.423 50.2203 171.388 53.5485 177.161 56.7662C183.051 60.0461 189.134 63.4433 201.128 63.4433C213.122 63.4433 219.212 60.053 225.102 56.7662C231.144 53.4035 236.84 50.2203 248.565 50.2203C251.886 50.2203 254.738 50.4965 257.265 50.9522C257.252 50.607 257.252 50.2548 257.265 49.8958C254.731 49.4539 251.886 49.1846 248.572 49.1846C236.578 49.1846 230.488 52.5749 224.605 55.8617C218.832 59.0794 212.867 62.4076 201.135 62.4076C189.403 62.4076 183.707 59.2313 177.672 55.8617C171.782 52.5818 165.699 49.1846 153.705 49.1846C141.711 49.1846 135.621 52.5749 129.738 55.8617C123.703 59.2244 117.999 62.4076 106.275 62.4076C94.5501 62.4076 88.5843 59.0794 82.8117 55.8617C76.9218 52.5818 70.8385 49.1846 58.8446 49.1846C46.8507 49.1846 40.7605 52.5749 34.8775 55.8617C28.8426 59.2244 23.1391 62.4076 11.4145 62.4076C8.3487 62.4076 5.69029 62.1797 3.31498 61.7861C3.23213 62.1245 3.14236 62.4628 3.06641 62.7942C5.51076 63.2016 8.25203 63.4433 11.4145 63.4433H11.4076Z" fill="#00D4B1"/>
<path d="M11.4096 104.873C23.4035 104.873 29.4937 101.476 35.3767 98.1959C41.1493 94.9782 47.1151 91.65 58.8398 91.65C70.5644 91.65 76.2679 94.8263 82.3028 98.1959C88.1927 101.476 94.276 104.873 106.27 104.873C118.264 104.873 124.354 101.476 130.237 98.1959C136.01 94.9782 141.975 91.65 153.7 91.65C165.425 91.65 171.39 94.9782 177.163 98.1959C183.053 101.476 189.136 104.873 201.13 104.873C213.124 104.873 219.214 101.476 225.104 98.1959C231.146 94.8332 236.843 91.65 248.567 91.65C250.162 91.65 251.647 91.7191 253.042 91.8295C253.069 91.7122 253.097 91.5948 253.124 91.4774C253.166 91.2564 253.2 91.0286 253.242 90.8076C251.785 90.6833 250.238 90.6143 248.574 90.6143C236.58 90.6143 230.49 94.0115 224.607 97.2913C218.834 100.509 212.869 103.837 201.137 103.837C189.406 103.837 183.709 100.661 177.674 97.2913C171.784 94.0115 165.701 90.6143 153.707 90.6143C141.713 90.6143 135.623 94.0115 129.74 97.2913C123.705 100.654 118.001 103.837 106.277 103.837C94.5522 103.837 88.5863 100.509 82.8138 97.2913C76.9238 94.0115 70.8406 90.6143 58.8467 90.6143C46.8528 90.6143 40.7626 94.0115 34.8796 97.2913C28.8446 100.654 23.1411 103.837 11.4165 103.837C10.3739 103.837 9.39338 103.803 8.43359 103.754C8.82027 104.134 9.22076 104.5 9.64196 104.845C10.222 104.859 10.802 104.88 11.4096 104.88V104.873Z" fill="#00D4B1"/>
<path d="M11.4088 57.5262C23.4027 57.5262 29.4929 54.129 35.3759 50.8491C41.1484 47.6314 47.1143 44.3033 58.8389 44.3033C70.5635 44.3033 76.267 47.4795 82.302 50.8491C88.1919 54.129 94.2752 57.5262 106.269 57.5262C118.263 57.5262 124.353 54.129 130.236 50.8491C136.009 47.6314 141.975 44.3033 153.699 44.3033C165.424 44.3033 171.39 47.6314 177.162 50.8491C183.052 54.129 189.135 57.5262 201.129 57.5262C213.123 57.5262 219.213 54.129 225.103 50.8491C231.145 47.4864 236.842 44.3033 248.566 44.3033C251.508 44.3033 254.083 44.5104 256.383 44.8764C256.293 44.7037 256.196 44.5311 256.086 44.3654C255.955 44.1652 255.851 43.9511 255.734 43.744C253.586 43.447 251.225 43.2744 248.559 43.2744C236.566 43.2744 230.475 46.6716 224.592 49.9515C218.82 53.1692 212.854 56.4974 201.122 56.4974C189.391 56.4974 183.694 53.3211 177.659 49.9515C171.769 46.6716 165.686 43.2744 153.692 43.2744C141.698 43.2744 135.608 46.6716 129.725 49.9515C123.69 53.3142 117.987 56.4974 106.262 56.4974C94.5375 56.4974 88.5717 53.1692 82.7991 49.9515C76.9092 46.6716 70.8259 43.2744 58.832 43.2744C46.8381 43.2744 40.748 46.6716 34.8649 49.9515C28.83 53.3142 23.1265 56.4974 11.4019 56.4974C9.00588 56.4974 6.85844 56.3524 4.89743 56.1038C4.80076 56.4422 4.70409 56.7736 4.60742 57.1119C6.65129 57.3743 8.8954 57.5331 11.4019 57.5331L11.4088 57.5262Z" fill="#00D4B1"/>
<path d="M11.409 98.955C23.4029 98.955 29.493 95.5647 35.376 92.2779C41.1486 89.0602 47.1145 85.732 58.8391 85.732C70.5637 85.732 76.2672 88.9083 82.3021 92.2779C88.192 95.5578 94.2753 98.955 106.269 98.955C118.263 98.955 124.353 95.5647 130.236 92.2779C136.009 89.0602 141.975 85.732 153.699 85.732C165.424 85.732 171.39 89.0602 177.162 92.2779C183.052 95.5578 189.136 98.955 201.129 98.955C213.123 98.955 219.214 95.5647 225.103 92.2779C231.145 88.9152 236.842 85.732 248.566 85.732C250.521 85.732 252.302 85.8287 253.959 86.0013C253.98 85.8632 254.001 85.7251 254.021 85.587C254.056 85.3799 254.084 85.1796 254.118 84.9725C252.413 84.7999 250.583 84.6963 248.573 84.6963C236.579 84.6963 230.489 88.0866 224.606 91.3734C218.834 94.5911 212.868 97.9193 201.136 97.9193C189.405 97.9193 183.708 94.743 177.673 91.3734C171.783 88.0935 165.7 84.6963 153.706 84.6963C141.712 84.6963 135.622 88.0866 129.739 91.3734C123.704 94.7361 118.001 97.9193 106.276 97.9193C94.5515 97.9193 88.5856 94.5911 82.8131 91.3734C76.9232 88.0935 70.8399 84.6963 58.846 84.6963C46.8521 84.6963 40.7619 88.0866 34.8789 91.3734C28.844 94.7361 23.1405 97.9193 11.4159 97.9193C8.39839 97.9193 5.76761 97.6983 3.41992 97.3116C3.70993 97.7052 3.99303 98.0919 4.28304 98.4855C6.41667 98.7824 8.76436 98.955 11.4159 98.955H11.409Z" fill="#00D4B1"/>
</svg>
