<svg width="163" height="124" viewBox="0 0 163 124" fill="none" xmlns="http://www.w3.org/2000/svg">
<path d="M0.075581 59.7584C-0.449247 53.9853 1.85442 48.9274 4.03733 43.8138C5.84404 39.5781 8.54714 35.9228 11.1759 32.2165C12.9873 29.6621 15.6114 27.99 18.3192 26.5224C25.1326 22.8347 31.3098 18.2366 37.4127 13.5085C41.6438 10.2295 46.0932 7.28489 51.2208 5.52927C52.1543 5.2088 53.046 4.7908 54.0725 4.79544C54.444 4.79544 54.8528 4.65146 55.1872 4.46568C57.6302 3.10949 60.3333 2.44997 62.9481 1.57216C63.5054 1.38638 64.0953 1.23311 64.6805 1.19596C67.2489 1.03804 69.7987 0.782597 72.2975 0.104501C72.8502 -0.0441227 73.4865 -0.0162557 74.0624 0.0766342C75.2467 0.262414 76.4079 0.253125 77.6015 0.0998566C79.7008 -0.169524 81.8001 0.243836 83.7183 0.954444C87.9773 2.53357 92.1295 4.39137 96.3374 6.10983C102.863 8.77577 108.831 12.5053 114.897 16.0212C118.993 18.3945 122.871 21.158 126.471 24.2837C128.18 25.77 129.991 27.1448 131.886 28.422C134.673 30.2984 137.362 32.3373 139.341 35.1426C139.736 35.7046 140.209 36.2247 140.692 36.7171C145.959 42.1 150.599 48.0125 155.29 53.8785C156.145 54.9513 156.827 56.1821 157.454 57.4129C158.662 59.7909 159.8 62.2107 160.924 64.6305C164.026 71.3139 163.557 77.8673 160.148 84.2999C158.03 88.2942 155.104 91.615 151.612 94.4528C147.548 97.7597 143.512 101.104 139.155 104.044C136.624 105.753 134.339 107.834 131.993 109.812C129.954 111.535 127.934 113.291 126.011 115.139C124.135 116.937 122.059 118.404 119.811 119.691C118.742 120.304 117.693 120.638 116.453 120.643C112.686 120.657 108.952 121.042 105.287 121.939C103.527 122.366 101.771 122.352 99.9833 122.213C92.9748 121.674 85.9616 121.414 78.953 122.25C75.5161 122.659 72.0792 123.058 68.6376 123.425C67.6576 123.532 66.6637 123.546 65.6744 123.555C63.4962 123.578 61.3179 123.574 59.1443 123.574C54.9921 123.574 50.8399 123.676 46.7063 123.002C42.7074 122.348 38.6342 122.199 34.6631 121.33C33.2187 121.015 31.7975 120.573 30.353 120.248C28.1794 119.756 26.6467 118.479 25.5785 116.561C24.4731 114.577 23.3073 112.645 21.9651 110.792C20.8829 109.301 20.2234 107.462 19.5778 105.702C18.556 102.924 17.1766 100.258 16.7029 97.2952C16.5217 96.1619 15.7508 95.3584 15.068 94.5178C13.9487 93.1384 12.6668 91.8983 11.7008 90.3749C10.7486 88.8701 9.78722 87.4071 9.10912 85.7304C8.48212 84.1884 7.43246 82.823 6.66147 81.3321C4.56681 77.2821 2.90872 73.0463 1.25064 68.8059C0.40534 66.6462 -0.0265979 64.454 0.0709365 62.141C0.103448 61.3515 0.075581 60.5572 0.075581 59.7677V59.7584Z" fill="#FCF8C3"/>
<path d="M145.276 41.6864C145.016 41.3892 144.756 41.0873 144.491 40.79H5.51402C5.35146 41.0873 5.19819 41.3892 5.04492 41.6864H145.272H145.276Z" fill="#2CFC00"/>
<path d="M142.837 38.9696C142.558 38.6677 142.275 38.3705 141.992 38.0732H7.13425C6.94383 38.3705 6.75805 38.6677 6.57227 38.9696H142.837Z" fill="#2CFC00"/>
<path d="M3.78125 44.3993H147.603C147.352 44.0974 147.096 43.8002 146.846 43.5029H4.17603C4.12959 43.6051 4.0785 43.7073 4.0367 43.8095C3.9531 44.0045 3.8695 44.2042 3.78589 44.3993H3.78125Z" fill="#2CFC00"/>
<path d="M138.064 33.5448C137.79 33.2383 137.511 32.9364 137.218 32.6484H10.8648C10.6512 32.9457 10.4375 33.2476 10.2285 33.5448H138.064Z" fill="#2CFC00"/>
<path d="M12.3223 30.828H135.192C134.816 30.5215 134.431 30.2196 134.041 29.9316H13.2372C12.9214 30.215 12.6149 30.5168 12.3223 30.828Z" fill="#2CFC00"/>
<path d="M156.25 55.2577C156.06 54.9512 155.855 54.6539 155.646 54.3613H0.352964C0.29723 54.6586 0.250785 54.9558 0.208984 55.2577H156.25Z" fill="#2CFC00"/>
<path d="M159.067 60.6874C158.923 60.3855 158.779 60.0883 158.63 59.791H0.0761719C0.0761719 60.0883 0.0761719 60.3902 0.0854609 60.6874H159.071H159.067Z" fill="#2CFC00"/>
<path d="M131.45 28.1161C131.023 27.8235 130.596 27.5216 130.178 27.2197H17.0748C16.5825 27.5077 16.0948 27.8049 15.6211 28.1161H131.455H131.45Z" fill="#2CFC00"/>
<path d="M154.226 52.5458C153.989 52.2486 153.747 51.9467 153.511 51.6494H1.00862C0.92037 51.9467 0.836769 52.2486 0.757812 52.5458H154.226Z" fill="#2CFC00"/>
<path d="M149.86 47.1161C149.614 46.8142 149.368 46.517 149.121 46.2197H3.01023C2.88483 46.517 2.75943 46.8189 2.63867 47.1161H149.855H149.86Z" fill="#2CFC00"/>
<path d="M152.056 49.829C151.815 49.5271 151.573 49.2299 151.332 48.9326H1.92277C1.8113 49.2299 1.69984 49.5318 1.59766 49.829H152.056Z" fill="#2CFC00"/>
<path d="M0.00585938 57.9753H157.733C157.64 57.7895 157.547 57.599 157.45 57.4086C157.394 57.2972 157.333 57.1857 157.278 57.0742H0.0337263C0.0197929 57.3715 0.0105039 57.6687 0.00585938 57.9706V57.9753Z" fill="#2CFC00"/>
<path d="M72.1438 3.68545C72.1438 3.68545 72.1391 3.67616 72.1438 3.67616C72.1716 3.3464 72.4364 3.21636 72.7243 3.35105C72.8126 3.39285 72.8869 3.5554 72.9055 3.68545H90.5499C89.83 3.38356 89.1148 3.08631 88.3949 2.78906H59.1531C58.3543 3.05844 57.5647 3.35105 56.7891 3.68545H72.1484H72.1438Z" fill="#2CFC00"/>
<path d="M48.9453 6.3981H97.0205C96.7929 6.30057 96.5653 6.19839 96.3377 6.10085C95.8501 5.90114 95.367 5.70143 94.8794 5.49707H51.2815C51.2815 5.49707 51.2397 5.511 51.2165 5.52029C50.4455 5.78503 49.6884 6.07763 48.9453 6.39346V6.3981Z" fill="#2CFC00"/>
<path d="M67.4492 0.968415H83.7746C83.7746 0.968415 83.7375 0.954481 83.7189 0.945192C82.5531 0.513254 81.3177 0.192784 80.059 0.0673828H77.8668C77.7786 0.0766718 77.6903 0.0813163 77.6021 0.0906053C76.4085 0.243874 75.252 0.253163 74.0676 0.0673828H72.456C72.4049 0.0766718 72.3492 0.0813163 72.2981 0.0952498C70.7004 0.527188 69.0794 0.791924 67.4492 0.96377V0.968415Z" fill="#2CFC00"/>
<path d="M102.756 9.11514C102.171 8.81324 101.59 8.51135 101 8.21875H45.2431C44.723 8.50671 44.2074 8.8086 43.7012 9.11514H102.761H102.756Z" fill="#2CFC00"/>
<path d="M127.803 25.3983C127.441 25.1057 127.088 24.8038 126.735 24.502H21.8156C21.314 24.8038 20.8078 25.1057 20.2969 25.3983H127.803Z" fill="#2CFC00"/>
<path d="M103.485 122.223H100.248C101.335 122.297 102.412 122.32 103.485 122.223Z" fill="#2CFC00"/>
<path d="M107.71 11.8271C107.186 11.5252 106.656 11.2279 106.127 10.9307H40.9039C40.4813 11.2233 40.0586 11.5252 39.6406 11.8271H107.71Z" fill="#2CFC00"/>
<path d="M124.567 22.6864C124.196 22.3845 123.82 22.0826 123.443 21.79H26.0947C25.6396 22.0919 25.1844 22.3892 24.7246 22.6864H124.567Z" fill="#2CFC00"/>
<path d="M121.014 19.9696C120.591 19.6677 120.159 19.3658 119.732 19.0732H29.9957C29.5777 19.3751 29.1551 19.6724 28.7324 19.9696H121.009H121.014Z" fill="#2CFC00"/>
<path d="M116.95 17.2567C116.462 16.9502 115.97 16.653 115.473 16.3604H33.6741C33.2747 16.6622 32.8799 16.9595 32.4805 17.2567H116.95Z" fill="#2CFC00"/>
<path d="M112.37 14.5399C111.859 14.2427 111.352 13.9408 110.842 13.6436H37.2263C36.8408 13.9454 36.4507 14.2427 36.0605 14.5399H112.37Z" fill="#2CFC00"/>
<path d="M140.259 36.2567C139.994 35.9688 139.739 35.6715 139.507 35.3604H8.94975C8.74075 35.6576 8.53639 35.9595 8.33203 36.2567H140.264H140.259Z" fill="#2CFC00"/>
<path d="M149.736 95.9765C150.103 95.6792 150.469 95.3773 150.836 95.0801H15.5469C15.7837 95.368 16.0067 95.6653 16.1971 95.9765H149.736Z" fill="#2CFC00"/>
<path d="M132.291 109.548C132.644 109.251 132.992 108.949 133.34 108.651H20.7578C20.8971 108.958 21.0458 109.255 21.2037 109.548H132.291Z" fill="#2CFC00"/>
<path d="M139.035 104.118C139.072 104.09 139.109 104.062 139.151 104.039C139.55 103.77 139.94 103.496 140.33 103.222H18.6074C18.7282 103.519 18.8489 103.821 18.9697 104.118H139.035Z" fill="#2CFC00"/>
<path d="M0.0755642 63.4042H160.352C160.213 63.107 160.074 62.8051 159.93 62.5078H0.0662752C0.0616307 62.8097 0.0662752 63.107 0.0755642 63.4042Z" fill="#2CFC00"/>
<path d="M142.842 101.406C143.241 101.109 143.641 100.812 144.036 100.51H17.5566C17.6635 100.812 17.7749 101.109 17.8864 101.406H142.847H142.842Z" fill="#2CFC00"/>
<path d="M135.484 106.835C135.851 106.533 136.218 106.231 136.59 105.938H19.6738C19.7853 106.236 19.8921 106.538 20.0082 106.835H135.484Z" fill="#2CFC00"/>
<path d="M129.137 112.265C129.476 111.963 129.82 111.665 130.164 111.368H22.3789C22.5879 111.665 22.7969 111.963 22.9966 112.265H129.137Z" fill="#2CFC00"/>
<path d="M31.0501 120.406H118.12C118.696 120.244 119.249 120.002 119.806 119.686C119.909 119.631 120.006 119.57 120.108 119.51H28.4492C29.0251 119.83 29.6521 120.081 30.3581 120.239C30.5903 120.29 30.8226 120.35 31.0548 120.406H31.0501Z" fill="#2CFC00"/>
<path d="M47.6124 123.123H71.3086C73.8584 122.84 76.4036 122.547 78.9534 122.245C79.0138 122.236 79.0742 122.236 79.1346 122.227H40.5527C42.6056 122.459 44.6631 122.663 46.702 122.998C47.0039 123.049 47.3058 123.086 47.6077 123.128L47.6124 123.123Z" fill="#2CFC00"/>
<path d="M126.173 114.976C126.489 114.675 126.809 114.377 127.13 114.08H24.1426C24.3237 114.377 24.5048 114.675 24.6813 114.976H126.168H126.173Z" fill="#2CFC00"/>
<path d="M122.918 117.694C123.318 117.406 123.713 117.104 124.098 116.798H25.7324C25.9228 117.114 26.1226 117.416 26.3408 117.694H122.914H122.918Z" fill="#2CFC00"/>
<path d="M146.362 98.6933C146.738 98.396 147.115 98.0988 147.486 97.7969H16.8086C16.869 98.0988 16.934 98.396 17.0083 98.6933H146.362Z" fill="#2CFC00"/>
<path d="M162.712 76.9755C162.763 76.6782 162.801 76.3763 162.838 76.0791H4.20508C4.33512 76.3763 4.46517 76.6782 4.59522 76.9755H162.712Z" fill="#2CFC00"/>
<path d="M162.878 71.5458C162.845 71.2486 162.813 70.9467 162.766 70.6494H1.97852C2.09463 70.9467 2.21538 71.2486 2.3315 71.5458H162.878Z" fill="#2CFC00"/>
<path d="M162.981 74.2587C162.99 73.9614 163 73.6596 162.995 73.3623H3.06641C3.18716 73.6642 3.31256 73.9614 3.43797 74.2587H162.986H162.981Z" fill="#2CFC00"/>
<path d="M161.551 66.1171C161.435 65.8198 161.31 65.518 161.18 65.2207H0.261719C0.308164 65.5226 0.368542 65.8198 0.433565 66.1171H161.551Z" fill="#2CFC00"/>
<path d="M1.26457 68.829H162.405C162.331 68.5318 162.252 68.2299 162.164 67.9326H0.939453C1.03699 68.2206 1.13917 68.5039 1.25063 68.7918C1.25528 68.8058 1.25992 68.8151 1.26457 68.829Z" fill="#2CFC00"/>
<path d="M11.8298 90.5468H155.726C155.995 90.2495 156.26 89.9523 156.515 89.6504H11.2539C11.4025 89.8873 11.5558 90.1241 11.7044 90.361C11.7462 90.426 11.788 90.4818 11.8298 90.5468Z" fill="#2CFC00"/>
<path d="M153 93.2636C153.33 92.971 153.65 92.6691 153.971 92.3672H13.2285C13.4886 92.6691 13.7487 92.9663 14.0088 93.2636H153Z" fill="#2CFC00"/>
<path d="M157.927 87.8349C158.14 87.5376 158.354 87.2404 158.559 86.9385H9.66992C9.82319 87.245 9.99039 87.5376 10.1576 87.8349H157.927Z" fill="#2CFC00"/>
<path d="M162.061 79.6884C162.154 79.3911 162.233 79.0892 162.312 78.792H5.42578C5.56512 79.0892 5.70445 79.3911 5.84843 79.6884H162.061Z" fill="#2CFC00"/>
<path d="M159.678 85.1171C159.836 84.8431 159.994 84.5737 160.143 84.295C160.157 84.2718 160.166 84.2439 160.18 84.2207H8.36523C8.53244 84.518 8.69499 84.8152 8.84362 85.1171H159.678Z" fill="#2CFC00"/>
<path d="M161.054 82.4052C161.184 82.1079 161.309 81.806 161.43 81.5088H6.76367C6.92623 81.8107 7.09808 82.1126 7.27457 82.4052H161.054Z" fill="#2CFC00"/>
<path d="M152.716 50.6555C152.442 50.3118 152.164 49.9681 151.89 49.6245L14.5891 28.8311C14.2593 29.0726 13.9342 29.328 13.623 29.5928L152.721 50.6602L152.716 50.6555Z" fill="#FF91FC"/>
<path d="M155.214 53.7808C154.94 53.4371 154.666 53.0934 154.388 52.7497L11.992 31.1807C11.7644 31.4408 11.5508 31.7101 11.3418 31.9888L155.21 53.7808H155.214Z" fill="#FF91FC"/>
<path d="M147.599 44.3898C147.307 44.0414 147.014 43.6931 146.721 43.3494L21.91 24.4463C21.5105 24.6878 21.1111 24.934 20.707 25.1708L147.599 44.3898Z" fill="#FF91FC"/>
<path d="M144.88 41.2313C144.569 40.8784 144.253 40.53 143.937 40.1817L25.4192 22.2354C25.0429 22.4862 24.6621 22.7277 24.2812 22.9692L144.876 41.236L144.88 41.2313Z" fill="#FF91FC"/>
<path d="M150.194 47.5296C149.911 47.1813 149.627 46.8376 149.344 46.4939L18.1324 26.6201C17.7098 26.8523 17.2871 27.0892 16.8691 27.3354L150.194 47.5296Z" fill="#FF91FC"/>
<path d="M157.142 56.8188C156.965 56.4844 156.784 56.1547 156.594 55.8296L10.1528 33.6475C9.95776 33.9215 9.76733 34.1955 9.57227 34.4695L157.142 56.8188Z" fill="#FF91FC"/>
<path d="M162.864 71.4111C162.831 71.1046 162.79 70.7934 162.739 70.4869L2.98189 46.2891C2.86113 46.5724 2.74502 46.8603 2.62891 47.1437L162.864 71.4111Z" fill="#FF91FC"/>
<path d="M3.7168 44.5619L162.35 68.5878C162.266 68.272 162.173 67.9562 162.075 67.6404L4.08371 43.7119C4.06978 43.7444 4.0512 43.7769 4.03727 43.8094C3.93044 44.0603 3.82362 44.3111 3.7168 44.5619Z" fill="#FF91FC"/>
<path d="M158.633 59.7909C158.475 59.4658 158.312 59.136 158.154 58.8109L8.41598 36.1318C8.2302 36.4059 8.04442 36.6799 7.86328 36.9539L158.628 59.7862L158.633 59.7909Z" fill="#FF91FC"/>
<path d="M160.045 62.7497C159.892 62.4246 159.739 62.0995 159.581 61.7744L6.78628 38.6309C6.61444 38.9049 6.44259 39.1836 6.27539 39.4622L160.045 62.7497Z" fill="#FF91FC"/>
<path d="M161.383 65.6985C161.253 65.3734 161.114 65.0529 160.965 64.7278L5.3233 41.1523C5.17468 41.431 5.02605 41.7097 4.88672 41.993L161.383 65.6939V65.6985Z" fill="#FF91FC"/>
<path d="M118.05 17.953C117.418 17.5443 116.777 17.1449 116.136 16.7548L48.6332 6.53223C48.1362 6.75052 47.6439 6.9781 47.1562 7.21497L118.05 17.953Z" fill="#FF91FC"/>
<path d="M105.444 10.555C104.668 10.1277 103.888 9.70509 103.103 9.29173L59.4725 2.68262C58.8687 2.88233 58.2742 3.09133 57.6797 3.31891L105.448 10.555H105.444Z" fill="#FF91FC"/>
<path d="M52.0801 5.21378L111.924 14.2798C111.228 13.8711 110.531 13.4624 109.834 13.0537L54.6438 4.69824C54.4534 4.75862 54.2583 4.79113 54.0726 4.79113C53.362 4.79113 52.721 4.9862 52.0801 5.21843V5.21378Z" fill="#FF91FC"/>
<path d="M162.981 74.1755C162.99 73.8736 162.999 73.5717 162.99 73.2698L1.94669 48.877C1.83986 49.1649 1.73304 49.4482 1.63086 49.7362L162.981 74.1755Z" fill="#FF91FC"/>
<path d="M63.3796 1.43751L97.4935 6.60219C97.108 6.43499 96.7271 6.26314 96.337 6.10523C95.5939 5.80334 94.8554 5.4968 94.1169 5.18562L66.7469 1.03809C66.0595 1.10311 65.3721 1.14955 64.6801 1.19135C64.2435 1.21922 63.8023 1.31211 63.375 1.43287L63.3796 1.43751Z" fill="#FF91FC"/>
<path d="M74.0669 0.0720081C73.5514 -0.00694829 72.9894 -0.0348153 72.4785 0.0720081L87.1923 2.30137C86.0404 1.83692 84.8886 1.38176 83.7228 0.954462C83.5789 0.903373 83.4349 0.852283 83.2909 0.805838L78.2656 0.0441412C78.0473 0.0580746 77.8243 0.0766526 77.606 0.10452C76.4124 0.257788 75.2513 0.267077 74.0669 0.0812971V0.0720081Z" fill="#FF91FC"/>
<path d="M122.996 21.4457C122.495 21.0602 121.988 20.6794 121.477 20.3078L44.481 8.64551C44.0769 8.88238 43.6729 9.12389 43.2734 9.37005L122.996 21.4457Z" fill="#FF91FC"/>
<path d="M139.142 34.8736C138.882 34.5159 138.608 34.1769 138.324 33.8425L31.8538 17.7168C31.5148 17.9676 31.1757 18.2184 30.832 18.4692L139.137 34.8736H139.142Z" fill="#FF91FC"/>
<path d="M136.2 31.6827C135.773 31.3019 135.336 30.9303 134.886 30.5773L34.899 15.4316C34.5646 15.6871 34.2301 15.9379 33.9004 16.1887L136.2 31.6827Z" fill="#FF91FC"/>
<path d="M36.8965 13.8987L131.64 28.2501C131.087 27.8739 130.543 27.4884 130.005 27.0937L37.8811 13.1416C37.7232 13.2624 37.5653 13.3831 37.4074 13.5085C37.2355 13.6386 37.0683 13.7686 36.8965 13.9033V13.8987Z" fill="#FF91FC"/>
<path d="M141.964 38.0451C141.63 37.6921 141.295 37.3345 140.952 36.9862L28.7128 19.9873C28.3598 20.2381 28.0022 20.4843 27.6445 20.7351L141.964 38.0497V38.0451Z" fill="#FF91FC"/>
<path d="M127.106 24.8136C126.892 24.6371 126.679 24.4606 126.47 24.2795C126.247 24.0844 126.024 23.8987 125.796 23.7082L40.9972 10.8662C40.6396 11.1124 40.2866 11.3585 39.9336 11.614L127.101 24.8183L127.106 24.8136Z" fill="#FF91FC"/>
<path d="M1.29243 68.9038L154.268 92.0705C154.533 91.8104 154.793 91.5457 155.048 91.281L0.939453 67.9424C1.03699 68.2257 1.13917 68.509 1.25063 68.7923C1.26457 68.8295 1.2785 68.8666 1.29243 68.9038Z" fill="#FF91FC"/>
<path d="M119.644 119.775C119.699 119.747 119.75 119.719 119.806 119.687C120.164 119.482 120.517 119.269 120.87 119.055L18.7559 103.589C18.8859 103.909 19.016 104.234 19.146 104.555L119.644 119.775Z" fill="#FF91FC"/>
<path d="M123.108 117.555C123.443 117.308 123.773 117.058 124.098 116.798L17.6133 100.672C17.7294 100.992 17.8455 101.313 17.9709 101.633L123.108 117.559V117.555Z" fill="#FF91FC"/>
<path d="M125.898 115.233C125.936 115.2 125.968 115.168 126.005 115.135C126.247 114.903 126.493 114.68 126.734 114.452L16.8086 97.8018C16.869 98.1176 16.9386 98.4334 17.0222 98.7399L125.898 115.228V115.233Z" fill="#FF91FC"/>
<path d="M128.454 112.873C128.742 112.613 129.034 112.353 129.327 112.098L15.3418 94.834C15.6158 95.1684 15.8898 95.5028 16.1221 95.8604L128.454 112.873Z" fill="#FF91FC"/>
<path d="M131.139 110.532C131.422 110.29 131.705 110.044 131.993 109.803C132.012 109.789 132.026 109.775 132.044 109.761L12.6621 91.6846C12.9454 92.0376 13.238 92.3812 13.5353 92.7249L131.134 110.537L131.139 110.532Z" fill="#FF91FC"/>
<path d="M80.5187 122.088C81.8796 121.958 83.2357 121.855 84.5966 121.8L23.1406 112.492C23.3589 112.827 23.5772 113.161 23.7862 113.495L80.5187 122.088Z" fill="#FF91FC"/>
<path d="M70.1108 123.253C71.2626 123.128 72.4191 123.002 73.5709 122.868L24.9941 115.511C25.1846 115.841 25.375 116.17 25.5608 116.505L70.1108 123.253Z" fill="#FF91FC"/>
<path d="M53.952 123.55C55.6798 123.578 57.4122 123.564 59.1446 123.564C59.4372 123.564 59.7344 123.564 60.027 123.564L27.1719 118.59C27.6967 119.073 28.2819 119.468 28.9507 119.765L53.9567 123.55H53.952Z" fill="#FF91FC"/>
<path d="M133.869 108.201C134.171 107.945 134.472 107.685 134.774 107.43L10.627 88.6289C10.8313 88.9633 11.0357 89.2977 11.2447 89.6321L133.869 108.205V108.201Z" fill="#FF91FC"/>
<path d="M110.001 121.062C111.236 120.899 112.476 120.783 113.721 120.718L19.8789 106.506C19.9997 106.826 20.1204 107.151 20.2505 107.467L110.001 121.062Z" fill="#FF91FC"/>
<path d="M98.9616 122.134C99.3006 122.157 99.6397 122.18 99.9834 122.208C101.535 122.329 103.063 122.352 104.586 122.078L21.1523 109.44C21.3335 109.784 21.5332 110.119 21.7422 110.439L98.9616 122.134Z" fill="#FF91FC"/>
<path d="M139.778 103.607C140.136 103.361 140.498 103.115 140.851 102.864L7.42383 82.6514C7.62819 82.9858 7.83254 83.3155 8.03226 83.6499L139.778 103.603V103.607Z" fill="#FF91FC"/>
<path d="M0.081078 60.4826L159.921 84.6897C159.996 84.555 160.075 84.4296 160.149 84.2903C160.228 84.1416 160.298 83.993 160.372 83.849L0.0625 59.5723C0.0671445 59.6326 0.0671445 59.693 0.071789 59.7534C0.071789 59.9949 0.071789 60.2411 0.0764335 60.4826H0.081078Z" fill="#FF91FC"/>
<path d="M156.502 89.6695C156.725 89.4048 156.938 89.1354 157.156 88.8613L0.242188 65.0908C0.288632 65.402 0.349011 65.7132 0.414034 66.0244L156.506 89.6648L156.502 89.6695Z" fill="#FF91FC"/>
<path d="M0.0655605 63.2279L158.378 87.2075C158.564 86.9381 158.735 86.6594 158.912 86.3808L0.0655605 62.3223C0.0562715 62.6288 0.0562715 62.9307 0.0655605 63.2279Z" fill="#FF91FC"/>
<path d="M162.111 79.5345C162.2 79.2419 162.269 78.954 162.344 78.6614L0.399362 54.1338C0.343628 54.4264 0.292539 54.7236 0.246094 55.0162L162.111 79.5299V79.5345Z" fill="#FF91FC"/>
<path d="M0 57.7292L161.164 82.1406C161.285 81.8573 161.396 81.5694 161.508 81.286L0.0464449 56.8281C0.027867 57.1254 0.00928899 57.4273 0.00464449 57.7292H0Z" fill="#FF91FC"/>
<path d="M148.797 96.738C149.113 96.4826 149.424 96.2271 149.74 95.9717L3.23438 73.7803C3.36907 74.1054 3.49911 74.4259 3.6338 74.7463L148.793 96.7334L148.797 96.738Z" fill="#FF91FC"/>
<path d="M142.936 101.34C143.27 101.089 143.609 100.839 143.939 100.583L5.83984 79.6689C5.99776 79.9987 6.16496 80.3238 6.32752 80.6489L142.936 101.34Z" fill="#FF91FC"/>
<path d="M162.725 76.8824C162.771 76.5852 162.813 76.2879 162.85 75.9953L1.05475 51.4863C0.966507 51.7743 0.88755 52.0669 0.808594 52.3548L162.725 76.8778V76.8824Z" fill="#FF91FC"/>
<path d="M145.917 99.0466C146.238 98.7911 146.558 98.5403 146.879 98.2849L4.47852 76.7158C4.62249 77.0409 4.77112 77.3661 4.9151 77.6912L145.917 99.0466Z" fill="#FF91FC"/>
<path d="M151.643 94.4209C151.95 94.1701 152.252 93.91 152.549 93.6499L2.0625 70.8594C2.1879 71.1798 2.31795 71.505 2.44335 71.8254L151.643 94.4209Z" fill="#FF91FC"/>
<path d="M9.5279 86.6267L136.662 105.883C136.987 105.627 137.312 105.372 137.646 105.126L9.08203 85.6514C9.08203 85.6514 9.10525 85.6978 9.11454 85.721C9.23994 86.0322 9.38392 86.3295 9.5279 86.6267Z" fill="#FF91FC"/>
</svg>
