<svg width="180" height="122" viewBox="0 0 180 122" fill="none" xmlns="http://www.w3.org/2000/svg">
<path d="M42.952 116.29L32.5357 10.249C32.2735 10.3825 32.0113 10.5208 31.7539 10.6638L42.1225 116.204C42.399 116.228 42.6802 116.256 42.9567 116.295L42.952 116.29Z" fill="#F4A6E6"/>
<path d="M178.391 92.6018C178.553 91.2479 178.71 89.894 178.815 88.5306L174.997 49.6544C174.706 49.5114 174.415 49.3684 174.129 49.2158L178.391 92.597V92.6018Z" fill="#F4A6E6"/>
<path d="M174.046 115.583C174.251 115.569 174.451 115.55 174.656 115.54C174.728 115.54 174.794 115.521 174.866 115.512L166.9 34.4173C166.633 34.2552 166.342 34.1265 166.037 34.0264L174.051 115.588L174.046 115.583Z" fill="#F4A6E6"/>
<path d="M177.608 51.0645L178.895 64.1742C179.067 63.0968 179.253 62.0242 179.401 60.9468L178.509 51.8749C178.242 51.565 177.937 51.298 177.604 51.0645H177.608Z" fill="#F4A6E6"/>
<path d="M135.772 120.652L124.064 1.46777C123.793 1.51545 123.526 1.56788 123.254 1.61556L134.962 120.814C135.234 120.757 135.501 120.704 135.772 120.652Z" fill="#F4A6E6"/>
<path d="M162.627 32.8779L170.779 115.889C171.051 115.855 171.322 115.827 171.594 115.798L163.485 33.2259C163.271 33.1401 163.061 33.0591 162.846 32.978C162.77 32.9494 162.698 32.9161 162.627 32.8827V32.8779Z" fill="#F4A6E6"/>
<path d="M145.562 119.551L133.997 1.8066C133.716 1.71126 133.434 1.63022 133.148 1.56348L144.737 119.57C145.009 119.565 145.286 119.556 145.562 119.556V119.551Z" fill="#F4A6E6"/>
<path d="M154.799 20.3983L164.29 117.014C164.557 116.957 164.829 116.9 165.096 116.843L155.776 21.9381C155.6 21.6521 155.423 21.3661 155.247 21.08C155.104 20.8464 154.956 20.6176 154.799 20.3936V20.3983Z" fill="#F4A6E6"/>
<path d="M167.527 116.38C167.799 116.333 168.066 116.285 168.338 116.237L159.709 28.4072C159.395 27.8065 159.056 27.2154 158.713 26.6338L167.527 116.38Z" fill="#F4A6E6"/>
<path d="M154.617 119.308C154.889 119.265 155.156 119.217 155.428 119.165L144.454 7.44628C144.163 7.30326 143.872 7.15071 143.586 7.00293L154.617 119.308Z" fill="#F4A6E6"/>
<path d="M151.35 119.661C151.622 119.646 151.898 119.627 152.17 119.604L140.967 5.55868C140.676 5.38707 140.381 5.21545 140.09 5.03906L151.35 119.656V119.661Z" fill="#F4A6E6"/>
<path d="M147.146 9.67285L157.849 118.603C158.116 118.531 158.383 118.46 158.654 118.393L148.143 11.3843C147.871 10.7788 147.542 10.202 147.151 9.67762L147.146 9.67285Z" fill="#F4A6E6"/>
<path d="M129.259 121.533L117.512 1.97266C117.236 1.97266 116.964 1.98219 116.688 1.99172L128.429 121.524C128.706 121.528 128.977 121.533 129.254 121.528L129.259 121.533Z" fill="#F4A6E6"/>
<path d="M150.969 15.0117L161.061 117.768C161.328 117.701 161.595 117.634 161.866 117.568L151.913 16.2226C151.889 16.1749 151.865 16.132 151.841 16.0843C151.66 15.6791 151.326 15.3264 150.969 15.0117Z" fill="#F4A6E6"/>
<path d="M177.251 114.612C177.48 114.316 177.642 113.94 177.732 113.458C177.775 113.225 177.833 112.996 177.895 112.767L171.445 47.1041C170.868 46.1984 170.772 45.1067 171.03 43.5478C171.044 43.4715 171.058 43.3905 171.073 43.3142L170.606 38.5709C170.358 38.0751 170.043 37.5984 169.643 37.1455L177.251 114.617V114.612Z" fill="#F4A6E6"/>
<path d="M122.608 121.004L110.919 2.03951C110.643 2.01568 110.366 1.99184 110.09 1.97754L121.774 120.937C122.051 120.956 122.327 120.98 122.604 121.004H122.608Z" fill="#F4A6E6"/>
<path d="M76.0868 117.711L64.8506 3.3418C64.5836 3.40377 64.3119 3.46098 64.0449 3.51818L75.2573 117.687C75.5338 117.687 75.8103 117.697 76.082 117.706L76.0868 117.711Z" fill="#F4A6E6"/>
<path d="M72.7887 117.695L61.624 4.05078C61.3571 4.11275 61.0853 4.17949 60.8184 4.24623L71.964 117.7C72.2405 117.7 72.5122 117.7 72.7887 117.695Z" fill="#F4A6E6"/>
<path d="M62.8826 117.658L51.9276 6.14453C51.6559 6.1922 51.3889 6.23511 51.1172 6.27801L62.0578 117.668C62.3343 117.663 62.6061 117.658 62.8826 117.658Z" fill="#F4A6E6"/>
<path d="M55.4971 117.964C55.7736 118.002 56.0453 118.04 56.3218 118.069L45.4098 6.96973C45.1381 6.99356 44.8663 7.01263 44.5898 7.03647L55.4876 117.959C55.4876 117.959 55.4923 117.959 55.4971 117.959V117.964Z" fill="#F4A6E6"/>
<path d="M46.292 116.724L35.6898 8.80957C35.4228 8.91445 35.1606 9.02886 34.8984 9.1385L45.4577 116.609C45.7342 116.648 46.0155 116.681 46.292 116.719V116.724Z" fill="#F4A6E6"/>
<path d="M66.1839 117.681L55.1717 5.60059C54.9 5.64349 54.6283 5.68639 54.3613 5.73407L65.3592 117.681C65.6357 117.681 65.9074 117.681 66.1839 117.686V117.681Z" fill="#F4A6E6"/>
<path d="M79.4143 118.001L68.0685 2.47852C67.8015 2.56909 67.5345 2.65013 67.2676 2.73118L78.5801 117.896C78.8613 117.93 79.1378 117.963 79.4143 118.001Z" fill="#F4A6E6"/>
<path d="M106.064 120.556L94.3275 1.0433C94.051 1.02423 93.7745 1.0004 93.498 0.976562L105.244 120.537C105.521 120.542 105.797 120.547 106.069 120.561L106.064 120.556Z" fill="#F4A6E6"/>
<path d="M115.587 121.177C115.73 121.163 115.873 121.149 116.02 121.129L104.255 1.36395C103.974 1.31628 103.697 1.27337 103.416 1.23047L115.2 121.206C115.329 121.196 115.458 121.187 115.587 121.177Z" fill="#F4A6E6"/>
<path d="M102.765 120.543L90.9944 0.724596C90.7179 0.695993 90.4414 0.667391 90.1602 0.643555L101.94 120.566C102.212 120.557 102.488 120.547 102.76 120.538L102.765 120.543Z" fill="#F4A6E6"/>
<path d="M86.1404 119.273L74.5133 0.923828C74.2368 0.933362 73.9651 0.952431 73.6934 0.9715L85.3014 119.135C85.5827 119.183 85.8592 119.231 86.1404 119.278V119.273Z" fill="#F4A6E6"/>
<path d="M92.84 120.29L81.027 0.00488281C80.7553 0.0144171 80.4788 0.0334858 80.207 0.0525545L92.0058 120.161C92.287 120.204 92.5635 120.242 92.8448 120.285L92.84 120.29Z" fill="#F4A6E6"/>
<path d="M148.876 119.67L137.458 3.47039C137.168 3.29878 136.877 3.13193 136.586 2.97461L148.046 119.622C148.323 119.641 148.599 119.661 148.876 119.67Z" fill="#F4A6E6"/>
<path d="M25.5141 115.141C25.7953 115.208 26.0766 115.275 26.3578 115.346L17.1191 21.29C16.8616 21.476 16.6042 21.6571 16.3516 21.8478L25.5141 115.141Z" fill="#F4A6E6"/>
<path d="M32.2453 116.481C32.5218 116.5 32.7983 116.514 33.0748 116.519L23.202 16.0176C22.935 16.1892 22.6823 16.3703 22.4297 16.5563L32.2453 116.481Z" fill="#F4A6E6"/>
<path d="M28.8957 115.979C29.177 116.041 29.4582 116.103 29.7395 116.156L20.1527 18.5908C19.9096 18.8625 19.6617 19.1247 19.4043 19.3869L28.891 115.979H28.8957Z" fill="#F4A6E6"/>
<path d="M35.5367 116.394C35.5986 116.384 35.6606 116.384 35.7226 116.375C35.9323 116.346 36.1421 116.322 36.3519 116.299L26.3122 14.1191C26.0548 14.286 25.7974 14.4528 25.5352 14.6149L35.5319 116.389L35.5367 116.394Z" fill="#F4A6E6"/>
<path d="M28.6328 12.5695L38.8059 116.112C39.0824 116.103 39.3542 116.098 39.6307 116.098L29.4099 12.0547C29.2907 12.131 29.1715 12.2025 29.0571 12.2835C28.9188 12.3789 28.7758 12.4742 28.6376 12.5648L28.6328 12.5695Z" fill="#F4A6E6"/>
<path d="M52.1398 117.501C52.4163 117.539 52.6976 117.577 52.9741 117.615L42.1383 7.28418C41.8666 7.30802 41.5949 7.32708 41.3184 7.35092L52.1398 117.506V117.501Z" fill="#F4A6E6"/>
<path d="M48.8006 117.048C49.0771 117.086 49.3583 117.119 49.6348 117.157L38.8849 7.70801C38.6131 7.77475 38.3462 7.85102 38.084 7.93683L48.8006 117.043V117.048Z" fill="#F4A6E6"/>
<path d="M1.75195 41.2254L8.40215 108.933C8.65481 109.124 8.94084 109.286 9.26977 109.41L2.42412 39.6475C2.36692 39.7762 2.30494 39.9049 2.24774 40.0384C2.07135 40.4293 1.90927 40.825 1.75672 41.2206L1.75195 41.2254Z" fill="#F4A6E6"/>
<path d="M5.08626 100.324L3.58937 85.1074C3.556 85.7796 3.48449 86.4518 3.36054 87.1144C3.25567 87.6817 3.18416 88.249 3.12695 88.821L4.09946 98.7081C4.23294 98.9513 4.37118 99.1896 4.53327 99.4232C4.73349 99.7188 4.91464 100.019 5.08149 100.329L5.08626 100.324Z" fill="#F4A6E6"/>
<path d="M4.45898 35.185L11.8576 110.52C12.034 110.597 12.2104 110.678 12.3915 110.754C12.5012 110.802 12.6108 110.849 12.7205 110.897L5.15499 33.874C4.9071 34.2983 4.66874 34.7273 4.46375 35.1802L4.45898 35.185Z" fill="#F4A6E6"/>
<path d="M22.1408 114.402C22.4221 114.454 22.7034 114.512 22.9798 114.569L14.0509 23.6875C13.7935 23.9068 13.5409 24.1308 13.293 24.3549L22.1361 114.397L22.1408 114.402Z" fill="#F4A6E6"/>
<path d="M0.20752 53.5677C0.364837 53.9873 0.498317 54.4115 0.617496 54.8406L0.217055 50.7646C-0.00223499 51.699 -0.130948 52.6811 0.20752 53.5677Z" fill="#F4A6E6"/>
<path d="M18.746 113.473C18.9319 113.549 19.1179 113.63 19.3038 113.706C19.3991 113.744 19.504 113.778 19.6041 113.811L11.0327 26.5576C10.7801 26.8198 10.5322 27.0915 10.2891 27.3633L18.746 113.473Z" fill="#F4A6E6"/>
<path d="M15.3055 112.019C15.5916 112.143 15.8776 112.262 16.1684 112.386L8.06899 29.9424C7.8211 30.2379 7.5732 30.5287 7.33008 30.8291L15.3055 112.019Z" fill="#F4A6E6"/>
<path d="M118.473 120.904C118.745 120.885 119.021 120.871 119.293 120.866L107.604 1.83495C107.327 1.81588 107.051 1.78728 106.77 1.75391L118.473 120.904Z" fill="#F4A6E6"/>
<path d="M129.809 1.12391L141.464 119.779C141.736 119.75 142.008 119.721 142.28 119.698L130.648 1.27646C130.648 1.27646 130.614 1.26692 130.6 1.26216C130.338 1.20495 130.071 1.15728 129.809 1.11914V1.12391Z" fill="#F4A6E6"/>
<path d="M111.9 121.139C112.177 121.167 112.453 121.191 112.73 121.21L100.917 0.953523C100.64 0.939222 100.368 0.929688 100.092 0.929688L111.9 121.139Z" fill="#F4A6E6"/>
<path d="M2.97156 78.8379C2.96202 79.367 3.03353 79.9057 3.12887 80.4397L2.97156 78.8379Z" fill="#F4A6E6"/>
<path d="M96.7715 0.763151L108.556 120.738C108.832 120.767 109.114 120.8 109.39 120.834L97.6057 0.829891C97.3292 0.791754 97.0527 0.758384 96.7762 0.763151H96.7715Z" fill="#F4A6E6"/>
<path d="M138.201 120.218C138.473 120.175 138.74 120.127 139.012 120.084L127.318 1.02441C127.046 1.03872 126.775 1.05778 126.498 1.08639L138.201 120.213V120.218Z" fill="#F4A6E6"/>
<path d="M119.994 1.97282L131.721 121.381C131.993 121.352 132.265 121.314 132.537 121.271L120.814 1.93945C120.547 1.95852 120.28 1.97282 120.013 1.97282H119.994Z" fill="#F4A6E6"/>
<path d="M113.432 2.41692L125.106 121.262C125.383 121.296 125.664 121.324 125.941 121.358L114.247 2.29297C114.151 2.31204 114.061 2.33111 113.966 2.35494C113.799 2.39785 113.613 2.41692 113.432 2.41215V2.41692Z" fill="#F4A6E6"/>
<path d="M57.6152 5.24266L68.6608 117.7C68.9373 117.7 69.209 117.7 69.4855 117.7L58.4161 4.98047C58.2445 5.04244 58.0729 5.10442 57.906 5.17116C57.8155 5.20929 57.7153 5.22359 57.62 5.2379L57.6152 5.24266Z" fill="#F4A6E6"/>
<path d="M58.7924 117.987C59.0642 117.935 59.3311 117.887 59.6029 117.849L48.6765 6.64551C48.4048 6.68365 48.1331 6.71225 47.8613 6.74562L58.7877 117.987H58.7924Z" fill="#F4A6E6"/>
<path d="M81.9383 118.458C82.2196 118.52 82.5008 118.578 82.7821 118.64L71.2599 1.37207C70.9881 1.43881 70.7212 1.51985 70.459 1.60089L81.9383 118.458Z" fill="#F4A6E6"/>
<path d="M88.6528 119.674C88.9293 119.717 89.2106 119.755 89.4871 119.798L77.7646 0.404297C77.4977 0.461503 77.2259 0.518709 76.959 0.585449L88.6576 119.674H88.6528Z" fill="#F4A6E6"/>
<path d="M86.8457 0.466797L98.6635 120.79C98.7398 120.785 98.8113 120.781 98.8876 120.771C99.0878 120.752 99.2832 120.738 99.4835 120.723L87.6704 0.476331C87.3939 0.466797 87.1222 0.466797 86.8457 0.466797Z" fill="#F4A6E6"/>
<path d="M95.3495 120.681C95.4829 120.704 95.6117 120.723 95.7451 120.742C95.8929 120.766 96.0359 120.776 96.1837 120.795L84.3421 0.21902C84.0656 0.176115 83.7843 0.142745 83.5078 0.109375L95.3495 120.685V120.681Z" fill="#F4A6E6"/>
<path d="M157.685 24.9602C157.337 24.412 156.989 23.8638 156.641 23.3203H14.4886C13.8593 23.8495 13.2443 24.3977 12.6484 24.9602H157.685Z" fill="#F9672D"/>
<path d="M8.1543 29.8421H160.408C160.155 29.2843 159.888 28.7361 159.602 28.2021H9.55108C9.40806 28.369 9.26505 28.5311 9.12203 28.6979C8.80263 29.0841 8.4737 29.4654 8.1543 29.8468V29.8421Z" fill="#F9672D"/>
<path d="M171.014 39.6096C170.852 39.0376 170.599 38.4893 170.266 37.9697H3.18595C2.93805 38.518 2.68539 39.0614 2.4375 39.6096H171.014Z" fill="#F9672D"/>
<path d="M0.445531 54.2639H179.686C179.586 53.8158 179.395 53.382 179.195 52.9387C179.147 52.829 179.09 52.7241 179.033 52.624H0.0117188C0.0307874 52.9482 0.0879934 53.2676 0.207173 53.5727C0.292982 53.8015 0.374023 54.0351 0.445531 54.2639Z" fill="#F9672D"/>
<path d="M170.915 44.4962C170.934 44.2007 170.977 43.886 171.03 43.5476C171.068 43.314 171.115 43.0852 171.158 42.8516H1.20887C1.05632 43.3903 0.932373 43.9385 0.841797 44.4915H170.91L170.915 44.4962Z" fill="#F9672D"/>
<path d="M174.437 49.3782C174.151 49.2352 173.87 49.0874 173.593 48.9301C172.907 48.5392 172.368 48.153 171.958 47.7383H0.659501C0.645199 48.2913 0.597528 48.8347 0.511719 49.3782H174.442H174.437Z" fill="#F9672D"/>
<path d="M134.099 120.995H122.5C123.658 121.095 124.822 121.224 125.975 121.357C128.654 121.667 131.3 121.591 133.941 121.028C133.994 121.019 134.046 121.009 134.094 120.995H134.099Z" fill="#F9672D"/>
<path d="M18.6895 20.0745H154.563C154.158 19.5215 153.729 18.9828 153.309 18.4346H20.3055C20.2626 18.4822 20.2197 18.5204 20.1768 18.5681C19.7001 19.0924 19.2138 19.6073 18.6942 20.0792L18.6895 20.0745Z" fill="#F9672D"/>
<path d="M57.4289 5.26189C57.0523 5.30956 56.6804 5.36676 56.3086 5.4192H140.745C139.825 4.87574 138.909 4.32275 137.994 3.7793H62.8348C61.1663 4.1416 59.5026 4.53251 57.9056 5.17131C57.7578 5.22852 57.591 5.24282 57.4289 5.26189Z" fill="#F9672D"/>
<path d="M40.543 116.109C41.3629 116.133 42.1781 116.195 42.9933 116.295C46.6592 116.748 50.3157 117.244 53.9721 117.754H60.4459C61.6901 117.644 62.9439 117.659 64.1976 117.668C67.5156 117.692 70.8383 117.73 74.1562 117.687C75.0858 117.673 76.0154 117.697 76.9403 117.754H161.133C163.793 117.096 166.472 116.519 169.185 116.114H40.543V116.109Z" fill="#F9672D"/>
<path d="M85.1302 0.352497C82.4606 -0.186193 79.8101 -0.0956168 77.1738 0.543183H88.9344C87.9905 0.476443 87.0419 0.438306 86.0932 0.476443C85.7738 0.490745 85.4496 0.41447 85.1302 0.352497Z" fill="#F9672D"/>
<path d="M151.165 15.1925C150.97 15.0018 150.755 14.8255 150.55 14.6586C150.131 14.3201 149.764 13.9483 149.44 13.5479H27.181C26.3277 14.1199 25.4648 14.6777 24.5781 15.1878H151.17L151.165 15.1925Z" fill="#F9672D"/>
<path d="M147.571 10.3059C147.199 9.70049 146.765 9.14273 146.255 8.66602H36.062C34.8178 9.15227 33.6022 9.69572 32.4199 10.3059H147.571Z" fill="#F9672D"/>
<path d="M167.349 34.7288C166.787 34.2854 166.133 33.9946 165.361 33.8421C164.598 33.6943 163.864 33.3749 163.13 33.0889H5.64679C5.29879 33.6133 4.97939 34.1615 4.69336 34.7288H167.354H167.349Z" fill="#F9672D"/>
<path d="M178.838 103.099C178.8 102.551 178.743 102.002 178.667 101.459H5.63281C5.85687 101.993 6.04756 102.541 6.20964 103.099H178.838Z" fill="#F9672D"/>
<path d="M178.125 98.218C178.067 97.6698 178.044 97.1263 178.053 96.5781H3.2793C3.41278 97.1407 3.5987 97.6889 3.84659 98.218H178.125Z" fill="#F9672D"/>
<path d="M7.58861 107.985H178.968C178.968 107.436 178.968 106.888 178.959 106.345H7.05469C7.12619 106.616 7.20247 106.883 7.26921 107.16C7.34548 107.465 7.45036 107.737 7.58384 107.989L7.58861 107.985Z" fill="#F9672D"/>
<path d="M115.589 121.176C116.175 121.114 116.762 121.052 117.348 120.995H110.684C112.304 121.214 113.94 121.343 115.584 121.176H115.589Z" fill="#F9672D"/>
<path d="M177.871 112.866C178.019 112.313 178.21 111.77 178.401 111.227H13.4805C14.7581 111.78 16.0357 112.328 17.3133 112.866H177.871Z" fill="#F9672D"/>
<path d="M3.00867 93.3313H178.307C178.374 92.7831 178.436 92.2396 178.502 91.6914H3.00391C3.00391 92.2396 3.00391 92.7879 3.00867 93.3313Z" fill="#F9672D"/>
<path d="M35.7177 116.375C36.757 116.232 37.8105 116.142 38.864 116.113H29.5156C31.5464 116.514 33.6011 116.671 35.7177 116.375Z" fill="#F9672D"/>
<path d="M178.958 83.5628C178.958 83.0145 178.963 82.4663 178.977 81.9229H3.41211C3.49792 82.4663 3.55512 83.0145 3.58373 83.5628H178.958Z" fill="#F9672D"/>
<path d="M178.681 73.801C178.576 73.2528 178.495 72.7094 178.443 72.1611H3.65457C3.59736 72.7046 3.56876 73.2528 3.54492 73.801H178.681Z" fill="#F9672D"/>
<path d="M178.391 68.9143C178.414 68.3661 178.453 67.8226 178.505 67.2744H3.1543C3.20197 67.8274 3.29254 68.3709 3.43079 68.9143H178.391Z" fill="#F9672D"/>
<path d="M178.919 64.0315C179.005 63.4833 179.1 62.9351 179.186 62.3916H2.88672C3.02973 62.9255 3.11078 63.4737 3.13461 64.0315H178.919Z" fill="#F9672D"/>
<path d="M2.97852 78.6819H179.235C179.278 78.4006 179.321 78.1194 179.373 77.8429C179.426 77.5759 179.43 77.309 179.416 77.042H3.26931C3.22641 77.266 3.1835 77.4901 3.12153 77.7094C3.03572 78.0288 2.99282 78.353 2.97852 78.6819Z" fill="#F9672D"/>
<path d="M3.16797 88.4495H178.819C178.862 87.9012 178.895 87.3578 178.919 86.8096H3.41109C3.39203 86.9097 3.38249 87.0146 3.36342 87.1147C3.28238 87.558 3.22041 88.0061 3.17274 88.4495H3.16797Z" fill="#F9672D"/>
<path d="M1.49518 59.1458H179.606C179.649 58.6023 179.673 58.0541 179.673 57.5059H1.17578C1.25206 57.9206 1.32356 58.3401 1.40461 58.7549C1.42844 58.8836 1.46181 59.0171 1.49518 59.1458Z" fill="#F9672D"/>
</svg>
