<svg width="178" height="166" viewBox="0 0 178 166" fill="none" xmlns="http://www.w3.org/2000/svg">
<path d="M177.302 53.7904C177.587 55.1365 177.441 56.6584 177.156 58.1803C177.077 58.6108 177.029 59.0716 177.108 59.496C177.684 62.5702 177.023 65.6382 177.089 68.7063C177.144 71.2347 177.011 73.7571 177.599 76.2612C177.926 77.6558 177.811 79.1232 177.538 80.5299C176.15 87.6543 174.937 94.8151 172.79 101.776C172.251 103.522 171.505 105.02 169.825 105.947C167.4 107.287 166.654 109.719 166.77 112.126C166.915 115.115 165.763 117.504 164.284 119.814C163.222 121.464 162.119 123.137 160.549 124.404C159.493 125.253 158.857 126.436 158.293 127.63C156.504 131.408 154.588 135.124 152.472 138.732C151.029 141.2 149.519 143.625 148.022 146.057C147.361 147.13 146.366 147.785 145.16 148.161C143.365 148.725 141.54 149.179 139.654 148.967C138.351 148.822 137.253 149.149 136.283 149.949C135.149 150.883 133.839 151.411 132.457 151.811C132.033 151.932 131.608 152.053 131.208 152.241C125.818 154.733 120.421 157.207 115.049 159.742C113.751 160.354 112.605 161.227 111.654 162.331C110.295 163.901 108.555 164.338 106.578 163.986C105.39 163.774 104.183 163.58 103.037 163.222C98.8113 161.912 94.6761 161.749 90.4681 163.477C88.2307 164.398 85.7508 164.562 83.3194 164.507C78.8992 164.41 74.5336 164.908 70.1801 165.575C68.9917 165.757 67.7669 165.75 66.5603 165.769C64.5776 165.799 62.5948 165.714 60.6182 165.787C55.3188 165.981 50.0922 165.229 44.8352 164.78C43.956 164.708 43.0829 164.592 42.2037 164.556C37.256 164.356 32.3326 163.913 27.4819 162.883C26.8392 162.743 26.1783 162.604 25.5234 162.598C20.2907 162.543 16.0585 160.099 12.0809 157.025C10.6924 155.952 9.31603 154.842 7.85476 153.866C6.44806 152.926 5.30814 151.871 4.59873 150.265C4.07728 149.076 3.22841 148.021 2.4523 146.954C1.60343 145.784 0.948583 144.541 0.554464 143.14C0.0875848 141.491 0.00876108 139.86 0.778809 138.308C1.72469 136.398 2.0218 134.33 2.35528 132.275C2.47655 131.523 2.60995 130.716 2.45836 129.995C2.06424 128.127 2.64633 126.545 3.50732 124.956C4.08334 123.901 4.50778 122.761 4.98679 121.652C5.07167 121.452 5.09593 121.221 5.199 121.027C8.10942 115.631 10.5287 109.919 15.0884 105.578C15.4885 105.196 15.8402 104.741 16.301 104.468C19.169 102.758 21.2851 100.175 23.8014 98.059C26.0145 96.1976 27.8154 94.0269 29.0584 91.3651C30.4105 88.4789 31.7687 85.5928 33.6665 82.9916C35.2248 80.8573 36.868 78.82 38.7415 76.9403C40.1301 75.5518 41.2397 73.8844 42.4523 72.3201C43.1254 71.453 43.6347 70.4404 44.3987 69.6704C47.9942 66.0323 50.844 61.8911 53.0511 57.289C53.1905 56.9919 53.3361 56.6887 53.524 56.4158C55.6765 53.3357 57.2894 49.9705 58.7749 46.5326C59.2478 45.4351 59.9694 44.4286 60.6606 43.4463C62.1825 41.2877 63.7166 39.1353 64.8989 36.7645C65.8509 34.8424 67.3364 33.3751 68.9856 32.0775C71.1442 30.3798 73.2906 28.6759 75.6796 27.2753C80.4757 24.4619 84.5867 20.8178 87.7699 16.2339C89.2736 14.0693 91.1715 12.5716 93.6089 11.6015C95.3552 10.9042 96.9256 9.86738 98.0595 8.29697C98.781 7.29045 99.7996 6.62348 100.818 5.96864C101.643 5.43506 102.589 5.05307 103.044 4.07687C103.086 3.97985 103.165 3.88284 103.256 3.82827C106.415 1.99107 109.677 0.311516 113.479 1.02093C115.48 1.39686 117.353 1.72428 119.227 0.638938C119.906 0.244819 120.694 0.250882 121.476 0.329706C125.302 0.705635 129.134 1.09975 132.954 1.49994C136.853 1.90618 140.285 3.80402 142.734 7.05398C143.868 8.55769 145.002 10.0008 146.657 10.9952C147.712 11.6318 148.373 12.6868 148.931 13.7783C149.598 15.0698 150.502 16.1733 151.605 17.101C152.539 17.8832 153.545 18.5259 154.788 18.7442C157.086 19.1504 159.142 20.2539 161.294 21.0664C162.725 21.6 163.72 22.5459 164.247 23.9768C164.944 25.8686 166.212 27.3784 167.358 28.9973C169.45 31.9623 171.651 34.8363 173.942 37.6497C174.725 38.6138 175.022 39.8022 175.289 40.9906C175.792 43.2401 176.192 45.4957 176.871 47.7149C177.441 49.5824 177.556 51.6076 177.314 53.8025L177.302 53.7904Z" fill="#AEAEAE"/>
<path d="M58.7752 46.5325C58.7388 46.6174 58.7024 46.6962 58.666 46.7811H176.605C176.168 45.1864 175.835 43.5736 175.489 41.9668H61.7038C61.3581 42.464 61.0125 42.9551 60.6609 43.4463C59.9636 44.4285 59.2481 45.435 58.7752 46.5325Z" fill="#F24BE1"/>
<path d="M65.4922 35.7274H172.401C171.152 34.1449 169.928 32.5441 168.739 30.9131H70.4642C69.967 31.2951 69.4758 31.6831 68.9847 32.0712C67.6447 33.1262 66.4199 34.2964 65.4922 35.7274Z" fill="#F24BE1"/>
<path d="M177.087 68.8829C177.087 68.8222 177.087 68.7677 177.087 68.707C177.051 67.1609 177.202 65.6147 177.287 64.0625H49.0836C47.8951 65.7481 46.5794 67.3549 45.1484 68.8768H177.093L177.087 68.8829Z" fill="#F24BE1"/>
<path d="M79.5664 24.6795H164.538C164.429 24.4491 164.332 24.2127 164.241 23.9641C163.714 22.5331 162.719 21.5872 161.288 21.0537C160.306 20.6838 159.348 20.2594 158.378 19.8652H84.8658C83.2529 21.6418 81.4824 23.2425 79.5664 24.6795Z" fill="#F24BE1"/>
<path d="M36.0371 79.9356H177.641C177.835 78.7169 177.877 77.4618 177.599 76.2612C177.508 75.8792 177.441 75.4972 177.38 75.1152H40.33C39.8328 75.7519 39.3174 76.3704 38.7474 76.9342C37.7894 77.8923 36.892 78.8927 36.0371 79.9295V79.9356Z" fill="#F24BE1"/>
<path d="M104.23 163.525C105.007 163.701 105.795 163.835 106.577 163.974C107.887 164.204 109.093 164.083 110.148 163.525H104.23Z" fill="#F24BE1"/>
<path d="M119.219 0.633078C117.351 1.71842 115.478 1.38494 113.471 1.01507C110.566 0.475431 107.983 1.3243 105.516 2.57942H137.118C135.808 2.00946 134.408 1.64566 132.946 1.49408C129.126 1.09389 125.294 0.705839 121.468 0.323847C120.68 0.245023 119.898 0.23896 119.219 0.633078Z" fill="#F24BE1"/>
<path d="M93.6085 11.5956C92.3109 12.111 91.1649 12.784 90.1523 13.6268H148.846C148.3 12.59 147.657 11.5956 146.645 10.9892C145.662 10.395 144.862 9.64318 144.134 8.8125H97.6467C96.5553 10.0979 95.1486 10.9832 93.6085 11.5956Z" fill="#F24BE1"/>
<path d="M53.0502 57.2893C52.9653 57.4712 52.8683 57.6471 52.7773 57.829H177.216C177.458 56.4223 177.561 55.0277 177.301 53.7908C177.331 53.53 177.355 53.2693 177.373 53.0146H55.6393C54.9905 54.1788 54.2932 55.3187 53.5231 56.4162C53.3352 56.683 53.1957 56.9922 53.0502 57.2893Z" fill="#F24BE1"/>
<path d="M12.0849 157.019C12.2001 157.11 12.3214 157.201 12.4426 157.292H120.28C123.742 155.679 127.21 154.078 130.678 152.478H6.13672C6.64604 152.987 7.22812 153.442 7.85871 153.866C9.31999 154.842 10.6964 155.946 12.0849 157.025V157.019Z" fill="#F24BE1"/>
<path d="M1.97847 146.239H147.887C147.93 146.178 147.978 146.118 148.015 146.051C148.967 144.511 149.912 142.971 150.846 141.425H0.238281C0.286788 141.989 0.395929 142.565 0.55964 143.135C0.874935 144.256 1.36 145.275 1.97847 146.239Z" fill="#F24BE1"/>
<path d="M2.35954 132.269C2.2019 133.245 2.04425 134.221 1.83203 135.185H154.453C155.314 133.597 156.151 131.99 156.957 130.371H2.50506C2.55357 130.99 2.45656 131.644 2.35348 132.269H2.35954Z" fill="#F24BE1"/>
<path d="M44.8346 164.78C50.0855 165.229 55.3182 165.981 60.6176 165.787C62.5942 165.714 64.577 165.799 66.5597 165.769C67.7663 165.75 68.9911 165.757 70.1795 165.575C74.5391 164.908 78.8986 164.41 83.3188 164.507C85.6957 164.556 88.115 164.398 90.3099 163.531H30.998C34.7028 164.113 38.4439 164.41 42.2032 164.562C43.0823 164.598 43.9555 164.714 44.8346 164.786V164.78Z" fill="#F24BE1"/>
<path d="M166.762 113.084C166.774 112.769 166.78 112.453 166.762 112.126C166.695 110.786 166.902 109.434 167.514 108.27H12.6435C11.4369 109.791 10.394 111.41 9.42383 113.084H166.762Z" fill="#F24BE1"/>
<path d="M19.5078 102.037H172.705C172.735 101.952 172.765 101.867 172.79 101.776C173.257 100.266 173.669 98.7446 174.057 97.2227H24.7405C24.4373 97.5076 24.1281 97.7865 23.8067 98.0533C22.3152 99.3145 20.963 100.733 19.5078 102.037Z" fill="#F24BE1"/>
<path d="M175.495 90.9833C175.828 89.3825 176.143 87.7757 176.453 86.1689H31.6535C30.7743 87.7333 30.0042 89.3583 29.2402 90.9833H175.495Z" fill="#F24BE1"/>
<path d="M4.99314 121.646C4.62934 122.47 4.30191 123.319 3.91992 124.138H160.852C162.265 122.907 163.296 121.354 164.284 119.814C164.387 119.651 164.484 119.487 164.587 119.323H6.10273C5.80563 119.893 5.50852 120.463 5.20536 121.027C5.10228 121.215 5.07802 121.451 4.99314 121.652V121.646Z" fill="#F24BE1"/>
<path d="M177.427 56.1127C177.458 55.6458 177.464 55.185 177.427 54.7363H54.62C54.329 55.2032 54.0319 55.658 53.7227 56.1127H177.427Z" fill="#5EE0FB"/>
<path d="M66.8457 34.0121H171.069C170.717 33.5574 170.366 33.0966 170.02 32.6357H68.3009C67.7916 33.0662 67.3005 33.5271 66.8457 34.0121Z" fill="#5EE0FB"/>
<path d="M37.5352 78.2143H177.793C177.793 77.7535 177.775 77.2926 177.708 76.8379H38.8388C38.8085 76.8682 38.7781 76.9046 38.7478 76.941C38.3295 77.3593 37.9293 77.7838 37.5352 78.2143Z" fill="#5EE0FB"/>
<path d="M177.385 50.5834C177.355 50.1165 177.294 49.6557 177.221 49.207H57.573C57.3547 49.6678 57.1365 50.1287 56.9121 50.5834H177.385Z" fill="#5EE0FB"/>
<path d="M42.1799 72.6899H177.156C177.138 72.229 177.126 71.7743 177.12 71.3135H43.1561C42.9318 71.6591 42.7013 71.9986 42.4527 72.32C42.3618 72.4413 42.2708 72.5686 42.1738 72.6899H42.1799Z" fill="#5EE0FB"/>
<path d="M177.106 67.1606C177.125 66.6998 177.149 66.245 177.179 65.7842H47.8051C47.4413 66.2511 47.0714 66.7058 46.6895 67.1606H177.112H177.106Z" fill="#5EE0FB"/>
<path d="M177.325 61.6371C177.307 61.1763 177.271 60.7216 177.21 60.2607H51.4922C51.2315 60.7276 50.9586 61.1824 50.6797 61.6371H177.325Z" fill="#5EE0FB"/>
<path d="M176.167 45.059C176.064 44.5982 175.955 44.1434 175.858 43.6826H60.4902C60.1749 44.1313 59.8596 44.5921 59.5625 45.059H176.167Z" fill="#5EE0FB"/>
<path d="M112.084 0.857587C111.829 0.845461 111.581 0.851524 111.332 0.857587H112.084Z" fill="#5EE0FB"/>
<path d="M100.18 6.38127H142.193C141.775 5.88407 141.332 5.42932 140.865 5.00488H102.29C101.841 5.37475 101.308 5.64154 100.81 5.96289C100.598 6.10235 100.386 6.24181 100.174 6.38127H100.18Z" fill="#5EE0FB"/>
<path d="M119.22 0.633078C119.069 0.724029 118.917 0.784663 118.766 0.857423H126.703C124.956 0.681585 123.216 0.499684 121.47 0.323847C120.682 0.245023 119.899 0.23896 119.22 0.633078Z" fill="#5EE0FB"/>
<path d="M92.8984 11.9047H147.723C147.414 11.547 147.063 11.2317 146.65 10.9831C146.414 10.8436 146.189 10.686 145.971 10.5283H95.6755C95.0267 10.9528 94.3355 11.3044 93.6079 11.5955C93.3653 11.6925 93.1288 11.7956 92.8984 11.9047Z" fill="#5EE0FB"/>
<path d="M163.743 22.9584C163.379 22.4006 162.912 21.9458 162.348 21.582H83.1912C82.7001 22.055 82.2029 22.5158 81.6875 22.9584H163.737H163.743Z" fill="#5EE0FB"/>
<path d="M73.7695 28.4819H166.988C166.654 28.021 166.321 27.5663 165.993 27.1055H75.9402C75.8493 27.16 75.7644 27.2146 75.6795 27.2692C75.0246 27.6512 74.3941 28.0635 73.7756 28.4819H73.7695Z" fill="#5EE0FB"/>
<path d="M86.8848 17.4348H152.03C151.884 17.3256 151.745 17.2104 151.599 17.0952C151.217 16.7739 150.871 16.4222 150.538 16.0645H87.9034C87.861 16.1251 87.8125 16.1797 87.7761 16.2403C87.4911 16.6526 87.1879 17.0467 86.8848 17.4408V17.4348Z" fill="#5EE0FB"/>
<path d="M174.905 39.5356C174.753 39.0566 174.559 38.5897 174.292 38.1592H64.1391C63.8723 38.6261 63.5994 39.0808 63.3145 39.5356H174.911H174.905Z" fill="#5EE0FB"/>
<path d="M158.134 127.946C158.182 127.837 158.237 127.734 158.285 127.63C158.455 127.273 158.631 126.921 158.825 126.569H2.76615C2.60243 127.018 2.4751 127.473 2.40234 127.946H158.134Z" fill="#5EE0FB"/>
<path d="M0.505859 138.993H152.308C152.363 138.902 152.417 138.811 152.472 138.726C152.684 138.362 152.89 137.986 153.103 137.616H1.09401C0.996992 137.847 0.899978 138.077 0.784774 138.301C0.66957 138.532 0.584683 138.762 0.505859 138.993Z" fill="#5EE0FB"/>
<path d="M136.142 150.047C136.184 150.011 136.233 149.981 136.275 149.944C137.251 149.144 138.343 148.816 139.646 148.962C140.889 149.101 142.108 148.95 143.308 148.671H3.69336C3.99046 149.114 4.26332 149.574 4.49372 150.047H136.148H136.142Z" fill="#5EE0FB"/>
<path d="M2.16231 133.469H155.378C155.62 133.014 155.85 132.554 156.087 132.093H2.38666C2.37453 132.153 2.36847 132.214 2.35634 132.269C2.28964 132.669 2.22901 133.069 2.15625 133.469H2.16231Z" fill="#5EE0FB"/>
<path d="M33.1445 83.7377H176.919C177.004 83.2769 177.095 82.8221 177.186 82.3613H34.1389C33.9813 82.5675 33.8236 82.7736 33.672 82.9859C33.4901 83.2345 33.3204 83.4831 33.1506 83.7377H33.1445Z" fill="#5EE0FB"/>
<path d="M60.6176 165.788C62.5942 165.715 64.577 165.8 66.5597 165.769C67.7663 165.751 68.9911 165.757 70.1795 165.575C70.9374 165.46 71.6893 165.351 72.4472 165.248H49.6914C53.3234 165.606 56.9553 165.927 60.6176 165.794V165.788Z" fill="#5EE0FB"/>
<path d="M112.921 161.094C113.569 160.555 114.279 160.094 115.043 159.73C115.055 159.73 115.061 159.718 115.073 159.718H16.0098C16.8829 160.233 17.7803 160.694 18.7019 161.094H112.921Z" fill="#5EE0FB"/>
<path d="M123.972 155.57C124.967 155.109 125.961 154.654 126.949 154.193H8.33789C8.97454 154.636 9.59907 155.097 10.2175 155.57H123.978H123.972Z" fill="#5EE0FB"/>
<path d="M148.96 144.516C149.244 144.055 149.523 143.6 149.808 143.14H0.558594C0.691988 143.619 0.867825 144.073 1.06185 144.516H148.96Z" fill="#5EE0FB"/>
<path d="M174.65 94.7904C174.76 94.3296 174.863 93.8749 174.966 93.4141H27.9291C27.626 93.887 27.2985 94.3478 26.959 94.7904H174.65Z" fill="#5EE0FB"/>
<path d="M173.215 100.315C173.348 99.854 173.482 99.3993 173.609 98.9385H22.8011C22.31 99.3872 21.8249 99.854 21.3398 100.315H173.209H173.215Z" fill="#5EE0FB"/>
<path d="M175.846 89.267C175.937 88.8062 176.028 88.3514 176.119 87.8906H30.7379C30.5075 88.3454 30.2771 88.8062 30.0527 89.267H175.84H175.846Z" fill="#5EE0FB"/>
<path d="M15.093 105.577C15.002 105.662 14.9171 105.753 14.8262 105.844H169.988C170.618 105.462 171.115 105.001 171.516 104.468H16.3056C15.8448 104.741 15.4931 105.201 15.093 105.577Z" fill="#5EE0FB"/>
<path d="M165.866 116.891C166.054 116.442 166.223 115.988 166.357 115.515H8.08482C7.84229 115.969 7.59975 116.43 7.36328 116.891H165.866Z" fill="#5EE0FB"/>
<path d="M4.66406 122.415H162.469C162.821 121.973 163.154 121.512 163.476 121.039H5.19764C5.10062 121.227 5.07637 121.451 4.99148 121.645C4.88234 121.9 4.7732 122.161 4.66406 122.415Z" fill="#5EE0FB"/>
<path d="M166.762 111.369C166.774 110.902 166.823 110.441 166.92 109.992H11.3702C11.0549 110.441 10.7578 110.902 10.4668 111.369H166.768H166.762Z" fill="#5EE0FB"/>
</svg>
