<svg width="165" height="107" viewBox="0 0 165 107" fill="none" xmlns="http://www.w3.org/2000/svg">
<path d="M86.2712 0.00658782C91.7983 -0.0623158 97.2958 0.420009 102.793 0.951551C104.856 1.14842 106.923 1.08936 108.985 1.38466C111.205 1.69965 113.429 1.91128 115.624 2.40837C116.54 2.61508 117.514 2.62 118.459 2.59539C122.416 2.48712 125.92 3.70769 129.08 6.05042C131.506 7.85175 133.953 9.62356 136.399 11.3954C137.663 12.3157 138.899 13.305 139.77 14.5895C141.315 16.8683 143.466 18.4531 145.671 19.9492C148.595 21.9327 151.282 24.2705 154.437 25.9193C156.612 28.006 159.024 29.8566 160.83 32.3125C161.75 33.5626 162.641 34.8423 163.458 36.1613C164.782 38.3022 165.294 40.5859 164.62 43.0959C163.817 46.0982 163.143 49.1299 162.346 52.1321C162.06 53.21 161.642 54.2682 161.155 55.2722C159.245 59.2391 157.178 63.1223 154.973 66.9415C153.895 68.8068 152.458 70.2193 150.583 71.2037C149.284 71.8829 147.999 72.626 146.631 73.133C144.244 74.0189 142.142 75.3526 140.193 76.9227C138.087 78.6157 135.882 80.0529 133.254 80.8206C131.221 81.4162 129.562 82.7155 128.115 84.2166C125.536 86.8891 122.46 88.7249 118.971 89.9061C116.579 90.7132 114.345 91.8009 112.356 93.3759C111.825 93.7991 111.205 94.1535 110.57 94.4045C107.996 95.4331 105.604 96.821 103.118 98.0219C102.099 98.519 101.223 99.213 100.333 99.902C95.7307 103.446 90.6073 105.803 84.8194 106.586C81.3742 107.053 77.9438 107.058 74.5429 106.153C71.5308 105.35 68.6073 104.302 65.8315 102.885C62.6029 101.236 59.3939 99.5477 56.1899 97.8546C54.7971 97.1163 53.3747 96.5602 51.7703 96.5454C49.9197 96.5257 48.1922 95.9942 46.5828 95.1034C43.9546 93.6515 41.1296 93.0658 38.1569 92.8542C34.7166 92.6032 31.2764 92.2636 27.8656 91.7665C25.2227 91.3826 22.6044 90.7674 20.3994 89.0645C19.4299 88.3164 18.2388 87.9817 17.0773 87.6519C14.7198 86.9777 12.9628 85.5307 11.5847 83.562C10.9892 82.7155 10.4429 81.8296 9.80305 81.0175C8.2921 79.0981 7.67689 76.8685 7.67689 74.4963C7.67689 73.4233 7.56861 72.4636 7.06167 71.5187C6.78114 70.992 6.62364 70.3965 6.46123 69.8158C5.48181 66.3263 4.51716 62.8368 3.54759 59.3424C3.40978 58.8453 3.24737 58.3482 3.14401 57.8413C2.28272 53.6185 1.48048 49.3809 0.569973 45.163C-0.207653 41.5653 -0.0403156 37.938 0.215612 34.3353C0.387871 31.9237 0.525678 29.517 0.510913 27.1005C0.510913 26.6673 0.5306 26.2392 0.535521 25.8061C0.569973 23.9506 1.32299 22.4052 2.83887 21.3864C5.5015 19.5949 7.69165 17.2472 10.2362 15.3278C10.374 15.2244 10.5167 15.1162 10.6201 14.9784C13.4008 11.3461 17.4858 10.224 21.6545 9.44638C24.1153 8.98866 26.5712 8.5211 28.9878 7.89605C30.8285 7.41864 32.6938 7.10366 34.5591 6.75422C40.2437 5.68621 46.0562 5.50903 51.7112 4.26877C52.8087 4.0276 53.9013 3.77168 54.9989 3.55512C55.8454 3.39271 56.7018 3.17123 57.5532 3.186C60.2602 3.22537 62.8736 2.67906 65.4821 2.07862C67.7559 1.55692 70.0297 1.10904 72.3773 1.03522C73.7456 0.990925 75.1236 0.730075 76.4673 0.434774C78.1702 0.0558047 79.8878 0.00166614 81.6153 0.0164312C83.1657 0.0262746 84.7209 0.0164312 86.2712 0.0164312V0.00658782Z" fill="#B0745A"/>
<path d="M118.52 2.60023C121.492 5.80917 125.646 7.32013 130.022 6.74921C129.707 6.51789 129.392 6.28658 129.077 6.05526C129.067 6.04541 129.052 6.04049 129.042 6.03065C125.523 6.25212 122.206 5.03647 119.671 2.615C119.292 2.60023 118.908 2.59531 118.52 2.60023Z" fill="#E2BC87"/>
<path d="M116.412 5.50359L113.863 2.07318C113.484 2.00919 113.1 1.95506 112.721 1.896L115.762 5.98592C118.956 10.2825 124.001 12.2168 129.253 11.1635L134.593 10.0906C134.297 9.87405 133.997 9.65749 133.702 9.44094L129.095 10.3662C124.159 11.3555 119.424 9.53937 116.417 5.49867L116.412 5.50359Z" fill="#E2BC87"/>
<path d="M128.373 13.4574L136.848 11.7545C136.848 11.7545 136.858 11.7545 136.863 11.7545C136.705 11.6364 136.548 11.5232 136.39 11.405C136.252 11.3066 136.115 11.2032 135.972 11.1048L128.21 12.665C123.274 13.6592 118.534 11.8381 115.532 7.79744L110.97 1.66502C110.596 1.61581 110.222 1.56659 109.848 1.51245L114.883 8.27977C118.082 12.5764 123.121 14.5106 128.373 13.4574Z" fill="#E2BC87"/>
<path d="M157.469 55.4096C152.532 56.3989 147.793 54.5828 144.791 50.5421L139.628 43.6074C136.434 39.3108 131.389 37.3717 126.137 38.4298L117.662 40.1327C112.726 41.1269 107.986 39.3059 104.984 35.2652L99.826 28.3305C96.6269 24.0339 91.5871 22.0948 86.3357 23.1529L77.8606 24.8558C72.9241 25.85 68.1845 24.029 65.1823 19.9883L60.0194 13.0536C56.8253 8.75699 51.7806 6.82277 46.5291 7.87601L38.054 9.57891C34.7318 10.2483 31.4983 9.63305 28.8209 7.93015C28.4665 8.01874 28.1122 8.10241 27.7578 8.191C30.7207 10.327 34.4119 11.1391 38.2164 10.3762L46.6915 8.67332C51.628 7.68406 56.3626 9.50016 59.3698 13.5409L64.5326 20.4755C67.7268 24.7721 72.7715 26.7113 78.023 25.6531L86.4981 23.9502C91.4346 22.956 96.1741 24.7771 99.1764 28.8178L104.334 35.7524C107.528 40.0491 112.573 41.9882 117.825 40.93L126.3 39.2271C131.236 38.233 135.976 40.054 138.978 44.0947L144.141 51.0293C147.335 55.326 152.38 57.2651 157.631 56.2069L161.027 55.5228C161.067 55.4392 161.111 55.3604 161.15 55.2767C161.254 55.0553 161.357 54.8338 161.455 54.6123L157.469 55.4146V55.4096Z" fill="#E2BC87"/>
<path d="M85.9333 5.04614L94.4084 3.34323C99.3449 2.35397 104.084 4.17008 107.087 8.21078L112.245 15.1454C115.444 19.4421 120.483 21.3812 125.735 20.323L134.21 18.6201C139.147 17.6309 143.886 19.447 146.888 23.4877L152.051 30.4223C154.778 34.089 158.858 36.0331 163.258 35.8657C163.09 35.595 162.908 35.3342 162.736 35.0684C158.794 35.0684 155.167 33.2474 152.706 29.94L147.543 23.0054C144.349 18.7087 139.304 16.7745 134.053 17.8277L125.577 19.5307C120.646 20.5199 115.901 18.7038 112.899 14.6631L107.741 7.72845C104.542 3.43182 99.5023 1.49268 94.2509 2.55084L85.7758 4.25374C81.4791 5.11996 77.3351 3.85017 74.3525 0.843018C74.0228 0.892234 73.693 0.93653 73.3633 0.970981C76.5624 4.48999 81.1642 6.01079 85.9382 5.05106L85.9333 5.04614Z" fill="#E2BC87"/>
<path d="M105.934 91.0922L97.4589 92.7951C92.5224 93.7843 87.7878 91.9682 84.7806 87.9275L79.6227 80.9929C76.4285 76.6962 71.3838 74.7571 66.1324 75.8153L57.6572 77.5182C52.7257 78.5074 47.9812 76.6913 44.979 72.6506L39.821 65.716C36.6269 61.4193 31.5821 59.4802 26.3307 60.5384L17.8556 62.2413C12.9191 63.2305 8.18446 61.4144 5.17731 57.3737L2.26367 53.4561C2.38671 54.0762 2.50976 54.6963 2.63772 55.3165L4.52765 57.861C7.72182 62.1576 12.7665 64.0967 18.018 63.0386L26.4931 61.3357C31.4296 60.3415 36.1692 62.1625 39.1714 66.2032L44.3293 73.1379C47.5284 77.4345 52.5731 79.3736 57.8196 78.3155L66.2948 76.6126C71.2312 75.6233 75.9659 77.4394 78.973 81.4801L84.131 88.4148C87.3301 92.7114 92.3699 94.6505 97.6213 93.5924L106.096 91.8895C108.685 91.3678 111.215 91.6286 113.474 92.5687C113.75 92.3817 114.025 92.2045 114.306 92.0371C111.776 90.851 108.892 90.4966 105.939 91.0922H105.934Z" fill="#E2BC87"/>
<path d="M3.8299 60.3807C7.03392 64.51 11.9851 66.3605 17.1332 65.327L25.6083 63.6241C30.5448 62.6348 35.2795 64.4509 38.2866 68.4916L43.4445 75.4263C46.6387 79.7229 51.6834 81.6571 56.9349 80.6039L65.41 78.901C70.3465 77.9117 75.086 79.7278 78.0883 83.7685L83.2462 90.7032C86.4453 94.9998 91.4851 96.9389 96.7365 95.8808L105.212 94.1779C107.151 93.7891 109.06 93.8383 110.847 94.2812C111.201 94.1237 111.541 93.9367 111.866 93.7202C109.735 93.041 107.417 92.9032 105.049 93.3806L96.5741 95.0835C91.6377 96.0727 86.8981 94.2566 83.8959 90.2159L78.7379 83.2813C75.5438 78.9846 70.499 77.0455 65.2476 78.1037L56.7725 79.8066C51.836 80.8007 47.1013 78.9797 44.0942 74.939L38.9363 68.0044C35.7421 63.7077 30.6974 61.7686 25.4459 62.8268L16.9708 64.5297C12.0393 65.5238 7.29476 63.7028 4.29254 59.6621L3.23438 58.2397C3.32789 58.6089 3.43616 58.9731 3.5346 59.3373C3.63303 59.6818 3.72654 60.0312 3.82498 60.3758L3.8299 60.3807Z" fill="#E2BC87"/>
<path d="M150.068 36.8105L144.905 29.8759C141.711 25.5792 136.666 23.645 131.414 24.6983L122.939 26.4012C118.003 27.3953 113.263 25.5743 110.261 21.5336L105.103 14.599C101.904 10.3023 96.8592 8.36811 91.6127 9.42135L83.1375 11.1243C78.206 12.1184 73.4664 10.2974 70.4593 6.25671L67.0879 1.72876C66.7976 1.78782 66.5072 1.8518 66.2168 1.91578L69.8096 6.74396C73.0038 11.0406 78.0485 12.9797 83.3 11.9216L91.7751 10.2187C96.7116 9.22941 101.446 11.0455 104.453 15.0862L109.611 22.0209C112.81 26.3175 117.85 28.2517 123.102 27.1985L131.577 25.4956C136.513 24.5014 141.253 26.3224 144.255 30.3631L149.418 37.2978C152.612 41.5944 157.657 43.5335 162.908 42.4754L164.823 42.0915C164.862 41.806 164.892 41.5255 164.906 41.245L162.751 41.6781C157.814 42.6723 153.075 40.8512 150.072 36.8105H150.068Z" fill="#E2BC87"/>
<path d="M86.8141 2.75771L95.2893 1.0548C100.226 0.065545 104.965 1.88165 107.968 5.92235L113.125 12.857C116.32 17.1536 121.364 19.0928 126.616 18.0346L135.091 16.3317C137.311 15.8838 139.486 16.0118 141.484 16.6467C141.135 16.2973 140.795 15.9281 140.475 15.5393C138.703 15.1653 136.833 15.1505 134.929 15.5344L126.453 17.2373C121.522 18.2315 116.777 16.4105 113.775 12.3698L108.617 5.4351C107.091 3.38276 105.142 1.87672 102.952 0.971135C102.898 0.966213 102.839 0.961291 102.785 0.95637C100.181 0.705364 97.5729 0.464201 94.9595 0.291942L86.6468 1.96039C83.2902 2.63466 80.0271 2.00469 77.3399 0.267334C77.0446 0.316551 76.7493 0.365768 76.4589 0.434671C76.3802 0.449436 76.3014 0.469123 76.2227 0.483888C79.2052 2.6888 82.9506 3.53533 86.8043 2.75771H86.8141Z" fill="#E2BC87"/>
<path d="M161.629 33.449C161.402 33.1291 161.181 32.8091 160.949 32.4942C158.06 31.8593 155.477 30.2007 153.582 27.6512L150.407 23.3841C149.664 22.8526 148.926 22.3063 148.188 21.7649L152.927 28.1385C155.127 31.0964 158.208 32.9371 161.629 33.449Z" fill="#E2BC87"/>
<path d="M154.433 25.9239C154.109 25.7517 153.789 25.5696 153.469 25.3875L153.808 25.8452C155.186 27.7006 156.909 29.1082 158.843 30.0335C157.431 28.6062 155.88 27.3167 154.433 25.9239Z" fill="#E2BC87"/>
<path d="M104.172 95.6691L95.6965 97.372C90.7649 98.3662 86.0253 96.5451 83.0182 92.5044L77.8603 85.5698C74.6612 81.2731 69.6214 79.3389 64.3699 80.3922L55.8948 82.0951C50.9584 83.0843 46.2188 81.2682 43.2165 77.2275L38.0537 70.2929C34.8595 65.9962 29.8148 64.062 24.5634 65.1153L16.0882 66.8182C11.7965 67.6795 7.65246 66.4146 4.66992 63.4124C4.80773 63.8996 4.94061 64.3869 5.07842 64.879C8.14955 67.4235 12.1361 68.4423 16.2506 67.6155L24.7258 65.9126C29.6622 64.9233 34.4018 66.7394 37.404 70.7801L42.5669 77.7148C45.7611 82.0114 50.8058 83.9456 56.0572 82.8924L64.5324 81.1895C69.4688 80.2002 74.2084 82.0163 77.2106 86.057L82.3685 92.9917C85.5676 97.2883 90.6074 99.2275 95.8589 98.1693L104.334 96.4664C105.126 96.3089 105.914 96.2301 106.687 96.2105C107.194 95.9496 107.705 95.6986 108.222 95.4476C106.908 95.3246 105.55 95.3935 104.177 95.6691H104.172Z" fill="#E2BC87"/>
<path d="M87.6901 0.469085L89.7966 0.0458206C88.6203 0.0162905 87.444 0.0015254 86.2678 0.0162904C84.7174 0.0162904 83.1622 0.0261338 81.6118 0.0162904C81.2624 0.0162904 80.908 0.0162904 80.5586 0.0162904C82.7734 0.788995 85.2096 0.966175 87.6901 0.469085Z" fill="#E2BC87"/>
<path d="M108.844 3.63373L114.002 10.5684C117.201 14.865 122.241 16.7992 127.492 15.746L135.967 14.0431C137.04 13.8265 138.103 13.7527 139.137 13.797C138.886 13.5116 138.62 13.2359 138.34 12.9751C137.503 12.9899 136.661 13.0784 135.805 13.2458L127.33 14.9487C122.398 15.9379 117.659 14.1218 114.652 10.0811L109.494 3.14649C108.977 2.45253 108.411 1.82747 107.806 1.26148C107.358 1.22211 106.91 1.19258 106.457 1.16797C107.333 1.86193 108.135 2.68385 108.839 3.62881L108.844 3.63373Z" fill="#E2BC87"/>
<path d="M19.4558 79.6492C24.3922 78.66 29.1269 80.4761 32.134 84.5168L37.292 91.4514C37.6709 91.9633 38.0844 92.4407 38.5125 92.8836C38.9555 92.9181 39.3985 92.9673 39.8365 93.0214C39.1524 92.4161 38.5175 91.732 37.9466 90.9642L32.7886 84.0295C29.5945 79.7329 24.5497 77.7938 19.2983 78.8519L10.8232 80.5548C10.4147 80.6385 10.0062 80.6926 9.59766 80.7369C9.66656 80.8304 9.72562 80.9239 9.79452 81.0175C9.91757 81.17 10.0308 81.3324 10.1489 81.4899C10.4245 81.4506 10.7001 81.4063 10.9806 81.3521L19.4558 79.6492Z" fill="#E2BC87"/>
<path d="M65.8285 102.884C66.4338 103.194 67.0441 103.48 67.6593 103.756C66.0844 102.446 64.2732 101.536 62.3242 101.073C63.4907 101.679 64.6571 102.289 65.8285 102.884Z" fill="#E2BC87"/>
<path d="M57.6973 98.6516C58.1107 98.8682 58.5241 99.0847 58.9375 99.3062C63.3424 98.8977 67.4717 100.729 70.1836 104.376L70.6019 104.937C71.0498 105.099 71.5026 105.252 71.9554 105.399L70.8332 103.893C67.708 99.695 62.8207 97.7559 57.6973 98.6566V98.6516Z" fill="#E2BC87"/>
<path d="M17.5117 87.7749C18.25 87.9915 18.9833 88.2277 19.6576 88.587C22.2611 88.8085 24.6826 89.8371 26.6759 91.5695C27.0696 91.6384 27.4683 91.7073 27.862 91.7615C27.9358 91.7713 28.0146 91.7812 28.0884 91.791C25.3027 88.8971 21.5229 87.4599 17.5117 87.77V87.7749Z" fill="#E2BC87"/>
<path d="M58.2226 96.4173L54.6445 97.1358C55.0727 97.3032 55.4911 97.4951 55.9094 97.7117L58.385 97.2146C63.3215 96.2204 68.061 98.0414 71.0633 102.082L73.9769 106C74.1639 106.054 74.3559 106.108 74.5429 106.157C74.7693 106.216 74.9957 106.266 75.2221 106.315L71.7129 101.595C68.5188 97.2983 63.474 95.364 58.2226 96.4173Z" fill="#E2BC87"/>
<path d="M14.4943 72.1927L22.9694 70.4898C27.9059 69.5005 32.6455 71.3166 35.6477 75.3573L40.8056 82.292C43.9998 86.5886 49.0445 88.5277 54.296 87.4696L62.7711 85.7667C67.7076 84.7774 72.4471 86.5935 75.4494 90.6342L80.6073 97.5689C83.8015 101.866 88.8462 103.805 94.0976 102.746L97.0654 102.151C97.6806 101.772 98.286 101.373 98.8815 100.96L93.9352 101.954C89.0037 102.948 84.2592 101.127 81.257 97.0865L76.099 90.1519C72.9048 85.8553 67.8601 83.9161 62.6087 84.9743L54.1335 86.6772C49.1971 87.6664 44.4575 85.8503 41.4553 81.8096L36.2974 74.875C33.1032 70.5784 28.0585 68.6392 22.807 69.6974L14.3319 71.4003C11.6397 71.9417 9.00663 71.6414 6.68359 70.603C6.78695 70.918 6.90015 71.228 7.05272 71.5184C7.07733 71.5676 7.09702 71.6168 7.12162 71.666C9.40036 72.5077 11.9203 72.7144 14.4894 72.1976L14.4943 72.1927Z" fill="#E2BC87"/>
<path d="M126.108 4.24401C125.124 3.76661 124.11 3.38764 123.057 3.11694C124.021 3.61896 125.045 4.00285 126.108 4.24401Z" fill="#E2BC87"/>
<path d="M30.3762 89.0936L32.8223 92.3813C33.1865 92.4207 33.5507 92.4551 33.9149 92.4896L31.0308 88.6113C27.8366 84.3147 22.7919 82.3755 17.5404 83.4337L12.2988 84.4869C12.5055 84.733 12.7221 84.9643 12.9436 85.1858L17.7028 84.231C22.6393 83.2418 27.3789 85.0579 30.3811 89.0986L30.3762 89.0936Z" fill="#E2BC87"/>
<path d="M82.1433 94.7982L76.9854 87.8636C73.7912 83.5669 68.7465 81.6278 63.495 82.6859L55.0199 84.3889C50.0834 85.383 45.3488 83.562 42.3416 79.5213L37.1837 72.5867C33.9895 68.29 28.9448 66.3509 23.6934 67.409L15.2182 69.1119C11.8026 69.801 8.48044 69.1365 5.76367 67.3254C5.87195 67.7093 5.9753 68.0932 6.08358 68.4771C8.82496 70.0421 12.0585 70.5737 15.3757 69.9043L23.8509 68.2014C28.7873 67.2122 33.5269 69.0283 36.5291 73.069L41.687 80.0036C44.8812 84.3003 49.9259 86.2345 55.1774 85.1812L63.6525 83.4783C68.589 82.4842 73.3285 84.3052 76.3308 88.3459L81.4887 95.2805C84.6829 99.5772 89.7276 101.516 94.979 100.458L101.259 99.1982C101.845 98.7602 102.445 98.3517 103.115 98.0268C103.149 98.0121 103.183 97.9924 103.218 97.9776L94.8265 99.6658C89.89 100.655 85.1504 98.8389 82.1482 94.7982H82.1433Z" fill="#E2BC87"/>
<path d="M11.8605 79.0633L20.3356 77.3604C25.2721 76.3662 30.0117 78.1872 33.0139 82.2279L38.1767 89.1626C41.3758 93.4592 46.4156 95.3934 51.6671 94.3402L60.1422 92.6373C65.0787 91.648 69.8182 93.4641 72.8205 97.5048L77.9784 104.439C78.6724 105.375 79.4598 106.187 80.3113 106.89C80.7493 106.89 81.1873 106.89 81.6254 106.871C80.5081 106.088 79.4992 105.119 78.633 103.957L73.4751 97.0225C70.2809 92.7259 65.2362 90.7916 59.9847 91.8449L51.5096 93.5478C46.5731 94.537 41.8385 92.7209 38.8313 88.6802L33.6685 81.7456C30.4743 77.449 25.4296 75.5098 20.1781 76.568L11.703 78.2709C10.5809 78.4973 9.46855 78.5711 8.38086 78.512C8.48914 78.7926 8.60726 79.0682 8.74506 79.3438C9.76877 79.3684 10.8122 79.2798 11.8654 79.0682L11.8605 79.0633Z" fill="#E2BC87"/>
<path d="M18.4174 81.1402L10.9512 82.6413C11.1136 82.8874 11.2809 83.1286 11.4483 83.3697L18.5798 81.9375C23.5162 80.9433 28.2558 82.7644 31.258 86.8051L35.6039 92.652C35.9632 92.6816 36.3225 92.7111 36.6817 92.7357L31.9077 86.3227C28.7135 82.0261 23.6688 80.087 18.4174 81.1451V81.1402Z" fill="#E2BC87"/>
<path d="M12.7365 76.7749L21.2117 75.072C26.1481 74.0828 30.8877 75.8989 33.8899 79.9396L39.0478 86.8742C42.242 91.1709 47.2867 93.11 52.5382 92.0519L61.0133 90.349C65.9498 89.3597 70.6894 91.1758 73.6916 95.2165L78.8495 102.151C80.3802 104.208 82.3341 105.719 84.534 106.625C84.6276 106.615 84.7211 106.605 84.8097 106.591C85.2969 106.527 85.7792 106.443 86.2616 106.354C83.6186 105.631 81.2611 104.031 79.4992 101.669L74.3412 94.7342C71.1471 90.4375 66.1023 88.4984 60.8509 89.5566L52.3758 91.2595C47.4442 92.2536 42.7047 90.4326 39.6975 86.3919L34.5396 79.4573C31.3405 75.1606 26.3007 73.2215 21.0493 74.2797L12.5741 75.9826C10.9303 76.3123 9.31103 76.3222 7.76562 76.0515C7.80008 76.3418 7.84929 76.6273 7.90835 76.9078C9.46361 77.1441 11.0927 77.1096 12.7365 76.7799V76.7749Z" fill="#E2BC87"/>
<path d="M13.6186 74.4812L22.0937 72.7783C27.0302 71.789 31.7698 73.6051 34.772 77.6458L39.9348 84.5805C43.129 88.8771 48.1737 90.8113 53.4252 89.7581L61.9003 88.0552C66.8368 87.066 71.5714 88.8821 74.5786 92.9228L79.7365 99.8574C82.3351 103.347 86.1495 105.281 90.3034 105.316C91.268 104.996 92.213 104.631 93.1382 104.223L93.0644 104.238C88.128 105.227 83.3884 103.411 80.3862 99.3702L75.2282 92.4355C72.0291 88.1389 66.9893 86.1997 61.7379 87.2579L53.2628 88.9608C48.3263 89.955 43.5867 88.134 40.5845 84.0933L35.4217 77.1586C32.2275 72.862 27.1828 70.9277 21.9313 71.981L13.4562 73.6839C11.4432 74.0875 9.46962 74.0186 7.62891 73.5264C7.65351 73.802 7.66828 74.0875 7.66828 74.3778C9.55328 74.8405 11.5712 74.8897 13.6186 74.4763V74.4812Z" fill="#E2BC87"/>
<path d="M16.8218 86.5195C21.7583 85.5253 26.4979 87.3464 29.5001 91.3871L29.9972 92.0564C30.3663 92.1056 30.7404 92.1499 31.1095 92.1893L30.1498 90.8998C26.9556 86.6032 21.9109 84.669 16.6594 85.7222L14.1543 86.2242C14.4693 86.4555 14.804 86.6622 15.1485 86.8542L16.8218 86.5195Z" fill="#E2BC87"/>
<path d="M72.591 99.3061C69.3968 95.0094 64.3521 93.0752 59.1006 94.1285L50.6255 95.8314C50.025 95.9544 49.4295 96.0282 48.834 96.0676C49.6313 96.3186 50.4532 96.4712 51.3047 96.5204L59.2581 94.9208C64.1946 93.9316 68.9341 95.7477 71.9364 99.7884L77.05 106.659C77.429 106.713 77.8079 106.753 78.1869 106.787C78.0393 106.605 77.8916 106.428 77.7489 106.236L72.591 99.3011V99.3061Z" fill="#E2BC87"/>
<path d="M117.294 3.21541L116.821 2.58051C116.442 2.5559 116.063 2.51161 115.699 2.43286L116.644 3.70266C119.838 7.99929 124.883 9.93843 130.135 8.88027L132.32 8.44224C132.024 8.22568 131.729 8.00913 131.434 7.79257L129.972 8.08788C125.036 9.08206 120.296 7.26103 117.294 3.22033V3.21541Z" fill="#E2BC87"/>
<path d="M8.15113 28.0252L13.3091 34.9598C16.5082 39.2565 21.548 41.1956 26.7994 40.1375L35.2745 38.4346C40.211 37.4453 44.9456 39.2614 47.9528 43.3021L53.1107 50.2368C56.3049 54.5334 61.3496 56.4676 66.6011 55.4144L75.0762 53.7115C80.0126 52.7173 84.7522 54.5383 87.7544 58.579L92.9124 65.5137C96.1115 69.8103 101.156 71.7445 106.403 70.6913L114.878 68.9884C119.814 67.9942 124.554 69.8152 127.556 73.8559L132.719 80.7955C132.763 80.8546 132.808 80.9087 132.852 80.9628C132.985 80.9185 133.113 80.8693 133.246 80.8299C133.388 80.7856 133.531 80.7364 133.669 80.6872C133.57 80.5593 133.467 80.4411 133.369 80.3082L128.206 73.3687C125.007 69.072 119.967 67.1378 114.715 68.1911L106.24 69.894C101.304 70.8832 96.5643 69.0671 93.562 65.0264L88.4041 58.0918C85.2099 53.7951 80.1652 51.8609 74.9138 52.9142L66.4386 54.6171C61.5022 55.6112 56.7626 53.7902 53.7604 49.7495L48.6024 42.8149C45.4034 38.5182 40.3586 36.584 35.1121 37.6372L26.637 39.3401C21.7054 40.3343 16.9609 38.5133 13.9587 34.4726L8.8008 27.538C6.92563 25.018 4.41558 23.3151 1.60037 22.5474C1.42811 22.7738 1.2657 23.0149 1.13281 23.2659C3.87911 23.955 6.33011 25.5791 8.14621 28.0203L8.15113 28.0252Z" fill="#E2BC87"/>
<path d="M7.2699 30.3142L12.4278 37.2489C15.622 41.5455 20.6667 43.4846 25.9182 42.4265L34.3933 40.7236C39.3297 39.7343 44.0693 41.5504 47.0716 45.5911L52.2344 52.5258C55.4286 56.8224 60.4733 58.7615 65.7247 57.7034L74.1999 56.0005C79.1363 55.0112 83.8759 56.8273 86.8781 60.868L92.0361 67.8027C95.2352 72.0993 100.275 74.0384 105.526 72.9803L114.002 71.2774C118.938 70.2881 123.678 72.1042 126.68 76.1449L130.942 81.8738C131.173 81.731 131.41 81.5932 131.656 81.4702L127.334 75.6577C124.14 71.3611 119.095 69.4268 113.844 70.4801L105.369 72.183C100.432 73.1722 95.6978 71.3561 92.6906 67.3154L87.5327 60.3808C84.3336 56.0841 79.2938 54.1499 74.0424 55.2032L65.5672 56.9061C60.6357 57.8953 55.8912 56.0792 52.889 52.0385L47.7261 45.1039C44.532 40.8072 39.4872 38.873 34.2358 39.9263L25.7607 41.6292C20.8242 42.6184 16.0896 40.8023 13.0824 36.7616L7.92448 29.827C6.02963 27.2825 3.48512 25.5697 0.635465 24.8118C0.59117 25.0775 0.556718 25.3482 0.546875 25.6288C3.17505 26.3572 5.5227 27.9518 7.27482 30.3093L7.2699 30.3142Z" fill="#E2BC87"/>
<path d="M6.39329 32.6075L11.5512 39.5422C14.7454 43.8388 19.7901 45.778 25.0415 44.7198L33.5167 43.0169C38.4531 42.0277 43.1927 43.8438 46.1949 47.8845L51.3529 54.8191C54.552 59.1157 59.5918 61.0549 64.8432 59.9967L73.3183 58.2938C78.2548 57.2996 82.9944 59.1207 85.9966 63.1614L91.1545 70.096C94.3487 74.3926 99.3934 76.3318 104.645 75.2736L113.12 73.5707C118.056 72.5815 122.791 74.3976 125.798 78.4383L129.273 83.1139C129.48 82.9367 129.686 82.7644 129.903 82.5971L126.448 77.9559C123.254 73.6593 118.209 71.7251 112.958 72.7783L104.482 74.4812C99.546 75.4705 94.8064 73.6544 91.8042 69.6137L86.6463 62.679C83.4521 58.3824 78.4074 56.4433 73.1559 57.5014L64.6808 59.2043C59.7493 60.1985 55.0097 58.3775 52.0025 54.3368L46.8446 47.4021C43.6504 43.1055 38.6057 41.1664 33.3543 42.2245L24.8791 43.9274C19.9476 44.9216 15.2031 43.1006 12.2009 39.0599L7.04295 32.1252C5.31544 29.8022 3.04654 28.178 0.502031 27.3364C0.502031 27.6219 0.502031 27.9073 0.492188 28.1977C2.78569 29.0147 4.82327 30.506 6.39329 32.6125V32.6075Z" fill="#E2BC87"/>
<path d="M9.03203 25.7368L14.19 32.6715C17.3841 36.9681 22.4289 38.9073 27.6803 37.8491L36.1554 36.1462C41.0919 35.152 45.8315 36.973 48.8337 41.0137L53.9916 47.9484C57.1907 52.245 62.2305 54.1792 67.482 53.126L75.9571 51.4231C80.8886 50.4289 85.6282 52.2499 88.6353 56.2906L93.7933 63.2253C96.9875 67.5219 102.032 69.4611 107.284 68.4029L115.759 66.7C120.695 65.7058 125.43 67.5268 128.437 71.5675L133.595 78.5022C134.043 79.1076 134.535 79.6588 135.052 80.1657C135.318 80.0476 135.583 79.9246 135.839 79.7966C135.268 79.2601 134.732 78.6745 134.245 78.0199L129.087 71.0852C125.892 66.7886 120.848 64.8544 115.596 65.9076L107.121 67.6105C102.185 68.6047 97.4501 66.7837 94.4429 62.743L89.285 55.8083C86.0859 51.5117 81.0461 49.5775 75.7947 50.6307L67.3195 52.3336C62.3831 53.3229 57.6484 51.5068 54.6413 47.4661L49.4834 40.5314C46.2892 36.2348 41.2444 34.2956 35.993 35.3538L27.5179 37.0567C22.5814 38.046 17.8468 36.2299 14.8396 32.1892L9.68169 25.2545C8.10675 23.1382 6.07902 21.5928 3.8052 20.697C3.53943 20.8939 3.26874 21.0858 2.99805 21.2729C5.34569 22.0751 7.43741 23.591 9.03203 25.7368Z" fill="#E2BC87"/>
<path d="M11.665 18.8664L16.8229 25.801C20.022 30.0977 25.0618 32.0368 30.3132 30.9787L38.7884 29.2758C43.7248 28.2865 48.4595 30.1026 51.4666 34.1433L56.6246 41.0779C59.8237 45.3746 64.8635 47.3137 70.1149 46.2556L78.59 44.5527C83.5265 43.5634 88.2661 45.3795 91.2683 49.4202L96.4262 56.3549C99.6204 60.6515 104.665 62.5906 109.917 61.5325L118.392 59.8296C123.328 58.8403 128.063 60.6564 131.07 64.6971L136.228 71.6318C137.66 73.5561 139.466 75.008 141.494 75.9284C141.755 75.7414 142.021 75.5593 142.286 75.3821C140.195 74.5356 138.334 73.1033 136.878 71.1494L131.72 64.2148C128.521 59.9182 123.476 57.9839 118.229 59.0372L109.754 60.7401C104.818 61.7343 100.078 59.9132 97.0759 55.8725L91.918 48.9379C88.7238 44.6412 83.6791 42.7021 78.4276 43.7603L69.9525 45.4632C65.016 46.4574 60.2765 44.6363 57.2742 40.5956L52.1163 33.661C48.9221 29.3643 43.8774 27.4301 38.626 28.4834L30.1508 30.1863C25.2193 31.1755 20.4797 29.3594 17.4726 25.3187L12.3146 18.3841C11.5518 17.3554 10.6806 16.4695 9.72583 15.7214C9.50928 15.8937 9.2878 16.066 9.07617 16.2431C10.031 16.9715 10.9021 17.8476 11.6601 18.8664H11.665Z" fill="#E2BC87"/>
<path d="M9.90693 23.4482L15.0649 30.3828C18.259 34.6795 23.3038 36.6186 28.5552 35.5604L37.0303 33.8575C41.9668 32.8683 46.7064 34.6844 49.7086 38.7251L54.8714 45.6597C58.0656 49.9564 63.1103 51.8906 68.3618 50.8373L76.8369 49.1344C81.7734 48.1403 86.5129 49.9613 89.5152 54.002L94.6731 60.9366C97.8673 65.2333 102.912 67.1675 108.163 66.1143L116.639 64.4113C121.575 63.4172 126.315 65.2382 129.317 69.2789L134.48 76.2185C135.292 77.3111 136.222 78.2462 137.246 79.0238C137.497 78.8713 137.743 78.7138 137.989 78.5513C136.926 77.7885 135.961 76.8484 135.134 75.7312L129.971 68.7916C126.777 64.495 121.733 62.5608 116.481 63.614L108.006 65.3169C103.069 66.3111 98.3299 64.4901 95.3277 60.4494L90.1698 53.5147C86.9707 49.2181 81.9309 47.2839 76.6794 48.3371L68.2043 50.04C63.2678 51.0342 58.5282 49.2132 55.526 45.1725L50.3632 38.2378C47.1641 33.9412 42.1243 32.007 36.8728 33.0602L28.3977 34.7631C23.4612 35.7573 18.7266 33.9363 15.7194 29.8956L10.5615 22.9609C9.27695 21.2334 7.69217 19.8996 5.92036 18.9744C5.69889 19.1663 5.47249 19.3533 5.24609 19.5453C7.03759 20.4164 8.63221 21.7256 9.91185 23.4482H9.90693Z" fill="#E2BC87"/>
<path d="M10.7881 21.1597L15.946 28.0944C19.1402 32.391 24.1849 34.3301 29.4363 33.272L37.9115 31.5691C42.8479 30.5749 47.5875 32.3959 50.5897 36.4366L55.7476 43.3713C58.9418 47.6679 63.9865 49.6021 69.238 48.5489L77.7131 46.846C82.6496 45.8567 87.3842 47.6728 90.3914 51.7135L95.5493 58.6482C98.7435 62.9448 103.788 64.8839 109.04 63.8258L117.515 62.1229C122.451 61.1336 127.191 62.9497 130.193 66.9904L135.356 73.9251C136.488 75.4459 137.851 76.6615 139.372 77.5622C139.603 77.385 139.83 77.2078 140.061 77.0257C138.521 76.1644 137.142 74.9586 136.01 73.4378L130.848 66.5032C127.653 62.2065 122.609 60.2674 117.357 61.3256L108.882 63.0285C103.946 64.0226 99.2061 62.2016 96.2039 58.1609L91.046 51.2263C87.8469 46.9296 82.8071 44.9954 77.5556 46.0487L69.0805 47.7516C64.144 48.7408 59.4094 46.9247 56.4022 42.884L51.2443 35.9494C48.0501 31.6527 43.0054 29.7185 37.754 30.7718L29.2788 32.4747C24.3424 33.4688 19.6028 31.6478 16.6006 27.6071L11.4426 20.6725C10.4189 19.2944 9.20328 18.1624 7.84982 17.2913C7.63326 17.4783 7.42163 17.6653 7.20508 17.8523C8.55854 18.689 9.7742 19.7915 10.7881 21.1548V21.1597Z" fill="#E2BC87"/>
<path d="M1.99797 44.0505L7.1559 50.9851C10.3501 55.2817 15.3948 57.2209 20.6462 56.1627L29.1214 54.4598C34.0578 53.4706 38.7925 55.2867 41.7996 59.3274L46.9576 66.262C50.1567 70.5587 55.1965 72.4978 60.4479 71.4396L68.923 69.7367C73.8595 68.7475 78.5991 70.5636 81.6013 74.6043L86.7592 81.5389C89.9534 85.8356 94.9981 87.7747 100.25 86.7165L108.725 85.0136C113.361 84.0834 117.83 85.6338 120.842 89.1774C121.098 89.0691 121.359 88.9559 121.61 88.8378C118.401 84.9349 113.577 83.2074 108.562 84.2163L100.087 85.9192C95.1507 86.9134 90.4111 85.0924 87.4089 81.0517L82.2509 74.117C79.0568 69.8204 74.0121 67.8813 68.7606 68.9394L60.2855 70.6423C55.349 71.6365 50.6094 69.8155 47.6072 65.7748L42.4493 58.8401C39.2502 54.5435 34.2104 52.6093 28.959 53.6625L20.4838 55.3654C15.5474 56.3547 10.8078 54.5386 7.80556 50.4979L2.64763 43.5632C1.87493 42.5247 0.993947 41.629 0.0292969 40.876C0.0440619 41.25 0.073592 41.6191 0.103122 41.9883C0.787236 42.5936 1.42213 43.2778 1.99305 44.0455L1.99797 44.0505Z" fill="#E2BC87"/>
<path d="M12.5456 16.5778L17.7036 23.5125C20.8977 27.8091 25.9425 29.7482 31.1939 28.6901L39.669 26.9872C44.6055 25.993 49.3451 27.814 52.3473 31.8547L57.5101 38.7894C60.7043 43.086 65.749 45.0251 71.0005 43.967L79.4756 42.2641C84.4121 41.2748 89.1517 43.0909 92.1539 47.1316L97.3118 54.0663C100.511 58.3629 105.556 60.2971 110.802 59.2439L119.277 57.541C124.214 56.5517 128.953 58.3678 131.956 62.4085L137.118 69.3432C138.949 71.804 141.385 73.4872 144.122 74.2796C144.491 74.0828 144.865 73.8957 145.249 73.7186C142.316 73.1033 139.692 71.4349 137.773 68.8559L132.61 61.9213C129.416 57.6247 124.371 55.6904 119.12 56.7437L110.645 58.4466C105.713 59.4358 100.969 57.6197 97.9664 53.579L92.8085 46.6444C89.6094 42.3477 84.5696 40.4135 79.3181 41.4668L70.843 43.1697C65.9065 44.1589 61.167 42.3428 58.1647 38.3021L53.0019 31.3675C49.8077 27.0708 44.763 25.1366 39.5115 26.1899L31.0364 27.8928C26.1 28.8869 21.3653 27.0659 18.3581 23.0252L13.2002 16.0906C12.649 15.3474 12.0387 14.683 11.3841 14.0825C11.202 14.2794 11.0248 14.4812 10.8477 14.6977C11.4579 15.2588 12.0289 15.8839 12.5456 16.5778Z" fill="#E2BC87"/>
<path d="M5.51285 34.8959L10.6708 41.8306C13.8699 46.1272 18.9097 48.0614 24.1611 47.0082L32.6362 45.3053C37.5727 44.316 42.3074 46.1321 45.3145 50.1728L50.4724 57.1075C53.6666 61.4041 58.7113 63.3383 63.9628 62.2851L72.4379 60.5822C77.3744 59.588 82.1139 61.409 85.1162 65.4497L90.2741 72.3844C93.4732 76.681 98.513 78.6152 103.764 77.562L112.24 75.8591C117.176 74.8698 121.911 76.6859 124.918 80.7266L127.767 84.5557C127.881 84.4425 127.999 84.3392 128.107 84.226C128.186 84.1423 128.27 84.0635 128.353 83.9799L125.572 80.2443C122.378 75.9477 117.334 74.0135 112.082 75.0667L103.607 76.7696C98.6754 77.7638 93.9358 75.9428 90.9287 71.9021L85.7708 64.9674C82.5717 60.6708 77.5319 58.7365 72.2804 59.7898L63.8053 61.4927C58.8737 62.482 54.1292 60.6658 51.127 56.6251L45.9691 49.6905C42.77 45.3939 37.7302 43.4547 32.4788 44.5129L24.0036 46.2158C19.0672 47.205 14.3325 45.3889 11.3254 41.3482L6.16743 34.4136C4.63187 32.3465 2.66319 30.8355 0.453358 29.9299C0.443515 30.2203 0.433671 30.5107 0.423828 30.8011C2.38758 31.6624 4.13478 33.0404 5.51777 34.8959H5.51285Z" fill="#E2BC87"/>
<path d="M0.699676 45.8125C0.842404 45.9847 0.985133 46.157 1.11802 46.3391L6.27594 53.2737C9.47012 57.5704 14.5148 59.5095 19.7663 58.4513L28.2414 56.7484C33.1779 55.7543 37.9174 57.5753 40.9197 61.616L46.0776 68.5506C49.2767 72.8473 54.3165 74.7815 59.5679 73.7283L68.0431 72.0253C72.9795 71.0361 77.7142 72.8522 80.7213 76.8929L85.8793 83.8276C89.0784 88.1242 94.1181 90.0633 99.3696 89.0052L107.845 87.3023C111.807 86.5049 115.641 87.5287 118.554 90.0486C118.687 89.9993 118.825 89.9501 118.958 89.9058C119.115 89.8517 119.263 89.7926 119.416 89.7385C116.276 86.8298 112.053 85.6289 107.682 86.5099L99.2072 88.2128C94.2707 89.2069 89.5361 87.3859 86.5289 83.3452L81.371 76.4106C78.1719 72.1139 73.1321 70.1797 67.8807 71.233L59.4055 72.9359C54.474 73.9251 49.7344 72.109 46.7273 68.0683L41.5693 61.1337C38.3752 56.837 33.3304 54.8979 28.079 55.9561L19.6039 57.659C14.6674 58.6531 9.93275 56.8321 6.92561 52.7914L1.76768 45.8568C1.33949 45.2858 0.881778 44.7592 0.394531 44.272C0.44867 44.5722 0.492965 44.8675 0.556947 45.1677C0.601242 45.3843 0.645537 45.6008 0.694754 45.8174L0.699676 45.8125Z" fill="#E2BC87"/>
<path d="M158.351 53.1211C153.415 54.1153 148.68 52.2943 145.673 48.2536L140.51 41.3189C137.316 37.0223 132.271 35.0881 127.02 36.1413L118.545 37.8442C113.613 38.8384 108.869 37.0174 105.866 32.9767L100.708 26.042C97.5143 21.7454 92.4696 19.8112 87.2181 20.8644L78.743 22.5673C73.8066 23.5566 69.0719 21.7405 66.0647 17.6998L60.9068 10.7651C57.7126 6.46849 52.6679 4.52935 47.4165 5.58751L38.9413 7.29041C36.8398 7.71368 34.7727 7.62017 32.8581 7.06894C32.3315 7.16737 31.8049 7.27073 31.2832 7.37408C33.6801 8.36334 36.3624 8.63403 39.0988 8.08281L47.574 6.3799C52.5104 5.38572 57.25 7.20675 60.2522 11.2474L65.4102 18.1821C68.6043 22.4787 73.6491 24.4179 78.9005 23.3597L87.3756 21.6568C92.3121 20.6676 97.0517 22.4837 100.054 26.5244L105.212 33.459C108.411 37.7556 113.451 39.6899 118.702 38.6366L127.177 36.9337C132.114 35.9445 136.853 37.7606 139.856 41.8013L145.018 48.7359C148.213 53.0325 153.257 54.9717 158.509 53.9135L162.003 53.2097C162.106 52.9193 162.2 52.624 162.284 52.3238L158.351 53.1162V53.1211Z" fill="#E2BC87"/>
<path d="M4.63702 37.1848L9.79494 44.1195C12.9891 48.4161 18.0338 50.3503 23.2853 49.2971L31.7604 47.5942C36.6969 46.6049 41.4364 48.421 44.4387 52.4617L49.6015 59.3964C52.7957 63.693 57.8404 65.6321 63.0919 64.574L71.567 62.8711C76.5034 61.8769 81.243 63.6979 84.2453 67.7386L89.4032 74.6733C92.5973 78.9699 97.6421 80.9091 102.894 79.8509L111.369 78.148C116.305 77.1587 121.045 78.9748 124.047 83.0155L126.232 85.9489C126.444 85.7766 126.646 85.5994 126.852 85.4173L124.701 82.5283C121.507 78.2317 116.463 76.2925 111.211 77.3507L102.736 79.0536C97.7996 80.0428 93.06 78.2267 90.0578 74.186L84.8998 67.2514C81.7057 62.9547 76.6609 61.0156 71.4095 62.0738L62.9344 63.7767C57.9979 64.7709 53.2583 62.9498 50.2561 58.9091L45.0933 51.9745C41.8991 47.6778 36.8544 45.7436 31.6029 46.7969L23.1278 48.4998C18.1963 49.4939 13.4518 47.6729 10.4495 43.6322L5.2916 36.6976C3.93322 34.8667 2.23524 33.4739 0.330545 32.5486C0.310858 32.8439 0.291171 33.1392 0.271484 33.4345C1.93994 34.3007 3.43121 35.5607 4.64194 37.1848H4.63702Z" fill="#E2BC87"/>
<path d="M3.75548 39.4734L8.91341 46.4081C12.1076 50.7047 17.1523 52.6438 22.4037 51.5857L30.8789 49.8828C35.8153 48.8935 40.55 50.7096 43.5571 54.7503L48.7151 61.685C51.9092 65.9816 56.954 67.9207 62.2054 66.8626L70.6805 65.1597C75.617 64.1704 80.3566 65.9865 83.3588 70.0272L88.5167 76.9619C91.7109 81.2585 96.7556 83.1976 102.007 82.1395L110.482 80.4366C115.419 79.4473 120.158 81.2634 123.16 85.3041L124.553 87.1793C124.78 87.0267 125.001 86.8791 125.223 86.7166L123.81 84.8218C120.616 80.5252 115.571 78.586 110.32 79.6442L101.845 81.3471C96.9082 82.3413 92.1686 80.5202 89.1664 76.4795L84.0085 69.5449C80.8143 65.2483 75.7696 63.3091 70.5181 64.3673L62.043 66.0702C57.1115 67.0644 52.367 65.2433 49.3647 61.2026L44.2068 54.268C41.0077 49.9714 35.9679 48.0371 30.7165 49.0904L22.2413 50.7933C17.3049 51.7825 12.5653 49.9664 9.56307 45.9257L4.40515 38.9911C3.2141 37.3915 1.76712 36.1168 0.147889 35.2063C0.128202 35.5114 0.108515 35.8215 0.09375 36.1267C1.47674 36.9683 2.72193 38.0855 3.75548 39.4783V39.4734Z" fill="#E2BC87"/>
<path d="M2.87919 41.7618L8.03711 48.6965C11.2313 52.9931 16.276 54.9322 21.5274 53.8741L30.0026 52.1712C34.939 51.177 39.6786 52.998 42.6808 57.0387L47.8437 63.9734C51.0379 68.27 56.0826 70.2042 61.334 69.151L69.8092 67.4481C74.7456 66.4539 79.4803 68.2749 82.4874 72.3156L87.6453 79.2503C90.8395 83.5469 95.8842 85.4811 101.136 84.4279L109.611 82.725C114.547 81.7357 119.287 83.5518 122.289 87.5925L122.781 88.257C123.022 88.129 123.254 87.9863 123.49 87.8485L122.939 87.1102C119.745 82.8136 114.7 80.8794 109.448 81.9326L100.973 83.6355C96.0368 84.6248 91.2972 82.8087 88.295 78.768L83.1371 71.8333C79.938 67.5367 74.8982 65.6024 69.6467 66.6557L61.1716 68.3586C56.2352 69.3479 51.4956 67.5318 48.4934 63.491L43.3305 56.5564C40.1363 52.2598 35.0916 50.3255 29.8402 51.3788L21.365 53.0817C16.4335 54.0759 11.6939 52.2548 8.68677 48.2141L3.52885 41.2795C2.52482 39.926 1.33378 38.8137 0.0147651 37.9475C0.00492168 38.2773 0 38.6021 0 38.9318C1.06801 39.6996 2.0425 40.6446 2.87919 41.7667V41.7618Z" fill="#E2BC87"/>
<path d="M37.3467 12.6651L45.8218 10.9622C50.7583 9.97296 55.4979 11.7891 58.5001 15.8298L63.658 22.7644C66.8522 27.0611 71.9019 29.0002 77.1484 27.942L85.6235 26.2391C90.56 25.2499 95.2946 27.066 98.3018 31.1067L103.46 38.0413C106.654 42.338 111.699 44.2771 116.95 43.2189L125.425 41.516C130.362 40.5268 135.096 42.3429 138.103 46.3836L143.261 53.3182C146.456 57.6149 151.5 59.554 156.752 58.4958L159.872 57.8708C160.025 57.5657 160.172 57.2556 160.325 56.9504L156.594 57.6985C151.663 58.6927 146.923 56.8717 143.916 52.831L138.758 45.8963C135.564 41.5997 130.519 39.6606 125.268 40.7187L116.793 42.4216C111.861 43.4158 107.117 41.5948 104.114 37.5541L98.9564 30.6194C95.7573 26.3228 90.7174 24.3886 85.466 25.4418L76.9909 27.1447C72.0544 28.134 67.3198 26.3179 64.3126 22.2772L59.1547 15.3425C55.9605 11.0459 50.9158 9.10675 45.6644 10.1649L37.1892 11.8678C32.9664 12.7143 28.8913 11.5036 25.9235 8.60474C25.6085 8.67364 25.2935 8.73762 24.9785 8.8016C28.1678 12.1631 32.676 13.6002 37.3516 12.6602L37.3467 12.6651Z" fill="#E2BC87"/>
<path d="M161.865 43.9621C156.933 44.9563 152.194 43.1353 149.186 39.0946L144.029 32.155C140.829 27.8584 135.785 25.9241 130.538 26.9774L122.063 28.6803C117.127 29.6695 112.387 27.8534 109.385 23.8127L104.227 16.8781C101.033 12.5815 95.988 10.6423 90.7365 11.7005L82.2614 13.4034C77.3299 14.3976 72.5854 12.5765 69.5831 8.53583L64.8731 2.20654C64.5827 2.27052 64.2923 2.33451 64.002 2.39849L68.9286 9.01815C72.1277 13.3148 77.1675 15.2539 82.4189 14.1958L90.894 12.4929C95.8305 11.4987 100.57 13.3197 103.572 17.3604L108.73 24.2951C111.924 28.5917 116.969 30.5308 122.221 29.4727L130.696 27.7698C135.632 26.7805 140.372 28.5966 143.374 32.6373L148.532 39.5769C151.731 43.8735 156.771 45.8077 162.022 44.7545L164.301 44.2968C164.375 44.0064 164.449 43.716 164.527 43.4256L161.86 43.9621H161.865Z" fill="#E2BC87"/>
<path d="M151.824 32.2288L146.661 25.2941C143.466 20.9975 138.422 19.0584 133.17 20.1165L124.695 21.8194C119.764 22.8136 115.019 20.9926 112.017 16.9519L106.859 10.0172C103.665 5.72061 98.6201 3.78147 93.3687 4.83963L84.8935 6.54253C79.9571 7.53179 75.2175 5.71569 72.2153 1.67499L71.7625 1.0647C71.4426 1.08438 71.1226 1.10899 70.8027 1.13852L71.5607 2.15731C74.7598 6.45394 79.7996 8.39308 85.051 7.33492L93.5261 5.63202C98.4626 4.64276 103.202 6.45886 106.204 10.4996L111.362 17.4342C114.557 21.7308 119.601 23.67 124.853 22.6118L133.328 20.9089C138.264 19.9197 143.004 21.7358 146.006 25.7765L151.169 32.7111C154.299 36.9192 159.201 38.8583 164.334 37.9429C164.236 37.6869 164.123 37.431 164 37.1751C159.245 37.9527 154.722 36.1268 151.824 32.2239V32.2288Z" fill="#E2BC87"/>
<path d="M163.621 39.3849C158.684 40.3791 153.95 38.5581 150.942 34.5174L145.784 27.5778C142.585 23.2812 137.546 21.347 132.294 22.4002L123.819 24.1031C118.883 25.0924 114.143 23.2763 111.141 19.2356L105.983 12.3009C102.789 8.00428 97.7439 6.07006 92.4925 7.1233L84.0174 8.8262C79.0809 9.82038 74.3413 7.99936 71.3391 3.95866L69.3704 1.31079C69.0702 1.35509 68.7651 1.4043 68.4648 1.45844L70.6845 4.4459C73.8787 8.74253 78.9234 10.6768 84.1749 9.62352L92.65 7.92061C97.5864 6.92643 102.326 8.74746 105.328 12.7882L110.486 19.7228C113.68 24.0194 118.725 25.9537 123.977 24.9004L132.452 23.1975C137.388 22.2083 142.128 24.0244 145.13 28.0651L150.288 35.0046C153.482 39.3013 158.527 41.2404 163.778 40.1823L164.836 39.9706C164.802 39.6999 164.758 39.4342 164.699 39.1684L163.616 39.3849H163.621Z" fill="#E2BC87"/>
<path d="M106.81 88.7987L98.3347 90.5016C93.4032 91.4957 88.6587 89.6747 85.6565 85.634L80.4986 78.6994C77.2995 74.4027 72.2597 72.4685 67.0082 73.5218L58.5331 75.2247C53.5966 76.2188 48.8571 74.3978 45.8548 70.3571L40.692 63.4225C37.4978 59.1258 32.4531 57.1916 27.2016 58.2448L18.7265 59.9477C13.795 60.937 9.0554 59.1209 6.04825 55.0802L1.29883 48.6968C1.42679 49.3169 1.54983 49.942 1.6778 50.567L5.39859 55.5674C8.59276 59.8641 13.6375 61.8032 18.8889 60.7451L27.3641 59.0422C32.3005 58.0529 37.0401 59.869 40.0423 63.9097L45.2052 70.8444C48.3993 75.141 53.4441 77.0752 58.6955 76.022L67.1706 74.3191C72.1071 73.3249 76.8467 75.1459 79.8489 79.1866L85.0068 86.1213C88.201 90.4179 93.2457 92.3521 98.4972 91.2989L106.972 89.596C110.211 88.9463 113.366 89.5123 115.999 91.1168C116.289 90.974 116.584 90.8412 116.885 90.7083C113.991 88.7741 110.452 88.0653 106.81 88.7987Z" fill="#E2BC87"/>
<path d="M159.228 50.8325C154.291 51.8217 149.556 50.0056 146.549 45.9649L141.391 39.0303C138.192 34.7336 133.152 32.7945 127.901 33.8527L119.426 35.5556C114.494 36.5497 109.755 34.7287 106.748 30.688L101.59 23.7534C98.3955 19.4567 93.3508 17.5176 88.0993 18.5758L79.6242 20.2787C74.6927 21.2728 69.9531 19.4518 66.9459 15.4111L61.788 8.47646C59.9867 6.05499 57.5997 4.38654 54.9223 3.57446C54.2874 3.6975 53.6525 3.83531 53.0176 3.97804C56.2068 4.47021 59.0762 6.19772 61.1334 8.95879L66.2914 15.8934C69.4855 20.1901 74.5303 22.1292 79.7817 21.0711L88.2568 19.3681C93.1933 18.3789 97.9329 20.195 100.935 24.2357L106.093 31.1703C109.292 35.467 114.332 37.4061 119.583 36.348L128.058 34.6451C132.995 33.6558 137.73 35.4719 140.737 39.5126L145.895 46.4473C149.089 50.7439 154.134 52.683 159.385 51.6249L162.638 50.9703C162.712 50.6799 162.791 50.3895 162.865 50.0991L159.228 50.8275V50.8325Z" fill="#E2BC87"/>
<path d="M160.106 48.544C155.17 49.5382 150.435 47.7172 147.428 43.6765L142.265 36.7418C139.071 32.4452 134.026 30.5061 128.775 31.5642L120.3 33.2671C115.363 34.2613 110.624 32.4403 107.621 28.3996L102.464 21.4649C99.2644 17.1683 94.2197 15.2292 88.9732 16.2873L80.498 17.9902C75.5616 18.9795 70.8269 17.1634 67.8198 13.1227L62.6569 6.18804C61.7513 4.96746 60.6883 3.94375 59.5218 3.12183C59.0592 3.1612 58.5867 3.17596 58.1191 3.18581C59.5956 4.03726 60.9147 5.20862 62.0073 6.67528L67.1701 13.6099C70.3692 17.9066 75.409 19.8457 80.6605 18.7875L89.1356 17.0846C94.072 16.0954 98.8116 17.9115 101.814 21.9522L106.972 28.8868C110.166 33.1835 115.211 35.1226 120.462 34.0645L128.937 32.3616C133.874 31.3723 138.613 33.1884 141.616 37.2291L146.778 44.1637C149.973 48.4604 155.017 50.3995 160.269 49.3414L163.202 48.7508C163.271 48.4604 163.345 48.17 163.419 47.8796L160.111 48.544H160.106Z" fill="#E2BC87"/>
<path d="M160.983 46.2556C156.047 47.2498 151.307 45.4288 148.305 41.3881L143.142 34.4534C139.948 30.1568 134.903 28.2225 129.652 29.2758L121.177 30.9787C116.24 31.9729 111.506 30.1518 108.499 26.1111L103.341 19.1765C100.146 14.8799 95.1017 12.9456 89.8503 13.9989L81.3752 15.7018C76.4436 16.696 71.6991 14.8749 68.6969 10.8342L63.539 3.89958C63.224 3.47632 62.8844 3.08258 62.535 2.70361C62.2151 2.76267 61.8951 2.81681 61.5703 2.87095C62.0379 3.33359 62.4759 3.8356 62.8844 4.38191L68.0423 11.3166C71.2365 15.6132 76.2812 17.5474 81.5327 16.4942L90.0078 14.7913C94.9443 13.802 99.6789 15.6181 102.686 19.6588L107.844 26.5935C111.038 30.8901 116.083 32.8292 121.334 31.7711L129.809 30.0682C134.746 29.074 139.485 30.895 142.488 34.9357L147.651 41.8704C150.845 46.167 155.889 48.1012 161.141 47.048L163.74 46.5263C163.808 46.2359 163.882 45.9455 163.956 45.6552L160.983 46.2507V46.2556Z" fill="#E2BC87"/>
<path d="M14.3017 12.0003L19.4596 18.9349C22.6538 23.2315 27.6985 25.1707 32.95 24.1125L41.4251 22.4096C46.3616 21.4154 51.1011 23.2365 54.1034 27.2772L59.2613 34.2118C62.4555 38.5084 67.5002 40.4476 72.7516 39.3894L81.2268 37.6865C86.1632 36.6923 90.9028 38.5134 93.905 42.5541L99.0629 49.4887C102.257 53.7854 107.302 55.7245 112.553 54.6663L121.028 52.9634C125.965 51.9742 130.704 53.7903 133.707 57.831L138.865 64.7656C142.064 69.0623 147.103 71.0014 152.355 69.9432L152.512 69.9137C152.896 69.5938 153.251 69.2444 153.585 68.8703L152.193 69.1508C147.256 70.145 142.516 68.324 139.514 64.2833L134.356 57.3486C131.162 53.052 126.117 51.1129 120.866 52.171L112.391 53.8739C107.454 54.8632 102.715 53.0471 99.7126 49.0064L94.5547 42.0717C91.3605 37.7751 86.3158 35.836 81.0644 36.8941L72.5892 38.597C67.6577 39.5912 62.9132 37.7702 59.911 33.7295L54.753 26.7948C51.5589 22.4982 46.5141 20.5591 41.2627 21.6172L32.7876 23.3201C27.856 24.3143 23.1115 22.4933 20.1093 18.4526L14.9514 11.5179C14.9514 11.5179 14.9268 11.4884 14.912 11.4736C14.6659 11.5967 14.4248 11.7296 14.1836 11.8674C14.218 11.9166 14.2574 11.9609 14.2968 12.0052L14.3017 12.0003Z" fill="#E2BC87"/>
<path d="M33.8256 21.8242L42.3008 20.1213C47.2372 19.132 51.9768 20.9481 54.979 24.9888L60.1419 31.9235C63.3361 36.2201 68.3808 38.1543 73.6322 37.1011L82.1074 35.3982C87.0438 34.404 91.7834 36.225 94.7856 40.2657L99.9435 47.2004C103.143 51.497 108.187 53.4312 113.434 52.378L121.909 50.6751C126.845 49.6809 131.585 51.5019 134.587 55.5426L139.75 62.4773C142.944 66.7739 147.989 68.7081 153.24 67.6549L154.717 67.3596C154.806 67.2218 154.889 67.0889 154.973 66.9462C155.071 66.7739 155.17 66.5967 155.268 66.4195L153.078 66.8576C148.142 67.8517 143.402 66.0307 140.4 61.99L135.237 55.0554C132.043 50.7587 126.998 48.8245 121.747 49.8778L113.271 51.5807C108.335 52.5748 103.595 50.7538 100.593 46.7131L95.4353 39.7785C92.2362 35.4818 87.1915 33.5476 81.9449 34.6008L73.4698 36.3037C68.5383 37.2979 63.7938 35.4769 60.7915 31.4362L55.6287 24.5016C52.4345 20.2049 47.3898 18.2707 42.1384 19.3239L33.6632 21.0268C28.7317 22.021 23.9921 20.2 20.985 16.1593L16.8803 10.6421C16.6145 10.7356 16.3487 10.834 16.0879 10.9423L20.3304 16.6465C23.5295 20.9432 28.5693 22.8823 33.8207 21.8242H33.8256Z" fill="#E2BC87"/>
<path d="M13.422 14.289L18.5799 21.2237C21.7741 25.5203 26.8188 27.4545 32.0703 26.4013L40.5454 24.6984C45.4818 23.7091 50.2165 25.5252 53.2237 29.5659L58.3816 36.5006C61.5758 40.7972 66.6205 42.7363 71.8719 41.6782L80.3471 39.9753C85.2835 38.986 90.0231 40.8021 93.0253 44.8428L98.1832 51.7775C101.382 56.0741 106.422 58.0132 111.674 56.9551L120.149 55.2522C125.085 54.2629 129.82 56.079 132.827 60.1197L137.99 67.0544C140.49 70.4159 144.122 72.3255 148.094 72.4928C148.645 72.2271 149.192 71.9416 149.733 71.6512C145.382 72.0056 141.317 70.1747 138.639 66.5671L133.477 59.6325C130.282 55.3359 125.238 53.4016 119.986 54.4549L111.511 56.1578C106.575 57.1519 101.84 55.3309 98.8329 51.2902L93.675 44.3556C90.4808 40.0589 85.4361 38.1198 80.1846 39.178L71.7095 40.8809C66.778 41.875 62.0335 40.054 59.0312 36.0133L53.8733 29.0787C50.6742 24.782 45.6344 22.8478 40.383 23.9011L31.9078 25.604C26.9714 26.5932 22.2318 24.7771 19.2296 20.7364L14.0717 13.8018C13.7517 13.3736 13.4121 12.9749 13.0578 12.5959C12.8412 12.7534 12.6247 12.9208 12.418 13.098C12.7674 13.472 13.107 13.8657 13.422 14.289Z" fill="#E2BC87"/>
<path d="M22.0988 12.0696C25.293 16.3662 30.3377 18.3054 35.5892 17.2472L44.0643 15.5443C49.0008 14.5551 53.7403 16.3712 56.7426 20.4119L61.9054 27.3465C65.0996 31.6432 70.1443 33.5823 75.3958 32.5241L83.8709 30.8212C88.8073 29.832 93.542 31.6481 96.5491 35.6888L101.707 42.6234C104.901 46.9201 109.946 48.8592 115.197 47.801L123.673 46.0981C128.609 45.1089 133.349 46.925 136.351 50.9657L141.514 57.9003C144.708 62.197 149.753 64.1361 155.004 63.078L157.406 62.5956C157.573 62.2856 157.745 61.9755 157.908 61.6654L154.842 62.2806C149.905 63.2748 145.166 61.4538 142.163 57.4131L137 50.4784C133.806 46.1818 128.762 44.2427 123.51 45.3008L115.035 47.0037C110.103 47.9979 105.359 46.1769 102.357 42.1362L97.1988 35.2015C93.9997 30.9049 88.9599 28.9658 83.7085 30.0239L75.2333 31.7268C70.3018 32.7161 65.5622 30.9 62.5551 26.8593L57.3922 19.9246C54.1981 15.628 49.1533 13.6889 43.9019 14.747L35.4268 16.4499C30.4903 17.4392 25.7556 15.6231 22.7485 11.5824L21.2228 9.53003C20.9275 9.58909 20.6371 9.64815 20.3418 9.70721L22.0988 12.0696Z" fill="#E2BC87"/>
<path d="M22.9747 9.77612C26.1738 14.0727 31.2136 16.007 36.465 14.9537L44.9401 13.2508C49.8766 12.2566 54.6162 14.0777 57.6184 18.1184L62.7763 25.053C65.9705 29.3497 71.0152 31.2839 76.2667 30.2306L84.7418 28.5277C89.6782 27.5385 94.4129 29.3546 97.4201 33.3953L102.578 40.3299C105.777 44.6266 110.817 46.5608 116.068 45.5075L124.543 43.8046C129.48 42.8105 134.219 44.6315 137.222 48.6722L142.385 55.6118C145.584 59.9084 150.623 61.8426 155.875 60.7894L158.661 60.2283C158.823 59.9232 158.98 59.6131 159.138 59.303L155.712 59.9921C150.776 60.9813 146.041 59.1652 143.034 55.1245L137.871 48.1849C134.672 43.8883 129.632 41.9541 124.381 43.0073L115.906 44.7102C110.974 45.6995 106.23 43.8834 103.228 39.8427L98.0697 32.908C94.8755 28.6114 89.8308 26.6723 84.5794 27.7304L76.1042 29.4333C71.1678 30.4275 66.4282 28.6065 63.426 24.5658L58.2681 17.6311C55.0739 13.3345 50.0292 11.4003 44.7777 12.4535L36.3026 14.1564C31.3661 15.1506 26.6266 13.3296 23.6243 9.28887L23.4816 9.09692C23.1863 9.15598 22.891 9.21012 22.5957 9.26426L22.9747 9.77612Z" fill="#E2BC87"/>
<path d="M21.2175 14.3578C24.4117 18.6544 29.4564 20.5936 34.7079 19.5354L43.183 17.8325C48.1195 16.8433 52.8541 18.6594 55.8613 22.7001L61.0192 29.6347C64.2134 33.9313 69.2581 35.8705 74.5095 34.8123L82.9847 33.1094C87.9211 32.1152 92.6607 33.9363 95.6629 37.977L100.821 44.9116C104.015 49.2083 109.06 51.1474 114.311 50.0892L122.786 48.3863C127.723 47.3971 132.462 49.2132 135.465 53.2539L140.623 60.1935C143.817 64.4901 148.861 66.4243 154.113 65.3711L156.086 64.9724C156.264 64.6623 156.441 64.3523 156.613 64.0373L153.95 64.5738C149.014 65.5679 144.279 63.7469 141.272 59.7062L136.114 52.7666C132.92 48.47 127.875 46.5309 122.624 47.589L114.149 49.2919C109.212 50.2812 104.473 48.4651 101.471 44.4244L96.3126 37.4897C93.1184 33.1931 88.0737 31.254 82.8223 32.3121L74.3471 34.015C69.4107 35.0092 64.6711 33.1882 61.6689 29.1475L56.5109 22.2128C53.3168 17.9162 48.272 15.982 43.0206 17.0352L34.5455 18.7381C29.609 19.7323 24.8694 17.9113 21.8672 13.8706L18.9979 10.012C18.7124 10.0809 18.4319 10.1596 18.1562 10.2384L21.2175 14.3529V14.3578Z" fill="#E2BC87"/>
</svg>
