<svg width="242" height="122" viewBox="0 0 242 122" fill="none" xmlns="http://www.w3.org/2000/svg">
<path d="M151.048 120.796C145.782 121.213 139.917 120.179 134.047 119.334C130.734 118.854 127.411 118.523 124.087 118.146C115.464 117.158 106.824 117.569 98.189 117.552C92.3526 117.541 86.5619 118.3 80.7484 118.671C75.6887 118.997 70.6461 119.648 65.5578 119.551C62.8566 119.499 60.1555 119.614 57.4543 119.499C51.7093 119.26 46.0385 120.093 40.3392 120.556C38.6203 120.693 36.8899 120.773 35.1653 120.847C33.8689 120.904 32.5555 120.784 31.282 120.967C26.5706 121.635 22.0363 120.739 17.5305 119.557C15.1263 118.923 12.7392 118.249 10.3692 117.506C9.03293 117.09 7.70804 116.587 6.45738 115.964C2.24857 113.886 1.26632 112.475 0.558191 107.844C0.278365 106.011 1.05503 104.469 1.87737 102.944C2.7454 101.328 3.61344 99.7117 4.50431 98.1127C5.14391 96.9591 5.56651 95.7542 5.58364 94.4236C5.60077 93.3043 5.8806 92.2706 6.70295 91.4711C10.295 87.9819 11.9911 83.3961 13.9442 78.9589C14.5952 77.4798 15.1777 75.9665 15.8744 74.5045C16.2513 73.7107 16.4569 72.8998 16.5882 72.0375C17.3306 67.2119 19.2038 62.9517 22.8072 59.5195C26.0338 56.4472 28.6322 52.8608 30.945 49.0803C32.0129 47.3328 33.2693 45.7167 34.2744 43.9178C36.5644 39.8118 37.8893 35.3688 39.1514 30.903C39.8995 28.2532 41.0416 25.9689 42.909 23.8674C46.1299 20.2411 49.5049 16.729 52.3432 12.7714C52.6573 12.3374 53.1027 11.9948 53.4282 11.5722C55.2728 9.1908 57.757 8.1286 60.7037 7.90588C63.5191 7.69458 66.2545 7.08353 68.91 6.11271C73.1188 4.57081 77.4362 3.78844 81.9305 4.01687C84.9686 4.17106 87.9725 3.84554 90.9192 3.08602C92.4154 2.7034 93.9059 2.71482 95.4193 2.90898C99.2912 3.41724 103.129 3.51432 107.029 2.88614C110.113 2.38931 113.271 2.52065 116.389 3.04033C120.255 3.69135 124.173 3.61712 128.016 3.15455C130.443 2.8633 132.882 2.24083 135.275 1.6412C138.769 0.761746 142.253 0.361994 145.839 0.698928C147.341 0.841696 148.86 0.790299 150.374 0.79601C156.102 0.818853 161.812 1.30427 167.437 2.28651C171.481 2.98893 175.547 3.49719 179.578 4.21103C182.331 4.69644 185.032 5.55877 187.465 7.04356C188.973 7.96299 190.56 8.4998 192.348 8.57975C194.746 8.69396 197.019 9.33356 199.195 10.3729C201.336 11.3951 203.529 12.3146 205.677 13.3197C206.659 13.7765 207.664 14.3133 208.286 15.1985C209.788 17.3343 211.844 18.939 213.523 20.8978C215.705 23.4391 218.154 25.6834 220.879 27.6936C224.533 30.3891 228.308 32.8789 232.209 35.1918C233.219 35.7914 234.099 36.6195 235.007 37.3847C235.681 37.9558 236.155 38.7096 236.286 39.5834C236.646 41.999 237.851 44.0606 239.027 46.1164C239.741 47.3614 240.249 48.6234 240.386 50.0568C240.449 50.6964 240.603 51.336 240.775 51.9585C242.482 58.1547 240.889 63.9568 238.502 69.5876C237.525 71.8947 235.635 73.6194 233.345 74.7786C229.188 76.8802 225.316 79.4272 221.604 82.2369C220.039 83.419 218.6 84.7439 217.732 86.5313C215.75 90.6202 212.238 93.1329 208.543 95.4058C206.51 96.6508 204.569 97.9814 202.684 99.4376C199.783 101.682 196.785 103.818 193.752 105.885C191.48 107.438 189.715 109.237 188.481 111.818C186.962 115.005 184.41 117.346 180.743 118.169C178.625 118.643 176.489 118.877 174.336 119.071C170.361 119.431 166.375 119.705 162.418 120.202C158.866 120.653 155.314 120.693 151.042 120.784L151.048 120.796Z" fill="#648B9C"/>
<path d="M104.676 17.957H96.5156V31.5086H104.676V17.957Z" fill="#F4A378"/>
<path d="M104.676 66.1953H96.5156V68.6566H104.676V66.1953Z" fill="#F4A378"/>
<path d="M137.313 66.1953H129.152V68.6566H137.313V66.1953Z" fill="#F4A378"/>
<path d="M88.3618 66.1953H80.2012V68.6566H88.3618V66.1953Z" fill="#F4A378"/>
<path d="M104.676 82.8418H96.5156V101.796H104.676V82.8418Z" fill="#F4A378"/>
<path d="M88.3618 82.8418H80.2012V101.796H88.3618V82.8418Z" fill="#F4A378"/>
<path d="M120.999 82.8418H112.838V101.796H120.999V82.8418Z" fill="#F4A378"/>
<path d="M88.3618 17.957H80.2012V31.5086H88.3618V17.957Z" fill="#F4A378"/>
<path d="M137.313 36.3623H129.152V44.2717H137.313V36.3623Z" fill="#F4A378"/>
<path d="M137.313 17.957H129.152V31.5086H137.313V17.957Z" fill="#F4A378"/>
<path d="M120.999 17.957H112.838V31.5086H120.999V17.957Z" fill="#F4A378"/>
<path d="M120.999 36.3623H112.838V44.2717H120.999V36.3623Z" fill="#F4A378"/>
<path d="M120.999 66.1953H112.838V68.6566H120.999V66.1953Z" fill="#F4A378"/>
<path d="M104.676 36.3623H96.5156V44.2717H104.676V36.3623Z" fill="#F4A378"/>
<path d="M39.4028 82.8418H31.2422V101.796H39.4028V82.8418Z" fill="#F4A378"/>
<path d="M23.0864 82.8418H14.9258V101.796H23.0864V82.8418Z" fill="#F4A378"/>
<path d="M55.7231 66.1953H47.5625V68.6566H55.7231V66.1953Z" fill="#F4A378"/>
<path d="M55.7231 36.3623H47.5625V44.2717H55.7231V36.3623Z" fill="#F4A378"/>
<path d="M55.7192 31.5086V17.957H48.1868C47.9812 18.1969 47.7699 18.4367 47.5586 18.6766V31.5086H55.7192Z" fill="#F4A378"/>
<path d="M194.426 82.8418V101.796H199.56C200.576 101.048 201.587 100.3 202.581 99.5286V82.8418H194.42H194.426Z" fill="#F4A378"/>
<path d="M72.0396 66.1953H63.8789V68.6566H72.0396V66.1953Z" fill="#F4A378"/>
<path d="M55.7231 82.8418H47.5625V101.796H55.7231V82.8418Z" fill="#F4A378"/>
<path d="M72.0396 82.8418H63.8789V101.796H72.0396V82.8418Z" fill="#F4A378"/>
<path d="M88.3618 36.3623H80.2012V44.2717H88.3618V36.3623Z" fill="#F4A378"/>
<path d="M72.0396 36.3623H63.8789V44.2717H72.0396V36.3623Z" fill="#F4A378"/>
<path d="M72.0396 17.957H63.8789V31.5086H72.0396V17.957Z" fill="#F4A378"/>
<path d="M39.4028 66.1953H31.2422V68.6566H39.4028V66.1953Z" fill="#F4A378"/>
<path d="M218.909 66.1953H210.748V68.6566H218.909V66.1953Z" fill="#F4A378"/>
<path d="M235.225 66.1953H227.064V68.6566H235.225V66.1953Z" fill="#F4A378"/>
<path d="M218.909 36.3623H210.748V44.2717H218.909V36.3623Z" fill="#F4A378"/>
<path d="M202.586 36.3623H194.426V44.2717H202.586V36.3623Z" fill="#F4A378"/>
<path d="M202.586 17.957H194.426V31.5086H202.586V17.957Z" fill="#F4A378"/>
<path d="M202.586 66.1953H194.426V68.6566H202.586V66.1953Z" fill="#F4A378"/>
<path d="M210.748 82.8418V94.0063C213.598 92.0704 216.156 89.8146 217.738 86.5481C218.058 85.8913 218.452 85.2974 218.909 84.7492V82.8418H210.748Z" fill="#F4A378"/>
<path d="M137.313 82.8418H129.152V101.796H137.313V82.8418Z" fill="#F4A378"/>
<path d="M5.57779 94.4232C5.56066 95.7538 5.13806 96.9587 4.49846 98.1123C3.81888 99.3344 3.15073 100.568 2.48828 101.796H6.76562V91.3965C6.76562 91.3965 6.71994 91.4422 6.6971 91.465C5.87475 92.2645 5.59492 93.2982 5.57779 94.4175V94.4232Z" fill="#F4A378"/>
<path d="M39.4019 36.3622H37.5002C36.6379 38.9548 35.6214 41.4904 34.2736 43.9118C34.2051 44.0317 34.1309 44.1459 34.0566 44.2658H39.4019V36.3564V36.3622Z" fill="#F4A378"/>
<path d="M218.903 31.5078V26.1682C216.955 24.5635 215.162 22.8217 213.523 20.9143C212.655 19.9035 211.684 18.9784 210.742 18.0361V31.5135H218.903V31.5078Z" fill="#F4A378"/>
<path d="M233.792 36.3623H227.064V44.2717H235.225V37.613C235.151 37.5444 235.088 37.4645 235.008 37.3959C234.603 37.0533 234.203 36.6992 233.792 36.3623Z" fill="#F4A378"/>
<path d="M38.9746 31.5087H39.4029V30.0811C39.3173 30.3495 39.2316 30.6236 39.1516 30.9034C39.0945 31.109 39.0374 31.3089 38.9803 31.5087H38.9746Z" fill="#F4A378"/>
<path d="M23.0824 68.6566V66.1953H18.1941C17.8571 66.9948 17.5659 67.8172 17.3203 68.6566H23.0824Z" fill="#F4A378"/>
<path d="M153.633 82.8418H145.473V101.796H153.633V82.8418Z" fill="#F4A378"/>
<path d="M186.272 82.8418H178.111V101.796H186.272V82.8418Z" fill="#F4A378"/>
<path d="M153.633 66.1953H145.473V68.6566H153.633V66.1953Z" fill="#F4A378"/>
<path d="M153.633 36.3623H145.473V44.2717H153.633V36.3623Z" fill="#F4A378"/>
<path d="M169.95 17.957H161.789V31.5086H169.95V17.957Z" fill="#F4A378"/>
<path d="M153.633 17.957H145.473V31.5086H153.633V17.957Z" fill="#F4A378"/>
<path d="M169.95 36.3623H161.789V44.2717H169.95V36.3623Z" fill="#F4A378"/>
<path d="M186.272 17.957H178.111V31.5086H186.272V17.957Z" fill="#F4A378"/>
<path d="M186.272 66.1953H178.111V68.6566H186.272V66.1953Z" fill="#F4A378"/>
<path d="M169.95 82.8418H161.789V101.796H169.95V82.8418Z" fill="#F4A378"/>
<path d="M186.272 36.3623H178.111V44.2717H186.272V36.3623Z" fill="#F4A378"/>
<path d="M169.95 66.1953H161.789V68.6566H169.95V66.1953Z" fill="#F4A378"/>
<path d="M112.836 31.5088H104.676V36.3629H112.836V31.5088Z" fill="#BFA899"/>
<path d="M112.836 44.2715H104.676V66.195H112.836V44.2715Z" fill="#BFA899"/>
<path d="M112.836 68.6562H104.676V82.836H112.836V68.6562Z" fill="#BFA899"/>
<path d="M120.992 101.796V117.849C122.02 117.929 123.054 118.026 124.082 118.146C125.772 118.34 127.462 118.523 129.147 118.711V101.796H120.986H120.992Z" fill="#BFA899"/>
<path d="M96.5161 31.5088H88.3555V36.3629H96.5161V31.5088Z" fill="#BFA899"/>
<path d="M104.676 101.796V117.512C107.394 117.483 110.118 117.46 112.836 117.5V101.796H104.676Z" fill="#BFA899"/>
<path d="M96.5161 44.2715H88.3555V66.195H96.5161V44.2715Z" fill="#BFA899"/>
<path d="M96.5161 68.6562H88.3555V82.836H96.5161V68.6562Z" fill="#BFA899"/>
<path d="M145.473 31.5088H137.312V36.3629H145.473V31.5088Z" fill="#BFA899"/>
<path d="M145.473 68.6562H137.312V82.836H145.473V68.6562Z" fill="#BFA899"/>
<path d="M129.153 44.2715H120.992V66.195H129.153V44.2715Z" fill="#BFA899"/>
<path d="M145.473 44.2715H137.312V66.195H145.473V44.2715Z" fill="#BFA899"/>
<path d="M137.312 101.796V119.813C140.082 120.219 142.818 120.596 145.473 120.778V101.796H137.312Z" fill="#BFA899"/>
<path d="M129.153 31.5088H120.992V36.3629H129.153V31.5088Z" fill="#BFA899"/>
<path d="M129.153 68.6562H120.992V82.836H129.153V68.6562Z" fill="#BFA899"/>
<path d="M23.082 101.796V120.773C25.7604 121.207 28.473 121.361 31.2427 120.973V101.796H23.082Z" fill="#BFA899"/>
<path d="M88.3555 101.796V118.06C91.0738 117.832 93.7864 117.632 96.5161 117.575V101.796H88.3555Z" fill="#BFA899"/>
<path d="M47.563 44.2715H39.4023V66.195H47.563V44.2715Z" fill="#BFA899"/>
<path d="M47.563 68.6562H39.4023V82.836H47.563V68.6562Z" fill="#BFA899"/>
<path d="M47.563 31.5088H39.4023V36.3629H47.563V31.5088Z" fill="#BFA899"/>
<path d="M153.629 101.796V120.738C156.559 120.67 159.191 120.579 161.79 120.282V101.796H153.629Z" fill="#BFA899"/>
<path d="M31.2427 68.6562H23.082V82.836H31.2427V68.6562Z" fill="#BFA899"/>
<path d="M39.4023 101.796V120.618C39.7164 120.596 40.0248 120.584 40.3389 120.556C42.7488 120.362 45.1531 120.099 47.563 119.882V101.796H39.4023Z" fill="#BFA899"/>
<path d="M55.7188 101.796V119.465C56.2955 119.465 56.8723 119.476 57.4548 119.499C59.5963 119.591 61.7379 119.539 63.8794 119.539V101.796H55.7188Z" fill="#BFA899"/>
<path d="M80.1997 31.5088H72.0391V36.3629H80.1997V31.5088Z" fill="#BFA899"/>
<path d="M80.1997 68.6562H72.0391V82.836H80.1997V68.6562Z" fill="#BFA899"/>
<path d="M80.1997 44.2715H72.0391V66.195H80.1997V44.2715Z" fill="#BFA899"/>
<path d="M63.8794 31.5088H55.7188V36.3629H63.8794V31.5088Z" fill="#BFA899"/>
<path d="M72.0391 101.796V119.345C74.7631 119.156 77.4757 118.894 80.1997 118.705V101.79H72.0391V101.796Z" fill="#BFA899"/>
<path d="M63.8794 44.2715H55.7188V66.195H63.8794V44.2715Z" fill="#BFA899"/>
<path d="M63.8794 68.6562H55.7188V82.836H63.8794V68.6562Z" fill="#BFA899"/>
<path d="M6.76562 101.796V116.113C7.9249 116.661 9.14129 117.124 10.3634 117.506C11.8767 117.98 13.3958 118.42 14.9263 118.842V101.796H6.76562Z" fill="#BFA899"/>
<path d="M194.426 17.9564V8.82491C193.741 8.70498 193.05 8.61932 192.342 8.58506C190.56 8.49939 188.967 7.9683 187.459 7.04316C187.065 6.80331 186.665 6.5863 186.26 6.375V17.945H194.42L194.426 17.9564Z" fill="#BFA899"/>
<path d="M178.112 17.9565V3.97091C175.399 3.51976 172.675 3.13143 169.951 2.70312V17.9565H178.112Z" fill="#BFA899"/>
<path d="M161.79 17.9566V1.48117C159.083 1.16708 156.359 0.9672 153.629 0.870117V17.9566H161.79Z" fill="#BFA899"/>
<path d="M218.902 31.5088V36.3629H227.063V31.9942C226.812 31.8343 226.56 31.6744 226.315 31.5088H218.902Z" fill="#BFA899"/>
<path d="M210.666 17.9565C209.816 17.0941 208.988 16.209 208.279 15.2096C207.657 14.3244 206.652 13.7876 205.67 13.3308C204.647 12.8511 203.614 12.3942 202.58 11.9316V17.9508H210.666V17.9565Z" fill="#BFA899"/>
<path d="M240.779 51.9753C240.608 51.3528 240.448 50.7132 240.391 50.0736C240.254 48.6459 239.746 47.3781 239.032 46.1332C238.678 45.5164 238.324 44.8997 237.993 44.2715H235.229V66.195H239.831C241.408 61.6321 242.15 56.9265 240.785 51.9696L240.779 51.9753Z" fill="#BFA899"/>
<path d="M238.897 68.6562H235.225V73.636C236.658 72.5795 237.817 71.2432 238.508 69.6042C238.64 69.2901 238.771 68.9761 238.897 68.662V68.6562Z" fill="#BFA899"/>
<path d="M145.473 17.9563V0.675642C142.709 0.452923 140.008 0.664221 137.312 1.19532V17.9563H145.473Z" fill="#BFA899"/>
<path d="M31.2427 66.1955V48.6064C31.1399 48.7663 31.0371 48.9205 30.94 49.0747C28.6957 52.7467 26.1773 56.2246 23.082 59.2341V66.1955H31.2427Z" fill="#BFA899"/>
<path d="M63.8795 17.9562V7.49414C62.8288 7.68831 61.7723 7.82536 60.7044 7.90531C58.8427 8.04237 57.1694 8.52207 55.7246 9.45292V17.9505H63.8853L63.8795 17.9562Z" fill="#BFA899"/>
<path d="M14.9264 76.6396C14.6009 77.4163 14.2811 78.193 13.9441 78.9582C13.3731 80.2488 12.8248 81.5566 12.248 82.8415H14.9264V76.6396Z" fill="#BFA899"/>
<path d="M96.5161 17.9569V3.04618C96.1506 3.0062 95.7851 2.96623 95.4197 2.91483C93.9063 2.71495 92.4158 2.70353 90.9196 3.09186C90.0687 3.30887 89.2178 3.49161 88.3555 3.63438V17.9569H96.5161Z" fill="#BFA899"/>
<path d="M112.836 17.9567V2.63478C110.889 2.51486 108.947 2.58339 107.029 2.89177C106.241 3.0174 105.458 3.10877 104.676 3.1773V17.951H112.836V17.9567Z" fill="#BFA899"/>
<path d="M129.153 17.9561V2.98828C128.776 3.0511 128.393 3.11392 128.016 3.1596C125.692 3.43943 123.345 3.57078 120.992 3.49654V17.9561H129.153Z" fill="#BFA899"/>
<path d="M161.79 44.2715H153.629V66.195H161.79V44.2715Z" fill="#BFA899"/>
<path d="M80.1997 17.9566V3.98242C77.4186 3.99955 74.706 4.39931 72.0391 5.11886V17.9566H80.1997Z" fill="#BFA899"/>
<path d="M186.266 101.796V115.09C187.162 114.154 187.899 113.052 188.487 111.83C189.721 109.248 191.48 107.444 193.758 105.896C193.981 105.742 194.204 105.588 194.426 105.434V101.796H186.266Z" fill="#BFA899"/>
<path d="M178.112 31.5088H169.951V36.3629H178.112V31.5088Z" fill="#BFA899"/>
<path d="M178.112 68.6562H169.951V82.836H178.112V68.6562Z" fill="#BFA899"/>
<path d="M227.063 44.2715H218.902V66.195H227.063V44.2715Z" fill="#BFA899"/>
<path d="M161.79 31.5088H153.629V36.3629H161.79V31.5088Z" fill="#BFA899"/>
<path d="M161.79 68.6562H153.629V82.836H161.79V68.6562Z" fill="#BFA899"/>
<path d="M169.951 101.796V119.459C171.413 119.334 172.881 119.214 174.343 119.082C175.605 118.968 176.861 118.837 178.112 118.654V101.802H169.951V101.796Z" fill="#BFA899"/>
<path d="M178.112 44.2715H169.951V66.195H178.112V44.2715Z" fill="#BFA899"/>
<path d="M210.749 68.6562H202.588V82.836H210.749V68.6562Z" fill="#BFA899"/>
<path d="M210.749 31.5088H202.588V36.3629H210.749V31.5088Z" fill="#BFA899"/>
<path d="M218.902 68.6562V82.836H220.861C221.107 82.6361 221.352 82.4363 221.609 82.2478C223.385 80.9001 225.201 79.6209 227.063 78.4159V68.6562H218.902Z" fill="#BFA899"/>
<path d="M194.426 31.5088H186.266V36.3629H194.426V31.5088Z" fill="#BFA899"/>
<path d="M210.749 44.2715H202.588V66.195H210.749V44.2715Z" fill="#BFA899"/>
<path d="M194.426 44.2715H186.266V66.195H194.426V44.2715Z" fill="#BFA899"/>
<path d="M194.426 68.6562H186.266V82.836H194.426V68.6562Z" fill="#BFA899"/>
</svg>
