<svg width="284" height="148" viewBox="0 0 284 148" fill="none" xmlns="http://www.w3.org/2000/svg">
<path d="M44.1665 15.2798C46.8526 15.2798 49.5387 15.2882 52.2163 15.2798C55.5739 15.263 58.9315 15.1287 62.2471 15.8002C62.9018 15.9345 63.5817 15.9597 64.2532 15.9429C73.8139 15.7331 83.2235 17.4202 92.7003 18.2093C98.7104 18.7045 104.746 18.9311 110.764 19.2669C113.744 19.4348 116.648 19.0487 119.511 18.1757C122.734 17.1936 125.907 16.5557 129.382 17.3867C132.001 18.0162 134.72 17.1013 137.239 16.1528C139.748 15.2126 142.25 14.2809 144.709 13.1729C147.504 11.9138 150.509 11.0912 153.472 10.2602C158.374 8.89199 163.327 7.67487 168.254 6.39899C170.21 5.89536 172.191 5.56799 174.222 5.55121C180.87 5.50924 187.275 4.22496 193.453 1.79912C198.775 -0.290976 204.155 -0.408491 209.645 1.03527C212.851 1.87466 215.613 3.4863 217.946 5.76106C219.6 7.37269 221.388 8.70733 223.402 9.83212C227.524 12.1405 230.932 15.4225 234.566 18.3771C235.389 19.0403 236.119 19.8965 236.673 20.7946C239.217 24.9328 242.406 28.5506 245.512 32.2439C248.19 35.4168 250.607 38.7996 254.082 41.2506C255.358 42.1488 256.214 43.6429 257.289 44.8348C260.52 48.4191 263.777 51.9781 266.992 55.5791C267.79 56.4772 268.57 57.4258 269.149 58.475C271.869 63.419 274.396 68.4554 276.276 73.7939C277.174 76.3373 277.535 79.0066 277.862 81.6759C277.971 82.6076 277.98 83.5561 278.106 84.4794C278.593 87.9209 279.105 91.2953 281.052 94.3759C282.168 96.1386 282.58 98.3714 283.201 100.42C283.721 102.14 283.511 103.861 282.966 105.573C282.395 107.361 281.841 109.149 281.388 110.971C280.859 113.078 280.07 115.059 278.87 116.863C276.183 120.909 274.127 125.299 272.415 129.807C270.643 134.474 267.831 138.301 264.163 141.533C260.747 144.538 256.626 146.066 252.118 146.653C244.908 147.593 237.672 147.745 230.42 147.434C226.273 147.258 222.126 146.846 217.988 146.469C213.447 146.049 208.898 145.696 204.39 145.058C197.843 144.127 191.279 144.32 184.706 144.421C180.409 144.488 176.119 144.53 171.864 143.707C170.949 143.531 169.992 143.539 169.052 143.489C163.562 143.212 158.056 143.019 152.574 142.649C148.033 142.339 143.5 141.81 138.968 141.382C138.565 141.34 138.17 141.256 137.767 141.231C133.084 140.954 128.4 140.652 123.716 140.425C121.433 140.316 119.175 140.467 116.908 140.937C110.907 142.179 104.922 141.567 98.895 140.836C91.0299 139.888 83.2487 138.436 75.4256 137.319C63.9762 135.674 52.7368 133.164 41.5141 130.487C39.5331 130.017 37.5689 129.756 35.546 129.782C30.7111 129.84 25.8845 129.832 21.0496 129.882C18.5902 129.907 16.2651 129.379 13.9987 128.455C11.6652 127.498 9.91087 125.962 8.77768 123.679C7.76202 121.623 6.75475 119.566 6.32665 117.308C5.67193 113.883 5.05917 110.459 4.58071 107.009C4.40444 105.699 4.58071 104.331 4.7402 103.005C5.07596 100.21 5.52923 97.4229 5.90696 94.6361C6.25111 92.0927 6.21753 89.5662 5.65514 87.0396C4.63947 82.4565 3.69096 77.8566 2.80959 73.2399C2.05414 69.2864 1.34065 65.3245 0.753078 61.3457C0.341775 58.5505 0.434108 55.7386 1.01329 52.935C1.79393 49.1242 2.40668 45.2797 3.2125 41.4773C3.85884 38.4638 4.55553 35.442 5.47047 32.5042C8.22368 23.6569 14.2589 18.2764 23.2572 16.2703C26.1364 15.6239 29.0491 15.1874 32.0373 15.2462C36.0664 15.3218 40.0871 15.263 44.1162 15.263V15.305L44.1665 15.2798Z" fill="#E6E98B"/>
<path d="M195.484 1.09391H209.888C209.813 1.07712 209.737 1.04354 209.662 1.02676C204.86 -0.232335 200.143 -0.30788 195.484 1.09391Z" fill="#64B0FD"/>
<path d="M280.707 113.203C280.975 112.473 281.219 111.726 281.412 110.962C281.479 110.702 281.554 110.441 281.63 110.173H228.295V113.203H280.715H280.707Z" fill="#64B0FD"/>
<path d="M6.15728 92C6.1321 92.873 6.06494 93.7459 5.94743 94.6189C5.93064 94.7532 5.90546 94.8875 5.88867 95.0302H55.7739V92H6.15728Z" fill="#64B0FD"/>
<path d="M116.942 140.919C117.982 140.701 119.032 140.559 120.081 140.475H113.273V141.448C114.499 141.331 115.716 141.171 116.942 140.919Z" fill="#64B0FD"/>
<path d="M277.391 119.264C277.87 118.449 278.365 117.644 278.894 116.855C279.028 116.653 279.137 116.443 279.263 116.233H228.295V119.264H277.399H277.391Z" fill="#64B0FD"/>
<path d="M96.3508 140.475H113.281V137.444H76.3984C83.0548 138.418 89.6776 139.585 96.3508 140.475Z" fill="#64B0FD"/>
<path d="M6.16602 116.233C6.23317 116.586 6.30032 116.938 6.36747 117.291C6.49338 117.963 6.67805 118.617 6.89629 119.264H55.7742V116.233H6.16602Z" fill="#64B0FD"/>
<path d="M283.384 101.091C283.342 100.864 283.283 100.646 283.216 100.419C282.981 99.647 282.779 98.8496 282.553 98.0605H228.277V101.091H283.375H283.384Z" fill="#64B0FD"/>
<path d="M170.78 143.556C171.158 143.581 171.527 143.623 171.888 143.691C176.135 144.522 180.433 144.471 184.731 144.404C191.303 144.295 197.867 144.11 204.414 145.042C208.922 145.68 213.48 146.041 218.013 146.452C218.315 146.477 218.609 146.511 218.911 146.536H228.278V143.506H170.771V143.556H170.78Z" fill="#64B0FD"/>
<path d="M5.46289 85.9395C5.53844 86.3004 5.61398 86.6613 5.69792 87.0223C5.84062 87.6686 5.94974 88.3233 6.02528 88.9697H55.7762V85.9395H5.46289Z" fill="#64B0FD"/>
<path d="M52.2148 15.2799C49.5287 15.2883 46.8427 15.2799 44.165 15.2799V15.2379C40.1359 15.2379 36.1068 15.2967 32.0861 15.2211C29.1063 15.1624 26.1936 15.5988 23.3145 16.2452H55.7738V15.2631C54.5903 15.2631 53.4067 15.2799 52.2232 15.2799H52.2148Z" fill="#64B0FD"/>
<path d="M228.288 137.444H170.781V140.475H228.288V137.444Z" fill="#64B0FD"/>
<path d="M4.64641 104.112C4.54568 105.078 4.48692 106.051 4.62123 106.991C4.62123 107.042 4.63801 107.092 4.64641 107.143H55.7739V104.112H4.64641Z" fill="#64B0FD"/>
<path d="M8.14844 122.294C8.36668 122.756 8.59332 123.209 8.81995 123.662C9.12213 124.267 9.46629 124.821 9.85241 125.324H55.7757V122.294H8.14844Z" fill="#64B0FD"/>
<path d="M261.502 143.505C262.434 142.934 263.332 142.271 264.188 141.524C264.574 141.18 264.943 140.836 265.313 140.475H228.287V143.505H261.502Z" fill="#64B0FD"/>
<path d="M268.074 137.445C268.838 136.48 269.543 135.473 270.181 134.415H228.287V137.445H268.074Z" fill="#64B0FD"/>
<path d="M230.453 147.426C237.697 147.736 244.941 147.585 252.143 146.645C252.369 146.612 252.596 146.57 252.823 146.536H228.287V147.3C229.009 147.342 229.731 147.392 230.453 147.417V147.426Z" fill="#64B0FD"/>
<path d="M271.776 131.385C272.011 130.864 272.229 130.335 272.439 129.798C272.624 129.32 272.809 128.833 273.002 128.354H228.287V131.385H271.776Z" fill="#64B0FD"/>
<path d="M281.446 95.0302C281.328 94.8036 281.211 94.5853 281.068 94.3755C280.581 93.6032 280.178 92.8142 279.851 92H228.287V95.0302H281.446Z" fill="#64B0FD"/>
<path d="M274.277 125.324C274.731 124.3 275.218 123.293 275.73 122.294H228.287V125.324H274.277Z" fill="#64B0FD"/>
<path d="M5.45095 98.0605C5.29986 99.0678 5.17395 100.083 5.03125 101.091H55.7642V98.0605H5.45095Z" fill="#64B0FD"/>
<path d="M124.982 140.475C129.255 140.693 133.527 140.961 137.8 141.213C138.203 141.238 138.597 141.322 139 141.364C143.533 141.801 148.066 142.321 152.607 142.632C158.097 143.01 163.595 143.194 169.084 143.471C169.336 143.48 169.579 143.496 169.831 143.505H170.78V140.475H124.982Z" fill="#64B0FD"/>
<path d="M5.10156 110.173C5.26105 111.18 5.43732 112.196 5.61359 113.203H55.7758V110.173H5.10156Z" fill="#64B0FD"/>
<path d="M282.495 107.143C282.655 106.614 282.814 106.085 282.982 105.564C283.133 105.086 283.259 104.599 283.351 104.112H228.287V107.143H282.495Z" fill="#64B0FD"/>
<path d="M232.039 16.2451C230.83 15.221 229.622 14.1969 228.371 13.2148H228.287V16.2451H232.039Z" fill="#64B0FD"/>
<path d="M228.288 13.1476C226.928 12.0732 225.51 11.0743 224.016 10.1846H170.781V13.2148H228.288V13.1476Z" fill="#64B0FD"/>
<path d="M5.88934 31.3955C5.76343 31.7564 5.62913 32.109 5.52001 32.4867C5.31855 33.1331 5.13389 33.7794 4.94922 34.4257H55.7661V31.3955H5.88934Z" fill="#64B0FD"/>
<path d="M4.16935 37.4561C3.92593 38.4633 3.69929 39.4706 3.47266 40.4863H55.7753V37.4561H4.16935Z" fill="#64B0FD"/>
<path d="M237.663 22.3056C237.327 21.8104 237.008 21.3067 236.689 20.7947C236.361 20.2575 235.967 19.7455 235.531 19.2754H228.295V22.3056H237.663Z" fill="#64B0FD"/>
<path d="M2.84285 43.5166C2.6414 44.5239 2.44834 45.5311 2.26367 46.5468H55.7667V43.5166H2.84285Z" fill="#64B0FD"/>
<path d="M242.263 28.3652C241.44 27.3663 240.626 26.359 239.837 25.335H228.287V28.3652H242.263Z" fill="#64B0FD"/>
<path d="M228.288 16.2451H170.781V19.2753H228.288V16.2451Z" fill="#64B0FD"/>
<path d="M217.963 5.75245C217.359 5.16487 216.721 4.61927 216.066 4.12402H186.032C182.188 5.03896 178.26 5.51742 174.239 5.55099C173.072 5.55099 171.922 5.6769 170.789 5.86996V7.16263H219.533C218.995 6.71775 218.475 6.25608 217.963 5.76084V5.75245Z" fill="#64B0FD"/>
<path d="M15.4985 19.2754C14.0463 20.14 12.7369 21.1556 11.5449 22.3056H55.7642V19.2754H15.4985Z" fill="#64B0FD"/>
<path d="M13.8477 128.354C13.9148 128.38 13.9736 128.413 14.0323 128.438C16.2987 129.37 18.6238 129.891 21.0832 129.865C25.9181 129.815 30.7447 129.823 35.5796 129.765C37.6109 129.739 39.5751 129.991 41.5477 130.47C42.8403 130.78 44.133 131.083 45.4257 131.385H55.767V128.354H13.8477Z" fill="#64B0FD"/>
<path d="M8.96174 25.335C8.29862 26.2751 7.70265 27.2907 7.17383 28.3652H55.7747V25.335H8.96174Z" fill="#64B0FD"/>
<path d="M144.626 13.2148C142.2 14.2977 139.724 15.221 137.256 16.1443C137.172 16.1779 137.08 16.2115 136.996 16.2451H170.79V13.2148H144.635H144.626Z" fill="#64B0FD"/>
<path d="M165.316 7.1543C161.463 8.14478 157.602 9.11848 153.766 10.1845H170.78V7.1543H165.307H165.316Z" fill="#64B0FD"/>
<path d="M4.17773 79.8789C4.38758 80.8862 4.60583 81.9018 4.82407 82.9091H55.7753V79.8789H4.17773Z" fill="#64B0FD"/>
<path d="M277.131 76.8495C276.913 75.8255 276.653 74.8098 276.3 73.8193H228.287V76.8495H277.131Z" fill="#64B0FD"/>
<path d="M275.15 70.789C274.739 69.7733 274.311 68.7577 273.866 67.7588H228.287V70.789H275.15Z" fill="#64B0FD"/>
<path d="M272.439 64.7285C271.944 63.7128 271.432 62.7055 270.903 61.6982H228.287V64.7285H272.439Z" fill="#64B0FD"/>
<path d="M1.8457 67.7588C2.02198 68.7745 2.21504 69.7817 2.3997 70.789H55.7684V67.7588H1.8457Z" fill="#64B0FD"/>
<path d="M278.911 88.9697C278.676 87.9708 278.491 86.9635 278.34 85.9395H228.287V88.9697H278.911Z" fill="#64B0FD"/>
<path d="M277.978 82.9091C277.953 82.4978 277.919 82.0781 277.869 81.6668C277.793 81.0708 277.718 80.4749 277.642 79.8789H228.277V82.9091H277.969H277.978Z" fill="#64B0FD"/>
<path d="M2.9707 73.8193C3.16376 74.8266 3.37361 75.8423 3.57507 76.8495H55.777V73.8193H2.9707Z" fill="#64B0FD"/>
<path d="M264.339 52.6074C263.424 51.6001 262.518 50.5844 261.603 49.5771H228.287V52.6074H264.331H264.339Z" fill="#64B0FD"/>
<path d="M253.098 40.4863C251.94 39.5629 250.899 38.5389 249.909 37.4561H228.277V40.4863H253.09H253.098Z" fill="#64B0FD"/>
<path d="M0.651934 55.6377C0.5596 56.645 0.526024 57.6606 0.5596 58.6679H55.7665V55.6377H0.651934Z" fill="#64B0FD"/>
<path d="M247.324 34.4257C246.728 33.6954 246.132 32.9652 245.528 32.2433C245.293 31.9579 245.049 31.6809 244.814 31.3955H228.295V34.4257H247.332H247.324Z" fill="#64B0FD"/>
<path d="M258.858 46.5468C258.337 45.976 257.825 45.4052 257.305 44.8345C256.927 44.4231 256.583 43.9699 256.239 43.5166H228.287V46.5468H258.858Z" fill="#64B0FD"/>
<path d="M0.853516 61.6982C1.00461 62.7139 1.18088 63.7212 1.34036 64.7285H55.7667V61.6982H0.853516Z" fill="#64B0FD"/>
<path d="M1.70086 49.5771C1.51619 50.5928 1.31474 51.6001 1.11328 52.6074H55.7662V49.5771H1.70086Z" fill="#64B0FD"/>
<path d="M269.275 58.6679C269.241 58.6008 269.208 58.5336 269.166 58.4748C268.603 57.4508 267.839 56.5191 267.059 55.6377H228.287V58.6679H269.275Z" fill="#64B0FD"/>
<path d="M110.78 19.2669C104.753 18.9312 98.7266 18.7129 92.7165 18.2093C86.27 17.6721 79.857 16.732 73.4105 16.2451H55.7832V19.2753H111.133C111.015 19.2753 110.898 19.2753 110.78 19.2669Z" fill="#64B0FD"/>
<path d="M228.288 22.3047H170.781V25.3349H228.288V22.3047Z" fill="#64B0FD"/>
<path d="M228.288 28.3662H170.781V31.3964H228.288V28.3662Z" fill="#64B0FD"/>
<path d="M170.78 19.2754H113.273V22.3056H170.78V19.2754Z" fill="#64B0FD"/>
<path d="M170.78 25.335H113.273V28.3652H170.78V25.335Z" fill="#64B0FD"/>
<path d="M228.288 34.4258H170.781V37.456H228.288V34.4258Z" fill="#64B0FD"/>
<path d="M113.282 28.3662H55.7754V31.3964H113.282V28.3662Z" fill="#64B0FD"/>
<path d="M228.288 76.8486H170.781V79.8788H228.288V76.8486Z" fill="#64B0FD"/>
<path d="M113.282 34.4258H55.7754V37.456H113.282V34.4258Z" fill="#64B0FD"/>
<path d="M228.288 58.667H170.781V61.6972H228.288V58.667Z" fill="#64B0FD"/>
<path d="M228.288 64.7275H170.781V67.7578H228.288V64.7275Z" fill="#64B0FD"/>
<path d="M228.288 70.7881H170.781V73.8183H228.288V70.7881Z" fill="#64B0FD"/>
<path d="M228.288 40.4863H170.781V43.5165H228.288V40.4863Z" fill="#64B0FD"/>
<path d="M228.288 46.5469H170.781V49.5771H228.288V46.5469Z" fill="#64B0FD"/>
<path d="M228.288 52.6074H170.781V55.6376H228.288V52.6074Z" fill="#64B0FD"/>
<path d="M113.282 22.3047H55.7754V25.3349H113.282V22.3047Z" fill="#64B0FD"/>
<path d="M113.282 88.9697H55.7754V91.9999H113.282V88.9697Z" fill="#64B0FD"/>
<path d="M113.282 101.091H55.7754V104.121H113.282V101.091Z" fill="#64B0FD"/>
<path d="M113.282 95.0303H55.7754V98.0605H113.282V95.0303Z" fill="#64B0FD"/>
<path d="M113.282 107.143H55.7754V110.173H113.282V107.143Z" fill="#64B0FD"/>
<path d="M113.282 113.203H55.7754V116.233H113.282V113.203Z" fill="#64B0FD"/>
<path d="M113.282 125.324H55.7754V128.354H113.282V125.324Z" fill="#64B0FD"/>
<path d="M113.282 119.264H55.7754V122.294H113.282V119.264Z" fill="#64B0FD"/>
<path d="M113.282 76.8486H55.7754V79.8788H113.282V76.8486Z" fill="#64B0FD"/>
<path d="M113.282 64.7275H55.7754V67.7578H113.282V64.7275Z" fill="#64B0FD"/>
<path d="M113.282 82.9092H55.7754V85.9394H113.282V82.9092Z" fill="#64B0FD"/>
<path d="M113.282 52.6074H55.7754V55.6376H113.282V52.6074Z" fill="#64B0FD"/>
<path d="M113.282 58.667H55.7754V61.6972H113.282V58.667Z" fill="#64B0FD"/>
<path d="M113.282 46.5469H55.7754V49.5771H113.282V46.5469Z" fill="#64B0FD"/>
<path d="M113.282 70.7881H55.7754V73.8183H113.282V70.7881Z" fill="#64B0FD"/>
<path d="M113.282 40.4863H55.7754V43.5165H113.282V40.4863Z" fill="#64B0FD"/>
<path d="M170.78 79.8789H113.273V82.9091H170.78V79.8789Z" fill="#64B0FD"/>
<path d="M170.78 85.9395H113.273V88.9697H170.78V85.9395Z" fill="#64B0FD"/>
<path d="M170.78 73.8193H113.273V76.8495H170.78V73.8193Z" fill="#64B0FD"/>
<path d="M170.78 104.112H113.273V107.143H170.78V104.112Z" fill="#64B0FD"/>
<path d="M170.78 67.7588H113.273V70.789H170.78V67.7588Z" fill="#64B0FD"/>
<path d="M170.78 98.0605H113.273V101.091H170.78V98.0605Z" fill="#64B0FD"/>
<path d="M170.78 110.173H113.273V113.203H170.78V110.173Z" fill="#64B0FD"/>
<path d="M228.288 82.9092H170.781V85.9394H228.288V82.9092Z" fill="#64B0FD"/>
<path d="M170.78 43.5166H113.273V46.5468H170.78V43.5166Z" fill="#64B0FD"/>
<path d="M170.78 61.6982H113.273V64.7285H170.78V61.6982Z" fill="#64B0FD"/>
<path d="M170.78 31.3955H113.273V34.4257H170.78V31.3955Z" fill="#64B0FD"/>
<path d="M170.78 37.4561H113.273V40.4863H170.78V37.4561Z" fill="#64B0FD"/>
<path d="M170.78 49.5771H113.273V52.6074H170.78V49.5771Z" fill="#64B0FD"/>
<path d="M170.78 55.6377H113.273V58.6679H170.78V55.6377Z" fill="#64B0FD"/>
<path d="M170.78 92H113.273V95.0302H170.78V92Z" fill="#64B0FD"/>
<path d="M228.288 107.143H170.781V110.173H228.288V107.143Z" fill="#64B0FD"/>
<path d="M228.288 101.091H170.781V104.121H228.288V101.091Z" fill="#64B0FD"/>
<path d="M228.288 119.264H170.781V122.294H228.288V119.264Z" fill="#64B0FD"/>
<path d="M228.288 113.203H170.781V116.233H228.288V113.203Z" fill="#64B0FD"/>
<path d="M228.288 88.9697H170.781V91.9999H228.288V88.9697Z" fill="#64B0FD"/>
<path d="M228.288 95.0303H170.781V98.0605H228.288V95.0303Z" fill="#64B0FD"/>
<path d="M170.78 134.415H113.273V137.445H170.78V134.415Z" fill="#64B0FD"/>
<path d="M170.78 128.354H113.273V131.385H170.78V128.354Z" fill="#64B0FD"/>
<path d="M170.78 122.294H113.273V125.324H170.78V122.294Z" fill="#64B0FD"/>
<path d="M55.7754 131.385V133.71C56.8918 133.945 58.0082 134.188 59.1246 134.415H113.282V131.385H55.7754Z" fill="#64B0FD"/>
<path d="M228.288 125.324H170.781V128.354H228.288V125.324Z" fill="#64B0FD"/>
<path d="M228.288 131.385H170.781V134.415H228.288V131.385Z" fill="#64B0FD"/>
<path d="M170.78 116.233H113.273V119.264H170.78V116.233Z" fill="#64B0FD"/>
</svg>
