<svg width="170" height="146" viewBox="0 0 170 146" fill="none" xmlns="http://www.w3.org/2000/svg">
<path d="M96.5025 144.012C93.5159 143.985 90.66 144.273 87.8041 144.381C81.6598 144.62 75.511 144.881 69.3668 145.142C64.3847 145.354 59.3936 145.255 54.407 145.304C53.452 145.313 52.4745 145.246 51.5466 145.426C48.7763 145.962 46.042 145.543 43.3077 145.246C40.5914 144.953 38.213 143.913 36.3165 141.84C31.7263 136.831 26.046 133.34 20.0594 130.3C18.5369 129.525 17.136 128.583 15.762 127.588C14.3566 126.57 13.262 125.295 12.5052 123.741C11.9512 122.597 11.4196 121.439 10.9016 120.277C10.5592 119.502 10.3881 118.619 9.92409 117.93C8.24838 115.434 7.39251 112.574 6.18527 109.871C5.09066 107.43 4.31587 104.912 3.83387 102.29C2.83385 96.8665 1.67167 91.4655 0.896875 86.0104C0.131094 80.6275 0.455425 75.312 2.02753 69.9741C3.62216 64.5505 6.59519 59.9694 9.5457 55.3206C13.3025 49.4016 17.6134 43.8789 21.6991 38.1941C23.7577 35.3292 26.0145 32.694 28.5551 30.275C29.7894 29.1039 31.0507 27.9732 32.4921 27.0543C32.9381 26.7705 33.4336 26.5092 33.7759 26.1218C36.0372 23.5362 39.0238 21.856 41.695 19.7883C43.2761 18.5676 45.1005 17.6577 46.7942 16.5766C50.4565 14.2387 54.0962 11.8603 57.7719 9.54038C60.1368 8.04486 62.709 7.12141 65.5334 6.93672C67.7496 6.79258 69.592 5.77904 71.1776 4.28352C73.0831 2.48618 75.2813 1.28345 77.885 0.882545C78.5111 0.787948 79.1598 0.643801 79.7769 0.706865C84.5247 1.17084 89.2771 1.68887 93.9123 2.83304C95.9619 3.34206 97.9304 4.18892 99.9125 4.94119C103.881 6.44572 107.827 8.00882 111.791 9.51336C113.489 10.1575 115.093 10.9864 116.53 12.0855C118.143 13.3152 119.886 14.3017 121.67 15.2522C122.976 15.9459 124.242 16.7477 125.413 17.6442C127.454 19.2073 129.643 20.464 132.053 21.3514C135.765 22.7208 139.084 24.7074 142.265 27.0903C146.17 30.0183 149.936 33.122 153.828 36.0544C156.477 38.0545 158.774 40.3563 160.643 43.1177C164.071 48.1853 166.738 53.6179 167.806 59.645C168.86 65.5866 169.909 71.5912 169.333 77.6634C169.004 81.1545 168.896 84.6365 168.729 88.1321C168.567 91.4835 167.486 94.5331 165.108 97.0873C163.157 99.1774 161.432 101.475 159.571 103.655C158.887 104.461 158.211 105.34 157.355 105.925C155.274 107.344 153.936 109.371 152.481 111.326C148.612 116.538 144.436 121.462 139.206 125.394C137.337 126.8 135.692 128.421 134.165 130.219C132.454 132.232 130.472 134.02 128.575 135.876C127.661 136.773 126.607 137.507 125.431 138.021C121.444 139.773 117.422 141.417 113.084 142.124C109.944 142.633 106.809 143.196 103.674 143.723C101.25 144.133 98.8043 143.967 96.489 144.007L96.5025 144.012Z" fill="#E2E2E2"/>
<path d="M88.6572 144.345L142.041 26.9101C141.924 26.8245 141.807 26.7389 141.69 26.6533L88.1797 144.363C88.3373 144.354 88.4995 144.349 88.6572 144.34V144.345Z" fill="#C679F2"/>
<path d="M90.8941 144.219L143.661 28.1447C143.544 28.0546 143.431 27.969 143.314 27.8789L90.4121 144.246C90.5743 144.237 90.7319 144.228 90.8941 144.219Z" fill="#C679F2"/>
<path d="M86.4306 144.434L140.391 25.738C140.274 25.6569 140.152 25.5713 140.035 25.4902L85.9531 144.457C86.1108 144.452 86.273 144.443 86.4306 144.439V144.434Z" fill="#C679F2"/>
<path d="M79.7562 144.705L135.221 22.7029C135.095 22.6398 134.969 22.5722 134.838 22.5137L79.2832 144.728C79.4409 144.723 79.603 144.714 79.7607 144.71L79.7562 144.705Z" fill="#C679F2"/>
<path d="M84.2066 144.525L138.708 24.6348C138.586 24.5582 138.46 24.4861 138.338 24.4141L83.7246 144.547C83.8823 144.543 84.0444 144.534 84.2021 144.529L84.2066 144.525Z" fill="#C679F2"/>
<path d="M81.9794 144.615L136.981 23.6213C136.854 23.5537 136.728 23.4861 136.607 23.4141L81.502 144.633C81.6596 144.628 81.8218 144.619 81.9794 144.615Z" fill="#C679F2"/>
<path d="M97.5413 144.003L148.497 31.906C148.38 31.8159 148.268 31.7258 148.151 31.6357L97.0684 144.003C97.226 144.003 97.3792 144.003 97.5368 144.003H97.5413Z" fill="#C679F2"/>
<path d="M99.7249 144.006L150.109 33.1707C149.992 33.0806 149.879 32.9905 149.762 32.9004L99.252 144.011C99.4096 144.011 99.5673 144.011 99.7204 144.011L99.7249 144.006Z" fill="#C679F2"/>
<path d="M95.3538 144.016L146.891 30.6443C146.774 30.5542 146.661 30.4641 146.544 30.374L94.8809 144.025C95.0385 144.025 95.1962 144.016 95.3538 144.012V144.016Z" fill="#C679F2"/>
<path d="M93.1376 144.093L145.283 29.3878C145.166 29.2977 145.049 29.2077 144.936 29.1221L92.6602 144.12C92.8223 144.111 92.98 144.102 93.1421 144.093H93.1376Z" fill="#C679F2"/>
<path d="M73.079 144.985L129.742 20.3425C129.616 20.2794 129.486 20.2164 129.359 20.1533L72.6016 145.012C72.7592 145.003 72.9214 144.998 73.079 144.994V144.985Z" fill="#C679F2"/>
<path d="M66.4163 145.232L124.67 17.0856C124.553 17.0001 124.431 16.919 124.314 16.8379L65.9434 145.241C66.101 145.241 66.2587 145.232 66.4163 145.232Z" fill="#C679F2"/>
<path d="M64.2146 145.269L122.986 15.9912C122.864 15.9192 122.743 15.8426 122.617 15.7705L63.7461 145.278C63.9038 145.278 64.0614 145.278 64.2191 145.273L64.2146 145.269Z" fill="#C679F2"/>
<path d="M62.0238 145.281L121.246 15.0084C121.12 14.9408 120.993 14.8732 120.867 14.8057L61.5508 145.286C61.7084 145.286 61.8661 145.286 62.0193 145.286L62.0238 145.281Z" fill="#C679F2"/>
<path d="M59.8409 145.286L119.509 14.0356C119.387 13.9635 119.261 13.8959 119.139 13.8193L59.377 145.286C59.5346 145.286 59.6878 145.286 59.8454 145.286H59.8409Z" fill="#C679F2"/>
<path d="M68.6273 145.17L126.309 18.2841C126.192 18.1985 126.074 18.1129 125.957 18.0273L68.1543 145.183C68.312 145.179 68.4741 145.174 68.6318 145.165L68.6273 145.17Z" fill="#C679F2"/>
<path d="M75.3056 144.889L131.559 21.1479C131.428 21.0938 131.293 21.0443 131.163 20.9902L74.8281 144.912C74.9858 144.907 75.148 144.898 75.3056 144.894V144.889Z" fill="#C679F2"/>
<path d="M101.945 143.931L151.725 34.424C151.608 34.3339 151.491 34.2483 151.378 34.1582L101.463 143.958C101.625 143.949 101.783 143.94 101.945 143.931Z" fill="#C679F2"/>
<path d="M70.8531 145.08L127.989 19.3834C127.868 19.3114 127.742 19.2348 127.62 19.1582L70.3711 145.098C70.5288 145.089 70.6909 145.084 70.8486 145.08H70.8531Z" fill="#C679F2"/>
<path d="M77.5283 144.795L133.408 21.8784C133.277 21.8243 133.142 21.7748 133.011 21.7207L77.0508 144.818C77.2084 144.813 77.3706 144.804 77.5283 144.8V144.795Z" fill="#C679F2"/>
<path d="M126.796 137.291L165.559 52.0188C165.487 51.8432 165.405 51.6675 165.329 51.4873L126.152 137.669C126.373 137.552 126.585 137.422 126.792 137.291H126.796Z" fill="#C679F2"/>
<path d="M145.851 119.391L169.144 68.1509C169.113 67.8761 169.081 67.6058 169.05 67.3311L144.959 120.328C145.261 120.017 145.558 119.706 145.855 119.391H145.851Z" fill="#C679F2"/>
<path d="M130.427 134.106L166.545 54.6536C166.477 54.4554 166.414 54.2572 166.347 54.0635L129.594 134.912C129.873 134.642 130.152 134.371 130.432 134.101L130.427 134.106Z" fill="#C679F2"/>
<path d="M138.482 125.993L168.055 60.9425C168.01 60.6947 167.969 60.447 167.924 60.1992L137.734 126.611C137.978 126.399 138.234 126.196 138.482 125.993Z" fill="#C679F2"/>
<path d="M134.185 130.219C134.311 130.07 134.446 129.926 134.577 129.777L167.393 57.5909C167.339 57.3702 167.28 57.1494 167.226 56.9287L133.631 130.836C133.816 130.628 134.009 130.43 134.189 130.219H134.185Z" fill="#C679F2"/>
<path d="M141.954 123.16L168.639 64.4562C168.598 64.1994 168.558 63.9472 168.517 63.6904L141.17 123.845C141.436 123.62 141.692 123.385 141.954 123.156V123.16Z" fill="#C679F2"/>
<path d="M164.307 98.0062L168.739 88.2538C168.739 88.2132 168.744 88.1727 168.748 88.1321C168.766 87.7898 168.78 87.4474 168.793 87.1006L163.32 99.1414C163.645 98.7585 163.973 98.3801 164.307 98.0062Z" fill="#C679F2"/>
<path d="M150.525 113.912L169.471 72.2356C169.458 71.9247 169.44 71.6184 169.422 71.3076L149.426 115.295C149.795 114.84 150.16 114.376 150.525 113.912Z" fill="#C679F2"/>
<path d="M159.513 103.744L168.986 82.9015C169.004 82.5051 169.031 82.1132 169.054 81.7168L158.518 104.897C158.86 104.524 159.184 104.127 159.513 103.744Z" fill="#C679F2"/>
<path d="M155.699 107.335L169.389 77.2262C169.42 76.8253 169.447 76.4243 169.465 76.0234L154.771 108.348C155.064 108.002 155.375 107.664 155.699 107.339V107.335Z" fill="#C679F2"/>
<path d="M57.656 145.29L117.806 12.9769C117.684 12.8958 117.572 12.8057 117.45 12.7246L57.1875 145.29C57.3452 145.29 57.5028 145.29 57.656 145.29Z" fill="#C679F2"/>
<path d="M111.364 142.417L158.014 39.7978C157.911 39.6852 157.807 39.5726 157.699 39.46L110.855 142.503C111.027 142.476 111.193 142.444 111.364 142.417Z" fill="#C679F2"/>
<path d="M104.265 143.628L153.342 35.6662C153.225 35.5761 153.113 35.486 152.996 35.4004L103.756 143.713C103.927 143.686 104.094 143.655 104.265 143.628Z" fill="#C679F2"/>
<path d="M108.999 142.817L156.514 38.2969C156.406 38.1933 156.293 38.0942 156.18 37.9951L108.49 142.903C108.661 142.876 108.828 142.844 108.999 142.817Z" fill="#C679F2"/>
<path d="M106.634 143.219L154.955 36.9242C154.842 36.8296 154.725 36.7395 154.612 36.6494L106.125 143.305C106.296 143.278 106.463 143.246 106.634 143.219Z" fill="#C679F2"/>
<path d="M113.738 142.003L159.442 41.4604C159.343 41.3343 159.244 41.2082 159.144 41.082L113.225 142.098C113.396 142.071 113.567 142.03 113.738 141.999V142.003Z" fill="#C679F2"/>
<path d="M123.995 138.656L164.469 49.6225C164.388 49.4558 164.307 49.2936 164.226 49.127L123.414 138.899C123.608 138.818 123.801 138.737 123.995 138.656Z" fill="#C679F2"/>
<path d="M121.31 139.755L163.297 47.3878C163.212 47.2346 163.126 47.077 163.04 46.9238L120.742 139.975C120.931 139.903 121.121 139.831 121.31 139.755Z" fill="#C679F2"/>
<path d="M118.698 140.705L162.073 45.2934C161.983 45.1492 161.893 45.0006 161.803 44.8564L118.148 140.885C118.333 140.827 118.518 140.764 118.703 140.701L118.698 140.705Z" fill="#C679F2"/>
<path d="M116.166 141.467L160.788 43.3074C160.748 43.2443 160.707 43.1813 160.662 43.1182C160.613 43.0416 160.554 42.9695 160.504 42.8975L115.639 141.598C115.814 141.553 115.99 141.517 116.166 141.472V141.467Z" fill="#C679F2"/>
<path d="M1.66774 90.7399L29.5827 29.3242C29.308 29.572 29.0422 29.8197 28.7719 30.0765L1.53711 89.9922C1.57765 90.2399 1.6227 90.4877 1.66774 90.7354V90.7399Z" fill="#C679F2"/>
<path d="M11.5819 121.764L63.6686 7.17578C63.4929 7.20731 63.3217 7.24786 63.1505 7.28389L11.3477 121.246C11.4242 121.417 11.5008 121.593 11.5819 121.764Z" fill="#C679F2"/>
<path d="M10.532 119.264L61.1727 7.86523C60.9835 7.9328 60.7943 8.00037 60.6051 8.07695L10.3203 118.696C10.3969 118.881 10.4645 119.075 10.532 119.268V119.264Z" fill="#C679F2"/>
<path d="M9.37004 117.02L58.3981 9.1709C58.1909 9.29252 57.9837 9.40964 57.781 9.54028C57.772 9.54478 57.7629 9.55379 57.7539 9.55829L9.11328 116.552C9.19887 116.709 9.27995 116.867 9.37004 117.02Z" fill="#C679F2"/>
<path d="M8.22192 114.741L55.3355 11.1035C55.1148 11.2432 54.8941 11.3873 54.6733 11.5269L7.99219 114.214C8.06877 114.389 8.14534 114.565 8.22192 114.741Z" fill="#C679F2"/>
<path d="M6.13148 109.731L49.1729 15.0537C48.9522 15.1979 48.7315 15.3375 48.5107 15.4816L5.90625 109.2C5.98283 109.376 6.0549 109.556 6.13598 109.731H6.13148Z" fill="#C679F2"/>
<path d="M7.1758 112.236L52.2533 13.0723C52.0326 13.2164 51.8119 13.3561 51.5911 13.5002L6.95508 111.687C7.02715 111.867 7.10373 112.052 7.1758 112.232V112.236Z" fill="#C679F2"/>
<path d="M17.208 128.594L74.8534 1.78906C74.6507 1.87915 74.4525 1.96925 74.2543 2.06835L16.8477 128.35C16.9648 128.431 17.0864 128.508 17.208 128.589V128.594Z" fill="#C679F2"/>
<path d="M12.5097 123.737C12.5683 123.863 12.6359 123.98 12.6989 124.102L65.9883 6.8877C65.8397 6.90571 65.6955 6.92824 65.5424 6.93725C65.5244 6.93725 65.5108 6.93725 65.4928 6.94175L12.4512 123.615C12.4692 123.656 12.4872 123.696 12.5097 123.737Z" fill="#C679F2"/>
<path d="M15.5533 127.426L71.7707 3.76172C71.5725 3.92839 71.3743 4.09956 71.1851 4.27975C71.1175 4.34281 71.0499 4.39687 70.9824 4.45543L15.2109 127.156C15.3236 127.251 15.4407 127.336 15.5578 127.426H15.5533Z" fill="#C679F2"/>
<path d="M14.0186 126.002L68.4972 6.16211C68.3035 6.2522 68.1098 6.33779 67.9116 6.41437L13.7168 125.642C13.8159 125.764 13.915 125.885 14.0231 126.007L14.0186 126.002Z" fill="#C679F2"/>
<path d="M0.548828 78.7801L14.5356 48.0137C14.0987 48.6218 13.6662 49.2344 13.2338 49.847L0.625406 77.5774C0.593874 77.9783 0.566847 78.3792 0.548828 78.7756V78.7801Z" fill="#C679F2"/>
<path d="M1.08587 87.2086L25.5503 33.3877C25.217 33.7616 24.8882 34.14 24.5638 34.5229L0.96875 86.4339C1.00479 86.6906 1.04533 86.9519 1.08587 87.2086Z" fill="#C679F2"/>
<path d="M18.9065 129.665L77.4077 0.977539C77.2365 1.01358 77.0609 1.0406 76.8897 1.08114L18.5371 129.44C18.6587 129.516 18.7804 129.593 18.902 129.665H18.9065Z" fill="#C679F2"/>
<path d="M0.626919 83.4199L20.312 40.1172C19.9021 40.6803 19.4877 41.2433 19.0778 41.8019L0.568359 82.5145C0.586378 82.8163 0.604396 83.1181 0.626919 83.4199Z" fill="#C679F2"/>
<path d="M2.03608 69.9692C1.8604 70.5683 1.70274 71.1629 1.55859 71.7575L7.69386 58.2617C7.01366 59.3563 6.35149 60.4555 5.71634 61.5771L2.32888 69.0277C2.22527 69.3385 2.12617 69.6539 2.03608 69.9692Z" fill="#C679F2"/>
<path d="M2.93847 97.5422L36.5923 23.5137C36.3401 23.7119 36.0923 23.9191 35.8446 24.1263L2.79883 96.8215L2.93847 97.5468V97.5422Z" fill="#C679F2"/>
<path d="M2.28943 94.1673L32.9207 26.792C32.7811 26.8776 32.6369 26.9677 32.5018 27.0533C32.4162 27.1073 32.3396 27.1659 32.2585 27.2244L2.1543 93.433C2.19934 93.6763 2.24439 93.9195 2.28943 94.1673Z" fill="#C679F2"/>
<path d="M55.471 145.295L116.152 11.8103C116.035 11.7247 115.914 11.6436 115.797 11.5625L54.998 145.3C55.1557 145.3 55.3134 145.3 55.4665 145.3L55.471 145.295Z" fill="#C679F2"/>
<path d="M4.26118 104.245L43.0953 18.8154C42.8701 18.9596 42.6449 19.1082 42.4241 19.2614L4.10352 103.56C4.15307 103.79 4.20712 104.02 4.26118 104.245Z" fill="#C679F2"/>
<path d="M5.12008 107.155L46.0984 17.0137C45.8867 17.1443 45.6705 17.2704 45.4542 17.3966L4.92188 106.561C4.98494 106.759 5.05251 106.961 5.12008 107.16V107.155Z" fill="#C679F2"/>
<path d="M3.58496 100.925L39.8515 21.1445C39.6217 21.3067 39.392 21.4734 39.1578 21.6355L3.44531 100.196C3.49036 100.439 3.5354 100.682 3.58045 100.925H3.58496Z" fill="#C679F2"/>
<path d="M42.4475 145.12L105.242 6.98616C105.106 6.93661 104.976 6.88256 104.841 6.83301L42.0195 145.03C42.1637 145.061 42.3033 145.093 42.4475 145.115V145.12Z" fill="#C679F2"/>
<path d="M40.498 144.61L103.387 6.26937C103.252 6.21982 103.121 6.16576 102.986 6.11621L40.1016 144.452C40.2322 144.506 40.3628 144.561 40.498 144.61Z" fill="#C679F2"/>
<path d="M38.6963 143.772L101.526 5.55745C101.391 5.5079 101.261 5.45385 101.126 5.4043L38.3359 143.533C38.4576 143.61 38.5747 143.695 38.6963 143.768V143.772Z" fill="#C679F2"/>
<path d="M44.5143 145.377L107.101 7.70296C106.966 7.65341 106.835 7.59936 106.7 7.5498L44.0684 145.327C44.217 145.345 44.3657 145.359 44.5143 145.377Z" fill="#C679F2"/>
<path d="M46.6054 145.588L108.958 8.41878C108.823 8.36923 108.692 8.31518 108.557 8.26562L46.1504 145.548C46.299 145.561 46.4522 145.575 46.6009 145.588H46.6054Z" fill="#C679F2"/>
<path d="M51.0065 145.506L112.665 9.86822C112.535 9.81416 112.404 9.76011 112.269 9.70605L50.502 145.583C50.6686 145.565 50.8398 145.533 51.0065 145.506Z" fill="#C679F2"/>
<path d="M53.2855 145.3L114.453 10.7388C114.327 10.6713 114.201 10.6037 114.075 10.5361L52.8125 145.309C52.9702 145.309 53.1278 145.305 53.2855 145.305V145.3Z" fill="#C679F2"/>
<path d="M48.7439 145.674L110.817 9.13558C110.682 9.08603 110.551 9.03197 110.416 8.98242L48.2754 145.674C48.4331 145.674 48.5862 145.674 48.7439 145.674Z" fill="#C679F2"/>
<path d="M37.0562 142.57L99.6701 4.84163C99.5349 4.79208 99.4043 4.73803 99.2692 4.68848L36.7363 142.25C36.8444 142.358 36.948 142.471 37.0607 142.57H37.0562Z" fill="#C679F2"/>
<path d="M32.4966 138.192L94.0204 2.85556C93.9889 2.84655 93.9574 2.83754 93.9213 2.82853C93.8132 2.8015 93.7051 2.77898 93.597 2.75195L32.1543 137.912C32.2669 138.007 32.384 138.097 32.4966 138.192Z" fill="#C679F2"/>
<path d="M25.8864 133.511L85.9507 1.38668C85.802 1.36867 85.6534 1.34614 85.5092 1.32812L25.5215 133.29C25.6431 133.362 25.7647 133.439 25.8909 133.516L25.8864 133.511Z" fill="#C679F2"/>
<path d="M27.5914 134.579L88.0026 1.67499C87.8585 1.65247 87.7098 1.62994 87.5612 1.60742L27.2266 134.344C27.3482 134.421 27.4698 134.498 27.5914 134.579Z" fill="#C679F2"/>
<path d="M24.1668 132.498L83.8843 1.13511C83.7357 1.11709 83.587 1.09907 83.4384 1.08105L23.793 132.287C23.9191 132.359 24.0407 132.426 24.1668 132.498Z" fill="#C679F2"/>
<path d="M22.4253 131.534L81.8049 0.905398C81.6562 0.891884 81.5076 0.873865 81.3544 0.860352L22.0469 131.332C22.173 131.399 22.2991 131.467 22.4253 131.534Z" fill="#C679F2"/>
<path d="M20.6641 130.606L79.7149 0.702865C79.5618 0.693856 79.4041 0.689351 79.2464 0.702865L20.2812 130.408C20.4074 130.471 20.5335 130.539 20.6596 130.602L20.6641 130.606Z" fill="#C679F2"/>
<path d="M34.0554 139.569L95.9396 3.43592C95.8044 3.39087 95.6693 3.34132 95.5342 3.30078L33.7266 139.263C33.8392 139.362 33.9473 139.466 34.0554 139.569Z" fill="#C679F2"/>
<path d="M35.5685 141.044L97.813 4.12191C97.6779 4.07236 97.5472 4.0183 97.4121 3.96875L35.2441 140.719C35.3523 140.827 35.4604 140.936 35.564 141.044H35.5685Z" fill="#C679F2"/>
<path d="M29.2582 135.71L90.0342 2.0131C89.8901 1.98607 89.746 1.96355 89.5973 1.93652L28.9023 135.462C29.0195 135.543 29.1411 135.628 29.2582 135.71Z" fill="#C679F2"/>
<path d="M30.8982 136.907L92.0436 2.40004C91.8995 2.36851 91.7554 2.34148 91.6112 2.31445L30.5469 136.646C30.664 136.732 30.7811 136.822 30.8937 136.912L30.8982 136.907Z" fill="#C679F2"/>
<path d="M128.764 74.0738C116.129 70.3214 102.795 77.5468 99.0386 90.1822C97.2188 96.3039 97.8945 102.768 100.94 108.381C103.98 113.994 109.03 118.088 115.152 119.908C117.404 120.579 119.706 120.908 121.99 120.908C125.913 120.908 129.801 119.931 133.35 118.007C138.963 114.967 143.058 109.917 144.877 103.795C146.697 97.6733 146.022 91.2092 142.976 85.5965C139.931 79.9838 134.886 75.8891 128.764 74.0692V74.0738ZM144.463 103.678C142.679 109.692 138.657 114.647 133.143 117.633C127.629 120.62 121.282 121.286 115.269 119.498C102.859 115.813 95.7593 102.718 99.4486 90.3038C102.476 80.1144 111.841 73.5062 121.967 73.5062C124.174 73.5062 126.418 73.8215 128.643 74.4792C141.053 78.1684 148.152 91.2633 144.463 103.673V103.678Z" fill="#00F02B"/>
<path d="M124.139 83.4335C116.662 82.2263 109.603 87.3345 108.4 94.8076C107.197 102.281 112.301 109.344 119.774 110.547C120.509 110.664 121.243 110.722 121.964 110.722C128.581 110.722 134.428 105.911 135.513 99.1726C136.716 91.6995 131.612 84.6363 124.139 83.4335ZM135.09 99.105C134.527 102.614 132.63 105.691 129.748 107.772C126.869 109.853 123.351 110.686 119.842 110.123C112.599 108.957 107.657 102.119 108.819 94.8752C109.869 88.3435 115.535 83.6858 121.946 83.6858C122.644 83.6858 123.355 83.7398 124.067 83.857C127.576 84.42 130.653 86.3165 132.734 89.1994C134.815 92.0779 135.653 95.5959 135.085 99.105H135.09Z" fill="#00F02B"/>
<path d="M127.607 76.4158C122.111 74.9068 116.355 75.6275 111.399 78.4429C106.444 81.2627 102.886 85.8394 101.377 91.335C99.8677 96.8306 100.588 102.588 103.404 107.543C106.224 112.498 110.8 116.056 116.296 117.565C118.174 118.083 120.084 118.336 121.981 118.336C125.634 118.336 129.238 117.39 132.499 115.534C137.454 112.714 141.013 108.137 142.522 102.642C145.639 91.2945 138.945 79.5285 127.598 76.4113L127.607 76.4158ZM142.121 102.529C140.639 107.916 137.152 112.403 132.296 115.164C127.44 117.926 121.801 118.633 116.418 117.155C111.03 115.673 106.544 112.187 103.782 107.331C101.021 102.475 100.314 96.8351 101.791 91.4522C103.273 86.0647 106.76 81.5781 111.616 78.8168C114.809 76.9969 118.346 76.0735 121.922 76.0735C123.783 76.0735 125.652 76.3257 127.494 76.8302C138.612 79.8843 145.175 91.4161 142.121 102.533V102.529Z" fill="#00F02B"/>
<path d="M125.296 81.0954C121.053 80.2035 116.71 81.0188 113.079 83.3883C109.444 85.7577 106.953 89.4019 106.061 93.6497C105.169 97.8976 105.985 102.235 108.354 105.866C110.723 109.501 114.368 111.992 118.616 112.884C119.737 113.119 120.859 113.236 121.958 113.236C129.476 113.236 136.242 107.974 137.85 100.33C139.693 91.5641 134.062 82.9333 125.296 81.0909V81.0954ZM137.436 100.244C135.873 107.686 129.282 112.808 121.962 112.808C120.89 112.808 119.796 112.695 118.706 112.47C114.57 111.601 111.021 109.173 108.714 105.636C106.408 102.1 105.611 97.875 106.48 93.7398C107.35 89.6046 109.778 86.055 113.314 83.7486C115.917 82.0504 118.89 81.172 121.926 81.172C123.017 81.172 124.12 81.2846 125.21 81.5143C133.746 83.3072 139.229 91.7127 137.436 100.244Z" fill="#00F02B"/>
<path d="M126.454 78.7538C116.4 76.2763 106.202 82.4385 103.72 92.4928C101.242 102.547 107.404 112.745 117.459 115.228C118.963 115.597 120.472 115.777 121.954 115.777C130.391 115.777 138.081 110.043 140.193 101.488C141.396 96.619 140.626 91.5694 138.031 87.2765C135.436 82.9836 131.324 79.9565 126.454 78.7538ZM139.779 101.385C137.355 111.209 127.391 117.237 117.562 114.809C107.738 112.385 101.715 102.421 104.139 92.5919C106.202 84.2359 113.715 78.6322 121.959 78.6322C123.409 78.6322 124.882 78.8033 126.355 79.1682C131.117 80.3439 135.135 83.2989 137.671 87.4972C140.207 91.6955 140.955 96.628 139.783 101.385H139.779Z" fill="#00F02B"/>
<path d="M135.675 60.0285C115.292 52.4653 92.5572 62.8935 84.994 83.2723C81.3318 93.1463 81.7282 103.854 86.1202 113.426C90.5121 122.998 98.3636 130.287 108.238 133.954C112.706 135.611 117.346 136.44 121.977 136.44C124.198 136.44 126.414 136.246 128.608 135.868C128.792 135.688 128.977 135.512 129.162 135.336C122.27 136.643 115.134 136.062 108.386 133.557C88.2283 126.075 77.9128 103.583 85.3949 83.4254C91.2239 67.7224 106.152 57.9925 121.999 57.9925C126.499 57.9925 131.072 58.7763 135.527 60.4294C145.293 64.0556 153.063 71.263 157.405 80.7317C160.572 87.6372 161.631 95.1374 160.572 102.48C160.743 102.273 160.919 102.065 161.086 101.858C161.996 94.6554 160.896 87.3219 157.793 80.556C153.401 70.9837 145.549 63.6953 135.675 60.0285Z" fill="#00F02B"/>
<path d="M29.7303 132.646C20.2075 108.011 20.8472 81.1452 31.5321 56.9915C42.217 32.8379 61.6679 14.2879 86.299 4.76521C88.4072 3.94988 90.5333 3.21112 92.673 2.54444C92.3982 2.48138 92.1235 2.42282 91.8442 2.36426C89.9342 2.97688 88.0333 3.63906 86.1458 4.3688C61.4066 13.9321 41.8702 32.5586 31.1402 56.8203C20.4103 81.0776 19.7661 108.06 29.3339 132.804C29.8924 134.245 30.4825 135.669 31.0997 137.074C31.3429 137.263 31.5817 137.448 31.8204 137.642C31.0816 136.002 30.3834 134.34 29.7303 132.651V132.646Z" fill="#00F02B"/>
<path d="M61.8221 121.682C55.2274 105.619 55.2814 87.9515 61.9707 71.9286C72.3809 47.0182 96.5886 31.9819 122.04 31.9819C130.378 31.9819 138.851 33.5945 147.013 37.0045C152.792 39.419 158.036 42.5767 162.685 46.32C162.482 45.9732 162.275 45.6308 162.063 45.2839C157.603 41.8244 152.626 38.8874 147.175 36.6081C113.886 22.6979 75.4845 38.4685 61.5743 71.762C54.8355 87.8884 54.7814 105.673 61.4212 121.84C65.0519 130.687 70.4574 138.466 77.2413 144.804C77.4395 144.795 77.6422 144.786 77.8404 144.777C70.9529 138.43 65.4798 130.601 61.8176 121.677L61.8221 121.682Z" fill="#00F02B"/>
<path d="M17.4835 50.0908C20.7853 42.7348 24.7944 35.8428 29.4252 29.4688C29.1369 29.7345 28.8486 30.0003 28.5648 30.2706C28.3035 30.5183 28.0468 30.7706 27.79 31.0273C23.6863 36.9149 20.0961 43.2258 17.0916 49.9196C7.76705 70.6948 4.86158 93.2358 8.43373 115.205C8.63644 115.642 8.85266 116.074 9.0869 116.502C5.18141 94.1863 8.00129 71.2219 17.4835 50.0953V50.0908Z" fill="#00F02B"/>
<path d="M15.1402 48.9417C15.9195 47.2074 16.7394 45.5001 17.5953 43.8154C17.1043 44.4821 16.6178 45.1488 16.1313 45.811C15.6583 46.7885 15.1988 47.7705 14.7529 48.7615C6.5725 66.9465 3.20757 86.4605 4.68958 105.799C4.86526 106.38 5.05445 106.961 5.25716 107.533C3.4328 87.6857 6.74368 67.6087 15.1402 48.9372V48.9417Z" fill="#00F02B"/>
<path d="M0.527784 81.6183C1.22149 76.1947 2.28908 70.8117 3.71704 65.4873C3.27108 66.4693 2.86567 67.4783 2.5053 68.5144C1.73502 71.7172 1.08635 74.9425 0.581839 78.1813C0.509766 79.3254 0.491747 80.4741 0.527784 81.6228V81.6183Z" fill="#00F02B"/>
<path d="M107.238 135.895C85.7867 127.777 74.9351 103.723 83.0524 82.2718C89.3408 65.6498 105.197 55.3929 122.004 55.3929C126.882 55.3929 131.846 56.2577 136.675 58.0866C153.919 64.6093 164.306 81.4294 163.509 98.9208C163.658 98.7451 163.811 98.5739 163.96 98.4028C164.532 80.9294 154.072 64.2129 136.828 57.6902C115.152 49.4918 90.8544 60.4515 82.656 82.1231C74.4577 103.795 85.4173 128.097 107.089 136.295C111.967 138.142 116.981 139.016 121.914 139.016C122.346 139.016 122.774 139.007 123.202 138.994C123.576 138.836 123.95 138.678 124.324 138.516C118.675 138.845 112.868 138.025 107.242 135.895H107.238Z" fill="#00F02B"/>
<path d="M119.389 92.8305C117.096 94.2449 116.38 97.2585 117.794 99.5558C118.479 100.668 119.556 101.448 120.826 101.745C121.204 101.835 121.587 101.88 121.966 101.88C122.862 101.88 123.74 101.632 124.52 101.15C126.812 99.736 127.529 96.7224 126.114 94.4251C124.7 92.1323 121.686 91.4115 119.389 92.8305ZM124.294 100.786C123.281 101.412 122.083 101.601 120.925 101.326C119.767 101.051 118.785 100.34 118.159 99.3261C116.871 97.2315 117.524 94.4792 119.619 93.1908C120.344 92.7449 121.155 92.5287 121.952 92.5287C123.448 92.5287 124.916 93.2809 125.758 94.6503C127.047 96.745 126.394 99.4973 124.299 100.786H124.294Z" fill="#00F02B"/>
<path d="M121.8 88.1139C119.431 88.1545 117.219 89.1185 115.571 90.8257C113.922 92.533 113.039 94.7762 113.079 97.1457C113.12 99.5151 114.084 101.727 115.791 103.376C117.458 104.984 119.643 105.867 121.954 105.867C122.008 105.867 122.062 105.867 122.116 105.867C127.008 105.781 130.922 101.727 130.837 96.8348C130.796 94.4654 129.832 92.2537 128.125 90.605C126.418 88.9563 124.192 88.0689 121.805 88.1139H121.8ZM122.102 105.439C122.053 105.439 122.003 105.439 121.949 105.439C119.751 105.439 117.67 104.601 116.084 103.069C114.462 101.502 113.543 99.3935 113.503 97.1366C113.422 92.4789 117.143 88.623 121.805 88.5419C121.854 88.5419 121.904 88.5419 121.954 88.5419C126.544 88.5419 130.319 92.2356 130.4 96.8439C130.481 101.502 126.76 105.358 122.098 105.439H122.102Z" fill="#00F02B"/>
<path d="M120.612 90.4612C117.013 91.2044 114.684 94.736 115.427 98.3352C115.788 100.078 116.801 101.579 118.292 102.561C119.396 103.286 120.657 103.66 121.945 103.66C122.396 103.66 122.851 103.615 123.306 103.52C125.049 103.16 126.549 102.146 127.531 100.655C128.509 99.1686 128.851 97.3892 128.491 95.646C127.747 92.0468 124.22 89.7224 120.617 90.4612H120.612ZM127.166 100.421C126.252 101.813 124.846 102.763 123.216 103.101C121.585 103.439 119.918 103.119 118.526 102.2C117.135 101.286 116.184 99.8803 115.846 98.2496C115.153 94.8802 117.328 91.5738 120.698 90.8801C121.121 90.7945 121.545 90.7495 121.959 90.7495C124.855 90.7495 127.464 92.7855 128.067 95.7315C128.405 97.3622 128.085 99.0289 127.166 100.421Z" fill="#00F02B"/>
<path d="M133.373 64.7078C124.751 61.6581 115.458 62.1491 107.206 66.0907C98.9534 70.0322 92.7281 76.9513 89.6785 85.5731C86.6288 94.1949 87.1198 103.488 91.0614 111.74C95.0029 119.993 101.922 126.218 110.544 129.268C114.305 130.597 118.148 131.227 121.927 131.227C126.864 131.227 131.693 130.146 136.103 128.146C136.418 127.826 136.743 127.515 137.071 127.214C132.418 129.538 127.238 130.804 121.927 130.799C118.193 130.799 114.4 130.178 110.683 128.862C102.17 125.849 95.3362 119.704 91.4443 111.556C87.5523 103.407 87.0703 94.2264 90.0794 85.7127C93.0884 77.199 99.2372 70.3655 107.386 66.4736C112.008 64.2663 116.958 63.1582 121.931 63.1582C125.729 63.1582 129.544 63.8068 133.229 65.1087C141.743 68.1177 148.576 74.2665 152.468 82.4153C156.36 90.5641 156.842 99.7445 153.833 108.258C153.495 109.213 153.112 110.146 152.702 111.051C153.067 110.556 153.428 110.06 153.797 109.569C153.95 109.182 154.099 108.794 154.238 108.402C157.288 99.7806 156.797 90.4876 152.855 82.2351C148.914 73.9827 141.995 67.7574 133.373 64.7078Z" fill="#00F02B"/>
<path d="M122.971 85.7713C119.971 85.501 117.052 86.4109 114.741 88.3389C112.43 90.2669 111.006 92.9741 110.736 95.9742C110.466 98.9697 111.376 101.893 113.304 104.204C115.232 106.515 117.939 107.938 120.939 108.209C121.281 108.24 121.624 108.254 121.966 108.254C127.723 108.254 132.646 103.848 133.174 98.0058C133.444 95.0102 132.534 92.0867 130.606 89.7759C128.678 87.465 125.971 86.0416 122.971 85.7713ZM132.746 97.9697C132.484 100.853 131.115 103.461 128.894 105.312C126.673 107.164 123.858 108.047 120.975 107.781C118.092 107.519 115.484 106.15 113.633 103.929C111.777 101.709 110.903 98.8932 111.164 96.0102C111.425 93.1273 112.795 90.5191 115.015 88.6677C116.979 87.0281 119.407 86.1542 121.935 86.1542C122.268 86.1542 122.597 86.1677 122.93 86.1992C125.813 86.4605 128.421 87.8299 130.273 90.0506C132.128 92.2714 133.002 95.0868 132.741 97.9652L132.746 97.9697Z" fill="#00F02B"/>
<path d="M123.68 93.1954C121.59 92.2449 119.112 93.1729 118.157 95.2675C117.698 96.2811 117.657 97.4162 118.049 98.4568C118.441 99.5018 119.211 100.326 120.229 100.79C120.779 101.042 121.364 101.164 121.954 101.164C122.45 101.164 122.945 101.074 123.418 100.898C124.463 100.506 125.288 99.7361 125.752 98.718C126.702 96.6234 125.774 94.1504 123.68 93.1954ZM125.364 98.5379C124.95 99.4478 124.207 100.141 123.27 100.493C122.333 100.844 121.319 100.808 120.409 100.394C119.499 99.9793 118.806 99.2361 118.454 98.2991C118.103 97.3622 118.139 96.3486 118.553 95.4387C119.18 94.0603 120.544 93.245 121.968 93.245C122.486 93.245 123.008 93.3531 123.508 93.5783C125.387 94.4342 126.22 96.6549 125.364 98.5334V98.5379Z" fill="#00F02B"/>
<path d="M27.2624 133.489C17.5144 108.195 18.1991 80.6183 29.1904 55.8385C40.1816 31.0587 60.164 12.0448 85.4573 2.29684C86.0969 2.04909 86.7321 1.81485 87.3763 1.58511C87.0835 1.54457 86.7862 1.49953 86.4934 1.45898C86.0969 1.60764 85.7005 1.74728 85.3086 1.90044C59.9072 11.6889 39.8392 30.7839 28.803 55.6673C17.7667 80.5507 17.0775 108.24 26.866 133.642C26.9471 133.854 27.0372 134.065 27.1182 134.277C27.3255 134.408 27.5327 134.538 27.7354 134.673C27.5777 134.277 27.4155 133.885 27.2624 133.489Z" fill="#00F02B"/>
<path d="M42.8489 62.5637C30.6054 90.6994 34.601 121.871 50.6869 145.552C50.8445 145.534 50.9977 145.507 51.1553 145.48C35.0559 121.894 31.0288 90.794 43.2408 62.7304C56.3672 32.5766 84.8407 13.7429 115.562 11.396C115.359 11.2653 115.148 11.1437 114.94 11.0176C84.2957 13.5717 55.9572 32.446 42.8489 62.5637Z" fill="#00F02B"/>
<path d="M35.8224 59.1186C25.7051 82.1236 25.1555 107.696 34.2683 131.116C36.1152 135.868 38.327 140.409 40.8541 144.724C41.0523 144.787 41.2505 144.85 41.4532 144.904C38.8405 140.49 36.5657 135.836 34.6647 130.958C25.5925 107.642 26.142 82.1912 36.2098 59.2853C48.6695 30.9694 73.5304 11.8834 101.63 5.595C101.364 5.49139 101.094 5.38779 100.828 5.28418C96.4453 6.30222 92.1029 7.64008 87.8325 9.30228C64.4086 18.4151 45.9397 36.1091 35.8224 59.1141V59.1186Z" fill="#00F02B"/>
<path d="M38.1635 60.2671C25.6047 88.9209 28.9606 120.602 44.3438 145.359C44.524 145.382 44.7042 145.4 44.8799 145.418C29.4201 120.732 26.0056 89.0695 38.5554 60.4383C51.2268 31.5278 77.1958 12.4869 106.165 7.3426C105.908 7.2435 105.656 7.1444 105.399 7.0498C76.5742 12.4013 50.7944 31.4557 38.1635 60.2671Z" fill="#00F02B"/>
<path d="M40.5041 61.4148C28.0715 89.8838 31.7922 121.394 47.6169 145.651C47.7926 145.66 47.9638 145.664 48.1394 145.669C32.2517 121.497 28.4814 90.0145 40.896 61.586C53.8287 31.9772 81.1221 12.9948 111.069 9.22901C110.789 9.1209 110.51 9.01279 110.235 8.90918C80.4509 12.9228 53.3873 31.9232 40.5041 61.4148Z" fill="#00F02B"/>
<path d="M49.8712 66.015C41.5963 85.2677 41.317 106.592 49.0829 126.057C51.8713 133.052 55.5876 139.503 60.0877 145.287C60.2678 145.287 60.448 145.287 60.6282 145.287C56.0605 139.467 52.2947 132.962 49.4793 125.899C41.7584 106.538 42.0377 85.3308 50.2631 66.1817C58.493 47.0327 73.6825 32.235 93.0433 24.5142C102.399 20.7799 112.188 18.9195 121.967 18.9195C123.837 18.9195 125.706 18.9915 127.571 19.1267C127.346 18.9825 127.116 18.8384 126.895 18.6897C94.746 16.6942 63.2994 34.7666 49.8757 66.015H49.8712Z" fill="#00F02B"/>
<path d="M47.5327 64.865C38.9515 84.7438 38.6272 106.776 46.6138 126.898C49.249 133.533 52.686 139.695 56.8212 145.286C56.9969 145.286 57.1726 145.286 57.3528 145.286C53.159 139.655 49.6724 133.439 47.0147 126.74C39.0686 106.722 39.3929 84.8069 47.9291 65.0317C56.4654 45.2565 72.1909 29.9904 92.2094 22.0443C101.845 18.2199 111.917 16.31 121.98 16.31C122.507 16.31 123.03 16.319 123.557 16.328C123.318 16.1793 123.075 16.0307 122.836 15.8865C112.435 15.7739 102.011 17.6884 92.0562 21.6434C71.9342 29.6346 56.123 44.9817 47.5418 64.8605L47.5327 64.865Z" fill="#00F02B"/>
<path d="M45.1919 63.7171C33.1646 91.461 37.4034 122.227 53.6741 145.304C53.8497 145.304 54.0254 145.304 54.2011 145.304C37.8719 122.322 33.579 91.5916 45.5838 63.8883C54.4263 43.487 70.6834 27.7524 91.3595 19.5811C100.333 16.036 109.671 14.1035 119.04 13.7656C118.851 13.6485 118.662 13.5269 118.477 13.4053C87.454 14.7476 58.3498 33.3651 45.1919 63.7171Z" fill="#00F02B"/>
<path d="M24.1146 53.3659C13.1819 77.8845 11.8215 105.02 20.1505 130.341C20.3352 130.435 20.5154 130.53 20.7001 130.624C12.254 105.281 13.5558 78.0962 24.5065 53.5416C33.1463 34.1673 47.016 18.1625 64.5208 7.03613C64.165 7.08118 63.8136 7.13974 63.4622 7.21181C46.2817 18.3562 32.6508 34.2214 24.1146 53.3659Z" fill="#00F02B"/>
<path d="M16.7786 128.303C16.9633 128.434 17.1525 128.556 17.3417 128.682C9.66585 103.483 11.31 76.6763 22.1616 52.392C28.8239 37.4863 38.5088 24.5355 50.5181 14.1885C49.7343 14.693 48.9459 15.1975 48.1621 15.702C37.0628 25.7698 28.0716 38.1259 21.7697 52.2163C10.9452 76.433 9.24692 103.154 16.7786 128.303Z" fill="#00F02B"/>
<path d="M13.106 124.799C13.3177 125.128 13.5474 125.439 13.7907 125.736C7.16442 100.993 9.205 74.938 19.8223 51.2438C24.7414 40.2616 31.264 30.3199 39.1245 21.6621C38.593 22.036 38.066 22.4099 37.5434 22.7973C30.219 31.1488 24.1062 40.6445 19.4349 51.0681C8.93022 74.5236 6.79054 100.276 13.1105 124.799H13.106Z" fill="#00F02B"/>
<path d="M2.20743 93.7175C2.56779 80.5056 5.14893 67.3611 9.92831 54.7393C9.80218 54.933 9.67605 55.1221 9.55443 55.3158C9.31568 55.6897 9.08144 56.0636 8.8427 56.4375C4.70297 67.9242 2.3741 79.8209 1.85156 91.7896C1.96868 92.4337 2.0858 93.0734 2.20743 93.7175Z" fill="#00F02B"/>
<path d="M52.2148 67.1668C44.2506 85.7933 44.0119 106.411 51.5526 125.218C54.5076 132.583 58.5167 139.321 63.4177 145.277C63.6024 145.277 63.7826 145.277 63.9673 145.272C58.9942 139.285 54.9265 132.492 51.949 125.055C44.4533 106.357 44.6876 85.8564 52.6067 67.3335C64.8366 38.7338 92.7561 21.5667 122.059 21.5667C126.464 21.5667 130.901 21.9586 135.325 22.756C134.843 22.5172 134.352 22.292 133.856 22.0758C100.346 16.7558 66.1475 34.5805 52.2148 67.1668Z" fill="#00F02B"/>
<path d="M33.4841 57.9654C23.0605 81.5965 22.4613 107.876 31.8039 131.953C33.1102 135.318 34.5922 138.584 36.2364 141.742C36.2679 141.773 36.295 141.805 36.3265 141.837C36.6103 142.147 36.9076 142.427 37.2139 142.692C35.3355 139.197 33.6643 135.562 32.2048 131.8C22.9073 107.827 23.5019 81.6641 33.876 58.1366C44.2546 34.6091 63.1739 16.5321 87.1474 7.23463C90.4943 5.93731 93.8817 4.83819 97.2962 3.92375C97.0665 3.83817 96.8368 3.75258 96.6025 3.66699C93.3682 4.5544 90.161 5.60397 86.9897 6.83372C62.9081 16.1718 43.9077 34.3298 33.4841 57.9654Z" fill="#00F02B"/>
<path d="M26.4555 54.5184C15.4508 79.2622 14.4328 106.727 23.523 132.137C23.7167 132.245 23.9059 132.353 24.0996 132.461C14.8652 107.024 15.8157 79.4874 26.8474 54.6896C37.7486 30.1756 57.2355 11.1797 81.9026 0.918217C81.6098 0.886685 81.317 0.859657 81.0242 0.828125C56.5913 11.2022 37.2981 30.1441 26.4555 54.5184Z" fill="#00F02B"/>
<path d="M142.58 45.9824C128.954 40.4733 113.999 40.5994 100.471 46.3383C86.9396 52.0771 76.4574 62.744 70.9482 76.3659C65.4391 89.9924 65.5653 104.948 71.3041 118.475C75.8853 129.277 83.6107 138.138 93.4757 144.075C93.7325 144.061 93.9938 144.052 94.2505 144.043C84.1963 138.151 76.3312 129.232 71.696 118.308C66.0022 104.885 65.8761 90.0464 71.3401 76.5236C76.8042 63.0008 87.2098 52.424 100.634 46.7257C107.49 43.8157 114.715 42.3607 121.945 42.3607C129.175 42.3607 135.801 43.6986 142.414 46.3698C153.9 51.0141 163.261 59.2214 169.311 69.8163C169.279 69.4784 169.248 69.1406 169.212 68.8027C163.103 58.5142 153.855 50.5366 142.571 45.9734L142.58 45.9824Z" fill="#00F02B"/>
<path d="M139.124 53.0052C127.376 48.4196 114.542 48.6808 102.992 53.7485C91.4424 58.8117 82.5548 68.0731 77.9691 79.8211C73.3834 91.5691 73.6447 104.403 78.7124 115.953C83.78 127.502 93.037 136.39 104.785 140.976C106.492 141.642 108.213 142.201 109.947 142.656C110.294 142.597 110.641 142.539 110.988 142.48C108.952 141.985 106.929 141.354 104.943 140.575C93.2983 136.029 84.1224 127.223 79.1043 115.777C74.0862 104.331 73.8249 91.6142 78.37 79.9698C82.9152 68.3254 91.7217 59.1495 103.168 54.1314C109.19 51.4917 115.56 50.1673 121.943 50.1673C127.695 50.1673 133.452 51.244 138.97 53.3971C150.615 57.9423 159.791 66.7488 164.809 78.195C166.615 82.3122 167.8 86.5915 168.372 90.925C168.462 90.524 168.539 90.1141 168.597 89.6997C166.066 73.6543 155.322 59.3207 139.128 52.9962L139.124 53.0052Z" fill="#00F02B"/>
<path d="M137.977 55.3472C126.855 51.0679 114.729 51.3787 103.837 56.2166C92.9446 61.0546 84.5885 69.8476 80.3092 80.9739C76.0298 92.0958 76.3406 104.222 81.1785 115.114C86.0165 126.006 94.8095 134.362 105.936 138.642C109.458 139.998 113.076 140.881 116.729 141.318C117.08 141.218 117.432 141.119 117.778 141.011C113.823 140.628 109.895 139.709 106.089 138.245C95.0707 134.007 86.3633 125.732 81.5705 114.943C76.7776 104.155 76.4712 92.1498 80.7101 81.1316C84.9489 70.1133 93.2238 61.4059 104.012 56.613C109.756 54.0589 115.841 52.7796 121.941 52.7796C127.301 52.7796 132.671 53.7661 137.824 55.7482C148.842 59.987 157.55 68.2619 162.342 79.0504C164.734 84.4334 166.009 90.1228 166.158 95.8436C166.297 95.6499 166.433 95.4562 166.563 95.258C166.342 89.6768 165.068 84.1361 162.73 78.8793C157.892 67.9872 149.099 59.6311 137.973 55.3518L137.977 55.3472Z" fill="#00F02B"/>
<path d="M140.279 50.6625C114.733 40.5586 85.7328 53.122 75.629 78.6675C70.737 91.0417 70.9532 104.582 76.2416 116.79C81.53 129.002 91.2599 138.421 103.634 143.313C103.886 143.412 104.139 143.507 104.391 143.601C104.67 143.552 104.954 143.507 105.233 143.457C104.751 143.282 104.269 143.106 103.792 142.917C91.5212 138.065 81.8769 128.727 76.6335 116.619C71.3902 104.515 71.1739 91.0912 76.0254 78.8207C80.8768 66.5502 90.2149 56.9058 102.323 51.6625C108.625 48.9327 115.278 47.5678 121.945 47.5678C128.085 47.5678 134.238 48.73 140.121 51.0544C152.392 55.9058 162.036 65.2438 167.28 77.3522C167.951 78.8973 168.536 80.4649 169.041 82.046C169.059 81.6856 169.081 81.3253 169.104 80.9649C164.554 67.6042 154.401 56.2436 140.279 50.6579V50.6625Z" fill="#00F02B"/>
<path d="M141.428 48.3205C114.589 37.586 84.0257 50.6809 73.2867 77.5148C63.0568 103.083 74.4669 132.043 98.7782 144.007C99.1071 144.007 99.4359 144.007 99.7692 144.007C75.1066 132.39 63.4261 103.317 73.6831 77.6769C81.8094 57.3702 101.377 44.9961 122.017 44.9961C128.432 44.9961 134.955 46.1943 141.266 48.7169C153.951 53.7935 163.937 63.4289 169.469 75.8931C169.482 75.5688 169.496 75.2489 169.5 74.9246C163.856 62.7442 153.942 53.3296 141.428 48.3205Z" fill="#00F02B"/>
<path d="M131.066 69.3932C115.85 64.3706 99.381 72.659 94.3539 87.8801C89.3268 103.101 97.6197 119.565 112.841 124.593C115.836 125.584 118.917 126.075 121.981 126.075C126.458 126.075 130.909 125.025 135.021 122.953C141.954 119.462 147.112 113.48 149.549 106.106C151.981 98.7361 151.4 90.8576 147.909 83.9205C144.418 76.9834 138.436 71.8302 131.062 69.3932H131.066ZM149.148 105.971C146.751 113.232 141.666 119.128 134.837 122.57C128.003 126.011 120.242 126.584 112.98 124.187C97.9846 119.237 89.8178 103.011 94.7683 88.0152C98.7369 75.9924 109.958 68.3571 121.981 68.3571C124.949 68.3571 127.967 68.8211 130.936 69.8031C138.197 72.1996 144.094 77.2852 147.535 84.1142C150.977 90.9477 151.549 98.7091 149.152 105.971H149.148Z" fill="#00F02B"/>
<path d="M94.5698 29.0536C76.4253 36.3691 62.2133 50.3108 54.5554 68.3157C43.2084 94.9874 48.9562 124.718 66.844 145.223C67.0107 145.223 67.1773 145.214 67.3485 145.209C61.943 139.083 57.5645 132.011 54.4203 124.209C47.1499 106.168 47.3391 86.3746 54.9518 68.4779C62.5646 50.5811 76.6955 36.7205 94.7365 29.4455C103.538 25.8959 112.755 24.1256 121.971 24.1256C128.782 24.1256 135.589 25.0986 142.219 27.0356C141.891 26.7878 141.557 26.5491 141.228 26.3103C125.859 22.085 109.615 22.9904 94.5788 29.0491L94.5698 29.0536Z" fill="#00F02B"/>
<path d="M134.523 62.3697C125.275 59.0138 115.275 59.4598 106.36 63.622C97.4458 67.7888 90.6889 75.1763 87.333 84.4198C80.405 103.51 90.2971 124.677 109.388 131.61C113.523 133.11 117.753 133.822 121.919 133.822C125.433 133.822 128.897 133.308 132.217 132.34C132.424 132.132 132.636 131.925 132.834 131.714C129.334 132.813 125.654 133.394 121.919 133.394C117.802 133.394 113.622 132.691 109.532 131.209C90.6619 124.358 80.8869 103.438 87.7339 84.5684C91.0538 75.4286 97.7296 68.1266 106.541 64.0094C111.442 61.7166 116.676 60.5679 121.933 60.5679C126.122 60.5679 130.32 61.3022 134.375 62.7707C152.127 69.2167 161.83 88.118 157.208 106.046C157.262 106.006 157.312 105.965 157.371 105.925C157.501 105.835 157.627 105.736 157.749 105.636C162.105 87.6541 152.307 68.8293 134.519 62.3697H134.523Z" fill="#00F02B"/>
<path d="M132.221 67.0501C115.712 61.3924 97.6753 70.2169 92.0175 86.7262C89.2742 94.7219 89.8103 103.308 93.5266 110.902C97.2429 118.497 103.693 124.186 111.689 126.93C115.054 128.083 118.523 128.655 121.982 128.655C126.739 128.655 131.469 127.569 135.865 125.416C143.46 121.7 149.149 115.249 151.893 107.254C157.555 90.7443 148.726 72.7079 132.221 67.0501ZM151.492 107.114C148.789 115.002 143.172 121.367 135.681 125.033C128.189 128.7 119.721 129.227 111.829 126.524C103.937 123.822 97.5762 118.204 93.9095 110.713C90.2427 103.222 89.7157 94.7534 92.4184 86.8614C96.8555 73.9151 109.004 65.7618 121.978 65.7618C125.329 65.7618 128.735 66.3069 132.077 67.451C148.361 73.0367 157.068 90.8254 151.487 107.11L151.492 107.114Z" fill="#00F02B"/>
<path d="M59.2419 70.6183C48.2507 96.7585 54.886 125.975 73.7152 144.962C73.9089 144.953 74.1026 144.944 74.2963 144.94C55.3725 126.079 48.6606 96.8936 59.6383 70.7849C70.5034 44.9511 95.6391 29.3832 122.05 29.3832C130.77 29.3832 139.635 31.0814 148.167 34.6716C151.64 36.1311 154.924 37.8563 158.014 39.7978C157.609 39.3609 157.19 38.9329 156.757 38.5185C154.073 36.9284 151.262 35.5049 148.334 34.2752C113.752 19.7343 73.7873 36.0365 59.2419 70.6183Z" fill="#00F02B"/>
<path d="M63.9191 72.915C53.2612 98.6137 60.9866 127.425 81.0185 144.655C81.2257 144.646 81.4375 144.637 81.6447 144.628C61.4911 127.556 53.6621 98.7533 64.311 73.0771C74.2616 49.0856 97.5459 34.5853 122.033 34.5853C129.988 34.5853 138.069 36.1169 145.862 39.3467C153.394 42.4729 160.106 46.9415 165.746 52.4911C165.61 52.1533 165.471 51.8154 165.327 51.4821C159.799 46.2162 153.29 41.9639 146.024 38.9503C114.024 25.6752 77.1896 40.9098 63.9146 72.9105L63.9191 72.915Z" fill="#00F02B"/>
<path d="M95.4126 31.5231C77.9257 38.6133 64.2453 52.0866 56.8938 69.4653C49.5423 86.8441 49.3981 106.043 56.4883 123.53C59.7677 131.62 64.4209 138.895 70.1868 145.107C70.3715 145.098 70.5607 145.093 70.7454 145.084C64.8984 138.854 60.1911 131.53 56.8848 123.372C49.8396 105.993 49.9837 86.9071 57.2902 69.6365C64.5966 52.3659 78.196 38.9692 95.5747 31.924C104.097 28.469 113.035 26.7437 121.963 26.7437C130.891 26.7437 140.098 28.5321 148.725 32.0907C148.324 31.7754 147.923 31.46 147.517 31.1447C130.661 24.586 112.246 24.7076 95.4126 31.5276V31.5231Z" fill="#00F02B"/>
<path d="M143.728 43.6393C114.313 31.6346 80.6095 45.8015 68.6048 75.2165C58.2262 100.645 67.4065 129.272 89.0872 144.322C89.3214 144.308 89.5511 144.295 89.7854 144.281C67.9426 129.429 58.6271 100.794 69.0012 75.3787C78.0374 53.2296 99.4658 39.7924 122.029 39.7924C129.214 39.7924 136.516 41.1573 143.57 44.0357C153.746 48.189 162.318 55.0134 168.535 63.7568C168.485 63.446 168.431 63.1307 168.382 62.8199C162.165 54.3422 153.715 47.7115 143.732 43.6393H143.728Z" fill="#00F02B"/>
<path d="M129.918 71.7303C123.175 69.6042 116.003 70.2303 109.728 73.5007C103.453 76.7665 98.8272 82.2846 96.7011 89.028C94.5749 95.7759 95.201 102.947 98.4714 109.218C101.737 115.493 107.255 120.119 113.999 122.245C116.638 123.078 119.31 123.47 121.94 123.47C133.193 123.47 143.657 116.231 147.216 104.947C149.342 98.1994 148.716 91.028 145.445 84.7576C142.179 78.4827 136.661 73.8565 129.918 71.7303ZM146.806 104.821C144.716 111.461 140.161 116.884 133.99 120.101C127.819 123.317 120.76 123.934 114.125 121.84C100.422 117.52 92.7866 102.862 97.1065 89.1586C100.607 78.0503 110.9 70.933 121.972 70.933C124.562 70.933 127.193 71.3204 129.787 72.1403C136.427 74.2304 141.851 78.7845 145.067 84.9558C148.283 91.1271 148.9 98.1858 146.806 104.821Z" fill="#00F02B"/>
<path d="M144.878 41.2974C130.004 35.1757 113.634 35.2117 98.7822 41.401C83.935 47.5903 72.3853 59.1897 66.259 74.0684C55.7498 99.6049 64.1463 128.29 84.9306 144.498C85.1513 144.489 85.3765 144.48 85.5972 144.471C64.6644 128.434 56.1507 99.7491 66.6554 74.2305C72.7366 59.46 84.2008 47.9417 98.9444 41.7974C106.359 38.7073 114.152 37.1622 121.949 37.1622C129.747 37.1622 137.369 38.6712 144.711 41.6938C153.68 45.3831 161.446 51.0634 167.54 58.2527C167.473 57.9509 167.405 57.6491 167.329 57.3473C161.274 50.4012 153.644 44.9056 144.873 41.2929L144.878 41.2974Z" fill="#00F02B"/>
</svg>
