<svg width="161" height="145" viewBox="0 0 161 145" fill="none" xmlns="http://www.w3.org/2000/svg">
<path d="M86.8618 0.0522373C89.4219 -0.187472 91.7807 0.411801 93.9668 1.5624C98.9624 4.18961 104.011 6.73053 107.889 11.0501C109.524 12.8719 111.638 13.9937 114.03 14.8231C119.06 16.5634 123.897 18.8071 128.408 21.6596C131.692 23.7355 135.015 25.7011 138.596 27.24C140.729 28.1557 142.791 29.2488 144.876 30.2843C146.473 31.0802 147.897 32.1301 149.249 33.2903C151.353 35.0881 153.434 36.9147 155.606 38.631C156.876 39.633 157.773 40.8219 158.266 42.3465C158.612 43.4012 158.909 44.4703 159.326 45.4963C160.735 48.9673 161.013 52.4574 160.481 56.2256C159.436 63.5991 157.873 70.8527 155.582 77.9049C154.076 82.5409 152.547 87.1529 151.2 91.8416C149.877 96.444 149.062 101.114 148.481 105.845C147.992 109.82 146.842 113.646 145.821 117.5C145.049 120.415 143.457 122.63 140.782 124.202C137.44 126.163 134.238 128.359 131.011 130.511C129.127 131.768 127.066 132.501 124.88 132.942C123.47 133.23 122.051 133.484 120.637 133.743C120.311 133.8 119.956 133.752 119.649 133.858C114.026 135.819 108.076 136.974 103.119 140.565C101.312 141.874 99.3938 142.928 97.2652 143.643C94.5661 144.549 91.8526 144.693 89.072 144.204C83.7217 143.259 78.4672 141.926 73.2799 140.296C71.9136 139.865 70.4945 139.501 69.0706 139.357C65.7675 139.026 62.4978 138.326 59.1515 138.503C57.3441 138.599 55.6613 138.062 53.9594 137.535C50.8959 136.586 47.8708 135.478 44.6922 134.956C43.604 134.778 42.4917 134.62 41.3986 134.663C39.7351 134.73 38.0859 134.821 36.4271 134.63C35.3196 134.5 34.2265 134.711 33.1335 134.932C30.7364 135.406 28.3393 135.584 25.8751 135.325C22.5719 134.975 19.2351 134.908 15.9367 135.536C14.2348 135.862 12.6815 135.459 11.0946 134.812C7.35995 133.292 4.70398 130.468 2.2158 127.496C0.259772 125.166 -0.0182906 122.261 0.000886102 119.336C0.00568028 118.545 0.293331 117.802 0.753572 117.164C2.63289 114.566 3.31366 111.56 3.80267 108.473C4.41153 104.632 5.40393 100.922 6.98121 97.3405C8.1462 94.6894 8.41467 91.7649 8.51535 88.8884C8.68794 83.8833 9.36871 78.9692 10.759 74.1559C10.9412 73.523 11.0659 72.8615 11.1282 72.2047C11.3535 69.6398 11.9815 67.1995 13.065 64.8552C14.1054 62.6115 14.5464 60.2288 14.532 57.7502C14.5177 55.7558 14.5896 53.7614 14.5944 51.7671C14.5944 50.0364 15.1169 48.4974 16.1908 47.1455C16.8093 46.364 17.399 45.5538 18.0749 44.8299C20.5631 42.1595 23.0945 39.5323 25.5778 36.862C26.2778 36.1093 27.1168 35.5723 28.042 35.2175C31.3932 33.9327 33.6464 31.3295 35.9285 28.755C36.5901 28.0119 37.2085 27.2256 37.7934 26.4202C39.4953 24.0759 41.5089 22.1246 43.8485 20.3508C46.3942 18.4187 48.3694 15.7724 49.9371 12.9534C51.0685 10.9206 52.6074 9.42486 54.6306 8.41329C57.3968 7.02777 60.187 5.76211 63.2313 4.96148C69.1234 3.40816 75.0969 2.23838 80.9986 0.747393C82.9498 0.253593 84.9058 -0.0436463 86.8666 0.0618256L86.8618 0.0522373Z" fill="#B0B6B5"/>
<path d="M100.002 61.792H89.5508V72.2433H100.002V61.792Z" fill="#AFC3E3"/>
<path d="M47.756 72.2383H37.3047V82.6896H47.756V72.2383Z" fill="#AFC3E3"/>
<path d="M110.449 72.2383H99.998V82.6896H110.449V72.2383Z" fill="#AFC3E3"/>
<path d="M68.6544 51.3408H58.2031V61.7921H68.6544V51.3408Z" fill="#AFC3E3"/>
<path d="M68.6544 93.1357H58.2031V103.587H68.6544V93.1357Z" fill="#AFC3E3"/>
<path d="M89.5509 51.3408H79.0996V61.7921H89.5509V51.3408Z" fill="#AFC3E3"/>
<path d="M58.2013 61.792H47.75V72.2433H58.2013V61.792Z" fill="#AFC3E3"/>
<path d="M47.756 93.1357H37.3047V103.587H47.756V93.1357Z" fill="#AFC3E3"/>
<path d="M44.2695 19.9966H47.7501V16.3242C46.7289 17.6858 45.5783 18.937 44.2695 19.9966Z" fill="#AFC3E3"/>
<path d="M99.998 142.482C101.082 141.926 102.117 141.284 103.114 140.565C105.391 138.916 107.88 137.784 110.449 136.845V134.932H99.998V142.482Z" fill="#AFC3E3"/>
<path d="M79.1005 141.989C82.3893 142.861 85.7069 143.609 89.0628 144.204C89.2258 144.232 89.384 144.252 89.547 144.276V134.937H79.0957V141.994L79.1005 141.989Z" fill="#AFC3E3"/>
<path d="M140.302 124.485H131.342V130.282C134.3 128.302 137.248 126.302 140.302 124.485Z" fill="#AFC3E3"/>
<path d="M145.82 117.49C146.127 116.339 146.443 115.184 146.75 114.033H141.793V123.526C143.864 122.016 145.149 120.016 145.82 117.49Z" fill="#AFC3E3"/>
<path d="M2.43128 114.033C2.00939 115.121 1.46765 116.171 0.753314 117.164C0.293072 117.801 0.00542165 118.545 0.000627466 119.336C-0.00896089 121.1 0.0869227 122.854 0.595106 124.485H5.95979V114.038H2.43607L2.43128 114.033Z" fill="#AFC3E3"/>
<path d="M16.4062 135.459C19.5512 134.922 22.7202 134.994 25.8652 135.325C26.196 135.358 26.5268 135.387 26.8576 135.406V134.937H16.4062V135.464V135.459Z" fill="#AFC3E3"/>
<path d="M44.6873 134.961C45.7229 135.128 46.744 135.368 47.7508 135.636V134.937H44.5195C44.5723 134.946 44.6298 134.951 44.6825 134.961H44.6873Z" fill="#AFC3E3"/>
<path d="M148.778 103.587C149.272 100.068 149.924 96.5876 150.84 93.1357H141.793V103.587H148.778Z" fill="#AFC3E3"/>
<path d="M58.2021 138.494C58.5137 138.513 58.8301 138.522 59.1465 138.503C62.3538 138.335 65.4892 138.964 68.6486 139.309V134.932H58.1973V138.494H58.2021Z" fill="#AFC3E3"/>
<path d="M120.896 17.584V19.9907H125.604C124.065 19.1229 122.493 18.3223 120.896 17.584Z" fill="#AFC3E3"/>
<path d="M99.9982 4.847C98.0326 3.68202 95.9998 2.6273 93.9671 1.56299C92.5672 0.824684 91.0954 0.321295 89.5469 0.110352V9.5453H99.9982V4.847Z" fill="#AFC3E3"/>
<path d="M79.0998 1.20312C75.624 2.04211 72.1338 2.80438 68.6484 3.61939V9.54979H79.0998V1.20312Z" fill="#AFC3E3"/>
<path d="M154.03 82.6895H152.246V88.3226C152.821 86.4385 153.425 84.564 154.03 82.6895Z" fill="#AFC3E3"/>
<path d="M141.794 28.7356C140.739 28.213 139.675 27.7049 138.596 27.2398C136.08 26.1563 133.687 24.8619 131.348 23.4668V30.4423H141.799V28.7356H141.794Z" fill="#AFC3E3"/>
<path d="M157.25 72.2384C158.175 68.7914 158.947 65.3108 159.58 61.7871H152.24V72.2384H157.25Z" fill="#AFC3E3"/>
<path d="M100.002 82.6895H89.5508V93.1408H100.002V82.6895Z" fill="#AFC3E3"/>
<path d="M160.673 51.341C160.534 49.3563 160.112 47.4194 159.326 45.4921C158.909 44.4662 158.612 43.3971 158.267 42.3424C158.099 41.8246 157.878 41.3452 157.615 40.8945H152.24V51.3458H160.668L160.673 51.341Z" fill="#AFC3E3"/>
<path d="M79.0998 61.792H68.6484V72.2433H79.0998V61.792Z" fill="#AFC3E3"/>
<path d="M58.2013 82.6895H47.75V93.1408H58.2013V82.6895Z" fill="#AFC3E3"/>
<path d="M89.5509 93.1357H79.0996V103.587H89.5509V93.1357Z" fill="#AFC3E3"/>
<path d="M79.0998 40.8945H68.6484V51.3458H79.0998V40.8945Z" fill="#AFC3E3"/>
<path d="M89.5509 72.2383H79.0996V82.6896H89.5509V72.2383Z" fill="#AFC3E3"/>
<path d="M79.0998 82.6895H68.6484V93.1408H79.0998V82.6895Z" fill="#AFC3E3"/>
<path d="M68.6544 72.2383H58.2031V82.6896H68.6544V72.2383Z" fill="#AFC3E3"/>
<path d="M9.01441 82.6903C8.75073 84.7422 8.58773 86.8085 8.51581 88.8892C8.46787 90.3083 8.37678 91.737 8.15625 93.1369H16.407V82.6855H9.01441V82.6903Z" fill="#AFC3E3"/>
<path d="M14.1002 61.792C13.8605 62.8371 13.5249 63.8583 13.0647 64.8555C11.9812 67.1998 11.3532 69.6449 11.1278 72.205C11.1278 72.2193 11.1278 72.2289 11.123 72.2433H16.411V61.792H14.105H14.1002Z" fill="#AFC3E3"/>
<path d="M16.1867 47.146C15.2039 48.3877 14.6909 49.7828 14.6094 51.341H16.4072V46.8584C16.3353 46.9543 16.2586 47.0502 16.1867 47.1413V47.146Z" fill="#AFC3E3"/>
<path d="M4.82422 103.587H5.95565V99.9199C5.51937 101.128 5.14543 102.351 4.82422 103.587Z" fill="#AFC3E3"/>
<path d="M35.9241 28.7499C35.4207 29.3156 34.9173 29.8861 34.4043 30.4422H37.3048V27.0527C36.8637 27.6328 36.4083 28.2081 35.9241 28.7499Z" fill="#AFC3E3"/>
<path d="M26.8576 114.033H16.4062V124.48H26.8576V114.033Z" fill="#AFC3E3"/>
<path d="M25.5724 36.8566C24.3115 38.2085 23.0411 39.5461 21.7754 40.8885H26.8572V35.8066C26.397 36.0991 25.9607 36.4395 25.5772 36.8566H25.5724Z" fill="#AFC3E3"/>
<path d="M131.348 51.3408H120.896V61.7921H131.348V51.3408Z" fill="#AFC3E3"/>
<path d="M152.244 51.3408H141.793V61.7921H152.244V51.3408Z" fill="#AFC3E3"/>
<path d="M26.8535 134.932H33.1195C33.1195 134.932 33.1195 134.932 33.1243 134.932C34.2174 134.716 35.3105 134.505 36.4179 134.63C36.7151 134.663 37.0076 134.678 37.3048 134.697V124.48H26.8535V134.932Z" fill="#AFC3E3"/>
<path d="M16.4064 103.588H5.95508V114.039H16.4064V103.588Z" fill="#AFC3E3"/>
<path d="M47.756 114.033H37.3047V124.48H47.756V114.033Z" fill="#AFC3E3"/>
<path d="M5.95508 124.485V131.504C7.45566 132.856 9.11924 134.021 11.0849 134.817C11.1855 134.86 11.2862 134.894 11.3917 134.937H16.4064V124.485H5.95508Z" fill="#AFC3E3"/>
<path d="M79.0998 124.485H68.6484V134.937H79.0998V124.485Z" fill="#AFC3E3"/>
<path d="M100.002 124.485H89.5508V134.937H100.002V124.485Z" fill="#AFC3E3"/>
<path d="M79.0998 19.9961H68.6484V30.4474H79.0998V19.9961Z" fill="#AFC3E3"/>
<path d="M47.756 30.4424H37.3047V40.8937H47.756V30.4424Z" fill="#AFC3E3"/>
<path d="M58.2013 19.9961H47.75V30.4474H58.2013V19.9961Z" fill="#AFC3E3"/>
<path d="M37.3048 40.8945H26.8535V51.3458H37.3048V40.8945Z" fill="#AFC3E3"/>
<path d="M26.8576 51.3408H16.4062V61.7921H26.8576V51.3408Z" fill="#AFC3E3"/>
<path d="M26.8576 93.1357H16.4062V103.587H26.8576V93.1357Z" fill="#AFC3E3"/>
<path d="M26.8576 72.2383H16.4062V82.6896H26.8576V72.2383Z" fill="#AFC3E3"/>
<path d="M58.2013 124.485H47.75V134.937H58.2013V124.485Z" fill="#AFC3E3"/>
<path d="M131.348 30.4424H120.896V40.8937H131.348V30.4424Z" fill="#AFC3E3"/>
<path d="M110.448 19.9963V13.1646C109.509 12.5797 108.646 11.8942 107.893 11.0552C107.419 10.5278 106.93 10.0292 106.426 9.5498H100.002V20.0011H110.453L110.448 19.9963Z" fill="#AFC3E3"/>
<path d="M120.901 19.9961H110.449V30.4474H120.901V19.9961Z" fill="#AFC3E3"/>
<path d="M89.5509 9.54492H79.0996V19.9962H89.5509V9.54492Z" fill="#AFC3E3"/>
<path d="M68.6544 9.54492H58.2031V19.9962H68.6544V9.54492Z" fill="#AFC3E3"/>
<path d="M54.6258 8.40355C53.9738 8.72955 53.3745 9.11309 52.8184 9.54456H58.2022V6.72559C56.9941 7.24815 55.8051 7.81387 54.6258 8.40834V8.40355Z" fill="#AFC3E3"/>
<path d="M110.449 134.932H116.336C117.449 134.587 118.556 134.237 119.649 133.853C119.956 133.748 120.311 133.796 120.637 133.738C120.723 133.724 120.809 133.705 120.901 133.69V124.485H110.449V134.937V134.932Z" fill="#AFC3E3"/>
<path d="M131.348 114.033H120.896V124.48H131.348V114.033Z" fill="#AFC3E3"/>
<path d="M152.244 40.8938V35.8551C151.242 35.0017 150.25 34.1436 149.248 33.2902C147.977 32.2067 146.645 31.2191 145.168 30.4473H141.793V40.8986H152.244V40.8938Z" fill="#AFC3E3"/>
<path d="M141.799 103.588H131.348V114.039H141.799V103.588Z" fill="#AFC3E3"/>
<path d="M152.244 72.2383H141.793V82.6896H152.244V72.2383Z" fill="#AFC3E3"/>
<path d="M141.799 82.6895H131.348V93.1408H141.799V82.6895Z" fill="#AFC3E3"/>
<path d="M47.756 51.3408H37.3047V61.7921H47.756V51.3408Z" fill="#AFC3E3"/>
<path d="M58.2013 40.8945H47.75V51.3458H58.2013V40.8945Z" fill="#AFC3E3"/>
<path d="M68.6544 30.4424H58.2031V40.8937H68.6544V30.4424Z" fill="#AFC3E3"/>
<path d="M89.5509 30.4424H79.0996V40.8937H89.5509V30.4424Z" fill="#AFC3E3"/>
<path d="M37.3048 82.6895H26.8535V93.1408H37.3048V82.6895Z" fill="#AFC3E3"/>
<path d="M79.0998 103.588H68.6484V114.039H79.0998V103.588Z" fill="#AFC3E3"/>
<path d="M100.002 40.8945H89.5508V51.3458H100.002V40.8945Z" fill="#AFC3E3"/>
<path d="M37.3048 61.792H26.8535V72.2433H37.3048V61.792Z" fill="#AFC3E3"/>
<path d="M100.002 19.9961H89.5508V30.4474H100.002V19.9961Z" fill="#AFC3E3"/>
<path d="M110.449 51.3408H99.998V61.7921H110.449V51.3408Z" fill="#AFC3E3"/>
<path d="M100.002 103.588H89.5508V114.039H100.002V103.588Z" fill="#AFC3E3"/>
<path d="M120.901 82.6895H110.449V93.1408H120.901V82.6895Z" fill="#AFC3E3"/>
<path d="M120.901 61.792H110.449V72.2433H120.901V61.792Z" fill="#AFC3E3"/>
<path d="M110.449 93.1357H99.998V103.587H110.449V93.1357Z" fill="#AFC3E3"/>
<path d="M141.799 40.8945H131.348V51.3458H141.799V40.8945Z" fill="#AFC3E3"/>
<path d="M141.799 61.792H131.348V72.2433H141.799V61.792Z" fill="#AFC3E3"/>
<path d="M131.348 72.2383H120.896V82.6896H131.348V72.2383Z" fill="#AFC3E3"/>
<path d="M131.348 93.1357H120.896V103.587H131.348V93.1357Z" fill="#AFC3E3"/>
<path d="M110.449 30.4424H99.998V40.8937H110.449V30.4424Z" fill="#AFC3E3"/>
<path d="M120.901 40.8945H110.449V51.3458H120.901V40.8945Z" fill="#AFC3E3"/>
<path d="M68.6544 114.033H58.2031V124.48H68.6544V114.033Z" fill="#AFC3E3"/>
<path d="M37.3048 103.588H26.8535V114.039H37.3048V103.588Z" fill="#AFC3E3"/>
<path d="M58.2013 103.588H47.75V114.039H58.2013V103.588Z" fill="#AFC3E3"/>
<path d="M110.449 114.033H99.998V124.48H110.449V114.033Z" fill="#AFC3E3"/>
<path d="M89.5509 114.033H79.0996V124.48H89.5509V114.033Z" fill="#AFC3E3"/>
<path d="M120.901 103.588H110.449V114.039H120.901V103.588Z" fill="#AFC3E3"/>
</svg>
