<svg width="206" height="135" viewBox="0 0 206 135" fill="none" xmlns="http://www.w3.org/2000/svg">
<path d="M205.468 83.066C205.788 88.2093 203.683 92.406 200.481 96.2289C199.125 97.8449 197.798 99.5151 196.659 101.294C193.945 105.515 190.189 108.662 186.336 111.737C185.805 112.159 185.256 112.545 184.738 112.98C181.596 115.59 178.153 117.671 174.373 119.226C170.984 120.619 167.637 122.121 164.291 123.61C157.556 126.601 150.459 128.458 143.295 130.001C140.395 130.623 137.374 130.834 134.395 130.93C129.373 131.087 124.386 131.599 119.43 132.317C116.3 132.769 113.285 132.588 110.246 131.979C108.624 131.654 107.002 131.533 105.356 131.515C104.096 131.503 102.83 131.581 101.666 132.1C98.4099 133.553 94.9066 133.662 91.4636 133.806C87.6046 133.969 83.7757 134.367 79.9408 134.729C79.2715 134.795 78.5962 134.819 77.9269 134.771C73.8869 134.482 69.853 134.18 65.8191 133.848C60.1512 133.384 54.4832 132.92 48.8213 132.389C46.9099 132.208 44.9804 132.257 43.081 131.762C41.2841 131.292 39.5355 130.731 38.0341 129.67C34.9288 127.475 31.4195 126.112 27.9765 124.605C26.0289 123.755 24.1295 122.826 22.2904 121.753C19.764 120.276 17.6777 118.34 15.7421 116.139C12.468 112.413 9.82694 108.288 7.4874 103.953C6.56485 102.247 5.582 100.594 4.35796 99.0991C2.338 96.6329 1.46972 93.6783 0.68585 90.6876C0.46275 89.8374 0.45069 88.9691 0.595404 88.1008C1.23456 84.29 1.62649 80.4671 1.55413 76.596C1.51795 74.5399 2.07269 72.6043 2.98921 70.7532C4.22531 68.2448 5.34081 65.6762 6.58897 63.1738C7.40299 61.5398 8.24112 59.9178 9.60987 58.6214C10.2249 58.0365 10.7374 57.2707 11.0751 56.4929C12.474 53.285 14.916 50.9455 17.5209 48.7989C19.167 47.4422 20.7106 46.0192 22.212 44.5178C22.9597 43.7701 23.7677 43.0767 24.5455 42.3531C25.5405 41.4245 26.5293 40.4357 26.9876 39.1634C28.0247 36.2812 29.9603 33.9838 31.7511 31.6081C33.0837 29.8474 34.6815 28.2797 36.1528 26.6275C37.1779 25.4759 38.2331 24.3483 39.2159 23.1665C41.3866 20.5677 43.8106 18.21 46.3129 15.9549C48.2605 14.2002 50.781 13.3078 53.1868 12.3129C55.6771 11.2879 58.1855 10.2869 60.7602 9.45483C63.5098 8.56846 66.1749 7.41678 68.8762 6.37363C73.9352 4.42603 79.1509 3.05124 84.5355 2.37591C87.882 1.95986 91.2405 1.65837 94.5991 1.37498C95.8412 1.27247 97.1075 1.47748 98.3436 1.3388C100.641 1.07952 102.932 0.729792 105.205 0.31977C106.918 0.000193358 108.642 -0.0299554 110.379 0.0182826C111.452 0.0484313 112.532 0.181086 113.442 0.759941C115.932 2.32767 118.754 3.02713 121.492 3.94365C124.145 4.83605 126.846 5.55359 129.336 6.8741C130.295 7.3806 131.338 7.57958 132.412 7.56752C137.308 7.51326 141.933 8.82774 146.515 10.3472C148.704 11.0768 150.893 11.8004 152.973 12.8616C154.155 13.4646 155.518 13.7661 156.826 14.0736C158.912 14.5681 160.872 15.3037 162.675 16.4915C163.471 17.0161 164.351 17.4503 165.244 17.8C166.335 18.2281 167.372 18.7708 168.246 19.5124C169.585 20.64 170.936 21.6832 172.6 22.3042C173.342 22.5816 173.8 23.2328 174.192 23.9262C174.716 24.8427 175.343 25.711 175.838 26.6396C177.502 29.763 180.101 32.0483 182.639 34.4119C184.472 36.1184 186.143 37.9996 187.819 39.8568C189.495 41.72 191.153 43.5591 193.21 45.0605C194.747 46.182 195.959 47.7136 197.075 49.3175C198.461 51.3133 199.746 53.3514 200.451 55.6547C201.434 58.8626 202.869 61.9619 203.104 65.3626C203.213 66.9183 203.538 68.4076 204.051 69.8729C204.334 70.6869 204.612 71.5371 204.684 72.3873C204.986 75.9388 205.209 79.4903 205.462 83.0479L205.468 83.066Z" fill="#E1FF9A"/>
<path d="M144.936 129.664C146.076 129.411 147.209 129.152 148.343 128.874L120.793 3.66651C119.496 3.25046 118.194 2.8525 116.928 2.37012L144.936 129.67V129.664Z" fill="#C5CE0E"/>
<path d="M143.404 9.31641L168.187 121.94C169.272 121.458 170.363 120.981 171.455 120.517L147.257 10.5465C147.064 10.4801 146.865 10.4138 146.672 10.3475C145.587 9.98571 144.502 9.64201 143.41 9.31641H143.404Z" fill="#C5CE0E"/>
<path d="M125.899 5.34277L152.821 127.704C153.949 127.391 155.071 127.059 156.18 126.703L129.848 7.03713C129.727 6.98286 129.607 6.94066 129.486 6.88036C128.329 6.26532 127.123 5.77692 125.893 5.3488L125.899 5.34277Z" fill="#C5CE0E"/>
<path d="M128.661 131.273C129.836 131.177 131.012 131.098 132.188 131.032L103.492 0.632812C102.341 0.825764 101.183 0.994597 100.025 1.14534L128.661 131.273Z" fill="#C5CE0E"/>
<path d="M108.096 0.0238158L136.876 130.815C138.051 130.749 139.221 130.646 140.385 130.501L111.695 0.108232C111.316 0.0539645 110.924 0.0298455 110.538 0.017786C109.724 -0.00633297 108.91 -0.00633297 108.096 0.0298455V0.0238158Z" fill="#C5CE0E"/>
<path d="M160.582 125.172C161.686 124.756 162.783 124.315 163.869 123.845L138.399 8.10411C137.187 7.88101 135.957 7.71821 134.715 7.63379L160.576 125.172H160.582Z" fill="#C5CE0E"/>
<path d="M182.791 34.4174C182.538 34.1822 182.284 33.9471 182.031 33.7119L196.876 101.191C197.721 99.8944 198.655 98.6462 199.632 97.4403L186.638 38.391C185.396 37.0222 184.136 35.6716 182.785 34.4174H182.791Z" fill="#C5CE0E"/>
<path d="M91.8185 1.62795L120.544 132.178C121.702 132.015 122.866 131.864 124.023 131.732L95.3339 1.35059C95.1349 1.35059 94.9359 1.35059 94.743 1.36868C93.7661 1.45309 92.7893 1.53751 91.8125 1.62795H91.8185Z" fill="#C5CE0E"/>
<path d="M193.367 45.0662C193.156 44.9094 192.951 44.7526 192.746 44.5898L203.286 92.5022C204.408 90.5727 205.185 88.5165 205.499 86.2795L197.431 49.6126C197.365 49.5161 197.299 49.4197 197.232 49.3232C196.117 47.7193 194.905 46.1877 193.367 45.0662Z" fill="#C5CE0E"/>
<path d="M172.75 22.3041C172.135 22.075 171.568 21.7916 171.025 21.46L190.212 108.644C191.237 107.746 192.232 106.817 193.173 105.834L175.59 25.9401C175.18 25.2647 174.734 24.6075 174.342 23.9201C173.95 23.2327 173.498 22.5755 172.75 22.2981V22.3041Z" fill="#C5CE0E"/>
<path d="M152.432 12.5361L175.785 118.678C176.888 118.177 177.962 117.635 179.005 117.044L156.315 13.923C155.217 13.6637 154.114 13.3743 153.131 12.8678C152.902 12.7532 152.667 12.6507 152.432 12.5422V12.5361Z" fill="#C5CE0E"/>
<path d="M162.825 16.4918C162.372 16.1903 161.908 15.9189 161.432 15.6777L183.139 114.342C183.73 113.902 184.321 113.45 184.887 112.974C185.309 112.624 185.756 112.292 186.19 111.961L165.484 17.8484C165.453 17.8364 165.417 17.8183 165.387 17.8062C164.495 17.4565 163.614 17.0224 162.818 16.4978L162.825 16.4918Z" fill="#C5CE0E"/>
<path d="M12.0586 54.871L27.3259 124.243C27.5912 124.364 27.8565 124.484 28.1218 124.605C29.177 125.063 30.2322 125.515 31.2874 125.98L14.8564 51.3135C13.7952 52.3868 12.8425 53.5565 12.0586 54.8771V54.871Z" fill="#C5CE0E"/>
<path d="M36.6118 128.651C37.1424 128.971 37.673 129.302 38.1856 129.664C38.9694 130.219 39.8196 130.629 40.706 130.973L21.8027 45.0547C20.838 46.0014 19.8491 46.9179 18.8301 47.8042L36.6178 128.651H36.6118Z" fill="#C5CE0E"/>
<path d="M38.5527 24.0954L62.6416 133.571C63.751 133.662 64.8605 133.758 65.97 133.849C66.0785 133.855 66.181 133.867 66.2896 133.873L41.4169 20.8574C40.7174 21.6051 40.024 22.3709 39.3667 23.1608C39.1014 23.4804 38.8241 23.7879 38.5527 24.1014V24.0954Z" fill="#C5CE0E"/>
<path d="M31.8887 31.6137L54.1625 132.853C55.3806 132.962 56.5986 133.07 57.8166 133.173L34.7407 28.3154C33.7519 29.3767 32.763 30.4439 31.8947 31.6016V31.6137H31.8887Z" fill="#C5CE0E"/>
<path d="M25.717 41.3344L45.6995 132.16C46.7909 132.257 47.8823 132.287 48.9737 132.39C49.0943 132.402 49.2149 132.408 49.3355 132.42L28.2796 36.7217C27.8394 37.4935 27.4415 38.2954 27.134 39.1577C26.8385 39.9838 26.3139 40.6893 25.7109 41.3344H25.717Z" fill="#C5CE0E"/>
<path d="M1.48259 82.3784L5.43207 100.323C6.24609 101.475 6.9576 102.699 7.63293 103.953C8.71226 105.949 9.85791 107.896 11.094 109.784L2.70663 71.6816C2.04939 73.2494 1.66348 74.8774 1.69363 76.5899C1.72981 78.5314 1.6454 80.4549 1.47656 82.3724L1.48259 82.3784Z" fill="#C5CE0E"/>
<path d="M5.93164 64.8137L17.6293 117.99C18.9559 119.305 20.3789 120.474 21.9768 121.469L8.47619 60.1045C7.79483 61.0632 7.25818 62.1124 6.7336 63.1676C6.46226 63.7163 6.19695 64.265 5.93767 64.8137H5.93164Z" fill="#C5CE0E"/>
<path d="M83.6992 2.51405L112.25 132.28C113.462 132.449 114.668 132.545 115.892 132.558L87.1844 2.08594C86.3523 2.17638 85.5202 2.27286 84.6881 2.37537C84.3565 2.41757 84.0309 2.46581 83.6992 2.51405Z" fill="#C5CE0E"/>
<path d="M68.002 6.77711L95.8956 133.54C97.0593 133.42 98.211 133.245 99.3446 132.956L71.3123 5.54102C70.5465 5.80632 69.7868 6.08369 69.027 6.37312C68.6833 6.50577 68.3456 6.64446 68.002 6.77711Z" fill="#C5CE0E"/>
<path d="M103.782 131.587C104.355 131.52 104.934 131.502 105.513 131.508C106.134 131.508 106.749 131.539 107.364 131.581L79.1389 3.32812C77.9993 3.57534 76.8657 3.85874 75.7441 4.16626L103.782 131.587Z" fill="#C5CE0E"/>
<path d="M52.6523 12.5902L79.5329 134.765C79.7199 134.753 79.9068 134.747 80.0877 134.729C81.0705 134.632 82.0594 134.536 83.0423 134.445L55.9386 11.2637C55.0703 11.6074 54.202 11.9571 53.3397 12.3128C53.1106 12.4093 52.8815 12.4998 52.6523 12.5962V12.5902Z" fill="#C5CE0E"/>
<path d="M45.3066 17.0159L71.1019 134.252C72.3139 134.343 73.5258 134.433 74.7439 134.524L48.3577 14.5859C47.6884 14.9839 47.0553 15.4241 46.4704 15.9487C46.0784 16.2984 45.6986 16.6602 45.3127 17.0159H45.3066Z" fill="#C5CE0E"/>
<path d="M60.3205 9.65415L87.6895 134.048C88.8653 133.957 90.0411 133.885 91.2229 133.831L63.6429 8.48438C62.7384 8.82807 61.8339 9.15971 60.9114 9.45516C60.7124 9.52149 60.5134 9.58782 60.3145 9.65415H60.3205Z" fill="#C5CE0E"/>
<path d="M154.217 127.307C154.41 127.252 154.603 127.186 154.796 127.126L128.199 6.25347C127.97 6.15096 127.747 6.04845 127.518 5.95801L154.217 127.313V127.307Z" fill="#137582"/>
<path d="M138.334 130.713C138.539 130.695 138.738 130.682 138.943 130.658L110.193 0.0118891C109.988 0.0118891 109.783 0.00585938 109.572 0.00585938L138.334 130.719V130.713Z" fill="#137582"/>
<path d="M161.945 124.653C162.132 124.575 162.319 124.49 162.512 124.418L136.868 7.86291C136.657 7.83276 136.446 7.79658 136.229 7.77246L161.945 124.653Z" fill="#137582"/>
<path d="M121.981 131.985C122.18 131.961 122.379 131.931 122.578 131.907L93.8764 1.44727C93.6774 1.46535 93.4724 1.48344 93.2734 1.50153L121.987 131.991L121.981 131.985Z" fill="#137582"/>
<path d="M130.116 131.159C130.321 131.147 130.52 131.123 130.725 131.111L102.066 0.862305C101.867 0.892453 101.668 0.922602 101.469 0.946721L130.122 131.153L130.116 131.159Z" fill="#137582"/>
<path d="M169.535 121.349C169.722 121.265 169.909 121.186 170.096 121.108L145.657 10.0218C145.434 9.9494 145.217 9.87704 144.994 9.80469L169.535 121.349Z" fill="#137582"/>
<path d="M172.684 22.2803L191.442 107.535C191.611 107.378 191.786 107.221 191.955 107.058L173.389 22.6903C173.202 22.5335 172.991 22.3948 172.744 22.3044C172.72 22.2984 172.702 22.2863 172.678 22.2803H172.684Z" fill="#137582"/>
<path d="M183.914 35.5029L198.012 99.569C198.168 99.3519 198.325 99.1348 198.488 98.9238L184.71 36.3169C184.445 36.0456 184.179 35.7743 183.914 35.5029Z" fill="#137582"/>
<path d="M194.549 46.0674L204.317 90.4523C204.462 90.1207 204.594 89.7891 204.715 89.4514L195.351 46.8995C195.091 46.6101 194.826 46.3327 194.549 46.0674Z" fill="#137582"/>
<path d="M113.774 132.461C113.985 132.479 114.19 132.491 114.401 132.503L85.7358 2.25488C85.5368 2.279 85.3318 2.30312 85.1328 2.32724L113.768 132.461H113.774Z" fill="#137582"/>
<path d="M177.122 118.038C177.309 117.948 177.49 117.851 177.677 117.755L154.739 13.4944C154.516 13.4281 154.293 13.3557 154.076 13.2773L177.128 118.044L177.122 118.038Z" fill="#137582"/>
<path d="M184.413 113.359C184.576 113.227 184.739 113.106 184.902 112.973C184.914 112.961 184.926 112.955 184.944 112.943L163.852 17.0944C163.611 16.9678 163.376 16.8351 163.146 16.6904L184.419 113.365L184.413 113.359Z" fill="#137582"/>
<path d="M146.346 129.344C146.539 129.302 146.738 129.254 146.931 129.205L119.2 3.15359C118.977 3.08124 118.754 3.00888 118.537 2.93652L146.352 129.344H146.346Z" fill="#137582"/>
<path d="M38.3369 129.773C38.572 129.929 38.8072 130.074 39.0484 130.213L20.5672 46.2305C20.3984 46.3872 20.2296 46.55 20.0547 46.7068L38.3308 129.773H38.3369Z" fill="#137582"/>
<path d="M55.6762 132.986C55.8872 133.004 56.0983 133.022 56.3033 133.04L33.553 29.624C33.3902 29.8109 33.2214 29.9918 33.0586 30.1788L55.6822 132.986H55.6762Z" fill="#137582"/>
<path d="M28.9657 124.973C29.1949 125.069 29.418 125.172 29.6471 125.268L13.6622 52.6279C13.4994 52.8209 13.3306 53.0138 13.1738 53.2188L28.9597 124.973H28.9657Z" fill="#137582"/>
<path d="M26.8555 39.7785L47.2059 132.263C47.4169 132.275 47.6219 132.287 47.8329 132.299L27.2655 38.8379C27.2233 38.9464 27.175 39.0489 27.1389 39.1575C27.0605 39.3745 26.964 39.5795 26.8555 39.7785Z" fill="#137582"/>
<path d="M19.487 119.673C19.7342 119.878 19.9814 120.071 20.2347 120.264L7.38531 61.8896C7.23457 62.167 7.09589 62.4444 6.95117 62.7278L19.481 119.679L19.487 119.673Z" fill="#137582"/>
<path d="M105.247 131.509C105.337 131.509 105.422 131.509 105.512 131.509C105.633 131.509 105.748 131.515 105.868 131.521L77.7333 3.6543C77.5404 3.70253 77.3414 3.74474 77.1484 3.79298L105.247 131.503V131.509Z" fill="#137582"/>
<path d="M1.69895 76.62L7.76488 104.188C8.09651 104.797 8.43418 105.406 8.7839 106.009L1.85573 74.5518C1.74116 75.2211 1.68086 75.8964 1.69292 76.5958C1.69292 76.6079 1.69292 76.6139 1.69292 76.626L1.69895 76.62Z" fill="#137582"/>
<path d="M64.1488 133.698C64.3598 133.716 64.5709 133.734 64.7759 133.752L40.2288 22.1777C40.066 22.3647 39.8972 22.5516 39.7344 22.7385L64.1488 133.698Z" fill="#137582"/>
<path d="M89.1486 133.939C89.3536 133.927 89.5526 133.915 89.7576 133.903L62.274 8.98438C62.081 9.0507 61.8941 9.11703 61.7012 9.18336L89.1546 133.945L89.1486 133.939Z" fill="#137582"/>
<path d="M97.3372 133.354C97.5362 133.324 97.7352 133.294 97.9342 133.258L69.9381 6.03613C69.7451 6.10849 69.5582 6.17482 69.3652 6.24717L97.3312 133.354H97.3372Z" fill="#137582"/>
<path d="M80.9908 134.645C81.1897 134.626 81.3947 134.608 81.5937 134.584L54.5805 11.8066C54.3935 11.885 54.2006 11.9574 54.0137 12.0358L80.9908 134.645Z" fill="#137582"/>
<path d="M72.6156 134.367C72.8266 134.385 73.0316 134.397 73.2427 134.415L47.0676 15.46C46.8927 15.5986 46.7118 15.7373 46.543 15.8881L72.6156 134.367Z" fill="#137582"/>
</svg>
