<svg width="328" height="235" viewBox="0 0 328 235" fill="none" xmlns="http://www.w3.org/2000/svg">
<path d="M293.675 222.179C290.419 222.179 287.163 222.17 283.917 222.179C281.253 222.189 278.616 221.865 275.962 221.634C269.182 221.032 262.448 220.838 255.779 223.095C250.33 224.936 244.669 226.157 239.101 227.646C236.363 228.377 233.551 228.516 230.739 228.488C222.165 228.405 213.581 228.654 205.025 227.831C204.294 227.757 203.508 227.702 202.823 227.905C200.816 228.497 199.114 228.044 197.366 226.952C195.849 226 194.008 225.824 192.223 225.824C188.079 225.805 183.935 225.768 179.8 225.852C174.038 225.972 168.284 226.194 162.531 226.36C160.755 226.416 158.97 226.314 157.212 226.49C152.846 226.915 148.638 226.259 144.559 224.788C141.293 223.613 138.093 223.188 134.578 223.622C129.306 224.279 123.968 224.409 118.65 224.649C116.892 224.732 115.107 224.538 113.35 224.335C106.681 223.576 99.9559 223.632 93.481 225.102C87.5704 226.444 81.6042 227.489 75.7306 228.969C73.2979 229.579 70.8467 230.125 68.3307 230.393C65.6853 230.68 63.1416 231.466 60.6349 232.428C56.0192 234.204 51.2925 235.064 46.2976 233.871C43.5782 233.224 40.7477 233.067 37.9635 232.706C35.7343 232.419 33.6346 231.744 31.6644 230.68C29.8237 229.69 27.8997 228.886 25.8555 228.543C22.2111 227.914 19.4269 225.611 16.3652 223.863C14.839 222.993 14.3857 221.347 14.0065 219.738C13.211 216.435 12.4988 213.105 11.62 209.822C10.6673 206.27 10.1123 202.579 8.03109 199.388C7.20786 198.121 7.04136 196.613 7.09686 195.114C7.14311 193.634 7.22636 192.155 7.26336 190.684C7.3281 188.02 7.19861 185.374 6.72686 182.729C5.07115 173.562 3.48942 164.387 1.87995 155.211C1.75046 154.48 1.70421 153.731 1.50996 153.028C-0.58975 145.452 -0.229007 137.812 0.954971 130.153C1.45446 126.934 1.8892 123.724 1.9632 120.45C2.00945 118.544 2.3332 116.63 2.67544 114.743C3.20268 111.829 3.77617 108.934 3.59117 105.946C3.51717 104.762 3.66517 103.587 4.19241 102.487C4.44216 101.959 4.7844 101.358 4.73815 100.822C4.42366 97.3067 6.26437 94.6151 8.00334 91.8586C12.1935 85.2357 16.3004 78.5574 20.5369 71.9622C22.6273 68.7063 24.505 65.3671 25.5965 61.6487C27.8442 54.0268 31.9974 47.3947 36.3171 40.8365C39.5823 37.9691 41.423 34.0194 44.0407 30.6802C47.7961 25.9073 52.0973 21.7726 58.0357 19.4324C62.1148 17.8322 66.1015 15.788 69.524 12.8373C72.8261 9.99761 77.0256 9.52587 81.1325 8.95238C82.298 8.79513 83.5005 8.84138 84.6752 8.84138C88.5324 8.85988 92.297 8.33264 96.0987 7.57416C104.063 5.98319 112.119 4.82696 120.13 3.47648C121.878 3.18049 123.626 2.87524 125.365 2.533C134.079 0.84028 142.884 -0.0847031 151.792 0.0077952C156.537 0.0632942 161.236 0.581285 165.778 2.04276C169.32 3.18974 173.002 3.61523 176.646 4.19797C180.873 4.87321 185.119 5.50219 189.383 5.88144C192.907 6.19593 196.469 6.16818 200.021 6.19593C202.99 6.21443 205.913 6.47343 208.845 6.90817C211.86 7.36141 214.598 8.33264 216.994 10.1456C221.637 13.6605 226.799 16.1857 232.201 18.2855C232.478 18.3965 232.737 18.5445 233.015 18.637C243.828 22.0871 253.337 28.1365 262.864 34.0379C267.341 36.8129 271.605 40.0873 275.286 43.9907C276.794 45.591 278.644 46.8859 280.365 48.2827C282.797 50.2529 284.934 52.4728 286.571 55.1645C288.033 57.5602 289.55 59.9282 291.048 62.3054C291.446 62.9344 291.779 63.6096 292.269 64.1461C301.436 74.0989 306.542 86.096 309.788 99.018C310.871 103.319 311.712 107.685 312.711 112.005C313.312 114.595 313.988 117.175 314.709 119.728C315.801 123.567 316.948 127.387 318.095 131.217C318.437 132.345 318.742 133.501 319.205 134.584C322.96 143.371 324.44 152.713 326.16 162.037C328.436 174.376 328.112 186.78 327.724 199.194C327.585 203.467 326.937 207.722 326.382 211.977C325.8 216.445 323.117 219.062 318.807 220.237C314.931 221.301 310.972 221.819 306.986 221.985C302.555 222.17 298.115 222.031 293.675 222.031V222.179Z" fill="#CCFF6C"/>
<path d="M4.71887 100.84C4.76512 101.376 4.43213 101.978 4.17313 102.505C3.98814 102.884 3.86789 103.282 3.77539 103.67H310.87C310.527 102.116 310.176 100.572 309.787 99.0363C309.76 98.9438 309.741 98.8513 309.714 98.7588H4.80212C4.70037 99.4248 4.65412 100.109 4.71887 100.84Z" fill="#FF85FD"/>
<path d="M288.903 58.9107C288.116 57.6712 287.339 56.4225 286.581 55.1738C286.331 54.7668 286.054 54.3875 285.776 53.999H28.5754C27.8076 55.5992 27.1046 57.2365 26.4941 58.9199H288.903V58.9107Z" fill="#FF85FD"/>
<path d="M297.108 70.1028C295.897 68.4193 294.583 66.7821 293.177 65.1819H24.2755C23.5263 66.8746 22.6475 68.5026 21.6855 70.1028H297.099H297.108Z" fill="#FF85FD"/>
<path d="M303.627 81.2859C302.841 79.6209 302.008 77.9745 301.102 76.365H17.7427C16.7067 78.0022 15.6615 79.6394 14.6348 81.2859H303.627Z" fill="#FF85FD"/>
<path d="M7.60691 92.478H307.949C307.431 90.8223 306.867 89.1758 306.265 87.5571H10.6963C9.79912 88.9909 8.89263 90.4338 7.98615 91.8675C7.85665 92.071 7.72715 92.2745 7.59766 92.478H7.60691Z" fill="#FF85FD"/>
<path d="M59.0262 233.02H40.582C42.506 233.224 44.43 233.437 46.2984 233.89C50.7106 234.944 54.9193 234.389 59.0262 233.02Z" fill="#FF85FD"/>
<path d="M266.6 36.5352C265.37 35.6657 264.13 34.8332 262.854 34.047C261.549 33.233 260.236 32.4282 258.932 31.6143H43.3367C42.1712 33.2145 41.126 34.9072 39.9883 36.5352H266.591H266.6Z" fill="#FF85FD"/>
<path d="M125.356 2.56054C124.634 2.69929 123.913 2.83804 123.191 2.96754H169.283C168.109 2.71779 166.934 2.4218 165.778 2.0518C161.236 0.59033 156.537 0.0723395 151.792 0.00759073C142.894 -0.0941574 134.088 0.830826 125.356 2.55129V2.56054Z" fill="#FF85FD"/>
<path d="M306.984 221.994C307.807 221.957 308.631 221.902 309.454 221.837H278.051C280.002 222.022 281.945 222.198 283.915 222.188C287.171 222.179 290.427 222.188 293.674 222.188V222.04C298.114 222.04 302.554 222.188 306.984 221.994Z" fill="#FF85FD"/>
<path d="M248.258 25.343C244.909 23.5208 241.477 21.8558 237.925 20.4221H55.8333C53.2249 21.7263 50.9494 23.4191 48.8867 25.343H248.258Z" fill="#FF85FD"/>
<path d="M67.8784 14.1506H223.22C221.065 12.9667 218.984 11.6532 216.995 10.1455C216.551 9.81248 216.098 9.51648 215.626 9.22974H79.2187C75.7407 9.73848 72.2998 10.4507 69.5064 12.8464C68.9791 13.2997 68.4334 13.7252 67.8691 14.1414L67.8784 14.1506Z" fill="#FF85FD"/>
<path d="M279.644 47.7276C278.136 46.5436 276.582 45.3874 275.278 44.0091C274.898 43.6022 274.501 43.2044 274.103 42.8159H35.0319C33.9774 44.4439 32.9507 46.0719 31.9609 47.7368H279.644V47.7276Z" fill="#FF85FD"/>
<path d="M327.336 204.374C327.512 202.736 327.651 201.099 327.706 199.453H8.05078C9.04976 200.997 9.69725 202.662 10.206 204.374H327.336Z" fill="#FF85FD"/>
<path d="M7.25461 190.702C7.23611 191.525 7.19911 192.358 7.16211 193.181H327.891C327.928 191.544 327.965 189.907 327.983 188.26H7.24536C7.26386 189.074 7.27311 189.879 7.24536 190.693L7.25461 190.702Z" fill="#FF85FD"/>
<path d="M325.245 215.557C325.8 214.521 326.207 213.346 326.383 211.986C326.439 211.542 326.503 211.089 326.559 210.645H11.8242C12.2497 212.273 12.6382 213.919 13.0267 215.566H325.245V215.557Z" fill="#FF85FD"/>
<path d="M16.365 223.881C17.9652 224.797 19.4914 225.851 21.0917 226.749H85.7942C88.3564 226.221 90.9186 225.694 93.4716 225.121C99.9465 223.65 106.671 223.594 113.34 224.353C115.098 224.556 116.883 224.741 118.64 224.667C123.959 224.427 129.296 224.288 134.569 223.641C138.083 223.206 141.284 223.641 144.549 224.806C148.628 226.268 152.837 226.924 157.203 226.508C158.96 226.342 160.755 226.434 162.522 226.379C168.275 226.212 174.038 225.981 179.791 225.87C183.935 225.787 188.07 225.824 192.214 225.842C193.869 225.842 195.553 225.999 196.996 226.776H242.588C247.019 225.657 251.459 224.584 255.778 223.123C257.443 222.558 259.118 222.142 260.801 221.855H14.6445C15.0053 222.679 15.514 223.419 16.365 223.9V223.881Z" fill="#FF85FD"/>
<path d="M327.964 181.989C327.936 180.352 327.881 178.714 327.807 177.068H5.70898C5.99573 178.705 6.28247 180.342 6.57847 181.989H327.964Z" fill="#FF85FD"/>
<path d="M2.62884 159.614H325.716C325.42 157.976 325.115 156.33 324.81 154.693H1.78711C1.81486 154.868 1.84261 155.053 1.87036 155.229C2.12935 156.691 2.3791 158.152 2.63809 159.614H2.62884Z" fill="#FF85FD"/>
<path d="M327.363 170.806C327.206 169.169 327.012 167.531 326.781 165.885H3.73047C4.01721 167.522 4.30396 169.159 4.5907 170.806H327.363Z" fill="#FF85FD"/>
<path d="M320.25 137.238C319.917 136.35 319.575 135.472 319.205 134.602C318.891 133.862 318.65 133.094 318.419 132.327H0.631787C0.409792 133.964 0.234045 135.61 0.123047 137.248H320.25V137.238Z" fill="#FF85FD"/>
<path d="M316.55 126.046C316.06 124.409 315.588 122.771 315.116 121.125H1.92652C1.86177 122.771 1.72303 124.409 1.51953 126.046H316.55Z" fill="#FF85FD"/>
<path d="M323.515 148.421C323.145 146.775 322.738 145.137 322.285 143.5H0.0390625C0.113061 145.137 0.261058 146.784 0.510804 148.421H323.515Z" fill="#FF85FD"/>
<path d="M2.64844 114.854H313.415C313.174 113.91 312.934 112.967 312.712 112.014C312.555 111.32 312.397 110.626 312.24 109.942H3.44392C3.25893 111.561 2.96293 113.161 2.66694 114.77C2.66694 114.798 2.65769 114.835 2.64844 114.863V114.854Z" fill="#FF85FD"/>
<path d="M147.416 225.676L299.465 73.627C299.243 73.2755 299.021 72.9333 298.799 72.5911L146.084 225.306C146.528 225.444 146.972 225.565 147.416 225.676Z" fill="#8398DC"/>
<path d="M138.167 223.493L294.692 66.9672C294.433 66.6527 294.184 66.3382 293.925 66.033L136.465 223.493C137.038 223.474 137.603 223.474 138.167 223.493Z" fill="#8398DC"/>
<path d="M157.204 226.49C157.5 226.462 157.796 226.453 158.092 226.434L303.499 81.0271C303.314 80.6386 303.129 80.2594 302.944 79.8801L156.27 226.555C156.584 226.536 156.889 226.527 157.204 226.49Z" fill="#8398DC"/>
<path d="M169.839 226.129L306.829 89.1391C306.681 88.7229 306.533 88.3066 306.376 87.8904L168.072 226.194C168.655 226.175 169.247 226.157 169.83 226.138L169.839 226.129Z" fill="#8398DC"/>
<path d="M192.223 225.815C192.482 225.815 192.741 225.815 193.009 225.833L311.647 107.195C311.546 106.723 311.444 106.261 311.342 105.789L191.316 225.815C191.622 225.815 191.918 225.815 192.223 225.815Z" fill="#8398DC"/>
<path d="M181.566 225.833L309.491 97.9078C309.371 97.4546 309.26 97.0014 309.14 96.5574L179.846 225.851C180.419 225.842 180.993 225.851 181.566 225.833Z" fill="#8398DC"/>
<path d="M90.04 225.861L273.603 42.3073C273.316 42.0298 273.02 41.7523 272.724 41.4749L87.8848 226.323C88.6063 226.175 89.3277 226.018 90.0492 225.87L90.04 225.861Z" fill="#8398DC"/>
<path d="M103.443 223.9L279.634 47.709C279.319 47.4592 278.995 47.2095 278.681 46.9597L101.648 223.983C102.25 223.946 102.842 223.909 103.443 223.89V223.9Z" fill="#8398DC"/>
<path d="M113.349 224.344C113.673 224.381 113.996 224.418 114.329 224.445L285.368 53.4069C285.127 53.0831 284.859 52.7779 284.609 52.4634L112.775 224.288C112.96 224.307 113.155 224.325 113.34 224.344H113.349Z" fill="#8398DC"/>
<path d="M125.882 224.334L289.826 60.3904C289.604 60.0389 289.382 59.6967 289.17 59.3452L124.088 224.427C124.689 224.399 125.281 224.371 125.882 224.344V224.334Z" fill="#8398DC"/>
<path d="M213.378 228.34L316.347 125.371C316.218 124.927 316.088 124.492 315.959 124.048L211.723 228.284C212.268 228.303 212.823 228.321 213.369 228.34H213.378Z" fill="#8398DC"/>
<path d="M288.153 222.179L327.974 182.359C327.974 181.804 327.955 181.24 327.946 180.685L286.451 222.179C287.015 222.179 287.589 222.179 288.153 222.179Z" fill="#8398DC"/>
<path d="M275.961 221.634C276.359 221.671 276.757 221.708 277.145 221.745L327.427 171.463C327.381 170.945 327.326 170.427 327.27 169.909L275.582 221.597C275.712 221.606 275.832 221.615 275.961 221.624V221.634Z" fill="#8398DC"/>
<path d="M299.687 222.078L327.872 193.893C327.89 193.311 327.899 192.728 327.918 192.145L298.004 222.059C298.568 222.059 299.132 222.068 299.697 222.078H299.687Z" fill="#8398DC"/>
<path d="M311.602 221.606L327.151 206.057C327.225 205.419 327.29 204.781 327.355 204.152L309.688 221.819C310.326 221.763 310.964 221.689 311.602 221.615V221.606Z" fill="#8398DC"/>
<path d="M75.4069 229.061L267.378 37.0904C267.045 36.8499 266.721 36.6094 266.388 36.3782L73.1777 229.579C73.9177 229.413 74.667 229.246 75.4069 229.061Z" fill="#8398DC"/>
<path d="M202.232 228.044L313.822 116.454C313.702 116 313.591 115.547 313.471 115.094L200.447 228.118C201.021 228.182 201.613 228.164 202.232 228.044Z" fill="#8398DC"/>
<path d="M251.634 224.381L324.227 151.788C324.134 151.317 324.033 150.845 323.931 150.373L249.275 225.028C250.062 224.816 250.848 224.603 251.634 224.381Z" fill="#8398DC"/>
<path d="M224.68 228.469L319.019 134.13C318.862 133.714 318.714 133.288 318.575 132.863L222.969 228.469C223.533 228.469 224.106 228.469 224.671 228.469H224.68Z" fill="#8398DC"/>
<path d="M236.4 228.183L322.016 142.566C321.887 142.131 321.757 141.687 321.628 141.253L234.494 228.386C235.132 228.34 235.771 228.275 236.4 228.183Z" fill="#8398DC"/>
<path d="M266.176 221.282L326.041 161.417C325.948 160.936 325.865 160.455 325.772 159.974L264.354 221.393C264.955 221.347 265.565 221.31 266.166 221.282H266.176Z" fill="#8398DC"/>
<path d="M0.640625 132.271L131.405 1.50635C130.73 1.6081 130.046 1.71909 129.37 1.83934L0.92737 130.282C0.825622 130.948 0.733123 131.605 0.640625 132.271Z" fill="#8398DC"/>
<path d="M0.0759518 144.277L144.17 0.18335C143.569 0.211099 142.958 0.248098 142.357 0.285098L0.00195312 142.64C0.0204528 143.186 0.0389525 143.731 0.0667019 144.277H0.0759518Z" fill="#8398DC"/>
<path d="M1.49094 153.046C1.58343 153.388 1.64818 153.731 1.69443 154.082L155.612 0.174285C155.075 0.137286 154.539 0.109537 154.002 0.0817871L1.39844 152.685C1.43544 152.806 1.46319 152.926 1.49094 153.055V153.046Z" fill="#8398DC"/>
<path d="M3.36889 163.85L165.306 1.91315C164.871 1.7744 164.427 1.64491 163.983 1.52466L3.11914 162.398C3.20239 162.879 3.28564 163.369 3.36889 163.85Z" fill="#8398DC"/>
<path d="M2.00977 119.46L117.549 3.92041C116.874 4.03141 116.19 4.14241 115.514 4.2534L2.20401 117.564C2.12076 118.193 2.05601 118.831 2.00977 119.46Z" fill="#8398DC"/>
<path d="M3.58254 105.964C3.59179 106.122 3.59179 106.279 3.60104 106.445L103.86 6.17725C103.175 6.29749 102.491 6.40849 101.797 6.52874L3.60104 104.734C3.56404 105.141 3.55479 105.557 3.58254 105.964Z" fill="#8398DC"/>
<path d="M60.5617 232.474L260.469 32.5671C260.118 32.3451 259.766 32.1324 259.415 31.9104L57.9902 233.335C58.8505 233.076 59.7107 232.798 60.5617 232.474Z" fill="#8398DC"/>
<path d="M44.0315 30.6987C43.1805 31.781 42.4128 32.9279 41.6543 34.0842L54.6411 21.0974C50.3954 23.5024 47.0284 26.8878 44.0315 30.6987Z" fill="#8398DC"/>
<path d="M10.1113 88.4915L90.0391 8.55444C89.4194 8.62844 88.7904 8.67469 88.1614 8.72094L12.988 83.9036C12.0353 85.4298 11.0733 86.956 10.1113 88.4915Z" fill="#8398DC"/>
<path d="M5.08907 173.572L174.749 3.91118C174.259 3.83718 173.76 3.76318 173.269 3.67993L4.83008 172.129C4.91333 172.61 5.00583 173.091 5.08907 173.581V173.572Z" fill="#8398DC"/>
<path d="M25.625 61.5375L77.683 9.47949C76.9616 9.60899 76.2401 9.74774 75.5278 9.93273L26.4667 58.9938C26.1615 59.8263 25.884 60.6773 25.625 61.5375Z" fill="#8398DC"/>
<path d="M29.1857 229.533L238.186 20.533C237.779 20.3665 237.381 20.2 236.965 20.0427L27.9277 229.089C28.3532 229.228 28.7695 229.366 29.1857 229.533Z" fill="#8398DC"/>
<path d="M20.739 226.545L229.915 17.3696C229.517 17.2031 229.119 17.0273 228.721 16.8516L19.666 225.907C20.0175 226.129 20.3783 226.342 20.7297 226.545H20.739Z" fill="#8398DC"/>
<path d="M37.5197 232.641L246.002 24.1497C245.622 23.9554 245.252 23.7612 244.873 23.5762L36.0859 232.373C36.5577 232.484 37.0387 232.567 37.5197 232.65V232.641Z" fill="#8398DC"/>
<path d="M46.2986 233.89C46.6963 233.982 47.0848 234.047 47.4826 234.112L253.356 28.2381C252.995 28.0254 252.644 27.8126 252.283 27.6091L46.0488 233.834C46.1321 233.853 46.2153 233.862 46.2986 233.88V233.89Z" fill="#8398DC"/>
<path d="M9.81549 203.152L206.374 6.59353C205.856 6.53803 205.338 6.48253 204.82 6.43628L9.34375 201.922C9.51025 202.329 9.66749 202.736 9.81549 203.152Z" fill="#8398DC"/>
<path d="M7.11719 194.421L195.379 6.15883C194.824 6.15883 194.269 6.13108 193.714 6.12183L7.18194 192.645C7.15419 193.237 7.13569 193.829 7.11719 194.421Z" fill="#8398DC"/>
<path d="M14.4686 221.375L222.238 13.605C221.878 13.4015 221.526 13.1795 221.175 12.9668L14.0801 220.061C14.1911 220.505 14.3113 220.949 14.4686 221.384V221.375Z" fill="#8398DC"/>
<path d="M6.71728 182.747C6.75428 182.932 6.77278 183.117 6.80053 183.302L184.721 5.37271C184.212 5.30796 183.713 5.25247 183.204 5.17847L6.55078 181.841C6.60628 182.146 6.66178 182.442 6.70803 182.747H6.71728Z" fill="#8398DC"/>
<path d="M12.2206 212.189L215.338 9.07249C214.968 8.85974 214.598 8.66549 214.218 8.48975L11.8691 210.83C11.9894 211.283 12.1096 211.736 12.2206 212.189Z" fill="#8398DC"/>
</svg>
