<svg width="178" height="166" viewBox="0 0 178 166" fill="none" xmlns="http://www.w3.org/2000/svg">
<path d="M177.1 53.5092C177.385 54.8552 177.24 56.3771 176.955 57.899C176.876 58.3295 176.828 58.7904 176.906 59.2148C177.482 62.2889 176.822 65.357 176.888 68.425C176.943 70.9535 176.809 73.4758 177.398 75.98C177.725 77.3746 177.61 78.8419 177.337 80.2486C175.948 87.3731 174.736 94.5339 172.589 101.495C172.05 103.241 171.304 104.739 169.624 105.666C167.199 107.006 166.453 109.438 166.568 111.845C166.714 114.834 165.562 117.223 164.082 119.533C163.021 121.182 161.918 122.856 160.347 124.123C159.292 124.972 158.656 126.154 158.092 127.349C156.303 131.126 154.387 134.843 152.271 138.451C150.828 140.919 149.318 143.344 147.82 145.775C147.16 146.849 146.165 147.503 144.959 147.879C143.164 148.443 141.339 148.898 139.453 148.686C138.149 148.54 137.052 148.868 136.082 149.668C134.948 150.602 133.638 151.129 132.256 151.53C131.831 151.651 131.407 151.772 131.007 151.96C125.616 154.452 120.22 156.926 114.848 159.46C113.55 160.073 112.404 160.946 111.452 162.049C110.094 163.62 108.354 164.056 106.377 163.705C105.189 163.493 103.982 163.299 102.836 162.941C98.6101 161.631 94.4749 161.467 90.267 163.195C88.0296 164.117 85.5497 164.281 83.1182 164.226C78.6981 164.129 74.3324 164.626 69.9789 165.293C68.7905 165.475 67.5657 165.469 66.3591 165.487C64.3764 165.518 62.3937 165.433 60.417 165.506C55.1176 165.7 49.891 164.948 44.6341 164.499C43.7549 164.426 42.8817 164.311 42.0026 164.275C37.0549 164.075 32.1314 163.632 27.2807 162.601C26.638 162.462 25.9771 162.322 25.3222 162.316C20.0896 162.262 15.8573 159.818 11.8798 156.744C10.4912 155.671 9.11486 154.561 7.65359 153.585C6.24688 152.645 5.10697 151.59 4.39756 149.983C3.87611 148.795 3.02724 147.74 2.25113 146.673C1.40225 145.503 0.747411 144.26 0.353292 142.859C-0.113587 141.21 -0.192411 139.579 0.577637 138.026C1.52352 136.116 1.82063 134.049 2.15411 131.993C2.27538 131.242 2.40877 130.435 2.25719 129.714C1.86307 127.846 2.44515 126.263 3.30615 124.675C3.88217 123.62 4.30661 122.48 4.78561 121.37C4.8705 121.17 4.89475 120.94 4.99783 120.746C7.90825 115.349 10.3275 109.638 14.8872 105.296C15.2874 104.914 15.639 104.46 16.0999 104.187C18.9678 102.477 21.0839 99.8939 23.6002 97.7778C25.8134 95.9163 27.6142 93.7457 28.8572 91.0838C30.2093 88.1977 31.5675 85.3115 33.4653 82.7103C35.0236 80.576 36.6668 78.5387 38.5404 76.6591C39.9289 75.2706 41.0385 73.6031 42.2512 72.0388C42.9242 71.1717 43.4335 70.1592 44.1975 69.3891C47.7931 65.7511 50.6429 61.6098 52.8499 57.0077C52.9894 56.7106 53.1349 56.4074 53.3229 56.1346C55.4754 53.0544 57.0882 49.6892 58.5737 46.2513C59.0467 45.1538 59.7682 44.1473 60.4594 43.1651C61.9813 41.0065 63.5154 38.854 64.6977 36.4832C65.6497 34.5611 67.1352 33.0938 68.7844 31.7962C70.943 30.0985 73.0894 28.3947 75.4784 26.9941C80.2745 24.1807 84.3855 20.5366 87.5688 15.9527C89.0725 13.788 90.9703 12.2904 93.4078 11.3203C95.154 10.623 96.7244 9.58613 97.8583 8.01572C98.5798 7.0092 99.5985 6.34223 100.617 5.68739C101.442 5.15381 102.388 4.77182 102.842 3.79562C102.885 3.6986 102.964 3.60159 103.055 3.54702C106.214 1.70982 109.476 0.0302661 113.277 0.73968C115.278 1.11561 117.152 1.44303 119.025 0.357688C119.705 -0.0364311 120.493 -0.0303677 121.275 0.0484561C125.101 0.424385 128.933 0.818504 132.753 1.21869C136.652 1.62493 140.084 3.52276 142.533 6.77273C143.667 8.27644 144.801 9.71953 146.456 10.7139C147.511 11.3506 148.172 12.4056 148.73 13.497C149.397 14.7885 150.3 15.892 151.404 16.8197C152.338 17.6019 153.344 18.2446 154.587 18.4629C156.885 18.8691 158.941 19.9727 161.093 20.7852C162.524 21.3187 163.518 22.2646 164.046 23.6956C164.743 25.5874 166.011 27.0971 167.157 28.7161C169.248 31.681 171.449 34.5551 173.741 37.3685C174.523 38.3326 174.821 39.521 175.087 40.7094C175.591 42.9589 175.991 45.2145 176.67 47.4337C177.24 49.3012 177.355 51.3263 177.113 53.5213L177.1 53.5092Z" fill="#AEAEAE"/>
<path d="M58.574 46.2513C58.5376 46.3361 58.5012 46.415 58.4648 46.4999H176.403C175.967 44.9052 175.633 43.2923 175.288 41.6855H61.5026C61.157 42.1827 60.8114 42.6739 60.4597 43.165C59.7624 44.1473 59.0469 45.1538 58.574 46.2513Z" fill="#F24BE1"/>
<path d="M65.291 35.4461H172.2C170.951 33.8636 169.726 32.2629 168.538 30.6318H70.263C69.7658 31.0138 69.2746 31.4019 68.7835 31.7899C67.4435 32.845 66.2187 34.0152 65.291 35.4461Z" fill="#F24BE1"/>
<path d="M176.886 68.6016C176.886 68.541 176.886 68.4864 176.886 68.4258C176.85 66.8796 177.001 65.3335 177.086 63.7812H48.8824C47.694 65.4669 46.3782 67.0737 44.9473 68.5956H176.892L176.886 68.6016Z" fill="#F24BE1"/>
<path d="M79.3652 24.3983H164.337C164.228 24.1679 164.131 23.9314 164.04 23.6828C163.513 22.2519 162.518 21.306 161.087 20.7724C160.105 20.4025 159.147 19.9781 158.177 19.584H84.6646C83.0518 21.3606 81.2813 22.9613 79.3652 24.3983Z" fill="#F24BE1"/>
<path d="M35.8359 79.6544H177.44C177.634 78.4356 177.676 77.1805 177.397 75.98C177.306 75.598 177.24 75.216 177.179 74.834H40.1288C39.6316 75.4706 39.1162 76.0891 38.5463 76.653C37.5883 77.611 36.6909 78.6115 35.8359 79.6483V79.6544Z" fill="#F24BE1"/>
<path d="M104.029 163.244C104.805 163.42 105.594 163.553 106.376 163.693C107.686 163.923 108.892 163.802 109.947 163.244H104.029Z" fill="#F24BE1"/>
<path d="M119.018 0.351828C117.15 1.43717 115.277 1.10369 113.27 0.733821C110.365 0.194181 107.782 1.04305 105.314 2.29817H136.917C135.607 1.72821 134.206 1.36441 132.745 1.21283C128.925 0.812644 125.093 0.424589 121.267 0.0425967C120.479 -0.0362271 119.697 -0.0422904 119.018 0.351828Z" fill="#F24BE1"/>
<path d="M93.4073 11.3143C92.1097 11.8297 90.9638 12.5028 89.9512 13.3456H148.645C148.099 12.3087 147.456 11.3143 146.444 10.708C145.461 10.1138 144.661 9.36193 143.933 8.53125H97.4455C96.3541 9.81668 94.9474 10.7019 93.4073 11.3143Z" fill="#F24BE1"/>
<path d="M52.849 57.0081C52.7641 57.19 52.6671 57.3658 52.5762 57.5477H177.015C177.257 56.141 177.36 54.7464 177.1 53.5095C177.13 53.2488 177.154 52.9881 177.172 52.7334H55.4381C54.7893 53.8976 54.092 55.0375 53.322 56.1349C53.134 56.4017 52.9945 56.711 52.849 57.0081Z" fill="#F24BE1"/>
<path d="M11.8837 156.738C11.9989 156.829 12.1202 156.92 12.2414 157.011H120.078C123.541 155.398 127.009 153.797 130.477 152.196H5.93555C6.44487 152.706 7.02695 153.16 7.65754 153.585C9.11881 154.561 10.4952 155.665 11.8837 156.744V156.738Z" fill="#F24BE1"/>
<path d="M1.7773 145.958H147.686C147.729 145.897 147.777 145.837 147.813 145.77C148.765 144.23 149.711 142.69 150.645 141.144H0.0371094C0.0856163 141.707 0.194757 142.283 0.358468 142.853C0.673763 143.975 1.15883 144.994 1.7773 145.958Z" fill="#F24BE1"/>
<path d="M2.15837 131.988C2.00072 132.964 1.84308 133.94 1.63086 134.904H154.252C155.113 133.316 155.95 131.709 156.756 130.09H2.30389C2.3524 130.708 2.25539 131.363 2.15231 131.988H2.15837Z" fill="#F24BE1"/>
<path d="M44.6335 164.499C49.8844 164.948 55.117 165.7 60.4164 165.506C62.3931 165.433 64.3758 165.518 66.3585 165.487C67.5651 165.469 68.7899 165.475 69.9784 165.293C74.3379 164.626 78.6975 164.129 83.1177 164.226C85.4945 164.275 87.9138 164.117 90.1087 163.25H30.7969C34.5016 163.832 38.2427 164.129 42.002 164.281C42.8812 164.317 43.7543 164.432 44.6335 164.505V164.499Z" fill="#F24BE1"/>
<path d="M166.561 112.803C166.573 112.487 166.579 112.172 166.561 111.845C166.494 110.505 166.7 109.152 167.313 107.988H12.4423C11.2357 109.51 10.1928 111.129 9.22266 112.803H166.561Z" fill="#F24BE1"/>
<path d="M19.3066 101.756H172.504C172.534 101.671 172.564 101.586 172.589 101.495C173.055 99.9852 173.468 98.4633 173.856 96.9414H24.5393C24.2362 97.2264 23.9269 97.5053 23.6056 97.7721C22.114 99.0333 20.7618 100.452 19.3066 101.756Z" fill="#F24BE1"/>
<path d="M175.294 90.702C175.627 89.1013 175.942 87.4945 176.252 85.8877H31.4523C30.5731 87.452 29.803 89.077 29.0391 90.702H175.294Z" fill="#F24BE1"/>
<path d="M4.79197 121.364C4.42816 122.189 4.10074 123.038 3.71875 123.856H160.651C162.064 122.625 163.094 121.073 164.083 119.533C164.186 119.369 164.283 119.206 164.386 119.042H5.90156C5.60446 119.612 5.30735 120.182 5.00418 120.746C4.90111 120.934 4.87685 121.17 4.79197 121.37V121.364Z" fill="#F24BE1"/>
<path d="M177.226 55.8315C177.257 55.3646 177.263 54.9038 177.226 54.4551H54.4189C54.1278 54.922 53.8307 55.3767 53.5215 55.8315H177.226Z" fill="#5EE0FB"/>
<path d="M66.6445 33.7309H170.868C170.516 33.2761 170.164 32.8153 169.819 32.3545H68.0997C67.5904 32.785 67.0993 33.2458 66.6445 33.7309Z" fill="#5EE0FB"/>
<path d="M37.334 77.933H177.592C177.592 77.4722 177.574 77.0114 177.507 76.5566H38.6376C38.6073 76.587 38.577 76.6233 38.5467 76.6597C38.1283 77.0781 37.7281 77.5025 37.334 77.933Z" fill="#5EE0FB"/>
<path d="M177.184 50.3022C177.154 49.8353 177.093 49.3745 177.02 48.9258H57.3718C57.1536 49.3866 56.9353 49.8474 56.7109 50.3022H177.184Z" fill="#5EE0FB"/>
<path d="M41.9787 72.4086H176.955C176.937 71.9478 176.925 71.493 176.919 71.0322H42.9549C42.7306 71.3778 42.5002 71.7174 42.2516 72.0387C42.1606 72.16 42.0697 72.2873 41.9727 72.4086H41.9787Z" fill="#5EE0FB"/>
<path d="M176.905 66.8793C176.923 66.4185 176.948 65.9637 176.978 65.5029H47.6039C47.2401 65.9698 46.8703 66.4246 46.4883 66.8793H176.911H176.905Z" fill="#5EE0FB"/>
<path d="M177.124 61.3559C177.106 60.8951 177.069 60.4403 177.009 59.9795H51.291C51.0303 60.4464 50.7574 60.9011 50.4785 61.3559H177.124Z" fill="#5EE0FB"/>
<path d="M175.966 44.7777C175.863 44.3169 175.754 43.8622 175.657 43.4014H60.289C59.9737 43.8501 59.6584 44.3109 59.3613 44.7777H175.966Z" fill="#5EE0FB"/>
<path d="M111.883 0.576337C111.628 0.564211 111.379 0.570274 111.131 0.576337H111.883Z" fill="#5EE0FB"/>
<path d="M99.9787 6.10002H141.992C141.573 5.60282 141.131 5.14807 140.664 4.72363H102.089C101.64 5.0935 101.107 5.36029 100.609 5.68164C100.397 5.8211 100.185 5.96056 99.9727 6.10002H99.9787Z" fill="#5EE0FB"/>
<path d="M119.019 0.351828C118.868 0.442779 118.716 0.503413 118.564 0.576173H126.501C124.755 0.400335 123.015 0.218434 121.269 0.0425967C120.48 -0.0362271 119.698 -0.0422904 119.019 0.351828Z" fill="#5EE0FB"/>
<path d="M92.6973 11.6235H147.522C147.213 11.2657 146.861 10.9504 146.449 10.7018C146.213 10.5624 145.988 10.4047 145.77 10.2471H95.4743C94.8255 10.6715 94.1343 11.0232 93.4067 11.3142C93.1641 11.4112 92.9277 11.5143 92.6973 11.6235Z" fill="#5EE0FB"/>
<path d="M163.542 22.6772C163.178 22.1193 162.711 21.6646 162.147 21.3008H82.99C82.4989 21.7737 82.0017 22.2345 81.4863 22.6772H163.536H163.542Z" fill="#5EE0FB"/>
<path d="M73.5684 28.2006H166.787C166.453 27.7398 166.12 27.285 165.792 26.8242H75.739C75.6481 26.8788 75.5632 26.9334 75.4783 26.9879C74.8235 27.3699 74.1929 27.7822 73.5744 28.2006H73.5684Z" fill="#5EE0FB"/>
<path d="M86.6836 17.1535H151.828C151.683 17.0444 151.543 16.9292 151.398 16.814C151.016 16.4926 150.67 16.1409 150.337 15.7832H87.7022C87.6598 15.8438 87.6113 15.8984 87.5749 15.959C87.2899 16.3713 86.9868 16.7655 86.6836 17.1596V17.1535Z" fill="#5EE0FB"/>
<path d="M174.703 39.2543C174.552 38.7753 174.358 38.3084 174.091 37.8779H63.9379C63.6711 38.3448 63.3983 38.7996 63.1133 39.2543H174.71H174.703Z" fill="#5EE0FB"/>
<path d="M157.933 127.664C157.981 127.555 158.036 127.452 158.084 127.349C158.254 126.991 158.43 126.64 158.624 126.288H2.56497C2.40126 126.737 2.27393 127.192 2.20117 127.664H157.933Z" fill="#5EE0FB"/>
<path d="M0.304688 138.711H152.107C152.162 138.62 152.216 138.529 152.271 138.445C152.483 138.081 152.689 137.705 152.901 137.335H0.892834C0.79582 137.565 0.698806 137.796 0.583602 138.02C0.468398 138.251 0.383511 138.481 0.304688 138.711Z" fill="#5EE0FB"/>
<path d="M135.94 149.766C135.983 149.73 136.031 149.699 136.074 149.663C137.05 148.863 138.141 148.535 139.445 148.681C140.688 148.82 141.907 148.669 143.107 148.39H3.49219C3.78929 148.832 4.06214 149.293 4.29255 149.766H135.946H135.94Z" fill="#5EE0FB"/>
<path d="M1.96114 133.188H155.176C155.419 132.733 155.649 132.272 155.886 131.812H2.18549C2.17336 131.872 2.1673 131.933 2.15517 131.987C2.08847 132.388 2.02784 132.788 1.95508 133.188H1.96114Z" fill="#5EE0FB"/>
<path d="M32.9434 83.4565H176.718C176.803 82.9956 176.894 82.5409 176.985 82.0801H33.9378C33.7801 82.2862 33.6225 82.4924 33.4709 82.7046C33.289 82.9532 33.1192 83.2018 32.9494 83.4565H32.9434Z" fill="#5EE0FB"/>
<path d="M60.4164 165.506C62.3931 165.434 64.3758 165.519 66.3585 165.488C67.5651 165.47 68.7899 165.476 69.9784 165.294C70.7363 165.179 71.4881 165.07 72.246 164.967H49.4902C53.1222 165.325 56.7541 165.646 60.4164 165.512V165.506Z" fill="#5EE0FB"/>
<path d="M112.719 160.813C113.368 160.273 114.078 159.812 114.842 159.449C114.854 159.449 114.86 159.437 114.872 159.437H15.8086C16.6817 159.952 17.5791 160.413 18.5007 160.813H112.719Z" fill="#5EE0FB"/>
<path d="M123.771 155.288C124.766 154.828 125.76 154.373 126.748 153.912H8.13672C8.77337 154.355 9.3979 154.816 10.0164 155.288H123.777H123.771Z" fill="#5EE0FB"/>
<path d="M148.758 144.235C149.043 143.774 149.322 143.319 149.607 142.858H0.357422C0.490816 143.337 0.666654 143.792 0.860681 144.235H148.758Z" fill="#5EE0FB"/>
<path d="M174.449 94.5092C174.558 94.0484 174.662 93.5936 174.765 93.1328H27.728C27.4248 93.6058 27.0974 94.0666 26.7578 94.5092H174.449Z" fill="#5EE0FB"/>
<path d="M173.014 100.034C173.147 99.5728 173.281 99.118 173.408 98.6572H22.5999C22.1088 99.1059 21.6237 99.5728 21.1387 100.034H173.008H173.014Z" fill="#5EE0FB"/>
<path d="M175.645 88.9858C175.736 88.5249 175.827 88.0702 175.918 87.6094H30.5367C30.3063 88.0641 30.0759 88.5249 29.8516 88.9858H175.639H175.645Z" fill="#5EE0FB"/>
<path d="M14.8918 105.296C14.8008 105.381 14.716 105.472 14.625 105.563H169.787C170.417 105.181 170.914 104.72 171.314 104.187H16.1045C15.6436 104.459 15.292 104.92 14.8918 105.296Z" fill="#5EE0FB"/>
<path d="M165.665 116.61C165.853 116.161 166.022 115.706 166.156 115.233H7.88365C7.64112 115.688 7.39858 116.149 7.16211 116.61H165.665Z" fill="#5EE0FB"/>
<path d="M4.46289 122.134H162.268C162.62 121.692 162.953 121.231 163.275 120.758H4.99647C4.89945 120.946 4.8752 121.17 4.79031 121.364C4.68117 121.619 4.57203 121.88 4.46289 122.134Z" fill="#5EE0FB"/>
<path d="M166.561 111.087C166.573 110.62 166.622 110.16 166.719 109.711H11.1691C10.8538 110.16 10.5567 110.62 10.2656 111.087H166.567H166.561Z" fill="#5EE0FB"/>
</svg>
