<svg width="216" height="127" viewBox="0 0 216 127" fill="none" xmlns="http://www.w3.org/2000/svg">
<path d="M161.092 123.279C158.947 123.228 156.911 123.279 154.875 123.605C154.081 123.734 153.236 123.669 152.435 123.561C148.689 123.042 144.943 122.491 141.197 121.928C139.878 121.729 138.585 121.428 137.362 120.865C134.787 119.674 132.053 119.341 129.261 119.514C125.15 119.77 121.11 119.526 117.056 118.688C114.271 118.111 111.37 118.067 108.521 117.842C107.925 117.798 107.272 117.894 106.715 118.099C103.417 119.334 99.9145 119.526 96.5015 120.167C95.2977 120.391 94.049 120.564 92.9348 121.031C87.6905 123.24 82.1515 124.182 76.5806 125.046C72.5337 125.674 68.4611 126.064 64.3757 126.333C61.8272 126.5 59.3043 126.967 56.7365 126.999C54.7451 127.018 52.8753 126.679 51.0567 125.911C48.9756 125.027 46.9393 124.06 45.1272 122.696C41.5925 120.039 37.7249 117.926 33.8252 115.889C30.1561 113.975 27.3386 111.33 25.488 107.61C24.0216 104.658 22.0622 102.013 19.821 99.6184C16.5297 96.0901 13.7122 92.1904 10.7154 88.4316C9.53076 86.9461 8.90964 85.2107 8.60227 83.3858C8.14123 80.6131 7.18713 78.071 5.6183 75.7337C4.87551 74.6259 4.33122 73.4029 4.2928 72.0198C4.26078 70.8672 3.82535 69.8362 3.3451 68.8053C2.70476 67.4093 2.19889 65.9558 1.55215 64.5662C1.01426 63.4072 0.674885 62.2866 1.25119 61.038C1.53294 60.436 1.36645 59.8341 1.01426 59.2898C0.0729665 57.8299 0.0665631 56.2034 0.0153361 54.5513C-0.0935215 51.1127 0.457169 47.8406 1.8339 44.6773C2.60871 42.8972 3.1722 41.0274 3.79974 39.1896C4.23517 37.8961 4.97156 36.8011 5.93847 35.8663C9.54998 32.3828 13.2831 29.0659 17.5862 26.4085C20.6278 24.5259 23.5029 22.3743 26.3909 20.2548C28.0494 19.0382 29.727 17.8727 31.6224 17.0723C34.8177 15.7276 37.8145 13.9475 41.2723 13.1855C43.5583 12.6796 45.6843 11.6358 47.8038 10.5665C52.1005 8.39573 56.5956 6.69243 61.3277 5.6807C61.6287 5.61666 61.9681 5.62947 62.2242 5.495C65.3491 3.85573 68.9286 3.72767 72.1559 2.45339C74.6724 1.46087 77.349 1.30719 79.9808 0.987017C81.9082 0.750091 83.8484 0.647637 85.763 0.269838C89.2657 -0.421728 92.6723 0.359485 96.0917 1.00623C100.907 1.9091 105.646 3.24741 110.602 3.34987C113.317 3.4075 115.789 4.52809 118.145 5.77675C119.541 6.51954 120.937 6.85892 122.486 7.08944C126.335 7.65934 130.196 8.47257 133.744 10.0158C138.841 12.225 144.123 13.813 149.419 15.3818C151.705 16.0542 153.812 17.0595 155.874 18.2057C158.012 19.3967 160.023 20.8311 162.431 21.4971C163.11 21.6828 163.788 22.0349 164.333 22.4768C166.606 24.3081 169.321 25.2622 171.953 26.3764C172.913 26.7799 173.758 27.2921 174.52 28.0093C177.6 30.9164 181.218 33.0488 184.932 35.0146C188.096 36.6859 191.291 38.2931 194.473 39.926C197.733 41.6037 200.23 44.1778 202.503 46.9569C203.873 48.6346 204.584 50.7285 205.301 52.7328C206.582 56.2995 207.997 59.7957 209.56 63.2535C211.538 67.627 213.331 72.103 214.209 76.8671C214.317 77.469 214.452 78.0902 214.708 78.6345C215.937 81.2342 215.803 84.0133 215.822 86.7668C215.835 88.643 215.15 90.3783 214.266 92.0175C213.876 92.7347 213.472 93.4583 212.966 94.0986C211.737 95.6547 210.936 97.3708 210.501 99.3174C210.238 100.502 209.726 101.642 209.272 102.782C208.247 105.337 206.48 107.149 204.142 108.673C198.866 112.118 193.154 114.545 187.302 116.741C185.489 117.42 183.754 118.291 181.923 118.957C177.095 120.711 172.113 121.845 167.124 122.984C165.095 123.445 163.046 123.183 161.099 123.298L161.092 123.279Z" fill="#CFADDA"/>
<path d="M145.198 122.524V14.0887C144.558 13.8902 143.918 13.6917 143.277 13.4868V122.229C143.918 122.325 144.558 122.421 145.198 122.517V122.524Z" fill="#7DFF8A"/>
<path d="M137.366 120.858C137.955 121.134 138.564 121.339 139.185 121.511V12.116C138.544 11.8855 137.904 11.6549 137.264 11.4116V120.813C137.296 120.826 137.334 120.839 137.366 120.858Z" fill="#7DFF8A"/>
<path d="M163.224 123.253V21.7725C162.961 21.6508 162.699 21.542 162.43 21.4715C162.046 21.3627 161.674 21.2346 161.303 21.0938V123.273C161.937 123.247 162.577 123.247 163.224 123.253Z" fill="#7DFF8A"/>
<path d="M157.216 123.356V18.9611C156.768 18.6986 156.326 18.4361 155.871 18.1799C155.679 18.0711 155.487 17.975 155.295 17.8726V123.554C155.935 123.464 156.576 123.4 157.216 123.356Z" fill="#7DFF8A"/>
<path d="M151.206 123.388V15.9646C150.623 15.7405 150.028 15.5356 149.42 15.3563C149.375 15.3435 149.33 15.3307 149.285 15.3179V123.112C149.925 123.202 150.566 123.298 151.206 123.388Z" fill="#7DFF8A"/>
<path d="M115.148 118.367V4.34238C114.52 4.09264 113.88 3.88133 113.227 3.71484V118.169C113.867 118.22 114.514 118.291 115.148 118.374V118.367Z" fill="#7DFF8A"/>
<path d="M133.181 119.648V9.76601C132.547 9.50987 131.907 9.26654 131.26 9.04883V119.482C131.907 119.501 132.547 119.558 133.181 119.648Z" fill="#7DFF8A"/>
<path d="M121.159 119.328V6.83357C120.5 6.6927 119.866 6.5134 119.238 6.26367V119.072C119.879 119.175 120.519 119.258 121.159 119.328Z" fill="#7DFF8A"/>
<path d="M127.165 119.597V7.92191C126.525 7.78104 125.884 7.64657 125.244 7.5249V119.591C125.884 119.603 126.525 119.603 127.165 119.591V119.597Z" fill="#7DFF8A"/>
<path d="M199.288 111.49V43.4157C198.68 42.833 198.04 42.2823 197.367 41.7637V112.47C198.014 112.156 198.654 111.83 199.288 111.49Z" fill="#7DFF8A"/>
<path d="M169.235 122.478V25.2172C168.589 24.9419 167.942 24.6473 167.314 24.3271V122.92C167.955 122.773 168.595 122.625 169.235 122.478Z" fill="#7DFF8A"/>
<path d="M108.526 117.843C108.73 117.862 108.935 117.875 109.134 117.887V3.26035C108.494 3.21553 107.853 3.1579 107.213 3.08105V117.951C107.642 117.849 108.097 117.811 108.526 117.843Z" fill="#7DFF8A"/>
<path d="M204.141 108.654C204.545 108.391 204.923 108.116 205.294 107.834V52.7071C204.75 51.1831 204.205 49.6079 203.373 48.2056V109.134C203.629 108.974 203.892 108.82 204.141 108.654Z" fill="#7DFF8A"/>
<path d="M215.82 86.7474C215.807 84.6855 215.877 82.598 215.391 80.5938V89.4176C215.66 88.5596 215.826 87.6695 215.82 86.7474Z" fill="#7DFF8A"/>
<path d="M210.505 99.2982C210.697 98.4401 210.966 97.6269 211.306 96.8521V67.3197C210.755 65.9493 210.166 64.5854 209.558 63.2407C209.5 63.1126 209.442 62.9782 209.385 62.8501V102.5C209.814 101.45 210.262 100.4 210.505 99.3046V99.2982Z" fill="#7DFF8A"/>
<path d="M181.257 119.168V32.9333C180.61 32.5491 179.963 32.1521 179.336 31.7358V119.814C179.976 119.609 180.617 119.398 181.257 119.174V119.168Z" fill="#7DFF8A"/>
<path d="M175.241 121.006V28.6372C174.998 28.4195 174.755 28.2146 174.518 27.9904C174.14 27.6319 173.743 27.3309 173.32 27.0684V121.512C173.961 121.352 174.601 121.185 175.241 121.012V121.006Z" fill="#7DFF8A"/>
<path d="M193.275 114.34V39.2922C192.634 38.9656 191.994 38.6391 191.354 38.3125V115.147C191.994 114.884 192.634 114.615 193.275 114.346V114.34Z" fill="#7DFF8A"/>
<path d="M187.263 116.741V36.1991C186.622 35.8661 185.982 35.5396 185.342 35.2002V117.522C185.976 117.247 186.616 116.978 187.263 116.734V116.741Z" fill="#7DFF8A"/>
<path d="M37.0187 117.58V14.6133C36.3719 14.8886 35.7316 15.1832 35.0977 15.4777V116.542C35.738 116.882 36.3783 117.228 37.0187 117.58Z" fill="#7DFF8A"/>
<path d="M18.9933 98.6839V25.4932C18.5258 25.8005 18.0584 26.1079 17.5845 26.4024C17.4116 26.5113 17.2452 26.6266 17.0723 26.7354V96.4555C17.6998 97.2111 18.3401 97.9539 18.9933 98.6839Z" fill="#7DFF8A"/>
<path d="M24.9991 106.656V21.2666C24.3588 21.734 23.7185 22.2015 23.0781 22.6625V103.582C23.7761 104.568 24.4164 105.593 24.9991 106.656Z" fill="#7DFF8A"/>
<path d="M31.0128 114.122V17.3604C30.3533 17.6741 29.7129 18.0199 29.0918 18.3977V112.515C29.6873 113.091 30.3341 113.622 31.0128 114.122Z" fill="#7DFF8A"/>
<path d="M49.0382 124.995V9.95215C48.622 10.1507 48.2122 10.3492 47.8023 10.5541C47.5782 10.6693 47.3477 10.7846 47.1172 10.8934V123.984C47.7447 124.342 48.3851 124.675 49.0382 124.989V124.995Z" fill="#7DFF8A"/>
<path d="M43.0304 121.204V12.6797C42.4541 12.8782 41.8714 13.0447 41.2695 13.1792C41.2118 13.192 41.1606 13.2112 41.1094 13.224V119.956C41.7561 120.359 42.3965 120.775 43.0304 121.204Z" fill="#7DFF8A"/>
<path d="M0.013672 54.5516C0.0648991 56.1653 0.0713024 57.7533 0.961373 59.1749V47.0469C0.224984 49.4738 -0.069572 51.9647 0.013672 54.5516Z" fill="#7DFF8A"/>
<path d="M12.9796 91.3068V29.6294C12.3265 30.1417 11.6925 30.6667 11.0586 31.1982V88.8543C11.7053 89.6675 12.3457 90.4872 12.9796 91.3068Z" fill="#7DFF8A"/>
<path d="M5.62459 75.7207C6.14326 76.4891 6.5851 77.2831 6.9757 78.1028V34.8735C6.62992 35.2001 6.28414 35.5267 5.94476 35.8597C5.61819 36.1734 5.33003 36.5192 5.05469 36.8714V74.7538C5.22758 75.0868 5.41968 75.407 5.62459 75.7207Z" fill="#7DFF8A"/>
<path d="M73.0773 125.526V2.11377C72.7699 2.20982 72.4625 2.31868 72.1552 2.44034C71.8286 2.56841 71.4956 2.68367 71.1562 2.78612V125.744C71.7966 125.673 72.4369 125.603 73.0773 125.526Z" fill="#7DFF8A"/>
<path d="M91.1066 121.742V0.141795C90.4662 0.0649547 89.8259 0.0265344 89.1855 0.00732422V122.395C89.8323 122.197 90.4726 121.979 91.1066 121.748V121.742Z" fill="#7DFF8A"/>
<path d="M85.0968 123.49V0.366211C84.4565 0.475068 83.8161 0.558312 83.1758 0.635153V123.907C83.8161 123.779 84.4565 123.638 85.0968 123.49Z" fill="#7DFF8A"/>
<path d="M55.0519 126.916V7.45459C54.4051 7.67871 53.7648 7.91563 53.1309 8.16537V126.59C53.7584 126.743 54.3987 126.852 55.0519 126.916Z" fill="#7DFF8A"/>
<path d="M79.089 124.649V1.07666C78.4486 1.1471 77.8083 1.21753 77.168 1.30078V124.957C77.8083 124.854 78.4486 124.752 79.089 124.649Z" fill="#7DFF8A"/>
<path d="M96.5075 120.167C96.7124 120.129 96.9173 120.097 97.1222 120.058V1.19225C96.7828 1.12182 96.437 1.05138 96.0977 0.987344C95.7967 0.929714 95.5021 0.872084 95.2012 0.814453V120.404C95.6366 120.321 96.0784 120.244 96.5075 120.161V120.167Z" fill="#7DFF8A"/>
<path d="M61.0577 126.66V5.73242C60.411 5.8733 59.7707 6.03338 59.1367 6.19987V126.859C59.7771 126.801 60.4174 126.731 61.0577 126.66Z" fill="#7DFF8A"/>
<path d="M67.0714 126.135V3.84326C66.4247 3.99694 65.7843 4.16343 65.1504 4.34913V126.276C65.7907 126.231 66.4311 126.186 67.0714 126.135Z" fill="#7DFF8A"/>
<path d="M103.128 119.085V2.42815C102.488 2.30648 101.847 2.17201 101.207 2.04395V119.424C101.847 119.322 102.488 119.213 103.128 119.085Z" fill="#7DFF8A"/>
</svg>
