<svg width="176" height="124" viewBox="0 0 176 124" fill="none" xmlns="http://www.w3.org/2000/svg">
<path d="M154.877 117.151C153.163 117.151 151.448 117.146 149.739 117.151C148.336 117.156 146.948 116.985 145.55 116.863C141.98 116.547 138.435 116.445 134.923 117.633C132.054 118.602 129.074 119.245 126.142 120.029C124.7 120.414 123.219 120.487 121.739 120.472C117.224 120.429 112.704 120.56 108.199 120.127C107.814 120.088 107.4 120.058 107.04 120.166C105.983 120.477 105.087 120.239 104.166 119.664C103.367 119.162 102.398 119.07 101.458 119.07C99.2762 119.06 97.0942 119.04 94.9171 119.084C91.8877 119.148 88.8534 119.265 85.824 119.352C84.8889 119.381 83.9489 119.328 83.0235 119.42C80.7246 119.644 78.5086 119.299 76.3607 118.524C74.6415 117.906 72.9563 117.682 71.1055 117.911C68.3293 118.256 65.5191 118.325 62.7186 118.451C61.7932 118.495 60.8532 118.393 59.9278 118.286C56.4162 117.886 52.8754 117.915 49.4661 118.69C46.3539 119.396 43.2124 119.946 40.1197 120.726C38.8388 121.047 37.5481 121.334 36.2233 121.476C34.8304 121.627 33.491 122.041 32.1711 122.547C29.7408 123.482 27.252 123.935 24.6219 123.307C23.19 122.966 21.6997 122.883 20.2337 122.693C19.0599 122.542 17.9543 122.187 16.9169 121.627C15.9477 121.106 14.9346 120.682 13.8582 120.502C11.9393 120.17 10.4733 118.958 8.86115 118.037C8.05752 117.579 7.81887 116.712 7.61918 115.865C7.20032 114.126 6.8253 112.373 6.36261 110.644C5.86095 108.774 5.56872 106.83 4.47287 105.15C4.0394 104.483 3.9566 103.689 3.98096 102.9C4.00531 102.121 4.04914 101.341 4.06862 100.567C4.10272 99.1642 4.03453 97.7712 3.78614 96.3783C2.91433 91.5517 2.08148 86.7202 1.23402 81.8887C1.16583 81.5039 1.14148 81.1094 1.0392 80.7393C-0.0663894 76.7504 0.123558 72.7274 0.746976 68.6946C1.00998 66.9997 1.23889 65.3097 1.27786 63.5855C1.30221 62.5822 1.47267 61.574 1.65288 60.5805C1.9305 59.0463 2.23246 57.5218 2.13505 55.9487C2.09609 55.3253 2.17402 54.7067 2.45163 54.1271C2.58314 53.8495 2.76334 53.5329 2.73899 53.2504C2.57339 51.3997 3.54261 49.9824 4.45826 48.531C6.66457 45.0437 8.82705 41.5273 11.0577 38.0546C12.1584 36.3402 13.1471 34.582 13.7219 32.6241C14.9054 28.6108 17.0922 25.1187 19.3667 21.6656C21.086 20.1557 22.0552 18.076 23.4335 16.3178C25.4109 13.8047 27.6757 11.6276 30.8025 10.3953C32.9504 9.55275 35.0496 8.47638 36.8516 6.92271C38.5904 5.42748 40.8016 5.17909 42.964 4.87712C43.5777 4.79432 44.2109 4.81868 44.8294 4.81868C46.8604 4.82842 48.8427 4.5508 50.8444 4.15142C55.0379 3.31371 59.2801 2.7049 63.4979 1.99381C64.4184 1.83796 65.3389 1.67724 66.2545 1.49703C70.8425 0.605736 75.4792 0.118691 80.1694 0.167396C82.668 0.196618 85.1422 0.469364 87.5335 1.23889C89.3989 1.84283 91.3374 2.06687 93.2563 2.37371C95.4821 2.72925 97.7176 3.06044 99.9629 3.26013C101.819 3.42573 103.694 3.41112 105.564 3.42573C107.127 3.43547 108.666 3.57184 110.21 3.80075C111.798 4.0394 113.24 4.5508 114.501 5.50541C116.946 7.35618 119.664 8.68581 122.508 9.79141C122.654 9.84985 122.791 9.92778 122.937 9.97648C128.63 11.7932 133.637 14.9784 138.654 18.0858C141.011 19.5469 143.256 21.2711 145.195 23.3264C145.989 24.169 146.963 24.8508 147.869 25.5863C149.15 26.6237 150.275 27.7926 151.137 29.2099C151.906 30.4713 152.705 31.7182 153.494 32.9699C153.703 33.3011 153.879 33.6566 154.137 33.9391C158.964 39.1797 161.652 45.4967 163.362 52.3007C163.931 54.5655 164.375 56.8643 164.901 59.1388C165.217 60.5025 165.573 61.8614 165.953 63.2056C166.527 65.2269 167.131 67.2384 167.735 69.2547C167.915 69.8489 168.076 70.4577 168.32 71.0276C170.297 75.6545 171.076 80.5737 171.982 85.4831C173.18 91.9803 173.01 98.5115 172.805 105.048C172.732 107.298 172.391 109.538 172.099 111.779C171.792 114.131 170.38 115.509 168.11 116.128C166.07 116.688 163.985 116.961 161.886 117.048C159.553 117.146 157.215 117.073 154.877 117.073V117.151Z" fill="#9D9D9D"/>
<path d="M104.166 119.664C104.624 119.951 105.072 120.156 105.539 120.248V3.42563C104.278 3.41589 103.011 3.41589 101.75 3.36719V119.07C102.597 119.094 103.445 119.211 104.166 119.659V119.664Z" fill="#92CDA4"/>
<path d="M120.701 120.467V9.04589C119.401 8.47604 118.13 7.84288 116.912 7.11719V120.457C118.174 120.457 119.44 120.457 120.701 120.467Z" fill="#92CDA4"/>
<path d="M126.141 120.03C126.852 119.84 127.563 119.66 128.279 119.479V12.1297C127.042 11.5355 125.786 10.9949 124.49 10.5176V120.346C125.045 120.278 125.596 120.176 126.146 120.03H126.141Z" fill="#92CDA4"/>
<path d="M113.117 120.411V4.66938C112.216 4.23591 111.242 3.95829 110.205 3.80244C109.913 3.7586 109.62 3.71964 109.328 3.68555V120.221C110.59 120.318 111.856 120.377 113.117 120.411Z" fill="#92CDA4"/>
<path d="M94.9171 119.084C95.9301 119.065 96.948 119.06 97.9611 119.06V3.05041C96.6948 2.89943 95.4333 2.71435 94.1719 2.51953V119.104C94.4203 119.099 94.6687 119.089 94.9171 119.084Z" fill="#92CDA4"/>
<path d="M166.176 116.567V63.9665C166.103 63.7132 166.03 63.4648 165.957 63.2116C165.577 61.8625 165.221 60.5085 164.905 59.1448C164.374 56.8702 163.931 54.5714 163.366 52.3066C163.073 51.1377 162.747 49.9834 162.387 48.8438V117.02C163.658 116.947 164.924 116.806 166.176 116.567Z" fill="#92CDA4"/>
<path d="M172.1 111.785C172.392 109.549 172.733 107.304 172.806 105.054C173.016 98.5176 173.181 91.9814 171.983 85.4891C171.384 82.2405 170.839 78.992 169.967 75.8213V115.316C171.141 114.551 171.891 113.402 172.1 111.785Z" fill="#92CDA4"/>
<path d="M134.922 117.633C135.234 117.526 135.546 117.438 135.858 117.35V16.3664C134.606 15.5968 133.344 14.8419 132.068 14.1211V118.5C133.028 118.237 133.982 117.954 134.922 117.633Z" fill="#92CDA4"/>
<path d="M154.878 117.151V117.073C156.115 117.073 157.357 117.093 158.594 117.098V40.0421C157.513 38.1719 156.261 36.3844 154.805 34.6992V117.151H154.878Z" fill="#92CDA4"/>
<path d="M143.438 116.712V21.6313C142.244 20.5695 140.968 19.6003 139.648 18.7285V116.717C140.91 116.629 142.171 116.639 143.438 116.707V116.712Z" fill="#92CDA4"/>
<path d="M149.74 117.152C150.168 117.152 150.592 117.152 151.016 117.152V29.0359C150.168 27.7014 149.097 26.5812 147.869 25.5925C147.66 25.422 147.441 25.2515 147.227 25.0859V117.021C148.059 117.094 148.897 117.157 149.74 117.152Z" fill="#92CDA4"/>
<path d="M49.4619 118.701C50.4604 118.472 51.4686 118.316 52.4865 118.209V3.85547C51.9361 3.95775 51.3858 4.05516 50.8354 4.16231C50.1194 4.30355 49.4084 4.42531 48.6973 4.52759V118.861C48.9505 118.808 49.2087 118.754 49.4619 118.696V118.701Z" fill="#92CDA4"/>
<path d="M29.7501 123.293V10.873C28.3182 11.5744 27.0811 12.4852 25.9609 13.5323V123.536C27.2516 123.673 28.5131 123.57 29.7501 123.298V123.293Z" fill="#92CDA4"/>
<path d="M20.2336 122.703C20.8765 122.786 21.5243 122.849 22.172 122.922V18.1152C21.3392 19.3767 20.5209 20.6527 19.3618 21.6755C19.0306 22.1772 18.7043 22.6788 18.3828 23.1805V122.27C18.9819 122.474 19.6004 122.62 20.2336 122.703Z" fill="#92CDA4"/>
<path d="M36.2246 121.486C36.5948 121.447 36.9649 121.393 37.3302 121.335V6.5625C37.1646 6.67939 37.0039 6.80115 36.8481 6.93265C35.8253 7.80934 34.7099 8.53503 33.541 9.15358V122.08C34.4177 121.802 35.309 121.583 36.2246 121.486Z" fill="#92CDA4"/>
<path d="M3.78081 96.3877C4.0292 97.7758 4.10225 99.1688 4.06329 100.576C4.04381 101.356 4.00485 102.135 3.97562 102.909C3.95127 103.703 4.03407 104.497 4.46754 105.159C5.56339 106.835 5.85562 108.783 6.35727 110.653C6.59105 111.525 6.80535 112.402 7.00991 113.283V44.459C6.15758 45.8178 5.30526 47.1816 4.44806 48.5404C4.00485 49.2418 3.55189 49.9334 3.2207 50.6688V93.2512C3.40578 94.2983 3.59086 95.3455 3.77593 96.3926L3.78081 96.3877Z" fill="#92CDA4"/>
<path d="M13.8585 120.507C14.1069 120.551 14.3504 120.609 14.5939 120.673V30.1797C14.2676 30.9784 13.9656 31.7918 13.7172 32.6344C13.1376 34.5972 12.1538 36.3505 11.0531 38.0649C10.9703 38.1964 10.8875 38.328 10.8047 38.4595V119.236C11.7447 119.806 12.7236 120.312 13.8585 120.507Z" fill="#92CDA4"/>
<path d="M82.8048 119.435V0.308248C81.933 0.22545 81.0515 0.181616 80.1699 0.171875C79.7852 0.171875 79.4004 0.171875 79.0156 0.171875V119.24C80.2527 119.464 81.519 119.537 82.8048 119.435Z" fill="#92CDA4"/>
<path d="M75.2248 118.179V0.314453C73.9584 0.397251 72.697 0.519012 71.4355 0.674866V117.882C72.7554 117.756 73.9925 117.863 75.2248 118.179Z" fill="#92CDA4"/>
<path d="M90.383 119.207V1.92141C89.4235 1.75094 88.4689 1.54638 87.5338 1.24441C87.222 1.14213 86.9103 1.05446 86.5938 0.966797V119.329C87.8552 119.29 89.1215 119.246 90.383 119.207Z" fill="#92CDA4"/>
<path d="M67.6486 118.218V1.25391C67.181 1.3367 66.7183 1.4195 66.2508 1.51204C65.4569 1.66789 64.6581 1.80914 63.8594 1.94551V118.408C65.1208 118.354 66.3871 118.296 67.6486 118.218Z" fill="#92CDA4"/>
<path d="M59.9273 118.29C59.9711 118.295 60.0198 118.3 60.0685 118.305V2.56836C58.8071 2.77292 57.5407 2.97748 56.2793 3.18691V118.052C57.4969 118.076 58.7145 118.159 59.9321 118.295L59.9273 118.29Z" fill="#92CDA4"/>
<path d="M44.9074 119.664V4.82889C44.8782 4.82889 44.8538 4.82889 44.8246 4.82889C44.2012 4.82889 43.5729 4.79967 42.9592 4.88734C42.3455 4.97014 41.7319 5.05294 41.123 5.16009V120.497C42.3796 120.2 43.6459 119.923 44.9123 119.664H44.9074Z" fill="#92CDA4"/>
<path d="M46.0905 41.2446C48.0631 43.4217 49.4804 46.0323 51.1558 48.4432C54.1852 52.8022 58.0718 56.533 60.9211 61.0089C64.4326 66.5271 74.5681 62.0561 77.5001 67.9055C82.4631 77.7974 97.8098 79.541 97.8098 96.1054C97.8098 102.812 90.9961 101.628 87.9033 111.637C87.7718 112.056 88.1663 112.533 87.9326 112.904C87.6939 113.288 82.2877 114.988 81.8348 115.032C75.81 115.616 74.6021 113.795 68.6261 112.816C57.5751 111.004 47.0646 106.572 35.9697 105.009C32.7845 104.56 29.2388 104.19 27.1201 101.77C25.5859 100.016 25.1866 97.586 24.5096 95.3553C21.7919 86.4083 13.7897 78.8932 14.3742 69.5614C14.7638 63.3321 19.0108 57.8967 19.6732 51.6917C20.3015 45.818 17.6374 39.9832 18.1147 34.0948C18.1488 33.6613 18.2218 33.184 18.553 32.9015C18.816 32.6775 19.1813 32.6239 19.5222 32.585C22.2351 32.2733 24.9674 32.0931 27.6948 32.059C28.2842 32.0492 28.893 32.059 29.419 32.3171C30.3054 32.7603 30.6999 33.788 31.0165 34.7231C32.1269 38.0155 37.3676 33.9925 38.4829 37.285C41.4198 37.3093 44.1034 39.0627 46.0759 41.2398L46.0905 41.2446ZM147.566 38.5123C147.186 38.2298 146.763 37.9473 146.285 37.9473C145.394 37.9473 144.829 38.8776 144.449 39.6812C141.488 45.9495 138.463 52.4759 138.449 59.4065C138.444 62.2898 138.946 65.2852 137.923 67.9834C136.379 72.0551 131.947 74.1007 128.801 77.1106C123.292 82.3756 121.855 90.4557 118.923 97.4886C116.201 104.015 111.978 109.913 106.674 114.594C105.51 115.621 104.229 116.693 103.844 118.198C103.737 118.612 103.718 119.084 103.976 119.43C104.156 119.673 104.448 119.81 104.731 119.927C110.005 122.133 115.967 121.987 121.626 121.183C127.286 120.38 132.877 118.962 138.59 118.748C143.324 118.573 148.126 119.221 152.768 118.271C157.94 117.214 162.64 114.219 167.896 113.717C169.337 113.581 170.803 113.634 172.211 113.308C173.623 112.981 175.026 112.188 175.606 110.858C176.434 108.968 173.609 106.962 172.81 105.057C170.243 98.9449 172.191 91.9899 171.675 85.3807C170.584 71.4706 165.801 57.2343 155.973 47.0307C153.304 44.2594 150.64 40.8014 147.576 38.5123H147.566Z" fill="#9D9D9D"/>
<path d="M41.1173 105.934V37.7623C40.2796 37.4652 39.4029 37.2947 38.5019 37.2898C38.2681 36.5982 37.8493 36.2329 37.3281 36.0527V105.228C38.5993 105.432 39.8608 105.671 41.1173 105.939V105.934Z" fill="#92CD9B"/>
<path d="M48.6974 107.81V44.6982C47.8987 43.4903 47.0609 42.3166 46.0917 41.2451C45.7216 40.8359 45.3222 40.4414 44.9082 40.0664V106.811C46.1745 107.128 47.436 107.459 48.6974 107.805V107.81Z" fill="#92CD9B"/>
<path d="M33.5392 104.658V36.1158C32.419 36.1597 31.4498 35.9405 31.0358 34.7278C30.7582 33.9047 30.4221 33.0182 29.75 32.5117V103.625C30.9189 104.137 32.2193 104.439 33.5392 104.658Z" fill="#92CD9B"/>
<path d="M56.2755 109.938V54.8828C54.9946 53.3535 53.6991 51.829 52.4863 50.251V108.872C53.7478 109.232 55.0141 109.588 56.2755 109.943V109.938Z" fill="#92CD9B"/>
<path d="M79.0158 115.133V70.2957C78.4508 69.5456 77.9394 68.7566 77.5108 67.9043C76.9702 66.823 76.1763 66.0925 75.2266 65.5908V114.514C76.3809 114.836 77.54 115.079 79.0158 115.138V115.133Z" fill="#92CD9B"/>
<path d="M86.5939 113.533V77.1799C85.2984 76.1863 84.0126 75.2074 82.8047 74.1846V114.79C83.8324 114.488 85.4493 113.966 86.5939 113.538V113.533Z" fill="#92CD9B"/>
<path d="M94.172 102.506V84.31C93.0616 82.7904 91.7612 81.4656 90.3828 80.2432V106.451C91.615 104.698 92.9642 103.543 94.172 102.506Z" fill="#92CD9B"/>
<path d="M63.8527 111.877V63.3385C62.674 62.871 61.6561 62.1599 60.9207 61.0104C60.6479 60.577 60.3557 60.1581 60.0586 59.7393V110.962C61.32 111.288 62.5815 111.595 63.8478 111.882L63.8527 111.877Z" fill="#92CD9B"/>
<path d="M18.3789 39.4176V33.1348C18.2084 33.4124 18.1548 33.7679 18.1305 34.0991C17.9843 35.8768 18.1305 37.6448 18.3789 39.4128V39.4176Z" fill="#92CD9B"/>
<path d="M68.6371 112.822C69.7038 112.997 70.6194 113.197 71.4376 113.406V64.5459C70.2054 64.3852 68.9099 64.3024 67.6484 64.1611V112.642C67.9796 112.7 68.3059 112.763 68.642 112.817L68.6371 112.822Z" fill="#92CD9B"/>
<path d="M24.5243 95.36C24.9821 96.8649 25.3182 98.4576 25.9611 99.8749V32.1074C24.6948 32.1513 23.4333 32.2292 22.1719 32.3315V89.7395C23.107 91.5659 23.9398 93.4264 24.5243 95.3551V95.36Z" fill="#92CD9B"/>
<path d="M121.622 121.179C122.581 121.042 123.536 120.886 124.49 120.726V83.0869C122.946 86.1066 121.846 89.4331 120.701 92.7255V121.305C121.008 121.266 121.315 121.227 121.622 121.184V121.179Z" fill="#92CD9B"/>
<path d="M132.069 119.416V74.4229C130.939 75.2849 129.804 76.147 128.796 77.1065C128.615 77.2769 128.45 77.462 128.279 77.6422V120.054C129.541 119.83 130.802 119.611 132.069 119.416Z" fill="#92CD9B"/>
<path d="M116.912 121.65V101.677C115.797 103.742 114.531 105.719 113.123 107.594V121.68C114.38 121.738 115.646 121.719 116.912 121.65Z" fill="#92CD9B"/>
<path d="M109.33 121.26V112.04C108.478 112.922 107.591 113.774 106.671 114.587C106.296 114.918 105.906 115.259 105.541 115.615V120.237C106.773 120.69 108.04 121.026 109.33 121.26Z" fill="#92CD9B"/>
<path d="M138.587 118.742C138.942 118.728 139.293 118.723 139.649 118.718V51.5205C138.918 54.0921 138.455 56.7173 138.45 59.4058C138.446 62.2891 138.947 65.2844 137.924 67.9826C137.462 69.2051 136.731 70.2425 135.859 71.1825V118.932C136.765 118.845 137.676 118.777 138.587 118.742Z" fill="#92CD9B"/>
<path d="M147.225 118.788V38.2746C146.937 38.0895 146.626 37.9482 146.285 37.9434C145.393 37.9434 144.829 38.8736 144.449 39.6772C144.113 40.3932 143.772 41.114 143.436 41.8349V118.744C144.702 118.773 145.963 118.798 147.225 118.778V118.788Z" fill="#92CD9B"/>
<path d="M175.602 110.855C176.211 109.467 174.842 108.006 173.756 106.579V112.73C174.559 112.302 175.241 111.683 175.602 110.855Z" fill="#92CD9B"/>
<path d="M167.886 113.714C168.578 113.651 169.269 113.626 169.961 113.587V74.2147C169.045 70.2355 167.794 66.3294 166.172 62.5986V113.972C166.737 113.865 167.307 113.772 167.886 113.719V113.714Z" fill="#92CD9B"/>
<path d="M152.759 118.267C153.451 118.126 154.128 117.951 154.805 117.751V45.7902C153.568 44.4363 152.316 42.9946 151.016 41.6406V118.55C151.6 118.477 152.18 118.384 152.759 118.263V118.267Z" fill="#92CD9B"/>
<path d="M162.383 115.017V55.3293C161.234 53.4785 159.972 51.6959 158.594 50.001V116.434C159.855 115.952 161.112 115.46 162.383 115.021V115.017Z" fill="#92CD9B"/>
<path d="M18.3791 82.9039V56.9541C17.0689 60.6021 15.223 64.1283 14.5898 67.9029V73.2506C15.1499 76.6064 16.6549 79.7673 18.3791 82.9039Z" fill="#92CD9B"/>
</svg>
