<svg width="241" height="121" viewBox="0 0 241 121" fill="none" xmlns="http://www.w3.org/2000/svg">
<path d="M150.548 120.216C145.282 120.633 139.417 119.599 133.547 118.754C130.234 118.274 126.911 117.943 123.587 117.566C114.964 116.578 106.324 116.989 97.689 116.972C91.8526 116.961 86.0619 117.72 80.2484 118.091C75.1887 118.417 70.1461 119.068 65.0578 118.971C62.3566 118.919 59.6555 119.034 56.9543 118.919C51.2093 118.679 45.5385 119.513 39.8392 119.976C38.1203 120.113 36.3899 120.193 34.6653 120.267C33.3689 120.324 32.0555 120.204 30.782 120.387C26.0706 121.055 21.5363 120.159 17.0305 118.976C14.6263 118.343 12.2392 117.669 9.86924 116.926C8.53293 116.509 7.20804 116.007 5.95738 115.384C1.74857 113.306 0.766323 111.895 0.0581912 107.264C-0.221635 105.431 0.555025 103.889 1.37737 102.364C2.2454 100.748 3.11344 99.1316 4.00431 97.5326C4.64391 96.3791 5.06651 95.1741 5.08364 93.8435C5.10077 92.7242 5.3806 91.6905 6.20295 90.891C9.795 87.4018 11.4911 82.8161 13.4442 78.3788C14.0952 76.8997 14.6777 75.3864 15.3744 73.9244C15.7513 73.1306 15.9569 72.3197 16.0882 71.4574C16.8306 66.6318 18.7038 62.3716 22.3072 58.9395C25.5338 55.8671 28.1322 52.2807 30.445 48.5002C31.5129 46.7527 32.7693 45.1366 33.7744 43.3377C36.0644 39.2317 37.3893 34.7887 38.6514 30.3229C39.3995 27.6732 40.5416 25.3889 42.409 23.2873C45.6299 19.661 49.0049 16.1489 51.8432 12.1914C52.1573 11.7573 52.6027 11.4147 52.9282 10.9921C54.7728 8.61072 57.257 7.54852 60.2037 7.3258C63.0191 7.1145 65.7545 6.50346 68.41 5.53263C72.6188 3.99073 76.9362 3.20836 81.4305 3.43679C84.4686 3.59098 87.4725 3.26547 90.4192 2.50594C91.9154 2.12332 93.4059 2.13474 94.9193 2.32891C98.7912 2.83716 102.629 2.93424 106.529 2.30606C109.613 1.80923 112.771 1.94058 115.889 2.46025C119.755 3.11128 123.673 3.03704 127.516 2.57447C129.943 2.28322 132.382 1.66075 134.775 1.06112C138.269 0.181668 141.753 -0.218084 145.339 0.118849C146.841 0.261618 148.36 0.210221 149.874 0.215932C155.602 0.238775 161.312 0.724188 166.937 1.70643C170.981 2.40886 175.047 2.91711 179.078 3.63095C181.831 4.11637 184.532 4.97869 186.965 6.46348C188.473 7.38291 190.06 7.91972 191.848 7.99967C194.246 8.11388 196.519 8.75349 198.695 9.79284C200.836 10.8151 203.029 11.7345 205.177 12.7396C206.159 13.1964 207.164 13.7333 207.786 14.6184C209.288 16.7542 211.344 18.3589 213.023 20.3177C215.205 22.859 217.654 25.1033 220.379 27.1135C224.033 29.809 227.808 32.2989 231.709 34.6117C232.719 35.2113 233.599 36.0394 234.507 36.8046C235.181 37.3757 235.655 38.1295 235.786 39.0033C236.146 41.4189 237.351 43.4805 238.527 45.5364C239.241 46.7813 239.749 48.0434 239.886 49.4768C239.949 50.1164 240.103 50.756 240.275 51.3784C241.982 57.5746 240.389 63.3767 238.002 69.0075C237.025 71.3146 235.135 73.0393 232.845 74.1986C228.688 76.3001 224.816 78.8471 221.104 81.6568C219.539 82.8389 218.1 84.1638 217.232 85.9513C215.25 90.0401 211.738 92.5529 208.043 94.8257C206.01 96.0707 204.069 97.4013 202.184 98.8575C199.283 101.102 196.285 103.238 193.253 105.305C190.98 106.858 189.215 108.657 187.981 111.238C186.462 114.425 183.91 116.766 180.243 117.589C178.125 118.063 175.989 118.297 173.836 118.491C169.861 118.851 165.875 119.125 161.918 119.622C158.366 120.073 154.814 120.113 150.542 120.204L150.548 120.216Z" fill="#648B9C"/>
<path d="M104.176 17.3765H96.0156V30.928H104.176V17.3765Z" fill="#F4A378"/>
<path d="M104.176 65.6147H96.0156V68.0761H104.176V65.6147Z" fill="#F4A378"/>
<path d="M136.813 65.6147H128.652V68.0761H136.813V65.6147Z" fill="#F4A378"/>
<path d="M87.8618 65.6147H79.7012V68.0761H87.8618V65.6147Z" fill="#F4A378"/>
<path d="M104.176 82.2622H96.0156V101.216H104.176V82.2622Z" fill="#F4A378"/>
<path d="M87.8618 82.2622H79.7012V101.216H87.8618V82.2622Z" fill="#F4A378"/>
<path d="M120.499 82.2622H112.338V101.216H120.499V82.2622Z" fill="#F4A378"/>
<path d="M87.8618 17.3765H79.7012V30.928H87.8618V17.3765Z" fill="#F4A378"/>
<path d="M136.813 35.7822H128.652V43.6916H136.813V35.7822Z" fill="#F4A378"/>
<path d="M136.813 17.3765H128.652V30.928H136.813V17.3765Z" fill="#F4A378"/>
<path d="M120.499 17.3765H112.338V30.928H120.499V17.3765Z" fill="#F4A378"/>
<path d="M120.499 35.7822H112.338V43.6916H120.499V35.7822Z" fill="#F4A378"/>
<path d="M120.499 65.6147H112.338V68.0761H120.499V65.6147Z" fill="#F4A378"/>
<path d="M104.176 35.7822H96.0156V43.6916H104.176V35.7822Z" fill="#F4A378"/>
<path d="M38.9028 82.2622H30.7422V101.216H38.9028V82.2622Z" fill="#F4A378"/>
<path d="M22.5864 82.2622H14.4258V101.216H22.5864V82.2622Z" fill="#F4A378"/>
<path d="M55.2231 65.6147H47.0625V68.0761H55.2231V65.6147Z" fill="#F4A378"/>
<path d="M55.2231 35.7822H47.0625V43.6916H55.2231V35.7822Z" fill="#F4A378"/>
<path d="M55.2192 30.928V17.3765H47.6868C47.4812 17.6163 47.2699 17.8562 47.0586 18.096V30.928H55.2192Z" fill="#F4A378"/>
<path d="M193.926 82.2622V101.216H199.06C200.076 100.468 201.087 99.7199 202.081 98.949V82.2622H193.92H193.926Z" fill="#F4A378"/>
<path d="M71.5396 65.6147H63.3789V68.0761H71.5396V65.6147Z" fill="#F4A378"/>
<path d="M55.2231 82.2622H47.0625V101.216H55.2231V82.2622Z" fill="#F4A378"/>
<path d="M71.5396 82.2622H63.3789V101.216H71.5396V82.2622Z" fill="#F4A378"/>
<path d="M87.8618 35.7822H79.7012V43.6916H87.8618V35.7822Z" fill="#F4A378"/>
<path d="M71.5396 35.7822H63.3789V43.6916H71.5396V35.7822Z" fill="#F4A378"/>
<path d="M71.5396 17.3765H63.3789V30.928H71.5396V17.3765Z" fill="#F4A378"/>
<path d="M38.9028 65.6147H30.7422V68.0761H38.9028V65.6147Z" fill="#F4A378"/>
<path d="M218.409 65.6147H210.248V68.0761H218.409V65.6147Z" fill="#F4A378"/>
<path d="M234.725 65.6147H226.564V68.0761H234.725V65.6147Z" fill="#F4A378"/>
<path d="M218.409 35.7822H210.248V43.6916H218.409V35.7822Z" fill="#F4A378"/>
<path d="M202.086 35.7822H193.926V43.6916H202.086V35.7822Z" fill="#F4A378"/>
<path d="M202.086 17.3765H193.926V30.928H202.086V17.3765Z" fill="#F4A378"/>
<path d="M202.086 65.6147H193.926V68.0761H202.086V65.6147Z" fill="#F4A378"/>
<path d="M210.248 82.2622V93.4267C213.098 91.4908 215.656 89.235 217.238 85.9685C217.558 85.3117 217.952 84.7178 218.409 84.1696V82.2622H210.248Z" fill="#F4A378"/>
<path d="M136.813 82.2622H128.652V101.216H136.813V82.2622Z" fill="#F4A378"/>
<path d="M5.07779 93.8431C5.06066 95.1737 4.63806 96.3787 3.99846 97.5322C3.31888 98.7543 2.65073 99.9878 1.98828 101.216H6.26562V90.8164C6.26562 90.8164 6.21994 90.8621 6.1971 90.8849C5.37475 91.6844 5.09492 92.7181 5.07779 93.8374V93.8431Z" fill="#F4A378"/>
<path d="M38.9019 35.7821H37.0002C36.1379 38.3748 35.1214 40.9103 33.7736 43.3317C33.7051 43.4516 33.6309 43.5658 33.5566 43.6857H38.9019V35.7764V35.7821Z" fill="#F4A378"/>
<path d="M218.403 30.9277V25.5881C216.455 23.9834 214.662 22.2417 213.023 20.3343C212.155 19.3235 211.184 18.3983 210.242 17.4561V30.9334H218.403V30.9277Z" fill="#F4A378"/>
<path d="M233.292 35.7822H226.564V43.6916H234.725V37.0329C234.651 36.9643 234.588 36.8844 234.508 36.8159C234.103 36.4732 233.703 36.1192 233.292 35.7822Z" fill="#F4A378"/>
<path d="M38.4746 30.9282H38.9029V29.5005C38.8173 29.7689 38.7316 30.043 38.6516 30.3228C38.5945 30.5284 38.5374 30.7283 38.4803 30.9282H38.4746Z" fill="#F4A378"/>
<path d="M22.5824 68.0761V65.6147H17.6941C17.3571 66.4142 17.0659 67.2366 16.8203 68.0761H22.5824Z" fill="#F4A378"/>
<path d="M153.133 82.2622H144.973V101.216H153.133V82.2622Z" fill="#F4A378"/>
<path d="M185.772 82.2622H177.611V101.216H185.772V82.2622Z" fill="#F4A378"/>
<path d="M153.133 65.6147H144.973V68.0761H153.133V65.6147Z" fill="#F4A378"/>
<path d="M153.133 35.7822H144.973V43.6916H153.133V35.7822Z" fill="#F4A378"/>
<path d="M169.45 17.3765H161.289V30.928H169.45V17.3765Z" fill="#F4A378"/>
<path d="M153.133 17.3765H144.973V30.928H153.133V17.3765Z" fill="#F4A378"/>
<path d="M169.45 35.7822H161.289V43.6916H169.45V35.7822Z" fill="#F4A378"/>
<path d="M185.772 17.3765H177.611V30.928H185.772V17.3765Z" fill="#F4A378"/>
<path d="M185.772 65.6147H177.611V68.0761H185.772V65.6147Z" fill="#F4A378"/>
<path d="M169.45 82.2622H161.289V101.216H169.45V82.2622Z" fill="#F4A378"/>
<path d="M185.772 35.7822H177.611V43.6916H185.772V35.7822Z" fill="#F4A378"/>
<path d="M169.45 65.6147H161.289V68.0761H169.45V65.6147Z" fill="#F4A378"/>
<path d="M112.336 30.9282H104.176V35.7824H112.336V30.9282Z" fill="#BFA899"/>
<path d="M112.336 43.6914H104.176V65.6149H112.336V43.6914Z" fill="#BFA899"/>
<path d="M112.336 68.0767H104.176V82.2564H112.336V68.0767Z" fill="#BFA899"/>
<path d="M120.492 101.216V117.269C121.52 117.349 122.554 117.446 123.582 117.566C125.272 117.76 126.962 117.943 128.647 118.132V101.216H120.486H120.492Z" fill="#BFA899"/>
<path d="M96.0161 30.9282H87.8555V35.7824H96.0161V30.9282Z" fill="#BFA899"/>
<path d="M104.176 101.216V116.932C106.894 116.904 109.618 116.881 112.336 116.921V101.216H104.176Z" fill="#BFA899"/>
<path d="M96.0161 43.6914H87.8555V65.6149H96.0161V43.6914Z" fill="#BFA899"/>
<path d="M96.0161 68.0767H87.8555V82.2564H96.0161V68.0767Z" fill="#BFA899"/>
<path d="M144.973 30.9282H136.812V35.7824H144.973V30.9282Z" fill="#BFA899"/>
<path d="M144.973 68.0767H136.812V82.2564H144.973V68.0767Z" fill="#BFA899"/>
<path d="M128.653 43.6914H120.492V65.6149H128.653V43.6914Z" fill="#BFA899"/>
<path d="M144.973 43.6914H136.812V65.6149H144.973V43.6914Z" fill="#BFA899"/>
<path d="M136.812 101.216V119.234C139.582 119.639 142.318 120.016 144.973 120.199V101.216H136.812Z" fill="#BFA899"/>
<path d="M128.653 30.9282H120.492V35.7824H128.653V30.9282Z" fill="#BFA899"/>
<path d="M128.653 68.0767H120.492V82.2564H128.653V68.0767Z" fill="#BFA899"/>
<path d="M22.582 101.216V120.193C25.2604 120.627 27.973 120.781 30.7427 120.393V101.216H22.582Z" fill="#BFA899"/>
<path d="M87.8555 101.216V117.48C90.5738 117.252 93.2864 117.052 96.0161 116.995V101.216H87.8555Z" fill="#BFA899"/>
<path d="M47.063 43.6914H38.9023V65.6149H47.063V43.6914Z" fill="#BFA899"/>
<path d="M47.063 68.0767H38.9023V82.2564H47.063V68.0767Z" fill="#BFA899"/>
<path d="M47.063 30.9282H38.9023V35.7824H47.063V30.9282Z" fill="#BFA899"/>
<path d="M153.129 101.216V120.159C156.059 120.09 158.691 119.999 161.29 119.702V101.216H153.129Z" fill="#BFA899"/>
<path d="M30.7427 68.0767H22.582V82.2564H30.7427V68.0767Z" fill="#BFA899"/>
<path d="M38.9023 101.216V120.039C39.2164 120.016 39.5248 120.005 39.8389 119.976C42.2488 119.782 44.6531 119.519 47.063 119.302V101.216H38.9023Z" fill="#BFA899"/>
<path d="M55.2188 101.216V118.885C55.7955 118.885 56.3723 118.897 56.9548 118.92C59.0963 119.011 61.2379 118.96 63.3794 118.96V101.216H55.2188Z" fill="#BFA899"/>
<path d="M79.6997 30.9282H71.5391V35.7824H79.6997V30.9282Z" fill="#BFA899"/>
<path d="M79.6997 68.0767H71.5391V82.2564H79.6997V68.0767Z" fill="#BFA899"/>
<path d="M79.6997 43.6914H71.5391V65.6149H79.6997V43.6914Z" fill="#BFA899"/>
<path d="M63.3794 30.9282H55.2188V35.7824H63.3794V30.9282Z" fill="#BFA899"/>
<path d="M71.5391 101.216V118.765C74.2631 118.576 76.9757 118.314 79.6997 118.125V101.21H71.5391V101.216Z" fill="#BFA899"/>
<path d="M63.3794 43.6914H55.2188V65.6149H63.3794V43.6914Z" fill="#BFA899"/>
<path d="M63.3794 68.0767H55.2188V82.2564H63.3794V68.0767Z" fill="#BFA899"/>
<path d="M6.26562 101.216V115.533C7.4249 116.081 8.64129 116.544 9.86339 116.927C11.3767 117.401 12.8958 117.84 14.4263 118.263V101.216H6.26562Z" fill="#BFA899"/>
<path d="M193.926 17.3763V8.24483C193.241 8.1249 192.55 8.03924 191.842 8.00498C190.06 7.91932 188.467 7.38822 186.959 6.46308C186.565 6.22323 186.165 6.00622 185.76 5.79492V17.3649H193.92L193.926 17.3763Z" fill="#BFA899"/>
<path d="M177.612 17.3764V3.39083C174.899 2.93968 172.175 2.55135 169.451 2.12305V17.3764H177.612Z" fill="#BFA899"/>
<path d="M161.29 17.3766V0.901088C158.583 0.586998 155.859 0.387122 153.129 0.290039V17.3766H161.29Z" fill="#BFA899"/>
<path d="M218.402 30.9282V35.7824H226.563V31.4136C226.312 31.2537 226.06 31.0938 225.815 30.9282H218.402Z" fill="#BFA899"/>
<path d="M210.166 17.3764C209.316 16.5141 208.488 15.6289 207.779 14.6295C207.157 13.7444 206.152 13.2076 205.17 12.7507C204.147 12.271 203.114 11.8141 202.08 11.3516V17.3707H210.166V17.3764Z" fill="#BFA899"/>
<path d="M240.279 51.3952C240.108 50.7727 239.948 50.1331 239.891 49.4935C239.754 48.0658 239.246 46.798 238.532 45.5531C238.178 44.9363 237.824 44.3196 237.493 43.6914H234.729V65.6149H239.331C240.908 61.0521 241.65 56.3464 240.285 51.3895L240.279 51.3952Z" fill="#BFA899"/>
<path d="M238.397 68.0767H234.725V73.0564C236.158 71.9999 237.317 70.6636 238.008 69.0246C238.14 68.7106 238.271 68.3965 238.397 68.0824V68.0767Z" fill="#BFA899"/>
<path d="M144.973 17.3763V0.095564C142.209 -0.127155 139.508 0.0841426 136.812 0.615241V17.3763H144.973Z" fill="#BFA899"/>
<path d="M30.7427 65.615V48.0259C30.6399 48.1858 30.5371 48.34 30.44 48.4942C28.1957 52.1662 25.6773 55.644 22.582 58.6536V65.615H30.7427Z" fill="#BFA899"/>
<path d="M63.3795 17.3761V6.91406C62.3288 7.10823 61.2723 7.24528 60.2044 7.32524C58.3427 7.46229 56.6694 7.942 55.2246 8.87285V17.3704H63.3853L63.3795 17.3761Z" fill="#BFA899"/>
<path d="M14.4264 76.0601C14.1009 76.8367 13.7811 77.6134 13.4441 78.3786C12.8731 79.6693 12.3248 80.977 11.748 82.2619H14.4264V76.0601Z" fill="#BFA899"/>
<path d="M96.0161 17.3763V2.46561C95.6506 2.42563 95.2851 2.38566 94.9197 2.33426C93.4063 2.13439 91.9158 2.12297 90.4196 2.5113C89.5687 2.7283 88.7178 2.91105 87.8555 3.05382V17.3763H96.0161Z" fill="#BFA899"/>
<path d="M112.336 17.3761V2.05422C110.389 1.93429 108.447 2.00282 106.529 2.3112C105.741 2.43684 104.958 2.52821 104.176 2.59674V17.3704H112.336V17.3761Z" fill="#BFA899"/>
<path d="M128.653 17.3765V2.40869C128.276 2.47151 127.893 2.53433 127.516 2.58001C125.192 2.85984 122.845 2.99119 120.492 2.91695V17.3765H128.653Z" fill="#BFA899"/>
<path d="M161.29 43.6914H153.129V65.6149H161.29V43.6914Z" fill="#BFA899"/>
<path d="M79.6997 17.3765V3.40234C76.9186 3.41948 74.206 3.81923 71.5391 4.53878V17.3765H79.6997Z" fill="#BFA899"/>
<path d="M185.766 101.216V114.511C186.662 113.574 187.399 112.472 187.987 111.25C189.221 108.669 190.98 106.864 193.258 105.317C193.481 105.162 193.704 105.008 193.926 104.854V101.216H185.766Z" fill="#BFA899"/>
<path d="M177.612 30.9282H169.451V35.7824H177.612V30.9282Z" fill="#BFA899"/>
<path d="M177.612 68.0767H169.451V82.2564H177.612V68.0767Z" fill="#BFA899"/>
<path d="M226.563 43.6914H218.402V65.6149H226.563V43.6914Z" fill="#BFA899"/>
<path d="M161.29 30.9282H153.129V35.7824H161.29V30.9282Z" fill="#BFA899"/>
<path d="M161.29 68.0767H153.129V82.2564H161.29V68.0767Z" fill="#BFA899"/>
<path d="M169.451 101.216V118.88C170.913 118.754 172.381 118.634 173.843 118.503C175.105 118.389 176.361 118.257 177.612 118.074V101.222H169.451V101.216Z" fill="#BFA899"/>
<path d="M177.612 43.6914H169.451V65.6149H177.612V43.6914Z" fill="#BFA899"/>
<path d="M210.249 68.0767H202.088V82.2564H210.249V68.0767Z" fill="#BFA899"/>
<path d="M210.249 30.9282H202.088V35.7824H210.249V30.9282Z" fill="#BFA899"/>
<path d="M218.402 68.0767V82.2564H220.361C220.607 82.0566 220.852 81.8567 221.109 81.6682C222.885 80.3205 224.701 79.0413 226.563 77.8363V68.0767H218.402Z" fill="#BFA899"/>
<path d="M193.926 30.9282H185.766V35.7824H193.926V30.9282Z" fill="#BFA899"/>
<path d="M210.249 43.6914H202.088V65.6149H210.249V43.6914Z" fill="#BFA899"/>
<path d="M193.926 43.6914H185.766V65.6149H193.926V43.6914Z" fill="#BFA899"/>
<path d="M193.926 68.0767H185.766V82.2564H193.926V68.0767Z" fill="#BFA899"/>
</svg>
