<svg width="162" height="146" viewBox="0 0 162 146" fill="none" xmlns="http://www.w3.org/2000/svg">
<path d="M87.4947 0.736808C90.0547 0.497099 92.4135 1.09637 94.5996 2.24697C99.5952 4.87419 104.643 7.4151 108.522 11.7347C110.157 13.5564 112.271 14.6783 114.663 15.5077C119.692 17.248 124.53 19.4916 129.041 22.3442C132.325 24.4201 135.647 26.3857 139.229 27.9246C141.362 28.8403 143.424 29.9334 145.509 30.9689C147.106 31.7647 148.529 32.8147 149.881 33.9749C151.986 35.7727 154.067 37.5993 156.238 39.3156C157.509 40.3176 158.405 41.5065 158.899 43.0311C159.244 44.0858 159.542 45.1549 159.959 46.1808C161.368 49.6518 161.646 53.142 161.114 56.9102C160.069 64.2837 158.506 71.5373 156.214 78.5895C154.709 83.2255 153.18 87.8375 151.833 92.5262C150.509 97.1286 149.694 101.798 149.114 106.53C148.625 110.504 147.475 114.33 146.453 118.185C145.682 121.099 144.09 123.314 141.415 124.887C138.073 126.848 134.871 129.043 131.644 131.196C129.76 132.452 127.699 133.186 125.513 133.627C124.103 133.914 122.684 134.168 121.27 134.427C120.944 134.485 120.589 134.437 120.282 134.542C114.658 136.503 108.709 137.659 103.752 141.249C101.944 142.558 100.027 143.613 97.898 144.327C95.1989 145.233 92.4854 145.377 89.7048 144.888C84.3545 143.944 79.1001 142.611 73.9127 140.981C72.5464 140.549 71.1273 140.185 69.7035 140.041C66.4003 139.71 63.1306 139.011 59.7843 139.188C57.9769 139.284 56.2941 138.747 54.5922 138.22C51.5287 137.27 48.5036 136.163 45.325 135.64C44.2368 135.463 43.1245 135.305 42.0314 135.348C40.3679 135.415 38.7187 135.506 37.0599 135.314C35.9524 135.185 34.8594 135.396 33.7663 135.616C31.3692 136.091 28.9721 136.268 26.5079 136.009C23.2047 135.659 19.868 135.592 16.5696 136.22C14.8676 136.546 13.3143 136.144 11.7274 135.496C7.99277 133.977 5.33679 131.153 2.84861 128.18C0.892584 125.851 0.614522 122.945 0.633699 120.021C0.638493 119.23 0.926144 118.487 1.38638 117.849C3.2657 115.251 3.94648 112.245 4.43548 109.157C5.04434 105.317 6.03674 101.606 7.61403 98.0251C8.77901 95.3739 9.04749 92.4495 9.14816 89.573C9.32075 84.5678 10.0015 79.6538 11.3918 74.8404C11.574 74.2076 11.6987 73.546 11.761 72.8892C11.9863 70.3243 12.6144 67.8841 13.6978 65.5397C14.7382 63.2961 15.1792 60.9134 15.1649 58.4348C15.1505 56.4404 15.2224 54.446 15.2272 52.4516C15.2272 50.7209 15.7498 49.182 16.8236 47.83C17.4421 47.0486 18.0318 46.2384 18.7078 45.5145C21.1959 42.8441 23.7273 40.2169 26.2107 37.5465C26.9106 36.7938 27.7496 36.2569 28.6749 35.9021C32.026 34.6173 34.2793 32.014 36.5613 29.4396C37.2229 28.6965 37.8413 27.9102 38.4262 27.1048C40.1282 24.7604 42.1417 22.8092 44.4813 21.0354C47.027 19.1033 49.0022 16.4569 50.5699 13.6379C51.7013 11.6052 53.2402 10.1094 55.2634 9.09786C58.0296 7.71234 60.8198 6.44668 63.8641 5.64605C69.7562 4.09273 75.7297 2.92295 81.6314 1.43196C83.5826 0.938163 85.5386 0.640924 87.4995 0.746396L87.4947 0.736808Z" fill="#B0B6B5"/>
<path d="M100.635 62.4766H90.1836V72.9279H100.635V62.4766Z" fill="#AFC3E3"/>
<path d="M48.3888 72.9229H37.9375V83.3742H48.3888V72.9229Z" fill="#AFC3E3"/>
<path d="M111.082 72.9229H100.631V83.3742H111.082V72.9229Z" fill="#AFC3E3"/>
<path d="M69.2872 52.0254H58.8359V62.4767H69.2872V52.0254Z" fill="#AFC3E3"/>
<path d="M69.2872 93.8203H58.8359V104.272H69.2872V93.8203Z" fill="#AFC3E3"/>
<path d="M90.1837 52.0254H79.7324V62.4767H90.1837V52.0254Z" fill="#AFC3E3"/>
<path d="M58.8341 62.4766H48.3828V72.9279H58.8341V62.4766Z" fill="#AFC3E3"/>
<path d="M48.3888 93.8203H37.9375V104.272H48.3888V93.8203Z" fill="#AFC3E3"/>
<path d="M44.9023 20.6811H48.3829V17.0088C47.3618 18.3703 46.2112 19.6216 44.9023 20.6811Z" fill="#AFC3E3"/>
<path d="M100.631 143.167C101.714 142.611 102.75 141.968 103.747 141.249C106.024 139.6 108.512 138.469 111.082 137.529V135.616H100.631V143.167Z" fill="#AFC3E3"/>
<path d="M79.7333 142.673C83.0221 143.546 86.3397 144.294 89.6956 144.888C89.8586 144.917 90.0168 144.936 90.1798 144.96V135.621H79.7285V142.678L79.7333 142.673Z" fill="#AFC3E3"/>
<path d="M140.935 125.17H131.975V130.966C134.933 128.986 137.881 126.987 140.935 125.17Z" fill="#AFC3E3"/>
<path d="M146.453 118.174C146.76 117.024 147.076 115.868 147.383 114.718H142.426V124.21C144.497 122.7 145.782 120.701 146.453 118.174Z" fill="#AFC3E3"/>
<path d="M3.06409 114.718C2.6422 115.806 2.10046 116.856 1.38613 117.848C0.925885 118.486 0.638234 119.229 0.63344 120.02C0.623852 121.784 0.719735 123.539 1.22792 125.169H6.59261V114.723H3.06888L3.06409 114.718Z" fill="#AFC3E3"/>
<path d="M17.0391 136.144C20.184 135.607 23.353 135.679 26.498 136.009C26.8288 136.043 27.1596 136.072 27.4904 136.091V135.621H17.0391V136.148V136.144Z" fill="#AFC3E3"/>
<path d="M45.3201 135.645C46.3557 135.813 47.3768 136.053 48.3836 136.321V135.621H45.1523C45.2051 135.631 45.2626 135.635 45.3153 135.645H45.3201Z" fill="#AFC3E3"/>
<path d="M149.411 104.272C149.905 100.753 150.557 97.2721 151.472 93.8203H142.426V104.272H149.411Z" fill="#AFC3E3"/>
<path d="M58.8349 139.178C59.1465 139.197 59.4629 139.207 59.7793 139.188C62.9866 139.02 66.122 139.648 69.2814 139.993V135.616H58.8301V139.178H58.8349Z" fill="#AFC3E3"/>
<path d="M121.529 18.2686V20.6752H126.237C124.698 19.8075 123.126 19.0069 121.529 18.2686Z" fill="#AFC3E3"/>
<path d="M100.631 5.53157C98.6654 4.36659 96.6327 3.31187 94.5999 2.24756C93.2 1.50925 91.7282 1.00587 90.1797 0.794922V10.2299H100.631V5.53157Z" fill="#AFC3E3"/>
<path d="M79.7326 1.8877C76.2568 2.72668 72.7666 3.48895 69.2812 4.30396V10.2344H79.7326V1.8877Z" fill="#AFC3E3"/>
<path d="M154.662 83.374H152.879V89.0072C153.454 87.1231 154.058 85.2485 154.662 83.374Z" fill="#AFC3E3"/>
<path d="M142.427 29.4202C141.372 28.8976 140.308 28.3894 139.229 27.9244C136.712 26.8409 134.32 25.5465 131.98 24.1514V31.1269H142.432V29.4202H142.427Z" fill="#AFC3E3"/>
<path d="M157.883 72.923C158.808 69.476 159.58 65.9954 160.213 62.4717H152.873V72.923H157.883Z" fill="#AFC3E3"/>
<path d="M100.635 83.374H90.1836V93.8253H100.635V83.374Z" fill="#AFC3E3"/>
<path d="M161.306 52.0256C161.167 50.0408 160.745 48.104 159.959 46.1767C159.542 45.1508 159.245 44.0817 158.899 43.0269C158.732 42.5092 158.511 42.0298 158.247 41.5791H152.873V52.0304H161.301L161.306 52.0256Z" fill="#AFC3E3"/>
<path d="M79.7326 62.4766H69.2812V72.9279H79.7326V62.4766Z" fill="#AFC3E3"/>
<path d="M58.8341 83.374H48.3828V93.8253H58.8341V83.374Z" fill="#AFC3E3"/>
<path d="M90.1837 93.8203H79.7324V104.272H90.1837V93.8203Z" fill="#AFC3E3"/>
<path d="M79.7326 41.5791H69.2812V52.0304H79.7326V41.5791Z" fill="#AFC3E3"/>
<path d="M90.1837 72.9229H79.7324V83.3742H90.1837V72.9229Z" fill="#AFC3E3"/>
<path d="M79.7326 83.374H69.2812V93.8253H79.7326V83.374Z" fill="#AFC3E3"/>
<path d="M69.2872 72.9229H58.8359V83.3742H69.2872V72.9229Z" fill="#AFC3E3"/>
<path d="M9.64722 83.3749C9.38354 85.4268 9.22054 87.4931 9.14863 89.5738C9.10068 90.9929 9.00959 92.4215 8.78906 93.8214H17.0398V83.3701H9.64722V83.3749Z" fill="#AFC3E3"/>
<path d="M14.733 62.4766C14.4933 63.5217 14.1577 64.5429 13.6975 65.54C12.614 67.8844 11.986 70.3294 11.7607 72.8895C11.7607 72.9039 11.7607 72.9135 11.7559 72.9279H17.0438V62.4766H14.7378H14.733Z" fill="#AFC3E3"/>
<path d="M16.8195 47.8306C15.8367 49.0723 15.3237 50.4674 15.2422 52.0255H17.04V47.543C16.9681 47.6389 16.8914 47.7347 16.8195 47.8258V47.8306Z" fill="#AFC3E3"/>
<path d="M5.45703 104.272H6.58846V100.604C6.15219 101.813 5.77824 103.035 5.45703 104.272Z" fill="#AFC3E3"/>
<path d="M36.5569 29.4344C36.0535 30.0002 35.5501 30.5707 35.0371 31.1268H37.9376V27.7373C37.4965 28.3174 37.0411 28.8927 36.5569 29.4344Z" fill="#AFC3E3"/>
<path d="M27.4904 114.718H17.0391V125.164H27.4904V114.718Z" fill="#AFC3E3"/>
<path d="M26.2052 37.5411C24.9443 38.8931 23.6739 40.2307 22.4082 41.573H27.49V36.4912C27.0298 36.7837 26.5935 37.124 26.21 37.5411H26.2052Z" fill="#AFC3E3"/>
<path d="M131.981 52.0254H121.529V62.4767H131.981V52.0254Z" fill="#AFC3E3"/>
<path d="M152.877 52.0254H142.426V62.4767H152.877V52.0254Z" fill="#AFC3E3"/>
<path d="M27.4863 135.616H33.7523C33.7523 135.616 33.7523 135.616 33.7571 135.616C34.8502 135.401 35.9433 135.19 37.0507 135.314C37.348 135.348 37.6404 135.362 37.9376 135.381V125.165H27.4863V135.616Z" fill="#AFC3E3"/>
<path d="M17.0392 104.272H6.58789V114.724H17.0392V104.272Z" fill="#AFC3E3"/>
<path d="M48.3888 114.718H37.9375V125.164H48.3888V114.718Z" fill="#AFC3E3"/>
<path d="M6.58789 125.17V132.189C8.08847 133.541 9.75205 134.706 11.7177 135.501C11.8183 135.545 11.919 135.578 12.0245 135.621H17.0392V125.17H6.58789Z" fill="#AFC3E3"/>
<path d="M79.7326 125.17H69.2812V135.621H79.7326V125.17Z" fill="#AFC3E3"/>
<path d="M100.635 125.17H90.1836V135.621H100.635V125.17Z" fill="#AFC3E3"/>
<path d="M79.7326 20.6807H69.2812V31.132H79.7326V20.6807Z" fill="#AFC3E3"/>
<path d="M48.3888 31.127H37.9375V41.5783H48.3888V31.127Z" fill="#AFC3E3"/>
<path d="M58.8341 20.6807H48.3828V31.132H58.8341V20.6807Z" fill="#AFC3E3"/>
<path d="M37.9376 41.5791H27.4863V52.0304H37.9376V41.5791Z" fill="#AFC3E3"/>
<path d="M27.4904 52.0254H17.0391V62.4767H27.4904V52.0254Z" fill="#AFC3E3"/>
<path d="M27.4904 93.8203H17.0391V104.272H27.4904V93.8203Z" fill="#AFC3E3"/>
<path d="M27.4904 72.9229H17.0391V83.3742H27.4904V72.9229Z" fill="#AFC3E3"/>
<path d="M58.8341 125.17H48.3828V135.621H58.8341V125.17Z" fill="#AFC3E3"/>
<path d="M131.981 31.127H121.529V41.5783H131.981V31.127Z" fill="#AFC3E3"/>
<path d="M111.081 20.6809V13.8492C110.142 13.2643 109.279 12.5787 108.526 11.7397C108.051 11.2124 107.562 10.7138 107.059 10.2344H100.635V20.6857H111.086L111.081 20.6809Z" fill="#AFC3E3"/>
<path d="M121.533 20.6807H111.082V31.132H121.533V20.6807Z" fill="#AFC3E3"/>
<path d="M90.1837 10.2295H79.7324V20.6808H90.1837V10.2295Z" fill="#AFC3E3"/>
<path d="M69.2872 10.2295H58.8359V20.6808H69.2872V10.2295Z" fill="#AFC3E3"/>
<path d="M55.2586 9.08812C54.6066 9.41412 54.0073 9.79766 53.4512 10.2291H58.835V7.41016C57.6269 7.93272 56.4379 8.49844 55.2586 9.09291V9.08812Z" fill="#AFC3E3"/>
<path d="M111.082 135.616H116.969C118.082 135.271 119.189 134.921 120.282 134.538C120.589 134.432 120.944 134.48 121.27 134.423C121.356 134.408 121.442 134.389 121.533 134.375V125.17H111.082V135.621V135.616Z" fill="#AFC3E3"/>
<path d="M131.981 114.718H121.529V125.164H131.981V114.718Z" fill="#AFC3E3"/>
<path d="M152.877 41.5784V36.5397C151.875 35.6863 150.883 34.8282 149.881 33.9748C148.61 32.8913 147.277 31.9037 145.801 31.1318H142.426V41.5831H152.877V41.5784Z" fill="#AFC3E3"/>
<path d="M142.432 104.272H131.98V114.724H142.432V104.272Z" fill="#AFC3E3"/>
<path d="M152.877 72.9229H142.426V83.3742H152.877V72.9229Z" fill="#AFC3E3"/>
<path d="M142.432 83.374H131.98V93.8253H142.432V83.374Z" fill="#AFC3E3"/>
<path d="M48.3888 52.0254H37.9375V62.4767H48.3888V52.0254Z" fill="#AFC3E3"/>
<path d="M58.8341 41.5791H48.3828V52.0304H58.8341V41.5791Z" fill="#AFC3E3"/>
<path d="M69.2872 31.127H58.8359V41.5783H69.2872V31.127Z" fill="#AFC3E3"/>
<path d="M90.1837 31.127H79.7324V41.5783H90.1837V31.127Z" fill="#AFC3E3"/>
<path d="M37.9376 83.374H27.4863V93.8253H37.9376V83.374Z" fill="#AFC3E3"/>
<path d="M79.7326 104.272H69.2812V114.724H79.7326V104.272Z" fill="#AFC3E3"/>
<path d="M100.635 41.5791H90.1836V52.0304H100.635V41.5791Z" fill="#AFC3E3"/>
<path d="M37.9376 62.4766H27.4863V72.9279H37.9376V62.4766Z" fill="#AFC3E3"/>
<path d="M100.635 20.6807H90.1836V31.132H100.635V20.6807Z" fill="#AFC3E3"/>
<path d="M111.082 52.0254H100.631V62.4767H111.082V52.0254Z" fill="#AFC3E3"/>
<path d="M100.635 104.272H90.1836V114.724H100.635V104.272Z" fill="#AFC3E3"/>
<path d="M121.533 83.374H111.082V93.8253H121.533V83.374Z" fill="#AFC3E3"/>
<path d="M121.533 62.4766H111.082V72.9279H121.533V62.4766Z" fill="#AFC3E3"/>
<path d="M111.082 93.8203H100.631V104.272H111.082V93.8203Z" fill="#AFC3E3"/>
<path d="M142.432 41.5791H131.98V52.0304H142.432V41.5791Z" fill="#AFC3E3"/>
<path d="M142.432 62.4766H131.98V72.9279H142.432V62.4766Z" fill="#AFC3E3"/>
<path d="M131.981 72.9229H121.529V83.3742H131.981V72.9229Z" fill="#AFC3E3"/>
<path d="M131.981 93.8203H121.529V104.272H131.981V93.8203Z" fill="#AFC3E3"/>
<path d="M111.082 31.127H100.631V41.5783H111.082V31.127Z" fill="#AFC3E3"/>
<path d="M121.533 41.5791H111.082V52.0304H121.533V41.5791Z" fill="#AFC3E3"/>
<path d="M69.2872 114.718H58.8359V125.164H69.2872V114.718Z" fill="#AFC3E3"/>
<path d="M37.9376 104.272H27.4863V114.724H37.9376V104.272Z" fill="#AFC3E3"/>
<path d="M58.8341 104.272H48.3828V114.724H58.8341V104.272Z" fill="#AFC3E3"/>
<path d="M111.082 114.718H100.631V125.164H111.082V114.718Z" fill="#AFC3E3"/>
<path d="M90.1837 114.718H79.7324V125.164H90.1837V114.718Z" fill="#AFC3E3"/>
<path d="M121.533 104.272H111.082V114.724H121.533V104.272Z" fill="#AFC3E3"/>
</svg>
