<svg width="205" height="135" viewBox="0 0 205 135" fill="none" xmlns="http://www.w3.org/2000/svg">
<path d="M204.968 83.066C205.288 88.2093 203.183 92.406 199.981 96.2289C198.625 97.8449 197.298 99.5151 196.159 101.294C193.445 105.515 189.689 108.662 185.836 111.737C185.305 112.159 184.756 112.545 184.238 112.98C181.096 115.59 177.653 117.671 173.873 119.226C170.484 120.619 167.137 122.121 163.791 123.61C157.056 126.601 149.959 128.458 142.795 130.001C139.895 130.623 136.874 130.834 133.895 130.93C128.873 131.087 123.886 131.599 118.93 132.317C115.8 132.769 112.785 132.588 109.746 131.979C108.124 131.654 106.502 131.533 104.856 131.515C103.596 131.503 102.33 131.581 101.166 132.1C97.9099 133.553 94.4066 133.662 90.9636 133.806C87.1046 133.969 83.2757 134.367 79.4408 134.729C78.7715 134.795 78.0962 134.819 77.4269 134.771C73.3869 134.482 69.3531 134.18 65.3191 133.848C59.6512 133.384 53.9832 132.92 48.3213 132.389C46.4099 132.208 44.4804 132.257 42.581 131.762C40.7841 131.292 39.0355 130.731 37.5341 129.67C34.4288 127.475 30.9195 126.112 27.4765 124.605C25.5289 123.755 23.6295 122.826 21.7904 121.753C19.264 120.276 17.1777 118.34 15.2421 116.139C11.968 112.413 9.32694 108.288 6.9874 103.953C6.06485 102.247 5.082 100.594 3.85796 99.0991C1.838 96.6329 0.969717 93.6783 0.18585 90.6876C-0.0372502 89.8374 -0.0493097 88.9691 0.0954041 88.1008C0.734557 84.29 1.12649 80.4671 1.05413 76.596C1.01795 74.5399 1.57269 72.6043 2.48921 70.7532C3.72531 68.2448 4.84081 65.6762 6.08897 63.1738C6.90299 61.5398 7.74112 59.9178 9.10987 58.6214C9.72491 58.0365 10.2374 57.2707 10.5751 56.4929C11.974 53.285 14.416 50.9455 17.0209 48.7989C18.667 47.4422 20.2106 46.0192 21.712 44.5178C22.4597 43.7701 23.2677 43.0767 24.0455 42.3531C25.0405 41.4245 26.0293 40.4357 26.4876 39.1634C27.5247 36.2812 29.4603 33.9838 31.2511 31.6081C32.5837 29.8474 34.1815 28.2797 35.6528 26.6275C36.6779 25.4759 37.7331 24.3483 38.7159 23.1665C40.8866 20.5677 43.3106 18.21 45.8129 15.9549C47.7605 14.2002 50.281 13.3078 52.6868 12.3129C55.1771 11.2879 57.6855 10.2869 60.2602 9.45483C63.0098 8.56846 65.6749 7.41678 68.3762 6.37363C73.4352 4.42603 78.6509 3.05124 84.0355 2.37591C87.382 1.95986 90.7405 1.65837 94.0991 1.37498C95.3412 1.27247 96.6075 1.47748 97.8436 1.3388C100.141 1.07952 102.432 0.729792 104.705 0.31977C106.418 0.000193358 108.142 -0.0299554 109.879 0.0182826C110.952 0.0484313 112.032 0.181086 112.942 0.759941C115.432 2.32767 118.254 3.02713 120.992 3.94365C123.645 4.83605 126.346 5.55359 128.836 6.8741C129.795 7.3806 130.838 7.57958 131.912 7.56752C136.808 7.51326 141.433 8.82774 146.015 10.3472C148.204 11.0768 150.393 11.8004 152.473 12.8616C153.655 13.4646 155.018 13.7661 156.326 14.0736C158.412 14.5681 160.372 15.3037 162.175 16.4915C162.971 17.0161 163.851 17.4503 164.744 17.8C165.835 18.2281 166.872 18.7708 167.746 19.5124C169.085 20.64 170.436 21.6832 172.1 22.3042C172.842 22.5816 173.3 23.2328 173.692 23.9262C174.216 24.8427 174.843 25.711 175.338 26.6396C177.002 29.763 179.601 32.0483 182.139 34.4119C183.972 36.1184 185.643 37.9996 187.319 39.8568C188.995 41.72 190.653 43.5591 192.71 45.0605C194.247 46.182 195.459 47.7136 196.575 49.3175C197.961 51.3133 199.246 53.3514 199.951 55.6547C200.934 58.8626 202.369 61.9619 202.604 65.3626C202.713 66.9183 203.038 68.4076 203.551 69.8729C203.834 70.6869 204.112 71.5371 204.184 72.3873C204.486 75.9388 204.709 79.4903 204.962 83.0479L204.968 83.066Z" fill="#E1FF9A"/>
<path d="M144.436 129.664C145.576 129.41 146.709 129.151 147.843 128.874L120.293 3.66602C118.996 3.24997 117.694 2.85201 116.428 2.36963L144.436 129.67V129.664Z" fill="#C5CE0E"/>
<path d="M142.904 9.31616L167.687 121.94C168.772 121.457 169.863 120.981 170.955 120.517L146.757 10.5462C146.564 10.4799 146.365 10.4136 146.172 10.3472C145.087 9.98546 144.002 9.64177 142.91 9.31616H142.904Z" fill="#C5CE0E"/>
<path d="M125.399 5.34241L152.321 127.704C153.449 127.39 154.571 127.059 155.68 126.703L129.348 7.03677C129.227 6.9825 129.107 6.94029 128.986 6.87999C127.829 6.26496 126.623 5.77655 125.393 5.34844L125.399 5.34241Z" fill="#C5CE0E"/>
<path d="M128.161 131.274C129.336 131.177 130.512 131.099 131.688 131.032L102.992 0.633179C101.841 0.826131 100.683 0.994963 99.5254 1.14571L128.161 131.274Z" fill="#C5CE0E"/>
<path d="M107.596 0.024182L136.376 130.815C137.551 130.749 138.721 130.647 139.885 130.502L111.195 0.108598C110.816 0.0543307 110.424 0.0302117 110.038 0.0181522C109.224 -0.00596676 108.41 -0.00596676 107.596 0.0302117V0.024182Z" fill="#C5CE0E"/>
<path d="M160.082 125.171C161.186 124.755 162.283 124.315 163.369 123.845L137.899 8.10399C136.687 7.88089 135.457 7.71808 134.215 7.63367L160.076 125.171H160.082Z" fill="#C5CE0E"/>
<path d="M182.291 34.4179C182.038 34.1827 181.784 33.9476 181.531 33.7124L196.376 101.191C197.221 99.8949 198.155 98.6467 199.132 97.4408L186.138 38.3915C184.896 37.0227 183.636 35.6721 182.285 34.4179H182.291Z" fill="#C5CE0E"/>
<path d="M91.3185 1.62808L120.044 132.178C121.202 132.015 122.366 131.865 123.523 131.732L94.8339 1.35071C94.6349 1.35071 94.4359 1.35071 94.243 1.3688C93.2661 1.45321 92.2893 1.53763 91.3125 1.62808H91.3185Z" fill="#C5CE0E"/>
<path d="M192.867 45.0666C192.656 44.9098 192.451 44.753 192.246 44.5902L202.786 92.5026C203.908 90.573 204.685 88.5169 204.999 86.2799L196.931 49.613C196.865 49.5165 196.799 49.42 196.732 49.3236C195.617 47.7197 194.405 46.1881 192.867 45.0666Z" fill="#C5CE0E"/>
<path d="M172.25 22.3044C171.635 22.0752 171.068 21.7918 170.525 21.4602L189.712 108.644C190.737 107.746 191.732 106.817 192.673 105.834L175.09 25.9403C174.68 25.265 174.234 24.6077 173.842 23.9203C173.45 23.2329 172.998 22.5757 172.25 22.2983V22.3044Z" fill="#C5CE0E"/>
<path d="M151.932 12.5359L175.285 118.677C176.388 118.177 177.462 117.634 178.505 117.043L155.815 13.9227C154.717 13.6635 153.614 13.374 152.631 12.8675C152.402 12.753 152.167 12.6505 151.932 12.5419V12.5359Z" fill="#C5CE0E"/>
<path d="M162.325 16.4915C161.872 16.19 161.408 15.9187 160.932 15.6775L182.639 114.342C183.23 113.902 183.821 113.45 184.387 112.973C184.809 112.624 185.256 112.292 185.69 111.96L164.984 17.8482C164.953 17.8361 164.917 17.818 164.887 17.806C163.995 17.4563 163.114 17.0221 162.318 16.4975L162.325 16.4915Z" fill="#C5CE0E"/>
<path d="M11.5586 54.8709L26.8259 124.243C27.0912 124.364 27.3565 124.484 27.6218 124.605C28.677 125.063 29.7322 125.515 30.7874 125.98L14.3564 51.3134C13.2952 52.3866 12.3425 53.5564 11.5586 54.8769V54.8709Z" fill="#C5CE0E"/>
<path d="M36.1118 128.651C36.6424 128.97 37.173 129.302 37.6856 129.664C38.4694 130.219 39.3196 130.629 40.206 130.972L21.3027 45.0544C20.338 46.0011 19.3491 46.9176 18.3301 47.804L36.1178 128.651H36.1118Z" fill="#C5CE0E"/>
<path d="M38.0527 24.095L62.1416 133.571C63.251 133.662 64.3605 133.758 65.47 133.848C65.5785 133.854 65.681 133.867 65.7896 133.873L40.9169 20.8571C40.2174 21.6047 39.524 22.3705 38.8667 23.1604C38.6014 23.48 38.3241 23.7875 38.0527 24.1011V24.095Z" fill="#C5CE0E"/>
<path d="M31.3887 31.6142L53.6625 132.854C54.8806 132.962 56.0986 133.071 57.3166 133.173L34.2407 28.3159C33.2519 29.3772 32.263 30.4444 31.3947 31.6021V31.6142H31.3887Z" fill="#C5CE0E"/>
<path d="M25.217 41.3339L45.1995 132.16C46.2909 132.256 47.3823 132.287 48.4737 132.389C48.5943 132.401 48.7149 132.407 48.8355 132.419L27.7796 36.7212C27.3394 37.493 26.9415 38.295 26.634 39.1572C26.3385 39.9833 25.8139 40.6888 25.2109 41.3339H25.217Z" fill="#C5CE0E"/>
<path d="M0.982592 82.3786L4.93207 100.323C5.74609 101.475 6.4576 102.699 7.13293 103.953C8.21226 105.949 9.35791 107.897 10.594 109.784L2.20663 71.6819C1.54939 73.2496 1.16348 74.8776 1.19363 76.5901C1.22981 78.5317 1.1454 80.4552 0.976562 82.3726L0.982592 82.3786Z" fill="#C5CE0E"/>
<path d="M5.43164 64.8137L17.1293 117.99C18.4559 119.305 19.8789 120.474 21.4768 121.469L7.97619 60.1045C7.29483 61.0632 6.75818 62.1124 6.2336 63.1676C5.96226 63.7163 5.69695 64.265 5.43767 64.8137H5.43164Z" fill="#C5CE0E"/>
<path d="M83.1992 2.51442L111.75 132.281C112.962 132.449 114.168 132.546 115.392 132.558L86.6844 2.0863C85.8523 2.17675 85.0202 2.27323 84.1881 2.37573C83.8565 2.41794 83.5309 2.46618 83.1992 2.51442Z" fill="#C5CE0E"/>
<path d="M67.502 6.77748L95.3956 133.541C96.5593 133.42 97.711 133.245 98.8446 132.956L70.8123 5.54138C70.0465 5.80669 69.2868 6.08406 68.527 6.37349C68.1833 6.50614 67.8456 6.64483 67.502 6.77748Z" fill="#C5CE0E"/>
<path d="M103.282 131.587C103.855 131.521 104.434 131.503 105.013 131.509C105.634 131.509 106.249 131.539 106.864 131.581L78.6389 3.32849C77.4993 3.57571 76.3657 3.85911 75.2441 4.16663L103.282 131.587Z" fill="#C5CE0E"/>
<path d="M52.1523 12.5901L79.0329 134.765C79.2199 134.753 79.4068 134.747 79.5877 134.729C80.5705 134.632 81.5594 134.536 82.5423 134.445L55.4386 11.2635C54.5703 11.6072 53.702 11.957 52.8397 12.3127C52.6106 12.4092 52.3815 12.4996 52.1523 12.5961V12.5901Z" fill="#C5CE0E"/>
<path d="M44.8066 17.0162L70.6019 134.252C71.8139 134.343 73.0258 134.433 74.2439 134.524L47.8577 14.5862C47.1884 14.9841 46.5553 15.4243 45.9704 15.9489C45.5784 16.2986 45.1986 16.6604 44.8127 17.0162H44.8066Z" fill="#C5CE0E"/>
<path d="M59.8205 9.6539L87.1895 134.048C88.3653 133.957 89.5411 133.885 90.7229 133.83L63.1429 8.48413C62.2384 8.82783 61.3339 9.15946 60.4114 9.45492C60.2124 9.52125 60.0134 9.58757 59.8145 9.6539H59.8205Z" fill="#C5CE0E"/>
<path d="M153.717 127.306C153.91 127.252 154.103 127.186 154.296 127.125L127.699 6.25298C127.47 6.15047 127.247 6.04797 127.018 5.95752L153.717 127.312V127.306Z" fill="#137582"/>
<path d="M137.834 130.713C138.039 130.695 138.238 130.683 138.443 130.659L109.693 0.0123774C109.488 0.0123774 109.283 0.00634766 109.072 0.00634766L137.834 130.719V130.713Z" fill="#137582"/>
<path d="M161.445 124.653C161.632 124.575 161.819 124.49 162.012 124.418L136.368 7.86291C136.157 7.83276 135.946 7.79658 135.729 7.77246L161.445 124.653Z" fill="#137582"/>
<path d="M121.481 131.985C121.68 131.961 121.879 131.931 122.078 131.907L93.3764 1.44714C93.1774 1.46523 92.9724 1.48332 92.7734 1.50141L121.487 131.991L121.481 131.985Z" fill="#137582"/>
<path d="M129.616 131.159C129.821 131.147 130.02 131.123 130.225 131.111L101.566 0.862427C101.367 0.892575 101.168 0.922724 100.969 0.946843L129.622 131.153L129.616 131.159Z" fill="#137582"/>
<path d="M169.035 121.349C169.222 121.264 169.409 121.186 169.596 121.107L145.157 10.0215C144.934 9.94916 144.717 9.8768 144.494 9.80444L169.035 121.349Z" fill="#137582"/>
<path d="M172.184 22.2799L190.942 107.534C191.111 107.378 191.286 107.221 191.455 107.058L172.889 22.6899C172.702 22.5332 172.491 22.3945 172.244 22.304C172.22 22.298 172.202 22.2859 172.178 22.2799H172.184Z" fill="#137582"/>
<path d="M183.414 35.5033L197.512 99.5693C197.668 99.3523 197.825 99.1352 197.988 98.9241L184.21 36.3173C183.945 36.046 183.679 35.7746 183.414 35.5033Z" fill="#137582"/>
<path d="M194.049 46.0674L203.817 90.4523C203.962 90.1207 204.094 89.7891 204.215 89.4514L194.851 46.8995C194.591 46.6101 194.326 46.3327 194.049 46.0674Z" fill="#137582"/>
<path d="M113.274 132.462C113.485 132.48 113.69 132.492 113.901 132.504L85.2358 2.25525C85.0368 2.27937 84.8318 2.30349 84.6328 2.32761L113.268 132.462H113.274Z" fill="#137582"/>
<path d="M176.622 118.038C176.809 117.948 176.99 117.851 177.177 117.755L154.239 13.4945C154.016 13.4282 153.793 13.3559 153.576 13.2775L176.628 118.044L176.622 118.038Z" fill="#137582"/>
<path d="M183.913 113.359C184.076 113.227 184.239 113.106 184.402 112.973C184.414 112.961 184.426 112.955 184.444 112.943L163.352 17.0944C163.111 16.9678 162.876 16.8351 162.646 16.6904L183.919 113.365L183.913 113.359Z" fill="#137582"/>
<path d="M145.846 129.344C146.039 129.302 146.238 129.254 146.431 129.206L118.7 3.15384C118.477 3.08148 118.254 3.00912 118.037 2.93677L145.852 129.344H145.846Z" fill="#137582"/>
<path d="M37.8369 129.772C38.072 129.929 38.3072 130.074 38.5484 130.213L20.0672 46.2302C19.8984 46.387 19.7296 46.5498 19.5547 46.7066L37.8308 129.772H37.8369Z" fill="#137582"/>
<path d="M55.1762 132.986C55.3872 133.004 55.5982 133.022 55.8033 133.04L33.053 29.6241C32.8902 29.8111 32.7214 29.992 32.5586 30.1789L55.1822 132.986H55.1762Z" fill="#137582"/>
<path d="M28.4657 124.973C28.6949 125.069 28.918 125.172 29.1471 125.268L13.1622 52.6277C12.9994 52.8206 12.8306 53.0136 12.6738 53.2186L28.4597 124.973H28.4657Z" fill="#137582"/>
<path d="M26.3555 39.7782L46.7059 132.262C46.9169 132.274 47.1219 132.286 47.3329 132.299L26.7655 38.8375C26.7233 38.9461 26.675 39.0486 26.6389 39.1571C26.5605 39.3742 26.464 39.5792 26.3555 39.7782Z" fill="#137582"/>
<path d="M18.987 119.672C19.2342 119.877 19.4814 120.07 19.7347 120.263L6.88531 61.8894C6.73457 62.1668 6.59589 62.4441 6.45117 62.7275L18.981 119.678L18.987 119.672Z" fill="#137582"/>
<path d="M104.747 131.509C104.837 131.509 104.922 131.509 105.012 131.509C105.133 131.509 105.248 131.515 105.368 131.521L77.2333 3.6543C77.0404 3.70253 76.8414 3.74474 76.6484 3.79298L104.747 131.503V131.509Z" fill="#137582"/>
<path d="M1.19895 76.62L7.26488 104.188C7.59651 104.797 7.93418 105.406 8.2839 106.009L1.35573 74.5518C1.24116 75.2211 1.18086 75.8964 1.19292 76.5958C1.19292 76.6079 1.19292 76.6139 1.19292 76.626L1.19895 76.62Z" fill="#137582"/>
<path d="M63.6488 133.698C63.8598 133.716 64.0709 133.734 64.2759 133.752L39.7288 22.1775C39.566 22.3644 39.3972 22.5513 39.2344 22.7383L63.6488 133.698Z" fill="#137582"/>
<path d="M88.6486 133.939C88.8536 133.927 89.0526 133.915 89.2576 133.903L61.774 8.98438C61.581 9.0507 61.3941 9.11703 61.2012 9.18336L88.6546 133.945L88.6486 133.939Z" fill="#137582"/>
<path d="M96.8372 133.354C97.0362 133.324 97.2352 133.294 97.4342 133.258L69.4381 6.03601C69.2451 6.10837 69.0582 6.17469 68.8652 6.24705L96.8312 133.354H96.8372Z" fill="#137582"/>
<path d="M80.4908 134.644C80.6897 134.626 80.8947 134.608 81.0937 134.584L54.0805 11.8063C53.8935 11.8847 53.7006 11.957 53.5137 12.0354L80.4908 134.644Z" fill="#137582"/>
<path d="M72.1156 134.367C72.3266 134.385 72.5316 134.397 72.7427 134.415L46.5676 15.4602C46.3927 15.5989 46.2118 15.7376 46.043 15.8883L72.1156 134.367Z" fill="#137582"/>
</svg>
