<svg width="164" height="125" viewBox="0 0 164 125" fill="none" xmlns="http://www.w3.org/2000/svg">
<path d="M0.575581 60.4605C0.0507531 54.6874 2.35442 49.6296 4.53733 44.516C6.34404 40.2802 9.04714 36.625 11.6759 32.9187C13.4873 30.3642 16.1114 28.6922 18.8192 27.2245C25.6326 23.5368 31.8098 18.9388 37.9127 14.2107C42.1438 10.9316 46.5932 7.98704 51.7208 6.23142C52.6543 5.91095 53.546 5.49294 54.5725 5.49759C54.944 5.49759 55.3528 5.35361 55.6872 5.16783C58.1302 3.81164 60.8333 3.15212 63.4481 2.27431C64.0054 2.08853 64.5953 1.93526 65.1805 1.89811C67.7489 1.74019 70.2987 1.48475 72.7975 0.80665C73.3502 0.658026 73.9865 0.685893 74.5624 0.778783C75.7467 0.964562 76.9079 0.955273 78.1015 0.802005C80.2008 0.532624 82.3001 0.945984 84.2183 1.65659C88.4773 3.23572 92.6295 5.09352 96.8374 6.81198C103.363 9.47792 109.331 13.2075 115.397 16.7233C119.493 19.0967 123.371 21.8601 126.971 24.9859C128.68 26.4721 130.491 27.8469 132.386 29.1241C135.173 31.0005 137.862 33.0394 139.841 35.8447C140.236 36.4067 140.709 36.9269 141.192 37.4192C146.459 42.8022 151.099 48.7146 155.79 54.5806C156.645 55.6535 157.327 56.8843 157.954 58.1151C159.162 60.4931 160.3 62.9128 161.424 65.3326C164.526 72.016 164.057 78.5694 160.648 85.002C158.53 88.9963 155.604 92.3171 152.112 95.1549C148.048 98.4618 144.012 101.806 139.655 104.746C137.124 106.455 134.839 108.536 132.493 110.514C130.454 112.237 128.434 113.993 126.511 115.841C124.635 117.639 122.559 119.107 120.311 120.393C119.242 121.006 118.193 121.341 116.953 121.345C113.186 121.359 109.452 121.745 105.787 122.641C104.027 123.068 102.271 123.054 100.483 122.915C93.4748 122.376 86.4616 122.116 79.453 122.952C76.0161 123.361 72.5792 123.76 69.1376 124.127C68.1576 124.234 67.1637 124.248 66.1744 124.257C63.9962 124.281 61.8179 124.276 59.6443 124.276C55.4921 124.276 51.3399 124.378 47.2063 123.705C43.2074 123.05 39.1342 122.901 35.1631 122.033C33.7187 121.717 32.2975 121.276 30.853 120.95C28.6794 120.458 27.1467 119.181 26.0785 117.263C24.9731 115.28 23.8073 113.347 22.4651 111.494C21.3829 110.003 20.7234 108.164 20.0778 106.404C19.056 103.626 17.6766 100.961 17.2029 97.9974C17.0217 96.8641 16.2508 96.0606 15.568 95.2199C14.4487 93.8405 13.1668 92.6004 12.2008 91.077C11.2486 89.5722 10.2872 88.1092 9.60912 86.4326C8.98212 84.8906 7.93246 83.5251 7.16147 82.0342C5.06681 77.9842 3.40872 73.7484 1.75064 69.508C0.90534 67.3483 0.473402 65.1561 0.570937 62.8432C0.603448 62.0536 0.575581 61.2594 0.575581 60.4698V60.4605Z" fill="#FCF8C3"/>
<path d="M145.776 42.3886C145.516 42.0913 145.256 41.7894 144.991 41.4922H6.01402C5.85146 41.7894 5.69819 42.0913 5.54492 42.3886H145.772H145.776Z" fill="#2CFC00"/>
<path d="M143.337 39.6718C143.058 39.3699 142.775 39.0726 142.492 38.7754H7.63425C7.44383 39.0726 7.25805 39.3699 7.07227 39.6718H143.337Z" fill="#2CFC00"/>
<path d="M4.28125 45.1015H148.103C147.852 44.7996 147.596 44.5023 147.346 44.2051H4.67603C4.62959 44.3073 4.5785 44.4094 4.5367 44.5116C4.4531 44.7067 4.3695 44.9064 4.28589 45.1015H4.28125Z" fill="#2CFC00"/>
<path d="M138.564 34.247C138.29 33.9404 138.011 33.6385 137.718 33.3506H11.3648C11.1512 33.6478 10.9375 33.9497 10.7285 34.247H138.564Z" fill="#2CFC00"/>
<path d="M12.8223 31.5302H135.692C135.316 31.2236 134.931 30.9217 134.541 30.6338H13.7372C13.4214 30.9171 13.1149 31.219 12.8223 31.5302Z" fill="#2CFC00"/>
<path d="M156.75 55.9599C156.56 55.6533 156.355 55.3561 156.146 55.0635H0.852964C0.79723 55.3607 0.750785 55.658 0.708984 55.9599H156.75Z" fill="#2CFC00"/>
<path d="M159.567 61.3895C159.423 61.0877 159.279 60.7904 159.13 60.4932H0.576172C0.576172 60.7904 0.576172 61.0923 0.585461 61.3895H159.571H159.567Z" fill="#2CFC00"/>
<path d="M131.95 28.8183C131.523 28.5257 131.096 28.2238 130.678 27.9219H17.5748C17.0825 28.2098 16.5948 28.5071 16.1211 28.8183H131.955H131.95Z" fill="#2CFC00"/>
<path d="M154.726 53.248C154.489 52.9507 154.247 52.6488 154.011 52.3516H1.50862C1.42037 52.6488 1.33677 52.9507 1.25781 53.248H154.726Z" fill="#2CFC00"/>
<path d="M150.36 47.8183C150.114 47.5164 149.868 47.2191 149.621 46.9219H3.51023C3.38483 47.2191 3.25943 47.521 3.13867 47.8183H150.355H150.36Z" fill="#2CFC00"/>
<path d="M152.556 50.5312C152.315 50.2293 152.073 49.932 151.832 49.6348H2.42277C2.3113 49.932 2.19984 50.2339 2.09766 50.5312H152.556Z" fill="#2CFC00"/>
<path d="M0.505859 58.6774H158.233C158.14 58.4916 158.047 58.3012 157.95 58.1108C157.894 57.9993 157.833 57.8878 157.778 57.7764H0.533726C0.519793 58.0736 0.510504 58.3709 0.505859 58.6728V58.6774Z" fill="#2CFC00"/>
<path d="M72.6438 4.3876C72.6438 4.3876 72.6391 4.37831 72.6438 4.37831C72.6716 4.04855 72.9364 3.9185 73.2243 4.05319C73.3126 4.095 73.3869 4.25755 73.4055 4.3876H91.0499C90.33 4.08571 89.6148 3.78846 88.8949 3.49121H59.6531C58.8543 3.76059 58.0647 4.05319 57.2891 4.3876H72.6484H72.6438Z" fill="#2CFC00"/>
<path d="M49.4453 7.10025H97.5205C97.2929 7.00272 97.0653 6.90054 96.8377 6.803C96.3501 6.60329 95.867 6.40358 95.3794 6.19922H51.7815C51.7815 6.19922 51.7397 6.21315 51.7165 6.22244C50.9455 6.48718 50.1884 6.77978 49.4453 7.09561V7.10025Z" fill="#2CFC00"/>
<path d="M67.9492 1.67056H84.2746C84.2746 1.67056 84.2375 1.65663 84.2189 1.64734C83.0531 1.2154 81.8177 0.894933 80.559 0.769531H78.3668C78.2786 0.77882 78.1903 0.783465 78.1021 0.792754C76.9085 0.946022 75.752 0.955311 74.5676 0.769531H72.956C72.9049 0.77882 72.8492 0.783465 72.7981 0.797398C71.2004 1.22934 69.5794 1.49407 67.9492 1.66592V1.67056Z" fill="#2CFC00"/>
<path d="M103.256 9.81729C102.671 9.51539 102.09 9.2135 101.5 8.9209H45.7431C45.223 9.20886 44.7074 9.51075 44.2012 9.81729H103.261H103.256Z" fill="#2CFC00"/>
<path d="M128.303 26.1005C127.941 25.8079 127.588 25.506 127.235 25.2041H22.3156C21.814 25.506 21.3078 25.8079 20.7969 26.1005H128.303Z" fill="#2CFC00"/>
<path d="M103.985 122.925H100.748C101.835 122.999 102.912 123.022 103.985 122.925Z" fill="#2CFC00"/>
<path d="M108.21 12.5292C107.686 12.2273 107.156 11.9301 106.627 11.6328H41.4039C40.9813 11.9254 40.5586 12.2273 40.1406 12.5292H108.21Z" fill="#2CFC00"/>
<path d="M125.067 23.3886C124.696 23.0867 124.32 22.7848 123.943 22.4922H26.5947C26.1396 22.7941 25.6844 23.0913 25.2246 23.3886H125.067Z" fill="#2CFC00"/>
<path d="M121.514 20.6718C121.091 20.3699 120.659 20.068 120.232 19.7754H30.4957C30.0777 20.0773 29.6551 20.3745 29.2324 20.6718H121.509H121.514Z" fill="#2CFC00"/>
<path d="M117.45 17.9589C116.962 17.6524 116.47 17.3551 115.973 17.0625H34.1741C33.7747 17.3644 33.3799 17.6616 32.9805 17.9589H117.45Z" fill="#2CFC00"/>
<path d="M112.87 15.2421C112.359 14.9448 111.852 14.643 111.342 14.3457H37.7263C37.3408 14.6476 36.9507 14.9448 36.5605 15.2421H112.87Z" fill="#2CFC00"/>
<path d="M140.759 36.9589C140.494 36.6709 140.239 36.3737 140.006 36.0625H9.44975C9.24075 36.3597 9.03639 36.6616 8.83203 36.9589H140.764H140.759Z" fill="#2CFC00"/>
<path d="M150.236 96.6786C150.603 96.3814 150.969 96.0795 151.336 95.7822H16.0469C16.2837 96.0702 16.5067 96.3674 16.6971 96.6786H150.236Z" fill="#2CFC00"/>
<path d="M132.791 110.25C133.144 109.953 133.492 109.651 133.84 109.354H21.2578C21.3971 109.66 21.5458 109.957 21.7037 110.25H132.791Z" fill="#2CFC00"/>
<path d="M139.535 104.82C139.572 104.792 139.609 104.764 139.651 104.741C140.05 104.472 140.44 104.198 140.83 103.924H19.1074C19.2282 104.221 19.3489 104.523 19.4697 104.82H139.535Z" fill="#2CFC00"/>
<path d="M0.575564 64.1064H160.852C160.713 63.8091 160.574 63.5072 160.43 63.21H0.566275C0.561631 63.5119 0.566275 63.8091 0.575564 64.1064Z" fill="#2CFC00"/>
<path d="M143.342 102.108C143.741 101.811 144.141 101.514 144.536 101.212H18.0566C18.1635 101.514 18.2749 101.811 18.3864 102.108H143.347H143.342Z" fill="#2CFC00"/>
<path d="M135.984 107.537C136.351 107.235 136.718 106.933 137.09 106.641H20.1738C20.2853 106.938 20.3921 107.24 20.5082 107.537H135.984Z" fill="#2CFC00"/>
<path d="M129.637 112.967C129.976 112.665 130.32 112.368 130.664 112.07H22.8789C23.0879 112.368 23.2969 112.665 23.4966 112.967H129.637Z" fill="#2CFC00"/>
<path d="M31.5501 121.108H118.62C119.196 120.946 119.749 120.704 120.306 120.388C120.409 120.333 120.506 120.272 120.608 120.212H28.9492C29.5251 120.532 30.1521 120.783 30.8581 120.941C31.0903 120.992 31.3226 121.053 31.5548 121.108H31.5501Z" fill="#2CFC00"/>
<path d="M48.1124 123.825H71.8086C74.3584 123.542 76.9036 123.249 79.4534 122.947C79.5138 122.938 79.5742 122.938 79.6346 122.929H41.0527C43.1056 123.161 45.1631 123.365 47.202 123.7C47.5039 123.751 47.8058 123.788 48.1077 123.83L48.1124 123.825Z" fill="#2CFC00"/>
<path d="M126.673 115.679C126.989 115.377 127.309 115.079 127.63 114.782H24.6426C24.8237 115.079 25.0048 115.377 25.1813 115.679H126.668H126.673Z" fill="#2CFC00"/>
<path d="M123.418 118.396C123.818 118.108 124.213 117.807 124.598 117.5H26.2324C26.4228 117.816 26.6226 118.118 26.8408 118.396H123.414H123.418Z" fill="#2CFC00"/>
<path d="M146.862 99.3954C147.238 99.0982 147.615 98.8009 147.986 98.499H17.3086C17.369 98.8009 17.434 99.0982 17.5083 99.3954H146.862Z" fill="#2CFC00"/>
<path d="M163.212 77.6776C163.263 77.3804 163.301 77.0785 163.338 76.7812H4.70508C4.83512 77.0785 4.96517 77.3804 5.09522 77.6776H163.212Z" fill="#2CFC00"/>
<path d="M163.378 72.248C163.345 71.9507 163.313 71.6488 163.266 71.3516H2.47852C2.59463 71.6488 2.71538 71.9507 2.8315 72.248H163.378Z" fill="#2CFC00"/>
<path d="M163.481 74.9608C163.49 74.6636 163.5 74.3617 163.495 74.0645H3.56641C3.68716 74.3663 3.81256 74.6636 3.93797 74.9608H163.486H163.481Z" fill="#2CFC00"/>
<path d="M162.051 66.8192C161.935 66.522 161.81 66.2201 161.68 65.9229H0.761719C0.808164 66.2247 0.868542 66.522 0.933565 66.8192H162.051Z" fill="#2CFC00"/>
<path d="M1.76457 69.5311H162.905C162.831 69.2339 162.752 68.932 162.664 68.6348H1.43945C1.53699 68.9227 1.63917 69.206 1.75063 69.494C1.75528 69.5079 1.75992 69.5172 1.76457 69.5311Z" fill="#2CFC00"/>
<path d="M12.3298 91.2489H156.226C156.495 90.9517 156.76 90.6544 157.015 90.3525H11.7539C11.9025 90.5894 12.0558 90.8263 12.2044 91.0631C12.2462 91.1282 12.288 91.1839 12.3298 91.2489Z" fill="#2CFC00"/>
<path d="M153.5 93.9657C153.83 93.6731 154.15 93.3712 154.471 93.0693H13.7285C13.9886 93.3712 14.2487 93.6685 14.5088 93.9657H153.5Z" fill="#2CFC00"/>
<path d="M158.427 88.537C158.64 88.2398 158.854 87.9425 159.058 87.6406H10.1699C10.3232 87.9472 10.4904 88.2398 10.6576 88.537H158.427Z" fill="#2CFC00"/>
<path d="M162.561 80.3905C162.654 80.0933 162.733 79.7914 162.812 79.4941H5.92578C6.06512 79.7914 6.20445 80.0933 6.34843 80.3905H162.561Z" fill="#2CFC00"/>
<path d="M160.178 85.8192C160.336 85.5452 160.494 85.2758 160.643 84.9972C160.657 84.9739 160.666 84.9461 160.68 84.9229H8.86523C9.03244 85.2201 9.19499 85.5174 9.34362 85.8192H160.178Z" fill="#2CFC00"/>
<path d="M161.554 83.1073C161.684 82.8101 161.809 82.5082 161.93 82.2109H7.26367C7.42623 82.5128 7.59808 82.8147 7.77457 83.1073H161.554Z" fill="#2CFC00"/>
<path d="M153.216 51.3577C152.942 51.014 152.664 50.6703 152.39 50.3266L15.0891 29.5332C14.7593 29.7747 14.4342 30.0302 14.123 30.2949L153.221 51.3623L153.216 51.3577Z" fill="#FF91FC"/>
<path d="M155.714 54.4829C155.44 54.1392 155.166 53.7955 154.888 53.4518L12.492 31.8828C12.2644 32.1429 12.0508 32.4123 11.8418 32.691L155.71 54.4829H155.714Z" fill="#FF91FC"/>
<path d="M148.099 45.0919C147.807 44.7436 147.514 44.3952 147.221 44.0515L22.41 25.1484C22.0105 25.39 21.6111 25.6361 21.207 25.873L148.099 45.0919Z" fill="#FF91FC"/>
<path d="M145.38 41.9335C145.069 41.5805 144.753 41.2322 144.437 40.8838L25.9192 22.9375C25.5429 23.1883 25.1621 23.4298 24.7812 23.6713L145.376 41.9381L145.38 41.9335Z" fill="#FF91FC"/>
<path d="M150.694 48.2318C150.411 47.8834 150.127 47.5398 149.844 47.1961L18.6324 27.3223C18.2098 27.5545 17.7871 27.7914 17.3691 28.0375L150.694 48.2318Z" fill="#FF91FC"/>
<path d="M157.642 57.521C157.465 57.1866 157.284 56.8568 157.094 56.5317L10.6528 34.3496C10.4578 34.6236 10.2673 34.8977 10.0723 35.1717L157.642 57.521Z" fill="#FF91FC"/>
<path d="M163.364 72.1133C163.331 71.8067 163.29 71.4956 163.239 71.189L3.48189 46.9912C3.36113 47.2745 3.24502 47.5625 3.12891 47.8458L163.364 72.1133Z" fill="#FF91FC"/>
<path d="M4.2168 45.264L162.85 69.29C162.766 68.9741 162.673 68.6583 162.575 68.3425L4.58371 44.4141C4.56978 44.4466 4.5512 44.4791 4.53727 44.5116C4.43044 44.7624 4.32362 45.0132 4.2168 45.264Z" fill="#FF91FC"/>
<path d="M159.133 60.493C158.975 60.1679 158.812 59.8382 158.654 59.513L8.91598 36.834C8.7302 37.108 8.54442 37.382 8.36328 37.6561L159.128 60.4884L159.133 60.493Z" fill="#FF91FC"/>
<path d="M160.545 63.4519C160.392 63.1268 160.239 62.8016 160.081 62.4765L7.28628 39.333C7.11444 39.607 6.94259 39.8857 6.77539 40.1644L160.545 63.4519Z" fill="#FF91FC"/>
<path d="M161.883 66.4006C161.753 66.0755 161.614 65.7551 161.465 65.4299L5.8233 41.8545C5.67468 42.1332 5.52605 42.4118 5.38672 42.6951L161.883 66.396V66.4006Z" fill="#FF91FC"/>
<path d="M118.55 18.6552C117.918 18.2465 117.277 17.847 116.636 17.4569L49.1332 7.23438C48.6362 7.45267 48.1439 7.68025 47.6562 7.91712L118.55 18.6552Z" fill="#FF91FC"/>
<path d="M105.944 11.2572C105.168 10.8299 104.388 10.4072 103.603 9.99388L59.9725 3.38477C59.3687 3.58448 58.7742 3.79348 58.1797 4.02106L105.948 11.2572H105.944Z" fill="#FF91FC"/>
<path d="M52.5801 5.91593L112.424 14.982C111.728 14.5733 111.031 14.1646 110.334 13.7558L55.1438 5.40039C54.9534 5.46077 54.7583 5.49328 54.5726 5.49328C53.862 5.49328 53.221 5.68835 52.5801 5.92057V5.91593Z" fill="#FF91FC"/>
<path d="M163.481 74.8777C163.49 74.5758 163.499 74.2739 163.49 73.972L2.44669 49.5791C2.33986 49.8671 2.23304 50.1504 2.13086 50.4383L163.481 74.8777Z" fill="#FF91FC"/>
<path d="M63.8796 2.13966L97.9935 7.30434C97.608 7.13714 97.2271 6.96529 96.837 6.80738C96.0939 6.50549 95.3554 6.19895 94.6169 5.88777L67.2469 1.74023C66.5595 1.80526 65.8721 1.8517 65.1801 1.8935C64.7435 1.92137 64.3023 2.01426 63.875 2.13502L63.8796 2.13966Z" fill="#FF91FC"/>
<path d="M74.5669 0.774157C74.0514 0.6952 73.4894 0.667333 72.9785 0.774157L87.6923 3.00351C86.5404 2.53906 85.3886 2.0839 84.2228 1.65661C84.0789 1.60552 83.9349 1.55443 83.7909 1.50799L78.7656 0.74629C78.5473 0.760223 78.3243 0.778801 78.106 0.806668C76.9124 0.959936 75.7513 0.969225 74.5669 0.783446V0.774157Z" fill="#FF91FC"/>
<path d="M123.496 22.1479C122.995 21.7624 122.488 21.3815 121.977 21.01L44.981 9.34766C44.5769 9.58453 44.1729 9.82604 43.7734 10.0722L123.496 22.1479Z" fill="#FF91FC"/>
<path d="M139.642 35.5757C139.382 35.2181 139.108 34.879 138.824 34.5446L32.3538 18.4189C32.0148 18.6697 31.6757 18.9206 31.332 19.1714L139.637 35.5757H139.642Z" fill="#FF91FC"/>
<path d="M136.7 32.3849C136.273 32.004 135.836 31.6325 135.386 31.2795L35.399 16.1338C35.0646 16.3892 34.7301 16.64 34.4004 16.8908L136.7 32.3849Z" fill="#FF91FC"/>
<path d="M37.3965 14.6008L132.14 28.9523C131.587 28.5761 131.043 28.1906 130.505 27.7958L38.3811 13.8438C38.2232 13.9645 38.0653 14.0853 37.9074 14.2107C37.7355 14.3407 37.5683 14.4708 37.3965 14.6054V14.6008Z" fill="#FF91FC"/>
<path d="M142.464 38.7472C142.13 38.3943 141.795 38.0366 141.452 37.6883L29.2128 20.6895C28.8598 20.9403 28.5022 21.1864 28.1445 21.4372L142.464 38.7519V38.7472Z" fill="#FF91FC"/>
<path d="M127.606 25.5158C127.392 25.3393 127.179 25.1628 126.97 24.9817C126.747 24.7866 126.524 24.6008 126.296 24.4104L41.4972 11.5684C41.1396 11.8145 40.7866 12.0607 40.4336 12.3161L127.601 25.5204L127.606 25.5158Z" fill="#FF91FC"/>
<path d="M1.79243 69.6059L154.768 92.7727C155.033 92.5126 155.293 92.2479 155.548 91.9831L1.43945 68.6445C1.53699 68.9278 1.63917 69.2112 1.75063 69.4945C1.76457 69.5316 1.7785 69.5688 1.79243 69.6059Z" fill="#FF91FC"/>
<path d="M120.144 120.477C120.199 120.449 120.25 120.421 120.306 120.389C120.664 120.184 121.017 119.971 121.37 119.757L19.2559 104.291C19.3859 104.611 19.516 104.937 19.646 105.257L120.144 120.477Z" fill="#FF91FC"/>
<path d="M123.608 118.257C123.943 118.011 124.273 117.76 124.598 117.5L18.1133 101.374C18.2294 101.694 18.3455 102.015 18.4709 102.335L123.608 118.261V118.257Z" fill="#FF91FC"/>
<path d="M126.398 115.935C126.436 115.902 126.468 115.87 126.505 115.837C126.747 115.605 126.993 115.382 127.234 115.154L17.3086 98.5039C17.369 98.8197 17.4386 99.1356 17.5222 99.4421L126.398 115.93V115.935Z" fill="#FF91FC"/>
<path d="M128.954 113.575C129.242 113.315 129.534 113.055 129.827 112.8L15.8418 95.5361C16.1158 95.8705 16.3898 96.2049 16.6221 96.5626L128.954 113.575Z" fill="#FF91FC"/>
<path d="M131.639 111.234C131.922 110.993 132.205 110.746 132.493 110.505C132.512 110.491 132.526 110.477 132.544 110.463L13.1621 92.3867C13.4454 92.7397 13.738 93.0834 14.0353 93.4271L131.634 111.239L131.639 111.234Z" fill="#FF91FC"/>
<path d="M81.0187 122.79C82.3796 122.66 83.7357 122.558 85.0966 122.502L23.6406 113.194C23.8589 113.529 24.0772 113.863 24.2862 114.198L81.0187 122.79Z" fill="#FF91FC"/>
<path d="M70.6108 123.955C71.7626 123.83 72.9191 123.704 74.0709 123.57L25.4941 116.213C25.6846 116.543 25.875 116.872 26.0608 117.207L70.6108 123.955Z" fill="#FF91FC"/>
<path d="M54.452 124.252C56.1798 124.28 57.9122 124.266 59.6446 124.266C59.9372 124.266 60.2344 124.266 60.527 124.266L27.6719 119.292C28.1967 119.775 28.7819 120.17 29.4507 120.467L54.4567 124.252H54.452Z" fill="#FF91FC"/>
<path d="M134.369 108.903C134.671 108.648 134.972 108.387 135.274 108.132L11.127 89.3311C11.3313 89.6655 11.5357 89.9999 11.7447 90.3343L134.369 108.908V108.903Z" fill="#FF91FC"/>
<path d="M110.501 121.764C111.736 121.601 112.976 121.485 114.221 121.42L20.3789 107.208C20.4997 107.528 20.6204 107.854 20.7505 108.169L110.501 121.764Z" fill="#FF91FC"/>
<path d="M99.4616 122.836C99.8006 122.859 100.14 122.882 100.483 122.91C102.035 123.031 103.563 123.054 105.086 122.78L21.6523 110.143C21.8335 110.486 22.0332 110.821 22.2422 111.141L99.4616 122.836Z" fill="#FF91FC"/>
<path d="M140.278 104.309C140.636 104.063 140.998 103.817 141.351 103.566L7.92383 83.3535C8.12819 83.6879 8.33254 84.0177 8.53226 84.3521L140.278 104.305V104.309Z" fill="#FF91FC"/>
<path d="M0.581078 61.1847L160.421 85.3918C160.496 85.2572 160.575 85.1318 160.649 84.9924C160.728 84.8438 160.798 84.6952 160.872 84.5512L0.5625 60.2744C0.567144 60.3348 0.567145 60.3952 0.571789 60.4555C0.571789 60.6971 0.571789 60.9432 0.576433 61.1847H0.581078Z" fill="#FF91FC"/>
<path d="M157.002 90.3716C157.225 90.1069 157.438 89.8375 157.656 89.5635L0.742188 65.793C0.788632 66.1041 0.849011 66.4153 0.914034 66.7265L157.006 90.367L157.002 90.3716Z" fill="#FF91FC"/>
<path d="M0.56556 63.9301L158.878 87.9096C159.064 87.6402 159.235 87.3616 159.412 87.0829L0.56556 63.0244C0.556272 63.331 0.556272 63.6328 0.56556 63.9301Z" fill="#FF91FC"/>
<path d="M162.611 80.2367C162.7 79.9441 162.769 79.6561 162.844 79.3635L0.899362 54.8359C0.843628 55.1285 0.792539 55.4258 0.746094 55.7184L162.611 80.232V80.2367Z" fill="#FF91FC"/>
<path d="M0.5 58.4313L161.664 82.8428C161.785 82.5595 161.896 82.2715 162.008 81.9882L0.546445 57.5303C0.527867 57.8275 0.509289 58.1294 0.504644 58.4313H0.5Z" fill="#FF91FC"/>
<path d="M149.297 97.4402C149.613 97.1847 149.924 96.9293 150.24 96.6738L3.73438 74.4824C3.86907 74.8075 3.99911 75.128 4.1338 75.4485L149.293 97.4355L149.297 97.4402Z" fill="#FF91FC"/>
<path d="M143.436 102.042C143.77 101.792 144.109 101.541 144.439 101.285L6.33984 80.3711C6.49776 80.7009 6.66496 81.026 6.82752 81.3511L143.436 102.042Z" fill="#FF91FC"/>
<path d="M163.225 77.5846C163.271 77.2873 163.313 76.9901 163.35 76.6975L1.55475 52.1885C1.46651 52.4764 1.38755 52.769 1.30859 53.057L163.225 77.5799V77.5846Z" fill="#FF91FC"/>
<path d="M146.417 99.7487C146.738 99.4933 147.058 99.2425 147.379 98.987L4.97852 77.418C5.12249 77.7431 5.27112 78.0682 5.4151 78.3933L146.417 99.7487Z" fill="#FF91FC"/>
<path d="M152.143 95.123C152.45 94.8722 152.752 94.6121 153.049 94.3521L2.5625 71.5615C2.6879 71.882 2.81795 72.2071 2.94335 72.5276L152.143 95.123Z" fill="#FF91FC"/>
<path d="M10.0279 87.3289L137.162 106.585C137.487 106.329 137.812 106.074 138.146 105.828L9.58203 86.3535C9.58203 86.3535 9.60525 86.4 9.61454 86.4232C9.73994 86.7344 9.88392 87.0316 10.0279 87.3289Z" fill="#FF91FC"/>
</svg>
