<svg width="185" height="141" viewBox="0 0 185 141" fill="none" xmlns="http://www.w3.org/2000/svg">
<path d="M132.21 137.204C132.313 137.204 132.415 137.199 132.518 137.193V19.7785C131.833 19.3526 131.143 18.9374 130.447 18.533C129.628 18.0584 128.808 17.5785 127.988 17.0986V137.371C129.39 137.269 130.798 137.209 132.21 137.204Z" fill="#FF62F7"/>
<path d="M143.048 130.966C143.199 130.821 143.361 130.675 143.512 130.53V27.8517C142.04 26.5792 140.53 25.3551 138.982 24.1904V134.261C140.411 133.274 141.77 132.185 143.048 130.966Z" fill="#FF62F7"/>
<path d="M110.524 138.774V7.77598C110.146 7.61421 109.774 7.44166 109.397 7.29068C108.259 6.82695 107.126 6.35244 105.994 5.87793V138.542C107.504 138.601 109.014 138.676 110.524 138.779V138.774Z" fill="#FF62F7"/>
<path d="M119.544 138.672C120.202 138.51 120.86 138.37 121.518 138.241V13.3417C120.019 12.4898 118.514 11.6594 116.988 10.8613V139.044C117.84 138.99 118.692 138.877 119.544 138.672Z" fill="#FF62F7"/>
<path d="M165.508 112.815V48.3403C164.036 46.6418 162.526 44.9756 160.979 43.3418V116.255C162.51 115.139 164.02 113.985 165.508 112.815Z" fill="#FF62F7"/>
<path d="M172.093 107.504C173.673 106.221 175.145 104.84 176.504 103.368V61.8001C176.423 61.6922 176.353 61.5844 176.267 61.4765C174.838 59.6863 173.409 57.8961 171.975 56.1113V107.596C172.012 107.563 172.055 107.531 172.093 107.499V107.504Z" fill="#FF62F7"/>
<path d="M182.967 74.4023V93.4583C185.604 87.2088 185.749 80.8568 182.967 74.4023Z" fill="#FF62F7"/>
<path d="M99.5294 138.434V3.18172C98.0574 2.58319 96.5745 1.99544 95.0863 1.44005C95.0593 1.42926 95.027 1.41848 95 1.41309V138.579C96.5098 138.498 98.0196 138.45 99.5294 138.434Z" fill="#FF62F7"/>
<path d="M154.508 120.968V36.2141C153.09 34.9631 151.553 33.8416 149.979 32.7793V124.802C151.483 123.524 152.977 122.219 154.508 120.974V120.968Z" fill="#FF62F7"/>
<path d="M44.5509 138.822V14.1768C43.8823 14.6728 43.2137 15.1743 42.5558 15.6866C41.7146 16.339 40.8681 16.9915 40.0215 17.6385V138.1C41.5205 138.407 43.0357 138.634 44.5509 138.828V138.822Z" fill="#FF62F7"/>
<path d="M19.0734 110.713C19.6126 114.077 21.1764 117.097 22.3357 120.251C22.4112 120.451 22.4867 120.656 22.5568 120.861V29.5117C22.0068 29.8245 21.4568 30.1426 20.896 30.45C19.92 30.9784 18.9602 31.5338 18.0273 32.1377V108.566C18.518 109.203 18.9386 109.877 19.0734 110.718V110.713Z" fill="#FF62F7"/>
<path d="M7.67831 92.6109C8.55184 94.3041 9.74352 95.8516 10.4553 97.5987C10.7734 98.3806 11.1563 99.1193 11.5607 99.8418V38.6406C9.97538 40.873 8.41165 43.1269 7.03125 45.4887V91.3114C7.24694 91.7428 7.45723 92.1742 7.67831 92.6055V92.6109Z" fill="#FF62F7"/>
<path d="M0.205173 68.1468C0.205173 69.0473 0.237526 69.9424 0.199781 70.8429C0.140467 72.3149 0.275272 73.7385 0.566449 75.1458V61.8271C0.17282 63.8654 0.0110549 65.963 0.205173 68.1522V68.1468Z" fill="#FF62F7"/>
<path d="M88.5353 139.161V0.441448C88.4059 0.452233 88.2765 0.457625 88.147 0.473801C86.7936 0.646351 85.4779 0.657136 84.1353 0.446841C84.0921 0.441448 84.049 0.436056 84.0059 0.430664V139.689C85.5157 139.517 87.0255 139.339 88.5353 139.161Z" fill="#FF62F7"/>
<path d="M29.1406 132.567C30.1813 134.438 31.6102 135.764 33.5568 136.455V22.4209C32.0631 23.4832 30.5587 24.5292 29.0273 25.543V132.367C29.0651 132.438 29.1028 132.502 29.1406 132.567Z" fill="#FF62F7"/>
<path d="M53.0965 139.879C53.9108 140.014 54.725 140.111 55.5392 140.197V7.66309C53.9809 8.33172 52.471 9.08662 51.0098 9.91702V139.577C51.7054 139.669 52.4009 139.766 53.0965 139.879Z" fill="#FF62F7"/>
<path d="M74.6127 140.51C75.5887 140.499 76.5647 140.483 77.5353 140.402V1.35938C76.1926 1.52653 74.8446 1.63977 73.4858 1.72065C73.324 1.73144 73.1676 1.74761 73.0059 1.77457V140.521C73.5397 140.521 74.0789 140.521 74.6127 140.51Z" fill="#FF62F7"/>
<path d="M66.5392 140.531V3.76367C65.2289 4.2274 63.9456 4.74505 62.7161 5.42986C62.5005 5.54848 62.2578 5.65093 62.0098 5.72103V140.531C63.5196 140.547 65.0294 140.536 66.5392 140.531Z" fill="#FF62F7"/>
<path d="M125.4 137.619V15.5781C124.968 15.3247 124.537 15.0767 124.105 14.8232V137.786C124.537 137.722 124.968 137.668 125.4 137.614V137.619Z" fill="#BDFFA4"/>
<path d="M119.544 138.671C119.662 138.644 119.781 138.617 119.9 138.59V12.429C119.468 12.1918 119.037 11.9599 118.605 11.7227V138.854C118.918 138.8 119.231 138.741 119.544 138.665V138.671Z" fill="#BDFFA4"/>
<path d="M136.017 136.126C136.146 136.051 136.27 135.975 136.4 135.9V22.3296C135.968 22.0331 135.542 21.7365 135.105 21.4453V136.59C135.413 136.455 135.715 136.304 136.017 136.126Z" fill="#BDFFA4"/>
<path d="M130.9 137.226V18.8033C130.749 18.7116 130.598 18.6199 130.447 18.5337C130.166 18.3719 129.886 18.2047 129.605 18.043V137.275C130.037 137.253 130.468 137.237 130.9 137.226Z" fill="#BDFFA4"/>
<path d="M97.9113 138.461V2.53468C97.4799 2.36213 97.0486 2.20036 96.6172 2.0332V138.498C97.0486 138.482 97.4799 138.466 97.9113 138.455V138.461Z" fill="#BDFFA4"/>
<path d="M103.411 138.455V4.78875C102.98 4.60542 102.549 4.42747 102.117 4.24414V138.428C102.549 138.428 102.98 138.445 103.411 138.455Z" fill="#BDFFA4"/>
<path d="M108.905 138.677V7.08609C108.474 6.90815 108.043 6.73021 107.611 6.54688V138.601C108.043 138.623 108.474 138.65 108.905 138.677Z" fill="#BDFFA4"/>
<path d="M113.527 138.989C113.818 139.011 114.114 139.032 114.405 139.043V9.55514C113.974 9.34484 113.543 9.13994 113.111 8.94043V138.962C113.252 138.973 113.392 138.984 113.527 138.994V138.989Z" fill="#BDFFA4"/>
<path d="M174.886 105.029V59.7456C174.455 59.2064 174.023 58.6671 173.592 58.1279V106.226C174.034 105.833 174.465 105.434 174.886 105.029Z" fill="#BDFFA4"/>
<path d="M180.384 98.3434V68.8589C179.958 67.98 179.527 67.1011 179.09 66.2275V100.236C179.543 99.6213 179.974 98.9904 180.384 98.3487V98.3434Z" fill="#BDFFA4"/>
<path d="M184.584 79.5674V88.1787C185.129 85.3262 185.145 82.4576 184.584 79.5674Z" fill="#BDFFA4"/>
<path d="M169.384 109.704V52.9407C168.953 52.4176 168.521 51.8946 168.09 51.377V110.756C168.521 110.405 168.953 110.06 169.384 109.71V109.704Z" fill="#BDFFA4"/>
<path d="M152.89 122.311V34.8773C152.464 34.5484 152.032 34.2249 151.596 33.9121V123.422C152.027 123.05 152.458 122.684 152.89 122.317V122.311Z" fill="#BDFFA4"/>
<path d="M147.396 127.019V30.9521C146.959 30.6285 146.528 30.305 146.102 29.9707V128.151C146.533 127.769 146.964 127.391 147.396 127.014V127.019Z" fill="#BDFFA4"/>
<path d="M163.89 114.071V46.4909C163.464 46.011 163.027 45.5419 162.596 45.0674V115.052C163.027 114.729 163.458 114.4 163.89 114.071Z" fill="#BDFFA4"/>
<path d="M157.958 118.381C158.104 118.284 158.244 118.181 158.39 118.084V40.5124C158.314 40.4153 158.244 40.3183 158.174 40.2212C157.834 39.7413 157.473 39.283 157.096 38.8408V118.985C157.381 118.78 157.667 118.575 157.958 118.381Z" fill="#BDFFA4"/>
<path d="M141.896 132.006V26.4865C141.47 26.136 141.038 25.7855 140.602 25.4404V133.074C141.044 132.729 141.47 132.373 141.896 132.006Z" fill="#BDFFA4"/>
<path d="M26.4387 128.07V27.209C26.0127 27.4786 25.5759 27.732 25.1445 27.9962V126.172C25.5921 126.797 26.0235 127.428 26.4387 128.07Z" fill="#BDFFA4"/>
<path d="M31.9328 135.662V23.5693C31.5068 23.8659 31.07 24.1571 30.6387 24.4483V134.6C31.0323 134.999 31.4637 135.355 31.9328 135.657V135.662Z" fill="#BDFFA4"/>
<path d="M20.9387 116.746V30.4229C20.9387 30.4229 20.9117 30.439 20.8955 30.4444C20.4749 30.6709 20.0597 30.9028 19.6445 31.1454V113.177C20.0058 114.39 20.4641 115.571 20.9387 116.746Z" fill="#BDFFA4"/>
<path d="M37.4328 137.485V19.5908C37.0014 19.9144 36.57 20.2271 36.1387 20.5452V137.146C36.57 137.259 37.0014 137.372 37.4328 137.485Z" fill="#BDFFA4"/>
<path d="M9.94451 96.5097V40.9541C9.50775 41.5904 9.07098 42.232 8.65039 42.8791V94.2935C9.09794 95.0269 9.55088 95.7548 9.94451 96.5043V96.5097Z" fill="#BDFFA4"/>
<path d="M4.44451 85.6334V50.6543C4.00775 51.6788 3.57098 52.6979 3.15039 53.7224V82.4789C3.57637 83.5358 4.00236 84.5873 4.44451 85.6334Z" fill="#BDFFA4"/>
<path d="M15.4387 105.504V34.0361C14.9857 34.4244 14.5597 34.845 14.1445 35.2817V103.93C14.5543 104.469 14.9911 104.992 15.4387 105.504Z" fill="#BDFFA4"/>
<path d="M42.9328 138.601V15.3955C42.8088 15.4926 42.6794 15.5896 42.5553 15.6867C42.248 15.9239 41.946 16.1558 41.6387 16.3931V138.402C42.07 138.472 42.5014 138.547 42.9328 138.607V138.601Z" fill="#BDFFA4"/>
<path d="M70.423 140.527V2.50293C69.9917 2.63773 69.5603 2.77254 69.1289 2.90734V140.521C69.5603 140.521 69.9917 140.521 70.423 140.521V140.527Z" fill="#BDFFA4"/>
<path d="M75.9172 140.483V1.53711C75.4858 1.57485 75.0544 1.6126 74.623 1.64495V140.51C75.0544 140.51 75.4858 140.499 75.9172 140.488V140.483Z" fill="#BDFFA4"/>
<path d="M81.4172 139.982V0.65918C80.9858 0.761631 80.5544 0.85869 80.123 0.944965V140.122C80.5544 140.074 80.9858 140.025 81.4172 139.977V139.982Z" fill="#BDFFA4"/>
<path d="M86.9172 139.35V0.577148C86.4858 0.598717 86.0544 0.598717 85.623 0.577148V139.496C86.0544 139.447 86.4858 139.393 86.9172 139.345V139.35Z" fill="#BDFFA4"/>
<path d="M48.4269 139.264V11.4912C47.9902 11.7716 47.5588 12.052 47.1328 12.3432V139.124C47.5642 139.173 47.9956 139.221 48.4269 139.27V139.264Z" fill="#BDFFA4"/>
<path d="M92.4113 138.751V0.673653C91.9853 0.587378 91.554 0.51728 91.1172 0.46875V138.881C91.5486 138.837 91.9799 138.789 92.4113 138.751Z" fill="#BDFFA4"/>
<path d="M53.0961 139.879C53.3711 139.923 53.6461 139.955 53.9211 139.998V8.39648C53.4843 8.60678 53.0529 8.82247 52.627 9.04355V139.809C52.7833 139.831 52.9397 139.852 53.0961 139.879Z" fill="#BDFFA4"/>
<path d="M64.9211 140.531V4.37305C64.4843 4.55099 64.0529 4.7505 63.627 4.9554V140.531C64.0583 140.531 64.4897 140.531 64.9211 140.531Z" fill="#BDFFA4"/>
<path d="M59.4269 140.461V6.20117C59.0225 6.34137 58.6235 6.49235 58.2191 6.63255C58.1921 6.64333 58.1598 6.65411 58.1328 6.6649V140.407C58.5642 140.429 58.9956 140.45 59.4269 140.466V140.461Z" fill="#BDFFA4"/>
<path d="M57.3198 6.95621L164.198 113.835C164.581 113.538 164.964 113.241 165.341 112.945L58.8135 6.41699C58.614 6.48709 58.4198 6.56258 58.2149 6.63268C57.913 6.73513 57.611 6.84297 57.3145 6.95621H57.3198Z" fill="#F7E561"/>
<path d="M169.235 109.823C169.607 109.521 169.985 109.214 170.357 108.912L65.5652 4.12012C65.0853 4.30345 64.6054 4.50835 64.1309 4.71865L169.235 109.823Z" fill="#F7E561"/>
<path d="M148.92 125.702C149.227 125.444 149.529 125.179 149.836 124.92C149.896 124.872 149.955 124.818 150.014 124.77L41.6368 16.3867C41.254 16.6833 40.8711 16.9799 40.4883 17.271L148.92 125.702Z" fill="#F7E561"/>
<path d="M70.832 2.37295L174.162 105.703C174.518 105.38 174.863 105.051 175.203 104.716L72.3904 1.89844C72.0992 1.96854 71.808 2.05481 71.5276 2.14648C71.2958 2.22197 71.0639 2.29746 70.8374 2.37295H70.832Z" fill="#F7E561"/>
<path d="M158.984 117.669C159.383 117.394 159.782 117.113 160.181 116.833L52.4719 9.12402C52.0298 9.35589 51.5876 9.59314 51.1562 9.84118L158.984 117.669Z" fill="#F7E561"/>
<path d="M153.806 121.546C154.178 121.238 154.55 120.931 154.928 120.635L46.8416 12.543C46.4426 12.818 46.0436 13.0984 45.6445 13.3788L153.806 121.54V121.546Z" fill="#F7E561"/>
<path d="M184.666 80.0096C184.515 79.1253 184.305 78.241 184.046 77.3567L118.181 11.4966C116.811 10.7579 115.425 10.0515 114.023 9.37207L184.666 80.015V80.0096Z" fill="#F7E561"/>
<path d="M178.509 101.001C178.805 100.619 179.091 100.23 179.372 99.8312L80.4252 0.884766C79.8536 1.00339 79.282 1.10584 78.7051 1.19751L178.514 101.007L178.509 101.001Z" fill="#F7E561"/>
<path d="M144.122 129.957C144.472 129.628 144.823 129.305 145.179 128.981L36.4885 20.291C36.1002 20.5768 35.7066 20.868 35.3184 21.1538L144.122 129.957Z" fill="#F7E561"/>
<path d="M135.221 21.5205L178.207 64.507C177.636 63.4447 177.01 62.404 176.266 61.4765C175.01 59.9074 173.759 58.3329 172.497 56.7638L143.978 28.2392C143.843 28.1259 143.708 28.0181 143.579 27.9048C140.92 25.597 138.127 23.4671 135.221 21.5205Z" fill="#F7E561"/>
<path d="M87.125 0.571964L182.027 95.4743C182.259 95.016 182.48 94.5576 182.685 94.0993L88.9853 0.399414C88.7049 0.415591 88.4245 0.437159 88.1441 0.474905C87.8044 0.518042 87.4647 0.550395 87.125 0.571964Z" fill="#F7E561"/>
<path d="M184.45 88.8477C184.574 88.2761 184.677 87.6991 184.763 87.1276L101.718 4.08263C100.575 3.60812 99.4317 3.139 98.2832 2.68066L184.45 88.8477Z" fill="#F7E561"/>
<path d="M64.2165 140.532C64.8905 140.532 65.5699 140.532 66.2439 140.532L0.486328 74.7686C0.658878 75.7014 0.906918 76.6235 1.22506 77.5401L64.2219 140.537L64.2165 140.532Z" fill="#F7E561"/>
<path d="M0.156074 67.424L73.2471 140.515C73.7 140.515 74.1583 140.515 74.6113 140.51C74.827 140.51 75.048 140.51 75.2637 140.499L0.139897 65.375C0.112937 66.049 0.118329 66.7338 0.156074 67.424Z" fill="#F7E561"/>
<path d="M81.7252 139.944C82.3346 139.874 82.9439 139.809 83.5532 139.739L1.61904 57.8047C1.45189 58.3223 1.29551 58.84 1.14453 59.363L81.7252 139.944Z" fill="#F7E561"/>
<path d="M8.22247 93.5874L54.7462 140.111C55.4957 140.203 56.2452 140.273 56.9947 140.327L6.14648 89.4785C6.63717 90.53 7.14404 91.5761 7.67786 92.606C7.85041 92.9403 8.03375 93.2638 8.22247 93.5874Z" fill="#F7E561"/>
<path d="M89.8393 139.011C90.454 138.941 91.0687 138.882 91.6888 138.828L4.16838 51.3018C3.96347 51.7763 3.76396 52.2508 3.56445 52.7307L89.8447 139.011H89.8393Z" fill="#F7E561"/>
<path d="M29.1812 132.643L32.5567 136.018C33.1606 136.336 33.8185 136.584 34.5464 136.752C34.8861 136.827 35.2258 136.913 35.5709 137L26.043 127.472C27.1538 129.127 28.1675 130.826 29.1327 132.567C29.1489 132.594 29.165 132.616 29.1812 132.643Z" fill="#F7E561"/>
<path d="M44.3883 138.8C45.154 138.897 45.9251 138.983 46.6908 139.07L19.25 111.629C19.4603 112.599 19.7407 113.549 20.0696 114.481L44.3829 138.795L44.3883 138.8Z" fill="#F7E561"/>
<path d="M133.207 137.134C133.763 137.053 134.291 136.908 134.814 136.708L25.7359 27.6299C25.3153 27.8887 24.8947 28.1421 24.4688 28.3956L133.202 137.129L133.207 137.134Z" fill="#F7E561"/>
<path d="M139.216 134.099C139.615 133.818 140.003 133.533 140.391 133.241L31.2157 24.0605C30.8112 24.3355 30.4122 24.6105 30.0078 24.8855L139.221 134.099H139.216Z" fill="#F7E561"/>
<path d="M124.73 137.706C125.334 137.625 125.944 137.555 126.553 137.496L19.9982 30.9463C19.5668 31.1889 19.1354 31.437 18.7148 31.6958L124.73 137.711V137.706Z" fill="#F7E561"/>
<path d="M13.7183 35.7448L117.022 139.048C117.626 139.01 118.229 138.94 118.833 138.832L14.7104 34.7041C14.3653 35.033 14.031 35.3781 13.7129 35.7394L13.7183 35.7448Z" fill="#F7E561"/>
<path d="M98.3208 138.444C98.9948 138.428 99.6634 138.428 100.337 138.428L7.166 45.2568C6.91256 45.6828 6.66452 46.1088 6.42188 46.5456L98.3208 138.444Z" fill="#F7E561"/>
<path d="M107.527 138.601C108.244 138.638 108.967 138.682 109.684 138.725L10.7484 39.7891C10.468 40.1881 10.193 40.5871 9.91797 40.9915L107.527 138.601Z" fill="#F7E561"/>
</svg>
