<svg width="216" height="128" viewBox="0 0 216 128" fill="none" xmlns="http://www.w3.org/2000/svg">
<path d="M161.18 123.341C159.035 123.29 156.999 123.341 154.963 123.668C154.169 123.796 153.323 123.732 152.523 123.623C148.777 123.104 145.031 122.554 141.285 121.99C139.966 121.792 138.672 121.491 137.449 120.927C134.875 119.736 132.141 119.403 129.349 119.576C125.238 119.832 121.198 119.589 117.144 118.75C114.359 118.174 111.458 118.129 108.609 117.905C108.013 117.86 107.36 117.956 106.803 118.161C103.505 119.397 100.002 119.589 96.5894 120.229C95.3856 120.453 94.1369 120.626 93.0227 121.094C87.7784 123.303 82.2394 124.244 76.6685 125.109C72.6216 125.736 68.549 126.127 64.4636 126.396C61.9151 126.562 59.3922 127.03 56.8244 127.062C54.833 127.081 52.9632 126.742 51.1446 125.973C49.0635 125.089 47.0272 124.123 45.2151 122.759C41.6804 120.101 37.8128 117.988 33.9131 115.952C30.244 114.037 27.4265 111.393 25.5759 107.672C24.1095 104.72 22.1501 102.076 19.9089 99.6809C16.6176 96.1526 13.8001 92.2529 10.8033 88.4941C9.61866 87.0086 8.99753 85.2732 8.69017 83.4483C8.22912 80.6756 7.27502 78.1335 5.70619 75.7962C4.9634 74.6884 4.41911 73.4654 4.38069 72.0823C4.34867 70.9297 3.91324 69.8987 3.43299 68.8678C2.79265 67.4718 2.28678 66.0183 1.64004 64.6287C1.10215 63.4697 0.762775 62.3491 1.33908 61.1005C1.62083 60.4985 1.45434 59.8966 1.10215 59.3523C0.160857 57.8924 0.154454 56.2659 0.103227 54.6138C-0.00563083 51.1752 0.54506 47.9031 1.92179 44.7398C2.6966 42.9597 3.26009 41.0899 3.88763 39.2521C4.32306 37.9586 5.05945 36.8636 6.02636 35.9288C9.63787 32.4453 13.371 29.1284 17.6741 26.471C20.7157 24.5884 23.5908 22.4368 26.4788 20.3173C28.1372 19.1007 29.8149 17.9352 31.7103 17.1348C34.9056 15.7901 37.9024 14.01 41.3602 13.248C43.6462 12.7421 45.7722 11.6983 47.8917 10.629C52.1884 8.45823 56.6835 6.75493 61.4156 5.7432C61.7166 5.67916 62.056 5.69197 62.3121 5.5575C65.437 3.91823 69.0164 3.79017 72.2438 2.51589C74.7603 1.52337 77.4369 1.36969 80.0687 1.04952C81.9961 0.812591 83.9363 0.710137 85.8509 0.332338C89.3536 -0.359228 92.7602 0.421985 96.1796 1.06873C100.995 1.9716 105.733 3.30991 110.69 3.41237C113.405 3.47 115.876 4.59059 118.233 5.83925C119.629 6.58204 121.025 6.92142 122.574 7.15194C126.423 7.72184 130.284 8.53507 133.832 10.0783C138.929 12.2875 144.211 13.8755 149.507 15.4443C151.793 16.1167 153.9 17.122 155.962 18.2682C158.1 19.4592 160.111 20.8936 162.519 21.5596C163.197 21.7453 163.876 22.0974 164.42 22.5393C166.694 24.3706 169.409 25.3247 172.04 26.4389C173.001 26.8424 173.846 27.3546 174.608 28.0718C177.688 30.9789 181.306 33.1113 185.02 35.0771C188.183 36.7484 191.379 38.3556 194.561 39.9885C197.821 41.6662 200.318 44.2403 202.591 47.0194C203.961 48.6971 204.672 50.791 205.389 52.7953C206.67 56.362 208.085 59.8582 209.648 63.316C211.626 67.6895 213.419 72.1655 214.296 76.9296C214.405 77.5315 214.54 78.1527 214.796 78.697C216.025 81.2967 215.891 84.0758 215.91 86.8293C215.923 88.7055 215.238 90.4408 214.354 92.08C213.963 92.7972 213.56 93.5208 213.054 94.1611C211.825 95.7172 211.024 97.4333 210.589 99.3799C210.326 100.565 209.814 101.704 209.359 102.844C208.335 105.399 206.568 107.211 204.23 108.735C198.954 112.18 193.242 114.607 187.389 116.804C185.577 117.482 183.842 118.353 182.011 119.019C177.182 120.774 172.201 121.907 167.212 123.047C165.182 123.508 163.133 123.245 161.187 123.361L161.18 123.341Z" fill="#CFADDA"/>
<path d="M145.286 122.586V14.1507C144.646 13.9522 144.006 13.7537 143.365 13.5488V122.291C144.006 122.387 144.646 122.483 145.286 122.579V122.586Z" fill="#7DFF8A"/>
<path d="M137.454 120.921C138.043 121.197 138.651 121.402 139.273 121.574V12.179C138.632 11.9485 137.992 11.7179 137.352 11.4746V120.876C137.384 120.889 137.422 120.902 137.454 120.921Z" fill="#7DFF8A"/>
<path d="M163.312 123.316V21.835C163.049 21.7133 162.787 21.6045 162.518 21.534C162.133 21.4252 161.762 21.2971 161.391 21.1562V123.335C162.025 123.309 162.665 123.309 163.312 123.316Z" fill="#7DFF8A"/>
<path d="M157.304 123.419V19.0241C156.856 18.7616 156.414 18.499 155.959 18.2429C155.767 18.1341 155.575 18.038 155.383 17.9355V123.617C156.023 123.527 156.663 123.463 157.304 123.419Z" fill="#7DFF8A"/>
<path d="M151.294 123.451V16.0276C150.711 15.8035 150.116 15.5986 149.508 15.4193C149.463 15.4065 149.418 15.3937 149.373 15.3809V123.175C150.013 123.265 150.654 123.361 151.294 123.451Z" fill="#7DFF8A"/>
<path d="M115.235 118.43V4.40488C114.608 4.15514 113.968 3.94383 113.314 3.77734V118.231C113.955 118.283 114.602 118.353 115.235 118.436V118.43Z" fill="#7DFF8A"/>
<path d="M133.269 119.711V9.82851C132.635 9.57237 131.994 9.32904 131.348 9.11133V119.544C131.994 119.563 132.635 119.621 133.269 119.711Z" fill="#7DFF8A"/>
<path d="M121.247 119.391V6.89607C120.588 6.7552 119.954 6.5759 119.326 6.32617V119.135C119.967 119.237 120.607 119.32 121.247 119.391Z" fill="#7DFF8A"/>
<path d="M127.253 119.659V7.98392C126.613 7.84305 125.972 7.70858 125.332 7.58691V119.653C125.972 119.665 126.613 119.665 127.253 119.653V119.659Z" fill="#7DFF8A"/>
<path d="M199.376 111.553V43.4782C198.768 42.8955 198.127 42.3448 197.455 41.8262V112.532C198.102 112.219 198.742 111.892 199.376 111.553Z" fill="#7DFF8A"/>
<path d="M169.323 122.541V25.2797C168.677 25.0044 168.03 24.7098 167.402 24.3896V122.983C168.043 122.835 168.683 122.688 169.323 122.541Z" fill="#7DFF8A"/>
<path d="M108.613 117.905C108.818 117.924 109.023 117.937 109.222 117.95V3.32285C108.581 3.27803 107.941 3.2204 107.301 3.14355V118.014C107.73 117.911 108.184 117.873 108.613 117.905Z" fill="#7DFF8A"/>
<path d="M204.229 108.716C204.633 108.453 205.011 108.178 205.382 107.896V52.7692C204.838 51.2452 204.293 49.6699 203.461 48.2676V109.196C203.717 109.036 203.98 108.882 204.229 108.716Z" fill="#7DFF8A"/>
<path d="M215.908 86.8099C215.895 84.748 215.965 82.6605 215.479 80.6562V89.4801C215.747 88.6221 215.914 87.732 215.908 86.8099Z" fill="#7DFF8A"/>
<path d="M210.593 99.3611C210.785 98.5031 211.054 97.6899 211.394 96.9151V67.3827C210.843 66.0123 210.254 64.6484 209.646 63.3037C209.588 63.1756 209.53 63.0412 209.473 62.9131V102.563C209.902 101.513 210.35 100.463 210.593 99.3676V99.3611Z" fill="#7DFF8A"/>
<path d="M181.345 119.231V32.9963C180.698 32.6121 180.051 32.215 179.424 31.7988V119.877C180.064 119.672 180.705 119.461 181.345 119.237V119.231Z" fill="#7DFF8A"/>
<path d="M175.329 121.069V28.6997C175.086 28.482 174.843 28.2771 174.606 28.0529C174.228 27.6944 173.831 27.3934 173.408 27.1309V121.574C174.049 121.414 174.689 121.248 175.329 121.075V121.069Z" fill="#7DFF8A"/>
<path d="M193.362 114.402V39.3547C192.722 39.0281 192.082 38.7016 191.441 38.375V115.209C192.082 114.947 192.722 114.678 193.362 114.409V114.402Z" fill="#7DFF8A"/>
<path d="M187.351 116.803V36.2616C186.71 35.9286 186.07 35.6021 185.43 35.2627V117.585C186.064 117.309 186.704 117.04 187.351 116.797V116.803Z" fill="#7DFF8A"/>
<path d="M37.1066 117.642V14.6758C36.4598 14.9511 35.8195 15.2457 35.1855 15.5402V116.605C35.8259 116.944 36.4662 117.29 37.1066 117.642Z" fill="#7DFF8A"/>
<path d="M19.0812 98.7464V25.5557C18.6137 25.863 18.1463 26.1704 17.6724 26.4649C17.4995 26.5738 17.333 26.6891 17.1602 26.7979V96.518C17.7877 97.2736 18.428 98.0164 19.0812 98.7464Z" fill="#7DFF8A"/>
<path d="M25.087 106.718V21.3291C24.4467 21.7965 23.8064 22.264 23.166 22.725V103.645C23.864 104.631 24.5043 105.655 25.087 106.718Z" fill="#7DFF8A"/>
<path d="M31.1007 114.184V17.4229C30.4412 17.7366 29.8008 18.0824 29.1797 18.4602V112.577C29.7752 113.153 30.4219 113.685 31.1007 114.184Z" fill="#7DFF8A"/>
<path d="M49.1261 125.058V10.0146C48.7099 10.2132 48.3001 10.4117 47.8902 10.6166C47.6661 10.7318 47.4356 10.8471 47.2051 10.9559V124.046C47.8326 124.405 48.4729 124.738 49.1261 125.051V125.058Z" fill="#7DFF8A"/>
<path d="M43.1183 121.267V12.7422C42.542 12.9407 41.9593 13.1072 41.3574 13.2417C41.2997 13.2545 41.2485 13.2737 41.1973 13.2865V120.018C41.844 120.422 42.4843 120.838 43.1183 121.267Z" fill="#7DFF8A"/>
<path d="M0.101563 54.6141C0.15279 56.2278 0.159193 57.8158 1.04926 59.2374V47.1094C0.312874 49.5363 0.0183186 52.0272 0.101563 54.6141Z" fill="#7DFF8A"/>
<path d="M13.0675 91.3698V29.6924C12.4144 30.2047 11.7804 30.7297 11.1465 31.2612V88.9173C11.7932 89.7305 12.4336 90.5501 13.0675 91.3698Z" fill="#7DFF8A"/>
<path d="M5.71248 75.7837C6.23115 76.5521 6.67299 77.3461 7.06359 78.1658V34.9365C6.71781 35.2631 6.37203 35.5897 6.03265 35.9226C5.70608 36.2364 5.41792 36.5822 5.14258 36.9344V74.8168C5.31547 75.1498 5.50757 75.4699 5.71248 75.7837Z" fill="#7DFF8A"/>
<path d="M73.1652 125.588V2.17578C72.8578 2.27183 72.5504 2.38069 72.2431 2.50235C71.9165 2.63042 71.5835 2.74568 71.2441 2.84814V125.806C71.8845 125.735 72.5248 125.665 73.1652 125.588Z" fill="#7DFF8A"/>
<path d="M91.1945 121.804V0.203807C90.5541 0.126966 89.9138 0.0885461 89.2734 0.0693359V122.457C89.9202 122.259 90.5605 122.041 91.1945 121.81V121.804Z" fill="#7DFF8A"/>
<path d="M85.1847 123.553V0.428711C84.5443 0.537568 83.904 0.620812 83.2637 0.697653V123.969C83.904 123.841 84.5443 123.7 85.1847 123.553Z" fill="#7DFF8A"/>
<path d="M55.1398 126.978V7.5166C54.493 7.74072 53.8527 7.97765 53.2188 8.22738V126.652C53.8463 126.805 54.4866 126.914 55.1398 126.978Z" fill="#7DFF8A"/>
<path d="M79.1769 124.711V1.13867C78.5365 1.20911 77.8962 1.27955 77.2559 1.36279V125.019C77.8962 124.916 78.5365 124.814 79.1769 124.711Z" fill="#7DFF8A"/>
<path d="M96.5954 120.23C96.8003 120.191 97.0052 120.159 97.2101 120.121V1.25475C96.8707 1.18432 96.5249 1.11388 96.1855 1.04984C95.8846 0.992214 95.59 0.934584 95.2891 0.876953V120.467C95.7245 120.383 96.1663 120.306 96.5954 120.223V120.23Z" fill="#7DFF8A"/>
<path d="M61.1456 126.723V5.79492C60.4989 5.9358 59.8585 6.09588 59.2246 6.26237V126.921C59.8649 126.864 60.5053 126.793 61.1456 126.723Z" fill="#7DFF8A"/>
<path d="M67.1593 126.197V3.90527C66.5126 4.05895 65.8722 4.22544 65.2383 4.41114V126.338C65.8786 126.293 66.519 126.248 67.1593 126.197Z" fill="#7DFF8A"/>
<path d="M103.216 119.148V2.49065C102.576 2.36898 101.935 2.23451 101.295 2.10645V119.487C101.935 119.384 102.576 119.276 103.216 119.148Z" fill="#7DFF8A"/>
</svg>
