<svg width="145" height="113" viewBox="0 0 145 113" fill="none" xmlns="http://www.w3.org/2000/svg">
<path d="M132.673 96.4667C131.134 96.4667 129.658 96.2195 128.245 95.6034C127.782 95.4015 127.305 95.2414 126.832 95.0639C123.539 93.8421 123.525 93.8038 120.079 94.848C118.557 95.3075 117.033 95.8401 115.616 96.5433C112.508 98.0853 109.239 99.0809 105.869 99.8571C99.729 101.27 93.6478 102.882 87.8625 105.458C86.0176 106.279 84.0822 106.84 82.1259 107.341C78.2238 108.34 74.3426 109.423 70.4335 110.404C68.7278 110.832 66.9909 111.229 65.2469 111.382C63.4856 111.539 61.7346 111.727 60.0116 112.072C56.4854 112.778 52.9975 112.562 49.5131 111.832C49.0188 111.727 48.521 111.647 48.0337 111.532C43.331 110.446 38.5586 110.213 33.7654 110.477C29.8528 110.693 26.0829 109.931 22.3061 109.113C21.2096 108.876 20.2176 108.434 19.4065 107.679C18.223 106.579 16.8515 105.792 15.4348 105.044C11.3899 102.91 8.29539 99.7666 5.97361 95.8645C4.66478 93.668 4.09042 91.207 3.66923 88.7146C3.55436 88.0324 3.72145 87.3675 4.03821 86.7653C4.59168 85.7071 4.442 84.6663 4.06954 83.5977C3.57525 82.1705 3.13665 80.7224 2.64932 79.2918C2.13066 77.7636 1.94269 76.2042 1.93921 74.589C1.92877 70.6417 1.62593 66.7256 0.651265 62.8722C0.202224 61.0969 -0.278144 59.2799 0.195263 57.4002C0.271843 57.0904 0.219629 56.7284 0.153491 56.4046C-0.399977 53.6338 0.769616 51.2946 2.09585 49.046C2.49964 48.3602 3.27241 47.8659 3.93726 47.3612C4.46637 46.9574 5.04768 46.5675 5.67077 46.3482C8.36153 45.4014 10.1368 43.466 11.5083 41.0816C12.9981 38.4883 15.1424 36.4902 17.405 34.6036C18.4388 33.7438 19.4413 32.8561 20.2385 31.7562C20.6318 31.2166 21.0878 30.7189 21.5508 30.2315C22.8213 28.8914 24.1197 27.5825 25.2406 26.1031C25.7453 25.4383 26.2988 24.7525 26.9741 24.2861C28.5997 23.1687 29.7275 21.557 30.8518 20.0602C32.3834 18.0204 33.7967 15.7857 33.8141 12.987C33.828 10.6965 34.8897 8.73329 36.5292 7.20865C38.4333 5.44382 40.4139 3.75208 42.6104 2.33186C44.6398 1.01955 46.892 0.424313 49.2311 0.0727389C50.3137 -0.0908648 51.4032 0.0379296 52.4789 0.295519C54.3551 0.74804 56.2417 1.15183 58.1214 1.59042C59.7575 1.97333 61.3726 2.40496 62.9634 2.96191C64.3836 3.45968 65.87 3.75905 67.3355 4.12454C69.3718 4.63276 71.3246 5.29762 73.2461 6.20614C75.5087 7.27827 77.9628 7.96749 80.3716 8.68456C82.5506 9.33202 84.6705 10.1187 86.7347 11.062C89.7109 12.4196 92.6732 13.8155 95.6563 15.1626C96.3386 15.4724 97.0626 15.7474 97.7936 15.8727C104.585 17.0527 110.377 20.3944 115.954 24.2095C117.826 25.4905 118.93 27.3841 119.762 29.4274C120.305 30.7641 120.914 32.0172 121.927 33.0754C122.933 34.1232 123.507 35.4703 124.019 36.7896C125.578 40.8101 127.938 44.392 130.072 48.0957C130.995 49.6934 132.039 51.2181 133.021 52.781C133.87 54.1386 134.483 55.6145 135.088 57.0904C135.631 58.4097 136.077 59.7811 136.735 61.0412C139.708 66.7291 141.472 72.8764 143.578 78.8949C144.626 81.8851 144.341 84.6524 142.384 87.2248C141.417 88.4953 140.599 89.8494 140.296 91.4785C139.767 94.3015 137.96 95.8366 135.175 96.2613C134.35 96.3866 133.504 96.404 132.669 96.4667H132.673Z" fill="#BDFFDB"/>
<path d="M102.989 59.6357H99.5566V63.0679H102.989V59.6357Z" fill="#FF6845"/>
<path d="M30.9004 110.422C31.8472 110.474 32.8045 110.481 33.7652 110.429C33.9532 110.418 34.1446 110.411 34.3326 110.401V107.696H30.9004V110.425V110.422Z" fill="#FF6845"/>
<path d="M92.692 42.4707H89.2598V45.9029H92.692V42.4707Z" fill="#FF6845"/>
<path d="M106.422 63.0674H102.99V66.4996H106.422V63.0674Z" fill="#FF6845"/>
<path d="M15.4314 104.995C16.0231 105.305 16.6044 105.625 17.1684 105.97V104.261H14.1504C14.5681 104.515 14.9928 104.762 15.4314 104.992V104.995Z" fill="#FF6845"/>
<path d="M37.7656 110.332C38.9109 110.342 40.0561 110.384 41.1978 110.468V107.693H37.7656V110.332Z" fill="#FF6845"/>
<path d="M5.97017 95.8118C6.25909 96.2957 6.55845 96.7656 6.86825 97.2251V93.96H5.05469C5.31228 94.5935 5.61164 95.2131 5.97017 95.8118Z" fill="#FF6845"/>
<path d="M96.1236 45.9023H92.6914V49.3345H96.1236V45.9023Z" fill="#FF6845"/>
<path d="M99.5552 56.1992H96.123V59.6314H99.5552V56.1992Z" fill="#FF6845"/>
<path d="M54.9297 112.445C56.0714 112.473 57.2167 112.424 58.3619 112.285V111.129H54.9297V112.445Z" fill="#FF6845"/>
<path d="M24.0312 109.427C25.173 109.664 26.3147 109.879 27.4634 110.053V107.693H24.0312V109.427Z" fill="#FF6845"/>
<path d="M85.8267 42.4707H82.3945V45.9029H85.8267V42.4707Z" fill="#FF6845"/>
<path d="M109.856 66.499H106.424V69.9312H109.856V66.499Z" fill="#FF6845"/>
<path d="M10.3047 101.302C11.3524 102.301 12.4942 103.202 13.7369 103.999V100.828H10.3047V101.302Z" fill="#FF6845"/>
<path d="M48.0664 111.487C48.5468 111.598 49.0341 111.678 49.518 111.779C50.1793 111.919 50.8372 112.037 51.4986 112.134V111.125H48.0664V111.487Z" fill="#FF6845"/>
<path d="M6.98828 97.3955C7.84111 98.6312 8.78444 99.78 9.82176 100.828H10.3056V97.3955H6.98828Z" fill="#FF6845"/>
<path d="M3.86548 87.0967C3.66707 87.5945 3.58005 88.1236 3.67055 88.6631C3.77498 89.2897 3.88985 89.9128 4.02561 90.5289H6.87301V87.0967H3.86548Z" fill="#FF6845"/>
<path d="M99.5552 49.335H96.123V52.7672H99.5552V49.335Z" fill="#FF6845"/>
<path d="M20.5994 108.463V107.693H19.4785C19.8231 108 20.1991 108.254 20.5994 108.463Z" fill="#FF6845"/>
<path d="M2.08984 76.7998C2.20123 77.6248 2.37876 78.4393 2.65375 79.2399C2.76514 79.5706 2.87653 79.9013 2.98444 80.232H3.44045V76.7998H2.08984Z" fill="#FF6845"/>
<path d="M30.9009 76.7998H27.4688V80.232H30.9009V76.7998Z" fill="#FF6845"/>
<path d="M30.9009 63.0674H27.4688V66.4996H30.9009V63.0674Z" fill="#FF6845"/>
<path d="M123.56 35.6021C123.149 34.6692 122.652 33.7677 121.935 33.0228C121.674 32.7512 121.44 32.4658 121.228 32.1699H120.152V35.6021H123.557H123.56Z" fill="#FF6845"/>
<path d="M109.856 20.3247C108.732 19.6981 107.59 19.1099 106.424 18.5703V21.8702H109.856V20.3247Z" fill="#FF6845"/>
<path d="M139.245 66.4996C138.782 65.3439 138.295 64.1987 137.765 63.0674H137.316V66.4996H139.245Z" fill="#FF6845"/>
<path d="M102.99 17.1846V18.4412H106.134C105.107 17.9782 104.059 17.5605 102.99 17.1846Z" fill="#FF6845"/>
<path d="M27.4634 66.499H24.0312V69.9312H27.4634V66.499Z" fill="#FF6845"/>
<path d="M34.3326 59.6357H30.9004V63.0679H34.3326V59.6357Z" fill="#FF6845"/>
<path d="M133.885 54.2812V56.1992H134.748C134.477 55.5518 134.195 54.9078 133.885 54.2812Z" fill="#FF6845"/>
<path d="M37.7662 49.335H34.334V52.7672H37.7662V49.335Z" fill="#FF6845"/>
<path d="M133.048 52.7672C133.048 52.7672 133.034 52.7428 133.024 52.7289C132.31 51.5906 131.562 50.4732 130.855 49.335H130.451V52.7672H133.048Z" fill="#FF6845"/>
<path d="M124.026 36.7372C123.887 36.3786 123.745 36.0201 123.588 35.665V39.0381H125.029C124.674 38.2827 124.333 37.5204 124.026 36.7372Z" fill="#FF6845"/>
<path d="M99.5552 16.1868C98.9774 16.051 98.3926 15.9257 97.7974 15.8213C97.2265 15.7238 96.6661 15.5323 96.123 15.3096V18.4389H99.5552V16.1868Z" fill="#FF6845"/>
<path d="M89.2584 66.499H85.8262V69.9312H89.2584V66.499Z" fill="#FF6845"/>
<path d="M116.721 24.7529V25.3029H117.299C117.118 25.1115 116.923 24.927 116.721 24.7529Z" fill="#FF6845"/>
<path d="M54.9302 0.810601C54.1157 0.626111 53.2977 0.441622 52.4866 0.24669C52.1594 0.166629 51.8287 0.103972 51.498 0.0517578V1.27705H54.9302V0.814082V0.810601Z" fill="#FF6845"/>
<path d="M37.7662 83.6641H34.334V87.0963H37.7662V83.6641Z" fill="#FF6845"/>
<path d="M65.2291 3.56466C64.4667 3.37669 63.7079 3.17132 62.9699 2.91373C62.5801 2.77797 62.1902 2.64918 61.7969 2.52734V4.70989H65.2291V3.56466Z" fill="#FF6845"/>
<path d="M61.7949 111.72C62.9332 111.557 64.0784 111.435 65.2271 111.33V111.125H61.7949V111.72Z" fill="#FF6845"/>
<path d="M48.065 0.225586C46.885 0.455327 45.7363 0.768611 44.6328 1.23157V1.27683H48.065V0.225586Z" fill="#FF6845"/>
<path d="M48.065 87.0967H44.6328V90.5289H48.065V87.0967Z" fill="#FF6845"/>
<path d="M92.6914 13.75V15.0066H95.4309C94.5154 14.5924 93.6034 14.1712 92.6914 13.75Z" fill="#FF6845"/>
<path d="M85.8267 10.6133C84.6989 10.126 83.5572 9.68394 82.3945 9.28711V11.5741H85.8267V10.6133Z" fill="#FF6845"/>
<path d="M1.77344 69.9316C1.86046 71.0734 1.90919 72.2186 1.93008 73.3638H3.4408V69.9316H1.77344Z" fill="#FF6845"/>
<path d="M68.6621 4.43164V4.71012H69.5741C69.2713 4.61265 68.965 4.52214 68.6621 4.43164Z" fill="#FF6845"/>
<path d="M27.4634 73.3633H24.0312V76.7955H27.4634V73.3633Z" fill="#FF6845"/>
<path d="M34.3326 80.2314H30.9004V83.6636H34.3326V80.2314Z" fill="#FF6845"/>
<path d="M75.5259 7.09761C74.7532 6.81565 73.9909 6.50585 73.2494 6.15776C72.8665 5.97675 72.4801 5.80618 72.0938 5.64258V8.14189H75.5259V7.09761Z" fill="#FF6845"/>
<path d="M41.1978 87.0967H37.7656V90.5289H41.1978V87.0967Z" fill="#FF6845"/>
<path d="M92.6914 103.488C93.8262 103.084 94.9714 102.708 96.1236 102.356V100.828H92.6914V103.491V103.488Z" fill="#FF6845"/>
<path d="M58.3619 28.7383H54.9297V32.1705H58.3619V28.7383Z" fill="#FF6845"/>
<path d="M68.6627 32.1699H65.2305V35.6021H68.6627V32.1699Z" fill="#FF6845"/>
<path d="M102.99 100.487C103.947 100.254 104.908 100.028 105.869 99.8049C106.053 99.7631 106.238 99.7178 106.422 99.6726V97.3926H102.99V100.487Z" fill="#FF6845"/>
<path d="M90.6208 104.261H89.2598V104.807C89.7123 104.619 90.1648 104.438 90.6208 104.261Z" fill="#FF6845"/>
<path d="M61.7955 32.1699H58.3633V35.6021H61.7955V32.1699Z" fill="#FF6845"/>
<path d="M101.626 100.828H99.5586V101.371C100.248 101.187 100.937 101.006 101.626 100.828Z" fill="#FF6845"/>
<path d="M72.0938 109.925C73.239 109.629 74.3842 109.329 75.5259 109.027V107.693H72.0938V109.925Z" fill="#FF6845"/>
<path d="M75.5259 39.0391H72.0938V42.4713H75.5259V39.0391Z" fill="#FF6845"/>
<path d="M82.3912 39.0391H78.959V42.4713H82.3912V39.0391Z" fill="#FF6845"/>
<path d="M72.0943 35.6025H68.6621V39.0347H72.0943V35.6025Z" fill="#FF6845"/>
<path d="M82.3945 107.22C83.5537 106.921 84.7024 106.597 85.8267 106.207V104.265H82.3945V107.223V107.22Z" fill="#FF6845"/>
<path d="M80.5707 107.693H78.959V108.115C79.495 107.972 80.0346 107.833 80.5707 107.693Z" fill="#FF6845"/>
<path d="M120.154 94.7745C121.877 94.2524 122.73 94.0122 123.586 94.0609V93.96H120.154V94.7745Z" fill="#FF6845"/>
<path d="M44.6295 42.4707H41.1973V45.9029H44.6295V42.4707Z" fill="#FF6845"/>
<path d="M142.388 87.1733C142.405 87.1489 142.423 87.121 142.444 87.0967H140.752V89.9232C141.156 88.9276 141.737 88.0296 142.391 87.1733H142.388Z" fill="#FF6845"/>
<path d="M139.26 93.9635C139.761 93.2742 140.116 92.4353 140.304 91.4293C140.363 91.1195 140.443 90.8236 140.537 90.5312H137.324V93.9635H139.263H139.26Z" fill="#FF6845"/>
<path d="M48.065 39.0391H44.6328V42.4713H48.065V39.0391Z" fill="#FF6845"/>
<path d="M144.031 83.6636C144.254 82.5532 144.226 81.4115 143.975 80.2314H140.752V83.6636H144.031Z" fill="#FF6845"/>
<path d="M142.882 76.7994C142.496 75.6576 142.113 74.5089 141.727 73.3672H140.752V76.7994H142.882Z" fill="#FF6845"/>
<path d="M127.02 95.0808C127.43 95.2305 127.845 95.3767 128.245 95.5507C128.965 95.864 129.7 96.0799 130.452 96.2191V93.96H127.02V95.0808Z" fill="#FF6845"/>
<path d="M54.9302 32.1699H51.498V35.6021H54.9302V32.1699Z" fill="#FF6845"/>
<path d="M41.1978 45.9023H37.7656V49.3345H41.1978V45.9023Z" fill="#FF6845"/>
<path d="M109.855 98.7496C111.015 98.3945 112.16 97.9977 113.288 97.5417V97.3955H109.855V98.7496Z" fill="#FF6845"/>
<path d="M51.4986 35.6025H48.0664V39.0347H51.4986V35.6025Z" fill="#FF6845"/>
<path d="M133.885 96.3374C134.316 96.3096 134.752 96.2748 135.176 96.2087C135.973 96.0868 136.687 95.871 137.317 95.5647V93.96H133.885V96.334V96.3374Z" fill="#FF6845"/>
<path d="M34.3326 52.7666H30.9004V56.1988H34.3326V52.7666Z" fill="#FF6845"/>
<path d="M85.8267 69.9316H82.3945V73.3638H85.8267V69.9316Z" fill="#FF6845"/>
<path d="M68.6627 73.3633H65.2305V76.7955H68.6627V73.3633Z" fill="#FF6845"/>
<path d="M82.3912 52.7666H78.959V56.1988H82.3912V52.7666Z" fill="#FF6845"/>
<path d="M78.9595 69.9316H75.5273V73.3638H78.9595V69.9316Z" fill="#FF6845"/>
<path d="M85.8267 63.0674H82.3945V66.4996H85.8267V63.0674Z" fill="#FF6845"/>
<path d="M65.2271 76.7998H61.7949V80.232H65.2271V76.7998Z" fill="#FF6845"/>
<path d="M75.5259 73.3633H72.0938V76.7955H75.5259V73.3633Z" fill="#FF6845"/>
<path d="M85.8267 56.1992H82.3945V59.6314H85.8267V56.1992Z" fill="#FF6845"/>
<path d="M48.065 80.2314H44.6328V83.6636H48.065V80.2314Z" fill="#FF6845"/>
<path d="M75.5259 52.7666H72.0938V56.1988H75.5259V52.7666Z" fill="#FF6845"/>
<path d="M58.3619 49.335H54.9297V52.7672H58.3619V49.335Z" fill="#FF6845"/>
<path d="M65.2271 49.335H61.7949V52.7672H65.2271V49.335Z" fill="#FF6845"/>
<path d="M58.3619 76.7998H54.9297V80.232H58.3619V76.7998Z" fill="#FF6845"/>
<path d="M72.0943 49.335H68.6621V52.7672H72.0943V49.335Z" fill="#FF6845"/>
<path d="M54.9302 80.2314H51.498V83.6636H54.9302V80.2314Z" fill="#FF6845"/>
<path d="M44.6295 76.7998H41.1973V80.232H44.6295V76.7998Z" fill="#FF6845"/>
<path d="M58.3619 69.9316H54.9297V73.3638H58.3619V69.9316Z" fill="#FF6845"/>
<path d="M92.692 49.335H89.2598V52.7672H92.692V49.335Z" fill="#FF6845"/>
<path d="M96.1236 52.7666H92.6914V56.1988H96.1236V52.7666Z" fill="#FF6845"/>
<path d="M78.9595 63.0674H75.5273V66.4996H78.9595V63.0674Z" fill="#FF6845"/>
<path d="M89.2584 45.9023H85.8262V49.3345H89.2584V45.9023Z" fill="#FF6845"/>
<path d="M82.3912 45.9023H78.959V49.3345H82.3912V45.9023Z" fill="#FF6845"/>
<path d="M51.4986 69.9316H48.0664V73.3638H51.4986V69.9316Z" fill="#FF6845"/>
<path d="M61.7955 66.499H58.3633V69.9312H61.7955V66.499Z" fill="#FF6845"/>
<path d="M72.0943 63.0674H68.6621V66.4996H72.0943V63.0674Z" fill="#FF6845"/>
<path d="M51.4986 63.0674H48.0664V66.4996H51.4986V63.0674Z" fill="#FF6845"/>
<path d="M92.692 69.9316H89.2598V73.3638H92.692V69.9316Z" fill="#FF6845"/>
<path d="M68.6627 66.499H65.2305V69.9312H68.6627V66.499Z" fill="#FF6845"/>
<path d="M99.5552 63.0674H96.123V66.4996H99.5552V63.0674Z" fill="#FF6845"/>
<path d="M96.1236 59.6357H92.6914V63.0679H96.1236V59.6357Z" fill="#FF6845"/>
<path d="M96.1236 66.499H92.6914V69.9312H96.1236V66.499Z" fill="#FF6845"/>
<path d="M65.2271 69.9316H61.7949V73.3638H65.2271V69.9316Z" fill="#FF6845"/>
<path d="M78.9595 49.335H75.5273V52.7672H78.9595V49.335Z" fill="#FF6845"/>
<path d="M65.2271 42.4707H61.7949V45.9029H65.2271V42.4707Z" fill="#FF6845"/>
<path d="M75.5259 45.9023H72.0938V49.3345H75.5259V45.9023Z" fill="#FF6845"/>
<path d="M54.9302 73.3633H51.498V76.7955H54.9302V73.3633Z" fill="#FF6845"/>
<path d="M61.7955 73.3633H58.3633V76.7955H61.7955V73.3633Z" fill="#FF6845"/>
<path d="M68.6627 45.9023H65.2305V49.3345H68.6627V45.9023Z" fill="#FF6845"/>
<path d="M85.8267 49.335H82.3945V52.7672H85.8267V49.335Z" fill="#FF6845"/>
<path d="M82.3912 66.499H78.959V69.9312H82.3912V66.499Z" fill="#FF6845"/>
<path d="M92.692 63.0674H89.2598V66.4996H92.692V63.0674Z" fill="#FF6845"/>
<path d="M92.692 56.1992H89.2598V59.6314H92.692V56.1992Z" fill="#FF6845"/>
<path d="M75.5259 66.499H72.0938V69.9312H75.5259V66.499Z" fill="#FF6845"/>
<path d="M72.0943 69.9316H68.6621V73.3638H72.0943V69.9316Z" fill="#FF6845"/>
<path d="M89.2584 52.7666H85.8262V56.1988H89.2584V52.7666Z" fill="#FF6845"/>
<path d="M44.6295 69.9316H41.1973V73.3638H44.6295V69.9316Z" fill="#FF6845"/>
<path d="M51.4986 56.1992H48.0664V59.6314H51.4986V56.1992Z" fill="#FF6845"/>
<path d="M41.1978 59.6357H37.7656V63.0679H41.1978V59.6357Z" fill="#FF6845"/>
<path d="M58.3619 42.4707H54.9297V45.9029H58.3619V42.4707Z" fill="#FF6845"/>
<path d="M37.7662 69.9316H34.334V73.3638H37.7662V69.9316Z" fill="#FF6845"/>
<path d="M44.6295 56.1992H41.1973V59.6314H44.6295V56.1992Z" fill="#FF6845"/>
<path d="M41.1978 66.499H37.7656V69.9312H41.1978V66.499Z" fill="#FF6845"/>
<path d="M54.9302 52.7666H51.498V56.1988H54.9302V52.7666Z" fill="#FF6845"/>
<path d="M48.065 59.6357H44.6328V63.0679H48.065V59.6357Z" fill="#FF6845"/>
<path d="M48.065 52.7666H44.6328V56.1988H48.065V52.7666Z" fill="#FF6845"/>
<path d="M54.9302 45.9023H51.498V49.3345H54.9302V45.9023Z" fill="#FF6845"/>
<path d="M48.065 73.3633H44.6328V76.7955H48.065V73.3633Z" fill="#FF6845"/>
<path d="M41.1978 73.3633H37.7656V76.7955H41.1978V73.3633Z" fill="#FF6845"/>
<path d="M44.6295 63.0674H41.1973V66.4996H44.6295V63.0674Z" fill="#FF6845"/>
<path d="M51.4986 49.335H48.0664V52.7672H51.4986V49.335Z" fill="#FF6845"/>
<path d="M48.065 45.9023H44.6328V49.3345H48.065V45.9023Z" fill="#FF6845"/>
<path d="M24.0318 63.0674H20.5996V66.4996H24.0318V63.0674Z" fill="#FF6845"/>
<path d="M61.7955 80.2314H58.3633V83.6636H61.7955V80.2314Z" fill="#FF6845"/>
<path d="M72.0943 76.7998H68.6621V80.232H72.0943V76.7998Z" fill="#FF6845"/>
<path d="M51.4986 21.874H48.0664V25.3062H51.4986V21.874Z" fill="#FF6845"/>
<path d="M58.3619 83.6641H54.9297V87.0963H58.3619V83.6641Z" fill="#FF6845"/>
<path d="M68.6627 80.2314H65.2305V83.6636H68.6627V80.2314Z" fill="#FF6845"/>
<path d="M116.719 73.3633H113.287V76.7955H116.719V73.3633Z" fill="#FF6845"/>
<path d="M102.989 66.499H99.5566V69.9312H102.989V66.499Z" fill="#FF6845"/>
<path d="M44.6295 83.6641H41.1973V87.0963H44.6295V83.6641Z" fill="#FF6845"/>
<path d="M89.2584 59.6357H85.8262V63.0679H89.2584V59.6357Z" fill="#FF6845"/>
<path d="M48.065 66.499H44.6328V69.9312H48.065V66.499Z" fill="#FF6845"/>
<path d="M41.1978 80.2314H37.7656V83.6636H41.1978V80.2314Z" fill="#FF6845"/>
<path d="M51.4986 76.7998H48.0664V80.232H51.4986V76.7998Z" fill="#FF6845"/>
<path d="M51.4986 83.6641H48.0664V87.0963H51.4986V83.6641Z" fill="#FF6845"/>
<path d="M61.7955 45.9023H58.3633V49.3345H61.7955V45.9023Z" fill="#FF6845"/>
<path d="M61.7955 39.0391H58.3633V42.4713H61.7955V39.0391Z" fill="#FF6845"/>
<path d="M1.90125 49.335C1.26424 50.4419 0.682928 51.5732 0.341797 52.7672H3.43983V49.335H1.90473H1.90125Z" fill="#FF6845"/>
<path d="M89.2584 73.3633H85.8262V76.7955H89.2584V73.3633Z" fill="#FF6845"/>
<path d="M10.3052 42.8467C9.37236 44.0546 8.25846 45.064 6.87305 45.7776V45.9029H10.3052V42.8467Z" fill="#FF6845"/>
<path d="M96.1236 73.3633H92.6914V76.7955H96.1236V73.3633Z" fill="#FF6845"/>
<path d="M0.13758 56.1992C0.148023 56.2514 0.151504 56.3002 0.161947 56.3524C0.228085 56.6761 0.280299 57.0381 0.203718 57.3479C0.00878603 58.1207 -0.0225423 58.883 0.0366335 59.6349H3.44098V56.2027H0.13758V56.1992Z" fill="#FF6845"/>
<path d="M0.710938 63.0674C0.989412 64.2056 1.20871 65.3509 1.38276 66.4996H3.43651V63.0674H0.710938Z" fill="#FF6845"/>
<path d="M58.3619 97.3955H54.9297V100.828H58.3619V97.3955Z" fill="#FF6845"/>
<path d="M99.5552 69.9316H96.123V73.3638H99.5552V69.9316Z" fill="#FF6845"/>
<path d="M78.9595 76.7998H75.5273V80.232H78.9595V76.7998Z" fill="#FF6845"/>
<path d="M133.883 76.7998H130.451V80.232H133.883V76.7998Z" fill="#FF6845"/>
<path d="M48.065 11.5742H44.6328V15.0064H48.065V11.5742Z" fill="#FF6845"/>
<path d="M82.3912 73.3633H78.959V76.7955H82.3912V73.3633Z" fill="#FF6845"/>
<path d="M12.8659 39.0391C12.3751 39.6656 11.9191 40.3235 11.5119 41.0302C11.2229 41.5349 10.9131 42.0153 10.5859 42.4713H13.7362V39.0391H12.8659Z" fill="#FF6845"/>
<path d="M33.9572 11.5742C33.8702 12.0128 33.8214 12.4653 33.818 12.9353C33.8145 13.6628 33.7135 14.352 33.543 15.0064H34.3331V11.5742H33.9572Z" fill="#FF6845"/>
<path d="M37.7662 56.1992H34.334V59.6314H37.7662V56.1992Z" fill="#FF6845"/>
<path d="M82.3912 59.6357H78.959V63.0679H82.3912V59.6357Z" fill="#FF6845"/>
<path d="M68.6627 52.7666H65.2305V56.1988H68.6627V52.7666Z" fill="#FF6845"/>
<path d="M58.3619 35.6025H54.9297V39.0347H58.3619V35.6025Z" fill="#FF6845"/>
<path d="M51.4986 42.4707H48.0664V45.9029H51.4986V42.4707Z" fill="#FF6845"/>
<path d="M78.9595 56.1992H75.5273V59.6314H78.9595V56.1992Z" fill="#FF6845"/>
<path d="M72.0943 56.1992H68.6621V59.6314H72.0943V56.1992Z" fill="#FF6845"/>
<path d="M106.422 69.9316H102.99V73.3638H106.422V69.9316Z" fill="#FF6845"/>
<path d="M61.7955 52.7666H58.3633V56.1988H61.7955V52.7666Z" fill="#FF6845"/>
<path d="M72.0943 42.4707H68.6621V45.9029H72.0943V42.4707Z" fill="#FF6845"/>
<path d="M68.6627 39.0391H65.2305V42.4713H68.6627V39.0391Z" fill="#FF6845"/>
<path d="M54.9302 59.6357H51.498V63.0679H54.9302V59.6357Z" fill="#FF6845"/>
<path d="M65.2271 35.6025H61.7949V39.0347H65.2271V35.6025Z" fill="#FF6845"/>
<path d="M58.3619 56.1992H54.9297V59.6314H58.3619V56.1992Z" fill="#FF6845"/>
<path d="M44.6295 49.335H41.1973V52.7672H44.6295V49.335Z" fill="#FF6845"/>
<path d="M54.9302 39.0391H51.498V42.4713H54.9302V39.0391Z" fill="#FF6845"/>
<path d="M34.3326 73.3633H30.9004V76.7955H34.3326V73.3633Z" fill="#FF6845"/>
<path d="M65.2271 56.1992H61.7949V59.6314H65.2271V56.1992Z" fill="#FF6845"/>
<path d="M75.5259 59.6357H72.0938V63.0679H75.5259V59.6357Z" fill="#FF6845"/>
<path d="M58.3619 63.0674H54.9297V66.4996H58.3619V63.0674Z" fill="#FF6845"/>
<path d="M37.7662 76.7998H34.334V80.232H37.7662V76.7998Z" fill="#FF6845"/>
<path d="M61.7955 59.6357H58.3633V63.0679H61.7955V59.6357Z" fill="#FF6845"/>
<path d="M54.9302 66.499H51.498V69.9312H54.9302V66.499Z" fill="#FF6845"/>
<path d="M30.9009 69.9316H27.4688V73.3638H30.9009V69.9316Z" fill="#FF6845"/>
<path d="M68.6627 59.6357H65.2305V63.0679H68.6627V59.6357Z" fill="#FF6845"/>
<path d="M78.9595 42.4707H75.5273V45.9029H78.9595V42.4707Z" fill="#FF6845"/>
<path d="M41.1978 52.7666H37.7656V56.1988H41.1978V52.7666Z" fill="#FF6845"/>
<path d="M37.7662 63.0674H34.334V66.4996H37.7662V63.0674Z" fill="#FF6845"/>
<path d="M65.2271 63.0674H61.7949V66.4996H65.2271V63.0674Z" fill="#FF6845"/>
<path d="M34.3326 66.499H30.9004V69.9312H34.3326V66.499Z" fill="#FF6845"/>
<path d="M68.6627 4.70898H65.2305V8.14118H68.6627V4.70898Z" fill="#FF6845"/>
<path d="M58.3619 104.261H54.9297V107.693H58.3619V104.261Z" fill="#FF6845"/>
<path d="M65.2271 104.261H61.7949V107.693H65.2271V104.261Z" fill="#FF6845"/>
<path d="M10.3013 63.0674H6.86914V66.4996H10.3013V63.0674Z" fill="#FF6845"/>
<path d="M51.4986 104.261H48.0664V107.693H51.4986V104.261Z" fill="#FF6845"/>
<path d="M48.065 100.828H44.6328V104.26H48.065V100.828Z" fill="#FF6845"/>
<path d="M68.6627 100.828H65.2305V104.26H68.6627V100.828Z" fill="#FF6845"/>
<path d="M75.5259 100.828H72.0938V104.26H75.5259V100.828Z" fill="#FF6845"/>
<path d="M89.2584 93.9639H85.8262V97.3961H89.2584V93.9639Z" fill="#FF6845"/>
<path d="M85.8267 97.3955H82.3945V100.828H85.8267V97.3955Z" fill="#FF6845"/>
<path d="M78.9595 97.3955H75.5273V100.828H78.9595V97.3955Z" fill="#FF6845"/>
<path d="M34.3326 100.828H30.9004V104.26H34.3326V100.828Z" fill="#FF6845"/>
<path d="M10.3013 76.7998H6.86914V80.232H10.3013V76.7998Z" fill="#FF6845"/>
<path d="M13.7369 80.2314H10.3047V83.6636H13.7369V80.2314Z" fill="#FF6845"/>
<path d="M10.3013 69.9316H6.86914V73.3638H10.3013V69.9316Z" fill="#FF6845"/>
<path d="M13.7369 87.0967H10.3047V90.5289H13.7369V87.0967Z" fill="#FF6845"/>
<path d="M109.856 25.3057H106.424V28.7379H109.856V25.3057Z" fill="#FF6845"/>
<path d="M102.989 87.0967H99.5566V90.5289H102.989V87.0967Z" fill="#FF6845"/>
<path d="M96.1236 93.9639H92.6914V97.3961H96.1236V93.9639Z" fill="#FF6845"/>
<path d="M24.0318 97.3955H20.5996V100.828H24.0318V97.3955Z" fill="#FF6845"/>
<path d="M20.6002 93.9639H17.168V97.3961H20.6002V93.9639Z" fill="#FF6845"/>
<path d="M41.1978 100.828H37.7656V104.26H41.1978V100.828Z" fill="#FF6845"/>
<path d="M127.02 49.335H123.588V52.7672H127.02V49.335Z" fill="#FF6845"/>
<path d="M127.02 56.1992H123.588V59.6314H127.02V56.1992Z" fill="#FF6845"/>
<path d="M123.586 45.9023H120.154V49.3345H123.586V45.9023Z" fill="#FF6845"/>
<path d="M130.452 59.6357H127.02V63.0679H130.452V59.6357Z" fill="#FF6845"/>
<path d="M120.153 42.4707H116.721V45.9029H120.153V42.4707Z" fill="#FF6845"/>
<path d="M133.883 63.0674H130.451V66.4996H133.883V63.0674Z" fill="#FF6845"/>
<path d="M116.719 32.1699H113.287V35.6021H116.719V32.1699Z" fill="#FF6845"/>
<path d="M113.288 28.7383H109.855V32.1705H113.288V28.7383Z" fill="#FF6845"/>
<path d="M116.719 39.0391H113.287V42.4713H116.719V39.0391Z" fill="#FF6845"/>
<path d="M123.586 87.0967H120.154V90.5289H123.586V87.0967Z" fill="#FF6845"/>
<path d="M113.288 90.5283H109.855V93.9605H113.288V90.5283Z" fill="#FF6845"/>
<path d="M133.883 69.9316H130.451V73.3638H133.883V69.9316Z" fill="#FF6845"/>
<path d="M99.5552 90.5283H96.123V93.9605H99.5552V90.5283Z" fill="#FF6845"/>
<path d="M106.422 90.5283H102.99V93.9605H106.422V90.5283Z" fill="#FF6845"/>
<path d="M116.719 87.0967H113.287V90.5289H116.719V87.0967Z" fill="#FF6845"/>
<path d="M137.317 80.2314H133.885V83.6636H137.317V80.2314Z" fill="#FF6845"/>
<path d="M130.452 87.0967H127.02V90.5289H130.452V87.0967Z" fill="#FF6845"/>
<path d="M137.317 73.3633H133.885V76.7955H137.317V73.3633Z" fill="#FF6845"/>
<path d="M133.883 83.6641H130.451V87.0963H133.883V83.6641Z" fill="#FF6845"/>
<path d="M27.4634 100.828H24.0312V104.26H27.4634V100.828Z" fill="#FF6845"/>
<path d="M113.288 42.4707H109.855V45.9029H113.288V42.4707Z" fill="#FF6845"/>
<path d="M113.288 35.6025H109.855V39.0347H113.288V35.6025Z" fill="#FF6845"/>
<path d="M116.719 45.9023H113.287V49.3345H116.719V45.9023Z" fill="#FF6845"/>
<path d="M123.586 52.7666H120.154V56.1988H123.586V52.7666Z" fill="#FF6845"/>
<path d="M109.856 32.1699H106.424V35.6021H109.856V32.1699Z" fill="#FF6845"/>
<path d="M120.153 49.335H116.721V52.7672H120.153V49.335Z" fill="#FF6845"/>
<path d="M89.2584 25.3057H85.8262V28.7379H89.2584V25.3057Z" fill="#FF6845"/>
<path d="M96.1236 25.3057H92.6914V28.7379H96.1236V25.3057Z" fill="#FF6845"/>
<path d="M99.5552 28.7383H96.123V32.1705H99.5552V28.7383Z" fill="#FF6845"/>
<path d="M85.8267 21.874H82.3945V25.3062H85.8267V21.874Z" fill="#FF6845"/>
<path d="M106.422 28.7383H102.99V32.1705H106.422V28.7383Z" fill="#FF6845"/>
<path d="M127.02 83.6641H123.588V87.0963H127.02V83.6641Z" fill="#FF6845"/>
<path d="M113.288 83.6641H109.855V87.0963H113.288V83.6641Z" fill="#FF6845"/>
<path d="M120.153 83.6641H116.721V87.0963H120.153V83.6641Z" fill="#FF6845"/>
<path d="M10.3013 56.1992H6.86914V59.6314H10.3013V56.1992Z" fill="#FF6845"/>
<path d="M130.452 80.2314H127.02V83.6636H130.452V80.2314Z" fill="#FF6845"/>
<path d="M127.02 63.0674H123.588V66.4996H127.02V63.0674Z" fill="#FF6845"/>
<path d="M130.452 66.499H127.02V69.9312H130.452V66.499Z" fill="#FF6845"/>
<path d="M123.586 59.6357H120.154V63.0679H123.586V59.6357Z" fill="#FF6845"/>
<path d="M130.452 73.3633H127.02V76.7955H130.452V73.3633Z" fill="#FF6845"/>
<path d="M109.856 87.0967H106.424V90.5289H109.856V87.0967Z" fill="#FF6845"/>
<path d="M27.4634 32.1699H24.0312V35.6021H27.4634V32.1699Z" fill="#FF6845"/>
<path d="M24.0318 35.6025H20.5996V39.0347H24.0318V35.6025Z" fill="#FF6845"/>
<path d="M30.9009 28.7383H27.4688V32.1705H30.9009V28.7383Z" fill="#FF6845"/>
<path d="M34.3326 25.3057H30.9004V28.7379H34.3326V25.3057Z" fill="#FF6845"/>
<path d="M37.7662 21.874H34.334V25.3062H37.7662V21.874Z" fill="#FF6845"/>
<path d="M17.1685 49.335H13.7363V52.7672H17.1685V49.335Z" fill="#FF6845"/>
<path d="M20.6002 39.0391H17.168V42.4713H20.6002V39.0391Z" fill="#FF6845"/>
<path d="M82.3912 18.4385H78.959V21.8707H82.3912V18.4385Z" fill="#FF6845"/>
<path d="M20.6002 45.9023H17.168V49.3345H20.6002V45.9023Z" fill="#FF6845"/>
<path d="M10.3013 49.335H6.86914V52.7672H10.3013V49.335Z" fill="#FF6845"/>
<path d="M65.2271 15.0059H61.7949V18.4381H65.2271V15.0059Z" fill="#FF6845"/>
<path d="M72.0943 15.0059H68.6621V18.4381H72.0943V15.0059Z" fill="#FF6845"/>
<path d="M75.5259 18.4385H72.0938V21.8707H75.5259V18.4385Z" fill="#FF6845"/>
<path d="M61.7955 11.5742H58.3633V15.0064H61.7955V11.5742Z" fill="#FF6845"/>
<path d="M51.4986 8.1416H48.0664V11.5738H51.4986V8.1416Z" fill="#FF6845"/>
<path d="M41.1978 11.5742H37.7656V15.0064H41.1978V11.5742Z" fill="#FF6845"/>
<path d="M44.6295 8.1416H41.1973V11.5738H44.6295V8.1416Z" fill="#FF6845"/>
<path d="M54.9302 11.5742H51.498V15.0064H54.9302V11.5742Z" fill="#FF6845"/>
<path d="M41.1978 18.4385H37.7656V21.8707H41.1978V18.4385Z" fill="#FF6845"/>
<path d="M17.1685 90.5283H13.7363V93.9605H17.1685V90.5283Z" fill="#FF6845"/>
<path d="M137.317 87.0967H133.885V90.5289H137.317V87.0967Z" fill="#FF6845"/>
<path d="M140.749 83.6641H137.316V87.0963H140.749V83.6641Z" fill="#FF6845"/>
<path d="M133.883 90.5283H130.451V93.9605H133.883V90.5283Z" fill="#FF6845"/>
<path d="M127.02 90.5283H123.588V93.9605H127.02V90.5283Z" fill="#FF6845"/>
<path d="M140.749 76.7998H137.316V80.232H140.749V76.7998Z" fill="#FF6845"/>
<path d="M137.317 66.499H133.885V69.9312H137.317V66.499Z" fill="#FF6845"/>
<path d="M137.317 63.0679V62.1281C137.129 61.7452 136.938 61.3658 136.743 60.9898C136.513 60.5477 136.307 60.0952 136.116 59.6357H133.885V63.0679H137.317Z" fill="#FF6845"/>
<path d="M140.753 73.3638V70.5338C140.683 70.332 140.61 70.1335 140.54 69.9316H137.32V73.3638H140.753Z" fill="#FF6845"/>
<path d="M133.883 56.1992H130.451V59.6314H133.883V56.1992Z" fill="#FF6845"/>
<path d="M120.153 90.5283H116.721V93.9605H120.153V90.5283Z" fill="#FF6845"/>
<path d="M109.856 93.9639H106.424V97.3961H109.856V93.9639Z" fill="#FF6845"/>
<path d="M78.9595 104.261H75.5273V107.693H78.9595V104.261Z" fill="#FF6845"/>
<path d="M89.2584 100.828H85.8262V104.26H89.2584V100.828Z" fill="#FF6845"/>
<path d="M82.3912 100.828H78.959V104.26H82.3912V100.828Z" fill="#FF6845"/>
<path d="M72.0943 104.261H68.6621V107.693H72.0943V104.261Z" fill="#FF6845"/>
<path d="M130.452 52.7666H127.02V56.1988H130.452V52.7666Z" fill="#FF6845"/>
<path d="M102.989 93.9639H99.5566V97.3961H102.989V93.9639Z" fill="#FF6845"/>
<path d="M113.287 97.3961H113.628C114.297 97.1176 114.961 96.8217 115.616 96.4945C115.978 96.3135 116.347 96.1464 116.719 95.9898V93.9639H113.287V97.3961Z" fill="#FF6845"/>
<path d="M92.692 97.3955H89.2598V100.828H92.692V97.3955Z" fill="#FF6845"/>
<path d="M99.5552 97.3955H96.123V100.828H99.5552V97.3955Z" fill="#FF6845"/>
<path d="M123.586 39.0391H120.154V42.4713H123.586V39.0391Z" fill="#FF6845"/>
<path d="M82.3912 11.5742H78.959V15.0064H82.3912V11.5742Z" fill="#FF6845"/>
<path d="M92.692 15.0059H89.2598V18.4381H92.692V15.0059Z" fill="#FF6845"/>
<path d="M72.0943 8.1416H68.6621V11.5738H72.0943V8.1416Z" fill="#FF6845"/>
<path d="M89.2579 15.006V12.169C88.8263 11.9706 88.3947 11.7687 87.9596 11.5703H85.8223V15.0025H89.2545L89.2579 15.006Z" fill="#FF6845"/>
<path d="M78.9595 11.5738V8.2147C78.8795 8.19033 78.7994 8.16597 78.7194 8.1416H75.5273V11.5738H78.9595Z" fill="#FF6845"/>
<path d="M41.1968 3.25799V4.70954H44.629V1.27734H44.5246C43.8702 1.55582 43.2297 1.88303 42.6136 2.28333C42.1297 2.59662 41.6598 2.92382 41.1934 3.26147L41.1968 3.25799Z" fill="#FF6845"/>
<path d="M51.4986 1.27734H48.0664V4.70954H51.4986V1.27734Z" fill="#FF6845"/>
<path d="M58.3619 4.70912V1.59716C58.2818 1.57976 58.2052 1.55887 58.1252 1.53799C57.7388 1.44748 57.3489 1.36046 56.9626 1.27344H54.9297V4.70564H58.3619V4.70912Z" fill="#FF6845"/>
<path d="M61.7955 4.70898H58.3633V8.14118H61.7955V4.70898Z" fill="#FF6845"/>
<path d="M106.422 21.874H102.99V25.3062H106.422V21.874Z" fill="#FF6845"/>
<path d="M120.153 35.6025H116.721V39.0347H120.153V35.6025Z" fill="#FF6845"/>
<path d="M120.155 32.1705V30.2734C120.019 29.9775 119.89 29.6781 119.768 29.3753C119.681 29.1595 119.591 28.9506 119.497 28.7383H116.723V32.1705H120.155Z" fill="#FF6845"/>
<path d="M65.2305 111.126H66.8282C67.4409 111.025 68.0535 110.906 68.6627 110.771V107.693H65.2305V111.126Z" fill="#FF6845"/>
<path d="M96.1236 18.4385H92.6914V21.8707H96.1236V18.4385Z" fill="#FF6845"/>
<path d="M102.989 25.3057H99.5566V28.7379H102.989V25.3057Z" fill="#FF6845"/>
<path d="M102.989 18.4385H99.5566V21.8707H102.989V18.4385Z" fill="#FF6845"/>
<path d="M130.452 49.3345V48.6662C130.326 48.4573 130.198 48.252 130.076 48.0431C129.662 47.326 129.24 46.6125 128.819 45.9023H127.02V49.3345H130.452Z" fill="#FF6845"/>
<path d="M113.288 25.3058V22.3888C113.016 22.2147 112.741 22.0407 112.47 21.8701H109.855V25.3023H113.288V25.3058Z" fill="#FF6845"/>
<path d="M116.719 25.3057H113.287V28.7379H116.719V25.3057Z" fill="#FF6845"/>
<path d="M127.02 45.9029V42.8292C126.95 42.7074 126.881 42.5891 126.815 42.4707H123.588V45.9029H127.02Z" fill="#FF6845"/>
<path d="M37.7662 8.1416H35.6115C35.0754 8.7995 34.6403 9.51657 34.334 10.2928V11.5738H37.7662V8.1416Z" fill="#FF6845"/>
<path d="M54.9302 4.70898H51.498V8.14118H54.9302V4.70898Z" fill="#FF6845"/>
<path d="M34.3326 18.4385H31.9586C31.6244 18.9571 31.2659 19.4549 30.9004 19.9457V21.8707H34.3326V18.4385Z" fill="#FF6845"/>
<path d="M48.065 4.70898H44.6328V8.14118H48.065V4.70898Z" fill="#FF6845"/>
<path d="M41.1978 4.70898H39.3216C38.7925 5.1441 38.2738 5.58966 37.7656 6.04218V8.14118H41.1978V4.70898Z" fill="#FF6845"/>
<path d="M37.7662 15.0059H34.334V18.4381H37.7662V15.0059Z" fill="#FF6845"/>
<path d="M24.0318 28.7383H22.9179C22.4654 29.2186 22.0094 29.6955 21.5534 30.1759C21.2262 30.5205 20.9025 30.8756 20.5996 31.2446V32.1705H24.0318V28.7383Z" fill="#FF6845"/>
<path d="M17.1681 35.6025H16.1795C15.3197 36.3614 14.4947 37.1516 13.7324 38.0009V39.0347H17.1646V35.6025H17.1681Z" fill="#FF6845"/>
<path d="M27.4669 25.3057H25.8344C25.629 25.5493 25.4306 25.8 25.2426 26.0506C24.8597 26.5588 24.449 27.0392 24.0312 27.5161V28.7413H27.4634V25.3091L27.4669 25.3057Z" fill="#FF6845"/>
<path d="M30.9009 21.874H29.4285C28.8437 22.5946 28.2067 23.2803 27.4688 23.8686V25.3062H30.9009V21.874Z" fill="#FF6845"/>
<path d="M20.6002 32.1699H19.8796C19.1486 33.0576 18.2923 33.8129 17.4082 34.5474C17.3281 34.6135 17.248 34.6832 17.168 34.7528V35.6021H20.6002V32.1699Z" fill="#FF6845"/>
<path d="M89.2584 18.4385H85.8262V21.8707H89.2584V18.4385Z" fill="#FF6845"/>
<path d="M58.3619 8.1416H54.9297V11.5738H58.3619V8.1416Z" fill="#FF6845"/>
<path d="M99.5552 21.874H96.123V25.3062H99.5552V21.874Z" fill="#FF6845"/>
<path d="M85.8267 15.0059H82.3945V18.4381H85.8267V15.0059Z" fill="#FF6845"/>
<path d="M92.692 21.874H89.2598V25.3062H92.692V21.874Z" fill="#FF6845"/>
<path d="M68.6627 11.5742H65.2305V15.0064H68.6627V11.5742Z" fill="#FF6845"/>
<path d="M65.2271 8.1416H61.7949V11.5738H65.2271V8.1416Z" fill="#FF6845"/>
<path d="M78.9595 15.0059H75.5273V18.4381H78.9595V15.0059Z" fill="#FF6845"/>
<path d="M75.5259 11.5742H72.0938V15.0064H75.5259V11.5742Z" fill="#FF6845"/>
<path d="M13.7369 93.9639H10.3047V97.3961H13.7369V93.9639Z" fill="#FF6845"/>
<path d="M20.6002 100.828H17.168V104.26H20.6002V100.828Z" fill="#FF6845"/>
<path d="M61.7955 107.693H58.3633V111.126H61.7955V107.693Z" fill="#FF6845"/>
<path d="M24.0318 104.261H20.5996V107.693H24.0318V104.261Z" fill="#FF6845"/>
<path d="M17.1685 97.3955H13.7363V100.828H17.1685V97.3955Z" fill="#FF6845"/>
<path d="M30.9009 104.261H27.4688V107.693H30.9009V104.261Z" fill="#FF6845"/>
<path d="M54.9302 107.693H51.498V111.126H54.9302V107.693Z" fill="#FF6845"/>
<path d="M44.6328 107.693V110.844C45.2002 110.927 45.7676 111.021 46.335 111.126H48.0685V107.693H44.6363H44.6328Z" fill="#FF6845"/>
<path d="M44.6295 104.261H41.1973V107.693H44.6295V104.261Z" fill="#FF6845"/>
<path d="M37.7662 104.261H34.334V107.693H37.7662V104.261Z" fill="#FF6845"/>
<path d="M13.7369 45.9023H10.3047V49.3345H13.7369V45.9023Z" fill="#FF6845"/>
<path d="M6.86774 45.9023H6.62408C6.32124 46.0485 6.00447 46.1808 5.67379 46.2957C5.05418 46.515 4.46938 46.9049 3.94028 47.3086C3.77668 47.434 3.60611 47.5558 3.43555 47.6846V49.338H6.86774V45.9058V45.9023Z" fill="#FF6845"/>
<path d="M10.3013 90.5283H6.86914V93.9605H10.3013V90.5283Z" fill="#FF6845"/>
<path d="M17.1685 42.4707H13.7363V45.9029H17.1685V42.4707Z" fill="#FF6845"/>
<path d="M6.86774 59.6357H3.43555V63.0679H6.86774V59.6357Z" fill="#FF6845"/>
<path d="M6.86774 52.7666H3.43555V56.1988H6.86774V52.7666Z" fill="#FF6845"/>
<path d="M10.3013 83.6641H6.86914V87.0963H10.3013V83.6641Z" fill="#FF6845"/>
<path d="M3.43555 80.2314V81.6412C3.64092 82.2782 3.84978 82.9152 4.06908 83.5453C4.083 83.5836 4.09344 83.6254 4.10737 83.6636H6.87123V80.2314H3.43903H3.43555Z" fill="#FF6845"/>
<path d="M6.86774 73.3633H3.43555V76.7955H6.86774V73.3633Z" fill="#FF6845"/>
<path d="M6.86774 66.499H3.43555V69.9312H6.86774V66.499Z" fill="#FF6845"/>
<path d="M113.288 56.1992H109.855V59.6314H113.288V56.1992Z" fill="#FF6845"/>
<path d="M102.989 80.2314H99.5566V83.6636H102.989V80.2314Z" fill="#FF6845"/>
<path d="M113.288 76.7998H109.855V80.232H113.288V76.7998Z" fill="#FF6845"/>
<path d="M106.422 76.7998H102.99V80.232H106.422V76.7998Z" fill="#FF6845"/>
<path d="M85.8267 83.6641H82.3945V87.0963H85.8267V83.6641Z" fill="#FF6845"/>
<path d="M89.2584 80.2314H85.8262V83.6636H89.2584V80.2314Z" fill="#FF6845"/>
<path d="M96.1236 80.2314H92.6914V83.6636H96.1236V80.2314Z" fill="#FF6845"/>
<path d="M120.153 76.7998H116.721V80.232H120.153V76.7998Z" fill="#FF6845"/>
<path d="M116.719 66.499H113.287V69.9312H116.719V66.499Z" fill="#FF6845"/>
<path d="M120.153 69.9316H116.721V73.3638H120.153V69.9316Z" fill="#FF6845"/>
<path d="M123.586 73.3633H120.154V76.7955H123.586V73.3633Z" fill="#FF6845"/>
<path d="M44.6295 90.5283H41.1973V93.9605H44.6295V90.5283Z" fill="#FF6845"/>
<path d="M37.7662 90.5283H34.334V93.9605H37.7662V90.5283Z" fill="#FF6845"/>
<path d="M96.1236 87.0967H92.6914V90.5289H96.1236V87.0967Z" fill="#FF6845"/>
<path d="M116.719 59.6357H113.287V63.0679H116.719V59.6357Z" fill="#FF6845"/>
<path d="M34.3326 87.0967H30.9004V90.5289H34.3326V87.0967Z" fill="#FF6845"/>
<path d="M58.3619 90.5283H54.9297V93.9605H58.3619V90.5283Z" fill="#FF6845"/>
<path d="M78.9595 83.6641H75.5273V87.0963H78.9595V83.6641Z" fill="#FF6845"/>
<path d="M30.9009 83.6641H27.4688V87.0963H30.9009V83.6641Z" fill="#FF6845"/>
<path d="M75.5259 87.0967H72.0938V90.5289H75.5259V87.0967Z" fill="#FF6845"/>
<path d="M65.2271 90.5283H61.7949V93.9605H65.2271V90.5283Z" fill="#FF6845"/>
<path d="M68.6627 87.0967H65.2305V90.5289H68.6627V87.0967Z" fill="#FF6845"/>
<path d="M65.2271 21.874H61.7949V25.3062H65.2271V21.874Z" fill="#FF6845"/>
<path d="M54.9302 18.4385H51.498V21.8707H54.9302V18.4385Z" fill="#FF6845"/>
<path d="M58.3619 21.874H54.9297V25.3062H58.3619V21.874Z" fill="#FF6845"/>
<path d="M68.6627 25.3057H65.2305V28.7379H68.6627V25.3057Z" fill="#FF6845"/>
<path d="M41.1978 32.1699H37.7656V35.6021H41.1978V32.1699Z" fill="#FF6845"/>
<path d="M37.7662 35.6025H34.334V39.0347H37.7662V35.6025Z" fill="#FF6845"/>
<path d="M54.9302 87.0967H51.498V90.5289H54.9302V87.0967Z" fill="#FF6845"/>
<path d="M48.065 18.4385H44.6328V21.8707H48.065V18.4385Z" fill="#FF6845"/>
<path d="M48.065 25.3057H44.6328V28.7379H48.065V25.3057Z" fill="#FF6845"/>
<path d="M44.6295 28.7383H41.1973V32.1705H44.6295V28.7383Z" fill="#FF6845"/>
<path d="M78.9595 28.7383H75.5273V32.1705H78.9595V28.7383Z" fill="#FF6845"/>
<path d="M102.989 39.0391H99.5566V42.4713H102.989V39.0391Z" fill="#FF6845"/>
<path d="M106.422 49.335H102.99V52.7672H106.422V49.335Z" fill="#FF6845"/>
<path d="M109.856 52.7666H106.424V56.1988H109.856V52.7666Z" fill="#FF6845"/>
<path d="M106.422 42.4707H102.99V45.9029H106.422V42.4707Z" fill="#FF6845"/>
<path d="M99.5552 35.6025H96.123V39.0347H99.5552V35.6025Z" fill="#FF6845"/>
<path d="M89.2584 32.1699H85.8262V35.6021H89.2584V32.1699Z" fill="#FF6845"/>
<path d="M82.3912 32.1699H78.959V35.6021H82.3912V32.1699Z" fill="#FF6845"/>
<path d="M92.692 35.6025H89.2598V39.0347H92.692V35.6025Z" fill="#FF6845"/>
<path d="M75.5259 25.3057H72.0938V28.7379H75.5259V25.3057Z" fill="#FF6845"/>
<path d="M109.856 59.6357H106.424V63.0679H109.856V59.6357Z" fill="#FF6845"/>
<path d="M106.422 56.1992H102.99V59.6314H106.422V56.1992Z" fill="#FF6845"/>
<path d="M113.288 63.0674H109.855V66.4996H113.288V63.0674Z" fill="#FF6845"/>
<path d="M102.989 52.7666H99.5566V56.1988H102.989V52.7666Z" fill="#FF6845"/>
<path d="M113.288 69.9316H109.855V73.3638H113.288V69.9316Z" fill="#FF6845"/>
<path d="M109.856 73.3633H106.424V76.7955H109.856V73.3633Z" fill="#FF6845"/>
<path d="M96.1236 39.0391H92.6914V42.4713H96.1236V39.0391Z" fill="#FF6845"/>
<path d="M89.2584 39.0391H85.8262V42.4713H89.2584V39.0391Z" fill="#FF6845"/>
<path d="M102.989 45.9023H99.5566V49.3345H102.989V45.9023Z" fill="#FF6845"/>
<path d="M99.5552 42.4707H96.123V45.9029H99.5552V42.4707Z" fill="#FF6845"/>
<path d="M27.4634 80.2314H24.0312V83.6636H27.4634V80.2314Z" fill="#FF6845"/>
<path d="M75.5259 80.2314H72.0938V83.6636H75.5259V80.2314Z" fill="#FF6845"/>
<path d="M102.989 73.3633H99.5566V76.7955H102.989V73.3633Z" fill="#FF6845"/>
<path d="M72.0943 83.6641H68.6621V87.0963H72.0943V83.6641Z" fill="#FF6845"/>
<path d="M61.7955 87.0967H58.3633V90.5289H61.7955V87.0967Z" fill="#FF6845"/>
<path d="M65.2271 83.6641H61.7949V87.0963H65.2271V83.6641Z" fill="#FF6845"/>
<path d="M82.3912 80.2314H78.959V83.6636H82.3912V80.2314Z" fill="#FF6845"/>
<path d="M92.692 76.7998H89.2598V80.232H92.692V76.7998Z" fill="#FF6845"/>
<path d="M99.5552 76.7998H96.123V80.232H99.5552V76.7998Z" fill="#FF6845"/>
<path d="M85.8267 76.7998H82.3945V80.232H85.8267V76.7998Z" fill="#FF6845"/>
<path d="M85.8267 35.6025H82.3945V39.0347H85.8267V35.6025Z" fill="#FF6845"/>
<path d="M27.4634 59.6357H24.0312V63.0679H27.4634V59.6357Z" fill="#FF6845"/>
<path d="M30.9009 49.335H27.4688V52.7672H30.9009V49.335Z" fill="#FF6845"/>
<path d="M30.9009 56.1992H27.4688V59.6314H30.9009V56.1992Z" fill="#FF6845"/>
<path d="M34.3326 45.9023H30.9004V49.3345H34.3326V45.9023Z" fill="#FF6845"/>
<path d="M20.6002 66.499H17.168V69.9312H20.6002V66.499Z" fill="#FF6845"/>
<path d="M20.6002 59.6357H17.168V63.0679H20.6002V59.6357Z" fill="#FF6845"/>
<path d="M24.0318 69.9316H20.5996V73.3638H24.0318V69.9316Z" fill="#FF6845"/>
<path d="M24.0318 76.7998H20.5996V80.232H24.0318V76.7998Z" fill="#FF6845"/>
<path d="M37.7662 42.4707H34.334V45.9029H37.7662V42.4707Z" fill="#FF6845"/>
<path d="M65.2271 28.7383H61.7949V32.1705H65.2271V28.7383Z" fill="#FF6845"/>
<path d="M61.7955 25.3057H58.3633V28.7379H61.7955V25.3057Z" fill="#FF6845"/>
<path d="M78.9595 35.6025H75.5273V39.0347H78.9595V35.6025Z" fill="#FF6845"/>
<path d="M41.1978 39.0391H37.7656V42.4713H41.1978V39.0391Z" fill="#FF6845"/>
<path d="M75.5259 32.1699H72.0938V35.6021H75.5259V32.1699Z" fill="#FF6845"/>
<path d="M72.0943 28.7383H68.6621V32.1705H72.0943V28.7383Z" fill="#FF6845"/>
<path d="M48.065 32.1699H44.6328V35.6021H48.065V32.1699Z" fill="#FF6845"/>
<path d="M44.6295 35.6025H41.1973V39.0347H44.6295V35.6025Z" fill="#FF6845"/>
<path d="M51.4986 28.7383H48.0664V32.1705H51.4986V28.7383Z" fill="#FF6845"/>
<path d="M54.9302 25.3057H51.498V28.7379H54.9302V25.3057Z" fill="#FF6845"/>
<path d="M51.4986 90.5283H48.0664V93.9605H51.4986V90.5283Z" fill="#FF6845"/>
<path d="M13.7369 59.6357H10.3047V63.0679H13.7369V59.6357Z" fill="#FF6845"/>
<path d="M30.9009 35.6025H27.4688V39.0347H30.9009V35.6025Z" fill="#FF6845"/>
<path d="M41.1978 25.3057H37.7656V28.7379H41.1978V25.3057Z" fill="#FF6845"/>
<path d="M37.7662 28.7383H34.334V32.1705H37.7662V28.7383Z" fill="#FF6845"/>
<path d="M44.6295 21.874H41.1973V25.3062H44.6295V21.874Z" fill="#FF6845"/>
<path d="M27.4634 39.0391H24.0312V42.4713H27.4634V39.0391Z" fill="#FF6845"/>
<path d="M13.7369 52.7666H10.3047V56.1988H13.7369V52.7666Z" fill="#FF6845"/>
<path d="M24.0318 42.4707H20.5996V45.9029H24.0318V42.4707Z" fill="#FF6845"/>
<path d="M20.6002 52.7666H17.168V56.1988H20.6002V52.7666Z" fill="#FF6845"/>
<path d="M24.0318 49.335H20.5996V52.7672H24.0318V49.335Z" fill="#FF6845"/>
<path d="M34.3326 32.1699H30.9004V35.6021H34.3326V32.1699Z" fill="#FF6845"/>
<path d="M78.9595 21.874H75.5273V25.3062H78.9595V21.874Z" fill="#FF6845"/>
<path d="M82.3912 25.3057H78.959V28.7379H82.3912V25.3057Z" fill="#FF6845"/>
<path d="M92.692 28.7383H89.2598V32.1705H92.692V28.7383Z" fill="#FF6845"/>
<path d="M72.0943 21.874H68.6621V25.3062H72.0943V21.874Z" fill="#FF6845"/>
<path d="M44.6295 15.0059H41.1973V18.4381H44.6295V15.0059Z" fill="#FF6845"/>
<path d="M51.4986 15.0059H48.0664V18.4381H51.4986V15.0059Z" fill="#FF6845"/>
<path d="M58.3619 15.0059H54.9297V18.4381H58.3619V15.0059Z" fill="#FF6845"/>
<path d="M68.6627 18.4385H65.2305V21.8707H68.6627V18.4385Z" fill="#FF6845"/>
<path d="M61.7955 18.4385H58.3633V21.8707H61.7955V18.4385Z" fill="#FF6845"/>
<path d="M85.8267 28.7383H82.3945V32.1705H85.8267V28.7383Z" fill="#FF6845"/>
<path d="M72.0943 97.3955H68.6621V100.828H72.0943V97.3955Z" fill="#FF6845"/>
<path d="M65.2271 97.3955H61.7949V100.828H65.2271V97.3955Z" fill="#FF6845"/>
<path d="M51.4986 97.3955H48.0664V100.828H51.4986V97.3955Z" fill="#FF6845"/>
<path d="M54.9302 100.828H51.498V104.26H54.9302V100.828Z" fill="#FF6845"/>
<path d="M61.7955 100.828H58.3633V104.26H61.7955V100.828Z" fill="#FF6845"/>
<path d="M75.5259 93.9639H72.0938V97.3961H75.5259V93.9639Z" fill="#FF6845"/>
<path d="M92.692 90.5283H89.2598V93.9605H92.692V90.5283Z" fill="#FF6845"/>
<path d="M85.8267 90.5283H82.3945V93.9605H85.8267V90.5283Z" fill="#FF6845"/>
<path d="M82.3912 93.9639H78.959V97.3961H82.3912V93.9639Z" fill="#FF6845"/>
<path d="M13.7369 73.3633H10.3047V76.7955H13.7369V73.3633Z" fill="#FF6845"/>
<path d="M17.1685 76.7998H13.7363V80.232H17.1685V76.7998Z" fill="#FF6845"/>
<path d="M20.6002 87.0967H17.168V90.5289H20.6002V87.0967Z" fill="#FF6845"/>
<path d="M17.1685 83.6641H13.7363V87.0963H17.1685V83.6641Z" fill="#FF6845"/>
<path d="M13.7369 66.499H10.3047V69.9312H13.7369V66.499Z" fill="#FF6845"/>
<path d="M27.4634 93.9639H24.0312V97.3961H27.4634V93.9639Z" fill="#FF6845"/>
<path d="M30.9009 97.3955H27.4688V100.828H30.9009V97.3955Z" fill="#FF6845"/>
<path d="M37.7662 97.3955H34.334V100.828H37.7662V97.3955Z" fill="#FF6845"/>
<path d="M44.6295 97.3955H41.1973V100.828H44.6295V97.3955Z" fill="#FF6845"/>
<path d="M24.0318 90.5283H20.5996V93.9605H24.0318V90.5283Z" fill="#FF6845"/>
<path d="M89.2584 87.0967H85.8262V90.5289H89.2584V87.0967Z" fill="#FF6845"/>
<path d="M48.065 93.9639H44.6328V97.3961H48.065V93.9639Z" fill="#FF6845"/>
<path d="M41.1978 93.9639H37.7656V97.3961H41.1978V93.9639Z" fill="#FF6845"/>
<path d="M34.3326 93.9639H30.9004V97.3961H34.3326V93.9639Z" fill="#FF6845"/>
<path d="M30.9009 90.5283H27.4688V93.9605H30.9009V90.5283Z" fill="#FF6845"/>
<path d="M27.4634 87.0967H24.0312V90.5289H27.4634V87.0967Z" fill="#FF6845"/>
<path d="M72.0943 90.5283H68.6621V93.9605H72.0943V90.5283Z" fill="#FF6845"/>
<path d="M78.9595 90.5283H75.5273V93.9605H78.9595V90.5283Z" fill="#FF6845"/>
<path d="M24.0318 83.6641H20.5996V87.0963H24.0318V83.6641Z" fill="#FF6845"/>
<path d="M68.6627 93.9639H65.2305V97.3961H68.6627V93.9639Z" fill="#FF6845"/>
<path d="M61.7955 93.9639H58.3633V97.3961H61.7955V93.9639Z" fill="#FF6845"/>
<path d="M54.9302 93.9639H51.498V97.3961H54.9302V93.9639Z" fill="#FF6845"/>
<path d="M27.4634 45.9023H24.0312V49.3345H27.4634V45.9023Z" fill="#FF6845"/>
<path d="M27.4634 52.7666H24.0312V56.1988H27.4634V52.7666Z" fill="#FF6845"/>
<path d="M30.9009 42.4707H27.4688V45.9029H30.9009V42.4707Z" fill="#FF6845"/>
<path d="M24.0318 56.1992H20.5996V59.6314H24.0318V56.1992Z" fill="#FF6845"/>
<path d="M17.1685 56.1992H13.7363V59.6314H17.1685V56.1992Z" fill="#FF6845"/>
<path d="M20.6002 73.3633H17.168V76.7955H20.6002V73.3633Z" fill="#FF6845"/>
<path d="M17.1685 69.9316H13.7363V73.3638H17.1685V69.9316Z" fill="#FF6845"/>
<path d="M20.6002 80.2314H17.168V83.6636H20.6002V80.2314Z" fill="#FF6845"/>
<path d="M17.1685 63.0674H13.7363V66.4996H17.1685V63.0674Z" fill="#FF6845"/>
<path d="M96.1236 32.1699H92.6914V35.6021H96.1236V32.1699Z" fill="#FF6845"/>
<path d="M123.586 66.499H120.154V69.9312H123.586V66.499Z" fill="#FF6845"/>
<path d="M113.288 49.335H109.855V52.7672H113.288V49.335Z" fill="#FF6845"/>
<path d="M116.719 52.7666H113.287V56.1988H116.719V52.7666Z" fill="#FF6845"/>
<path d="M120.153 63.0674H116.721V66.4996H120.153V63.0674Z" fill="#FF6845"/>
<path d="M120.153 56.1992H116.721V59.6314H120.153V56.1992Z" fill="#FF6845"/>
<path d="M106.422 35.6025H102.99V39.0347H106.422V35.6025Z" fill="#FF6845"/>
<path d="M109.856 45.9023H106.424V49.3345H109.856V45.9023Z" fill="#FF6845"/>
<path d="M102.989 32.1699H99.5566V35.6021H102.989V32.1699Z" fill="#FF6845"/>
<path d="M109.856 39.0391H106.424V42.4713H109.856V39.0391Z" fill="#FF6845"/>
<path d="M92.692 83.6641H89.2598V87.0963H92.692V83.6641Z" fill="#FF6845"/>
<path d="M99.5552 83.6641H96.123V87.0963H99.5552V83.6641Z" fill="#FF6845"/>
<path d="M82.3912 87.0967H78.959V90.5289H82.3912V87.0967Z" fill="#FF6845"/>
<path d="M34.3326 39.0391H30.9004V42.4713H34.3326V39.0391Z" fill="#FF6845"/>
<path d="M106.422 83.6641H102.99V87.0963H106.422V83.6641Z" fill="#FF6845"/>
<path d="M123.586 80.2314H120.154V83.6636H123.586V80.2314Z" fill="#FF6845"/>
<path d="M127.02 69.9316H123.588V73.3638H127.02V69.9316Z" fill="#FF6845"/>
<path d="M127.02 76.7998H123.588V80.232H127.02V76.7998Z" fill="#FF6845"/>
<path d="M109.856 80.2314H106.424V83.6636H109.856V80.2314Z" fill="#FF6845"/>
<path d="M116.719 80.2314H113.287V83.6636H116.719V80.2314Z" fill="#FF6845"/>
</svg>
