<svg width="1013" height="1352" viewBox="0 0 1013 1352" fill="none" xmlns="http://www.w3.org/2000/svg">
<mask id="mask0_53_54810" style="mask-type:luminance" maskUnits="userSpaceOnUse" x="0" y="0" width="1106" height="1352">
<path d="M129.407 845.87C128.777 853.96 128.957 859.47 127.777 864.68C126.487 870.35 125.357 877.46 121.457 880.67C118.677 882.96 108.897 881.66 106.797 878.71C103.687 874.35 104.377 867.12 104.007 861.08C103.907 859.45 105.797 857.69 106.777 856C85.0973 859.44 100.617 876.14 92.2773 886.72C113.327 886.72 130.457 886.72 147.587 886.72C147.617 886.09 147.647 885.46 147.687 884.83C142.647 883.8 137.617 882.77 132.167 881.66C133.437 870.03 134.587 859.44 135.867 847.68C142.157 847.36 148.647 847.04 152.997 846.82C154.097 853.46 154.947 858.59 155.897 864.35C154.337 866.08 151.637 869.08 148.327 872.76C160.867 875.65 162.247 879.29 158.247 888.75C156.077 893.88 156.237 900.02 155.517 905.72C155.167 908.5 156.327 912.92 154.917 913.9C140.297 924.12 153.677 935.2 152.507 941.9C162.707 946.4 170.537 949.8 178.317 953.31C183.667 955.73 189.007 958.22 194.257 960.85C215.927 971.7 240.837 970.18 262.707 985.1C289.967 1003.69 325.247 997.34 357.387 999.12C361.037 999.32 365.337 997.53 368.477 995.4C380.947 986.96 393.317 989.69 407.077 994.07C401.477 1002.52 396.567 1009.94 390.697 1018.79C398.287 1020.82 403.307 1022.17 408.997 1023.69C406.627 1037.3 404.317 1050.53 401.697 1065.58C419.947 1065.58 437.957 1065.58 456.597 1065.58C456.597 1071.57 456.597 1075.71 456.597 1080.83C465.477 1080.83 473.707 1081.06 481.907 1080.74C486.117 1080.58 490.287 1079.44 496.387 1078.42C496.387 1091 496.387 1102.73 496.387 1114.46C496.387 1124.17 493.767 1130.79 481.817 1129.34C468.657 1127.74 471.727 1118.12 471.947 1110.28C472.157 1102.4 473.517 1094.56 474.377 1086.7C472.187 1086.54 469.987 1086.38 467.797 1086.22C466.417 1102.69 465.037 1119.16 463.677 1135.44C466.017 1136.47 467.337 1137.56 468.677 1137.57C484.967 1137.78 501.607 1140 517.487 1137.45C548.737 1132.44 558.947 1158.08 575.877 1174.16C577.907 1176.09 579.367 1178.93 580.307 1181.62C582.127 1186.82 583.387 1192.22 585.277 1198.96C580.071 1206.05 581.084 1211.32 588.317 1214.76C585.157 1219.98 581.977 1225.24 578.367 1231.22C599.177 1233.44 599.607 1234.67 591.397 1252.18C589.777 1255.64 589.837 1261.13 591.447 1264.59C593.827 1269.7 598.307 1273.83 601.897 1278.37C600.787 1279.03 599.687 1279.69 598.577 1280.36C596.037 1279.72 593.487 1279.07 590.947 1278.43C590.527 1280.7 589.617 1283.01 589.777 1285.24C590.447 1294.62 592.817 1304.08 592.057 1313.31C589.917 1339.26 600.677 1351.6 626.937 1351.5C643.267 1351.44 659.597 1351.41 675.917 1351.41C721.237 1351.4 766.547 1351.41 811.317 1351.41C809.137 1348.45 805.607 1345.62 806.097 1344.01C808.647 1335.65 812.217 1327.6 815.567 1319.08C817.357 1323.7 819.137 1328.26 821.867 1335.3C826.327 1328.68 829.237 1324.37 832.137 1320.07C836.437 1320.33 840.747 1320.59 846.287 1320.91C849.587 1302.51 858.927 1285.07 846.077 1267.33C853.887 1266.41 861.717 1265.48 873.177 1264.12C863.857 1257.48 858.007 1253.32 852.147 1249.15L852.847 1245.21C871.697 1247.49 873.167 1236.46 872.677 1223.56C868.367 1222.43 864.877 1221.51 860.187 1220.28C862.757 1216.79 865.557 1214.7 865.907 1212.26C869.967 1184.07 875.787 1155.88 876.527 1127.56C876.887 1113.89 878.887 1105.41 891.067 1099.5C893.487 1106.25 895.907 1112.97 898.507 1120.22C913.017 1108.17 889.227 1088.25 905.997 1081.5C904.547 1067.92 903.277 1056.63 902.507 1045.31C902.487 1044.95 907.737 1044.24 910.537 1043.69C901.687 1038.26 899.537 1030.67 898.957 1020.13C896.747 979.89 911.027 942.54 917.327 903.83C919.057 893.2 918.947 881.06 924.287 872.48C936.157 853.44 928.417 830.71 938.477 811.88C940.977 807.21 943.547 802.59 944.777 800.34C943.477 793.2 941.337 788.08 941.887 783.27C944.287 762.25 948.707 741.39 949.987 720.33C951.087 702.28 962.457 698.28 977.477 695.25C978.837 699.74 980.187 704.21 982.217 710.94C986.897 695.32 991.047 681.47 995.637 666.13C1006.62 678.92 1006.18 683.72 996.197 693.8C1007.06 719.73 980.937 738.25 986.817 762.23C984.757 762.04 982.697 761.85 980.647 761.67C981.147 755.22 982.077 748.77 982.017 742.33C981.967 736.04 980.907 729.76 980.287 723.47C978.277 723.13 976.257 722.79 974.247 722.45C970.477 736.98 966.647 751.49 962.977 766.04C960.617 775.39 958.807 784.89 956.207 794.17C953.557 803.59 949.227 812.63 947.387 822.18C940.797 856.37 934.117 890.59 929.147 925.04C926.417 943.99 927.327 963.45 926.047 982.64C925.287 994.13 930.107 1007.31 915.427 1015.3C913.377 1016.42 917.177 1028.29 918.267 1035.19C920.137 1035.62 922.017 1036.05 923.887 1036.48C919.627 1039.07 915.377 1041.66 911.117 1044.25C918.407 1057.36 928.597 1064.54 941.907 1061.38C939.017 1053.46 934.687 1045.86 933.927 1037.91C933.457 1032.99 939.577 1027.78 940.677 1022.28C943.447 1008.42 945.057 994.33 947.137 980.33L946.807 980.78C947.547 959.24 948.857 958.15 965.047 965.59L964.577 965.87C965.377 959.59 966.167 953.31 966.797 948.33C961.297 943.9 956.117 939.73 950.937 935.55C952.567 933.91 954.187 932.27 955.817 930.63C959.087 933.43 962.367 936.22 965.637 939.02C966.987 938.09 968.337 937.17 969.687 936.24C967.097 932.38 965.347 926.78 961.737 925.02C953.967 921.22 950.767 913.56 957.387 910.86C968.157 906.48 970.477 896.72 974.797 890.8C995.327 912.92 978.977 939.67 983.507 964.12C985.267 965.23 987.017 966.34 988.777 967.45C989.517 963.46 990.267 959.46 991.007 955.47C992.567 956.53 994.117 957.59 995.677 958.65C994.667 973.36 994.427 988.18 992.467 1002.77C988.617 1031.47 984.267 1060.13 979.227 1088.64C976.807 1102.35 972.627 1115.77 968.697 1129.17C966.247 1137.54 961.777 1145.41 959.987 1153.87C956.027 1172.58 953.297 1191.55 949.777 1210.36C949.187 1213.51 947.827 1217.06 945.637 1219.24C941.347 1223.52 936.227 1226.97 930.967 1231.16C930.017 1227.29 928.977 1223.03 927.937 1218.77C921.717 1249.76 918.547 1280.7 914.717 1311.55C913.807 1318.91 910.697 1325.99 908.617 1333.14C908.617 1338.34 908.617 1344.25 908.617 1351.59C919.407 1350.76 929.177 1350.01 936.977 1349.41C933.547 1345.59 929.607 1343.22 929.297 1340.43C928.717 1335.26 932.727 1328.18 930.467 1324.85C921.457 1311.53 931.557 1298.28 926.687 1285.41C928.297 1285.27 929.897 1285.13 931.507 1284.99C933.187 1300.66 934.857 1316.32 936.537 1331.99C942.087 1327.86 948.157 1319.97 952.397 1320.86C962.987 1323.07 966.197 1316.49 971.417 1310.82C977.807 1303.86 981.717 1295.99 985.337 1287.2C995.787 1261.78 1007.97 1237.07 1019.15 1211.94C1023.32 1202.57 1027.86 1193.08 1030.02 1183.16C1034.34 1163.38 1037.18 1143.27 1040.54 1123.28C1040.94 1120.88 1040.54 1118.34 1040.97 1115.94C1044.51 1095.75 1045.57 1074.67 1052.35 1055.62C1063.02 1025.65 1077.72 997.12 1090.35 967.83C1092.98 961.73 1094.05 954.97 1095.22 950.76C1089.75 947.59 1082.86 945.04 1083.08 943.48C1084.04 936.57 1085.32 925.76 1089.63 923.98C1103.34 918.33 1103.12 905.77 1103.38 896.53C1105.21 831.28 1105.74 765.98 1105.78 700.7C1105.78 693.14 1102.43 682.35 1096.89 678.64C1081.45 668.29 1075.46 654.01 1071.56 637.15C1068.66 624.63 1060.4 617.24 1049.93 618.43C1029.96 605.09 1037.22 587.39 1038.34 570.7C1038.57 567.24 1038.44 563.75 1038.84 560.32C1040.53 545.69 1035.01 535.89 1021.08 529.9C1003.66 522.4 992.457 501.92 994.337 482.32C981.407 479.33 968.427 475.81 955.237 473.43C943.897 471.39 932.347 470.39 920.847 469.49C917.687 469.24 914.237 470.69 911.137 471.9C895.887 477.81 893.737 490.84 892.087 505.05C890.877 515.52 887.187 525.77 883.977 535.92C882.257 541.37 879.227 546.4 876.787 551.63C878.057 552.36 879.327 553.08 880.597 553.81C876.917 556.21 872.897 558.24 869.647 561.13C866.367 564.04 864.267 570.18 860.897 570.8C843.417 574.02 845.427 590.15 840.647 600.99C834.547 614.84 831.397 629.98 826.977 644.57C826.367 644.39 825.747 644.22 825.137 644.04C822.507 602.17 819.867 560.29 817.237 518.42C818.397 518.99 819.567 519.56 820.727 520.12C823.167 515.22 825.607 510.32 828.047 505.42C813.837 500.24 821.307 487.88 819.237 478.7C805.877 476.51 803.457 468.03 810.517 452.79C812.517 448.48 812.577 442.43 811.447 437.67C808.347 424.53 803.687 411.75 800.657 398.6C799.687 394.4 801.867 389.48 802.717 384.2C799.337 384.39 796.987 384.53 797.197 384.52C793.097 375.92 789.577 368.54 786.007 361.07C791.577 360.82 795.677 360.64 799.787 360.45C799.617 358.13 799.707 353.84 799.227 353.77C793.047 352.94 786.797 352.71 777.977 352.17C776.707 350 773.527 345.63 771.447 340.79C765.217 326.27 759.027 311.71 753.607 296.88C750.727 288.99 749.487 280.51 747.277 271.36C721.527 259.58 722.347 228.12 708.347 206.49C711.397 204.79 714.937 202.83 721.997 198.89C711.697 196.7 705.097 195.29 697.167 193.6C699.877 189.69 701.617 187.19 703.347 184.69C701.777 184.62 700.197 184.56 698.627 184.49C697.727 179.16 698.617 172.29 695.597 168.78C687.307 159.13 688.767 147.18 686.127 136.39C683.387 125.2 687.807 109.39 681.527 102.51C667.887 87.5604 652.497 72.7004 629.897 69.3204C619.667 67.7904 607.887 67.7404 600.907 55.4404C596.937 48.4504 588.027 42.9604 578.197 49.5104C577.957 49.6704 576.767 48.4204 575.957 47.7704C577.857 44.7204 579.747 41.6904 582.087 37.9404C574.737 37.5104 568.387 38.7904 563.717 36.5604C548.527 29.2904 534.047 20.5704 519.107 12.7304C511.867 8.93041 504.547 4.35041 496.727 2.77041C473.577 -1.90959 450.817 -1.85959 430.017 12.4604C427.387 14.2704 421.837 11.3004 417.767 11.7604C414.477 12.1304 411.387 14.3104 408.207 15.6904C414.067 19.2904 412.197 23.3004 407.287 24.3604C405.017 24.8504 401.607 19.9804 398.907 17.7104C392.987 19.3704 386.317 19.9604 381.027 22.9804C367.277 30.8204 347.887 27.8904 339.057 45.8004C337.297 49.3804 329.097 49.4004 324.417 52.0404C320.137 54.4504 316.057 57.7004 312.897 61.4404C310.107 64.7504 309.337 69.7504 306.587 73.1204C296.757 85.1604 286.577 96.9304 276.307 108.59C272.147 113.31 267.327 117.43 262.947 121.96C259.687 125.33 256.647 128.91 252.367 133.66C258.727 135.37 262.047 136.26 265.357 137.15C262.107 142.26 258.207 144.25 254.107 145.64C249.357 147.25 244.427 148.35 239.567 149.62C236.007 150.55 232.467 151.72 228.837 152.19C221.377 153.15 214.687 160.82 206.417 154.86C199.117 168.3 180.297 167.63 173.737 185.18C169.747 195.86 177.407 216.17 156.177 218.49C156.027 218.51 155.967 219.4 155.317 222.44C157.137 223.22 160.347 224.6 165.017 226.59C152.217 238.78 140.317 248.11 131.567 259.8C129.267 262.87 120.227 276.05 135.357 280.98C117.187 305.23 138.637 319.91 148.287 338.37C145.507 340.07 142.457 341.92 142.677 341.79C143.197 350.09 145.837 357.01 143.457 360.48C134.547 373.47 140.437 386.57 140.117 400.91C136.937 402.58 132.747 404.77 124.967 408.84C142.097 408.64 151.087 413.75 153.837 427.55C154.337 430.03 158.367 433.35 161.027 433.61C177.437 435.18 173.067 446.66 171.917 456.06C169.867 472.77 167.097 489.39 164.637 506.04C166.187 506.25 167.737 506.47 169.287 506.68C172.227 487.16 175.157 467.65 178.397 446.13C184.607 456.08 187.937 464.73 194.027 470.43C205.197 480.9 201.337 486.53 192.057 489.9C199.427 508.69 206.497 526.74 212.957 543.2C213.747 539.82 214.997 534.47 216.247 529.11C217.437 529.02 218.627 528.94 219.827 528.85C222.017 533.57 224.207 538.29 226.837 543.94C228.277 540.08 229.197 537.61 230.907 533.04C237.727 547.28 251.827 555.42 249.037 572.07C248.457 575.54 248.957 579.2 248.957 582.77C249.517 582.77 250.087 582.77 250.647 582.76C254.347 571.01 258.047 559.26 261.747 547.51C263.567 547.8 265.387 548.1 267.197 548.39C268.677 574.02 270.157 599.65 271.637 625.28L273.817 623.83C277.487 631.72 281.147 639.61 286.267 650.63C276.117 647.13 270.607 645.23 262.937 642.58C264.597 648.84 265.447 652.05 266.227 654.97C247.117 653.34 234.157 679.64 213.747 662.5C211.927 668.57 210.637 672.87 210.557 673.15C203.457 676.11 197.517 676.66 195.867 679.6C185.227 698.65 175.527 718.21 166.107 736.45C168.467 742.98 170.767 749.33 173.067 755.68C164.747 757.39 156.467 759.4 148.077 760.65C145.387 761.05 142.317 758.59 139.567 758.88C133.457 759.52 127.447 761.07 121.397 762.25C121.397 762.25 121.967 761.61 121.987 761.6C122.057 764.05 121.927 768.63 122.187 768.65C140.167 770.15 158.447 774.2 176.157 763.7C176.977 769.64 177.767 775.28 178.547 780.93C177.097 780.41 175.657 779.88 174.207 779.36C171.577 783.83 165.807 789.26 166.837 792.6C171.567 807.96 160.517 829.72 145.117 829.88C131.617 830.02 118.087 827.07 100.157 824.96C94.5873 831.62 85.7773 842.14 76.9773 852.66L73.4373 851.83C74.3573 839.47 75.2873 827.1 76.2073 814.82C94.4473 814.82 110.207 814.82 127.957 814.82C121.307 801.61 114.407 796.66 102.107 800.19C91.0673 803.36 85.2473 790.41 75.0973 789.71C75.9573 779.21 67.3773 781.7 62.2273 781.27C53.2273 780.53 43.9774 782.23 35.0574 781.14C28.2474 780.3 21.7874 776.72 15.1674 774.36C11.8774 774.46 7.62737 778.63 4.42737 783.49C2.16737 786.93 -0.772744 794.12 0.187256 794.85C13.2073 804.63 5.58732 817.35 6.12732 828.91C6.29732 832.56 8.90734 839.13 10.6473 839.21C27.2873 840 43.9874 839.68 60.6674 839.68C60.6074 838.16 60.5473 836.64 60.4773 835.11C52.1073 835.63 43.6873 835.76 35.3673 836.73C18.1073 838.75 11.6173 831.83 14.4373 814.56C15.2873 809.37 14.5673 803.92 14.5673 799.76C29.7673 799.76 46.0373 799.76 60.5773 799.76C57.5273 806.6 54.3673 813.7 51.2073 820.8C56.1973 819.23 61.1874 817.66 66.4174 816.02C66.4174 830.15 66.4174 844.42 66.4174 861.47C75.1674 858.44 82.5574 856.58 89.2974 853.36C96.1774 850.07 102.037 847.76 106.477 856.34C113.567 853.09 120.657 849.84 129.427 845.81L129.407 845.87ZM689.287 478.26C679.617 484.87 676.127 484.02 672.117 472.41C686.137 471.88 694.337 466.69 689.257 449.21C685.227 453.67 682.297 456.9 677.067 462.67C675.047 438.98 673.217 417.48 671.377 395.99C669.587 395.98 667.787 395.96 665.997 395.95C664.847 403.76 665.307 412.33 662.067 419.14C659.167 425.24 652.207 429.41 647.037 434.43C644.367 429.77 640.047 425.36 639.297 420.41C635.747 397.05 638.367 374.24 646.787 351.95C650.647 341.73 652.637 330.8 655.477 320.19C651.657 319.51 645.827 318.47 640.277 317.47C625.617 326.15 640.217 354.13 613.087 356.8C614.437 350.98 615.577 346.11 616.707 341.25C617.857 340.78 619.007 340.31 620.157 339.85C621.117 342.42 622.077 344.98 623.037 347.55C624.047 347.11 625.047 346.67 626.057 346.23C626.917 327.13 627.627 308.02 628.687 288.93C629.177 280.07 637.557 270.99 627.677 262.54C626.947 261.91 626.157 261.34 623.957 259.62C619.917 275.98 616.037 291.72 612.147 307.46L609.087 306.98C610.037 299.89 610.977 292.8 611.927 285.71C610.857 285.47 609.787 285.22 608.717 284.98C604.337 306.49 599.957 328.01 595.567 349.52C594.127 349.24 592.697 348.96 591.257 348.68C599.617 303.71 607.977 258.73 616.337 213.76C617.987 213.53 619.637 213.3 621.287 213.06C623.607 217.86 628.027 222.75 627.847 227.46C627.297 242.09 637.917 249.28 645.647 258.74C652.157 266.69 657.787 275.4 663.447 284C670.317 294.44 674.747 306.23 685.407 314.41C694.357 321.28 691.287 330.44 686.067 339.3C681.467 347.12 674.027 355.02 682.507 370.15C687.777 358.95 691.407 351.23 695.207 343.15C696.967 344.42 698.977 345.12 699.137 346.12C701.607 361.65 703.707 377.24 706.157 392.77C709.487 413.96 713.047 435.11 716.507 456.28C723.157 484.45 729.817 512.61 736.447 540.78C738.407 549.12 741.387 557.41 741.967 565.85C742.897 579.39 742.217 593.04 742.217 605.94C751.237 603.24 757.457 614.15 757.817 639.88C754.897 637.75 752.597 636.07 750.297 634.38C749.117 635.23 747.927 636.08 746.747 636.93C750.537 643.47 754.337 650.01 757.417 655.32C755.907 661.69 754.067 669.4 751.597 679.78C728.747 687.73 742.307 712.91 735.177 730.17C731.611 726.99 731.714 715.444 735.487 695.53C733.427 696.88 731.777 697.96 729.607 699.39C728.217 670.49 726.847 642.1 725.407 612.24C727.087 614.93 728.167 616.65 729.247 618.38C730.077 618.31 730.917 618.24 731.747 618.16C730.037 601.89 728.327 585.61 726.407 567.34C722.717 571.72 720.527 574.33 718.327 576.94C717.207 576.63 716.087 576.33 714.967 576.02C715.827 569.33 716.697 562.64 717.557 555.95C716.507 555.62 715.447 555.29 714.397 554.97C712.437 559.88 710.477 564.8 708.517 569.71C707.267 569.81 706.017 569.92 704.767 570.02C701.827 543.05 698.887 516.09 695.757 487.37C699.657 488.42 702.097 489.08 703.227 489.38C707.747 478.16 712.187 467.14 716.627 456.12C700.897 454.86 699.157 471.5 689.277 478.25L689.287 478.26ZM502.817 959.53C507.087 929.92 505.707 900.57 499.077 871.53C497.277 863.66 493.257 856.29 490.397 849.02C502.777 847.44 505.847 852.34 509.977 883.25C524.047 872.68 531.347 855.57 527.267 842.76L530.837 840.49C534.197 846.56 539.167 852.29 540.577 858.79C543.267 871.13 543.757 882.34 561.377 883.62C574.717 884.59 570.407 894.47 563.037 903.52C572.367 903.21 580.507 905.85 580.057 893.91C579.777 886.62 578.757 879.35 578.017 871.47C585.767 871.47 592.107 871.47 601.907 871.47C596.777 866.64 594.277 864.29 591.277 861.47C595.067 860.24 598.267 859.21 602.057 857.98C602.057 850.87 602.057 843.68 602.057 832.73C611.857 846.42 619.647 857.3 627.547 868.34C628.217 864.89 629.217 859.71 630.717 851.99C633.557 856.51 635.147 859.03 635.037 858.86C646.447 845.27 658.317 831.12 671.487 815.44C676.877 828.53 680.617 837.6 684.347 846.67C685.047 846.67 685.757 846.68 686.457 846.69V806.18C711.107 831.45 705.647 869.99 675.677 891.39C673.357 888.07 671.057 884.76 668.757 881.45C667.577 881.6 666.407 881.76 665.227 881.91C666.357 890.6 667.487 899.3 668.657 908.24C637.437 915.04 645.047 941.79 643.247 963.15C619.047 956.66 625.907 982.64 612.227 989.21C609.467 985.28 606.167 980.59 602.667 975.6C589.687 987.61 576.897 987.48 562.417 985.62C548.707 983.86 534.437 986.49 519.677 987.23C517.287 997.44 513.677 1002.22 500.137 999.45C484.297 996.22 467.117 999.23 450.537 999.98C441.467 1000.39 433.057 991.21 423.397 998.21C422.907 998.56 418.097 995.1 417.797 993.04C417.377 990.17 418.497 984.98 420.357 984.23C430.037 980.31 440.007 975.54 450.167 974.71C468.547 973.21 487.137 974.28 503.987 974.28C503.587 969.96 502.067 964.57 502.797 959.51L502.817 959.53ZM542.357 1028.36C538.447 1020.27 536.387 1016 533.057 1009.11C547.687 1008.15 561.347 1006.32 574.837 1007.12C577.717 1007.29 582.957 1017.53 582.127 1022.26C577.917 1046.17 560.297 1058.82 535.097 1058.35C519.747 1058.07 504.397 1058.3 486.617 1058.3C489.307 1051.9 490.617 1048.77 492.327 1044.71C489.627 1044.92 487.897 1044.51 486.987 1045.2C479.517 1050.84 472.537 1060.94 464.757 1061.56C449.267 1062.8 433.317 1059.15 417.697 1056.62C416.107 1056.36 414.557 1049.94 414.657 1046.43C414.897 1038.15 416.147 1029.9 416.957 1021.94C444.717 1021.94 472.877 1021.94 501.047 1021.94C501.537 1021.94 502.257 1021.58 502.477 1021.8C512.397 1031.71 517.107 1025.05 519.717 1017.23C526.497 1020.56 532.657 1023.59 542.367 1028.36H542.357ZM387.577 390.75C378.847 392.04 369.027 393.49 358.467 395.04C360.267 402 362.237 409.62 364.207 417.25C362.577 417.67 360.937 418.09 359.307 418.51C343.237 385.08 325.827 352.01 332.687 310.01C357.937 348.92 402.167 371.82 409.337 423.39C393.587 417.42 396.667 400.55 387.567 390.76L387.577 390.75ZM695.727 1336.95C694.417 1331.27 694.577 1325.19 694.557 1319.28C694.467 1286.88 694.147 1254.48 694.747 1222.1C694.897 1214.17 698.187 1206.3 703.087 1198.94C712.887 1247.34 711.907 1295.24 704.057 1347.41C700.047 1342.58 696.447 1340.09 695.717 1336.95H695.727ZM532.557 1120.38C532.557 1121.65 532.557 1125.84 532.557 1131.43C524.407 1131.43 516.447 1132.76 509.337 1130.87C505.827 1129.94 502.007 1123.21 501.677 1118.85C501.087 1111.14 503.367 1103.25 503.827 1095.39C504.067 1091.3 502.977 1087.14 502.277 1081.27C517.997 1081.27 535.447 1081.27 552.897 1081.27C553.517 1082.84 554.137 1084.4 554.747 1085.97C546.987 1092.14 539.217 1098.32 529.067 1106.4C536.847 1107.44 541.547 1108.06 546.237 1108.69C546.777 1110.02 547.307 1111.36 547.847 1112.69C543.337 1114.96 538.827 1117.22 532.547 1120.38H532.557ZM314.647 220.9C313.737 222.05 312.817 223.19 311.907 224.34C319.387 233.14 326.867 241.95 334.877 251.38C312.777 252.5 292.137 210.29 300.287 184.42C312.987 188.58 325.687 192.73 338.387 196.89C338.977 195.63 339.567 194.36 340.157 193.1C342.697 197.19 345.237 201.28 347.787 205.37C347.327 206.46 346.857 207.55 346.397 208.65C336.557 205.04 326.707 201.42 315.977 197.48C316.447 221.34 343.817 215.83 349.957 231.34C348.857 232.78 347.757 234.23 346.647 235.67C335.977 230.75 325.307 225.83 314.637 220.91L314.647 220.9ZM760.917 849.15C766.467 838.21 743.917 830.17 759.877 817.87C762.857 821.32 765.677 824.58 769.357 828.83C770.787 826.13 772.017 823.81 772.467 822.96C776.967 828.5 781.937 834.64 788.727 843C790.487 836.81 791.287 834 791.077 834.74C796.497 844.43 803.507 855.55 809.037 867.37C812.827 875.47 816.837 884.47 810.517 893.98C814.787 868.97 788.277 864.34 780.317 847.13C773.857 847.8 768.097 848.4 760.917 849.15ZM536.457 771.67C539.517 796.48 542.157 817.87 545.297 843.3C531.127 827.9 525.737 786.87 536.457 771.67ZM729.577 819.26C728.177 819.49 726.767 819.72 725.367 819.96C721.537 802.9 717.717 785.83 713.887 768.77C725.637 774.15 713.877 795.06 736.777 793.53C736.777 801.52 736.777 811.43 736.777 821.33C736.087 821.47 735.397 821.62 734.707 821.76C733.677 817.98 732.647 814.2 731.107 808.53C730.377 813.6 729.977 816.43 729.567 819.26H729.577ZM482.527 826.36C474.167 824.6 462.317 794.24 465.067 777.66C472.227 795.59 487.177 806.98 482.527 826.36ZM335.597 295.1C332.587 291.94 332.677 285.83 331.397 281.03C336.067 280.97 341.797 279.15 345.187 281.21C353.407 286.18 362.067 292.52 351.677 304.47C346.127 301.41 339.677 299.39 335.607 295.11L335.597 295.1ZM375.757 213.01C376.077 216.86 380.937 221.28 384.817 223.66C391.267 227.61 398.597 230.12 406.477 233.66C392.367 240.17 367.447 224.81 358.977 204.77C367.687 203.35 374.737 200.75 375.757 213.01ZM1022.42 996.27C1021 1009.53 1017.93 1022.6 1015.39 1035.74C1013.77 1035.54 1012.14 1035.34 1010.52 1035.14C1010.52 1021.15 1010.52 1007.17 1010.52 989.22C1014.82 991.67 1022.62 994.4 1022.42 996.27ZM1002.38 873.81C1003.92 874 1005.47 874.19 1007.01 874.38C1004.15 897.65 1001.3 920.92 998.437 944.19C996.127 943.88 993.817 943.58 991.507 943.27C995.127 920.12 998.747 896.96 1002.37 873.81H1002.38ZM854.787 1202.49C853.077 1202.29 851.367 1202.09 849.657 1201.9C850.797 1184.64 851.937 1167.39 853.067 1150.13C855.117 1150.24 857.157 1150.35 859.207 1150.46C867.477 1169.02 851.867 1184.6 854.777 1202.49H854.787ZM454.767 485.69C453.437 486.66 452.107 487.62 450.777 488.59C439.427 472.91 428.087 457.23 416.737 441.55C418.597 440.25 420.447 438.94 422.307 437.64C433.127 453.66 443.947 469.67 454.767 485.69ZM478.967 520.42C480.637 519.12 482.297 517.81 483.967 516.51C493.237 528.07 502.507 539.62 511.767 551.18C509.647 552.75 507.537 554.32 505.417 555.89C496.597 544.07 487.787 532.24 478.967 520.42ZM798.557 1252.48C797.107 1252.43 795.647 1252.38 794.197 1252.34C785.957 1237.82 794.887 1223.52 798.557 1208.95V1252.48ZM524.847 238.01C521.777 226 518.697 213.99 515.627 201.98C517.357 201.54 519.087 201.1 520.827 200.66C526.727 212.3 535.397 223.46 524.857 238.02L524.847 238.01ZM451.527 257.32C439.597 246.24 428.347 235.8 417.107 225.36C436.257 227.78 448.137 237.78 451.527 257.32ZM1069.45 827.56C1070.7 827.57 1071.95 827.59 1073.2 827.6C1073.2 841.55 1073.2 855.5 1073.2 869.45C1070.17 869.33 1067.15 869.2 1064.12 869.08C1065.9 855.24 1067.67 841.4 1069.45 827.56ZM982.427 857.96C979.097 861.73 974.847 866.53 969.287 872.81C963.297 858.59 975.777 847.45 977.447 834.67C979.087 842.34 980.727 850.02 982.427 857.96ZM363.197 438.82C365.707 433.17 367.917 428.19 371.417 420.32C374.937 430.18 377.687 437.89 380.437 445.61C378.927 446.49 377.417 447.37 375.907 448.25C371.867 445.25 367.837 442.26 363.197 438.81V438.82ZM375.447 468.05C383.934 465.05 390.834 469.024 396.147 479.97C395.027 481.38 393.907 482.78 392.777 484.19C387.327 479.12 381.877 474.04 375.447 468.06V468.05ZM595.147 765.91C597.187 765.51 599.227 765.1 601.267 764.7C603.037 774.8 604.797 784.91 606.567 795.01C604.767 795.28 602.977 795.55 601.177 795.82C599.167 785.85 597.157 775.88 595.137 765.91H595.147ZM815.507 741.75C816.357 741.74 817.217 741.72 818.067 741.71C819.157 753.46 820.237 765.2 821.327 776.95C819.387 776.97 817.447 777 815.507 777.02C815.507 765.26 815.507 753.51 815.507 741.75ZM576.977 827.61C578.347 827.6 579.717 827.58 581.087 827.57C581.697 835.98 582.307 844.39 582.917 852.8C580.557 852.8 578.187 852.8 575.827 852.81C576.217 844.41 576.597 836.01 576.987 827.62L576.977 827.61ZM884.637 1076.89C886.767 1078.23 888.887 1079.56 891.017 1080.9C887.827 1085.44 884.647 1089.97 881.467 1094.51C879.807 1093.51 878.157 1092.51 876.497 1091.51C879.207 1086.64 881.927 1081.76 884.637 1076.89ZM933.807 432.35C932.717 447.76 914.337 459.36 896.567 455.72C882.807 452.9 868.857 451 855.217 447.72C853.117 447.22 850.197 439.48 851.187 438.43C866.717 421.99 874.767 397.95 900.537 391.69C910.717 389.22 916.797 390.5 920.717 400.03C925.137 410.78 929.447 421.57 933.807 432.35ZM964.587 965.88C967.227 967.01 969.867 968.14 971.547 968.86C965.347 983.37 959.497 997.08 953.777 1010.49C951.627 1000.68 949.387 990.51 947.157 980.35L946.827 980.8C952.907 975.74 958.987 970.67 965.067 965.61L964.587 965.89V965.88ZM121.387 762.3C121.387 762.3 121.957 761.66 121.977 761.65C112.317 761.65 102.647 761.65 94.6973 761.65C99.9473 757.5 106.407 752.39 114.387 746.08C117.047 752.23 119.217 757.27 121.397 762.3H121.387ZM27.4873 759.14H60.0873C60.0973 760.05 60.1073 760.96 60.1173 761.87C49.2773 762.53 38.4473 763.19 27.6073 763.85C27.5673 762.28 27.5273 760.71 27.4873 759.14Z" fill="white"/>
</mask>
<g mask="url(#mask0_53_54810)">
<path d="M-15.1211 1333.65H1152.63V1348.44H-15.1211V1333.65Z" fill="#0E8B14"/>
<path d="M-15.1211 1306.08H1152.63V1320.66H-15.1211V1306.08Z" fill="#0E8B14"/>
<path d="M-15.1211 1278.51H1152.63V1292.89H-15.1211V1278.51Z" fill="#0E8B14"/>
<path d="M-15.1211 1250.95H1152.63V1265.12H-15.1211V1250.95Z" fill="#0E8B14"/>
<path d="M-15.1211 1223.38H1152.63V1237.34H-15.1211V1223.38Z" fill="#0E8B14"/>
<path d="M-15.1211 1195.81H1152.63V1209.56H-15.1211V1195.81Z" fill="#0E8B14"/>
<path d="M-15.1211 1168.24H1152.63V1181.79H-15.1211V1168.24Z" fill="#0E8B14"/>
<path d="M-15.1211 1140.67H1152.63V1154.01H-15.1211V1140.67Z" fill="#0E8B14"/>
<path d="M-15.1211 1113.1H1152.63V1126.23H-15.1211V1113.1Z" fill="#0E8B14"/>
<path d="M-15.1211 1085.53H1152.63V1098.45H-15.1211V1085.53Z" fill="#0E8B14"/>
<path d="M-15.1211 1057.96H1152.63V1070.68H-15.1211V1057.96Z" fill="#0E8B14"/>
<path d="M-15.1211 1030.4H1152.63V1042.91H-15.1211V1030.4Z" fill="#0E8B14"/>
<path d="M-15.1211 1002.83H1152.63V1015.13H-15.1211V1002.83Z" fill="#0E8B14"/>
<path d="M-15.1211 975.261H1152.63V987.351H-15.1211V975.261Z" fill="#0E8B14"/>
<path d="M-15.1211 947.69H1152.63V959.57H-15.1211V947.69Z" fill="#0E8B14"/>
<path d="M-15.1211 920.121H1152.63V931.801H-15.1211V920.121Z" fill="#0E8B14"/>
<path d="M-15.1211 892.551H1152.63V904.021H-15.1211V892.551Z" fill="#0E8B14"/>
<path d="M-15.1211 864.98H1152.63V876.24H-15.1211V864.98Z" fill="#0E8B14"/>
<path d="M-15.1211 837.421H1152.63V848.471H-15.1211V837.421Z" fill="#0E8B14"/>
<path d="M-15.1211 809.851H1152.63V820.701H-15.1211V809.851Z" fill="#0E8B14"/>
<path d="M-15.1211 782.28H1152.63V792.92H-15.1211V782.28Z" fill="#0E8B14"/>
<path d="M-15.1211 754.711H1152.63V765.141H-15.1211V754.711Z" fill="#0E8B14"/>
<path d="M-15.1211 727.141H1152.63V737.361H-15.1211V727.141Z" fill="#0E8B14"/>
<path d="M-15.1211 699.57H1152.63V709.59H-15.1211V699.57Z" fill="#0E8B14"/>
<path d="M-15.1211 672.001H1152.63V681.811H-15.1211V672.001Z" fill="#0E8B14"/>
<path d="M-15.1211 644.44H1152.63V654.04H-15.1211V644.44Z" fill="#0E8B14"/>
<path d="M-15.1211 616.871H1152.63V626.261H-15.1211V616.871Z" fill="#0E8B14"/>
<path d="M-15.1211 589.301H1152.63V598.481H-15.1211V589.301Z" fill="#0E8B14"/>
<path d="M-15.1211 561.73H1152.63V570.71H-15.1211V561.73Z" fill="#0E8B14"/>
<path d="M-15.1211 534.16H1152.63V542.93H-15.1211V534.16Z" fill="#0E8B14"/>
<path d="M-15.1211 506.591H1152.63V515.151H-15.1211V506.591Z" fill="#0E8B14"/>
<path d="M-15.1211 479.021H1152.63V487.371H-15.1211V479.021Z" fill="#0E8B14"/>
<path d="M-15.1211 451.45H1152.63V459.6H-15.1211V451.45Z" fill="#0E8B14"/>
<path d="M-15.1211 423.891H1152.63V431.831H-15.1211V423.891Z" fill="#0E8B14"/>
<path d="M-15.1211 396.32H1152.63V404.05H-15.1211V396.32Z" fill="#0E8B14"/>
<path d="M-15.1211 368.751H1152.63V376.271H-15.1211V368.751Z" fill="#0E8B14"/>
<path d="M-15.1211 341.181H1152.63V348.501H-15.1211V341.181Z" fill="#0E8B14"/>
<path d="M-15.1211 313.61H1152.63V320.72H-15.1211V313.61Z" fill="#0E8B14"/>
<path d="M-15.1211 286.041H1152.63V292.941H-15.1211V286.041Z" fill="#0E8B14"/>
<path d="M-15.1211 258.471H1152.63V265.161H-15.1211V258.471Z" fill="#0E8B14"/>
<path d="M-15.1211 230.91H1152.63V237.39H-15.1211V230.91Z" fill="#0E8B14"/>
<path d="M-15.1211 203.341H1152.63V209.621H-15.1211V203.341Z" fill="#0E8B14"/>
<path d="M-15.1211 175.771H1152.63V181.841H-15.1211V175.771Z" fill="#0E8B14"/>
<path d="M-15.1211 148.2H1152.63V154.06H-15.1211V148.2Z" fill="#0E8B14"/>
<path d="M-15.1211 120.631H1152.63V126.281H-15.1211V120.631Z" fill="#0E8B14"/>
<path d="M-15.1211 93.0605H1152.63V98.5105H-15.1211V93.0605Z" fill="#0E8B14"/>
<path d="M-15.1211 65.4902H1152.63V70.7302H-15.1211V65.4902Z" fill="#0E8B14"/>
<path d="M-15.1211 37.9307H1152.63V42.9607H-15.1211V37.9307Z" fill="#0E8B14"/>
<path d="M-15.1211 10.3604H1152.63V15.1804H-15.1211V10.3604Z" fill="#0E8B14"/>
<path d="M1002.73 -56.6494H1006.48V1463.3H1002.73V-56.6494Z" fill="#1284C3"/>
<path d="M986.277 -56.6494H990.027V1463.3H986.277V-56.6494Z" fill="#1284C3"/>
<path d="M969.828 -56.6494H973.578V1463.3H969.828V-56.6494Z" fill="#1284C3"/>
<path d="M953.379 -56.6494H957.129V1463.3H953.379V-56.6494Z" fill="#1284C3"/>
<path d="M936.938 -56.6494H940.688V1463.3H936.938V-56.6494Z" fill="#1284C3"/>
<path d="M920.488 -56.6494H924.238V1463.3H920.488V-56.6494Z" fill="#1284C3"/>
<path d="M904.037 -56.6494H907.787V1463.3H904.037V-56.6494Z" fill="#1284C3"/>
<path d="M887.598 -56.6494H891.348V1463.3H887.598V-56.6494Z" fill="#1284C3"/>
<path d="M871.148 -56.6494H874.898V1463.3H871.148V-56.6494Z" fill="#1284C3"/>
<path d="M854.697 -56.6494H858.447V1463.3H854.697V-56.6494Z" fill="#1284C3"/>
<path d="M838.248 -56.6494H841.998V1463.3H838.248V-56.6494Z" fill="#1284C3"/>
<path d="M821.809 -56.6494H825.559V1463.3H821.809V-56.6494Z" fill="#1284C3"/>
<path d="M805.357 -56.6494H809.107V1463.3H805.357V-56.6494Z" fill="#1284C3"/>
<path d="M788.908 -56.6494H792.658V1463.3H788.908V-56.6494Z" fill="#1284C3"/>
<path d="M772.469 -56.6494H776.219V1463.3H772.469V-56.6494Z" fill="#1284C3"/>
<path d="M756.018 -56.6494H759.768V1463.3H756.018V-56.6494Z" fill="#1284C3"/>
<path d="M739.568 -56.6494H743.318V1463.3H739.568V-56.6494Z" fill="#1284C3"/>
<path d="M723.117 -56.6494H726.867V1463.3H723.117V-56.6494Z" fill="#1284C3"/>
<path d="M706.678 -56.6494H710.428V1463.3H706.678V-56.6494Z" fill="#1284C3"/>
<path d="M690.229 -56.6494H693.979V1463.3H690.229V-56.6494Z" fill="#1284C3"/>
<path d="M673.777 -56.6494H677.527V1463.3H673.777V-56.6494Z" fill="#1284C3"/>
<path d="M657.328 -56.6494H661.078V1463.3H657.328V-56.6494Z" fill="#1284C3"/>
<path d="M640.889 -56.6494H644.639V1463.3H640.889V-56.6494Z" fill="#1284C3"/>
<path d="M624.438 -56.6494H628.188V1463.3H624.438V-56.6494Z" fill="#1284C3"/>
<path d="M607.988 -56.6494H611.738V1463.3H607.988V-56.6494Z" fill="#1284C3"/>
<path d="M591.549 -56.6494H595.299V1463.3H591.549V-56.6494Z" fill="#1284C3"/>
<path d="M575.098 -56.6494H578.848V1463.3H575.098V-56.6494Z" fill="#1284C3"/>
<path d="M558.648 -56.6494H562.398V1463.3H558.648V-56.6494Z" fill="#1284C3"/>
<path d="M542.209 -56.6494H545.959V1463.3H542.209V-56.6494Z" fill="#1284C3"/>
<path d="M525.758 -56.6494H529.508V1463.3H525.758V-56.6494Z" fill="#1284C3"/>
<path d="M509.309 -56.6494H513.059V1463.3H509.309V-56.6494Z" fill="#1284C3"/>
<path d="M492.857 -56.6494H496.607V1463.3H492.857V-56.6494Z" fill="#1284C3"/>
<path d="M476.418 -56.6494H480.168V1463.3H476.418V-56.6494Z" fill="#1284C3"/>
<path d="M459.969 -56.6494H463.719V1463.3H459.969V-56.6494Z" fill="#1284C3"/>
<path d="M443.518 -56.6494H447.268V1463.3H443.518V-56.6494Z" fill="#1284C3"/>
<path d="M427.078 -56.6494H430.828V1463.3H427.078V-56.6494Z" fill="#1284C3"/>
<path d="M410.629 -56.6494H414.379V1463.3H410.629V-56.6494Z" fill="#1284C3"/>
<path d="M394.178 -56.6494H397.928V1463.3H394.178V-56.6494Z" fill="#1284C3"/>
<path d="M377.729 -56.6494H381.479V1463.3H377.729V-56.6494Z" fill="#1284C3"/>
<path d="M361.287 -56.6494H365.037V1463.3H361.287V-56.6494Z" fill="#1284C3"/>
<path d="M344.838 -56.6494H348.588V1463.3H344.838V-56.6494Z" fill="#1284C3"/>
<path d="M328.389 -56.6494H332.139V1463.3H328.389V-56.6494Z" fill="#1284C3"/>
<path d="M311.938 -56.6494H315.688V1463.3H311.938V-56.6494Z" fill="#1284C3"/>
<path d="M295.498 -56.6494H299.248V1463.3H295.498V-56.6494Z" fill="#1284C3"/>
<path d="M279.049 -56.6494H282.799V1463.3H279.049V-56.6494Z" fill="#1284C3"/>
<path d="M262.598 -56.6494H266.348V1463.3H262.598V-56.6494Z" fill="#1284C3"/>
<path d="M246.158 -56.6494H249.908V1463.3H246.158V-56.6494Z" fill="#1284C3"/>
<path d="M229.709 -56.6494H233.459V1463.3H229.709V-56.6494Z" fill="#1284C3"/>
<path d="M213.258 -56.6494H217.008V1463.3H213.258V-56.6494Z" fill="#1284C3"/>
<path d="M196.809 -56.6494H200.559V1463.3H196.809V-56.6494Z" fill="#1284C3"/>
<path d="M180.367 -56.6494H184.117V1463.3H180.367V-56.6494Z" fill="#1284C3"/>
<path d="M163.918 -56.6494H167.668V1463.3H163.918V-56.6494Z" fill="#1284C3"/>
<path d="M147.469 -56.6494H151.219V1463.3H147.469V-56.6494Z" fill="#1284C3"/>
<path d="M131.027 -56.6494H134.777V1463.3H131.027V-56.6494Z" fill="#1284C3"/>
<path d="M114.578 -56.6494H118.328V1463.3H114.578V-56.6494Z" fill="#1284C3"/>
<path d="M98.1289 -56.6494H101.879V1463.3H98.1289V-56.6494Z" fill="#1284C3"/>
<path d="M81.6777 -56.6494H85.4277V1463.3H81.6777V-56.6494Z" fill="#1284C3"/>
<path d="M65.2383 -56.6494H68.9883V1463.3H65.2383V-56.6494Z" fill="#1284C3"/>
<path d="M48.7891 -56.6494H52.5391V1463.3H48.7891V-56.6494Z" fill="#1284C3"/>
<path d="M32.3379 -56.6494H36.0879V1463.3H32.3379V-56.6494Z" fill="#1284C3"/>
<path d="M15.8984 -56.6494H19.6484V1463.3H15.8984V-56.6494Z" fill="#1284C3"/>
<path d="M-0.552734 -56.6494H3.19727V1463.3H-0.552734V-56.6494Z" fill="#1284C3"/>
</g>
</svg>
