<svg width="1107" height="729" viewBox="0 0 1107 729" fill="none" xmlns="http://www.w3.org/2000/svg">
<mask id="mask0_53_68754" style="mask-type:luminance" maskUnits="userSpaceOnUse" x="0" y="0" width="1295" height="729">
<path d="M117.253 411.982C118.915 410.071 118.445 407.725 111.496 404.806C108.995 403.759 110.086 396.025 116.347 392.647C121.24 390.01 125.797 389.49 130.883 389.979C132.805 390.163 136.892 390.377 134.072 393.533C127.895 400.434 134.811 398.921 137.908 398.294C143.48 397.171 152.746 400.281 153.291 392.226C153.795 384.653 148.029 378.997 139.15 377.278C136.12 376.689 133.04 376.307 130.144 375.856C134.299 368.489 140.921 364.194 149.204 366.678C152.318 367.61 160.207 368.244 158.394 376.292C167.299 370.835 171.612 363.483 174.961 354.328C181.432 359.914 181.977 367.129 186.56 373.586C190.303 368.466 188.154 364.117 186.929 360.006C183.622 348.917 183.698 337.942 188.675 327.35C191.276 321.809 195.162 317.652 201.708 324.255C205.292 327.87 211.36 328.282 213.978 333.754C216.295 338.615 219.946 334.709 221.884 332.348C227.457 325.6 232.66 318.599 239.207 311.966C238.275 323.895 234.037 335.413 235.505 347.954C241.07 344.69 238.93 337.873 243.89 334.182C247.54 339.746 243.713 346.632 249.412 352.746C251.2 344.904 254.229 338.286 253.071 331.003C251.989 324.201 247.465 317.873 249.832 310.223C258.132 324.056 264.829 338.745 280.826 347.801C281.623 341.672 286.726 337.835 281.396 329.757C270.108 312.646 267.54 307.357 247.448 293.41C246.214 292.554 245.174 291.469 244.611 290.98C233.474 303.926 219.358 313.517 201.616 315.909C189.279 317.575 176.572 317.071 164.437 320.64C161.986 321.358 158.738 322.527 156.825 319.952C155.113 317.644 156.716 314.977 157.907 312.844C162.246 305.103 170.563 302.535 178.889 300.135C186.904 297.827 199.518 298.714 200.449 290.223C201.238 283.001 188.91 280.7 182.011 276.321C182.842 271.789 189.816 271.568 190.303 266.7C186.576 262.359 181.214 268.006 177.059 264.797C175.826 260.058 182.481 260.547 183.555 257.238C185.284 251.889 177.94 253.15 177.042 249.764C187.03 242.695 190.907 241.793 203.202 243.994C200.063 240.043 193.996 238.981 195.422 232.156C196.421 227.356 200.684 228.686 202.136 226.149C208.439 231.69 213.223 224.406 218.787 223.841C225.535 223.153 230.596 216.955 228.867 207.991C233.432 210.237 235.547 215.518 241.842 213.692C245.115 212.744 248.036 216.298 249.563 219.37C251.779 223.826 254.238 228.51 260.734 226.225C267.935 223.688 277.141 221.411 277.972 213.378C278.534 207.998 279.886 203.046 281.984 197.872C278.778 196.81 271.09 201.678 274.892 193.256C280.851 180.05 287.699 167.256 296.092 155.189C299.306 150.565 302.42 146.446 293.7 143.794C290.603 142.854 287.565 141.631 290.855 137C295.127 130.978 286.977 129.862 283.881 126.667C286.633 123.825 289.873 127.783 292.483 125.903C293.683 122.502 288.228 123.251 288.295 120.416C292.08 119.293 295.152 122.059 298.517 121.914C303.855 121.692 312.457 123.695 307.145 113.836C304.795 109.472 310.636 106.048 307.984 101.684C322.428 113.446 335.042 110.878 343.292 94.7145C348.764 103.083 360.22 106.835 373.942 104.68C370.845 103.167 367.572 102.028 365.02 100.095C363.988 99.3153 364.198 96.7398 364.5 95.0814C364.744 93.7439 366.179 94.0497 367.219 94.7528C372.381 98.2224 376.057 93.8815 380.211 92.567C388.444 89.9762 391.281 86.8811 381.713 81.6613C374.957 77.9776 374.915 70.7021 373.002 63.9614C385.977 63.3959 395.771 68.4399 405.364 75.7995C411.247 80.3086 417.751 73.6291 424.155 72.7808C426.597 72.4522 428.569 69.8079 431.062 69.0131C434.444 67.9355 438.448 67.8514 437.524 63.1361C436.643 58.65 431.692 58.2908 429.165 59.1696C416.56 63.564 411.197 57.1903 407.051 47.2475C411.935 46.6896 416.308 45.6655 413.664 39.1236C412.615 36.5328 410.945 29.6011 419.682 32.2454C420.026 32.3524 420.487 32.276 420.848 32.1613C431.028 28.6993 433.597 28.2178 441.276 33.4682C447.587 37.7862 450.231 32.7957 454.175 30.6787C457.155 34.7521 453.798 38.6039 454.561 42.7384C458.9 41.7296 463.206 40.7361 467.444 39.7503C469.609 43.495 466.714 45.5891 465.598 48.1034C464.398 50.8088 458.783 53.3003 462.644 56.105C466.538 58.9404 471.582 55.6771 475.963 54.3855C481.284 52.8111 478.95 50.1057 477.616 46.8806C473.327 36.5022 481.342 26.399 492.328 21.3855C502.508 16.7389 499.319 26.4601 504.875 27.8969C507.334 28.7452 503.222 19.1921 510.079 23.6706C513.335 25.7952 516.021 26.2002 514.552 31.1372C512.177 39.1388 523.566 50.2509 532.328 50.014C539.654 49.8153 535.097 42.8072 539.142 40.8966C537.33 40.8202 535.525 40.7514 533.217 40.6597C540.695 33.5905 551.664 30.4112 554.677 19.6431C555.474 16.7924 562.348 15.669 566.788 18.7718C576.724 25.7035 579.007 25.2373 585.184 15.5162C586.494 13.4603 586.2 7.88136 590.648 10.6021C603.925 18.7259 605.234 7.38461 610.773 1.46938C614.542 1.74451 614.097 5.28294 614.869 7.78965C618.897 20.7436 618.839 20.7588 631.747 9.17293C625.251 23.663 645.359 27.1632 640.391 39.4675C652.543 39.4598 656.161 42.7308 653.836 51.3514C652.627 55.8528 646.35 57.6488 644.47 58.2143C633.92 61.3783 624.395 64.1296 621.256 75.5397C620.257 79.1775 616.086 79.0094 612.234 77.97C606.317 76.3804 602.641 80.2551 603.724 85.6583C604.63 90.1597 601.197 97.7639 600.35 98.1001C585.705 103.817 585.931 113.851 589.859 125.834C598.101 123.121 602.884 116.129 609.758 111.765C614.852 108.532 619.544 106.064 626.014 107.462C628.591 108.02 631.755 108.188 634.105 107.317C638.402 105.712 642.556 102.067 646.87 106.186C649.337 108.547 639.006 111.169 646.148 115.38C647.164 115.976 641.474 117.497 638.587 117.94C636.186 118.307 633.425 118.849 633.794 121.601C634.164 124.413 637.177 124.39 639.434 124.016C644.403 123.183 648.624 125.376 653.19 126.201C657.126 126.912 663.471 129.09 664.427 124.39C665.283 120.202 669.916 114.424 662.589 110.221C648.876 102.365 639.585 91.413 637.034 76.0518C641.02 73.4839 644.31 78.4285 649.228 77.9853C651.016 74.4621 647.625 68.2412 657.369 67.5916C669.027 66.8044 665.678 76.2275 670.688 79.552C672.954 76.7472 668.179 71.0536 673.559 70.5645C677.528 70.2053 684.36 67.5687 686.131 74.7067C691.687 73.3616 691.687 82.8076 698.09 79.8195C698.535 81.0652 699.45 82.3415 699.341 83.5413C698.871 88.8834 698.115 94.2025 697.444 99.5293C696.882 104.046 696.899 108.975 702.908 109.778C708.077 110.466 711.72 106.981 712.912 102.342C715.077 93.8815 717.586 87.1256 727.347 97.4582C728.002 98.1536 730.049 98.8032 730.486 98.4593C744.166 87.7217 752.701 103.083 764.098 104.122C769.268 104.596 775.47 107.485 765.08 111.91C762.176 113.14 764.325 121.731 754.967 118.108C760.917 120.943 765.575 122.533 767.724 128.677C770.653 137.054 780.816 138.437 787.379 134.929C794.748 131.001 805.944 128.402 803.174 114.936C802.083 109.617 806.901 98.4364 814.026 95.4788C825.759 90.6029 830.786 81.0957 839.095 73.4228C837.525 72.8878 836.3 72.0165 835.419 72.2458C824.299 75.0964 820.522 69.4716 819.246 60.8433C819.062 59.5671 820.522 57.2132 818.617 57.1597C800.589 56.5865 788.16 44.7713 773.028 38.4663C763.746 34.5993 755.169 29.3795 744.703 28.2484C742.428 28.0038 739.315 28.2561 738.518 25.9404C737.561 23.1586 740.137 20.6519 742.462 20.0252C752.558 17.2815 759.046 8.02657 770.871 7.86608C774.371 7.82023 780.724 5.54278 782.52 3.77738C789.771 -3.33007 794.656 0.980252 799.087 5.39757C805.675 11.9701 817.039 11.7102 822.603 20.4302C824.139 22.8376 833.245 20.7359 838.465 18.4203C842.334 16.7007 845.943 14.2781 850.542 14.5455C859.707 15.0882 865.909 21.355 873.614 24.71C879.111 27.1021 886.06 28.7834 879.589 37.2435C876.366 41.4545 885.766 37.2206 885.733 42.0659C880.856 43.9994 875.653 44.6567 870.139 43.6861C866.748 43.09 861.931 41.5921 861.276 45.826C860.496 50.847 865.943 52.964 870.097 51.9323C882.879 48.753 891.893 54.8899 901.259 60.828C906.177 63.9461 913.202 66.3688 902.728 71.4816C899.522 73.0483 901.578 76.0212 903.441 77.9165C906.303 80.8359 906.84 86.6594 913.613 84.9322C915.812 84.3667 918.044 83.9234 921.603 83.121C919.202 85.6353 917.767 87.1256 916.34 88.6235C923.86 84.8787 926.772 92.7963 932.286 93.5987C929.383 98.9561 926.193 104.107 919.169 107.837C919.068 103.794 923.105 98.7039 915.426 98.1383C912.606 97.932 912.471 97.1066 908.275 102.716C905.438 106.514 901.721 108.746 895.955 110.145C896.19 101.96 890.718 96.2583 884.549 91.6958C882.124 89.8998 882.82 96.8468 878.129 96.9308C875.133 90.5571 877.81 83.954 878.238 74.9589C871.633 85.9563 873.647 95.6393 873.303 104.932C873.144 109.197 874.008 113.408 872.64 117.711C871.381 121.669 864.843 124.688 868.268 129.067C871.784 133.569 878.557 133.913 884.239 135.097C887.21 135.716 890.458 135.204 893.655 135.204C896.761 132.323 891.238 131.849 891.842 130.374C893.555 126.217 890.592 119.85 896.274 118.001C901.964 116.152 907.73 118.307 911.691 123.167C920.159 133.569 933.982 134.837 945.463 126.53C947.234 125.254 950.473 123.389 951.589 123.993C961.384 129.304 973.981 125.88 983.221 132.774C988.635 136.809 994.509 138.75 1001.76 135.739C1008.15 133.087 1014.52 133.859 1018.8 139.652C1020.6 142.09 1021.42 145.728 1018.34 147.356C1013.67 149.832 1011.92 150.94 1014.46 156.847C1016.31 161.158 1009.66 161.601 1005.36 159.53C988.954 151.651 975.324 156.893 961.996 166.637C965.63 169.603 969.592 170.015 973.343 170.573C976.457 171.032 978.975 170.229 978.74 175.113C978.555 178.842 981.392 182.511 987.686 183.015C994.165 183.527 998.236 193.798 993.309 197.826C982.416 206.729 992.822 209.695 998.11 212.767C1008.11 218.583 1009.26 221.655 1003.99 231.193C1001.42 235.855 1001.93 242.397 993.225 241.113C992.52 244.223 998.009 245.278 996.02 248.77C992.327 248.87 990.926 245.736 988.324 244.361C984.74 242.473 981.174 243.207 981.887 247.089C983.515 255.931 973.377 258.094 970.926 264.628C969.969 267.189 964.271 270.192 962.038 268.259C953.36 260.746 950.314 270.857 945.522 272.775C939.999 274.984 944.875 278.905 948.526 280.074C950.759 280.792 953.763 279.203 956.424 279.21C960.889 279.226 964.262 279.111 961.023 285.401C959.865 287.647 957.347 292.791 960.779 297.888C962.886 301.022 952.026 305.745 956.038 312.462C941.963 309.917 950.725 322.497 944.959 326.402C934.225 333.67 933.151 348.305 919.429 354.457C905.438 360.732 904.314 361.076 900.957 347.717C900.73 346.807 899.715 346.066 898.909 345.042C894.243 349.887 895.132 355.099 896.232 360.449C897.415 366.166 896.324 371.561 890.156 374.32C883.903 377.117 881.008 371.638 877.617 368.588C873.437 364.828 869.913 360.495 869.325 354.771C869.023 351.836 866.639 350.522 863.694 350.094C859.103 349.436 860.932 353.372 859.581 354.733C856.241 358.088 855.586 362.627 846.715 362.757C837.139 362.902 825.104 366.471 816.401 373.319C814.681 374.672 815.411 376.559 815.755 378.34C817.71 388.657 813.715 396.338 803.032 400.511C799.834 401.756 800.371 415.291 792.524 402.498C790.938 407.098 789.578 411.057 787.833 416.132C785.189 412.96 788.294 406.242 780.917 407.381C773.792 408.482 769.159 412.509 768.353 418.44C767.111 427.641 765.491 437.362 767.464 446.243C772.331 468.207 765.651 487.581 755.093 506.603C747.355 520.535 737.972 534.154 745.181 550.929C745.802 552.381 745.232 554.498 743.234 555.583C739.55 546.649 736.352 546.473 726.533 555.369V534.268C723.268 542.064 722.714 548.56 722.127 557.402C720.457 553.382 719.634 551.403 718.115 547.742C713.692 559.924 718.065 570.723 716.092 581.453C714.708 576.409 713.314 571.365 711.93 566.321C711.451 566.321 710.973 566.321 710.495 566.321C710.243 568.904 710.369 571.579 709.647 574.039C708.665 577.387 711.107 582.01 707.054 583.982C701.598 586.634 701.078 579.488 694.523 577.738C701.431 588.858 704.913 599.137 701.632 610.448C692.308 605.159 687.381 617.831 676.219 616.279C678.922 619.481 680.583 621.002 681.674 622.821C685.812 629.699 689.412 631.197 692.131 622.133C694.716 613.528 700.306 614.239 707.49 617.387C720.717 623.18 726.365 621.224 732.282 608.835C735.093 602.943 737.418 596.806 739.34 590.616C742.118 581.636 741.035 570.554 755.63 569.416C758.685 577.433 754.749 586.474 754.791 595.461C754.808 599.733 761.497 602.049 757.317 606.298C761.396 606.489 762.982 602.79 766.154 601.613C772.004 599.443 776.536 591.411 784.442 598.105C786.515 591.258 794.924 595.171 798.097 591.793C803.678 585.847 804.156 590.05 804.702 593.917C805.818 601.896 806.305 600.971 816.418 600.788C821.479 600.696 829.359 601.567 833.002 606.145C836.048 609.974 836.804 614.262 833.136 620.284C827.437 629.646 823.812 639.573 812.029 644.373C809.133 645.55 807.102 648.11 808.73 651.511C810.182 654.537 812.952 655.722 816.359 655.515C820.656 655.248 824.928 654.713 829.217 654.293L829.032 654.132C822.528 660.406 813.95 667.751 806.8 669.165C790.518 672.39 783.955 687.613 768.11 690.418C755.177 692.703 751.635 691.007 753.297 679.222C748.127 679.918 745.24 685.038 739.6 684.969C737.191 681.286 739.969 678.167 740.968 674.912C741.992 671.557 744.619 668.538 742.865 662.317C737.611 674.018 732.769 683.762 728.866 693.811C726.021 701.133 721.64 703.724 713.742 700.353C710.444 698.947 707.037 698.596 703.428 698.557C696.647 698.489 697.797 697.755 694.255 692.199C691.343 687.621 686.307 683.96 679.677 682.134C666.576 678.519 652.434 679 639.946 673.009C630.202 668.339 628.44 663.311 635.473 655.347C641.364 648.668 649.128 643.44 654.012 635.951C654.004 635.951 654.281 635.912 654.281 635.912C659.711 627.001 667.331 618.862 667.826 606.657C663.278 609.072 664.587 613.734 660.055 614.919C659.4 609.997 658.838 605.794 658.276 601.59C645.779 604.005 651.973 593.635 648.733 589.714C646.157 586.596 646.048 581.904 641.96 578.862C639.493 584.372 644.764 589.103 641.843 594.024C634.491 586.145 624.562 581.346 617.722 571.999C616.153 576.485 617.932 578.266 619.174 579.909C622.087 583.753 621.843 587.467 618.57 590.601C615.247 593.78 612.125 590.272 608.977 589.439C605.964 588.644 603.379 585.977 598.176 587.375C604.093 592.442 611.629 594.873 612.259 602.523C597.631 604.112 596.875 592.473 593.065 585.297C589.716 578.976 592.939 572.305 599.284 567.23C607.609 560.573 606.292 543.141 597.202 542.308C585.973 541.284 587.232 534.956 587.526 528.926C587.744 524.325 586.603 520.558 584.093 516.782C570.22 495.888 559.881 473.481 549.801 450.928C548.064 447.045 547.887 439.854 541.677 440.626C532.923 441.711 520.167 441.512 518.287 450.928C516.172 461.49 504.422 472.082 517.028 484.348C522.642 489.805 526.579 497.592 525.832 507.268C524.959 518.678 533.326 528.758 539.117 538.785C541.803 543.439 546.989 548.086 552.671 540.948C554.736 538.357 555.323 539.679 556.784 540.971C561.702 545.296 561.626 548.529 554.937 551.395C548.03 554.353 542.508 558.479 549.037 565.977C555.197 573.038 557.413 580.49 556.893 589.76C556.179 602.309 564.589 608.973 577.715 608.713C579.62 608.675 582.692 607.926 582.222 610.341C580.107 621.193 589.431 618.014 595.029 619.428C605.142 621.98 616.287 620.719 625.821 625.916C616.329 627.743 606.812 624.869 594.995 627.322C604.479 629.615 612.569 629.47 616.715 637.296C611.352 639.206 606.032 641.109 599.51 643.44C607.316 645.259 613.652 640.093 620.022 643.433C616.094 646.895 612.167 650.357 608.239 653.819C607.937 654.048 607.593 654.247 607.349 654.522C601.195 661.553 592.676 664.714 581.794 664.006C583.816 667.881 589.49 672.78 586.426 675.019C582.163 678.129 575.029 679.214 569.247 678.947C565.277 678.764 562.717 679.405 559.713 681.186C548.76 687.667 537.799 694.148 526.646 700.338C516.138 706.162 504.85 708.431 493.033 703.953C485.866 701.24 478.841 700.415 471.229 702.081C459.379 704.671 447.478 703.28 435.451 702.562C421.939 701.752 420.563 704.113 422.728 716.265C423.148 718.611 410.945 729.685 408.511 728.967C405.33 728.027 404.382 725.421 405.347 722.906C406.497 719.918 408.469 717.182 410.215 714.4C414.05 708.286 415.116 704.992 405.355 701.194C392.464 696.181 378.885 695.072 365.91 691.312C362.872 690.433 360.06 690.082 357.006 692.077C353.229 694.537 348.176 695.355 345.801 691.091C343.947 687.766 347.186 683.517 350.241 681.958C361.496 676.203 365.062 667.132 365.104 656.341C365.146 646.749 372.725 640.827 378.323 634.3C382.2 629.783 386.245 626.673 382.679 620.505C379.212 614.521 390.4 609.286 384.13 602.928C385.482 602.347 386.783 601.422 388.184 601.269C390.887 600.979 393.211 602.385 393.153 604.777C392.817 618.228 401.755 614.735 410.55 613.429C427.092 610.968 430.475 613.612 429.241 628.752C428.309 640.207 435.963 647.796 441.586 658.129C445.581 650.571 440.504 644.953 441.192 639.038C444.65 636.684 446.605 640.804 449.543 640.743C452.312 640.689 457.012 640.681 456.299 638.259C452.749 626.207 463.97 632.313 468.057 629.921C469.173 626.81 466.336 626.306 464.507 625.205C462.669 624.097 459.605 623.868 460.26 620.933C460.705 618.962 462.627 618.159 464.7 617.983C467.562 617.731 470.768 617.884 471.363 620.964C472.95 629.18 479.043 632.932 486.957 635.385C488.812 635.958 492.496 637.449 488.585 639.52C480.998 643.532 487.805 646.528 488.946 649.936C480.428 649.317 472.136 648.102 463.735 639.688C469.492 664.694 447.713 674.048 436.333 690.051C455.04 686.796 478.128 692.612 476.626 665.03C481.242 667.743 480.503 672.993 486.185 675.088C485.396 670.204 487.737 665.389 487.032 661.813C486.118 657.151 494.301 654.178 488.703 649.73C494.343 649.08 496.029 639.604 504.321 644.151C506.05 645.099 505.815 642.233 505.236 641.163C503.012 636.99 507.376 633.903 506 629.821C512.848 630.593 515.668 634.957 519.604 637.701C525.018 641.469 530.531 644.441 536.213 638.878C541.308 633.895 545.16 629.302 539.654 621.147C523.448 597.15 500.36 579.496 477.221 561.781C467.973 554.696 460.176 546.603 452.799 537.937C448.099 532.419 444.75 525.113 434.486 524.784C430.752 524.669 425.666 521.284 424.591 516.553C424.046 514.153 426.631 512.778 428.679 511.8C433.84 509.323 437.961 512.312 441.586 514.78C462.988 529.308 481.602 547.1 504.733 559.595C508.845 561.819 512.974 567.115 518.22 563.462C523.247 559.97 521.568 554.223 519.797 549.439C516.407 540.291 514.208 530.302 508.526 522.453C502.425 514.024 491.632 509.01 483.868 501.245C480.075 497.455 470.935 500.542 469.718 508.934C469.442 510.821 467.83 514.635 467.394 513.909C464.649 509.293 457.524 513.099 457.6 511.54C458.145 500.504 450.214 510.011 446.933 507.237C449.979 500.917 450.516 494.237 444.977 488.085C450.424 485.854 453.798 490.233 458.783 489.797C457.994 487.848 456.5 486.052 456.937 484.822C457.725 482.567 464.918 483.828 461.502 478.991C458.548 474.803 454.377 478.326 450.751 478.563C449.19 478.67 447.596 478.876 446.11 479.304C441.125 480.748 435.25 485.594 431.314 479.999C428.225 475.605 430.718 469.659 433.899 464.967C435.359 462.819 437.424 460.893 433.848 457.63C430.349 461.94 425.162 464.187 420.286 466.9C416.602 468.949 414.512 471.96 413.295 476.239C409.829 488.383 410.248 501.551 402.225 512.533C400.11 515.422 403.492 514.902 404.718 515.819C407.353 517.776 409.854 519.885 413.286 522.637C400.068 526.825 386.623 530.294 388.881 547.299C394.588 544.54 398.667 541.307 400.907 536.653C403.719 530.814 407.756 530.951 411.717 534.88C416.35 539.473 421.847 542.69 427.864 545.25C439.186 550.065 445.816 559.236 451.23 568.422C455.426 575.537 459.513 579.764 468.334 578.098C469.87 583.348 463.164 581.086 463.03 585.09C472.127 588.835 481.737 592.419 490.054 598.304C493.545 600.773 496.449 602.385 493.847 606.734C490.826 611.785 487.687 607.284 484.909 606.65C476.609 604.747 470.684 599.305 464.44 594.368C461.066 591.701 457.348 589.385 452.933 587.979C463.348 596.088 470.608 607.681 484.918 611.319C482.005 616.875 478.438 619.099 472.757 613.803C471.145 612.305 468.401 610.02 466.983 610.425C453.924 614.193 454.687 605.534 451.968 598.342C450.239 593.78 445.716 589.179 439.169 588.186C431.431 587.009 423.802 585.312 415.771 586.16C411.524 586.611 405.104 590.004 405.078 581.307C405.053 572.633 411.608 574.689 416.467 575.476C422.376 576.432 427.176 574.345 432.413 572.916C436.492 571.8 438.649 570.218 437.508 566.107C436.291 561.743 433.16 560.161 428.662 561.33C417.936 564.127 408.335 569.813 396.921 571.097C392.842 571.556 392.062 576.378 389.997 579.351C388.176 581.98 385.683 583.753 382.217 583.195C378.583 582.607 378.6 579.481 378.784 577.135C379.8 564.586 368.915 559.954 360.405 553.718C359.078 552.748 357.509 552.343 356.066 553.306C354.228 554.536 354.06 556.431 354.958 558.12C356.326 560.681 358.214 563.004 359.574 565.572C360.472 567.268 360.27 569.232 358.474 570.455C356.351 571.9 354.689 570.562 353.539 569.064C349.326 563.554 345.382 562.11 339.666 568.033C336.771 571.036 321.521 564.104 323.007 560.673C326.784 551.968 315.831 547.658 316.906 539.335C317.443 535.193 309.705 534.1 304.325 536.897C299.827 539.244 294.85 541.544 289.99 538.212C284.904 534.719 287.338 529.713 288.161 525.235C290.578 512.144 287.506 508.888 272.811 510.432C264.829 511.272 256.151 511.265 250.562 518.219C250.025 517.761 248.934 517.073 249.034 516.874C254.842 505.028 242.874 496.889 241.456 486.572C241.364 485.907 240.952 484.99 240.382 484.722C219.601 474.894 230.638 462.506 237.15 450.607C238.644 447.878 237.041 446.724 235.203 445.288C233.936 444.302 233.391 441.711 234.641 442.001C247.515 444.982 235.657 421.329 252.232 428.665C260.364 432.265 268.682 435.528 277.024 438.7C279.315 439.571 280.775 444.523 284.418 440.328C286.692 437.706 288.698 434.856 286.239 431.577C282.706 426.877 279.835 421.053 274.942 418.081C266.172 412.746 261.38 406.533 262.152 396.85C262.244 395.673 261.061 394.152 260.012 393.212C254.817 388.558 233.584 390.125 230.235 395.895C227.021 401.443 232.786 407.305 230.806 413.419C226.979 413.648 225.183 408.688 219.769 409.804C224.872 417.385 216.353 421.367 213.701 426.953C211.939 430.675 205.88 428.558 201.616 426.953C196.706 425.112 190.177 419.066 187.223 427.603C184.822 434.512 186.417 442.208 196.832 443.988C200.542 444.623 201.834 445.922 202.338 449.437C203.076 454.596 197.63 451.891 195.481 454.802C202.539 458.28 209.925 458.341 217.847 458.899C208.825 467.688 195.951 473.458 195.766 487.306C195.741 489.079 193.374 488.674 191.906 488.735C188.582 488.872 187.13 487.29 186.383 484.379C185.066 479.281 183.27 474.283 181.197 467.749C169.439 476.729 175.683 493.733 159.703 497.73C159.913 495.055 158.696 490.087 160.828 487.13C170.681 473.481 162.741 462.17 156.262 450.576C152.779 444.355 149.75 438.371 154.315 431.417C157.118 427.144 152.998 422.956 150.169 423.033C139.393 423.316 128.34 419.334 117.791 424.195L117.337 411.982H117.253ZM481.686 348.336C486.747 354.534 488.644 361.511 489.567 369.192C491.061 381.565 490.339 394.206 494.418 406.265C495.14 408.39 497.448 414.03 499.496 409.972C503.49 402.047 507.662 410.721 510.96 409.017C511.547 395.658 514.392 392.899 527.141 387.091C530.313 385.646 533.41 378.929 532.369 375.78C526.092 356.758 504.137 345.363 481.863 348.504C471.582 359.952 454.729 359.57 440.504 366.212C449.601 372.127 449.45 377.155 441.637 382.161C439.757 383.361 438.154 385.081 436.87 386.831C436.114 387.863 435.653 389.643 436.123 390.698C436.811 392.242 438.792 392.058 440.143 391.202C450.701 384.561 448.368 393.205 449.266 397.66C449.937 400.992 448.703 404.737 453.378 408.91C463.516 388.397 479.085 371.057 481.67 348.328L481.686 348.336ZM385.792 395.283C381.227 384.057 377.181 382.513 366.632 388.153C364.634 389.215 362.847 389.238 361.219 388.008C358.508 385.952 358.835 383.048 361.051 381.405C367.572 376.536 365.499 370.476 364.567 364.561C363.451 357.476 362.318 350.392 360.782 343.376C359.515 337.575 361.269 332.012 367.463 331.759C372.918 331.538 371.701 337.285 371.793 341.511C372.137 356.605 381.277 360.732 395.36 352.814C406.153 346.746 411.499 337.407 416.492 326.708C397.869 329.604 387.345 330.246 386.086 314.388C378.533 315.091 373.346 319.394 368.109 323.735C365.927 325.546 363.971 328.718 360.22 326.983C357.157 325.569 358.55 322.589 358.18 320.212C356.93 312.164 358.29 303.429 351.248 295.733C342.604 308.435 337.744 320.265 349.268 332.768C344.375 334.404 345.592 327.419 341.681 330.063C338.013 333.135 346.557 338.24 336.486 342.329C329.528 345.149 337.35 361.213 341.311 364.27C348.798 370.04 346.54 375 346.783 381C346.96 385.402 343.829 389.972 350.199 394.229C353.355 396.338 346.271 403.407 344.19 402.972C333.615 400.778 322.747 405.18 312.399 401.13C309.327 399.93 306.062 400.9 305.089 404.553C304.333 407.389 303.637 411.776 307.027 412.02C319.306 412.907 317.669 420.755 319.071 428.237C320.456 435.612 322.604 442.727 321.765 450.37C321.454 453.159 323.981 459.113 326.708 456.193C333.003 449.453 344.593 445.968 344.005 434.817C347.958 435.223 346.347 440.282 350.3 440.282C351.693 435.834 347.027 431.913 349.956 427.251C353.959 432.655 361.21 434.733 363.602 441.382C364.509 443.889 368.277 443.255 370.929 441.933C377.668 438.578 380.547 433.793 378.079 426.778C376.392 421.978 374.412 417.102 377.198 410.744C379.825 414.771 381.579 417.462 383.946 421.076C384.567 411.332 385.087 403.124 385.608 394.916C389.762 398.929 388.914 404.836 391.34 409.536C396.023 407.572 393.136 402.521 396.392 400.908C400.748 416.162 395.754 429.506 387.345 442.521C384.265 447.282 383.593 453.366 382.049 458.891C381.478 460.924 380.983 463.377 383.065 464.936C385.431 466.702 387.387 464.715 389.367 463.721C398.314 459.212 406.321 454.168 404.189 443.041C403.408 438.975 406.119 437.08 409.929 436.262C412.162 435.78 415.166 435.062 416.316 437.263C417.374 439.281 412.85 444.745 420.513 442.04C425.372 440.32 426.849 437.332 425.59 432.685C424.852 429.98 424.071 426.61 425.179 424.271C431.037 411.799 420.278 405.776 412.019 403.537C397.659 399.647 403.501 394.695 408.201 388.451C409.686 386.479 412.649 384.179 410.114 381.94C407.277 379.433 405.481 382.742 403.475 384.217C402.351 385.042 400.991 385.593 399.699 386.296C396.745 383.262 404.415 377.713 396.275 376.85C389.544 376.131 391.927 381.611 390.459 384.316C388.553 387.817 387.336 391.63 385.817 395.306L385.792 395.283ZM588.961 412.57C595.767 413.518 596.372 419.464 603.069 418.952C593.896 404.447 604.949 391.546 605.402 377.851C605.427 376.987 607.525 375.627 608.826 375.436C618.377 374.053 615.23 369.375 612.427 364.652C610.799 361.924 605.998 360.533 607.165 356.834C608.415 352.876 614.315 357.079 617.169 353.464C611.587 349.459 606.535 345.837 601.877 342.497C603.69 338.867 607.651 342.245 608.734 339.769C598.403 328.168 585.016 338.355 573.309 335.29C570.43 334.534 568.987 338.92 568.642 341.832C566.41 360.785 564.664 379.662 577.606 396.582C579.729 399.357 581.424 403.988 576.548 404.171C568.483 404.462 565.974 407.549 564.345 414.122C562.893 419.968 559.159 425.402 560.703 431.715C561.299 434.16 563.019 439.349 565.52 436.491C570.371 430.935 571.118 436.759 571.781 437.882C573.997 441.627 575.34 445.807 577.723 451.486C579.578 438.96 579.595 438.7 591.437 439.22C595.759 439.411 598.21 437.615 600.215 434.97C602.49 431.982 601.693 429.154 599.124 426.227C595.742 422.383 592.998 418.065 588.961 412.563V412.57ZM896.022 213.936C896.022 213.73 896.022 213.524 896.014 213.317C892.489 213.317 888.955 213.21 885.439 213.348C882.51 213.47 879.447 214.38 879.984 217.605C881.729 228.144 874.126 239.34 883.005 249.474C884.927 251.667 882.636 254.441 881.234 257.154C878.909 261.656 878.867 269.176 886.538 267.372C894.654 265.469 903.852 262.42 910.256 257.857C919.437 251.315 926.512 243.153 923.81 229.32C920.78 213.845 921.418 212.072 903.063 213.516C900.722 213.699 898.38 213.791 896.03 213.929L896.022 213.936ZM710.839 201.051C711.183 200.386 711.535 199.729 711.879 199.064C720.868 201.227 729.764 203.825 738.878 205.369C743.763 206.195 749.856 205.392 749.26 198.881C748.773 193.607 748.161 187.952 738.836 188.319C727.028 188.785 716.856 194.632 705.224 195.411C701.657 195.648 699.492 198.911 697.838 201.861C688.38 218.759 687.348 237.047 686.626 255.549C689.958 250.643 695.824 250.123 700.339 247.716C707.289 244.017 712.014 238.369 712.526 231.33C713.717 215.044 713.273 215.022 733.306 219.79C724.426 212.385 717.628 206.714 710.839 201.051ZM598.067 159.889C587.047 159.606 578.588 163.068 571.303 169.45C573.829 171.513 578.437 168.854 580.526 172.973C576.187 174.303 572.058 175.564 567.929 176.825C575.205 176.045 580.711 183.374 587.425 180.592C603.849 173.783 621.65 169.389 635.523 157.971C639.485 154.715 641.734 150.16 635.557 149.61C626.619 148.815 618.881 144.589 609.363 143.313C611.629 146.11 614.726 148.311 614.382 149.862C613.694 152.935 609.825 151.238 607.316 151.742C601.382 152.942 595.49 154.341 587.005 156.228C592.461 158.032 595.264 158.964 598.075 159.889H598.067ZM441.519 258.003C425.666 244.919 401.033 248.243 386.573 231.644C384.433 240.723 394.093 248.717 385.431 256.314C407.185 274.846 421.612 275.481 441.528 258.003H441.519ZM373.128 144.933C364.945 140.867 361.63 149.236 355.755 152.361C349.309 155.793 364.408 154.272 357.173 156.962C349.989 159.637 354.454 163.359 355.646 166.079C358.239 171.995 366.086 174.257 368.52 180.822C369.594 183.718 373.766 183.993 376.552 181.617C381.579 177.321 386.212 172.583 381.755 165.797C379.313 162.075 378.885 159.125 381.411 154.998C387.655 144.818 387.32 144.65 373.136 144.925L373.128 144.933ZM387.991 211.445C393.236 211.445 397.559 211.865 401.738 211.33C406.136 210.765 408.872 208.013 407.798 203.726C406.69 199.278 387.664 193.065 384.147 196.191C373.388 205.728 362.981 215.618 357.459 230.222C363.787 229.099 370.551 233.012 371.86 223.321C372.599 217.826 377.786 215.388 384.466 218.147C386.992 219.187 390.87 221.273 392.632 217.704C393.967 215.006 388.713 214.777 387.999 211.452L387.991 211.445ZM623.916 217.872C631.889 223.451 641.188 213.531 646.585 222.618C650.512 229.229 643.664 236.191 646.711 243.574C648.347 241.717 650.361 239.141 650.571 239.256C658.981 243.933 660.525 236.993 661.238 232.981C663.236 221.716 664.167 210.36 678.2 204.131C670.63 202.954 664.444 202.916 658.259 202.977C656.429 202.992 652.913 202.946 653.593 204.72C657.285 214.395 648.104 211.926 643.832 213.31C637.697 215.297 631.167 216.267 623.916 217.872ZM280.507 495.231C287.8 495.3 292.131 493.213 287.263 485.173C285.895 482.919 284.267 480.114 286.231 478.181C294.522 469.965 286.264 467.198 280.624 464.18C276.378 461.91 270.813 456.751 266.575 463.117C263.008 468.475 263.839 475.062 270.1 479.006C275.37 482.323 277.93 484.042 269.907 486.946C264.183 489.018 266.516 491.822 270.553 493.343C273.348 494.398 276.571 494.528 280.515 495.231H280.507ZM632.535 253.692C639.434 247.104 640.114 241.159 638.838 233.883C637.361 225.446 634.39 222.786 626.468 226.967C620.098 230.329 614.256 234.586 608.44 238.744C605.251 241.029 602.725 244.498 604.982 248.083C607.391 251.896 611.252 248.297 614.441 248.419C620.702 248.663 629.178 241.235 632.535 253.677V253.692ZM474.108 185.094C462.66 188.074 436.895 204.292 432.38 210.902C431.138 212.721 429.165 217.482 431.314 216.772C443.198 212.851 431.389 223.994 437.617 223.291C443.735 220.18 447.377 214.12 452.027 208.923C453.915 206.814 455.577 202.801 458.976 204.322C465.64 207.31 466.37 202.534 468.04 199.362C470.214 195.228 471.724 190.795 474.108 185.101V185.094ZM810.535 214.746C815.302 220.188 821.84 212.95 826.665 217.819C824.458 212.805 821.26 208.548 825.029 203.65C819.599 200.218 814.345 195.9 807.102 197.276C798.81 198.85 801.051 205.369 800.589 210.421C800.363 212.905 800.497 215.442 800.791 217.926C801.16 221.036 800.841 225.851 804.626 226.042C809.637 226.294 809.469 221.472 809.763 217.903C809.846 216.917 810.241 215.954 810.551 214.746H810.535ZM550.279 370.293C555.961 361.534 558.932 352.379 562.264 343.292C564.043 338.454 559.066 337.438 557.74 334.442C556.893 332.531 554.257 333.769 552.747 334.931C545.663 340.38 541.551 347.602 538.429 355.359C537.892 356.704 538.353 359.15 539.805 358.798C552.764 355.642 544.53 367.274 550.279 370.293ZM349.503 287.67C342.738 287.747 339.037 291.346 337.132 296.627C334.773 303.154 327.917 305.095 323.578 302.466C315.076 297.307 313.112 305.989 307.816 307.128C304.736 307.793 305.693 310.987 309.638 311.843C332.801 316.887 344.056 310.147 349.503 287.67ZM0 669.126C2.1653 667.965 4.31381 667.842 6.74767 668.676C18.4386 672.68 30.5324 669.585 41.896 668.293C53.0414 667.025 63.2468 667.315 74.2915 668.523C87.6694 669.982 101.677 668.836 114.543 663.708C117.119 662.684 120.837 661.889 118.84 657.579C113.913 646.933 117.346 636.447 127.66 629.898C131.756 627.299 135.096 624.189 136.833 632.473C137.421 635.278 136.439 642.294 142.884 642.653C146.225 642.844 149.145 642.263 150.74 645.458C152.914 649.806 148.298 650.67 146.107 652.894C144.068 654.965 142.641 657.518 140.308 660.735C145.897 661.217 150.304 663.731 154.987 664.954C163.035 667.055 172.603 671.465 179.434 664.51C185.276 658.565 200.475 656.142 191.847 642.5C190.085 639.711 194.096 635.347 197.672 632.664C200.768 630.333 205.091 629.027 206.744 623.868C198.477 630.226 191.755 624.9 185.603 622.095C181.6 620.268 182.733 613.711 185.175 611.327C194.44 602.263 191.511 587.001 205.25 581.193C202.346 576.852 194.793 581.789 195.33 577.349C196.085 571.143 193.744 570.295 188.557 570.83C183.58 571.349 178.503 571.296 177.135 577.761C174.676 589.424 171.596 600.994 168.297 612.496C165.293 622.966 163.95 622.737 154.601 616.363C150.505 613.574 151.932 610.203 149.993 606.527C145.553 611.189 141.684 611.411 138.201 605.878C136.682 603.455 134.383 600.391 131.806 599.756C121.038 597.112 123.649 591.418 126.846 585.152C127.786 583.31 128.978 579.511 126.51 579.71C113.712 580.734 118.177 571.059 115.357 565.916C113.561 562.645 114.165 555.407 106.972 559.076C100.267 562.492 98.563 558.915 96.3473 554.987C93.7121 550.317 91.6055 545.319 85.8734 542.965C88.4247 549.163 92.3021 554.483 95.7431 560.031C99.075 565.419 98.6721 565.862 91.5887 565.617C89.8263 565.556 88.4499 565.831 87.6526 567.238C86.6287 569.049 86.9728 571.395 88.7017 572.029C97.4971 575.247 98.3028 582.515 98.7728 589.576C103.901 588.354 100.737 579.557 107.442 582.813C110.951 584.51 116.179 588.132 112.042 594.246C110.111 597.097 105.395 601.483 110.388 604.594C117.295 608.897 111.924 610.838 109.398 613.474C106.586 616.417 102.533 618.557 101.593 622.691C100.661 626.749 100.283 630.448 93.6617 629.309C89.7675 628.637 88.9199 632.603 87.8288 635.133C85.8146 639.795 84.0941 644.571 82.5247 649.371C80.158 656.616 75.9197 658.985 71.0688 651.702C66.8557 645.381 62.3488 645.007 55.4333 646.948C45.3286 649.791 43.0206 647.231 45.337 637.823C46.7553 632.068 50.9852 623.807 44.9677 620.903C38.1025 617.594 28.0733 617.219 20.2766 618.893C15.2998 619.963 12.4043 627.131 12.3372 633.429C12.3036 636.998 16.1894 643.456 6.36161 642.21C3.92775 641.904 4.80898 644.976 4.84255 646.52C4.90969 649.401 5.39646 652.275 5.84966 656.524C2.91224 654.208 1.46032 653.062 0.00839282 651.916C0.00839282 657.648 0.00839282 663.387 0.00839282 669.119L0 669.126ZM829.133 654.293C829.359 651.075 829.468 647.85 829.829 644.648C830.803 636.042 835.058 633.566 842.779 638.274C850.047 642.707 854.688 641.606 859.674 635.645C863.727 630.8 868.939 626.879 875.049 624.12C877.105 623.196 880.059 622.485 879.598 619.879C879.035 616.699 875.594 616.539 872.967 616.699C862.754 617.319 857.785 610.578 851.751 604.984C847.311 600.872 848.108 597.632 853.085 594.185C844.558 594.812 831.936 587.895 832.389 582.202C832.725 577.952 837.349 573.367 832.893 569.569C825.062 562.882 838.902 566.229 837.139 560.879C834.857 553.948 843.979 561.215 845.238 556.057C844.39 552.962 838.558 554.253 836.787 550.891C845.096 550.126 853.248 547.011 861.243 541.544C860.001 538.556 854.94 540.298 854.109 536.744C854.52 536.194 854.848 535.231 855.377 535.132C866.665 533.038 876.534 523.492 877.843 512.747C879.22 501.475 889.543 506.366 895.837 504.914C898.103 504.394 905.464 500.519 906.378 508.116C909.887 507.696 913.386 507.1 914.007 503.179C914.62 499.32 914.905 495.414 915.51 489.912C919.907 496.591 920.94 503.21 923.617 508.957C926.126 514.352 925.9 519.511 934.544 518.731C937.993 518.418 937.49 521.238 936.81 523.454C935.753 526.901 934.762 530.363 933.336 535.201C945.228 529.102 959.286 533.015 970.078 525.105C967.225 522.094 963.935 522.698 960.88 522.53C958.555 522.4 956.214 520.443 957.8 519.343C967.519 512.587 954.023 511.7 954.418 507.367C957.951 504.356 961.946 508.605 966.428 506.358C961.795 500.871 955.333 499.358 948.669 498.387C945.194 497.883 941.527 498.272 938.153 497.516C934.955 496.798 930.348 497.317 929.416 493.443C929.072 492.006 931.346 489.721 932.933 488.284C936.239 485.303 940.209 485.471 943.65 487.955C948.577 491.509 953.075 495.399 959.47 496.981C968.383 499.182 968.324 494.535 971.723 488.857C977.347 479.465 967.384 476.576 966.638 469.827C973.553 473.74 980.284 473.863 987.241 471.593C988.609 471.142 991.429 470.89 991.463 471.02C993.544 478.838 1000.95 479.999 1007.67 482.239C1015.05 484.7 1022.14 487.558 1030.4 486.931C1034.34 486.633 1036.3 486.327 1035.37 482.216C1035.12 481.092 1036.19 477.332 1036.89 478.815C1039.78 484.837 1048.1 474.184 1049.3 482.82C1050.13 488.811 1045.43 497.768 1053.44 499.939C1058.91 501.421 1062.78 492.342 1068.32 489.025C1070.35 487.818 1086.53 489.209 1088.09 491.463C1097.63 505.265 1110.37 504.287 1124.53 498.754C1127.21 497.707 1133.38 497.539 1132.88 498.815C1130.13 505.869 1147.1 506.855 1138.38 515.307C1135.86 517.745 1133.14 518.051 1130.3 518.976C1128.36 519.61 1126.71 520.718 1126.69 522.744C1126.68 524.509 1128.47 525.227 1129.96 525.197C1142.86 524.922 1147.71 532.671 1150.55 542.285C1137.91 543.409 1134.84 549.324 1142.83 559.718C1146.12 563.997 1147.75 567.574 1145.83 572.404C1144.14 576.638 1146.91 578.587 1150.17 581.185C1158.9 588.124 1160.45 600.154 1154.41 608.744C1153.61 609.875 1152.22 611.579 1151.21 611.526C1136.18 610.685 1139.05 620.88 1139.21 628.408C1139.37 635.691 1137.84 643.318 1146.02 649.394C1152.2 653.987 1156.11 661.133 1160.91 667.224C1162.87 669.715 1162.98 672.313 1158.91 672.741C1152.49 673.421 1153.27 677.976 1152.79 681.629C1151.28 692.994 1154.12 695.034 1165.98 692.528C1180.08 689.547 1194.73 687.606 1198.99 671.794C1199.81 668.737 1207.09 666.047 1201.9 663.272C1197.9 661.132 1192.55 657.426 1186.63 660.238C1185.95 660.567 1185.37 661.102 1184.7 661.476C1180.83 663.624 1175.7 668.607 1172.63 665.481C1168.44 661.224 1173.11 654.399 1177.23 652.741C1192.58 646.551 1203.67 634.399 1220.08 629.653C1214 634.483 1207.93 639.321 1201.82 644.182C1216.27 653.383 1229.33 645.343 1242.69 641.667C1245.41 640.918 1248.68 639.81 1250.59 641.629C1262.1 652.558 1274.73 647.422 1286.58 643.303C1293.79 640.796 1294.18 643.784 1294.04 648.209C1293.4 667.85 1294.04 687.514 1291.3 707.132C1290.22 714.798 1286.41 718.091 1279.04 718.894C1271.95 719.666 1266.79 717.144 1264.96 710.289C1264.63 709.05 1263.43 708.011 1262.46 706.651C1254.17 719.949 1251.36 720.751 1233.75 717.472C1229.28 716.639 1224.22 717.09 1219.7 718.015C1200.4 721.958 1181.41 719.605 1162.45 716.257C1158.76 715.608 1155.56 715.936 1152.23 717.511C1133.85 726.238 1118.28 722.509 1107.47 707.002C1104.05 702.103 1099.18 701.637 1094.24 704.648C1090.34 707.018 1086.96 710.105 1083.44 712.948C1073.66 720.835 1073.24 720.743 1069.54 709.417C1064.92 710.35 1067 713.957 1066.33 716.303C1065.16 720.468 1063.2 724.358 1057.96 723.762C1050.45 722.899 1042.78 724.863 1035.72 723.579C1025.39 721.699 1015.14 719.223 1004.65 719.742C996.633 720.14 995.533 712.696 989.675 710.426C986.738 709.287 991.622 706.093 994.425 705.657C999.797 704.824 1005.86 706.123 1010.35 702.761C1013.73 700.239 1020.81 704.603 1020.87 699.138C1020.93 693.33 1020.85 686.842 1016.57 681.645C1015.66 680.537 1013.96 679.963 1013.06 678.848C1000.85 663.777 992.638 664.044 979.94 680.261C977.355 683.555 974.661 683.089 971.95 681.293C962.03 674.736 955.626 679.299 951.48 687.262C947.838 694.247 942.962 695.455 935.299 693.789C922.744 691.06 910.147 688.187 896.962 689.585C893.445 689.96 888.897 691.343 889.82 684.679C890.55 679.451 891.532 675.898 898.12 677.709C905.136 679.642 908.233 675.347 911.582 671.412C913.73 668.882 915.871 666.215 917.222 663.303C919.102 659.23 932.589 659.558 923.533 651.832C918.514 647.544 927.368 641.247 919.211 638.014C917.625 637.387 916.668 633.582 912.858 634.445C909.274 635.255 909.341 637.846 909.316 640.399C909.265 645.764 909.282 651.121 909.14 656.486C909.056 659.428 911.33 663.693 906.135 664.434C901.746 665.053 900.948 660.827 899.228 658.129C896.643 654.086 898.976 649.761 898.884 645.618C894.226 644.61 893.924 647.98 893.026 649.852C890.097 655.997 884.667 653.689 879.824 653.544C881.503 648.24 874.789 642.6 880.235 637.624C884.331 633.88 889.064 630.716 892.866 626.413C878.439 633.956 866.27 644.824 848.981 649.264C852.783 654.101 856.526 656.272 861.1 657.533C863.727 658.251 866.824 659 866.245 662.348C865.733 665.313 862.712 665.787 860.06 666.559C844.407 671.136 834.638 664.166 836.451 649.401C833.841 651.022 832.33 653.865 828.948 654.147L829.141 654.308L829.133 654.293ZM1091.5 615.851C1088.9 626.054 1083.64 620.964 1078.94 618.9C1073.06 616.31 1073.5 608.759 1067.83 606.321C1064.49 607.62 1066.98 611.648 1063.17 612.336C1062.77 611.281 1062.46 610.272 1062 609.325C1060.42 606.015 1062.95 599.664 1057.12 599.833C1051.52 599.993 1049.88 605.618 1049.25 610.417C1048.89 613.26 1048.89 616.142 1048.56 618.985C1048.21 621.904 1047.33 624.839 1044.29 626.291C1034.39 630.991 1021.96 628.071 1014.12 619.504C1012.63 617.876 1010.78 616.516 1006.95 613.13C1012.04 624.418 1022.73 632.901 1008.75 641.889C996.196 628.408 990.028 609.6 972.806 595.583C974.073 606.734 982.819 612.275 985.336 620.597C980.368 621.438 978.488 615.438 973.889 618.044C972.076 625.809 981.115 628.744 984.077 635.057C975.802 634.529 972.89 627.047 964.38 626.275C969.365 632.061 976.633 635.293 976.96 642.554C985.806 641.216 991.018 648.201 998.404 650.334C1006.78 652.756 1018.36 653.192 1011.46 667.598C1027.18 656.111 1040.76 654.3 1049.77 663.089C1060.72 673.765 1076.02 679.864 1084.93 692.764C1088.75 698.298 1096.79 699.176 1104.28 698.58C1117.08 697.556 1123.51 688.233 1131.68 681.24C1133.96 679.283 1130.73 677.984 1130.08 676.387C1126.68 667.965 1115.6 665.229 1112.9 656.845C1110.39 649.057 1107.52 643.685 1097.13 651.427C1097.34 638.618 1094.39 627.873 1091.53 615.851H1091.5ZM924.632 612.58C922.568 608.514 919.656 603.898 917.826 598.954C914.905 591.036 910.071 592.389 904.725 596.256C900.823 599.076 896.257 602.018 897.977 607.559C900.311 615.064 905.833 619.023 914.41 620.689C921.838 622.126 923.222 618.472 924.632 612.595V612.58ZM324.14 691.519C334.119 693.147 341.143 690.686 343.678 680.988C344.945 676.119 346.12 671.205 347.883 666.482C349.041 663.364 348.252 658.16 353.254 658.007C359.515 657.816 359.33 651.832 358.625 651.174C351.45 644.487 355.042 635.011 351.836 627.857C346.699 628.194 348.277 637.586 342.805 633.192C336.544 628.163 335.285 636.868 331.064 635.156C329.704 632.374 334.933 630.41 332.289 627.437C326.924 629.409 322.285 633.615 318.374 640.055C318.039 640.605 317.191 641.041 316.478 641.247C300.691 645.924 300.02 662.898 287.515 670.319C294.12 666.436 299.684 661.606 305.391 656.921C308.16 654.652 310.326 652.902 313.607 657.464C317.879 663.402 327.128 662.493 331.526 656.669C333.003 654.72 333.775 652.03 337.056 651.541C339.406 654.805 334.413 660.888 337.87 661.178C349.62 662.179 341.672 667.888 340.573 670.365C338.76 674.446 337.467 679.199 332.424 682.722C328.647 671.381 323.888 672.78 319.247 683.173C317.241 679.719 316.024 677.61 314.799 675.5C312.583 683.609 314.069 689.876 324.14 691.519ZM183.924 535.751C184.529 542.851 185.746 549.928 187.072 556.951C187.802 560.856 189.312 564.693 194.407 565.709C200.592 566.932 203.152 559.947 203.009 558.869C201.859 549.981 209.891 545.037 212.594 537.975C216.765 527.084 214.465 521.314 202.69 515.392C200.458 514.268 199.392 513.817 200.928 511.784C208.187 502.14 192.905 505.686 192.863 500.328C181.851 500.428 174.315 508.513 163.95 510.776C159.2 511.807 159.98 519.343 159.217 525.648C176.044 516.385 182.548 519.473 183.924 535.751ZM742.714 35.5163C733.767 34.8056 724.754 29.7387 717.418 29.9603C701.934 30.4189 685.787 33.5752 672.073 41.9054C667.91 44.4351 663.865 48.0499 667.147 52.3755C670.286 56.5024 676.689 55.1574 679.543 52.0775C687.599 43.3957 695.061 48.6231 703.906 50.442C713.155 52.345 721.892 54.2173 729.781 59.0626C731.401 60.0562 733.868 60.1937 735.186 58.543C739.583 53.0633 743.301 47.2169 745.433 41.3781C745.886 38.3517 745.374 35.7227 742.714 35.5163ZM638.016 691.786C629.699 689.394 630.748 697.212 628.683 701.255C627.71 703.166 627.567 705.413 626.828 707.438C625.847 710.136 623.497 712.405 620.693 710.533C611.436 704.381 604.168 713.766 595.482 712.979C593.51 712.803 588.642 718.42 589.154 720.575C590.144 724.733 594.987 724.389 598.881 722.608C601.004 721.638 603.799 719.742 605.369 721.294C615.028 730.877 626.728 723.449 637.319 724.786C647.08 726.017 652.325 719.589 653.467 712.467C654.298 707.262 656.01 702.058 657.512 694.996C650.924 699.138 646.19 702.119 638.276 707.094C641.826 699.864 645.452 693.926 638.024 691.794L638.016 691.786ZM313.305 614.346C326.247 615.438 344.568 606.405 349.158 596.707C349.847 595.247 350.04 594.131 348.588 592.985C346.573 591.395 323.779 591.204 323.452 593.138C321.975 601.843 314.883 597.418 310.267 598.167C307.8 598.572 304.921 596.737 302.395 597.051C299.994 597.349 296.394 598.358 296.998 601.491C297.485 603.975 300.59 603.631 302.932 603.554C307.816 603.386 312.718 601.246 317.946 603.539C314.875 607.972 306.515 606.038 305.794 612.527C308.32 613.146 310.838 613.765 313.313 614.353L313.305 614.346ZM290.695 614.399C287.003 618.404 285.139 623.776 276.277 620.75C272.349 619.412 268.086 626.573 266.6 631.419C265.92 633.643 269.068 633.994 270.906 633.566C279.802 631.495 290.687 635.179 297.082 625.549C299.289 622.225 303.779 620.834 308.085 619.779C310.922 619.084 314.765 618.664 313.305 614.346C310.838 613.749 308.311 613.13 305.785 612.519C300.414 610.868 295.11 609.607 290.687 614.407L290.695 614.399ZM619.007 666.291C621.835 667.865 624.739 665.481 626.14 662.47C631.755 650.464 643.345 643.631 653.937 635.943C653.928 635.943 654.205 635.905 654.205 635.905C647.206 633.199 639.669 626.879 637.252 640.658C636.648 644.09 629.145 646.52 624.009 649.936C623.035 645.137 627.978 643.876 628.045 640.551C624.378 639.405 622.741 642.852 619.946 643.417C616.019 646.879 612.091 650.341 608.163 653.803C606.074 661.981 613.954 663.479 618.99 666.291H619.007Z" fill="white"/>
</mask>
<g mask="url(#mask0_53_68754)">
<path d="M1104.92 -258.977H1103.04V980.234H1104.92V-258.977Z" fill="#00FF36"/>
<path d="M1098.55 -258.977H1096.67V980.234H1098.55V-258.977Z" fill="#00FF36"/>
<path d="M1092.18 -258.977H1090.3V980.234H1092.18V-258.977Z" fill="#00FF36"/>
<path d="M1085.8 -258.977H1083.92V980.234H1085.8V-258.977Z" fill="#00FF36"/>
<path d="M1079.43 -258.977H1077.55V980.234H1079.43V-258.977Z" fill="#00FF36"/>
<path d="M1073.05 -258.977H1071.17V980.234H1073.05V-258.977Z" fill="#00FF36"/>
<path d="M1066.68 -258.977H1064.8V980.234H1066.68V-258.977Z" fill="#00FF36"/>
<path d="M1060.31 -258.977H1058.43V980.234H1060.31V-258.977Z" fill="#00FF36"/>
<path d="M1053.93 -258.977H1052.05V980.234H1053.93V-258.977Z" fill="#00FF36"/>
<path d="M1047.56 -258.977H1045.68V980.234H1047.56V-258.977Z" fill="#00FF36"/>
<path d="M1041.18 -258.977H1039.3V980.234H1041.18V-258.977Z" fill="#00FF36"/>
<path d="M1034.82 -258.977H1032.94V980.234H1034.82V-258.977Z" fill="#00FF36"/>
<path d="M1028.44 -258.977H1026.56V980.234H1028.44V-258.977Z" fill="#00FF36"/>
<path d="M1022.07 -258.977H1020.19V980.234H1022.07V-258.977Z" fill="#00FF36"/>
<path d="M1015.7 -258.977H1013.82V980.234H1015.7V-258.977Z" fill="#00FF36"/>
<path d="M1009.32 -258.977H1007.44V980.234H1009.32V-258.977Z" fill="#00FF36"/>
<path d="M1002.95 -258.977H1001.07V980.234H1002.95V-258.977Z" fill="#00FF36"/>
<path d="M996.579 -258.977H994.699V980.234H996.579V-258.977Z" fill="#00FF36"/>
<path d="M990.2 -258.977H988.32V980.234H990.2V-258.977Z" fill="#00FF36"/>
<path d="M983.829 -258.977H981.949V980.234H983.829V-258.977Z" fill="#00FF36"/>
<path d="M977.46 -258.977H975.58V980.234H977.46V-258.977Z" fill="#00FF36"/>
<path d="M971.083 -258.977H969.203V980.234H971.083V-258.977Z" fill="#00FF36"/>
<path d="M964.714 -258.977H962.834V980.234H964.714V-258.977Z" fill="#00FF36"/>
<path d="M958.333 -258.977H956.453V980.234H958.333V-258.977Z" fill="#00FF36"/>
<path d="M951.964 -258.977H950.084V980.234H951.964V-258.977Z" fill="#00FF36"/>
<path d="M945.593 -258.977H943.713V980.234H945.593V-258.977Z" fill="#00FF36"/>
<path d="M939.214 -258.977H937.334V980.234H939.214V-258.977Z" fill="#00FF36"/>
<path d="M932.845 -258.977H930.965V980.234H932.845V-258.977Z" fill="#00FF36"/>
<path d="M926.468 -258.977H924.588V980.234H926.468V-258.977Z" fill="#00FF36"/>
<path d="M920.099 -258.977H918.219V980.234H920.099V-258.977Z" fill="#00FF36"/>
<path d="M913.728 -258.977H911.848V980.234H913.728V-258.977Z" fill="#00FF36"/>
<path d="M907.349 -258.977H905.469V980.234H907.349V-258.977Z" fill="#00FF36"/>
<path d="M900.978 -258.977H899.098V980.234H900.978V-258.977Z" fill="#00FF36"/>
<path d="M894.599 -258.977H892.719V980.234H894.599V-258.977Z" fill="#00FF36"/>
<path d="M888.23 -258.977H886.35V980.234H888.23V-258.977Z" fill="#00FF36"/>
<path d="M881.86 -258.977H879.98V980.234H881.86V-258.977Z" fill="#00FF36"/>
<path d="M875.483 -258.977H873.604V980.234H875.483V-258.977Z" fill="#00FF36"/>
<path d="M869.112 -258.977H867.232V980.234H869.112V-258.977Z" fill="#00FF36"/>
<path d="M862.733 -258.977H860.854V980.234H862.733V-258.977Z" fill="#00FF36"/>
<path d="M856.362 -258.977H854.482V980.234H856.362V-258.977Z" fill="#00FF36"/>
<path d="M849.993 -258.977H848.113V980.234H849.993V-258.977Z" fill="#00FF36"/>
<path d="M843.614 -258.977H841.734V980.234H843.614V-258.977Z" fill="#00FF36"/>
<path d="M837.245 -258.977H835.365V980.234H837.245V-258.977Z" fill="#00FF36"/>
<path d="M830.874 -258.977H828.994V980.234H830.874V-258.977Z" fill="#00FF36"/>
<path d="M824.497 -258.977H822.617V980.234H824.497V-258.977Z" fill="#00FF36"/>
<path d="M818.128 -258.977H816.248V980.234H818.128V-258.977Z" fill="#00FF36"/>
<path d="M811.749 -258.977H809.869V980.234H811.749V-258.977Z" fill="#00FF36"/>
<path d="M805.378 -258.977H803.498V980.234H805.378V-258.977Z" fill="#00FF36"/>
<path d="M799.009 -258.977H797.129V980.234H799.009V-258.977Z" fill="#00FF36"/>
<path d="M792.63 -258.977H790.75V980.234H792.63V-258.977Z" fill="#00FF36"/>
<path d="M786.259 -258.977H784.379V980.234H786.259V-258.977Z" fill="#00FF36"/>
<path d="M779.882 -258.977H778.002V980.234H779.882V-258.977Z" fill="#00FF36"/>
<path d="M773.513 -258.977H771.633V980.234H773.513V-258.977Z" fill="#00FF36"/>
<path d="M767.144 -258.977H765.264V980.234H767.144V-258.977Z" fill="#00FF36"/>
<path d="M760.765 -258.977H758.885V980.234H760.765V-258.977Z" fill="#00FF36"/>
<path d="M754.394 -258.977H752.514V980.234H754.394V-258.977Z" fill="#00FF36"/>
<path d="M748.015 -258.977H746.135V980.234H748.015V-258.977Z" fill="#00FF36"/>
<path d="M741.644 -258.977H739.764V980.234H741.644V-258.977Z" fill="#00FF36"/>
<path d="M735.274 -258.977H733.395V980.234H735.274V-258.977Z" fill="#00FF36"/>
<path d="M728.898 -258.977H727.018V980.234H728.898V-258.977Z" fill="#00FF36"/>
<path d="M722.528 -258.977H720.648V980.234H722.528V-258.977Z" fill="#00FF36"/>
<path d="M716.149 -258.977H714.27V980.234H716.149V-258.977Z" fill="#00FF36"/>
<path d="M709.778 -258.977H707.898V980.234H709.778V-258.977Z" fill="#00FF36"/>
<path d="M703.407 -258.977H701.527V980.234H703.407V-258.977Z" fill="#00FF36"/>
<path d="M697.028 -258.977H695.148V980.234H697.028V-258.977Z" fill="#00FF36"/>
<path d="M690.659 -258.977H688.779V980.234H690.659V-258.977Z" fill="#00FF36"/>
<path d="M684.282 -258.977H682.402V980.234H684.282V-258.977Z" fill="#00FF36"/>
<path d="M677.911 -258.977H676.031V980.234H677.911V-258.977Z" fill="#00FF36"/>
<path d="M671.54 -258.977H669.66V980.234H671.54V-258.977Z" fill="#00FF36"/>
<path d="M665.163 -258.977H663.283V980.234H665.163V-258.977Z" fill="#00FF36"/>
<path d="M658.794 -258.977H656.914V980.234H658.794V-258.977Z" fill="#00FF36"/>
<path d="M652.413 -258.977H650.533V980.234H652.413V-258.977Z" fill="#00FF36"/>
<path d="M646.044 -258.977H644.164V980.234H646.044V-258.977Z" fill="#00FF36"/>
<path d="M639.675 -258.977H637.795V980.234H639.675V-258.977Z" fill="#00FF36"/>
<path d="M633.296 -258.977H631.416V980.234H633.296V-258.977Z" fill="#00FF36"/>
<path d="M626.925 -258.977H625.045V980.234H626.925V-258.977Z" fill="#00FF36"/>
<path d="M620.548 -258.977H618.668V980.234H620.548V-258.977Z" fill="#00FF36"/>
<path d="M614.179 -258.977H612.299V980.234H614.179V-258.977Z" fill="#00FF36"/>
<path d="M607.81 -258.977H605.93V980.234H607.81V-258.977Z" fill="#00FF36"/>
<path d="M601.429 -258.977H599.549V980.234H601.429V-258.977Z" fill="#00FF36"/>
<path d="M595.06 -258.977H593.18V980.234H595.06V-258.977Z" fill="#00FF36"/>
<path d="M588.681 -258.977H586.801V980.234H588.681V-258.977Z" fill="#00FF36"/>
<path d="M582.31 -258.977H580.43V980.234H582.31V-258.977Z" fill="#00FF36"/>
<path d="M575.94 -258.977H574.061V980.234H575.94V-258.977Z" fill="#00FF36"/>
<path d="M569.564 -258.977H567.684V980.234H569.564V-258.977Z" fill="#00FF36"/>
<path d="M563.194 -258.977H561.314V980.234H563.194V-258.977Z" fill="#00FF36"/>
<path d="M556.823 -258.977H554.943V980.234H556.823V-258.977Z" fill="#00FF36"/>
<path d="M550.444 -258.977H548.564V980.234H550.444V-258.977Z" fill="#00FF36"/>
<path d="M544.073 -258.977H542.193V980.234H544.073V-258.977Z" fill="#00FF36"/>
<path d="M537.694 -258.977H535.814V980.234H537.694V-258.977Z" fill="#00FF36"/>
<path d="M531.325 -258.977H529.445V980.234H531.325V-258.977Z" fill="#00FF36"/>
<path d="M524.956 -258.977H523.076V980.234H524.956V-258.977Z" fill="#00FF36"/>
<path d="M518.579 -258.977H516.699V980.234H518.579V-258.977Z" fill="#00FF36"/>
<path d="M512.208 -258.977H510.328V980.234H512.208V-258.977Z" fill="#00FF36"/>
<path d="M505.827 -258.977H503.947V980.234H505.827V-258.977Z" fill="#00FF36"/>
<path d="M499.458 -258.977H497.578V980.234H499.458V-258.977Z" fill="#00FF36"/>
<path d="M493.089 -258.977H491.209V980.234H493.089V-258.977Z" fill="#00FF36"/>
<path d="M486.71 -258.977H484.83V980.234H486.71V-258.977Z" fill="#00FF36"/>
<path d="M480.339 -258.977H478.459V980.234H480.339V-258.977Z" fill="#00FF36"/>
<path d="M473.964 -258.977H472.084V980.234H473.964V-258.977Z" fill="#00FF36"/>
<path d="M467.593 -258.977H465.713V980.234H467.593V-258.977Z" fill="#00FF36"/>
<path d="M461.224 -258.977H459.344V980.234H461.224V-258.977Z" fill="#00FF36"/>
<path d="M454.843 -258.977H452.963V980.234H454.843V-258.977Z" fill="#00FF36"/>
<path d="M448.474 -258.977H446.594V980.234H448.474V-258.977Z" fill="#00FF36"/>
<path d="M442.095 -258.977H440.215V980.234H442.095V-258.977Z" fill="#00FF36"/>
<path d="M435.724 -258.977H433.844V980.234H435.724V-258.977Z" fill="#00FF36"/>
<path d="M429.355 -258.977H427.475V980.234H429.355V-258.977Z" fill="#00FF36"/>
<path d="M422.978 -258.977H421.098V980.234H422.978V-258.977Z" fill="#00FF36"/>
<path d="M416.607 -258.977H414.727V980.234H416.607V-258.977Z" fill="#00FF36"/>
<path d="M410.228 -258.977H408.348V980.234H410.228V-258.977Z" fill="#00FF36"/>
<path d="M403.858 -258.977H401.979V980.234H403.858V-258.977Z" fill="#00FF36"/>
<path d="M397.487 -258.977H395.607V980.234H397.487V-258.977Z" fill="#00FF36"/>
<path d="M391.108 -258.977H389.229V980.234H391.108V-258.977Z" fill="#00FF36"/>
<path d="M384.739 -258.977H382.859V980.234H384.739V-258.977Z" fill="#00FF36"/>
<path d="M378.37 -258.977H376.49V980.234H378.37V-258.977Z" fill="#00FF36"/>
<path d="M371.991 -258.977H370.111V980.234H371.991V-258.977Z" fill="#00FF36"/>
<path d="M365.62 -258.977H363.74V980.234H365.62V-258.977Z" fill="#00FF36"/>
<path d="M359.243 -258.977H357.363V980.234H359.243V-258.977Z" fill="#00FF36"/>
<path d="M352.872 -258.977H350.992V980.234H352.872V-258.977Z" fill="#00FF36"/>
<path d="M346.503 -258.977H344.623V980.234H346.503V-258.977Z" fill="#00FF36"/>
<path d="M340.124 -258.977H338.244V980.234H340.124V-258.977Z" fill="#00FF36"/>
<path d="M333.755 -258.977H331.875V980.234H333.755V-258.977Z" fill="#00FF36"/>
<path d="M327.376 -258.977H325.496V980.234H327.376V-258.977Z" fill="#00FF36"/>
<path d="M321.005 -258.977H319.125V980.234H321.005V-258.977Z" fill="#00FF36"/>
<path d="M314.636 -258.977H312.756V980.234H314.636V-258.977Z" fill="#00FF36"/>
<path d="M308.257 -258.977H306.377V980.234H308.257V-258.977Z" fill="#00FF36"/>
<path d="M301.888 -258.977H300.008V980.234H301.888V-258.977Z" fill="#00FF36"/>
<path d="M295.509 -258.977H293.629V980.234H295.509V-258.977Z" fill="#00FF36"/>
<path d="M289.14 -258.977H287.26V980.234H289.14V-258.977Z" fill="#00FF36"/>
<path d="M282.769 -258.977H280.889V980.234H282.769V-258.977Z" fill="#00FF36"/>
<path d="M276.39 -258.977H274.51V980.234H276.39V-258.977Z" fill="#00FF36"/>
<path d="M270.021 -258.977H268.141V980.234H270.021V-258.977Z" fill="#00FF36"/>
<path d="M263.644 -258.977H261.764V980.234H263.644V-258.977Z" fill="#00FF36"/>
<path d="M257.273 -258.977H255.393V980.234H257.273V-258.977Z" fill="#00FF36"/>
<path d="M250.903 -258.977H249.023V980.234H250.903V-258.977Z" fill="#00FF36"/>
<path d="M244.524 -258.977H242.645V980.234H244.524V-258.977Z" fill="#00FF36"/>
<path d="M238.153 -258.977H236.273V980.234H238.153V-258.977Z" fill="#00FF36"/>
<path d="M231.774 -258.977H229.895V980.234H231.774V-258.977Z" fill="#00FF36"/>
<path d="M225.405 -258.977H223.525V980.234H225.405V-258.977Z" fill="#00FF36"/>
<path d="M219.036 -258.977H217.156V980.234H219.036V-258.977Z" fill="#00FF36"/>
<path d="M212.659 -258.977H210.779V980.234H212.659V-258.977Z" fill="#00FF36"/>
<path d="M206.288 -258.977H204.408V980.234H206.288V-258.977Z" fill="#00FF36"/>
<path d="M199.909 -258.977H198.029V980.234H199.909V-258.977Z" fill="#00FF36"/>
<path d="M193.538 -258.977H191.658V980.234H193.538V-258.977Z" fill="#00FF36"/>
<path d="M187.169 -258.977H185.289V980.234H187.169V-258.977Z" fill="#00FF36"/>
<path d="M180.79 -258.977H178.91V980.234H180.79V-258.977Z" fill="#00FF36"/>
<path d="M174.421 -258.977H172.541V980.234H174.421V-258.977Z" fill="#00FF36"/>
<path d="M168.044 -258.977H166.164V980.234H168.044V-258.977Z" fill="#00FF36"/>
<path d="M161.673 -258.977H159.793V980.234H161.673V-258.977Z" fill="#00FF36"/>
<path d="M155.3 -258.977H153.42V980.234H155.3V-258.977Z" fill="#00FF36"/>
<path d="M148.923 -258.977H147.043V980.234H148.923V-258.977Z" fill="#00FF36"/>
<path d="M142.554 -258.977H140.674V980.234H142.554V-258.977Z" fill="#00FF36"/>
<path d="M136.175 -258.977H134.295V980.234H136.175V-258.977Z" fill="#00FF36"/>
<path d="M129.806 -258.977H127.926V980.234H129.806V-258.977Z" fill="#00FF36"/>
<path d="M123.435 -258.977H121.555V980.234H123.435V-258.977Z" fill="#00FF36"/>
<path d="M117.056 -258.977H115.176V980.234H117.056V-258.977Z" fill="#00FF36"/>
<path d="M110.687 -258.977H108.807V980.234H110.687V-258.977Z" fill="#00FF36"/>
<path d="M104.315 -258.977H102.436V980.234H104.315V-258.977Z" fill="#00FF36"/>
<path d="M97.9385 -258.977H96.0586V980.234H97.9385V-258.977Z" fill="#00FF36"/>
<path d="M91.5694 -258.977H89.6895V980.234H91.5694V-258.977Z" fill="#00FF36"/>
<path d="M85.1905 -258.977H83.3105V980.234H85.1905V-258.977Z" fill="#00FF36"/>
<path d="M78.8194 -258.977H76.9395V980.234H78.8194V-258.977Z" fill="#00FF36"/>
<path d="M72.4503 -258.977H70.5703V980.234H72.4503V-258.977Z" fill="#00FF36"/>
<path d="M66.0714 -258.977H64.1914V980.234H66.0714V-258.977Z" fill="#00FF36"/>
<path d="M59.7022 -258.977H57.8223V980.234H59.7022V-258.977Z" fill="#00FF36"/>
<path d="M53.3233 -258.977H51.4434V980.234H53.3233V-258.977Z" fill="#00FF36"/>
<path d="M46.9542 -258.977H45.0742V980.234H46.9542V-258.977Z" fill="#00FF36"/>
<path d="M40.5831 -258.977H38.7031V980.234H40.5831V-258.977Z" fill="#00FF36"/>
<path d="M34.2042 -258.977H32.3242V980.234H34.2042V-258.977Z" fill="#00FF36"/>
<path d="M27.835 -258.977H25.9551V980.234H27.835V-258.977Z" fill="#00FF36"/>
<path d="M21.4561 -258.977H19.5762V980.234H21.4561V-258.977Z" fill="#00FF36"/>
<path d="M15.087 -258.977H13.207V980.234H15.087V-258.977Z" fill="#00FF36"/>
<path d="M8.71589 -258.977H6.83594V980.234H8.71589V-258.977Z" fill="#00FF36"/>
<path d="M2.33893 -258.977H0.458984V980.234H2.33893V-258.977Z" fill="#00FF36"/>
</g>
</svg>
