<svg width="954" height="702" viewBox="0 0 954 702" fill="none" xmlns="http://www.w3.org/2000/svg">
<mask id="mask0_53_69243" style="mask-type:luminance" maskUnits="userSpaceOnUse" x="-49" y="0" width="1003" height="702">
<path d="M787.348 593.747C784.21 578.736 788.74 578.44 801.455 586.879C809.099 591.956 821.257 587.524 819.494 581.058C817.123 572.407 825.299 572.172 828.589 568.18C830.538 565.82 833.964 565.038 836.318 566.966C838.781 568.992 836.242 571.14 834.225 572.361C830.209 574.805 830.859 578.425 833.947 579.54C847.134 584.321 839.026 587.289 833.23 590.643C831.281 591.766 830.175 593.314 830.901 595.302C834.875 606.116 826.935 607.93 817.916 609.342C815.63 605.115 823.004 603.954 820.144 599.4C816.321 599.939 811.225 599.431 808.196 601.373C803.919 604.105 813.073 606.89 810.221 610.51C805.033 612.483 798.975 608.81 793.786 613.515C807.066 618.82 820.236 612.21 833.052 614.904C828.091 617.067 822.97 617.97 817.908 619.07C815.511 619.594 812.019 620.269 812.66 622.857C813.596 626.659 817.612 625.255 819.89 624.216C826.843 621.036 836.858 622.022 836.849 626.91C836.832 634.202 842.511 632.442 846.484 634.703C838.309 637.739 831.078 640.934 823.847 643.036C814.744 645.684 803.792 648.568 796.351 638.285C793.254 634.005 787.382 635.045 783.923 637.466C777.856 641.715 774.389 638.915 769.655 635.781C754.477 625.741 736.944 624.033 719.462 628.443C710.063 630.81 701.972 633.049 693.434 627.608C694.345 625.779 696.074 624.967 698.141 624.238C701.457 623.062 706.925 624.83 707.903 620.672C709.085 615.64 702.579 617.211 700.006 615.223C696.074 612.187 694.902 608.598 696.167 604.257C697.652 599.15 702.039 602.132 705.263 601.51C708.401 600.903 712.139 602.55 714.763 600.007C714.029 594.49 700.614 594.938 705.22 590.855C711.034 585.695 709.658 576.786 719.066 573.887C722.154 577.681 724.187 584.746 731.452 581.984C737.83 579.556 733.519 573.803 733.164 569.447C747.811 569.925 748.959 575.981 746.883 588.882C746.039 594.141 746.731 597.42 749.541 601.267C757.877 594.953 750.174 586.15 755.169 577.59C757.995 584.116 760.189 589.064 767.225 589.649C772.878 590.119 778.632 592.593 783.72 587.865C785.222 593.291 781.02 597.67 785.121 602.724C788.538 599.651 787.897 596.175 787.39 593.739L787.348 593.747ZM-11.4363 396.279C-11.2928 389.039 -6.65238 387.802 -2.2819 386.694C5.19346 384.797 3.7507 378.802 3.64945 374.825C3.53133 370.272 -1.11757 369.422 -5.8171 372.017C-7.81671 373.125 -9.32697 372.807 -10.8119 370.636C-15.6211 363.601 -23.8558 364.095 -29.4413 367.669C-31.4915 368.982 -37.7351 379.659 -25.2396 382.346C-23.5437 382.71 -22.8096 384.751 -24.1596 385.966C-25.1383 386.846 -27.197 387.491 -28.5638 387.263C-33.044 386.512 -35.6595 383.606 -37.9544 380.358C-39.6841 377.906 -42.4768 376.373 -45.3539 378.46C-48.5347 380.767 -45.0923 382.08 -43.447 383.469C-39.7262 386.603 -39.2959 391.384 -42.6033 393.304C-49.969 397.577 -48.425 403.397 -48.2056 409.081C-48.0031 414.279 -43.987 412.109 -41.2028 411.16C-37.2035 409.794 -33.2971 409.347 -31.694 413.49C-30.0572 417.717 -34.5795 417.77 -37.6001 418.871C-39.4141 419.531 -40.7387 421.147 -42.3924 422.21C-51.3246 427.932 -51.2008 433.714 -42.0212 439.558C-41.3799 439.967 -40.9159 440.62 -40.4772 441.227C-30.7744 454.561 -29.0785 454.583 -15.5621 442.851C-10.9975 438.897 -7.33579 433.767 -0.121979 432.69C3.80976 432.098 3.8182 429.434 3.43852 426.695C2.75511 421.724 3.78445 415.949 7.61494 413.376C17.7312 406.569 10.1883 401.204 6.50967 396.089C1.98733 389.79 -4.57682 393.509 -11.4447 396.286L-11.4363 396.279ZM46.1392 475.346C49.9529 470.125 55.648 465.2 51.6741 457.019C50.5435 454.69 53.3952 450.941 54.3486 447.829C54.8296 446.259 55.8927 444.976 57.7488 445.325C60.1872 445.78 61.419 447.67 60.01 449.476C56.3483 454.181 57.9513 458.135 62.558 460.95C67.2998 463.849 69.8056 458.886 73.4167 457.634C80.6559 455.115 77.8125 449.507 78.0066 445.264C78.2091 440.848 72.8599 441.455 70.3878 442.328C63.0474 444.931 58.7866 439.11 52.8131 438.139C49.2695 437.569 48.8392 434.382 49.8094 431.802C50.3916 430.246 52.0031 428.235 53.6062 427.856C58.6769 426.642 56.5255 430.595 57.732 432.417C59.8413 435.604 64.4058 438.837 68.0591 437.266C74.6486 434.428 76.336 427.514 75.526 422.096C74.4883 415.205 74.2267 405.568 59.2675 411.16C52.7625 413.596 43.8949 415.084 35.8796 411.699C33.7619 410.804 30.4629 410.735 29.3492 413.369C28.5308 415.319 28.2439 417.55 30.4882 419.485C33.4412 422.028 36.3015 426.323 38.8579 427.302C53.4881 432.872 41.0769 438.245 39.4148 443.466C38.5879 446.054 35.7446 446.266 33.1459 445.135C30.0326 443.777 30.1254 441.242 32.1757 439.709C38.2251 435.194 32.1335 432.69 30.1085 429.753C28.4295 427.317 24.1941 427.954 23.8988 429.753C23.2322 433.714 18.9208 438.45 23.0129 441.637C25.949 443.921 27.1302 444.301 23.9663 446.82C16.9212 452.436 22.9032 459.653 26.3877 460.897C35.2131 464.039 37.3477 472.546 46.1392 475.354V475.346ZM663.878 524.34C667.708 520.985 670.408 516.432 673.893 515.946C689.282 513.776 685.199 506.331 681.461 498.287C680.381 495.973 679.774 493.005 680.432 490.668C682.322 483.967 678.323 482.465 671.952 481.713C667.32 481.167 661.035 479.11 658.9 482.381C656.301 486.373 660.874 490.372 665.692 492.93C655.55 502.621 650.699 492.072 642.869 489.765C646.675 493.871 640.617 501.702 652.117 503.326C657.829 504.131 661.187 508.631 656.166 513.966C655.196 514.998 652.648 516.258 652.808 516.538C658.52 526.305 663.515 536.573 670.813 545.383C674.281 549.572 694.986 543.691 697.137 539.039C700.217 532.399 693.256 520.219 685.072 517.161C681.411 515.795 679.647 518.231 677.048 519.05C672.914 520.363 670.653 524.871 663.878 524.34ZM393.415 695.717C386.159 690.716 380.995 687.605 382.109 681.086C376.895 682.839 378.439 687.028 375.815 688.758C372.457 690.974 368.5 692.393 364.239 690.906C360.577 689.631 358.991 687.149 360.864 683.787C367.85 671.22 354.418 666.842 347.111 661.545C344.437 659.602 343.095 659.579 344.023 656.658C344.859 654.039 345.281 651.315 341.121 650.541C339.164 650.177 337.063 650.382 335.029 650.329C335.055 652.81 334.717 655.345 335.164 657.773C336.379 664.375 343.137 666.523 352.309 670.295C345.002 670.492 341.484 670.591 337.982 670.689C337.333 674.818 341.703 674.552 343.391 676.404C345.652 678.885 346.529 686.929 344.471 690.018C343.315 691.756 342.336 694.753 343.289 696.134C345.196 698.889 347.381 697.478 348.444 694.928C348.875 693.888 350.242 692.408 350.706 693.296C354.199 699.944 362.931 695.315 365.952 697.971C376.481 707.237 382.75 697.159 393.406 695.725L393.415 695.717ZM627.379 532.983C623.573 536.55 618.798 539.487 616.655 543.494C614.655 547.227 613.229 549.178 608.53 547.713C606.556 547.098 603.484 545.808 604.868 544.154C607.231 541.323 605.931 536.14 612.479 535.617C615.027 535.412 618.283 538.007 620.46 534.827C604.927 529.083 597.367 531.42 590.381 544.093C585.167 553.541 581.944 553.943 574.781 545.937C573.119 544.078 570.579 541.65 569.322 544.791C567.247 550.012 571.026 555.226 573.102 559.992C574.283 562.709 578.78 562.891 583.556 561.115C598.54 555.537 612.487 547.098 629.969 547.356C632.382 547.394 636.482 544.101 636.913 541.9C637.672 538.03 633.698 539.434 630.77 539.252C626.096 538.956 632.323 534.433 627.362 532.976L627.379 532.983ZM593.841 580.686C602.472 570.487 587.749 574.873 584.948 572.581C579.54 568.157 571.558 574.039 564.243 573.879C560.961 573.811 560.564 579.821 561.037 583.6C561.956 590.931 585.868 603.46 593.52 600.683C596.212 599.704 595.849 598.285 595.022 596.334C592.938 591.455 593.579 586.37 593.841 580.686ZM671.682 449.636C672.585 444.802 682.322 443.261 675.159 437.926C669.219 433.509 663.886 426.535 655.162 428.311C649.147 429.54 648.851 436.135 650.53 440.537C655.044 452.345 674.003 461.504 689.898 459.941C685.114 454.652 681.748 448.512 671.682 449.636ZM250.261 552.964C244.363 545.702 233.817 543.881 239.545 534.213C240.845 532.012 233.057 528.703 229.041 528.415C222.519 527.944 228.746 532.088 227.556 533.568C224.907 536.884 221.549 539.601 217.372 541.604C206.463 546.84 206.092 550.68 214.04 558.686C217.499 562.17 227.185 568.658 211.23 568.658C208.724 568.658 206.86 570.047 208.117 572.149C209.998 575.306 211.289 579.214 216.276 580.011C218.891 580.428 221.329 580.694 221.844 577.423C222.806 571.269 223.937 565.334 219.752 559.4C217.415 556.083 215.153 551.394 218.511 547.971C221.954 544.457 226.906 546.21 231.446 547.759C236.685 549.542 242.169 550.756 250.261 552.957V552.964ZM333.426 624.504C321.437 618.463 314.831 620.77 311.819 634.832C308.435 623.373 300.766 619.533 295.796 613.713C291.215 608.347 284.339 607.551 276.922 608.256C276.585 612.134 277.175 616.672 282.238 616.725C294.404 616.854 296.37 625.248 299.888 632.07C303.474 639.006 309.87 641.025 316.383 635.629C321.192 631.645 325.217 626.978 333.418 624.504H333.426ZM700.934 136.097C700.048 136.765 699.297 137.395 698.639 137.979C699.601 137.653 700.411 137.076 700.934 136.097ZM-33.8286 202.241C-40.57 202.021 -41.7765 197.453 -45.202 193.856C-40.5784 192.558 -38.6547 197.779 -36.6635 196.337C-24.1174 187.284 -26.0411 200.814 -21.0547 203.493C-16.5323 205.929 -17.9498 211.211 -14.1868 214.042C-10.8119 211.188 -12.2716 208.722 -13.6721 206.597C-15.3427 204.062 -16.4227 202.051 -12.5837 200.329C-8.92199 198.69 -7.25141 199.82 -6.1377 203.015C-3.04968 211.917 5.15129 207.743 9.45426 205.891C15.4362 203.319 9.02396 198.993 8.0368 195.442C7.45464 193.34 2.2995 192.725 5.36221 189.029C21.9329 195.085 38.8495 199.403 57.0064 195.867C47.6833 187.306 30.6907 188.832 25.3247 174.375C21.5026 181.334 28.7502 183.611 27.2905 188.543C19.8152 186.927 16.55 183.474 17.1406 176.993C17.8408 169.253 17.2081 164.107 5.91907 170.626C2.63699 172.523 -5.15899 175.931 -9.6982 169.958C-13.5118 164.942 -9.95976 162.279 -4.99869 159.524C-1.18507 157.407 -6.05334 147.496 -10.3648 145.553C-16.0683 142.988 -22.624 147.245 -27.4079 143.398C-29.011 142.108 -34.512 142.624 -31.9556 138.48C-30.884 136.742 -30.7828 133.828 -27.0957 134.344C-17.2073 135.725 -9.48728 128.448 0.232382 130.284C0.367378 123.69 -7.45391 128.008 -8.67731 124.054C-2.56877 120.1 -2.31565 109.711 9.27708 112.109C9.623 112.177 10.7705 109.795 11.3104 108.482C15.2 99.1019 25.3331 100.999 32.9097 100.916C38.0311 100.863 35.4915 99.5649 36.9342 97.9181C44.4265 89.3352 35.6771 85.4497 31.2898 79.8871C39.4992 75.3035 47.9701 73.0269 58.5588 72.9206C50.6532 65.4533 53.6399 55.7396 59.2422 56.1039C66.7598 56.5896 76.9435 53.3036 83.6173 60.6723C85.7857 63.0628 89.6331 66.2121 93.4045 63.5713C96.6275 61.3174 91.3711 59.2684 91.3036 57.0904C91.1602 52.6054 91.9533 48.0977 92.3583 43.5976C95.4885 48.462 92.8814 54.6924 99.6734 57.948C102.002 59.0635 103.58 62.6834 106.896 59.7389C109.376 57.5382 109.106 55.1098 106.06 53.1443C103.04 51.1939 101.302 48.9477 104.972 44.5158C112.312 53.4175 122.192 51.4823 131.169 48.2419C139.244 45.3278 145.774 44.8573 152.187 52.8559C153.612 46.0108 152.524 36.1074 162.758 43.6962C170.082 49.1298 171.094 45.7148 174.376 41.3361C175.861 39.3479 175.077 34.1268 180.392 35.8874C189.774 38.9912 199.578 33.5652 209.56 38.4979C213.879 40.6303 220.368 38.0122 217.187 45.6921C216.368 47.6576 217.001 49.3878 219.49 50.1163C221.608 50.7386 224.527 50.7917 224.822 48.7276C226.535 37.0409 242.414 34.6808 245.738 24.0944C246.793 20.7402 249.864 17.1127 253.771 19.7839C257.23 22.1516 253.526 24.9519 250.488 26.5076C248.497 27.5321 246.582 28.9816 248.126 30.7877C250.134 33.125 252.581 31.9488 254.201 29.9605C255.137 28.807 255.281 27.054 258.369 27.3348C258.242 33.3148 263.043 35.7963 268.561 38.2626C271.565 31.3493 261.119 27.6763 265.6 20.8767C269.168 15.4508 274.509 12.3014 279.74 8.61328C286.878 3.58191 287.688 11.4287 291.679 12.6733C297.796 14.5856 294.986 16.3994 291.586 18.3421C290.051 19.2148 289.519 20.7553 291.139 21.9999C293.24 23.6163 295.239 23.4342 297.99 22.3414C304.925 19.6018 299.424 13.6522 302.259 9.72881C311.456 18.638 318.88 19.9585 330.549 15.6177C334.835 14.0241 334.801 7.77092 340.716 8.51462C358.181 10.7305 376.346 7.89234 394.25 15.6025C394.798 9.56946 395.229 4.78852 395.659 0C396.402 7.05757 403.556 9.63016 407.446 13.8192C410.441 17.0368 415.697 17.7805 418.566 14.3352C428.05 2.9672 429.298 11.3908 431.5 17.9019C436.208 18.8885 436.512 5.79025 444.266 15.1093C444.873 15.8378 451.387 15.4128 451.184 12.3166C450.906 8.10481 451.817 7.95304 455.757 9.28867C460.997 11.072 458.238 12.734 456.103 14.7298C450.72 19.746 456.449 24.1323 458.947 27.054C461.469 30.0061 466.473 28.2151 468.784 24.0564C469.864 22.1137 471.51 22.2124 473.762 23.8971C482.765 30.6359 490.527 29.2699 496.45 20.4745C499.504 15.944 502.246 20.5428 505.115 20.6187C508.144 20.6946 509.73 22.994 509.696 25.1872C509.646 28.42 505.807 27.0844 503.782 28.0178C501.943 28.8677 500.179 29.8315 498.382 30.7498C495.733 32.1157 490.485 30.0061 490.384 34.3089C490.333 36.4565 492.493 39.2264 494.585 40.7214C498.078 43.2181 501.774 40.1143 503.377 38.4979C509.629 32.1916 512.101 35.432 514.278 41.0174C515.088 43.0967 515.611 45.859 518.437 46.0563C521.981 46.2992 523.365 43.6507 523.871 40.9643C524.242 39.0367 524.926 37.4203 527.482 36.1833C530.199 38.4068 532.097 41.0705 536.552 42.6869C545.571 45.9653 553.68 52.0818 557.088 61.2187C559.721 68.2763 564.378 73.6795 573.946 73.6643C578.139 73.6643 580.797 76.3508 584.239 77.5194C587.774 78.7261 593.301 75.5008 595.081 80.6612C596.752 85.518 587.175 81.0862 588.483 86.1555C588.762 87.2255 589.006 88.4321 589.732 89.2593C593.723 93.8277 589.032 96.5142 585.952 100.286C590.559 100.24 594.161 100.21 597.941 100.172C597.14 102.494 596.321 104.543 595.731 106.63C591.065 122.976 595.165 129.26 614.757 132.121C620.637 132.978 619.38 137.994 623.506 139.55C626.906 133.138 630.019 127.264 632.981 121.671C639.739 122.369 641.764 130.74 650.201 127.143C663.633 121.405 673.42 126.566 676.424 139.497C677.226 142.95 681.115 145.28 685.165 146.524C686.304 146.873 688.371 146.6 687.916 145.348C683.95 134.405 693.552 139.687 698.656 137.957C688.346 147.245 705.592 146.577 706.233 152.117C698.985 153.901 687.958 152.178 689.552 163.356C698.184 165.314 710.35 158.241 715.185 167.985C718.678 175.035 707.735 178.048 702.824 183.186C704.782 174.952 703.347 168.904 690.961 166.194C705.44 178.344 687.274 175.4 685.081 179.733C693.054 185.994 700.909 191.587 712.586 188.809C716.197 187.951 719.302 189.841 720.627 192.823C721.74 195.343 721.226 197.953 718.247 199.631C710.063 204.245 702.048 202.78 694.168 198.902C693.653 198.652 693.366 197.718 693.324 197.088C693.071 193.051 692.64 192.391 690.202 193.689C686.093 195.874 680.086 195.351 677.538 199.919C681.335 204.191 691.864 201.285 691.096 209.481C690.54 215.393 685.73 217.935 678.997 218.428C674.23 218.777 677.31 221.395 677.833 223.171C678.635 225.918 679.757 227.269 682.533 224.34C686 220.682 691.577 220.963 694.978 222.556C699.34 224.598 695.712 227.664 693.83 230.57C691.923 233.507 693.813 236.626 696.42 239.578C704.199 248.396 710.882 238.151 718.298 239.054C724.752 239.844 729.309 235.746 732.346 231.116C739.349 220.424 755.413 218.481 766.534 227.132C767.951 228.24 768.44 229.47 768.052 231.025C760.147 228.832 754.958 238.887 750.056 236.467C739.256 231.132 739.593 240.056 734.978 242.864C729.418 246.249 722.424 246.78 715.86 248.002C715.699 248.032 715.531 248.707 715.632 249.018C718.914 259.203 711.194 255.492 706.697 253.89C702.124 252.259 699.188 254.209 696.328 256.084C692.489 258.611 688.7 261.024 683.714 260.015C677.023 258.664 677.285 263.088 676.306 266.382C674.998 270.76 678.103 272.005 682.313 273.12C685.435 273.948 689.62 273.841 690.987 276.141C689.139 282.781 682.448 273.97 680.533 280.793C683.376 283.077 690.118 280.648 690.97 284.807C693.661 297.905 701.643 287.319 707.026 287.744C708.334 287.843 710.519 282.257 711.16 285.574C712.383 291.903 727.056 290.537 721.082 298.163C716.231 304.348 722.803 303.316 724.373 303.233C728.549 303.013 732.65 301.639 736.775 300.721C726.457 300.03 724.972 292.183 720.576 287.281C720.028 286.674 720.39 284.936 721.04 284.192C721.614 283.532 723.175 283.54 724.305 283.244C727.031 293.792 741.627 289.535 747.035 298.065C747.592 291.607 735.957 286.978 745.457 281.066C752.452 291.622 753.979 291.705 761.775 282.318C764.72 278.766 768.466 277.757 772.507 281.119C775.131 283.297 777.443 285.756 780.286 288.457C770.862 293.565 760.163 294.172 748.385 298.664C756.012 300.531 761.252 302.929 766.28 300.546C774.321 296.752 780.396 300.584 785.365 304.462C789.078 307.369 790.664 311.444 797.245 309.668C798.738 309.266 801.717 313.007 804.02 314.844C787.829 318.031 801.48 327.638 796.832 334.468C802.071 333.064 805.328 332.267 808.517 331.311C811.605 330.385 814.617 328.306 817.739 331.273C808.77 341.169 809.141 346.208 820.093 354.002C826.32 358.434 819.367 359.815 816.92 361.78C821.772 364.482 828.361 359.321 827.931 361.659C826.455 369.65 845.818 366.356 837.583 376.427C849.007 382.027 843.101 393.296 848.459 400.726C853.74 394.283 873.129 391.08 879.297 397.068C883.102 400.771 883.904 400.088 887.742 397.994C891.092 396.165 895.724 395.77 899.875 395.452C907.958 394.829 916.606 394.177 912.987 405.636C918.31 405.401 921.508 401.841 926.672 402.236C934.021 402.798 937.674 406.235 935.067 412.284C933.86 415.084 935.733 415.736 937.817 415.835C943.428 416.093 947.647 420.813 953.966 419.129C950.169 422.346 945.934 424.638 941.479 422.415C938.34 420.844 936.307 417.391 931.962 417.816C920.479 418.939 909.561 416.541 899.242 412.739C888.215 408.671 882.638 420.221 872.834 418.613C876.791 428.789 864.945 424.524 860.718 427.469C864.144 430.793 866.919 433.494 870.59 437.053C863.156 438.298 861.148 444.422 855.546 447.26C853.833 439.8 850.273 436.621 842.755 441.842C840.114 443.678 835.179 444.285 836.098 441.857C840.14 431.142 828.125 437.281 825.695 433.6C828.969 430.937 834.107 435.915 837.246 430.884C832.656 426.626 829.754 418.696 820.802 427.309C818.38 429.639 815.233 426.839 812.483 426.854C798.688 426.922 783.754 424.904 777.283 439.99C776.236 442.441 773.342 442.836 770.963 441.447C768.904 440.248 770.212 438.275 770.136 436.681C769.672 426.854 776.894 424.365 787.711 423.181C776.101 415.38 763.901 419.455 751.498 417.004C757 413.392 759.851 410.052 764.922 410.553C763.209 407.457 762.163 404.232 757.008 403.276C752.646 402.471 752.123 399.603 754.333 395.619C756.915 390.967 761.935 392.059 765.977 391.46C764.213 386.239 759.218 387.612 756.282 385.829C737.358 374.317 716.982 368.003 693.695 372.245C690.624 372.807 686.313 372.807 685.739 376.54C685.19 380.099 689.207 382.649 691.738 382.892C702.369 383.932 701.128 390.951 703.744 397.356C695.577 396.742 695.416 383.841 684.406 390.64C677.048 395.186 689.392 396.947 683.267 401.265C671.733 391.134 652.825 412.101 642.085 392.72C641.3 396.423 640.709 399.208 639.697 404.004C638.507 398.077 631.639 400.68 631.445 397.015C630.754 383.294 627.311 381.299 614.014 387.817C611.458 389.069 608.969 391.771 607.281 387.392C606.252 384.721 605.374 382.035 601.468 383.294C597.494 384.577 593.613 386.603 593.596 390.989C593.554 403.61 585.049 401.72 575.701 399.572C576.831 395.846 579.599 395.14 582.704 394.943C589.327 394.518 590.466 390.382 591.2 385.761C591.504 383.856 592.347 382.073 589.251 381.481C583.961 380.471 581.269 383.105 577.937 386.277C575.194 388.88 571.794 394.624 565.635 387.104C561.678 382.27 553.469 383.052 546.027 387.87C552.422 390.2 557.713 391.597 562.277 394.033C564.403 395.163 565.188 398.282 566.335 400.589C566.428 400.779 564.699 402.137 563.838 402.115C561.855 402.061 559.316 398.51 558.143 402.486C557.4 404.983 561.028 405.507 562.412 406.949C568.875 413.68 576.19 404.733 583.758 408.087C576.3 411.699 572.976 414.697 582.417 418.529C585.598 419.819 588.551 422.946 586.298 426.839C585.657 427.954 582.788 429.503 582.687 428.569C582.046 422.756 573.904 425.192 572.098 420.472C567.989 409.779 559.375 409.779 549.259 413.794C544.213 415.79 539.041 419.151 533.709 413.543C532.494 412.261 528.84 413.05 529.482 415.509C532.637 427.636 520.952 426.11 513.831 428.812C520.175 426.315 523.263 422.081 515.847 418.802C506.608 414.712 512.751 412.124 516.033 409.741C521.34 405.879 522.546 403.002 514.598 401.462C507.435 400.073 512.472 398.001 513.021 395.353C513.4 393.539 508.903 392.424 505.765 392.469C500.854 392.545 496.712 393.425 494.349 397.819C490.476 405.036 497.597 420.244 506.381 423.029C496.349 431.992 483.145 433.13 469.915 433.676C465.882 433.843 463.486 438.806 458.854 436.021C457.673 440.051 462.381 440.521 464.161 442.76C466.675 445.925 467.527 449.947 466.262 453.293C462.642 462.855 457.276 471.256 444.511 473.904C439.997 474.838 433.103 474.193 432.572 480.097C431.888 487.709 426.75 485.659 422.127 484.316C420.464 483.838 418.482 480.666 417.191 482.525C410.711 491.844 411.454 482.768 410.795 480.492C409.985 477.669 407.665 476.075 405.716 474.33C403.759 472.576 400.662 470.353 398.418 470.611C394.731 471.028 396.115 474.785 395.743 477.145C394.604 484.316 395.414 492.125 392.402 498.591C392.858 500.245 389.475 501.786 387.551 502.104C385.627 502.423 383.526 502.218 381.839 503.061C378.177 504.897 379.291 509.822 381.704 512.865C383.282 514.854 385.315 517.191 384.252 519.414C383.763 520.431 382.716 521.137 381.712 521.797C376.929 524.939 371.9 528.179 365.985 529.083C360.071 529.986 353.034 527.732 351.052 522.784C350.377 521.099 350.258 519.126 348.79 517.874C346.706 516.091 342.918 516.956 341.222 519.012C339.526 521.069 339.434 523.801 339.712 526.32C332.186 525.015 323.977 527.489 319.007 532.551C317.345 527.527 315.767 521.85 318.762 517.343C319.555 516.159 320.635 515.112 321.234 513.844C321.842 512.577 321.142 510.171 319.952 509.261C320.838 506.453 320.669 503.41 321.184 500.503C321.58 498.287 320.829 497.02 318.189 496.61C315.134 496.14 315.219 497.855 314.561 499.737C311.346 508.821 307.769 517.806 304.36 526.836C303.002 530.449 301.188 534.964 296.37 534.053C291.114 533.059 292.329 528.179 291.755 524.18C290.633 516.402 297.315 508.502 289.511 500.579C285.115 496.117 276.062 492.133 280.972 483.474C281.833 481.956 280.002 480.256 277.639 479.444C273.328 477.965 242.262 484.294 241.849 487.754C240.406 499.82 230.619 490.964 225.506 493.279C219.811 495.859 215.719 502.34 207.383 498.477C205.873 497.779 203.147 499.327 202.784 496.337C201.915 489.211 193.639 488.718 190.373 484.749C186.728 486.388 192.685 489.325 186.079 490.805C188.956 481.675 178.612 480.628 174.005 475.969C176.233 473.313 181.978 475.559 181.253 471.916C179.92 465.231 173.49 461.747 167.247 458.507C164.606 463.015 153.342 461.421 156.481 470.004C158.86 476.523 152.195 476.773 148.609 477.092C144.914 477.418 141.75 474.588 142.644 470.345C143.336 467.082 143.808 463.781 144.61 460.541C145.108 458.522 150.119 456.845 145.167 454.53C143.749 453.87 141.64 453.164 140.4 453.62C137.033 454.857 136.924 457.733 137.953 460.267C139.59 464.32 138.164 467.325 134.646 470.095C133.321 467.173 133.76 462.893 128.394 463.128C127.271 463.182 125.137 465.587 125.382 465.959C128.824 471.18 116.472 470.823 120.496 476.857C121.289 478.048 115.291 477.403 115.038 475.893C114 469.738 110.827 470.649 105.335 471.711C100.787 472.592 95.7163 470.3 92.5017 465.413C101.977 465.58 108.144 454.97 118.952 460.738C120.117 461.36 121.509 460.047 121.045 458.947C116.7 448.717 125.972 445.34 132.941 440.946C135.962 439.042 135.034 434.906 134.047 435.566C125.787 441.091 122.833 431.673 118.429 431.87C113.958 432.067 112 433.729 113.713 428.782C117.003 419.28 111.874 415.903 100.846 416.602C104.778 413.354 114.498 413.338 110.743 410.03C101.791 402.137 110.895 401.857 114.768 399.61C117.931 397.774 122.665 396.954 120.319 392.591C116.202 384.926 122.513 380.995 127.322 376.768C129.069 375.228 132.511 374.233 130.646 371.98C124.529 364.58 133.253 362.987 135.785 358.6C140.543 362.676 135.928 370.94 141.48 371.114C153.806 371.501 153.992 377.664 153.629 385.67C156.608 380.722 164.446 377.269 157.426 370.834C160.615 369.316 155.857 362.774 162.261 364.155C164.547 364.649 165.467 366.629 167.247 363.768C168.791 361.287 168.867 359.693 165.197 358.995C163.914 358.752 161.147 359.17 162.952 356.718C163.821 355.535 164.809 354.685 167.036 355.929C171.356 358.35 174.68 361.682 179.262 367.016C178.705 359.875 182.248 355.679 174.309 351.535C170.58 349.593 161.046 340.812 170.698 333.254C172.191 332.085 173.136 330.985 171.347 329.778C164.387 325.088 160.961 314.616 147.546 319.245C149.36 321.203 151.073 323.047 152.777 324.906C154.844 327.153 156.287 318.054 158.261 324.633C159.021 327.145 155.46 329.52 153.722 328.959C146.677 326.674 135.051 347.589 131.946 325.733C131.853 325.081 128.74 324.011 127.423 324.337C122.091 325.658 122.209 319.594 116.286 318.471C122.909 327.54 118.016 328.997 109.95 329.194C107.056 329.27 103.884 333.74 101.158 330.863C97.9943 327.532 101.572 324.777 104.963 322.933C108.828 320.831 109.199 318.145 105.866 315.83C101.31 312.666 100.762 317.598 98.6187 319.154C94.881 321.871 95.1763 329.019 85.7182 326.781C96.3406 320.596 89.2534 312.977 84.8745 310.662C68.2616 301.874 52.079 314.851 35.1456 313.44C34.2006 313.364 32.1504 315.458 32.1166 316.581C31.9816 321.415 26.1515 322.174 23.8481 325.802C20.4817 331.076 10.9139 325.491 5.72502 330.241C4.18945 326.189 5.06691 322.736 8.45023 319.533C11.167 316.961 7.74994 314.32 6.34936 315.276C2.92386 317.621 -3.75841 311.793 -2.75438 316.134C-1.126 323.138 -9.79102 326.811 -5.64835 333.823C-12.1703 332.146 -11.1747 325.893 -16.6842 325.407C-18.7345 327.699 -17.2242 329.475 -15.8152 331.38C-13.8746 334.005 -10.0526 338.24 -14.2543 339.492C-18.2198 340.676 -18.861 347.202 -24.0752 344.265C-27.7201 342.209 -31.5928 339.712 -30.2512 334.506C-28.935 329.429 -34.1408 325.741 -35.5836 321.135C-36.3176 318.782 -39.6419 316.187 -35.8536 314.502C-27.9479 310.981 -34.0733 306.306 -34.1746 301.601C-29.5678 301.7 -23.6112 309.471 -20.9281 299.431C-19.2829 293.276 -14.1699 288.298 -7.18392 297.253C-5.15899 293.481 -5.37835 290.984 -7.32735 288.108C-12.8537 279.943 -9.50415 274.691 0.52769 272.483C3.0251 271.937 4.88973 269.326 4.69567 269.212C-3.79216 264.249 1.91983 256.911 0.291449 250.885C-0.366653 248.449 -3.21 246.985 -5.63148 248.275C-15.1908 253.352 -15.7814 248.722 -15.8236 241.968C-15.8405 239.199 -20.886 236.709 -14.1109 234.175C-11.1494 233.067 -16.9627 228.787 -17.722 229.675C-23.4846 236.444 -29.9813 224.856 -36.267 230.6C-38.1147 232.285 -40.5615 226.958 -38.7897 225.432C-36.3429 223.33 -32.8668 219.718 -29.0532 221.456C-22.219 224.567 -15.3596 222.7 -8.14576 224.021C-10.5841 216.979 -15.8658 217.404 -21.7212 217.472C-26.9523 217.533 -34.048 217.684 -29.4835 209.473C-27.6779 206.218 -28.4035 202.416 -33.8286 202.234V202.241ZM770.786 413.786C777.628 404.847 789.651 401.955 797.954 394.784C800.713 392.401 806.501 392.667 811.074 391.688C810.846 386.026 805.058 385.639 801.354 383.181C798.696 381.412 793.457 380.889 794.68 376.199C795.65 372.48 799.304 371.661 803.438 370.879C800.021 365.446 794.284 368.344 788.58 366.098C794.351 375.645 785.197 380.987 784.446 389.502C779.012 386.33 774.642 380.752 768.871 386.8C769.014 389.669 772.144 389.502 774.11 390.602C781.375 394.662 781.518 400.202 773.747 402.509C768.55 404.05 767.141 407.237 765.226 410.614C765.251 410.614 765.276 410.614 765.31 410.622C764.407 415.456 768.609 416.624 770.777 413.786H770.786ZM619.583 328.556C626.121 329.71 627.353 331.941 618.756 335.743C625.953 336.919 630.475 331.281 633.327 335.675C635.909 339.659 640.169 345.153 630.61 349.577C643.612 349.236 651.543 352.309 654.243 363.48C654.445 353.85 663.735 347.718 662.545 338.536C662.41 337.519 664.047 336.062 665.27 335.326C665.861 334.969 668.029 335.523 668.4 336.145C669.522 338.027 671.294 340.251 669.32 342.285C658.993 352.886 665.928 353.47 676.778 352.461C679.031 352.249 683.478 353.63 683.596 354.578C684.929 364.96 695.61 359.572 700.285 362.6C712.35 370.424 715.775 360.596 723.622 357.197C717.091 353.986 707.034 359.678 706.781 348.606C706.68 344.364 700.926 349.373 698.141 347.263C703.111 340.744 711.084 340.934 719.116 340.395C713.928 339.029 710.586 335.485 704.486 335.728C695.273 336.092 676.787 320.065 675.294 311.96C675.049 310.647 674.905 308.621 673.977 308.211C666.654 305.016 666.603 305.115 671.539 299.142C664.317 304.348 654.597 304.318 646.877 308.636C647.442 309.683 647.594 310.617 648.159 310.89C651.045 312.263 656.495 310.715 655.711 316.164C655.483 317.75 653.526 319.731 653.171 318.995C650.876 314.297 642.751 319.587 641.739 313.652C640.937 308.939 638.263 305.684 632.795 303.718C634.044 310.882 629.437 315.876 621.169 317.211C617.532 317.796 614.959 319.898 613.98 322.85C612.681 326.788 615.904 327.904 619.583 328.549V328.556ZM554.262 299.886C554.296 301.518 555.519 302.793 557.4 302.679C563.104 302.33 566.487 305.714 570.529 308.302C579.658 314.145 582.138 314.198 595.208 307.976C588.112 313.895 588.719 317.682 592.339 321.598C594.111 323.518 596.903 325.415 598.329 323.821C601.586 320.171 611.078 321.286 608.842 313.553C607.239 308.021 610.276 309.235 613.837 310.928C616.461 312.18 618.714 311.391 620.528 309.509C621.759 308.234 621.852 306.83 620.671 305.525C618.579 303.225 615.938 304.599 613.668 305.046C606.885 306.39 600.827 307.05 598.54 299.188C598.152 297.845 595.267 296.122 593.571 296.137C581.565 296.266 569.567 296.782 557.569 297.245C555.806 297.313 554.22 298.095 554.253 299.878L554.262 299.886ZM559.974 165.815C560.927 168.57 564.015 171.423 567.019 172.827C571.077 174.717 571.845 171.795 571.541 168.843C579.649 168.448 589.529 165.299 595.486 168.228C607.551 174.17 604.801 165.898 606.362 161.596C612.124 164.335 617.499 166.877 622.865 169.427C626.121 170.975 628.551 169.769 630.585 167.621C632.07 166.058 632.011 164.35 631.007 162.499C629.15 159.084 626.974 160.063 624.215 161.649C621.945 162.954 619.465 163.333 618.596 160.025C616.25 151.093 607.678 151.062 599.916 150.569C595.174 150.273 590.086 149.863 587.69 146.562C583.868 141.296 591.571 141.956 593.604 139.581C594.533 138.495 595.098 136.795 594.938 135.445C594.608 132.66 591.976 133.639 590.078 133.745C585.209 134.018 580.341 134.375 575.895 134.671C573.904 138.04 584.484 139.565 576.654 142.988C576.106 143.223 575.616 144.301 575.76 144.855C578.519 155.616 578.603 155.707 565.888 161.588C563.408 162.734 558.877 162.628 559.982 165.823L559.974 165.815ZM443.161 352.727C447.894 353.478 448.847 350.169 449.75 346.451C452.062 336.919 464.532 341.503 470.185 336.214C470.261 336.145 472.48 337.2 472.623 337.891C473.661 342.968 475.382 348.401 482.63 344.379C488.814 340.949 495.184 336.16 490.502 327.934C486.865 321.544 482.377 316.574 473.037 317.811C469.156 318.327 468.911 321.18 468.371 323.624C466.338 332.776 459.782 337.648 449.37 337.17C441.794 336.821 442.224 341.01 440.52 344.759C445.852 346.99 436.63 351.702 443.161 352.734V352.727ZM358.198 152.36C359.961 153.643 370.052 149.158 373.233 145.356C378.194 139.444 368.483 135.725 366.416 130.14C373.022 129.844 374.92 136.249 381.324 136.659C380.337 132.948 379.468 129.7 378.608 126.467C378.751 126.535 378.886 126.611 379.012 126.687C378.92 126.551 378.835 126.414 378.742 126.277C384.033 127.006 386.994 134.572 393.913 130.413C403.885 124.411 415.259 119.584 418.853 108.133C419.891 104.839 419.03 102.342 415.394 100.771C412.01 99.3068 409.327 99.0716 406.914 102.509C403.818 106.926 399.92 110.523 394.25 104.482C392.841 102.98 390.917 103.291 390.226 104.839C389.728 105.939 390.116 107.768 390.917 108.793C392.428 110.72 398.376 110.842 393.516 115.016C388.994 118.894 387.197 114.424 384.446 113.043C382.379 112.01 380.531 110.652 377.544 108.785C376.102 115.554 375.309 121.011 378.759 126.27C378.692 126.262 378.624 126.247 378.557 126.239C378.574 126.315 378.599 126.384 378.616 126.46C376.532 125.458 372.845 125.238 373.486 122.908C376.675 111.29 365.285 108.155 358.189 102.805C355.903 101.083 352.402 97.8119 348.259 100.529C342.817 104.111 350.41 106.023 350.208 106.258C339.881 118.286 363.328 124.479 355.751 135.46C352.25 134.549 349.651 129.776 343.669 129.89C343.205 140.028 350.604 146.82 358.206 152.352L358.198 152.36ZM303.474 279.366C317.674 287.615 312.418 298.649 309.574 309.433C309.127 311.125 311.498 311.573 313.042 311.876C315.632 312.385 318.155 312.013 320.07 310.321C327.664 303.589 325.141 274.297 315.767 269.766C307.828 265.934 308.815 276.277 303.305 276.543C303.373 278.023 303.086 279.131 303.474 279.358V279.366ZM210.26 160.768C212.04 158.294 214.656 159.114 217.077 159.084C220.207 159.046 219.465 161.535 220.469 162.954C223.16 166.741 211.568 164.95 217.288 168.038C223.92 171.62 230.864 174.443 235.445 180.218C237.343 178.845 239.529 177.691 241.064 176.06C243.435 173.525 239.554 172.668 238.6 172.463C232.956 171.271 233.952 163.925 227.025 163.341C225.902 163.242 222.637 155.737 226.409 151.632C229.193 148.604 229.168 145.136 228.645 140.795C234.846 142.92 237.141 146.691 236.474 151.093C235.631 156.648 231.117 149.62 228.602 152.588C230.695 156.678 233.108 160.913 234.998 165.314C236.187 168.092 238.533 168.471 241.047 168.114C251.113 166.673 261.533 161.77 270.223 171.195C271.033 172.076 272.476 171.378 273.024 170.179C277.125 161.254 286.532 165.686 293.881 164.115C293.417 159.744 286.954 158.803 286.701 154.25C286.617 152.648 283.874 151.95 281.436 152.254C277.386 152.755 283.68 159.676 277.293 157.649C274.079 156.633 279.563 152.223 276.146 150.068C270.172 146.304 262.351 144.657 258.959 137.972C257.635 135.354 254.294 132.728 258.892 130.633C263.549 128.516 266.266 121.914 271.851 123.545C282.609 126.68 293.366 131.301 301.112 138.351C305.356 142.206 311.641 149.636 302.242 155.987C300.386 157.24 299.382 159.463 296.429 163.22C305.474 159.858 312.105 157.149 319.648 156.056C328.735 154.743 334 141.493 331.764 129.662C329.452 117.452 321.8 108.231 309.861 101.583C307.996 100.544 305.879 99.2234 304.166 100.703C297.484 106.471 295.822 100.202 293.366 97.1744C289.991 93.0006 288.954 87.2179 280.651 93.8277C275.977 97.5462 268.409 91.8015 261.55 91.9837C252.108 92.2417 250.311 95.8312 253.669 101.963C256.006 106.235 252.471 112.01 258.976 115.387C260.056 115.949 256.462 118.385 253.079 117.391C245.384 115.145 240.119 118.658 240.845 125.435C241.334 130.011 238.322 133.115 234.179 131.711C225.312 128.706 226.291 133.661 224.181 138.245C221.279 144.544 223.051 154.47 207.948 153.043C201.645 152.444 207.315 162.172 203.51 167.727C209.627 166.119 208.783 162.833 210.268 160.768H210.26ZM133.127 180.294C129.6 167.128 119.543 162.165 113.24 154.788C111.992 153.324 107.587 152.982 110.895 150.235C113.097 148.406 115.755 149.522 117.366 151.556C119.982 154.857 122.192 158.53 129.111 157.756C121.661 143.982 118.919 144.946 101.631 147.154C89.7174 148.672 90.713 152.375 96.4672 156.504C107.402 164.35 121.062 169.002 133.127 180.294ZM74.5389 200.746C78.6394 196.056 67.8566 192.527 70.9531 192.755C79.1541 193.362 85.9629 185.462 93.1514 189.727C102.23 195.115 111.03 187.663 119.821 190.744C120.53 190.995 126.04 186.054 124.352 184.362C121.273 181.273 122.488 174.899 115.966 174.77C103.479 174.512 97.294 165.033 90.0296 159.296C75.7454 148.012 65.2664 148.611 57.0823 163.508C50.805 174.929 49.3201 185.159 57.1751 195.851C57.2511 195.836 57.327 195.821 57.4114 195.806C62.3218 199.782 68.0591 201.437 74.5389 200.761V200.746Z" fill="white"/>
</mask>
<g mask="url(#mask0_53_69243)">
<path d="M1068.54 -50.864L900.68 871.111L905.692 871.85L1073.55 -50.1257L1068.54 -50.864Z" fill="#018010"/>
<path d="M1058.06 -52.36L890.199 869.615L895.212 870.354L1063.07 -51.6218L1058.06 -52.36Z" fill="#018010"/>
<path d="M1047.58 -53.8483L879.719 868.127L884.731 868.865L1052.59 -53.11L1047.58 -53.8483Z" fill="#018010"/>
<path d="M1037.1 -55.3455L869.24 866.63L874.253 867.368L1042.11 -54.6072L1037.1 -55.3455Z" fill="#018010"/>
<path d="M1026.62 -56.8327L858.76 865.143L863.772 865.881L1031.63 -56.0944L1026.62 -56.8327Z" fill="#018010"/>
<path d="M1016.15 -58.3356L848.289 863.64L853.302 864.378L1021.16 -57.5973L1016.15 -58.3356Z" fill="#018010"/>
<path d="M1005.68 -59.8249L837.818 862.15L842.831 862.889L1010.69 -59.0867L1005.68 -59.8249Z" fill="#018010"/>
<path d="M995.197 -61.3141L827.338 860.661L832.35 861.399L1000.21 -60.5759L995.197 -61.3141Z" fill="#018010"/>
<path d="M984.718 -62.8102L816.859 859.165L821.872 859.903L989.73 -62.072L984.718 -62.8102Z" fill="#018010"/>
<path d="M974.247 -64.3044L806.389 857.671L811.401 858.409L979.26 -63.5662L974.247 -64.3044Z" fill="#018010"/>
<path d="M963.769 -65.8014L795.91 856.174L800.923 856.912L968.781 -65.0632L963.769 -65.8014Z" fill="#018010"/>
<path d="M953.288 -67.2888L785.43 854.687L790.442 855.425L958.301 -66.5505L953.288 -67.2888Z" fill="#018010"/>
<path d="M942.808 -68.7781L774.949 853.197L779.962 853.936L947.82 -68.0398L942.808 -68.7781Z" fill="#018010"/>
<path d="M932.347 -70.2809L764.488 851.694L769.501 852.433L937.359 -69.5427L932.347 -70.2809Z" fill="#018010"/>
<path d="M921.866 -71.7692L754.008 850.206L759.02 850.944L926.879 -71.0309L921.866 -71.7692Z" fill="#018010"/>
<path d="M911.388 -73.2654L743.529 848.71L748.542 849.448L916.4 -72.5271L911.388 -73.2654Z" fill="#018010"/>
<path d="M900.907 -74.7614L733.049 847.214L738.061 847.952L905.92 -74.0231L900.907 -74.7614Z" fill="#018010"/>
<path d="M890.435 -76.2487L722.576 845.727L727.589 846.465L895.447 -75.5104L890.435 -76.2487Z" fill="#018010"/>
<path d="M879.956 -77.7449L712.098 844.23L717.11 844.969L884.969 -77.0066L879.956 -77.7449Z" fill="#018010"/>
<path d="M869.484 -79.2266L701.627 842.741L706.639 843.479L874.497 -78.4883L869.484 -79.2266Z" fill="#018010"/>
<path d="M859.007 -80.737L691.148 841.238L696.161 841.977L864.02 -79.9987L859.007 -80.737Z" fill="#018010"/>
<path d="M848.534 -82.2244L680.676 839.751L685.688 840.489L853.547 -81.4861L848.534 -82.2244Z" fill="#018010"/>
<path d="M838.056 -83.7126L670.197 838.263L675.21 839.001L843.068 -82.9743L838.056 -83.7126Z" fill="#018010"/>
<path d="M827.577 -85.2087L659.719 836.767L664.731 837.505L832.59 -84.4704L827.577 -85.2087Z" fill="#018010"/>
<path d="M817.094 -86.6984L649.236 835.27L654.249 836.008L822.106 -85.9601L817.094 -86.6984Z" fill="#018010"/>
<path d="M806.636 -88.1999L638.777 833.775L643.79 834.514L811.648 -87.4616L806.636 -88.1999Z" fill="#018010"/>
<path d="M796.154 -89.6891L628.295 832.286L633.307 833.024L801.166 -88.9509L796.154 -89.6891Z" fill="#018010"/>
<path d="M785.673 -91.1765L617.814 830.799L622.827 831.537L790.686 -90.4382L785.673 -91.1765Z" fill="#018010"/>
<path d="M775.195 -92.6813L607.336 829.294L612.348 830.032L780.207 -91.9431L775.195 -92.6813Z" fill="#018010"/>
<path d="M764.715 -94.1621L596.857 827.806L601.87 828.544L769.727 -93.4238L764.715 -94.1621Z" fill="#018010"/>
<path d="M754.245 -95.6638L586.387 826.312L591.399 827.05L759.258 -94.9255L754.245 -95.6638Z" fill="#018010"/>
<path d="M743.773 -97.154L575.914 824.821L580.927 825.56L748.785 -96.4157L743.773 -97.154Z" fill="#018010"/>
<path d="M733.294 -98.6501L565.436 823.325L570.448 824.063L738.307 -97.9118L733.294 -98.6501Z" fill="#018010"/>
<path d="M722.816 -100.146L554.957 821.829L559.969 822.567L727.828 -99.408L722.816 -100.146Z" fill="#018010"/>
<path d="M712.342 -101.626L544.484 820.342L549.497 821.08L717.354 -100.888L712.342 -101.626Z" fill="#018010"/>
<path d="M701.865 -103.13L534.006 818.846L539.018 819.584L706.877 -102.391L701.865 -103.13Z" fill="#018010"/>
<path d="M691.384 -104.626L523.525 817.35L528.538 818.088L696.397 -103.887L691.384 -104.626Z" fill="#018010"/>
<path d="M680.913 -106.114L513.055 815.861L518.067 816.6L685.926 -105.376L680.913 -106.114Z" fill="#018010"/>
<path d="M670.443 -107.609L502.584 814.366L507.596 815.104L675.455 -106.871L670.443 -107.609Z" fill="#018010"/>
<path d="M659.961 -109.098L492.104 812.87L497.116 813.608L664.973 -108.359L659.961 -109.098Z" fill="#018010"/>
<path d="M649.482 -110.594L481.623 811.381L486.635 812.119L654.494 -109.856L649.482 -110.594Z" fill="#018010"/>
<path d="M639.003 -112.091L471.145 809.885L476.157 810.623L644.016 -111.352L639.003 -112.091Z" fill="#018010"/>
<path d="M628.533 -113.578L460.674 808.397L465.686 809.136L633.545 -112.84L628.533 -113.578Z" fill="#018010"/>
<path d="M618.054 -115.081L450.195 806.895L455.208 807.633L623.066 -114.342L618.054 -115.081Z" fill="#018010"/>
<path d="M607.58 -116.562L439.723 805.405L444.735 806.144L612.592 -115.824L607.58 -116.562Z" fill="#018010"/>
<path d="M597.103 -118.058L429.244 803.917L434.257 804.655L602.115 -117.32L597.103 -118.058Z" fill="#018010"/>
<path d="M586.632 -119.552L418.773 802.423L423.786 803.161L591.645 -118.814L586.632 -119.552Z" fill="#018010"/>
<path d="M576.152 -121.049L408.293 800.926L413.305 801.664L581.164 -120.311L576.152 -121.049Z" fill="#018010"/>
<path d="M565.671 -122.546L397.812 799.43L402.825 800.168L570.684 -121.807L565.671 -122.546Z" fill="#018010"/>
<path d="M555.191 -124.026L387.334 797.941L392.346 798.68L560.204 -123.288L555.191 -124.026Z" fill="#018010"/>
<path d="M544.73 -125.521L376.871 796.454L381.883 797.192L549.742 -124.783L544.73 -125.521Z" fill="#018010"/>
<path d="M534.249 -127.025L366.391 794.95L371.403 795.688L539.262 -126.287L534.249 -127.025Z" fill="#018010"/>
<path d="M523.771 -128.514L355.912 793.461L360.925 794.199L528.783 -127.776L523.771 -128.514Z" fill="#018010"/>
<path d="M513.292 -130.009L345.434 791.966L350.446 792.704L518.305 -129.271L513.292 -130.009Z" fill="#018010"/>
<path d="M502.818 -131.497L334.961 790.471L339.973 791.209L507.831 -130.759L502.818 -131.497Z" fill="#018010"/>
<path d="M492.339 -132.994L324.48 788.981L329.493 789.72L497.352 -132.256L492.339 -132.994Z" fill="#018010"/>
<path d="M481.87 -134.49L314.012 787.485L319.024 788.224L486.883 -133.752L481.87 -134.49Z" fill="#018010"/>
<path d="M471.39 -135.978L303.531 785.997L308.544 786.735L476.402 -135.24L471.39 -135.978Z" fill="#018010"/>
<path d="M460.919 -137.481L293.061 784.494L298.073 785.232L465.932 -136.743L460.919 -137.481Z" fill="#018010"/>
<path d="M450.439 -138.962L282.582 783.006L287.594 783.744L455.452 -138.224L450.439 -138.962Z" fill="#018010"/>
<path d="M439.96 -140.459L272.102 781.517L277.114 782.255L444.973 -139.72L439.96 -140.459Z" fill="#018010"/>
<path d="M429.48 -141.954L261.621 780.021L266.634 780.76L434.492 -141.216L429.48 -141.954Z" fill="#018010"/>
<path d="M419.007 -143.45L251.148 778.525L256.161 779.264L424.02 -142.712L419.007 -143.45Z" fill="#018010"/>
<path d="M408.538 -144.945L240.68 777.03L245.692 777.769L413.551 -144.207L408.538 -144.945Z" fill="#018010"/>
<path d="M398.057 -146.427L230.199 775.541L235.212 776.279L403.069 -145.688L398.057 -146.427Z" fill="#018010"/>
<path d="M387.577 -147.923L219.719 774.053L224.731 774.791L392.59 -147.184L387.577 -147.923Z" fill="#018010"/>
<path d="M377.101 -149.426L209.242 772.549L214.255 773.287L382.113 -148.688L377.101 -149.426Z" fill="#018010"/>
<path d="M366.628 -150.914L198.77 771.062L203.782 771.8L371.641 -150.176L366.628 -150.914Z" fill="#018010"/>
<path d="M356.15 -152.41L188.291 769.565L193.303 770.304L361.162 -151.672L356.15 -152.41Z" fill="#018010"/>
<path d="M345.678 -153.891L177.82 768.077L182.833 768.815L350.69 -153.152L345.678 -153.891Z" fill="#018010"/>
<path d="M335.199 -155.394L167.34 766.581L172.352 767.319L340.211 -154.656L335.199 -155.394Z" fill="#018010"/>
<path d="M324.728 -156.89L156.869 765.085L161.882 765.823L329.74 -156.152L324.728 -156.89Z" fill="#018010"/>
<path d="M314.247 -158.378L146.389 763.598L151.401 764.336L319.26 -157.639L314.247 -158.378Z" fill="#018010"/>
<path d="M303.769 -159.882L135.91 762.094L140.923 762.832L308.781 -159.143L303.769 -159.882Z" fill="#018010"/>
<path d="M293.287 -161.363L125.43 760.604L130.442 761.343L298.299 -160.625L293.287 -161.363Z" fill="#018010"/>
<path d="M282.824 -162.858L114.965 759.117L119.977 759.855L287.836 -162.12L282.824 -162.858Z" fill="#018010"/>
<path d="M272.347 -164.354L104.488 757.621L109.501 758.359L277.359 -163.616L272.347 -164.354Z" fill="#018010"/>
<path d="M261.866 -165.85L94.0078 756.125L99.0202 756.863L266.879 -165.112L261.866 -165.85Z" fill="#018010"/>
<path d="M251.388 -167.345L83.5293 754.63L88.5418 755.368L256.4 -166.607L251.388 -167.345Z" fill="#018010"/>
<path d="M240.914 -168.825L73.0566 753.143L78.0691 753.881L245.926 -168.087L240.914 -168.825Z" fill="#018010"/>
<path d="M230.437 -170.322L62.5781 751.653L67.5906 752.392L235.449 -169.584L230.437 -170.322Z" fill="#018010"/>
<path d="M219.966 -171.826L52.1074 750.149L57.1198 750.888L224.979 -171.088L219.966 -171.826Z" fill="#018010"/>
<path d="M209.486 -173.314L41.627 748.661L46.6394 749.399L214.498 -172.576L209.486 -173.314Z" fill="#018010"/>
<path d="M199.017 -174.809L31.1582 747.166L36.1707 747.904L204.029 -174.071L199.017 -174.809Z" fill="#018010"/>
<path d="M188.533 -176.291L20.6758 745.677L25.6882 746.415L193.546 -175.553L188.533 -176.291Z" fill="#018010"/>
<path d="M178.054 -177.795L10.1953 744.181L15.2078 744.919L183.066 -177.056L178.054 -177.795Z" fill="#018010"/>
<path d="M167.575 -179.29L-0.283203 742.686L4.72925 743.424L172.588 -178.551L167.575 -179.29Z" fill="#018010"/>
<path d="M157.113 -180.779L-10.7461 741.196L-5.73364 741.935L162.125 -180.041L157.113 -180.779Z" fill="#018010"/>
<path d="M146.634 -182.274L-21.2246 739.701L-16.2122 740.439L151.647 -181.536L146.634 -182.274Z" fill="#018010"/>
<path d="M136.152 -183.763L-31.7051 738.205L-26.6926 738.943L141.165 -183.024L136.152 -183.763Z" fill="#018010"/>
<path d="M125.675 -185.26L-42.1836 736.716L-37.1711 737.454L130.688 -184.521L125.675 -185.26Z" fill="#018010"/>
<path d="M115.204 -186.754L-52.6543 735.222L-47.6418 735.96L120.217 -186.015L115.204 -186.754Z" fill="#018010"/>
<path d="M104.724 -188.243L-63.1348 733.732L-58.1224 734.471L109.736 -187.505L104.724 -188.243Z" fill="#018010"/>
<path d="M94.2552 -189.747L-73.6035 732.229L-68.5911 732.967L99.2676 -189.008L94.2552 -189.747Z" fill="#018010"/>
<path d="M83.7733 -191.227L-84.084 730.741L-79.0716 731.479L88.7857 -190.488L83.7733 -191.227Z" fill="#018010"/>
<path d="M73.302 -192.721L-94.5566 729.254L-89.5442 729.992L78.3145 -191.983L73.302 -192.721Z" fill="#018010"/>
<path d="M62.8235 -194.226L-105.035 727.749L-100.023 728.487L67.8359 -193.488L62.8235 -194.226Z" fill="#018010"/>
<path d="M52.343 -195.715L-115.516 726.261L-110.503 726.999L57.3555 -194.976L52.343 -195.715Z" fill="#018010"/>
<path d="M41.8645 -197.211L-125.994 724.765L-120.982 725.503L46.8769 -196.472L41.8645 -197.211Z" fill="#018010"/>
<path d="M31.3827 -198.693L-136.475 723.275L-131.462 724.014L36.3952 -197.954L31.3827 -198.693Z" fill="#018010"/>
<path d="M20.9212 -200.194L-146.938 721.781L-141.925 722.52L25.9336 -199.456L20.9212 -200.194Z" fill="#018010"/>
<path d="M10.4427 -201.69L-157.416 720.285L-152.404 721.023L15.4551 -200.952L10.4427 -201.69Z" fill="#018010"/>
</g>
</svg>
