<svg width="601" height="733" viewBox="0 0 601 733" fill="none" xmlns="http://www.w3.org/2000/svg">
<mask id="mask0_52_12385" style="mask-type:luminance" maskUnits="userSpaceOnUse" x="0" y="0" width="601" height="733">
<path d="M538.562 665.729C540.217 664.571 539.269 661.7 537.05 661.932C532.353 662.427 532.129 659.384 531.181 656.401C530.403 653.939 529.274 651.564 528.09 649.248C527.142 647.39 525.454 647.067 523.476 647.708C519.289 649.06 518.709 653.115 517.98 656.217C517.169 659.67 520.906 657.898 522.594 658.63C525.153 659.745 527.23 661.986 529.416 663.849C530.573 664.835 529.855 665.825 529.011 666.628C528.704 666.919 528.249 667.118 527.827 667.242C524.709 668.157 520.007 667.393 518.983 670.603C518.018 673.613 523.799 672.994 524.786 675.956C523.531 682.246 519.426 684.357 514.604 681.013C513.41 680.184 512.779 678.573 511.892 677.318C508.072 672.547 512.933 667.84 511.859 662.675C509.875 653.137 510.417 652.378 501.787 656.411C497.14 658.587 489.506 657.839 488.893 665.836C488.816 666.806 487.035 667.732 486.454 666.192C484.909 662.104 483.451 667.565 482.065 666.084C480.64 667.829 482.815 668.211 483.352 669.138C485.374 672.628 486.821 676.484 491.857 677.313C497.205 678.191 498.581 675.552 498.773 671.243C498.838 669.714 498.444 668.104 498.789 666.655C499.156 665.131 499.085 662.411 501.573 663.014C503.436 663.467 505.201 664.436 504.203 667.84C502.439 673.872 505.94 677.469 512.012 677.173C511.974 683.065 508.401 687.32 503.321 688.434C497.238 689.77 490.657 689.339 484.328 689.021C480.985 688.855 476.979 688.467 476.185 683.738C476.004 682.661 474.661 682.079 473.45 682.273C471.719 682.543 471.472 683.695 471.812 685.225C472.409 687.917 470.88 689.732 468.496 690.034C464.759 690.508 460.923 692.21 457.23 690.901C452.747 689.312 451.492 691.397 451.043 695.064C450.774 697.251 450.572 699.448 450.336 701.64L450.495 701.484C448.747 700.455 446.944 699.491 446.221 697.407C445.519 695.387 445.421 692.231 442.675 692.517C440.22 692.77 440.691 696.152 439.557 697.945C437.858 700.633 436.856 706.864 432.187 700.067C431.491 699.05 430.861 699.717 429.978 700.094C423.994 702.647 421.063 707.381 420.46 713.418C419.83 719.736 416.01 721.104 410.651 720.161C405.461 719.246 400.414 719.316 395.17 719.989C388.934 720.786 382.572 720.614 376.259 720.786C374.571 720.834 371.979 721.357 372.62 718.449C373.952 712.406 373.092 705.911 376.38 699.874C377.771 702.566 376.396 705.06 376.949 707.284C377.87 710.99 377.876 715.858 383.388 716.154C388.326 716.418 393.301 716.057 398.261 715.89C399.466 715.847 401.927 716.257 401.379 714.566C399.724 709.498 404.152 710.112 406.305 708.491C404.683 711.603 405.275 714.286 408.316 715.551C413.166 717.571 415.374 714.113 416.657 710.402C417.347 708.415 420.799 705.243 414.947 704.354C411.752 703.87 412.448 700.929 413.933 699.163C417.183 695.301 415.199 693.836 411.407 693.992C407.966 694.132 406.256 693.115 405.9 689.813C405.73 688.224 406.349 685.725 403.341 686.673C401.631 687.212 400.409 687.815 401.253 690.799C402.404 694.881 401.625 699.55 395.082 699.141C392.611 698.985 390.123 698.926 387.646 698.936C382.72 698.958 381.892 696.055 383.027 692.285C384.671 686.824 383.366 679.807 390.929 677.232C391.833 676.925 392.386 675.584 393.066 674.696C394.206 673.209 395.324 671.513 393.34 670.048C391.137 668.427 391.066 671.103 390.008 671.917C385.334 675.509 380.868 680.017 374.275 679.096C367.524 678.148 365.891 679.123 365.913 685.655C365.924 688.101 366.214 690.556 366.116 692.996C366.017 695.479 367.694 699.044 364.159 699.954C360.603 700.87 356.575 701.252 353.26 698.479C352.559 697.892 352.191 695.409 351.463 696.707C348.909 701.263 345.029 698.349 341.851 698.958C330.836 701.075 319.876 703.762 310.473 694.127C307.569 691.149 303.771 691.186 303.338 697.014C303.207 698.759 304.308 701.489 300.987 701.554C298.067 701.613 298.631 698.737 297.688 697.165C296.603 695.344 296.998 693.303 296.982 691.3C296.894 682.327 298.735 673.651 300.516 664.905C301.59 659.627 304.533 654.704 304.253 648.231C299.026 651.133 297.184 656.848 292 658.463C299.941 649.103 308.1 640.007 316.6 631.228C319.504 628.228 324.228 628.729 327.976 627.21C329.494 626.596 331.077 625.939 330.579 623.952C330.195 622.439 328.803 622.39 327.373 622.148C321.142 621.082 315.887 623.521 310.692 626.284C306.144 628.708 301.842 631.891 297.003 633.361C294.291 634.185 290.97 633.092 288.915 636.501C288.723 629.257 294.351 626.446 298.505 622.676C302.779 618.798 306.791 614.075 314.643 617.042C309.054 612.47 312.566 610.413 315.783 608.565C321.219 605.442 326.409 601.844 332.699 600.314C335.812 599.56 337.467 596.9 335.927 594.186C334.711 592.048 330.409 589.069 330.069 589.36C322.479 595.936 309.377 594.11 304.851 605.334C304.04 607.343 301.678 608.862 299.195 607.973C296.231 606.912 297.579 604.268 297.65 602.178C297.853 596.383 301.524 596.157 306.708 598.026C304.5 592.408 301.327 589.716 296.154 589.005C293.644 588.66 291.704 588.649 292.767 591.671C295.327 598.903 289.66 601.774 285.967 605.937C284.334 604.241 287.189 602.372 284.909 600.928C282.767 607.666 271.862 606.831 272.821 612.217C274.947 607.693 275.659 599.264 278.547 591.423C281.282 584.001 286.301 577.916 291.408 571.938C292.439 570.731 293.54 569.159 291.913 567.85C290.208 566.477 289.085 568.157 288.011 569.25C286.597 570.693 285.2 572.148 283.841 573.639C282.843 574.733 281.687 575.481 280.317 574.539C278.355 573.192 280.394 572.401 280.925 571.388C282.794 567.823 285.989 565.507 290.554 562.615C285.918 562.518 282.942 566.45 279.495 562.75C278.284 561.452 276.065 563.568 276.613 565.706C278.712 573.92 271.812 581.055 273.829 589.225C273.906 589.532 273.467 590.27 273.215 590.297C262.891 591.407 268.848 605.151 259.477 607.483C258.069 607.833 260.261 611.7 261.795 613.666C264.349 616.94 265.434 620.457 262.601 625.266C260.042 620.661 257.148 617.048 256.025 612.971C254.951 609.066 251.663 608.167 249.416 605.889C247.191 610.332 241.827 607.316 239.026 610.143C238.402 610.773 238.111 612.605 238.577 613.262C243.087 619.606 239.037 626.769 240.692 633.372C241.037 634.75 241.799 637.432 238.314 636.371C236.714 635.881 235.229 635.537 234.801 637.939C234.385 640.26 234.39 642.005 236.697 643.69C242.955 648.263 245.279 660.197 241.624 668.378C238.078 663.402 238.747 657.375 236.303 652.259C237.13 658.275 235.114 665.384 239.443 669.972C246.769 677.733 243.947 687.201 245.887 695.813C246.265 697.482 245.416 699.496 243.788 700.428C242.199 701.333 240.72 700.159 239.574 699.076C234.237 694.035 228.549 697.008 223.633 699.195C220.241 700.703 217.847 700.547 214.356 700.154C209.846 699.642 202.711 689.716 200.278 702.426C200.251 702.583 199.878 702.83 199.768 702.787C193.631 700.369 189.461 706.762 183.866 706.266C176.764 705.631 169.843 706.11 163.146 708.528C161.53 709.11 160.395 708.728 159.645 707.575C158.779 706.25 159.743 704.914 160.615 704.004C161.678 702.9 163.086 702.092 164.401 701.241C169.432 698.01 166.708 694.752 163.552 693.168C160.511 691.644 157.047 689.533 152.899 690.556C158.478 685.682 165.421 683.641 172.254 681.191C172.007 678.875 169.996 678.207 168.215 677.292C165.881 676.085 166.725 674.437 167.596 672.773C168.095 671.82 168.785 670.08 169.843 671.357C173.542 675.821 177.674 671.497 181.52 672.229C183.268 672.563 185.208 672.186 185.778 669.892C186.25 668.017 185.543 666.714 184.452 665.077C181.838 661.161 178.561 657.612 174.49 655.878C170.95 654.37 171.158 648.258 167.295 649.652C164.401 650.697 162.604 654.753 160.39 657.515C159.7 658.383 159.272 659.449 158.653 660.375C157.371 662.298 155.442 662.653 153.283 662.4C151.48 662.19 151.776 661.883 151.436 659.32C151.2 657.542 149.233 654.413 148.548 654.537C145.561 655.087 143.15 656.901 141.769 659.95C140.712 662.298 139.605 665.023 136.114 664.878C132.032 664.711 135.495 660.44 133.012 659.406C131.752 659.761 131.725 661.366 130.979 661.792C128.349 663.294 125.79 666.703 122.371 663.327C121.603 662.567 122.02 660.305 119.992 661.792C118.765 662.691 118.414 664.28 119.97 665.088C122.551 666.429 123.439 669.121 125.395 670.953C127.275 672.714 127.56 675.196 125.489 676.812C124.162 677.846 122.497 681.972 119.981 677.523C119.181 676.107 118.14 677.173 117.346 678.051C114.66 681.024 112.189 683.851 111.74 688.278C111.186 693.755 109.613 699.146 108.315 704.537C107.498 707.92 105.476 708.894 102.435 706.681C100.873 705.545 99.6893 703.708 97.2015 705.173C92.3956 707.995 89.2447 706.767 87.4801 701.462C86.5595 698.683 85.4252 696.06 83.5182 693.793C80.2796 689.942 80.1316 686.172 84.1758 682.844C85.5512 681.713 86.5102 680.965 85.4526 679.074C84.2799 676.985 82.6907 678.169 81.1838 677.9C76.4327 677.055 73.5941 681.961 68.4869 680.986C75.4792 686.566 73.9996 694.326 75.0627 701.371C69.3911 702.049 65.314 711.679 58.3436 703.417C57.9052 705.108 57.7408 705.965 57.4559 706.789C54.9022 714.242 55.5324 715.314 63.1056 715.799C66.2401 715.998 68.2184 716.86 69.8733 720.048C72.5091 725.127 83.5511 725.078 85.3156 719.989C86.6691 716.084 88.2473 714.63 92.275 714.56C96.1877 714.496 98.6755 716.014 100.451 721.211C101.481 717.517 99.229 713.806 103.92 713.844C107.35 713.871 109.646 714.544 110.353 718.125C110.737 720.086 111.46 721.998 111.69 723.969C112.485 730.819 111.959 731.164 105.027 729.328C103.575 728.945 102.221 728.245 100.462 728.881C89.8749 732.694 78.4931 729.839 67.7252 732.462C66.7826 732.694 64.7496 732.182 64.6893 731.794C63.4454 723.829 58.1299 727.281 53.9597 728.417C53.187 725.181 58.0148 726.322 57.286 722.946C52.3322 724.001 50.3101 727.238 49.3895 731.66C47.6688 726.091 47.6852 719.892 51.9431 716.898C56.9572 713.37 54.0309 711.135 53.4665 708.07C50.6608 710.101 49.5539 712.745 45.148 711.415C38.6489 709.455 29.5413 702.006 29.0317 695.479C28.7303 691.59 28.1549 688.316 25.5684 685.165C24.3026 683.62 23.497 680.275 25.0533 678.805C27.4151 676.575 27.8919 677.017 28.4344 674.927C28.7742 673.624 28.818 672.046 30.736 672.278C32.5882 672.498 32.2758 673.99 32.3799 675.342C32.5169 677.157 31.5908 679.408 34.1609 680.636C38.9777 676.053 41.5697 668.949 48.3538 666.881C52.5678 665.594 51.439 664.231 49.9155 661.98C48.9127 660.504 48.0798 658.862 46.8413 657.607C44.7261 655.458 42.6985 654.785 41.3231 658.528C40.2929 661.323 37.8543 661.948 36.7857 659.115C35.8596 656.664 33.5965 656.982 33.0046 656.594C33.3773 652.388 46.4961 657.639 37.8708 647.897C37.6899 647.692 37.8817 647.019 38.0735 646.658C42.2711 638.66 34.254 632.984 33.9198 625.805C33.8266 623.747 28.5769 614.678 24.8012 612.992C20.4941 611.07 20.5489 607.37 23.7053 603.594C24.9218 602.14 23.8203 600.665 22.549 600.525C14.6306 599.679 16.0827 594.751 17.4911 589.796C18.8501 585.009 17.7815 582.499 12.0386 581.739C6.50939 581.007 -13.0374 575.395 13.8798 576.321C17.8199 576.456 18.872 575.357 20.0228 571.534C23.0641 561.398 18.2254 552.856 15.5074 543.905C14.0716 539.161 11.2331 532.719 15.7868 530.619C21.9955 527.759 19.4584 524.038 19.157 520.655C18.8501 517.214 18.0336 513.126 15.869 510.649C7.26013 500.809 13.1291 488.293 8.88766 477.753C8.37255 476.472 9.23837 475.228 10.3617 474.274C11.7591 473.089 11.9564 471.07 11.1892 469.966C7.22726 464.241 6.09292 457.74 4.56403 451.181C3.72013 447.562 3.1283 444.4 4.28456 440.905C5.52849 437.14 6.02716 432.363 5.77509 429.358C5.02982 420.321 2.13644 411.699 12.066 405.64C12.4605 405.397 12.1756 404.256 12.5373 403.765C17.9788 396.398 11.0687 388.621 13.3538 381.151C14.2689 378.146 13.3483 375.728 9.27126 374.651C14.9977 370.703 20.0611 376.633 25.1355 373.703C26.2041 373.083 27.0809 377.672 28.1111 379.832C28.4837 380.607 28.8728 381.55 30.04 381.345C31.3716 381.113 32.1114 380.139 31.7717 378.959C30.4948 374.521 30.6647 372.233 36.0295 375.453C36.7967 375.916 38.7311 375.087 39.7942 374.376C42.6711 372.453 41.9861 369.308 41.9478 366.551C41.9259 365.091 40.66 363.998 39.0763 364.784C31.8703 368.371 26.5493 362.501 22.6915 359.474C10.7453 350.098 12.9154 341.481 18.9378 328.857C21.7983 322.857 25.2342 319.421 17.102 315.258C12.6414 312.974 14.0442 307.513 14.9649 303.733C15.9019 299.893 19.0035 305.149 21.0859 303.555C19.6721 298.406 16.4061 293.451 17.3486 288.222C18.2747 283.106 18.5377 278.199 18.0774 273.083C17.7322 269.243 23.3929 260.502 26.0013 260.992C32.3635 262.188 31.2072 255.746 33.991 253.398C35.9364 251.756 33.6348 245.018 31.2456 244.253C27.174 242.945 26.8781 239.783 26.3137 237.543C25.4753 234.198 25.4369 228.614 29.7112 228.247C35.7774 227.725 32.5443 225.145 32.2922 222.759C31.8758 218.822 26.8452 215.893 28.5221 212.112C30.851 206.856 37.9913 204.211 37.5146 197.124C37.5091 197.005 37.9146 196.704 38.0078 196.747C44.0575 199.434 40.9614 194.14 41.3176 192.681C42.5561 187.575 39.4983 181.365 44.6329 177.337C47.7072 174.924 47.0112 172.07 46.5783 169.522C44.8083 159.096 48.8689 151.48 58.1408 148.788C59.6807 148.341 61.0287 148.744 61.2315 150.349C61.4781 152.321 61.8014 153.791 64.2948 153.802C67.084 153.812 67.4841 151.825 68.0594 149.881C68.991 146.752 70.098 144.791 73.3201 148.314C74.8545 149.989 76.1477 149.267 76.0655 146.886C75.9724 144.274 76.1587 141.862 72.1529 141.641C68.3828 141.436 67.5608 136.934 69.6596 136.174C75.6217 134.015 71.7967 133.261 69.7363 131.505C62.7001 125.505 61.5932 115.601 67.369 108.632C69.0842 106.564 67.9444 104.959 67.8402 103.08C67.6978 100.408 67.0566 97.1177 71.9502 99.3958C72.9365 99.8536 75.9231 100.559 76.1258 98.895C76.4108 96.5899 78.3233 94.3387 76.9423 91.9044C75.8847 90.0302 74.2681 89.6424 72.3337 90.6172C70.6076 91.4897 69.2979 90.9511 68.2458 89.4916C66.5415 87.1273 69.0129 77.277 71.6049 75.5482C75.6217 72.8661 77.9835 69.9364 73.7969 65.2724C72.3064 63.6082 71.3583 61.0931 71.9008 58.3788C74.9038 58.7773 76.7341 62.8004 80.1919 60.9639C79.7261 57.097 77.4081 54.0218 76.1258 50.5534C74.1914 45.3347 72.7831 42.2595 80.7399 42.9274C83.0524 43.1212 85.1731 40.0568 85.7649 37.267C86.2033 35.2043 84.7621 34.1703 83.0031 34.6227C81.2824 35.0589 80.3399 35.1236 80.4549 33.1524C80.5481 31.5637 81.0796 30.0503 82.6085 29.2155C83.8689 28.5261 84.9594 29.2855 85.469 30.2388C87.2061 33.4756 91.7161 34.6227 92.9107 37.0678C96.7138 44.8554 99.7934 40.7085 103.47 37.3694C101.722 35.172 99.7058 33.3894 95.7329 32.6839C101.065 30.3465 103.421 27.8799 100.32 22.6127C99.3386 20.9432 101.717 21.9664 102.539 22.812C102.539 22.812 102.336 22.5481 102.331 22.5427C104.468 28.2353 112.293 30.0072 112.731 37.0193C112.764 37.5417 115.356 38.6135 116.321 38.2634C121.264 36.4592 124.76 40.4661 129.078 40.9562C135.144 41.651 137.342 45.5017 137.906 51.022C138.12 53.1224 136.75 55.7613 139.002 57.3232C145.068 61.5294 143.167 66.8019 141.293 72.0906C138.92 78.7958 140.635 85.3608 146.011 89.7932C154.861 97.0854 156.823 106.44 150.165 112.585C146.877 115.623 142.504 117.152 146.46 122.791C147.26 123.933 145.66 128.021 144.011 129.243C140.312 131.979 142.931 132.948 144.942 133.53C150.86 135.237 152.63 137.849 148.055 142.885C146.597 144.49 144.69 147 146.855 148.712C149.469 150.78 150.017 146.553 152.691 145.653C149.929 152.143 153.946 158.546 151.123 164.729C150.493 166.113 152.258 167.653 152.444 168.973C153.524 176.486 157.683 183.95 153.184 191.663C151.743 194.135 151.967 196.381 154.894 197.743C156.11 198.309 157.716 198.61 157.699 200.242C157.628 206.581 160.379 213.071 156.483 219.232C155.595 220.632 154.696 223.373 156.96 223.74C161.327 224.45 161.124 227.224 159.584 229.335C157.924 231.619 155.507 231.193 153.655 228.393C151.529 225.172 148.953 228.188 147.54 229.179C145.808 230.396 145.578 233.482 147.704 234.926C149.83 236.369 152.148 238.157 155.107 237.753C156.609 237.548 158.313 236.218 159.502 237.85C161.415 240.484 157.513 240.08 157.195 241.62C156.45 245.234 157.612 249.838 151.781 250.743C150.981 250.867 151.77 252.914 152.778 253.398C154.943 254.438 154.954 255.536 153.825 257.502C152.669 259.516 153.244 261.719 154.466 263.701C156.998 263.857 156.329 258.789 160.045 260.766C163.459 262.586 161.393 265.392 161.179 267.234C160.565 272.453 155.502 276.788 157.831 282.788C158.012 283.251 157.069 284.533 156.368 284.856C153.261 286.283 153.513 288.841 153.359 291.588C153.02 297.663 146.509 305.623 142.263 304.557C138.86 303.706 138.279 304.998 137.687 307.271C137.336 308.628 136.985 309.565 135.402 310.141C127.571 312.99 123.686 320.45 117.778 325.544C115.225 327.747 114.123 333.289 118.907 336.698C120.348 337.721 122.869 340.096 120.332 341.184C115.466 343.269 117.965 346.462 117.499 349.214C120.348 349.99 119.389 345.353 122.403 346.667C122.634 351.062 119.707 355.225 122.924 359.996C124.639 362.538 123.231 367.116 123.231 371.15C127.933 369.787 124.891 363.535 130.47 362.318C130.47 369.082 130.481 375.642 130.47 382.207C130.464 385.185 131.582 388.492 127.352 390.048C126.141 390.495 124.595 392.639 127.779 392.833C131.347 393.048 128.924 394.604 128.738 395.757C128.459 397.497 125.543 398.768 126.859 400.394C129.845 404.083 127.593 407.853 128.031 411.327C128.766 417.063 125.428 421.947 126.48 427.392C126.716 428.62 126.535 430.177 124.952 430.769C123.269 431.394 121.707 430.925 120.765 429.487C119.647 427.785 118.814 425.9 117.598 423.606C114.912 429.466 113.049 434.975 109.076 439.747C105.345 432.595 107.284 423.892 103.005 416.567C100.309 419.411 102.232 422.545 100.309 424.705C99.1194 424.032 99.3331 421.08 97.9412 422.211C95.2451 424.409 94.5328 428.491 95.2123 431.243C95.7328 433.354 97.1247 435.352 96.9549 437.894C96.648 442.37 98.0289 445.084 103.366 446.156C107.569 446.996 113.126 450.2 113.597 453.798C114.238 458.715 113.597 463.352 116.863 467.946C118.847 470.731 117.888 474.834 116.091 478.19C115.049 480.134 113.997 482.132 113.405 484.232C113.044 485.52 111.948 487.555 114.019 488.325C116.156 489.123 117.302 487.421 118.074 485.708C118.809 484.082 119.406 482.396 120.096 480.753C121.494 477.436 119.696 473.267 122.688 470.041C127.478 477.42 127.511 477.43 124.02 485.864C123.28 487.647 123.954 488.336 125.587 488.573C128.075 488.934 129.253 490.964 129.286 492.785C129.379 497.562 132.859 500.729 134.218 505.156C137.725 498.72 137.895 491.535 142.054 485.751C138.607 484.275 137.177 486.134 135.862 488.406C135.144 489.64 134.854 491.751 132.602 490.911C130.125 489.984 130.136 487.792 130.766 485.848C131.369 483.979 132.317 482.121 133.511 480.554C137.15 475.798 137.068 470.574 137.09 464.871C137.117 457.137 132.832 450.147 135.446 441.643C137.051 436.413 139.144 430.198 138.553 424.042C135.424 425.033 136.909 428.642 134.169 430.074C135.462 423.714 132.673 416.912 138.312 411.736C139.358 410.772 138.986 408.903 138.021 408.02C134.93 405.187 135.999 402.053 136.777 398.784C137.166 397.136 138.322 394.901 136.498 393.802C133.215 391.831 134.015 389.537 135.166 386.989C135.703 385.794 136.273 384.835 135.473 383.327C132.854 378.383 133.577 367.418 137.095 362.048C137.555 365.242 135.303 368.576 137.933 370.197C143.479 373.622 145.287 380.058 150.28 383.936C155.469 387.969 155.222 391.917 149.83 395.924C148.312 397.05 146.038 398.24 147.381 399.785C150.608 403.518 147.238 406.663 147.134 410.401C149.447 405.381 154.817 407.53 158.472 404.029C158.176 405.812 158.302 406.663 157.94 406.991C152.811 411.612 154.318 416.739 158.483 420.127C162.812 423.644 164.757 418.037 167.174 415.749C170.128 412.948 171.531 414.052 173.339 416.906C176.769 422.324 175.087 428.405 176.019 434.13C177.537 443.479 183.992 446.974 192.338 442.892C185.937 438.918 181.526 433.381 180.819 425.771C179.394 410.32 174.457 394.804 187.493 380.65C191.861 375.911 193.587 367.105 193.302 359.63C192.94 350.054 195.132 345.579 204.087 342.482C206.585 341.621 207.002 340.333 207.281 338.179C208.306 330.289 206.289 321.564 213.671 315.328C214.318 314.778 214.444 313.174 214.23 312.177C211.939 301.53 213.939 290.845 214.394 280.246C214.608 275.35 211.079 270.541 212.717 266.809C218.016 254.729 210.208 239.293 222.904 229.346C224.335 217.621 234.083 208.751 234.445 196.612C234.62 190.72 238.226 188.421 243.98 189.137C245.454 189.32 247.224 190.639 248.063 188.512C248.742 186.794 248.49 184.914 246.49 183.934C244.057 182.744 244.956 180.972 244.934 178.92C244.868 173.852 249.197 169.937 248.106 164.476C247.789 162.882 248.474 157.765 252.721 158.444C259.406 159.521 258.973 154.728 258.436 151.475C257.313 144.716 260.683 140.887 265.713 137.575C267.018 136.718 268.453 135.981 269.549 134.909C275.588 129.017 284.005 127.261 291.672 130.428C297.075 132.658 298.889 131.688 298.341 125.963C297.782 120.184 300.154 115.316 303.053 111.04C305.147 107.948 308.451 104.022 313.498 105.794C318.424 107.523 323.663 107.21 328.787 108.934C333.078 110.377 331.401 114.519 334.245 115.025C343.319 116.641 341.303 122.845 340.738 128.818C340.24 134.09 343.473 139.39 347.89 139.573C355.825 139.896 355.03 144.431 355.167 149.229C355.216 150.904 354.279 153.414 357.331 152.865C362.11 152.008 360.647 155.482 360.724 157.432C360.959 163.722 361.863 170.093 358.954 176.157C357.671 178.834 358.828 181.688 359.063 184.467C359.26 186.81 360.406 187.597 362.685 186.896C368.653 185.054 371.453 186.977 369.88 192.821C368.445 198.152 369.168 203.016 370.933 207.76C372.818 212.828 371.957 215.467 365.705 214.929C367.102 217.551 368.182 219.986 370.965 218.936C377.574 216.447 376.407 222.916 375.832 224.203C374.182 227.887 374.516 231.866 373.377 235.599C370.883 234.974 373.64 230.886 370.346 231.576C367.688 232.13 367.957 234.285 368.675 236.428C369.848 239.913 369.771 242.686 365.223 244.081C363.979 244.464 362.532 247.189 363.102 249.289C363.705 251.508 365.716 250.275 367.162 250.382C372.648 250.813 376.018 254.852 374.768 260.491C373.705 265.279 374.807 268.031 379.848 269.141C381.569 269.518 384.342 269.851 382.09 272.932C381.158 274.203 382.106 276.093 382.917 276.551C388.879 279.901 387.389 286.095 389.033 291.087C390.956 296.92 393.23 302.65 394.962 308.537C396.535 313.89 396.518 319.556 391.378 322.954C387.246 325.684 388.227 328.442 389.394 331.905C391.422 328.033 396.058 326.541 397.505 322.098C398.069 320.374 399.368 317.832 402.864 318.247C405.461 318.559 408.196 316.615 406.278 313.604C399.861 303.555 403.521 295.563 411.577 288.954C413.237 287.592 410.947 284.382 414.322 284.894C420.219 285.788 418.619 281.517 418.482 278.705C418.339 275.77 425.014 269.62 427.381 271.236C431.655 274.144 436.795 272.754 439.815 271.499C447.585 268.273 445.947 273.099 446.215 276.96C446.511 281.258 442.724 283.973 441.135 288.125C446.769 285.868 449.262 281.021 453.449 277.951C454.945 280.704 453.816 282.842 453.005 284.786C450.736 290.231 448.429 295.072 451.306 301.557C453.892 307.384 454.15 308.526 458.934 304.002C463.685 299.51 465.203 301.314 465.893 306.538C465.921 306.743 466.557 306.867 466.918 307.034C468.157 305.973 467.505 303.307 470.086 303.366C471.916 304.939 468.853 307.686 471.582 309.398C474.678 303.996 479.045 300.022 482.826 295.385C484.722 297.927 483.319 301.007 485.314 303.119C489.099 298.903 492.222 298.501 494.685 301.912C500.23 299.241 494.307 291.986 500.192 289.186C502.74 292.229 503.929 298.298 509.782 295.896C515.947 293.365 517.103 297.377 519.509 301.121C521.788 304.675 517.837 307.788 519.394 310.68C522.89 317.175 519.646 321.737 515.355 325.932C513.799 327.456 512.982 328.42 514.834 330.494C519.262 323.369 530.556 326.347 533.307 316.917C536.2 320.013 535.433 321.656 532.545 323.115C531.504 323.643 530.233 324.828 531.186 326.368C532.069 327.79 533.417 327.537 534.787 326.999C535.767 326.611 536.748 325.792 537.899 326.648C537.05 333.386 535 339.789 531.433 347.243C535.866 344.965 539.998 346.134 537.866 349.225C533.674 355.311 535.587 361.854 533.915 367.962C533.175 370.66 529.69 372.68 530.638 375.739C532.364 381.34 528.282 384.329 524.819 385.476C518.1 387.7 514.648 391.33 514.467 398.197C514.434 399.538 513.864 400.884 512.314 401.272C510.565 401.708 510.028 400.136 509.239 399.166C507.771 397.357 506.609 395.175 503.765 395.267C502.4 401.412 505.858 405.974 507.508 411.02C508.571 414.273 511.207 413.831 511.492 411.973C512.494 405.462 522.271 404.352 520.796 396.597C520.627 395.698 521.509 394.373 522.84 394.314C524.265 394.254 524.419 395.612 524.945 396.554C525.958 398.347 523.98 401.17 527.668 402.608C526.813 395.208 534.408 396.22 537.51 391.637C537.976 397.168 536.2 401.24 533.712 404.94C531.553 408.155 527.805 409.787 525.054 412.652C515.766 422.324 515.273 428.152 524.967 438.535C526.572 434.377 527.065 429.891 530.803 426.951C531.937 426.057 534.162 424.339 532.452 422.481C530.079 419.901 530.019 423.703 528.687 424.215C527.164 424.802 525.564 425.475 524.161 424.57C521.383 422.782 524.967 422.405 525.131 421.183C525.838 415.915 532.392 415.458 533.822 410.589C533.773 415.188 537.055 414.72 538.694 413.239C543.423 408.963 548.07 404.304 548.766 397.524C549.451 390.845 553.698 389.257 559.55 389.59C560.991 389.671 565.178 399.511 564.225 401.337C562.57 404.509 561.019 407.745 564.789 410.142C568.356 412.409 569.589 407.977 572.044 406.921C572.335 406.798 572.795 407.056 573.486 407.207C570.581 411.068 568.992 415.442 565.107 418.781C560.153 423.041 560.624 427.834 564.937 432.708C565.463 433.306 565.857 434.275 565.819 435.051C565.468 442.192 563.781 449.161 564.203 456.491C564.4 459.905 565.803 464.812 561.775 468.075C561.117 468.609 562.307 471.511 563.392 470.951C567.359 468.894 566.482 472.642 567.518 473.93C568.329 474.937 568.762 476.784 570.367 476.046C572.269 475.174 570.987 473.87 570.115 472.879C568.488 471.032 568.888 469.325 570.187 467.467C570.959 466.363 570.072 463.805 572.57 464.338C574.209 464.688 573.902 466.476 573.562 467.758C571.606 475.12 576.335 471.059 578.982 470.176C578.626 472.303 577.765 474.021 578.215 475.303C580.801 482.692 578.379 489.268 575.743 496.081C573.798 501.111 572.718 506.507 579.196 509.97C580.982 510.924 580.516 513.186 579.979 514.855C579.612 515.997 577.858 516.772 577.382 515.658C576.658 513.966 572.631 516.196 573.99 512.227C575.683 507.288 570.115 507.703 567.863 505.829C565.836 504.143 564.351 506.577 563.019 508.058C562.224 508.936 561.989 511.171 560.279 510.143C558.487 509.066 559.315 507.628 560.745 506.421C562.241 505.161 562.038 503.308 560.723 502.334C558.832 500.928 558.087 503.249 557.101 504.17C552.388 508.554 557.583 511.161 559.238 514.263C560.58 516.789 564.12 518.361 560.202 521.975C558.087 523.925 559.123 527.624 560.695 530.113C562.679 533.247 565.052 530.037 567.206 530.102C569.491 530.166 570.921 529.057 572.664 528.19C579.612 524.738 584.752 533.403 591.624 531.071C591.739 531.034 593.186 533.242 592.879 533.796C590.374 538.304 594.205 542.397 593.542 546.673C593.049 549.867 594.013 551.224 597.411 550.912C600.194 550.653 601.236 551.521 600.956 554.8C600.605 558.888 600.819 562.211 596.024 564.468C593.591 565.615 589.865 568.302 589.41 570.623C587.454 580.592 574.828 578.293 571.6 586.393C571.502 586.64 569.792 586.63 569.134 586.247C565.792 584.292 564.438 586.953 563.441 588.935C562.175 591.444 561.452 594.789 563.15 596.997C564.63 598.914 567.321 596.787 569.452 596.308C570.099 596.162 570.652 595.678 571.288 595.462C575.135 594.175 578.932 596.049 579.661 598.887C580.522 602.226 576.017 600.692 574.034 601.65C571.442 602.9 568.554 602.614 565.715 602.717C559.813 602.937 554.574 604.952 549.275 607.768C543.395 610.887 541.812 615.314 541.625 622.051C543.998 617.904 547.138 618.459 549.051 620.694C551.188 623.182 548.536 624.965 546.524 626.537C545.691 627.189 545.231 628.309 544.623 629.23C543.598 630.781 539.592 630.237 540.858 632.914C542.157 635.666 543.516 631.562 545.187 632.058C545.576 632.176 545.998 632.321 546.3 632.575C548.662 634.583 548.837 634.675 549.895 632.483C551.045 630.092 551.84 627.534 552.739 625.024C554.821 619.207 560 616.208 566 617.376C573.864 618.906 577.464 622.223 577.015 627.517C576.527 633.21 571.178 639.07 565.408 638.133C559.956 637.244 558.602 639.371 557.353 643.437C556.618 645.834 554.876 647.956 552.454 648.661C548.629 649.782 551.341 644.407 548.448 644.164C547.538 645.812 546.601 647.31 545.85 648.898C543.79 653.25 538.266 657.214 545.922 662.19C548.146 663.634 548.366 668.944 547.631 672.563C546.486 678.186 543.401 684.18 553.824 686.232C547.703 687.11 547.615 687.072 545.363 691.951C544.535 693.745 543.434 694.698 541.483 695.215C533.904 697.245 530.353 694.569 529.97 686.151C529.772 681.864 530.989 676.985 524.556 675.95C530.172 673.834 533.822 669.062 538.551 665.739L538.562 665.729ZM293.99 478.416C294.472 471.765 295.968 465.997 297.984 460.401C301.996 460.611 299.815 464.898 303.338 466.12C309.788 448.682 314.797 430.958 317.876 410.901C313.492 414.655 314.495 418.366 313.465 421.35C312.605 423.843 312.396 426.514 310.868 428.852C309.881 430.36 309.618 432.212 307.032 430.656C304.944 429.396 303.744 428.114 305.382 425.933C308.61 421.619 308.747 416.971 307.196 412.119C306.259 409.178 307.673 407.713 310.073 406.264C311.476 405.419 313.323 403.889 312.396 401.924C311.218 399.419 308.111 399.575 305.958 399.209C303.93 398.865 303.864 401.563 303.689 403.329C302.905 411.354 298.56 419.147 302.259 427.495C302.829 428.776 302.67 431.038 300.631 431.216C299.184 431.34 297.946 430.171 297.634 428.254C296.428 420.881 297.53 413.32 293.376 406.038C292.187 403.954 290.115 399.931 290.049 396.226C286.778 400.9 285.172 405.893 285.956 411.634C282.915 410.767 283.506 408.763 283.452 407.115C283.359 404.229 283.002 401.062 279.101 402.468C277.029 403.211 273.303 403.679 275.374 408.758C276.92 412.544 279.391 418.727 272.689 421.894C272.508 421.98 272.415 422.233 272.267 422.4C270.305 424.64 277.583 429.202 269.812 430.699C268.152 431.022 267.176 437.544 264.464 440.722C262.656 442.838 266.7 441.934 266.93 444.093C261.11 444.072 257.817 445.833 262.332 451.897C262.968 452.753 262.962 454.972 262.288 455.726C255.811 462.943 264.513 464.564 267.105 468.232C268.744 470.553 271.248 468.921 272.097 467.294C272.98 465.603 272.251 464.165 269.39 464.537C267.533 464.779 266.47 462.577 266.557 460.729C266.645 458.958 267.637 458.268 269.807 458.494C272.837 458.812 270.59 455.57 272.476 454.218C281.315 460.692 285.479 470.978 293.995 478.41L293.99 478.416ZM286.159 289.94C283.375 287.468 285.013 284.743 285.057 282.384C285.167 276.724 285.277 276.75 279.632 273.309C279.177 273.029 279.161 272.119 278.832 271.559C277.133 268.64 276.142 263.927 271.325 266.216C267.012 268.263 264.623 272.668 266.886 277.127C270.399 284.037 272.815 290.543 267.872 297.679C267.571 298.11 267.615 299.236 267.966 299.569C274.931 306.237 270.706 315.339 273.276 322.948C273.55 323.767 273.867 325.162 273.462 325.528C267.028 331.329 271.177 338.158 272.136 344.249C272.618 347.308 266.486 348.654 270.497 350.394C273.895 351.869 274.185 346.947 275.933 344.917C276.394 344.383 277.594 344.114 278.355 344.254C279.758 344.513 279.468 345.547 279.419 346.78C279.232 351.579 275.583 355.101 274.859 359.716C274.278 363.422 273.561 366.658 279.249 365.818C280.06 365.7 280.931 365.947 281.775 366.028C279.265 372.076 286.646 371.672 287.819 374.947C289.841 380.618 293.836 376.907 296.812 377.247C298.801 377.473 299.595 374.958 299.694 373.272C299.93 369.276 297.371 365.587 294.954 363.513C292.603 361.494 290.806 366.405 287.584 368.172C288.822 365.377 285.764 362.172 290.143 360.761C290.225 360.734 290.165 359.355 289.797 359.065C282.602 353.415 287.096 346.403 287.43 339.886C287.457 339.315 287.732 338.26 287.682 338.249C278.909 336.116 286.646 327.699 282.082 323.649C281.238 322.9 281.079 318.511 286.044 317.708C292.45 316.674 288.685 308.58 292.674 305.289C296.85 301.853 299.119 298.385 293.885 294.044C292.176 292.627 293.902 291.227 293.968 289.832C294.11 286.735 296.74 283.822 294.779 279.578C291.65 283.337 289.025 286.488 286.153 289.94H286.159ZM403.28 389.973C407.127 400.895 403.22 411.488 403.576 422.093C403.719 426.38 403.609 430.414 401.905 434.033C400.064 437.948 403.889 439.973 404.058 443.135C404.091 443.802 406.508 443.258 407.708 442.574C411.27 440.539 410.925 437.63 409.61 434.469C409.478 434.151 409.763 433.672 410.464 433.096C412.7 439.677 419.314 444.766 416.01 453.286C414.711 456.631 413.561 457.864 409.944 455.942C410.64 461.074 416.613 460.907 416.958 465.388C419.934 463.288 419.199 460.627 419.501 458.279C419.835 455.656 419.901 453.125 422.334 451.105C425.309 448.633 422.92 445.66 422.411 442.876C421.66 438.804 422.789 435.837 427.556 437.83C431.283 439.386 431.485 435.605 433.633 435.013C431.496 433.031 436.22 427.468 429.94 427.802C424.487 428.092 418.942 428.448 413.67 429.719C410.667 430.441 409.774 429.6 409.577 427.338C409.429 425.62 407.089 423.251 411.292 422.249C414.333 421.527 416.191 418.856 412.876 415.878C407.829 411.343 411.199 405.715 410.717 400.593C410.503 398.315 411.122 397.211 414.103 397.405C420.372 397.809 422.049 390.167 427.753 389.176C427.945 389.143 428.252 388.249 428.093 388.002C423.43 380.435 429.293 373.994 430.45 367.078C430.893 364.418 431.03 362.048 428.126 360.944C425.079 359.786 421.008 359.054 419.413 362.059C416.306 367.929 410.196 372.093 411.018 380.521C411.402 384.463 407.746 389.45 409.051 394.513C405.187 394.734 406.185 390.888 403.275 389.984L403.28 389.973ZM432.033 468.98C417.44 469.427 416.492 470.354 413.248 485.035C412.634 487.808 411.418 491.185 410.01 493.022C405.724 498.612 410.075 502.84 410.832 507.595C411.045 508.926 411.626 510.315 413.144 510.568C415.216 510.913 415.67 508.931 416.383 507.708C417.018 506.615 416.903 505.129 417.375 503.906C418.049 502.161 417.024 499.393 419.594 498.811C422.838 498.079 421.139 501.106 421.928 502.28C423.035 503.938 431.019 501.574 431.047 499.291C431.146 490.814 435.244 482.407 431.891 473.924C430.735 470.994 435.666 472.007 433.6 468.038C433.77 468.345 432.855 468.953 432.028 468.98H432.033ZM506.198 427.748C505.979 426.913 506.302 425.927 506.028 425.125C505.239 422.825 504.592 420.332 502.17 419.088C500.811 418.393 499.989 419.497 499.704 420.558C498.948 423.407 496.531 426.514 499.743 429.132C503.179 431.932 502.132 437.857 507.519 439.311C508.724 439.634 507.667 441.233 507.097 442.127C505.299 444.944 503.579 447.82 501.617 450.524C499.907 452.883 499.337 455.688 502.121 456.744C506.346 458.344 506.631 461.079 506.017 464.505C505.217 468.98 511.113 469.373 511.201 473.569C512.599 468.673 517.673 467.553 519.892 463.702C522.468 459.238 521.728 455.408 519.114 451.568C520.599 449.947 522.824 453.028 523.98 450.427C522.397 447.362 519.816 447.098 515.656 448.606C525.339 442.057 515.645 437.48 515.486 432.142C510.626 435.137 507.776 433.807 506.182 427.742L506.198 427.748ZM485.462 422.432C484.635 419.831 484.651 419.96 487.457 417.994C488.175 417.488 488.394 416.045 488.503 415C488.75 412.641 488.788 410.266 489.008 405.963C492.454 412.533 487.665 417.897 491.074 423.003C494.745 418.77 497.058 414.58 495.967 408.839C494.948 403.469 499.37 397.62 494.29 392.386C493.298 391.368 496.268 391.298 497.014 390.231C498.559 388.007 498.477 385.68 497.743 383.241C497.436 382.218 496.838 381.668 495.841 382.191C493.912 383.203 493.096 385.007 492.531 386.995C491.676 390.016 491.605 393.086 491.43 396.193C491.337 397.814 492.515 400.066 490.213 401.283C488.629 397.685 486.531 404.336 484.794 400.986C483.643 398.762 480.826 397.243 482.207 394.066C484.498 388.799 483.643 384.549 479.051 380.446C476.87 378.496 475.456 378.846 473.982 379.95C471.423 381.857 473.045 382.772 475.248 383.203C472.793 387.565 477.374 392.138 474.716 396.651C473.527 398.676 473.269 401.272 472.782 403.647C472.486 405.101 472.765 406.431 474.88 405.672C478.919 404.223 480.585 407.853 481.111 409.873C482.837 416.513 484.629 423.547 480.207 429.913C477.259 434.151 481.67 437.323 479.971 442.741C486.969 435.81 487.692 429.428 485.468 422.432H485.462ZM84.4169 231.172C83.5292 231.608 82.751 232.055 82.9921 233.078C84.669 240.085 81.0084 247.016 82.899 254.125C83.7264 257.238 83.9182 260.804 87.4692 261.391C91.1297 261.994 93.6834 258.849 95.5082 256.193C96.8507 254.238 97.1247 252.052 100.221 251.433C102.895 250.894 101.317 249.165 100.04 248.244C98.2591 246.968 96.0945 246.408 94.1163 245.541C92.6367 244.894 89.7981 243.736 90.7297 241.313C91.4859 239.342 93.0696 237.258 94.8835 236.224C96.7302 235.168 95.7219 238.927 98.1604 238.663C96.6096 230.218 91.6887 227.601 84.4224 231.177L84.4169 231.172ZM87.7596 189.982C87.661 189.815 87.6445 189.498 87.7377 189.331C91.2667 182.841 90.1434 178.5 82.6688 175.414C81.2879 174.843 81.403 169.355 78.4164 166.964C77.4629 166.199 77.5177 164.681 75.7039 165.785C74.2243 166.684 73.2379 167.282 74.1311 169.377C77.0738 176.265 79.8302 183.234 82.488 190.235C83.1565 192.002 83.5675 194.032 83.4415 195.901C82.8551 204.518 82.8442 204.717 89.009 210.448C86.2362 203.71 91.6394 196.585 87.7596 189.988V189.982ZM203.582 687.32C202.448 684.282 203.725 682.779 206.47 681.745C207.802 681.245 210.197 681.81 210.12 679.656C210.043 677.534 207.884 675.552 206.3 675.514C200.859 675.385 196.963 671.427 191.877 670.576C190.255 670.306 187.565 670.145 188.217 671.427C190.655 676.236 187.214 681.002 188.874 685.607C189.461 687.239 190.71 688.774 192.283 687.212C197.264 682.279 199.034 686.399 201.188 689.915C201.719 690.783 201.84 692.075 203.391 692.231C204.245 690.632 204.152 688.871 203.577 687.32H203.582ZM39.7942 327.86C38.5229 325.06 35.9747 321.958 32.3142 326.142C32.1607 326.315 30.5716 325.695 30.1113 325.103C29.0646 323.74 27.9357 323.525 26.6808 324.505C24.7793 325.991 26.5877 327.144 27.1302 328.485C28.5221 331.916 30.6866 334.937 30.7743 339.035C30.8236 341.244 31.81 345.751 35.6624 344.82C40.3148 343.699 44.9891 341.588 46.3865 336.003C45.4166 332.454 41.345 331.285 39.7942 327.866V327.86ZM401.625 330.591C400.146 330.068 399.499 326.934 397.444 328.399C395.735 329.616 394.019 332.072 395.488 334.237C399.099 339.563 400.053 345.137 398.584 351.282C398.233 352.763 399.401 353.851 400.529 354.535C402.091 355.478 402.891 354.013 403.878 353.162C407.642 349.904 410.717 346.301 407.861 341.109C406.02 337.759 408.788 336.935 410.399 335.309C411.199 334.501 411.78 333.424 410.936 332.341C410.612 331.926 409.845 331.846 409.034 331.512C405.872 336.655 404.026 331.442 401.625 330.591ZM350.75 218.892C352.175 216.905 354.153 215.386 354.219 212.715C354.345 207.34 359.058 205.692 362.515 203.15C363.491 202.434 365.442 202.423 365.595 201.044C365.924 198.131 362.115 199.073 361.129 196.865C360.313 195.034 359.386 197.081 358.696 197.592C350.734 203.527 345.38 211.223 342.744 220.718C341.747 224.321 336.716 226.777 340.864 233.547C339.96 224.402 347.528 223.39 350.75 218.887V218.892ZM94.2971 315.963C95.6178 314.062 96.5274 312.996 95.1903 309.398C93.2066 304.072 93.8916 297.701 93.9848 291.787C94.0067 290.252 94.2862 288.793 93.5573 287.43C92.7025 285.825 92.0065 282.281 90.2694 283.59C88.3898 285.007 83.9018 286.278 85.332 289.681C87.4801 294.792 88.0665 299.074 83.7977 303.382C83.025 304.163 83.6881 306.323 83.6881 308.456C94.456 303.108 90.2694 313.75 94.2971 315.958V315.963ZM55.4941 264.827C54.7872 263.502 52.1623 260.997 49.784 263.087C47.8715 264.773 49.7073 266.857 50.5622 268.467C53.0336 273.088 53.05 278.242 54.0748 283.154C54.5077 285.244 52.5349 289.315 56.1626 288.378C58.3052 287.823 65.9223 291.265 63.9002 283.159C61.1603 277.014 58.656 270.745 55.4941 264.821V264.827ZM104.232 170.05C101.646 165.225 104.95 159.586 101.174 154.981C100.139 153.721 100.944 151.044 102.451 149.472C103.438 148.443 104.577 147.473 102.977 146.262C101.931 145.47 100.457 144.42 99.4098 144.63C97.7659 144.958 97.2179 147.269 97.5303 148.367C98.9605 153.338 97.6344 155.67 92.423 157.76C88.324 159.403 89.0748 165.251 91.4037 167.713C94.9602 171.467 93.4642 165.004 96.0671 164.632C96.2534 169.775 101.525 167.637 104.232 170.055V170.05ZM474.798 426.951C466.737 433.015 467.696 442.784 464.228 450.669C463.641 451.999 463.126 454.014 464.754 454.956C466.874 456.179 468.272 454.132 469.006 452.807C471.034 449.15 473.264 446.991 478.092 447.804C480.684 448.24 483.018 446.662 479.034 444.346C478.157 443.835 477.894 443.215 478.004 442.187C478.815 434.684 474.875 439.65 472.447 440.264C470.014 435.072 476.486 431.835 474.787 426.951H474.798ZM496.992 508.242C501.403 503.233 510.768 502.522 509.557 492.489C509.048 488.261 513.925 484.367 512.33 478.884C505.184 482.277 504.351 489.532 500.965 494.821C499.178 497.616 502.894 497.185 504.965 497.756C497.814 497.874 497.129 502.84 496.992 508.247V508.242ZM490.948 536.365C488.706 535.321 486.317 536.236 484.58 537.453C481.889 539.338 484.388 541.299 485.122 543.227C485.988 545.516 485.769 547.783 483.363 548.968C478.585 551.316 481.928 555.156 483.024 556.518C484.848 558.791 487.314 556.492 489.101 554.644C492.394 551.235 492.887 546.76 494.087 542.936C493.912 540.049 493.512 537.55 490.953 536.36L490.948 536.365ZM411.867 535.041C409.873 528.206 411.752 521.221 409.96 514.51C409.544 512.949 410.24 510.504 407.516 510.611C405.226 510.697 404.524 513.008 404.694 514.532C405.807 524.792 403.428 536.096 413.199 544.573C415.599 540.297 412.651 537.701 411.873 535.041H411.867ZM102.594 22.8012C102.594 22.8012 102.391 22.5373 102.385 22.5319C108.413 21.094 110.435 29.7918 117.05 28.0199C118.655 27.589 118.398 31.2082 117.28 33.4055C122.48 29.5063 128.212 30.0018 133.752 29.0916C133.725 32.5385 130.36 31.9676 128.859 33.7448C136.783 34.3373 142.334 25.9249 139.15 18.9989C138.229 16.9955 136.744 18.2773 135.889 18.4173C133.456 18.8051 131.116 19.8822 128.672 18.5896C126.711 17.5502 124.157 16.8608 123.614 14.5289C122.979 11.7983 125.982 11.8845 127.434 10.7158C130.256 8.44308 131.692 5.64255 129.862 1.9857C127.976 -1.78425 125.078 1.05398 122.902 0.617744C111.038 -1.76271 108.375 5.61563 105.728 14.1034C104.824 17.0063 102.895 19.6291 102.605 22.8066L102.594 22.8012ZM267.034 702.566C264.612 694.601 264.815 686.576 264.13 678.756C263.636 673.118 265.006 667.5 261.483 662.12C259.658 659.33 260.146 654.3 261.066 652.114C264.946 642.942 260.321 636.204 256.332 629.074C254.512 625.826 253 622.336 249.307 619.186C249.646 625.385 247.915 631.336 254.069 634.977C262.184 639.77 256.535 644.536 254.08 649.141C252.496 652.114 252.266 671.545 254.282 674.06C254.66 674.529 255.307 674.992 255.888 675.073C262.508 675.999 261.302 677.819 256.518 680.103C254.699 680.97 254.912 682.596 254.995 684.147C255.192 687.901 255.587 691.58 256.381 695.323C258.25 704.112 257.921 704.182 267.029 702.566H267.034ZM156.477 711.437C156.762 719.682 154.318 722.434 148.471 721.933C147.101 721.815 145.002 721.184 144.696 723.516C144.4 725.752 145.874 726.732 147.956 726.829C151.743 727.006 155.584 727.496 159.294 727.033C160.872 726.839 164.763 727.265 163.349 722.795C162.724 720.813 165.651 720.829 167.355 720.808C171.766 720.754 171.942 717.894 171.24 714.84C170.177 710.214 167.18 713.542 165.486 714.049C162.533 714.932 159.847 717.668 156.483 711.437H156.477ZM150.258 686.242C147.775 687.503 145.896 687.907 146.455 690.432C146.789 691.946 145.83 692.991 144.208 693.098C142.372 693.222 139.61 690.756 139.391 695.01C139.177 699.26 139.956 703.353 141.939 707.02C142.23 707.553 145.786 706.471 147.781 705.932C148.181 705.825 148.351 704.796 148.57 704.177C149.94 700.331 155.491 700.455 156.395 698.484C158.247 694.445 150.137 695.894 150.252 691.445C150.291 689.948 150.258 688.445 150.258 686.242Z" fill="white"/>
</mask>
<g mask="url(#mask0_52_12385)">
<path d="M602.683 -99.1152H598.277V891.568H602.683V-99.1152Z" fill="#0CAC24"/>
<path d="M595.144 -99.1152H590.738V891.568H595.144V-99.1152Z" fill="#0CAC24"/>
<path d="M587.597 -99.1152H583.191V891.568H587.597V-99.1152Z" fill="#0CAC24"/>
<path d="M580.05 -99.1152H575.645V891.568H580.05V-99.1152Z" fill="#0CAC24"/>
<path d="M572.505 -99.1152H568.1V891.568H572.505V-99.1152Z" fill="#0CAC24"/>
<path d="M564.959 -99.1152H560.553V891.568H564.959V-99.1152Z" fill="#0CAC24"/>
<path d="M557.414 -99.1152H553.008V891.568H557.414V-99.1152Z" fill="#0CAC24"/>
<path d="M549.871 -99.1152H545.465V891.568H549.871V-99.1152Z" fill="#0CAC24"/>
<path d="M542.322 -99.1152H537.916V891.568H542.322V-99.1152Z" fill="#0CAC24"/>
<path d="M534.777 -99.1152H530.371V891.568H534.777V-99.1152Z" fill="#0CAC24"/>
<path d="M527.236 -99.1152H522.83V891.568H527.236V-99.1152Z" fill="#0CAC24"/>
<path d="M519.693 -99.1152H515.287V891.568H519.693V-99.1152Z" fill="#0CAC24"/>
<path d="M512.144 -99.1152H507.738V891.568H512.144V-99.1152Z" fill="#0CAC24"/>
<path d="M504.599 -99.1152H500.193V891.568H504.599V-99.1152Z" fill="#0CAC24"/>
<path d="M497.052 -99.1152H492.646V891.568H497.052V-99.1152Z" fill="#0CAC24"/>
<path d="M489.507 -99.1152H485.102V891.568H489.507V-99.1152Z" fill="#0CAC24"/>
<path d="M481.959 -99.1152H477.553V891.568H481.959V-99.1152Z" fill="#0CAC24"/>
<path d="M474.416 -99.1152H470.01V891.568H474.416V-99.1152Z" fill="#0CAC24"/>
<path d="M466.875 -99.1152H462.469V891.568H466.875V-99.1152Z" fill="#0CAC24"/>
<path d="M459.33 -99.1152H454.924V891.568H459.33V-99.1152Z" fill="#0CAC24"/>
<path d="M451.783 -99.1152H447.377V891.568H451.783V-99.1152Z" fill="#0CAC24"/>
<path d="M444.238 -99.1152H439.832V891.568H444.238V-99.1152Z" fill="#0CAC24"/>
<path d="M436.693 -99.1152H432.287V891.568H436.693V-99.1152Z" fill="#0CAC24"/>
<path d="M429.146 -99.1152H424.74V891.568H429.146V-99.1152Z" fill="#0CAC24"/>
<path d="M421.601 -99.1152H417.195V891.568H421.601V-99.1152Z" fill="#0CAC24"/>
<path d="M414.056 -99.1152H409.65V891.568H414.056V-99.1152Z" fill="#0CAC24"/>
<path d="M406.509 -99.1152H402.104V891.568H406.509V-99.1152Z" fill="#0CAC24"/>
<path d="M398.97 -99.1152H394.564V891.568H398.97V-99.1152Z" fill="#0CAC24"/>
<path d="M391.421 -99.1152H387.016V891.568H391.421V-99.1152Z" fill="#0CAC24"/>
<path d="M383.878 -99.1152H379.473V891.568H383.878V-99.1152Z" fill="#0CAC24"/>
<path d="M376.33 -99.1152H371.924V891.568H376.33V-99.1152Z" fill="#0CAC24"/>
<path d="M368.785 -99.1152H364.379V891.568H368.785V-99.1152Z" fill="#0CAC24"/>
<path d="M361.24 -99.1152H356.834V891.568H361.24V-99.1152Z" fill="#0CAC24"/>
<path d="M353.695 -99.1152H349.289V891.568H353.695V-99.1152Z" fill="#0CAC24"/>
<path d="M346.148 -99.1152H341.742V891.568H346.148V-99.1152Z" fill="#0CAC24"/>
<path d="M338.607 -99.1152H334.201V891.568H338.607V-99.1152Z" fill="#0CAC24"/>
<path d="M331.062 -99.1152H326.656V891.568H331.062V-99.1152Z" fill="#0CAC24"/>
<path d="M323.517 -99.1152H319.111V891.568H323.517V-99.1152Z" fill="#0CAC24"/>
<path d="M315.97 -99.1152H311.564V891.568H315.97V-99.1152Z" fill="#0CAC24"/>
<path d="M308.425 -99.1152H304.02V891.568H308.425V-99.1152Z" fill="#0CAC24"/>
<path d="M300.88 -99.1152H296.475V891.568H300.88V-99.1152Z" fill="#0CAC24"/>
<path d="M293.332 -99.1152H288.926V891.568H293.332V-99.1152Z" fill="#0CAC24"/>
<path d="M285.789 -99.1152H281.383V891.568H285.789V-99.1152Z" fill="#0CAC24"/>
<path d="M278.248 -99.1152H273.842V891.568H278.248V-99.1152Z" fill="#0CAC24"/>
<path d="M270.701 -99.1152H266.295V891.568H270.701V-99.1152Z" fill="#0CAC24"/>
<path d="M263.156 -99.1152H258.75V891.568H263.156V-99.1152Z" fill="#0CAC24"/>
<path d="M255.609 -99.1152H251.203V891.568H255.609V-99.1152Z" fill="#0CAC24"/>
<path d="M248.064 -99.1152H243.658V891.568H248.064V-99.1152Z" fill="#0CAC24"/>
<path d="M240.515 -99.1152H236.109V891.568H240.515V-99.1152Z" fill="#0CAC24"/>
<path d="M232.972 -99.1152H228.566V891.568H232.972V-99.1152Z" fill="#0CAC24"/>
<path d="M225.427 -99.1152H221.021V891.568H225.427V-99.1152Z" fill="#0CAC24"/>
<path d="M217.882 -99.1152H213.477V891.568H217.882V-99.1152Z" fill="#0CAC24"/>
<path d="M210.339 -99.1152H205.934V891.568H210.339V-99.1152Z" fill="#0CAC24"/>
<path d="M202.795 -99.1152H198.389V891.568H202.795V-99.1152Z" fill="#0CAC24"/>
<path d="M195.25 -99.1152H190.844V891.568H195.25V-99.1152Z" fill="#0CAC24"/>
<path d="M187.703 -99.1152H183.297V891.568H187.703V-99.1152Z" fill="#0CAC24"/>
<path d="M180.156 -99.1152H175.75V891.568H180.156V-99.1152Z" fill="#0CAC24"/>
<path d="M172.611 -99.1152H168.205V891.568H172.611V-99.1152Z" fill="#0CAC24"/>
<path d="M165.066 -99.1152H160.66V891.568H165.066V-99.1152Z" fill="#0CAC24"/>
<path d="M157.519 -99.1152H153.113V891.568H157.519V-99.1152Z" fill="#0CAC24"/>
<path d="M149.98 -99.1152H145.574V891.568H149.98V-99.1152Z" fill="#0CAC24"/>
<path d="M142.433 -99.1152H138.027V891.568H142.433V-99.1152Z" fill="#0CAC24"/>
<path d="M134.888 -99.1152H130.482V891.568H134.888V-99.1152Z" fill="#0CAC24"/>
<path d="M127.341 -99.1152H122.936V891.568H127.341V-99.1152Z" fill="#0CAC24"/>
<path d="M119.796 -99.1152H115.391V891.568H119.796V-99.1152Z" fill="#0CAC24"/>
<path d="M112.252 -99.1152H107.846V891.568H112.252V-99.1152Z" fill="#0CAC24"/>
<path d="M104.705 -99.1152H100.299V891.568H104.705V-99.1152Z" fill="#0CAC24"/>
<path d="M97.1597 -99.1152H92.7539V891.568H97.1597V-99.1152Z" fill="#0CAC24"/>
<path d="M89.6187 -99.1152H85.2129V891.568H89.6187V-99.1152Z" fill="#0CAC24"/>
<path d="M82.0738 -99.1152H77.668V891.568H82.0738V-99.1152Z" fill="#0CAC24"/>
<path d="M74.5269 -99.1152H70.1211V891.568H74.5269V-99.1152Z" fill="#0CAC24"/>
<path d="M66.98 -99.1152H62.5742V891.568H66.98V-99.1152Z" fill="#0CAC24"/>
<path d="M59.4351 -99.1152H55.0293V891.568H59.4351V-99.1152Z" fill="#0CAC24"/>
<path d="M51.8882 -99.1152H47.4824V891.568H51.8882V-99.1152Z" fill="#0CAC24"/>
<path d="M44.3433 -99.1152H39.9375V891.568H44.3433V-99.1152Z" fill="#0CAC24"/>
<path d="M36.7984 -99.1152H32.3926V891.568H36.7984V-99.1152Z" fill="#0CAC24"/>
<path d="M29.2535 -99.1152H24.8477V891.568H29.2535V-99.1152Z" fill="#0CAC24"/>
<path d="M21.7125 -99.1152H17.3066V891.568H21.7125V-99.1152Z" fill="#0CAC24"/>
<path d="M14.1656 -99.1152H9.75977V891.568H14.1656V-99.1152Z" fill="#0CAC24"/>
<path d="M6.62067 -99.1152H2.21484V891.568H6.62067V-99.1152Z" fill="#0CAC24"/>
</g>
</svg>
