<svg width="696" height="864" viewBox="0 0 696 864" fill="none" xmlns="http://www.w3.org/2000/svg">
<mask id="mask0_53_54064" style="mask-type:luminance" maskUnits="userSpaceOnUse" x="-49" y="0" width="745" height="864">
<path d="M148.73 508.429C149.2 509.929 149.823 511.402 150.118 512.93C151.681 521.11 152.627 521.773 161.055 520.034C163.343 519.561 165.586 518.784 167.812 520.159L167.636 520.328C168.82 518.295 171.018 518.11 173.028 517.452C175.249 516.729 179.31 515.881 173.555 513.859C173.215 513.739 172.972 512.685 173.102 512.163C173.351 511.174 174.286 510.69 175.288 510.924C177.809 511.511 180.545 511.804 182.731 512.995C185.495 514.5 187.528 515.767 189.59 512.179C190.247 511.038 192.048 511.022 193.458 511.804C199.405 515.088 202.793 511.565 204.271 506.988C206.004 501.623 207.562 496.139 208.558 490.469C209.493 485.131 211.776 479.065 214.443 473.874C216.85 469.194 213.594 463.089 219.156 459.437C220.221 458.735 218.17 458.551 217.575 458.116C214.217 455.675 210.943 453.115 207.431 450.897C205.183 449.473 204.503 447.848 205.93 445.809C207.545 443.51 209.295 444.369 211.294 445.809C220.64 452.544 224.395 451 225.884 439.868C226.111 438.161 226.213 436.867 228.399 436.438C233.423 435.443 237.756 433.334 240.441 428.823C241.069 427.768 242.287 427.246 243.488 427.828C244.785 428.458 244.525 429.817 244.315 430.883C243.613 434.449 241.143 436.906 238.311 439.042C229.623 445.586 222.747 452.794 224.627 464.758C225.188 468.346 222.05 471.982 222.588 475.999C222.752 477.206 221.942 477.804 220.419 478.032C214.681 478.896 216.108 482.403 218.238 485.24C219.688 487.175 220.458 488.969 219.241 490.801C215.536 496.378 214.642 503.009 211.141 508.831C207.726 514.5 205.483 521.578 208.253 528.72C208.632 529.704 208.836 531.634 208.377 531.895C203.353 534.7 205.811 537.265 208.105 540.38C210.546 543.696 205.551 543.712 204.701 546.006C202.685 551.404 200.266 556.883 195.01 560.481C193.832 561.286 193.504 562.525 194.41 564.063C196.976 568.428 196.035 573.766 193.651 576.859C186.803 585.736 184.838 596.113 183.728 606.179C182.499 617.317 175.124 621.628 166.441 625.161C164.193 626.074 162.414 630.233 158.574 627.422C156.807 626.129 151.013 627.966 155.351 622.742C155.629 622.411 154.026 619.992 153.845 620.057C145.638 622.78 140.472 615.333 133.358 614.485C128.261 613.876 123.922 612.197 122.823 606.44C122.444 604.445 120.694 605.049 119.482 605.935C118.264 606.826 117.352 607.837 119.414 608.979C122.993 610.963 123.984 616.04 129.082 616.339C130.232 616.404 131.132 617.594 130.934 618.872C130.73 620.193 129.456 620.791 128.306 620.736C125.734 620.611 123.163 619.872 120.62 619.964C117.958 620.062 115.392 618.481 113.07 622.905C111.337 626.205 103.985 626.346 100.111 622.905C96.1347 619.377 94.2203 621.231 92.4928 624.324C90.0686 628.667 86.0132 631.793 84.0195 636.647C82.4336 640.506 76.6168 640.131 72.7143 641.321C71.0604 641.827 69.0157 641.24 66.7105 642.311C64.2014 643.479 61.4317 641.224 60.3273 638.305C58.9056 634.543 57.1554 631.282 52.0296 631.678C49.6564 631.863 49.5034 629.287 48.1101 628.178C47.0056 627.303 47.657 624.378 45.0969 625.319C43.3751 625.949 43.341 627.863 43.7149 629.515C43.9584 630.597 44.6324 631.793 43.0295 632.385C41.7608 632.853 40.5261 632.374 39.954 631.331C38.7249 629.086 37.5695 628.466 35.0321 630.048C32.8684 631.396 32.1605 629.048 31.8036 627.656C31.005 624.514 28.6884 621.117 32.5286 618.323C33.3952 617.692 34.9301 617.964 35.2643 616.54C29.7703 614.121 27.9805 615.127 23.8684 622.905C23.1038 624.357 24.2196 628.629 20.0849 624.911C18.397 623.389 17.8477 625.368 17.9156 626.808C18.0062 628.754 19.0541 630.809 17.049 632.516C11.4417 629.917 18.2838 622.324 11.6853 620.111C9.65759 621.802 10.7281 623.655 11.3114 625.226C13.577 631.352 13.1465 636.723 7.68083 641.283C6.12324 642.583 4.92816 644.55 5.91935 646.812C8.09431 651.758 2.8325 651.481 0.821797 653.389C-1.70999 655.791 -3.96992 653.166 -6.28082 652.459C-6.83588 652.291 -7.17571 651.481 -7.6175 650.97C-1.59672 646.328 -11.418 642.697 -8.50671 638.169C-7.68544 636.891 -7.8214 635.418 -9.88308 635.168C-11.1461 635.011 -12.5904 635.505 -12.7151 636.701C-13.3438 642.789 -19.1323 647.377 -18.0448 653.949C-17.8295 655.27 -18.5942 656.911 -18.0278 657.971C-14.1537 665.244 -19.6477 666.309 -24.7792 667.87C-28.795 669.087 -34.0794 668.337 -35.3198 674.115C-35.9712 677.137 -35.3765 678.496 -31.8932 677.784C-29.8202 677.36 -27.6678 676.724 -25.6231 676.92C-23.0517 677.17 -18.8661 676.442 -19.1209 680.317C-19.2852 682.84 -16.2947 685.487 -21.2676 688.841C-25.2777 691.548 -28.019 693.07 -32.8957 694.14C-37.223 695.092 -41.3916 698.603 -46.6591 699.293C-49.1399 699.614 -49.5024 702.43 -48.4319 704.974C-47.1631 707.991 -45.3394 709.203 -41.8447 708.404C-37.795 707.48 -33.3602 706.208 -31.1342 711.502C-33.026 714.122 -38.1915 710.475 -37.6251 713.367C-36.5319 718.954 -45.0109 722.526 -40.1002 728.505C-37.6647 731.473 -36.0788 735.115 -35.2802 738.969C-34.8837 740.871 -34.9687 743.372 -31.3947 741.192C-29.9674 740.322 -29.4011 741.279 -30.3526 744.029C-31.3325 746.867 -36.3394 751.634 -27.2261 749.628C-24.581 749.047 -25.1361 752.303 -24.8585 753.754C-23.9919 758.266 -22.9838 761.875 -17.0253 762.663C-12.6357 763.239 -13.1341 767.066 -15.2978 769.393C-17.4784 771.735 -18.7018 774.274 -17.3198 776.649C-15.7283 779.389 -13.2588 776.269 -11.2991 776.323C1.84129 776.676 15.2026 774.442 28.2183 779.063C23.4096 788.227 15.4235 785.531 8.049 783.89C4.17486 783.025 1.42783 782.966 0.595226 787.303C0.261053 789.054 -0.305309 791.179 1.19564 792.505C2.8042 793.929 4.1805 792.049 5.55118 791.369C7.47692 790.412 9.19311 790.777 10.9433 791.788C6.84257 795.229 7.14277 799.816 12.297 802.469C14.6588 803.687 14.6871 804.382 14.1944 806.481C12.903 812.009 19.8357 819.619 25.7941 818.385C30.0194 817.51 33.078 819.336 36.6463 820.005C37.9603 820.249 39.3197 823.146 40.4694 820.342C41.3077 818.303 38.9515 817.939 37.4222 817.444C36.3234 817.091 35.1963 816.819 34.2448 815.922C42.5424 814.476 49.8602 816.781 56.521 821.614L56.3171 821.505C66.348 823.804 76.5771 820.624 86.6363 822.51C87.888 822.744 89.4796 821.717 89.2191 820.733C86.676 811.15 95.4041 816.433 98.5532 814.096C98.2927 811.53 95.3928 812.9 94.3166 811.585C96.7918 803.208 105.582 805.54 111.088 802.92C108.21 793.424 99.0743 795.859 92.5948 794.016C88.5507 792.864 88.4601 791.271 88.4827 788.483C86.7892 790.309 84.6199 790.76 82.1617 791.048C68.0019 792.723 53.8194 791.538 39.6539 791.554C37.8074 791.554 35.8703 791.076 34.1372 790.423C32.5966 789.842 31.1126 788.494 31.7017 786.787C32.2284 785.254 34.1088 785.531 35.4398 785.923C39.246 787.053 42.3159 786.548 44.3492 781.77C44.9779 787.591 47.2775 788.717 51.5594 785.814C52.8281 784.955 55.0088 783.819 55.8471 785.814C57.1328 788.863 58.1523 787.956 59.523 786.14C60.4009 784.971 61.511 784.607 62.2983 785.901C64.7112 789.858 68.0416 787.238 71.0831 787.417C76.849 787.754 83.051 783.063 88.3808 788.635C89.3266 788.575 90.3405 788.706 91.2015 788.423C94.5828 787.298 100.496 787.434 100.173 783.83C99.8899 780.634 94.5885 783.335 91.5356 783.08C86.2511 782.634 80.8704 783.161 75.5859 781.715C76.3449 779.139 78.2763 779.672 79.7489 779.807C87.9503 780.547 96.1744 779.008 104.421 780.639C109.632 781.672 113.585 776.747 112.101 771.746C111.105 768.382 112.101 765.609 114.877 764C119.062 761.581 123.418 758.537 128.685 759.853C132.452 760.793 127.428 763.979 129.892 765.577C139.985 761.576 160.29 766.436 165.558 776.486C167.444 780.09 172.066 780.829 174.937 783.504C176.076 784.564 178.641 785.749 177.361 787.08C171.884 792.783 178.035 792.31 180.839 793.5C182.991 794.413 183.943 796.038 184.883 797.963C187.919 804.17 195.9 805.062 200.878 799.854C204.911 795.642 210.042 796.022 213.152 800.762C215.231 803.926 213.979 809.117 210.648 811.329C208.723 812.607 209.986 814.21 210.377 815.623C210.813 817.173 211.283 818.548 213.775 817.858C217.547 816.808 219.462 814.482 219.394 810.981C219.28 805.535 218.289 799.936 227.244 800.99C229.47 801.251 231.056 799.583 231.475 797.164C228.059 795.218 223.998 798.24 220.589 795.832C222.815 792.946 226.728 793.609 229.345 791.619C227.561 789.293 224.769 790.923 221.886 789.298C227.119 784.015 234.969 791.489 239.467 785.417C236.351 783.221 231.356 785.917 228.546 781.688C233.31 778.856 238.662 780.454 243.522 779.487C245.346 779.123 247.345 779.438 249.095 778.921C251.049 778.351 253.592 777.595 253.128 774.942C252.63 772.105 250.245 772.078 247.64 772.023C234.964 771.768 222.231 772.263 209.737 769.257C206.57 768.496 205.166 767.18 205.392 764.223C205.647 760.924 208.462 761.859 210.292 761.908C219.337 762.136 228.246 760.945 237.139 759.701C238.997 759.44 242.31 759.179 241.976 756.716C241.647 754.281 238.679 754.803 236.652 755.205C230.965 756.347 227.023 753.846 223.976 749.661C222.146 747.15 220.311 744.736 216.749 744.926C204.276 745.6 191.459 741.138 179.327 747.275C178.149 747.873 176.246 748.302 175.192 747.807C166.322 743.627 156.728 746.139 148.186 747.052C135.907 748.367 123.463 746.47 111.654 749.03C106.279 750.194 102.207 750.808 96.5822 749.927C85.2486 748.15 73.8357 751.764 62.4625 753.118C59.5796 753.46 58.0786 753.238 56.5947 751.139C53.3266 746.508 50.2284 746.28 47.0509 751.346C45.9181 753.151 43.7488 753.89 41.5852 754.227C34.4373 755.33 26.9553 754.537 20.3171 758.624C18.9748 759.451 14.37 759.853 13.7016 757.021C13.1069 754.499 15.5084 752.167 18.3234 750.846C24.65 747.873 31.4354 750.411 37.898 749.161C40.0559 748.742 42.4745 749.65 45.1988 747.834C37.8697 745.785 31.0333 747.285 24.2479 745.421C35.1283 744.024 45.9691 742.105 56.8949 741.393C65.5154 740.833 74.1416 740.551 82.9774 741.556C90.1989 742.382 98.1737 740.926 105.792 739.48C110.272 738.626 115.675 736.697 120.597 739.866C121.821 740.654 123.662 739.246 125.072 738.349C128.685 736.05 132.35 734.718 135.731 738.719C137.227 740.491 138.728 738.996 140.251 738.893C148.691 738.311 157.051 736.316 165.614 737.903C168.378 738.414 171.494 738.442 173.448 735.887C178.228 729.636 185.325 731.217 192.411 729.728C191.096 733.821 186.645 733.457 185.67 737.186C196.001 737.425 206.174 740.85 216.312 736.267C218.771 735.158 221.342 735.12 223.811 736.539C226.281 737.958 228.705 737.561 231.288 736.577C232.981 735.93 235.728 735.028 236.657 735.778C241.67 739.817 248.597 734.8 253.406 739.409C254.431 740.393 256 738.876 257.291 738.404C260.865 737.093 264.229 735.887 267.656 739.29C269.491 741.116 272.725 741.339 274.889 739.529C280.757 734.615 287.599 734.06 294.871 734.533C296.718 734.653 298.632 734.207 300.467 733.81C301.679 733.549 302.705 732.647 302.28 731.364C302.048 730.663 301.079 729.88 300.303 729.712C298.468 729.315 296.333 729.712 294.718 728.978C291.943 727.722 286.925 731.484 286.16 725.564C286.138 725.38 284.336 725.119 283.509 725.358C273.592 728.239 264.093 723.966 254.261 723.923C257.45 721.276 261.409 720.716 265.102 720.911C289.139 722.21 313.121 718.454 337.17 720.379C342.477 720.803 347.835 718.656 353.272 720.596C355.623 721.433 357.424 719.895 357.849 717.514C358.489 713.921 355.64 712.937 352.287 711.709C364.175 707.925 375.583 711.845 386.877 711.116C393.384 710.698 399.949 713.584 406.462 709.257C409.883 706.985 414.573 710.404 418.917 710.181C429.968 709.621 441.03 709.534 452.08 708.621C456.673 708.241 461.357 709.442 465.707 712.133C459.902 715.177 461.85 717.65 464.376 722.047C467.848 728.108 472.402 726.624 476.775 725.684C481.6 724.64 484.733 727.749 488.709 728.63L488.499 728.684C493.081 726.032 497.431 723.95 503.418 725.053C508.21 725.939 513.46 724.537 518.756 724.135C514.23 713.894 505.026 714.878 495.398 714.302C499.906 710.692 503.996 712.274 507.643 711.638C508.498 711.491 513.647 713.41 510.345 708.654C509.11 706.882 511.733 706.784 512.928 706.757C526.334 706.441 539.746 706.42 553.142 705.898C563.988 705.479 575.231 708.072 585.455 702.158C588.53 700.381 593.05 702.761 595.989 699.245C588.898 697.385 582.271 700.995 575.52 699.717C570.564 709.099 562.323 699.755 555.753 702.848C551.091 705.039 541.712 696.445 542.216 691.488C542.51 688.629 544.912 689.487 546.396 690.292C553.017 693.874 555.69 694.429 563.643 693.178C562.385 691.618 559.876 692.488 558.874 690.167C567.511 687.639 576.528 691.374 586.576 688.509C579.151 685.704 572.864 685.063 566.605 685.22C550.219 685.623 534.066 682.704 517.736 682.361C516.343 682.334 514.933 681.877 513.585 681.464C511.5 680.828 508.079 681.154 508.753 677.85C509.274 675.289 512.14 675.92 514.202 676.029C530.695 676.877 547.189 677.415 563.694 676.154C565.965 675.98 569.176 676.838 569.686 674.028C570.105 671.702 567.477 670.174 565.212 669.413C559.723 667.571 562.555 665.837 565.285 664.336C566.667 663.575 568.933 663.641 568.531 661.461C568.061 658.906 565.551 659.797 563.835 659.564C562.448 659.373 561.003 659.547 559.587 659.591C555.906 659.7 551.108 662.548 550.179 655.867C550.1 655.297 547.818 655.009 546.436 654.547C547.682 653.193 549.115 652.889 550.514 653.008C559.582 653.764 568.247 651.291 577.095 650.318C582.77 649.692 588.723 651.171 594.534 651.878C600.906 652.649 606.53 650.54 613.208 648.013C608.875 645.404 604.899 645.675 601.081 645.583C591.623 645.344 582.152 644.909 572.711 645.213C567.488 645.382 564.011 642.996 560.301 639.484C566.135 639.109 571.923 638.19 577.644 638.489C586.208 638.935 594.715 637.94 603.353 638.979C622.684 641.294 642.02 639.609 661.312 637.315C670.346 636.244 679.306 633.929 688.544 634.978C694.072 635.603 694.225 631.287 695.494 628.075C695.924 626.977 696.728 624.617 694.542 625.058C690.77 625.824 685.712 622.612 683.316 627.792C682.353 629.874 682.353 632.445 678.859 631.711C675.851 631.086 672.521 630.885 671.943 627.036C671.665 625.177 671.654 622.835 668.794 623.954C662.807 626.297 657.296 623.449 651.626 623.226C643.55 622.905 636.345 618.899 628.285 619.459C627.186 619.535 625.85 619.508 625.391 618.448C647.99 610.941 671.552 612.757 695.698 613.567C694.276 609.984 692.452 610.599 691.002 610.664C688.85 610.762 686.035 611.338 684.896 609.724C678.445 600.619 669.162 604.842 660.932 604.935C657.081 604.978 655.886 604.81 656.231 600.651C656.526 597.069 654.254 594.188 649.774 593.965C646.393 593.797 643.131 593.302 642.179 589.514C643.249 587.144 646.619 589.242 647.52 586.578C644.92 582.344 640.451 586.241 636.6 584.17C643.091 580.572 650.499 581.985 656.883 579.311C655.761 576.99 654.787 574.968 653.258 571.809C663.373 575.772 665.611 566.553 671.377 563.237C671.682 563.063 671.966 562.291 671.818 562.041C668.103 555.774 669.111 547.425 661.974 542.554C659.477 540.847 654.266 540.266 655.931 535.444C657.336 531.368 661.408 532.601 664.546 532.634C670.023 532.699 674.05 530.742 676.905 526.155C678.462 523.654 680.269 521.214 683.056 519.659C687.366 517.256 690.357 514.104 690.385 508.847C690.396 507.195 691.342 505.01 692.645 504.004C697.391 500.346 695.805 495.698 693.432 492.622C690.872 489.306 689.105 484.495 683.65 483.674C682.342 483.479 680.779 482.87 681.98 480.337C683.163 477.842 682.546 474.619 683.095 471.787C683.979 467.237 683.429 464.905 677.811 462.818C671.456 460.458 663.781 457.621 664.608 447.771C665.231 440.325 656.99 438.64 652.159 435.172C647.169 431.589 641.114 429.486 635.705 426.317C631.933 424.11 625.465 424.316 620.894 425.637C614.652 427.442 606.151 426.083 603.426 434.911C602.367 438.341 598.929 435.791 597.564 434.834C593.242 431.79 588.643 431.35 583.529 431.464C578.12 431.589 570.632 422.773 571.232 417.663C571.374 416.456 571.94 415.016 573.141 415.173C576.5 415.614 579.943 411.896 583.115 415.293C584.05 416.299 584.713 418.071 586.253 417.576C594.477 414.951 602.458 419.712 610.823 417.87C617.79 416.331 622.865 411.956 628.925 409.129C629.792 408.727 630.834 407.145 630.636 406.395C628.501 398.334 634.391 393.485 638.361 387.821C643.646 380.287 638.951 369.981 629.378 369.492C624.043 369.22 626.597 363.681 622.366 362.545C620.135 361.947 624.122 359.8 624.87 358.153C627.844 351.597 632.273 352.456 637.789 355.207C643.782 358.191 649.825 353.407 649.446 346.096C649.282 342.949 648.302 339.834 646.501 337.073C645.611 335.709 644.654 334.165 642.689 334.621C640.644 335.094 641.998 336.894 641.584 337.981C640.497 340.818 638.747 343.743 635.025 342.677C631.253 341.601 633.355 338.579 633.774 336.323C634.385 333.034 639.845 327.843 643.114 326.365C648.387 323.984 654.47 321.924 652.663 314.254C652.278 312.612 652.742 311.128 654.079 309.916C655.166 308.927 656.209 307.307 655.076 306.323C647.039 299.316 645.543 286.243 632.341 283.982C627.419 283.14 624.179 277.753 618.226 278.981C616.686 279.302 615.66 277.867 616.663 276.198C617.875 274.176 617.563 272.23 616.414 270.377C614.023 266.506 596.663 259.174 592.144 260.908C586.264 263.163 579.575 262.794 574.178 266.485C571.516 268.306 568.044 268.561 565.325 267.186C561.445 265.224 557.939 265.457 554.807 267.784C552.796 269.279 552.003 268.3 550.633 267.333C545.728 263.859 543.96 265.99 543.853 270.936C543.813 272.714 543.949 274.535 543.604 276.258C543.128 278.617 541.519 280.329 539.118 278.481C532.247 273.192 525.173 275.209 518.144 277.639C516.15 278.329 513.891 276.981 511.84 278.943C514.712 281.003 517.957 282.357 520.183 285.058C521.095 286.162 524.352 285.347 523.27 288.32C522.653 290.016 522.149 292.043 519.962 292.397C517.651 292.772 515.527 291.625 514.576 289.771C510.317 281.476 504.103 274.905 496.383 269.485C494.724 268.322 493.217 266.762 492.9 264.131C495.069 264.294 497.154 264.223 499.108 264.658C501.158 265.115 503.095 265.425 503.746 263.093C504.335 260.989 505.57 258.69 503.979 256.543C502.67 254.776 501.407 254.787 500.422 256.988C498.909 260.369 496.746 261.658 493.381 258.815C491.773 257.456 489.383 257.488 487.961 258.201C480.96 261.723 474.192 255.852 467.135 258.038C465.209 258.635 462.904 255.972 463.6 253.276C464.15 251.14 464.818 248.634 466.359 247.199C471.966 241.953 480.592 240.545 485.089 231.435C485.746 236.594 485.746 239.469 486.539 242.122C487.491 245.302 489.621 248.047 492.9 244.258C495.007 241.823 495.222 243.867 496.338 244.715C498.932 246.688 501.475 248.819 504.358 250.313C507.088 251.727 510.458 252.428 512.996 250.031C516.009 247.182 511.919 245.394 510.872 242.252C518.546 244.628 519.022 240.654 518.11 235.474C517.952 234.588 518.11 233.653 518.02 232.756C516.57 218.792 513.885 217.427 501.09 224.119C504.585 215.65 511.234 212.644 519.498 215.905C520.75 216.4 522.058 217.944 522.976 216.063C523.751 214.481 522.001 213.867 520.744 213.187C518.977 212.231 515.811 212.579 515.697 210.143C515.561 207.257 519.005 207.382 520.914 206.327C525.445 203.822 530.101 201.865 535.697 202.647C537.747 202.936 540.534 202.952 542.363 200.12C538.585 198.109 534.977 196.799 530.628 198.266C527.286 199.391 523.485 199.31 521.48 196.489C517.912 191.477 515.601 194.662 512.962 197.011C509.133 200.419 508.923 206.186 504.352 209.415C501.509 207.567 503.401 203.49 500.286 201.952C498.207 202.849 498.943 204.452 499.147 205.985C499.425 208.067 501.334 210.633 498.796 212.073C497.171 212.997 493.177 213.204 492.849 212.535C491.643 210.116 488.913 207.779 490.589 204.555C492.894 200.131 495.194 195.701 497.533 191.292C499.368 187.83 500.62 184.269 500.286 180.35C498.088 179.964 496.904 181.388 496.757 182.394C495.115 193.597 486.171 200.908 480.875 210.138C478.791 213.774 471.411 215.345 467.775 212.932C465.254 211.263 462.841 210.475 459.675 211.323C461.233 213.715 465.832 212.1 465.934 215.851C465.991 217.922 464.405 219.933 462.773 219.862C458.78 219.694 454.578 223.863 450.856 219.716C448.676 217.286 446.852 214.59 443.153 214.226C444.949 222.401 450.845 229.022 452.561 237.213C446.101 237.815 444.409 240.719 447.486 245.927C450.08 250.319 445.125 258.201 439.534 258.021C436.447 257.923 434.097 255.793 430.319 258.461C427.074 260.755 416.544 254.58 414.619 250.645C413.995 249.368 413.321 247.139 414.205 246.862C420.906 244.763 423.5 239.436 426.111 233.984C426.309 233.571 427.396 233.539 428.082 233.354C432.341 232.18 433.225 230.022 430.71 226.336C428.54 223.162 427.861 221.156 433.191 219.042C436.402 217.764 440.531 217.003 443.306 214.351C449.288 210.823 446.121 206.599 444.196 202.55C443.561 201.218 441.335 199.728 443.816 198.701C451.026 195.722 448.138 192.021 445.023 188.134C444.445 187.411 443.98 186.634 444.836 185.242C446.897 186.59 448.919 187.966 450.998 189.259C453.343 190.716 455.178 189.504 456.532 187.835C457.823 186.248 458.542 184.378 455.201 184.15C453.955 184.063 453.536 183.688 454.193 182.524C457.008 177.562 453.179 178.524 450.352 178.562C448.721 178.583 447.045 178.714 445.47 178.41C444.983 178.317 444.547 176.964 444.496 176.159C444.462 175.659 445.181 175.11 445.561 174.588C451.649 179.899 449.848 171.691 452.629 170.642C454.481 172.408 454.13 176.279 457.789 176.192C460.763 176.121 465.458 177.246 465.951 174.099C466.529 170.397 466.676 165.641 463.028 162.488C461.306 160.999 459.233 159.879 456.951 158.346C463.549 154.949 466.506 160.515 469.389 163.168C471.485 165.103 474.186 166.598 475.965 168.93C476.678 169.865 478.043 170.93 478.933 170.033C482.195 166.744 485.865 165.152 490.646 166.011C491.524 166.168 492.503 165.195 492.084 164.163C489.371 157.498 494.588 150.372 490.555 143.681C488.244 139.849 487.632 136.022 494.899 137.446C493.58 133.847 489.796 134.152 488.222 131.836C495.675 127.58 498.162 114.551 492.719 107.838C491.563 106.413 489.802 105.69 491.473 103.369C494.225 99.548 494.05 99.4339 489.49 97.5423C496.751 93.6285 496.372 87.6655 487.565 82.5016C479.131 77.5551 470.137 73.2337 459.602 74.8698C457.902 75.1362 456.243 75.658 455.342 73.6903C454.294 71.3964 456.113 70.6028 457.665 69.4504C466.347 62.971 466.959 58.3724 460.089 50.3982C458.18 48.1804 457.846 46.0224 458.809 43.4731C460.157 39.9018 458.939 36.923 455.563 35.4608C452.454 34.1182 450.058 32.0309 447.379 30.2153C445.51 28.9488 443.709 27.1442 440.99 28.4161C435.853 30.8133 432.466 28.2639 429.486 24.6057C423.726 17.5175 417.275 12.6145 406.768 13.8375C399.167 14.7181 392.07 9.89116 383.982 10.3749C379.394 10.6522 375.022 12.8754 371.108 12.4133C367.523 11.9894 367.88 4.39564 363.399 3.66182C352.74 1.91151 341.554 -4.50807 331.483 5.40126C330.696 6.17857 329.257 7.1733 328.436 6.95587C321.809 5.21643 316.796 6.33619 312.735 12.3372C311.829 13.6799 310.045 14.6963 309.734 16.7728C308.369 25.9374 306.029 27.5138 296.984 25.5189C294.696 25.0133 292.408 24.5024 290.057 25.4156C290.097 28.3672 293.631 28.1335 294.894 30.7644C290.142 32.7267 285.69 35.1945 279.182 31.0742C280.876 34.9009 276.798 38.0591 282.337 40.1247C284.183 40.815 282.326 45.1745 280.496 47.6423C278.219 50.7243 274.895 52.8986 272.176 55.3175C264.411 62.2426 269.661 70.4886 268.228 77.9193C267.741 80.4577 267.871 82.9147 266.529 85.4641C264.105 90.0681 265.255 91.5738 270.647 91.4162C273.139 91.3455 273.065 93.2208 273.892 94.3949C275.597 96.8138 275.789 100.097 278.423 101.994C281.997 104.571 285.311 107.462 287.842 100.613C290.08 94.558 294.158 100.885 297.896 99.7818C297.488 97.8032 292.912 95.7702 297.562 93.2752C299.924 92.0087 297.998 90.1823 296.078 89.3506C290.363 86.8665 294.044 81.5721 292.328 77.903C299.561 75.3482 291.949 73.4294 291.852 71.1898C291.801 69.9994 290.153 69.0699 288.777 70.9018C285.639 75.0927 283.13 70.9833 280.525 70.0918C277.398 69.021 278.406 66.6021 279.097 64.3408C280.326 60.313 281.131 59.7041 285.775 62.2589C290.918 65.0909 298.06 63.7646 303.843 66.9717C304.63 67.4066 312.452 66.4716 311.501 61.237C310.77 57.1983 307.451 55.3991 302.353 55.9861C298.61 56.421 294.486 54.8935 290.72 53.6922C288.46 52.9693 284.518 51.5451 285.248 49.5122C286.223 46.7997 287.327 42.6468 292.068 42.7284C293.654 42.7556 295.177 43.1415 296.48 41.4292C301.255 35.1455 304.942 34.5041 310.696 39.9235C313.931 42.9675 317.618 43.5003 321.458 44.2449C322.744 44.495 325.105 44.3374 325.44 43.6633C330.956 32.5146 337.555 42.1739 343.411 43.0165C345.966 43.3861 348.328 45.1038 351.386 44.8701C355.323 44.5711 360.029 43.4133 360.386 49.909C360.466 51.344 362.38 54.1869 365.121 50.4689C367.149 47.7184 371.216 50.0775 374.354 49.6481C375.362 49.5122 375.747 51.5506 374.75 52.3931C371.629 55.024 368.735 57.606 366.362 61.1066C365.178 62.8514 359.854 62.3296 356.563 60.0629C355.187 59.1117 352.972 59.2747 351.137 58.9269C348.837 63.2809 345.807 67.4229 344.397 72.0269C342.126 79.4521 334.542 80.4904 329.614 84.6487C328.543 85.551 327.082 84.0725 326.329 82.8386C327.949 86.6545 327.348 91.5466 332.559 93.5796C340.279 96.591 348.311 91.8673 349.053 83.7898C349.279 81.3383 351.301 79.9848 353.488 80.4958C356.96 81.3057 361.015 82.9691 361.564 86.4262C362.193 90.378 357.73 88.9538 355.374 89.7909C352.666 90.753 348.735 91.2259 351.788 95.6941C352.848 97.2487 350.984 98.9555 350.066 98.2652C345.297 94.7048 344.657 98.9936 342.992 101.347C340.183 105.31 337.051 106.658 333.437 102.315C330.622 98.9392 328.872 100.374 325.972 102.684C320.116 107.343 313.075 109.023 305.27 107.191C309.292 109.392 313.551 110.86 309.728 116.687C308.221 118.986 312.35 120.508 313.783 122.465C314.939 124.047 317.318 125.792 314.168 127.39C311.942 128.515 308.725 131.418 306.947 127.694C304.891 123.395 300.337 122.063 297.295 119.062C293.92 115.73 292.136 121.432 289.383 123.4C287.774 122.84 288.703 118.285 285.248 119.85C282.144 121.258 284.716 123.433 284.863 125.411C285.044 127.846 283.481 130.407 282.671 132.907C279.709 132.391 279.318 130.254 278.446 128.439C277.761 127.009 276.82 125.118 274.844 126.694C267.747 132.342 266.546 125.433 264.575 121.911C263.391 119.791 262.876 117.296 260.078 117.79C256.781 118.372 256.804 121.677 257.036 123.944C257.302 126.52 258.582 129.08 259.817 131.461C262.173 136.016 261.392 140.675 257.387 142.952C253.247 145.306 250.234 141.637 248.002 138.131C244.615 132.809 240.452 127.923 239.053 121.584C237.971 122.025 237.467 122.09 237.184 122.367C234.295 125.15 229.504 127.738 229.107 130.831C228.682 134.195 234.777 135.603 237.218 138.664C238.821 140.675 241.602 142.501 237.065 144.855C233.82 146.54 235.745 149.856 236.465 152.313C237.258 155.02 239.2 153.324 240.996 153.09C243.222 152.796 245.618 153.432 247.9 153.851C249.764 154.193 252.488 152.949 253.009 156.096C253.236 157.471 253.298 158.955 252.069 159.895C249.639 161.749 248.512 158.183 246.428 158.602C248.268 167.174 253.479 170.12 262.343 167.484C271.525 164.75 275.138 158.428 272.499 149.263C271.468 145.67 268.817 140.968 271.304 138.691C274.362 135.886 277.715 140.941 281.244 141.876C283.645 142.512 285.769 144.251 287.91 145.648C291.722 148.138 291.456 150.698 287.752 153.052C283.9 155.498 280.508 158.004 281.227 163.293C281.442 164.864 280.349 166.549 278.446 167.679C272.748 171.066 271.779 177.083 271.706 182.546C271.655 186.444 272.368 190.509 272.499 194.548C272.657 199.359 268.613 202.588 264.314 199.978C259.613 197.13 252.159 196.195 252.907 188.21C252.969 187.569 252.052 186.422 251.367 186.221C249.843 185.775 249.441 187.183 249.095 188.205C247.453 193.151 247.634 198.033 249.452 202.952C250.041 204.545 251.525 204.8 252.046 204.104C258.594 195.336 260.163 205.566 264.246 206.953C261.471 207.887 259.013 208.85 256.549 210.198C244.468 216.802 235.275 225.717 229.334 237.811C227.697 241.138 225.471 243.247 220.634 243.035C217.026 242.877 211.288 243.861 213.843 250.373C214.37 251.71 213.022 252.129 212.54 252.977C209.782 257.869 202.804 255.227 200.623 258.282C195.837 264.979 193.096 257.135 189.069 257.902C198.613 269.143 191.074 280.699 189.969 292.158C189.907 292.81 189.352 293.402 189.222 294.06C188.593 297.289 189.613 302.186 185.631 302.833C181.241 303.545 181.893 298.088 179.978 295.571C175.702 289.956 169.341 290.663 163.202 290.94C161.259 291.027 159.112 292.94 157.521 290.293C155.793 287.418 158.563 286.238 159.945 284.607C162.329 281.786 167.993 281.552 166.526 275.579C165.937 273.181 171.261 275.878 171.856 272.377C170.514 270.627 168.214 269.458 166.56 267.583C164.753 265.539 161.338 263.631 158.789 266.735C156.926 269.001 156.405 267.876 155.193 266.528C149.937 260.685 150.101 259.625 157.566 257.532C161.837 256.336 165.071 251.737 170.78 254.439C172.196 255.108 171.528 252.243 170.565 250.949C167.721 247.139 163.4 245.139 159.118 243.894C156.258 243.062 155.057 242.198 155.011 239.561C154.972 237.208 155.023 234.979 158.053 234.147C164.448 232.392 161.463 229.793 158.806 226.999C155.969 224.015 150.928 221.982 155.057 215.03C149.223 218.498 147.637 224.7 141.327 222.977C140.427 222.732 138.648 222.765 138.643 222.597C138.173 214.367 129.037 217.367 125.276 212.91C123.35 215.737 125.089 217.226 127.247 218.237C133.687 221.265 136.117 226.804 136.473 233.001C136.796 238.675 130.6 240.877 127.672 244.867C126.686 246.204 123.078 246.264 122.557 242.665C122.138 239.801 120.643 237.213 121.113 234.066C121.605 230.761 120.122 228.945 116.717 231.68C115.551 232.615 114.656 233.245 113.013 232.935C109.417 232.267 109.592 233.957 110.714 236.436C114.599 244.997 114.305 245.845 106.081 249.917C104.608 250.645 104.999 253.113 102.444 252.977C102.037 252.286 101.487 251.569 101.17 250.765C100.621 249.389 101.272 247.155 98.9327 247.057C96.7861 246.965 95.6646 248.693 94.8886 250.389C94.0843 252.14 93.7389 253.944 95.8232 255.2C96.82 255.798 98.0435 256.102 98.9384 256.804C101.459 258.788 104.597 255.7 106.273 257.043C109.547 259.674 103.441 260.609 104.313 263.022C105.254 265.62 104.693 267.778 103.458 270.159C101.113 274.665 101.266 278.72 104.297 283.482C109.066 290.967 111.031 299.36 107.134 308.269C100.932 303.915 103.305 298.077 104.132 292.554C99.5274 299.626 97.4544 299.8 89.5192 293.609C88.2675 292.636 87.4859 291.125 86.3701 289.972C85.2883 288.858 84.416 286.994 82.5583 287.39C80.5476 287.825 80.4229 290.092 80.6608 291.386C81.4141 295.484 80.1511 297.12 75.6879 296.702C73.3997 296.484 72.4141 298.159 72.4481 300.3C72.4934 303.018 72.4934 305.649 71.0604 308.231C69.5481 310.954 71.7854 312.509 74 312.009C78.9843 310.884 80.423 313.737 82.4903 317.075C86.3474 323.299 89.287 323.321 92.6684 317.972C93.8125 316.162 93.9541 312.357 96.6332 313.118C99.5104 313.933 102.875 316.26 103.266 319.57C104.047 326.245 105.775 332.915 104.212 339.731C102.903 345.449 99.9805 350.869 100.728 356.995C100.858 358.06 100.281 359.963 99.2726 359.756C94.8547 358.859 92.3455 355.484 89.8931 352.173C88.7659 350.651 86.3418 349.211 89.9894 347.586C93.501 346.02 91.5016 343.117 90.601 341.345C89.4116 339.003 87.1913 336.567 84.0082 337.051C81.2952 337.459 80.253 339.476 81.2159 342.253C81.4368 342.889 80.825 343.96 80.304 344.623C79.1428 346.107 75.0535 344.9 75.988 347.961C76.9905 351.249 78.9277 347.401 80.4966 347.847C80.7175 347.912 81.0856 347.977 81.1139 348.107C83.3795 357.397 98.1681 359.974 94.6508 372.835C92.7987 379.607 95.7213 387.272 92.8836 394.224C91.8018 396.877 95.2398 398.1 94.124 401.301C89.4739 398.562 82.0145 401.138 80.7344 392.822C80.5532 391.659 77.1322 391.077 75.3593 390.006C67.5884 385.32 60.5991 379.45 51.4292 376.955C45.3801 375.308 49.1522 370.812 49.0163 367.551C52.1202 366.219 51.3329 372.59 54.2781 369.834C56.589 367.676 54.4594 365.861 52.8225 363.621C48.988 358.381 42.0044 358.468 37.4959 354.299C36.2498 353.146 31.0277 354.657 28.6771 356.315C26.9213 357.549 29.3794 360.354 30.1894 362.409C34.5506 373.536 42.752 380.945 54.1365 385.293C57.6369 386.63 59.9647 389.626 63.6746 390.946C66.7048 392.023 69.3952 392.528 72.5217 392.251C74.8552 392.039 76.9453 392.865 76.4752 395.714C76.0277 398.431 74.1642 398.393 71.6778 398.04C55.6715 395.779 42.2196 388.995 31.3221 377.547C28.1617 374.226 24.8879 371.068 20.1245 369.263C20.7589 374.155 23.302 378.352 21.4782 383.402C20.0169 387.446 23.7891 388.044 26.6777 386.962C31.1579 385.288 34.3014 387.076 37.8131 389.278C44.5192 393.479 51.2989 397.632 58.3392 401.28C63.9975 404.215 64.6205 409.325 65.2435 414.293C65.4644 416.065 62.5475 416.679 60.8144 415.733C58.3789 414.396 54.8502 412.956 54.2385 410.89C52.5563 405.204 47.7193 404.09 43.3524 401.802C40.3901 400.247 36.2555 400.002 36.0516 394.751C35.9383 391.892 29.2492 392.142 26.9043 395.105C26.6268 395.458 26.3039 396.132 26.0661 396.11C19.9716 395.42 15.1913 398.306 10.3429 401.187C9.00057 401.981 5.78909 400.437 6.28185 403.367C6.68399 405.77 8.89857 407.466 11.6343 405.77C15.8596 403.15 21.0138 405.482 21.4272 407.808C22.7866 415.396 27.4424 413.217 32.2284 412.956C34.3184 412.842 37.3033 413.95 34.6129 417.326C33.6727 418.506 33.1176 420.212 33.0157 421.718C32.6702 426.817 30.0591 425.898 26.8703 424.132C25.0522 423.12 23.8627 419.359 21.2686 421.729C18.5443 424.219 22.6336 425.893 23.9533 428.937C17.808 427.012 14.285 429.415 11.9345 433.965C11.3171 435.155 9.92944 436.373 11.1698 437.618C12.3593 438.813 13.7469 437.672 15.0326 437.145C21.4895 434.508 29.0566 436.052 35.2416 431.752C37.6092 430.111 45.1649 438.379 44.253 441.374C43.9811 442.26 43.3807 443.657 42.6614 443.249C36.4537 439.743 29.5267 447.309 23.4833 441.972C21.4499 440.178 19.5128 441.385 17.7343 442.64C16.8847 443.244 16.4486 444.14 17.1736 444.983C18.5443 446.57 20.5267 446.413 22.4298 446.391C23.6135 446.38 24.803 446.336 25.9811 446.445C28.5129 446.684 29.9005 448.109 29.7363 450.522C29.5777 452.827 27.5386 453.544 25.6525 453.479C23.1151 453.392 20.6003 452.718 17.8816 452.267C20.453 457.762 20.1812 458.045 14.6475 457.985C11.2095 457.947 8.4285 461.122 4.31648 459.616C2.87217 459.089 2.75323 462.399 2.54933 464.177C2.20383 467.188 3.90867 469.036 6.50842 469.906C8.68904 470.64 11.0509 469.71 12.0308 467.791C13.9169 464.084 16.5562 461.535 20.7022 460.317C33.2819 456.61 39.5575 459.92 44.0547 473.151C41.5965 473.069 40.7753 471.352 40.0164 469.938C38.0113 466.177 35.6438 464.503 31.8433 468.003C30.4443 469.292 28.813 468.949 27.1535 468.623C22.1069 467.634 17.6267 468.215 13.0502 471.14C8.80794 473.847 3.97663 474.042 -0.866048 470.808C-6.21281 467.242 -17.3822 465.97 -24.1902 467.645C-19.155 470.053 -15.7056 472.553 -19.2059 478.13C-20.8485 480.75 -17.1216 481.739 -15.2921 482.756C-12.5734 484.272 -13.1738 481.636 -12.5224 480.391C-9.29964 474.26 0.929393 472.988 6.5367 478.032C7.10876 478.543 7.15413 479.598 7.44299 480.397C-0.786728 480.391 7.90741 489.453 2.10752 489.849C-0.322309 490.013 -1.54574 491.116 -3.3582 491.801C-7.44757 493.355 -7.89501 495.948 -6.67726 499.427C-6.38274 500.275 -6.14483 501.145 -5.94092 502.015C-5.52179 503.836 -10.6137 504.705 -7.15302 506.771C-4.83646 508.157 -2.53128 506.146 -0.894395 504.607C2.75319 501.183 8.58705 503.118 12.127 499.422C12.7047 498.818 14.5399 499.199 15.078 500.471C15.2479 500.868 14.7495 501.971 14.3643 502.069C8.65506 503.547 9.55563 509.668 6.08363 512.848C3.54618 515.169 5.67013 518.795 7.61287 520.029C14.0131 524.111 10.0654 528.927 9.1195 533.297C8.01503 538.407 3.13833 533.08 0.0174918 536.363C4.48635 538.059 8.0603 541.239 12.0591 535.673C13.5996 533.531 15.8936 532.683 17.5984 535.722C18.4027 537.151 17.825 539.853 20.8438 538.94C23.6418 538.092 25.7828 536.303 27.0402 533.672C28.0994 531.471 27.5556 529.775 25.477 528.378C23.959 527.356 22.594 526.138 20.4927 524.486C22.8376 524.046 24.3895 523.676 25.9584 523.475C28.9263 523.094 31.9792 520.034 31.5317 518.996C28.8697 512.805 36.1365 507.141 31.9678 501.004C29.7079 497.671 30.1951 497.291 36.2612 495.041C35.825 504.173 45.3121 511.511 54.4538 514.756C63.0063 517.789 70.7036 517.159 79.0352 516.936C83.3172 516.822 84.0875 521.208 81.754 523.328C75.4387 529.057 76.2939 536.455 76.9226 542.995C77.472 548.74 76.0447 552.023 71.4116 554.757C77.8402 552.04 86.3304 553.752 90.6407 546.495C96.6444 559.188 88.7829 565.031 80.2757 566.836C75.0875 567.939 77.5683 562.552 73.5639 561.992C66.2121 560.965 66.2518 559.4 71.7345 554.545C69.6048 552.583 67.9509 549.789 68.3927 547.387C69.7691 539.896 63.4651 540.108 59.2681 538.092C57.4047 537.195 55.6262 537.885 55.0541 539.336C53.27 543.864 49.8433 544.462 45.4481 543.424C53.1963 547.224 45.7029 555.758 51.4178 559.921L51.2536 559.737C55.8697 562.607 59.9478 567.146 64.0145 569.358C74.6571 575.147 67.2882 578.74 64.3826 583.496C63.5557 584.844 61.1372 586.518 63.1705 588.22C64.7054 589.503 67.1126 589.84 69.2083 588.829C70.2391 588.329 71.3323 587.649 71.9893 586.769C76.4129 580.833 81.4595 580.849 86.9422 585.23C90.9636 588.443 94.5828 584.594 96.0781 583.11C99.1819 580.028 100.638 575.913 106.568 577.626C109.06 578.349 108.46 575.832 108.409 574.315C108.216 568.504 111.025 566.749 116.395 569.244C120.841 571.309 123.877 569.831 125.485 565.922C126.607 563.188 128.363 561.221 130.736 559.753C132.248 558.818 134.497 557.791 135.828 559.764C137.198 561.797 134.4 562.09 133.568 563.243C131.557 566.042 126.499 568.885 128.929 571.978C131.721 575.527 134.015 569.657 137.023 569.081C137.923 568.907 138.96 568.532 139.56 567.912C143.961 563.389 146.142 566.477 147.529 570.276C148.498 572.929 148.94 575.408 152.525 575.908C154.405 576.169 154.253 577.685 153.635 579.142C151.46 584.295 154.859 587.176 158.67 590.198C159.373 588.231 158.183 584.083 162.935 587.214C164.266 588.089 167.784 586.214 170.14 585.257C171.884 584.545 171.856 583.143 170.208 582.202C159.95 576.365 154.462 565.526 144.142 559.633C138.037 556.144 138.195 552.208 143.836 547.436C146.935 544.816 147.291 541.222 146.578 538.151C145.757 534.629 143.4 531.906 138.948 535.662C134.27 539.614 133.494 538.934 130.798 533.194C129.427 530.27 126.743 527.992 122.886 526.97C113.042 524.361 112.101 523.274 118.694 516.234C124.415 510.119 129.501 502.482 138.66 499.944C139.775 499.634 140.976 499.237 142.069 499.373C142.84 499.465 143.797 500.253 144.148 500.971C144.697 502.091 143.627 502.515 142.681 502.656C140.019 503.058 138.722 504.412 139.894 506.901C140.937 509.114 141.633 511.957 144.663 512.402C147.439 512.81 148 510.413 148.809 508.554C151.273 507.728 152.74 505.287 156.422 506.331C158.982 507.059 161.786 503.955 163.236 501.379C164.889 498.438 162.239 497.074 160.353 495.318C158.574 493.66 155.278 492.491 156.558 488.942C163.105 490.893 168.741 493.252 167.54 501.248C167.438 501.933 168.293 502.819 168.843 503.509C172.196 507.7 170.219 511.565 167.336 514.636C164.334 517.843 160.188 518.121 156.495 515.3C153.737 513.196 151.296 510.717 148.719 508.402L148.73 508.429ZM267.446 347.086C267.214 344.009 269.236 342.123 271.258 340.155C273.19 338.285 274.764 335.529 272.176 333.763C268.919 331.539 270.414 329.539 271.281 327.316C277.217 312.123 286.149 298.708 297.426 286.651C299.391 284.553 301.306 284.042 304.347 284.754C302.399 287.967 301.294 290.815 298.621 292.995C287.106 302.371 281.119 314.602 278.185 328.707C276.741 335.66 275.308 343.297 267.282 346.939C266.959 347.787 266.093 349.097 266.387 349.407C271.219 354.549 267.203 361.773 264.971 363.023C258.713 366.529 259.5 372.079 257.693 376.846C256.883 378.988 256.617 381.499 254.589 382.766C250.823 385.114 250.868 388.375 251.837 391.767C254.034 399.491 251.214 407.096 251.497 414.766C251.576 416.886 250.024 418.549 248.495 420.017C247.623 420.854 246.49 421.582 245.402 420.712C244.87 420.283 244.751 419.114 244.819 418.31C245.561 409.281 245.714 400.138 247.396 391.267C248.642 384.674 247.102 380.678 240.577 378.618C237.643 377.694 237.631 376.188 238.011 373.438C239.07 365.714 243.539 371.655 246.258 371.633C246.496 370.785 246.733 370.367 246.711 369.959C246.609 368.078 242.927 366.165 246.813 364.328C248.806 363.382 251.129 362.512 252.686 364.371C254.516 366.556 252.579 368.519 251.338 370.481C249.628 373.199 246.898 375.862 249.86 380.167C252.896 373.226 257.087 367.589 259.075 360.729C260.542 355.663 261.805 349.999 267.452 347.086H267.446ZM326.912 577.859L327.054 577.718C326.312 580.474 321.951 584.969 328.838 584.703C332.389 584.562 336.139 585.437 339.271 584.703C347.002 582.898 345.524 585.627 345.009 591.117C344.454 597.015 340.172 604.69 348.871 609.082C351.347 610.332 353.912 611.414 356.433 612.572L355.968 612.675C360.307 615.246 359.922 619.122 358.393 623.128C367.904 622.961 373.272 626.946 374.495 635.081C374.699 636.429 374.863 637.832 375.39 639.071C377.843 644.86 374.376 645.86 369.686 645.371C364.17 644.795 358.472 644.719 353.629 646.937C346.578 650.165 342.211 648.056 338.739 641.599C336.688 650.682 335.414 651.225 326.714 647.708C324.33 646.746 321.871 645.844 319.357 645.295C313.857 644.088 308.674 646.67 308.193 651.193C307.428 658.352 302.183 658.634 297.505 660.477C295.613 661.222 293.988 661.934 293.665 658.814C293.24 654.688 291.099 653.72 287.452 656.297C286.053 657.286 284.37 657.678 282.926 656.329C282.524 655.954 282.263 654.987 282.479 654.519C283.3 652.72 285.163 652.753 286.778 652.878C292.81 653.351 297.465 649.6 302.88 648.187C305.457 647.518 305.905 645.632 305.208 643.316C303.769 638.571 301.204 637.5 295.562 637.272C286.715 636.908 280.779 636.929 278.814 643.251C275.455 654.03 264.671 649.165 258.673 654.085C261.114 650.019 267.894 650.16 267.503 644.023C274.572 645.817 275.399 638.946 279.148 636.163C280.66 635.043 283.153 633.619 281.844 631.195C280.66 629.004 277.953 630.341 275.999 629.776C271.366 628.433 270.386 633.26 267.441 634.505C262.938 636.408 258.027 637.451 253.247 638.691C251.219 639.218 248.755 642.447 247.17 639.424C245.623 636.484 240.956 633.956 243.749 629.912C245.38 627.553 247.034 623.922 251.384 625.438C253.292 626.101 254.884 625.656 255.615 624.079C257.206 620.639 259.353 618.144 263.04 616.328C266.172 614.784 264.767 611.229 263.652 608.941C262.508 606.587 259.891 607.663 258.016 608.577C255.722 609.691 253.796 611.159 252.035 613.17C248.195 617.562 243.828 621.59 236.663 623.557C238.589 618.818 241.341 614.3 234.103 613.143C232.086 612.822 229.294 613.518 229.056 610.653C228.824 607.848 231.752 607.348 233.701 606.185C236.397 604.581 240.073 606.555 242.384 604.065C245.346 600.874 248.45 598.863 253.224 600.418C255.292 601.092 256.872 599.907 257.047 597.58C253.275 597.319 253.91 590.443 248.053 592.623C238.838 596.058 229.379 598.819 221.852 605.413C220.045 606.995 217.451 607.979 215.4 606.805C213.696 605.832 214.976 603.462 215.129 601.69C216.142 589.889 218.788 578.387 223.092 567.341C226.677 558.139 226.451 549.045 223.534 540.016C222.503 536.825 222.316 534.08 224.1 531.656C228.66 525.459 226.966 517.126 232.036 511.157C232.551 510.554 232.715 509.342 232.5 508.554C230.523 501.259 235.27 494.486 234.131 487.11C233.712 484.408 236.255 481.234 237.62 478.353C238.742 475.988 241.013 476.2 243.165 476.559C245.725 476.983 244.768 478.924 244.802 480.386C244.887 483.914 246.337 487.295 244.955 491.051C244.411 492.529 244.802 497.443 246.139 496.878C252.012 494.405 250.857 499.117 252.12 501.373C252.749 502.487 253.757 503.172 255.008 502.89C256.691 502.509 256.339 501.248 255.784 500.183C252.041 492.942 258.016 491.464 262.813 489.507C264.269 488.915 266.234 489.246 267.294 487.844C271.564 482.212 271.168 487.768 272.317 489.784C275.501 487.414 274.985 485.686 272.516 482.609C269.452 478.799 265.34 473.722 270.584 469.009C274.187 465.775 279.058 462.236 284.166 467.46C287.48 470.846 291.541 472.928 295.07 469.112C298.406 465.508 300.739 460.594 298.134 455.398C296.627 452.397 294.871 448.717 297.817 446.777C300.541 444.983 303.69 447.875 305.14 450.495C307.751 455.218 310.889 454.463 314.044 451.598C318.824 447.25 324.403 449.152 330.594 448.56C328.232 452.218 325.27 451.636 322.591 451.973C320.971 452.18 318.297 450.163 317.907 453.055C317.663 454.849 318.45 458.192 320.58 458.094C327.19 457.779 329.552 464.492 337.849 465.008C328.481 468.889 325.428 473.51 329.518 480.69C330.022 481.571 330.101 483.234 329.557 484.006C325.706 489.496 328.572 493.16 333.307 496.285C327.439 499.993 323.072 497.514 322.795 490.29C322.67 486.974 322.013 484.12 318.818 483.066C313.477 481.305 311.659 476.896 309.088 472.901C308.21 471.537 308.742 468.541 306.188 469.085C304.098 469.531 301.345 470.683 301.289 473.412C301.209 477.293 300.416 479.815 295.517 478.353C294.254 477.978 292.617 479.527 293.2 479.815C297.567 481.946 295.608 488.404 300.314 489.67C307.162 491.513 309.077 495.47 307.598 501.737C307.253 503.216 307.321 504.917 307.728 506.385C308.097 507.717 308.997 509.016 307.728 510.125C306.041 511.609 304.664 510.021 303.333 509.277C301.158 508.07 299.295 508.168 296.723 508.809C290.81 510.288 285.362 510.962 282.19 503.134C280.264 498.384 276.356 492.078 268.16 496.052C267.033 496.601 265.068 495.861 264.722 494.415C264.377 492.959 264.665 491.611 262.423 492.741C261.392 493.263 259.976 493.41 259.953 494.796C259.936 496.122 260.01 497.709 261.669 498.188C263.907 498.835 266.206 499.384 268.517 499.694C273.592 500.373 275.484 504.667 276.673 508.032C277.766 511.136 273.054 511.397 270.624 512.342C267.622 513.506 264.558 515.805 267.18 518.066C270.273 520.73 271.258 527.976 278.412 524.633C279.93 523.926 280.819 525.883 281.941 526.187C286.71 527.481 290.08 533.998 296.542 529.345C302.065 525.372 304.579 518.702 310.872 515.473C311.824 514.984 310.64 511.848 313.092 511.989C316.032 512.158 314.78 514.691 315.029 516.294C315.375 518.534 315.828 520.795 315.805 523.045C315.783 525.318 312.939 528.15 316.377 529.639C319.543 531.009 321.401 527.959 323.44 526.171C326.108 523.828 327.518 521.154 325.547 517.724C324.924 516.642 324.618 515.365 326.012 514.854C327.269 514.392 328.889 514.163 330.124 514.522C331.517 514.93 330.82 516.425 330.713 517.501C330.362 521.078 330.322 524.611 326.578 527.019C323.151 529.22 325.162 530.944 327.637 532.553C329.716 533.911 332.055 532.09 334.083 532.998C333.868 535.249 332.446 535.988 330.849 536.602C329.937 536.95 328.985 537.602 329.461 538.57C329.784 539.228 330.86 539.967 331.591 539.956C334.202 539.918 336.694 539.57 338.688 541.913C341.735 545.49 341.401 537.537 344.352 540.277C346.47 542.244 343.593 545.484 346.124 547.137C347.138 547.8 348.849 547.43 350.219 547.664C351.845 547.936 353.782 546.348 355.538 548.621C348.486 552.371 346.328 558.171 347.574 565.319C348.09 568.254 347.15 571.309 343.944 570.249C335.312 567.396 331.613 573.391 326.884 577.821L326.912 577.859ZM131.047 474.222C128.34 473.515 130.062 471.085 128.204 470.868C126.318 470.645 125.882 472.308 125.491 473.466C124.551 476.228 124.908 479.598 122.251 481.549C114.407 487.311 105.446 491.736 101.465 501.487C99.7823 505.602 93.5576 506.749 92.2776 512.011C91.7395 514.207 87.9503 514.772 87.367 512.457C85.815 506.358 79.8509 504.635 76.2656 500.639C73.9377 498.047 70.2618 495.062 71.6891 492.073C73.2694 488.768 77.574 491.594 80.6891 491.692C81.3971 491.714 82.1051 491.85 82.8131 491.866C84.6596 491.904 86.8345 492.741 88.1769 491.072C89.8987 488.936 87.7181 487.284 86.8006 485.582C84.8408 481.962 82.7225 478.554 78.6161 476.548C74.2152 474.396 75.7445 471.466 78.2876 468.84C80.6438 466.411 82.7848 468.199 84.4443 469.661C88.6243 473.336 94.2883 473.879 98.2078 471.874C102.156 469.851 97.4261 465.497 97.2789 462.089C97.2732 461.894 97.4658 461.692 97.9869 460.654C104.178 464.562 110.057 463.464 116.491 460.045C124.109 455.99 125.655 453.985 122.999 445.809C122.41 443.999 120.065 442.151 122.268 440.276C124.398 438.46 126.635 440.265 128.889 440.71C133.013 441.52 133.602 443.428 132.35 446.962C131.693 448.815 131.336 451.283 132.072 452.979C135.301 460.399 129.716 466.884 131.07 474.233L131.047 474.222ZM187.341 679.953C187.857 675.469 180.567 678.361 182.635 673.338C183.983 670.066 184.124 665.396 188.338 664.766C194.013 663.912 199.003 661.379 204.452 660.14C207.777 659.384 212.246 657.248 213.871 661.292C215.366 665.01 214.891 672.283 213.537 673.316C206.344 678.795 213.871 678.578 215.831 679.208C220.379 680.671 224.865 681.752 227.221 686.378C228.054 688.014 229.464 689.422 228.071 691.314C226.723 693.146 224.672 693.004 222.928 692.385C214.438 689.39 205.574 691.162 196.998 691.058C191.612 690.993 186.163 688.542 181.094 690.276C176.093 691.982 173.317 690.618 171.023 686.606C175.838 682.823 181.66 681.198 187.341 679.959V679.953ZM7.42598 697.625C17.2473 690.792 29.555 693.57 40.2939 689.955C41.7325 689.471 43.2278 689.911 43.8112 691.428C45.3121 695.347 48.988 695.157 52.1032 695.108C59.8232 694.977 67.6507 696.489 75.2574 693.966C76.5885 693.526 78.2479 693.249 79.0296 694.744C79.9924 696.592 78.4123 697.712 77.1095 698.641C75.2744 699.951 73.224 700 71.0434 699.31C67.9622 698.331 64.949 699.228 62.0038 700.011C59.9025 700.565 57.6029 701.582 58.2995 704.115C58.8546 706.126 61.0296 706.311 63.0516 705.903C63.9748 705.718 64.9207 705.441 65.8383 705.485C67.7923 705.577 70.7772 703.435 71.4682 705.974C72.2328 708.801 68.9761 709.6 66.5746 710.703C58.8263 714.263 49.7526 712.633 42.1629 716.699C40.6903 717.487 38.7362 716.813 38.6739 715.497C38.3398 708.534 32.1378 710.301 28.2126 708.741C26.3662 708.007 22.8998 708.159 23.5965 705.659C25.4769 698.908 20.6966 701.674 18.7539 702.642C12.195 705.92 7.90175 705.68 7.42031 697.614L7.42598 697.625ZM100.711 386.679C100.003 384.739 100.592 383.048 100.332 381.662C99.1536 375.362 106.687 372.334 106.177 366.301C106.001 364.208 106.341 361.083 109.451 361.121C112.322 361.159 115.307 363.018 115.517 365.92C115.76 369.29 117.527 370.35 120.229 371.704C122.308 372.748 125.927 373.987 125.117 376.786C124.477 378.993 121.894 381.88 119.748 382.26C113.087 383.445 114.888 385.712 117.595 389.376C120.677 393.545 120.206 395.257 117.618 398.594C116.927 399.486 117.108 401.236 117.341 402.514C117.794 404.992 118.332 407.433 117.652 409.933C117.375 410.95 117.392 412.075 115.579 411.917C109.082 411.363 104.313 406.884 102.297 400.236C100.898 395.61 99.5614 391.12 100.706 386.679H100.711ZM275.846 698.407C273.207 698.348 268.913 699.995 268.693 696.608C268.494 693.591 272.98 693.858 275.665 693.841C283.685 693.787 291.405 691.221 299.544 691.765C306.007 692.2 312.628 691.037 319.011 691.118C328.005 691.238 337.623 691.939 345.734 695.912C351.958 698.967 358.421 694.782 364.079 698.304C364.306 698.445 365.065 698.114 365.331 697.809C367.976 694.787 371.119 695.401 374.393 696.527C376.234 697.157 379.406 696.157 379.394 699.092C379.377 702.299 375.973 702.022 373.912 702.049C364.725 702.18 355.595 702.169 346.357 701.354C328.589 699.788 310.668 699.848 292.815 699.196C287.157 698.989 281.504 698.668 275.852 698.397L275.846 698.407ZM187.942 454.707C188.989 451.636 191.736 450.006 192.195 446.804C192.473 444.874 194.319 443.82 196.562 444.793C198.93 445.82 198.652 447.565 197.684 449.348C196.381 451.745 195.305 454.224 193.192 456.202C190.745 458.496 191.918 460.295 194.727 461.23C196.625 461.861 199.145 465.497 200.255 460.404C200.572 458.947 200.991 456.8 203.302 457.659C205.353 458.42 205.608 460.524 204.99 462.334C204.412 464.019 202.962 465.454 202.504 467.15C200.589 474.238 191.595 477.815 192.428 486.403C192.597 488.126 190.66 490.986 187.755 490.545C185.693 490.235 184.56 487.577 185.07 486.262C188.146 478.386 183.031 477.646 177.107 477.043C173.363 476.662 174.637 472.249 172.094 470.368C171.222 469.721 174.558 466.199 176.823 466.574C186.928 468.259 182.453 463.28 180.103 459.937C177.656 456.452 177.441 452.511 180.29 450.364C183.875 447.657 185.461 452.327 187.936 454.707H187.942ZM172.241 463.329C155.283 454.131 156.071 471.694 148.305 478.304C148.022 472.683 147.558 468.199 147.62 463.725C147.705 457.904 149.829 450.837 153.59 448.315C159.475 444.369 157.77 440.754 156.864 436.438C156.529 434.84 155.374 433.584 157.809 432.633C159.769 431.867 160.692 432.394 162.522 433.579C167.727 436.949 169.817 442.031 171.941 447.076C173.323 450.354 172.621 453.338 167.874 453.713C166.169 453.849 164.023 452.887 162.68 455.392C164.77 458.953 172.734 456.186 172.241 463.334V463.329ZM300.785 218.074C291.671 216.465 282.813 215.606 273.767 218.449C271.802 219.069 268.013 217.134 266.772 219.493C263.544 225.635 260.418 222.238 255.937 219.998C263.493 216.726 269.168 212.535 274.124 207.366C276.973 204.398 282.541 205.452 284.767 201.125C285.01 200.658 287.52 200.5 287.973 201.011C291.507 205.039 297.329 206.148 302.376 210.709C298.898 210.556 297.143 210.48 295.177 210.399C296.015 213.916 298.343 215.737 300.785 218.074ZM88.4827 660.76C87.8654 659.357 87.6671 658.471 87.1517 657.83C85.9736 656.368 84.4726 655.003 86.2681 653.117C87.3896 651.943 88.9245 652.28 90.2669 652.601C92.5381 653.144 92.8836 655.079 92.9289 656.873C92.9799 658.884 91.8415 661.254 92.6061 662.869C95.2965 668.576 91.0938 668.342 87.5425 668.968C77.438 670.74 67.3109 672.24 56.9912 672.142C55.6035 672.131 53.757 672.995 53.8986 670.979C54.1082 667.946 51.5028 663.912 54.6577 662.102C57.6879 660.363 61.8338 658.634 65.4588 662.744C68.5909 666.288 73.292 666.32 77.0529 664.059C80.5022 661.988 83.9686 660.76 88.4884 660.754L88.4827 660.76ZM26.4682 679.388C23.7381 678.524 20.1642 680.823 16.6186 677.48C12.9653 674.034 22.5714 672.294 16.9867 668.87C16.0805 668.315 20.9628 664.809 23.9647 663.782C27.2781 662.646 30.6821 661.705 34.1145 660.939C35.5928 660.607 37.3656 660.211 38.3058 662.303C42.4179 671.414 37.224 679.426 26.4738 679.393L26.4682 679.388ZM115.976 284.944C117.641 290.146 124.098 293.913 123.463 299.436C122.455 308.231 122.954 316.042 129.461 322.81C129.977 323.342 130.26 324.957 129.92 325.229C127.507 327.169 124.353 327.142 121.487 327.213C118.904 327.278 116.044 326.327 116.021 323.092C115.913 310.378 115.976 297.659 115.976 284.944ZM359.927 666.978C361.53 664.521 364.045 663.722 367.075 663.896C378.596 664.554 390.099 664.918 401.552 663.01C403.857 662.624 406.225 662.504 408.564 662.445C409.821 662.412 410.869 663.113 410.971 664.445C411.016 665.043 410.58 666.206 410.399 666.201C402.532 665.929 396.913 674.17 388.445 671.517C382.005 669.5 375.786 669.011 369.409 672.359C366.809 673.724 359.656 669.228 359.922 666.978H359.927ZM414.432 137.93C422.321 142.36 431.452 140.441 439.319 144.077C434.81 147.953 429.203 151.361 434.289 158.455C435.468 160.097 433.916 161.95 431.457 162.005C429.809 162.043 427.799 161.33 426.564 162.005C420.985 165.038 420.13 161.412 420.905 157.895C421.948 153.177 419.829 149.687 418.051 145.806C416.901 143.289 414.307 141.289 414.437 137.935L414.432 137.93ZM17.0207 657.134C13.8262 657.531 12.5915 656.596 12.0081 654.943C11.3794 653.16 11.2435 651.231 13.0786 650.035C18.6859 646.393 24.2649 642.67 30.1157 639.424C32.4663 638.12 35.2586 638.625 36.3404 641.773C37.173 644.191 39.8861 647.268 36.4594 648.98C29.8496 652.291 22.7809 654.764 17.015 657.129L17.0207 657.134ZM160.692 652.905C160.239 652.351 159.78 651.796 159.327 651.236C164.617 646.676 170.514 642.838 176.597 639.25C177.622 638.647 179.332 638.587 179.338 640.104C179.366 647.92 182.215 641.425 183.45 640.778C186.118 639.375 188.565 637.598 191.113 635.994C192.733 634.972 194.721 633.918 196.324 635.201C198.414 636.875 196.675 638.908 195.962 640.745C194.631 644.164 190.326 644.681 188.593 647.698C186.112 652.024 179.225 653.351 176.58 649.274C173.368 644.322 170.383 646.616 167.223 648.274C164.867 649.508 162.856 651.345 160.698 652.91L160.692 652.905ZM129.886 283.77C127.213 284.531 123.843 287.151 121.334 283.716C119.453 281.145 114.044 281.384 115.171 276.524C116.332 271.513 120.274 269.512 124.919 269.235C130.305 268.914 135.584 275.008 135.318 280.786C135.182 283.754 134.395 286.575 129.886 283.765V283.77ZM194.24 381.113C194.495 380.651 194.687 379.945 195.146 379.493C202.424 372.34 211.674 367.942 220.475 362.92C222.033 362.034 223.698 362.104 224.978 363.507C225.986 364.616 226.349 366.942 225.556 367.187C222.061 368.269 222.039 373.731 217.077 372.922C214.268 372.46 212.472 374.59 210.688 376.536C208.213 379.238 205.387 381.63 202.787 384.233C201.088 385.935 199.4 385.413 197.684 384.418C196.313 383.625 194.563 383.184 194.234 381.113H194.24ZM248.013 227.853C247.034 226.238 246.847 224.418 249.005 224.026C253.1 223.287 257.008 224.233 260.219 226.929C261.952 228.386 264.422 229.962 262.944 232.555C260.712 236.469 257.993 240.127 255.422 243.856C255.32 244.002 254.482 243.85 254.119 243.633C250.041 241.23 246.439 238.42 245.584 233.528C245.176 231.196 249.707 230.728 248.013 227.853ZM335.238 653.525C337.617 653.916 341.916 651.372 341.916 655.693C341.916 658.884 337.844 657.699 335.459 657.879C332.1 658.14 329.172 659.14 326.204 660.749C321.775 663.157 317.04 665.027 311.897 662.059C310.662 661.347 308.034 662.803 307.955 660.423C307.887 658.324 310.198 657.542 311.976 657.15C319.634 655.476 326.912 651.486 335.238 653.519V653.525ZM226.23 276.084C223.075 272.469 219.326 269.974 214.959 268.202C213.044 267.425 210.671 266.468 211.736 263.81C212.784 261.201 215.134 261.788 217.139 262.609C219.949 263.761 222.401 264.767 223.925 260.875C224.502 259.391 225.08 256.923 227.623 257.548C230.433 258.239 228.949 261.043 229.776 262.593C232.698 268.056 225.261 270.893 226.23 276.079V276.084ZM409.753 760.647C411.673 760.973 413.299 764.011 415.944 761.663C419.393 758.603 419.546 758.76 421.353 763.625C416.284 764.49 411.339 765.577 406.094 764.794C404.389 764.539 401.484 763.386 400.702 766.289C399.167 772.002 397.083 769.866 394.206 767.169C390.745 763.919 386.327 761.168 381.524 763.354C374.971 766.338 370.564 764.011 366.056 759.994C368.355 756.765 372.247 759.054 375.067 756.575C371.924 755.548 369.086 754.803 367.347 752.02C366.231 750.232 364.005 749.231 362.533 752.308C361.106 755.287 358.013 756.722 355.578 754.988C352.496 752.786 347.218 751.177 348.282 746.323C348.679 744.519 345.637 740.844 350.287 740.409C352.876 740.165 355.736 739.795 354.263 736.664C353.227 734.468 350.741 732 347.523 733.212C344.085 734.511 341.021 735.137 337.028 732.397C343.156 729.799 349.528 726.967 354.343 729.255C365.852 734.724 377.129 732.832 387.511 728.864C394.427 726.222 400.26 727.624 407.21 726.82C405.941 729.793 403.568 728.092 402.571 729.712C404.899 731.038 408.099 730.701 410.79 733.952C406.072 733.62 401.235 734.696 398.924 732.859C391.34 726.82 386.287 734.098 380.306 735.354C376.721 736.104 378.228 739.844 379.717 742.209C381.213 744.568 383.824 745.089 385.715 743.138C389.136 739.605 392.557 740.545 395.916 742.573C400.77 745.503 406.87 744.742 410.994 743.817C417.62 742.328 423.307 743.698 430.172 744.073C422.531 749.851 413.531 747.378 405.703 750.639C398.097 753.814 388.61 751.591 379.757 750.656C380.374 753.917 383.931 752.656 384.52 754.868C383.937 756.901 381.071 754.336 380.561 757.461C390.371 758.179 400.113 759.027 409.753 760.657V760.647ZM56.3512 821.505C59.1661 824.592 63.5217 825.234 66.9314 827.702C72.0006 831.371 78.786 833.849 85.6904 829.512C89.0887 827.375 93.0762 829.468 96.7861 829.495C98.3663 829.506 99.4538 831.681 98.4626 833.273C96.4916 836.437 91.7508 836.562 89.9157 840.399C89.372 841.541 86.7552 839.34 85.1693 838.426C82.326 836.79 79.5507 837.763 77.1945 839.312C73.9603 841.438 78.5595 842.258 78.4462 843.927C76.2486 845.069 72.1026 842.894 72.1082 847.096C72.1082 850.711 74.0736 852.999 78.3499 853.201C82.1108 853.375 85.9169 854.413 89.5985 853.326C96.3669 851.32 101.997 854.891 108.04 856.413C109.83 856.864 110.923 858.169 109.972 860.006C109.094 861.691 95.0189 864.534 93.9485 862.969C90.8276 858.408 86.2228 860.131 82.0768 859.463C76.4921 858.566 69.3895 860.066 68.0642 852.706C65.2718 852.461 65.4531 857.402 62.0491 854.706C60.4575 853.445 61.7885 849.765 57.8974 850.216C55.9094 850.445 53.5022 853.288 51.9163 849.787C51.4915 848.852 51.5934 847.482 51.9559 846.477C52.528 844.906 53.5248 843.482 54.4877 841.737C45.8162 841.28 38.9911 837.018 31.1296 833.366C35.91 831.278 39.5462 827.772 44.6381 830.202C46.5129 831.094 47.0453 830.398 47.657 828.832C49.2033 824.875 52.8565 823.179 56.5607 821.603C56.5607 821.603 56.3568 821.494 56.3682 821.499L56.3512 821.505ZM210.201 133.94C214.013 137.832 220.589 136.141 223.03 141.267C220.164 142.566 219.031 138.381 216.227 140.033C217.74 143.904 214.959 149.443 212.852 148.111C206.978 144.398 198.901 144.447 194.619 138.283C193.266 136.337 191.159 134.293 188.927 134.625C180.816 135.837 173.804 132.2 166.277 130.825C157.923 129.298 149.013 129.461 148.792 116.209C146.935 120.062 146.159 122.095 144.998 123.906C144.403 124.835 143.015 125.264 141.843 124.672C141.356 124.427 140.942 123.612 140.908 123.036C140.659 118.829 148.526 110.43 152.593 111.333C158.132 112.567 164.906 110.67 168.877 116.796C169.896 118.372 172.185 119.78 174.105 120.101C178.092 120.769 180.301 122.873 183.059 125.612C186.628 129.151 192.478 133.467 196.641 132.874C202.917 131.983 210.054 132.282 215.729 128.716C219.433 126.39 220.662 128.732 222.599 130.939C218.765 133.701 214.438 132.255 210.212 133.94H210.201ZM39.5632 348.76C36.7596 347.249 32.7099 344.232 35.7627 340.606C39.5406 336.116 37.3486 334.274 33.9616 331.284C31.0503 328.707 30.3763 324.598 31.696 320.896C32.5796 318.407 35.0547 316.776 37.9603 317.613C45.7369 319.853 53.7571 319.847 61.7206 320.309C66.0818 320.565 66.5236 324.853 69.3612 326.653C69.7124 326.876 69.5935 328.762 69.1517 329.006C66.297 330.626 63.3348 330.545 60.4745 328.843C60.2763 328.724 60.0667 328.61 59.8458 328.528C58.039 327.859 55.9094 327.001 54.9975 329.349C54.2045 331.387 53.5815 333.828 56.0396 335.535C57.3876 336.47 59.7778 335.926 60.4971 338.475C58.2429 339.122 56.1926 339.606 54.2215 340.302C51.9106 341.117 51.2536 343.128 51.027 345.21C50.8401 346.906 52.1202 347.564 53.6211 347.879C60.9842 349.445 57.9597 353.945 57.1328 358.359C53.7797 352.842 50.1038 353.842 45.8502 357.375C45.0686 353.271 43.1598 350.695 39.5632 348.76ZM209.238 832.458C207.539 832.496 203.665 831.92 206.282 835.437C210.15 840.639 205.76 840.318 202.713 841.139C200.821 841.65 198.488 840.693 196.998 842.585C197.899 844.547 202.861 843.661 200.776 846.939C199.643 848.722 196.602 850.01 194.291 846.868C193.589 845.917 191.493 845.993 190.57 845.091C188.837 843.395 185.093 841.519 190.207 839.209C193.079 837.91 192.626 835.953 190.383 834.562C187.2 832.583 186.191 829.463 183.275 824.228C196.353 828.637 207.358 823.717 218.499 824.478C230.28 825.288 241.879 828.142 253.734 828.81H218.023C219.127 830.191 221.387 829.044 222.616 831.713C218.012 833.686 213.571 832.36 209.227 832.458H209.238ZM22.5657 231.663C27.7029 228.57 33.095 230.859 38.2548 229.13C43.2278 227.467 49.1976 227.739 52.4997 233.441C53.1453 234.555 53.876 237.028 52.426 236.74C47.1925 235.702 44.2643 237.55 41.7495 241.752C41.0698 242.894 38.7193 241.181 37.6375 240.029C34.3807 236.556 31.5713 237.98 29.6116 241.04C27.3517 244.557 23.7948 247.275 23.8174 252.286C23.8344 255.928 19.4335 258.375 16.392 258.173C14.234 258.032 9.85578 255.086 10.6487 251.748C11.8042 246.905 16.1485 250.705 18.9804 250.069C19.3713 249.982 19.6884 249.618 19.7451 249.579C17.1623 242.306 17.5021 234.365 12.1497 226.543C17.4172 227.782 19.5411 233.484 22.56 231.663H22.5657ZM61.9642 593.683C63.5671 595.748 67.3902 597.216 64.6771 600.249C62.6494 602.516 61.7432 605.973 56.1133 604.951C48.9993 603.663 43.9415 599.526 37.8131 597.091C29.3115 593.715 32.8458 589.475 35.4852 584.013C37.983 587.785 40.7583 589.709 44.944 587.78C44.5701 584.768 39.28 583.801 41.4436 579.441C48.7048 583.79 56.6684 586.839 61.9642 593.677V593.683ZM57.331 288.559C60.5765 291.467 59.2001 294.033 57.937 297.115C56.6513 300.262 55.8924 303.638 55.1957 306.975C53.2643 316.211 52.8395 316.51 43.3637 313.922C43.1371 313.862 42.8879 313.868 42.667 313.797C41.5513 313.438 40.1579 313.134 40.4241 311.677C40.6734 310.307 41.9534 310.112 43.2051 310.378C45.7369 310.922 48.1498 310.829 49.0617 308.095C49.8603 305.709 48.7898 303.649 46.6545 302.192C45.4311 301.355 44.3322 300.404 45.0572 298.849C45.8502 297.153 47.3568 296.637 49.1863 297.278C51.8993 298.235 53.9043 297.626 54.7143 294.843C55.4732 292.239 53.3493 291.163 51.5141 290.184C47.1812 287.874 42.5764 286.396 37.6375 285.575C31.2145 284.504 28.864 280.346 31.0616 274.866C31.5601 273.616 31.9905 272.024 33.7407 272.154C35.4682 272.285 36.1138 273.709 35.706 275.16C34.4373 279.715 37.7394 279.987 40.9395 281.368C46.8187 283.906 52.3694 282.281 58.8943 280.645C58.4355 284.238 54.6803 286.195 57.331 288.57V288.559ZM210.473 123.454C210.654 124.471 211.096 126.352 209.385 125.993C205.041 125.085 201.218 128.352 196.449 126.292C189.794 123.416 184.872 118.698 179.491 114.42C177.361 112.73 174.399 110.425 175.736 107.696C176.874 105.375 180.312 106.614 182.833 106.718C184.181 106.778 185.557 106.283 186.922 106.038C190.456 105.375 209.81 119.78 210.479 123.449L210.473 123.454ZM488.527 728.706C489.388 728.929 490.283 729.369 491.15 729.32C502.908 728.603 514.655 727.63 526.425 727.135C531.143 726.934 536.541 725.988 540.347 731.473C537.923 731.908 536.365 732.326 534.785 732.441C526.074 733.093 517.397 732.691 508.572 733.685C498.122 734.865 486.851 736.305 475.942 732.68C479.108 728.152 484.857 730.886 488.76 728.641C488.76 728.641 488.55 728.695 488.527 728.701V728.706ZM335.493 46.8432C338.387 42.462 342.335 43.2556 344.08 48.5935C344.901 51.0994 346.402 52.3279 349.126 52.529C355.368 52.9856 355.453 55.4317 351.29 59.1062C343.491 62.1611 334.983 60.6228 327.003 62.547C326.555 55.7306 332.236 51.7626 335.482 46.8432H335.493ZM51.265 559.758C51.5481 563.074 48.8917 564.933 47.3851 567.423C45.6349 570.304 43.6356 570.592 40.9622 569.407C38.4021 568.265 35.1057 567.102 34.7148 564.352C34.2504 561.058 38.1076 561.335 40.2769 560.296C40.6224 560.133 40.764 559.59 41.0019 559.22C31.5941 553.92 30.4556 551.523 32.5399 539.885C35.4285 543.353 38.4078 545.995 40.158 549.246C42.7747 554.105 46.2127 557.791 51.4235 559.949L51.2593 559.764L51.265 559.758ZM61.9358 252.145C63.618 252.966 65.2889 253.819 66.9711 254.64C70.9585 256.586 73.5242 259.641 72.1309 263.919C70.5903 268.643 66.4499 266.528 63.1025 266.093C61.4713 265.881 59.7609 265.974 58.1976 265.544C54.4368 264.511 52.1655 262.152 51.9956 258.244C51.7917 251.216 55.4506 248.971 61.9415 252.14L61.9358 252.145ZM92.4248 602.249C92.5268 606.152 85.7414 612.365 81.788 611.996C77.1322 611.561 74.6457 608.713 74.2719 604.369C73.9491 600.592 83.1642 593.34 88.6583 593.433C92.5494 594.889 92.3285 598.749 92.4191 602.244L92.4248 602.249ZM167.636 520.322C172.847 519.849 177.933 520.317 182.997 521.676C185.257 522.284 186.826 523.567 185.925 525.394C182.895 531.531 185.676 538.021 184.651 544.821C181.139 540.538 177.565 536.564 175.775 532.803C173.561 528.16 167.925 525.698 167.812 520.154L167.636 520.322ZM247.492 757.896C261.352 753.629 275.404 753.178 289.496 754.765C275.625 760.429 261.556 758.989 247.492 757.896ZM327.06 577.713C323.99 574.788 322.67 570.858 320.591 567.368C319.011 564.716 316.185 562.329 313.806 564.46C308.606 569.108 303.554 567.841 296.655 564.406C299.335 568.048 300.501 570.162 301.017 572.706C301.81 576.631 303.837 577.713 307.321 574.462C308.941 572.951 311.314 572.206 313.274 571.01C314.52 570.255 314.701 567.493 316.932 568.749C319.045 569.939 317.369 572.07 317.589 573.75C318.229 578.669 311.116 580.664 313.449 585.779C306.267 584.35 300.02 581.333 292.94 583.822C289.179 585.149 286.63 583.002 285.146 579.708C284.308 577.854 285.73 574.587 281.963 574.582C278.163 574.576 274.413 576.18 273.354 579.463C271.53 585.105 269.718 581.202 268.364 579.724C267.379 578.647 267.452 576.74 266.795 575.31C265.895 573.359 263.216 571.641 265.487 569.304C267.673 567.059 270.482 565.765 273.824 567.01C275.835 567.754 277.755 568.782 279.692 566.868C281.453 565.123 282.711 566.026 283.436 567.787C284.166 569.575 284.591 571.494 287.287 570.07C289.338 568.988 291.666 568.233 292.215 565.575C292.764 562.906 290.873 561.4 288.924 561.052C284.268 560.226 282.212 556.236 278.735 554.018C275.484 551.953 276.99 548.958 278.746 546.218C280.61 543.31 282.439 544.718 284.727 545.538C289.955 547.403 292.855 550.001 289.491 555.524C288.403 557.307 289.111 558.628 290.918 559.367C292.883 560.171 294.526 560.063 295.421 557.693C296.31 555.361 297.12 552.828 298.7 550.958C300.065 549.344 301.328 545.544 304.172 547.436C306.579 549.034 309.467 552.099 306.93 555.6C305.083 558.144 305.191 560.188 307.213 562.243C309.411 564.477 311.654 562.868 313.653 561.857C318.224 559.546 320.875 560.264 323.905 564.863C326.742 569.178 326.278 573.467 326.912 577.854C326.912 577.854 327.054 577.713 327.06 577.707V577.713ZM300.564 602.326C299.646 604.201 298.819 606.462 296.259 606.109C293.24 605.69 294.197 603.01 294.09 601.135C293.976 599.07 304.494 589.992 306.573 590.258C307.015 590.313 307.581 590.497 307.819 590.807C309.603 593.177 311.603 595.433 310.419 598.787C309.626 601.032 308.708 603.375 306.194 603.799C302.24 604.467 304.857 599.515 302.099 598.852C300.388 599.499 301.119 601.189 300.558 602.331L300.564 602.326ZM245.17 565.145C241.251 566.542 239.166 571.005 234.346 570.989C232.523 570.989 229.928 573.565 229.181 570.537C228.648 568.379 230.908 566.999 233.627 566.298C238.878 564.939 245.074 564.83 247.572 558.573C248.251 556.877 250.336 556.361 251.78 557.41C255.615 560.188 259.625 559.552 263.912 558.97C266.818 558.579 269.14 560.248 271.581 564.27C261.635 560.188 253.366 562.221 245.176 565.14L245.17 565.145Z" fill="white"/>
</mask>
<g mask="url(#mask0_53_54064)">
<path d="M694.395 -162.296H698.139V921.789H694.395V-162.296Z" fill="#229F87"/>
<path d="M684.832 -162.296H688.576V921.789H684.832V-162.296Z" fill="#229F87"/>
<path d="M675.278 -162.296H679.021V921.789H675.278V-162.296Z" fill="#229F87"/>
<path d="M665.723 -162.296H669.467V921.789H665.723V-162.296Z" fill="#229F87"/>
<path d="M656.162 -162.296H659.906V921.789H656.162V-162.296Z" fill="#229F87"/>
<path d="M646.608 -162.296H650.352V921.789H646.608V-162.296Z" fill="#229F87"/>
<path d="M637.047 -162.296H640.791V921.789H637.047V-162.296Z" fill="#229F87"/>
<path d="M627.491 -162.296H631.234V921.789H627.491V-162.296Z" fill="#229F87"/>
<path d="M617.932 -162.296H621.676V921.789H617.932V-162.296Z" fill="#229F87"/>
<path d="M608.375 -162.296H612.119V921.789H608.375V-162.296Z" fill="#229F87"/>
<path d="M598.815 -162.296H602.559V921.789H598.815V-162.296Z" fill="#229F87"/>
<path d="M589.26 -162.296H593.004V921.789H589.26V-162.296Z" fill="#229F87"/>
<path d="M579.699 -162.296H583.443V921.789H579.699V-162.296Z" fill="#229F87"/>
<path d="M570.145 -162.296H573.889V921.789H570.145V-162.296Z" fill="#229F87"/>
<path d="M560.584 -162.296H564.328V921.789H560.584V-162.296Z" fill="#229F87"/>
<path d="M551.028 -162.296H554.771V921.789H551.028V-162.296Z" fill="#229F87"/>
<path d="M541.469 -162.296H545.213V921.789H541.469V-162.296Z" fill="#229F87"/>
<path d="M531.91 -162.296H535.654V921.789H531.91V-162.296Z" fill="#229F87"/>
<path d="M522.352 -162.296H526.096V921.789H522.352V-162.296Z" fill="#229F87"/>
<path d="M512.795 -162.296H516.539V921.789H512.795V-162.296Z" fill="#229F87"/>
<path d="M503.235 -162.296H506.979V921.789H503.235V-162.296Z" fill="#229F87"/>
<path d="M493.68 -162.296H497.424V921.789H493.68V-162.296Z" fill="#229F87"/>
<path d="M484.119 -162.296H487.863V921.789H484.119V-162.296Z" fill="#229F87"/>
<path d="M474.565 -162.296H478.309V921.789H474.565V-162.296Z" fill="#229F87"/>
<path d="M465.004 -162.296H468.748V921.789H465.004V-162.296Z" fill="#229F87"/>
<path d="M455.448 -162.296H459.191V921.789H455.448V-162.296Z" fill="#229F87"/>
<path d="M445.889 -162.296H449.633V921.789H445.889V-162.296Z" fill="#229F87"/>
<path d="M436.332 -162.296H440.076V921.789H436.332V-162.296Z" fill="#229F87"/>
<path d="M426.78 -162.296H430.523V921.789H426.78V-162.296Z" fill="#229F87"/>
<path d="M417.217 -162.296H420.961V921.789H417.217V-162.296Z" fill="#229F87"/>
<path d="M407.662 -162.296H411.406V921.789H407.662V-162.296Z" fill="#229F87"/>
<path d="M398.102 -162.296H401.846V921.789H398.102V-162.296Z" fill="#229F87"/>
<path d="M388.545 -162.296H392.289V921.789H388.545V-162.296Z" fill="#229F87"/>
<path d="M378.985 -162.296H382.729V921.789H378.985V-162.296Z" fill="#229F87"/>
<path d="M369.43 -162.296H373.174V921.789H369.43V-162.296Z" fill="#229F87"/>
<path d="M359.869 -162.296H363.613V921.789H359.869V-162.296Z" fill="#229F87"/>
<path d="M350.315 -162.296H354.059V921.789H350.315V-162.296Z" fill="#229F87"/>
<path d="M340.754 -162.296H344.498V921.789H340.754V-162.296Z" fill="#229F87"/>
<path d="M331.199 -162.296H334.943V921.789H331.199V-162.296Z" fill="#229F87"/>
<path d="M321.639 -162.296H325.383V921.789H321.639V-162.296Z" fill="#229F87"/>
<path d="M312.082 -162.296H315.826V921.789H312.082V-162.296Z" fill="#229F87"/>
<path d="M302.522 -162.296H306.266V921.789H302.522V-162.296Z" fill="#229F87"/>
<path d="M292.967 -162.296H296.711V921.789H292.967V-162.296Z" fill="#229F87"/>
<path d="M283.405 -162.296H287.148V921.789H283.405V-162.296Z" fill="#229F87"/>
<path d="M273.852 -162.296H277.596V921.789H273.852V-162.296Z" fill="#229F87"/>
<path d="M264.289 -162.296H268.033V921.789H264.289V-162.296Z" fill="#229F87"/>
<path d="M254.737 -162.296H258.48V921.789H254.737V-162.296Z" fill="#229F87"/>
<path d="M245.174 -162.296H248.918V921.789H245.174V-162.296Z" fill="#229F87"/>
<path d="M235.619 -162.296H239.363V921.789H235.619V-162.296Z" fill="#229F87"/>
<path d="M226.059 -162.296H229.803V921.789H226.059V-162.296Z" fill="#229F87"/>
<path d="M216.504 -162.296H220.248V921.789H216.504V-162.296Z" fill="#229F87"/>
<path d="M206.942 -162.296H210.686V921.789H206.942V-162.296Z" fill="#229F87"/>
<path d="M197.389 -162.296H201.133V921.789H197.389V-162.296Z" fill="#229F87"/>
<path d="M187.834 -162.296H191.578V921.789H187.834V-162.296Z" fill="#229F87"/>
<path d="M178.274 -162.296H182.018V921.789H178.274V-162.296Z" fill="#229F87"/>
<path d="M168.715 -162.296H172.459V921.789H168.715V-162.296Z" fill="#229F87"/>
<path d="M159.157 -162.296H162.9V921.789H159.157V-162.296Z" fill="#229F87"/>
<path d="M149.6 -162.296H153.344V921.789H149.6V-162.296Z" fill="#229F87"/>
<path d="M140.041 -162.296H143.785V921.789H140.041V-162.296Z" fill="#229F87"/>
<path d="M130.485 -162.296H134.229V921.789H130.485V-162.296Z" fill="#229F87"/>
<path d="M120.924 -162.296H124.668V921.789H120.924V-162.296Z" fill="#229F87"/>
<path d="M111.369 -162.296H115.113V921.789H111.369V-162.296Z" fill="#229F87"/>
<path d="M101.809 -162.296H105.553V921.789H101.809V-162.296Z" fill="#229F87"/>
<path d="M92.2522 -162.296H95.9961V921.789H92.2522V-162.296Z" fill="#229F87"/>
<path d="M82.6936 -162.296H86.4375V921.789H82.6936V-162.296Z" fill="#229F87"/>
<path d="M73.137 -162.296H76.8809V921.789H73.137V-162.296Z" fill="#229F87"/>
<path d="M63.5765 -162.296H67.3203V921.789H63.5765V-162.296Z" fill="#229F87"/>
<path d="M54.0218 -162.296H57.7656V921.789H54.0218V-162.296Z" fill="#229F87"/>
<path d="M44.4612 -162.296H48.2051V921.789H44.4612V-162.296Z" fill="#229F87"/>
<path d="M34.9065 -162.296H38.6504V921.789H34.9065V-162.296Z" fill="#229F87"/>
<path d="M25.346 -162.296H29.0898V921.789H25.346V-162.296Z" fill="#229F87"/>
<path d="M15.7893 -162.296H19.5332V921.789H15.7893V-162.296Z" fill="#229F87"/>
<path d="M6.23075 -162.296H9.97461V921.789H6.23075V-162.296Z" fill="#229F87"/>
<path d="M-3.32589 -162.296H0.417969V921.789H-3.32589V-162.296Z" fill="#229F87"/>
<path d="M613.171 -204.946L755.334 870.52L751.62 870.972L609.457 -204.494L613.171 -204.946Z" fill="#20BD44"/>
<path d="M603.688 -203.792L745.852 871.673L742.137 872.125L599.974 -203.34L603.688 -203.792Z" fill="#20BD44"/>
<path d="M594.208 -202.635L736.371 872.83L732.657 873.282L590.494 -202.183L594.208 -202.635Z" fill="#20BD44"/>
<path d="M584.727 -201.482L726.891 873.983L723.177 874.436L581.013 -201.03L584.727 -201.482Z" fill="#20BD44"/>
<path d="M575.247 -200.331L717.41 875.135L713.696 875.587L571.533 -199.878L575.247 -200.331Z" fill="#20BD44"/>
<path d="M565.759 -199.171L707.922 876.294L704.208 876.746L562.044 -198.719L565.759 -199.171Z" fill="#20BD44"/>
<path d="M556.276 -198.019L698.439 877.446L694.725 877.898L552.562 -197.567L556.276 -198.019Z" fill="#20BD44"/>
<path d="M546.802 -196.862L688.965 878.604L685.251 879.056L543.087 -196.41L546.802 -196.862Z" fill="#20BD44"/>
<path d="M537.313 -195.708L679.477 879.757L675.762 880.209L533.599 -195.256L537.313 -195.708Z" fill="#20BD44"/>
<path d="M527.833 -194.557L669.996 880.908L666.282 881.36L524.119 -194.105L527.833 -194.557Z" fill="#20BD44"/>
<path d="M518.352 -193.398L660.516 882.067L656.801 882.52L514.638 -192.946L518.352 -193.398Z" fill="#20BD44"/>
<path d="M508.87 -192.245L651.033 883.221L647.319 883.673L505.156 -191.792L508.87 -192.245Z" fill="#20BD44"/>
<path d="M499.389 -191.087L641.553 884.378L637.839 884.83L495.675 -190.635L499.389 -191.087Z" fill="#20BD44"/>
<path d="M489.901 -189.934L632.064 885.531L628.35 885.983L486.187 -189.482L489.901 -189.934Z" fill="#20BD44"/>
<path d="M480.419 -188.783L622.582 886.683L618.868 887.135L476.705 -188.33L480.419 -188.783Z" fill="#20BD44"/>
<path d="M470.944 -187.63L613.107 887.835L609.393 888.287L467.23 -187.178L470.944 -187.63Z" fill="#20BD44"/>
<path d="M461.456 -186.477L603.619 888.988L599.905 889.44L457.742 -186.025L461.456 -186.477Z" fill="#20BD44"/>
<path d="M451.975 -185.319L594.139 890.146L590.425 890.599L448.261 -184.867L451.975 -185.319Z" fill="#20BD44"/>
<path d="M442.489 -184.166L584.652 891.3L580.938 891.752L438.775 -183.713L442.489 -184.166Z" fill="#20BD44"/>
<path d="M433.012 -183.008L575.176 892.457L571.462 892.909L429.298 -182.556L433.012 -183.008Z" fill="#20BD44"/>
<path d="M423.532 -181.857L565.695 893.608L561.981 894.061L419.818 -181.405L423.532 -181.857Z" fill="#20BD44"/>
<path d="M414.046 -180.698L556.209 894.768L552.495 895.22L410.332 -180.245L414.046 -180.698Z" fill="#20BD44"/>
<path d="M404.563 -179.545L546.727 895.92L543.012 896.372L400.849 -179.093L404.563 -179.545Z" fill="#20BD44"/>
<path d="M395.087 -178.393L537.25 897.072L533.536 897.524L391.373 -177.941L395.087 -178.393Z" fill="#20BD44"/>
<path d="M385.598 -177.235L527.762 898.23L524.048 898.683L381.884 -176.783L385.598 -177.235Z" fill="#20BD44"/>
<path d="M376.118 -176.082L518.281 899.383L514.567 899.835L372.404 -175.63L376.118 -176.082Z" fill="#20BD44"/>
<path d="M366.632 -174.924L508.795 900.541L505.081 900.993L362.918 -174.472L366.632 -174.924Z" fill="#20BD44"/>
<path d="M357.155 -173.771L499.318 901.694L495.604 902.147L353.441 -173.319L357.155 -173.771Z" fill="#20BD44"/>
<path d="M347.675 -172.62L489.838 902.846L486.124 903.298L343.96 -172.167L347.675 -172.62Z" fill="#20BD44"/>
<path d="M338.186 -171.466L480.35 903.999L476.636 904.451L334.472 -171.014L338.186 -171.466Z" fill="#20BD44"/>
<path d="M328.712 -170.314L470.875 905.151L467.161 905.604L324.998 -169.862L328.712 -170.314Z" fill="#20BD44"/>
<path d="M319.229 -169.156L461.393 906.31L457.678 906.762L315.515 -168.704L319.229 -169.156Z" fill="#20BD44"/>
<path d="M309.743 -168.003L451.906 907.462L448.192 907.914L306.029 -167.551L309.743 -168.003Z" fill="#20BD44"/>
<path d="M300.261 -166.851L442.424 908.614L438.71 909.066L296.546 -166.399L300.261 -166.851Z" fill="#20BD44"/>
<path d="M290.774 -165.692L432.938 909.773L429.223 910.226L287.06 -165.24L290.774 -165.692Z" fill="#20BD44"/>
<path d="M281.298 -164.54L423.461 910.925L419.747 911.377L277.583 -164.088L281.298 -164.54Z" fill="#20BD44"/>
<path d="M271.817 -163.382L413.98 912.083L410.266 912.535L268.103 -162.93L271.817 -163.382Z" fill="#20BD44"/>
<path d="M262.331 -162.23L404.494 913.235L400.78 913.688L258.617 -161.778L262.331 -162.23Z" fill="#20BD44"/>
<path d="M252.854 -161.072L395.018 914.394L391.303 914.846L249.14 -160.619L252.854 -161.072Z" fill="#20BD44"/>
<path d="M243.368 -159.919L385.531 915.546L381.817 915.998L239.654 -159.467L243.368 -159.919Z" fill="#20BD44"/>
<path d="M233.886 -158.766L376.049 916.699L372.335 917.151L230.171 -158.314L233.886 -158.766Z" fill="#20BD44"/>
<path d="M224.405 -157.608L366.568 917.857L362.854 918.31L220.691 -157.156L224.405 -157.608Z" fill="#20BD44"/>
<path d="M214.923 -156.455L357.086 919.01L353.372 919.462L211.208 -156.003L214.923 -156.455Z" fill="#20BD44"/>
<path d="M205.44 -155.297L347.604 920.168L343.889 920.62L201.726 -154.845L205.44 -155.297Z" fill="#20BD44"/>
<path d="M195.96 -154.146L338.123 921.319L334.409 921.772L192.246 -153.694L195.96 -154.146Z" fill="#20BD44"/>
<path d="M186.473 -152.987L328.637 922.479L324.923 922.931L182.759 -152.535L186.473 -152.987Z" fill="#20BD44"/>
<path d="M176.991 -151.839L319.154 923.626L315.44 924.078L173.277 -151.387L176.991 -151.839Z" fill="#20BD44"/>
<path d="M167.511 -150.687L309.674 924.778L305.96 925.231L163.796 -150.235L167.511 -150.687Z" fill="#20BD44"/>
<path d="M158.028 -149.529L300.191 925.937L296.477 926.389L154.314 -149.077L158.028 -149.529Z" fill="#20BD44"/>
<path d="M148.548 -148.376L290.711 927.089L286.997 927.541L144.834 -147.924L148.548 -148.376Z" fill="#20BD44"/>
<path d="M139.065 -147.218L281.229 928.247L277.514 928.699L135.351 -146.766L139.065 -147.218Z" fill="#20BD44"/>
<path d="M129.585 -146.066L271.748 929.399L268.034 929.852L125.871 -145.614L129.585 -146.066Z" fill="#20BD44"/>
<path d="M120.102 -144.909L262.266 930.557L258.552 931.009L116.388 -144.456L120.102 -144.909Z" fill="#20BD44"/>
<path d="M110.616 -143.755L252.779 931.71L249.065 932.162L106.902 -143.303L110.616 -143.755Z" fill="#20BD44"/>
<path d="M101.139 -142.602L243.303 932.863L239.589 933.315L97.4253 -142.15L101.139 -142.602Z" fill="#20BD44"/>
<path d="M91.6531 -141.445L233.816 934.021L230.102 934.473L87.939 -140.993L91.6531 -141.445Z" fill="#20BD44"/>
<path d="M82.1707 -140.291L224.334 935.174L220.62 935.626L78.4566 -139.839L82.1707 -140.291Z" fill="#20BD44"/>
<path d="M72.6902 -139.134L214.854 936.331L211.139 936.783L68.9761 -138.682L72.6902 -139.134Z" fill="#20BD44"/>
<path d="M63.2097 -137.981L205.373 937.484L201.659 937.937L59.4957 -137.529L63.2097 -137.981Z" fill="#20BD44"/>
<path d="M53.7273 -136.823L195.891 938.643L192.177 939.095L50.0132 -136.37L53.7273 -136.823Z" fill="#20BD44"/>
<path d="M44.241 -135.67L186.404 939.795L182.69 940.247L40.5269 -135.218L44.241 -135.67Z" fill="#20BD44"/>
<path d="M34.7566 -134.524L176.92 940.941L173.206 941.394L31.0425 -134.072L34.7566 -134.524Z" fill="#20BD44"/>
<path d="M25.282 -133.365L167.445 942.101L163.731 942.553L21.5679 -132.912L25.282 -133.365Z" fill="#20BD44"/>
<path d="M15.7957 -132.212L157.959 943.253L154.245 943.705L12.0816 -131.76L15.7957 -132.212Z" fill="#20BD44"/>
<path d="M6.31325 -131.054L148.477 944.411L144.762 944.863L2.59915 -130.602L6.31325 -131.054Z" fill="#20BD44"/>
<path d="M-3.16722 -129.903L138.996 945.562L135.282 946.015L-6.88131 -129.451L-3.16722 -129.903Z" fill="#20BD44"/>
<path d="M-12.6496 -128.75L129.514 946.716L125.8 947.168L-16.3637 -128.297L-12.6496 -128.75Z" fill="#20BD44"/>
<path d="M-22.1301 -127.591L120.033 947.874L116.319 948.326L-25.8442 -127.139L-22.1301 -127.591Z" fill="#20BD44"/>
<path d="M-31.6184 -126.439L110.545 949.026L106.831 949.479L-35.3325 -125.987L-31.6184 -126.439Z" fill="#20BD44"/>
<path d="M-41.0989 -125.281L101.064 950.185L97.3504 950.637L-44.813 -124.829L-41.0989 -125.281Z" fill="#20BD44"/>
<path d="M-50.5735 -124.129L91.5898 951.336L87.8758 951.788L-54.2876 -123.677L-50.5735 -124.129Z" fill="#20BD44"/>
<path d="M-60.0618 -122.97L82.1016 952.495L78.3875 952.947L-63.7758 -122.518L-60.0618 -122.97Z" fill="#20BD44"/>
<path d="M-69.5422 -121.818L72.6211 953.647L68.907 954.1L-73.2563 -121.366L-69.5422 -121.818Z" fill="#20BD44"/>
<path d="M-79.0285 -120.664L63.1348 954.801L59.4207 955.253L-82.7426 -120.212L-79.0285 -120.664Z" fill="#20BD44"/>
<path d="M-88.5051 -119.506L53.6582 955.959L49.9441 956.411L-92.2192 -119.054L-88.5051 -119.506Z" fill="#20BD44"/>
<path d="M-97.9856 -118.355L44.1777 957.11L40.4636 957.563L-101.7 -117.903L-97.9856 -118.355Z" fill="#20BD44"/>
<path d="M-107.474 -117.196L34.6895 958.27L30.9754 958.722L-111.188 -116.744L-107.474 -117.196Z" fill="#20BD44"/>
<path d="M-116.956 -116.044L25.207 959.421L21.4929 959.873L-120.67 -115.592L-116.956 -116.044Z" fill="#20BD44"/>
<path d="M-126.431 -114.897L15.7324 960.568L12.0183 961.021L-130.145 -114.445L-126.431 -114.897Z" fill="#20BD44"/>
<path d="M-135.919 -113.738L6.24414 961.728L2.53005 962.18L-139.633 -113.286L-135.919 -113.738Z" fill="#20BD44"/>
</g>
</svg>
