<svg width="594" height="686" viewBox="0 0 594 686" fill="none" xmlns="http://www.w3.org/2000/svg">
<mask id="mask0_53_69478" style="mask-type:luminance" maskUnits="userSpaceOnUse" x="0" y="0" width="594" height="686">
<path d="M75.5688 632.195C69.2084 633.16 70.4089 637.726 70.2149 641.729C69.8329 649.599 66.3222 652.103 58.834 650.203C56.912 649.712 55.8206 648.827 55.002 647.147C52.7707 642.586 52.6858 642.625 46.6346 641.802C56.9362 639.885 53.8924 634.276 52.7586 629.021C52.031 625.639 52.2493 620.672 54.4442 619.324C62.0112 614.673 56.5482 610.963 54.5109 606.893C53.7712 605.41 52.8435 604.006 51.94 602.467C49.0781 602.693 51.7642 607.722 47.9807 606.673C45.5857 606.013 43.8697 604.029 43.1421 601.791C41.9113 597.991 40.5713 595.995 35.181 596.829C29.4815 597.709 24.1943 592.229 23.7092 586.907C23.2605 581.957 26.8197 578.856 34.5929 577.424C40.5228 576.33 45.6402 579.138 47.6957 584.578C48.581 586.924 49.3631 589.314 50.503 591.552C51.552 593.605 51.7217 593.514 54.0561 591.637C54.3532 591.4 54.7655 591.259 55.1536 591.152C56.8028 590.684 58.1489 594.524 59.4282 591.953C60.6773 589.449 56.718 589.957 55.7114 588.508C55.1112 587.645 54.6564 586.597 53.8318 585.988C51.843 584.522 49.2237 582.853 51.3337 580.525C53.2255 578.433 56.3299 577.92 58.6764 581.793C58.4945 575.496 56.9241 571.358 51.1154 568.437C45.8767 565.804 40.7047 563.921 34.8657 563.713C32.0645 563.611 29.2087 563.882 26.6439 562.715C24.6854 561.818 20.2349 563.256 21.0838 560.133C21.8053 557.477 25.5585 555.724 29.3602 556.93C29.9908 557.128 30.5426 557.584 31.1792 557.72C33.2832 558.165 35.945 560.155 37.4063 558.362C39.0858 556.299 38.3703 553.17 37.1213 550.825C36.1329 548.97 34.799 546.484 31.4945 548.31C30.8457 548.671 29.1541 548.682 29.0571 548.445C25.8677 540.868 13.3833 543.022 11.4552 533.697C11.0065 531.526 7.32004 529.012 4.91896 527.941C0.177443 525.827 0.389673 522.726 0.0440635 518.898C-0.234849 515.825 0.795897 515.019 3.54865 515.261C6.90773 515.56 7.85967 514.286 7.3746 511.298C6.71976 507.295 10.5033 503.473 8.02945 499.255C7.72628 498.737 9.15722 496.673 9.27243 496.707C16.0633 498.889 21.1444 490.787 28.0141 494.012C29.7361 494.824 31.1489 495.861 33.4105 495.799C35.5387 495.743 37.8792 498.742 39.8437 495.811C41.402 493.482 42.4206 490.026 40.3288 488.2C36.4543 484.817 39.9528 483.351 41.2807 480.989C42.9117 478.085 48.0535 475.65 43.3908 471.551C42.4085 470.689 41.6748 468.524 39.8073 469.832C38.5098 470.745 38.3036 472.476 39.7891 473.654C41.208 474.782 42.0265 476.123 40.25 477.133C38.5583 478.097 38.3218 476.005 37.5396 475.182C36.2239 473.801 34.7566 471.523 32.7496 473.096C30.5244 474.849 25.0189 474.466 26.6923 479.078C28.0384 482.787 24.0548 480.701 23.3393 482.286C22.8725 483.329 21.1323 482.601 20.7745 481.536C20.247 479.974 19.7862 477.86 21.5507 476.969C27.9596 473.733 26.8864 468.687 24.9643 463.985C22.3571 457.614 19.9621 451.464 22.5208 444.557C22.9634 443.362 22.1145 441.75 21.7629 439.765C24.3762 440.588 29.051 444.388 27.1168 437.504C26.7772 436.303 26.4801 434.635 28.099 434.308C30.5668 433.812 29.6937 436.202 30.4516 437.234C31.737 438.97 32.1312 440.571 30.5244 442.296C29.6634 443.221 28.3962 444.444 30.2758 445.256C31.8644 445.944 32.2949 444.219 33.0952 443.277C34.1199 442.077 33.2529 438.57 37.1759 440.492C38.243 441.017 39.4254 438.299 38.7705 437.803C34.793 434.753 36.1754 430.164 36.3694 426.973C36.7878 420.117 35.1204 413.6 34.7748 406.925C34.7384 406.203 35.1264 405.29 35.6479 404.737C39.9104 400.182 40.3712 395.7 35.4781 391.714C31.64 388.591 30.0696 384.503 27.2017 380.889C27.8868 380.748 28.3416 380.506 28.6265 380.619C31.0579 381.605 32.2706 385.755 35.7995 383.629C39.5224 381.385 37.9944 378.358 36.3573 375.392C35.4175 373.69 39.5527 364.489 40.9775 364.41C46.7619 364.1 50.9578 365.583 51.6369 371.829C52.322 378.172 56.918 382.53 61.5868 386.527C63.2057 387.914 66.4496 388.354 66.401 384.052C67.8138 388.607 74.2895 389.036 74.9867 393.958C75.1504 395.102 78.6854 395.452 75.9448 397.126C74.5562 397.972 72.9737 397.34 71.47 396.794C70.1543 396.309 70.0936 392.757 67.7471 395.17C66.0615 396.906 68.2564 398.513 69.3782 399.348C73.0768 402.099 73.5619 406.293 75.1505 410.178C84.7305 400.469 84.2394 395.018 75.0595 385.975C72.3371 383.291 68.6384 381.769 66.5041 378.764C64.0485 375.302 62.2901 371.497 62.751 366.321C65.819 370.606 73.3254 369.664 72.4826 376.582C76.1266 375.24 74.1742 372.602 75.1747 370.922C75.6961 370.042 75.8477 368.774 77.2544 368.83C78.5702 368.881 79.4433 370.121 79.2796 370.961C77.8244 378.211 87.4833 379.249 88.4776 385.337C88.7626 387.074 91.3698 387.485 92.4188 384.447C94.0438 379.728 97.4635 375.466 96.1174 369.715C93.304 369.63 92.1581 371.666 90.7029 373.363C89.9268 374.27 89.3932 375.742 87.6651 375.336C86.1311 374.975 85.5673 373.712 85.5369 372.461C85.3611 366.039 81.9474 362.645 75.3081 360.565C71.8823 359.494 67.8441 356.697 69.554 351.46C70.4877 348.596 67.0438 346.713 66.3162 344.187C64.667 338.476 66.5527 332.359 62.4114 326.67C60.3074 323.778 64.388 322.684 68.7718 324.815C65.249 317.847 63.2239 311.86 62.3811 305.562C63.5149 304.756 64.485 305.528 65.4552 305.889C66.8073 306.391 68.1413 306.628 69.0083 305.297C69.9542 303.854 68.693 302.743 67.6683 302.253C64.8125 300.888 64.0546 299.355 66.9104 296.457C69.6268 305.275 80.7893 302.484 85.167 309.148C86.9982 307.208 86.1918 306.306 84.6517 304.886C80.4074 300.962 77.2059 296.7 80.6559 290.628C82.196 287.921 78.2912 285.012 80.5468 281.692C82.9236 278.191 84.0696 274.441 90.1632 276.809C95.9476 279.053 97.1179 273.381 99.6402 270.534C105.455 273.15 99.6038 279.933 105.079 282.43C107.512 279.243 110.599 279.619 114.338 283.558C116.308 281.585 114.926 278.704 116.799 276.33C120.534 280.66 124.852 284.387 127.913 289.432C130.618 287.831 127.58 285.26 129.393 283.789C131.94 283.733 131.297 286.224 132.522 287.217C132.879 287.059 133.504 286.946 133.534 286.754C134.213 281.866 135.711 280.181 140.41 284.381C145.139 288.609 145.394 287.544 147.947 282.098C150.79 276.031 148.511 271.504 146.267 266.413C145.467 264.598 144.351 262.596 145.831 260.025C149.966 262.895 152.434 267.428 158 269.536C156.423 265.658 152.682 263.121 152.979 259.101C153.24 255.493 151.627 250.977 159.303 253.999C162.286 255.171 167.368 256.474 171.594 253.751C173.934 252.245 180.525 257.99 180.386 260.736C180.252 263.369 178.67 267.36 184.496 266.526C187.831 266.047 185.57 269.052 187.213 270.326C195.18 276.505 198.794 283.981 192.451 293.373C190.554 296.187 193.258 298.002 195.823 297.714C199.279 297.32 200.564 299.705 201.116 301.311C202.547 305.466 207.131 306.859 209.132 310.478C210.29 307.242 211.254 304.666 207.173 302.112C202.092 298.938 202.074 293.638 203.632 288.632C205.342 283.129 207.592 277.773 209.489 272.316C211.114 267.653 209.641 261.858 215.535 258.729C216.335 258.3 217.275 256.536 216.353 255.346C214.128 252.465 216.869 252.155 218.566 251.8C223.55 250.763 224.636 248.192 223.587 243.71C222.35 238.444 225.685 234.661 231.105 234.261C232.53 234.153 234.519 235.315 235.119 233.235C235.683 231.273 234.252 228.724 233.021 228.369C228.528 227.067 228.449 224.473 229.608 221.215C230.323 219.213 230.584 217.201 227.958 216.682C224.702 216.039 227.431 219.856 224.963 220.442C223.835 216.952 224.169 213.232 222.532 209.787C221.962 208.586 220.81 202.537 227.34 204.859C230.093 205.84 231.16 203.568 232.542 201.11C226.364 201.612 225.515 199.148 227.376 194.407C229.123 189.97 229.832 185.42 228.413 180.436C226.861 174.973 229.626 173.175 235.525 174.9C237.781 175.56 238.915 174.821 239.109 172.628C239.339 170.034 240.485 167.362 239.218 164.859C236.344 159.187 237.235 153.234 237.472 147.353C237.544 145.532 236.101 142.279 240.825 143.08C243.838 143.593 242.917 141.248 242.965 139.68C243.098 135.193 242.316 130.953 250.156 130.649C254.522 130.479 257.711 125.524 257.22 120.596C256.662 115.009 254.667 109.214 263.635 107.703C266.448 107.229 264.787 103.362 269.031 102.008C274.094 100.396 279.266 100.684 284.141 99.0711C289.131 97.4136 292.393 101.089 294.467 103.976C297.329 107.973 299.675 112.529 299.124 117.93C298.578 123.286 300.373 124.188 305.714 122.107C313.294 119.147 321.612 120.788 327.579 126.296C328.664 127.294 330.083 127.982 331.368 128.788C336.334 131.889 339.669 135.469 338.559 141.789C338.026 144.833 337.601 149.31 344.204 148.306C348.4 147.669 349.079 152.456 348.764 153.944C347.685 159.052 351.965 162.711 351.905 167.452C351.881 169.369 352.772 171.021 350.365 172.137C348.388 173.051 348.139 174.81 348.813 176.416C349.643 178.407 351.389 177.172 352.845 177.003C358.532 176.332 362.091 178.486 362.267 183.988C362.625 195.337 372.259 203.63 373.672 214.596C386.223 223.898 378.505 238.331 383.743 249.624C385.362 253.113 381.876 257.612 382.088 262.19C382.543 272.102 384.513 282.092 382.252 292.048C382.04 292.979 382.167 294.484 382.804 294.991C390.098 300.826 388.109 308.984 389.121 316.359C389.4 318.377 389.813 319.578 392.281 320.384C401.127 323.276 403.291 327.465 402.934 336.418C402.655 343.409 404.359 351.64 408.676 356.072C421.56 369.309 416.679 383.815 415.273 398.265C414.575 405.38 410.216 410.561 403.892 414.276C412.144 418.093 418.517 414.823 420.02 406.079C420.942 400.723 419.274 395.04 422.67 389.977C424.453 387.311 425.841 386.279 428.757 388.895C431.146 391.037 433.075 396.281 437.349 392.988C441.466 389.82 442.958 385.022 437.889 380.709C437.531 380.404 437.658 379.604 437.361 377.941C440.969 381.216 446.28 379.204 448.566 383.9C448.463 380.404 445.128 377.461 448.324 373.972C449.646 372.523 447.402 371.418 445.905 370.363C440.575 366.614 440.332 362.927 445.462 359.15C450.391 355.519 452.18 349.503 457.661 346.301C460.256 344.785 458.031 341.667 458.486 338.679C461.96 343.702 462.676 353.952 460.087 358.575C459.298 359.984 459.862 360.886 460.39 362.003C461.524 364.387 462.318 366.535 459.074 368.373C457.267 369.394 458.413 371.485 458.795 373.03C459.559 376.086 460.614 379.018 457.564 381.667C456.612 382.49 456.243 384.238 457.279 385.14C462.845 389.983 460.093 396.343 461.372 402.285C458.662 400.949 460.129 397.572 457.037 396.647C456.455 402.403 458.522 408.216 460.111 413.104C462.694 421.059 458.456 427.599 458.486 434.826C458.504 440.16 458.425 445.042 462.021 449.49C463.203 450.956 464.137 452.693 464.737 454.44C465.362 456.261 465.374 458.308 462.924 459.176C460.699 459.965 460.414 457.992 459.705 456.836C458.401 454.711 456.994 452.975 453.581 454.356C457.692 459.768 457.861 466.483 461.324 472.504C462.67 468.36 466.101 465.4 466.198 460.935C466.235 459.238 467.393 457.338 469.855 457C471.468 456.774 472.135 456.132 471.401 454.468C467.951 446.587 467.987 446.57 472.717 439.675C475.669 442.685 473.899 446.587 475.275 449.688C475.96 451.227 476.549 452.8 477.276 454.322C478.034 455.923 479.174 457.513 481.284 456.769C483.333 456.047 482.248 454.142 481.89 452.941C481.308 450.979 480.265 449.107 479.235 447.292C477.452 444.151 476.506 440.318 478.471 437.713C481.708 433.411 481.066 429.081 481.702 424.481C482.169 421.121 487.657 418.121 491.81 417.332C497.079 416.334 498.449 413.792 498.146 409.608C497.976 407.229 499.347 405.363 499.868 403.39C500.541 400.819 499.838 397.002 497.17 394.944C495.8 393.884 496.006 396.647 494.836 397.273C492.932 395.254 494.836 392.323 492.168 389.662C487.936 396.512 489.852 404.647 486.165 411.339C482.236 406.88 480.399 401.721 477.743 396.247C476.543 398.395 475.724 400.154 474.614 401.744C473.681 403.085 472.141 403.531 470.479 402.944C468.915 402.392 468.733 400.932 468.963 399.787C470.006 394.696 466.708 390.13 467.435 384.768C467.872 381.521 465.647 377.997 468.6 374.547C469.903 373.024 467.023 371.835 466.744 370.211C466.562 369.134 464.167 367.674 467.69 367.477C470.837 367.296 469.309 365.295 468.108 364.872C463.925 363.412 465.034 360.328 465.028 357.537C465.01 351.403 465.028 345.264 465.028 338.944C470.54 340.077 467.532 345.929 472.183 347.203C472.183 343.432 470.788 339.147 472.486 336.773C475.669 332.314 472.777 328.418 473.002 324.308C475.979 323.079 475.027 327.414 477.846 326.693C477.385 324.116 479.853 321.134 475.045 319.183C472.535 318.168 475.033 315.947 476.452 314.989C481.175 311.803 480.09 306.616 477.567 304.559C471.728 299.795 467.89 292.815 460.147 290.154C458.583 289.618 458.237 288.733 457.886 287.47C457.298 285.345 456.728 284.133 453.362 284.933C449.173 285.926 442.733 278.484 442.4 272.806C442.248 270.236 442.497 267.845 439.429 266.509C438.738 266.21 437.804 265.009 437.986 264.575C440.284 258.966 435.282 254.912 434.675 250.03C434.463 248.31 432.42 245.683 435.797 243.98C439.465 242.131 438.804 246.872 441.309 246.726C442.521 244.877 443.085 242.813 441.945 240.93C440.83 239.092 440.842 238.066 442.982 237.096C443.976 236.645 444.759 234.729 443.964 234.616C438.204 233.776 439.35 229.468 438.616 226.086C438.301 224.642 434.451 225.02 436.337 222.562C437.507 221.04 439.199 222.28 440.678 222.472C443.6 222.85 445.892 221.181 447.996 219.828C450.094 218.48 449.87 215.594 448.154 214.455C446.759 213.53 444.213 210.711 442.109 213.722C440.278 216.344 437.895 216.738 436.252 214.601C434.736 212.628 434.53 210.035 438.847 209.364C441.084 209.02 440.193 206.455 439.32 205.147C435.47 199.385 438.192 193.313 438.119 187.388C438.101 185.86 439.69 185.578 440.89 185.048C443.782 183.774 444.007 181.677 442.582 179.365C438.137 172.149 442.242 165.169 443.315 158.144C443.503 156.91 445.25 155.472 444.625 154.175C441.836 148.391 445.807 142.403 443.073 136.337C445.717 137.177 446.25 141.129 448.839 139.196C450.98 137.594 449.094 135.249 447.651 133.744C443.128 129.036 444.88 126.595 450.731 124.999C452.72 124.458 455.303 123.551 451.653 120.991C450.022 119.847 448.439 116.03 449.233 114.959C453.138 109.682 448.821 108.255 445.571 105.414C438.992 99.6687 440.933 90.9245 449.682 84.1027C455 79.9589 456.691 73.8193 454.345 67.55C452.495 62.6057 450.616 57.6782 456.606 53.743C458.832 52.2828 457.473 49.8134 457.692 47.8515C458.25 42.6929 460.42 39.0903 466.417 38.4419C470.685 37.9796 474.141 34.2361 479.028 35.9218C479.98 36.2488 482.539 35.2509 482.576 34.7604C483.006 28.2036 490.737 26.5461 492.853 21.224L492.647 21.4721C493.459 20.6828 495.812 19.7243 494.842 21.286C491.78 26.2135 494.102 28.5137 499.377 30.7012C495.448 31.3608 493.459 33.0296 491.731 35.0818C495.363 38.2051 498.407 42.0783 502.166 34.7999C503.348 32.5109 507.805 31.4397 509.521 28.4122C510.024 27.5215 511.103 26.8111 512.346 27.4538C513.862 28.2375 514.384 29.6525 514.475 31.1353C514.59 32.9789 513.65 32.9225 511.952 32.5109C510.212 32.0937 508.787 33.0578 509.224 34.9859C509.812 37.5906 511.91 40.4603 514.19 40.2799C522.054 39.6541 520.665 42.5293 518.749 47.4117C517.476 50.6535 515.184 53.5288 514.729 57.1426C518.149 58.8621 519.956 55.1017 522.921 54.724C523.454 57.2666 522.521 59.6176 521.047 61.1737C516.906 65.5373 519.247 68.2717 523.212 70.7805C525.771 72.3986 528.214 81.6108 526.535 83.8208C525.498 85.1852 524.2 85.6926 522.496 84.8751C520.586 83.9618 518.992 84.3226 517.943 86.0759C516.585 88.3536 518.47 90.4565 518.749 92.6158C518.955 94.1775 521.902 93.5179 522.878 93.0838C527.711 90.9527 527.08 94.0309 526.941 96.5285C526.844 98.2875 525.716 99.7871 527.408 101.721C533.113 108.233 532.022 117.496 525.067 123.105C523.03 124.746 519.253 125.451 525.146 127.469C527.226 128.179 526.413 132.391 522.684 132.582C518.725 132.785 518.913 135.046 518.822 137.487C518.737 139.714 520.023 140.385 521.538 138.823C524.722 135.531 525.819 137.363 526.741 140.289C527.311 142.105 527.705 143.965 530.464 143.954C532.931 143.943 533.247 142.573 533.489 140.729C533.689 139.229 535.023 138.846 536.545 139.269C545.707 141.789 549.715 148.91 547.968 158.657C547.544 161.042 546.853 163.709 549.891 165.964C554.966 169.73 551.946 175.537 553.171 180.312C553.523 181.677 550.461 186.621 556.439 184.112C556.536 184.073 556.936 184.349 556.93 184.462C556.457 191.092 563.509 193.561 565.813 198.477C567.468 202.012 562.502 204.752 562.09 208.434C561.841 210.666 558.646 213.079 564.643 213.57C568.869 213.914 568.832 219.134 568.002 222.263C567.45 224.361 567.153 227.315 563.127 228.538C560.768 229.254 558.494 235.557 560.416 237.091C563.163 239.284 562.023 245.311 568.311 244.189C570.888 243.732 576.478 251.901 576.139 255.493C575.684 260.274 575.945 264.863 576.86 269.649C577.794 274.537 574.562 279.172 573.168 283.986C575.223 285.475 578.285 280.558 579.219 284.15C580.134 287.685 581.517 292.793 577.109 294.929C569.075 298.825 572.47 302.033 575.296 307.643C581.25 319.448 583.39 327.505 571.585 336.271C567.771 339.102 562.514 344.593 555.39 341.238C553.826 340.505 552.577 341.526 552.552 342.89C552.516 345.472 551.837 348.41 554.681 350.208C555.73 350.873 557.639 351.646 558.397 351.217C563.703 348.207 563.873 350.349 562.605 354.493C562.272 355.592 562.999 356.506 564.315 356.72C565.467 356.912 565.855 356.032 566.219 355.305C567.238 353.286 568.105 348.996 569.16 349.571C574.174 352.311 579.182 346.769 584.84 350.456C580.807 351.465 579.898 353.726 580.801 356.534C583.057 363.525 576.23 370.792 581.608 377.681C581.966 378.138 581.681 379.209 582.075 379.435C591.885 385.101 589.029 393.163 588.296 401.614C588.053 404.421 588.538 408.892 589.769 412.41C590.915 415.68 590.327 418.634 589.496 422.017C587.98 428.157 586.865 434.229 582.948 439.585C582.196 440.616 582.39 442.505 583.766 443.61C584.876 444.501 585.731 445.662 585.222 446.863C581.032 456.718 586.828 468.422 578.321 477.623C576.181 479.94 575.375 483.757 575.072 486.976C574.774 490.139 572.264 493.618 578.4 496.296C582.899 498.258 580.098 504.284 578.673 508.716C575.993 517.088 571.203 525.071 574.211 534.548C575.344 538.123 576.387 539.154 580.28 539.025C606.886 538.156 587.568 543.405 582.099 544.087C576.424 544.798 575.369 547.143 576.709 551.62C578.097 556.248 579.534 560.86 571.712 561.649C570.457 561.773 569.366 563.155 570.573 564.519C573.689 568.048 573.744 571.515 569.487 573.308C565.758 574.881 560.568 583.366 560.477 585.289C560.15 592.003 552.225 597.314 556.372 604.79C556.56 605.134 556.754 605.76 556.572 605.951C548.053 615.062 561.017 610.152 561.387 614.087C560.798 614.448 558.567 614.154 557.652 616.443C556.597 619.093 554.183 618.507 553.165 615.897C551.807 612.401 549.8 613.027 547.708 615.04C546.483 616.212 545.658 617.751 544.67 619.133C543.166 621.236 542.051 622.51 546.216 623.716C552.922 625.656 555.487 632.297 560.247 636.582C562.787 635.432 561.872 633.329 562.011 631.632C562.108 630.369 561.805 628.976 563.636 628.768C565.528 628.553 565.57 630.025 565.91 631.243C566.443 633.199 566.922 632.782 569.251 634.868C570.785 636.243 569.99 639.367 568.741 640.816C566.189 643.764 565.619 646.826 565.322 650.462C564.818 656.562 555.821 663.531 549.393 665.363C545.04 666.603 543.948 664.134 541.171 662.234C540.614 665.098 537.721 667.189 542.675 670.488C546.883 673.284 546.901 679.085 545.198 684.289C544.288 680.151 542.287 677.129 537.394 676.137C536.673 679.294 541.444 678.228 540.68 681.256C536.557 680.19 531.306 676.965 530.076 684.413C530.015 684.774 528.008 685.253 527.074 685.039C516.433 682.586 505.186 685.259 494.72 681.69C492.98 681.098 491.646 681.746 490.209 682.107C483.358 683.827 482.836 683.5 483.618 677.095C483.843 675.252 484.558 673.464 484.94 671.632C485.638 668.278 487.905 667.652 491.295 667.624C495.927 667.59 493.702 671.057 494.72 674.513C496.473 669.653 498.934 668.232 502.803 668.294C506.786 668.356 508.339 669.721 509.679 673.368C511.425 678.127 522.339 678.172 524.94 673.425C526.577 670.443 528.529 669.636 531.628 669.45C539.116 668.999 539.734 667.996 537.212 661.027C536.933 660.261 536.77 659.454 536.339 657.876C529.451 665.6 525.425 656.596 519.816 655.965C520.865 649.38 519.41 642.124 526.316 636.903C521.266 637.816 518.464 633.227 513.765 634.016C512.28 634.265 510.709 633.16 509.551 635.116C508.502 636.886 509.454 637.585 510.812 638.639C514.808 641.752 514.663 645.275 511.461 648.878C509.576 650.998 508.454 653.45 507.544 656.049C505.804 661.01 502.688 662.161 497.94 659.516C495.478 658.146 494.314 659.866 492.768 660.926C489.761 662.995 487.76 662.082 486.953 658.919C485.668 653.879 484.116 648.838 483.57 643.719C483.127 639.581 480.684 636.937 478.028 634.157C477.246 633.334 476.209 632.342 475.421 633.667C472.941 637.828 471.292 633.971 469.982 633.002C467.933 631.491 468.218 629.168 470.073 627.522C472.001 625.813 472.88 623.293 475.433 622.042C476.973 621.286 476.627 619.798 475.409 618.958C473.402 617.565 473.814 619.685 473.056 620.39C469.679 623.547 467.15 620.362 464.549 618.952C463.81 618.552 463.785 617.052 462.536 616.72C460.081 617.684 463.5 621.675 459.468 621.833C456.018 621.968 454.927 619.42 453.878 617.227C452.52 614.374 450.137 612.677 447.178 612.164C446.499 612.046 444.558 614.972 444.322 616.635C443.982 619.037 444.28 619.319 442.497 619.516C440.363 619.753 438.459 619.42 437.192 617.622C436.579 616.753 436.161 615.756 435.476 614.949C433.287 612.362 431.516 608.573 428.654 607.592C424.835 606.29 425.041 612.001 421.542 613.416C417.522 615.04 414.284 618.36 411.695 622.019C410.616 623.547 409.919 624.77 410.386 626.518C410.956 628.661 412.865 629.016 414.594 628.7C418.395 628.018 422.482 632.06 426.138 627.883C427.181 626.687 427.866 628.317 428.363 629.207C429.224 630.763 430.055 632.303 427.751 633.43C425.993 634.293 423.998 634.913 423.755 637.078C430.51 639.372 437.373 641.278 442.885 645.833C438.786 644.875 435.367 646.848 432.359 648.275C429.243 649.757 426.55 652.796 431.516 655.824C432.82 656.619 434.208 657.368 435.257 658.406C436.118 659.257 437.07 660.503 436.215 661.743C435.476 662.82 434.36 663.181 432.759 662.634C426.138 660.373 419.299 659.928 412.277 660.52C406.748 660.988 402.625 655.006 396.561 657.267C396.452 657.306 396.088 657.07 396.058 656.929C393.657 645.044 386.605 654.324 382.149 654.803C378.699 655.175 376.334 655.316 372.981 653.907C368.124 651.866 362.497 649.086 357.222 653.8C356.089 654.809 354.627 655.914 353.057 655.062C351.45 654.194 350.607 652.311 350.983 650.75C352.899 642.693 350.11 633.842 357.35 626.586C361.63 622.295 359.636 615.648 360.454 610.022C358.041 614.808 358.696 620.441 355.197 625.092C351.583 617.447 353.881 606.284 360.066 602.011C362.346 600.432 362.352 598.803 361.94 596.632C361.515 594.383 360.054 594.71 358.465 595.166C355.021 596.158 355.773 593.65 356.119 592.359C357.75 586.185 353.748 579.487 358.205 573.556C358.665 572.942 358.38 571.234 357.762 570.642C354.997 567.997 349.692 570.816 347.497 566.667C345.278 568.804 342.028 569.638 340.967 573.291C339.857 577.108 336.995 580.485 334.473 584.793C331.671 580.294 332.745 577.007 335.267 573.945C336.783 572.107 338.948 568.494 337.559 568.161C328.3 565.979 334.188 553.125 323.983 552.093C323.735 552.065 323.304 551.377 323.377 551.09C325.366 543.45 318.544 536.775 320.624 529.096C321.164 527.101 318.969 525.122 317.774 526.334C314.367 529.796 311.426 526.114 306.842 526.204C311.353 528.905 314.512 531.07 316.356 534.407C316.883 535.354 318.896 536.099 316.956 537.356C315.604 538.235 314.458 537.536 313.469 536.516C312.123 535.123 310.741 533.759 309.346 532.411C308.291 531.391 307.176 529.818 305.49 531.098C303.889 532.321 304.975 533.793 305.993 534.92C311.044 540.507 315.998 546.196 318.702 553.142C321.558 560.477 322.261 568.358 324.365 572.587C325.317 567.552 314.537 568.33 312.42 562.033C310.171 563.38 312.99 565.128 311.378 566.718C307.727 562.828 302.131 560.138 304.653 553.379C305.708 550.554 303.786 550.565 301.306 550.887C296.195 551.558 293.06 554.072 290.877 559.321C296.001 557.579 299.627 557.787 299.827 563.205C299.9 565.156 301.234 567.625 298.299 568.623C295.843 569.458 293.515 568.037 292.709 566.16C288.234 555.668 275.283 557.37 267.782 551.219C267.449 550.949 263.198 553.734 261.998 555.73C260.476 558.267 262.113 560.753 265.187 561.458C271.408 562.884 276.532 566.25 281.91 569.17C285.087 570.901 288.561 572.823 283.038 577.097C290.805 574.323 294.764 578.738 298.99 582.368C303.095 585.892 308.655 588.525 308.467 595.296C306.436 592.105 303.156 593.131 300.476 592.359C295.692 590.983 291.441 588.006 286.948 585.74C281.819 583.158 276.623 580.874 270.462 581.872C269.049 582.103 267.667 582.143 267.291 583.558C266.794 585.418 268.364 586.027 269.862 586.602C273.567 588.017 278.235 587.555 281.103 590.357C289.507 598.566 297.571 607.073 305.417 615.823C300.294 614.307 298.475 608.968 293.309 606.256C293.03 612.305 295.946 616.911 297.007 621.844C298.766 630.019 300.591 638.132 300.5 646.527C300.482 648.404 300.87 650.31 299.797 652.012C298.863 653.49 299.421 656.173 296.535 656.117C293.254 656.055 294.34 653.506 294.212 651.871C293.788 646.425 290.035 646.386 287.161 649.171C277.866 658.18 267.036 655.671 256.147 653.693C253.006 653.123 249.174 655.846 246.652 651.59C245.93 650.377 245.566 652.695 244.875 653.247C241.601 655.841 237.617 655.485 234.1 654.628C230.608 653.777 232.263 650.44 232.166 648.122C232.075 645.839 232.36 643.55 232.366 641.261C232.391 635.15 230.778 634.242 224.102 635.127C217.584 635.99 213.17 631.773 208.556 628.418C207.513 627.657 207.434 625.159 205.263 626.67C203.299 628.04 204.402 629.625 205.53 631.011C206.203 631.84 206.749 633.098 207.646 633.385C215.122 635.787 213.831 642.349 215.456 647.457C216.577 650.981 215.759 653.698 210.89 653.676C208.441 653.664 205.985 653.721 203.535 653.867C197.066 654.256 196.296 649.881 197.436 646.07C198.272 643.279 197.06 642.716 195.374 642.208C192.397 641.323 193.015 643.657 192.84 645.146C192.488 648.235 190.802 649.188 187.395 649.053C183.648 648.906 181.683 650.276 184.897 653.89C186.364 655.542 187.049 658.287 183.896 658.744C178.112 659.578 181.525 662.544 182.211 664.399C183.478 667.866 185.661 671.096 190.451 669.213C193.458 668.029 194.04 665.521 192.439 662.612C194.568 664.128 198.939 663.553 197.308 668.294C196.763 669.873 199.194 669.495 200.388 669.529C205.288 669.687 210.205 670.025 215.086 669.777C220.531 669.501 220.537 664.951 221.446 661.484C221.992 659.404 220.634 657.07 222.01 654.555C225.26 660.204 224.411 666.276 225.727 671.925C226.358 674.643 223.799 674.152 222.131 674.107C215.892 673.944 209.605 674.107 203.438 673.363C198.254 672.737 193.264 672.669 188.134 673.526C182.835 674.412 179.058 673.132 178.439 667.223C177.845 661.574 174.947 657.148 169.029 654.764C168.162 654.414 167.537 653.788 166.846 654.741C162.232 661.095 161.238 655.265 159.558 652.757C158.436 651.077 158.897 647.919 156.472 647.677C153.755 647.412 153.658 650.361 152.967 652.249C152.252 654.2 150.475 655.102 148.747 656.06L148.905 656.207C148.674 654.155 148.474 652.103 148.207 650.056C147.759 646.628 146.522 644.678 142.09 646.166C138.439 647.389 134.65 645.794 130.957 645.354C128.599 645.072 127.089 643.375 127.677 640.855C128.017 639.423 127.774 638.346 126.058 638.093C124.858 637.912 123.536 638.459 123.354 639.463C122.566 643.888 118.606 644.249 115.308 644.401C109.05 644.7 102.551 645.1 96.5358 643.854C91.5153 642.811 87.9804 638.831 87.9441 633.323C93.9407 633.599 97.4089 630.239 95.6566 624.596C94.6743 621.416 96.4145 620.508 98.2578 620.085C100.713 619.522 100.647 622.07 101.011 623.491C101.356 624.844 100.962 626.349 101.029 627.781C101.217 631.812 102.581 634.276 107.862 633.453C112.84 632.675 114.271 629.072 116.272 625.808C116.805 624.94 118.958 624.584 117.545 622.955C116.175 624.336 114.732 619.234 113.21 623.057C112.634 624.5 110.876 623.637 110.803 622.724C110.196 615.248 102.648 615.947 98.0577 613.912C89.5326 610.135 90.0662 610.851 88.1078 619.77C87.0467 624.601 91.8549 629.004 88.0774 633.464C87.1983 634.637 86.5737 636.142 85.3975 636.92C80.6317 640.043 76.5753 638.07 75.3323 632.19C76.3025 629.422 82.0202 630.002 81.0682 627.183C80.0557 624.184 75.4051 624.9 72.3249 624.043C71.9066 623.925 71.4639 623.744 71.1547 623.468C70.318 622.718 69.6086 621.788 70.7485 620.869C72.9131 619.121 74.9625 617.03 77.497 615.987C79.1644 615.299 82.8569 616.956 82.0566 613.732C81.335 610.828 80.7651 607.034 76.6238 605.771C74.6714 605.173 73.004 605.478 72.0642 607.214C70.9 609.374 69.7784 611.595 69.0144 613.901C68.0806 616.691 67.8562 619.539 63.2178 619.076C61.0229 618.856 60.0891 621.54 61.7202 622.622C66.395 625.729 69.9966 630.194 75.5506 632.173L75.5688 632.195ZM324.717 424.881C326.578 426.15 324.359 429.177 327.354 428.878C329.501 428.664 330.483 429.313 330.568 430.97C330.659 432.695 329.604 434.759 327.773 434.528C324.947 434.178 324.226 435.525 325.099 437.104C325.936 438.626 328.416 440.148 330.034 437.983C332.593 434.55 341.197 433.039 334.794 426.291C334.127 425.586 334.121 423.511 334.752 422.711C339.214 417.045 335.958 415.393 330.204 415.415C330.435 413.397 334.424 414.243 332.642 412.264C329.962 409.293 328.998 403.192 327.354 402.894C319.678 401.495 326.869 397.228 324.929 395.13C324.784 394.972 324.693 394.736 324.511 394.657C317.884 391.697 320.333 385.918 321.855 382.372C323.898 377.619 320.224 377.185 318.168 376.486C314.312 375.172 313.961 378.132 313.87 380.833C313.815 382.372 314.397 384.249 311.396 385.056C312.166 379.683 310.583 375.015 307.345 370.645C307.279 374.113 305.229 377.873 304.059 379.818C299.954 386.623 301.04 393.693 299.851 400.588C299.542 402.381 298.317 403.474 296.886 403.356C294.873 403.193 294.716 401.078 295.273 399.877C298.93 392.075 294.637 384.785 293.861 377.281C293.691 375.629 293.624 373.109 291.617 373.43C289.495 373.769 286.421 373.622 285.257 375.967C284.341 377.8 286.166 379.237 287.555 380.027C289.926 381.38 291.326 382.75 290.398 385.501C288.871 390.034 289.004 394.386 292.193 398.417C293.806 400.458 292.624 401.659 290.562 402.832C288.003 404.286 287.749 402.555 286.773 401.146C285.263 398.958 285.057 396.467 284.208 394.133C283.189 391.342 284.184 387.869 279.848 384.362C282.892 403.114 287.84 419.689 294.218 435.993C297.699 434.849 295.546 430.84 299.512 430.649C301.5 435.881 302.98 441.276 303.459 447.495C311.875 440.549 315.992 430.925 324.723 424.876L324.717 424.881ZM302.671 261.582C300.73 265.545 303.332 268.274 303.471 271.171C303.532 272.474 305.241 273.787 303.55 275.112C298.378 279.172 300.621 282.413 304.744 285.627C308.685 288.699 304.969 296.271 311.299 297.235C316.21 297.985 316.046 302.089 315.216 302.788C310.698 306.577 318.35 314.447 309.68 316.443C309.631 316.454 309.904 317.441 309.928 317.971C310.262 324.06 314.7 330.617 307.594 335.899C307.23 336.17 307.17 337.461 307.248 337.484C311.578 338.803 308.552 341.802 309.777 344.412C306.594 342.766 304.817 338.166 302.489 340.06C300.1 342 297.571 345.45 297.802 349.188C297.899 350.761 298.687 353.117 300.652 352.903C303.592 352.587 307.546 356.055 309.54 350.755C310.692 347.694 317.993 348.071 315.513 342.417C316.343 342.343 317.204 342.107 318.011 342.219C323.632 343.009 322.922 339.981 322.346 336.514C321.631 332.201 318.023 328.908 317.841 324.421C317.793 323.271 317.508 322.301 318.896 322.059C319.648 321.929 320.836 322.177 321.291 322.679C323.019 324.573 323.304 329.179 326.663 327.798C330.629 326.168 324.565 324.911 325.044 322.047C325.996 316.347 330.095 309.965 323.735 304.542C323.328 304.198 323.644 302.896 323.917 302.129C326.457 295.014 322.285 286.506 329.161 280.271C329.507 279.961 329.549 278.907 329.252 278.506C324.371 271.837 326.76 265.754 330.228 259.287C332.466 255.121 330.107 250.999 325.845 249.082C321.085 246.94 320.103 251.349 318.423 254.078C318.102 254.602 318.084 255.453 317.635 255.718C312.057 258.937 312.166 258.915 312.275 264.203C312.323 266.408 313.936 268.956 311.184 271.267C308.346 268.042 305.751 265.094 302.658 261.582H302.671ZM189.729 369.039C191.014 364.308 187.407 359.646 187.783 355.959C188.589 348.077 182.556 344.181 179.482 338.696C177.912 335.882 173.886 336.57 170.872 337.653C168.004 338.684 168.138 340.9 168.58 343.392C169.726 349.859 175.517 355.88 170.909 362.955C170.757 363.192 171.06 364.026 171.248 364.055C176.881 364.979 178.542 372.122 184.739 371.745C187.686 371.564 188.298 372.602 188.086 374.727C187.613 379.514 190.942 384.779 185.952 389.019C182.671 391.804 184.509 394.302 187.516 394.978C191.669 395.914 189.359 398.13 189.214 399.736C189.02 401.856 188.134 402.64 185.169 401.963C179.961 400.78 174.48 400.441 169.09 400.171C162.887 399.861 167.555 405.059 165.439 406.913C167.562 407.472 167.756 411.007 171.442 409.546C176.153 407.686 177.269 410.46 176.529 414.265C176.026 416.864 173.661 419.644 176.602 421.961C179.003 423.85 179.07 426.212 179.397 428.664C179.694 430.857 178.967 433.349 181.913 435.311C182.259 431.122 188.159 431.275 188.85 426.477C185.279 428.27 184.139 427.125 182.853 423.996C179.591 416.03 186.127 411.272 188.335 405.115C189.032 405.656 189.311 406.107 189.177 406.4C187.874 409.355 187.534 412.078 191.057 413.978C192.239 414.615 194.628 415.128 194.659 414.502C194.822 411.548 198.606 409.653 196.787 405.989C195.107 402.606 194.992 398.834 195.138 394.826C195.489 384.909 191.627 375.003 195.429 364.793C192.549 365.639 193.537 369.236 189.717 369.027L189.729 369.039ZM165.47 437.797C163.426 441.513 168.301 440.566 167.161 443.306C163.851 451.238 167.901 459.097 167.992 467.024C168.016 469.161 175.911 471.371 177.002 469.82C177.778 468.721 176.105 465.891 179.306 466.573C181.847 467.114 180.834 469.702 181.501 471.337C181.968 472.476 181.853 473.868 182.483 474.889C183.187 476.033 183.635 477.882 185.685 477.561C187.182 477.324 187.758 476.028 187.971 474.782C188.723 470.333 193.021 466.381 188.783 461.155C187.395 459.441 186.188 456.284 185.582 453.685C182.374 439.962 181.44 439.094 167.016 438.677C166.197 438.654 165.294 438.085 165.464 437.797H165.47ZM84.5243 404.235C84.3667 409.219 74.7867 413.504 84.3607 419.627C80.2497 418.217 77.7031 418.465 76.1388 421.329C77.2847 423.759 79.4797 420.884 80.947 422.395C78.364 425.986 77.6303 429.561 80.1769 433.738C82.3719 437.341 87.3923 438.384 88.7687 442.967C88.8596 439.043 94.6804 438.677 93.8922 434.494C93.2858 431.286 93.5708 428.732 97.7424 427.238C100.495 426.251 99.9312 423.624 98.2396 421.42C96.2993 418.894 94.5955 416.205 92.825 413.572C92.2611 412.737 91.2122 411.243 92.4067 410.939C97.7363 409.58 96.6995 404.044 100.095 401.422C103.272 398.97 100.877 396.072 100.131 393.405C99.8524 392.413 99.04 391.381 97.6939 392.03C95.3049 393.191 94.6622 395.525 93.8861 397.673C93.6133 398.423 93.9346 399.348 93.7224 400.126C92.146 405.797 89.3265 407.037 84.5243 404.241V404.235ZM119.649 414.141C117.97 409.078 122.329 406.113 119.419 402.149C115.047 396.196 116.818 389.617 118.521 383.409C119.043 381.521 120.686 378.127 124.682 379.48C126.774 380.19 127.046 378.95 126.755 377.585C126.276 375.364 126.022 372.94 124.839 371.046C122.214 366.823 126.743 362.549 124.318 358.473C126.495 358.067 128.095 357.216 125.567 355.434C124.106 354.403 122.711 354.076 120.559 355.897C116.017 359.73 115.174 363.705 117.436 368.633C118.8 371.598 116.017 373.024 114.877 375.105C113.161 378.239 111.088 372.015 109.523 375.381C107.25 374.242 108.414 372.139 108.323 370.623C108.147 367.719 108.08 364.85 107.231 362.019C106.674 360.159 105.861 358.473 103.957 357.526C102.969 357.036 102.381 357.554 102.078 358.507C101.35 360.79 101.265 362.961 102.799 365.041C103.533 366.039 106.468 366.101 105.491 367.06C100.471 371.953 104.843 377.422 103.836 382.44C102.757 387.807 105.049 391.725 108.675 395.683C112.046 390.908 107.31 385.89 110.718 379.75C110.936 383.77 110.973 385.997 111.215 388.196C111.324 389.171 111.536 390.524 112.252 390.992C115.029 392.83 115.047 392.706 114.229 395.142C112.028 401.682 112.743 407.652 119.661 414.13L119.649 414.141ZM497 223.312C499.407 223.56 498.413 220.048 500.238 221.034C502.027 221.998 503.591 223.955 504.343 225.793C505.264 228.059 502.457 229.141 500.996 229.75C499.044 230.557 496.903 231.081 495.145 232.276C493.884 233.133 492.319 234.757 494.963 235.253C498.019 235.834 498.292 237.88 499.62 239.707C501.42 242.193 503.949 245.13 507.563 244.567C511.073 244.02 511.261 240.688 512.08 237.773C513.947 231.126 510.333 224.642 511.989 218.097C512.231 217.139 511.461 216.721 510.582 216.315C503.403 212.972 498.54 215.419 497.006 223.318L497 223.312ZM506.041 196.933C512.14 191.577 512.122 191.385 511.546 183.334C511.419 181.586 511.825 179.692 512.492 178.04C515.117 171.495 517.84 164.977 520.75 158.539C521.635 156.583 520.653 156.024 519.198 155.184C517.409 154.153 517.458 155.573 516.518 156.284C513.565 158.522 513.68 163.652 512.31 164.182C504.919 167.069 503.809 171.128 507.296 177.195C507.387 177.352 507.374 177.646 507.271 177.803C503.439 183.971 508.775 190.629 506.035 196.933H506.041ZM392.99 647.423C394.524 647.282 394.645 646.07 395.167 645.258C397.295 641.971 399.041 638.121 403.964 642.733C405.517 644.187 406.754 642.755 407.336 641.227C408.973 636.926 405.577 632.466 407.984 627.967C408.627 626.766 405.971 626.918 404.365 627.172C399.338 627.967 395.488 631.665 390.11 631.79C388.552 631.823 386.411 633.678 386.338 635.663C386.26 637.675 388.63 637.145 389.946 637.613C392.656 638.578 393.924 639.981 392.802 642.823C392.232 644.272 392.141 645.918 392.984 647.412L392.99 647.423ZM548.169 314.335C549.545 319.555 554.171 321.529 558.767 322.577C562.575 323.445 563.551 319.234 563.6 317.165C563.685 313.331 565.825 310.507 567.201 307.299C567.735 306.047 569.524 304.97 567.644 303.578C566.407 302.664 565.285 302.867 564.255 304.141C563.8 304.7 562.229 305.275 562.078 305.117C558.464 301.204 555.942 304.102 554.687 306.724C553.153 309.926 549.127 311.014 548.169 314.335ZM189.753 310.134C188.947 310.45 188.189 310.524 187.874 310.913C187.043 311.922 187.613 312.936 188.407 313.686C190.002 315.203 192.736 315.981 190.917 319.11C188.098 323.964 191.13 327.33 194.853 330.38C195.829 331.181 196.617 332.55 198.163 331.665C199.285 331.023 200.437 330.008 200.085 328.627C198.636 322.882 199.576 317.672 203.147 312.688C204.596 310.664 202.899 308.364 201.213 307.225C199.182 305.861 198.545 308.787 197.078 309.278C194.707 310.072 192.882 314.949 189.759 310.134H189.753ZM257.129 218.542C261.228 212.211 256.262 209.911 255.274 206.545C252.666 197.665 247.379 190.472 239.509 184.918C238.83 184.439 237.914 182.522 237.108 184.236C236.138 186.3 232.372 185.42 232.694 188.143C232.845 189.429 234.774 189.445 235.738 190.111C239.157 192.484 243.814 194.023 243.941 199.052C244.002 201.55 245.96 202.971 247.367 204.831C250.55 209.043 258.026 209.984 257.135 218.537L257.129 218.542ZM511.304 288.581C511.304 286.591 511.958 284.567 511.194 283.84C506.974 279.814 507.556 275.806 509.679 271.031C511.091 267.845 506.659 266.661 504.804 265.336C503.082 264.107 502.397 267.422 501.554 268.922C500.832 270.196 501.105 271.56 501.129 272.998C501.22 278.529 501.893 284.488 499.935 289.466C498.613 292.826 499.51 293.824 500.814 295.6C504.798 293.537 500.662 283.58 511.304 288.581ZM530.852 264.93C528.851 272.508 536.381 269.288 538.498 269.807C542.087 270.687 540.135 266.875 540.565 264.925C541.578 260.33 541.596 255.515 544.033 251.191C544.882 249.686 546.695 247.735 544.803 246.162C542.451 244.206 539.856 246.551 539.158 247.786C536.03 253.328 533.556 259.185 530.846 264.936L530.852 264.93ZM499.068 154.091C501.639 154.435 500.165 160.484 503.676 156.972C505.974 154.671 506.72 149.203 502.669 147.664C497.522 145.713 496.206 143.531 497.625 138.885C497.94 137.859 497.394 135.7 495.769 135.39C494.732 135.193 493.277 136.179 492.24 136.918C490.658 138.051 491.78 138.959 492.756 139.923C494.247 141.394 495.042 143.892 494.017 145.07C490.288 149.377 493.55 154.649 490.997 159.159C493.671 156.893 498.88 158.894 499.068 154.085V154.091ZM127.071 411.83C124.67 411.255 120.777 406.609 121.577 413.622C121.686 414.581 121.426 415.167 120.559 415.641C116.624 417.806 118.928 419.277 121.492 418.871C126.258 418.11 128.465 420.134 130.472 423.551C131.2 424.791 132.582 426.702 134.674 425.558C136.287 424.678 135.778 422.795 135.196 421.549C131.77 414.181 132.722 405.047 124.748 399.376C123.069 403.948 129.472 406.97 127.065 411.824L127.071 411.83ZM94.9411 465.581C96.9845 465.051 100.659 465.451 98.8944 462.841C95.5535 457.896 94.7289 451.114 87.6651 447.94C86.0947 453.07 90.909 456.712 90.4058 460.665C89.2113 470.046 98.4639 470.706 102.823 475.396C102.69 470.345 102.011 465.699 94.9411 465.586V465.581ZM105.691 507.836C106.88 511.411 107.365 515.594 110.621 518.785C112.385 520.516 114.823 522.664 116.624 520.538C117.709 519.258 121.007 515.673 116.29 513.474C113.913 512.369 113.695 510.244 114.55 508.107C115.271 506.303 117.745 504.47 115.084 502.706C113.368 501.567 111.009 500.716 108.79 501.691C106.261 502.802 105.867 505.141 105.691 507.842V507.836ZM185.642 509.358C195.295 501.437 192.949 490.866 194.046 481.271C194.21 479.844 193.519 477.685 191.257 477.606C188.559 477.51 189.25 479.794 188.838 481.254C187.067 487.523 188.929 494.057 186.952 500.451C186.188 502.937 183.272 505.367 185.642 509.364V509.358ZM489.53 13.3423C486.917 5.40425 484.285 -1.49081 472.559 0.730494C470.406 1.13642 467.545 -1.51337 465.677 2.01027C463.864 5.4268 465.289 8.05403 468.072 10.1739C469.509 11.2676 472.474 11.1887 471.85 13.7426C471.316 15.9244 468.788 16.5728 466.847 17.5425C464.428 18.749 462.118 17.7455 459.711 17.379C458.862 17.2493 457.395 16.0485 456.485 17.9259C453.344 24.4037 458.825 32.2685 466.659 31.716C465.174 30.0528 461.851 30.5884 461.821 27.3636C467.296 28.2149 472.965 27.7526 478.101 31.4003C476.997 29.3481 476.737 25.9654 478.325 26.3657C484.861 28.0232 486.862 19.8878 492.816 21.2296L492.61 21.4777C492.319 18.5066 490.415 16.0541 489.524 13.3423H489.53ZM340.621 650.315C341.409 646.814 341.797 643.375 341.991 639.863C342.07 638.414 342.288 636.892 340.488 636.08C335.758 633.949 334.57 632.246 341.112 631.378C341.682 631.305 342.325 630.871 342.701 630.431C344.689 628.08 344.465 609.909 342.901 607.13C340.475 602.822 334.891 598.363 342.913 593.886C349 590.487 347.285 584.917 347.624 579.121C343.974 582.064 342.476 585.328 340.682 588.367C336.734 595.036 332.169 601.34 336.001 609.909C336.916 611.95 337.395 616.658 335.588 619.262C332.102 624.297 333.46 629.546 332.975 634.817C332.296 642.129 332.496 649.633 330.101 657.081C339.099 658.592 338.778 658.53 340.621 650.31V650.315ZM430.467 667.827C428.794 667.353 425.829 664.246 424.78 668.571C424.089 671.423 424.258 674.101 428.618 674.152C430.298 674.169 433.196 674.152 432.577 676.007C431.177 680.185 435.027 679.784 436.585 679.97C440.254 680.399 444.049 679.942 447.79 679.779C449.846 679.688 451.301 678.775 451.01 676.684C450.707 674.502 448.633 675.094 447.275 675.201C441.497 675.669 439.083 673.092 439.362 665.385C436.039 671.215 433.39 668.655 430.467 667.827ZM445.516 646.696C445.632 650.857 437.616 649.504 439.447 653.281C440.344 655.124 445.826 655.006 447.178 658.603C447.396 659.184 447.566 660.142 447.96 660.244C449.925 660.745 453.447 661.755 453.732 661.258C455.691 657.831 456.467 653.997 456.249 650.028C456.036 646.048 453.302 648.353 451.489 648.241C449.882 648.139 448.936 647.164 449.264 645.749C449.815 643.387 447.96 643.009 445.504 641.831C445.504 643.888 445.474 645.292 445.504 646.696H445.516Z" fill="white"/>
</mask>
<g mask="url(#mask0_53_69478)">
<path d="M389.486 -245.439L-314.971 409.582L-311.657 412.664L392.8 -242.358L389.486 -245.439Z" fill="#5BC589"/>
<path d="M395.602 -239.755L-308.855 415.267L-305.541 418.348L398.916 -236.673L395.602 -239.755Z" fill="#5BC589"/>
<path d="M401.713 -234.066L-302.744 420.955L-299.43 424.037L405.027 -230.985L401.713 -234.066Z" fill="#5BC589"/>
<path d="M407.832 -228.39L-296.625 426.632L-293.311 429.713L411.146 -225.308L407.832 -228.39Z" fill="#5BC589"/>
<path d="M413.945 -222.701L-290.512 432.32L-287.198 435.402L417.26 -219.62L413.945 -222.701Z" fill="#5BC589"/>
<path d="M420.053 -217.018L-284.404 438.004L-281.09 441.085L423.367 -213.936L420.053 -217.018Z" fill="#5BC589"/>
<path d="M426.168 -211.335L-278.289 443.687L-274.975 446.768L429.482 -208.253L426.168 -211.335Z" fill="#5BC589"/>
<path d="M432.275 -205.65L-272.182 449.371L-268.867 452.453L435.59 -202.569L432.275 -205.65Z" fill="#5BC589"/>
<path d="M438.396 -199.964L-266.061 455.058L-262.746 458.139L441.711 -196.882L438.396 -199.964Z" fill="#5BC589"/>
<path d="M444.51 -194.285L-259.947 460.736L-256.633 463.818L447.824 -191.204L444.51 -194.285Z" fill="#5BC589"/>
<path d="M450.621 -188.597L-253.836 466.425L-250.522 469.506L453.935 -185.515L450.621 -188.597Z" fill="#5BC589"/>
<path d="M456.732 -182.915L-247.725 472.106L-244.41 475.188L460.047 -179.833L456.732 -182.915Z" fill="#5BC589"/>
<path d="M462.842 -177.231L-241.615 477.791L-238.301 480.873L466.156 -174.149L462.842 -177.231Z" fill="#5BC589"/>
<path d="M468.957 -171.55L-235.5 483.472L-232.186 486.553L472.271 -168.468L468.957 -171.55Z" fill="#5BC589"/>
<path d="M475.066 -165.861L-229.391 489.16L-226.076 492.242L478.381 -162.78L475.066 -165.861Z" fill="#5BC589"/>
<path d="M481.19 -160.183L-223.268 494.839L-219.953 497.92L484.504 -157.101L481.19 -160.183Z" fill="#5BC589"/>
<path d="M487.299 -154.492L-217.158 500.529L-213.844 503.611L490.613 -151.411L487.299 -154.492Z" fill="#5BC589"/>
<path d="M493.406 -148.812L-211.051 506.209L-207.737 509.291L496.72 -145.731L493.406 -148.812Z" fill="#5BC589"/>
<path d="M499.523 -143.127L-204.934 511.895L-201.619 514.976L502.838 -140.045L499.523 -143.127Z" fill="#5BC589"/>
<path d="M505.631 -137.445L-198.826 517.576L-195.512 520.658L508.945 -134.364L505.631 -137.445Z" fill="#5BC589"/>
<path d="M511.746 -131.763L-192.711 523.259L-189.397 526.34L515.06 -128.681L511.746 -131.763Z" fill="#5BC589"/>
<path d="M517.861 -126.078L-186.596 528.943L-183.282 532.025L521.176 -122.997L517.861 -126.078Z" fill="#5BC589"/>
<path d="M523.973 -120.394L-180.484 534.627L-177.17 537.709L527.287 -117.313L523.973 -120.394Z" fill="#5BC589"/>
<path d="M530.09 -114.707L-174.367 540.314L-171.053 543.396L533.404 -111.625L530.09 -114.707Z" fill="#5BC589"/>
<path d="M536.199 -109.023L-168.258 545.999L-164.944 549.081L539.513 -105.941L536.199 -109.023Z" fill="#5BC589"/>
<path d="M542.312 -103.341L-162.145 551.681L-158.83 554.762L545.627 -100.259L542.312 -103.341Z" fill="#5BC589"/>
<path d="M548.42 -97.6582L-156.037 557.363L-152.723 560.445L551.734 -94.5767L548.42 -97.6582Z" fill="#5BC589"/>
<path d="M554.537 -91.9746L-149.92 563.047L-146.606 566.128L557.851 -88.893L554.537 -91.9746Z" fill="#5BC589"/>
<path d="M560.652 -86.2949L-143.805 568.727L-140.491 571.808L563.966 -83.2133L560.652 -86.2949Z" fill="#5BC589"/>
<path d="M566.762 -80.6026L-137.695 574.419L-134.381 577.501L570.076 -77.521L566.762 -80.6026Z" fill="#5BC589"/>
<path d="M572.879 -74.9209L-131.578 580.101L-128.264 583.182L576.193 -71.8393L572.879 -74.9209Z" fill="#5BC589"/>
<path d="M578.984 -69.2363L-125.473 585.785L-122.158 588.867L582.299 -66.1547L578.984 -69.2363Z" fill="#5BC589"/>
<path d="M585.094 -63.5557L-119.363 591.466L-116.049 594.547L588.408 -60.4741L585.094 -63.5557Z" fill="#5BC589"/>
<path d="M591.213 -57.8691L-113.244 597.152L-109.93 600.234L594.527 -54.7875L591.213 -57.8691Z" fill="#5BC589"/>
<path d="M597.328 -52.1884L-107.129 602.833L-103.815 605.915L600.642 -49.1068L597.328 -52.1884Z" fill="#5BC589"/>
<path d="M603.443 -46.4981L-101.014 608.523L-97.6995 611.605L606.758 -43.4165L603.443 -46.4981Z" fill="#5BC589"/>
<path d="M609.549 -40.8183L-94.9082 614.203L-91.594 617.285L612.863 -37.7367L609.549 -40.8183Z" fill="#5BC589"/>
<path d="M615.662 -35.1337L-88.7949 619.888L-85.4807 622.969L618.976 -32.0521L615.662 -35.1337Z" fill="#5BC589"/>
<path d="M621.777 -29.4512L-82.6797 625.57L-79.3655 628.652L625.092 -26.3696L621.777 -29.4512Z" fill="#5BC589"/>
<path d="M627.891 -23.7646L-76.5664 631.257L-73.2522 634.338L631.205 -20.683L627.891 -23.7646Z" fill="#5BC589"/>
<path d="M634.006 -18.0839L-70.4512 636.938L-67.137 640.019L637.32 -15.0023L634.006 -18.0839Z" fill="#5BC589"/>
<path d="M640.115 -12.3985L-64.3418 642.623L-61.0276 645.705L643.429 -9.31689L640.115 -12.3985Z" fill="#5BC589"/>
<path d="M646.234 -6.7148L-58.2227 648.307L-54.9085 651.388L649.549 -3.63321L646.234 -6.7148Z" fill="#5BC589"/>
<path d="M652.34 -1.03316L-52.1172 653.988L-48.803 657.07L655.654 2.04846L652.34 -1.03316Z" fill="#5BC589"/>
<path d="M658.449 4.65133L-46.0078 659.673L-42.6936 662.754L661.763 7.73292L658.449 4.65133Z" fill="#5BC589"/>
<path d="M664.562 10.334L-39.8945 665.355L-36.5803 668.437L667.877 13.4157L664.562 10.334Z" fill="#5BC589"/>
<path d="M670.682 16.0176L-33.7754 671.039L-30.4612 674.121L673.996 19.0992L670.682 16.0176Z" fill="#5BC589"/>
<path d="M676.799 21.705L-27.6582 676.727L-24.344 679.808L680.113 24.7866L676.799 21.705Z" fill="#5BC589"/>
<path d="M682.904 27.3897L-21.5527 682.411L-18.2385 685.493L686.218 30.4713L682.904 27.3897Z" fill="#5BC589"/>
<path d="M689.016 33.0694L-15.4414 688.091L-12.1272 691.172L692.33 36.151L689.016 33.0694Z" fill="#5BC589"/>
<path d="M695.131 38.7539L-9.32617 693.775L-6.01201 696.857L698.445 41.8355L695.131 38.7539Z" fill="#5BC589"/>
<path d="M701.24 44.4346L-3.2168 699.456L0.0974203 702.538L704.554 47.5163L701.24 44.4346Z" fill="#5BC589"/>
<path d="M707.365 50.1192L2.9082 705.141L6.22237 708.222L710.679 53.2008L707.365 50.1192Z" fill="#5BC589"/>
<path d="M713.471 55.8017L9.01367 710.823L12.3278 713.905L716.785 58.8833L713.471 55.8017Z" fill="#5BC589"/>
<path d="M719.578 61.4922L15.1211 716.514L18.4353 719.595L722.892 64.5739L719.578 61.4922Z" fill="#5BC589"/>
<path d="M725.693 67.1738L21.2363 722.195L24.5505 725.277L729.008 70.2554L725.693 67.1738Z" fill="#5BC589"/>
<path d="M731.805 72.8545L27.3477 727.876L30.6618 730.958L735.119 75.936L731.805 72.8545Z" fill="#5BC589"/>
<path d="M737.92 78.5391L33.4629 733.561L36.7771 736.642L741.234 81.6207L737.92 78.5391Z" fill="#5BC589"/>
<path d="M744.033 84.2275L39.5762 739.249L42.8903 742.331L747.347 87.3091L744.033 84.2275Z" fill="#5BC589"/>
<path d="M750.147 89.9062L45.6895 744.928L49.0036 748.009L753.461 92.9878L750.147 89.9062Z" fill="#5BC589"/>
<path d="M756.262 95.5938L51.8047 750.615L55.1189 753.697L759.576 98.6754L756.262 95.5938Z" fill="#5BC589"/>
<path d="M762.371 101.276L57.9141 756.298L61.2282 759.379L765.685 104.358L762.371 101.276Z" fill="#5BC589"/>
<path d="M768.486 106.959L64.0293 761.98L67.3435 765.062L771.8 110.041L768.486 106.959Z" fill="#5BC589"/>
<path d="M774.594 112.644L70.1367 767.665L73.4509 770.747L777.908 115.725L774.594 112.644Z" fill="#5BC589"/>
<path d="M780.707 118.33L76.25 773.352L79.5642 776.433L784.021 121.412L780.707 118.33Z" fill="#5BC589"/>
<path d="M786.828 124.01L82.3711 779.031L85.6853 782.113L790.142 127.091L786.828 124.01Z" fill="#5BC589"/>
<path d="M792.936 129.696L88.4785 784.718L91.7927 787.799L796.25 132.778L792.936 129.696Z" fill="#5BC589"/>
<path d="M799.051 135.381L94.5938 790.402L97.9079 793.484L802.365 138.462L799.051 135.381Z" fill="#5BC589"/>
<path d="M805.16 141.064L100.703 796.085L104.017 799.167L808.474 144.145L805.16 141.064Z" fill="#5BC589"/>
<path d="M811.268 146.748L106.811 801.77L110.125 804.851L814.582 149.83L811.268 146.748Z" fill="#5BC589"/>
<path d="M817.385 152.431L112.928 807.452L116.242 810.534L820.699 155.512L817.385 152.431Z" fill="#5BC589"/>
<path d="M823.504 158.11L119.047 813.132L122.361 816.213L826.818 161.192L823.504 158.11Z" fill="#5BC589"/>
<path d="M829.617 163.801L125.16 818.822L128.474 821.904L832.931 166.882L829.617 163.801Z" fill="#5BC589"/>
<path d="M835.725 169.484L131.268 824.506L134.582 827.587L839.039 172.566L835.725 169.484Z" fill="#5BC589"/>
<path d="M841.84 175.168L137.383 830.189L140.697 833.271L845.154 178.25L841.84 175.168Z" fill="#5BC589"/>
<path d="M847.949 180.851L143.492 835.872L146.806 838.954L851.263 183.932L847.949 180.851Z" fill="#5BC589"/>
<path d="M854.06 186.532L149.604 841.554L152.918 844.635L857.375 189.614L854.06 186.532Z" fill="#5BC589"/>
<path d="M860.182 192.215L155.725 847.236L159.039 850.318L863.496 195.297L860.182 192.215Z" fill="#5BC589"/>
<path d="M866.289 197.9L161.832 852.922L165.146 856.003L869.603 200.982L866.289 197.9Z" fill="#5BC589"/>
<path d="M872.406 203.588L167.949 858.609L171.263 861.691L875.72 206.67L872.406 203.588Z" fill="#5BC589"/>
<path d="M878.514 209.273L174.057 864.294L177.371 867.376L881.828 212.354L878.514 209.273Z" fill="#5BC589"/>
<path d="M884.625 214.953L180.168 869.975L183.482 873.056L887.939 218.035L884.625 214.953Z" fill="#5BC589"/>
<path d="M890.736 220.637L186.279 875.658L189.593 878.74L894.05 223.718L890.736 220.637Z" fill="#5BC589"/>
<path d="M896.853 226.322L192.396 881.344L195.711 884.425L900.168 229.404L896.853 226.322Z" fill="#5BC589"/>
<path d="M902.971 232.004L198.514 887.025L201.828 890.107L906.285 235.085L902.971 232.004Z" fill="#5BC589"/>
<path d="M909.082 237.691L204.625 892.712L207.939 895.794L912.396 240.772L909.082 237.691Z" fill="#5BC589"/>
<path d="M915.189 243.375L210.732 898.396L214.047 901.478L918.504 246.457L915.189 243.375Z" fill="#5BC589"/>
<path d="M921.305 249.057L216.848 904.078L220.162 907.16L924.619 252.138L921.305 249.057Z" fill="#5BC589"/>
<path d="M927.414 254.74L222.957 909.762L226.271 912.843L930.728 257.822L927.414 254.74Z" fill="#5BC589"/>
<path d="M933.533 260.429L229.076 915.45L232.39 918.532L936.847 263.51L933.533 260.429Z" fill="#5BC589"/>
<path d="M939.648 266.104L235.191 921.126L238.506 924.208L942.963 269.186L939.648 266.104Z" fill="#5BC589"/>
<path d="M945.754 271.793L241.297 926.814L244.611 929.896L949.068 274.875L945.754 271.793Z" fill="#5BC589"/>
<path d="M951.869 277.477L247.412 932.498L250.726 935.58L955.183 280.558L951.869 277.477Z" fill="#5BC589"/>
<path d="M957.981 283.16L253.523 938.182L256.838 941.263L961.295 286.242L957.981 283.16Z" fill="#5BC589"/>
<path d="M964.096 288.843L259.639 943.864L262.953 946.946L967.41 291.924L964.096 288.843Z" fill="#5BC589"/>
<path d="M970.203 294.524L265.746 949.546L269.06 952.627L973.517 297.606L970.203 294.524Z" fill="#5BC589"/>
<path d="M976.322 300.207L271.865 955.229L275.179 958.31L979.636 303.289L976.322 300.207Z" fill="#5BC589"/>
<path d="M982.436 305.898L277.979 960.92L281.293 964.002L985.75 308.98L982.436 305.898Z" fill="#5BC589"/>
<path d="M988.547 311.58L284.09 966.602L287.404 969.683L991.861 314.662L988.547 311.58Z" fill="#5BC589"/>
<path d="M994.66 317.263L290.203 972.284L293.517 975.366L997.974 320.344L994.66 317.263Z" fill="#5BC589"/>
<path d="M1000.77 322.942L296.312 977.964L299.627 981.046L1004.08 326.024L1000.77 322.942Z" fill="#5BC589"/>
<path d="M1006.88 328.627L302.422 983.648L305.736 986.73L1010.19 331.709L1006.88 328.627Z" fill="#5BC589"/>
</g>
</svg>
