<svg width="1013" height="832" viewBox="0 0 1013 832" fill="none" xmlns="http://www.w3.org/2000/svg">
<mask id="mask0_53_53956" style="mask-type:luminance" maskUnits="userSpaceOnUse" x="0" y="0" width="1189" height="832">
<path d="M991.262 703.724C987.542 685.933 992.912 685.582 1007.98 695.584C1017.04 701.601 1031.45 696.348 1029.36 688.685C1026.55 678.432 1036.24 678.153 1040.14 673.422C1042.45 670.624 1046.51 669.698 1049.3 671.983C1052.22 674.384 1049.21 676.93 1046.82 678.378C1042.06 681.274 1042.83 685.564 1046.49 686.886C1062.12 692.553 1052.51 696.07 1045.64 700.045C1043.33 701.376 1042.02 703.211 1042.88 705.568C1047.59 718.385 1038.18 720.534 1027.49 722.207C1024.78 717.198 1033.52 715.821 1030.13 710.425C1025.6 711.063 1019.56 710.461 1015.97 712.763C1010.9 716.001 1021.75 719.302 1018.37 723.593C1012.22 725.931 1005.04 721.578 998.892 727.154C1014.63 733.441 1030.24 725.607 1045.43 728.8C1039.55 731.364 1033.48 732.434 1027.48 733.738C1024.64 734.359 1020.5 735.159 1021.26 738.227C1022.37 742.733 1027.13 741.069 1029.83 739.837C1038.07 736.068 1049.94 737.237 1049.93 743.03C1049.91 751.673 1056.64 749.587 1061.35 752.267C1051.66 755.865 1043.09 759.651 1034.52 762.143C1023.73 765.282 1010.75 768.7 1001.93 756.512C998.261 751.439 991.301 752.672 987.201 755.541C980.011 760.578 975.902 757.259 970.292 753.544C952.302 741.644 931.521 739.621 910.801 744.846C899.661 747.653 890.071 750.306 879.951 743.857C881.031 741.689 883.081 740.727 885.531 739.864C889.461 738.469 895.942 740.565 897.102 735.636C898.502 729.673 890.792 731.535 887.742 729.178C883.082 725.58 881.692 721.326 883.192 716.181C884.952 710.128 890.151 713.663 893.971 712.925C897.691 712.206 902.122 714.157 905.232 711.144C904.362 704.605 888.462 705.136 893.922 700.297C900.812 694.181 899.181 683.621 910.331 680.186C913.991 684.683 916.402 693.056 925.012 689.782C932.572 686.904 927.462 680.087 927.042 674.924C944.402 675.49 945.761 682.668 943.301 697.959C942.301 704.192 943.121 708.077 946.451 712.637C956.331 705.154 947.202 694.721 953.122 684.575C956.472 692.31 959.072 698.174 967.412 698.867C974.112 699.425 980.931 702.357 986.961 696.753C988.741 703.184 983.762 708.374 988.622 714.364C992.672 710.722 991.911 706.602 991.311 703.715L991.262 703.724ZM44.5215 469.68C44.6915 461.099 50.1915 459.633 55.3715 458.32C64.2315 456.071 62.5215 448.966 62.4015 444.253C62.2615 438.856 56.7515 437.849 51.1815 440.925C48.8115 442.238 47.0215 441.86 45.2615 439.288C39.5615 430.95 29.8015 431.535 23.1815 435.771C20.7515 437.327 13.3515 449.982 28.1615 453.166C30.1715 453.598 31.0415 456.017 29.4415 457.457C28.2815 458.5 25.8415 459.264 24.2215 458.995C18.9115 458.104 15.8115 454.659 13.0915 450.81C11.0415 447.904 7.7315 446.088 4.3215 448.561C0.5515 451.295 4.63151 452.851 6.58151 454.497C10.9915 458.212 11.5015 463.879 7.58151 466.154C-1.14849 471.218 0.68151 478.117 0.94151 484.854C1.18151 491.015 5.9415 488.442 9.2415 487.318C13.9815 485.699 18.6115 485.168 20.5115 490.079C22.4515 495.089 17.0915 495.152 13.5115 496.456C11.3615 497.239 9.79151 499.155 7.83151 500.414C-2.75516 507.196 -2.6085 514.049 8.2715 520.975C9.0315 521.461 9.5815 522.234 10.1015 522.954C21.6015 538.757 23.6115 538.784 39.6315 524.879C45.0415 520.193 49.3815 514.112 57.9315 512.835C62.5915 512.134 62.6015 508.977 62.1515 505.73C61.3415 499.838 62.5615 492.993 67.1015 489.944C79.0915 481.876 70.1515 475.517 65.7915 469.455C60.4315 461.99 52.6515 466.397 44.5115 469.689L44.5215 469.68ZM112.762 563.393C117.282 557.205 124.032 551.367 119.322 541.671C117.982 538.91 121.362 534.467 122.492 530.779C123.062 528.917 124.321 527.397 126.521 527.811C129.411 528.351 130.872 530.59 129.202 532.731C124.862 538.307 126.761 542.994 132.221 546.331C137.841 549.766 140.811 543.884 145.091 542.4C153.671 539.414 150.301 532.767 150.531 527.739C150.771 522.504 144.431 523.224 141.501 524.258C132.801 527.343 127.752 520.444 120.672 519.293C116.472 518.619 115.962 514.841 117.112 511.783C117.802 509.939 119.712 507.556 121.612 507.106C127.622 505.667 125.072 510.353 126.502 512.511C129.002 516.289 134.412 520.121 138.742 518.259C146.552 514.895 148.551 506.701 147.591 500.279C146.361 492.112 146.052 480.689 128.322 487.318C120.612 490.205 110.102 491.968 100.602 487.957C98.0915 486.895 94.1815 486.814 92.8615 489.935C91.8915 492.247 91.5515 494.891 94.2115 497.185C97.7115 500.198 101.102 505.289 104.132 506.449C121.472 513.051 106.762 519.419 104.792 525.607C103.812 528.674 100.442 528.926 97.3615 527.586C93.6715 525.976 93.7815 522.972 96.2115 521.155C103.382 515.803 96.1615 512.835 93.7615 509.354C91.7715 506.467 86.7515 507.223 86.4015 509.354C85.6115 514.05 80.5015 519.662 85.3515 523.44C88.8315 526.147 90.2315 526.597 86.4815 529.583C78.1315 536.239 85.2215 544.792 89.3515 546.267C99.8115 549.991 102.342 560.074 112.762 563.402V563.393ZM844.922 621.461C849.462 617.485 852.662 612.089 856.792 611.513C875.032 608.941 870.192 600.117 865.762 590.583C864.482 587.84 863.762 584.323 864.542 581.553C866.782 573.611 862.042 571.83 854.492 570.939C849.002 570.292 841.551 567.854 839.021 571.731C835.941 576.462 841.362 581.202 847.072 584.233C835.052 595.719 829.301 583.217 820.021 580.482C824.531 585.348 817.352 594.631 830.982 596.555C837.752 597.509 841.731 602.842 835.781 609.166C834.631 610.389 831.612 611.882 831.802 612.215C838.572 623.791 844.491 635.96 853.141 646.403C857.251 651.367 881.791 644.397 884.341 638.883C887.991 631.013 879.742 616.577 870.042 612.952C865.702 611.333 863.611 614.22 860.531 615.192C855.631 616.748 852.952 622.09 844.922 621.461ZM524.362 824.582C515.762 818.655 509.641 814.967 510.961 807.241C504.781 809.319 506.612 814.283 503.502 816.334C499.522 818.961 494.831 820.642 489.781 818.88C485.441 817.368 483.561 814.427 485.781 810.443C494.061 795.548 478.142 790.358 469.482 784.08C466.312 781.778 464.722 781.751 465.822 778.288C466.812 775.185 467.312 771.956 462.382 771.038C460.062 770.606 457.571 770.849 455.161 770.786C455.191 773.728 454.792 776.732 455.322 779.61C456.762 787.435 464.771 789.981 475.641 794.451C466.981 794.685 462.811 794.801 458.661 794.918C457.891 799.811 463.072 799.497 465.072 801.691C467.752 804.632 468.792 814.167 466.352 817.827C464.982 819.887 463.821 823.44 464.951 825.077C467.211 828.342 469.802 826.669 471.062 823.647C471.572 822.414 473.192 820.66 473.742 821.713C477.882 829.592 488.232 824.105 491.812 827.253C504.292 838.236 511.722 826.291 524.352 824.591L524.362 824.582ZM801.661 631.706C797.151 635.933 791.491 639.414 788.951 644.163C786.581 648.588 784.892 650.9 779.322 649.164C776.982 648.435 773.342 646.906 774.982 644.945C777.782 641.59 776.242 635.447 784.002 634.827C787.022 634.584 790.881 637.66 793.461 633.891C775.051 627.082 766.092 629.853 757.812 644.873C751.632 656.071 747.812 656.548 739.322 647.059C737.352 644.855 734.342 641.977 732.852 645.701C730.392 651.889 734.871 658.068 737.331 663.717C738.731 666.937 744.061 667.153 749.721 665.048C767.481 658.437 784.012 648.435 804.732 648.741C807.592 648.786 812.451 644.882 812.961 642.274C813.861 637.687 809.152 639.351 805.682 639.135C800.142 638.784 807.521 633.423 801.641 631.697L801.661 631.706ZM761.911 688.244C772.141 676.156 754.692 681.355 751.372 678.638C744.962 673.395 735.501 680.365 726.831 680.177C722.941 680.096 722.471 687.219 723.031 691.698C724.121 700.387 752.461 715.237 761.531 711.945C764.721 710.784 764.292 709.103 763.312 706.791C760.842 701.008 761.601 694.981 761.911 688.244ZM854.172 532.92C855.242 527.19 866.782 525.364 858.292 519.041C851.252 513.807 844.931 505.541 834.591 507.645C827.461 509.103 827.112 516.919 829.102 522.135C834.452 536.131 856.922 546.987 875.762 545.134C870.092 538.865 866.102 531.589 854.172 532.92ZM354.691 655.388C347.701 646.78 335.202 644.622 341.992 633.163C343.532 630.554 334.302 626.633 329.542 626.291C321.812 625.733 329.191 630.644 327.781 632.398C324.641 636.329 320.662 639.549 315.712 641.923C302.782 648.129 302.342 652.681 311.762 662.17C315.862 666.298 327.342 673.988 308.432 673.988C305.462 673.988 303.252 675.634 304.742 678.126C306.972 681.867 308.501 686.5 314.411 687.444C317.511 687.939 320.402 688.254 321.012 684.377C322.152 677.082 323.491 670.049 318.531 663.015C315.761 659.085 313.081 653.526 317.061 649.47C321.141 645.305 327.012 647.383 332.392 649.218C338.602 651.331 345.101 652.771 354.691 655.379V655.388ZM453.262 740.178C439.052 733.019 431.221 735.753 427.651 752.42C423.641 738.838 414.551 734.287 408.661 727.388C403.231 721.029 395.082 720.085 386.292 720.921C385.892 725.517 386.591 730.896 392.591 730.959C407.011 731.112 409.342 741.06 413.512 749.146C417.762 757.367 425.342 759.759 433.062 753.364C438.762 748.642 443.532 743.11 453.252 740.178H453.262ZM888.841 161.306C887.791 162.098 886.902 162.844 886.122 163.537C887.262 163.15 888.221 162.466 888.841 161.306ZM17.9815 239.701C9.9915 239.441 8.56151 234.026 4.50151 229.763C9.98151 228.225 12.2615 234.413 14.6215 232.704C29.4915 221.973 27.2115 238.011 33.1215 241.186C38.4815 244.073 36.8015 250.333 41.2615 253.688C45.2615 250.306 43.5315 247.383 41.8715 244.864C39.8915 241.86 38.6115 239.477 43.1615 237.435C47.5015 235.492 49.4815 236.832 50.8015 240.619C54.4615 251.169 64.1815 246.222 69.2815 244.028C76.3715 240.979 68.7715 235.852 67.6015 231.642C66.9115 229.151 60.8015 228.422 64.4315 224.042C84.0715 231.22 104.122 236.338 125.642 232.146C114.592 222 94.4515 223.808 88.0915 206.674C83.5615 214.922 92.1515 217.62 90.4215 223.467C81.5615 221.551 77.6915 217.458 78.3915 209.777C79.2215 200.603 78.4715 194.504 65.0915 202.231C61.2015 204.479 51.9615 208.518 46.5815 201.439C42.0615 195.494 46.2715 192.337 52.1515 189.072C56.6715 186.562 50.9015 174.816 45.7915 172.513C39.0315 169.473 31.2615 174.519 25.5915 169.959C23.6915 168.43 17.1715 169.041 20.2015 164.13C21.4715 162.071 21.5915 158.617 25.9615 159.228C37.6815 160.865 46.8315 152.24 58.3515 154.416C58.5115 146.6 49.2415 151.718 47.7915 147.032C55.0315 142.346 55.3315 130.032 69.0715 132.875C69.4815 132.956 70.8415 130.131 71.4815 128.575C76.0915 117.458 88.1015 119.707 97.0815 119.608C103.152 119.545 100.142 118.007 101.852 116.055C110.732 105.882 100.361 101.277 95.1615 94.6843C104.891 89.2517 114.932 86.5534 127.482 86.4274C118.112 77.5769 121.652 66.0641 128.292 66.4958C137.202 67.0714 149.272 63.1768 157.182 71.9104C159.752 74.7437 164.311 78.4764 168.781 75.3463C172.601 72.675 166.372 70.2465 166.292 67.6651C166.122 62.3493 167.062 57.0067 167.542 51.673C171.252 57.4384 168.162 64.8228 176.212 68.6814C178.972 70.0036 180.842 74.294 184.772 70.8041C187.712 68.1957 187.391 65.3175 183.781 62.988C180.201 60.6764 178.142 58.0141 182.492 52.7613C191.192 63.3118 202.902 61.0182 213.542 57.1775C223.112 53.7237 230.852 53.1661 238.452 62.6462C240.142 54.5332 238.852 42.7955 250.982 51.7899C259.662 58.2299 260.861 54.1824 264.751 48.9926C266.511 46.6361 265.582 40.4479 271.882 42.5346C283.002 46.2133 294.622 39.7823 306.452 45.6287C311.572 48.1561 319.262 45.0531 315.492 54.1554C314.522 56.485 315.271 58.5357 318.221 59.3992C320.731 60.1367 324.192 60.1997 324.542 57.7532C326.572 43.9018 345.392 41.1045 349.332 28.5573C350.582 24.5818 354.222 20.2824 358.852 23.4484C362.952 26.2547 358.562 29.5737 354.962 31.4175C352.602 32.6318 350.331 34.3497 352.161 36.4904C354.541 39.2607 357.442 37.8665 359.362 35.51C360.472 34.1428 360.642 32.0651 364.302 32.3979C364.152 39.4855 369.842 42.4267 376.382 45.3499C379.942 37.156 367.562 32.8027 372.872 24.7436C377.102 18.3126 383.432 14.58 389.632 10.2087C398.092 4.24537 399.051 13.5456 403.781 15.0207C411.031 17.2873 407.702 19.4369 403.672 21.7395C401.852 22.7739 401.221 24.5997 403.141 26.0748C405.631 27.9906 408.002 27.7748 411.262 26.4796C419.482 23.2326 412.962 16.181 416.322 11.5308C427.222 22.0903 436.022 23.6553 449.852 18.5105C454.932 16.6217 454.891 9.21029 461.901 10.0917C482.601 12.7181 504.132 9.3542 525.352 18.4925C526.002 11.342 526.511 5.67548 527.021 0C527.901 8.36482 536.382 11.4139 540.992 16.3788C544.542 20.1925 550.772 21.0739 554.172 16.9905C565.412 3.51681 566.892 13.5006 569.502 21.2178C575.082 22.3871 575.442 6.86275 584.632 17.9079C585.352 18.7714 593.071 18.2677 592.831 14.5979C592.501 9.60603 593.582 9.42615 598.252 11.0092C604.462 13.1229 601.191 15.0927 598.661 17.4582C592.281 23.4035 599.071 28.6023 602.031 32.0651C605.021 35.564 610.952 33.4413 613.692 28.5123C614.972 26.2097 616.921 26.3267 619.591 28.3234C630.261 36.3105 639.462 34.6915 646.482 24.2669C650.102 18.8973 653.352 24.3479 656.752 24.4378C660.342 24.5278 662.222 27.2531 662.182 29.8525C662.122 33.6841 657.572 32.1011 655.172 33.2074C652.992 34.2148 650.901 35.3571 648.771 36.4454C645.631 38.0644 639.412 35.564 639.292 40.6638C639.232 43.2092 641.791 46.4922 644.271 48.2641C648.411 51.2233 652.792 47.5445 654.692 45.6287C662.102 38.1543 665.032 41.995 667.612 48.6149C668.572 51.0793 669.192 54.3533 672.542 54.5872C676.742 54.875 678.382 51.7359 678.982 48.5519C679.422 46.2673 680.232 44.3515 683.262 42.8854C686.482 45.5208 688.732 48.6778 694.012 50.5937C704.702 54.4792 714.312 61.7287 718.352 72.558C721.472 80.9228 726.991 87.3269 738.331 87.3089C743.301 87.3089 746.451 90.4929 750.531 91.8781C754.721 93.3082 761.272 89.4855 763.382 95.6017C765.362 101.358 754.012 96.1054 755.562 102.114C755.892 103.382 756.182 104.812 757.042 105.792C761.772 111.207 756.212 114.391 752.562 118.861C758.022 118.807 762.291 118.771 766.771 118.726C765.821 121.479 764.851 123.907 764.151 126.381C758.621 145.755 763.481 153.202 786.701 156.593C793.671 157.609 792.182 163.555 797.072 165.398C801.102 157.798 804.792 150.837 808.302 144.208C816.312 145.035 818.711 154.956 828.711 150.693C844.631 143.893 856.232 150.009 859.792 165.336C860.742 169.428 865.351 172.189 870.151 173.664C871.501 174.078 873.951 173.754 873.411 172.27C868.711 159.3 880.091 165.56 886.141 163.51C873.921 174.519 894.362 173.727 895.122 180.293C886.532 182.407 873.462 180.365 875.352 193.614C885.582 195.935 900.002 187.552 905.732 199.101C909.872 207.456 896.901 211.027 891.081 217.116C893.401 207.357 891.701 200.189 877.021 196.978C894.181 211.378 872.652 207.888 870.052 213.024C879.502 220.444 888.812 227.073 902.652 223.781C906.932 222.765 910.611 225.005 912.181 228.539C913.501 231.526 912.892 234.62 909.362 236.607C899.662 242.076 890.162 240.34 880.822 235.744C880.212 235.447 879.872 234.341 879.822 233.594C879.522 228.809 879.012 228.027 876.122 229.565C871.252 232.155 864.132 231.535 861.112 236.949C865.612 242.013 878.092 238.568 877.182 248.282C876.522 255.289 870.821 258.302 862.841 258.887C857.191 259.3 860.841 262.403 861.461 264.508C862.411 267.764 863.741 269.365 867.031 265.893C871.141 261.558 877.751 261.891 881.781 263.78C886.951 266.199 882.652 269.833 880.422 273.278C878.162 276.758 880.402 280.455 883.492 283.954C892.712 294.406 900.631 282.263 909.421 283.333C917.071 284.269 922.471 279.412 926.071 273.925C934.371 261.252 953.411 258.95 966.591 269.203C968.271 270.516 968.852 271.973 968.392 273.817C959.022 271.218 952.871 283.136 947.061 280.266C934.261 273.943 934.661 284.521 929.191 287.849C922.601 291.86 914.312 292.49 906.532 293.938C906.342 293.974 906.142 294.774 906.262 295.143C910.152 307.214 901.001 302.815 895.671 300.918C890.251 298.984 886.772 301.295 883.382 303.517C878.832 306.512 874.342 309.372 868.432 308.176C860.502 306.575 860.811 311.819 859.651 315.722C858.101 320.912 861.781 322.387 866.771 323.709C870.471 324.69 875.432 324.564 877.052 327.289C874.862 335.159 866.931 324.717 864.661 332.803C868.031 335.51 876.021 332.632 877.031 337.561C880.221 353.085 889.681 340.538 896.061 341.042C897.611 341.159 900.201 334.539 900.961 338.469C902.411 345.971 919.801 344.352 912.721 353.391C906.971 360.721 914.762 359.498 916.622 359.399C921.572 359.138 926.431 357.51 931.321 356.422C919.091 355.604 917.332 346.303 912.122 340.493C911.472 339.773 911.901 337.714 912.671 336.832C913.351 336.05 915.202 336.059 916.542 335.708C919.772 348.21 937.072 343.164 943.482 353.274C944.142 345.62 930.352 340.133 941.612 333.127C949.902 345.638 951.711 345.737 960.951 334.611C964.441 330.401 968.881 329.205 973.671 333.19C976.781 335.771 979.522 338.685 982.892 341.887C971.722 347.94 959.041 348.66 945.081 353.985C954.121 356.197 960.332 359.04 966.292 356.215C975.822 351.718 983.022 356.26 988.912 360.856C993.312 364.301 995.192 369.131 1002.99 367.027C1004.76 366.55 1008.29 370.984 1011.02 373.161C991.832 376.938 1008.01 388.325 1002.5 396.42C1008.71 394.756 1012.57 393.812 1016.35 392.679C1020.01 391.581 1023.58 389.117 1027.28 392.634C1016.65 404.362 1017.09 410.335 1030.07 419.572C1037.45 424.825 1029.21 426.462 1026.31 428.791C1032.06 431.993 1039.87 425.877 1039.36 428.647C1037.61 438.119 1060.56 434.215 1050.8 446.151C1064.34 452.788 1057.34 466.145 1063.69 474.951C1069.95 467.314 1092.93 463.519 1100.24 470.615C1104.75 475.005 1105.7 474.195 1110.25 471.713C1114.22 469.545 1119.71 469.077 1124.63 468.7C1134.21 467.962 1144.46 467.189 1140.17 480.77C1146.48 480.491 1150.27 476.273 1156.39 476.741C1165.1 477.406 1169.43 481.481 1166.34 488.649C1164.91 491.968 1167.13 492.742 1169.6 492.859C1176.25 493.164 1181.25 498.759 1188.74 496.762C1184.24 500.576 1179.22 503.292 1173.94 500.657C1170.22 498.795 1167.81 494.702 1162.66 495.206C1149.05 496.537 1136.11 493.695 1123.88 489.189C1110.81 484.368 1104.2 498.057 1092.58 496.151C1097.27 508.212 1083.23 503.157 1078.22 506.647C1082.28 510.587 1085.57 513.789 1089.92 518.007C1081.11 519.482 1078.73 526.741 1072.09 530.105C1070.06 521.263 1065.84 517.494 1056.93 523.682C1053.8 525.859 1047.95 526.579 1049.04 523.7C1053.83 511 1039.59 518.277 1036.71 513.915C1040.59 510.758 1046.68 516.658 1050.4 510.695C1044.96 505.649 1041.52 496.249 1030.91 506.458C1028.04 509.219 1024.31 505.901 1021.05 505.918C1004.7 505.999 987.001 503.607 979.331 521.488C978.091 524.393 974.661 524.861 971.841 523.215C969.401 521.794 970.952 519.455 970.862 517.566C970.312 505.918 978.871 502.968 991.691 501.565C977.931 492.319 963.472 497.149 948.772 494.244C955.292 489.962 958.671 486.005 964.681 486.598C962.651 482.929 961.411 479.106 955.301 477.973C950.131 477.019 949.512 473.619 952.132 468.897C955.192 463.384 961.141 464.679 965.931 463.968C963.841 457.78 957.921 459.408 954.441 457.295C932.011 443.65 907.862 436.167 880.262 441.195C876.622 441.86 871.511 441.86 870.831 446.285C870.181 450.504 874.942 453.526 877.942 453.814C890.542 455.046 889.072 463.366 892.172 470.957C882.492 470.229 882.302 454.938 869.252 462.997C860.532 468.385 875.161 470.471 867.901 475.589C854.231 463.582 831.821 488.433 819.091 465.462C818.161 469.851 817.462 473.152 816.262 478.836C814.852 471.812 806.712 474.897 806.482 470.552C805.662 454.291 801.582 451.925 785.822 459.651C782.792 461.135 779.841 464.337 777.841 459.148C776.621 455.981 775.581 452.797 770.951 454.29C766.241 455.811 761.642 458.212 761.622 463.411C761.572 478.369 751.491 476.129 740.411 473.584C741.751 469.167 745.031 468.331 748.711 468.097C756.561 467.593 757.911 462.691 758.781 457.214C759.141 454.956 760.141 452.842 756.471 452.141C750.201 450.945 747.012 454.066 743.062 457.825C739.812 460.91 735.782 467.719 728.482 458.806C723.792 453.076 714.062 454.003 705.242 459.714C712.822 462.475 719.092 464.13 724.502 467.018C727.022 468.358 727.952 472.054 729.312 474.789C729.422 475.014 727.372 476.624 726.352 476.597C724.002 476.534 720.992 472.324 719.602 477.037C718.722 479.997 723.021 480.617 724.661 482.326C732.321 490.304 740.991 479.7 749.961 483.675C741.121 487.957 737.182 491.509 748.372 496.052C752.142 497.581 755.641 501.286 752.971 505.9C752.211 507.223 748.812 509.058 748.692 507.951C747.932 501.062 738.281 503.949 736.141 498.354C731.271 485.681 721.062 485.681 709.072 490.439C703.092 492.805 696.961 496.789 690.641 490.142C689.201 488.622 684.872 489.558 685.632 492.472C689.372 506.845 675.521 505.037 667.081 508.239C674.601 505.28 678.261 500.261 669.471 496.375C658.521 491.527 665.802 488.46 669.692 485.636C675.982 481.058 677.412 477.649 667.992 475.823C659.502 474.177 665.472 471.722 666.122 468.583C666.572 466.433 661.241 465.111 657.521 465.165C651.701 465.255 646.792 466.298 643.992 471.506C639.402 480.06 647.842 498.084 658.252 501.385C646.362 512.008 630.711 513.357 615.031 514.004C610.251 514.202 607.412 520.085 601.922 516.784C600.522 521.56 606.101 522.117 608.211 524.771C611.191 528.521 612.201 533.289 610.701 537.255C606.411 548.588 600.052 558.545 584.922 561.684C579.572 562.79 571.401 562.026 570.771 569.023C569.961 578.045 563.871 575.616 558.391 574.024C556.421 573.458 554.072 569.698 552.542 571.902C544.862 582.947 545.741 572.189 544.961 569.491C544.001 566.145 541.252 564.256 538.942 562.188C536.622 560.11 532.952 557.475 530.292 557.78C525.922 558.275 527.562 562.727 527.122 565.525C525.772 574.024 526.731 583.28 523.161 590.943C523.701 592.904 519.691 594.729 517.411 595.107C515.131 595.485 512.641 595.242 510.641 596.241C506.301 598.417 507.622 604.255 510.482 607.861C512.352 610.218 514.762 612.988 513.502 615.623C512.922 616.829 511.682 617.665 510.492 618.448C504.822 622.171 498.862 626.012 491.852 627.082C484.842 628.153 476.501 625.481 474.151 619.617C473.351 617.62 473.211 615.282 471.471 613.798C469.001 611.684 464.512 612.709 462.502 615.147C460.492 617.584 460.381 620.822 460.711 623.809C451.791 622.261 442.062 625.194 436.172 631.193C434.202 625.239 432.332 618.511 435.882 613.168C436.822 611.765 438.102 610.524 438.812 609.022C439.532 607.52 438.702 604.668 437.292 603.589C438.342 600.261 438.142 596.654 438.752 593.209C439.222 590.583 438.331 589.081 435.201 588.595C431.581 588.038 431.681 590.07 430.901 592.301C427.091 603.067 422.852 613.717 418.812 624.42C417.202 628.701 415.051 634.053 409.341 632.974C403.111 631.796 404.552 626.012 403.872 621.272C402.542 612.053 410.461 602.69 401.211 593.299C396.001 588.011 385.271 583.289 391.091 573.026C392.111 571.227 389.941 569.212 387.141 568.25C382.031 566.496 345.211 573.997 344.721 578.099C343.011 592.4 331.412 581.903 325.352 584.647C318.602 587.705 313.752 595.386 303.872 590.808C302.082 589.98 298.852 591.815 298.422 588.272C297.392 579.826 287.582 579.241 283.712 574.537C279.392 576.48 286.452 579.961 278.622 581.715C282.032 570.894 269.771 569.653 264.311 564.13C266.951 560.982 273.762 563.645 272.902 559.327C271.322 551.403 263.702 547.275 256.302 543.434C253.172 548.777 239.822 546.888 243.542 557.061C246.362 564.787 238.462 565.084 234.212 565.462C229.832 565.848 226.082 562.493 227.142 557.466C227.962 553.598 228.521 549.685 229.471 545.845C230.061 543.452 236.002 541.464 230.132 538.721C228.452 537.939 225.952 537.102 224.482 537.642C220.492 539.108 220.362 542.517 221.582 545.521C223.522 550.324 221.831 553.886 217.661 557.169C216.091 553.706 216.611 548.633 210.251 548.912C208.921 548.975 206.392 551.826 206.682 552.267C210.762 558.455 196.122 558.032 200.892 565.183C201.832 566.595 194.722 565.83 194.422 564.04C193.192 556.746 189.432 557.825 182.922 559.085C177.532 560.128 171.522 557.412 167.712 551.619C178.942 551.817 186.251 539.243 199.061 546.079C200.441 546.816 202.092 545.26 201.542 543.956C196.392 531.831 207.382 527.829 215.642 522.621C219.222 520.364 218.122 515.462 216.952 516.244C207.162 522.792 203.661 511.63 198.441 511.864C193.141 512.098 190.822 514.067 192.852 508.203C196.752 496.942 190.672 492.94 177.602 493.767C182.262 489.917 193.782 489.899 189.332 485.978C178.722 476.624 189.512 476.291 194.102 473.628C197.852 471.452 203.462 470.48 200.682 465.309C195.802 456.224 203.282 451.565 208.982 446.555C211.052 444.729 215.132 443.551 212.922 440.88C205.672 432.11 216.012 430.221 219.012 425.023C224.652 429.853 219.182 439.648 225.762 439.854C240.372 440.313 240.591 447.617 240.161 457.106C243.691 451.241 252.981 447.149 244.661 439.522C248.441 437.723 242.802 429.97 250.392 431.607C253.102 432.191 254.192 434.539 256.302 431.148C258.132 428.207 258.222 426.318 253.872 425.49C252.352 425.202 249.072 425.697 251.212 422.792C252.242 421.389 253.412 420.382 256.052 421.857C261.172 424.726 265.112 428.674 270.542 434.997C269.882 426.534 274.082 421.56 264.672 416.649C260.252 414.346 248.952 403.94 260.392 394.981C262.162 393.596 263.281 392.292 261.161 390.862C252.911 385.303 248.852 372.891 232.952 378.378C235.102 380.698 237.132 382.884 239.152 385.087C241.602 387.75 243.312 376.965 245.652 384.764C246.552 387.741 242.332 390.556 240.272 389.89C231.922 387.183 218.142 411.972 214.462 386.068C214.352 385.294 210.662 384.026 209.102 384.413C202.782 385.978 202.922 378.791 195.902 377.46C203.752 388.208 197.952 389.935 188.392 390.169C184.962 390.259 181.201 395.557 177.971 392.148C174.221 388.199 178.462 384.934 182.482 382.749C187.062 380.257 187.502 377.073 183.552 374.33C178.152 370.579 177.502 376.426 174.962 378.27C170.532 381.49 170.882 389.962 159.672 387.309C172.262 379.979 163.862 370.948 158.672 368.205C138.982 357.789 119.802 373.17 99.7315 371.497C98.6115 371.407 96.1815 373.889 96.1415 375.221C95.9815 380.95 89.0715 381.849 86.3415 386.149C82.3515 392.4 71.0115 385.78 64.8615 391.41C63.0415 386.607 64.0815 382.515 68.0915 378.719C71.3115 375.67 67.2615 372.54 65.6015 373.673C61.5415 376.453 53.6215 369.545 54.8115 374.69C56.7415 382.992 46.4715 387.345 51.3815 395.656C43.6515 393.668 44.8315 386.257 38.3015 385.681C35.8715 388.397 37.6615 390.502 39.3315 392.76C41.6315 395.872 46.1615 400.891 41.1815 402.375C36.4815 403.778 35.7215 411.513 29.5415 408.032C25.2215 405.595 20.6315 402.636 22.2215 396.465C23.7815 390.448 17.6115 386.077 15.9015 380.617C15.0315 377.829 11.0915 374.753 15.5815 372.756C24.9515 368.583 17.6915 363.042 17.5715 357.465C23.0315 357.582 30.0915 366.793 33.2715 354.893C35.2215 347.599 41.2815 341.698 49.5615 352.312C51.9615 347.841 51.7015 344.882 49.3915 341.473C42.8415 331.795 46.8115 325.571 58.7015 322.954C61.6615 322.306 63.8715 319.212 63.6415 319.077C53.5815 313.195 60.3515 304.497 58.4215 297.356C57.6415 294.469 54.2715 292.733 51.4015 294.262C40.0715 300.279 39.3715 294.792 39.3215 286.787C39.3015 283.504 33.3215 280.554 41.3515 277.55C44.8615 276.237 37.9715 271.164 37.0715 272.216C30.2415 280.239 22.5415 266.505 15.0915 273.314C12.9015 275.31 10.0015 268.996 12.1015 267.188C15.0015 264.697 19.1215 260.416 23.6415 262.475C31.7415 266.163 39.8715 263.95 48.4215 265.515C45.5315 257.169 39.2715 257.672 32.3315 257.753C26.1315 257.825 17.7215 258.005 23.1315 248.273C25.2715 244.415 24.4115 239.908 17.9815 239.692V239.701ZM971.632 490.43C979.742 479.835 993.991 476.408 1003.83 467.908C1007.1 465.084 1013.96 465.399 1019.38 464.238C1019.11 457.529 1012.25 457.07 1007.86 454.156C1004.71 452.06 998.501 451.439 999.951 445.881C1001.1 441.473 1005.43 440.502 1010.33 439.576C1006.28 433.136 999.481 436.571 992.721 433.909C999.561 445.224 988.711 451.556 987.821 461.648C981.381 457.888 976.202 451.277 969.362 458.446C969.532 461.846 973.241 461.648 975.571 462.952C984.181 467.764 984.352 474.33 975.142 477.064C968.982 478.89 967.312 482.668 965.042 486.67C965.072 486.67 965.102 486.67 965.142 486.679C964.072 492.409 969.052 493.794 971.622 490.43H971.632ZM792.422 389.414C800.172 390.781 801.632 393.425 791.442 397.931C799.972 399.326 805.331 392.643 808.711 397.85C811.771 402.573 816.822 409.085 805.492 414.328C820.902 413.924 830.302 417.566 833.502 430.806C833.742 419.392 844.751 412.125 843.341 401.241C843.181 400.036 845.122 398.309 846.572 397.437C847.272 397.014 849.841 397.671 850.281 398.408C851.611 400.639 853.712 403.274 851.372 405.685C839.132 418.25 847.351 418.942 860.211 417.746C862.881 417.494 868.152 419.131 868.292 420.256C869.872 432.56 882.532 426.174 888.072 429.763C902.372 439.036 906.432 427.388 915.732 423.359C907.992 419.554 896.072 426.3 895.772 413.177C895.652 408.149 888.831 414.085 885.531 411.585C891.421 403.859 900.872 404.084 910.392 403.445C904.242 401.826 900.282 397.626 893.052 397.913C882.132 398.345 860.221 379.349 858.451 369.743C858.161 368.187 857.991 365.785 856.891 365.3C848.211 361.513 848.152 361.63 854.002 354.551C845.442 360.721 833.921 360.685 824.771 365.803C825.441 367.045 825.622 368.151 826.292 368.475C829.712 370.103 836.172 368.268 835.242 374.726C834.972 376.606 832.652 378.953 832.232 378.081C829.512 372.513 819.882 378.782 818.682 371.749C817.732 366.163 814.561 362.305 808.081 359.975C809.561 368.466 804.102 374.384 794.302 375.967C789.992 376.66 786.941 379.151 785.781 382.65C784.241 387.318 788.062 388.64 792.422 389.405V389.414ZM715.002 355.433C715.042 357.367 716.491 358.878 718.721 358.743C725.481 358.329 729.491 362.34 734.281 365.408C745.101 372.333 748.041 372.396 763.531 365.021C755.121 372.036 755.842 376.525 760.132 381.166C762.232 383.441 765.542 385.69 767.232 383.801C771.092 379.475 782.342 380.797 779.692 371.632C777.792 365.075 781.392 366.514 785.612 368.52C788.722 370.004 791.392 369.068 793.542 366.838C795.002 365.327 795.111 363.663 793.711 362.116C791.231 359.39 788.101 361.018 785.411 361.549C777.371 363.141 770.192 363.923 767.482 354.605C767.022 353.013 763.601 350.972 761.591 350.99C747.361 351.142 733.142 351.754 718.922 352.303C716.832 352.384 714.952 353.31 714.992 355.424L715.002 355.433ZM721.771 196.528C722.901 199.793 726.562 203.175 730.122 204.839C734.932 207.079 735.842 203.616 735.482 200.117C745.092 199.649 756.802 195.917 763.862 199.388C778.162 206.431 774.902 196.627 776.752 191.527C783.582 194.774 789.952 197.787 796.312 200.81C800.172 202.644 803.051 201.214 805.461 198.669C807.221 196.816 807.151 194.792 805.961 192.598C803.761 188.55 801.181 189.71 797.911 191.59C795.221 193.137 792.282 193.587 791.252 189.665C788.472 179.079 778.312 179.043 769.112 178.458C763.492 178.108 757.462 177.622 754.622 173.709C750.092 167.467 759.222 168.25 761.632 165.434C762.732 164.148 763.401 162.134 763.211 160.533C762.821 157.232 759.701 158.392 757.451 158.518C751.681 158.842 745.911 159.264 740.641 159.615C738.281 163.609 750.822 165.416 741.542 169.473C740.892 169.752 740.312 171.029 740.482 171.686C743.752 184.44 743.851 184.548 728.781 191.518C725.841 192.876 720.471 192.751 721.781 196.537L721.771 196.528ZM583.322 418.061C588.932 418.951 590.062 415.03 591.132 410.623C593.872 399.326 608.652 404.758 615.352 398.489C615.442 398.408 618.072 399.658 618.242 400.477C619.472 406.494 621.512 412.934 630.102 408.167C637.432 404.102 644.982 398.426 639.432 388.676C635.122 381.103 629.802 375.212 618.732 376.678C614.132 377.289 613.841 380.671 613.201 383.567C610.791 394.415 603.022 400.189 590.682 399.622C581.702 399.209 582.212 404.174 580.192 408.617C586.512 411.261 575.582 416.847 583.322 418.07V418.061ZM482.622 180.581C484.712 182.101 496.672 176.785 500.442 172.279C506.322 165.273 494.812 160.865 492.362 154.245C500.192 153.895 502.441 161.486 510.031 161.972C508.861 157.573 507.832 153.724 506.812 149.892C506.982 149.973 507.142 150.063 507.292 150.153C507.182 149.991 507.081 149.829 506.971 149.667C513.241 150.531 516.751 159.498 524.951 154.569C536.771 147.455 550.252 141.734 554.512 128.162C555.742 124.258 554.721 121.299 550.411 119.437C546.401 117.701 543.222 117.422 540.362 121.497C536.692 126.731 532.072 130.995 525.352 123.835C523.682 122.054 521.401 122.423 520.581 124.258C519.991 125.562 520.451 127.73 521.401 128.944C523.191 131.229 530.242 131.373 524.482 136.32C519.122 140.916 516.992 135.618 513.732 133.981C511.282 132.758 509.092 131.148 505.552 128.935C503.842 136.958 502.902 143.425 506.992 149.658C506.912 149.649 506.832 149.631 506.752 149.622C506.772 149.712 506.802 149.793 506.822 149.883C504.352 148.696 499.982 148.435 500.742 145.674C504.522 131.903 491.022 128.189 482.612 121.847C479.902 119.806 475.751 115.929 470.841 119.149C464.391 123.395 473.391 125.661 473.151 125.94C460.911 140.196 488.701 147.536 479.721 160.551C475.571 159.471 472.491 153.814 465.401 153.949C464.851 165.965 473.622 174.015 482.632 180.572L482.622 180.581ZM417.762 331.112C434.592 340.889 428.362 353.967 424.992 366.748C424.462 368.753 427.272 369.284 429.102 369.644C432.172 370.247 435.162 369.806 437.432 367.8C446.432 359.822 443.441 325.104 432.331 319.734C422.921 315.192 424.092 327.451 417.562 327.766C417.642 329.52 417.302 330.833 417.762 331.103V331.112ZM307.281 190.547C309.391 187.615 312.492 188.586 315.362 188.55C319.072 188.505 318.192 191.455 319.382 193.137C322.572 197.626 308.832 195.503 315.612 199.164C323.472 203.409 331.702 206.755 337.132 213.6C339.382 211.972 341.972 210.605 343.792 208.671C346.602 205.667 342.002 204.65 340.872 204.407C334.182 202.995 335.362 194.289 327.152 193.596C325.822 193.479 321.952 184.584 326.422 179.718C329.722 176.129 329.692 172.018 329.072 166.874C336.422 169.392 339.142 173.862 338.352 179.079C337.352 185.663 332.002 177.334 329.022 180.851C331.502 185.699 334.362 190.718 336.602 195.935C338.012 199.227 340.792 199.676 343.772 199.254C355.702 197.545 368.052 191.734 378.352 202.905C379.312 203.949 381.022 203.121 381.672 201.7C386.532 191.123 397.681 196.375 406.391 194.513C405.841 189.333 398.182 188.217 397.882 182.821C397.782 180.923 394.531 180.095 391.641 180.455C386.841 181.049 394.302 189.252 386.732 186.85C382.922 185.645 389.422 180.419 385.372 177.865C378.292 173.404 369.021 171.452 365.001 163.528C363.431 160.425 359.472 157.313 364.922 154.83C370.442 152.321 373.661 144.495 380.281 146.429C393.031 150.144 405.781 155.622 414.961 163.977C419.991 168.547 427.442 177.352 416.302 184.88C414.102 186.365 412.911 189 409.411 193.452C420.131 189.468 427.992 186.257 436.932 184.961C447.702 183.405 453.942 167.701 451.292 153.679C448.552 139.207 439.481 128.279 425.331 120.399C423.121 119.167 420.611 117.602 418.581 119.356C410.661 126.192 408.691 118.762 405.781 115.174C401.781 110.227 400.551 103.373 390.711 111.207C385.171 115.614 376.202 108.806 368.072 109.021C356.882 109.327 354.752 113.582 358.732 120.849C361.502 125.913 357.312 132.758 365.022 136.76C366.302 137.426 362.041 140.313 358.031 139.135C348.911 136.472 342.671 140.637 343.531 148.669C344.111 154.092 340.542 157.771 335.632 156.107C325.122 152.545 326.281 158.419 323.781 163.851C320.341 171.317 322.442 183.082 304.542 181.391C297.072 180.68 303.791 192.211 299.281 198.795C306.531 196.888 305.532 192.993 307.292 190.547H307.281ZM215.862 213.69C211.682 198.084 199.762 192.202 192.292 183.459C190.812 181.723 185.592 181.319 189.512 178.063C192.122 175.895 195.272 177.217 197.182 179.628C200.282 183.54 202.902 187.894 211.102 186.976C202.272 170.651 199.021 171.794 178.531 174.411C164.411 176.21 165.591 180.599 172.411 185.492C185.371 194.792 201.562 200.306 215.862 213.69ZM146.422 237.93C151.282 232.371 138.502 228.189 142.172 228.458C151.892 229.178 159.962 219.815 168.482 224.87C179.242 231.256 189.671 222.423 200.091 226.075C200.931 226.372 207.462 220.516 205.462 218.511C201.812 214.85 203.252 207.295 195.522 207.142C180.722 206.836 173.391 195.602 164.781 188.802C147.851 175.427 135.432 176.138 125.732 193.794C118.292 207.331 116.532 219.455 125.842 232.128C125.932 232.11 126.022 232.092 126.122 232.074C131.942 236.787 138.742 238.748 146.422 237.948V237.93Z" fill="white"/>
</mask>
<g mask="url(#mask0_53_53956)">
<path d="M1200.36 -77.9883L1001.41 1014.76L1007.35 1015.64L1206.3 -77.1133L1200.36 -77.9883Z" fill="#157958"/>
<path d="M1187.94 -79.752L988.988 1013L994.929 1013.87L1193.88 -78.877L1187.94 -79.752Z" fill="#157958"/>
<path d="M1175.52 -81.5168L976.568 1011.23L982.509 1012.11L1181.46 -80.6417L1175.52 -81.5168Z" fill="#157958"/>
<path d="M1163.12 -83.2979L964.168 1009.45L970.109 1010.33L1169.06 -82.4229L1163.12 -83.2979Z" fill="#157958"/>
<path d="M1150.7 -85.0616L951.746 1007.69L957.687 1008.56L1156.64 -84.1865L1150.7 -85.0616Z" fill="#157958"/>
<path d="M1138.28 -86.8351L939.328 1005.91L945.269 1006.79L1144.22 -85.9601L1138.28 -86.8351Z" fill="#157958"/>
<path d="M1125.86 -88.6084L926.906 1004.14L932.847 1005.02L1131.8 -87.7334L1125.86 -88.6084Z" fill="#157958"/>
<path d="M1113.44 -90.3711L914.494 1002.38L920.435 1003.25L1119.39 -89.4961L1113.44 -90.3711Z" fill="#157958"/>
<path d="M1101.02 -92.1447L902.074 1000.6L908.015 1001.48L1106.97 -91.2697L1101.02 -92.1447Z" fill="#157958"/>
<path d="M1088.61 -93.9003L889.664 998.84L895.605 999.715L1094.55 -93.0253L1088.61 -93.9003Z" fill="#157958"/>
<path d="M1076.19 -95.6905L877.244 997.059L883.185 997.934L1082.14 -94.8154L1076.19 -95.6905Z" fill="#157958"/>
<path d="M1063.78 -97.4543L864.832 995.295L870.773 996.17L1069.72 -96.5792L1063.78 -97.4543Z" fill="#157958"/>
<path d="M1051.36 -99.2178L852.412 993.531L858.353 994.406L1057.3 -98.3428L1051.36 -99.2178Z" fill="#157958"/>
<path d="M1038.94 -100.991L839.992 991.758L845.933 992.633L1044.88 -100.116L1038.94 -100.991Z" fill="#157958"/>
<path d="M1026.52 -102.756L827.57 989.984L833.511 990.859L1032.46 -101.881L1026.52 -102.756Z" fill="#157958"/>
<path d="M1014.12 -104.536L815.172 988.213L821.113 989.088L1020.06 -103.661L1014.12 -104.536Z" fill="#157958"/>
<path d="M1001.7 -106.301L802.75 986.448L808.691 987.323L1007.64 -105.426L1001.7 -106.301Z" fill="#157958"/>
<path d="M989.279 -108.065L790.328 984.685L796.269 985.56L995.219 -107.19L989.279 -108.065Z" fill="#157958"/>
<path d="M976.859 -109.848L777.908 982.901L783.849 983.776L982.8 -108.973L976.859 -109.848Z" fill="#157958"/>
<path d="M964.437 -111.602L765.488 981.138L771.429 982.013L970.378 -110.727L964.437 -111.602Z" fill="#157958"/>
<path d="M952.029 -113.384L753.078 979.365L759.019 980.24L957.969 -112.509L952.029 -113.384Z" fill="#157958"/>
<path d="M939.616 -115.147L740.666 977.602L746.607 978.477L945.557 -114.272L939.616 -115.147Z" fill="#157958"/>
<path d="M927.197 -116.921L728.246 975.828L734.187 976.703L933.137 -116.046L927.197 -116.921Z" fill="#157958"/>
<path d="M914.777 -118.694L715.826 974.055L721.767 974.93L920.718 -117.819L914.777 -118.694Z" fill="#157958"/>
<path d="M902.363 -120.449L703.414 972.291L709.355 973.166L908.304 -119.574L902.363 -120.449Z" fill="#157958"/>
<path d="M889.945 -122.231L690.994 970.518L696.935 971.393L895.885 -121.356L889.945 -122.231Z" fill="#157958"/>
<path d="M877.525 -124.004L678.574 968.745L684.515 969.62L883.466 -123.129L877.525 -124.004Z" fill="#157958"/>
<path d="M865.113 -125.769L666.162 966.98L672.103 967.855L871.053 -124.894L865.113 -125.769Z" fill="#157958"/>
<path d="M852.702 -127.54L653.752 965.209L659.693 966.084L858.643 -126.665L852.702 -127.54Z" fill="#157958"/>
<path d="M840.281 -129.305L641.332 963.436L647.273 964.311L846.222 -128.43L840.281 -129.305Z" fill="#157958"/>
<path d="M827.861 -131.078L628.91 961.671L634.851 962.546L833.801 -130.203L827.861 -131.078Z" fill="#157958"/>
<path d="M815.441 -132.852L616.49 959.897L622.431 960.772L821.382 -131.977L815.441 -132.852Z" fill="#157958"/>
<path d="M803.031 -134.614L604.08 958.135L610.021 959.01L808.971 -133.739L803.031 -134.614Z" fill="#157958"/>
<path d="M790.611 -136.397L591.66 956.353L597.601 957.228L796.552 -135.521L790.611 -136.397Z" fill="#157958"/>
<path d="M778.197 -138.152L579.248 954.588L585.189 955.463L784.138 -137.277L778.197 -138.152Z" fill="#157958"/>
<path d="M765.779 -139.925L566.828 952.824L572.769 953.699L771.719 -139.05L765.779 -139.925Z" fill="#157958"/>
<path d="M753.368 -141.696L554.418 951.053L560.359 951.928L759.309 -140.821L753.368 -141.696Z" fill="#157958"/>
<path d="M740.947 -143.47L541.996 949.279L547.937 950.154L746.887 -142.595L740.947 -143.47Z" fill="#157958"/>
<path d="M728.527 -145.243L529.576 947.506L535.517 948.381L734.467 -144.368L728.527 -145.243Z" fill="#157958"/>
<path d="M716.105 -146.999L517.156 945.741L523.097 946.616L722.046 -146.124L716.105 -146.999Z" fill="#157958"/>
<path d="M703.704 -148.771L504.754 943.979L510.695 944.854L709.645 -147.896L703.704 -148.771Z" fill="#157958"/>
<path d="M691.284 -150.553L492.334 942.196L498.275 943.071L697.225 -149.678L691.284 -150.553Z" fill="#157958"/>
<path d="M678.865 -152.317L479.914 940.432L485.855 941.307L684.805 -151.442L678.865 -152.317Z" fill="#157958"/>
<path d="M666.445 -154.09L467.494 938.659L473.435 939.534L672.385 -153.215L666.445 -154.09Z" fill="#157958"/>
<path d="M654.031 -155.854L455.082 936.887L461.023 937.762L659.972 -154.979L654.031 -155.854Z" fill="#157958"/>
<path d="M641.611 -157.626L442.66 935.123L448.601 935.998L647.552 -156.751L641.611 -157.626Z" fill="#157958"/>
<path d="M629.202 -159.399L430.252 933.35L436.193 934.225L635.143 -158.524L629.202 -159.399Z" fill="#157958"/>
<path d="M616.781 -161.164L417.83 931.585L423.771 932.46L622.721 -160.289L616.781 -161.164Z" fill="#157958"/>
<path d="M604.37 -162.945L405.42 929.804L411.361 930.679L610.311 -162.07L604.37 -162.945Z" fill="#157958"/>
<path d="M591.949 -164.701L393 928.039L398.941 928.914L597.89 -163.826L591.949 -164.701Z" fill="#157958"/>
<path d="M579.529 -166.474L380.578 926.275L386.519 927.15L585.469 -165.599L579.529 -166.474Z" fill="#157958"/>
<path d="M567.109 -168.247L368.158 924.502L374.099 925.377L573.05 -167.372L567.109 -168.247Z" fill="#157958"/>
<path d="M554.697 -170.02L355.746 922.729L361.687 923.605L560.637 -169.145L554.697 -170.02Z" fill="#157958"/>
<path d="M542.288 -171.792L343.338 920.957L349.279 921.832L548.229 -170.917L542.288 -171.792Z" fill="#157958"/>
<path d="M529.865 -173.548L330.916 919.192L336.857 920.067L535.806 -172.673L529.865 -173.548Z" fill="#157958"/>
<path d="M517.445 -175.321L318.494 917.428L324.435 918.303L523.385 -174.446L517.445 -175.321Z" fill="#157958"/>
<path d="M505.027 -177.104L306.076 915.646L312.017 916.521L510.968 -176.229L505.027 -177.104Z" fill="#157958"/>
<path d="M492.615 -178.866L293.664 913.883L299.605 914.758L498.555 -177.991L492.615 -178.866Z" fill="#157958"/>
<path d="M480.195 -180.64L281.244 912.109L287.185 912.984L486.135 -179.765L480.195 -180.64Z" fill="#157958"/>
<path d="M467.783 -182.394L268.834 910.346L274.775 911.221L473.724 -181.519L467.783 -182.394Z" fill="#157958"/>
<path d="M455.363 -184.177L256.412 908.572L262.353 909.447L461.303 -183.302L455.363 -184.177Z" fill="#157958"/>
<path d="M442.952 -185.949L244.002 906.8L249.943 907.675L448.893 -185.074L442.952 -185.949Z" fill="#157958"/>
<path d="M430.531 -187.713L231.58 905.036L237.521 905.911L436.471 -186.838L430.531 -187.713Z" fill="#157958"/>
<path d="M418.113 -189.495L219.162 903.254L225.103 904.129L424.053 -188.62L418.113 -189.495Z" fill="#157958"/>
<path d="M405.689 -191.251L206.74 901.489L212.681 902.364L411.63 -190.376L405.689 -191.251Z" fill="#157958"/>
<path d="M393.288 -193.022L194.338 899.727L200.279 900.602L399.229 -192.147L393.288 -193.022Z" fill="#157958"/>
<path d="M380.87 -194.796L181.92 897.953L187.861 898.828L386.811 -193.921L380.87 -194.796Z" fill="#157958"/>
<path d="M368.449 -196.569L169.498 896.18L175.439 897.055L374.389 -195.694L368.449 -196.569Z" fill="#157958"/>
<path d="M356.029 -198.342L157.078 894.407L163.019 895.282L361.969 -197.467L356.029 -198.342Z" fill="#157958"/>
<path d="M343.615 -200.096L144.666 892.645L150.607 893.52L349.556 -199.221L343.615 -200.096Z" fill="#157958"/>
<path d="M331.197 -201.869L132.246 890.88L138.187 891.755L337.137 -200.994L331.197 -201.869Z" fill="#157958"/>
<path d="M318.786 -203.652L119.836 889.098L125.777 889.973L324.727 -202.776L318.786 -203.652Z" fill="#157958"/>
<path d="M306.365 -205.416L107.414 887.333L113.355 888.208L312.305 -204.541L306.365 -205.416Z" fill="#157958"/>
<path d="M293.956 -207.189L95.0059 885.561L100.947 886.436L299.897 -206.313L293.956 -207.189Z" fill="#157958"/>
<path d="M281.533 -208.943L82.584 883.797L88.5249 884.672L287.474 -208.068L281.533 -208.943Z" fill="#157958"/>
<path d="M269.113 -210.726L70.1621 882.023L76.103 882.898L275.053 -209.851L269.113 -210.726Z" fill="#157958"/>
<path d="M256.693 -212.499L57.7422 880.25L63.6831 881.125L262.634 -211.624L256.693 -212.499Z" fill="#157958"/>
<path d="M244.292 -214.263L45.3418 878.486L51.2827 879.361L250.233 -213.388L244.292 -214.263Z" fill="#157958"/>
<path d="M231.872 -216.035L32.9219 876.714L38.8628 877.589L237.813 -215.16L231.872 -216.035Z" fill="#157958"/>
<path d="M219.449 -217.8L20.5 874.94L26.4409 875.815L225.39 -216.925L219.449 -217.8Z" fill="#157958"/>
<path d="M207.031 -219.573L8.08008 873.176L14.021 874.051L212.971 -218.698L207.031 -219.573Z" fill="#157958"/>
<path d="M194.62 -221.345L-4.33008 871.404L1.61081 872.279L200.561 -220.47L194.62 -221.345Z" fill="#157958"/>
<path d="M182.199 -223.109L-16.752 869.64L-10.8111 870.515L188.139 -222.234L182.199 -223.109Z" fill="#157958"/>
<path d="M169.79 -224.892L-29.1602 867.857L-23.2193 868.732L175.731 -224.017L169.79 -224.892Z" fill="#157958"/>
<path d="M157.367 -226.646L-41.582 866.094L-35.6412 866.969L163.308 -225.771L157.367 -226.646Z" fill="#157958"/>
<path d="M144.956 -228.418L-53.9941 864.331L-48.0532 865.206L150.897 -227.543L144.956 -228.418Z" fill="#157958"/>
<path d="M132.538 -230.201L-66.4121 862.548L-60.4713 863.423L138.479 -229.326L132.538 -230.201Z" fill="#157958"/>
<path d="M120.116 -231.965L-78.834 860.784L-72.8931 861.659L126.057 -231.09L120.116 -231.965Z" fill="#157958"/>
<path d="M107.697 -233.738L-91.2539 859.011L-85.3131 859.886L113.637 -232.863L107.697 -233.738Z" fill="#157958"/>
<path d="M95.2731 -235.494L-103.676 857.246L-97.7349 858.121L101.214 -234.619L95.2731 -235.494Z" fill="#157958"/>
<path d="M82.8743 -237.274L-116.076 855.475L-110.135 856.35L88.8151 -236.399L82.8743 -237.274Z" fill="#157958"/>
<path d="M70.4544 -239.048L-128.496 853.701L-122.555 854.576L76.3953 -238.173L70.4544 -239.048Z" fill="#157958"/>
</g>
</svg>
