<svg width="456" height="631" viewBox="0 0 456 631" fill="none" xmlns="http://www.w3.org/2000/svg">
<mask id="mask0_52_12270" style="mask-type:luminance" maskUnits="userSpaceOnUse" x="-17" y="0" width="473" height="660">
<path d="M383.1 410.156C384.054 414.847 388.257 419.777 381.837 424.087C378.94 419.867 375.864 416.028 375.256 425.231C375.238 425.511 374.904 425.881 374.624 426.012C372.236 427.129 370.93 429.173 370.708 432.146C378.517 433.904 384.883 428.677 392.173 427.526C391.374 431.472 387.011 430.948 385.127 433.422C389.604 436.789 394.772 435.973 399.731 436.325C393.943 438.083 387.661 441.332 383.011 435.287C380.972 432.635 380.341 432.825 377.98 434.143C372.776 437.04 367.239 438.125 361.111 437.588C355.406 437.088 348.176 438.149 345.326 442.256C340.695 448.938 337.536 449.117 332.958 443.644C330.531 444.658 331.211 448.24 327.849 448.222C328.243 446.625 328.588 445.206 329.214 442.655C324.845 446.202 321.447 445.868 318.061 442.643C316.905 441.54 313.698 439.597 314.002 443.507C314.527 450.303 309.984 451.644 305.263 453.17C303.737 453.665 302.038 453.814 302.337 456.138C304.465 457.736 306.962 456.037 310.467 457.045C304.023 459.28 303.219 464.484 301.609 469.115C300.679 467.273 302.39 465.062 300.298 463.166C296.638 466.278 300.012 471.464 297.741 473.753C292.161 479.362 294.73 486.342 293.181 493.477C292.012 488.727 291.053 484.84 290.099 480.96C289.032 486.885 279.214 485.782 280.257 492.935C283.274 494.02 283.423 489.686 286.016 490.39C285.795 500.44 286.922 501.256 295.112 497.227C295.309 497.131 295.601 497.173 295.756 497.042C300.185 493.239 302.629 493.34 301.723 500.058C301.597 500.976 301.317 501.972 302.474 502.353C303.672 502.747 304.697 502.222 305.46 501.28C306.962 499.426 306.455 497.543 305.687 495.522C304.721 492.989 304.447 490.485 308.339 488.041C306.265 495.373 309.537 498.8 315.88 502.228C313.591 492.887 318.58 486.563 320.207 479.44C316.887 486.426 323.718 489.388 326.091 494.103C326.562 495.033 327.933 494.747 328.314 493.877C329.846 490.33 331.479 486.092 330.186 482.837C328.964 479.761 325.441 476.876 320.917 478.17C316.488 472.269 310.998 466.63 315.915 458.38C316.094 458.076 316.547 457.939 316.911 457.694C319.498 459.25 320.44 461.539 321.596 464.418C323.51 469.163 322.258 476.495 329.387 477.86C332.242 478.408 333.309 481.067 334.937 481.508C338.656 482.509 339.711 490.676 346.352 484.626C345.13 488.232 344.277 490.741 343.425 493.251C338.716 492.059 336.659 487.66 333.202 484.202C329.661 488.965 330.156 493.269 334.102 496.351C338.108 499.48 340.868 495.76 343.508 493.09C347.204 496.118 347.383 492.327 348.396 490.467C348.796 489.734 348.468 488.637 348.778 487.821C349.094 486.992 349.267 485.77 351.43 485.752C347.633 496.774 349.511 509.065 340.236 519.371C338.191 512.415 344.867 507.843 343.198 501.942C340.504 507.801 334.633 513.196 335.479 519.264C336.343 525.416 341.917 530.536 346.93 534.953C342.721 536.05 341.267 535.758 339.366 533.451C332.898 525.618 332.379 526.167 323.212 529.976C318.157 532.08 315.182 540.02 307.588 536.062C306.336 535.406 304.84 537.451 304.93 539.269C305.144 543.561 307.654 543.835 311.075 542.768C312.512 542.321 314.944 540.819 314.974 543.996C314.997 546.905 314.693 546.553 317.108 546.982C323.486 548.115 326.204 541.325 331.837 541.069C331.229 538.148 326.681 536.646 330.15 532.962C332.034 535.752 334.668 536.813 337.714 536.837C341.821 536.867 343.872 541.081 344.2 543.012C344.653 545.671 340.528 546.994 337.518 547.411C335.3 547.715 333.041 547.543 330.8 547.513C322.526 547.4 315.719 552.86 307.588 554.064C321.56 557.676 334.335 546.547 348.164 551.447C344.134 559.697 341.321 560.818 332.82 557.42C329.882 556.246 326.025 553.796 323.867 555.745C319.069 560.078 313.817 561.735 307.469 561.879C318.103 560.984 328.189 569.771 339.568 560.901C337.035 569.353 330.657 569.377 324.022 572.155C342.125 575.869 359.358 573.234 376.21 580.107C368.985 580.107 363.012 580.107 356.139 580.107C360.664 583.415 365.528 581.555 369.7 582.92C367.286 589.853 361.182 584.989 357.099 587.475C361.004 590.193 365.277 588.369 369.569 589.501C365.57 592.756 362.214 593.877 357.916 591.576C353.761 589.352 353.04 584.715 350.065 581.74C354.143 579.344 351.943 578.623 349.094 578.515C340.033 578.188 330.979 577.83 322.013 576.316C320.237 576.018 316.887 576.513 317.286 577.544C319.772 583.94 313.167 582.11 312.327 581.991C307.499 581.293 310.497 585.507 309.031 586.926C308.148 587.779 306.843 591.003 309.871 592.583C310.914 593.125 312.983 592.953 312.667 594.86C312.375 596.613 310.783 597.37 309.132 597.596C299.41 598.931 289.658 600.076 279.965 601.608C277.122 602.055 272.973 602.734 276.198 607.402C277.182 608.82 277.545 610.305 275.93 610.561C270.124 611.485 265.135 617.052 258.542 613.536C250.215 609.089 241.249 611.944 232.57 611.527C230.937 611.449 228.702 612.433 230.407 614.239C232.272 616.218 233.22 619.884 237.738 618.71C242.907 617.362 247.991 619.651 253.129 620.265C242.614 622.954 233.619 627.877 225.459 634.5C226.043 633.546 226.627 632.593 227.206 631.639C229.024 628.634 227.778 626.012 226.043 623.568C224.702 621.678 223.265 622.906 222.02 623.83C220.237 625.153 217.549 626.876 219.29 629.064C220.905 631.084 220.291 636.717 225.668 634.315C229.191 637.725 233.727 637.522 238.132 637.796C237.512 640.717 237.101 644.127 232.815 642.941C226.27 641.122 219.796 642.708 213.299 642.923C211.058 642.994 208.345 643.99 206.784 642.201C204.614 639.716 209.633 639.149 208.864 636.551C205.812 635.841 202.849 636.157 199.66 636.694C196.102 637.296 191.947 642.034 188.645 634.506C186.862 630.441 180.121 638.619 176.109 633.868C173.76 631.09 171.334 631.979 168.747 632.879C166.703 633.588 164.736 633.862 163.049 632.163C162.005 631.114 160.921 630.25 159.573 631.46C156.545 634.166 156.587 637.933 156.474 641.528C156.361 645.212 159.669 643.817 161.505 644.568C162.655 645.039 164.67 644.359 164.712 646.231C164.765 648.466 162.661 648.252 161.153 648.419C153.768 649.223 147.002 653.014 139.128 652.234C140.552 655.876 144.749 652.895 145.923 656.209C143.133 658.302 139.748 658.129 137.482 656.847C133.334 654.499 129.012 655.148 125.698 656.68C121.179 658.773 119.636 656.233 117.895 653.64C116.673 651.816 116.506 649.146 113.365 649.676C110.563 650.153 109.013 651.757 108.739 654.689C108.614 656.049 107.946 657.783 106.474 657.676C104.394 657.521 104.453 655.423 104.638 653.921C105.306 648.472 103.756 642.434 100.078 640.014C97.0736 638.035 97.3657 634.822 97.4909 634.452C99.0288 629.874 95.8337 629.552 93.3004 630.149C86.9461 631.639 87.7091 626.995 87.6733 623.741C87.6137 618.733 87.56 613.661 89.2291 608.755C89.6702 607.461 90.2186 605.298 88.335 604.511C84.2875 602.812 85.5512 601.822 88.5913 600.72C92.9546 599.134 95.6668 596.112 96.7636 591.528C97.92 586.7 100.102 582.891 105.759 582.008C108.572 581.573 109.478 578.724 110.39 576.286C106.158 574.963 110.515 573.592 110.402 572.227C110.283 570.778 118.229 567.202 109.258 568.114C108.995 568.143 108.358 567.154 108.364 566.647C108.381 565.539 109.419 565.473 110.259 565.103C113.198 563.81 117.43 563.083 118.664 560.788C121.364 555.787 128.529 553.045 126.282 545.128C125.525 542.47 128.535 539.334 131.533 537.04C136.32 533.374 140.153 528.492 145.798 525.821C146.62 525.434 147.515 524.003 147.455 523.121C147.014 516.51 150.37 511.444 154.292 506.854C161.666 498.228 169.01 489.68 171.346 477.353C166.846 481.281 163.925 485.567 160.909 489.8C159.091 492.351 157.547 495.313 154.382 496.535C149.988 498.228 147.252 501.847 143.998 504.928C141.578 507.217 143.348 510.138 142.525 511.986C140.35 516.88 136.97 521.321 132.535 524.641C126.228 529.362 121.513 535.043 118.843 542.708C117.323 547.072 115.296 551.918 109.615 554.249C109.097 549.742 111.505 546.851 112.9 543.638C113.734 541.713 115.85 539.704 113.347 537.588C108.995 533.916 110.223 529.082 111.541 525.011C113.263 519.676 116.071 514.639 118.843 509.715C122.938 502.443 125.835 494.789 127.826 486.712C122.795 490.08 120.72 495.373 118.032 500.225C113.436 508.523 108.787 516.528 101.169 522.835C92.4539 530.053 83.4113 538.798 83.9179 550.732C84.4067 562.218 80.1685 570.975 74.7561 579.97C74.2852 580.745 73.3731 581.579 73.4447 582.306C73.7904 585.692 72.783 590.02 78.6426 590.509C76.3893 592.005 74.4759 593.215 73.4864 595.766C71.4955 600.875 64.9981 601.954 63.1264 597.173C61.4216 592.827 58.4531 595.367 55.6276 593.978C61.9819 586.694 61.8686 577.168 66.4704 569.473C69.0634 565.139 68.5806 564.901 64.1517 561.032C63.5854 560.537 63.1622 559.345 63.335 558.636C64.2053 555.012 62.8105 551.805 61.7733 548.514C61.1295 546.47 61.7315 542.977 59.0909 542.959C56.0389 542.941 56.4919 546.66 55.7051 548.866C54.9004 551.125 55.8899 553.337 56.3071 555.554C56.8913 558.684 57.4338 561.837 56.7423 565.008C56.4383 566.421 55.6634 567.595 53.9228 567.166C52.7783 566.886 51.3417 565.825 51.7948 564.942C55.4786 557.783 46.5909 551.316 50.7695 544.151C51.2642 543.304 50.7039 541.868 49.5475 541.254C48.564 540.729 47.4672 541.314 47.2824 542.077C45.6551 548.794 36.2249 550.362 36.5826 558.493C36.6422 559.864 36.058 562.308 33.6141 562.421C32.4517 562.475 31.4324 561.968 30.9853 560.692C30.3594 558.892 29.3282 557.712 31.4562 555.494C34.3532 552.478 33.2683 550.69 29.1315 549.683C30.8125 546.207 30.7767 541.707 35.4321 540.36C33.9658 538.059 32.1239 539.603 30.8005 538.852L30.9376 538.983C30.6277 534.995 27.8916 535.74 25.3404 536.11L25.4834 536.277C26.2762 530.566 20.1902 533.457 18.5748 530.757C15.1055 532.986 10.3368 533.803 9.62153 539.013C9.62153 539.013 9.60365 538.685 9.60365 538.679C8.08958 538.893 4.1256 536.932 3.39837 534.256C1.90815 528.748 -0.535811 531.764 -1.59685 533.719C-5.4595 540.819 -8.46974 535.865 -10.0971 532.766C-13.1669 526.912 -12.6126 520.099 -12.8093 513.673C-13.1669 502.145 -12.9106 490.592 -12.9106 478.73C-16.0341 479.809 -15.3844 481.854 -15.3903 483.487C-15.4738 498.407 -15.5036 513.333 -15.5334 528.259C-15.5334 530.763 -15.4261 533.254 -13.4888 535.198L-13.459 535.102C-16.207 537.886 -15.5095 541.415 -15.5095 544.771C-15.5215 579.916 -16.4752 462.672 -16.4573 374.868C-16.4573 354.678 -17.3336 334.423 -16.0937 314.305C-14.9015 294.915 -20.7015 275.303 -12.5947 255.901C-9.88247 249.409 -11.8615 240.331 -11.8734 232.433C-11.8973 219.259 -11.7363 206.044 -9.82882 192.87C-9.04795 187.47 -8.63665 181.574 -7.67695 176.394C-6.31191 168.991 -9.59635 161.409 -5.93637 154.429C-9.60231 152.736 -4.66074 150.333 -6.41324 148.247C-7.96307 148.7 -9.44137 149.135 -11.1819 149.642C-12.2966 144.748 -9.38176 139.622 -7.99287 136.659C-5.19126 130.674 -12.6185 135.002 -10.4905 133.595C-6.13904 130.728 -8.83932 128.081 -8.95257 124.702C-9.1016 120.344 -7.96903 116.029 -8.23131 111.194C-8.60088 104.411 -9.07179 97.4843 -9.22677 90.6114C-9.42944 81.3541 -12.6185 72.0492 -9.07179 61.2481C-8.93469 66.7977 -6.12116 69.5337 -4.47595 72.8003C-5.75158 76.0132 -4.05273 78.6777 -3.24205 81.9741C0.0662363 76.8477 -0.494085 74.1653 -4.67266 72.991C1.62203 68.9913 -1.25112 63.3225 -2.42541 58.357C-4.73227 48.5872 -2.64 38.9246 -2.95593 29.1905C-1.65646 32.9279 -1.23323 36.7012 -0.774246 40.4744C0.459656 50.5841 0.602715 60.9798 3.18378 70.7318C8.31013 90.0928 11.6482 109.615 12.8225 129.566C12.9596 131.849 11.5111 135.276 14.277 136.29C17.2932 137.386 19.6 134.662 21.74 132.624C27.8916 126.752 34.079 120.916 40.5525 114.783C39.3186 118.544 36.8389 121.34 34.5321 124.243C32.5709 126.716 29.7693 128.94 28.8871 131.759C27.0213 137.72 27.4446 137.857 22.5924 140.522C20.6074 141.613 18.5748 142.62 16.5958 143.717C12.9775 145.72 11.6482 148.712 12.4768 152.807C12.9656 155.233 13.2457 157.719 13.359 160.193C13.6749 167.024 14.581 167.578 21.0843 164.64C24.3211 163.179 27.2896 160.699 31.2476 161.909L31.0986 161.743C29.06 168.073 23.7309 171.375 18.6761 174.749C15.3201 176.99 15.4632 179.893 15.9043 183.1C16.1666 184.996 17.7641 186.391 19.2066 185.634C25.8888 182.135 33.9777 185.3 40.2724 181.264C44.7311 178.403 49.3925 176.257 54.3818 174.97C60.7897 173.319 63.9848 167.298 69.1409 164.21C70.6073 173.122 59.0432 171.918 57.4159 179.846C66.9712 175.596 73.1288 168.657 81.1223 162.708C80.5202 166.738 78.4637 169.164 76.4132 170.827C68.7475 177.044 61.2785 183.458 53.8453 189.938C51.4967 191.988 49.4342 197.645 44.0277 194.378C43.7297 194.2 41.7268 195.881 41.3155 196.989C39.4259 202.128 42.9846 207.826 48.5222 209.036C49.7979 209.316 51.9259 208.267 52.0392 210.884C48.1705 212.851 43.2528 207.927 40.0697 212.577C37.7986 215.897 34.4665 218.86 34.2459 224.761C45.518 218.627 56.0925 213.531 67.8712 209.71C66.6493 214.949 64.0801 217.423 60.1698 218.872C57.8868 219.718 55.0077 220.415 54.1493 222.925C53.3565 225.244 53.0704 224.815 50.9125 224.23C43.8668 222.335 29.3401 228.606 25.9841 234.632C25.2688 235.914 25.0543 238.113 25.6742 239.353C26.5802 241.159 28.4102 239.925 29.8408 239.365C32.0821 238.483 34.3353 237.613 38.2338 236.099C34.2459 240.003 33.3399 243.454 32.2073 246.488C35.7242 248.563 39.3604 241.958 40.8685 246.125C42.7163 251.245 48.5461 252.867 49.6965 258.279C50.4476 255.907 51.2046 253.534 52.1584 250.524C52.5101 252.992 51.4192 255.179 53.5413 256.795C58.1133 252.682 58.5365 245.827 63.6033 241.988C65.0398 246.852 59.2637 249.296 61.5646 254.524C67.0844 245.892 73.3255 238.727 81.021 233.047C83.7391 240.313 75.68 243.639 74.458 249.558C75.3462 249.797 75.835 250.113 76.1867 249.999C90.8504 245.284 102.111 235.407 112.488 224.719C114.33 222.818 115.028 219.331 118.229 217.948C121.346 216.601 124.309 214.89 127.391 213.447C128.964 212.708 130.949 211.266 132.261 213.072C132.899 213.948 132.249 216.201 131.551 217.489C130.49 219.456 128.893 221.137 127.51 222.925C119.165 233.732 108.149 241.565 96.4477 247.877C89.8788 251.418 88.8178 256.02 88.6211 261.951C88.5913 262.762 89.3722 263.566 88.937 264.848C86.952 270.63 90.457 271.78 95.19 272.156C97.0855 272.305 99.303 268.967 101.002 272.692C98.8082 273.593 97.1332 275.524 94.3316 274.826C89.4675 273.61 88.9787 276.615 89.5569 280.257C90.3497 285.258 91.4227 290.223 90.2365 295.445C93.5507 295.35 94.3614 292.822 96.0722 291.505C98.23 289.836 98.0929 284.507 101.669 286.092C104.191 287.213 100.763 290.837 101.026 293.436C101.055 293.74 101.586 293.997 102.51 294.855C104.59 289.425 112.059 289.353 113.365 283.768C114.295 279.786 116.911 277.467 119.2 274.958C121.501 272.436 125.644 271.089 128.702 272.09C132.016 273.169 130.395 277.181 130.3 279.989C130.049 287.553 123.427 291.404 120.095 297.186C119.636 297.984 118.431 298.372 117.758 297.472C113.848 292.202 113.901 297.543 113.341 299.302C112.083 303.242 111.308 307.337 110.325 311.42C113.293 311.17 114.038 306.92 116.673 307.73C122.163 309.423 123.713 306.175 125.316 302.181C125.722 301.174 127.224 300.613 128.273 299.803C129.548 302.747 129.912 305.585 130.109 308.69C131.653 305.364 131.533 300.869 136.755 301.162C138.311 305.275 137.178 309.292 135.939 312.869C139.509 314.252 138.836 308.529 141.971 309.948C144.361 311.027 139.438 313.566 141.661 314.508C152.987 313.733 153.833 304.75 157.177 297.448C157.487 301.311 157.803 305.173 158.113 309.084C163.996 306.121 161.874 301.168 161.815 297.269C174.875 298.491 163.424 307.599 166.494 312.076C169.308 311.641 169.29 308.547 171.644 307.409C170.15 314.2 170.667 319.07 173.194 322.019C180.711 314.645 174.905 304.196 179.06 295.88C176.568 295.97 177.164 299.957 174.011 299.755C173.629 295.809 176.395 292.888 177.075 289.407C177.277 288.358 178.785 287.773 179.03 288.375C180.216 291.278 185.962 290.664 184.412 295.666C183.62 298.229 183.429 300.995 183.107 303.683C182.952 304.994 182.785 306.592 184.961 306.419C186.117 306.33 187.613 306.026 187.387 304.673C186.332 298.384 189.962 291.702 185.384 285.616C183.846 283.565 182.183 281.556 184.52 277.58C187.709 272.15 191.422 266.583 192.77 260.127C192.925 259.376 192.716 258.547 192.674 257.79C190.868 257.808 191.238 260.52 189.467 259.763C188.096 255.102 189.485 251.168 191.965 247.406C192.877 246.023 195.005 243.562 192.889 242.894C188.782 241.6 191.709 239.735 191.56 237.952C190.993 231.276 197.693 224.379 190.886 217.84C189.885 216.881 191.089 215.039 192.197 214.365C196.155 211.951 197.789 208.136 198.719 202.676C201.663 215.313 199.356 226.937 201.037 238.376C201.413 240.933 204.381 243.109 202.665 245.654C197.717 252.986 197.175 261.528 195.243 269.76C193.837 275.762 195.196 281.652 194.48 287.648C193.407 296.596 194.2 305.763 194.2 314.794C196.441 313.84 194.82 310.21 197.723 309.537C199.797 313.507 200.888 317.56 199.082 321.888C198.397 323.527 196.829 326.525 196.084 325.899C192.15 322.603 193.491 326.126 193.187 327.783C192.948 329.1 192.776 330.549 192.096 331.64C187.81 338.566 190.01 345.993 189.086 354.154C193.05 351.591 191.887 348.98 191.756 346.649C191.625 344.312 192.174 342.768 194.88 342.363C197.252 342.011 199.404 341.374 200.131 344.64C200.692 347.156 202.724 347.209 204.739 348.151C207.648 349.516 213.382 349.659 212.506 354.75C211.928 358.106 213.668 359.644 215.194 361.843C210.271 361.307 205.8 366.225 207.457 370.057C209.931 375.768 218.354 380.06 225.703 379.243C222.455 376.251 218.646 373.7 218.324 367.22C222.127 371.208 226.365 372.549 228.565 376.442C229.352 377.836 230.419 379.535 232.183 378.158C233.423 377.187 232.451 375.702 231.629 374.57C230.341 372.805 228.654 371.244 228.422 368.913C230.126 367.619 231.027 370.928 232.666 369.42C232.088 364.067 224.279 363.661 224.601 357.689C224.815 357.754 225.042 357.802 225.25 357.885C227.766 358.911 229.274 364.734 232.654 360.669C235.539 357.2 230.782 354.279 229.471 351.138C228.893 349.749 227.188 350.196 226.001 351.239C223.814 353.158 221.906 355.09 224.815 357.903C223.48 357.081 222.234 355.829 220.78 355.507C216.089 354.458 218.586 350.524 218.443 348.443C218.252 345.6 221.602 350.381 222.896 347.585C219.915 342.059 210.008 343.788 209.323 335.168C212.554 335.508 213.317 338.483 215.647 339.383C222.419 342.011 228.469 345.713 232.469 352.038C233.435 353.564 234.812 354.535 236.379 353.874C238.263 353.081 237.625 351.239 237.13 349.725C236.534 347.895 233.965 346.196 236.731 344.05C238.65 346.417 238.841 351.722 242.823 350.035C253.958 345.326 256.265 340.408 256.301 328.17C256.342 315.444 257.117 302.914 265.135 291.934C267.859 288.197 269.218 283.368 270.744 278.886C272.139 274.797 274.046 271.089 276.657 266.779C280.681 275.524 274.124 282.504 274.612 291.314C282.517 276.454 290.784 263.173 290.212 246.727C290.141 244.706 290.331 241.362 292.996 241.237C296.31 241.082 295.118 244.533 295.589 246.524C295.845 247.609 295.535 248.837 295.839 249.904C296.423 251.984 295.547 255.281 298.075 255.817C300.769 256.389 301.216 253.093 302.193 251.215C305.412 245.052 307.832 238.572 310.276 232.045C317.674 212.267 322.764 191.845 328.392 171.566C329.113 168.961 330.067 166.058 326.013 165.069C318.914 163.34 318.27 155.645 313.305 151.734C316.458 153.993 319.736 155.102 323.378 155.442C324.809 155.579 326.949 155.537 325.828 158.142C325.167 159.674 325.268 160.932 327.223 160.944C329 160.956 329.327 159.328 329.429 158.023C330.204 148.342 334.74 139.044 333.434 129.274C332.284 120.654 339.819 117.775 343.091 112.136C344.2 110.229 345.797 111.79 347.037 112.828C348.366 113.942 347.747 116.571 351.317 116.976C351.609 108.691 350.208 100.077 354.274 92.3877C357.433 94.3727 351.681 98.4142 356.074 99.3798C358.273 99.8626 362.166 101.866 362.732 96.1788C363.692 100.894 360.914 104.953 363.048 109.77C367.447 102.533 368.854 94.8853 372.52 88.2986C368.931 102.42 364.741 116.285 360.771 130.215C360.169 132.332 357.844 135.813 360.723 136.766C365.462 138.346 362.768 140.617 361.832 142.31C360.27 145.147 359.799 148.325 358.589 151.085C357.606 153.326 360.103 159.597 353.374 157.779C353.028 157.683 352.009 159.46 351.556 160.479C349.988 163.996 348.14 167.453 347.103 171.131C343.24 184.871 340.319 198.879 335.127 212.243C334.019 215.092 333.101 217.852 329.202 219.462C330.031 211.182 333.601 204.738 335.872 197.937C342.119 179.244 342.775 159.632 345.905 140.426C346.215 138.531 346.566 136.391 344.2 135.998C341.106 135.485 341.69 138.239 341.166 140.116C335.539 160.354 333.816 181.574 324.809 200.995C318.109 215.432 317.125 231.878 308.399 246C305.013 251.484 304.226 259.024 299.285 264.341C297.854 265.879 297.705 267.733 300.048 269.408C304.798 272.812 304.429 284.28 299.636 287.469C298.313 288.352 295.982 289.222 296.245 286.695C296.906 280.34 291.392 275.005 293.64 268.401C292.263 275.357 285.807 280.12 286.963 288.387C287.482 292.095 285.849 297.472 279.792 299.975C272.693 302.908 271.984 309.262 276.574 316.135C277.861 314.079 279.411 312.356 280.108 310.329C281.837 305.304 284.12 303.957 287.953 308.452C289.223 309.942 290.278 310.323 291.72 308.505C295.344 303.927 296.829 306.312 297.604 311.182C300.566 307.248 306.342 305.382 302.897 299.141C302.319 298.098 303.07 297.162 303.785 296.154C309.633 287.952 313.054 278.629 316.947 269.42C318.944 264.681 319.015 259.477 322.252 254.774C326.752 248.241 331.897 242 334.907 234.167C338.358 225.184 337.601 215.611 340.915 206.735C342.948 201.287 342.447 201.102 347.156 204.637C347.693 200.673 349.737 197.526 351.365 194.158C352.873 191.04 355.824 187.619 354.089 184.042C352.372 180.495 353.988 178.075 355.061 175.172C358.345 166.273 362.017 157.469 364.616 148.366C373.348 117.751 376.138 85.8069 385.193 55.2336C386.582 50.5543 387.678 45.0524 386.564 40.5042C383.369 27.432 389.973 16.1481 391.863 4.05344C392.03 2.98048 392.757 0.619971 394.957 2.5811C397.329 4.69721 398.682 4.54819 401.222 1.82407C402.157 0.816677 403.034 -0.452986 404.584 0.160984C406.312 0.846486 405.722 2.38439 405.406 3.66598C404.589 6.96235 403.695 10.2468 402.843 13.5312C401.251 19.6471 397.991 25.9179 400.131 32.0755C402.205 38.0424 400.208 42.6859 397.943 47.4904C396.113 51.3709 393.377 54.8103 391.338 58.6014C388.614 63.6622 387.965 68.8422 391.577 73.8732L391.481 73.7957C389.014 74.1951 387.762 76.2993 387.965 78.1293C388.912 86.8679 384.799 94.4979 382.802 102.521C380.573 111.486 380.49 120.529 379.137 129.607C382.159 129.542 381.044 125.059 383.929 126.234C386.129 127.128 384.978 129.357 384.895 131.074C382.314 134.179 381.384 138.298 378.409 141.225C376.454 143.145 377.831 145.392 378.713 147.472C379.834 150.107 380.859 152.783 382.433 156.694C385.902 147.627 380.829 138.757 384.775 130.931C387.112 127.324 389.02 126.955 392.101 130.698C396.214 135.694 397.86 140.772 395.827 146.948L395.988 146.739C394.384 152.652 390.444 157.796 392.209 164.759C394.522 173.891 382.85 171.161 380.978 176.669C379.84 180.025 377.289 176.877 375.989 178.755C371.089 185.842 365.969 192.775 360.998 199.815C360.503 200.518 360.36 201.514 360.193 202.402C355.603 226.949 346.328 250.095 338.841 273.777C338.251 275.643 336.981 277.878 338.501 279.577C340.415 281.717 341.476 278.886 342.96 278.284C343.687 277.992 344.76 278.105 345.523 278.415C350.059 280.257 353.66 278.111 356.592 275.273C362.768 269.295 372.383 269.295 378.344 262.773C376.907 264.896 375.465 267.012 373.849 269.396C378.636 270.642 381.861 269.563 385.616 267.018C392.328 262.475 398.384 257.754 401.532 250.029C402.008 248.855 402.855 247.329 404.524 248.384C405.668 249.105 405.275 250.452 404.739 251.466C401.901 256.777 400.035 262.589 393.419 265.182C388.978 266.922 385.193 270.314 380.466 273.396C386.76 274.683 401.639 267.906 404.333 263.256C404.44 263.072 404.792 262.917 404.78 262.779C403.97 256.044 410.276 254.267 413.221 250.083C412.97 255.865 406.61 259.334 408.047 265.629C411.2 266.809 413.93 263.262 417.745 265.051C409.746 270.582 400.858 273.086 392.549 276.835C386.737 279.458 380.937 279.237 376.49 275.804C370.463 271.155 365.206 273.593 360.074 275.917C356.247 277.652 352.813 280.412 348.855 282.128C345.106 283.756 345.541 287.714 345.893 290.277C346.34 293.526 350.155 292.238 352.277 291.863C358.393 290.778 364.401 289.103 370.934 287.541C368.854 291.177 365.814 291.267 362.917 291.249C358.154 291.225 354.149 293.216 350.208 295.493C348.599 296.423 346.805 297.597 348.462 299.725C352.623 305.054 347.019 304.649 344.909 305.173C337.297 307.069 331.318 313.036 329.87 320.999C333.13 321.291 333.75 316.863 337.625 316.654C335.521 321.989 336.272 327.425 333.339 332.14C334.615 331.628 335.64 331.043 336.2 330.161C338.263 326.93 340.14 323.58 342.155 320.314C345.41 315.033 353.624 311.903 358.983 313.852C360.217 314.299 360.89 315.301 360.658 316.481C360.032 319.676 361.498 321.226 364.139 322.901C367.286 324.898 366.792 327.264 363.191 328.784C358.989 330.555 354.727 331.932 350.101 331.729C347.758 331.628 345.463 331.508 344.76 334.542C343.884 338.328 341.559 338.423 338.06 337.994C329.333 336.927 319.206 344.426 318.55 351.048C324.153 351.99 328.994 348.366 334.633 348.205C336.629 348.145 339.324 348.64 340.2 346.536C342.668 340.623 345.374 343.937 347.913 346.136C349.112 347.174 349.803 349.153 351.281 346.589C353.32 343.043 356.95 343.561 360.193 342.733C364.437 341.648 369.289 343.412 373.009 340.164C377.599 336.152 382.01 331.938 386.617 327.95C391.16 324.01 395.463 319.587 402.765 318.514C399.809 330.573 388.668 334.411 382.093 342.482C384.388 341.392 386.677 340.307 389.526 338.954C389.109 340.217 389.079 340.962 388.698 341.362C380.817 349.57 371.674 354.851 359.799 354.243C357.242 354.112 354.673 354.959 352.742 357.42C357.302 358.744 362.541 358.547 361.498 365.98C365.969 362.851 369.653 359.9 373.676 357.522C382.975 352.02 391.38 345.201 400.727 339.722C408.571 335.127 418.305 332.915 422.8 323.461C423.724 321.524 426.466 320.451 428.373 318.979C426.758 321.423 424.833 323.282 423.241 325.524C421.852 327.479 424.547 330.805 421.87 331.675C415.337 333.797 414.836 341.541 409.239 344.432C408.142 344.998 407.826 346.858 408.53 348.163C409.471 349.91 410.836 348.765 412.047 348.372C418.896 346.166 424.773 341.171 432.391 341.892C431.932 343.973 430.555 346.339 428.35 347.889C418.836 354.589 408.685 359.9 396.733 360.276C392.405 360.413 389.151 361.331 386.462 365.265C384.156 368.633 380.955 372.126 376.293 372.126C367.638 372.126 359.299 376.215 350.441 373.884C348.623 373.407 346.405 374.26 344.414 374.695C342.227 375.172 341.398 376.704 342.161 378.784C343.097 381.353 349.737 383.028 351.925 381.335C353.433 380.167 354.888 377.604 356.223 381.568C358.333 387.833 366.07 391.85 372.717 390.271C367.876 394.33 367.602 401.835 371.668 408.726C374.988 414.353 379.029 412.165 383.184 410.275L383.059 410.192L383.1 410.156ZM258.703 564.734C256.527 563.81 255.877 566.373 254.793 567.613C254.065 568.441 253.582 569.532 254.435 570.677C256.366 573.288 257.934 569.616 259.758 570.379C261.94 572.668 263.978 572.34 266.19 570.271C267.799 568.769 269.474 567.208 267.519 565.223C265.57 563.244 264.491 565.401 263.323 566.76C262.148 568.12 260.807 569.33 259.537 570.611C259.913 568.537 261.719 566.009 258.709 564.734H258.703ZM288.489 541.004C286.677 538.84 282.964 537.081 287.595 533.97C288.448 533.397 287.941 531.746 287.035 530.971C285.265 529.457 275.125 533.403 275.417 535.657C275.757 538.285 274.738 539.937 273.784 542.154C271.769 546.827 275.673 550.994 280.681 549.557C283.75 548.675 287.285 548.067 289.515 545.188C291.893 546.207 294.432 546.881 296.566 545.051C297.931 543.883 297.228 542.023 296.471 540.622C295.792 539.364 295.857 537.248 293.544 537.469C291.44 537.665 291.315 539.305 290.969 540.89C290.629 542.428 290.045 543.906 289.568 545.409C289.992 543.746 289.544 542.255 288.489 540.998V541.004ZM291.392 327.997C289.324 324.534 288.477 319.611 283.405 320.701C278.785 321.691 280.359 325.327 281.479 328.349C278.845 326.549 278.463 330.376 276.574 330.453C274.708 327.968 279.989 325.345 276.383 323.211C273.009 321.214 271.274 325.071 268.699 325.917C266.947 323.914 269.009 322.013 268.729 319.819C267.978 320.046 267.293 320.058 266.893 320.403C258.804 327.336 258.745 328.659 266.1 336.617C268.103 338.781 267.298 347.191 264.378 348.312C258.232 350.673 258.941 355.763 258.017 360.681C271.823 356.335 276.967 344.765 282.433 333.547C283.423 331.52 282.207 329.601 281.003 327.896C284.43 329.124 287.774 325.667 291.386 328.003L291.392 327.997ZM158.65 444.902C163.359 444.664 168.515 441.141 171.579 436.342C173.725 432.975 175.936 429.613 180.431 435.585C180.431 433.338 180.615 432.235 180.389 431.228C179.942 429.225 178.94 426.602 181.432 425.988C183.083 425.577 184.919 428.563 187.393 427.443C187.643 428.921 187.286 430.757 190.051 429.75C192.138 428.987 192.925 427.783 192.996 425.78C193.032 424.874 193.193 423.962 193.121 423.068C192.609 416.803 194.355 413.518 200.99 417.363C203.851 419.02 206.056 416.767 206.736 415.497C208.143 412.874 209.311 409.31 208.637 406.627C208.029 404.213 205.925 406.425 204.822 407.718C203.91 408.791 203.809 410.883 201.413 409.882C199.207 408.958 201.765 406.83 200.107 405.817C197.824 406.77 196.185 412.427 192.764 406.532C191.756 404.791 190.588 408.893 187.25 408.559C186.612 408.451 187.411 406.645 186.999 405.531C186.189 403.337 185.152 401.877 182.529 403.122C180.103 404.279 181.062 406.019 181.67 407.718C183.272 412.185 182.598 416.127 179.65 419.545C180.371 413.31 178.01 408.106 179.226 401.966C175.686 402.979 174.303 404.684 173.796 407.659C173.266 410.788 174.714 415.217 168.33 414.8C165.82 414.639 169.647 417.321 168.789 418.913C160.396 419.497 160.623 412.57 158.971 406.884C153.791 409.775 153.154 414.621 156.051 417.655C159.46 421.238 155.276 425.619 158.954 428.361C156.206 430.727 153.106 426.423 150.167 429.66C154.334 430.942 157.618 433.279 160.104 436.772C157.523 437.839 155.633 434.238 153.124 435.788C152.611 436.104 151.949 437.237 152.033 437.32C156.706 442.041 144.331 446.071 151.985 451.262C152.14 446.69 153.541 445.17 158.655 444.908L158.65 444.902ZM63.9967 304.851C67.7103 301.585 67.2334 304.5 67.5076 306.997C67.5434 307.307 70.5775 307.897 71.7637 307.349C74.309 306.181 78.7975 305.215 78.1895 302.288C77.0391 296.721 80.9137 293.204 81.9747 288.644C82.4337 286.653 83.1251 284.781 80.1685 285.067C76.7291 285.401 76.8781 282.498 75.3581 280.895C68.3004 273.461 76.1092 269.128 79.0837 264.556C80.4249 262.499 80.407 261.522 79.9182 259.853C79.0479 256.884 77.6113 259.161 76.3834 259.543C65.6419 262.881 64.1099 265.367 66.7208 277.324C67.3765 280.328 66.9354 282.528 65.4571 284.924C61.8329 290.808 59.5081 299.236 59.377 306.872C61.2845 305.948 60.14 299.516 63.9967 304.851ZM161.546 366.278C162.315 368.519 163.919 371.083 159.424 372.501C156.885 373.306 158.393 376.525 160.39 377.813C161.749 378.689 163.448 378.85 162.643 381.073C161.886 383.165 160.104 382.879 158.65 382.516C156.194 381.908 154.572 382.498 154.209 385.049C153.797 387.988 156.736 387.69 157.958 387.702C160.342 387.731 164.575 392.721 165.046 385.293C165.206 382.712 168.521 386.73 170.601 384.334C171.68 380.859 164.229 380.507 166.667 376.018C169.761 375.899 174.738 379.559 175.209 372.269C169.808 373.366 166.047 370.844 166.542 364.836C166.947 359.924 164.652 358.249 161.237 356.3C160.706 359.709 160.384 362.916 161.541 366.272L161.546 366.278ZM227.355 424.117C230.574 424.862 230.55 421.661 231.944 420.147C237.226 414.406 234.233 405.751 239.193 399.832C240.522 398.246 238.704 396.959 237.375 396.112C236.046 395.272 234.418 395.552 233.798 396.816C230.413 403.701 223.295 409.036 225.125 418.144C225.632 420.063 223.766 423.288 227.355 424.117ZM179.715 385.359C178.851 386.807 181.003 387.934 182.35 388.816C184.603 390.283 186.988 389.257 187.655 387.594C189.414 383.231 196.567 383.553 196 377.55C195.953 377.032 195.19 376.102 194.892 376.155C187.22 377.437 187.345 371.828 186.934 365.229C181.039 372.042 183.149 379.607 179.709 385.359H179.715ZM-15.0088 374.176C-8.6128 359.489 -10.9077 344.444 -12.9106 329.553C-16.3441 344.432 -15.2234 359.31 -15.0088 374.176ZM171.138 341.171C173.128 346.81 165.85 350.881 168.622 356.55C170.106 359.59 173.522 359.167 176.258 360.693C176.717 358.165 176.896 355.888 177.569 353.772C178.589 350.589 172.437 351.161 174.529 346.81C175.829 344.11 177.271 339.246 172.777 337.261C171.316 336.617 171.257 333.404 168.807 335.007C167.048 336.158 167.889 337.708 168.145 339.275C168.348 340.533 167.966 341.88 167.847 343.192C169.534 343.198 169.367 340.67 171.138 341.171ZM284.561 475.821C282.332 473.973 283.643 471.303 282.701 469.211C282.201 473.628 279.781 477.669 280.722 482.247C291.476 476.759 296.451 471.537 295.648 466.582C295.172 471.869 289.562 467.798 288.191 471.5C286.034 469.467 288.37 466.767 286.928 463.971C284.567 468.144 286.773 472.322 284.561 475.815V475.821ZM333.87 382.408C334.215 380.757 336.218 378.975 334.478 377.509C332.445 375.798 330.806 377.789 329.286 379.07C324.082 383.457 322.991 390.7 318.109 395.427C322.717 390.181 332.129 390.742 333.87 382.408ZM396.745 25.8881C397.52 23.9509 397.246 21.4532 394.992 20.7081C392.537 19.8975 391.559 22.2103 390.772 24.076C388.316 29.9117 386.617 35.8726 389.443 42.7693C391.899 37.1482 394.474 31.5808 396.751 25.8881H396.745ZM327.998 515.682C324.469 510.758 327.36 506.8 329.196 501.34C323.879 503.426 324.243 507.462 324.994 510.013C325.983 513.393 320.082 514.245 323.051 517.792C325.351 520.546 320.762 523.955 324.004 527.216C331.64 523.389 332.463 521.911 327.998 515.676V515.682ZM185.158 479.225C178.964 486.175 166.732 487.987 166.995 501.948C174.625 494.711 180.043 487.099 185.158 479.225ZM351.329 403.742C350.298 404.601 348.861 405.227 348.939 406.729C349.034 408.559 350.703 408.141 351.919 408.547C353.314 409.018 354.375 410.436 355.758 411.021C357.981 411.956 360.205 411.152 361.802 409.638C364.061 407.504 361.54 407.241 360.348 406.061C357.665 403.409 362.392 402.866 362.154 400.094C358.518 401.59 354.453 401.149 351.329 403.748V403.742ZM309.913 503.796C310.604 506.472 308.768 509.071 310.217 511.622C311.069 513.13 310.11 516.23 313.424 515.61C316.589 515.02 316.506 513.136 315.29 510.645C313.227 506.418 317 508.862 318.967 508.004C315.814 505.846 313.424 503.897 309.913 503.796ZM123.689 647.447C122.103 647.846 120.78 649.009 121.334 650.88C121.877 652.728 123.558 652.848 125.185 652.621C129.107 652.079 131.945 650.421 131.921 645.551C128.511 645.003 126.24 646.803 123.689 647.441V647.447ZM328.982 353.027C329.405 355.006 330.126 358.636 332.993 358.332C335.825 358.028 337.142 354.988 337.41 352.193C337.673 349.421 335.568 349.653 333.601 349.91C331.897 350.72 328.225 349.48 328.982 353.033V353.027ZM361.641 426.912C361.612 426.787 360.294 426.686 360.044 426.978C358.697 428.546 357.946 430.441 357.952 432.521C357.952 433.714 359.036 433.845 359.919 433.881C364.371 434.047 368.192 433.368 367.9 427.163C365.54 426.823 363.394 433.726 361.641 426.912ZM150.9 634.208C150.519 635.352 149.231 636.747 151.222 637.504C152.796 638.1 153.565 636.717 154.423 635.662C157.463 631.889 154.542 627.931 154.334 624.11C153.189 627.478 152.033 630.84 150.906 634.214L150.9 634.208ZM197.616 470.105C197.896 468.835 199.1 467.476 197.753 466.391C196.316 465.241 195.208 466.642 194.343 467.566C192.388 469.67 190.582 471.917 188.245 474.665C191.798 472.841 196.471 475.249 197.616 470.105ZM214.115 613.19C207.32 613.226 205.395 614.525 202.379 622.072C206.158 619.21 209.937 616.355 214.115 613.19ZM5.77676 119.504C5.46084 119.134 2.7844 120.785 1.19881 121.495C3.55335 123.307 1.78893 128.064 6.74838 128.481C7.86307 125.041 7.89287 121.983 5.7708 119.498L5.77676 119.504ZM244.212 570.969C243.574 572.119 245.166 572.936 246.316 572.519C249.148 571.499 251.341 569.801 251.252 566.367C251.216 565.05 250.674 564.263 249.881 564.352C245.547 565.032 245.529 568.59 244.206 570.969H244.212ZM53.1836 292.673C55.7587 291.833 57.7914 290.903 57.237 287.714C57.0403 286.581 56.2952 285.103 55.1805 285.711C53.0346 286.885 51.2106 288.656 49.327 290.122C50.5549 291.815 50.9483 293.395 53.1777 292.673H53.1836ZM294.695 554.266C295.809 553.617 297.079 551.995 296.155 550.97C293.789 548.335 290.808 550.481 287.929 550.803C289.801 553.062 291.112 556.353 294.695 554.266ZM-12.6364 449.736C-16.0639 454.612 -16.2725 458.499 -13.9001 466.838C-11.7721 461.068 -14.1505 455.751 -12.6364 449.736ZM225.012 403.438C227.933 402.657 228.016 399.385 229.298 397.203C230.132 395.785 228.332 395.135 227.462 395.159C223.516 395.26 224.964 399.003 223.76 400.649C223.701 402.085 223.629 403.808 225.006 403.432L225.012 403.438ZM-13.5842 423.467C-15.9149 427.073 -15.3844 430.811 -13.5842 434.578C-13.5842 430.876 -13.5842 427.169 -13.5842 423.467ZM188.323 325.482C188.233 324.641 186.994 323.878 186.242 324.498C184.436 325.995 183.536 327.771 185.33 330.09C185.843 330.751 185.551 332.045 185.64 333.171C190.457 331.699 188.609 328.278 188.323 325.482ZM175.9 380.221C175.972 380.519 177.313 380.918 177.522 380.715C180.282 377.973 178.666 374.534 179.203 371.035C176.544 373.878 175.054 376.692 175.906 380.221H175.9ZM366.243 501.066C370.982 499.367 369.718 494.687 370.404 491.433C371.608 485.693 372.013 479.714 374.284 474.277C376.46 469.074 373.146 464.871 372.931 459.423C368.097 463.029 366.064 468.43 361.391 471.404C361.57 466.004 366.255 461.497 364.288 455.882C361.528 455.203 361.743 458.314 359.406 458.928C358.923 455.948 357.624 453.23 354.792 450.798C352.462 458.159 346.536 458.702 340.254 458.529L340.438 458.344C340.695 458.684 340.903 459.28 341.207 459.333C346.584 460.293 353.862 459.942 347.288 468.71C347.073 468.996 347.502 470.242 347.919 470.445C350.125 471.512 350.506 468.287 352.384 468.442C352.128 471.565 353.004 472.656 355.823 472.674C357.278 472.686 358.154 473.568 357.326 474.766C354.125 479.392 357.856 484.9 355.18 489.573C358.041 486.968 357.385 483.296 358.333 480.131C358.971 478.009 360.133 475.476 362.988 476.274C366.875 477.365 362.935 479.38 363.263 480.578C363.96 483.141 363.912 485.317 362.643 487.558L362.577 487.469C366.273 486.843 364.991 481.127 370.124 481.013C370.404 488.005 367.56 494.413 366.279 501.06C366.303 501.072 366.237 501.06 366.237 501.06L366.243 501.066ZM367.06 520.295C371.292 518.424 375.178 516.021 379.822 514.758C386.176 513.023 386.993 508.022 383.297 499.087C379.911 500.702 378.654 504.404 375.852 506.484C371.018 510.078 368.604 509.208 367.59 503.414C367.447 502.592 366.738 501.864 366.267 501.084C366.243 501.072 366.309 501.078 366.285 501.066C366.809 512.01 361.784 519.664 351.609 517.768C351.86 520.17 355.692 523.699 349.833 524.42C348.08 524.635 349.565 526.542 350.56 527.377C352.837 529.284 357.54 529.958 357.54 528.134C357.54 522.31 362.357 524.742 364.437 522.912C365.426 522.042 366.309 521.047 367.256 520.093C365.76 518.787 362.977 520.963 362.112 518.269C361.957 517.78 363 516.302 363.495 516.296C367.292 516.272 369.897 512.558 374.123 512.558C372.156 516.039 368.312 516.957 367.06 520.295ZM184.287 266.517C183.489 257.433 182.666 250.524 182.362 243.591C182.213 240.194 179.501 239.973 177.963 240.277C175.93 240.677 175.572 242.405 176.639 245.01C178.607 249.821 179.352 255.018 171.74 256.044C171.155 256.121 170.524 256.64 170.13 257.135C169.522 257.892 171.895 274.797 172.622 275.428C173.701 276.37 175.787 277.217 176.163 276.132C177.802 271.399 184.412 270.171 184.281 266.517H184.287ZM9.66325 538.989C9.66325 538.989 9.64537 538.661 9.64537 538.655C6.84376 549.885 12.7808 556.764 21.3227 562.516C24.8277 564.877 24.4582 561.521 25.0423 560.162C26.5743 556.609 25.0125 551.805 29.4415 549.414C24.1184 549.063 23.8203 546.75 26.9856 543.102C28.2433 541.653 30.7111 541.296 30.8363 538.828L30.9734 538.959C28.4579 538.619 27.6592 540.938 26.1332 542.118C25.2152 542.828 24.2436 543.656 23.1587 542.839C21.8592 541.862 22.0559 540.485 22.9083 539.257C23.6713 538.16 24.5535 537.141 25.3821 536.086L25.5252 536.253C19.3378 539.692 16.2083 540.235 10.3249 538.923C10.1222 538.875 9.88381 538.965 9.66325 538.989ZM388.942 466.892C392.578 466.725 394.975 464.841 398.033 464.388C404.858 463.381 403.207 455.793 404.995 451.06C406.211 447.841 401.877 448.419 400.059 447.251C399.111 446.643 398.128 446.094 397.186 445.48C394.247 443.585 391.881 442.411 392.769 447.889C392.99 449.236 393.061 451.668 391.338 452.091C383.613 453.993 384.299 460.651 382.516 466.451C385.378 464.861 387.676 462.387 389.413 459.03C392 461.64 388.531 463.911 388.942 466.898V466.892ZM376.49 68.9913C383.613 46.1373 383.679 24.1178 387.243 2.11019C384.024 2.87318 384.364 4.87604 383.518 6.05033C376.013 16.4342 383.017 28.3559 379.929 39.2167C378.594 43.9019 378.433 49.0163 376.514 53.4036C374.493 58.0232 373.694 62.2257 376.49 68.9913ZM351.675 272.031C349.01 270.815 350.494 266.594 347.496 267.638C345.04 268.496 345.481 271.524 346.149 273.682C347.24 277.193 349.439 274.379 351.126 274.254C353.147 274.105 354.268 272.555 355.287 271.041C356.789 268.812 358.19 268.019 361.379 268.591C366.648 269.527 369.504 266.058 370.392 261.027C368.151 259.561 367.483 262.16 365.415 262.022C365.653 259.322 366.011 256.354 363.62 253.588C360.902 254.291 357.904 259.221 354.357 254.422C353.07 255.406 348.808 253.165 351.472 258.482C353.123 261.772 355.12 267.286 351.669 272.031H351.675ZM396.03 146.709C396.608 149.469 394.677 153.636 397.568 154.727C400.232 155.734 403.093 152.646 405.847 151.138C415.456 145.875 412.446 134.674 418.693 127.533C415.79 127.009 415.82 128.666 415.259 129.596C414.681 130.561 414.24 131.616 413.757 132.642C412.428 135.461 411.093 137.738 407.087 136.391C403.94 135.33 402.247 138.054 400.637 140.295C399.052 142.501 397.466 144.7 395.875 146.918C395.875 146.93 396.03 146.715 396.03 146.715V146.709ZM226.532 316.082C223.844 317.596 221.489 319.712 222.902 323.849C223.259 324.892 223.295 326.519 222.121 326.847C211.564 329.774 219.474 332.808 222.139 335.496C223.939 337.314 226.246 338.632 228.6 340.372C229.715 338.495 227.945 336.516 229.214 334.727C230.83 332.462 232.803 334.346 234.675 334.352C232.6 327.693 232.773 320.797 226.538 316.082H226.532ZM46.1081 607.867C34.1863 600.249 33.5485 598.079 38.6689 585.448C39.5094 583.379 40.1949 581.138 40.3618 578.933C40.5227 576.834 41.3334 574.355 39.0146 572.698C37.7867 576.352 30.7409 571.219 31.5755 577.389C31.9868 580.435 26.5743 582.992 31.5576 586.777C33.0836 587.934 29.6501 593.71 31.3609 597.596C33.0061 601.346 36.2309 603.468 39.265 605.78C41.0056 607.11 42.7938 608.654 46.1021 607.861L46.1081 607.867ZM90.6537 221.053C88.5913 221.715 87.6495 222.019 86.2308 222.478C88.8774 218.496 91.7982 215.492 95.4105 212.833C93.8607 210.169 91.1783 209.418 88.4482 208.947C84.3233 208.237 80.0851 207.087 81.0925 214.252C81.4978 217.149 80.0732 220.338 79.334 223.36C78.5055 226.746 80.5977 228.677 83.0536 229.703C85.6585 230.787 86.1592 227.992 87.1547 226.341C88.0608 224.838 89.086 223.408 90.6537 221.053ZM406.777 399.629C408.762 397.328 410.258 395.719 411.611 393.996C412.929 392.309 413.894 390.33 412.07 388.518C409.924 386.384 408.226 388.381 406.974 389.782C404.584 392.446 402.515 395.397 399.958 398.682C405.585 401.28 411.325 402.646 417.221 403.301C419.736 403.581 422.544 401.34 422.317 399.796C422.025 397.799 422.168 395.498 421.459 393.8C420.726 392.053 418.788 393.913 417.429 394.443C414.02 395.767 411.832 399.641 406.777 399.629ZM12.3397 621.785C10.5574 622.56 8.76912 623.341 6.92125 624.146C6.4265 622.197 9.53808 621.559 8.11343 619.842C7.17161 618.71 5.59197 619.097 4.29846 619.419C-0.0768241 620.51 -4.44019 621.648 -8.79163 622.829C-10.103 623.186 -11.5873 623.747 -11.3846 625.416C-11.2416 626.59 -10.0494 627.168 -8.84528 627.281C-6.81262 627.478 -4.98859 627.621 -3.77853 629.874C-2.58039 632.116 -0.446398 631.782 1.49089 630.512C2.05717 630.143 2.53404 629.642 3.10032 629.266C6.42053 627.061 9.75267 624.873 13.0788 622.68C12.8344 622.376 12.5841 622.077 12.3397 621.773V621.785ZM-13.4113 535.072C-12.8331 542.673 -9.06583 548.759 -3.75469 553.956C-6.43112 556.257 -9.03007 553.247 -11.6529 555.19C-9.26254 558.886 -5.39393 558.815 -1.84124 559.268C-0.690794 559.417 0.859033 558.475 0.674246 557.497C0.0602752 554.225 -2.33004 551.739 -0.553694 547.525C1.14516 543.483 -3.97524 542.959 -6.69936 541.325C-9.28638 539.77 -12.4993 538.691 -13.459 535.21C-13.4411 535.168 -13.4054 535.072 -13.4054 535.072H-13.4113ZM-11.4144 600.892C-11.4681 606.454 -7.89154 607.277 -6.32383 609.691C-6.21653 612.552 -9.75729 610.108 -10.1388 612.236C-4.26136 616.731 4.02426 616.951 9.72286 612.761C10.7899 611.974 12.298 611.342 11.6542 609.655C11.1535 608.35 9.74074 608.761 8.67375 608.671C1.72336 608.075 -5.6264 608.785 -11.4085 600.886L-11.4144 600.892ZM312.553 639.221C316.816 637.6 321.346 635.883 325.87 634.154C327.062 633.701 329.411 632.95 328.94 634.625C326.961 641.695 332.356 637.874 334.096 637.993C337.857 638.249 341.696 637.635 345.487 637.194C346.519 637.075 347.752 636.497 347.902 635.179C348.068 633.725 346.924 633.278 345.785 633.105C333.917 631.281 321.9 628.694 312.553 639.227V639.221ZM-9.66192 579.928C-9.04795 582.61 -6.81262 582.998 -5.2151 584.125C-1.60877 586.67 3.35068 587.29 4.79917 583.612C5.83041 580.995 4.14348 575.72 0.596756 572.972C0.262947 572.715 -0.315258 572.268 -0.476202 572.376C-8.0644 577.323 -8.45186 568.96 -12.0701 565.801C-12.9166 574.069 -5.55487 575.863 -1.20939 579.982C-4.55345 583.481 -6.63379 577.979 -9.65596 579.934L-9.66192 579.928ZM429.661 448.95C426.657 450.094 427.724 453.432 425.304 454.559C423.015 454.642 424.016 450.666 421.101 451.036C419.73 454.654 418.234 458.368 416.905 462.141C415.48 466.177 420.946 464.293 421.179 466.963C425.941 465.801 431.241 454.905 429.655 448.95H429.661ZM388.68 95.2072C393.514 93.0017 395.285 90.0093 395.374 87.0527C395.553 81.3422 399.105 80.5077 403.463 79.0771C412.005 76.2755 420.571 72.9672 422.275 62.0886C418.055 63.6324 417.364 68.3594 414.157 70.708C410.509 73.3785 407.004 76.5914 402.533 77.4617C393.162 79.2797 391.535 86.6832 388.68 95.2072ZM330.204 132.326C328.785 129.858 331.557 126.168 327.235 125.441C324.863 125.041 318.586 131.759 318.872 134.644C319.087 136.808 319.957 138.978 320.923 140.951C321.304 141.732 322.908 142.608 323.659 142.394C325.721 141.809 323.855 140.754 323.605 139.92C323.337 139.032 323.14 137.649 324.362 138.179C332.952 141.935 327.623 133.691 330.204 132.326ZM248.856 277.658C250.531 280.984 250.209 284.417 253.475 287.249C256.241 289.645 255.019 294.301 253.284 298.008C252.456 299.779 250.34 302.843 253.374 303.641C255.895 304.303 256.396 300.768 256.485 298.646C256.646 294.938 258.959 291.702 259.078 288.268C259.287 282.17 257.237 277.062 248.861 277.664L248.856 277.658ZM333.798 103.666C329.816 101.436 326.448 96.4411 326.579 94.927C327.271 86.8083 319.093 91.4876 317.483 87.4402C319.194 92.3937 323.003 96.1371 323.009 101.854C323.009 105.323 327.486 106.032 333.798 103.666ZM244.903 313.572C245.076 317.852 245.213 321.649 243.556 325.172C245.541 325.965 246.084 324.129 248.069 323.485C245.273 327.89 249.303 330.078 251.18 330.125C254.697 330.215 253.547 326.156 253.958 323.825C254.25 322.156 253.511 320.29 253.165 318.526C252.682 316.076 252.873 312.905 248.903 316.338C247.341 317.691 247.347 314.091 244.903 313.572ZM453.415 466.296C452.819 469.634 452.372 472.996 450.208 475.827C448.08 478.611 445.928 480.894 452.086 481.854C455.704 482.42 452.944 485.8 452.205 487.695C451.466 489.597 449.66 492.083 451.853 493.036C454.893 494.36 455.621 490.592 455.722 488.911C456.133 482.033 455.996 475.118 455.889 468.215C455.871 466.957 454.387 466.719 453.278 466.487L453.415 466.296ZM401.919 373.729C398.116 374.963 395.595 375.869 393.025 376.591C391.112 377.127 388.185 378.426 387.374 377.646C385.473 375.828 388.03 373.688 389.228 370.522C385.652 372.102 384.108 373.652 384.358 376.656C384.676 380.431 383.764 383.336 381.622 385.371C391.988 382.993 398.229 379.637 401.919 373.723V373.729ZM225.483 650.523C233.78 652.651 240.963 652.907 248.957 653.479C242.692 646.046 234.031 644.896 225.483 650.523ZM31.1343 161.713C36.2369 156.169 39.0862 161.808 42.0249 164.342C43.5628 165.671 43.688 167.203 46.4777 166.005C49.3389 164.771 47.1453 163.811 47.0439 162.732C46.8174 160.378 46.6207 157.928 43.1396 158.911C39.5094 159.942 37.1787 158.995 36.4336 154.971C35.9805 152.521 33.3578 155.901 32.6246 153.755C30.7111 154.488 32.8213 155.293 32.5948 156.11C32.0702 157.999 31.7006 159.936 31.2774 161.862C31.2893 161.874 31.1403 161.707 31.1403 161.707L31.1343 161.713ZM169.594 655.858C163.132 652.603 156.796 652.776 148.909 656.704C156.969 659.559 163.287 658.016 169.594 655.858ZM417.387 3.42754C411.85 10.062 411.498 18.5861 408.84 26.2696C415.641 20.0882 414.842 11.1528 417.387 3.42754ZM427.008 409.012C424.856 412.427 417.638 409.501 418.192 416.785C418.311 418.382 414.538 417.285 412.702 418.299C420.4 418.883 425.17 415.789 427.014 409.018L427.008 409.012ZM-9.29831 589.853C-3.90967 594.073 -0.255651 598.496 6.08673 598.836C3.7739 591.838 -0.529852 589.156 -9.29831 589.853ZM338.364 643.173C344.504 643.715 349.576 643.882 354.524 644.753C356.39 645.081 357.183 644.443 357.546 643.298C357.922 642.112 356.736 641.289 355.639 640.979C349.982 639.406 344.474 639.227 338.37 643.173H338.364ZM448.247 447.74C444.51 453.671 444.551 460.138 439.246 464.126C447.186 463.911 450.643 457.933 448.247 447.74ZM439.932 445.904C436.54 452.502 433.917 457.599 431.115 463.047C439.371 459.489 441.934 455.077 439.932 445.904ZM453.278 466.487C454.573 461.917 454.405 458.129 452.771 455.125C450.762 460.639 448.849 465.885 446.727 471.69C450.995 471.518 452.008 468.668 453.421 466.296L453.284 466.487H453.278ZM412.213 452.437C408.983 456.466 408.166 461.229 406.503 466.022C414.228 462.946 415.641 459.518 412.213 452.437ZM240.361 314.419C234.4 318.853 233.226 323.42 236.868 329.756C238.245 324.326 241.458 320.075 240.361 314.419ZM407.051 427.741C414.634 431.753 419.068 427.735 424.016 421.714C417.101 422.138 413.119 427.502 407.051 427.741ZM383.1 410.156C390.569 411.271 396.888 408.064 403.236 404.97C395.732 403.635 389.89 408.344 383.255 410.258C383.226 410.234 383.106 410.15 383.106 410.15L383.1 410.156ZM14.0028 571.011C11.1296 566.057 9.59769 562.367 8.71548 558.409C8.47108 557.307 7.85115 556.031 6.62321 556.186C4.79322 556.418 4.87667 558.248 5.25816 559.375C6.69474 563.607 7.36831 568.465 14.0028 571.005V571.011ZM346.352 106.229C349.726 102.676 350.655 98.6586 350.953 94.2833C346.399 95.8371 344.865 99.8189 346.352 106.229ZM340.254 458.535C339.884 456.693 341.386 453.945 337.011 454.589C334.335 454.982 331.318 453.087 327.426 451.906C330.806 457.855 335.211 458.97 340.438 458.344L340.254 458.529V458.535ZM316.333 242.053C322.621 238.882 323.694 232.349 325.971 226.591C320.929 230.585 318.431 236.218 316.339 242.107V242.053H316.333ZM316.339 242.107C315.194 249.207 309.692 254.774 309.609 262.249C314.336 256.407 317.477 250.005 316.339 242.077C316.333 242.053 316.339 242.107 316.339 242.107ZM409.46 1.15049C408.166 7.5644 406.873 13.9843 405.484 20.875C410.181 17.0482 410.282 16.5951 409.46 1.15049ZM355.329 87.4044C358.25 81.6343 356.932 76.6391 355.883 71.6498C353.737 76.5854 352.968 81.5449 355.329 87.4044ZM373.569 502.764C378.129 501.304 380.573 498.234 380.907 492.613C375.953 494.735 375.018 498.92 373.569 502.764ZM355.353 286.331C361.54 288.25 366.398 286.087 372.282 281.032C365.444 283.172 360.396 284.751 355.353 286.331ZM283.971 612.206C277.754 612.582 271.441 612.683 266.834 618.072C272.544 616.117 278.261 614.161 283.971 612.206ZM373.378 647.435C367.489 650.332 362.631 654.147 359.483 659.959C364.115 655.786 368.747 651.608 373.378 647.435ZM101.413 537.308C97.5624 542.47 96.8411 546.494 97.1153 552.496C100.471 547.453 102.075 543.626 101.413 537.308ZM395.231 610.507C388.376 610.329 382.647 613.345 377.289 617.422C383.267 615.115 389.246 612.814 395.231 610.507ZM419.885 18.3774C419.092 26.6631 417.215 32.8147 415.158 39.7233C419.814 35.4553 421.393 28.6063 419.885 18.3774ZM323.629 109.716C325.703 113.722 329.101 114.282 332.755 114.121C333.929 114.067 335.103 113.394 335.151 112.196C335.205 110.777 333.828 110.592 332.725 110.61C329.685 110.67 326.615 111.129 323.629 109.716ZM183.31 233.565C184.007 230.752 186.839 228.26 184.389 225.208C183.989 224.707 182.165 224.505 181.998 224.773C180.043 227.968 182.219 230.656 183.304 233.565H183.31ZM362.649 487.558C361.212 493.793 359.776 500.028 358.345 506.264C360.133 500.094 364.878 494.515 362.607 487.499C362.583 487.469 362.649 487.558 362.649 487.558ZM391.523 73.7659C393.228 67.8349 399.094 64.1331 399.958 57.749C397.508 63.2748 390.575 66.4221 391.589 73.8077C391.619 73.8375 391.523 73.76 391.523 73.76V73.7659ZM325.566 580.441C327.378 585.364 331.193 587.701 336.379 588.13C332.773 585.567 329.172 583.004 325.566 580.441Z" fill="white"/>
</mask>
<g mask="url(#mask0_52_12270)">
<path d="M454.548 -57.3086H452.51V737.801H454.548V-57.3086Z" fill="#014F42"/>
<path d="M449.785 -57.3086H447.746V737.801H449.785V-57.3086Z" fill="#014F42"/>
<path d="M445.015 -57.3086H442.977V737.801H445.015V-57.3086Z" fill="#014F42"/>
<path d="M440.248 -57.3086H438.209V737.801H440.248V-57.3086Z" fill="#014F42"/>
<path d="M435.484 -57.3086H433.445V737.801H435.484V-57.3086Z" fill="#014F42"/>
<path d="M430.716 -57.3086H428.678V737.801H430.716V-57.3086Z" fill="#014F42"/>
<path d="M425.947 -57.3086H423.908V737.801H425.947V-57.3086Z" fill="#014F42"/>
<path d="M421.183 -57.3086H419.145V737.801H421.183V-57.3086Z" fill="#014F42"/>
<path d="M416.416 -57.3086H414.377V737.801H416.416V-57.3086Z" fill="#014F42"/>
<path d="M411.646 -57.3086H409.607V737.801H411.646V-57.3086Z" fill="#014F42"/>
<path d="M406.884 -57.3086H404.846V737.801H406.884V-57.3086Z" fill="#014F42"/>
<path d="M402.117 -57.3086H400.078V737.801H402.117V-57.3086Z" fill="#014F42"/>
<path d="M397.347 -57.3086H395.309V737.801H397.347V-57.3086Z" fill="#014F42"/>
<path d="M392.586 -57.3086H390.547V737.801H392.586V-57.3086Z" fill="#014F42"/>
<path d="M387.816 -57.3086H385.777V737.801H387.816V-57.3086Z" fill="#014F42"/>
<path d="M383.046 -57.3086H381.008V737.801H383.046V-57.3086Z" fill="#014F42"/>
<path d="M378.285 -57.3086H376.246V737.801H378.285V-57.3086Z" fill="#014F42"/>
<path d="M373.515 -57.3086H371.477V737.801H373.515V-57.3086Z" fill="#014F42"/>
<path d="M368.748 -57.3086H366.709V737.801H368.748V-57.3086Z" fill="#014F42"/>
<path d="M363.978 -57.3086H361.939V737.801H363.978V-57.3086Z" fill="#014F42"/>
<path d="M359.216 -57.3086H357.178V737.801H359.216V-57.3086Z" fill="#014F42"/>
<path d="M354.447 -57.3086H352.408V737.801H354.447V-57.3086Z" fill="#014F42"/>
<path d="M349.677 -57.3086H347.639V737.801H349.677V-57.3086Z" fill="#014F42"/>
<path d="M344.916 -57.3086H342.877V737.801H344.916V-57.3086Z" fill="#014F42"/>
<path d="M340.146 -57.3086H338.107V737.801H340.146V-57.3086Z" fill="#014F42"/>
<path d="M335.378 -57.3086H333.34V737.801H335.378V-57.3086Z" fill="#014F42"/>
<path d="M330.615 -57.3086H328.576V737.801H330.615V-57.3086Z" fill="#014F42"/>
<path d="M325.845 -57.3086H323.807V737.801H325.845V-57.3086Z" fill="#014F42"/>
<path d="M321.078 -57.3086H319.039V737.801H321.078V-57.3086Z" fill="#014F42"/>
<path d="M316.314 -57.3086H314.275V737.801H316.314V-57.3086Z" fill="#014F42"/>
<path d="M311.546 -57.3086H309.508V737.801H311.546V-57.3086Z" fill="#014F42"/>
<path d="M306.777 -57.3086H304.738V737.801H306.777V-57.3086Z" fill="#014F42"/>
<path d="M302.015 -57.3086H299.977V737.801H302.015V-57.3086Z" fill="#014F42"/>
<path d="M297.246 -57.3086H295.207V737.801H297.246V-57.3086Z" fill="#014F42"/>
<path d="M292.476 -57.3086H290.438V737.801H292.476V-57.3086Z" fill="#014F42"/>
<path d="M287.714 -57.3086H285.676V737.801H287.714V-57.3086Z" fill="#014F42"/>
<path d="M282.945 -57.3086H280.906V737.801H282.945V-57.3086Z" fill="#014F42"/>
<path d="M278.177 -57.3086H276.139V737.801H278.177V-57.3086Z" fill="#014F42"/>
<path d="M273.408 -57.3086H271.369V737.801H273.408V-57.3086Z" fill="#014F42"/>
<path d="M268.646 -57.3086H266.607V737.801H268.646V-57.3086Z" fill="#014F42"/>
<path d="M263.877 -57.3086H261.838V737.801H263.877V-57.3086Z" fill="#014F42"/>
<path d="M259.109 -57.3086H257.07V737.801H259.109V-57.3086Z" fill="#014F42"/>
<path d="M254.345 -57.3086H252.307V737.801H254.345V-57.3086Z" fill="#014F42"/>
<path d="M249.578 -57.3086H247.539V737.801H249.578V-57.3086Z" fill="#014F42"/>
<path d="M244.808 -57.3086H242.77V737.801H244.808V-57.3086Z" fill="#014F42"/>
<path d="M240.046 -57.3086H238.008V737.801H240.046V-57.3086Z" fill="#014F42"/>
<path d="M235.277 -57.3086H233.238V737.801H235.277V-57.3086Z" fill="#014F42"/>
<path d="M230.507 -57.3086H228.469V737.801H230.507V-57.3086Z" fill="#014F42"/>
<path d="M225.746 -57.3086H223.707V737.801H225.746V-57.3086Z" fill="#014F42"/>
<path d="M220.976 -57.3086H218.938V737.801H220.976V-57.3086Z" fill="#014F42"/>
<path d="M216.209 -57.3086H214.17V737.801H216.209V-57.3086Z" fill="#014F42"/>
<path d="M211.445 -57.3086H209.406V737.801H211.445V-57.3086Z" fill="#014F42"/>
<path d="M206.675 -57.3086H204.637V737.801H206.675V-57.3086Z" fill="#014F42"/>
<path d="M201.908 -57.3086H199.869V737.801H201.908V-57.3086Z" fill="#014F42"/>
<path d="M197.144 -57.3086H195.105V737.801H197.144V-57.3086Z" fill="#014F42"/>
<path d="M192.377 -57.3086H190.338V737.801H192.377V-57.3086Z" fill="#014F42"/>
<path d="M187.607 -57.3086H185.568V737.801H187.607V-57.3086Z" fill="#014F42"/>
<path d="M182.839 -57.3086H180.801V737.801H182.839V-57.3086Z" fill="#014F42"/>
<path d="M178.076 -57.3086H176.037V737.801H178.076V-57.3086Z" fill="#014F42"/>
<path d="M173.306 -57.3086H171.268V737.801H173.306V-57.3086Z" fill="#014F42"/>
<path d="M168.539 -57.3086H166.5V737.801H168.539V-57.3086Z" fill="#014F42"/>
<path d="M163.775 -57.3086H161.736V737.801H163.775V-57.3086Z" fill="#014F42"/>
<path d="M159.007 -57.3086H156.969V737.801H159.007V-57.3086Z" fill="#014F42"/>
<path d="M154.238 -57.3086H152.199V737.801H154.238V-57.3086Z" fill="#014F42"/>
<path d="M149.476 -57.3086H147.438V737.801H149.476V-57.3086Z" fill="#014F42"/>
<path d="M144.707 -57.3086H142.668V737.801H144.707V-57.3086Z" fill="#014F42"/>
<path d="M139.939 -57.3086H137.9V737.801H139.939V-57.3086Z" fill="#014F42"/>
<path d="M135.175 -57.3086H133.137V737.801H135.175V-57.3086Z" fill="#014F42"/>
<path d="M130.408 -57.3086H128.369V737.801H130.408V-57.3086Z" fill="#014F42"/>
<path d="M125.638 -57.3086H123.6V737.801H125.638V-57.3086Z" fill="#014F42"/>
<path d="M120.877 -57.3086H118.838V737.801H120.877V-57.3086Z" fill="#014F42"/>
<path d="M116.107 -57.3086H114.068V737.801H116.107V-57.3086Z" fill="#014F42"/>
<path d="M111.337 -57.3086H109.299V737.801H111.337V-57.3086Z" fill="#014F42"/>
<path d="M106.576 -57.3086H104.537V737.801H106.576V-57.3086Z" fill="#014F42"/>
<path d="M101.806 -57.3086H99.7676V737.801H101.806V-57.3086Z" fill="#014F42"/>
<path d="M97.0386 -57.3086H95V737.801H97.0386V-57.3086Z" fill="#014F42"/>
<path d="M92.2691 -57.3086H90.2305V737.801H92.2691V-57.3086Z" fill="#014F42"/>
<path d="M87.5054 -57.3086H85.4668V737.801H87.5054V-57.3086Z" fill="#014F42"/>
<path d="M82.7378 -57.3086H80.6992V737.801H82.7378V-57.3086Z" fill="#014F42"/>
<path d="M77.9683 -57.3086H75.9297V737.801H77.9683V-57.3086Z" fill="#014F42"/>
<path d="M73.2066 -57.3086H71.168V737.801H73.2066V-57.3086Z" fill="#014F42"/>
<path d="M68.4371 -57.3086H66.3984V737.801H68.4371V-57.3086Z" fill="#014F42"/>
<path d="M63.6695 -57.3086H61.6309V737.801H63.6695V-57.3086Z" fill="#014F42"/>
<path d="M58.9058 -57.3086H56.8672V737.801H58.9058V-57.3086Z" fill="#014F42"/>
<path d="M54.1363 -57.3086H52.0977V737.801H54.1363V-57.3086Z" fill="#014F42"/>
<path d="M49.3687 -57.3086H47.3301V737.801H49.3687V-57.3086Z" fill="#014F42"/>
<path d="M44.605 -57.3086H42.5664V737.801H44.605V-57.3086Z" fill="#014F42"/>
<path d="M39.8374 -57.3086H37.7988V737.801H39.8374V-57.3086Z" fill="#014F42"/>
<path d="M35.0679 -57.3086H33.0293V737.801H35.0679V-57.3086Z" fill="#014F42"/>
<path d="M30.3062 -57.3086H28.2676V737.801H30.3062V-57.3086Z" fill="#014F42"/>
<path d="M25.5386 -57.3086H23.5V737.801H25.5386V-57.3086Z" fill="#014F42"/>
<path d="M20.7691 -57.3086H18.7305V737.801H20.7691V-57.3086Z" fill="#014F42"/>
<path d="M16.0054 -57.3086H13.9668V737.801H16.0054V-57.3086Z" fill="#014F42"/>
<path d="M11.2378 -57.3086H9.19922V737.801H11.2378V-57.3086Z" fill="#014F42"/>
<path d="M6.46831 -57.3086H4.42969V737.801H6.46831V-57.3086Z" fill="#014F42"/>
<path d="M1.70073 -57.3086H-0.337891V737.801H1.70073V-57.3086Z" fill="#014F42"/>
</g>
</svg>
