<svg width="436" height="442" viewBox="0 0 436 442" fill="none" xmlns="http://www.w3.org/2000/svg">
<mask id="mask0_53_55146" style="mask-type:luminance" maskUnits="userSpaceOnUse" x="0" y="0" width="436" height="442">
<path d="M177.312 286.389C177.265 287.493 176.743 288.951 177.254 289.642C180.472 293.981 188.348 296.2 193.651 294.533C200.336 292.436 207.022 290.322 213.736 288.3C222.739 285.588 229.14 288.934 233.676 299.15C224.482 300.945 215.723 299.272 206.679 298.558C211.25 299.94 215.775 301.532 220.41 302.641C224.935 303.727 229.576 304.343 234.176 305.116C234.809 305.22 235.552 305.197 236.145 304.97C243.783 302.084 250.143 305.238 257.142 309.333C254.389 314.403 252.182 319.549 249.01 324.022C245.142 329.476 240.583 329.325 236.958 323.784C234.867 320.583 232.462 320.636 229.094 320.124C221.705 318.998 214.712 318.69 207.777 321.751C207.434 321.902 206.818 321.53 206.36 321.327C200.127 318.498 193.97 318.068 187.337 320.52C182.388 322.355 177.01 323.011 171.08 324.365C177.033 325.143 179.914 329.476 180.907 333.797C181.813 337.759 180.024 342.342 179.327 347.337C177.411 345.89 176.731 345.089 175.883 344.804C174.89 344.473 173.577 344.241 172.723 344.647C172.148 344.92 171.643 346.669 171.98 347.221C172.52 348.109 173.717 348.922 174.762 349.126C180.902 350.322 181.198 350.862 178.038 356.299C177.782 356.735 177.585 357.31 177.196 357.548C170.011 361.951 173.513 368.253 174.245 374.055C174.326 374.712 174.501 375.769 174.89 375.902C181.604 378.278 181.157 384.87 182.783 390.388C178.7 394.187 174.64 393.258 170.917 388.088C170.719 390.522 170.58 392.288 170.417 394.303C175.32 394.907 179.885 396.232 185.02 392.677C188.011 390.603 192.71 390.952 197.188 393.781C207.469 400.274 220.358 396.783 226.701 383.134C228.896 378.406 231.574 375.095 235.918 372.377C242.615 368.195 246.263 361.875 246.147 353.79C246.066 348.243 245.595 342.707 245.555 337.16C245.543 335.581 246.199 333.867 246.96 332.432C250.445 325.886 253.785 319.23 257.799 313.015C259.349 310.61 262.544 307.811 264.995 307.805C268.085 307.799 271.175 310.041 272.505 314.043C274.765 320.827 278.616 327.158 280.23 334.053C281.514 339.542 279.568 345.304 285.795 349.701C288.415 351.554 289.501 356.892 284.279 361.137C277.669 366.51 277.599 375.42 277.489 383.488C277.408 389.628 278.569 395.802 278.232 401.912C277.669 412.025 287.032 419.936 296.953 417.148C297.278 417.055 297.598 416.805 297.905 416.828C305.607 417.473 311.747 414.749 315.801 407.906C320.291 410.584 322.144 413.773 321.946 418.6C321.865 420.644 323.625 422.776 324.566 424.855C325.472 426.853 326.401 428.834 327.429 431.064C331.205 431.61 333.141 434.97 333.238 441.142H345.546C342.944 433.202 343.774 425.947 347.253 418.762C349.153 414.847 349.844 410.363 351.627 406.373C353.817 401.465 354.949 395.941 360.886 393.235C364.766 391.469 367.85 388.152 368.669 383.325C369.017 381.263 370.359 379.37 371.55 376.733C379.455 381.664 382.673 389.784 384.02 397.016C386.001 407.628 382.04 418.199 377.747 429.229C371.039 421.55 371.294 412.716 369.645 404.543C369.075 404.636 368.506 404.723 367.937 404.816C368.82 411.368 369.558 417.938 370.632 424.455C371.544 429.967 374.529 435.502 369.006 440.904C373.24 441.45 376.435 441.624 377.637 437.221C377.765 436.751 378.026 436.193 378.404 435.932C385.513 430.971 385.182 422.904 387 415.701C387.517 413.657 388.202 411.113 389.701 409.951C396.125 404.956 396.654 397.231 399.18 390.336C396.369 394.181 393.558 398.026 390.746 401.872C390.235 401.593 389.73 401.308 389.219 401.029C389.556 394.623 387.773 388.297 394.185 382.565C398.326 378.865 400.034 372.464 402.932 367.335C403.908 365.604 404.919 363.716 406.4 362.479C408.886 360.394 411.599 359.865 413.48 363.49C414.991 366.4 417.175 367.265 420.177 365.709C420.625 365.476 421.101 365.285 421.589 365.163C433.374 362.107 435.407 359.459 434.257 347.284C433.862 343.114 433.496 339.13 430.487 335.18C427.781 331.625 426.422 325.944 426.758 321.367C427.769 307.416 429.86 293.54 431.614 279.64C431.771 278.38 432.276 276.974 433.066 276.01C436.151 272.252 436.702 268.686 433.514 264.579C432.503 263.278 432.474 261.111 432.259 259.311C431.783 255.297 429.645 253.015 425.126 252.515C430.795 254.995 430.243 258.805 428.96 263.609C427.908 267.535 428.559 271.921 428.454 276.103C427.641 276.312 426.828 276.515 426.015 276.724C423.692 267.594 418.656 260.426 411.401 254.6C418.917 260.786 415.897 268.744 415.705 276.265C415.641 278.85 416.582 281.487 417.244 284.06C417.662 285.675 419.254 287.458 418.876 288.736C416.414 297.054 415.287 305.906 409.763 313.096C408.979 314.119 408.067 315.391 408.021 316.581C407.736 323.476 407.579 330.376 407.597 337.277C407.614 344.148 408.381 350.955 404.605 357.414C401.562 362.63 399.535 368.433 396.834 373.864C395.486 376.57 393.639 379.027 391.333 382.669C386.501 369.368 387.372 358.088 391.385 346.344C393.54 340.041 393.79 332.729 393.325 325.985C392.779 318.074 392.884 310.849 398.559 304.686C399.006 304.198 399.418 303.576 399.575 302.949C401.928 293.226 403.037 283.439 399.947 273.698C399.395 271.956 397.385 270.707 396.183 269.127C393.895 266.118 391.786 262.97 389.428 260.019C388.574 258.951 387.238 258.254 386.088 257.435C377.312 251.208 365.503 259.102 356.942 251.191C355.925 250.25 353.346 250.778 351.528 250.982C343.675 251.847 338.872 261.466 342.973 268.227C346.632 274.262 350.791 280.012 354.247 286.163C357.279 291.553 359.648 297.321 362.373 303.054C358.498 306.022 355.652 306.864 352.307 302.723C349.478 299.22 345.981 296.089 342.287 293.499C332.506 286.639 321.731 285.675 310.521 289.41C303.394 291.785 298.353 287.789 299.462 281.168C300.229 276.608 299.323 271.776 299.166 267.059C298.446 267.053 297.725 267.048 296.999 267.036C296.796 270.718 296.587 274.401 296.331 279.059C293.567 276.928 291.458 275.307 289.35 273.681C288.833 273.994 288.316 274.314 287.793 274.628C288.885 276.928 289.809 279.326 291.115 281.499C293.09 284.792 297.917 287.133 294.025 292.18C293.567 292.779 294.902 294.765 295.216 295.596C292.858 299.238 290.628 302.676 288.403 306.115C288.02 305.993 287.642 305.877 287.259 305.76V292.715C286.887 292.674 286.509 292.633 286.138 292.599C285.092 296.333 284.047 300.074 282.978 303.873C279.168 304.041 277.681 302.572 278.546 299.058C280.248 292.186 281.317 285.071 283.878 278.542C285.958 273.245 285.046 268.639 283.965 263.603C281.805 253.572 279.899 243.483 277.971 233.405C277.384 230.333 281.537 226.546 286.347 225.425C290.233 224.524 292.161 226.621 292.916 229.932C293.433 232.203 293.206 234.631 293.479 236.972C293.787 239.638 293.869 242.443 294.786 244.912C296.54 249.617 302.721 250.79 306.043 247.328C311.16 241.99 312.572 232.633 309.017 226.145C305.671 220.029 304.306 213.878 305.497 206.728C306.223 202.366 304.562 197.608 303.836 191.986C302.244 193.345 301.6 193.891 300.502 194.832C297.174 189.756 293.886 184.743 290.296 179.266C292.922 177.198 295.64 175.049 298.713 172.627C298.056 171.035 296.924 168.299 295.861 165.732C303.679 161.939 313.106 161.614 315.116 151.56C312.177 153.54 312.328 159.982 305.642 157.159C307.001 155.724 308.14 154.528 309.284 153.325C302.36 156.468 295.53 158.187 288.171 155.66C288.839 156.572 289.501 157.478 290.087 158.286C287.27 160.075 284.72 161.689 282.17 163.31C281.921 163.049 281.671 162.793 281.421 162.532C283.716 160.278 286.016 158.024 288.31 155.771C290.041 149.91 294.264 146.419 298.8 146.274C299.689 143.596 300.537 141.407 301.135 139.159C301.907 136.26 302.477 133.316 303.139 130.388C302.982 130.109 302.825 129.831 302.662 129.552C300.293 127.949 297.836 126.468 295.623 124.673C294.99 124.156 295.234 122.675 294.798 121.774C292.265 116.524 289.855 111.203 286.951 106.167C286.068 104.64 283.663 104.047 282.107 102.833C280.451 101.55 278.198 100.307 277.588 98.5641C276.234 94.6841 275.288 90.9086 270.374 90.2639C269.183 90.1071 267.888 89.3171 266.86 89.6076C261.249 91.1991 258.583 89.4275 256.538 83.8224C255.789 81.7779 252.989 80.4768 250.997 78.7285C250.985 78.8446 250.968 78.5484 251.02 78.5368C252.339 78.2057 253.762 77.4274 254.964 77.683C261.406 79.0479 270.13 74.1805 273.365 84.5427C274.678 88.7537 278.308 90.1129 283.82 90.9783C282.281 88.8931 281.839 87.6966 280.997 87.2494C272.349 82.684 271.123 77.8049 274.172 68.9065C275.688 64.4747 274.55 59.0439 274.219 54.0952C273.452 42.6004 265.344 35.9905 257.328 29.3631C255.899 30.1124 254.308 31.7271 253.088 31.489C248.11 30.4957 243.249 28.9391 236.993 27.214C242.819 25.4773 246.995 24.6409 251.282 27.4347C253.041 28.5848 255.388 28.8345 257.467 29.4967C249.336 17.8625 229.698 5.47907 216.757 4.19542C217.68 5.20027 218.255 5.82757 218.836 6.44906C218.79 6.92535 218.737 7.40744 218.691 7.88373C215.862 7.4481 211.314 7.92439 210.513 6.4084C207.417 0.588409 202.224 0.896265 197.177 0.222493C196.509 0.135368 195.806 -0.0795432 195.173 0.0308159C191.868 0.617462 187.192 0.176027 185.577 2.17411C182.423 6.08314 183.242 11.7753 186.478 15.3765C192.431 22.0155 193.308 29.9556 194.458 38.4184H189.649C191.223 40.6894 192.501 42.5423 193.866 44.5113C194.795 40.1783 197.293 40.0505 200.662 42.2519C207.905 46.9857 216.153 50.4301 220.108 59.1252C221.305 61.7622 224.215 63.5802 225.667 66.1533C226.811 68.1863 227.008 70.7826 227.456 73.1641C227.694 74.4303 227.107 76.0508 227.7 77.015C232.294 84.4497 230.581 91.6928 227.386 98.9532C227.049 99.7199 226.625 100.469 226.393 101.271C224.522 107.66 223.308 108.874 217.146 110.593C221.032 114.81 224.842 119.3 229.07 123.354C230.83 125.039 233.508 125.759 235.733 126.979C237.324 127.85 239.206 128.524 240.344 129.825C244.77 134.872 243.806 147.72 238.311 153.244C233.851 147.215 226.95 143.91 224.255 135.732C221.549 127.507 216.147 120.177 211.93 112.452C211.198 112.829 210.466 113.213 209.734 113.59C210.884 115.641 212.058 117.685 213.173 119.753C216.501 125.898 219.934 131.997 223.018 138.27C223.61 139.472 222.797 141.366 222.629 142.94C221.171 142.777 219.649 142.836 218.273 142.411C215.235 141.476 212.11 140.611 209.345 139.112C207.544 138.137 206.313 136.098 204.681 134.379C204.524 138.305 201.777 139.972 198.007 139.804C196.178 139.722 194.301 138.834 192.617 137.986C190.549 136.946 188.656 135.563 186.239 134.053C186.1 135.691 186.019 136.626 186.001 136.812C182.964 135.714 179.734 133.554 176.586 133.676C173.467 133.798 172.41 126.764 168.524 131.579C169.656 132.572 170.673 133.467 171.689 134.361C170.731 135.128 169.575 136.702 168.843 136.528C161.676 134.803 159.318 140.483 155.931 144.595C155.304 145.351 154.735 146.158 154.067 146.872C153.898 147.047 153.445 146.948 153.12 146.971C154.131 142.789 150.198 134.93 146.191 133.827C145.656 136.063 145.128 138.288 144.448 141.122C142.165 138.555 138.14 137.579 140.638 132.88C139.557 133.054 138.675 133.194 137.693 133.35C137.536 132.142 137.391 131.01 137.234 129.871C137.077 128.715 136.915 127.565 136.729 126.2C136.229 126.311 135.335 126.514 134.713 126.653C133.854 123.912 132.948 121.304 132.222 118.638C131.687 116.675 131.217 114.665 131.042 112.649C130.682 108.531 124.572 103.675 118.787 104.175C113.513 104.628 108.343 106.336 103.191 107.48C106.456 103.792 104.98 99.9639 102.337 95.9329C99.8282 92.111 98.045 87.7605 92.5329 87.4817C91.5571 87.4294 90.4245 87.11 89.681 86.5175C83.8494 81.8766 76.6586 80.0237 69.7931 79.7391C63.7524 79.4894 57.2877 81.6733 51.549 84.078C45.1366 86.7615 39.154 88.2949 32.5673 85.35C26.393 82.5852 21.6533 83.2881 17.117 87.7954C18.2612 88.2891 19.2254 88.8176 20.2477 89.1313C30.2788 92.1923 37.3824 98.2795 41.5354 108.142C44.457 115.095 48.5054 121.565 51.7291 128.402C53.2799 131.683 54.0873 135.314 55.2548 138.868C47.1288 139.571 40.3853 132.619 32.5963 140.013C38.7358 144.921 44.5093 149.573 50.3351 154.162C52.3448 155.747 54.3429 157.2 51.3573 159.633C53.3148 159.291 55.4464 158.268 57.1599 158.75C63.1077 160.406 68.9219 162.543 74.7477 164.594C75.526 164.867 76.1184 165.668 78.1281 167.312C72.6625 168.294 68.4456 170.036 64.5307 169.519C58.9837 168.781 53.6284 166.458 48.2789 164.582C47.64 164.356 47.5064 162.683 47.1347 161.684C43.3128 162.143 41.4018 160.261 39.9671 156.799C38.1607 152.431 35.6457 148.353 33.4327 144.148L32.2536 144.677C35.4831 151.438 38.7125 158.199 41.8723 164.809C37.1559 168.055 30.4879 169.153 26.8054 175.624C24.906 178.958 20.7008 181.362 17.0531 183.239C9.33377 187.2 3.09558 198.027 3.20594 206.733C3.27564 212.176 2.76449 217.961 0.911621 223.008C-1.77185 230.31 2.02102 235.375 5.15754 240.834C5.47119 241.38 8.13723 241.398 8.84005 240.736C10.6465 239.034 12.418 237.012 13.388 234.765C18.1451 223.793 27.2642 217.212 36.6912 210.863C46.4377 204.3 56.2074 197.76 65.8667 191.068C67.1619 190.174 68.039 188.536 68.8464 187.095C71.9016 181.647 76.0546 179.515 82.2927 180.514C86.9511 181.258 91.5571 182.396 96.2386 182.873C100.63 183.32 105.096 183.285 109.511 183.111C110.556 183.07 111.55 181.63 112.432 180.933C111.05 179.074 109.883 177.5 108.715 175.926C108.918 175.537 109.116 175.153 109.319 174.764C117.718 177.128 126.535 170.629 134.458 177.355C133.708 178.15 132.448 179.486 131.188 180.822C131.408 181.089 131.635 181.357 131.856 181.624C132.779 181.194 133.708 180.758 135.219 180.05C134.556 185.109 137.809 190.731 130.084 193.455C131.896 196.819 133.511 200.153 135.428 203.312C138.355 208.139 142.81 208.302 147.869 207.471C151.18 206.931 154.735 207.012 158.046 207.587C164.11 208.633 170.081 210.236 176.081 211.647C176.795 211.816 177.446 212.246 177.887 213.512C175.773 213.14 173.658 212.768 171.306 212.356C173.507 218.908 177.719 221.905 185.537 220.947C179.641 224.85 180.931 233.609 173.873 234.073C172.142 238.255 170.4 241.921 169.093 245.737C165.858 255.187 164.539 260.844 172.201 268.982C173.839 270.724 175.639 273.385 175.494 275.493C175.221 279.466 177.411 280.023 180.164 280.633C177.358 276.986 177.236 273.547 182.017 269.098C182.772 273.919 183.353 277.613 184.038 281.958C181.889 281.174 180.954 280.831 180.013 280.488C179.124 282.602 178.23 284.722 177.341 286.837L177.265 286.424L177.312 286.389ZM293.601 204.637C294.205 206.582 294.81 208.534 295.414 210.48C294.717 210.718 294.02 210.956 293.323 211.194C292.515 209.359 291.702 207.523 290.895 205.688C291.847 205.392 292.794 205.095 293.747 204.799C292.858 202.034 291.975 199.264 291.086 196.499C291.685 196.307 292.283 196.116 292.887 195.93C294.008 197.759 295.35 199.49 296.192 201.436C297.185 203.742 296.215 204.979 293.607 204.642L293.601 204.637ZM348.479 327.908C346.853 328.703 345.22 329.505 344.767 329.726C342.549 328.262 341.311 326.856 339.952 326.729C338.692 326.607 337.304 327.855 335.648 328.651C333.999 328.291 331.635 327.78 328.928 327.193C328.823 325.944 328.696 324.365 328.661 323.941C330.699 322.152 332.088 320.932 333.476 319.706C333.273 319.48 333.075 319.253 332.872 319.033C332.175 319.288 331.478 319.544 330.781 319.799C330.583 319.247 330.38 318.69 330.183 318.138C332.634 317.325 335.085 316.512 336.763 315.954C338.814 319.451 339.935 322.396 341.95 324.463C343.559 326.113 346.272 326.694 348.496 327.745C350.082 327.205 351.668 326.665 353.77 325.944C352.754 329.418 352.144 331.515 351.534 333.612C351.069 333.693 350.611 333.78 350.146 333.861C349.588 331.875 349.037 329.888 348.479 327.902V327.908ZM268.3 299.696C267.952 300.486 267.603 301.271 267.255 302.06C264.025 302.548 260.418 304.186 257.653 303.274C252.257 301.503 246.17 300.347 242.993 294.353C241.907 292.302 239.485 290.961 237.673 289.294C237.347 289.526 237.022 289.764 236.703 289.996C238.393 292.924 240.083 295.846 241.773 298.773C241.402 299.267 241.03 299.76 240.658 300.248C239.38 299.511 237.789 299.04 236.877 297.983C233.589 294.19 230.313 290.351 227.479 286.221C226.213 284.374 225.765 281.841 225.365 279.541C224.319 273.53 228.019 271.526 233.072 270.085C235.657 269.348 237.731 266.943 240.164 265.52C241.471 264.759 243.301 263.725 244.468 264.109C248.482 265.427 251.746 267.872 251.921 272.641C252.06 276.428 251.95 280.227 251.95 282.306C257.967 288.707 263.136 294.196 268.3 299.691V299.696ZM268.532 264.422C270.838 268.569 272.418 272.24 274.724 275.383C279.208 281.493 278.134 289.503 274.184 292.273C271.971 291.507 269.735 291.425 268.753 290.269C265.338 286.262 261.208 282.3 259.477 277.549C256.811 270.248 255.591 262.349 254.418 254.606C253.965 251.615 254.29 247.282 256.132 245.499C258.188 243.506 262.474 242.821 265.611 243.164C270.792 243.727 274.143 246.881 276.078 252.312C278.465 259.015 280.254 265.468 278.68 273.559C275.119 270.353 272.279 267.791 268.532 264.416V264.422ZM271.524 180.178C270.269 173.765 266.836 173.51 262.283 175.287C262.933 180.7 269.764 184.348 265.57 192.061C261.835 188.274 258.13 185.184 255.313 181.426C253.285 178.72 252.664 175.002 251.032 171.941C248.29 166.795 245.223 161.829 242.372 156.741C242.104 156.264 242.325 155.457 242.459 154.83C244.039 147.261 245.549 139.67 247.332 132.148C247.622 130.917 248.999 129.529 250.195 129.07C251.009 128.756 252.554 129.743 253.495 130.499C255.44 132.061 257.369 133.705 258.983 135.592C260.436 137.294 262.707 139.565 262.434 141.232C261.713 145.658 263.566 146.942 265.884 145.769C263.537 149.434 261.185 153.105 258.49 157.316C258.879 158.379 260.505 160.749 260.459 163.089C260.36 167.945 263.444 169.432 267.005 170.814C268.405 171.36 269.903 171.703 271.222 172.394C274.8 174.265 274.98 176.646 271.524 180.172V180.178ZM271.954 211.02C272.581 208.162 273.133 205.206 273.882 202.302C275.351 196.615 277.233 191.016 278.354 185.266C279.08 181.537 280.411 177.947 284.273 178.72C286.399 179.144 288.949 183.018 289.303 185.614C290.052 191.074 289.181 196.737 289.565 202.273C289.797 205.682 290.517 209.341 292.109 212.298C294.06 215.934 293.915 219.181 290.169 221.185C286.759 223.008 283.268 224.693 279.743 226.279C277.39 227.336 275.328 226.964 274.666 224.083C273.696 219.837 272.889 215.551 271.959 211.014L271.954 211.02ZM235.134 209.37C240.164 207.564 244.213 205.601 248.476 204.788C250.84 204.335 254.267 205.02 256.027 206.553C266.273 215.475 271.024 227.487 273.835 240.416C273.981 241.096 273.545 241.903 273.278 243.14C270.751 241.973 268.608 241.055 266.529 240.01C260.894 237.187 255.94 234.033 257.096 226.308C257.334 224.734 255.986 222.189 254.587 221.237C249.678 217.903 244.422 215.074 239.305 212.036C238.056 211.293 236.854 210.48 235.14 209.376L235.134 209.37ZM107.594 174.805C107.106 175.601 106.618 176.396 106.13 177.192C102.779 175.996 99.4333 174.799 95.7624 173.486C94.9202 178.696 90.6278 174.671 86.5735 175.647C90.378 176.995 92.9569 177.906 95.53 178.818C86.3702 179.666 78.2501 177.825 72.2443 170.994C78.9181 166.208 85.7371 170.071 92.5561 171.262C84.4902 165.194 80.3257 160.644 80.0623 157.612C84.0469 159.79 87.5261 161.608 90.9182 163.571C93.9037 165.296 96.8602 167.091 99.7179 169.02C102.419 170.838 104.974 172.865 107.594 174.805ZM323.851 397.957C325.019 397.55 326.883 396.371 328.771 396.342C332.576 396.284 336.461 396.493 340.156 397.318C341.759 397.672 343.641 399.571 344.233 401.192C346.742 408.057 343.193 413.924 340.341 419.773C339.923 420.633 337.571 421.568 337.275 421.277C336.183 420.214 334.829 418.582 334.945 417.287C335.195 414.493 336.659 411.81 336.943 409.016C337.263 405.868 336.827 402.644 336.717 399.455C336.194 399.461 335.677 399.467 335.155 399.473C333.941 403.347 332.727 407.227 331.518 411.101C330.984 411.159 330.45 411.223 329.91 411.281C328.028 407.134 326.146 402.993 323.857 397.963L323.851 397.957ZM284.54 312.004C290.918 320.119 292.149 331.904 301.605 337.422C299.16 340.402 296.686 343.422 294.223 346.431C287.323 340.163 281.224 317.714 284.54 312.004ZM267.284 215.469C263.212 210.602 259.262 206.67 256.323 202.087C254.494 199.229 253.773 195.448 253.332 191.98C252.896 188.576 254.807 188.396 257.816 189.483C264.577 191.922 270.862 203.882 267.284 215.469ZM389.991 341.093C377.59 336.434 385.031 325.422 382.098 317.737C390.137 318.388 393.627 328.884 389.991 341.093ZM376.859 365.349C385.019 368.897 388.423 379.788 383.776 387.821C379.571 380.898 373.629 374.834 376.859 365.349ZM384.752 351.443C376.464 351.246 375.482 349.619 376.469 337.689C383.48 336.928 384.09 337.939 384.752 351.443ZM34.7919 206.943C38.3292 196.412 46.5074 192.503 54.8075 197.463C48.093 200.646 41.8258 203.609 34.7919 206.943ZM383.451 365.116C374.866 364.506 378.293 357.379 375.883 352.93C383.056 355.044 385.24 358.692 383.451 365.116ZM274.01 196.679C273.411 196.557 272.807 196.441 272.209 196.319C268.463 189.558 272.924 184.545 275.102 179.045C275.659 179.149 276.223 179.254 276.78 179.359C275.857 185.132 274.933 190.906 274.01 196.679ZM243.231 23.88C236.97 23.9787 234.635 22.1898 233.281 16.5266C238.956 15.6031 240.24 20.5692 243.231 23.88ZM229.047 10.7182C228.85 11.7231 228.652 12.7337 228.455 13.7386C223.715 12.5943 218.981 11.4559 214.242 10.3116C214.346 9.69594 214.456 9.07446 214.561 8.45877C219.388 9.21386 224.215 9.96313 229.041 10.7182H229.047ZM48.3544 140.785C48.8656 140.332 49.3767 139.873 49.8878 139.42C51.5955 141.331 53.2973 143.248 55.005 145.159C54.4823 145.629 53.9595 146.094 53.4309 146.564C51.7407 144.636 50.0447 142.714 48.3544 140.785ZM300.31 125.678C297.958 120.049 299.282 112.731 292.608 109.066C292.294 108.891 292.248 108.148 292.167 107.654C290.941 100.092 289.576 92.5466 288.589 84.9492C288.165 81.6559 287.357 77.59 288.798 75.046C291.795 69.7545 291.383 64.3528 291.324 58.8987C291.22 48.3797 298.219 45.7311 306.821 46.7824C314.378 47.7059 319.431 52.1784 322.533 59.102C323.16 60.5018 324.496 61.8958 325.861 62.6044C329.759 64.6199 332.192 67.5299 332.709 71.9211C333.261 76.5968 334.173 81.2784 334.19 85.9541C334.214 91.5882 332.146 96.1536 326.738 99.3134C323.793 101.033 321.116 104.303 319.786 107.486C315.929 116.721 313.623 126.322 315.708 136.545C316.289 139.38 315.795 142.435 315.795 145.136C308.186 145.362 306.653 139.989 305.23 134.379C304.87 132.955 303.859 131.701 303.15 130.371C302.994 130.092 302.837 129.813 302.674 129.534C301.873 128.251 300.873 127.054 300.298 125.678H300.31ZM91.0924 206.234C86.8814 219.21 91.1157 230.054 99.0964 240.219C102.5 244.552 103.197 249.75 101.304 255.077C100.473 257.406 99.3171 259.63 98.6317 261.994C96.3722 269.766 90.8543 275.29 83.5648 276.44C78.7322 277.201 75.8338 278.815 72.767 281.981C67.6731 287.243 62.37 285.652 60.1861 278.42C59.3613 275.69 58.7514 272.897 57.9266 270.167C54.854 260.002 58.3564 250.401 60.4068 240.678C60.4707 240.37 60.7088 240.039 60.9586 239.841C66.7553 235.404 66.1571 228.544 67.4582 222.457C69.9674 210.741 77.4311 200.699 91.1389 202.389C91.1389 203.649 91.47 205.055 91.0866 206.228L91.0924 206.234Z" fill="white"/>
</mask>
<g mask="url(#mask0_53_55146)">
<path d="M538.271 0.706055H-62.5293V3.79611H538.271V0.706055Z" fill="#00F2FF"/>
<path d="M538.271 7.72852H-62.5293V10.8186H538.271V7.72852Z" fill="#00F2FF"/>
<path d="M538.271 14.7559H-62.5293V17.8459H538.271V14.7559Z" fill="#00F2FF"/>
<path d="M538.271 21.7852H-62.5293V24.8752H538.271V21.7852Z" fill="#00F2FF"/>
<path d="M538.271 28.8057H-62.5293V31.8957H538.271V28.8057Z" fill="#00F2FF"/>
<path d="M538.271 35.834H-62.5293V38.924H538.271V35.834Z" fill="#00F2FF"/>
<path d="M538.271 42.8623H-62.5293V45.9524H538.271V42.8623Z" fill="#00F2FF"/>
<path d="M538.271 49.8848H-62.5293V52.9748H538.271V49.8848Z" fill="#00F2FF"/>
<path d="M538.271 56.9141H-62.5293V60.0041H538.271V56.9141Z" fill="#00F2FF"/>
<path d="M538.271 63.9424H-62.5293V67.0324H538.271V63.9424Z" fill="#00F2FF"/>
<path d="M538.271 70.9639H-62.5293V74.0539H538.271V70.9639Z" fill="#00F2FF"/>
<path d="M538.271 77.9912H-62.5293V81.0813H538.271V77.9912Z" fill="#00F2FF"/>
<path d="M538.271 85.0137H-62.5293V88.1037H538.271V85.0137Z" fill="#00F2FF"/>
<path d="M538.271 92.042H-62.5293V95.132H538.271V92.042Z" fill="#00F2FF"/>
<path d="M538.271 99.0703H-62.5293V102.16H538.271V99.0703Z" fill="#00F2FF"/>
<path d="M538.271 106.093H-62.5293V109.183H538.271V106.093Z" fill="#00F2FF"/>
<path d="M538.271 113.121H-62.5293V116.211H538.271V113.121Z" fill="#00F2FF"/>
<path d="M538.271 120.149H-62.5293V123.239H538.271V120.149Z" fill="#00F2FF"/>
<path d="M538.271 127.171H-62.5293V130.261H538.271V127.171Z" fill="#00F2FF"/>
<path d="M538.271 134.2H-62.5293V137.29H538.271V134.2Z" fill="#00F2FF"/>
<path d="M538.271 141.228H-62.5293V144.318H538.271V141.228Z" fill="#00F2FF"/>
<path d="M538.271 148.25H-62.5293V151.34H538.271V148.25Z" fill="#00F2FF"/>
<path d="M538.271 155.278H-62.5293V158.368H538.271V155.278Z" fill="#00F2FF"/>
<path d="M538.271 162.307H-62.5293V165.397H538.271V162.307Z" fill="#00F2FF"/>
<path d="M538.271 169.328H-62.5293V172.418H538.271V169.328Z" fill="#00F2FF"/>
<path d="M538.271 176.356H-62.5293V179.447H538.271V176.356Z" fill="#00F2FF"/>
<path d="M538.271 183.385H-62.5293V186.475H538.271V183.385Z" fill="#00F2FF"/>
<path d="M538.271 190.407H-62.5293V193.497H538.271V190.407Z" fill="#00F2FF"/>
<path d="M538.271 197.437H-62.5293V200.527H538.271V197.437Z" fill="#00F2FF"/>
<path d="M538.271 204.464H-62.5293V207.554H538.271V204.464Z" fill="#00F2FF"/>
<path d="M538.271 211.485H-62.5293V214.575H538.271V211.485Z" fill="#00F2FF"/>
<path d="M538.271 218.514H-62.5293V221.604H538.271V218.514Z" fill="#00F2FF"/>
<path d="M538.271 225.542H-62.5293V228.632H538.271V225.542Z" fill="#00F2FF"/>
<path d="M538.271 232.564H-62.5293V235.655H538.271V232.564Z" fill="#00F2FF"/>
<path d="M538.271 239.593H-62.5293V242.683H538.271V239.593Z" fill="#00F2FF"/>
<path d="M538.271 246.62H-62.5293V249.71H538.271V246.62Z" fill="#00F2FF"/>
<path d="M538.271 253.643H-62.5293V256.733H538.271V253.643Z" fill="#00F2FF"/>
<path d="M538.271 260.672H-62.5293V263.762H538.271V260.672Z" fill="#00F2FF"/>
<path d="M538.271 267.699H-62.5293V270.789H538.271V267.699Z" fill="#00F2FF"/>
<path d="M538.271 274.722H-62.5293V277.812H538.271V274.722Z" fill="#00F2FF"/>
<path d="M538.271 281.749H-62.5293V284.839H538.271V281.749Z" fill="#00F2FF"/>
<path d="M538.271 288.778H-62.5293V291.868H538.271V288.778Z" fill="#00F2FF"/>
<path d="M538.271 295.801H-62.5293V298.891H538.271V295.801Z" fill="#00F2FF"/>
<path d="M538.271 302.828H-62.5293V305.918H538.271V302.828Z" fill="#00F2FF"/>
<path d="M538.271 309.855H-62.5293V312.946H538.271V309.855Z" fill="#00F2FF"/>
<path d="M538.271 316.879H-62.5293V319.969H538.271V316.879Z" fill="#00F2FF"/>
<path d="M538.271 323.907H-62.5293V326.997H538.271V323.907Z" fill="#00F2FF"/>
<path d="M538.271 330.936H-62.5293V334.026H538.271V330.936Z" fill="#00F2FF"/>
<path d="M538.271 337.958H-62.5293V341.048H538.271V337.958Z" fill="#00F2FF"/>
<path d="M538.271 344.985H-62.5293V348.075H538.271V344.985Z" fill="#00F2FF"/>
<path d="M538.271 352.008H-62.5293V355.098H538.271V352.008Z" fill="#00F2FF"/>
<path d="M538.271 359.036H-62.5293V362.126H538.271V359.036Z" fill="#00F2FF"/>
<path d="M538.271 366.063H-62.5293V369.154H538.271V366.063Z" fill="#00F2FF"/>
<path d="M538.271 373.086H-62.5293V376.176H538.271V373.086Z" fill="#00F2FF"/>
<path d="M538.271 380.114H-62.5293V383.204H538.271V380.114Z" fill="#00F2FF"/>
<path d="M538.271 387.143H-62.5293V390.233H538.271V387.143Z" fill="#00F2FF"/>
<path d="M538.271 394.166H-62.5293V397.256H538.271V394.166Z" fill="#00F2FF"/>
<path d="M538.271 401.193H-62.5293V404.283H538.271V401.193Z" fill="#00F2FF"/>
<path d="M538.271 408.221H-62.5293V411.311H538.271V408.221Z" fill="#00F2FF"/>
<path d="M538.271 415.243H-62.5293V418.333H538.271V415.243Z" fill="#00F2FF"/>
<path d="M538.271 422.272H-62.5293V425.363H538.271V422.272Z" fill="#00F2FF"/>
<path d="M538.271 429.3H-62.5293V432.39H538.271V429.3Z" fill="#00F2FF"/>
<path d="M538.271 436.322H-62.5293V439.412H538.271V436.322Z" fill="#00F2FF"/>
<path d="M239.805 -142.344L-185.025 282.486L-184.491 283.02L240.339 -141.81L239.805 -142.344Z" fill="#00F2FF"/>
<path d="M243.393 -138.754L-181.438 286.076L-180.904 286.61L243.927 -138.22L243.393 -138.754Z" fill="#00F2FF"/>
<path d="M246.989 -135.169L-177.842 289.661L-177.308 290.195L247.522 -134.635L246.989 -135.169Z" fill="#00F2FF"/>
<path d="M250.578 -131.579L-174.252 293.251L-173.718 293.785L251.112 -131.045L250.578 -131.579Z" fill="#00F2FF"/>
<path d="M254.166 -127.984L-170.664 296.847L-170.13 297.381L254.7 -127.45L254.166 -127.984Z" fill="#00F2FF"/>
<path d="M257.756 -124.39L-167.074 300.44L-166.54 300.974L258.29 -123.856L257.756 -124.39Z" fill="#00F2FF"/>
<path d="M261.346 -120.801L-163.484 304.029L-162.95 304.563L261.88 -120.267L261.346 -120.801Z" fill="#00F2FF"/>
<path d="M264.938 -117.215L-159.893 307.615L-159.359 308.149L265.472 -116.681L264.938 -117.215Z" fill="#00F2FF"/>
<path d="M268.528 -113.619L-156.303 311.211L-155.769 311.745L269.061 -113.085L268.528 -113.619Z" fill="#00F2FF"/>
<path d="M272.121 -110.026L-152.709 314.805L-152.175 315.339L272.655 -109.492L272.121 -110.026Z" fill="#00F2FF"/>
<path d="M275.709 -106.437L-149.121 318.394L-148.587 318.927L276.243 -105.903L275.709 -106.437Z" fill="#00F2FF"/>
<path d="M279.303 -102.85L-145.527 321.98L-144.993 322.514L279.837 -102.316L279.303 -102.85Z" fill="#00F2FF"/>
<path d="M282.895 -99.261L-141.936 325.569L-141.402 326.103L283.429 -98.727L282.895 -99.261Z" fill="#00F2FF"/>
<path d="M286.483 -95.6653L-138.348 329.165L-137.814 329.699L287.017 -95.1313L286.483 -95.6653Z" fill="#00F2FF"/>
<path d="M290.078 -92.0725L-134.752 332.758L-134.218 333.292L290.612 -91.5386L290.078 -92.0725Z" fill="#00F2FF"/>
<path d="M293.666 -88.4836L-131.164 336.347L-130.63 336.881L294.2 -87.9497L293.666 -88.4836Z" fill="#00F2FF"/>
<path d="M297.26 -84.8967L-127.57 339.934L-127.036 340.468L297.794 -84.3628L297.26 -84.8967Z" fill="#00F2FF"/>
<path d="M300.85 -81.301L-123.98 343.529L-123.447 344.063L301.384 -80.7671L300.85 -81.301Z" fill="#00F2FF"/>
<path d="M304.438 -77.7073L-120.393 347.123L-119.859 347.657L304.972 -77.1733L304.438 -77.7073Z" fill="#00F2FF"/>
<path d="M308.028 -74.1184L-116.803 350.712L-116.269 351.246L308.561 -73.5845L308.028 -74.1184Z" fill="#00F2FF"/>
<path d="M311.619 -70.5324L-113.211 354.298L-112.677 354.832L312.153 -69.9985L311.619 -70.5324Z" fill="#00F2FF"/>
<path d="M315.209 -66.9367L-109.621 357.894L-109.087 358.427L315.743 -66.4028L315.209 -66.9367Z" fill="#00F2FF"/>
<path d="M318.803 -63.344L-106.027 361.486L-105.493 362.02L319.337 -62.81L318.803 -63.344Z" fill="#00F2FF"/>
<path d="M322.393 -59.7541L-102.438 365.076L-101.904 365.61L322.927 -59.2202L322.393 -59.7541Z" fill="#00F2FF"/>
<path d="M325.987 -56.1682L-98.8438 368.662L-98.3098 369.196L326.52 -55.6343L325.987 -56.1682Z" fill="#00F2FF"/>
<path d="M329.576 -52.5783L-95.2539 372.252L-94.72 372.786L330.11 -52.0444L329.576 -52.5783Z" fill="#00F2FF"/>
<path d="M333.164 -48.9846L-91.666 375.846L-91.1321 376.38L333.698 -48.4507L333.164 -48.9846Z" fill="#00F2FF"/>
<path d="M336.76 -45.3899L-88.0703 379.44L-87.5364 379.974L337.294 -44.8559L336.76 -45.3899Z" fill="#00F2FF"/>
<path d="M340.346 -41.8L-84.4844 383.03L-83.9505 383.564L340.88 -41.2661L340.346 -41.8Z" fill="#00F2FF"/>
<path d="M343.94 -38.2151L-80.8906 386.615L-80.3567 387.149L344.474 -37.6811L343.94 -38.2151Z" fill="#00F2FF"/>
<path d="M347.531 -34.6203L-77.2988 390.21L-76.7649 390.744L348.065 -34.0864L347.531 -34.6203Z" fill="#00F2FF"/>
<path d="M351.117 -31.0266L-73.7129 393.804L-73.179 394.338L351.651 -30.4927L351.117 -31.0266Z" fill="#00F2FF"/>
<path d="M354.709 -27.4358L-70.1211 397.395L-69.5871 397.928L355.243 -26.9018L354.709 -27.4358Z" fill="#00F2FF"/>
<path d="M358.303 -23.8518L-66.5273 400.979L-65.9934 401.512L358.837 -23.3179L358.303 -23.8518Z" fill="#00F2FF"/>
<path d="M361.893 -20.2619L-62.9375 404.568L-62.4036 405.102L362.427 -19.728L361.893 -20.2619Z" fill="#00F2FF"/>
<path d="M365.485 -16.6623L-59.3457 408.168L-58.8118 408.702L366.019 -16.1284L365.485 -16.6623Z" fill="#00F2FF"/>
<path d="M369.074 -13.0725L-55.7559 411.758L-55.2219 412.292L369.608 -12.5386L369.074 -13.0725Z" fill="#00F2FF"/>
<path d="M372.67 -9.48655L-52.1602 415.344L-51.6262 415.878L373.204 -8.95263L372.67 -9.48655Z" fill="#00F2FF"/>
<path d="M376.258 -5.89768L-48.5723 418.933L-48.0383 419.467L376.792 -5.36376L376.258 -5.89768Z" fill="#00F2FF"/>
<path d="M379.848 -2.30198L-44.9824 422.528L-44.4485 423.062L380.382 -1.76806L379.848 -2.30198Z" fill="#00F2FF"/>
<path d="M383.442 1.29177L-41.3887 426.122L-40.8547 426.656L383.976 1.82569L383.442 1.29177Z" fill="#00F2FF"/>
<path d="M387.03 4.88064L-37.8008 429.711L-37.2669 430.245L387.563 5.41456L387.03 4.88064Z" fill="#00F2FF"/>
<path d="M390.625 8.46658L-34.2051 433.297L-33.6712 433.831L391.159 9.0005L390.625 8.46658Z" fill="#00F2FF"/>
<path d="M394.207 12.0623L-30.623 436.893L-30.0891 437.427L394.741 12.5962L394.207 12.0623Z" fill="#00F2FF"/>
<path d="M397.801 15.656L-27.0293 440.486L-26.4953 441.02L398.335 16.19L397.801 15.656Z" fill="#00F2FF"/>
<path d="M401.389 19.2459L-23.4414 444.076L-22.9075 444.61L401.923 19.7798L401.389 19.2459Z" fill="#00F2FF"/>
<path d="M404.985 22.8308L-19.8457 447.661L-19.3118 448.195L405.519 23.3648L404.985 22.8308Z" fill="#00F2FF"/>
<path d="M408.574 26.4207L-16.2559 451.251L-15.7219 451.785L409.108 26.9546L408.574 26.4207Z" fill="#00F2FF"/>
<path d="M412.162 30.0164L-12.668 454.847L-12.134 455.381L412.696 30.5503L412.162 30.0164Z" fill="#00F2FF"/>
<path d="M415.756 33.6092L-9.07422 458.439L-8.5403 458.973L416.29 34.1431L415.756 33.6092Z" fill="#00F2FF"/>
<path d="M419.346 37.199L-5.48438 462.029L-4.95045 462.563L419.88 37.7329L419.346 37.199Z" fill="#00F2FF"/>
<path d="M422.94 40.7849L-1.89062 465.615L-1.3567 466.149L423.474 41.3189L422.94 40.7849Z" fill="#00F2FF"/>
<path d="M426.53 44.3806L1.69922 469.211L2.23314 469.745L427.063 44.9146L426.53 44.3806Z" fill="#00F2FF"/>
<path d="M430.123 47.9734L5.29297 472.804L5.82689 473.338L430.657 48.5073L430.123 47.9734Z" fill="#00F2FF"/>
<path d="M433.713 51.5633L8.88281 476.394L9.41674 476.927L434.247 52.0972L433.713 51.5633Z" fill="#00F2FF"/>
<path d="M437.307 55.1482L12.4766 479.979L13.0105 480.512L437.841 55.6822L437.307 55.1482Z" fill="#00F2FF"/>
<path d="M440.889 58.738L16.0586 483.568L16.5925 484.102L441.423 59.272L440.889 58.738Z" fill="#00F2FF"/>
<path d="M444.485 62.3367L19.6543 487.167L20.1882 487.701L445.019 62.8706L444.485 62.3367Z" fill="#00F2FF"/>
<path d="M448.072 65.9275L23.2422 490.758L23.7761 491.292L448.606 66.4614L448.072 65.9275Z" fill="#00F2FF"/>
<path d="M451.666 69.5125L26.8359 494.343L27.3699 494.877L452.2 70.0464L451.666 69.5125Z" fill="#00F2FF"/>
<path d="M455.256 73.1023L30.4258 497.933L30.9597 498.467L455.79 73.6362L455.256 73.1023Z" fill="#00F2FF"/>
<path d="M458.844 76.698L34.0137 501.528L34.5476 502.062L459.378 77.2319L458.844 76.698Z" fill="#00F2FF"/>
<path d="M462.44 80.2908L37.6094 505.121L38.1433 505.655L462.974 80.8247L462.44 80.2908Z" fill="#00F2FF"/>
<path d="M466.028 83.8806L41.1973 508.711L41.7312 509.245L466.561 84.4146L466.028 83.8806Z" fill="#00F2FF"/>
<path d="M469.621 87.4666L44.791 512.297L45.3249 512.831L470.155 88.0005L469.621 87.4666Z" fill="#00F2FF"/>
<path d="M473.211 91.0613L48.3809 515.892L48.9148 516.426L473.745 91.5952L473.211 91.0613Z" fill="#00F2FF"/>
<path d="M476.805 94.656L51.9746 519.486L52.5085 520.02L477.339 95.19L476.805 94.656Z" fill="#00F2FF"/>
<path d="M480.395 98.2449L55.5645 523.075L56.0984 523.609L480.929 98.7788L480.395 98.2449Z" fill="#00F2FF"/>
<path d="M483.989 101.831L59.1582 526.661L59.6922 527.195L484.522 102.365L483.989 101.831Z" fill="#00F2FF"/>
<path d="M487.571 105.42L62.7402 530.25L63.2742 530.784L488.105 105.954L487.571 105.42Z" fill="#00F2FF"/>
<path d="M491.162 109.015L66.332 533.846L66.866 534.38L491.696 109.549L491.162 109.015Z" fill="#00F2FF"/>
<path d="M494.754 112.609L69.9238 537.439L70.4578 537.973L495.288 113.143L494.754 112.609Z" fill="#00F2FF"/>
<path d="M498.35 116.195L73.5195 541.025L74.0535 541.559L498.884 116.729L498.35 116.195Z" fill="#00F2FF"/>
<path d="M501.936 119.785L77.1055 544.615L77.6394 545.149L502.47 120.319L501.936 119.785Z" fill="#00F2FF"/>
<path d="M505.528 123.38L80.6973 548.21L81.2312 548.744L506.061 123.914L505.528 123.38Z" fill="#00F2FF"/>
<path d="M509.121 126.974L84.291 551.805L84.8249 552.339L509.655 127.508L509.121 126.974Z" fill="#00F2FF"/>
<path d="M512.709 130.562L87.8789 555.393L88.4128 555.927L513.243 131.096L512.709 130.562Z" fill="#00F2FF"/>
<path d="M516.303 134.148L91.4727 558.979L92.0066 559.512L516.837 134.682L516.303 134.148Z" fill="#00F2FF"/>
<path d="M519.895 137.744L95.0645 562.574L95.5984 563.108L520.429 138.278L519.895 137.744Z" fill="#00F2FF"/>
<path d="M523.487 141.338L98.6562 566.168L99.1902 566.702L524.02 141.872L523.487 141.338Z" fill="#00F2FF"/>
<path d="M527.076 144.927L102.246 569.758L102.78 570.292L527.61 145.461L527.076 144.927Z" fill="#00F2FF"/>
<path d="M530.67 148.512L105.84 573.343L106.374 573.877L531.204 149.046L530.67 148.512Z" fill="#00F2FF"/>
<path d="M534.254 152.102L109.424 576.933L109.958 577.467L534.788 152.636L534.254 152.102Z" fill="#00F2FF"/>
<path d="M537.844 155.698L113.014 580.528L113.548 581.062L538.378 156.232L537.844 155.698Z" fill="#00F2FF"/>
<path d="M541.436 159.291L116.605 584.121L117.139 584.655L541.97 159.825L541.436 159.291Z" fill="#00F2FF"/>
<path d="M545.031 162.876L120.201 587.706L120.735 588.24L545.565 163.41L545.031 162.876Z" fill="#00F2FF"/>
<path d="M548.619 166.467L123.789 591.297L124.323 591.831L549.153 167L548.619 166.467Z" fill="#00F2FF"/>
<path d="M552.209 170.061L127.379 594.892L127.913 595.426L552.743 170.595L552.209 170.061Z" fill="#00F2FF"/>
<path d="M555.803 173.655L130.973 598.485L131.507 599.019L556.337 174.189L555.803 173.655Z" fill="#00F2FF"/>
<path d="M559.393 177.245L134.562 602.075L135.096 602.609L559.927 177.779L559.393 177.245Z" fill="#00F2FF"/>
<path d="M562.987 180.83L138.156 605.66L138.69 606.194L563.52 181.364L562.987 180.83Z" fill="#00F2FF"/>
<path d="M566.574 184.427L141.744 609.257L142.278 609.791L567.108 184.961L566.574 184.427Z" fill="#00F2FF"/>
<path d="M570.168 188.019L145.338 612.85L145.872 613.384L570.702 188.553L570.168 188.019Z" fill="#00F2FF"/>
<path d="M573.758 191.609L148.928 616.439L149.462 616.973L574.292 192.143L573.758 191.609Z" fill="#00F2FF"/>
<path d="M577.352 195.195L152.521 620.025L153.055 620.559L577.886 195.729L577.352 195.195Z" fill="#00F2FF"/>
<path d="M580.936 198.784L156.105 623.614L156.639 624.148L581.47 199.318L580.936 198.784Z" fill="#00F2FF"/>
<path d="M584.524 202.379L159.693 627.209L160.227 627.743L585.058 202.913L584.524 202.379Z" fill="#00F2FF"/>
<path d="M588.117 205.972L163.287 630.803L163.821 631.337L588.651 206.506L588.117 205.972Z" fill="#00F2FF"/>
<path d="M591.709 209.562L166.879 634.393L167.413 634.927L592.243 210.096L591.709 209.562Z" fill="#00F2FF"/>
<path d="M595.303 213.148L170.473 637.979L171.007 638.512L595.837 213.682L595.303 213.148Z" fill="#00F2FF"/>
<path d="M598.893 216.744L174.062 641.574L174.596 642.108L599.427 217.278L598.893 216.744Z" fill="#00F2FF"/>
<path d="M602.485 220.338L177.654 645.168L178.188 645.702L603.019 220.872L602.485 220.338Z" fill="#00F2FF"/>
</g>
</svg>
