<svg width="522" height="897" viewBox="0 0 522 897" fill="none" xmlns="http://www.w3.org/2000/svg">
<mask id="mask0_53_81334" style="mask-type:luminance" maskUnits="userSpaceOnUse" x="0" y="0" width="522" height="897">
<path d="M390.19 599.946C389.858 597.833 389.594 595.702 389.17 593.606C388.495 590.285 386.37 590.611 383.575 590.892C378.278 591.418 381.983 594.981 381.141 597.105C378.369 595.404 377.957 593.915 378.977 590.393C382.894 576.878 387.842 564.227 399.548 555.379C399.96 555.07 400.332 554.102 400.149 553.701C395.052 542.545 405.217 542.236 410.692 538.261C413.115 536.503 414.38 533.142 416.608 529.86C413.407 531.149 411.322 533.25 408.401 532.712C402.474 531.618 398.001 532.987 396.552 539.613C396.186 541.291 395.344 542.505 393.357 541.537C392.051 540.901 391.484 539.47 392.08 538.427C394.949 533.416 396.575 528.829 392.956 523.068C391.845 521.298 398.259 520.227 397.165 514.804C395.275 505.452 398.54 496.043 399.994 486.032C402.703 487.722 403.092 489.153 403.533 491.41C404.175 494.714 404.77 499.204 410.033 499.147C415.646 499.084 420.519 499.668 419.952 507.405C419.746 510.205 423.635 511.402 424.482 509.999C428.325 503.648 434.23 507.748 439.052 506.901C437.86 501.827 424.322 502.153 434.109 493.7C429.831 492.04 425.874 490.453 421.882 488.964C414.392 486.164 414.122 485.179 419.54 477.052C420.731 480.139 417.742 484.148 421.699 485.614C424.969 486.828 427.5 485.356 430.106 483.306C432.964 481.061 449.074 482.092 452.407 484.188C454.698 485.631 457.063 487.034 459.56 488.042C460.407 488.386 461.759 487.475 462.881 487.137C460.86 483.226 459.766 477.173 456.639 475.827C448.925 472.499 440.357 474.991 432.151 475.941C432.139 468.204 432.128 468.307 439.865 468.914C444.206 469.252 448.553 466.721 449.583 463.531C451.027 459.081 445.729 459.98 443.123 459.31C435.57 457.358 430.845 449.197 421.716 450.308C422.232 452.324 426.538 455.41 422.415 457.054C412.748 460.897 412.507 469.682 410.446 477.614C409.93 479.607 410.503 482.189 406.334 482.184C410.022 475.449 405.658 475.317 400.951 474.951C393.162 474.343 389.949 469.825 393.173 462.58C396.988 454.03 399.702 445.383 400.521 436.088C400.779 433.19 403.356 432.446 405.32 430.945C414.117 424.239 415.308 417.584 412.863 407.012C410.578 397.128 411.11 386.733 412.874 376.723C414.271 368.751 416.047 361.002 413.349 353.025C411.82 348.495 414.019 347.619 419.174 349.274C409.718 337.923 404.937 325.158 405.263 312.513C405.698 295.636 404.748 278.192 412.055 261.784C413.281 259.035 415.153 253.131 410.509 247.375C402.938 238 402.932 225.521 405.979 213.621C406.128 213.031 406.168 212.046 406.506 211.92C413.109 209.44 419.884 207.378 426.344 204.584C433.382 201.531 439.533 200.071 445.643 206.817C450.402 212.069 456.146 209.537 461.684 206.582C453.947 207.264 448.243 204.189 443.759 197.7C447.842 195.209 452.47 194.625 456.902 195.089C464.777 195.919 470.08 192.019 476.019 187.626C485.17 180.851 493.978 171.31 507.545 177.129C510.844 171.024 517.081 178.452 522 173.573C514.618 172.164 508.605 169.146 501.761 171.373C497.248 172.845 494.849 171.27 495.061 165.303C492.856 175.394 486.178 178.876 477.886 180.376C477.279 180.485 476.225 180.319 476.099 180.599C467.789 199.344 447.951 187.581 435.323 195.776C431.189 198.462 425.41 200.598 419.912 201.589C418.166 201.904 416.207 203.198 414.644 201.68C412.983 200.071 414.369 198.061 414.981 196.509C417.673 189.637 422.272 184.322 428.944 181.006C431.154 179.907 433.56 178.939 436.085 179.992C445.815 184.059 447.734 182.844 449.578 169.192C444.332 179.929 438.725 179.454 432.288 173.069C429.522 170.325 429.803 176.104 427.449 175.21C428.346 171.167 434.923 165.095 447.178 156.993C443.507 155.773 438.908 159.914 436.881 155.699C435.404 152.624 437.792 149.056 439.241 146.095C444.126 136.096 447.098 125.507 449.686 114.763L449.904 115.044C445.729 118.932 443.324 123.531 441.955 129.252C438.542 143.529 435.386 146.685 419.305 155.264C417.725 150.751 421.9 147.784 423.257 144.801C427.867 134.658 420.834 126.646 420.187 117.638C419.821 112.484 419.752 108.126 422.489 103.55C425.152 99.1172 422.736 94.6388 421.184 89.9484C420.159 90.4753 419.426 90.9277 418.641 91.2427C414.901 92.726 421.407 99.7644 414.369 99.289C408.052 98.8595 402.228 96.2079 400.813 89.8683C399.221 82.7326 391.175 77.04 395.745 68.484C395.928 68.1404 395.361 66.9263 395.201 66.9321C383.254 67.6651 388.042 59.0919 388.134 53.6743C388.22 48.6346 385.282 49.087 381.187 49.1214C384.4 55.6214 383.495 62.6369 386.324 69.114C388.581 74.2854 387.687 74.8065 380.248 75.4651C381.073 80.4475 384.91 84.1528 384.955 89.8511C384.99 94.0145 389.812 98.7679 396.255 98.682C402.05 98.6018 406.689 100.24 403.545 108.005C413.928 104.065 414.89 104.615 416.843 114.952C417.015 115.863 417.232 116.79 417.604 117.627C424.23 132.557 417.748 145.511 411.54 158.545C410.474 160.779 408.814 161.97 406.506 161.999C403.757 162.033 402.989 159.622 402.348 157.64C398.998 147.298 395.596 136.983 403.081 126.767C406.099 122.649 407.096 117.861 405.045 112.862C404.221 112.862 403.47 112.638 403.092 112.919C402.571 113.303 386.651 125.719 386.043 126.217C382.052 129.533 374.349 129.315 376.314 138.364C376.921 141.164 370.071 138.535 367.408 141.834C366.005 143.569 364.39 140.82 363.52 139.28C361.091 134.985 358.852 130.575 356.332 126.331C355.072 124.212 352.564 123.56 350.714 124.745C348.544 126.131 350.571 127.975 351.333 129.533C352.81 132.574 356.212 135.752 350.124 137.871C347.742 138.702 347.089 141.439 347.988 143.352C348.973 145.448 351.699 143.787 352.765 143.283C357.587 141.027 359.643 143.77 361.149 147.355C362.809 151.301 364.041 155.43 365.421 159.381C363.165 161.117 361.458 160.011 359.992 159.038C357.839 157.606 356.12 152.206 353.578 159.021C353.297 159.771 345.589 159.118 345.446 158.35C343.321 146.965 339.089 157.892 336.139 157.297C331.243 156.312 327.085 156.638 325.539 162.583C325.413 163.064 323.105 163.556 322.309 163.127C321.438 162.657 320.442 160.395 320.694 160.149C327.526 153.517 315.001 149.434 318.552 143.352C311.015 140.551 317.143 133.335 313.638 128.382C309.607 122.683 306.428 122.506 301.028 124.694C298.502 125.719 295.467 127.895 292.792 124.739C292.993 122.563 294.287 122.031 296 121.95C297.511 121.876 299.481 122.013 299.888 120.261C300.363 118.199 298.668 116.722 297.019 115.983C291.555 113.538 289.339 107.793 284.03 103.956C289.225 104.163 293.806 104.415 291.447 97.4392C290.943 95.9445 293.68 93.459 294.951 95.8987C297.672 101.133 300.896 97.926 303.37 96.6489C304.716 95.9502 305.999 91.9071 305.311 91.1225C303.135 88.6255 299.539 86.415 296.4 87.6634C291.819 89.4788 289.855 88.1559 288.549 84.0097C287.655 81.1806 285.416 80.7167 282.725 80.5105C274.083 79.8519 268.173 72.596 269.61 64.0972C270.074 61.3655 271.231 59.5386 268.47 56.9386C266.575 55.1518 265.802 50.5474 269.564 49.1729C272.216 48.1994 274.93 42.4152 278.492 47.8615C280.72 51.269 282.049 47.7355 283.79 47.4721L283.589 47.6439C283.286 44.0359 290.215 43.4575 287.117 38.3663C284.139 33.4698 279.581 35.6231 276.448 36.2244C270.904 37.2896 268.986 34.7698 268.871 30.5605C268.791 27.5367 268.098 26.6605 265.361 26.735C264.032 26.7693 262.451 26.0477 262.749 24.7535C265.12 14.5367 255.104 12.7671 250.98 6.99436C249.262 4.58333 248.615 1.43354 245.918 6.27277C245.087 7.76176 243.69 6.65647 243.988 5.14457C244.314 3.49522 246.227 1.04411 242.339 2.70491C240.208 3.61549 237.201 3.37496 236.279 6.34722C235.672 8.30582 236.852 9.54283 238.45 9.65164C243.398 9.98952 244.165 15.705 248.415 17.2455C240.145 19.3587 233.525 14.6283 224.305 13.6776C223.995 13.9182 223.566 15.9512 225.467 18.2477C226.647 19.668 228.21 20.8993 227.809 23.0182C226.034 32.3645 229.464 36.3504 239.864 36.9747C241.72 37.0835 244.75 37.2495 244.572 38.9447C243.776 46.5787 250.23 44.2535 253.855 46.2866C249.841 47.1857 247.974 57.5972 241.72 48.0848C240.357 46.0174 233.989 46.3152 235.346 52.4258C235.97 55.2377 237.161 57.7977 233.015 56.4518C226.389 54.3042 219.717 56.0109 213.085 55.4496C211.402 49.9461 218.022 50.5818 218.858 46.8192C215.703 42.1231 209.472 42.9593 205.32 39.8381C203.882 38.7557 201.609 38.8187 202.783 36.276C203.596 34.5121 205.062 34.6553 206.648 35.5258C209.741 37.2209 213.704 39.0249 215.073 34.4205C216.247 30.4632 211.957 29.1345 209.122 26.861C204.226 22.9266 201.569 24.2839 198.533 28.4702C194.828 33.5843 189.955 31.3738 185.207 30.3715C188.408 28.3786 188.901 21.2944 195.796 25.7499C196.861 26.4372 203.046 19.4962 206.608 15.8424C207.599 14.8288 206.339 13.0019 205.148 13.7865C200.36 16.9592 200.922 2.52165 195.109 10.8257C193.568 13.0248 191.999 15.4301 189.37 14.3706C183.792 12.1257 181.593 15.2239 179.217 19.3072C177.716 21.89 174.841 22.9151 171.892 22.0504C168.124 20.9508 170.953 17.7953 170.22 15.7451C169.229 12.9732 172.465 8.75251 167.356 7.38379C161.807 5.89479 161.521 10.4935 160.106 13.6719C159.058 16.0257 159.384 19.9486 155.524 14.9948C153.995 13.0305 152.85 16.6385 152.14 18.6658C151.023 21.8442 141.854 23.6539 139.73 21.6323C137.84 19.8455 145.084 17.36 139.22 16.5182C136.987 16.1975 134.999 15.768 133.138 14.2446C132.445 10.7569 140.388 14.279 137.238 10.2014C132.468 4.03355 127.176 -2.99335 117.257 2.22385C116.404 4.54897 118.5 4.97276 120.144 5.74017C123.282 7.20625 123.127 10.2129 121.467 11.8737C117.04 16.3063 118.844 9.48556 117.813 9.49128C112.309 9.50846 108.226 7.30361 104.945 3.03707C104.068 1.89742 102.74 2.33266 101.818 3.3635C100.329 5.03576 100.363 7.01154 101.938 8.31727C105.311 11.112 107.545 15.9169 113.919 14.508C111.215 22.2623 106.674 25.8817 99.2749 24.7191C96.6405 24.3068 94.8652 24.1693 94.6819 27.1588C94.5273 29.6557 96.589 29.9363 98.5304 30.0795C99.7502 30.1711 102.007 30.2341 102.035 30.4804C103.45 44.7346 109.898 31.6773 113.667 32.4103C114.589 46.8536 116.49 47.6782 130.286 41.6936C132.68 40.6571 137.582 41.7108 139.209 43.6121C140.846 45.5249 137.977 47.6725 134.999 47.8901C132.995 48.039 131.3 49.4364 131.145 51.3778C130.905 54.4474 134.89 53.2505 134.902 53.4739C135.268 60.2659 148.606 56.7439 144.918 66.7889C139.758 64.8876 133.505 67.6651 129.358 60.3977C126.403 55.2206 108.409 60.1571 108.753 65.8497C109.297 74.7836 100.861 67.0466 99.8476 71.6968C94.9912 70.4598 96.1766 67.6937 98.1639 64.8246C101.199 60.4492 88.5484 63.9598 94.5731 57.4769C95.9476 55.9937 94.7105 56.5263 86.6242 56.9844C81.1034 57.2994 78.9673 59.4012 76.247 62.6598C72.4157 67.2413 74.7122 69.3832 79.4312 69.9215C82.2431 70.2422 85.433 68.9365 83.7493 74.0678C82.518 77.8246 81.1722 79.3308 77.2263 77.1488C75.1188 75.9863 72.4616 74.9726 70.1765 75.196C67.2329 75.4766 61.9928 70.8206 61.6721 77.3035C61.5003 80.8255 59.599 86.7528 67.0325 87.9784C71.7171 88.7515 75.5312 94.3467 81.722 88.7744C81.155 96.3225 73.5497 97.1701 72.9655 102.765C72.8911 103.464 71.3964 103.241 70.8466 102.347C67.2558 96.5115 64.6272 101.482 62.1932 103.395C59.3241 105.646 61.5747 110.537 62.3078 110.863C65.8585 112.438 69.4377 115.072 73.9219 113.263C76.0695 112.398 76.3215 106.705 80.1013 110.445C82.7471 113.062 80.1299 115.754 78.8871 118.016C74.7065 125.638 79.4484 126.921 85.3643 127.838C88.3251 128.296 92.2365 127.351 92.374 132.677C92.5 137.608 96.1136 137.871 100.42 138.908C107.665 140.643 107.378 133.456 111.261 131.371C113.541 130.146 112.544 125.753 109.234 123.726C108.713 123.405 108.747 122.174 107.98 119.39C113.632 124.407 120.035 122.517 125.006 127.305C126.552 128.794 132.457 130.604 136.494 131.824C138.556 132.448 139.816 130.867 139.844 128.536C139.907 123.245 144.998 122.311 148.074 120.123C151 118.039 152.959 121.658 153.136 125.73C153.457 133.072 155.043 140.368 156.269 147.653C156.384 148.323 158.05 149.439 158.336 149.262C165.34 145.024 170.918 155.71 177.888 151.077C182.143 148.254 185.413 149.531 188.271 153.941C184.926 156.094 179.268 157.743 186.037 162.766C187.881 164.135 187.984 167.84 188.884 170.474C189.571 172.484 192.257 174.495 188.769 176.482C184.8 178.744 183.764 177.427 184.829 173.378C177.659 173.618 173.158 166.093 166.915 166.145C161.068 166.196 163.33 173.985 161.028 177.965C159.528 180.559 162.477 184.15 166.056 184.345C168.725 184.494 170.569 184.517 169.693 187.672C169.091 189.826 166.715 192.54 165.203 191.504C158.514 186.939 157.351 193.514 155.456 196.452C151.453 202.654 147.232 203.02 142.536 198.078C139.942 195.346 138.418 195.827 136.906 198.548C133.957 203.845 130.658 205.815 125.687 200.644C124.817 199.739 122.251 199.034 121.564 199.59C115.671 204.366 110.334 199.619 104.859 198.765C103.301 198.525 101.944 196.022 100.466 198.714C99.4868 200.5 101.148 202.093 101.302 203.438C101.795 207.762 106.748 206.508 108.426 211.244C111.278 219.302 105.62 215.442 103.135 217.309C109.177 221.381 115.757 217.532 121.667 219.342C125.704 220.579 130.206 220.241 131.311 225.487C131.689 227.274 136.786 226.294 133.676 229.69C132.302 231.191 129.599 231.781 128.82 230.172C126.913 226.226 123.265 229.587 120.682 227.474C117.859 225.166 113.031 226.649 112.355 229.742C111.313 234.495 116.186 233.018 118.924 233.527C122.52 234.198 127.279 232.262 123.099 240.033C120.029 245.731 129.393 246.688 132.583 246.47C137.193 246.155 139.861 249.002 143.538 249.843C145.399 250.267 145.857 251.905 145.102 253.486C144.208 255.341 142.851 254.883 141.327 253.927C136.746 251.04 135.595 248.475 134.301 257.649C132.571 269.905 140.411 270.552 146.058 274.395C142.009 279.749 136.385 278.718 131.002 277.224C127.743 276.319 130.074 269.945 123.626 270.191C118.66 270.38 116.37 271.445 114.881 275.66C113.626 279.217 114.022 277.384 110.906 276.662C100.747 274.297 100.105 259.419 87.8898 260.163C84.7916 260.352 84.2991 257.626 85.7766 254.706C87.1453 252.008 87.9471 249.019 89.8484 243.853C85.1409 247.959 81.6532 253.36 78.2457 245.961C73.6814 248.813 70.5087 247.713 68.7391 242.616C64.9479 244.861 60.1144 246.327 57.7033 249.591C55.7619 252.22 60.8589 254.253 62.7029 254.557C68.5501 255.519 73.3321 258.611 78.5607 260.805C81.8193 262.173 83.4 264.659 84.0013 267.734C84.3392 269.475 83.7035 271.468 81.9338 272.614C79.5056 274.183 79.2422 272.006 77.9594 270.706C74.8153 267.517 69.7756 267.431 66.3968 263.949C64.8391 262.339 62.5368 264.716 61.8553 267.053C61.2197 269.229 60.5897 270.855 58.9919 267.562C57.6232 264.739 55.2522 264.418 52.7324 265.529C51.3236 266.148 50.1267 267.562 51.1231 269.28C52.6465 271.898 53.8778 275.236 57.5373 275.334C68.069 275.614 76.2012 283.649 87.3629 283.409C84.7057 291.535 80.6968 293.408 73.5325 290.092C69.8387 288.385 65.1884 285.041 60.7329 291.037C69.5237 292.555 73.8475 300.939 83.755 302.078C80.1872 304.518 78.9158 307.319 75.5025 305.085C69.8787 301.408 62.9377 302.147 56.8329 299.937C54.754 299.181 51.8791 297.319 50.3901 300.681C48.7007 304.489 53.7976 303.527 54.3875 305.658C55.7849 310.697 60.5955 308.263 64.1748 310.108C59.7994 315.771 46.8566 305.904 48.3055 319.477C44.3425 319.563 44.4456 315.434 41.0266 314.174C41.9601 318.102 44.1191 321.458 43.3174 325.204L43.1456 324.975C48.7236 322.621 55.0747 322.85 60.3664 319.099C62.3994 317.656 67.4677 315.743 65.7439 322.993C64.8963 326.555 78.996 329.602 83.7894 326.761C85.3643 325.828 86.5898 324.242 88.2162 323.463C92.7691 321.281 96.8467 324.557 98.519 327.191C100.987 331.085 94.7106 330.215 92.2365 332.849C97.4137 334.556 99.7159 339.441 106.811 338.599C99.1317 345.528 93.5595 340.042 88.5484 338.129C82.8616 335.953 67.4276 339.017 64.7417 344.406C62.2563 349.394 65.8355 349.532 69.0941 349.239C74.0937 348.793 78.4862 348.604 78.0682 355.717C77.9651 357.446 78.7841 359.983 81.2867 359.084C88.2506 356.593 95.0714 361.804 102.178 359.061C100.861 357.017 99.2692 355.115 98.3185 352.939C96.3943 348.529 98.3185 345.786 102.831 346.983C109.887 348.856 116.713 351.009 124.124 349.062C125.075 348.81 127.383 350.19 127.365 350.253C125.069 357.251 130.939 362.383 131.471 368.677C131.506 369.055 130.836 369.868 130.675 369.822C127.056 368.814 124.639 371.025 124.966 373.836C125.378 377.439 129.536 375.852 131.987 376.711C133.699 377.313 135.234 378.16 133.201 379.718C130.458 381.825 138.212 387.1 130.464 387.592C127.022 387.81 126.186 387.564 126.712 383.893C127.068 381.407 124.565 382.329 123.431 383.028C121.003 384.54 119.909 387.014 121.913 389.316C128.431 396.807 123.838 398.869 116.868 400.18C114.972 398.015 119.416 394.934 117.458 394.871C110.603 394.642 110.551 385.462 104.996 385.657C102.121 385.76 97.8374 391.303 102.161 393.863C109.194 398.027 104.95 401.772 103.41 406.703C100.661 404.859 99.4696 401.383 96.2511 400.598C92.2193 399.613 91.9215 404.475 88.1704 405.455C88.4969 400.243 86.8017 396.292 81.3383 395.181C79.3969 398.6 81.0748 409.16 72.3356 399.613C69.8673 396.916 66.0646 399.361 63.2126 399.945C59.5073 400.701 61.884 403.021 63.3558 404.584C64.0774 405.352 64.3465 406.617 63.247 406.634C51.7874 406.818 60.962 413.003 61.7752 414.085C68.2008 422.641 64.2549 433.058 67.4734 441.855C69.1514 433.786 72.6334 431.896 79.6087 434.742C83.6576 436.397 88.7832 438.453 87.781 430.16C87.5806 428.477 89.2414 427.114 90.5929 427.108C93.2559 427.097 93.2158 429.765 92.6775 431.174C91.2859 434.828 90.2035 437.731 95.8502 438.155C97.2419 438.258 97.1273 439.885 96.9383 441.185C95.5009 450.835 96.3656 452.135 105.076 454.082C106.25 454.345 107.315 455.072 108.398 455.576C104.727 468.76 92.8035 454.254 87.0537 462.437C89.6079 464.831 93.2387 464.029 96.0163 465.925C101.795 469.859 92.2709 474.905 97.7973 478.02C95.0084 479.251 93.1872 476.228 91.5551 476.147C87.7066 475.958 83.566 472.299 79.7233 476.336C75.8862 480.368 78.618 483.667 80.5479 487.2C80.903 487.853 80.4048 488.97 80.1986 490.797C73.7845 487.16 65.7554 487.951 61.4602 480.826C60.5153 479.263 59.0778 477.688 56.9073 478.77C54.9716 479.733 54.6681 481.846 54.8857 483.627C55.7218 490.436 53.2077 490.659 48.3055 487.361C46.3813 486.066 43.3517 485.952 42.4583 487.882C41.0266 490.974 44.4685 492.085 46.4786 492.876C50.9742 494.64 54.9545 498.076 60.2747 497.595C60.5382 497.572 64.2435 496.3 62.3135 499.599C61.5003 500.991 62.7373 503.734 59.765 503.682C49.0615 503.499 38.2949 505.36 27.6715 502.445C24.3614 501.535 22.4257 502.113 25.1631 505.973C26.549 507.932 25.2147 509.432 22.7521 511.442C21.2001 507.004 19.4191 502.972 18.4569 498.757C17.8155 495.945 16.9909 491.324 21.1142 491.152C25.7015 490.963 23.1644 495.779 24.5618 500.309C32.0354 485.929 29.8706 472.23 29.2464 458.068C25.5182 459.339 27.6887 462.552 26.5376 464.11C23.7486 467.872 23.1186 461.624 20.8851 462.678C18.0561 466.412 22.4829 470.518 19.7684 475.088C13.0622 470.913 13.9041 463.76 13.0508 455.932C10.2961 459.694 8.76703 461.807 9.40845 464.717C11.7737 475.42 4.2428 487.47 13.8067 497.205C13.9671 497.371 13.8869 497.795 13.8812 498.104C13.6483 511.868 16.5556 523.593 22.6032 533.279C26.068 533.262 24.2755 528.892 27.4539 527.964C32.3046 534.006 36.7601 540.575 40.0588 547.877C41.8628 551.868 44.2681 555.19 47.3492 558.397C51.4668 562.687 53.9522 562.211 56.621 555.247C57.8465 560.224 58.5967 563.614 54.376 564.107C47.7328 564.88 47.2174 569.736 45.7456 574.501C43.1456 582.92 42.5786 591.579 34.1372 598.228C28.7768 602.448 27.2878 600.667 24.1037 597.907C22.7235 596.71 21.5037 595.215 20.5644 593.64C18.2737 589.792 14.7688 590.542 11.5045 591.27C6.41901 592.403 10.7657 595.542 10.2904 597.604C8.93311 603.451 10.3591 608.593 11.6763 614.309C13.7895 623.483 6.48773 621.347 -0.000854492 620.179C6.76837 628.895 19.5107 626.582 24.3671 636.804C20.2495 639.249 15.4045 632.812 11.6706 637.692C13.7551 643.39 20.0719 639.702 23.4394 642.703C18.4398 648.991 12.3922 642.474 6.0296 643.808C9.28815 648.722 13.7265 649.209 17.7125 649.151C21.0283 649.105 22.6834 649.844 22.2596 653.017C20.4671 666.406 25.2605 679.435 24.2755 692.813C23.9948 696.622 20.6446 700.27 23.7371 704.994C27.4482 700.476 25.6213 695.448 25.6213 691.118C25.6213 686.13 27.2133 682.155 29.7905 678.255C30.9988 676.423 32.4993 674.132 34.6927 676.451C35.9469 677.78 36.9892 680.495 33.8222 681.8C31.4341 682.785 28.6222 684.108 30.3975 687.052C31.4971 688.867 34.1945 690.087 36.4222 690.763C39.3086 691.639 39.2513 688.667 40.494 687.052C45.7227 680.254 52.217 686.725 58.5223 684.629C57.1077 689.01 54.3417 686.949 52.6694 687.802C50.9514 688.678 49.8804 690.202 51.8047 692.2C56.7641 697.349 68.7906 697.927 74.0995 692.412C78.2973 688.054 85.1123 694.508 88.3365 687.35C86.2978 685.448 83.8867 683.203 80.7713 680.294C84.614 679.235 85.3242 670.524 91.4978 677.671C92.689 679.051 95.2202 678.748 96.4401 677.001C98.1295 674.567 94.2982 673.559 94.4758 670.392C102.333 675.151 108.386 670.266 114.48 667.031C116.627 665.891 117.687 665.673 118.947 667.311C121.266 670.324 117.807 669.619 116.776 670.564C113.105 673.932 106.159 675.323 110.185 683.192C111.662 686.084 101.858 686.044 106.267 690.11C111.319 694.777 118.998 693.036 125.527 694.084C126.867 694.296 128.379 693.426 130.297 692.928C121.587 702.577 120.974 702.801 109.818 700.287C108.14 706.294 113.283 707.634 117.137 709.627C114.497 712.078 111.92 711.941 110.694 710.189C106.703 704.49 101.755 708.201 97.3163 708.642C96.1251 708.763 92.1793 709.158 93.3647 712.388C94.1722 714.592 96.9154 717.754 98.7767 716.122C103.083 712.348 106.101 717.553 109.893 715.549C109.526 719.3 107.642 719.266 105.798 718.876C101.978 718.069 101.474 720.445 101.783 723.171C102.133 726.253 103.232 727.008 106.777 725.72C110.391 724.403 114.531 724.638 117.67 728.727C119.634 731.281 123.379 731.601 125.859 728.681C128.528 725.537 132.29 725.227 135.721 723.996C137.691 723.286 139.455 723.819 140.572 725.628C143.275 729.981 143.177 729.849 148.75 727.661C152.277 726.275 155.553 726.241 156.258 731.298C157.443 739.854 159.906 748.484 156.435 756.949C153.743 763.523 157.792 769.588 157.111 775.939C156.647 780.251 156.28 784.569 155.811 788.876C155.41 792.536 153.228 794.385 149.626 794.511C131.22 795.159 112.349 798.463 94.5788 795.388C84.0757 793.572 74.5576 794.179 65.4633 796.327C54.7884 798.852 44.0733 794.471 33.7935 798.572C32.442 799.11 30.1685 799.666 28.2385 797.237C39.1654 792.828 50.3214 793.526 61.5289 793.085C53.9236 793.011 47.309 784.054 38.9191 791.39C38.2663 791.963 35.5403 790.955 35.8896 790.571C43.9703 781.66 25.4667 784.169 28.9486 779.667C28.0609 787.673 16.6931 786.454 10.2846 791.699C5.33087 795.754 8.5437 798.469 8.39478 801.739C8.1485 807.105 11.8596 804.883 14.1217 804.121C17.3574 803.033 19.4362 804.74 21.7327 806.303C27.1675 810.003 32.631 813.296 39.7438 810.942C41.2614 810.438 44.228 810.787 44.9095 811.812C50.539 820.311 56.4377 814.659 61.6606 811.904C64.5871 810.363 67.5536 810.134 70.4514 809.493C73.0858 808.909 73.6986 810.266 71.3276 813.078C68.7964 816.085 71.5109 815.941 72.9254 816.56C75.9779 817.9 79.3568 820.357 77.7303 823.283C75.7202 826.903 73.0285 824.847 70.6805 821.932C69.7928 820.832 64.8448 818.748 65.2628 824.343C65.5206 827.842 64.1289 826.044 62.9721 825.208C57.6346 821.336 49.1703 837.205 45.6712 822.493C45.15 820.305 44.6632 818.856 42.2407 819.647C40.2707 820.288 37.5561 819.097 36.3821 821.611C35.5746 823.341 37.5103 824.159 38.1517 825.419C40.6429 830.299 45.2932 831.799 49.8747 832.841C57.5029 834.577 60.3377 846.105 70.8065 842.445C65.3258 845.395 59.6219 845.727 55.3267 851.408C51.9879 855.829 44.4227 850.257 38.4495 850.91C39.7552 844.982 44.8808 848.304 47.6641 846.357C40.9465 841.821 35.4315 842.972 29.5958 850.034C26.4861 853.796 20.5988 852.657 17.1569 848.608C15.2212 846.328 11.6878 845.401 8.30316 844.032C15.6794 847.938 0.268311 858.441 15.582 860.588C8.85864 863.893 7.78204 866.619 11.5217 872.603C12.7472 874.568 13.3314 883.736 9.7406 888.776C6.33881 893.552 8.31458 894.915 13.0679 894.354C21.4063 893.369 30.5464 896.937 37.9169 890.099C38.3865 889.658 39.8813 889.503 40.2134 889.858C47.08 897.189 50.1209 889.71 54.1927 886.319C47.2002 888.501 40.4998 885.351 33.3182 886.755C35.8782 881.675 47.0685 890.34 43.1112 878.307C43.9588 878.038 44.795 877.614 45.6597 877.517C49.0042 877.162 52.3602 876.761 55.7219 876.664C59.5646 876.555 64.7073 879.636 64.358 871.452C64.2893 869.883 71.5911 865.834 72.8682 866.722C82.0942 873.113 91.3775 871.235 101.193 869.293C103.118 868.915 108.169 868.743 109.87 874.356C101.703 875.106 94.5216 876.904 87.4374 881.938C81.4413 886.199 71.5682 885.162 63.6364 887.699C60.9963 888.541 58.1329 887.402 55.7104 885.815C59.5703 891.514 65.5836 890.866 71.3047 891.158C90.5242 892.143 109.744 893.22 128.969 894.102C131.523 894.217 135.87 894.887 135.858 891.514C135.841 886.617 131.775 889.956 129.484 889.876C125.212 889.732 120.928 889.836 116.467 888.816C126.838 886.594 135.4 876.595 147.547 882.431L147.261 882.591C139.581 876.228 129.49 875.81 119.462 871.635C126.97 868.64 133.608 870.221 140.153 869.872C135.406 867.93 131.053 864.992 125.584 866.218C124.118 866.544 122.039 866.544 122.016 864.54C121.993 862.215 124.067 861.253 125.974 862.152C128.9 863.526 131.918 863.303 134.913 863.767C137.588 864.185 139.163 864.471 139.294 861.264C139.329 860.394 139.982 858.916 140.096 859.191C142.948 866.247 149.024 859.838 152.38 862.152C156.246 864.809 160.753 865.473 163.33 863.079C166.549 860.096 160.444 857.816 160.272 854.34C163.783 850.744 168.112 852.828 172.241 852.559C186.203 851.66 200.057 851.414 213.693 855.182C219.517 856.791 217.094 852.508 217.363 850.137C221.934 851.173 226.292 848.527 230.598 849.031C234.349 849.467 238.02 855.251 241.187 848.086C242.138 845.939 244.257 846.569 246.113 847.124C248.346 847.794 248.541 849.192 248.495 851.368C248.306 859.58 249.222 868.251 237.001 868.348C235.821 868.36 233.439 869.018 234.561 871.137C235.094 872.134 236.99 872.409 238.937 873.331C228.674 874.648 219.179 874.367 209.649 873.52C206.986 873.285 205.904 873.749 206.459 869.728C206.935 866.252 201.746 867.741 199.742 868.377C196.208 869.499 193.116 872.002 188.259 874.848C205.698 878.233 221.321 877.546 237.11 877.792C232.001 880.644 224.871 879.212 221.871 885.861C225.805 887.476 229.705 884.699 233.76 885.712C233.193 887.625 230.089 888.117 230.747 890.637C231.457 893.358 233.76 892.338 235.346 892.143C241.772 891.359 248.18 890.391 254.577 889.366C260.55 888.41 265.842 889.12 271.328 892.441C277.748 896.324 285.33 893.512 292.334 893.449C310.941 893.277 329.445 894.766 347.983 895.792C351.006 895.958 354.116 896.679 357.753 894.738C352.564 890.408 347.135 892.825 342.13 893.22C335.876 893.713 333.751 891.37 335.738 884.71C340.727 887.264 345.772 891.857 351.482 886.978C351.276 882.7 344.804 885.409 345.474 880.003C346.144 874.573 351.155 876.452 354.294 873.296C347.639 871.733 342.548 872.351 338.413 877.248C336.202 879.865 333.276 881.554 330.292 879.544C325.373 876.228 331.661 873.033 332.257 872.546C337.943 867.844 334.112 863.824 332.016 859.695C330.527 856.757 327.915 856.076 324.909 856.975C321.089 858.114 323.191 860.909 323.351 863.114C323.615 866.67 324.978 870.553 320.087 872.598C317.83 867.306 319.228 861.625 317.584 856.265C316.851 853.876 320.952 847.525 324.05 849.638C332.382 855.32 335.206 847.903 340.772 844.095C343.533 851.763 337.142 861.127 345.68 867.083C348.338 865.319 345.285 859.884 350.577 858.807C355.513 857.805 359.488 860.428 363.76 861.281C369.539 862.432 375.741 859.689 376.13 851.379C379.2 859.563 386.198 854.718 390.339 858.498C390.969 859.071 394.857 857.702 392.423 855.4C388.002 851.219 387.624 844.146 382.304 841.071C377.82 838.477 377.934 834.863 378.135 830.27C380.826 831.616 382.968 835.802 386.399 831.719C388.712 828.964 387.401 827.143 385.419 825.437C380.838 821.496 386.662 813.937 378.129 809.436C382.573 820.191 372.728 826.588 373.92 835.831C374.269 838.545 372.156 840.097 369.739 839.193C366.291 837.898 359.883 840.046 359.957 834.565C360.038 828.489 355.708 822.115 362.168 815.901C370.896 807.506 371.652 795.766 371.148 784.432C375.42 782.565 372.694 789.397 376.056 787.748C378.57 786.517 377.425 783.785 377.184 781.815C376.474 775.973 375.254 770.195 374.515 764.359C374.086 760.992 369.825 756.284 378.089 755.528C380.746 755.288 380.093 750.202 379.395 747.138C378.954 745.22 377.854 743.313 375.781 743.513C372.139 743.857 372.78 747.522 372.001 750.924C368.954 745.289 373.232 741.24 372.723 736.441C366.727 735.914 369.55 743.559 364.739 744.149C363.921 739.321 364.602 735.255 369.636 732.884C370.472 732.489 371.354 732.174 372.23 731.865C375.483 730.731 374.647 723.475 378.776 725.714C382.659 727.822 382.699 733.274 382.161 738.073C381.777 741.469 383.604 744.613 386.656 748.118C386.364 744.189 394.141 743.004 388.191 738.038C387.504 737.466 388.048 733.835 389.113 732.982C398.259 725.657 393.958 722.152 385.557 719.907C378.284 717.966 379.314 711.574 379.687 707.044C380.357 698.929 377.281 697.114 368.342 699.273C372.866 695.379 373.937 691.662 373.101 687.275C372.27 682.906 369.384 680.666 365.982 678.324C361.853 675.472 357.902 672.288 362.626 666.32C364.006 664.58 363.302 661.178 363.571 658.32C364.373 658.898 364.951 659.15 365.278 659.586C367.322 662.312 363.537 668.554 369.298 668.445C374.996 668.336 372.436 662.93 372.74 659.591C372.923 657.564 373.404 655.829 375.827 655.823C378.57 655.817 381.754 655.193 383.925 656.367C385.74 657.352 384.577 660.439 383.323 662.232C376.989 671.274 378.587 681.09 380.46 690.895C381.09 694.188 381.823 697.681 386.009 698.615C388.529 696.639 387.143 694.674 385.877 693.042C383.386 689.835 383.34 687.67 385.362 683.41C389.056 675.609 392.097 671.28 401.878 674.447C407.33 676.211 414.105 676.927 421.235 673.118C412.931 671.125 419.609 665.324 417.559 661.55C416.608 661.779 415.737 661.728 415.503 662.088C407.685 674.092 407.966 673.548 394.164 666.75C389.205 664.31 384.709 664.087 388.729 657.278C389.233 656.424 388.243 654.22 387.355 653.109C385.379 650.617 375.185 651.287 384.331 644.644C384.555 644.484 383.793 640.429 381.181 642.571C378.902 644.438 377.006 645.503 375.059 642.651C373.278 640.04 376.646 639.043 377.081 637.228C378.696 630.539 384.806 631.031 389.525 629.176C387.515 625.66 385.637 622.292 383.684 618.976C380.362 613.324 376.789 607.82 386.954 605.117C388.443 604.722 389.222 601.67 390.333 599.848L390.115 600.043L390.19 599.946ZM268.207 238.899C266.277 235.177 264.662 231.769 271.477 232.027C276.711 232.222 279.976 231.019 274.764 225.573C273.481 224.227 274.392 222.635 275.291 221.364C277.971 217.561 277.868 214.634 273.058 212.682C269.873 211.393 270.475 208.73 271.58 206.434C272.834 203.828 274.77 204.778 277.038 205.494C283.36 207.487 283.578 214.411 287.793 218.036C294.448 223.763 285.273 229.026 287.633 233.848C280.17 232.943 274.799 239.3 267.961 238.67C273.533 240.383 268.436 245.64 271.162 248.303C270.452 248.675 269.14 249.408 269.117 249.374C265.55 243.378 255.871 249.213 253.162 241.001C252.521 239.06 249.01 240.451 247.304 241.15C244.091 242.456 246.771 243.532 247.819 244.867C249.125 246.516 247.911 246.619 246.428 246.539C237.694 246.092 229.275 244.598 221.641 240.05C223.342 239.014 224.883 239.272 226.303 238.968C232.173 237.697 240.913 239.827 238.794 228.705C238.416 226.712 240.231 226.237 241.726 225.836C244.475 225.103 246.261 227.05 246.605 228.986C247.435 233.648 250.299 234.484 254.285 236.168C258.992 238.155 263.528 238.315 268.207 238.899ZM230.14 372.216C232.78 365.269 223.205 371.861 224.196 366.747C224.997 362.096 229.923 362.205 233.868 359.8C226.544 357.572 222.707 364.874 216.665 363.791C217.415 361.237 218.578 359.519 220.353 358.11C226.584 353.151 242.344 352.011 249.119 356.278C252.704 358.534 256.364 358.402 259.479 356.129C262.211 354.136 264.61 353.117 267.955 354.119C272.347 355.43 275.818 353.443 278.504 350.139C280.319 347.905 281.923 345.706 285.347 346.937C284.609 352.527 277.427 351.817 276.162 355.608C273.722 362.927 274.346 363.093 267.674 360.458C266.328 359.926 263.665 360.917 263.952 361.106C268.608 364.106 258.196 371.265 267.56 373.149C271.311 373.905 271.964 376.683 267.05 378.595C262.131 380.514 260.934 383.085 267.497 384.918C268.957 385.325 270.028 387.14 271.66 388.658C267.308 390.851 264.656 391.2 261.455 387.272C258.849 384.076 255.024 378.344 253.019 378.487C243.959 379.134 246.84 370.732 243.478 367.371C242.86 366.752 245.448 362.932 242.035 362.549C239 362.205 237.757 365.492 237.746 367.634C237.711 374.363 234.813 374.736 229.871 371.964C228.016 376.763 226.887 380.102 233.708 383.206C241.646 386.819 242.905 396.4 241.428 403.416C240.764 406.566 245.654 410.884 248.025 414.675C251.88 409.652 255.419 414.881 259.261 414.715C256.581 420.219 252.24 423.844 246.954 427.618C254.657 429.519 258.053 416.983 264.908 423.008C265.945 430.687 249.062 429.204 257.755 440.137C252.24 444.266 247.785 439.558 244.154 437.668C239.658 435.332 236.612 431.793 231.755 436.586C230.518 437.806 228.451 436.638 227.912 435.24C226.87 432.543 232.001 434.061 230.965 430.384C225.484 434.112 218.709 423.431 212.994 432.778C214.763 433.471 216.31 433.728 217.409 434.57C222.701 438.619 220.445 444.569 219.746 449.248C218.973 454.443 214.225 450.817 211.104 451.207C206.167 451.825 203.974 445.486 199.181 447.759C197.72 448.452 198.293 453.4 195.114 450.165C192.337 447.341 195.79 446.202 197.474 444.552C198.705 443.344 199.364 441.551 200.303 439.982C197.4 437.376 192.841 441.843 191.18 437.113C192.022 435.011 193.815 435.933 195.206 435.658C200.933 434.547 199.192 429.462 200.154 425.945C200.704 423.935 200.395 420.505 197.966 420.568C186.261 420.866 192.022 413.335 192.572 408.616C192.99 405.002 195.109 401.612 195.71 397.998C197.291 388.549 197.182 388.635 204.426 384.941C207.055 383.601 209.174 384.918 211.534 385.302C215.325 385.914 219.001 385.955 217.14 380.354C215.537 375.52 217.627 374.352 221.997 374.134C224.717 373.997 227.391 372.869 230.117 372.216H230.14ZM354.259 309.14C359.396 315.749 364.132 317.61 372.602 312.398C386.45 303.877 394.004 307.679 395.945 323.302C396.438 327.265 396.844 331.549 398.631 334.979C406.643 350.362 404.639 366.615 403.82 382.874C403.585 387.495 402.148 390.032 397.606 391.802C393.259 393.491 388.077 395.295 385.906 399.59C384.721 401.938 384.675 404.052 381.496 404.029C378.266 404 376.903 402.259 375.443 399.424C370.043 388.95 381.708 383.509 381.588 374.277C379.95 372.72 377.659 376.832 374.905 374.484C382.934 369.18 374.189 366.999 372.694 363.522C370.97 359.525 367.477 359.158 363.817 361.987C365.593 364.336 372.809 364.639 368.084 368.625C363.8 372.233 363.291 377.118 361.086 381.201C357.432 380.119 356.407 373.355 352.581 376.958C347.977 381.293 342.679 379.775 337.806 380.543C329.679 381.82 326.49 377.971 327.984 369.902C328.878 365.086 328.952 359.393 331.644 355.768C338.842 346.09 328.729 344.297 324.932 341.903C315.282 335.816 314.715 335.964 321.582 326.498C321.805 327.059 322.366 327.792 322.189 328.107C318.054 335.386 324.468 337.877 328.58 339.389C336.431 342.264 331.312 334.487 333.379 332.196C336.924 328.268 334.496 322.959 335.292 317.008C340.251 322.661 338.464 328.222 338.287 334.544C347.095 328.193 350.01 331.52 349.214 341.439C352.146 337.854 359.081 338.416 356.848 334.092C354.173 328.909 359.431 319.185 348.498 318.308C346.883 318.177 347.387 315.634 348.572 314.477C350.537 312.564 351.974 309.97 354.912 309.231C350.153 309.329 346.39 307.748 343.785 303.579C346.648 301.448 347.765 307.124 349.741 304.031C351.213 301.723 351.711 298.952 349.22 296.392C346.287 293.379 342.37 290.51 344.191 285.39C347.599 275.786 357.294 272.333 365.747 278.232C368.725 280.31 370.369 279.01 370.564 277.184C371.085 272.333 375.609 270.351 378.776 264.086C372.127 268.714 367.488 267.23 362.976 265.386C363.084 262.082 367.54 264.098 367.076 260.999C360.255 257.575 353.778 260.724 346.872 261.618C349.237 258.749 351.802 256.435 354.769 254.9C362.248 251.029 362.649 247.942 355.897 242.628C354.649 241.648 351.831 242.439 352.392 239.461C356.149 237.399 356.235 237.347 353.853 233.608C352.593 231.632 353.807 230.687 355.158 230.011C357.472 228.854 359.299 227.331 360.479 224.765C358.005 223.042 349.489 224.788 355.45 218.002C357.804 215.322 360.519 213.3 357.243 210.918C354.087 208.621 353.177 212.985 351.396 214.881C346.138 220.47 343.693 230.618 332.365 226.426C332.938 231.563 336.345 234.604 339.1 236.809C343.218 240.096 341.66 243.991 342.439 247.644C342.937 249.981 340.921 249.981 339.593 250.227C339.008 250.336 337.92 249.586 337.588 248.95C334.65 243.372 334.685 243.355 329.634 248.017C319.377 231.26 327.028 222.114 338.172 212.613C342.868 208.61 343.47 215.9 346.883 213.987C351.757 211.256 353.698 199.326 350.279 194.819C345.165 188.079 340.142 191.933 334.507 194.756C333.242 189.522 331.226 183.892 334.925 180.428C338.957 176.654 343.235 180.966 346.654 184.122C348.441 180.977 343.395 180.05 345.062 177.616C352.85 176.155 352.925 186.441 360.633 186.676C372.631 187.042 385.786 200.163 388.403 211.931C391.266 224.811 391.948 238.183 398.173 250.313C400.189 254.236 400.584 259.15 399.662 263.914C397.555 274.784 395.705 285.705 393.746 296.598C393.38 298.625 394.21 301.322 391.541 302.187C389.76 302.766 387.67 302.342 386.84 300.269C385.998 298.161 383.226 296.649 385.047 293.614C385.94 292.131 388.334 291.633 387.888 288.935C381.68 286.667 378.599 290.258 377.127 295.412C375.941 299.553 371.526 302.336 372.431 307.227C366.286 307.026 360.536 310.589 354.259 309.14ZM348.469 710.097C347.988 708.969 347.736 707.651 346.992 706.735C340.137 698.357 338.568 698.403 331.271 705.727C330.16 706.838 326.409 710.979 325.625 704.828C324.909 699.216 320.648 696.553 316.336 693.666C331.243 688.959 332.148 686.256 322.206 676.635C323.529 674.504 329.548 678.381 327.795 672.62C327.194 670.633 329.021 666.401 325.035 666.996C314.938 668.514 321.639 661.035 321.856 659.706C322.538 655.462 325.774 655.474 329.158 657.959C330.956 659.276 332.932 661.464 335.721 659.047C335.177 655.617 329.233 656.064 330.241 651.534C333.127 652.232 336.626 654.517 338.338 650.44C340.709 644.793 334.181 648.149 332.577 645.526C331.123 643.155 325.596 642.863 327.996 638.333C330.034 634.485 333.098 635.607 336.592 637.663C341.912 640.796 345.726 639.862 344.077 632.406C343.395 629.331 344.936 628.237 347.393 628.317C349.678 628.391 350.371 630.023 349.764 632.274C348.945 635.332 349.672 638.333 349.976 641.426C350.961 651.516 355.422 661.08 354.511 671.395C354.322 673.536 356.189 679.498 350.187 674.733C349.809 674.435 348.366 674.945 347.828 675.489C346.637 676.703 347.685 677.322 348.635 678.295C354.752 684.58 354.727 690.127 348.561 694.938C356.401 696.736 357.529 699.955 352.387 706.18C351.218 707.594 349.661 708.694 348.28 709.937C348.057 722.009 340.303 732.42 340.555 744.624C340.572 745.334 339.49 746.09 338.877 746.789C336.042 750.025 334.673 753.644 336.048 757.922C337.794 763.363 334.083 762.097 330.859 763.231C326.627 764.72 323.672 759.423 318.793 763.271C309.664 770.481 319.594 777.376 316.582 784.077C323.723 779.427 313.902 769.502 323.884 765.424C326.398 772.955 326.089 780.83 331.415 787.37C332.978 789.288 335.074 797.381 333.402 799.482C328.757 805.324 334.576 806.366 336.386 809.029C337.365 810.466 340.83 809.808 340.097 813.118C339.392 816.296 336.827 815.89 334.467 816.674C323.059 820.454 307.19 816.422 303.341 833.907C303.233 834.411 302.522 835.126 302.059 835.155C294.047 835.625 294.362 842.617 292.563 847.64C290.908 852.267 290.462 857.318 288.915 861.997C287.1 867.472 283.561 869.992 277.983 866.224C276.024 864.901 273.493 863.463 272.771 866.493C270.543 875.839 264.089 872.489 258.305 872.729C258.872 868.829 259.599 865.811 259.702 862.765C260.201 847.479 259.032 832.143 261.232 816.898C261.449 815.403 260.922 813.616 262.457 812.797C264.158 811.893 265.361 812.883 265.905 814.641C267.388 819.435 270.36 818.358 272.891 815.982C275.36 813.674 277.84 813.221 281.127 813.273C296.652 813.513 296.647 813.376 292.443 797.358C292.002 795.674 291.773 793.939 291.361 791.78C288.52 797.507 294.591 804.236 287.65 808.869C289.391 800.931 287.415 793.223 287.323 785.451C287.306 784.192 287.982 781.809 289.975 783.934C294.951 789.231 294.579 783.499 294.86 781.339C295.181 778.883 295.547 776.689 296.584 774.336C300.907 764.525 306.554 754.91 301.303 743.45C299.59 739.716 300.421 735.479 302.574 731.876C303.496 730.33 305.609 730.393 306.749 731.298C310.151 734.001 308.856 738.056 309.154 741.629C309.234 742.614 309.435 742.826 309.95 742.248C310.139 740.089 310.3 737.93 310.523 735.776C311.141 729.78 311.966 725.336 318.403 732.621C321.015 735.576 325.831 735.049 329.731 735.33C331.724 735.473 334.542 734.883 335.097 732.506C335.813 729.471 332.566 728.881 330.848 728.744C324.68 728.24 319.571 725.708 314.933 721.883C310.3 718.063 304.429 720.297 297.683 719.254C302.809 715.326 306.64 717.782 310.311 718.086C322.068 719.054 334.799 724.844 343.493 711.093C344.649 709.261 346.614 709.341 348.469 710.086V710.097ZM176.399 670.41C174.503 669.986 171.525 671.589 171.107 668.365C170.764 665.725 173.324 666.04 175.076 665.731C177.04 665.381 179.726 665.902 179.348 662.294C176.783 660.296 172.316 664.362 170.374 659.208C177.487 654.976 185.299 663.297 192.64 657.954C189.05 655.004 183.512 654.798 179.858 648.172C186.868 650.4 192.056 651.688 196.947 653.704C201.786 655.697 203.63 653.83 202.937 649.42C202.462 646.391 204.461 641.151 197.388 641.838C194.948 642.073 192.188 638.27 192.234 635C192.331 627.658 188.34 629.56 184.377 631.157C181.897 632.16 179.492 633.339 176.811 634.548C176.468 622.624 177.567 621.639 186.799 624.108C188.46 624.554 190.447 623.827 192.274 623.615C196.959 623.065 201.941 626.169 202.067 629.107C202.496 639.072 210.772 634.634 215.004 637.222C216.705 638.264 219.603 637.927 221.034 636.094C223.594 632.812 217.112 633.528 218.297 630.613C220.072 627.647 225.604 632.532 226.28 625.929C221.664 628.013 218.595 625.614 215.514 622.945C218.079 619.91 223.955 618.318 219.397 612.602C217.833 610.638 220.152 610.1 221.487 609.716C225.748 608.49 229.092 606.48 231.984 602.735C234.023 600.095 238.748 600.753 241.497 602.294C243.381 603.348 245.351 608.496 244.692 609.132C240.964 612.728 240.981 619.349 239.395 621.078C231.893 629.262 242.258 630.258 243.272 634.513C240.494 636.793 238.496 634.324 236.05 633.855C233.25 633.316 228.101 631.747 226.75 636.655C225.673 640.561 227.941 643.379 232.208 643.39C240.649 643.419 236.909 651.213 238.175 654.592C240.162 659.929 240.764 661.974 247.149 659.036C246.244 656.946 241.886 659.924 242.516 656.298C243.049 653.235 245.305 655.417 246.846 655.812C249.795 656.568 251.318 654.346 253.225 652.845C254.268 652.02 256.163 649.644 256.753 651.654C259.273 660.227 264.937 655.273 269.484 655.107C271.248 655.044 273.201 653.956 274.541 656.029C275.658 657.765 275.932 660.198 274.443 661.178C267.726 665.605 262.217 670.02 270.068 678.084C270.647 678.679 270.635 679.24 269.742 679.321C261.106 680.088 265.664 685.614 266.907 689.795C261.214 688.655 259.05 682.018 253.844 683.083C247.842 684.314 244.612 680.311 240.769 677.625C238.192 675.827 236.864 676.795 235.231 678.324C233.112 680.311 232.402 682.396 235.14 684.509C239.183 687.625 236.262 688.844 233.845 691.089C228.044 696.473 223.841 687.103 217.57 690.15C223.102 694.566 228.823 697.887 235.088 697.526C242.407 697.108 240.643 702.022 238.92 704.055C236.892 706.443 235.661 711.328 229.877 709.708C227.454 709.032 221.349 710.4 223.308 715.755C224.161 718.08 226.916 719.128 226.418 723.034C226.011 726.253 237.476 729.883 240.26 728.068C243.06 726.235 245.631 720.422 248.959 724.088C251.599 726.997 246.387 730.559 244.549 733.766C243.959 734.803 243.054 735.748 242.092 736.464C240.426 737.706 237.299 738.468 238.003 740.776C239.177 744.613 242.35 740.822 244.148 741.52C251.009 744.195 253.053 740.576 255.213 734.986C256.043 732.838 255.946 728.578 260.161 728.205C262.635 731.493 258.941 733.835 258.586 736.567C257.996 741.114 259.702 743.359 262.692 744.567C265.75 745.81 267.737 743.422 268.487 740.266C269.032 737.981 270.469 736.08 272.886 736.097C279.678 736.149 276.969 731.745 276.826 728.383C276.757 726.751 272.846 724.918 279.426 722.53C282.507 753.243 274.913 782.319 274.495 813.359C265.366 808.348 270.389 799.018 263.946 795.256C262.921 798.051 265.349 801.006 262.331 803.606C259.525 799.855 258.271 795.68 259.628 791.539C261.718 785.182 258.523 782.095 254.136 778.367C249.005 774.009 242.356 774.364 237.075 771.06C234.939 774.719 239.549 778.316 236.841 783.046C235.375 778.711 233.427 775.515 233.382 772.297C233.279 764.64 227.03 767.314 223.972 767.12C219.78 766.856 215.783 770.567 215.067 774.696C213.441 784.088 222.999 793.515 233.084 793.629C237.339 793.681 241.623 794.047 245.832 794.683C253.46 795.84 257.698 802.735 256.255 811.177C255.109 817.843 248.707 822.476 241.726 820.992C239.063 820.426 236.875 821.256 234.47 821.428C217.747 822.602 201.208 829.629 184.205 822.831C182.389 822.104 179.984 822.756 177.859 822.905C169.372 823.49 159.888 828.489 154.104 817.31C153.663 816.457 152.105 815.758 151.052 815.73C147.472 815.626 142.914 815.248 143.847 810.959C144.769 806.704 150.113 805.375 153.961 806.555C159.711 808.319 164.699 806.618 170.019 805.627C169.109 802.603 164.733 804.631 164.516 800.84C165.386 797.885 171.686 800.84 170.884 795.181C169.086 782.525 175.815 769.181 167.746 756.886C166.824 755.483 167.11 751.76 168.255 750.792C173.558 746.314 171.245 740.553 171.554 735.284C171.76 731.802 170.346 728.137 172.946 724.025C175.872 731.235 173.684 738.067 174.887 745.077C179.096 742.82 179.085 739.172 179.841 736.074C180.717 732.478 180.528 728.469 182.057 725.233C183.443 722.307 187.36 717.278 189.897 721.654C191.701 724.758 191.644 724.569 193.918 723.217C197.279 721.213 200.841 721.316 204.673 721.493C208.762 721.677 213.269 721.207 215.445 715.761H201.947C206.752 710.847 211.974 709.656 217.524 709.284C219.952 709.123 222.042 708.276 221.407 705.389C220.834 702.795 218.205 703.19 216.865 703.986C208.132 709.186 199.267 706.014 190.378 705.052C190.825 700.544 195.618 700.218 197.646 697.32C194.061 694.119 191.741 696.702 189.348 698.569C187.217 700.224 186.226 705.298 182.372 701.81C179.961 699.634 176.376 697.755 177.521 692.813C178.678 687.814 175.74 683.117 174.309 678.341C177.997 677.958 182.24 682.894 186.089 676.852C181.628 675.73 176.611 675.936 176.164 670.158L176.382 670.392L176.399 670.41ZM79.7519 619.938C79.666 618.495 85.2841 618.615 82.9304 614.309C76.8885 618.73 73.6986 615.059 70.7492 610.06C68.0175 605.438 63.4703 600.954 62.1016 601.492C55.8478 603.926 53.706 599.327 51.4725 595.307C48.9584 590.788 52.6465 571.58 56.495 571.237C67.4563 570.263 68.8365 562.979 70.1765 553.924C64.8391 554.972 60.1373 555.866 56.8844 551.181C50.1725 541.52 43.3231 531.968 38.0887 521.356C35.9583 517.037 38.5927 512.857 41.3015 515.48C46.6619 520.663 52.1483 514.277 56.6496 517.765C57.3998 518.343 58.0298 519.048 56.9703 520.622C56.2946 520.766 55.1721 521.121 54.0267 521.235C51.4438 521.487 47.8188 520.313 48.5632 525.078C49.2276 529.316 51.8791 528.159 54.8055 527.472C61.9928 525.777 69.2202 525.164 75.9836 530.605C77.8105 522.152 73.9735 519.718 67.3188 519.397C73.2175 517.667 77.4096 515.411 81.8823 522.982C88.7832 534.642 94.2066 533.623 99.5154 520.846C102.969 525.009 106.703 526.521 111.404 522.804C113.14 521.436 117.578 522.701 116.45 524.86C114.314 528.955 117.704 529.413 118.804 531.555C121.272 536.366 123.316 541.486 118.827 547.253C114.76 542.173 111.061 538.937 103.748 540.214C101.451 540.615 96.6863 541.726 93.2044 540.323C92.1335 544.418 96.5775 545.5 97.9978 548.232C94.4414 551.565 89.8198 547.797 86.0572 551.049C91.1713 557.842 99.2348 554.995 105.454 557.412C106.943 557.991 110.5 555.419 109.927 559.422C109.452 562.778 107.098 561.232 104.933 560.762C102.596 560.258 98.5018 560.831 98.4789 562.669C98.4445 565.928 101.76 568.539 105.002 566.776C107.785 565.264 112.166 569.817 113.541 564.101C113.987 562.24 115.912 563.265 115.774 564.473C115.058 570.55 120.865 565.756 122.148 568.625C120.991 570.177 119.829 571.873 118.534 573.465C115.144 577.634 110.156 581.591 118.832 585.686C124.588 588.406 117.532 590.989 118.242 594.076C118.924 597.031 117.063 598.188 113.626 597.397C108.083 596.132 102.894 594.998 98.7767 590.342C96.1537 587.375 91.3661 586.39 88.7202 590.015C85.3586 594.625 89.2929 595.376 93.0841 595.788C95.1744 596.017 94.6476 598.136 94.659 599.545C94.7048 604.785 98.0894 608.164 104.068 613.364C95.6269 610.604 94.2867 612.585 94.2467 618.392C94.218 622.229 94.5388 628.781 86.9563 629.657C93.4506 619.016 82.5409 624.629 79.7691 619.927L79.7519 619.938ZM255.465 275.242C257.143 278.106 258.093 280.448 259.657 282.263C263.608 286.862 259.135 290.997 258.586 295.063C258.053 299.02 253.357 294.622 250.574 295.492C248.163 296.248 244.898 291.06 243.163 296.632C241.892 300.71 243.444 302.995 247.201 304.65C249.394 305.612 251.828 307.485 251.622 310.045C251.158 315.789 240.89 321.246 235.472 318.429C230.982 316.092 227.139 318.601 223.01 318.761C220.445 318.858 214.088 328.405 216.522 315.875C217.003 313.389 213.189 317.719 211.35 316.069C211.717 312.776 216.608 313.767 216.711 310.159C213.796 307.897 209.403 313.761 207.811 309.512C206.185 305.171 211.425 304.862 214.03 303.121C214.741 302.645 215.697 301.151 215.554 300.99C209.89 294.548 216.482 291.604 220.319 286.702C209.266 295.309 212.037 281.685 207.078 279.921C202.542 278.306 204.787 268.095 198.012 267.94C194.381 267.854 192.423 266.434 190.144 264.876C183.323 260.209 176.393 255.857 168.267 253.778C169.905 248.326 172.287 245.531 177.539 251.017C178.965 252.506 180.935 253.406 182.452 255.072C184.554 257.38 201.586 255.696 201.202 253.829C200.08 248.44 198.104 243.097 192.165 241.013C187.36 239.323 182.601 234.209 177.39 240.904C176.548 241.986 172.992 242.696 170.981 240.818C173.845 235.601 183.695 235.039 179.744 225.298C187.377 228.557 192.205 225.08 196.225 219.388C197.669 217.343 201.803 214.64 201.992 216.37C203.092 226.38 211.751 223.534 217.719 226.678C213.515 229.513 212.53 231.764 214.065 237.72C215.989 245.193 221.401 247.598 225.192 252.277C226.309 253.652 228.147 254.872 227.426 257.013C226.366 260.169 224.705 257.861 223.113 257.454C220.954 256.905 219.54 258.245 218.984 260.192C218.32 262.511 220.387 263.17 221.682 264.441C222.38 265.128 227.815 262.431 223.783 266.892C222.638 268.164 221.934 269.573 223.096 270.981C224.556 272.751 226.263 271.783 228.107 271.188C234.853 269.023 234.848 269.132 234.934 275.557C234.945 276.273 235.581 277.109 236.142 277.67C240.941 282.487 251.862 281.273 255.47 275.242H255.465ZM193.54 551.857C190.029 552.12 198.476 541.377 188.872 548.089C187.234 549.234 187.429 546.915 187.767 545.838C188.718 542.78 186.971 541.165 184.566 542.138C178.312 544.664 179.48 540.489 179.566 537.162C179.635 534.694 180.059 532.219 179.967 529.757C179.875 527.249 179.039 524.265 182.922 524.494C185.058 524.62 188.987 520.502 189.445 526.882C189.554 528.428 192.686 530.599 195.618 528.995C198.012 527.69 196.661 525.135 197.274 523.87C199.026 520.233 195.286 519.053 195.143 516.511C194.948 513.143 195.613 510.337 199.112 508.991C203.109 507.451 202.542 509.902 202.926 512.639C203.229 514.821 206.087 514.42 207.565 513.504C213.927 509.558 219.528 506.076 219.855 518.326C219.941 521.505 224.597 522.449 227.265 523.858C229.441 525.004 230.593 522.014 231.572 520.044C233.565 516.041 228.806 517.295 227.912 515.291C231.841 514.352 235.604 513.664 239.572 514.793C238.599 517.352 234.321 518.206 236.543 521.865C239.647 526.974 238.318 529.087 232.23 528.921C228.565 528.818 227.723 529.963 228.663 534.659C229.911 540.879 233.313 543.49 238.038 545.872C243.576 548.667 240.225 553.524 240.517 557.435C240.649 559.159 238.645 561.587 237.001 560.883C234.831 559.949 231.675 557.435 231.767 555.751C232.368 544.338 223.033 550.958 221.229 551.416C215.33 552.928 215.371 553.816 213.979 548.976C213.063 545.786 203.109 542.144 202.559 544.481C201.196 550.253 194.863 548.112 193.545 551.857H193.54ZM224.081 482.997C223.589 485.213 220.193 485.196 220.634 488.065C221.544 493.958 221.481 493.74 215.084 493.242C212.135 493.013 209.105 493.884 205.91 494.285C207.164 491.381 208.561 488.082 205.555 485.958C202.496 483.799 200.681 486.628 198.854 488.844C196.357 491.868 192.6 490.957 189.645 490.465C185.906 489.835 187.515 487.097 188.626 484.755C189.6 482.705 187.692 482.098 186.289 481.628C177.619 478.73 170.552 471.457 160.673 472.018C158.462 472.144 157.85 471.177 157.615 469.602C157.374 468.015 158.606 467.666 159.946 467.534C169.08 466.601 170.077 463.835 162.128 458.56C160.467 457.455 159.636 455.101 158.313 453.165C162.219 452.604 164.35 455.233 167.007 456.172C173.627 458.514 179.749 469.275 188.099 457.993C189.748 455.765 198.087 456.716 197.966 457.169C195.441 466.578 204.02 460.662 205.578 463.01C207.576 466.022 216.928 464.608 211.963 471.222C206.437 478.581 211.087 479.274 216.356 480.66C218.95 481.342 221.487 482.212 224.087 483.003L224.081 482.997ZM182.733 60.5637C184.955 60.5637 186.954 60.1113 188.614 60.6554C192.102 61.8065 196.506 63.0779 197.148 66.9492C197.944 71.7541 198.814 80.0409 196.603 81.255C186.713 86.6784 180.053 96.0247 170.145 101.23C160.513 106.293 146.241 104.552 137.697 97.6053C134.186 94.7476 134.873 91.8612 136.265 89.6736C138.132 86.7414 140.383 88.0299 142.811 90.5498C145.479 93.3159 149.339 94.9366 152.69 97.0498C157.93 100.354 162.987 97.0899 167.694 95.8472C171.543 94.8335 165.375 90.8361 168.124 87.8238C169.939 85.8365 163.347 85.9454 165.884 83.4713C168.009 81.3982 170.265 83.374 172.138 85.3097C173.621 86.8387 175.637 88.2017 177.951 87.3141C179.526 86.707 180.459 85.1951 178.684 83.8321C176.766 82.3603 180.551 78.5577 175.38 78.0308C165.925 77.0629 167.396 73.4149 174.229 69.5435C176.01 68.5356 176.548 66.8003 176.508 64.7959C176.399 59.7391 179.045 59.0461 182.739 60.5637H182.733ZM377.602 466.028C380.517 468.09 379.956 471.526 378.73 474.029C376.989 477.585 372.494 475.913 370.564 475.099C367.162 473.673 363.313 473.215 362.735 476.125C361.257 483.558 358.108 477.762 356.802 476.961C354.563 475.586 353.051 473.038 351.51 471.297C355.21 467.15 361.63 474.773 362.603 468.347C363.044 465.444 362.18 461.132 362.901 456.836C358.52 458.176 353.784 460.106 355.393 463.239C357.575 467.494 355.725 467.998 353.205 467.019C347.874 464.951 346.138 467.775 345.348 472.717C341.66 466.549 343.183 462.328 347.633 458.875C350.514 456.636 352.135 453.503 352.633 450.193C353.904 441.757 361.206 437.285 364.287 429.605C369.178 434.645 362.454 438.321 363.726 440.784C367.139 447.393 372.305 445.468 377.843 441.448C375.128 439.747 373.095 438.47 370.913 437.101C373.393 434.066 375.718 430.693 379.927 433.322C383.564 435.595 383.455 438.745 382.058 442.972C379.933 449.391 377.413 455.307 373.061 460.53C370.598 463.485 374.836 467.54 371.984 470.695C372.866 470.965 373.742 471.451 374.63 471.474C379.658 471.606 372.413 466.017 377.602 466.022V466.028ZM56.0196 674.67C53.1046 676.383 51.4152 676.846 50.5848 677.958C46.7306 683.112 42.6588 681.125 40.2535 677.368C37.4301 672.941 40.8605 670.364 44.8865 668.336C46.8051 667.369 50.5047 667.529 50.1095 663.01C47.2976 664.465 44.9782 665.954 42.4526 666.893C39.6464 667.935 38.3121 666.939 39.1997 663.726C41.1698 656.568 36.4394 650.125 27.5856 647.553C33.9196 647.49 38.1976 643.774 42.9853 640.71C44.6346 639.656 49.4967 636.472 51.2549 639.398C56.8844 648.79 65.3029 644.633 73.0858 644.764C69.1915 648.745 63.0752 649.541 60.8302 655.216C60.4179 656.253 57.0276 656.098 58.4536 658.75C59.3126 660.342 60.7043 662.398 62.6342 661.836C68.3268 660.193 73.3263 664.408 80.2731 661.997C72.9484 669.109 66.7232 673.124 58.7686 666.819C56.9245 665.353 54.9373 665.502 54.1126 667.414C52.5434 671.062 48.7579 671.039 45.3333 673.307C48.7809 673.748 51.4381 674.086 56.0139 674.67H56.0196ZM374.051 165.4C376.525 159.278 381.725 157.64 386.725 155.224C391.255 153.036 392.412 153.74 395.144 158.179C403.104 171.127 394.949 181.882 391.805 193.307C390.814 196.915 388.443 195.3 386.055 193.869C374.876 187.168 381.273 173.555 374.046 165.395L374.051 165.4ZM378.507 525.651C378.106 528.062 377.831 530.501 377.264 532.872C376.743 535.06 377.528 538.765 374.028 538.456C370.392 538.135 365.661 539.596 363.336 535.507C360.232 530.06 356.281 528.571 350.617 531.068C349.3 531.647 347.404 532.718 346.654 530.713C345.778 528.371 347.679 527.678 349.655 527.237C352.885 526.516 357.06 526.258 352.535 521.378C352.003 520.8 353.194 517.438 354.42 516.608C361.04 512.135 367.162 513.195 374.458 516.751C379.807 519.351 376.812 522.845 378.507 525.656V525.651ZM141.625 489.514C134.318 491.994 127.766 484.904 128.213 482.642C129.627 475.477 133.968 483.988 137.244 482.688C137.805 482.464 138.55 482.361 138.882 481.943C142.897 476.846 147.152 481.37 150.044 482.768C153.927 484.64 155.822 487.286 159.31 482.006C160.524 480.173 165.128 476.119 169.447 481.708C171.245 484.039 175.781 484.451 177.487 488.386C178.117 489.835 183.437 488.89 180.763 492.79C178.632 495.9 176.554 495.711 175.225 491.415C174.572 489.296 171.743 489.285 169.567 490.373C167.459 491.427 165.965 492.727 167.144 495.453C167.665 496.661 171.084 498.293 167.276 499.221C165.592 499.633 161.521 499.422 162.202 497.011C163.72 491.65 159.751 491.61 157.374 491.811C151.785 492.274 146.631 490.934 141.631 489.52L141.625 489.514ZM247.905 141.456C247.905 138.976 247.951 136.497 247.894 134.023C247.836 131.554 247.728 129.08 247.556 126.612C247.309 123.004 247.636 118.875 251.57 118.274C256.18 117.569 255.132 121.95 255.465 124.854C255.842 128.175 258.15 130.461 261.163 129.201C267.188 126.669 260.773 126.801 260.172 125.575C259.491 124.201 260.55 123.187 261.484 122.449C262.961 121.28 265.67 119.957 266.432 121.246C268.224 124.281 272.949 126.286 271.632 130.369C270.011 135.397 270.274 138.696 275.841 140.425C277.599 140.969 278.252 143.306 276.74 143.987C272.645 145.832 267.411 139.354 263.631 145.545C262.686 144.028 261.873 142.407 260.762 141.027C258.706 138.472 257.16 134.767 253.208 135.111C249.887 135.397 248.959 138.289 247.905 141.456ZM292.472 163.717C293.004 168.493 303.376 171.156 295.679 177.673C295.358 177.948 295.696 179.849 296.091 179.992C305.363 183.366 302.58 187.277 297.025 191.967C295.329 193.399 298.159 195.077 298.794 196.623C300.375 200.472 296.985 202.075 295.822 204.63C295.009 206.422 293.044 206.514 291.962 205.334C290.152 203.37 288.177 201.302 288.663 198.095C289.328 193.72 289.963 189.94 285.496 186.08C283.257 184.144 283.761 175.388 287.363 174.855C296.194 173.544 294.196 169.449 292.472 163.711V163.717ZM338.367 578.424C342.347 583.252 345.176 587.662 348.985 590.932C351.281 592.902 354.334 593.967 355.204 597.237C355.851 599.659 356.435 602.334 353.051 603.273C350.285 604.035 348.406 602.042 348.675 599.911C349.242 595.473 347.679 596.16 344.953 597.626C341.723 599.362 337.457 600.123 335.286 602.695C329.834 609.155 326.953 605.312 322.166 600.055C330.189 600.942 331.1 598.004 329.496 592.174C327.847 586.173 329.101 584.455 332.497 585.789C340.916 589.099 336.93 582.421 338.361 578.436L338.367 578.424ZM210.72 60.14C224.654 57.5972 224.7 57.7175 231.583 67.0237C232.734 68.5814 236.022 69.114 234.212 71.7656C232.465 74.3198 230.386 71.1241 228.645 71.273C224.345 71.6396 216.453 67.5105 218.996 78.2656C219.425 80.081 216.865 85.1321 213.189 83.4885C207.611 80.9973 203.241 74.9841 204.169 69.7382C205.343 63.1122 210.686 68.9078 214.242 69.2171C214.935 69.2744 215.68 68.6845 216.315 68.4325C215.955 64.4409 211.327 63.6906 210.72 60.14ZM298.176 536.205C294.934 530.358 298.519 527.523 299.35 524.173C301.085 517.164 305.134 515.13 310.036 521.081C316.198 528.56 318.42 517.032 323.151 518.996C324.628 513.945 319.577 514.168 317.498 511.981C316.834 511.276 316.439 510.497 317.59 509.426C319.984 511.07 322.647 512.53 324.863 514.5C328.792 517.994 328.746 528.612 325.785 527.93C320.253 526.664 317.773 529.259 314.537 532.368C313.593 533.279 309.99 533.25 309.36 532.38C303.742 524.66 301.056 529.889 298.181 536.211L298.176 536.205ZM270.206 117.346C269.661 116.132 270.635 115.41 271.397 115.473C276.093 115.851 280.485 115.845 285.004 113.526C287.02 112.49 288.371 115.656 288.056 117.987C287.306 123.474 288.188 128.141 292.884 131.858C294.94 133.479 293.262 138.037 293.016 137.768C288.875 133.221 284.5 146.851 282.301 138.192C280.428 130.821 278.149 124.779 271.66 120.61C270.824 120.072 270.675 118.463 270.206 117.346ZM318.031 265.678C316.519 269.687 317.55 275.065 312.682 276.668C308.656 277.991 297.191 266.537 297.838 261.979C298.588 256.664 303.84 253.566 307.608 253.778C313.73 254.121 316.788 259.671 318.037 265.684L318.031 265.678ZM179.274 557.429C186.467 561.175 192.881 565.344 200.67 562.446C201.992 561.954 204.089 562.383 203.882 564.525C203.705 566.352 203.315 567.835 200.423 566.186C196.42 563.906 195.223 566.753 196.792 569.948C201.483 579.501 201.414 579.564 190.94 579.81C188.97 579.856 186.747 581.78 185.642 579.111C184.405 576.139 190.459 577.433 189.204 573.825C180.247 572.491 178.518 566.495 179.274 557.429ZM14.471 342.671C14.4882 346.009 14.2763 349.371 14.597 352.681C14.8662 355.447 13.0794 359.267 17.0653 360.584C20.9825 361.879 21.5953 357.286 24.0636 355.871L23.783 355.694C25.753 361.014 25.7473 365.189 18.623 366.294C16.6472 366.603 14.7287 368.081 15.1353 370.956C15.7882 375.6 18.1305 371.62 19.5164 372.027C21.9561 372.748 23.6856 374.358 23.3191 377.53C22.8609 381.482 25.4953 382.742 29.6072 383.423C29.0002 377.147 26.4345 371.007 36.6284 369.387C39.5949 368.917 44.3597 372.754 46.7478 367.961C48.8152 369.707 52.658 366.655 53.9007 370.532C55.4069 375.234 49.1646 372.216 48.5174 375.686C54.6223 377.593 59.6505 376.597 65.1999 374.191C69.5179 372.319 73.6642 382.822 79.8722 374.799C83.7206 369.822 88.6687 380.903 94.6075 375.663C91.2572 377.84 90.7533 380.995 89.3903 383.629C88.5771 385.204 87.8039 385.869 85.7995 384.901C81.4356 382.793 62.4739 385.313 61.2311 389.093C58.4536 397.557 51.8848 394.986 46.5245 395.507C41.983 395.954 37.3557 395.518 33.1292 397.666C31.4684 398.508 27.912 396.99 28.4733 400.593C28.9085 403.382 31.4799 404.16 34.1887 404.332C38.3865 404.596 41.7654 400.501 48.0707 402.311C42.7848 405.306 38.9535 407.786 34.8416 409.658C33.0777 410.46 30.2372 413.495 29.3151 411.359C26.6636 405.231 16.9164 404.16 18.3481 395.381C18.8636 392.203 17.6666 389.207 16.0115 386.539C8.33179 374.134 10.6454 360.47 10.8631 347.052C10.9089 344.354 12.1287 343.089 14.7115 342.934L14.4596 342.671H14.471ZM43.1227 324.9C40.4539 326.738 38.6786 328.983 39.0852 332.528C40.4711 344.503 33.8394 351.244 23.783 355.694L24.0636 355.871C23.6111 354.743 23.1587 353.615 22.7063 352.492C29.0517 350.883 27.4596 342.396 33.7019 340.134C36.8346 339 37.4931 334.911 36.0843 331.263C34.7957 327.912 34.8931 327.878 26.4689 328.13C25.2891 330.85 28.3416 332.465 28.2442 335.753C20.1864 331.28 21.286 343.999 14.4653 342.676L14.7173 342.94C5.8291 337.746 6.104 329.51 7.04327 320.811C7.64459 315.233 6.84283 309.472 7.73047 303.963C9.95825 290.144 19.0125 275.941 4.56348 263.433C4.48334 263.365 5.07318 262.528 5.42255 261.927C9.08771 263.05 9.41418 268.204 13.5948 268.759C16.882 259.31 12.0714 250.834 10.634 241.94C17.0768 255.324 25.0143 268.29 19.8257 284.176C24.7737 284.251 28.5305 281.845 33.7649 285.259C26.6178 284.989 20.1979 286.266 20.0261 291.913C19.7741 300.074 22.2424 308.326 23.6856 316.516C23.7887 317.112 24.4587 320.112 25.9134 316.968C28.0151 312.433 32.6138 318.761 34.9275 314.958C38.3064 318.039 33.9482 320.181 33.6905 323.337C37.2583 322.913 40.6372 322.644 43.3116 325.175C43.3116 325.175 43.1399 324.946 43.1169 324.912L43.1227 324.9ZM390.201 599.94C392.641 600.249 395.121 600.982 397.497 600.742C399.233 600.564 401.392 598.508 399.015 597.048C396.489 595.49 395.877 594.202 397.549 592.111C399.215 590.033 400.79 592.043 402.434 592.621C403.533 593.005 404.874 592.936 406.07 592.787C409.329 592.386 411.099 590.542 410.789 587.158C410.641 585.554 412.347 583.017 409.489 582.57C403.797 581.683 408.968 585.852 407.577 587.049C406.202 588.234 404.696 588.452 403.705 586.797C402.428 584.666 399.885 585.004 398.746 584.225C404.524 580.102 411.053 578.235 419.385 580.28C412.679 583.676 422.386 591.567 414.237 594.54C414.546 594.946 414.77 595.53 415.182 595.742C421.579 599.007 425.175 585.588 432.437 592.77C432.701 593.028 435.112 591.819 435.535 589.924C436.767 584.42 436.99 584.254 440.764 587.312C442.682 588.864 444.126 585.193 445.706 587.324C443.272 593.44 440.231 599.173 433.72 605.822C442.614 603.342 447.482 607.969 453.335 609.172C458.202 610.174 459.938 612.516 460.413 616.955C460.516 617.905 462.52 618.535 460.459 620.396C457.452 618.627 454.085 617.51 450.712 620.643C448.787 622.43 445.386 621.553 445.695 619.32C446.892 610.638 441.944 611.274 436.268 612.121C433.96 612.465 433.078 610.976 432.735 608.828C432.237 605.724 430.364 603.983 427.535 603.897C425.061 612.625 432.317 615.449 437.448 620.099C433.909 622.292 430.507 622.029 428.004 619.417C425.674 616.983 423.921 614.206 420.72 617.762C416.024 622.979 425.634 620.442 424.299 624.176C415.233 628.849 416.511 613.352 408.373 615.649C412.387 614.223 416.407 612.797 420.422 611.371C414.523 610.873 409.237 610.592 406.574 603.147C407.067 614.446 397.835 606.056 395.195 610.352C396.025 605.724 392.045 603.273 390.419 599.757C390.419 599.757 390.201 599.951 390.213 599.951L390.201 599.94ZM456.879 876.039C465.894 877.271 474.702 877.002 483.504 874.951C484.964 874.614 486.625 873.611 487.192 875.925C487.364 876.624 486.728 878.21 486.339 878.25C480.188 878.914 475.148 884 469.662 884.229C463.649 884.481 457.79 884.699 451.788 885.752C431.297 889.343 410.331 888.942 389.852 893.106C384.205 894.257 378.054 892.252 372.723 889.893C367.019 887.373 363.886 881.709 365.106 875.925C366.228 870.61 371.675 877.66 374.933 872.472C374.074 877.099 374.195 880.048 372.94 882.19C371.6 884.475 371.646 885.97 374.057 885.89C379.332 885.718 384.824 887.808 389.881 885.546C389.863 880.925 384.48 883.622 384.108 879.825C390.866 877.425 396.696 875.346 404.965 877.649C415.331 880.535 427.123 877.964 438.021 878.737C446.96 879.373 442.963 875.81 441.864 870.272C447.258 874.482 451.914 875.352 456.879 876.028V876.039ZM403.665 813.313C407.055 806.12 414.615 807.385 418.452 809.55C423.927 812.643 429.161 806.355 435.289 812.488C440.718 817.917 451.422 820.534 460.213 818.942C468.419 817.453 476.259 819.738 484.22 818.261C470.784 823.85 450.271 823.879 435.335 818.244C433.038 817.379 430.221 816.886 429.677 820.603C428.961 825.46 429.041 825.471 423.663 826.611C423.681 823.656 431.143 821.084 425.84 818.856C420.628 816.669 413.762 816.216 407.897 819.108C406.374 819.859 403.745 821.955 407.479 823.283C408.837 823.764 411.522 821.852 410.595 825.19C409.999 827.349 406.196 828.987 405.515 828.019C402.743 824.085 397.703 827.727 394.159 823.822C402.692 821.972 401.225 816.457 400.933 809.963C401.844 811.079 402.755 812.196 403.659 813.307L403.665 813.313ZM342.193 122.758C346.121 135.638 342.817 143.827 333.219 150.717C331.386 152.034 328.889 154.221 328.345 151.226C327.515 146.668 322.16 144.308 323.328 139.274C323.426 138.856 324.834 138.444 325.573 138.535C327.601 138.782 328.253 145.459 331.002 140.042C331.495 139.068 331.93 131.509 327.297 131.486C320.82 131.451 321.519 125.999 320.992 123.376C320.465 120.725 327.847 119.425 325.327 114.196C326.507 114.345 328.391 114.082 328.757 114.706C333.053 122.042 337.926 118.503 343.321 115.639C342.009 118.062 341.139 119.253 342.21 122.758H342.193ZM449.904 115.038C450.397 110.76 445.557 107.667 446.96 103.16C448.661 102.8 449.326 103.825 450.236 104.695C452.098 106.476 450.843 111.464 454.72 110.514C458.053 109.695 458.048 105.766 458.019 102.611C457.956 96.1335 458.443 89.5877 457.658 83.1964C457.074 78.4145 453.294 74.0506 456.347 68.8048C456.788 68.0488 456.169 66.1761 455.448 65.3457C453.1 62.6541 454.669 62.3047 456.456 59.8193C459.359 55.7875 463.998 48.6346 458.913 44.4139C451.519 38.2804 450.712 39.2597 453.191 30.8011C454.44 34.6724 452.859 40.2676 459.09 40.9835C466.432 41.8253 460.774 33.9337 465.292 31.8491C465.292 36.654 465.59 40.972 465.183 45.2157C464.926 47.9188 463.425 50.473 462.818 53.1703C461.793 57.6774 460.373 62.236 460.293 66.7946C460.041 80.9343 461.799 83.1277 471.363 81.9709C461.707 86.4207 461.891 94.4842 462.526 103.006C462.744 105.938 462.045 109.466 460.476 111.877C458.059 115.582 454.961 120.278 449.686 114.734C449.686 114.734 449.904 115.015 449.921 115.038H449.904ZM283.612 47.5866C289.763 46.0117 296.589 45.6566 299.459 38.4751C300.403 36.1156 302.299 36.591 304.086 36.7799C310.34 37.4385 308.438 43.7782 309.274 46.6646C311.239 53.428 302.981 47.8099 301.016 51.4236C304.086 54.6135 302.425 61.1364 307.774 62.3448C311.107 63.095 314.011 62.8087 313.295 67.3788C312.968 69.4863 313.014 71.966 310.219 72.4184C306.634 73.0026 303.313 72.2123 301.314 68.9365C299.653 66.2162 298.977 62.5682 294.591 63.1237C293.239 66.4682 296.045 71.1528 290.227 72.7964C288.343 64.0629 294.677 56.6924 294.556 48.1307C291.252 49.0011 292.34 51.5382 291.16 52.8153C290.044 54.0236 291 56.7382 288.154 56.8756C285.548 54.2756 288.119 49.1959 283.778 47.432C283.778 47.432 283.578 47.6038 283.607 47.5809L283.612 47.5866ZM403.568 785.56C403.196 786.62 404.192 788.67 405.188 789.609C407.348 791.648 410.348 792.747 413.155 792.324C414.735 792.089 415.102 786.557 418.114 790.451C420.004 792.896 419.242 796.453 418.526 799.448C417.771 802.609 413.55 803.09 412.639 802.283C408.161 798.303 405.074 802.243 401.495 803.44C394.892 805.65 388.34 802.386 388.071 796.745C387.613 787.164 400.378 779.261 409.3 783.436C407.657 786.643 404.57 782.697 403.562 785.56H403.568ZM22.7407 229.198C26.5547 223.964 27.3107 228.39 30.0196 229.633C34.1945 231.546 31.8178 239.168 35.1738 237.88C43.5923 234.65 53.0531 243.143 60.4523 234.982C62.0157 233.258 63.8025 232.657 64.9307 234.638C66.4254 237.267 62.9836 235.898 62.554 236.838C58.5968 245.508 50.4302 240.205 44.457 242.169C39.8354 243.693 34.1143 246.573 30.7297 238.739C29.235 235.28 26.9384 238.052 25.5926 240.428C23.09 244.855 18.3997 245.262 15.7481 242.295C13.2283 239.483 5.9093 235.996 13.131 230.269C14.5684 229.129 15.3415 227.142 16.3952 225.59C19.7455 224.937 20.6389 232.084 22.7464 229.192L22.7407 229.198ZM140.984 192.569C139.117 192.099 135.893 192.569 134.879 193.857C128.82 201.566 125.934 190.627 120.923 191.429C120.23 191.538 122.572 184.448 117.813 182.661C122.492 183.784 122.635 178.183 126.168 177.1C130.406 175.8 129.902 180.766 130.721 180.582C134.604 179.695 135.085 186.281 139.197 184.024C142.691 182.111 140.887 179.248 140.669 176.648C140.474 174.248 141.098 172.358 143.887 171.849C149.557 179.603 140.377 183.761 138.796 189.717C143.492 191.108 143.624 185.57 148.125 185.737C147.587 190.473 147.1 194.109 140.99 192.563L140.984 192.569ZM147.324 882.528C167.98 883.043 187.526 892.521 210.239 889.28C206.276 894.051 202.548 893.312 199.055 893.403C184.909 893.77 170.792 886.405 156.538 893.346C154.935 894.125 149.843 894.566 151 891.313C153.595 884.034 148.664 887.785 146.579 887.682C144.128 887.562 141.476 888.862 138.229 886.291C142.083 884.676 144.855 883.513 147.627 882.356C147.627 882.356 147.341 882.517 147.324 882.528ZM176.405 670.415C177.224 669.591 177.899 668.514 178.873 667.953C187.933 662.747 198.344 663.125 207.977 663.102C220.307 663.073 233.267 661.012 246.09 666.681C240.901 670.81 236.308 670.793 231.406 668.794C224.396 665.943 218.664 666.933 214.935 674.023C216.27 675.638 217.558 675.346 218.681 674.882C224.276 672.557 224.642 679.212 228.17 680.598C228.857 680.867 229.928 685.42 228.073 686.376C223.783 688.587 224.969 682.556 222.392 681.823C221.527 681.577 220.525 681.88 219.62 681.732C212.398 680.563 205.2 679.429 198.018 682.092C196.334 682.717 195.069 682.797 193.608 680.535C189.634 674.361 183.031 671.887 176.176 670.175C176.176 670.175 176.393 670.41 176.405 670.415Z" fill="white"/>
</mask>
<g mask="url(#mask0_53_81334)">
<path d="M-55.6789 893.18H573.959V898.798H-55.6789V893.18Z" fill="#1DC24F"/>
<path d="M-55.6789 885.782H573.959V891.4H-55.6789V885.782Z" fill="#1DC24F"/>
<path d="M-55.6789 878.376H573.959V883.994H-55.6789V878.376Z" fill="#1DC24F"/>
<path d="M-55.6789 870.977H573.959V876.595H-55.6789V870.977Z" fill="#1DC24F"/>
<path d="M-55.6789 863.579H573.959V869.197H-55.6789V863.579Z" fill="#1DC24F"/>
<path d="M-55.6789 856.174H573.959V861.792H-55.6789V856.174Z" fill="#1DC24F"/>
<path d="M-55.6789 848.775H573.959V854.394H-55.6789V848.775Z" fill="#1DC24F"/>
<path d="M-55.6789 841.369H573.959V846.987H-55.6789V841.369Z" fill="#1DC24F"/>
<path d="M-55.6789 833.968H573.959V839.586H-55.6789V833.968Z" fill="#1DC24F"/>
<path d="M-55.6789 826.565H573.959V832.184H-55.6789V826.565Z" fill="#1DC24F"/>
<path d="M-55.6789 819.165H573.959V824.783H-55.6789V819.165Z" fill="#1DC24F"/>
<path d="M-55.6789 811.761H573.959V817.379H-55.6789V811.761Z" fill="#1DC24F"/>
<path d="M-55.6789 804.362H573.959V809.98H-55.6789V804.362Z" fill="#1DC24F"/>
<path d="M-55.6789 796.957H573.959V802.575H-55.6789V796.957Z" fill="#1DC24F"/>
<path d="M-55.6789 789.559H573.959V795.177H-55.6789V789.559Z" fill="#1DC24F"/>
<path d="M-55.6789 782.152H573.959V787.77H-55.6789V782.152Z" fill="#1DC24F"/>
<path d="M-55.6789 774.754H573.959V780.372H-55.6789V774.754Z" fill="#1DC24F"/>
<path d="M-55.6789 767.35H573.959V772.968H-55.6789V767.35Z" fill="#1DC24F"/>
<path d="M-55.6789 759.948H573.959V765.566H-55.6789V759.948Z" fill="#1DC24F"/>
<path d="M-55.6789 752.544H573.959V758.162H-55.6789V752.544Z" fill="#1DC24F"/>
<path d="M-55.6789 745.146H573.959V750.764H-55.6789V745.146Z" fill="#1DC24F"/>
<path d="M-55.6789 737.74H573.959V743.358H-55.6789V737.74Z" fill="#1DC24F"/>
<path d="M-55.6789 730.343H573.959V735.961H-55.6789V730.343Z" fill="#1DC24F"/>
<path d="M-55.6789 722.936H573.959V728.554H-55.6789V722.936Z" fill="#1DC24F"/>
<path d="M-55.6789 715.537H573.959V721.155H-55.6789V715.537Z" fill="#1DC24F"/>
<path d="M-55.6789 708.14H573.959V713.758H-55.6789V708.14Z" fill="#1DC24F"/>
<path d="M-55.6789 700.733H573.959V706.352H-55.6789V700.733Z" fill="#1DC24F"/>
<path d="M-55.6789 693.335H573.959V698.953H-55.6789V693.335Z" fill="#1DC24F"/>
<path d="M-55.6789 685.931H573.959V691.549H-55.6789V685.931Z" fill="#1DC24F"/>
<path d="M-55.6789 678.529H573.959V684.147H-55.6789V678.529Z" fill="#1DC24F"/>
<path d="M-55.6789 671.126H573.959V676.744H-55.6789V671.126Z" fill="#1DC24F"/>
<path d="M-55.6789 663.727H573.959V669.345H-55.6789V663.727Z" fill="#1DC24F"/>
<path d="M-55.6789 656.32H573.959V661.938H-55.6789V656.32Z" fill="#1DC24F"/>
<path d="M-55.6789 648.924H573.959V654.542H-55.6789V648.924Z" fill="#1DC24F"/>
<path d="M-55.6789 641.517H573.959V647.135H-55.6789V641.517Z" fill="#1DC24F"/>
<path d="M-55.6789 634.118H573.959V639.736H-55.6789V634.118Z" fill="#1DC24F"/>
<path d="M-55.6789 626.714H573.959V632.332H-55.6789V626.714Z" fill="#1DC24F"/>
<path d="M-55.6789 619.313H573.959V624.932H-55.6789V619.313Z" fill="#1DC24F"/>
<path d="M-55.6789 611.909H573.959V617.527H-55.6789V611.909Z" fill="#1DC24F"/>
<path d="M-55.6789 604.51H573.959V610.128H-55.6789V604.51Z" fill="#1DC24F"/>
<path d="M-55.6789 597.104H573.959V602.722H-55.6789V597.104Z" fill="#1DC24F"/>
<path d="M-55.6789 589.707H573.959V595.325H-55.6789V589.707Z" fill="#1DC24F"/>
<path d="M-55.6789 582.308H573.959V587.926H-55.6789V582.308Z" fill="#1DC24F"/>
<path d="M-55.6789 574.903H573.959V580.521H-55.6789V574.903Z" fill="#1DC24F"/>
<path d="M-55.6789 567.504H573.959V573.122H-55.6789V567.504Z" fill="#1DC24F"/>
<path d="M-55.6789 560.098H573.959V565.716H-55.6789V560.098Z" fill="#1DC24F"/>
<path d="M-55.6789 552.7H573.959V558.318H-55.6789V552.7Z" fill="#1DC24F"/>
<path d="M-55.6789 545.294H573.959V550.912H-55.6789V545.294Z" fill="#1DC24F"/>
<path d="M-55.6789 537.895H573.959V543.513H-55.6789V537.895Z" fill="#1DC24F"/>
<path d="M-55.6789 530.49H573.959V536.108H-55.6789V530.49Z" fill="#1DC24F"/>
<path d="M-55.6789 523.091H573.959V528.709H-55.6789V523.091Z" fill="#1DC24F"/>
<path d="M-55.6789 515.687H573.959V521.305H-55.6789V515.687Z" fill="#1DC24F"/>
<path d="M-55.6789 508.287H573.959V513.905H-55.6789V508.287Z" fill="#1DC24F"/>
<path d="M-55.6789 500.882H573.959V506.5H-55.6789V500.882Z" fill="#1DC24F"/>
<path d="M-55.6789 493.483H573.959V499.101H-55.6789V493.483Z" fill="#1DC24F"/>
<path d="M-55.6789 486.077H573.959V491.695H-55.6789V486.077Z" fill="#1DC24F"/>
<path d="M-55.6789 478.678H573.959V484.296H-55.6789V478.678Z" fill="#1DC24F"/>
<path d="M-55.6789 471.275H573.959V476.893H-55.6789V471.275Z" fill="#1DC24F"/>
<path d="M-55.6789 463.875H573.959V469.493H-55.6789V463.875Z" fill="#1DC24F"/>
<path d="M-55.6789 456.471H573.959V462.089H-55.6789V456.471Z" fill="#1DC24F"/>
<path d="M-55.6789 449.071H573.959V454.689H-55.6789V449.071Z" fill="#1DC24F"/>
<path d="M-55.6789 441.665H573.959V447.283H-55.6789V441.665Z" fill="#1DC24F"/>
<path d="M-55.6789 434.267H573.959V439.885H-55.6789V434.267Z" fill="#1DC24F"/>
<path d="M-55.6789 426.868H573.959V432.486H-55.6789V426.868Z" fill="#1DC24F"/>
<path d="M-55.6789 419.461H573.959V425.079H-55.6789V419.461Z" fill="#1DC24F"/>
<path d="M-55.6789 412.064H573.959V417.683H-55.6789V412.064Z" fill="#1DC24F"/>
<path d="M-55.6789 404.658H573.959V410.276H-55.6789V404.658Z" fill="#1DC24F"/>
<path d="M-55.6789 397.26H573.959V402.878H-55.6789V397.26Z" fill="#1DC24F"/>
<path d="M-55.6789 389.854H573.959V395.473H-55.6789V389.854Z" fill="#1DC24F"/>
<path d="M-55.6789 382.454H573.959V388.072H-55.6789V382.454Z" fill="#1DC24F"/>
<path d="M-55.6789 375.05H573.959V380.668H-55.6789V375.05Z" fill="#1DC24F"/>
<path d="M-55.6789 367.651H573.959V373.269H-55.6789V367.651Z" fill="#1DC24F"/>
<path d="M-55.6789 360.246H573.959V365.864H-55.6789V360.246Z" fill="#1DC24F"/>
<path d="M-55.6789 352.848H573.959V358.466H-55.6789V352.848Z" fill="#1DC24F"/>
<path d="M-55.6789 345.441H573.959V351.059H-55.6789V345.441Z" fill="#1DC24F"/>
<path d="M-55.6789 338.045H573.959V343.663H-55.6789V338.045Z" fill="#1DC24F"/>
<path d="M-55.6789 330.639H573.959V336.257H-55.6789V330.639Z" fill="#1DC24F"/>
<path d="M-55.6789 323.239H573.959V328.857H-55.6789V323.239Z" fill="#1DC24F"/>
<path d="M-55.6789 315.835H573.959V321.453H-55.6789V315.835Z" fill="#1DC24F"/>
<path d="M-55.6789 308.435H573.959V314.053H-55.6789V308.435Z" fill="#1DC24F"/>
<path d="M-55.6789 301.032H573.959V306.65H-55.6789V301.032Z" fill="#1DC24F"/>
<path d="M-55.6789 293.631H573.959V299.249H-55.6789V293.631Z" fill="#1DC24F"/>
<path d="M-55.6789 286.225H573.959V291.843H-55.6789V286.225Z" fill="#1DC24F"/>
<path d="M-55.6789 278.828H573.959V284.446H-55.6789V278.828Z" fill="#1DC24F"/>
<path d="M-55.6789 271.428H573.959V277.046H-55.6789V271.428Z" fill="#1DC24F"/>
<path d="M-55.6789 264.022H573.959V269.641H-55.6789V264.022Z" fill="#1DC24F"/>
<path d="M-55.6789 256.624H573.959V262.242H-55.6789V256.624Z" fill="#1DC24F"/>
<path d="M-55.6789 249.22H573.959V254.838H-55.6789V249.22Z" fill="#1DC24F"/>
<path d="M-55.6789 241.82H573.959V247.438H-55.6789V241.82Z" fill="#1DC24F"/>
<path d="M-55.6789 234.416H573.959V240.034H-55.6789V234.416Z" fill="#1DC24F"/>
<path d="M-55.6789 227.017H573.959V232.635H-55.6789V227.017Z" fill="#1DC24F"/>
<path d="M-55.6789 219.611H573.959V225.229H-55.6789V219.611Z" fill="#1DC24F"/>
<path d="M-55.6789 212.212H573.959V217.83H-55.6789V212.212Z" fill="#1DC24F"/>
<path d="M-55.6789 204.808H573.959V210.426H-55.6789V204.808Z" fill="#1DC24F"/>
<path d="M-55.6789 197.408H573.959V203.026H-55.6789V197.408Z" fill="#1DC24F"/>
<path d="M-55.6789 190.003H573.959V195.621H-55.6789V190.003Z" fill="#1DC24F"/>
<path d="M-55.6789 182.604H573.959V188.223H-55.6789V182.604Z" fill="#1DC24F"/>
<path d="M-55.6789 175.199H573.959V180.817H-55.6789V175.199Z" fill="#1DC24F"/>
<path d="M-55.6789 167.8H573.959V173.418H-55.6789V167.8Z" fill="#1DC24F"/>
<path d="M-55.6789 160.395H573.959V166.013H-55.6789V160.395Z" fill="#1DC24F"/>
<path d="M-55.6789 152.997H573.959V158.615H-55.6789V152.997Z" fill="#1DC24F"/>
<path d="M-55.6789 145.593H573.959V151.211H-55.6789V145.593Z" fill="#1DC24F"/>
<path d="M-55.6789 138.192H573.959V143.81H-55.6789V138.192Z" fill="#1DC24F"/>
<path d="M-55.6789 130.792H573.959V136.41H-55.6789V130.792Z" fill="#1DC24F"/>
<path d="M-55.6789 123.388H573.959V129.006H-55.6789V123.388Z" fill="#1DC24F"/>
<path d="M-55.6789 115.989H573.959V121.607H-55.6789V115.989Z" fill="#1DC24F"/>
<path d="M-55.6789 108.585H573.959V114.203H-55.6789V108.585Z" fill="#1DC24F"/>
<path d="M-55.6789 101.186H573.959V106.804H-55.6789V101.186Z" fill="#1DC24F"/>
<path d="M-55.6789 93.7803H573.959V99.3984H-55.6789V93.7803Z" fill="#1DC24F"/>
<path d="M-55.6789 86.3799H573.959V91.998H-55.6789V86.3799Z" fill="#1DC24F"/>
<path d="M-55.6789 78.9756H573.959V84.5937H-55.6789V78.9756Z" fill="#1DC24F"/>
<path d="M-55.6789 71.5771H573.959V77.1952H-55.6789V71.5771Z" fill="#1DC24F"/>
<path d="M-55.6789 64.1709H573.959V69.789H-55.6789V64.1709Z" fill="#1DC24F"/>
<path d="M-55.6789 56.7734H573.959V62.3915H-55.6789V56.7734Z" fill="#1DC24F"/>
<path d="M-55.6789 49.3682H573.959V54.9862H-55.6789V49.3682Z" fill="#1DC24F"/>
<path d="M-55.6789 41.9688H573.959V47.5868H-55.6789V41.9688Z" fill="#1DC24F"/>
<path d="M-55.6789 34.5635H573.959V40.1816H-55.6789V34.5635Z" fill="#1DC24F"/>
<path d="M-55.6789 27.1641H573.959V32.7821H-55.6789V27.1641Z" fill="#1DC24F"/>
<path d="M-55.6789 19.7598H573.959V25.3779H-55.6789V19.7598Z" fill="#1DC24F"/>
<path d="M-55.6789 12.3604H573.959V17.9784H-55.6789V12.3604Z" fill="#1DC24F"/>
<path d="M-55.6789 4.95605H573.959V10.5741H-55.6789V4.95605Z" fill="#1DC24F"/>
<path d="M-55.6789 -2.44336H573.959V3.17473H-55.6789V-2.44336Z" fill="#1DC24F"/>
</g>
</svg>
