<svg width="612" height="671" viewBox="0 0 612 671" fill="none" xmlns="http://www.w3.org/2000/svg">
<mask id="mask0_53_54612" style="mask-type:luminance" maskUnits="userSpaceOnUse" x="-9" y="0" width="621" height="671">
<path d="M172.039 494.061C163.677 512.484 171.191 531.074 169.517 550.234C172.835 549.612 174.178 549.235 175.543 549.119C185.15 548.299 191.455 543.104 193.094 534.166C195.476 521.143 197.662 508.084 199.876 495.032C200.219 492.998 201.201 490.034 200.248 488.988C191.693 479.556 200.73 469.415 198.684 460.024C197.243 453.411 194.035 447.059 190.868 440.98C188.433 436.302 187.503 432.147 190.955 427.864C194.622 423.308 199.451 423.122 204.484 424.97C208.232 426.347 212.574 427.335 215.299 429.927C217.618 432.13 218.001 436.36 219.565 440.574C215.189 445.844 209.435 451.72 211.295 460.791C211.458 461.587 210.266 462.663 209.709 463.61C208.256 462.552 206.797 461.489 204.112 459.53C203.008 465.69 201.95 471.566 200.869 477.609C214.026 478.243 214.329 477.981 211.365 468.892C216.496 467.567 220.064 468.974 221.918 473.995C224.551 481.125 227.073 488.18 235.325 491.034C236.668 491.499 237.417 493.998 238.208 495.66C240.265 499.983 242.194 504.365 243.874 508.061C261.935 504.946 264.272 489.226 271.361 477.947C275.976 470.607 278.893 462.192 282.444 454.195C283.193 452.51 284.077 450.43 283.722 448.785C282.339 442.363 285.884 441.538 292.451 442.474C293.305 429.166 294.154 416.305 294.944 403.445C295.659 391.862 296.385 380.28 296.966 368.693C298.007 347.928 298.942 327.164 299.919 306.4C300.139 301.681 300.819 296.922 300.384 292.261C300.11 289.315 298.931 285.026 296.815 283.934C290.388 280.615 291.905 275.954 293.52 271.247C296.13 263.629 295.054 257.625 288.97 252.54C285.518 249.658 284.85 247.194 288.563 243.556C290.522 246.258 292.253 248.647 293.956 250.995C298.704 250.954 299.814 248.484 300.058 244.265C300.994 228.226 302.516 212.227 303.464 196.187C304.312 181.828 304.388 167.415 305.445 153.067C305.829 147.837 308.473 142.81 309.327 137.562C310.298 131.582 310.397 125.463 310.92 119.408C313.262 92.3555 315.644 65.3035 317.963 38.2515C318.945 26.7741 319.817 15.285 320.793 3.13919C327.308 3.13919 323.774 34.9739 330.382 34.9739C318.201 111.893 323.036 156.879 326.709 236.17C329.313 231.649 330.946 228.679 332.706 225.785C336.141 220.159 338.733 220.13 342.592 225.244C343.707 226.726 346.009 228.778 347.148 228.446C349.083 227.877 351.919 225.645 351.93 224.082C351.994 218.48 355.359 217.411 360.316 217.318C358.997 214.807 357.974 212.855 356.487 210.024C359.677 210.716 361.88 211.192 364.431 211.745C364.262 213.093 364.1 214.4 364.169 213.848C371.625 220.589 378.285 226.616 384.974 232.671C385.979 231.416 387.432 227.889 389.553 227.424C391.866 226.918 394.801 229.254 397.835 230.51C406.534 212.977 415.431 195.014 424.364 177.074C426.578 172.628 428.931 168.252 431.204 163.836C433.493 159.384 433.226 155.63 428.228 153.206C427.595 152.898 426.764 152.695 426.409 152.178C424.067 148.796 419.982 145.303 423.852 141.043C427.595 136.923 431.174 140.66 434.359 142.851C435.585 143.687 436.312 145.251 437.823 147.198C443.431 136.138 448.661 125.817 453.891 115.496C454.792 115.944 455.693 116.386 456.588 116.833C450.439 129.781 444.291 142.734 437.951 156.089C442.879 154.439 446.377 152.073 449.504 152.486C454.879 153.201 455.739 158.094 454.24 162.447C452.572 167.293 448.562 165.585 445.325 164.109C437.759 160.668 435.423 161.284 432.052 168.345C419.226 195.17 406.43 222.013 393.662 248.868C392.686 250.919 392.046 253.122 390.966 256.016C400.397 256.027 408.562 255.934 410.899 243.434C415.367 246.921 418.663 249.489 421.963 252.058C421.783 252.866 421.603 253.679 421.429 254.487C429.088 252.639 436.782 250.948 444.361 248.804C445.709 248.42 446.424 246.078 447.615 244.817C449.544 242.777 451.503 239.459 453.67 239.285C456.663 239.035 461.109 240.302 462.701 242.522C465.804 246.828 468.908 247.671 473.51 246.09C480.769 243.597 488.045 241.133 495.396 238.936C497.523 238.297 499.929 238.564 502.213 238.477C508.14 238.25 514.446 239.924 517.125 231.439C518.287 227.761 522.989 228.446 525.069 231.771C526.487 234.037 526.429 237.222 527.248 241.011C516.207 237.35 507.274 239.796 498.151 242.458C489.8 244.893 481.176 246.468 472.604 248.025C466.02 249.222 462.103 252.721 460.324 259.154C459.865 260.822 457.988 262.094 456.762 263.547C453.374 260.345 446.627 266.9 444.483 259.125C443.948 257.178 440.827 254.592 438.944 254.627C433.33 254.737 427.682 255.743 422.167 256.963C420.092 257.422 417.89 259.061 416.57 260.787C413.688 264.57 411.544 264.494 407.981 261.321C402.234 256.202 387.996 259.805 384.544 266.836C373.095 290.163 361.688 313.513 350.28 336.864C349.664 338.119 349.158 339.432 348.345 341.315C350.39 341.867 352.122 342.332 355.766 343.308C352.947 345.104 351.541 346.766 350.228 346.697C345.154 346.423 343.545 349.899 341.824 353.502C337.751 362.039 333.596 370.535 329.574 379.095C324.884 389.073 322.844 412.935 325.837 422.058H332.532C332.015 424.894 331.585 427.277 331.05 430.206C332.695 430.584 334.56 431.682 335.653 431.165C344.922 426.737 354.406 422.576 363.053 417.119C366.819 414.742 368.673 413.702 372.677 418.996C366.587 421.483 361.136 423.564 355.807 425.923C350.297 428.364 344.91 431.078 339.035 433.879C348.083 440.12 350.82 444.839 346.991 449.267C338.727 458.833 332.898 449.465 325.105 443.996C328.203 452.382 335.984 459.408 324.629 465.371C335.781 469.259 338.14 456.38 348.263 455.323C346.636 459.187 345.364 462.209 343.562 466.475C347.467 465.173 350.989 464.4 354.145 462.872C365.198 457.525 376.338 452.283 387.02 446.251C392.325 443.258 397.288 439.161 401.403 434.646C411.201 423.883 421.318 413.277 426.427 399.063C427.612 395.756 430.338 392.996 434.504 397.43C435.696 398.697 439.601 397.761 442.164 397.308C446.726 396.5 448.37 397.953 446.017 402.114C444.471 404.851 442.402 408.948 440.083 409.308C427.688 411.243 428.53 424.052 422.178 430.828C421.731 431.304 421.592 436.866 420.313 440.062C419.912 441.062 422.208 442.915 422.713 444.548C423.899 448.401 425.735 452.429 425.479 456.258C425.177 460.78 422.608 463.592 416.687 462.035C410.922 460.518 406.11 460.861 401.443 467.62C397.114 473.896 388.298 477.139 381.319 481.491C376.751 484.339 371.933 486.786 367.232 489.407C367.54 490.424 367.842 491.446 368.15 492.463C371.201 492.632 374.298 493.207 377.297 492.882C382.923 492.272 388.525 491.301 394.069 490.145C395.824 489.779 397.294 488.221 399.008 487.454C400.49 486.791 402.501 485.641 403.64 486.146C414.676 491.057 425.41 486.565 436.172 485.17C437.73 484.967 438.834 481.759 440.269 480.039C442.274 477.633 444.326 473.419 446.47 473.35C451.375 473.187 455.606 475.802 455.327 481.985C455.286 482.875 455.222 483.764 455.146 485.007C458.744 484.752 461.992 484.444 465.252 484.304C477.177 483.799 484.186 477.511 482.332 465.708C479.595 448.291 474.917 431.171 470.698 414.01C469.948 410.965 467.1 408.495 465.764 405.513C460.504 393.821 465.107 385.435 477.834 383.709C481.025 383.279 484.494 383.535 487.62 384.325C494.6 386.092 494.193 387.643 491.502 394.129C488.893 400.411 487.283 407.71 487.562 414.469C488.114 427.893 490.387 441.242 491.654 454.643C491.874 456.973 490.915 459.536 490.061 461.826C487.731 468.056 485.156 474.198 482.681 480.376C483.326 481.061 483.965 481.741 484.61 482.427C487.708 481.544 492.839 481.422 493.507 479.632C495.373 474.64 502.654 470.99 497.872 463.836C495.89 460.867 494.071 456.514 494.792 453.393C495.437 450.598 499.51 446.966 502.352 446.693C506.635 446.28 511.215 448.326 515.515 449.79C515.974 449.947 516.044 453.62 515.172 454.904C512.017 459.542 508.849 464.348 504.805 468.154C500.365 472.327 499.859 477.238 500.574 482.369C501.568 489.488 507.559 491.377 517.305 487.791C518.886 491.481 520.583 495.549 526.069 492.324C526.586 492.022 528.748 495.642 530.41 495.933C534.704 496.677 539.144 496.578 544.084 495.259C542.503 494.021 540.922 492.783 539.173 491.411C550.918 493.207 562.529 494.526 573.931 496.863C583.043 498.734 592.132 501.25 600.791 504.615C606.021 506.649 613.727 510.153 611.362 516.714C609.561 521.7 603.034 526.512 597.583 528.378C576.976 535.433 559.618 528.325 544.956 513.408C540.911 509.293 537.598 504.464 533.693 500.192C532.717 499.123 530.793 498.786 529.236 498.408C516.695 495.34 504.131 492.37 491.59 489.29C490.09 488.924 488.713 488.093 487.359 486.141H498.313C496 484.688 495.402 483.985 494.937 484.066C479.502 486.768 463.253 483.415 448.376 490.278C447.772 490.557 446.917 490.947 446.423 490.732C434.888 485.676 423.538 490.203 412.258 491.696C400.421 493.259 388.746 496.043 377.036 498.484C375.49 498.804 374.182 500.233 372.758 501.151C373.868 502.157 374.827 503.464 376.117 504.121C380.836 506.521 382.766 510.432 381.15 515.221C379.564 519.922 377.216 524.199 370.707 523.932C365.122 523.705 363.135 521.113 361.67 516.04C360.613 512.367 357.289 509.345 355.743 507.137C349.96 509.066 345.741 510.537 341.482 511.885C335.025 513.936 331.788 519.44 333.566 525.588C320.287 528.697 314.889 540.134 308.438 549.874C301.772 547.038 295.124 544.65 295.891 535.154C291.748 536.008 288.505 536.676 285.111 537.374C294.438 559.393 304.202 568.79 315.156 566.233C316.597 568.005 318.155 569.917 320.171 572.405C318.23 573.265 316.835 574.415 315.447 574.404C309.984 574.369 304.399 573.172 299.099 573.985C295.583 574.526 290.998 576.972 289.441 579.913C281.514 594.906 274.308 610.283 267.067 625.631C260.924 638.643 255.427 651.98 248.807 664.736C247.395 667.456 242.438 669.594 238.998 669.774C227.305 670.39 215.561 670.007 203.566 670.007C203.566 667.752 203.333 666.979 203.601 666.479C213.038 648.574 222.668 630.768 231.885 612.753C233.739 609.127 233.617 604.542 235.151 600.7C237.045 595.958 239.405 591.327 242.13 587.009C245.187 582.168 248.529 578.03 245.489 571.556C242.851 565.937 246.047 562.578 255.88 559.887C255.136 557.789 254.875 555.389 253.602 553.785C250.01 549.241 245.6 545.295 242.357 540.541C240.945 538.472 241.59 534.991 241.299 532.155H250.022C250.388 531.835 251.969 530.476 253.945 528.767C255.537 530.266 257.007 531.649 259.198 533.713C262.057 530.714 264.963 527.651 268.398 524.048C243.089 523.955 224.528 538.478 203.99 547.602C201.439 548.735 200.404 553.297 198.556 556.464C210.249 555.953 220.785 555.255 231.333 555.098C239.742 554.971 241.485 557.737 238.783 565.64C232.524 583.946 215.27 590.49 197.632 581.546C196.296 580.872 192.187 582.307 191.949 583.348C189.427 594.395 187.288 605.547 185.527 616.74C185.365 617.763 189.34 620.755 190.037 620.372C193.454 618.483 196.47 615.827 199.504 613.305C200.323 612.619 200.503 611.05 201.358 610.545C206.797 607.337 207.093 605.884 201.857 602.072C196.953 598.498 193.53 594.883 197.952 588.81C200.521 585.277 208.965 585.341 213.474 589.484C216.304 592.088 218.623 593.936 222.9 593.738C227.218 593.547 231.379 599.858 230.292 604.077C228.892 609.522 224.876 610.708 219.867 609.539C218.519 609.226 217.24 608.61 216.7 610.016C213.463 612.114 210.295 614.34 206.966 616.275C200.695 619.913 192.338 621.145 191.159 630.501C191.06 631.303 190.217 632.523 189.543 632.663C178.054 635.005 179.478 646.064 175.567 653.439C173.701 656.954 173.137 661.185 171.15 664.602C169.941 666.677 167.14 667.816 165.048 669.379C164.647 668.798 164.246 668.211 163.845 667.63C167.134 658.082 170.377 648.516 173.719 638.986C176.671 630.571 174.027 626.282 165.333 623.446C161.567 622.22 158.423 619.076 154.994 616.804L155.936 615.165H169.465C166.565 612.497 165.286 611.324 163.845 609.993C165.658 607.703 167.204 605.739 169.07 603.379C178.251 607.296 171.714 616.641 176.555 624.376C179.652 609.685 182.36 596.83 185.58 581.563C175.886 587.363 169.174 586.73 162.497 580.314C158.719 576.688 147.294 581.976 145.493 587.015C144.877 588.74 143.418 590.333 141.994 591.576C135.84 596.958 130.953 602.269 132.063 611.829C134.056 628.949 134.788 646.221 135.846 663.44C135.95 665.148 134.701 666.938 134.079 668.693C132.574 667.351 130.941 666.131 129.587 664.649C127.536 662.394 125.722 659.918 123.729 657.611C121.067 654.531 118.325 651.515 115.616 648.476C116.052 647.958 116.482 647.447 116.918 646.93C120.411 649.278 123.898 651.631 127.53 654.072V604.268C126.664 604.077 125.798 603.885 124.932 603.693C118.499 615.868 112.908 628.589 105.383 640.043C98.7866 650.08 90.0696 658.739 82.1312 667.862C81.3815 668.723 79.4696 668.827 78.0981 668.839C71.0257 668.897 63.9474 668.833 56.875 668.757C52.993 668.717 51.1798 667.188 52.4176 662.952C61.2102 632.924 64.2845 601.886 68.4396 571.045C69.8169 560.811 70.3864 550.473 71.3337 540.181C71.3569 539.948 71.5429 539.594 71.4499 539.506C62.5178 531.19 71.6184 525.455 73.8907 518.278C79.859 499.414 84.5139 480.137 89.8429 460.46C86.8559 460.977 85.1997 461.262 83.5434 461.553C83.7875 459.989 84.3105 458.409 84.2117 456.869C83.9386 452.591 84.3628 447.937 82.7879 444.148C78.6153 434.123 73.3154 424.569 68.8464 414.661C53.4521 380.519 38.5226 346.15 18.822 314.159C15.1376 308.179 11.058 302.443 7.44336 297.021C8.39062 295.51 10.5699 293.621 10.3026 292.18C8.55333 282.742 9.96548 280.952 19.4787 281.818C21.6289 276.396 23.7733 270.968 25.9177 265.54C24.3893 272.886 22.8551 280.232 21.3325 287.566C28.4282 291.25 29.2186 295.591 24.401 303.146C33.6585 299.99 42.9219 296.835 52.5223 293.563C53.1731 296.91 53.7426 299.177 54.039 301.472C54.9049 308.167 51.1217 314.972 45.8566 316.384C39.5803 318.07 34.6697 315.385 31.8279 307.946C29.8462 302.757 26.2897 303.53 22.5936 304.796C17.8399 306.424 20.0657 309.637 21.472 312.241C27.9691 324.317 34.7394 336.253 41.1261 348.388C45.8391 357.343 48.8553 367.507 60.2804 371.627C63.1396 368.262 64.7959 364.526 62.2447 359.348C59.2053 353.182 64.0869 349.916 67.812 346.284C71.6126 342.582 73.5943 346.673 76.2559 347.992C79.9578 349.823 83.677 351.625 87.3963 353.438C92.0048 355.687 94.5036 358.941 92.3011 364.224C91.2435 366.763 89.9301 369.198 88.454 372.272C87.1871 369.785 86.2225 367.885 84.3396 364.189C82.9739 368.292 82.1777 370.686 80.9225 374.457C78.3248 370.918 76.221 368.053 74.0418 365.089C63.8196 366.304 58.0024 376.741 62.2796 385.981C65.9465 393.908 68.8987 402.16 72.4785 410.128C78.0342 422.483 83.8514 434.716 89.5582 447.001C90.302 446.844 91.0401 446.681 91.7839 446.524C95.2243 428.509 98.8738 410.529 101.971 392.455C102.889 387.091 101.652 381.547 96.7585 378.049C92.1966 374.789 94.2073 372.203 96.3807 368.57C98.5019 372.336 100.1 375.172 102.355 379.17C103.645 376.544 104.389 375.585 104.598 374.521C108.416 355.094 113.118 335.765 115.523 316.158C116.651 306.947 120.364 296.039 111.147 287.769C110.078 286.81 109.91 284.77 109.468 283.195C106.708 273.427 104.133 263.594 101.14 253.9C100.437 251.628 98.7983 248.734 96.8398 247.909C82.1312 241.725 67.4633 235.943 51.9295 246.677C48.2916 249.193 42.4511 249.972 37.9183 249.367C32.1475 248.595 30.1252 250.768 28.8932 255.539C28.0156 258.95 26.8766 262.292 25.8538 265.663C25.8538 259.003 25.8538 252.337 25.8538 245.677L25.7666 245.753C30.9562 246.874 34.7743 245.125 39.249 241.958C45.229 237.721 52.7779 235.757 59.5017 232.509C63.5116 230.568 67.1843 227.947 71.0954 225.779C76.6743 222.687 82.3114 219.543 89.9243 225.831C82.8751 210.71 77.3833 197.193 70.3516 184.53C66.4463 177.498 59.554 172.872 50.3895 173.581C46.6585 173.872 41.4515 176.952 40.1091 170.089C39.0689 164.783 43.195 158.634 48.187 157.629C49.0761 157.449 49.9769 157.315 51.7203 157.007C52.2375 163.237 51.2496 170.455 61.0592 172.169C60.8674 169.351 61.2626 166.625 60.4432 164.329C53.4521 144.751 46.1995 125.265 39.1212 105.716C37.3894 100.927 36.0063 96.0109 34.4605 91.1468C35.2043 90.6412 35.9482 90.1298 36.6862 89.6242C38.6795 91.664 41.5736 93.3551 42.5209 95.8017C49.5933 114.067 56.2299 132.501 63.1164 150.841C65.4061 156.932 67.2018 163.068 73.635 166.962C76.4186 168.647 78.6909 173.686 78.6212 177.149C78.348 190.731 86.7106 201.081 91.0284 212.895C91.4294 213.999 95.1545 214.935 96.7469 214.348C100.919 212.82 104.615 209.99 108.8 208.508C111.182 207.659 114.472 207.723 116.709 208.758C117.918 209.315 118.423 212.901 118.109 214.941C117 222.141 115.82 229.388 113.815 236.373C112.722 240.18 109.927 243.498 107.899 247.037C107.248 247.014 106.597 246.991 105.946 246.962C110.177 257.364 114.408 267.766 118.493 277.82C122.491 277.099 125.769 276.507 130.749 275.606C134.527 265.866 140.042 255.336 142.134 242.649C145.144 224.413 140.071 207.601 137.537 190.306C135.404 175.778 129.209 174.61 115.977 172.721C117.459 169.943 118.778 167.462 120.266 164.672C124.519 167.497 128.111 169.879 132.551 172.826C131.83 168.804 131.673 165.811 130.685 163.121C129.965 161.162 128.465 159.134 126.745 157.989C124.74 156.658 122.125 156.252 119.772 155.444C121.352 153.346 122.933 151.254 124.514 149.156C124.136 149.028 123.764 148.9 123.386 148.778C125.676 143.699 127.971 138.62 130.65 132.669C134.817 138.283 138.478 138.161 142.105 132.053C139.431 131.222 137.095 130.496 134.765 129.769C139.048 127.834 143.232 127.497 146.08 131.763C148.404 135.244 144.941 142.002 140.111 144.722C137.252 146.332 134.591 148.302 133.103 149.284C134.654 152.759 136.63 155.217 136.055 156.199C131.505 164.039 135.997 167.16 142.552 169.705C142.111 166.305 141.686 163.074 141.099 158.599C143.883 158.809 146.754 158.164 148.41 159.297C154.808 163.69 161.102 168.543 162.59 176.836C162.979 179.015 162.381 182.63 160.934 183.548C159.335 184.571 155.988 183.803 153.879 182.81C151.908 181.88 150.746 179.369 148.892 178.027C147.149 176.76 144.964 176.109 142.971 175.185C142.192 177.359 140.402 179.73 140.786 181.682C144.673 201.732 145.975 222.385 154.384 241.406C154.733 242.196 154.628 243.19 154.739 244.102C164.078 242.417 165.623 241.226 177.124 226.988C169.261 214.981 169.087 212.488 175.811 208.2C179.954 205.561 189.746 207.677 192.222 211.75C195.32 216.841 192.425 222.083 183.952 229.196C190.519 227.243 197.394 225.913 203.473 222.949C205.257 222.077 205.664 216.446 205.164 213.232C204.112 206.514 201.904 199.988 200.463 193.322C200.015 191.265 200.509 188.999 200.573 186.831C203.072 186.924 206.082 186.198 207.924 187.343C209.598 188.383 211.092 191.66 210.737 193.596C209.953 197.913 207.959 202.005 206.21 206.898C211.074 205.759 213.858 217.172 218.507 207.287C223.464 215.51 223.115 218.858 216.746 225.564C221.529 226.023 226.306 226.721 231.1 226.889C238.574 227.156 246.059 226.965 253.526 227.238C254.59 227.278 256.019 228.609 256.56 229.696C258.495 233.578 254.375 244.928 249.644 247.2C244.78 249.536 239.428 249.867 235.366 245.172C231.437 240.621 227.532 236.007 224.109 231.073C219.501 224.425 200.23 224.541 196.087 231.509C195.744 232.084 195.703 232.828 195.494 233.485C194.744 235.873 194.326 240.046 193.152 240.273C190.647 240.755 187.747 239.192 184.057 238.215C183.79 238.576 182.79 239.936 181.791 241.295C181.657 240.801 181.523 240.308 181.39 239.814C178.379 240.267 175.015 239.999 172.428 241.301C162.41 246.346 150.653 250.367 147.41 262.478C145.254 270.527 138.67 277.977 143.122 287.746C144.33 290.396 142.064 296.248 139.524 298.706C128.616 309.26 127.268 323.213 124.496 336.765C123.171 343.25 122.177 349.846 120.277 356.163C117.523 365.357 120.027 373.469 123.671 381.739C124.641 383.942 124.729 388.626 123.514 389.364C115.064 394.518 116.076 403.503 113.809 411.127C112.56 415.323 111.264 419.548 110.526 423.848C109.189 431.624 108.253 439.464 107.161 447.28C106.963 448.686 107.324 450.616 106.527 451.418C100.664 457.316 103.163 461.343 109.038 465.022C109.753 465.47 110.305 467.416 109.927 468.166C105.603 476.744 111.258 484.037 112.868 491.795C115.558 504.749 118.551 517.638 121.55 530.528C122.381 534.084 123.683 537.531 125.199 542.401C132.876 534.805 142.703 530.679 139.792 518.185C139.478 516.836 142.535 513.547 144.522 513.007C153.431 510.606 155.459 508.596 156.186 499.373C156.261 498.437 156 496.921 156.459 496.659C166.019 491.243 159.882 482.7 160.05 475.849C160.225 468.776 160.602 460.39 152.275 455.956C151.862 455.735 152.623 451.354 153.414 451.15C160.887 449.227 157.732 445.292 155.988 441.027C154.803 438.133 154.28 434.739 154.373 431.595C154.71 420.303 158.115 408.861 149.136 398.656C147.335 396.605 149.851 390.753 150.374 386.655C150.979 386.597 151.583 386.539 152.187 386.481C153.431 388.178 154.681 389.881 156.116 391.839C161.887 388.608 165.896 384.906 164.943 377.787C164.234 372.476 165.379 367.501 170.941 365.49C173.998 364.386 179.03 363.276 180.611 364.805C183.092 367.211 183.697 371.79 184.429 375.579C184.609 376.509 182.424 378.566 180.977 379.037C159.469 386.022 153.547 400.365 157.174 421.576C158.039 426.626 156.023 433.949 165.867 433.885C164.659 436.622 162.973 438.598 163.188 440.347C163.63 443.985 164.258 449.953 166.263 450.627C173.265 452.975 172.068 457.456 171.516 463.046C168.953 462.035 166.879 461.216 164.107 460.123C164.926 470.764 165.699 481.021 166.501 491.278C166.815 495.305 168.831 496.061 172.167 494.114L172.051 494.003L172.039 494.061ZM336.466 343.907C340.255 340.13 343.719 337.979 345.335 334.864C356.626 313.083 367.121 290.872 378.814 269.312C382.702 262.147 379.366 256.754 377.326 251.059C376.797 249.577 371.317 249.879 368.115 249.338C367.418 249.222 366.738 249.001 366.052 248.839C359.171 247.194 352.36 244.776 345.387 244.137C339.5 243.603 333.421 245.131 327.424 245.747L327.883 248.978C333.543 248.205 339.209 247.432 344.87 246.659C345.282 247.339 345.695 248.019 346.107 248.699C343.161 251.512 340.209 254.319 338.059 256.376C338.826 259.88 340.697 265.488 340.035 265.808C332.701 269.318 334.101 276.39 332.538 282.202C325.529 308.196 323.251 334.679 324.483 361.504C324.658 365.334 325.361 369.14 325.814 372.958C330.469 362.562 340.459 354.251 336.466 343.919V343.907ZM117.366 550.176C117.953 547.741 119.376 545.149 118.981 542.877C117.517 534.532 115.523 526.274 113.588 518.016C110.427 504.534 107.155 491.074 103.93 477.604L101.338 477.476C100.797 481.096 100.286 484.717 99.7049 488.331C98.8506 493.614 98.1765 498.937 97.0026 504.15C95.6369 510.206 93.661 516.127 92.3186 522.189C92.0571 523.368 93.2077 525.879 94.1608 526.146C103.622 528.796 97.944 532.632 95.3754 536.682C92.5743 541.105 89.2967 545.655 88.1634 550.595C86.4898 557.876 86.1701 565.541 85.9609 573.061C85.8098 578.46 86.7919 583.888 87.222 589.31C87.2569 589.717 86.8849 590.153 86.6874 590.589C84.7347 590.682 82.7821 590.78 80.6086 590.885C81.521 592.303 82.6833 593.268 82.6426 594.174C82.2184 603.345 82.1661 612.579 80.876 621.639C79.6323 630.356 78.8768 638.683 83.2238 646.593L85.5541 646.785C86.3387 640.485 87.1174 634.191 87.9426 627.566C89.285 628.531 90.674 629.531 91.842 630.367C102.407 624.661 105.871 613.927 111.537 604.786C114.146 600.573 114.646 597.376 110.991 593.552C107.963 590.379 107.957 586.968 112.949 583.783C114.076 587.294 115.024 590.217 115.965 593.146C116.494 593.256 117.017 593.372 117.546 593.483C119.533 588.386 121.521 583.295 123.706 577.699C124.252 578.117 123.264 577.745 123.206 577.257C122.288 569.825 118.156 569.586 112.507 572.23C111.479 572.713 110.194 572.637 109.026 572.817C101.198 574.003 94.277 570.685 92.7196 565.001C90.4241 556.627 93.3356 551.96 102.616 548.444C107.527 546.585 109.636 547.927 111.386 553.006C112.891 557.394 116.424 561.084 119.063 565.082C119.934 564.623 120.806 564.164 121.672 563.699C120.19 559.027 118.702 554.355 117.377 550.176H117.366ZM206.489 494.712C204.751 496.049 203.543 496.491 203.415 497.147C201.05 508.933 198.359 520.683 196.755 532.579C196.081 537.589 200.631 540.099 205.402 537.932C214.218 533.928 222.895 529.604 231.536 525.228C235.406 523.264 239.05 520.852 242.409 518.87C238.068 510.752 234.029 503.813 230.583 496.589C227.096 489.273 223.447 488.186 217.13 493.562C215.566 494.893 214.509 496.822 212.969 498.804C214.788 500.088 216.333 501.175 218.943 503.011C211.597 504.075 207.686 502.116 206.495 494.707L206.489 494.712ZM303.115 474.262C306.346 475.302 309.153 476.273 311.995 477.115C319.631 479.37 326.151 488.942 324.518 496.63C323.78 500.105 323.176 503.581 327.279 503.528C331.649 503.47 337.762 502.68 339.976 499.797C344.637 493.736 340.011 481.486 332.794 477.958C327.569 475.407 322.066 473.443 316.568 471.17C321.833 465.551 323.367 456.933 318.637 451.4C316.748 449.192 310.693 448.611 307.497 449.825C297.362 453.678 304.103 462.203 303.341 468.712C297.303 469.439 295.275 476.133 299.39 484.089C300.802 480.364 301.976 477.255 303.115 474.256V474.262ZM161.538 541.796C151.874 544.882 151.949 544.841 147.19 535.497C145.475 532.132 142.366 529.842 139.426 533.439C135.474 538.269 126.966 540.669 129.767 549.624C129.918 550.118 129.401 550.938 129.006 551.461C125.455 556.197 125.81 565.344 130.802 572.213C131.354 565.053 128.692 557.167 137.636 554.953C139.397 563.223 149.357 564.112 161.544 557.725V541.796H161.538ZM286.541 473.524C285.849 473.245 285.158 472.966 284.46 472.687C277.475 484.252 270.484 495.817 263.26 507.776C271.716 508.352 276.045 505.574 278.155 499.117C279.544 494.869 281.171 490.697 282.566 486.449C283.972 482.166 285.222 477.836 286.541 473.524ZM140.53 579.698C157.464 578.257 162.59 575.868 165.472 568.279C156.308 571.62 145.795 569.819 140.53 579.698ZM292.009 529.662C290.748 526.983 289.598 524.542 287.529 520.155C283.281 523.676 279.683 526.501 276.388 529.633C276.057 529.947 277.202 532.899 278.231 533.37C283.298 535.677 287.744 534.27 292.009 529.662ZM394.888 234.903C387.392 237.268 380.79 239.267 381.272 248.234C388.966 251.175 389.245 250.907 394.888 234.903ZM160.887 525.722C161.491 525.518 162.102 525.309 162.706 525.106C162.404 520.009 162.102 514.919 161.805 509.892C157.15 511.711 153.303 513.216 149.45 514.721C158.162 513.367 158.22 521.044 160.887 525.722ZM131.046 593.93L133.504 595.139C136.369 591.96 140.257 589.258 138.961 584.161C138.252 583.83 137.549 583.504 136.84 583.173C134.91 586.759 132.975 590.344 131.046 593.93ZM250.446 370.267C249.877 372.168 249.947 374.33 250.069 376.358C250.417 382.256 250.94 388.143 251.574 396.43C258.821 404.816 266.282 389.195 275.145 392.263C271.989 391.897 268.833 391.537 266.346 391.252C262.883 379.112 271.391 371.813 275.191 362.823C273.233 364.578 271.274 366.339 268.618 368.716C267.34 356.855 261.622 363.584 257.147 365.089C256.298 363.108 255.584 361.452 254.665 359.319C253.021 363.491 251.487 366.81 250.446 370.267ZM426.694 72.2191C426.368 71.6089 426.037 70.9929 425.712 70.3827C421.76 72.2598 417.814 74.1368 414.955 75.4967C412.514 72.0273 410.358 68.9589 407.696 65.1757C408.865 63.3509 410.747 60.422 412.63 57.4872C412.119 57.1328 411.608 56.7782 411.096 56.4238C408.074 60.0442 405.052 63.6589 401.658 67.7211C399.886 65.3326 398.596 63.5892 396.475 60.7416C395.865 69.0112 395.225 76.0197 394.958 83.0399C394.917 84.0452 396.486 85.6608 397.631 86.0618C402.03 87.5844 406.563 88.7292 411.782 90.2227C411.27 86.0443 410.939 83.3362 410.701 81.3952C416.303 78.1815 421.499 75.2003 426.694 72.2249V72.2191ZM7.53051 27.8317C11.5462 36.2699 17.4912 44.2082 19.4962 53.0648C21.228 60.7242 23.9709 66.1404 30.6889 69.9759C28.5096 63.3335 25.6388 56.9874 23.0644 50.531C17.0438 35.4272 11.0522 20.306 5.28151 5.10344C3.50323 0.413653 0.847437 -1.23098 -4.76636 0.954103C-0.634465 10.014 3.31725 18.9868 7.52469 27.8317H7.53051ZM381.417 536.891C377.576 538.414 373.613 539.681 369.946 541.546C367.586 542.749 365.204 544.481 363.675 546.591C361.63 549.403 359.328 552.768 359.195 555.982C359.113 558.039 362.443 561.532 364.791 562.101C368.975 563.107 373.578 562.386 377.977 562.386C374.612 555.47 382.586 557.69 387.833 554.744C383.079 554.453 380.645 554.302 377.018 554.076C384.131 548.142 380.29 545.219 374.601 542.738C377.686 541.041 380.005 539.768 382.318 538.495C382.016 537.966 381.714 537.432 381.412 536.903L381.417 536.891ZM268.932 164.19C269.572 161.04 267.439 156.595 265.178 153.857C263.766 152.155 259.808 152.561 256.99 152.021C256.821 152.713 256.653 153.404 256.484 154.09C254.34 152.939 252.196 151.789 250.051 150.638C249.79 150.923 249.534 151.207 249.272 151.492C250.528 153.509 251.783 155.519 253.032 157.519C249.499 159.616 246.448 161.43 243.397 163.243L244.083 164.475C246.128 163.876 248.168 163.283 251.091 162.429C248.43 169.188 251.411 171.884 257.036 172.361C255.589 176.295 254.369 179.619 253.143 182.943C253.526 183.089 253.916 183.228 254.299 183.373C256.432 178.963 258.571 174.552 261.372 168.764V178.933C264.562 173.018 267.979 168.851 268.932 164.178V164.19ZM366.593 329.564C364.355 337.421 366.668 342.867 372.509 343.971C376.495 344.726 380.511 345.342 383.957 345.929C382.992 344.488 381.452 342.187 379.232 338.874C384.387 337.573 388.263 336.59 392.145 335.608C392.145 335.3 392.151 334.998 392.157 334.69C389.298 334.301 386.438 333.917 383.539 333.522C383.719 330.657 383.905 327.717 384.108 324.526C381.342 324.212 379.168 323.962 376.431 323.649C377.989 320.284 379.279 317.494 380.569 314.705C380.034 314.443 379.494 314.176 378.959 313.914C376.89 318.07 374.816 322.231 372.758 326.357C372.078 323.968 371.404 321.585 370.597 318.744C369.074 322.8 367.575 326.113 366.587 329.57L366.593 329.564ZM274.761 412.731C270.083 411.493 265.387 408.727 263.313 410.052C260.064 412.127 258.088 416.788 256.577 420.739C255.903 422.494 256.99 426.371 258.478 427.248C263.58 430.247 269.205 432.356 274.662 434.745C274.924 434.861 275.435 434.402 275.947 434.152C275.052 432.368 274.163 430.59 272.867 427.992C276.516 426.841 279.596 425.871 282.676 424.9C282.583 424.482 282.49 424.063 282.397 423.651C278.905 423.854 275.418 424.058 271.21 424.302C272.698 419.467 273.802 415.875 274.767 412.731H274.761ZM377.146 201.935C381.964 199.982 389.176 200.633 389.803 193.938C390.437 187.151 383.114 186.541 378.692 183.891C378.291 183.652 377.896 183.379 377.466 183.199C373.194 181.427 369.638 183.925 369.458 188.65C369.231 194.81 368.847 200.959 368.539 207.014C370.841 205.619 373.793 203.289 377.14 201.929L377.146 201.935ZM502.916 335.696C500.342 339.392 500.278 344.523 497.709 346.702C491.45 352.002 493.618 355.977 495.902 358.348C503.317 360.69 508.292 362.265 513.086 363.782C512.156 362.439 510.901 360.621 509.041 357.93C512.551 357.209 515.271 356.646 517.985 356.088L517.973 355.123C514.829 354.803 511.68 354.478 508.326 354.135C509.152 349.561 516.509 345.598 508.274 342.053C510.796 339.025 513.005 336.364 515.219 333.708C514.794 333.377 514.376 333.04 513.952 332.708C510.459 336.718 506.972 340.722 502.079 346.342C502.457 341.53 502.684 338.613 502.91 335.696H502.916ZM25.7434 245.764C24.4475 239.924 23.4421 233.996 21.7626 228.272C20.1993 222.949 17.2355 217.969 16.1546 212.587C15.2597 208.13 13.0513 206.59 9.47734 207.764C6.36825 208.781 3.7415 211.256 0.899739 213.087C2.57923 215.592 3.80541 219.724 6.00211 220.328C18.8453 223.855 21.5825 234.816 25.4935 245.067C25.5749 245.288 25.7143 245.485 25.8248 245.695L25.7376 245.77L25.7434 245.764ZM172.039 494.061C178.914 488.634 185.789 483.212 193.256 477.319C186.539 473.913 181.738 471.478 176.932 469.049C176.142 469.514 175.352 469.979 174.555 470.444C180.425 479.475 177.031 486.948 172.155 494.178L172.039 494.067V494.061ZM271.71 468.509C270.926 463.72 273.355 457.316 266.16 455.416C260.959 454.044 259.338 458.618 257.867 462.668C262.168 465.185 266.056 467.463 269.943 469.741C270.53 469.328 271.123 468.916 271.71 468.503V468.509ZM-0.855309 282.707C-1.59917 281.748 -3.94114 281.208 -5.13248 281.638C-6.66668 282.19 -8.14859 283.724 -8.90988 285.218C-9.29924 285.979 -8.35199 288.321 -7.50353 288.652C-4.05157 290.006 -0.402013 290.861 4.60159 292.314C2.14918 287.856 0.963654 285.038 -0.855309 282.707Z" fill="white"/>
</mask>
<g mask="url(#mask0_53_54612)">
<path d="M260.019 -295.552L-350.203 314.457L-348.72 315.941L261.502 -294.068L260.019 -295.552Z" fill="#6E6439"/>
<path d="M263.126 -292.448L-347.096 317.561L-345.613 319.044L264.609 -290.964L263.126 -292.448Z" fill="#6E6439"/>
<path d="M266.23 -289.338L-343.992 320.671L-342.509 322.155L267.713 -287.854L266.23 -289.338Z" fill="#6E6439"/>
<path d="M269.343 -286.234L-340.879 323.774L-339.396 325.258L270.826 -284.751L269.343 -286.234Z" fill="#6E6439"/>
<path d="M272.44 -283.13L-337.781 326.879L-336.298 328.363L273.924 -281.646L272.44 -283.13Z" fill="#6E6439"/>
<path d="M275.5 -280.111L-334.615 330.004L-333.132 331.487L276.983 -278.628L275.5 -280.111Z" fill="#6E6439"/>
<path d="M278.653 -276.916L-331.568 333.093L-330.085 334.576L280.137 -275.432L278.653 -276.916Z" fill="#6E6439"/>
<path d="M281.765 -273.807L-328.457 336.202L-326.974 337.686L283.248 -272.323L281.765 -273.807Z" fill="#6E6439"/>
<path d="M284.868 -270.702L-325.354 339.307L-323.87 340.79L286.351 -269.218L284.868 -270.702Z" fill="#6E6439"/>
<path d="M287.976 -267.593L-322.246 342.416L-320.763 343.9L289.459 -266.109L287.976 -267.593Z" fill="#6E6439"/>
<path d="M291.079 -264.488L-319.143 345.521L-317.659 347.004L292.562 -263.004L291.079 -264.488Z" fill="#6E6439"/>
<path d="M294.187 -261.385L-316.035 348.624L-314.552 350.108L295.67 -259.901L294.187 -261.385Z" fill="#6E6439"/>
<path d="M297.238 -258.365L-312.877 351.75L-311.393 353.233L298.722 -256.882L297.238 -258.365Z" fill="#6E6439"/>
<path d="M300.403 -255.171L-309.818 354.838L-308.335 356.322L301.887 -253.687L300.403 -255.171Z" fill="#6E6439"/>
<path d="M303.503 -252.06L-306.719 357.948L-305.236 359.432L304.986 -250.577L303.503 -252.06Z" fill="#6E6439"/>
<path d="M306.614 -248.956L-303.607 361.053L-302.124 362.536L308.097 -247.472L306.614 -248.956Z" fill="#6E6439"/>
<path d="M309.714 -245.847L-300.508 364.162L-299.025 365.646L311.197 -244.363L309.714 -245.847Z" fill="#6E6439"/>
<path d="M312.825 -242.742L-297.396 367.267L-295.913 368.75L314.308 -241.258L312.825 -242.742Z" fill="#6E6439"/>
<path d="M315.931 -239.639L-294.291 370.37L-292.808 371.854L317.414 -238.155L315.931 -239.639Z" fill="#6E6439"/>
<path d="M318.984 -236.625L-291.131 373.49L-289.647 374.974L320.468 -235.142L318.984 -236.625Z" fill="#6E6439"/>
<path d="M322.142 -233.425L-288.08 376.584L-286.597 378.068L323.625 -231.941L322.142 -233.425Z" fill="#6E6439"/>
<path d="M325.249 -230.314L-284.973 379.694L-283.489 381.178L326.732 -228.831L325.249 -230.314Z" fill="#6E6439"/>
<path d="M328.353 -227.211L-281.869 382.798L-280.386 384.282L329.836 -225.727L328.353 -227.211Z" fill="#6E6439"/>
<path d="M331.466 -224.1L-278.756 385.908L-277.273 387.392L332.949 -222.617L331.466 -224.1Z" fill="#6E6439"/>
<path d="M334.563 -220.997L-275.658 389.012L-274.175 390.495L336.047 -219.513L334.563 -220.997Z" fill="#6E6439"/>
<path d="M337.677 -217.892L-272.545 392.116L-271.062 393.6L339.16 -216.409L337.677 -217.892Z" fill="#6E6439"/>
<path d="M340.723 -214.879L-269.393 395.236L-267.909 396.72L342.206 -213.395L340.723 -214.879Z" fill="#6E6439"/>
<path d="M343.888 -211.679L-266.334 398.33L-264.851 399.814L345.371 -210.195L343.888 -211.679Z" fill="#6E6439"/>
<path d="M346.993 -208.569L-263.229 401.439L-261.745 402.923L348.476 -207.086L346.993 -208.569Z" fill="#6E6439"/>
<path d="M350.099 -205.465L-260.123 404.544L-258.64 406.028L351.582 -203.981L350.099 -205.465Z" fill="#6E6439"/>
<path d="M353.204 -202.355L-257.018 407.653L-255.534 409.137L354.687 -200.872L353.204 -202.355Z" fill="#6E6439"/>
<path d="M356.31 -199.251L-253.912 410.758L-252.429 412.242L357.793 -197.767L356.31 -199.251Z" fill="#6E6439"/>
<path d="M359.415 -196.147L-250.807 413.861L-249.323 415.345L360.898 -194.664L359.415 -196.147Z" fill="#6E6439"/>
<path d="M362.526 -193.037L-247.695 416.972L-246.212 418.455L364.01 -191.553L362.526 -193.037Z" fill="#6E6439"/>
<path d="M365.626 -189.934L-244.596 420.075L-243.113 421.559L367.109 -188.45L365.626 -189.934Z" fill="#6E6439"/>
<path d="M368.737 -186.823L-241.484 423.186L-240.001 424.669L370.221 -185.339L368.737 -186.823Z" fill="#6E6439"/>
<path d="M371.837 -183.719L-238.385 426.29L-236.902 427.774L373.32 -182.235L371.837 -183.719Z" fill="#6E6439"/>
<path d="M374.95 -180.609L-235.271 429.399L-233.788 430.883L376.433 -179.126L374.95 -180.609Z" fill="#6E6439"/>
<path d="M378.054 -177.505L-232.168 432.504L-230.685 433.988L379.537 -176.021L378.054 -177.505Z" fill="#6E6439"/>
<path d="M381.161 -174.401L-229.061 435.607L-227.577 437.091L382.644 -172.918L381.161 -174.401Z" fill="#6E6439"/>
<path d="M384.265 -171.292L-225.957 438.717L-224.474 440.2L385.748 -169.808L384.265 -171.292Z" fill="#6E6439"/>
<path d="M387.372 -168.187L-222.85 441.821L-221.366 443.305L388.855 -166.704L387.372 -168.187Z" fill="#6E6439"/>
<path d="M390.476 -165.077L-219.746 444.932L-218.263 446.415L391.959 -163.593L390.476 -165.077Z" fill="#6E6439"/>
<path d="M393.589 -161.974L-216.633 448.035L-215.15 449.519L395.072 -160.49L393.589 -161.974Z" fill="#6E6439"/>
<path d="M396.687 -158.863L-213.535 451.146L-212.052 452.629L398.17 -157.379L396.687 -158.863Z" fill="#6E6439"/>
<path d="M399.8 -155.76L-210.422 454.249L-208.939 455.733L401.283 -154.276L399.8 -155.76Z" fill="#6E6439"/>
<path d="M402.899 -152.655L-207.322 457.354L-205.839 458.837L404.383 -151.171L402.899 -152.655Z" fill="#6E6439"/>
<path d="M406.011 -149.546L-204.211 460.463L-202.728 461.947L407.494 -148.062L406.011 -149.546Z" fill="#6E6439"/>
<path d="M409.116 -146.441L-201.105 463.567L-199.622 465.051L410.599 -144.958L409.116 -146.441Z" fill="#6E6439"/>
<path d="M412.222 -143.332L-198 466.677L-196.517 468.16L413.705 -141.848L412.222 -143.332Z" fill="#6E6439"/>
<path d="M415.327 -140.227L-194.895 469.781L-193.411 471.265L416.81 -138.744L415.327 -140.227Z" fill="#6E6439"/>
<path d="M418.433 -137.118L-191.789 472.891L-190.306 474.374L419.916 -135.634L418.433 -137.118Z" fill="#6E6439"/>
<path d="M421.538 -134.014L-188.684 475.995L-187.2 477.479L423.021 -132.53L421.538 -134.014Z" fill="#6E6439"/>
<path d="M424.651 -130.91L-185.57 479.099L-184.087 480.582L426.135 -129.426L424.651 -130.91Z" fill="#6E6439"/>
<path d="M427.749 -127.8L-182.473 482.209L-180.989 483.693L429.232 -126.316L427.749 -127.8Z" fill="#6E6439"/>
<path d="M430.862 -124.696L-179.359 485.312L-177.876 486.796L432.346 -123.213L430.862 -124.696Z" fill="#6E6439"/>
<path d="M433.96 -121.586L-176.262 488.423L-174.779 489.907L435.443 -120.102L433.96 -121.586Z" fill="#6E6439"/>
<path d="M437.073 -118.481L-173.148 491.527L-171.665 493.011L438.556 -116.998L437.073 -118.481Z" fill="#6E6439"/>
<path d="M440.177 -115.372L-170.045 494.637L-168.562 496.12L441.66 -113.888L440.177 -115.372Z" fill="#6E6439"/>
<path d="M443.284 -112.268L-166.938 497.741L-165.454 499.225L444.767 -110.784L443.284 -112.268Z" fill="#6E6439"/>
<path d="M446.39 -109.164L-163.832 500.845L-162.349 502.328L447.873 -107.68L446.39 -109.164Z" fill="#6E6439"/>
<path d="M449.495 -106.055L-160.727 503.954L-159.243 505.438L450.978 -104.571L449.495 -106.055Z" fill="#6E6439"/>
<path d="M452.601 -102.95L-157.621 507.059L-156.138 508.542L454.084 -101.466L452.601 -102.95Z" fill="#6E6439"/>
<path d="M455.712 -99.8408L-154.51 510.168L-153.027 511.652L457.195 -98.3571L455.712 -99.8408Z" fill="#6E6439"/>
<path d="M458.812 -96.7362L-151.41 513.272L-149.927 514.756L460.295 -95.2525L458.812 -96.7362Z" fill="#6E6439"/>
<path d="M461.923 -93.6259L-148.299 516.383L-146.816 517.867L463.406 -92.1422L461.923 -93.6259Z" fill="#6E6439"/>
<path d="M465.022 -90.5224L-145.199 519.486L-143.716 520.97L466.506 -89.0386L465.022 -90.5224Z" fill="#6E6439"/>
<path d="M468.136 -87.4179L-142.086 522.591L-140.603 524.075L469.619 -85.9342L468.136 -87.4179Z" fill="#6E6439"/>
<path d="M471.239 -84.3085L-138.982 525.7L-137.499 527.184L472.722 -82.8248L471.239 -84.3085Z" fill="#6E6439"/>
<path d="M474.347 -81.204L-135.875 528.805L-134.392 530.288L475.83 -79.7203L474.347 -81.204Z" fill="#6E6439"/>
<path d="M477.45 -78.0946L-132.771 531.914L-131.288 533.398L478.933 -76.6109L477.45 -78.0946Z" fill="#6E6439"/>
<path d="M480.51 -75.1035L-129.605 535.012L-128.122 536.495L481.993 -73.62L480.51 -75.1035Z" fill="#6E6439"/>
<path d="M483.661 -71.8808L-126.561 538.128L-125.077 539.612L485.144 -70.3971L483.661 -71.8808Z" fill="#6E6439"/>
<path d="M486.774 -68.7763L-123.447 541.232L-121.964 542.716L488.258 -67.2926L486.774 -68.7763Z" fill="#6E6439"/>
<path d="M489.872 -65.6727L-120.35 544.336L-118.866 545.82L491.355 -64.189L489.872 -65.6727Z" fill="#6E6439"/>
<path d="M492.985 -62.5624L-117.236 547.446L-115.753 548.93L494.469 -61.0787L492.985 -62.5624Z" fill="#6E6439"/>
<path d="M496.091 -59.4589L-114.131 550.55L-112.648 552.034L497.574 -57.9752L496.091 -59.4589Z" fill="#6E6439"/>
<path d="M499.196 -56.3485L-111.025 553.66L-109.542 555.144L500.68 -54.8648L499.196 -56.3485Z" fill="#6E6439"/>
<path d="M502.248 -53.3574L-107.867 556.758L-106.384 558.241L503.731 -51.8739L502.248 -53.3574Z" fill="#6E6439"/>
<path d="M505.407 -50.1347L-104.814 559.874L-103.331 561.358L506.89 -48.6509L505.407 -50.1347Z" fill="#6E6439"/>
<path d="M508.513 -47.0302L-101.709 562.979L-100.226 564.462L509.996 -45.5465L508.513 -47.0302Z" fill="#6E6439"/>
<path d="M511.624 -43.9266L-98.5977 566.082L-97.1145 567.566L513.107 -42.4429L511.624 -43.9266Z" fill="#6E6439"/>
<path d="M514.724 -40.8173L-95.498 569.191L-94.0149 570.675L516.207 -39.3336L514.724 -40.8173Z" fill="#6E6439"/>
<path d="M517.837 -37.7128L-92.3848 572.296L-90.9016 573.78L519.32 -36.2291L517.837 -37.7128Z" fill="#6E6439"/>
<path d="M520.935 -34.6034L-89.2871 575.405L-87.8039 576.889L522.418 -33.1197L520.935 -34.6034Z" fill="#6E6439"/>
<path d="M523.994 -31.6171L-86.1211 578.498L-84.6376 579.982L525.478 -30.1337L523.994 -31.6171Z" fill="#6E6439"/>
<path d="M527.151 -28.3895L-83.0703 581.619L-81.5871 583.103L528.635 -26.9058L527.151 -28.3895Z" fill="#6E6439"/>
<path d="M530.259 -25.285L-79.9629 584.724L-78.4797 586.207L531.742 -23.8013L530.259 -25.285Z" fill="#6E6439"/>
<path d="M533.362 -22.1806L-76.8594 587.828L-75.3762 589.312L534.846 -20.6969L533.362 -22.1806Z" fill="#6E6439"/>
<path d="M536.47 -19.0712L-73.752 590.938L-72.2688 592.421L537.953 -17.5875L536.47 -19.0712Z" fill="#6E6439"/>
<path d="M539.573 -15.9667L-70.6484 594.042L-69.1653 595.526L541.056 -14.483L539.573 -15.9667Z" fill="#6E6439"/>
<path d="M542.687 -12.8573L-67.5352 597.151L-66.052 598.635L544.17 -11.3736L542.687 -12.8573Z" fill="#6E6439"/>
<path d="M545.73 -9.87109L-64.3848 600.244L-62.9013 601.728L547.214 -8.38765L545.73 -9.87109Z" fill="#6E6439"/>
<path d="M548.897 -6.64345L-61.3242 603.365L-59.841 604.849L550.381 -5.15975L548.897 -6.64345Z" fill="#6E6439"/>
<path d="M551.997 -3.53993L-58.2246 606.469L-56.7414 607.952L553.48 -2.05623L551.997 -3.53993Z" fill="#6E6439"/>
<path d="M555.108 -0.435439L-55.1133 609.573L-53.6301 611.057L556.592 1.04826L555.108 -0.435439Z" fill="#6E6439"/>
<path d="M558.212 2.67394L-52.0098 612.683L-50.5266 614.166L559.695 4.15763L558.212 2.67394Z" fill="#6E6439"/>
<path d="M561.319 5.77843L-48.9023 615.787L-47.4192 617.271L562.803 7.26213L561.319 5.77843Z" fill="#6E6439"/>
<path d="M564.423 8.88878L-45.7988 618.897L-44.3156 620.381L565.906 10.3725L564.423 8.88878Z" fill="#6E6439"/>
<path d="M567.477 11.8692L-42.6387 621.984L-41.1552 623.468L568.96 13.3526L567.477 11.8692Z" fill="#6E6439"/>
<path d="M570.636 15.1026L-39.5859 625.111L-38.1028 626.595L572.119 16.5863L570.636 15.1026Z" fill="#6E6439"/>
<path d="M573.747 18.2071L-36.4746 628.216L-34.9914 629.7L575.23 19.6908L573.747 18.2071Z" fill="#6E6439"/>
<path d="M576.847 21.3107L-33.375 631.319L-31.8918 632.803L578.33 22.7944L576.847 21.3107Z" fill="#6E6439"/>
<path d="M579.958 24.42L-30.2637 634.429L-28.7804 635.912L581.441 25.9038L579.958 24.42Z" fill="#6E6439"/>
<path d="M583.058 27.5245L-27.1641 637.533L-25.6809 639.017L584.541 29.0082L583.058 27.5245Z" fill="#6E6439"/>
<path d="M586.169 30.6339L-24.0527 640.643L-22.5696 642.126L587.652 32.1176L586.169 30.6339Z" fill="#6E6439"/>
<path d="M589.221 33.6153L-20.8945 643.73L-19.4111 645.214L590.704 35.0987L589.221 33.6153Z" fill="#6E6439"/>
<path d="M592.38 36.8478L-17.8418 646.856L-16.3586 648.34L593.863 38.3315L592.38 36.8478Z" fill="#6E6439"/>
<path d="M595.485 39.9523L-14.7363 649.961L-13.2531 651.445L596.969 41.436L595.485 39.9523Z" fill="#6E6439"/>
<path d="M598.593 43.0558L-11.6289 653.064L-10.1457 654.548L600.076 44.5395L598.593 43.0558Z" fill="#6E6439"/>
<path d="M601.696 46.1661L-8.52539 656.175L-7.04221 657.659L603.179 47.6498L601.696 46.1661Z" fill="#6E6439"/>
<path d="M604.81 49.2706L-5.41211 659.279L-3.92888 660.763L606.293 50.7544L604.81 49.2706Z" fill="#6E6439"/>
<path d="M607.907 52.38L-2.31445 662.389L-0.831273 663.872L609.39 53.8637L607.907 52.38Z" fill="#6E6439"/>
<path d="M610.967 55.3564L0.851562 665.472L2.335 666.955L612.45 56.8399L610.967 55.3564Z" fill="#6E6439"/>
<path d="M614.118 58.5939L3.89648 668.603L5.37966 670.086L615.601 60.0776L614.118 58.5939Z" fill="#6E6439"/>
<path d="M617.231 61.6984L7.00977 671.707L8.49295 673.191L618.715 63.182L617.231 61.6984Z" fill="#6E6439"/>
<path d="M620.337 64.8019L10.1152 674.811L11.5984 676.294L621.82 66.2856L620.337 64.8019Z" fill="#6E6439"/>
<path d="M623.442 67.9112L13.2207 677.92L14.7039 679.404L624.926 69.3949L623.442 67.9112Z" fill="#6E6439"/>
<path d="M626.548 71.0157L16.3262 681.024L17.8094 682.508L628.031 72.4994L626.548 71.0157Z" fill="#6E6439"/>
<path d="M629.653 74.1261L19.4316 684.135L20.9148 685.618L631.137 75.6098L629.653 74.1261Z" fill="#6E6439"/>
<path d="M632.705 77.1026L22.5898 687.218L24.0733 688.701L634.188 78.586L632.705 77.1026Z" fill="#6E6439"/>
<path d="M635.87 80.34L25.6484 690.349L27.1316 691.832L637.353 81.8237L635.87 80.34Z" fill="#6E6439"/>
<path d="M638.97 83.4435L28.748 693.452L30.2312 694.936L640.453 84.9272L638.97 83.4435Z" fill="#6E6439"/>
<path d="M642.083 86.548L31.8613 696.557L33.3445 698.04L643.566 88.0317L642.083 86.548Z" fill="#6E6439"/>
<path d="M645.181 89.6573L34.959 699.666L36.4422 701.15L646.664 91.141L645.181 89.6573Z" fill="#6E6439"/>
<path d="M648.294 92.7618L38.0723 702.771L39.5554 704.254L649.777 94.2455L648.294 92.7618Z" fill="#6E6439"/>
<path d="M651.397 95.8712L41.1758 705.88L42.659 707.364L652.881 97.3549L651.397 95.8712Z" fill="#6E6439"/>
<path d="M654.505 98.9757L44.2832 708.984L45.7664 710.468L655.988 100.459L654.505 98.9757Z" fill="#6E6439"/>
<path d="M657.608 102.085L47.3867 712.094L48.8699 713.577L659.092 103.569L657.608 102.085Z" fill="#6E6439"/>
<path d="M660.716 105.19L50.4941 715.198L51.9773 716.682L662.199 106.673L660.716 105.19Z" fill="#6E6439"/>
<path d="M663.819 108.293L53.5977 718.302L55.0808 719.785L665.303 109.777L663.819 108.293Z" fill="#6E6439"/>
<path d="M666.933 111.403L56.7109 721.412L58.1941 722.896L668.416 112.887L666.933 111.403Z" fill="#6E6439"/>
<path d="M670.03 114.507L59.8086 724.516L61.2918 725.999L671.514 115.991L670.03 114.507Z" fill="#6E6439"/>
<path d="M673.144 117.617L62.9219 727.626L64.4051 729.11L674.627 119.101L673.144 117.617Z" fill="#6E6439"/>
<path d="M676.243 120.722L66.0215 730.73L67.5047 732.214L677.726 122.205L676.243 120.722Z" fill="#6E6439"/>
<path d="M679.355 123.831L69.1328 733.84L70.616 735.324L680.838 125.315L679.355 123.831Z" fill="#6E6439"/>
<path d="M682.46 126.935L72.2383 736.943L73.7215 738.427L683.943 128.418L682.46 126.935Z" fill="#6E6439"/>
<path d="M685.565 130.039L75.3438 740.048L76.8269 741.532L687.049 131.523L685.565 130.039Z" fill="#6E6439"/>
<path d="M688.671 133.149L78.4492 743.157L79.9324 744.641L690.154 134.632L688.671 133.149Z" fill="#6E6439"/>
<path d="M691.776 136.253L81.5547 746.262L83.0379 747.745L693.26 137.737L691.776 136.253Z" fill="#6E6439"/>
<path d="M694.882 139.363L84.6602 749.372L86.1434 750.856L696.365 140.847L694.882 139.363Z" fill="#6E6439"/>
<path d="M697.995 142.467L87.7734 752.476L89.2566 753.959L699.478 143.951L697.995 142.467Z" fill="#6E6439"/>
<path d="M701.093 145.577L90.8711 755.586L92.3543 757.07L702.576 147.061L701.093 145.577Z" fill="#6E6439"/>
<path d="M704.206 148.681L93.9844 758.689L95.4676 760.173L705.689 150.164L704.206 148.681Z" fill="#6E6439"/>
<path d="M707.31 151.785L97.0879 761.794L98.5711 763.278L708.793 153.269L707.31 151.785Z" fill="#6E6439"/>
<path d="M710.417 154.895L100.195 764.903L101.678 766.387L711.9 156.378L710.417 154.895Z" fill="#6E6439"/>
<path d="M713.521 157.999L103.299 768.008L104.782 769.492L715.004 159.483L713.521 157.999Z" fill="#6E6439"/>
<path d="M716.628 161.109L106.406 771.117L107.889 772.601L718.111 162.592L716.628 161.109Z" fill="#6E6439"/>
<path d="M719.733 164.212L109.512 774.221L110.995 775.704L721.217 165.696L719.733 164.212Z" fill="#6E6439"/>
<path d="M722.845 167.322L112.623 777.331L114.106 778.815L724.328 168.806L722.845 167.322Z" fill="#6E6439"/>
<path d="M725.944 170.427L115.723 780.436L117.206 781.919L727.428 171.911L725.944 170.427Z" fill="#6E6439"/>
<path d="M729.056 173.53L118.834 783.539L120.317 785.023L730.539 175.014L729.056 173.53Z" fill="#6E6439"/>
<path d="M732.155 176.641L121.934 786.649L123.417 788.133L733.638 178.124L732.155 176.641Z" fill="#6E6439"/>
<path d="M735.267 179.744L125.045 789.753L126.528 791.237L736.75 181.228L735.267 179.744Z" fill="#6E6439"/>
<path d="M738.372 182.855L128.15 792.863L129.634 794.347L739.855 184.338L738.372 182.855Z" fill="#6E6439"/>
<path d="M741.48 185.958L131.258 795.967L132.741 797.45L742.963 187.442L741.48 185.958Z" fill="#6E6439"/>
<path d="M744.583 189.068L134.361 799.077L135.845 800.561L746.066 190.552L744.583 189.068Z" fill="#6E6439"/>
<path d="M747.69 192.173L137.469 802.182L138.952 803.665L749.174 193.657L747.69 192.173Z" fill="#6E6439"/>
<path d="M750.794 195.276L140.572 805.285L142.055 806.769L752.277 196.76L750.794 195.276Z" fill="#6E6439"/>
<path d="M753.907 198.386L143.686 808.395L145.169 809.878L755.39 199.87L753.907 198.386Z" fill="#6E6439"/>
<path d="M757.005 201.49L146.783 811.499L148.266 812.983L758.488 202.974L757.005 201.49Z" fill="#6E6439"/>
<path d="M760.118 204.6L149.896 814.608L151.38 816.092L761.601 206.083L760.118 204.6Z" fill="#6E6439"/>
<path d="M763.216 207.704L152.994 817.713L154.477 819.197L764.699 209.188L763.216 207.704Z" fill="#6E6439"/>
<path d="M766.329 210.815L156.107 820.823L157.591 822.307L767.812 212.298L766.329 210.815Z" fill="#6E6439"/>
<path d="M769.435 213.918L159.213 823.927L160.696 825.41L770.918 215.402L769.435 213.918Z" fill="#6E6439"/>
<path d="M772.488 216.877L162.373 826.992L163.856 828.476L773.972 218.36L772.488 216.877Z" fill="#6E6439"/>
<path d="M775.646 220.132L165.424 830.141L166.907 831.624L777.129 221.616L775.646 220.132Z" fill="#6E6439"/>
<path d="M778.751 223.236L168.529 833.245L170.012 834.729L780.234 224.72L778.751 223.236Z" fill="#6E6439"/>
<path d="M781.856 226.346L171.635 836.354L173.118 837.838L783.34 227.83L781.856 226.346Z" fill="#6E6439"/>
<path d="M784.968 229.45L174.746 839.459L176.229 840.943L786.451 230.934L784.968 229.45Z" fill="#6E6439"/>
<path d="M788.067 232.56L177.846 842.568L179.329 844.052L789.551 234.043L788.067 232.56Z" fill="#6E6439"/>
<path d="M791.181 235.664L180.959 845.673L182.442 847.157L792.664 237.148L791.181 235.664Z" fill="#6E6439"/>
<path d="M794.225 238.623L184.109 848.738L185.593 850.222L795.708 240.107L794.225 238.623Z" fill="#6E6439"/>
<path d="M797.392 241.878L187.17 851.887L188.653 853.37L798.875 243.362L797.392 241.878Z" fill="#6E6439"/>
<path d="M800.495 244.982L190.273 854.99L191.757 856.474L801.978 246.465L800.495 244.982Z" fill="#6E6439"/>
<path d="M803.603 248.092L193.381 858.101L194.864 859.584L805.086 249.576L803.603 248.092Z" fill="#6E6439"/>
<path d="M806.706 251.196L196.484 861.205L197.968 862.689L808.189 252.68L806.706 251.196Z" fill="#6E6439"/>
<path d="M809.813 254.306L199.592 864.314L201.075 865.798L811.297 255.789L809.813 254.306Z" fill="#6E6439"/>
<path d="M812.917 257.409L202.695 867.418L204.178 868.902L814.4 258.893L812.917 257.409Z" fill="#6E6439"/>
<path d="M815.977 260.363L205.861 870.479L207.345 871.962L817.46 261.847L815.977 260.363Z" fill="#6E6439"/>
<path d="M819.13 263.623L208.908 873.632L210.391 875.116L820.613 265.107L819.13 263.623Z" fill="#6E6439"/>
<path d="M822.241 266.728L212.02 876.736L213.503 878.22L823.724 268.211L822.241 266.728Z" fill="#6E6439"/>
<path d="M825.341 269.837L215.119 879.846L216.602 881.329L826.824 271.321L825.341 269.837Z" fill="#6E6439"/>
<path d="M828.452 272.942L218.23 882.95L219.714 884.434L829.935 274.425L828.452 272.942Z" fill="#6E6439"/>
<path d="M831.558 276.052L221.336 886.061L222.819 887.544L833.041 277.536L831.558 276.052Z" fill="#6E6439"/>
<path d="M834.663 279.155L224.441 889.164L225.925 890.648L836.146 280.639L834.663 279.155Z" fill="#6E6439"/>
<path d="M837.715 282.11L227.6 892.226L229.083 893.709L839.198 283.594L837.715 282.11Z" fill="#6E6439"/>
<path d="M840.876 285.369L230.654 895.378L232.137 896.862L842.359 286.853L840.876 285.369Z" fill="#6E6439"/>
<path d="M843.98 288.474L233.758 898.482L235.241 899.966L845.463 289.957L843.98 288.474Z" fill="#6E6439"/>
<path d="M847.093 291.583L236.871 901.592L238.354 903.075L848.576 293.067L847.093 291.583Z" fill="#6E6439"/>
<path d="M850.19 294.687L239.969 904.695L241.452 906.179L851.674 296.17L850.19 294.687Z" fill="#6E6439"/>
<path d="M853.304 297.797L243.082 907.806L244.565 909.289L854.787 299.281L853.304 297.797Z" fill="#6E6439"/>
</g>
</svg>
