<svg width="464" height="660" viewBox="0 0 464 660" fill="none" xmlns="http://www.w3.org/2000/svg">
<mask id="mask0_53_69697" style="mask-type:luminance" maskUnits="userSpaceOnUse" x="-9" y="0" width="473" height="660">
<path d="M391.1 410.156C392.054 414.847 396.257 419.777 389.837 424.087C386.94 419.867 383.864 416.028 383.256 425.231C383.238 425.511 382.904 425.881 382.624 426.012C380.236 427.129 378.93 429.173 378.708 432.146C386.517 433.904 392.883 428.677 400.173 427.526C399.374 431.472 395.011 430.948 393.127 433.422C397.604 436.789 402.772 435.973 407.731 436.325C401.943 438.083 395.661 441.332 391.011 435.287C388.972 432.635 388.341 432.826 385.98 434.143C380.776 437.04 375.239 438.125 369.111 437.588C363.406 437.087 356.176 438.149 353.326 442.256C348.695 448.938 345.536 449.117 340.958 443.645C338.531 444.658 339.211 448.24 335.849 448.222C336.242 446.625 336.588 445.206 337.214 442.655C332.845 446.202 329.447 445.868 326.061 442.643C324.905 441.54 321.698 439.597 322.002 443.507C322.527 450.303 317.984 451.644 313.263 453.17C311.737 453.665 310.038 453.814 310.337 456.138C312.465 457.736 314.962 456.037 318.467 457.045C312.023 459.28 311.219 464.484 309.609 469.115C308.679 467.273 310.39 465.062 308.298 463.166C304.638 466.278 308.012 471.464 305.741 473.753C300.161 479.362 302.73 486.342 301.181 493.477C300.012 488.727 299.053 484.84 298.099 480.96C297.032 486.885 287.214 485.782 288.257 492.935C291.274 494.02 291.423 489.686 294.016 490.39C293.795 500.44 294.922 501.256 303.112 497.227C303.309 497.131 303.601 497.173 303.756 497.042C308.185 493.239 310.629 493.34 309.723 500.058C309.597 500.976 309.317 501.972 310.474 502.353C311.672 502.747 312.697 502.222 313.46 501.28C314.962 499.426 314.456 497.543 313.687 495.522C312.721 492.989 312.447 490.485 316.339 488.041C314.265 495.373 317.537 498.801 323.88 502.228C321.591 492.887 326.58 486.563 328.207 479.44C324.887 486.426 331.718 489.388 334.091 494.103C334.562 495.033 335.933 494.747 336.314 493.877C337.846 490.33 339.479 486.092 338.186 482.837C336.964 479.761 333.441 476.876 328.917 478.17C324.488 472.269 318.998 466.63 323.915 458.38C324.094 458.076 324.547 457.939 324.911 457.694C327.498 459.25 328.44 461.539 329.596 464.418C331.51 469.163 330.258 476.495 337.387 477.86C340.242 478.408 341.309 481.067 342.937 481.508C346.656 482.509 347.711 490.676 354.352 484.626C353.13 488.232 352.277 490.741 351.425 493.251C346.716 492.059 344.659 487.66 341.202 484.202C337.661 488.965 338.156 493.269 342.102 496.351C346.108 499.48 348.868 495.76 351.508 493.09C355.204 496.118 355.383 492.327 356.396 490.467C356.796 489.734 356.468 488.637 356.778 487.821C357.094 486.992 357.267 485.77 359.43 485.752C355.633 496.774 357.511 509.065 348.236 519.372C346.191 512.415 352.867 507.843 351.198 501.942C348.504 507.801 342.633 513.196 343.479 519.264C344.343 525.416 349.917 530.536 354.93 534.953C350.721 536.05 349.267 535.758 347.366 533.451C340.898 525.618 340.379 526.167 331.212 529.976C326.157 532.08 323.182 540.02 315.588 536.062C314.336 535.406 312.84 537.451 312.93 539.269C313.144 543.561 315.654 543.835 319.075 542.768C320.512 542.321 322.944 540.819 322.974 543.996C322.997 546.905 322.693 546.553 325.108 546.982C331.486 548.115 334.204 541.325 339.837 541.069C339.229 538.148 334.681 536.646 338.15 532.962C340.034 535.752 342.668 536.813 345.714 536.837C349.821 536.867 351.872 541.081 352.2 543.012C352.653 545.671 348.528 546.994 345.518 547.411C343.3 547.715 341.041 547.543 338.8 547.513C330.526 547.4 323.719 552.86 315.588 554.064C329.56 557.676 342.335 546.547 356.164 551.447C352.134 559.697 349.321 560.818 340.82 557.42C337.882 556.245 334.025 553.796 331.867 555.745C327.069 560.078 321.817 561.735 315.469 561.879C326.103 560.984 336.189 569.771 347.568 560.901C345.035 569.353 338.657 569.377 332.022 572.155C350.125 575.869 367.358 573.234 384.21 580.107C376.985 580.107 371.012 580.107 364.139 580.107C368.664 583.415 373.528 581.555 377.7 582.92C375.286 589.853 369.182 584.989 365.099 587.474C369.004 590.193 373.277 588.369 377.569 589.501C373.57 592.756 370.214 593.877 365.916 591.576C361.761 589.352 361.04 584.715 358.065 581.74C362.143 579.344 359.943 578.623 357.094 578.515C348.033 578.188 338.979 577.83 330.013 576.316C328.237 576.018 324.887 576.513 325.286 577.544C327.772 583.94 321.167 582.11 320.327 581.991C315.499 581.293 318.497 585.507 317.031 586.926C316.148 587.779 314.843 591.003 317.871 592.583C318.914 593.125 320.983 592.953 320.667 594.86C320.375 596.613 318.783 597.37 317.132 597.596C307.41 598.931 297.658 600.076 287.965 601.608C285.122 602.055 280.973 602.734 284.198 607.402C285.182 608.82 285.545 610.305 283.93 610.561C278.124 611.485 273.135 617.052 266.542 613.536C258.215 609.089 249.249 611.944 240.57 611.527C238.937 611.449 236.702 612.433 238.407 614.239C240.272 616.218 241.22 619.884 245.738 618.71C250.907 617.362 255.991 619.651 261.129 620.265C250.614 622.954 241.619 627.877 233.459 634.5C234.043 633.546 234.627 632.593 235.206 631.639C237.024 628.634 235.778 626.012 234.043 623.568C232.702 621.678 231.265 622.906 230.02 623.83C228.237 625.153 225.549 626.876 227.29 629.064C228.905 631.084 228.291 636.717 233.668 634.315C237.191 637.725 241.727 637.522 246.132 637.796C245.512 640.717 245.101 644.127 240.815 642.941C234.27 641.122 227.796 642.708 221.299 642.923C219.058 642.994 216.345 643.99 214.784 642.201C212.614 639.716 217.633 639.149 216.864 636.551C213.812 635.841 210.849 636.157 207.66 636.694C204.102 637.296 199.947 642.034 196.645 634.506C194.862 630.441 188.121 638.619 184.109 633.868C181.76 631.09 179.334 631.979 176.747 632.879C174.703 633.588 172.736 633.862 171.049 632.163C170.005 631.114 168.921 630.25 167.573 631.46C164.545 634.166 164.587 637.933 164.474 641.528C164.361 645.212 167.669 643.817 169.505 644.568C170.655 645.039 172.67 644.359 172.712 646.231C172.765 648.466 170.661 648.252 169.153 648.419C161.768 649.223 155.002 653.014 147.128 652.234C148.552 655.876 152.749 652.895 153.923 656.209C151.133 658.302 147.748 658.129 145.482 656.847C141.334 654.499 137.012 655.148 133.698 656.68C129.179 658.773 127.636 656.233 125.895 653.64C124.673 651.816 124.506 649.146 121.365 649.676C118.563 650.153 117.013 651.757 116.739 654.689C116.614 656.049 115.946 657.783 114.474 657.676C112.394 657.521 112.453 655.423 112.638 653.921C113.306 648.472 111.756 642.434 108.078 640.014C105.074 638.035 105.366 634.822 105.491 634.452C107.029 629.874 103.834 629.552 101.3 630.149C94.9461 631.639 95.7091 626.995 95.6733 623.741C95.6137 618.733 95.56 613.661 97.2291 608.755C97.6702 607.461 98.2186 605.298 96.335 604.511C92.2875 602.812 93.5512 601.822 96.5913 600.72C100.955 599.134 103.667 596.112 104.764 591.528C105.92 586.7 108.102 582.891 113.759 582.008C116.572 581.573 117.478 578.724 118.39 576.286C114.158 574.963 118.515 573.592 118.402 572.227C118.283 570.778 126.229 567.202 117.258 568.114C116.995 568.143 116.358 567.154 116.364 566.647C116.381 565.539 117.419 565.473 118.259 565.103C121.198 563.81 125.43 563.083 126.664 560.788C129.364 555.787 136.529 553.044 134.282 545.128C133.525 542.47 136.535 539.334 139.533 537.04C144.32 533.374 148.153 528.492 153.798 525.821C154.62 525.434 155.515 524.003 155.455 523.121C155.014 516.51 158.37 511.444 162.292 506.854C169.666 498.228 177.01 489.68 179.346 477.353C174.846 481.281 171.925 485.567 168.909 489.8C167.091 492.351 165.547 495.313 162.382 496.535C157.988 498.228 155.252 501.847 151.998 504.928C149.578 507.217 151.348 510.138 150.525 511.986C148.35 516.88 144.97 521.321 140.535 524.641C134.228 529.362 129.513 535.043 126.843 542.708C125.323 547.072 123.296 551.918 117.615 554.249C117.097 549.742 119.505 546.851 120.9 543.638C121.734 541.713 123.85 539.704 121.347 537.588C116.995 533.916 118.223 529.082 119.541 525.01C121.263 519.676 124.071 514.639 126.843 509.715C130.938 502.443 133.835 494.789 135.826 486.712C130.795 490.08 128.72 495.373 126.032 500.225C121.436 508.523 116.787 516.528 109.169 522.835C100.454 530.053 91.4113 538.798 91.9179 550.732C92.4067 562.218 88.1685 570.975 82.7561 579.97C82.2852 580.745 81.3731 581.579 81.4447 582.306C81.7904 585.692 80.783 590.02 86.6426 590.509C84.3894 592.005 82.4759 593.215 81.4864 595.766C79.4955 600.875 72.9981 601.953 71.1264 597.173C69.4216 592.827 66.4531 595.367 63.6276 593.978C69.9819 586.694 69.8686 577.168 74.4704 569.473C77.0634 565.139 76.5806 564.901 72.1517 561.032C71.5854 560.537 71.1621 559.345 71.335 558.636C72.2053 555.012 70.8105 551.805 69.7733 548.514C69.1295 546.47 69.7315 542.977 67.0909 542.959C64.0389 542.941 64.4919 546.66 63.7051 548.866C62.9004 551.125 63.8899 553.337 64.3071 555.554C64.8913 558.684 65.4338 561.837 64.7423 565.008C64.4383 566.421 63.6634 567.595 61.9228 567.166C60.7783 566.886 59.3417 565.825 59.7948 564.942C63.4786 557.783 54.5909 551.316 58.7695 544.151C59.2642 543.304 58.7039 541.868 57.5475 541.254C56.564 540.729 55.4672 541.314 55.2824 542.076C53.6551 548.794 44.2249 550.362 44.5826 558.493C44.6422 559.864 44.058 562.308 41.6141 562.421C40.4517 562.475 39.4324 561.968 38.9853 560.692C38.3594 558.892 37.3282 557.712 39.4562 555.494C42.3532 552.478 41.2683 550.69 37.1315 549.683C38.8125 546.207 38.7767 541.707 43.4321 540.36C41.9658 538.059 40.1239 539.603 38.8005 538.852L38.9376 538.983C38.6277 534.995 35.8916 535.74 33.3404 536.11L33.4834 536.277C34.2762 530.566 28.1902 533.457 26.5748 530.757C23.1055 532.986 18.3368 533.803 17.6215 539.013C17.6215 539.013 17.6036 538.685 17.6036 538.679C16.0896 538.893 12.1256 536.932 11.3984 534.256C9.90815 528.748 7.46419 531.764 6.40315 533.719C2.5405 540.819 -0.469745 535.865 -2.09706 532.766C-5.16692 526.912 -4.61256 520.099 -4.80927 513.673C-5.16692 502.145 -4.9106 490.592 -4.9106 478.73C-8.0341 479.809 -7.38436 481.854 -7.39033 483.487C-7.47378 498.407 -7.50358 513.333 -7.53339 528.259C-7.53339 530.763 -7.42609 533.254 -5.48881 535.198L-5.459 535.102C-8.20697 537.886 -7.50954 541.415 -7.50954 544.771C-7.52147 579.916 -8.47521 462.672 -8.45732 374.868C-8.45732 354.678 -9.33357 334.423 -8.09371 314.305C-6.90153 294.915 -12.7015 275.303 -4.59467 255.901C-1.88247 249.409 -3.86149 240.331 -3.87341 232.433C-3.89725 219.259 -3.73631 206.044 -1.82882 192.87C-1.04795 187.47 -0.636648 181.574 0.323053 176.394C1.6881 168.991 -1.59635 161.409 2.06363 154.429C-1.60231 152.736 3.33926 150.333 1.58676 148.247C0.0369301 148.7 -1.44137 149.135 -3.18195 149.642C-4.29663 144.748 -1.38176 139.622 0.00712776 136.659C2.80874 130.674 -4.61852 135.002 -2.49048 133.595C1.86096 130.728 -0.839318 128.081 -0.952575 124.702C-1.1016 120.344 0.0309696 116.029 -0.231309 111.194C-0.600883 104.411 -1.07179 97.4843 -1.22677 90.6114C-1.42944 81.3541 -4.61852 72.0492 -1.07179 61.2481C-0.934692 66.7977 1.87884 69.5337 3.52404 72.8003C2.24842 76.0132 3.94727 78.6777 4.75795 81.9741C8.06624 76.8477 7.50591 74.1653 3.32734 72.991C9.62203 68.9913 6.74888 63.3225 5.57459 58.357C3.26773 48.5872 5.36 38.9246 5.04407 29.1905C6.34354 32.9279 6.76677 36.7012 7.22575 40.4744C8.45966 50.5841 8.60271 60.9798 11.1838 70.7318C16.3101 90.0928 19.6482 109.615 20.8225 129.566C20.9596 131.849 19.5111 135.276 22.277 136.29C25.2932 137.386 27.6 134.662 29.74 132.624C35.8916 126.752 42.079 120.916 48.5525 114.783C47.3186 118.544 44.8389 121.34 42.5321 124.243C40.5709 126.716 37.7693 128.94 36.8871 131.759C35.0213 137.72 35.4446 137.857 30.5924 140.522C28.6074 141.613 26.5748 142.62 24.5958 143.717C20.9775 145.72 19.6482 148.712 20.4768 152.807C20.9656 155.233 21.2457 157.719 21.359 160.193C21.6749 167.024 22.581 167.578 29.0843 164.64C32.3211 163.179 35.2896 160.699 39.2476 161.909L39.0986 161.743C37.06 168.073 31.7309 171.375 26.6761 174.749C23.3201 176.99 23.4632 179.893 23.9043 183.1C24.1666 184.996 25.7641 186.391 27.2066 185.634C33.8888 182.135 41.9777 185.3 48.2724 181.264C52.7311 178.403 57.3925 176.257 62.3818 174.97C68.7897 173.319 71.9848 167.298 77.1409 164.21C78.6073 173.122 67.0432 171.918 65.4159 179.846C74.9712 175.596 81.1288 168.657 89.1223 162.708C88.5202 166.738 86.4637 169.164 84.4132 170.827C76.7475 177.044 69.2785 183.458 61.8453 189.938C59.4967 191.988 57.4342 197.645 52.0277 194.378C51.7297 194.2 49.7268 195.881 49.3155 196.989C47.4259 202.128 50.9846 207.826 56.5222 209.036C57.7979 209.316 59.9259 208.267 60.0392 210.884C56.1705 212.851 51.2528 207.927 48.0697 212.577C45.7986 215.897 42.4665 218.86 42.2459 224.761C53.518 218.627 64.0925 213.531 75.8712 209.71C74.6493 214.949 72.0801 217.423 68.1698 218.872C65.8868 219.718 63.0077 220.415 62.1493 222.925C61.3565 225.244 61.0704 224.815 58.9126 224.23C51.8668 222.335 37.3401 228.606 33.9841 234.632C33.2688 235.914 33.0543 238.113 33.6742 239.353C34.5802 241.159 36.4102 239.925 37.8408 239.365C40.0821 238.483 42.3353 237.613 46.2338 236.099C42.2459 240.003 41.3399 243.454 40.2073 246.488C43.7242 248.563 47.3604 241.958 48.8685 246.125C50.7163 251.245 56.5461 252.867 57.6965 258.279C58.4476 255.907 59.2046 253.534 60.1584 250.524C60.5101 252.992 59.4192 255.179 61.5413 256.795C66.1133 252.682 66.5365 245.827 71.6033 241.988C73.0398 246.852 67.2637 249.296 69.5646 254.524C75.0844 245.892 81.3255 238.727 89.021 233.047C91.7391 240.313 83.68 243.639 82.458 249.558C83.3462 249.797 83.835 250.113 84.1867 249.999C98.8504 245.284 110.111 235.407 120.488 224.719C122.33 222.818 123.028 219.331 126.229 217.948C129.346 216.601 132.309 214.89 135.391 213.447C136.964 212.708 138.949 211.266 140.261 213.072C140.898 213.948 140.249 216.201 139.551 217.489C138.49 219.456 136.893 221.137 135.51 222.925C127.165 233.732 116.149 241.565 104.448 247.877C97.8788 251.418 96.8178 256.02 96.6211 261.951C96.5913 262.762 97.3721 263.566 96.937 264.848C94.952 270.63 98.457 271.78 103.19 272.156C105.086 272.305 107.303 268.967 109.002 272.692C106.808 273.592 105.133 275.524 102.332 274.826C97.4675 273.61 96.9787 276.615 97.5569 280.257C98.3497 285.258 99.4227 290.223 98.2365 295.445C101.551 295.35 102.361 292.822 104.072 291.505C106.23 289.836 106.093 284.507 109.669 286.092C112.191 287.213 108.763 290.837 109.026 293.436C109.055 293.74 109.586 293.997 110.51 294.855C112.59 289.425 120.059 289.353 121.365 283.768C122.295 279.786 124.911 277.467 127.2 274.958C129.501 272.436 133.644 271.089 136.702 272.09C140.016 273.169 138.395 277.181 138.3 279.989C138.049 287.553 131.427 291.404 128.095 297.186C127.636 297.984 126.431 298.372 125.758 297.472C121.848 292.202 121.901 297.543 121.341 299.302C120.083 303.242 119.308 307.337 118.325 311.42C121.293 311.17 122.038 306.92 124.673 307.73C130.163 309.423 131.713 306.175 133.316 302.181C133.722 301.174 135.224 300.613 136.273 299.803C137.548 302.747 137.912 305.585 138.109 308.69C139.653 305.364 139.533 300.87 144.755 301.162C146.311 305.275 145.178 309.292 143.939 312.869C147.509 314.252 146.836 308.529 149.971 309.948C152.361 311.027 147.438 313.566 149.661 314.508C160.987 313.733 161.833 304.75 165.177 297.448C165.487 301.311 165.803 305.173 166.113 309.084C171.996 306.121 169.874 301.168 169.815 297.269C182.875 298.491 171.424 307.599 174.494 312.076C177.308 311.641 177.29 308.547 179.644 307.409C178.15 314.2 178.667 319.07 181.194 322.019C188.711 314.645 182.905 304.196 187.06 295.88C184.568 295.97 185.164 299.957 182.011 299.755C181.629 295.809 184.395 292.888 185.075 289.407C185.277 288.358 186.785 287.773 187.03 288.375C188.216 291.278 193.962 290.664 192.412 295.666C191.62 298.229 191.429 300.995 191.107 303.683C190.952 304.994 190.785 306.592 192.961 306.419C194.117 306.33 195.613 306.026 195.387 304.673C194.332 298.384 197.962 291.702 193.384 285.616C191.846 283.565 190.183 281.556 192.52 277.58C195.709 272.15 199.422 266.583 200.77 260.127C200.925 259.376 200.716 258.547 200.674 257.79C198.868 257.808 199.238 260.52 197.467 259.763C196.096 255.102 197.485 251.168 199.965 247.406C200.877 246.023 203.005 243.562 200.889 242.894C196.782 241.6 199.709 239.735 199.56 237.952C198.993 231.276 205.693 224.379 198.886 217.84C197.885 216.881 199.089 215.039 200.197 214.365C204.155 211.951 205.789 208.136 206.719 202.676C209.663 215.313 207.356 226.937 209.037 238.376C209.413 240.933 212.381 243.109 210.665 245.654C205.717 252.986 205.175 261.528 203.243 269.76C201.837 275.762 203.196 281.652 202.48 287.648C201.407 296.596 202.2 305.763 202.2 314.794C204.441 313.84 202.82 310.21 205.723 309.537C207.797 313.507 208.888 317.56 207.082 321.888C206.397 323.527 204.829 326.525 204.084 325.899C200.15 322.603 201.491 326.126 201.187 327.783C200.948 329.1 200.776 330.549 200.096 331.64C195.81 338.566 198.01 345.993 197.086 354.154C201.05 351.591 199.887 348.98 199.756 346.649C199.625 344.312 200.174 342.768 202.88 342.363C205.252 342.011 207.404 341.374 208.131 344.64C208.692 347.156 210.724 347.209 212.739 348.151C215.648 349.516 221.382 349.659 220.506 354.75C219.928 358.106 221.668 359.644 223.194 361.843C218.271 361.307 213.8 366.225 215.457 370.057C217.931 375.768 226.354 380.06 233.703 379.243C230.455 376.251 226.646 373.7 226.324 367.22C230.127 371.208 234.365 372.549 236.565 376.441C237.352 377.836 238.419 379.535 240.183 378.158C241.423 377.187 240.451 375.702 239.629 374.57C238.341 372.805 236.654 371.244 236.422 368.913C238.126 367.619 239.027 370.928 240.666 369.42C240.088 364.067 232.279 363.661 232.601 357.689C232.815 357.754 233.042 357.802 233.25 357.885C235.766 358.911 237.274 364.734 240.654 360.669C243.539 357.2 238.782 354.279 237.471 351.138C236.893 349.749 235.188 350.196 234.001 351.239C231.814 353.158 229.906 355.09 232.815 357.903C231.48 357.081 230.234 355.829 228.78 355.507C224.089 354.458 226.586 350.524 226.443 348.443C226.252 345.6 229.602 350.381 230.896 347.585C227.915 342.059 218.008 343.788 217.323 335.168C220.554 335.508 221.317 338.483 223.647 339.383C230.419 342.011 236.469 345.713 240.469 352.038C241.435 353.564 242.812 354.535 244.379 353.874C246.263 353.081 245.625 351.239 245.13 349.725C244.534 347.895 241.965 346.196 244.731 344.05C246.65 346.417 246.841 351.722 250.823 350.035C261.958 345.326 264.265 340.408 264.301 328.17C264.342 315.444 265.117 302.914 273.135 291.934C275.859 288.197 277.218 283.368 278.744 278.886C280.139 274.797 282.046 271.089 284.657 266.779C288.681 275.524 282.124 282.504 282.612 291.314C290.517 276.454 298.784 263.173 298.212 246.727C298.141 244.706 298.331 241.362 300.996 241.237C304.31 241.082 303.118 244.533 303.589 246.524C303.845 247.609 303.535 248.837 303.839 249.904C304.423 251.984 303.547 255.281 306.075 255.817C308.769 256.389 309.216 253.093 310.193 251.215C313.412 245.052 315.832 238.572 318.276 232.045C325.674 212.267 330.764 191.845 336.392 171.566C337.113 168.961 338.067 166.058 334.013 165.069C326.914 163.34 326.27 155.645 321.305 151.734C324.458 153.993 327.736 155.102 331.378 155.442C332.809 155.579 334.949 155.537 333.828 158.142C333.167 159.674 333.268 160.932 335.223 160.944C337 160.956 337.327 159.328 337.429 158.023C338.204 148.342 342.74 139.044 341.434 129.274C340.284 120.654 347.819 117.775 351.091 112.136C352.2 110.229 353.797 111.79 355.037 112.828C356.366 113.942 355.747 116.571 359.317 116.976C359.609 108.691 358.208 100.077 362.274 92.3877C365.433 94.3727 359.681 98.4142 364.074 99.3798C366.273 99.8626 370.166 101.866 370.732 96.1788C371.692 100.894 368.914 104.953 371.048 109.77C375.447 102.533 376.854 94.8853 380.52 88.2986C376.931 102.42 372.741 116.285 368.771 130.215C368.169 132.332 365.844 135.813 368.723 136.766C373.462 138.346 370.768 140.617 369.832 142.31C368.27 145.147 367.799 148.325 366.589 151.085C365.606 153.326 368.103 159.597 361.374 157.779C361.028 157.683 360.009 159.46 359.556 160.479C357.988 163.996 356.14 167.453 355.103 171.131C351.24 184.871 348.319 198.879 343.127 212.243C342.019 215.092 341.101 217.852 337.202 219.462C338.031 211.182 341.601 204.738 343.872 197.937C350.119 179.244 350.775 159.632 353.905 140.426C354.215 138.531 354.566 136.391 352.2 135.998C349.106 135.485 349.69 138.239 349.166 140.116C343.539 160.354 341.816 181.574 332.809 200.995C326.109 215.432 325.125 231.878 316.399 246C313.013 251.484 312.226 259.024 307.285 264.341C305.854 265.879 305.705 267.733 308.048 269.408C312.798 272.812 312.429 284.28 307.636 287.469C306.313 288.352 303.982 289.222 304.245 286.695C304.906 280.34 299.392 275.005 301.64 268.401C300.263 275.357 293.807 280.12 294.963 288.387C295.482 292.095 293.849 297.472 287.792 299.975C280.693 302.908 279.984 309.262 284.574 316.135C285.861 314.079 287.411 312.356 288.108 310.329C289.837 305.304 292.12 303.957 295.953 308.452C297.223 309.942 298.278 310.323 299.72 308.505C303.344 303.927 304.829 306.312 305.604 311.182C308.566 307.248 314.342 305.382 310.897 299.141C310.319 298.098 311.07 297.162 311.785 296.154C317.633 287.952 321.054 278.629 324.947 269.42C326.944 264.681 327.015 259.477 330.252 254.774C334.752 248.241 339.897 242 342.907 234.167C346.358 225.184 345.601 215.611 348.915 206.735C350.948 201.287 350.447 201.102 355.156 204.637C355.693 200.673 357.737 197.526 359.365 194.158C360.873 191.04 363.824 187.619 362.089 184.042C360.372 180.495 361.988 178.075 363.061 175.172C366.345 166.273 370.017 157.469 372.616 148.366C381.348 117.751 384.138 85.8069 393.193 55.2336C394.582 50.5543 395.678 45.0524 394.564 40.5042C391.369 27.432 397.973 16.1481 399.863 4.05344C400.03 2.98048 400.757 0.619971 402.957 2.5811C405.329 4.69721 406.682 4.54819 409.222 1.82407C410.157 0.816677 411.034 -0.452986 412.584 0.160984C414.312 0.846486 413.722 2.38439 413.406 3.66598C412.59 6.96235 411.695 10.2468 410.843 13.5312C409.251 19.6471 405.991 25.9179 408.131 32.0755C410.205 38.0424 408.208 42.6859 405.943 47.4904C404.113 51.3709 401.377 54.8103 399.338 58.6014C396.614 63.6622 395.965 68.8422 399.577 73.8732L399.481 73.7957C397.014 74.1951 395.762 76.2993 395.965 78.1293C396.912 86.8679 392.799 94.4979 390.802 102.521C388.573 111.486 388.49 120.529 387.137 129.607C390.159 129.542 389.044 125.059 391.929 126.234C394.129 127.128 392.978 129.357 392.895 131.074C390.314 134.179 389.384 138.298 386.409 141.225C384.454 143.145 385.831 145.392 386.713 147.472C387.834 150.107 388.859 152.783 390.433 156.694C393.902 147.627 388.829 138.757 392.776 130.931C395.112 127.324 397.02 126.955 400.101 130.698C404.214 135.693 405.86 140.772 403.827 146.948L403.988 146.739C402.384 152.652 398.444 157.796 400.209 164.759C402.522 173.891 390.85 171.161 388.978 176.669C387.84 180.025 385.289 176.877 383.989 178.755C379.089 185.842 373.969 192.775 368.998 199.815C368.503 200.518 368.36 201.514 368.193 202.402C363.603 226.949 354.328 250.095 346.841 273.777C346.251 275.643 344.981 277.878 346.501 279.577C348.415 281.717 349.476 278.886 350.96 278.284C351.687 277.992 352.76 278.105 353.523 278.415C358.059 280.257 361.66 278.111 364.592 275.273C370.768 269.295 380.383 269.295 386.344 262.773C384.907 264.896 383.465 267.012 381.849 269.396C386.636 270.642 389.861 269.563 393.616 267.018C400.328 262.475 406.384 257.754 409.532 250.029C410.008 248.855 410.855 247.329 412.524 248.384C413.668 249.105 413.275 250.452 412.739 251.466C409.901 256.777 408.035 262.589 401.419 265.182C396.978 266.922 393.193 270.314 388.466 273.396C394.76 274.683 409.639 267.906 412.333 263.256C412.44 263.072 412.792 262.917 412.78 262.779C411.97 256.044 418.276 254.267 421.221 250.083C420.97 255.865 414.61 259.334 416.047 265.629C419.2 266.809 421.93 263.262 425.745 265.051C417.746 270.582 408.858 273.086 400.549 276.835C394.737 279.458 388.937 279.237 384.49 275.804C378.463 271.155 373.206 273.593 368.074 275.917C364.247 277.652 360.813 280.412 356.855 282.128C353.106 283.756 353.541 287.714 353.893 290.277C354.34 293.526 358.155 292.238 360.277 291.863C366.393 290.778 372.401 289.103 378.934 287.541C376.854 291.177 373.814 291.267 370.917 291.249C366.154 291.225 362.148 293.216 358.208 295.493C356.599 296.423 354.805 297.597 356.462 299.725C360.623 305.054 355.019 304.649 352.909 305.173C345.297 307.069 339.318 313.036 337.87 320.999C341.13 321.291 341.75 316.863 345.625 316.654C343.521 321.989 344.272 327.425 341.339 332.14C342.615 331.628 343.64 331.043 344.2 330.161C346.263 326.93 348.14 323.58 350.155 320.314C353.41 315.033 361.624 311.903 366.983 313.852C368.217 314.299 368.89 315.301 368.658 316.481C368.032 319.676 369.498 321.226 372.139 322.901C375.286 324.898 374.792 327.264 371.191 328.784C366.989 330.555 362.727 331.932 358.101 331.729C355.758 331.628 353.464 331.508 352.76 334.542C351.884 338.328 349.559 338.423 346.06 337.994C337.333 336.927 327.206 344.426 326.55 351.048C332.153 351.99 336.994 348.366 342.633 348.205C344.629 348.145 347.324 348.64 348.2 346.536C350.668 340.623 353.374 343.937 355.913 346.136C357.112 347.174 357.803 349.153 359.281 346.589C361.32 343.043 364.95 343.561 368.193 342.733C372.437 341.648 377.289 343.412 381.009 340.164C385.599 336.152 390.01 331.938 394.617 327.95C399.16 324.01 403.463 319.587 410.765 318.514C407.809 330.573 396.668 334.411 390.093 342.482C392.388 341.392 394.677 340.307 397.526 338.954C397.109 340.217 397.079 340.962 396.698 341.362C388.817 349.57 379.673 354.851 367.799 354.243C365.242 354.112 362.673 354.958 360.742 357.42C365.302 358.744 370.541 358.547 369.498 365.98C373.969 362.851 377.653 359.9 381.676 357.522C390.975 352.02 399.38 345.201 408.727 339.723C416.571 335.127 426.305 332.915 430.8 323.461C431.724 321.524 434.466 320.451 436.373 318.979C434.758 321.423 432.833 323.282 431.241 325.524C429.852 327.479 432.547 330.805 429.87 331.675C423.337 333.797 422.836 341.541 417.239 344.432C416.142 344.998 415.826 346.858 416.53 348.163C417.471 349.91 418.836 348.765 420.047 348.372C426.896 346.166 432.773 341.171 440.391 341.892C439.932 343.973 438.555 346.339 436.35 347.889C426.836 354.589 416.685 359.9 404.733 360.276C400.405 360.413 397.151 361.331 394.462 365.265C392.156 368.633 388.955 372.126 384.293 372.126C375.638 372.126 367.299 376.215 358.441 373.884C356.623 373.407 354.405 374.26 352.414 374.695C350.227 375.172 349.398 376.704 350.161 378.784C351.097 381.353 357.737 383.028 359.925 381.335C361.433 380.167 362.888 377.604 364.223 381.568C366.333 387.833 374.07 391.85 380.717 390.271C375.876 394.33 375.602 401.835 379.668 408.726C382.988 414.353 387.029 412.165 391.184 410.275L391.059 410.192L391.1 410.156ZM266.703 564.734C264.527 563.81 263.877 566.373 262.793 567.613C262.065 568.441 261.582 569.532 262.435 570.677C264.366 573.288 265.934 569.616 267.758 570.379C269.94 572.668 271.978 572.34 274.19 570.271C275.799 568.769 277.474 567.208 275.519 565.223C273.57 563.244 272.491 565.401 271.323 566.76C270.148 568.12 268.807 569.33 267.537 570.611C267.913 568.537 269.719 566.009 266.709 564.734H266.703ZM296.489 541.004C294.677 538.84 290.964 537.081 295.595 533.97C296.448 533.397 295.941 531.746 295.035 530.971C293.265 529.457 283.125 533.403 283.417 535.657C283.757 538.285 282.738 539.937 281.784 542.154C279.769 546.827 283.673 550.994 288.681 549.557C291.75 548.675 295.285 548.067 297.515 545.188C299.893 546.207 302.432 546.881 304.566 545.051C305.931 543.883 305.228 542.023 304.471 540.622C303.792 539.364 303.857 537.248 301.544 537.469C299.44 537.665 299.315 539.305 298.969 540.89C298.629 542.428 298.045 543.906 297.568 545.409C297.992 543.746 297.544 542.255 296.489 540.998V541.004ZM299.392 327.997C297.324 324.534 296.477 319.611 291.405 320.701C286.785 321.691 288.359 325.327 289.479 328.349C286.845 326.549 286.463 330.376 284.574 330.453C282.708 327.968 287.989 325.345 284.383 323.211C281.009 321.214 279.274 325.071 276.699 325.917C274.947 323.914 277.009 322.013 276.729 319.819C275.978 320.046 275.293 320.058 274.893 320.403C266.804 327.336 266.745 328.659 274.1 336.617C276.103 338.781 275.298 347.191 272.378 348.312C266.232 350.673 266.941 355.763 266.017 360.681C279.823 356.335 284.967 344.765 290.433 333.547C291.423 331.52 290.207 329.601 289.003 327.896C292.43 329.124 295.774 325.667 299.386 328.003L299.392 327.997ZM166.65 444.902C171.359 444.664 176.515 441.141 179.579 436.342C181.725 432.975 183.936 429.613 188.431 435.585C188.431 433.338 188.615 432.235 188.389 431.228C187.942 429.225 186.94 426.602 189.432 425.988C191.083 425.577 192.919 428.563 195.393 427.443C195.643 428.921 195.286 430.757 198.051 429.75C200.138 428.987 200.925 427.783 200.996 425.78C201.032 424.874 201.193 423.962 201.121 423.068C200.609 416.803 202.355 413.518 208.99 417.363C211.851 419.02 214.056 416.767 214.736 415.497C216.143 412.874 217.311 409.31 216.637 406.627C216.029 404.213 213.925 406.425 212.822 407.718C211.91 408.791 211.809 410.883 209.413 409.882C207.207 408.958 209.765 406.83 208.107 405.817C205.824 406.77 204.185 412.427 200.764 406.532C199.756 404.791 198.588 408.893 195.25 408.559C194.612 408.451 195.411 406.645 194.999 405.531C194.189 403.337 193.152 401.877 190.529 403.122C188.103 404.279 189.062 406.019 189.67 407.718C191.272 412.185 190.598 416.127 187.65 419.545C188.371 413.31 186.01 408.106 187.226 401.966C183.686 402.979 182.303 404.684 181.796 407.659C181.266 410.788 182.714 415.217 176.33 414.8C173.82 414.639 177.647 417.321 176.789 418.913C168.396 419.497 168.623 412.57 166.971 406.884C161.791 409.775 161.154 414.621 164.051 417.655C167.46 421.238 163.276 425.619 166.954 428.361C164.206 430.727 161.106 426.423 158.167 429.66C162.334 430.942 165.618 433.279 168.104 436.772C165.523 437.839 163.633 434.238 161.124 435.788C160.611 436.104 159.949 437.237 160.033 437.32C164.706 442.041 152.331 446.071 159.985 451.262C160.14 446.69 161.541 445.17 166.655 444.908L166.65 444.902ZM71.9967 304.851C75.7103 301.585 75.2334 304.5 75.5076 306.997C75.5434 307.307 78.5775 307.897 79.7637 307.349C82.309 306.181 86.7975 305.215 86.1895 302.288C85.0391 296.721 88.9137 293.204 89.9747 288.644C90.4337 286.653 91.1251 284.781 88.1685 285.067C84.7291 285.401 84.8781 282.498 83.3581 280.895C76.3004 273.461 84.1092 269.128 87.0837 264.556C88.4249 262.499 88.407 261.522 87.9182 259.853C87.0479 256.884 85.6113 259.161 84.3834 259.543C73.6419 262.881 72.1099 265.367 74.7208 277.324C75.3765 280.328 74.9354 282.528 73.4571 284.924C69.8329 290.808 67.5081 299.236 67.377 306.872C69.2845 305.948 68.14 299.516 71.9967 304.851ZM169.546 366.278C170.315 368.52 171.919 371.083 167.424 372.501C164.885 373.306 166.393 376.525 168.39 377.813C169.749 378.689 171.448 378.85 170.643 381.073C169.886 383.165 168.104 382.879 166.65 382.516C164.194 381.908 162.572 382.498 162.209 385.049C161.797 387.988 164.736 387.69 165.958 387.702C168.342 387.731 172.575 392.721 173.046 385.293C173.206 382.712 176.521 386.73 178.601 384.334C179.68 380.859 172.229 380.507 174.667 376.018C177.761 375.899 182.738 379.559 183.209 372.269C177.808 373.366 174.047 370.844 174.542 364.836C174.947 359.924 172.652 358.249 169.237 356.3C168.706 359.709 168.384 362.916 169.541 366.272L169.546 366.278ZM235.355 424.117C238.574 424.862 238.55 421.661 239.944 420.147C245.226 414.406 242.233 405.751 247.193 399.832C248.522 398.246 246.704 396.959 245.375 396.112C244.046 395.272 242.418 395.552 241.798 396.816C238.413 403.701 231.295 409.036 233.125 418.144C233.632 420.063 231.766 423.288 235.355 424.117ZM187.715 385.359C186.851 386.807 189.003 387.934 190.35 388.816C192.603 390.283 194.988 389.257 195.655 387.594C197.414 383.231 204.567 383.553 204 377.55C203.953 377.032 203.19 376.102 202.892 376.155C195.22 377.437 195.345 371.828 194.934 365.229C189.039 372.042 191.149 379.607 187.709 385.359H187.715ZM-7.00883 374.176C-0.612804 359.489 -2.90774 344.444 -4.9106 329.553C-8.34407 344.432 -7.22342 359.31 -7.00883 374.176ZM179.138 341.171C181.128 346.81 173.85 350.881 176.622 356.55C178.106 359.59 181.522 359.167 184.258 360.693C184.717 358.165 184.896 355.888 185.569 353.772C186.589 350.589 180.437 351.161 182.529 346.81C183.829 344.11 185.271 339.246 180.777 337.261C179.316 336.617 179.257 333.404 176.807 335.007C175.048 336.158 175.889 337.708 176.145 339.275C176.348 340.533 175.966 341.88 175.847 343.192C177.534 343.198 177.367 340.67 179.138 341.171ZM292.561 475.821C290.332 473.973 291.643 471.303 290.701 469.211C290.201 473.628 287.781 477.669 288.722 482.247C299.476 476.759 304.451 471.537 303.648 466.582C303.172 471.869 297.562 467.798 296.191 471.5C294.034 469.467 296.37 466.767 294.928 463.971C292.567 468.144 294.773 472.322 292.561 475.815V475.821ZM341.87 382.408C342.215 380.757 344.218 378.975 342.478 377.509C340.445 375.798 338.806 377.789 337.286 379.07C332.082 383.457 330.991 390.7 326.109 395.427C330.717 390.181 340.129 390.742 341.87 382.408ZM404.745 25.8881C405.52 23.9509 405.246 21.4532 402.992 20.7081C400.537 19.8975 399.559 22.2103 398.772 24.076C396.316 29.9117 394.617 35.8726 397.443 42.7693C399.899 37.1482 402.474 31.5808 404.751 25.8881H404.745ZM335.998 515.682C332.469 510.758 335.36 506.8 337.196 501.34C331.879 503.426 332.243 507.462 332.994 510.013C333.983 513.393 328.082 514.245 331.051 517.792C333.352 520.546 328.762 523.955 332.004 527.216C339.64 523.389 340.463 521.911 335.998 515.676V515.682ZM193.158 479.225C186.964 486.175 174.732 487.987 174.995 501.948C182.625 494.711 188.043 487.099 193.158 479.225ZM359.329 403.742C358.298 404.601 356.861 405.227 356.939 406.729C357.034 408.559 358.703 408.141 359.919 408.547C361.314 409.018 362.375 410.436 363.758 411.021C365.981 411.956 368.205 411.152 369.802 409.638C372.061 407.504 369.54 407.241 368.348 406.061C365.665 403.409 370.392 402.866 370.154 400.094C366.518 401.59 362.453 401.149 359.329 403.748V403.742ZM317.913 503.796C318.604 506.472 316.768 509.071 318.217 511.622C319.069 513.13 318.11 516.23 321.424 515.61C324.589 515.02 324.506 513.136 323.29 510.645C321.227 506.418 325 508.862 326.967 508.004C323.814 505.846 321.424 503.897 317.913 503.796ZM131.689 647.447C130.103 647.846 128.78 649.009 129.334 650.88C129.877 652.728 131.558 652.848 133.185 652.621C137.107 652.079 139.945 650.421 139.921 645.551C136.511 645.003 134.24 646.803 131.689 647.441V647.447ZM336.982 353.027C337.405 355.006 338.126 358.636 340.993 358.332C343.825 358.028 345.142 354.988 345.41 352.193C345.673 349.421 343.568 349.653 341.601 349.91C339.897 350.72 336.225 349.48 336.982 353.033V353.027ZM369.641 426.912C369.612 426.787 368.294 426.686 368.044 426.978C366.697 428.546 365.946 430.441 365.952 432.521C365.952 433.714 367.036 433.845 367.919 433.881C372.371 434.047 376.192 433.368 375.9 427.163C373.54 426.823 371.394 433.726 369.641 426.912ZM158.9 634.208C158.519 635.352 157.231 636.747 159.222 637.504C160.796 638.1 161.565 636.717 162.423 635.662C165.463 631.889 162.542 627.931 162.334 624.11C161.189 627.478 160.033 630.84 158.906 634.214L158.9 634.208ZM205.616 470.105C205.896 468.835 207.1 467.476 205.753 466.391C204.316 465.241 203.208 466.642 202.343 467.565C200.388 469.67 198.582 471.917 196.245 474.665C199.798 472.841 204.471 475.249 205.616 470.105ZM222.115 613.19C215.32 613.226 213.395 614.525 210.379 622.072C214.158 619.21 217.937 616.355 222.115 613.19ZM13.7768 119.504C13.4608 119.134 10.7844 120.785 9.19881 121.495C11.5534 123.307 9.78893 128.064 14.7484 128.481C15.8631 125.041 15.8929 121.983 13.7708 119.498L13.7768 119.504ZM252.212 570.969C251.574 572.119 253.166 572.936 254.316 572.519C257.148 571.499 259.341 569.801 259.252 566.367C259.216 565.05 258.674 564.263 257.881 564.352C253.547 565.032 253.529 568.59 252.206 570.969H252.212ZM61.1836 292.673C63.7587 291.833 65.7914 290.903 65.237 287.714C65.0403 286.581 64.2952 285.103 63.1805 285.711C61.0346 286.885 59.2106 288.656 57.327 290.122C58.5549 291.815 58.9483 293.395 61.1777 292.673H61.1836ZM302.695 554.266C303.809 553.617 305.079 551.995 304.155 550.97C301.789 548.335 298.808 550.481 295.929 550.803C297.801 553.062 299.112 556.353 302.695 554.266ZM-4.6364 449.736C-8.06391 454.612 -8.27254 458.499 -5.90011 466.838C-3.77207 461.068 -6.15046 455.751 -4.6364 449.736ZM233.012 403.438C235.933 402.657 236.016 399.385 237.298 397.203C238.132 395.785 236.332 395.135 235.462 395.159C231.516 395.26 232.964 399.003 231.76 400.649C231.701 402.085 231.629 403.808 233.006 403.432L233.012 403.438ZM-5.58418 423.467C-7.91488 427.073 -7.38437 430.811 -5.58418 434.578C-5.58418 430.876 -5.58418 427.169 -5.58418 423.467ZM196.323 325.482C196.233 324.641 194.993 323.878 194.242 324.498C192.436 325.995 191.536 327.771 193.33 330.09C193.843 330.751 193.551 332.045 193.64 333.171C198.457 331.699 196.609 328.278 196.323 325.482ZM183.9 380.221C183.972 380.519 185.313 380.918 185.522 380.715C188.282 377.973 186.666 374.534 187.203 371.035C184.544 373.878 183.054 376.692 183.906 380.221H183.9ZM374.243 501.066C378.982 499.367 377.718 494.688 378.404 491.433C379.608 485.693 380.013 479.714 382.284 474.277C384.46 469.074 381.146 464.871 380.931 459.423C376.097 463.029 374.064 468.43 369.391 471.404C369.57 466.004 374.255 461.497 372.288 455.882C369.528 455.203 369.743 458.314 367.406 458.928C366.923 455.948 365.624 453.23 362.792 450.798C360.462 458.159 354.536 458.702 348.254 458.529L348.438 458.344C348.695 458.684 348.903 459.28 349.207 459.333C354.584 460.293 361.862 459.942 355.288 468.71C355.073 468.996 355.502 470.242 355.919 470.445C358.125 471.512 358.506 468.287 360.384 468.442C360.128 471.565 361.004 472.656 363.823 472.674C365.278 472.686 366.154 473.568 365.326 474.766C362.125 479.392 365.856 484.9 363.18 489.573C366.041 486.968 365.385 483.296 366.333 480.131C366.971 478.009 368.133 475.476 370.988 476.274C374.875 477.365 370.935 479.38 371.263 480.578C371.96 483.141 371.912 485.317 370.643 487.558L370.577 487.469C374.273 486.843 372.991 481.126 378.124 481.013C378.404 488.005 375.56 494.413 374.279 501.06C374.303 501.072 374.237 501.06 374.237 501.06L374.243 501.066ZM375.06 520.295C379.292 518.424 383.178 516.021 387.822 514.758C394.176 513.023 394.993 508.022 391.297 499.087C387.911 500.702 386.654 504.404 383.852 506.484C379.018 510.078 376.604 509.208 375.59 503.414C375.447 502.592 374.738 501.864 374.267 501.084C374.243 501.072 374.309 501.078 374.285 501.066C374.809 512.01 369.784 519.664 359.609 517.768C359.86 520.17 363.692 523.699 357.833 524.42C356.08 524.635 357.565 526.542 358.56 527.377C360.837 529.284 365.54 529.958 365.54 528.134C365.54 522.31 370.357 524.742 372.437 522.912C373.426 522.042 374.309 521.047 375.257 520.093C373.76 518.787 370.977 520.963 370.112 518.269C369.957 517.78 371 516.302 371.495 516.296C375.292 516.272 377.897 512.558 382.123 512.558C380.156 516.039 376.312 516.957 375.06 520.295ZM192.287 266.517C191.489 257.433 190.666 250.524 190.362 243.591C190.213 240.194 187.501 239.973 185.963 240.277C183.93 240.677 183.572 242.405 184.639 245.01C186.607 249.821 187.352 255.018 179.74 256.044C179.155 256.121 178.524 256.64 178.13 257.135C177.522 257.892 179.895 274.797 180.622 275.428C181.701 276.37 183.787 277.217 184.163 276.132C185.802 271.399 192.412 270.171 192.281 266.517H192.287ZM17.6633 538.989C17.6633 538.989 17.6454 538.661 17.6454 538.655C14.8438 549.885 20.7808 556.764 29.3227 562.516C32.8277 564.877 32.4582 561.521 33.0423 560.162C34.5743 556.609 33.0125 551.805 37.4415 549.414C32.1184 549.063 31.8203 546.75 34.9856 543.102C36.2433 541.653 38.7111 541.296 38.8363 538.828L38.9734 538.959C36.4579 538.619 35.6592 540.938 34.1332 542.118C33.2152 542.828 32.2436 543.656 31.1587 542.839C29.8592 541.862 30.0559 540.485 30.9083 539.257C31.6713 538.16 32.5535 537.141 33.3821 536.086L33.5252 536.253C27.3378 539.692 24.2083 540.235 18.3249 538.923C18.1222 538.875 17.8838 538.965 17.6633 538.989ZM396.942 466.892C400.578 466.725 402.975 464.841 406.033 464.388C412.858 463.381 411.207 455.793 412.995 451.06C414.211 447.841 409.877 448.419 408.059 447.251C407.111 446.643 406.128 446.094 405.186 445.48C402.247 443.585 399.881 442.411 400.769 447.889C400.99 449.236 401.061 451.668 399.338 452.091C391.613 453.993 392.299 460.651 390.516 466.451C393.378 464.861 395.676 462.387 397.413 459.03C400 461.64 396.531 463.911 396.942 466.898V466.892ZM384.49 68.9913C391.613 46.1372 391.679 24.1178 395.243 2.11019C392.024 2.87318 392.364 4.87604 391.518 6.05033C384.013 16.4342 391.017 28.3559 387.929 39.2167C386.594 43.9019 386.433 49.0163 384.514 53.4036C382.493 58.0232 381.694 62.2257 384.49 68.9913ZM359.675 272.031C357.01 270.815 358.494 266.594 355.496 267.638C353.04 268.496 353.481 271.524 354.149 273.682C355.24 277.193 357.439 274.379 359.126 274.254C361.147 274.105 362.268 272.555 363.287 271.041C364.789 268.812 366.19 268.019 369.379 268.591C374.648 269.527 377.504 266.058 378.392 261.027C376.151 259.561 375.483 262.16 373.415 262.022C373.653 259.322 374.011 256.354 371.62 253.588C368.902 254.291 365.904 259.221 362.357 254.422C361.07 255.406 356.808 253.165 359.472 258.482C361.123 261.772 363.12 267.286 359.669 272.031H359.675ZM404.03 146.709C404.608 149.469 402.677 153.636 405.568 154.727C408.232 155.734 411.093 152.646 413.847 151.138C423.456 145.875 420.446 134.674 426.693 127.533C423.79 127.009 423.82 128.666 423.259 129.596C422.681 130.561 422.24 131.616 421.757 132.642C420.428 135.461 419.093 137.738 415.087 136.391C411.94 135.33 410.247 138.054 408.637 140.295C407.052 142.501 405.466 144.7 403.875 146.918C403.875 146.93 404.03 146.715 404.03 146.715V146.709ZM234.532 316.082C231.844 317.596 229.489 319.712 230.902 323.849C231.26 324.892 231.295 326.519 230.121 326.847C219.564 329.774 227.474 332.808 230.139 335.496C231.939 337.314 234.246 338.632 236.6 340.372C237.715 338.495 235.945 336.516 237.214 334.727C238.83 332.462 240.803 334.346 242.675 334.352C240.6 327.693 240.773 320.797 234.538 316.082H234.532ZM54.1081 607.867C42.1863 600.249 41.5485 598.079 46.6689 585.448C47.5094 583.379 48.1949 581.138 48.3618 578.933C48.5227 576.834 49.3334 574.355 47.0146 572.698C45.7867 576.352 38.7409 571.219 39.5755 577.389C39.9868 580.435 34.5743 582.992 39.5576 586.777C41.0836 587.934 37.6501 593.71 39.3609 597.596C41.0061 601.346 44.2309 603.468 47.265 605.78C49.0056 607.11 50.7938 608.654 54.1021 607.861L54.1081 607.867ZM98.6537 221.053C96.5913 221.715 95.6495 222.019 94.2308 222.478C96.8774 218.496 99.7982 215.492 103.411 212.833C101.861 210.169 99.1783 209.418 96.4482 208.947C92.3233 208.237 88.0851 207.087 89.0925 214.252C89.4978 217.149 88.0732 220.338 87.334 223.36C86.5055 226.746 88.5977 228.677 91.0536 229.703C93.6585 230.787 94.1592 227.992 95.1547 226.341C96.0608 224.838 97.086 223.408 98.6537 221.053ZM414.777 399.629C416.762 397.328 418.258 395.719 419.611 393.996C420.929 392.309 421.894 390.33 420.07 388.518C417.924 386.384 416.226 388.381 414.974 389.782C412.584 392.446 410.515 395.397 407.958 398.682C413.585 401.28 419.325 402.646 425.221 403.301C427.736 403.581 430.544 401.34 430.317 399.796C430.025 397.799 430.168 395.498 429.459 393.8C428.726 392.053 426.788 393.913 425.429 394.443C422.02 395.767 419.832 399.641 414.777 399.629ZM20.3397 621.785C18.5574 622.56 16.7691 623.341 14.9213 624.146C14.4265 622.197 17.5381 621.559 16.1134 619.842C15.1716 618.71 13.592 619.097 12.2985 619.419C7.92318 620.51 3.55981 621.648 -0.791631 622.829C-2.10302 623.186 -3.58729 623.747 -3.38461 625.416C-3.24155 626.59 -2.04938 627.168 -0.845279 627.281C1.18738 627.478 3.01141 627.621 4.22147 629.874C5.41961 632.116 7.5536 631.782 9.49089 630.512C10.0572 630.143 10.534 629.642 11.1003 629.266C14.4205 627.061 17.7527 624.873 21.0788 622.68C20.8344 622.376 20.5841 622.077 20.3397 621.773V621.785ZM-5.41131 535.072C-4.83311 542.673 -1.06583 548.759 4.24531 553.956C1.56888 556.257 -1.03007 553.247 -3.65285 555.19C-1.26254 558.886 2.60607 558.815 6.15876 559.268C7.30921 559.417 8.85903 558.475 8.67425 557.497C8.06028 554.225 5.66996 551.739 7.44631 547.525C9.14516 543.483 4.02476 542.959 1.30064 541.325C-1.28639 539.77 -4.4993 538.691 -5.459 535.21C-5.44112 535.168 -5.40535 535.072 -5.40535 535.072H-5.41131ZM-3.41442 600.892C-3.46807 606.454 0.108461 607.277 1.67617 609.691C1.78347 612.552 -1.75729 610.108 -2.13879 612.236C3.73864 616.731 12.0243 616.951 17.7229 612.761C18.7899 611.974 20.298 611.342 19.6542 609.655C19.1535 608.35 17.7407 608.761 16.6737 608.671C9.72336 608.075 2.3736 608.785 -3.40846 600.886L-3.41442 600.892ZM320.553 639.221C324.816 637.6 329.346 635.883 333.87 634.154C335.062 633.701 337.411 632.95 336.94 634.625C334.961 641.695 340.356 637.874 342.096 637.993C345.857 638.249 349.696 637.635 353.487 637.194C354.519 637.075 355.752 636.497 355.901 635.18C356.068 633.725 354.924 633.278 353.785 633.105C341.917 631.281 329.9 628.694 320.553 639.227V639.221ZM-1.66192 579.928C-1.04795 582.61 1.18738 582.998 2.7849 584.125C6.39123 586.67 11.3507 587.29 12.7992 583.612C13.8304 580.995 12.1435 575.72 8.59676 572.972C8.26295 572.715 7.68474 572.268 7.5238 572.376C-0.0644026 577.323 -0.45186 568.96 -4.07012 565.801C-4.91656 574.068 2.44513 575.863 6.79061 579.982C3.44655 583.481 1.36621 577.979 -1.65596 579.934L-1.66192 579.928ZM437.661 448.95C434.657 450.094 435.724 453.432 433.304 454.559C431.015 454.642 432.016 450.666 429.101 451.036C427.73 454.654 426.234 458.368 424.905 462.141C423.48 466.177 428.946 464.293 429.179 466.963C433.941 465.801 439.241 454.905 437.655 448.95H437.661ZM396.68 95.2072C401.514 93.0017 403.285 90.0093 403.374 87.0527C403.553 81.3422 407.105 80.5077 411.463 79.0771C420.005 76.2755 428.571 72.9672 430.275 62.0886C426.055 63.6324 425.364 68.3594 422.157 70.708C418.509 73.3785 415.004 76.5914 410.533 77.4617C401.162 79.2797 399.535 86.6832 396.68 95.2072ZM338.204 132.326C336.785 129.858 339.557 126.168 335.235 125.441C332.863 125.041 326.586 131.759 326.872 134.644C327.087 136.808 327.957 138.978 328.923 140.951C329.304 141.732 330.908 142.608 331.659 142.394C333.721 141.809 331.855 140.754 331.605 139.92C331.337 139.032 331.14 137.649 332.362 138.179C340.952 141.935 335.623 133.691 338.204 132.326ZM256.855 277.658C258.531 280.984 258.209 284.417 261.475 287.249C264.241 289.645 263.019 294.301 261.284 298.008C260.456 299.779 258.34 302.843 261.374 303.641C263.895 304.303 264.396 300.768 264.485 298.646C264.646 294.938 266.959 291.702 267.078 288.268C267.287 282.17 265.237 277.062 256.861 277.664L256.855 277.658ZM341.798 103.666C337.816 101.436 334.448 96.4411 334.579 94.927C335.271 86.8083 327.093 91.4876 325.483 87.4402C327.194 92.3937 331.003 96.1371 331.009 101.854C331.009 105.323 335.486 106.032 341.798 103.666ZM252.903 313.572C253.076 317.852 253.213 321.649 251.556 325.172C253.541 325.965 254.084 324.129 256.069 323.485C253.273 327.89 257.303 330.078 259.18 330.125C262.697 330.215 261.547 326.156 261.958 323.825C262.25 322.156 261.511 320.29 261.165 318.526C260.682 316.076 260.873 312.905 256.903 316.338C255.341 317.691 255.347 314.091 252.903 313.572ZM461.415 466.296C460.819 469.634 460.372 472.996 458.208 475.827C456.08 478.611 453.928 480.894 460.086 481.854C463.704 482.42 460.944 485.8 460.205 487.695C459.466 489.597 457.66 492.083 459.853 493.036C462.893 494.36 463.621 490.592 463.722 488.911C464.133 482.033 463.996 475.118 463.889 468.215C463.871 466.957 462.387 466.719 461.278 466.487L461.415 466.296ZM409.919 373.729C406.116 374.963 403.595 375.869 401.025 376.591C399.112 377.127 396.185 378.426 395.374 377.646C393.473 375.828 396.03 373.688 397.228 370.522C393.652 372.102 392.108 373.652 392.358 376.656C392.676 380.431 391.764 383.336 389.622 385.371C399.988 382.993 406.229 379.637 409.919 373.723V373.729ZM233.483 650.523C241.78 652.651 248.963 652.907 256.957 653.479C250.692 646.046 242.031 644.896 233.483 650.523ZM39.1343 161.713C44.2369 156.169 47.0862 161.808 50.0249 164.342C51.5628 165.671 51.688 167.203 54.4777 166.005C57.3389 164.771 55.1453 163.811 55.0439 162.732C54.8174 160.378 54.6207 157.928 51.1396 158.911C47.5094 159.942 45.1787 158.995 44.4336 154.971C43.9805 152.521 41.3578 155.901 40.6246 153.755C38.7111 154.488 40.8213 155.293 40.5948 156.11C40.0702 157.999 39.7006 159.936 39.2774 161.862C39.2893 161.874 39.1403 161.707 39.1403 161.707L39.1343 161.713ZM177.594 655.858C171.132 652.603 164.796 652.776 156.909 656.704C164.969 659.56 171.287 658.016 177.594 655.858ZM425.387 3.42754C419.85 10.062 419.498 18.5861 416.84 26.2696C423.641 20.0882 422.842 11.1528 425.387 3.42754ZM435.008 409.012C432.856 412.427 425.638 409.501 426.192 416.785C426.311 418.382 422.538 417.285 420.702 418.299C428.4 418.883 433.17 415.789 435.014 409.018L435.008 409.012ZM-1.29831 589.853C4.09033 594.073 7.74435 598.496 14.0867 598.836C11.7739 591.838 7.47015 589.156 -1.29831 589.853ZM346.364 643.173C352.504 643.716 357.577 643.882 362.524 644.753C364.39 645.081 365.183 644.443 365.546 643.298C365.922 642.112 364.736 641.289 363.639 640.979C357.982 639.406 352.474 639.227 346.37 643.173H346.364ZM456.247 447.74C452.51 453.671 452.551 460.138 447.246 464.126C455.186 463.911 458.643 457.933 456.247 447.74ZM447.932 445.904C444.54 452.502 441.917 457.599 439.115 463.047C447.371 459.488 449.934 455.077 447.932 445.904ZM461.278 466.487C462.573 461.917 462.405 458.129 460.771 455.125C458.762 460.639 456.849 465.885 454.727 471.69C458.995 471.518 460.008 468.668 461.421 466.296L461.284 466.487H461.278ZM420.213 452.437C416.983 456.466 416.166 461.229 414.503 466.022C422.228 462.946 423.641 459.518 420.213 452.437ZM248.361 314.419C242.4 318.853 241.226 323.419 244.868 329.756C246.245 324.326 249.458 320.075 248.361 314.419ZM415.051 427.741C422.634 431.753 427.068 427.735 432.016 421.714C425.101 422.138 421.119 427.502 415.051 427.741ZM391.1 410.156C398.569 411.271 404.888 408.064 411.236 404.97C403.732 403.635 397.89 408.344 391.255 410.258C391.226 410.234 391.106 410.15 391.106 410.15L391.1 410.156ZM22.0028 571.011C19.1296 566.057 17.5977 562.367 16.7155 558.409C16.4711 557.307 15.8511 556.031 14.6232 556.186C12.7932 556.418 12.8767 558.248 13.2582 559.375C14.6947 563.607 15.3683 568.465 22.0028 571.005V571.011ZM354.352 106.229C357.726 102.676 358.655 98.6586 358.953 94.2833C354.399 95.8371 352.865 99.8189 354.352 106.229ZM348.254 458.535C347.884 456.693 349.386 453.945 345.011 454.589C342.335 454.982 339.318 453.087 335.426 451.906C338.806 457.855 343.211 458.97 348.438 458.344L348.254 458.529V458.535ZM324.333 242.053C330.621 238.882 331.694 232.349 333.971 226.591C328.929 230.585 326.431 236.218 324.339 242.107V242.053H324.333ZM324.339 242.107C323.194 249.207 317.692 254.774 317.609 262.249C322.336 256.407 325.477 250.005 324.339 242.077C324.333 242.053 324.339 242.107 324.339 242.107ZM417.46 1.15049C416.166 7.56439 414.873 13.9843 413.484 20.875C418.181 17.0482 418.282 16.5951 417.46 1.15049ZM363.329 87.4044C366.25 81.6343 364.932 76.6391 363.883 71.6498C361.737 76.5854 360.968 81.5449 363.329 87.4044ZM381.569 502.764C386.129 501.304 388.573 498.234 388.907 492.613C383.953 494.735 383.018 498.92 381.569 502.764ZM363.353 286.331C369.54 288.25 374.398 286.086 380.282 281.032C373.444 283.172 368.396 284.751 363.353 286.331ZM291.971 612.206C285.754 612.582 279.441 612.683 274.834 618.072C280.544 616.117 286.261 614.161 291.971 612.206ZM381.378 647.435C375.489 650.332 370.631 654.147 367.483 659.959C372.115 655.786 376.747 651.608 381.378 647.435ZM109.413 537.308C105.562 542.47 104.841 546.494 105.115 552.496C108.471 547.453 110.075 543.626 109.413 537.308ZM403.231 610.507C396.376 610.329 390.647 613.345 385.289 617.422C391.267 615.115 397.246 612.814 403.231 610.507ZM427.885 18.3774C427.092 26.6631 425.215 32.8147 423.158 39.7233C427.814 35.4553 429.393 28.6063 427.885 18.3774ZM331.629 109.716C333.703 113.722 337.101 114.282 340.755 114.121C341.929 114.067 343.103 113.394 343.151 112.196C343.205 110.777 341.828 110.592 340.725 110.61C337.685 110.67 334.615 111.129 331.629 109.716ZM191.31 233.565C192.007 230.752 194.839 228.26 192.389 225.208C191.989 224.707 190.165 224.505 189.998 224.773C188.043 227.968 190.219 230.656 191.304 233.565H191.31ZM370.649 487.558C369.212 493.793 367.776 500.028 366.345 506.264C368.133 500.094 372.878 494.515 370.607 487.499C370.583 487.469 370.649 487.558 370.649 487.558ZM399.523 73.7659C401.228 67.8348 407.094 64.1331 407.958 57.749C405.508 63.2748 398.575 66.4221 399.589 73.8077C399.619 73.8375 399.523 73.76 399.523 73.76V73.7659ZM333.566 580.441C335.378 585.364 339.193 587.701 344.379 588.13C340.773 585.567 337.172 583.004 333.566 580.441Z" fill="white"/>
</mask>
<g mask="url(#mask0_53_69697)">
<path d="M462.548 -57.3076H460.51V737.802H462.548V-57.3076Z" fill="#20DABB"/>
<path d="M457.785 -57.3076H455.746V737.802H457.785V-57.3076Z" fill="#20DABB"/>
<path d="M453.015 -57.3076H450.977V737.802H453.015V-57.3076Z" fill="#20DABB"/>
<path d="M448.248 -57.3076H446.209V737.802H448.248V-57.3076Z" fill="#20DABB"/>
<path d="M443.484 -57.3076H441.445V737.802H443.484V-57.3076Z" fill="#20DABB"/>
<path d="M438.716 -57.3076H436.678V737.802H438.716V-57.3076Z" fill="#20DABB"/>
<path d="M433.947 -57.3076H431.908V737.802H433.947V-57.3076Z" fill="#20DABB"/>
<path d="M429.183 -57.3076H427.145V737.802H429.183V-57.3076Z" fill="#20DABB"/>
<path d="M424.416 -57.3076H422.377V737.802H424.416V-57.3076Z" fill="#20DABB"/>
<path d="M419.646 -57.3076H417.607V737.802H419.646V-57.3076Z" fill="#20DABB"/>
<path d="M414.884 -57.3076H412.846V737.802H414.884V-57.3076Z" fill="#20DABB"/>
<path d="M410.117 -57.3076H408.078V737.802H410.117V-57.3076Z" fill="#20DABB"/>
<path d="M405.347 -57.3076H403.309V737.802H405.347V-57.3076Z" fill="#20DABB"/>
<path d="M400.586 -57.3076H398.547V737.802H400.586V-57.3076Z" fill="#20DABB"/>
<path d="M395.816 -57.3076H393.777V737.802H395.816V-57.3076Z" fill="#20DABB"/>
<path d="M391.046 -57.3076H389.008V737.802H391.046V-57.3076Z" fill="#20DABB"/>
<path d="M386.285 -57.3076H384.246V737.802H386.285V-57.3076Z" fill="#20DABB"/>
<path d="M381.515 -57.3076H379.477V737.802H381.515V-57.3076Z" fill="#20DABB"/>
<path d="M376.748 -57.3076H374.709V737.802H376.748V-57.3076Z" fill="#20DABB"/>
<path d="M371.978 -57.3076H369.939V737.802H371.978V-57.3076Z" fill="#20DABB"/>
<path d="M367.216 -57.3076H365.178V737.802H367.216V-57.3076Z" fill="#20DABB"/>
<path d="M362.447 -57.3076H360.408V737.802H362.447V-57.3076Z" fill="#20DABB"/>
<path d="M357.677 -57.3076H355.639V737.802H357.677V-57.3076Z" fill="#20DABB"/>
<path d="M352.916 -57.3076H350.877V737.802H352.916V-57.3076Z" fill="#20DABB"/>
<path d="M348.146 -57.3076H346.107V737.802H348.146V-57.3076Z" fill="#20DABB"/>
<path d="M343.378 -57.3076H341.34V737.802H343.378V-57.3076Z" fill="#20DABB"/>
<path d="M338.615 -57.3076H336.576V737.802H338.615V-57.3076Z" fill="#20DABB"/>
<path d="M333.845 -57.3076H331.807V737.802H333.845V-57.3076Z" fill="#20DABB"/>
<path d="M329.078 -57.3076H327.039V737.802H329.078V-57.3076Z" fill="#20DABB"/>
<path d="M324.314 -57.3076H322.275V737.802H324.314V-57.3076Z" fill="#20DABB"/>
<path d="M319.546 -57.3076H317.508V737.802H319.546V-57.3076Z" fill="#20DABB"/>
<path d="M314.777 -57.3076H312.738V737.802H314.777V-57.3076Z" fill="#20DABB"/>
<path d="M310.015 -57.3076H307.977V737.802H310.015V-57.3076Z" fill="#20DABB"/>
<path d="M305.246 -57.3076H303.207V737.802H305.246V-57.3076Z" fill="#20DABB"/>
<path d="M300.476 -57.3076H298.438V737.802H300.476V-57.3076Z" fill="#20DABB"/>
<path d="M295.714 -57.3076H293.676V737.802H295.714V-57.3076Z" fill="#20DABB"/>
<path d="M290.945 -57.3076H288.906V737.802H290.945V-57.3076Z" fill="#20DABB"/>
<path d="M286.177 -57.3076H284.139V737.802H286.177V-57.3076Z" fill="#20DABB"/>
<path d="M281.408 -57.3076H279.369V737.802H281.408V-57.3076Z" fill="#20DABB"/>
<path d="M276.646 -57.3076H274.607V737.802H276.646V-57.3076Z" fill="#20DABB"/>
<path d="M271.877 -57.3076H269.838V737.802H271.877V-57.3076Z" fill="#20DABB"/>
<path d="M267.109 -57.3076H265.07V737.802H267.109V-57.3076Z" fill="#20DABB"/>
<path d="M262.345 -57.3076H260.307V737.802H262.345V-57.3076Z" fill="#20DABB"/>
<path d="M257.578 -57.3076H255.539V737.802H257.578V-57.3076Z" fill="#20DABB"/>
<path d="M252.808 -57.3076H250.77V737.802H252.808V-57.3076Z" fill="#20DABB"/>
<path d="M248.046 -57.3076H246.008V737.802H248.046V-57.3076Z" fill="#20DABB"/>
<path d="M243.277 -57.3076H241.238V737.802H243.277V-57.3076Z" fill="#20DABB"/>
<path d="M238.507 -57.3076H236.469V737.802H238.507V-57.3076Z" fill="#20DABB"/>
<path d="M233.746 -57.3076H231.707V737.802H233.746V-57.3076Z" fill="#20DABB"/>
<path d="M228.976 -57.3076H226.938V737.802H228.976V-57.3076Z" fill="#20DABB"/>
<path d="M224.209 -57.3076H222.17V737.802H224.209V-57.3076Z" fill="#20DABB"/>
<path d="M219.445 -57.3076H217.406V737.802H219.445V-57.3076Z" fill="#20DABB"/>
<path d="M214.675 -57.3076H212.637V737.802H214.675V-57.3076Z" fill="#20DABB"/>
<path d="M209.908 -57.3076H207.869V737.802H209.908V-57.3076Z" fill="#20DABB"/>
<path d="M205.144 -57.3076H203.105V737.802H205.144V-57.3076Z" fill="#20DABB"/>
<path d="M200.377 -57.3076H198.338V737.802H200.377V-57.3076Z" fill="#20DABB"/>
<path d="M195.607 -57.3076H193.568V737.802H195.607V-57.3076Z" fill="#20DABB"/>
<path d="M190.839 -57.3076H188.801V737.802H190.839V-57.3076Z" fill="#20DABB"/>
<path d="M186.076 -57.3076H184.037V737.802H186.076V-57.3076Z" fill="#20DABB"/>
<path d="M181.306 -57.3076H179.268V737.802H181.306V-57.3076Z" fill="#20DABB"/>
<path d="M176.539 -57.3076H174.5V737.802H176.539V-57.3076Z" fill="#20DABB"/>
<path d="M171.775 -57.3076H169.736V737.802H171.775V-57.3076Z" fill="#20DABB"/>
<path d="M167.007 -57.3076H164.969V737.802H167.007V-57.3076Z" fill="#20DABB"/>
<path d="M162.238 -57.3076H160.199V737.802H162.238V-57.3076Z" fill="#20DABB"/>
<path d="M157.476 -57.3076H155.438V737.802H157.476V-57.3076Z" fill="#20DABB"/>
<path d="M152.707 -57.3076H150.668V737.802H152.707V-57.3076Z" fill="#20DABB"/>
<path d="M147.939 -57.3076H145.9V737.802H147.939V-57.3076Z" fill="#20DABB"/>
<path d="M143.175 -57.3076H141.137V737.802H143.175V-57.3076Z" fill="#20DABB"/>
<path d="M138.408 -57.3076H136.369V737.802H138.408V-57.3076Z" fill="#20DABB"/>
<path d="M133.638 -57.3076H131.6V737.802H133.638V-57.3076Z" fill="#20DABB"/>
<path d="M128.877 -57.3076H126.838V737.802H128.877V-57.3076Z" fill="#20DABB"/>
<path d="M124.107 -57.3076H122.068V737.802H124.107V-57.3076Z" fill="#20DABB"/>
<path d="M119.337 -57.3076H117.299V737.802H119.337V-57.3076Z" fill="#20DABB"/>
<path d="M114.576 -57.3076H112.537V737.802H114.576V-57.3076Z" fill="#20DABB"/>
<path d="M109.806 -57.3076H107.768V737.802H109.806V-57.3076Z" fill="#20DABB"/>
<path d="M105.039 -57.3076H103V737.802H105.039V-57.3076Z" fill="#20DABB"/>
<path d="M100.269 -57.3076H98.2305V737.802H100.269V-57.3076Z" fill="#20DABB"/>
<path d="M95.5054 -57.3076H93.4668V737.802H95.5054V-57.3076Z" fill="#20DABB"/>
<path d="M90.7378 -57.3076H88.6992V737.802H90.7378V-57.3076Z" fill="#20DABB"/>
<path d="M85.9683 -57.3076H83.9297V737.802H85.9683V-57.3076Z" fill="#20DABB"/>
<path d="M81.2066 -57.3076H79.168V737.802H81.2066V-57.3076Z" fill="#20DABB"/>
<path d="M76.4371 -57.3076H74.3984V737.802H76.4371V-57.3076Z" fill="#20DABB"/>
<path d="M71.6695 -57.3076H69.6309V737.802H71.6695V-57.3076Z" fill="#20DABB"/>
<path d="M66.9058 -57.3076H64.8672V737.802H66.9058V-57.3076Z" fill="#20DABB"/>
<path d="M62.1363 -57.3076H60.0977V737.802H62.1363V-57.3076Z" fill="#20DABB"/>
<path d="M57.3687 -57.3076H55.3301V737.802H57.3687V-57.3076Z" fill="#20DABB"/>
<path d="M52.605 -57.3076H50.5664V737.802H52.605V-57.3076Z" fill="#20DABB"/>
<path d="M47.8374 -57.3076H45.7988V737.802H47.8374V-57.3076Z" fill="#20DABB"/>
<path d="M43.0679 -57.3076H41.0293V737.802H43.0679V-57.3076Z" fill="#20DABB"/>
<path d="M38.3062 -57.3076H36.2676V737.802H38.3062V-57.3076Z" fill="#20DABB"/>
<path d="M33.5386 -57.3076H31.5V737.802H33.5386V-57.3076Z" fill="#20DABB"/>
<path d="M28.7691 -57.3076H26.7305V737.802H28.7691V-57.3076Z" fill="#20DABB"/>
<path d="M24.0054 -57.3076H21.9668V737.802H24.0054V-57.3076Z" fill="#20DABB"/>
<path d="M19.2378 -57.3076H17.1992V737.802H19.2378V-57.3076Z" fill="#20DABB"/>
<path d="M14.4683 -57.3076H12.4297V737.802H14.4683V-57.3076Z" fill="#20DABB"/>
<path d="M9.70073 -57.3076H7.66211V737.802H9.70073V-57.3076Z" fill="#20DABB"/>
<path d="M4.93706 -57.3076H2.89844V737.802H4.93706V-57.3076Z" fill="#20DABB"/>
<path d="M0.167528 -57.3076H-1.87109V737.802H0.167528V-57.3076Z" fill="#20DABB"/>
</g>
</svg>
