<svg width="564" height="463" viewBox="0 0 564 463" fill="none" xmlns="http://www.w3.org/2000/svg">
<mask id="mask0_53_101366" style="mask-type:luminance" maskUnits="userSpaceOnUse" x="-30" y="0" width="594" height="463">
<path d="M465.322 391.341C463.463 381.457 466.146 381.262 473.676 386.819C478.204 390.161 485.404 387.243 484.36 382.986C482.956 377.29 487.798 377.135 489.746 374.506C490.901 372.952 492.929 372.438 494.323 373.707C495.783 375.041 494.279 376.455 493.084 377.26C490.706 378.869 491.091 381.252 492.919 381.987C500.729 385.135 495.927 387.088 492.495 389.297C491.34 390.037 490.686 391.056 491.116 392.365C493.469 399.486 488.767 400.68 483.425 401.609C482.071 398.826 486.438 398.062 484.745 395.063C482.481 395.418 479.463 395.083 477.669 396.363C475.135 398.161 480.557 399.995 478.868 402.379C475.795 403.678 472.207 401.26 469.134 404.358C476.999 407.85 484.799 403.498 492.39 405.272C489.452 406.696 486.418 407.291 483.42 408.015C482.001 408.36 479.933 408.805 480.312 410.509C480.867 413.012 483.245 412.088 484.595 411.403C488.712 409.31 494.643 409.959 494.638 413.177C494.628 417.979 497.991 416.82 500.345 418.309C495.503 420.308 491.22 422.411 486.938 423.796C481.546 425.539 475.061 427.438 470.653 420.667C468.819 417.849 465.342 418.534 463.293 420.128C459.7 422.926 457.646 421.082 454.843 419.018C445.854 412.408 435.47 411.283 425.117 414.187C419.55 415.746 414.758 417.22 409.701 413.637C410.241 412.433 411.265 411.898 412.49 411.418C414.453 410.644 417.691 411.808 418.271 409.07C418.971 405.757 415.118 406.791 413.594 405.482C411.265 403.483 410.571 401.12 411.32 398.261C412.2 394.899 414.798 396.862 416.707 396.453C418.566 396.053 420.779 397.137 422.333 395.463C421.899 391.83 413.954 392.125 416.682 389.437C420.125 386.039 419.31 380.173 424.882 378.264C426.711 380.762 427.915 385.414 432.217 383.596C435.995 381.997 433.442 378.209 433.232 375.341C441.906 375.656 442.586 379.643 441.357 388.138C440.857 391.601 441.267 393.759 442.931 396.293C447.867 392.135 443.305 386.339 446.264 380.702C447.937 385 449.237 388.258 453.404 388.642C456.752 388.952 460.16 390.581 463.173 387.468C464.062 391.041 461.574 393.924 464.002 397.252C466.026 395.228 465.646 392.94 465.347 391.336L465.322 391.341ZM-7.75314 261.317C-7.66819 256.55 -4.9199 255.735 -2.33152 255.006C2.09572 253.757 1.24125 249.809 1.18129 247.191C1.11133 244.193 -1.64195 243.633 -4.42521 245.342C-5.60947 246.071 -6.50391 245.862 -7.38336 244.432C-10.2316 239.8 -15.1085 240.125 -18.4165 242.479C-19.6307 243.343 -23.3284 250.374 -15.928 252.143C-14.9237 252.382 -14.4889 253.727 -15.2884 254.526C-15.8681 255.106 -17.0873 255.531 -17.8968 255.381C-20.5501 254.886 -22.0992 252.972 -23.4583 250.833C-24.4827 249.219 -26.1367 248.21 -27.8406 249.584C-29.7244 251.103 -27.6857 251.968 -26.7113 252.882C-24.5077 254.946 -24.2528 258.094 -26.2116 259.358C-30.5739 262.171 -29.6595 266.004 -29.5295 269.747C-29.4096 273.169 -27.0311 271.74 -25.3821 271.116C-23.0136 270.216 -20.7001 269.922 -19.7506 272.65C-18.7813 275.433 -21.4596 275.468 -23.2485 276.193C-24.3228 276.627 -25.1073 277.692 -26.0867 278.391C-31.3767 282.159 -31.3034 285.967 -25.8668 289.814C-25.4871 290.084 -25.2122 290.514 -24.9524 290.913C-19.206 299.693 -18.2016 299.708 -10.1966 291.983C-7.4933 289.379 -5.32465 286.002 -1.05232 285.292C1.27623 284.902 1.28123 283.148 1.05637 281.344C0.651621 278.071 1.26124 274.269 3.52982 272.575C9.52109 268.093 5.05387 264.56 2.87524 261.192C0.196907 257.045 -3.69067 259.493 -7.75813 261.322L-7.75314 261.317ZM26.3456 313.379C28.6042 309.942 31.9771 306.699 29.6235 301.312C28.954 299.778 30.6429 297.309 31.2076 295.261C31.4924 294.226 32.122 293.382 33.2213 293.612C34.6654 293.912 35.3949 295.156 34.5605 296.345C32.3918 299.443 33.3412 302.047 36.0695 303.9C38.8778 305.809 40.3618 302.541 42.5005 301.717C46.7878 300.058 45.1039 296.365 45.2188 293.572C45.3387 290.664 42.1707 291.063 40.7066 291.638C36.3593 293.352 33.8359 289.519 30.2981 288.88C28.1994 288.505 27.9446 286.406 28.5192 284.707C28.864 283.683 29.8184 282.359 30.7678 282.109C33.771 281.309 32.4967 283.913 33.2113 285.112C34.4605 287.211 37.1638 289.339 39.3275 288.305C43.2301 286.436 44.2294 281.884 43.7497 278.316C43.1351 273.779 42.9802 267.433 34.1207 271.116C30.2681 272.72 25.0164 273.699 20.2694 271.471C19.0152 270.881 17.0614 270.836 16.4018 272.57C15.9171 273.854 15.7472 275.323 17.0764 276.597C18.8253 278.271 20.5192 281.1 22.0333 281.744C30.6979 285.412 23.3475 288.95 22.3631 292.388C21.8734 294.091 20.1894 294.231 18.6504 293.487C16.8065 292.592 16.8615 290.923 18.0757 289.914C21.6585 286.941 18.0508 285.292 16.8515 283.358C15.8571 281.754 13.3487 282.174 13.1738 283.358C12.7791 285.967 10.2256 289.085 12.6491 291.183C14.3881 292.687 15.0876 292.937 13.2138 294.596C9.04139 298.294 12.5842 303.046 14.6479 303.865C19.8746 305.934 21.1388 311.536 26.3456 313.384V313.379ZM392.197 345.639C394.466 343.431 396.065 340.433 398.129 340.113C407.243 338.684 404.824 333.782 402.611 328.485C401.971 326.961 401.611 325.007 402.001 323.468C403.12 319.056 400.752 318.066 396.979 317.572C394.236 317.212 390.513 315.858 389.249 318.012C387.71 320.64 390.418 323.273 393.272 324.957C387.265 331.338 384.392 324.393 379.755 322.874C382.009 325.577 378.421 330.734 385.232 331.803C388.615 332.333 390.603 335.296 387.63 338.809C387.055 339.488 385.546 340.318 385.641 340.503C389.024 346.934 391.982 353.694 396.305 359.496C398.358 362.254 410.621 358.381 411.895 355.318C413.719 350.946 409.596 342.926 404.749 340.912C402.581 340.013 401.536 341.617 399.997 342.156C397.549 343.021 396.21 345.989 392.197 345.639ZM232.017 458.484C227.72 455.191 224.662 453.142 225.321 448.85C222.233 450.004 223.148 452.762 221.594 453.902C219.605 455.361 217.261 456.295 214.738 455.316C212.569 454.476 211.63 452.842 212.739 450.629C216.877 442.354 208.922 439.471 204.594 435.983C203.01 434.704 202.216 434.689 202.766 432.765C203.26 431.041 203.51 429.247 201.047 428.737C199.887 428.498 198.643 428.632 197.439 428.598C197.454 430.231 197.254 431.9 197.519 433.499C198.238 437.847 202.241 439.261 207.672 441.744C203.345 441.874 201.261 441.939 199.188 442.004C198.803 444.722 201.391 444.548 202.391 445.767C203.73 447.401 204.25 452.697 203.03 454.731C202.346 455.875 201.766 457.849 202.331 458.759C203.46 460.573 204.754 459.643 205.384 457.964C205.639 457.28 206.448 456.305 206.723 456.89C208.792 461.267 213.964 458.219 215.752 459.968C221.988 466.069 225.701 459.433 232.012 458.489L232.017 458.484ZM370.581 351.331C368.327 353.679 365.499 355.613 364.23 358.251C363.045 360.71 362.201 361.994 359.418 361.03C358.248 360.625 356.43 359.775 357.249 358.686C358.648 356.822 357.879 353.409 361.756 353.065C363.265 352.93 365.194 354.639 366.483 352.545C357.284 348.762 352.807 350.301 348.669 358.646C345.581 364.867 343.673 365.132 339.43 359.86C338.446 358.636 336.942 357.037 336.197 359.106C334.968 362.544 337.207 365.977 338.436 369.115C339.135 370.904 341.799 371.023 344.627 369.854C353.501 366.181 361.761 360.625 372.115 360.795C373.544 360.82 375.972 358.651 376.227 357.202C376.677 354.654 374.323 355.578 372.59 355.458C369.821 355.263 373.509 352.285 370.571 351.326L370.581 351.331ZM350.718 382.741C355.83 376.025 347.11 378.914 345.451 377.404C342.248 374.491 337.521 378.364 333.189 378.259C331.245 378.214 331.01 382.171 331.29 384.66C331.835 389.487 345.996 397.737 350.528 395.908C352.122 395.263 351.907 394.329 351.418 393.045C350.184 389.832 350.563 386.484 350.718 382.741ZM396.819 296.45C397.354 293.267 403.12 292.253 398.878 288.74C395.36 285.832 392.202 281.24 387.035 282.409C383.473 283.218 383.298 287.561 384.292 290.459C386.966 298.234 398.194 304.265 407.608 303.236C404.774 299.753 402.781 295.71 396.819 296.45ZM147.235 364.488C143.742 359.706 137.496 358.506 140.889 352.14C141.659 350.691 137.046 348.512 134.668 348.323C130.805 348.013 134.493 350.741 133.789 351.715C132.22 353.899 130.231 355.688 127.757 357.007C121.296 360.455 121.076 362.983 125.784 368.255C127.832 370.549 133.569 374.821 124.12 374.821C122.635 374.821 121.531 375.735 122.276 377.12C123.39 379.198 124.155 381.772 127.108 382.296C128.657 382.571 130.101 382.746 130.406 380.592C130.975 376.54 131.645 372.632 129.166 368.725C127.782 366.541 126.443 363.453 128.432 361.2C130.471 358.886 133.404 360.04 136.092 361.06C139.195 362.234 142.443 363.033 147.235 364.483V364.488ZM196.489 411.593C189.389 407.616 185.476 409.135 183.692 418.394C181.689 410.849 177.146 408.32 174.203 404.488C171.49 400.955 167.418 400.43 163.025 400.895C162.825 403.448 163.175 406.436 166.173 406.471C173.379 406.556 174.543 412.083 176.627 416.575C178.75 421.142 182.538 422.471 186.396 418.919C189.244 416.295 191.627 413.222 196.484 411.593H196.489ZM414.139 89.9988C413.614 90.4386 413.169 90.8533 412.779 91.2381C413.349 91.0232 413.829 90.6434 414.139 89.9988ZM-21.0149 133.552C-25.0074 133.407 -25.7219 130.399 -27.7506 128.03C-25.0124 127.176 -23.8731 130.613 -22.6938 129.664C-15.2634 123.703 -16.4027 132.612 -13.4496 134.376C-10.7712 135.98 -11.6107 139.458 -9.38212 141.322C-7.38336 139.443 -8.24782 137.819 -9.07731 136.42C-10.0667 134.751 -10.7063 133.427 -8.43271 132.292C-6.26406 131.213 -5.27468 131.958 -4.61509 134.061C-2.78623 139.923 2.07074 137.174 4.61915 135.955C8.16194 134.261 4.3643 131.413 3.77967 129.074C3.43488 127.69 0.38179 127.286 2.19566 124.852C12.0095 128.84 22.0283 131.683 32.7816 129.354C27.26 123.718 17.1963 124.722 14.0183 115.203C11.7547 119.785 16.047 121.284 15.1826 124.532C10.7553 123.468 8.82153 121.194 9.17131 116.927C9.58605 111.83 9.21128 108.442 2.52546 112.735C0.581667 113.984 -4.03545 116.227 -6.72377 112.295C-8.98236 108.992 -6.87868 107.238 -3.94051 105.424C-1.68192 104.03 -4.56512 97.5042 -7.11853 96.2249C-10.4964 94.536 -14.379 97.3393 -17.2122 94.8058C-18.1616 93.9564 -21.4196 94.2962 -19.9055 91.5678C-19.2709 90.4236 -19.211 88.5048 -17.0273 88.8446C-11.171 89.754 -6.59886 84.962 -0.842447 86.1712C-0.762499 81.8289 -5.39461 84.6722 -6.11915 82.0688C-2.50141 79.4654 -2.3515 72.6247 4.51421 74.2037C4.71908 74.2487 5.39866 72.6796 5.71846 71.8152C8.02202 65.639 14.0233 66.8883 18.5105 66.8333C21.5436 66.7983 20.0395 65.9438 20.894 64.8595C25.3312 59.2081 20.1495 56.6496 17.5511 52.9869C22.413 49.9688 27.4299 48.4698 33.701 48.3998C29.0189 43.4829 30.7878 37.0869 34.1057 37.3267C38.558 37.6465 44.5892 35.4829 48.5417 40.3348C49.8259 41.9088 52.1045 43.9826 54.3381 42.2436C56.2469 40.7596 53.1339 39.4104 53.0939 37.9763C53.0089 35.0231 53.4787 32.055 53.7185 29.0918C55.5723 32.2948 54.0283 36.3973 58.0508 38.5409C59.4299 39.2755 60.3644 41.659 62.3281 39.7202C63.7972 38.2711 63.6373 36.6721 61.8334 35.3779C60.0445 34.0937 59.0152 32.6147 61.1889 29.6965C65.5361 35.5578 71.3875 34.2836 76.7042 32.1499C81.4862 30.2311 85.3538 29.9213 89.1514 35.188C89.9959 30.6809 89.3513 24.1599 95.4125 29.1568C99.7498 32.7346 100.349 30.486 102.293 27.6028C103.173 26.2936 102.708 22.8557 105.856 24.015C111.412 26.0587 117.219 22.486 123.13 25.7339C125.689 27.1381 129.531 25.4141 127.647 30.471C127.163 31.7652 127.537 32.9045 129.012 33.3842C130.266 33.7939 131.995 33.8289 132.17 32.4697C133.184 24.7745 142.588 23.2205 144.557 16.2499C145.181 14.0412 147 11.6527 149.314 13.4116C151.363 14.9707 149.169 16.8145 147.37 17.8389C146.191 18.5134 145.057 19.4678 145.971 20.6571C147.16 22.1961 148.609 21.4216 149.569 20.1124C150.123 19.3529 150.208 18.1986 152.037 18.3835C151.962 22.3211 154.805 23.955 158.073 25.579C159.852 21.0269 153.666 18.6084 156.319 14.1312C158.433 10.5584 161.596 8.48471 164.694 6.05623C168.922 2.7433 169.401 7.91006 171.765 8.72955C175.388 9.98876 173.724 11.183 171.71 12.4622C170.8 13.0369 170.486 14.0512 171.445 14.8707C172.689 15.9351 173.874 15.8151 175.503 15.0956C179.61 13.2917 176.352 9.37414 178.031 6.79076C183.478 12.6571 187.875 13.5266 194.785 10.6683C197.324 9.619 197.304 5.50157 200.807 5.99127C211.15 7.45036 221.909 5.58152 232.512 10.6584C232.837 6.68583 233.092 3.5378 233.346 0.384766C233.786 5.03187 238.023 6.7258 240.327 9.48408C242.101 11.6028 245.214 12.0925 246.913 9.82387C252.529 2.33854 253.269 7.88508 254.573 12.1724C257.361 12.822 257.541 4.19739 262.133 10.3336C262.493 10.8133 266.351 10.5334 266.231 8.49469C266.066 5.72143 266.606 5.62149 268.939 6.50094C272.042 7.67521 270.408 8.76953 269.144 10.0837C265.956 13.3867 269.349 16.2748 270.828 18.1986C272.322 20.1424 275.285 18.9632 276.654 16.2249C277.294 14.9457 278.268 15.0106 279.603 16.1199C284.934 20.5572 289.531 19.6577 293.039 13.8663C294.848 10.8832 296.472 13.9113 298.171 13.9613C299.965 14.0113 300.904 15.5253 300.884 16.9694C300.854 19.0981 298.581 18.2186 297.381 18.8332C296.292 19.3929 295.248 20.0275 294.183 20.6321C292.614 21.5316 289.506 20.1424 289.446 22.9757C289.416 24.3898 290.696 26.2136 291.935 27.198C294.004 28.842 296.192 26.7983 297.142 25.7339C300.844 21.5815 302.308 23.7152 303.598 27.3929C304.077 28.762 304.387 30.5809 306.061 30.7108C308.16 30.8707 308.979 29.1268 309.279 27.3579C309.499 26.0887 309.904 25.0244 311.418 24.2099C313.027 25.674 314.151 27.4279 316.789 28.4922C322.131 30.6509 326.933 34.6784 328.952 40.6946C330.511 45.3417 333.269 48.8995 338.935 48.8895C341.419 48.8895 342.993 50.6584 345.032 51.4279C347.125 52.2224 350.398 50.0987 351.453 53.4966C352.442 56.6946 346.771 53.7764 347.545 57.1144C347.71 57.8189 347.855 58.6134 348.285 59.1581C350.648 62.1662 347.87 63.9351 346.046 66.4185C348.774 66.3886 350.908 66.3686 353.147 66.3436C352.672 67.8727 352.187 69.2218 351.837 70.5959C349.074 81.3592 351.503 85.4967 363.105 87.3805C366.588 87.9451 365.844 91.248 368.287 92.2724C370.301 88.05 372.145 84.1825 373.899 80.4998C377.901 80.9595 379.1 86.471 384.097 84.1025C392.052 80.3249 397.849 83.7227 399.628 92.2374C400.102 94.511 402.406 96.0451 404.804 96.8645C405.479 97.0944 406.703 96.9145 406.433 96.09C404.085 88.8845 409.771 92.3624 412.794 91.2231C406.688 97.3392 416.902 96.8995 417.282 100.547C412.989 101.722 406.458 100.587 407.403 107.948C412.515 109.237 419.72 104.58 422.583 110.996C424.652 115.638 418.171 117.622 415.263 121.004C416.422 115.583 415.573 111.6 408.237 109.816C416.812 117.816 406.054 115.878 404.754 118.731C409.476 122.853 414.129 126.536 421.044 124.707C423.183 124.143 425.022 125.387 425.806 127.351C426.466 129.009 426.161 130.728 424.397 131.833C419.55 134.871 414.803 133.906 410.136 131.353C409.831 131.188 409.661 130.574 409.636 130.159C409.486 127.5 409.232 127.066 407.788 127.92C405.354 129.359 401.796 129.014 400.287 132.023C402.536 134.836 408.772 132.922 408.317 138.319C407.987 142.211 405.139 143.885 401.152 144.21C398.328 144.44 400.152 146.164 400.462 147.333C400.937 149.142 401.601 150.031 403.245 148.103C405.299 145.694 408.602 145.879 410.616 146.928C413.199 148.272 411.051 150.291 409.936 152.205C408.807 154.139 409.926 156.193 411.47 158.136C416.077 163.943 420.035 157.197 424.427 157.792C428.25 158.311 430.948 155.613 432.747 152.565C436.894 145.524 446.408 144.245 452.994 149.941C453.834 150.671 454.124 151.48 453.894 152.505C449.212 151.061 446.139 157.682 443.235 156.088C436.839 152.575 437.039 158.451 434.306 160.3C431.013 162.529 426.871 162.878 422.983 163.683C422.888 163.703 422.788 164.148 422.848 164.352C424.792 171.058 420.22 168.615 417.556 167.56C414.848 166.486 413.109 167.77 411.415 169.005C409.142 170.668 406.898 172.257 403.945 171.593C399.982 170.703 400.137 173.617 399.558 175.785C398.783 178.668 400.622 179.488 403.115 180.223C404.964 180.767 407.443 180.697 408.252 182.211C407.158 186.584 403.195 180.782 402.061 185.274C403.745 186.778 407.738 185.179 408.242 187.918C409.836 196.542 414.563 189.572 417.751 189.852C418.526 189.916 419.82 186.239 420.2 188.422C420.924 192.59 429.614 191.69 426.076 196.712C423.203 200.785 427.095 200.105 428.025 200.05C430.498 199.905 432.927 199.001 435.37 198.396C429.259 197.941 428.38 192.775 425.776 189.547C425.452 189.147 425.666 188.003 426.051 187.513C426.391 187.078 427.315 187.083 427.985 186.888C429.599 193.834 438.244 191.031 441.447 196.647C441.776 192.395 434.886 189.347 440.512 185.454C444.655 192.405 445.559 192.46 450.176 186.279C451.92 183.94 454.139 183.276 456.532 185.489C458.086 186.923 459.455 188.542 461.139 190.321C455.558 193.684 449.222 194.084 442.246 197.042C446.763 198.271 449.866 199.85 452.844 198.281C457.606 195.783 461.204 198.306 464.147 200.86C466.346 202.773 467.285 205.457 471.183 204.287C472.067 204.023 473.831 206.486 475.195 207.695C465.606 209.794 473.691 216.12 470.938 220.617C474.041 219.693 475.97 219.168 477.859 218.539C479.688 217.929 481.472 216.56 483.32 218.514C478.009 225.03 478.229 228.348 484.714 233.479C488.402 236.397 484.285 237.307 482.836 238.601C485.709 240.38 489.611 236.982 489.357 238.521C488.482 243.783 499.95 241.614 495.073 248.245C501.839 251.933 498.341 259.353 501.514 264.245C504.642 260.003 516.125 257.894 519.778 261.837C522.031 264.275 522.506 263.825 524.779 262.446C526.763 261.242 529.507 260.982 531.965 260.772C536.752 260.363 541.874 259.933 539.73 267.478C542.883 267.323 544.777 264.98 547.835 265.24C552.187 265.609 554.351 267.873 552.807 271.855C552.092 273.699 553.202 274.129 554.436 274.194C557.759 274.364 560.257 277.472 564 276.363C561.751 278.481 559.243 279.99 556.605 278.526C554.746 277.492 553.542 275.218 550.968 275.498C544.167 276.238 537.701 274.659 531.59 272.155C525.059 269.477 521.756 277.082 515.95 276.023C518.294 282.724 511.278 279.915 508.774 281.854C510.803 284.043 512.447 285.822 514.621 288.165C510.219 288.985 509.029 293.017 505.711 294.886C504.697 289.974 502.588 287.88 498.136 291.318C496.572 292.527 493.649 292.927 494.194 291.328C496.587 284.273 489.471 288.315 488.032 285.892C489.971 284.138 493.014 287.416 494.873 284.103C492.155 281.299 490.436 276.078 485.134 281.749C483.7 283.283 481.836 281.439 480.207 281.449C472.037 281.494 463.193 280.165 459.36 290.099C458.741 291.713 457.027 291.973 455.618 291.058C454.398 290.269 455.173 288.97 455.128 287.92C454.853 281.449 459.13 279.81 465.536 279.031C458.661 273.894 451.435 276.577 444.09 274.963C447.348 272.585 449.037 270.386 452.04 270.716C451.026 268.677 450.406 266.554 447.353 265.924C444.769 265.394 444.46 263.506 445.769 260.882C447.298 257.819 450.271 258.539 452.664 258.144C451.62 254.706 448.662 255.61 446.923 254.436C435.715 246.856 423.648 242.699 409.856 245.492C408.037 245.862 405.484 245.862 405.144 248.32C404.819 250.664 407.198 252.343 408.697 252.502C414.993 253.187 414.258 257.809 415.808 262.026C410.971 261.622 410.876 253.127 404.355 257.604C399.997 260.597 407.308 261.757 403.68 264.6C396.849 257.929 385.651 271.735 379.29 258.973C378.826 261.412 378.476 263.246 377.876 266.404C377.172 262.501 373.104 264.215 372.989 261.802C372.579 252.767 370.541 251.453 362.666 255.745C361.152 256.57 359.678 258.349 358.678 255.466C358.069 253.707 357.549 251.938 355.235 252.767C352.882 253.612 350.583 254.946 350.573 257.834C350.548 266.144 345.511 264.9 339.975 263.486C340.644 261.032 342.283 260.567 344.122 260.437C348.045 260.158 348.719 257.434 349.154 254.391C349.334 253.137 349.834 251.963 348 251.573C344.867 250.908 343.273 252.642 341.299 254.731C339.675 256.445 337.661 260.228 334.014 255.276C331.67 252.093 326.808 252.607 322.401 255.78C326.188 257.314 329.322 258.234 332.025 259.838C333.284 260.582 333.749 262.636 334.428 264.155C334.483 264.28 333.459 265.175 332.949 265.16C331.775 265.125 330.271 262.786 329.576 265.404C329.137 267.048 331.285 267.393 332.105 268.343C335.932 272.775 340.265 266.883 344.747 269.092C340.33 271.471 338.361 273.444 343.952 275.968C345.836 276.817 347.585 278.876 346.251 281.439C345.871 282.174 344.172 283.193 344.112 282.579C343.733 278.751 338.91 280.355 337.841 277.247C335.408 270.206 330.306 270.206 324.315 272.85C321.327 274.164 318.263 276.378 315.105 272.685C314.386 271.84 312.222 272.36 312.602 273.979C314.471 281.964 307.55 280.96 303.333 282.739C307.09 281.095 308.919 278.306 304.527 276.148C299.055 273.454 302.693 271.75 304.637 270.181C307.78 267.638 308.495 265.744 303.787 264.73C299.545 263.815 302.528 262.451 302.853 260.707C303.078 259.513 300.415 258.779 298.556 258.809C295.648 258.858 293.194 259.438 291.795 262.331C289.501 267.083 293.719 277.097 298.92 278.931C292.979 284.832 285.159 285.582 277.324 285.942C274.935 286.051 273.516 289.319 270.773 287.486C270.073 290.139 272.862 290.449 273.916 291.923C275.405 294.007 275.91 296.655 275.16 298.858C273.017 305.155 269.839 310.686 262.278 312.43C259.605 313.045 255.523 312.62 255.208 316.507C254.803 321.519 251.76 320.17 249.022 319.286C248.037 318.971 246.863 316.882 246.098 318.106C242.261 324.243 242.701 318.266 242.311 316.767C241.831 314.908 240.457 313.859 239.303 312.71C238.143 311.556 236.31 310.091 234.98 310.261C232.797 310.536 233.616 313.01 233.396 314.564C232.722 319.286 233.201 324.428 231.418 328.685C231.687 329.774 229.684 330.789 228.544 330.998C227.405 331.208 226.161 331.073 225.161 331.628C222.993 332.837 223.652 336.08 225.082 338.084C226.016 339.393 227.22 340.932 226.591 342.396C226.301 343.066 225.681 343.531 225.087 343.965C222.253 346.034 219.275 348.168 215.772 348.762C212.27 349.357 208.102 347.873 206.928 344.615C206.528 343.506 206.458 342.206 205.589 341.382C204.354 340.208 202.111 340.777 201.107 342.132C200.102 343.486 200.047 345.285 200.212 346.944C195.755 346.084 190.893 347.713 187.95 351.046C186.965 347.738 186.031 344 187.805 341.032C188.275 340.253 188.914 339.563 189.269 338.729C189.629 337.894 189.214 336.31 188.509 335.71C189.034 333.862 188.934 331.858 189.239 329.944C189.474 328.485 189.029 327.651 187.465 327.381C185.656 327.071 185.706 328.2 185.316 329.439C183.413 335.421 181.294 341.337 179.275 347.283C178.471 349.662 177.396 352.635 174.543 352.035C171.43 351.381 172.15 348.168 171.81 345.534C171.145 340.413 175.103 335.211 170.481 329.994C167.877 327.056 162.516 324.433 165.424 318.731C165.933 317.732 164.849 316.612 163.45 316.078C160.897 315.103 142.498 319.271 142.253 321.549C141.399 329.494 135.602 323.663 132.574 325.187C129.201 326.886 126.778 331.153 121.841 328.61C120.947 328.15 119.333 329.17 119.118 327.201C118.603 322.509 113.701 322.184 111.767 319.571C109.609 320.65 113.136 322.584 109.224 323.558C110.928 317.547 104.802 316.857 102.073 313.789C103.393 312.04 106.795 313.519 106.366 311.121C105.576 306.719 101.769 304.425 98.0708 302.291C96.5068 305.259 89.836 304.21 91.6948 309.862C93.1039 314.154 89.1564 314.319 87.0327 314.529C84.8441 314.744 82.9703 312.88 83.4999 310.087C83.9097 307.938 84.1895 305.764 84.6642 303.631C84.959 302.301 87.9272 301.197 84.994 299.673C84.1545 299.238 82.9053 298.774 82.1707 299.073C80.177 299.888 80.112 301.782 80.7217 303.451C81.691 306.119 80.8466 308.098 78.7629 309.922C77.9784 307.998 78.2382 305.18 75.0602 305.334C74.3956 305.369 73.1314 306.953 73.2763 307.198C75.315 310.636 67.9996 310.401 70.3831 314.374C70.8528 315.158 67.3 314.734 67.1501 313.739C66.5355 309.687 64.6567 310.286 61.4037 310.986C58.7104 311.566 55.7073 310.057 53.8035 306.839C59.415 306.948 63.0677 299.963 69.4687 303.76C70.1582 304.17 70.9827 303.306 70.7079 302.581C68.1345 295.845 73.6261 293.622 77.7535 290.729C79.5424 289.474 78.9927 286.751 78.4081 287.186C73.5162 290.823 71.7672 284.622 69.1589 284.752C66.5105 284.882 65.3512 285.977 66.3656 282.719C68.3144 276.462 65.2763 274.239 58.7454 274.699C61.0739 272.56 66.8303 272.55 64.6067 270.371C59.305 265.174 64.6966 264.99 66.9902 263.511C68.8641 262.301 71.6673 261.762 70.2782 258.888C67.8397 253.842 71.5774 251.253 74.4256 248.47C75.4599 247.456 77.4987 246.801 76.3944 245.317C72.7716 240.445 77.9384 239.396 79.4375 236.507C82.2557 239.191 79.5224 244.632 82.8103 244.747C90.1108 245.002 90.2207 249.06 90.0059 254.331C91.7698 251.073 96.4119 248.8 92.2544 244.562C94.1433 243.563 91.325 239.256 95.1177 240.165C96.4718 240.49 97.0165 241.794 98.0708 239.91C98.9853 238.276 99.0302 237.227 96.8566 236.767C96.0971 236.607 94.4581 236.882 95.5274 235.268C96.0421 234.489 96.6267 233.929 97.9459 234.748C100.504 236.342 102.473 238.536 105.186 242.049C104.857 237.347 106.955 234.584 102.253 231.855C100.045 230.576 94.3981 224.795 100.115 219.818C100.999 219.048 101.559 218.324 100.499 217.529C96.3769 214.441 94.3482 207.545 86.4031 210.594C87.4774 211.883 88.4918 213.097 89.5012 214.321C90.7254 215.8 91.5799 209.809 92.7492 214.141C93.1989 215.795 91.0902 217.359 90.0608 216.99C85.8884 215.486 79.0027 229.257 77.1639 214.866C77.1089 214.436 75.2651 213.732 74.4855 213.946C71.3275 214.816 71.3975 210.823 67.8897 210.084C71.8122 216.055 68.914 217.015 64.137 217.144C62.4231 217.194 60.5442 220.138 58.9302 218.244C57.0564 216.05 59.1751 214.236 61.1838 213.022C63.4724 211.638 63.6923 209.869 61.7185 208.345C59.0202 206.261 58.6954 209.509 57.4262 210.534C55.2126 212.322 55.3875 217.03 49.786 215.555C56.077 211.483 51.8797 206.466 49.2863 204.942C39.4474 199.156 29.8634 207.7 19.8347 206.771C19.275 206.721 18.0608 208.1 18.0408 208.84C17.9608 212.023 14.508 212.522 13.1438 214.911C11.1501 218.384 5.48361 214.706 2.41053 217.834C1.5011 215.166 2.02077 212.892 4.02452 210.783C5.63351 209.089 3.60978 207.351 2.78029 207.98C0.751558 209.524 -3.20597 205.687 -2.61134 208.545C-1.64694 213.157 -6.77874 215.575 -4.32528 220.193C-8.18786 219.088 -7.59823 214.971 -10.8612 214.651C-12.0754 216.16 -11.181 217.329 -10.3465 218.584C-9.19723 220.313 -6.93365 223.101 -9.42209 223.925C-11.7706 224.705 -12.1504 229.002 -15.2385 227.068C-17.3971 225.714 -19.6907 224.07 -18.8962 220.642C-18.1167 217.299 -21.1997 214.871 -22.0542 211.838C-22.4889 210.289 -24.4577 208.58 -22.2141 207.471C-17.532 205.152 -21.1598 202.074 -21.2197 198.976C-18.4914 199.041 -14.9636 204.158 -13.3746 197.547C-12.4002 193.494 -9.37212 190.216 -5.2347 196.113C-4.03545 193.629 -4.16537 191.985 -5.31965 190.091C-8.59261 184.715 -6.60885 181.257 -0.667555 179.803C0.811523 179.443 1.91583 177.724 1.80091 177.649C-3.22596 174.381 0.156931 169.549 -0.807467 165.582C-1.19722 163.978 -2.88117 163.013 -4.31528 163.863C-9.97675 167.206 -10.3265 164.158 -10.3515 159.71C-10.3615 157.886 -13.3496 156.247 -9.33715 154.579C-7.58324 153.849 -11.0261 151.031 -11.4758 151.615C-14.8887 156.073 -18.7363 148.442 -22.459 152.225C-23.5533 153.334 -25.0024 149.826 -23.953 148.822C-22.5039 147.438 -20.4452 145.059 -18.1866 146.204C-14.1391 148.252 -10.0767 147.023 -5.80435 147.893C-7.24845 143.256 -10.3765 143.535 -13.8443 143.58C-16.9424 143.62 -21.1448 143.72 -18.4415 138.314C-17.3721 136.17 -17.8019 133.667 -21.0149 133.547V133.552ZM455.513 272.845C459.565 266.958 466.686 265.055 471.603 260.333C473.237 258.763 476.665 258.938 479.373 258.294C479.238 254.566 475.81 254.311 473.616 252.692C472.042 251.528 468.939 251.183 469.664 248.095C470.239 245.647 472.402 245.107 474.851 244.592C472.827 241.015 469.429 242.923 466.051 241.444C469.469 247.73 464.047 251.248 463.603 256.855C460.385 254.766 457.796 251.093 454.378 255.076C454.463 256.965 456.317 256.855 457.482 257.579C461.784 260.253 461.869 263.9 457.267 265.419C454.189 266.434 453.354 268.532 452.22 270.756C452.235 270.756 452.25 270.756 452.27 270.761C451.735 273.944 454.224 274.714 455.508 272.845H455.513ZM365.964 216.725C369.836 217.484 370.566 218.953 365.474 221.457C369.736 222.231 372.415 218.519 374.104 221.412C375.633 224.035 378.156 227.653 372.495 230.566C380.195 230.341 384.892 232.365 386.491 239.72C386.611 233.379 392.112 229.342 391.408 223.296C391.328 222.626 392.297 221.667 393.022 221.182C393.372 220.947 394.656 221.312 394.876 221.722C395.54 222.961 396.59 224.425 395.42 225.764C389.304 232.745 393.411 233.13 399.837 232.465C401.172 232.325 403.805 233.234 403.875 233.859C404.664 240.695 410.991 237.147 413.759 239.141C420.904 244.293 422.933 237.822 427.58 235.583C423.713 233.469 417.756 237.217 417.606 229.926C417.546 227.133 414.139 230.431 412.49 229.042C415.433 224.75 420.155 224.875 424.912 224.52C421.839 223.62 419.86 221.287 416.247 221.447C410.791 221.687 399.842 211.133 398.958 205.797C398.813 204.932 398.728 203.598 398.179 203.328C393.841 201.224 393.811 201.289 396.734 197.357C392.457 200.785 386.701 200.765 382.129 203.608C382.463 204.298 382.553 204.912 382.888 205.092C384.597 205.996 387.825 204.977 387.36 208.565C387.225 209.609 386.066 210.913 385.856 210.429C384.497 207.336 379.685 210.818 379.085 206.911C378.611 203.808 377.027 201.664 373.789 200.37C374.528 205.087 371.8 208.375 366.903 209.254C364.749 209.639 363.225 211.023 362.646 212.967C361.876 215.56 363.785 216.295 365.964 216.72V216.725ZM327.278 197.847C327.298 198.921 328.022 199.76 329.137 199.685C332.514 199.456 334.518 201.684 336.912 203.388C342.318 207.236 343.787 207.271 351.528 203.173C347.325 207.071 347.685 209.564 349.829 212.143C350.878 213.407 352.532 214.656 353.376 213.607C355.305 211.203 360.927 211.938 359.603 206.846C358.653 203.203 360.452 204.003 362.561 205.117C364.115 205.941 365.449 205.422 366.523 204.183C367.253 203.343 367.308 202.419 366.608 201.559C365.369 200.045 363.805 200.95 362.461 201.244C358.443 202.129 354.856 202.564 353.501 197.387C353.272 196.502 351.563 195.368 350.558 195.378C343.448 195.463 336.342 195.803 329.237 196.108C328.192 196.153 327.253 196.667 327.273 197.842L327.278 197.847ZM330.661 109.567C331.225 111.38 333.054 113.259 334.833 114.184C337.237 115.428 337.691 113.504 337.511 111.56C342.313 111.301 348.165 109.227 351.693 111.156C358.838 115.068 357.209 109.622 358.134 106.788C361.546 108.592 364.729 110.266 367.907 111.945C369.836 112.964 371.275 112.17 372.48 110.756C373.359 109.727 373.324 108.602 372.729 107.383C371.63 105.134 370.341 105.779 368.707 106.823C367.363 107.683 365.894 107.933 365.379 105.754C363.99 99.8727 358.913 99.8527 354.316 99.5279C351.508 99.333 348.495 99.0632 347.075 96.8895C344.812 93.4217 349.374 93.8564 350.578 92.2924C351.128 91.5779 351.463 90.4585 351.368 89.5691C351.173 87.7352 349.614 88.3798 348.49 88.4498C345.606 88.6297 342.723 88.8645 340.09 89.0594C338.91 91.278 345.177 92.2824 340.539 94.536C340.215 94.6909 339.925 95.4005 340.01 95.7652C341.644 102.851 341.694 102.911 334.163 106.783C332.694 107.538 330.011 107.468 330.666 109.572L330.661 109.567ZM261.479 232.64C264.282 233.135 264.847 230.956 265.381 228.507C266.751 222.231 274.136 225.249 277.484 221.767C277.529 221.722 278.843 222.416 278.928 222.871C279.543 226.214 280.562 229.792 284.854 227.143C288.517 224.885 292.29 221.732 289.516 216.315C287.363 212.108 284.704 208.835 279.173 209.649C276.874 209.989 276.729 211.868 276.41 213.477C275.205 219.503 271.323 222.711 265.157 222.396C260.669 222.166 260.924 224.925 259.915 227.393C263.073 228.862 257.611 231.965 261.479 232.645V232.64ZM211.16 100.712C212.205 101.557 218.181 98.6035 220.065 96.1C223.003 92.2075 217.251 89.759 216.027 86.0813C219.94 85.8864 221.064 90.1038 224.857 90.3736C224.272 87.9301 223.757 85.7915 223.248 83.6628C223.333 83.7078 223.413 83.7577 223.488 83.8077C223.433 83.7178 223.383 83.6278 223.328 83.5379C226.461 84.0176 228.215 88.9995 232.312 86.2612C238.218 82.3086 244.954 79.1306 247.083 71.5903C247.697 69.4217 247.188 67.7777 245.034 66.7433C243.03 65.7789 241.441 65.624 240.012 67.8876C238.178 70.7958 235.87 73.1643 232.512 69.1868C231.677 68.1974 230.538 68.4023 230.128 69.4217C229.834 70.1462 230.063 71.3505 230.538 72.0251C231.433 73.2943 234.955 73.3742 232.077 76.1225C229.399 78.6759 228.335 75.7327 226.706 74.8233C225.481 74.1437 224.387 73.2493 222.618 72.0201C221.764 76.4773 221.294 80.07 223.338 83.5329C223.298 83.5279 223.258 83.5179 223.218 83.5129C223.228 83.5629 223.243 83.6078 223.253 83.6578C222.018 82.9982 219.835 82.8533 220.215 81.3193C222.103 73.669 215.358 71.6053 211.155 68.0825C209.801 66.9482 207.727 64.7946 205.274 66.5834C202.051 68.942 206.548 70.2012 206.428 70.3561C200.312 78.2762 214.198 82.3536 209.711 89.5841C207.637 88.9845 206.098 85.8414 202.556 85.9164C202.281 92.5922 206.663 97.0644 211.165 100.707L211.16 100.712ZM178.75 184.335C187.16 189.767 184.047 197.032 182.363 204.133C182.098 205.247 183.503 205.542 184.417 205.742C185.951 206.076 187.445 205.832 188.579 204.717C193.077 200.285 191.582 180.997 186.031 178.014C181.329 175.49 181.914 182.301 178.651 182.476C178.691 183.451 178.521 184.18 178.75 184.33V184.335ZM123.545 106.244C124.599 104.615 126.148 105.154 127.582 105.134C129.436 105.109 128.997 106.748 129.591 107.683C131.185 110.176 124.319 108.997 127.707 111.031C131.635 113.389 135.747 115.248 138.461 119.051C139.585 118.146 140.879 117.387 141.789 116.312C143.193 114.643 140.894 114.079 140.329 113.944C136.987 113.159 137.576 108.322 133.474 107.938C132.809 107.873 130.875 102.931 133.109 100.227C134.758 98.2337 134.743 95.9501 134.433 93.0919C138.106 94.491 139.465 96.9745 139.07 99.8727C138.571 103.53 135.897 98.9033 134.408 100.857C135.647 103.55 137.076 106.339 138.196 109.237C138.9 111.066 140.289 111.316 141.779 111.081C147.74 110.131 153.911 106.903 159.058 113.109C159.537 113.689 160.392 113.229 160.717 112.44C163.145 106.563 168.717 109.482 173.069 108.447C172.794 105.569 168.967 104.949 168.817 101.951C168.767 100.897 167.143 100.437 165.699 100.637C163.3 100.967 167.028 105.524 163.245 104.19C161.341 103.52 164.589 100.617 162.566 99.1981C159.028 96.7196 154.396 95.6353 152.387 91.2331C151.602 89.5091 149.624 87.7802 152.347 86.4011C155.105 85.0069 156.714 80.6597 160.022 81.734C166.393 83.7977 172.764 86.8408 177.351 91.4829C179.865 94.0213 183.587 98.9133 178.021 103.096C176.922 103.92 176.327 105.384 174.578 107.858C179.935 105.644 183.862 103.86 188.329 103.141C193.711 102.276 196.829 93.5516 195.505 85.7615C194.136 77.7215 189.604 71.6503 182.533 67.273C181.429 66.5884 180.175 65.719 179.16 66.6934C175.203 70.491 174.218 66.3636 172.764 64.3698C170.765 61.6215 170.151 57.8139 165.234 62.1662C162.466 64.6147 157.983 60.832 153.921 60.952C148.329 61.1219 147.265 63.4854 149.254 67.5229C150.638 70.3361 148.544 74.1387 152.397 76.3623C153.037 76.7321 150.908 78.3361 148.904 77.6815C144.347 76.2024 141.229 78.516 141.659 82.9782C141.948 85.9913 140.165 88.0351 137.711 87.1106C132.459 85.1319 133.039 88.3948 131.79 91.4129C130.071 95.5604 131.12 102.096 122.176 101.157C118.443 100.762 121.801 107.168 119.547 110.826C123.17 109.766 122.67 107.603 123.55 106.244H123.545ZM77.8634 119.101C75.7747 110.431 69.8185 107.163 66.0858 102.306C65.3462 101.342 62.7379 101.117 64.6967 99.308C66.0008 98.1038 67.5749 98.8383 68.5293 100.177C70.0783 102.351 71.3875 104.77 75.4849 104.26C71.0727 95.1906 69.4487 95.8252 59.2101 97.2793C52.1545 98.2787 52.7441 100.717 56.152 103.435C62.6279 108.602 70.7179 111.665 77.8634 119.101ZM43.1651 132.567C45.5936 129.479 39.2076 127.156 41.0414 127.306C45.8984 127.705 49.9309 122.504 54.1882 125.312C59.5649 128.86 64.7766 123.953 69.9833 125.981C70.4031 126.146 73.6661 122.893 72.6667 121.779C70.8428 119.745 71.5624 115.548 67.6998 115.463C60.3044 115.293 56.6417 109.052 52.3394 105.274C43.8796 97.8439 37.6735 98.2387 32.8265 108.048C29.1089 115.568 28.2294 122.304 32.8815 129.344C32.9265 129.334 32.9715 129.324 33.0214 129.314C35.9296 131.933 39.3275 133.022 43.1651 132.577V132.567Z" fill="white"/>
</mask>
<g mask="url(#mask0_53_101366)">
<path d="M631.835 -33.1242L532.422 573.956L535.39 574.442L634.804 -32.6381L631.835 -33.1242Z" fill="#04E155"/>
<path d="M625.63 -34.1036L526.217 572.977L529.185 573.463L628.599 -33.6174L625.63 -34.1036Z" fill="#04E155"/>
<path d="M619.427 -35.087L520.014 571.993L522.982 572.479L622.395 -34.6008L619.427 -35.087Z" fill="#04E155"/>
<path d="M613.222 -36.0744L513.809 571.006L516.777 571.492L616.19 -35.5883L613.222 -36.0744Z" fill="#04E155"/>
<path d="M607.019 -37.0518L507.605 570.028L510.574 570.514L609.987 -36.5657L607.019 -37.0518Z" fill="#04E155"/>
<path d="M600.812 -38.0381L501.398 569.042L504.367 569.528L603.78 -37.552L600.812 -38.0381Z" fill="#04E155"/>
<path d="M594.607 -39.0227L495.193 568.058L498.162 568.544L597.575 -38.5366L594.607 -39.0227Z" fill="#04E155"/>
<path d="M588.405 -40.0039L488.992 567.076L491.961 567.562L591.374 -39.5178L588.405 -40.0039Z" fill="#04E155"/>
<path d="M582.2 -40.9883L482.787 566.092L485.756 566.578L585.169 -40.5022L582.2 -40.9883Z" fill="#04E155"/>
<path d="M575.997 -41.967L476.584 565.113L479.553 565.599L578.966 -41.4809L575.997 -41.967Z" fill="#04E155"/>
<path d="M569.792 -42.9571L470.379 564.123L473.347 564.609L572.761 -42.4709L569.792 -42.9571Z" fill="#04E155"/>
<path d="M563.583 -43.9375L464.17 563.143L467.139 563.629L566.552 -43.4514L563.583 -43.9375Z" fill="#04E155"/>
<path d="M557.384 -44.9192L457.971 562.161L460.939 562.647L560.353 -44.433L557.384 -44.9192Z" fill="#04E155"/>
<path d="M551.183 -45.9024L451.77 561.178L454.738 561.664L554.151 -45.4163L551.183 -45.9024Z" fill="#04E155"/>
<path d="M544.976 -46.8877L445.562 560.192L448.531 560.679L547.944 -46.4016L544.976 -46.8877Z" fill="#04E155"/>
<path d="M538.771 -47.8733L439.357 559.207L442.326 559.693L541.739 -47.3871L538.771 -47.8733Z" fill="#04E155"/>
<path d="M532.562 -48.8536L433.148 558.227L436.117 558.713L535.53 -48.3674L532.562 -48.8536Z" fill="#04E155"/>
<path d="M526.366 -49.8321L426.953 557.248L429.922 557.734L529.335 -49.3459L526.366 -49.8321Z" fill="#04E155"/>
<path d="M520.159 -50.8235L420.746 556.257L423.715 556.743L523.128 -50.3373L520.159 -50.8235Z" fill="#04E155"/>
<path d="M513.954 -51.8028L414.541 555.277L417.51 555.763L516.923 -51.3167L513.954 -51.8028Z" fill="#04E155"/>
<path d="M507.747 -52.7823L408.334 554.298L411.303 554.784L510.716 -52.2961L507.747 -52.7823Z" fill="#04E155"/>
<path d="M501.546 -53.7678L402.133 553.312L405.101 553.799L504.515 -53.2817L501.546 -53.7678Z" fill="#04E155"/>
<path d="M495.345 -54.753L395.932 552.327L398.9 552.813L498.313 -54.2668L495.345 -54.753Z" fill="#04E155"/>
<path d="M489.136 -55.7383L389.723 551.342L392.691 551.828L492.104 -55.2522L489.136 -55.7383Z" fill="#04E155"/>
<path d="M482.931 -56.719L383.518 550.361L386.486 550.847L485.899 -56.2328L482.931 -56.719Z" fill="#04E155"/>
<path d="M476.73 -57.6983L377.316 549.382L380.285 549.868L479.698 -57.2122L476.73 -57.6983Z" fill="#04E155"/>
<path d="M470.523 -58.6875L371.109 548.393L374.078 548.879L473.491 -58.2014L470.523 -58.6875Z" fill="#04E155"/>
<path d="M464.321 -59.6672L364.908 547.413L367.877 547.899L467.29 -59.1811L464.321 -59.6672Z" fill="#04E155"/>
<path d="M458.116 -60.6534L358.703 546.427L361.672 546.913L461.085 -60.1672L458.116 -60.6534Z" fill="#04E155"/>
<path d="M451.913 -61.6329L352.5 545.447L355.469 545.933L454.882 -61.1467L451.913 -61.6329Z" fill="#04E155"/>
<path d="M445.708 -62.6174L346.295 544.463L349.264 544.949L448.677 -62.1313L445.708 -62.6174Z" fill="#04E155"/>
<path d="M439.501 -63.6026L340.088 543.478L343.056 543.964L442.47 -63.1165L439.501 -63.6026Z" fill="#04E155"/>
<path d="M433.294 -64.5821L333.881 542.498L336.849 542.984L436.263 -64.0959L433.294 -64.5821Z" fill="#04E155"/>
<path d="M427.101 -65.5666L327.688 541.514L330.656 542L430.069 -65.0805L427.101 -65.5666Z" fill="#04E155"/>
<path d="M420.892 -66.5518L321.479 540.528L324.447 541.014L423.86 -66.0657L420.892 -66.5518Z" fill="#04E155"/>
<path d="M414.685 -67.5323L315.271 539.548L318.24 540.034L417.653 -67.0461L414.685 -67.5323Z" fill="#04E155"/>
<path d="M408.48 -68.5168L309.066 538.563L312.035 539.05L411.448 -68.0307L408.48 -68.5168Z" fill="#04E155"/>
<path d="M402.275 -69.4991L302.861 537.581L305.83 538.067L405.243 -69.0129L402.275 -69.4991Z" fill="#04E155"/>
<path d="M396.077 -70.4864L296.664 536.594L299.633 537.08L399.046 -70.0002L396.077 -70.4864Z" fill="#04E155"/>
<path d="M389.87 -71.467L290.457 535.613L293.426 536.099L392.839 -70.9809L389.87 -71.467Z" fill="#04E155"/>
<path d="M383.663 -72.4473L284.25 534.633L287.219 535.119L386.632 -71.9612L383.663 -72.4473Z" fill="#04E155"/>
<path d="M377.456 -73.4317L278.043 533.648L281.012 534.135L380.425 -72.9456L377.456 -73.4317Z" fill="#04E155"/>
<path d="M371.255 -74.4162L271.842 532.664L274.81 533.15L374.224 -73.9301L371.255 -74.4162Z" fill="#04E155"/>
<path d="M365.054 -75.4014L265.641 531.679L268.609 532.165L368.022 -74.9153L365.054 -75.4014Z" fill="#04E155"/>
<path d="M358.849 -76.3819L259.436 530.698L262.404 531.184L361.817 -75.8958L358.849 -76.3819Z" fill="#04E155"/>
<path d="M352.642 -77.3615L253.229 529.719L256.197 530.205L355.61 -76.8754L352.642 -77.3615Z" fill="#04E155"/>
<path d="M346.439 -78.3516L247.025 528.729L249.994 529.215L349.407 -77.8655L346.439 -78.3516Z" fill="#04E155"/>
<path d="M340.232 -79.3311L240.818 527.749L243.787 528.235L343.2 -78.845L340.232 -79.3311Z" fill="#04E155"/>
<path d="M334.026 -80.3164L234.613 526.764L237.582 527.25L336.995 -79.8303L334.026 -80.3164Z" fill="#04E155"/>
<path d="M327.825 -81.2979L228.412 525.782L231.381 526.268L330.794 -80.8118L327.825 -81.2979Z" fill="#04E155"/>
<path d="M321.624 -82.2813L222.211 524.799L225.18 525.285L324.593 -81.7952L321.624 -82.2813Z" fill="#04E155"/>
<path d="M315.419 -83.2657L216.006 523.814L218.974 524.301L318.388 -82.7795L315.419 -83.2657Z" fill="#04E155"/>
<path d="M309.21 -84.2481L209.797 522.832L212.765 523.318L312.179 -83.762L309.21 -84.2481Z" fill="#04E155"/>
<path d="M303.003 -85.2325L203.59 521.848L206.558 522.334L305.972 -84.7463L303.003 -85.2325Z" fill="#04E155"/>
<path d="M296.808 -86.2159L197.395 520.864L200.363 521.35L299.776 -85.7297L296.808 -86.2159Z" fill="#04E155"/>
<path d="M290.603 -87.1983L191.189 519.882L194.158 520.368L293.571 -86.7122L290.603 -87.1983Z" fill="#04E155"/>
<path d="M284.396 -88.1827L184.982 518.897L187.951 519.384L287.364 -87.6965L284.396 -88.1827Z" fill="#04E155"/>
<path d="M278.189 -89.1621L178.775 517.918L181.744 518.404L281.157 -88.676L278.189 -89.1621Z" fill="#04E155"/>
<path d="M271.987 -90.1514L172.574 516.929L175.543 517.415L274.956 -89.6653L271.987 -90.1514Z" fill="#04E155"/>
<path d="M265.784 -91.1319L166.371 515.948L169.34 516.434L268.753 -90.6457L265.784 -91.1319Z" fill="#04E155"/>
<path d="M259.579 -92.1123L160.166 514.968L163.135 515.454L262.548 -91.6262L259.579 -92.1123Z" fill="#04E155"/>
<path d="M253.374 -93.0977L153.961 513.982L156.93 514.469L256.343 -92.6116L253.374 -93.0977Z" fill="#04E155"/>
<path d="M247.173 -94.0821L147.76 512.998L150.728 513.484L250.142 -93.5959L247.173 -94.0821Z" fill="#04E155"/>
<path d="M240.968 -95.0664L141.555 512.014L144.523 512.5L243.936 -94.5803L240.968 -95.0664Z" fill="#04E155"/>
<path d="M234.763 -96.0469L135.35 511.033L138.318 511.519L237.731 -95.5608L234.763 -96.0469Z" fill="#04E155"/>
<path d="M228.556 -97.0274L129.143 510.053L132.111 510.539L231.524 -96.5413L228.556 -97.0274Z" fill="#04E155"/>
<path d="M222.357 -98.0166L122.943 509.063L125.912 509.55L225.325 -97.5305L222.357 -98.0166Z" fill="#04E155"/>
<path d="M216.15 -98.9963L116.736 508.084L119.705 508.57L219.118 -98.5102L216.15 -98.9963Z" fill="#04E155"/>
<path d="M209.944 -99.9815L110.531 507.099L113.5 507.585L212.913 -99.4954L209.944 -99.9815Z" fill="#04E155"/>
<path d="M203.743 -100.962L104.33 506.118L107.299 506.604L206.712 -100.476L203.743 -100.962Z" fill="#04E155"/>
<path d="M197.54 -101.946L98.127 505.135L101.096 505.621L200.509 -101.459L197.54 -101.946Z" fill="#04E155"/>
<path d="M191.333 -102.932L91.9199 504.148L94.8885 504.635L194.302 -102.446L191.333 -102.932Z" fill="#04E155"/>
<path d="M185.126 -103.911L85.7129 503.169L88.6815 503.655L188.095 -103.425L185.126 -103.911Z" fill="#04E155"/>
<path d="M178.921 -104.896L79.5078 502.185L82.4764 502.671L181.89 -104.41L178.921 -104.896Z" fill="#04E155"/>
<path d="M172.722 -105.882L73.3086 501.198L76.2772 501.684L175.69 -105.396L172.722 -105.882Z" fill="#04E155"/>
<path d="M166.519 -106.86L67.1055 500.22L70.074 500.706L169.487 -106.374L166.519 -106.86Z" fill="#04E155"/>
<path d="M160.312 -107.846L60.8984 499.234L63.867 499.721L163.28 -107.36L160.312 -107.846Z" fill="#04E155"/>
<path d="M154.105 -108.826L54.6914 498.254L57.66 498.74L157.073 -108.34L154.105 -108.826Z" fill="#04E155"/>
<path d="M147.9 -109.816L48.4863 497.264L51.4549 497.75L150.868 -109.33L147.9 -109.816Z" fill="#04E155"/>
<path d="M141.698 -110.795L42.2852 496.285L45.2537 496.771L144.667 -110.309L141.698 -110.795Z" fill="#04E155"/>
<path d="M135.497 -111.775L36.084 495.305L39.0526 495.791L138.466 -111.289L135.497 -111.775Z" fill="#04E155"/>
<path d="M129.29 -112.766L29.877 494.314L32.8455 494.801L132.259 -112.28L129.29 -112.766Z" fill="#04E155"/>
<path d="M123.083 -113.745L23.6699 493.335L26.6385 493.821L126.052 -113.259L123.083 -113.745Z" fill="#04E155"/>
<path d="M116.884 -114.731L17.4707 492.349L20.4393 492.835L119.852 -114.245L116.884 -114.731Z" fill="#04E155"/>
<path d="M110.675 -115.711L11.2617 491.369L14.2303 491.855L113.644 -115.225L110.675 -115.711Z" fill="#04E155"/>
<path d="M104.474 -116.695L5.06055 490.385L8.02914 490.871L107.442 -116.209L104.474 -116.695Z" fill="#04E155"/>
<path d="M98.2686 -117.682L-1.14453 489.398L1.82406 489.885L101.237 -117.196L98.2686 -117.682Z" fill="#04E155"/>
<path d="M92.0656 -118.661L-7.34766 488.419L-4.37906 488.905L95.0341 -118.175L92.0656 -118.661Z" fill="#04E155"/>
<path d="M85.8585 -119.641L-13.5547 487.439L-10.5861 487.926L88.8271 -119.155L85.8585 -119.641Z" fill="#04E155"/>
<path d="M79.6534 -120.632L-19.7598 486.448L-16.7912 486.934L82.622 -120.146L79.6534 -120.632Z" fill="#04E155"/>
<path d="M73.4523 -121.612L-25.9609 485.469L-22.9923 485.955L76.4209 -121.125L73.4523 -121.612Z" fill="#04E155"/>
<path d="M67.2511 -122.595L-32.1621 484.485L-29.1935 484.971L70.2197 -122.109L67.2511 -122.595Z" fill="#04E155"/>
<path d="M61.046 -123.575L-38.3672 483.505L-35.3986 483.991L64.0146 -123.089L61.046 -123.575Z" fill="#04E155"/>
<path d="M54.837 -124.561L-44.5762 482.52L-41.6076 483.006L57.8056 -124.075L54.837 -124.561Z" fill="#04E155"/>
<path d="M48.63 -125.546L-50.7832 481.534L-47.8146 482.02L51.5985 -125.06L48.63 -125.546Z" fill="#04E155"/>
<path d="M42.4327 -126.524L-56.9805 480.556L-54.0119 481.042L45.4013 -126.038L42.4327 -126.524Z" fill="#04E155"/>
<path d="M36.2276 -127.511L-63.1855 479.569L-60.217 480.055L39.1962 -127.025L36.2276 -127.511Z" fill="#04E155"/>
<path d="M30.0226 -128.495L-69.3906 478.585L-66.422 479.071L32.9911 -128.009L30.0226 -128.495Z" fill="#04E155"/>
<path d="M23.8136 -129.475L-75.5996 477.605L-72.631 478.092L26.7821 -128.989L23.8136 -129.475Z" fill="#04E155"/>
<path d="M17.6124 -130.46L-81.8008 476.62L-78.8322 477.106L20.581 -129.974L17.6124 -130.46Z" fill="#04E155"/>
<path d="M11.4073 -131.439L-88.0059 475.641L-85.0373 476.127L14.3759 -130.953L11.4073 -131.439Z" fill="#04E155"/>
<path d="M5.20618 -132.431L-94.207 474.649L-91.2384 475.136L8.17477 -131.945L5.20618 -132.431Z" fill="#04E155"/>
</g>
</svg>
