<svg width="530" height="648" viewBox="0 0 530 648" fill="none" xmlns="http://www.w3.org/2000/svg">
<mask id="mask0_53_81708" style="mask-type:luminance" maskUnits="userSpaceOnUse" x="0" y="0" width="530" height="648">
<path d="M61.9988 405.256C61.697 409.132 61.7832 411.772 61.2178 414.268C60.5998 416.985 60.0584 420.391 58.1899 421.929C56.858 423.026 52.1725 422.403 51.1664 420.99C49.6763 418.901 50.0069 415.437 49.8297 412.543C49.7817 411.762 50.6872 410.919 51.1567 410.11C40.7699 411.758 48.2055 419.759 44.2098 424.827C54.2949 424.827 62.5019 424.827 70.7088 424.827C70.7232 424.526 70.7376 424.224 70.7567 423.922C68.3421 423.428 65.9322 422.935 63.3211 422.403C63.9296 416.831 64.4805 411.758 65.0938 406.123C68.1073 405.97 71.2166 405.817 73.3007 405.711C73.8277 408.893 74.235 411.35 74.6901 414.11C73.9427 414.939 72.6492 416.376 71.0634 418.139C77.0713 419.524 77.7324 421.268 75.816 425.8C74.7764 428.258 74.853 431.199 74.5081 433.93C74.3404 435.262 74.8961 437.38 74.2206 437.849C67.2162 442.746 73.6265 448.054 73.066 451.264C77.9528 453.42 81.7042 455.049 85.4315 456.731C87.9948 457.89 90.5531 459.083 93.0684 460.343C103.45 465.541 115.385 464.813 125.863 471.961C138.923 480.868 155.826 477.826 171.224 478.678C172.973 478.774 175.033 477.917 176.537 476.896C182.512 472.852 188.438 474.16 195.03 476.259C192.347 480.307 189.995 483.862 187.183 488.102C190.819 489.075 193.224 489.721 195.95 490.45C194.815 496.97 193.708 503.309 192.453 510.519C201.196 510.519 209.825 510.519 218.755 510.519C218.755 513.389 218.755 515.373 218.755 517.826C223.01 517.826 226.953 517.936 230.881 517.782C232.898 517.706 234.896 517.16 237.819 516.671C237.819 522.698 237.819 528.318 237.819 533.938C237.819 538.59 236.564 541.761 230.838 541.067C224.533 540.3 226.004 535.691 226.11 531.935C226.21 528.16 226.862 524.404 227.274 520.638C226.225 520.561 225.171 520.485 224.121 520.408C223.46 528.299 222.799 536.189 222.147 543.989C223.269 544.483 223.901 545.005 224.543 545.01C232.347 545.11 240.32 546.174 247.928 544.952C262.9 542.552 267.791 554.836 275.902 562.54C276.875 563.465 277.574 564.825 278.025 566.114C278.897 568.605 279.5 571.192 280.406 574.422C277.911 577.82 278.397 580.343 281.862 581.991C280.348 584.492 278.825 587.012 277.095 589.877C287.065 590.941 287.271 591.53 283.338 599.919C282.562 601.577 282.591 604.207 283.362 605.865C284.502 608.313 286.649 610.292 288.369 612.467C287.837 612.783 287.31 613.099 286.778 613.42C285.561 613.114 284.339 612.802 283.122 612.496C282.921 613.583 282.485 614.69 282.562 615.758C282.883 620.252 284.018 624.785 283.654 629.207C282.629 641.639 287.784 647.551 300.365 647.503C308.189 647.475 316.013 647.46 323.832 647.46C345.544 647.456 367.252 647.46 388.702 647.46C387.657 646.042 385.966 644.686 386.201 643.915C387.422 639.91 389.133 636.053 390.738 631.971C391.595 634.184 392.448 636.369 393.756 639.742C395.893 636.57 397.287 634.505 398.677 632.445C400.737 632.57 402.802 632.695 405.456 632.848C407.037 624.032 411.512 615.677 405.355 607.178C409.097 606.737 412.848 606.291 418.339 605.64C413.874 602.458 411.071 600.465 408.263 598.468L408.599 596.58C417.63 597.672 418.334 592.388 418.099 586.207C416.034 585.666 414.362 585.225 412.115 584.636C413.347 582.964 414.688 581.963 414.856 580.794C416.801 567.288 419.589 553.782 419.944 540.214C420.116 533.665 421.074 529.602 426.91 526.77C428.069 530.004 429.229 533.224 430.474 536.697C437.426 530.924 426.028 521.38 434.063 518.147C433.368 511.64 432.76 506.231 432.391 500.808C432.381 500.635 434.896 500.295 436.238 500.032C431.998 497.43 430.968 493.794 430.69 488.744C429.631 469.465 436.473 451.571 439.491 433.025C440.32 427.932 440.267 422.116 442.826 418.005C448.512 408.883 444.804 397.993 449.624 388.972C450.822 386.734 452.053 384.521 452.642 383.443C452.019 380.022 450.994 377.569 451.258 375.265C452.408 365.194 454.525 355.2 455.138 345.11C455.665 336.462 461.113 334.546 468.309 333.094C468.96 335.245 469.607 337.387 470.58 340.611C472.822 333.128 474.81 326.492 477.009 319.143C482.27 325.271 482.059 327.57 477.278 332.4C482.481 344.823 469.967 353.696 472.784 365.184C471.797 365.093 470.81 365.002 469.828 364.916C470.067 361.826 470.513 358.736 470.484 355.65C470.46 352.637 469.952 349.628 469.655 346.614C468.692 346.452 467.724 346.289 466.761 346.126C464.955 353.087 463.12 360.039 461.362 367.01C460.231 371.489 459.364 376.041 458.118 380.487C456.849 385 454.774 389.331 453.893 393.906C450.735 410.287 447.535 426.682 445.154 443.187C443.846 452.266 444.282 461.589 443.669 470.783C443.305 476.288 445.614 482.602 438.581 486.43C437.599 486.967 439.419 492.654 439.941 495.959C440.837 496.165 441.738 496.371 442.634 496.577C440.593 497.818 438.557 499.059 436.516 500.3C440.008 506.581 444.89 510.021 451.267 508.507C449.883 504.713 447.808 501.071 447.444 497.263C447.219 494.905 450.151 492.409 450.678 489.774C452.005 483.134 452.776 476.383 453.773 469.676L453.615 469.892C453.969 459.572 454.597 459.05 462.354 462.614L462.128 462.748C462.512 459.739 462.89 456.731 463.192 454.345C460.557 452.222 458.075 450.225 455.594 448.222C456.374 447.436 457.151 446.65 457.932 445.865C459.498 447.206 461.07 448.543 462.636 449.884C463.283 449.439 463.93 448.998 464.577 448.552C463.336 446.703 462.497 444.02 460.768 443.177C457.045 441.356 455.512 437.687 458.684 436.393C463.844 434.294 464.955 429.618 467.025 426.782C476.861 437.38 469.028 450.196 471.198 461.91C472.041 462.442 472.879 462.973 473.723 463.505C474.077 461.594 474.437 459.677 474.791 457.766C475.538 458.273 476.281 458.781 477.028 459.289C476.545 466.337 476.43 473.437 475.491 480.427C473.646 494.177 471.562 507.908 469.147 521.567C467.988 528.136 465.985 534.565 464.102 540.985C462.929 544.995 460.787 548.766 459.929 552.819C458.032 561.783 456.724 570.871 455.038 579.883C454.755 581.393 454.104 583.093 453.054 584.138C450.999 586.188 448.546 587.841 446.026 589.849C445.571 587.995 445.073 585.954 444.574 583.913C441.594 598.76 440.076 613.583 438.241 628.363C437.805 631.89 436.315 635.282 435.318 638.707C435.318 641.199 435.318 644.03 435.318 647.547C440.488 647.149 445.168 646.79 448.905 646.502C447.262 644.672 445.374 643.536 445.226 642.2C444.948 639.723 446.869 636.331 445.786 634.735C441.47 628.354 446.309 622.006 443.975 615.84C444.747 615.773 445.513 615.706 446.285 615.639C447.09 623.146 447.89 630.649 448.695 638.156C451.354 636.178 454.262 632.397 456.293 632.824C461.367 633.883 462.905 630.73 465.406 628.014C468.467 624.679 470.34 620.909 472.075 616.697C477.081 604.519 482.917 592.68 488.273 580.64C490.271 576.151 492.446 571.604 493.481 566.852C495.55 557.375 496.911 547.741 498.521 538.163C498.713 537.013 498.521 535.797 498.727 534.647C500.423 524.974 500.931 514.874 504.179 505.747C509.291 491.389 516.334 477.72 522.385 463.687C523.645 460.765 524.158 457.526 524.718 455.509C522.097 453.99 518.796 452.769 518.902 452.021C519.362 448.711 519.975 443.532 522.04 442.679C528.608 439.972 528.503 433.954 528.628 429.527C529.504 398.266 529.758 366.981 529.777 335.705C529.777 332.083 528.172 326.914 525.518 325.136C518.121 320.178 515.251 313.336 513.383 305.259C511.993 299.26 508.036 295.72 503.02 296.29C493.452 289.899 496.93 281.419 497.467 273.422C497.577 271.765 497.515 270.093 497.706 268.449C498.516 261.44 495.871 256.745 489.198 253.875C480.852 250.282 475.486 240.47 476.386 231.08C470.192 229.647 463.973 227.961 457.654 226.82C452.221 225.843 446.687 225.364 441.177 224.933C439.663 224.813 438.011 225.508 436.525 226.087C429.219 228.919 428.189 235.161 427.399 241.969C426.819 246.986 425.051 251.896 423.513 256.759C422.689 259.37 421.237 261.78 420.068 264.286C420.677 264.636 421.285 264.981 421.894 265.33C420.131 266.48 418.205 267.453 416.648 268.837C415.076 270.232 414.07 273.173 412.455 273.47C404.081 275.013 405.044 282.741 402.754 287.934C399.831 294.57 398.322 301.823 396.204 308.813C395.912 308.727 395.615 308.646 395.323 308.56C394.063 288.5 392.798 268.435 391.538 248.375C392.094 248.648 392.654 248.921 393.21 249.19C394.379 246.842 395.548 244.494 396.717 242.147C389.909 239.665 393.488 233.743 392.496 229.345C386.095 228.296 384.936 224.233 388.318 216.932C389.277 214.867 389.305 211.968 388.764 209.688C387.279 203.392 385.046 197.269 383.594 190.969C383.13 188.957 384.174 186.6 384.581 184.07C382.962 184.161 381.836 184.228 381.937 184.224C379.972 180.103 378.286 176.568 376.576 172.989C379.244 172.869 381.209 172.783 383.178 172.692C383.096 171.58 383.139 169.525 382.909 169.491C379.949 169.094 376.954 168.983 372.728 168.725C372.12 167.685 370.596 165.591 369.6 163.273C366.615 156.316 363.65 149.34 361.053 142.235C359.673 138.455 359.079 134.392 358.02 130.009C345.683 124.365 346.076 109.292 339.369 98.9295C340.83 98.115 342.526 97.176 345.908 95.2883C340.974 94.2391 337.812 93.5636 334.012 92.7539C335.311 90.8806 336.144 89.6829 336.973 88.4851C336.221 88.4516 335.464 88.4228 334.712 88.3893C334.281 85.8357 334.707 82.5443 333.26 80.8626C329.288 76.2393 329.988 70.5141 328.723 65.3446C327.41 59.9835 329.528 52.4089 326.519 49.1127C319.984 41.9502 312.611 34.8307 301.783 33.2114C296.882 32.4784 291.238 32.4544 287.894 26.5615C285.992 23.2126 281.723 20.5823 277.014 23.7204C276.899 23.7971 276.329 23.1982 275.941 22.8868C276.851 21.4255 277.757 19.9739 278.878 18.1772C275.356 17.9712 272.314 18.5845 270.077 17.5161C262.799 14.033 255.862 9.85528 248.704 6.09913C245.235 4.27856 241.728 2.08428 237.982 1.3273C226.891 -0.914884 215.986 -0.890928 206.021 5.96978C204.761 6.83695 202.102 5.41403 200.152 5.63441C198.576 5.81168 197.095 6.85611 195.572 7.51727C198.379 9.24203 197.483 11.1632 195.131 11.6711C194.043 11.9058 192.41 9.57261 191.116 8.48505C188.28 9.28036 185.084 9.56303 182.55 11.0099C175.962 14.766 166.672 13.3623 162.442 21.943C161.599 23.6581 157.67 23.6677 155.428 24.9325C153.377 26.0872 151.423 27.6442 149.909 29.4361C148.572 31.0219 148.203 33.4174 146.886 35.032C142.176 40.8003 137.299 46.4393 132.379 52.0256C130.385 54.287 128.076 56.2609 125.978 58.4312C124.416 60.0458 122.959 61.7609 120.909 64.0367C123.956 64.8559 125.547 65.2823 127.132 65.7087C125.575 68.1569 123.707 69.1103 121.742 69.7763C119.467 70.5476 117.105 71.0746 114.776 71.6831C113.071 72.1287 111.375 72.6892 109.636 72.9144C106.062 73.3743 102.856 77.049 98.8943 74.1936C95.3968 80.6327 86.3802 80.3117 83.2372 88.7199C81.3257 93.8367 84.9956 103.567 74.8243 104.679C74.7524 104.688 74.7237 105.115 74.4123 106.571C75.2842 106.945 76.8221 107.606 79.0595 108.559C72.927 114.4 67.2258 118.87 63.0337 124.47C61.9317 125.941 57.6006 132.256 64.8494 134.618C56.1442 146.236 66.4209 153.269 71.0442 162.113C69.7123 162.928 68.251 163.814 68.3564 163.752C68.6056 167.728 69.8704 171.044 68.7302 172.706C64.4614 178.93 67.2832 185.206 67.1299 192.076C65.6064 192.876 63.5989 193.925 59.8716 195.875C68.0785 195.779 72.3857 198.228 73.7032 204.839C73.9427 206.027 75.8735 207.618 77.1479 207.743C85.0099 208.495 82.9163 213.995 82.3653 218.498C81.3831 226.504 80.056 234.467 78.8774 242.444C79.6201 242.544 80.3627 242.65 81.1053 242.75C82.5138 233.398 83.9176 224.051 85.4699 213.741C88.4451 218.508 90.0405 222.652 92.9582 225.383C98.3098 230.399 96.4604 233.097 92.0144 234.711C95.5453 243.713 98.9326 252.361 102.028 260.247C102.406 258.628 103.005 256.065 103.604 253.497C104.174 253.454 104.744 253.415 105.319 253.372C106.368 255.633 107.417 257.895 108.677 260.602C109.367 258.752 109.808 257.569 110.627 255.379C113.895 262.202 120.65 266.102 119.313 274.079C119.036 275.741 119.275 277.495 119.275 279.205C119.543 279.205 119.817 279.205 120.085 279.2C121.857 273.571 123.63 267.941 125.403 262.312C126.275 262.451 127.147 262.595 128.014 262.734C128.723 275.013 129.432 287.292 130.141 299.572L131.186 298.877C132.944 302.657 134.697 306.437 137.15 311.717C132.287 310.04 129.648 309.13 125.973 307.86C126.768 310.859 127.175 312.397 127.549 313.796C118.394 313.015 112.184 325.616 102.406 317.404C101.534 320.312 100.916 322.372 100.878 322.506C97.4761 323.924 94.6302 324.188 93.8397 325.596C88.7421 334.723 84.0948 344.094 79.5817 352.833C80.7124 355.962 81.8144 359.004 82.9163 362.046C78.9302 362.866 74.9632 363.828 70.9436 364.427C69.6548 364.619 68.184 363.44 66.8665 363.579C63.9391 363.886 61.0598 364.629 58.1612 365.194C58.1612 365.194 58.4343 364.887 58.4438 364.883C58.4774 366.056 58.4151 368.251 58.5396 368.26C67.1538 368.979 75.9118 370.919 84.3967 365.889C84.7896 368.734 85.1681 371.437 85.5417 374.144C84.847 373.894 84.1572 373.64 83.4625 373.391C82.2024 375.533 79.438 378.134 79.9315 379.735C82.1977 387.094 76.9036 397.519 69.5254 397.595C63.0576 397.663 56.5754 396.249 47.9851 395.238C45.3165 398.429 41.0956 403.469 36.8795 408.509L35.1835 408.112C35.6243 402.19 36.0699 396.264 36.5107 390.38C45.2494 390.38 52.8 390.38 61.304 390.38C58.118 384.051 54.8123 381.68 48.9193 383.371C43.6301 384.89 40.8417 378.685 35.9789 378.35C36.3909 373.319 32.2802 374.512 29.8128 374.306C25.5009 373.952 21.0693 374.766 16.7957 374.244C13.5331 373.842 10.438 372.126 7.26642 370.996C5.69019 371.044 3.65405 373.042 2.12091 375.37C1.03815 377.018 -0.370483 380.463 0.0894775 380.813C6.32733 385.498 2.67664 391.592 2.93536 397.131C3.01678 398.879 4.26727 402.027 5.10089 402.065C13.0731 402.444 21.0741 402.291 29.0655 402.291C29.0367 401.562 29.008 400.834 28.9744 400.101C24.9644 400.35 20.9303 400.413 16.9442 400.877C8.67499 401.845 5.56561 398.53 6.91663 390.256C7.32385 387.769 6.97894 385.158 6.97894 383.165C14.2612 383.165 22.0562 383.165 29.0223 383.165C27.5611 386.442 26.0471 389.844 24.5331 393.245C26.9239 392.493 29.3146 391.741 31.8203 390.955C31.8203 397.725 31.8203 404.562 31.8203 412.73C36.0124 411.279 39.553 410.387 42.7821 408.845C46.0783 407.268 48.8858 406.162 51.013 410.272C54.4098 408.715 57.8067 407.158 62.0084 405.228L61.9988 405.256ZM330.237 229.134C325.604 232.301 323.932 231.894 322.011 226.332C328.728 226.078 332.657 223.591 330.223 215.217C328.292 217.353 326.888 218.901 324.383 221.665C323.415 210.315 322.538 200.015 321.656 189.719C320.799 189.714 319.936 189.705 319.079 189.7C318.528 193.441 318.748 197.547 317.196 200.81C315.807 203.733 312.472 205.73 309.995 208.135C308.716 205.903 306.646 203.79 306.287 201.418C304.586 190.227 305.841 179.298 309.875 168.619C311.725 163.723 312.678 158.486 314.039 153.403C312.209 153.077 309.415 152.579 306.756 152.1C299.733 156.259 306.728 169.664 293.73 170.943C294.377 168.155 294.923 165.821 295.464 163.493C296.015 163.268 296.566 163.043 297.117 162.822C297.577 164.054 298.037 165.28 298.497 166.511C298.981 166.3 299.46 166.09 299.944 165.879C300.356 156.728 300.696 147.572 301.204 138.426C301.438 134.182 305.453 129.831 300.72 125.783C300.37 125.481 299.992 125.208 298.938 124.384C297.002 132.222 295.143 139.763 293.279 147.304L291.813 147.074C292.268 143.677 292.719 140.281 293.174 136.884C292.661 136.769 292.149 136.649 291.636 136.534C289.538 146.839 287.439 157.15 285.336 167.455C284.646 167.321 283.961 167.187 283.271 167.053C287.276 145.508 291.282 123.958 295.287 102.413C296.077 102.302 296.868 102.192 297.658 102.077C298.77 104.377 300.887 106.72 300.801 108.976C300.538 115.985 305.626 119.43 309.329 123.962C312.448 127.771 315.145 131.944 317.857 136.064C321.149 141.066 323.271 146.715 328.378 150.634C332.666 153.925 331.195 158.314 328.694 162.559C326.491 166.305 322.926 170.09 326.989 177.339C329.514 171.973 331.253 168.274 333.073 164.403C333.917 165.012 334.88 165.347 334.956 165.826C336.14 173.267 337.146 180.736 338.32 188.176C339.915 198.328 341.621 208.461 343.278 218.604C346.464 232.1 349.655 245.591 352.831 259.088C353.77 263.083 355.198 267.055 355.476 271.099C355.922 277.586 355.596 284.125 355.596 290.306C359.917 289.012 362.897 294.239 363.07 306.567C361.671 305.546 360.569 304.741 359.467 303.931C358.902 304.339 358.332 304.746 357.766 305.153C359.582 308.286 361.403 311.42 362.878 313.964C362.155 317.016 361.273 320.71 360.09 325.683C349.142 329.491 355.639 341.555 352.223 349.824C350.514 348.301 350.564 342.769 352.372 333.228C351.385 333.875 350.594 334.393 349.554 335.078C348.888 321.232 348.232 307.63 347.542 293.324C348.347 294.613 348.865 295.437 349.382 296.266C349.78 296.232 350.182 296.199 350.58 296.16C349.76 288.366 348.941 280.566 348.021 271.813C346.253 273.911 345.204 275.162 344.15 276.412C343.614 276.263 343.077 276.12 342.54 275.971C342.952 272.766 343.369 269.561 343.781 266.356C343.278 266.198 342.77 266.039 342.267 265.886C341.328 268.239 340.389 270.596 339.45 272.948C338.851 272.996 338.252 273.049 337.654 273.097C336.245 260.175 334.836 247.259 333.337 233.499C335.205 234.002 336.374 234.318 336.916 234.462C339.081 229.087 341.208 223.807 343.336 218.527C335.799 217.923 334.966 225.896 330.232 229.13L330.237 229.134ZM240.899 459.711C242.945 445.525 242.284 431.463 239.108 417.55C238.245 413.779 236.319 410.248 234.949 406.765C240.88 406.008 242.351 408.356 244.33 423.165C251.071 418.101 254.568 409.904 252.613 403.766L254.324 402.679C255.934 405.587 258.315 408.332 258.99 411.446C260.279 417.358 260.514 422.729 268.955 423.342C275.347 423.807 273.282 428.54 269.751 432.876C274.221 432.728 278.121 433.993 277.905 428.272C277.771 424.78 277.282 421.297 276.928 417.521C280.641 417.521 283.678 417.521 288.373 417.521C285.916 415.207 284.718 414.081 283.281 412.73C285.096 412.141 286.629 411.647 288.445 411.058C288.445 407.652 288.445 404.207 288.445 398.961C293.14 405.52 296.873 410.732 300.657 416.022C300.978 414.369 301.458 411.887 302.176 408.188C303.537 410.354 304.299 411.561 304.246 411.48C309.712 404.969 315.399 398.19 321.709 390.677C324.291 396.949 326.083 401.294 327.87 405.64C328.206 405.64 328.546 405.644 328.881 405.649V386.241C340.691 398.348 338.075 416.812 323.717 427.065C322.605 425.474 321.503 423.888 320.401 422.303C319.836 422.374 319.275 422.451 318.71 422.523C319.251 426.686 319.793 430.855 320.353 435.138C305.396 438.396 309.042 451.211 308.179 461.445C296.585 458.336 299.872 470.783 293.318 473.93C291.995 472.048 290.414 469.801 288.737 467.41C282.519 473.164 276.391 473.102 269.454 472.21C262.885 471.367 256.049 472.627 248.977 472.982C247.832 477.873 246.102 480.163 239.615 478.836C232.026 477.289 223.796 478.731 215.852 479.09C211.507 479.287 207.477 474.889 202.849 478.242C202.615 478.41 200.31 476.752 200.166 475.765C199.965 474.39 200.502 471.904 201.393 471.544C206.03 469.666 210.807 467.381 215.675 466.983C224.481 466.265 233.387 466.777 241.46 466.777C241.268 464.708 240.54 462.125 240.89 459.701L240.899 459.711ZM259.843 492.687C257.97 488.811 256.983 486.765 255.387 483.464C262.397 483.005 268.941 482.128 275.404 482.511C276.784 482.593 279.294 487.499 278.897 489.765C276.88 501.22 268.438 507.281 256.365 507.055C249.011 506.921 241.656 507.031 233.138 507.031C234.427 503.965 235.054 502.466 235.874 500.52C234.58 500.621 233.751 500.425 233.315 500.755C229.736 503.457 226.392 508.296 222.665 508.593C215.244 509.187 207.602 507.439 200.118 506.227C199.357 506.102 198.614 503.026 198.662 501.344C198.777 497.378 199.376 493.425 199.764 489.611C213.064 489.611 226.555 489.611 240.051 489.611C240.286 489.611 240.631 489.439 240.736 489.544C245.489 494.292 247.746 491.101 248.996 487.355C252.244 488.95 255.196 490.402 259.848 492.687H259.843ZM185.688 187.208C181.505 187.826 176.801 188.521 171.741 189.264C172.604 192.598 173.548 196.249 174.491 199.905C173.71 200.106 172.925 200.307 172.144 200.508C164.445 184.492 156.104 168.648 159.39 148.526C171.487 167.168 192.678 178.139 196.113 202.846C188.567 199.986 190.043 191.904 185.683 187.213L185.688 187.208ZM333.323 640.533C332.695 637.811 332.772 634.898 332.762 632.067C332.719 616.544 332.566 601.021 332.853 585.508C332.925 581.709 334.501 577.938 336.849 574.412C341.544 597.6 341.074 620.549 337.313 645.544C335.392 643.23 333.667 642.037 333.318 640.533H333.323ZM255.148 536.774C255.148 537.382 255.148 539.39 255.148 542.068C251.243 542.068 247.43 542.705 244.023 541.8C242.342 541.354 240.511 538.13 240.353 536.041C240.071 532.347 241.163 528.567 241.383 524.801C241.498 522.842 240.976 520.849 240.641 518.036C248.172 518.036 256.532 518.036 264.893 518.036C265.19 518.789 265.487 519.536 265.779 520.288C262.061 523.244 258.339 526.205 253.476 530.076C257.203 530.574 259.455 530.871 261.702 531.173C261.961 531.81 262.215 532.452 262.473 533.09C260.312 534.177 258.152 535.26 255.143 536.774H255.148ZM150.747 105.833C150.311 106.384 149.87 106.93 149.434 107.481C153.018 111.697 156.602 115.918 160.439 120.436C149.851 120.973 139.963 100.75 143.867 88.3558C149.952 90.3488 156.036 92.3371 162.121 94.3301C162.404 93.7265 162.686 93.118 162.969 92.5144C164.186 94.4739 165.403 96.4334 166.625 98.3929C166.404 98.9151 166.179 99.4373 165.959 99.9643C161.244 98.2348 156.525 96.5005 151.384 94.6128C151.61 106.044 164.723 103.404 167.664 110.835C167.137 111.525 166.61 112.22 166.078 112.91C160.966 110.552 155.854 108.195 150.742 105.838L150.747 105.833ZM364.555 406.828C367.214 401.586 356.41 397.734 364.057 391.841C365.484 393.494 366.836 395.056 368.599 397.092C369.284 395.799 369.873 394.687 370.089 394.28C372.245 396.934 374.626 399.876 377.879 403.881C378.722 400.916 379.105 399.569 379.005 399.924C381.601 404.566 384.96 409.894 387.609 415.557C389.425 419.438 391.346 423.75 388.318 428.306C390.364 416.323 377.663 414.105 373.85 405.86C370.755 406.181 367.995 406.468 364.555 406.828ZM257.016 369.707C258.482 381.594 259.747 391.841 261.252 404.025C254.463 396.647 251.88 376.989 257.016 369.707ZM349.54 392.507C348.869 392.618 348.194 392.728 347.523 392.843C345.688 384.669 343.858 376.491 342.023 368.318C347.652 370.895 342.018 380.913 352.99 380.18C352.99 384.008 352.99 388.756 352.99 393.499C352.659 393.566 352.328 393.638 351.998 393.705C351.504 391.894 351.011 390.083 350.273 387.367C349.923 389.796 349.732 391.152 349.535 392.507H349.54ZM231.178 395.909C227.173 395.066 221.496 380.52 222.813 372.577C226.244 381.167 233.406 386.624 231.178 395.909ZM160.784 141.383C159.342 139.869 159.385 136.941 158.772 134.642C161.01 134.613 163.755 133.741 165.379 134.728C169.317 137.109 173.466 140.146 168.488 145.872C165.829 144.406 162.739 143.438 160.789 141.387L160.784 141.383ZM180.025 102.053C180.178 103.898 182.507 106.015 184.366 107.156C187.456 109.048 190.968 110.251 194.743 111.947C187.983 115.066 176.044 107.707 171.986 98.1055C176.159 97.4251 179.536 96.1795 180.025 102.053ZM489.84 477.313C489.159 483.666 487.688 489.928 486.472 496.223C485.695 496.127 484.914 496.031 484.138 495.935C484.138 489.233 484.138 482.535 484.138 473.935C486.198 475.109 489.935 476.417 489.84 477.313ZM480.238 418.642C480.976 418.733 481.719 418.824 482.457 418.915C481.086 430.064 479.721 441.213 478.351 452.361C477.244 452.213 476.137 452.069 475.031 451.921C476.765 440.829 478.499 429.733 480.234 418.642H480.238ZM409.528 576.113C408.709 576.017 407.89 575.921 407.07 575.83C407.617 567.561 408.163 559.296 408.704 551.027C409.686 551.08 410.664 551.133 411.646 551.185C415.608 560.077 408.129 567.542 409.523 576.113H409.528ZM217.879 232.694C217.241 233.159 216.604 233.619 215.967 234.084C210.529 226.571 205.096 219.059 199.658 211.547C200.55 210.924 201.436 210.296 202.327 209.673C207.511 217.349 212.695 225.019 217.879 232.694ZM229.473 249.333C230.273 248.71 231.068 248.083 231.868 247.46C236.31 252.998 240.751 258.532 245.187 264.07C244.172 264.823 243.161 265.575 242.145 266.327C237.919 260.664 233.698 254.996 229.473 249.333ZM382.588 600.063C381.894 600.039 381.194 600.015 380.499 599.996C376.552 593.039 380.83 586.188 382.588 579.208V600.063ZM251.454 114.031C249.983 108.277 248.507 102.523 247.037 96.7688C247.865 96.558 248.694 96.3471 249.528 96.1363C252.355 101.713 256.508 107.06 251.459 114.036L251.454 114.031ZM216.326 123.282C210.611 117.974 205.221 112.972 199.836 107.97C209.01 109.13 214.702 113.921 216.326 123.282ZM512.372 396.484C512.971 396.489 513.569 396.498 514.168 396.503C514.168 403.187 514.168 409.87 514.168 416.553C512.717 416.496 511.27 416.434 509.818 416.376C510.671 409.745 511.519 403.115 512.372 396.484ZM470.68 411.049C469.085 412.855 467.049 415.154 464.385 418.163C461.515 411.35 467.494 406.013 468.294 399.89C469.08 403.565 469.866 407.245 470.68 411.049ZM174.008 210.239C175.21 207.532 176.269 205.146 177.946 201.375C179.632 206.099 180.95 209.793 182.267 213.492C181.544 213.913 180.82 214.335 180.097 214.757C178.161 213.319 176.231 211.887 174.008 210.234V210.239ZM179.876 224.243C183.942 222.806 187.248 224.709 189.794 229.954C189.257 230.629 188.721 231.3 188.179 231.975C185.568 229.546 182.957 227.113 179.876 224.248V224.243ZM285.135 366.947C286.112 366.756 287.089 366.559 288.067 366.368C288.915 371.207 289.758 376.05 290.606 380.889C289.744 381.019 288.886 381.148 288.024 381.277C287.061 376.501 286.098 371.724 285.13 366.947H285.135ZM390.709 355.372C391.116 355.368 391.528 355.358 391.936 355.353C392.458 360.983 392.975 366.607 393.497 372.237C392.568 372.246 391.639 372.261 390.709 372.27C390.709 366.636 390.709 361.007 390.709 355.372ZM276.429 396.508C277.086 396.503 277.742 396.493 278.399 396.489C278.691 400.518 278.983 404.547 279.275 408.576C278.145 408.576 277.009 408.576 275.878 408.581C276.065 404.557 276.247 400.532 276.434 396.513L276.429 396.508ZM423.829 515.938C424.85 516.58 425.865 517.217 426.886 517.859C425.358 520.034 423.834 522.205 422.31 524.38C421.515 523.901 420.725 523.421 419.929 522.942C421.228 520.609 422.531 518.271 423.829 515.938ZM447.387 207.139C446.864 214.522 438.059 220.079 429.545 218.335C422.952 216.984 416.269 216.074 409.734 214.503C408.728 214.263 407.329 210.555 407.803 210.052C415.244 202.175 419.101 190.658 431.447 187.659C436.324 186.475 439.237 187.089 441.115 191.654C443.233 196.805 445.298 201.974 447.387 207.139ZM462.133 462.753C463.398 463.294 464.663 463.836 465.468 464.181C462.497 471.132 459.695 477.701 456.954 484.126C455.924 479.426 454.851 474.553 453.783 469.686L453.624 469.901C456.537 467.477 459.45 465.048 462.363 462.624L462.133 462.758V462.753ZM58.1564 365.218C58.1564 365.218 58.4295 364.911 58.4391 364.906C53.8109 364.906 49.178 364.906 45.3692 364.906C47.8845 362.918 50.9795 360.47 54.8027 357.447C56.0771 360.393 57.1168 362.808 58.1612 365.218H58.1564ZM13.1689 363.704H28.7876C28.7924 364.14 28.7971 364.576 28.8019 365.012C23.6085 365.328 18.4199 365.644 13.2264 365.96C13.2073 365.208 13.1881 364.456 13.1689 363.704Z" fill="white"/>
</mask>
<g mask="url(#mask0_53_81708)">
<path d="M-7.24597 638.951H552.223V646.037H-7.24597V638.951Z" fill="#22CE58"/>
<path d="M-7.24597 625.741H552.223V632.727H-7.24597V625.741Z" fill="#22CE58"/>
<path d="M-7.24597 612.533H552.223V619.423H-7.24597V612.533Z" fill="#22CE58"/>
<path d="M-7.24597 599.329H552.223V606.118H-7.24597V599.329Z" fill="#22CE58"/>
<path d="M-7.24597 586.121H552.223V592.809H-7.24597V586.121Z" fill="#22CE58"/>
<path d="M-7.24597 572.911H552.223V579.499H-7.24597V572.911Z" fill="#22CE58"/>
<path d="M-7.24597 559.703H552.223V566.195H-7.24597V559.703Z" fill="#22CE58"/>
<path d="M-7.24597 546.494H552.223V552.885H-7.24597V546.494Z" fill="#22CE58"/>
<path d="M-7.24597 533.285H552.223V539.576H-7.24597V533.285Z" fill="#22CE58"/>
<path d="M-7.24597 520.076H552.223V526.266H-7.24597V520.076Z" fill="#22CE58"/>
<path d="M-7.24597 506.868H552.223V512.962H-7.24597V506.868Z" fill="#22CE58"/>
<path d="M-7.24597 493.664H552.223V499.658H-7.24597V493.664Z" fill="#22CE58"/>
<path d="M-7.24597 480.454H552.223V486.347H-7.24597V480.454Z" fill="#22CE58"/>
<path d="M-7.24597 467.246H552.223V473.038H-7.24597V467.246Z" fill="#22CE58"/>
<path d="M-7.24597 454.037H552.223V459.729H-7.24597V454.037Z" fill="#22CE58"/>
<path d="M-7.24597 440.829H552.223V446.425H-7.24597V440.829Z" fill="#22CE58"/>
<path d="M-7.24597 427.62H552.223V433.115H-7.24597V427.62Z" fill="#22CE58"/>
<path d="M-7.24597 414.41H552.223V419.805H-7.24597V414.41Z" fill="#22CE58"/>
<path d="M-7.24597 401.207H552.223V406.501H-7.24597V401.207Z" fill="#22CE58"/>
<path d="M-7.24597 387.998H552.223V393.196H-7.24597V387.998Z" fill="#22CE58"/>
<path d="M-7.24597 374.79H552.223V379.888H-7.24597V374.79Z" fill="#22CE58"/>
<path d="M-7.24597 361.58H552.223V366.577H-7.24597V361.58Z" fill="#22CE58"/>
<path d="M-7.24597 348.372H552.223V353.268H-7.24597V348.372Z" fill="#22CE58"/>
<path d="M-7.24597 335.163H552.223V339.964H-7.24597V335.163Z" fill="#22CE58"/>
<path d="M-7.24597 321.954H552.223V326.654H-7.24597V321.954Z" fill="#22CE58"/>
<path d="M-7.24597 308.75H552.223V313.349H-7.24597V308.75Z" fill="#22CE58"/>
<path d="M-7.24597 295.542H552.223V300.041H-7.24597V295.542Z" fill="#22CE58"/>
<path d="M-7.24597 282.333H552.223V286.731H-7.24597V282.333Z" fill="#22CE58"/>
<path d="M-7.24597 269.124H552.223V273.426H-7.24597V269.124Z" fill="#22CE58"/>
<path d="M-7.24597 255.915H552.223V260.117H-7.24597V255.915Z" fill="#22CE58"/>
<path d="M-7.24597 242.707H552.223V246.808H-7.24597V242.707Z" fill="#22CE58"/>
<path d="M-7.24597 229.497H552.223V233.498H-7.24597V229.497Z" fill="#22CE58"/>
<path d="M-7.24597 216.289H552.223V220.194H-7.24597V216.289Z" fill="#22CE58"/>
<path d="M-7.24597 203.085H552.223V206.889H-7.24597V203.085Z" fill="#22CE58"/>
<path d="M-7.24597 189.876H552.223V193.579H-7.24597V189.876Z" fill="#22CE58"/>
<path d="M-7.24597 176.667H552.223V180.27H-7.24597V176.667Z" fill="#22CE58"/>
<path d="M-7.24597 163.459H552.223V166.966H-7.24597V163.459Z" fill="#22CE58"/>
<path d="M-7.24597 150.249H552.223V153.655H-7.24597V150.249Z" fill="#22CE58"/>
<path d="M-7.24597 137.041H552.223V140.347H-7.24597V137.041Z" fill="#22CE58"/>
<path d="M-7.24597 123.833H552.223V127.038H-7.24597V123.833Z" fill="#22CE58"/>
<path d="M-7.24597 110.628H552.223V113.733H-7.24597V110.628Z" fill="#22CE58"/>
<path d="M-7.24597 97.4189H552.223V100.428H-7.24597V97.4189Z" fill="#22CE58"/>
<path d="M-7.24597 84.2109H552.223V87.1191H-7.24597V84.2109Z" fill="#22CE58"/>
<path d="M-7.24597 71.002H552.223V73.8095H-7.24597V71.002Z" fill="#22CE58"/>
<path d="M-7.24597 57.793H552.223V60.4999H-7.24597V57.793Z" fill="#22CE58"/>
<path d="M-7.24597 44.584H552.223V47.1951H-7.24597V44.584Z" fill="#22CE58"/>
<path d="M-7.24597 31.376H552.223V33.8865H-7.24597V31.376Z" fill="#22CE58"/>
<path d="M-7.24597 18.1719H552.223V20.5817H-7.24597V18.1719Z" fill="#22CE58"/>
<path d="M-7.24597 4.96289H552.223V7.27215H-7.24597V4.96289Z" fill="#22CE58"/>
<path d="M527.682 -27.1416H529.479V701.066H527.682V-27.1416Z" fill="#24C4C4"/>
<path d="M519.801 -27.1416H521.598V701.066H519.801V-27.1416Z" fill="#24C4C4"/>
<path d="M511.918 -27.1416H513.715V701.066H511.918V-27.1416Z" fill="#24C4C4"/>
<path d="M504.043 -27.1416H505.84V701.066H504.043V-27.1416Z" fill="#24C4C4"/>
<path d="M496.16 -27.1416H497.957V701.066H496.16V-27.1416Z" fill="#24C4C4"/>
<path d="M488.282 -27.1416H490.078V701.066H488.282V-27.1416Z" fill="#24C4C4"/>
<path d="M480.405 -27.1416H482.201V701.066H480.405V-27.1416Z" fill="#24C4C4"/>
<path d="M472.524 -27.1416H474.32V701.066H472.524V-27.1416Z" fill="#24C4C4"/>
<path d="M464.641 -27.1416H466.438V701.066H464.641V-27.1416Z" fill="#24C4C4"/>
<path d="M456.762 -27.1416H458.559V701.066H456.762V-27.1416Z" fill="#24C4C4"/>
<path d="M448.885 -27.1416H450.682V701.066H448.885V-27.1416Z" fill="#24C4C4"/>
<path d="M441.002 -27.1416H442.799V701.066H441.002V-27.1416Z" fill="#24C4C4"/>
<path d="M433.121 -27.1416H434.918V701.066H433.121V-27.1416Z" fill="#24C4C4"/>
<path d="M425.244 -27.1416H427.041V701.066H425.244V-27.1416Z" fill="#24C4C4"/>
<path d="M417.365 -27.1416H419.162V701.066H417.365V-27.1416Z" fill="#24C4C4"/>
<path d="M409.483 -27.1416H411.279V701.066H409.483V-27.1416Z" fill="#24C4C4"/>
<path d="M401.602 -27.1416H403.398V701.066H401.602V-27.1416Z" fill="#24C4C4"/>
<path d="M393.725 -27.1416H395.521V701.066H393.725V-27.1416Z" fill="#24C4C4"/>
<path d="M385.844 -27.1416H387.641V701.066H385.844V-27.1416Z" fill="#24C4C4"/>
<path d="M377.963 -27.1416H379.76V701.066H377.963V-27.1416Z" fill="#24C4C4"/>
<path d="M370.086 -27.1416H371.883V701.066H370.086V-27.1416Z" fill="#24C4C4"/>
<path d="M362.205 -27.1416H364.002V701.066H362.205V-27.1416Z" fill="#24C4C4"/>
<path d="M354.324 -27.1416H356.121V701.066H354.324V-27.1416Z" fill="#24C4C4"/>
<path d="M346.442 -27.1416H348.238V701.066H346.442V-27.1416Z" fill="#24C4C4"/>
<path d="M338.567 -27.1416H340.363V701.066H338.567V-27.1416Z" fill="#24C4C4"/>
<path d="M330.686 -27.1416H332.482V701.066H330.686V-27.1416Z" fill="#24C4C4"/>
<path d="M322.805 -27.1416H324.602V701.066H322.805V-27.1416Z" fill="#24C4C4"/>
<path d="M314.924 -27.1416H316.721V701.066H314.924V-27.1416Z" fill="#24C4C4"/>
<path d="M307.047 -27.1416H308.844V701.066H307.047V-27.1416Z" fill="#24C4C4"/>
<path d="M299.166 -27.1416H300.963V701.066H299.166V-27.1416Z" fill="#24C4C4"/>
<path d="M291.283 -27.1416H293.08V701.066H291.283V-27.1416Z" fill="#24C4C4"/>
<path d="M283.408 -27.1416H285.205V701.066H283.408V-27.1416Z" fill="#24C4C4"/>
<path d="M275.526 -27.1416H277.322V701.066H275.526V-27.1416Z" fill="#24C4C4"/>
<path d="M267.647 -27.1416H269.443V701.066H267.647V-27.1416Z" fill="#24C4C4"/>
<path d="M259.77 -27.1416H261.566V701.066H259.77V-27.1416Z" fill="#24C4C4"/>
<path d="M251.889 -27.1416H253.686V701.066H251.889V-27.1416Z" fill="#24C4C4"/>
<path d="M244.006 -27.1416H245.803V701.066H244.006V-27.1416Z" fill="#24C4C4"/>
<path d="M236.125 -27.1416H237.922V701.066H236.125V-27.1416Z" fill="#24C4C4"/>
<path d="M228.25 -27.1416H230.047V701.066H228.25V-27.1416Z" fill="#24C4C4"/>
<path d="M220.367 -27.1416H222.164V701.066H220.367V-27.1416Z" fill="#24C4C4"/>
<path d="M212.487 -27.1416H214.283V701.066H212.487V-27.1416Z" fill="#24C4C4"/>
<path d="M204.61 -27.1416H206.406V701.066H204.61V-27.1416Z" fill="#24C4C4"/>
<path d="M196.731 -27.1416H198.527V701.066H196.731V-27.1416Z" fill="#24C4C4"/>
<path d="M188.848 -27.1416H190.645V701.066H188.848V-27.1416Z" fill="#24C4C4"/>
<path d="M180.967 -27.1416H182.764V701.066H180.967V-27.1416Z" fill="#24C4C4"/>
<path d="M173.09 -27.1416H174.887V701.066H173.09V-27.1416Z" fill="#24C4C4"/>
<path d="M165.209 -27.1416H167.006V701.066H165.209V-27.1416Z" fill="#24C4C4"/>
<path d="M157.328 -27.1416H159.125V701.066H157.328V-27.1416Z" fill="#24C4C4"/>
<path d="M149.448 -27.1416H151.244V701.066H149.448V-27.1416Z" fill="#24C4C4"/>
<path d="M141.571 -27.1416H143.367V701.066H141.571V-27.1416Z" fill="#24C4C4"/>
<path d="M133.69 -27.1416H135.486V701.066H133.69V-27.1416Z" fill="#24C4C4"/>
<path d="M125.807 -27.1416H127.604V701.066H125.807V-27.1416Z" fill="#24C4C4"/>
<path d="M117.932 -27.1416H119.729V701.066H117.932V-27.1416Z" fill="#24C4C4"/>
<path d="M110.051 -27.1416H111.848V701.066H110.051V-27.1416Z" fill="#24C4C4"/>
<path d="M102.168 -27.1416H103.965V701.066H102.168V-27.1416Z" fill="#24C4C4"/>
<path d="M94.2893 -27.1416H96.0859V701.066H94.2893V-27.1416Z" fill="#24C4C4"/>
<path d="M86.4104 -27.1416H88.207V701.066H86.4104V-27.1416Z" fill="#24C4C4"/>
<path d="M78.5315 -27.1416H80.3281V701.066H78.5315V-27.1416Z" fill="#24C4C4"/>
<path d="M70.6487 -27.1416H72.4453V701.066H70.6487V-27.1416Z" fill="#24C4C4"/>
<path d="M62.7737 -27.1416H64.5703V701.066H62.7737V-27.1416Z" fill="#24C4C4"/>
<path d="M54.8909 -27.1416H56.6875V701.066H54.8909V-27.1416Z" fill="#24C4C4"/>
<path d="M47.012 -27.1416H48.8086V701.066H47.012V-27.1416Z" fill="#24C4C4"/>
<path d="M39.1292 -27.1416H40.9258V701.066H39.1292V-27.1416Z" fill="#24C4C4"/>
<path d="M31.2542 -27.1416H33.0508V701.066H31.2542V-27.1416Z" fill="#24C4C4"/>
<path d="M23.3733 -27.1416H25.1699V701.066H23.3733V-27.1416Z" fill="#24C4C4"/>
<path d="M15.4905 -27.1416H17.2871V701.066H15.4905V-27.1416Z" fill="#24C4C4"/>
<path d="M7.61549 -27.1416H9.41211V701.066H7.61549V-27.1416Z" fill="#24C4C4"/>
<path d="M-0.267327 -27.1416H1.5293V701.066H-0.267327V-27.1416Z" fill="#24C4C4"/>
</g>
</svg>
