<svg width="595" height="651" viewBox="0 0 595 651" fill="none" xmlns="http://www.w3.org/2000/svg">
<mask id="mask0_53_68010" style="mask-type:luminance" maskUnits="userSpaceOnUse" x="0" y="0" width="595" height="687">
<path d="M75.6961 633.731C69.3249 634.697 70.5275 639.271 70.3331 643.281C69.9505 651.164 66.4339 653.672 58.9331 651.769C57.0078 651.277 55.9145 650.391 55.0946 648.708C52.8595 644.139 52.7745 644.179 46.7131 643.354C57.0321 641.434 53.9831 635.815 52.8474 630.552C52.1186 627.163 52.3372 622.188 54.5358 620.838C62.1156 616.179 56.6434 612.463 54.6026 608.386C53.8617 606.901 52.9324 605.495 52.0275 603.953C49.1608 604.179 51.8514 609.216 48.0615 608.166C45.6624 607.505 43.9436 605.517 43.2148 603.275C41.9818 599.469 40.6396 597.47 35.2402 598.306C29.5311 599.187 24.235 593.697 23.7491 588.366C23.2997 583.408 26.8648 580.302 34.6511 578.867C40.591 577.772 45.7171 580.584 47.776 586.034C48.6627 588.383 49.4462 590.778 50.5881 593.02C51.6388 595.075 51.8088 594.985 54.1471 593.104C54.4447 592.867 54.8577 592.726 55.2464 592.619C56.8984 592.15 58.2468 595.996 59.5283 593.421C60.7794 590.913 56.8134 591.421 55.8052 589.97C55.204 589.106 54.7484 588.056 53.9224 587.446C51.9303 585.977 49.3065 584.306 51.4201 581.974C53.3151 579.878 56.4247 579.364 58.7752 583.244C58.593 576.936 57.0199 572.791 51.2015 569.866C45.954 567.228 40.7732 565.342 34.9244 565.133C32.1185 565.031 29.2578 565.303 26.6887 564.134C24.727 563.236 20.269 564.676 21.1193 561.547C21.842 558.887 25.6015 557.131 29.4097 558.339C30.0413 558.537 30.594 558.995 31.2317 559.13C33.3392 559.576 36.0055 561.57 37.4692 559.774C39.1516 557.707 38.4349 554.573 37.1838 552.223C36.1938 550.365 34.8576 547.875 31.5475 549.705C30.8977 550.066 29.2032 550.077 29.106 549.84C25.9113 542.25 13.4059 544.407 11.4745 535.067C11.0251 532.893 7.33236 530.374 4.92724 529.301C0.177742 527.183 0.390329 524.077 0.0441377 520.243C-0.235245 517.165 0.797237 516.357 3.55462 516.6C6.91936 516.899 7.8729 515.623 7.38702 512.63C6.73108 508.62 10.521 504.792 8.04297 500.567C7.73929 500.048 9.17264 497.981 9.28804 498.015C16.0904 500.2 21.18 492.085 28.0613 495.315C29.7862 496.129 31.2013 497.168 33.4668 497.106C35.5986 497.049 37.9429 500.053 39.9108 497.117C41.4717 494.785 42.492 491.323 40.3966 489.493C36.5157 486.105 40.0201 484.636 41.3502 482.27C42.984 479.362 48.1344 476.922 43.4638 472.816C42.4799 471.952 41.745 469.784 39.8743 471.094C38.5746 472.009 38.3681 473.743 39.8561 474.923C41.2773 476.052 42.0973 477.396 40.3177 478.407C38.6232 479.373 38.3863 477.278 37.6028 476.453C36.2849 475.07 34.8151 472.788 32.8047 474.364C30.5757 476.12 25.061 475.736 26.7373 480.356C28.0856 484.072 24.0953 481.982 23.3786 483.569C22.911 484.614 21.1678 483.885 20.8095 482.818C20.2811 481.254 19.8195 479.136 21.5869 478.244C28.0067 475.002 26.9317 469.948 25.0063 465.238C22.3947 458.856 19.9957 452.695 22.5587 445.777C23.0021 444.58 22.1518 442.965 21.7995 440.977C24.4172 441.801 29.0999 445.608 27.1624 438.712C26.8223 437.509 26.5247 435.838 28.1463 435.51C30.6183 435.013 29.7437 437.408 30.5029 438.441C31.7905 440.181 32.1852 441.784 30.5758 443.512C29.7133 444.439 28.444 445.664 30.3268 446.477C31.918 447.166 32.3492 445.438 33.1509 444.495C34.1774 443.292 33.3089 439.78 37.2384 441.705C38.3074 442.231 39.4917 439.509 38.8358 439.012C34.8515 435.956 36.2363 431.359 36.4307 428.163C36.8497 421.296 35.1795 414.768 34.8333 408.081C34.7969 407.358 35.1856 406.443 35.7079 405.89C39.9776 401.327 40.4392 396.837 35.5378 392.845C31.6933 389.716 30.1203 385.622 27.2475 382.002C27.9338 381.861 28.3893 381.618 28.6747 381.731C31.1102 382.719 32.3249 386.876 35.8597 384.747C39.5889 382.499 38.0583 379.466 36.4185 376.496C35.4771 374.79 39.6192 365.574 41.0465 365.495C46.8407 365.184 51.0436 366.669 51.7238 372.927C52.4101 379.28 57.0139 383.645 61.6905 387.649C63.3121 389.038 66.5614 389.479 66.5128 385.17C67.928 389.733 74.4145 390.162 75.113 395.092C75.277 396.239 78.8178 396.589 76.0726 398.266C74.6818 399.113 73.0966 398.481 71.5903 397.933C70.2724 397.447 70.2116 393.89 67.8612 396.307C66.1727 398.046 68.3714 399.655 69.495 400.491C73.1998 403.247 73.6857 407.449 75.277 411.34C84.8732 401.615 84.3812 396.154 75.1859 387.096C72.4588 384.408 68.754 382.883 66.6161 379.873C64.1563 376.405 62.395 372.593 62.8566 367.409C65.9298 371.701 73.4488 370.758 72.6046 377.687C76.2548 376.343 74.2991 373.7 75.3013 372.017C75.8236 371.136 75.9754 369.866 77.3845 369.922C78.7024 369.973 79.577 371.215 79.4131 372.057C77.9554 379.319 87.6305 380.358 88.6266 386.458C88.912 388.197 91.5237 388.609 92.5744 385.565C94.2021 380.839 97.6276 376.569 96.2792 370.809C93.4611 370.724 92.3132 372.763 90.8556 374.463C90.0782 375.372 89.5437 376.846 87.8127 376.439C86.2761 376.078 85.7113 374.813 85.6809 373.559C85.5048 367.127 82.0854 363.727 75.4349 361.643C72.0033 360.57 67.9583 357.769 69.6711 352.523C70.6064 349.654 67.1567 347.768 66.4278 345.238C64.7758 339.517 66.6647 333.39 62.5165 327.692C60.409 324.795 64.4964 323.699 68.8876 325.834C65.3589 318.854 63.3303 312.856 62.4861 306.548C63.6219 305.74 64.5936 306.514 65.5654 306.876C66.9198 307.378 68.256 307.615 69.1245 306.283C70.072 304.837 68.8086 303.724 67.7822 303.233C64.9216 301.866 64.1624 300.33 67.023 297.428C69.744 306.26 80.9253 303.465 85.3104 310.14C87.1446 308.197 86.3369 307.294 84.7942 305.87C80.5427 301.94 77.3359 297.67 80.7917 291.588C82.3344 288.878 78.423 285.964 80.6824 282.637C83.0632 279.13 84.2111 275.375 90.315 277.747C96.1092 279.994 97.2814 274.313 99.8079 271.461C105.632 274.082 99.7715 280.875 105.256 283.377C107.693 280.184 110.785 280.561 114.53 284.507C116.504 282.53 115.119 279.644 116.996 277.267C120.737 281.604 125.062 285.337 128.129 290.391C130.838 288.787 127.795 286.212 129.611 284.738C132.162 284.682 131.518 287.178 132.745 288.172C133.103 288.014 133.729 287.901 133.759 287.709C134.439 282.812 135.939 281.124 140.646 285.331C145.384 289.567 145.639 288.499 148.196 283.044C151.044 276.967 148.761 272.433 146.513 267.333C145.712 265.515 144.594 263.51 146.076 260.935C150.218 263.809 152.69 268.35 158.266 270.462C156.687 266.576 152.939 264.035 153.237 260.008C153.498 256.394 151.882 251.871 159.572 254.898C162.56 256.072 167.649 257.377 171.883 254.649C174.227 253.141 180.829 258.896 180.689 261.646C180.556 264.284 178.97 268.282 184.807 267.446C188.147 266.966 185.882 269.976 187.528 271.252C195.509 277.442 199.128 284.93 192.775 294.339C190.874 297.157 193.583 298.975 196.152 298.687C199.614 298.292 200.902 300.681 201.455 302.29C202.888 306.452 207.48 307.847 209.484 311.473C210.644 308.231 211.61 305.65 207.522 303.092C202.432 299.912 202.414 294.604 203.975 289.589C205.688 284.077 207.941 278.712 209.842 273.246C211.47 268.575 209.994 262.77 215.897 259.636C216.699 259.207 217.641 257.439 216.717 256.247C214.488 253.362 217.234 253.051 218.934 252.695C223.927 251.656 225.014 249.081 223.963 244.591C222.724 239.317 226.065 235.527 231.494 235.126C232.922 235.019 234.914 236.182 235.515 234.099C236.08 232.133 234.646 229.581 233.414 229.225C228.913 227.92 228.834 225.323 229.994 222.059C230.711 220.054 230.972 218.038 228.342 217.518C225.081 216.874 227.814 220.698 225.342 221.285C224.212 217.789 224.546 214.062 222.906 210.611C222.335 209.409 221.181 203.349 227.723 205.676C230.48 206.658 231.549 204.382 232.934 201.92C226.745 202.423 225.894 199.955 227.759 195.205C229.508 190.761 230.219 186.204 228.798 181.211C227.243 175.739 230.012 173.938 235.922 175.666C238.181 176.327 239.317 175.587 239.511 173.39C239.742 170.792 240.89 168.115 239.621 165.608C236.742 159.927 237.635 153.963 237.871 148.073C237.944 146.249 236.499 142.99 241.23 143.792C244.249 144.306 243.326 141.957 243.374 140.387C243.508 135.892 242.724 131.645 250.577 131.34C254.95 131.171 258.145 126.207 257.653 121.271C257.094 115.674 255.096 109.869 264.079 108.355C266.897 107.881 265.233 104.007 269.484 102.652C274.556 101.036 279.736 101.324 284.619 99.7093C289.618 98.049 292.886 101.731 294.963 104.623C297.829 108.626 300.18 113.189 299.627 118.6C299.081 123.965 300.878 124.868 306.229 122.784C313.821 119.819 322.154 121.463 328.13 126.98C329.217 127.98 330.639 128.669 331.926 129.476C336.9 132.582 340.241 136.168 339.129 142.499C338.595 145.549 338.17 150.033 344.784 149.027C348.987 148.389 349.667 153.184 349.351 154.675C348.27 159.791 352.558 163.456 352.497 168.206C352.473 170.126 353.366 171.78 350.955 172.899C348.975 173.813 348.726 175.575 349.4 177.185C350.232 179.178 351.981 177.942 353.439 177.772C359.136 177.1 362.701 179.257 362.877 184.769C363.235 196.137 372.886 204.445 374.301 215.429C386.873 224.747 379.142 239.204 384.389 250.515C386.011 254.011 382.519 258.518 382.731 263.103C383.187 273.031 385.161 283.038 382.895 293.011C382.683 293.943 382.81 295.451 383.448 295.959C390.754 301.804 388.762 309.976 389.777 317.363C390.056 319.384 390.469 320.587 392.941 321.395C401.802 324.292 403.97 328.488 403.612 337.456C403.333 344.459 405.039 352.704 409.364 357.142C422.27 370.402 417.381 384.933 415.972 399.407C415.273 406.534 410.906 411.724 404.572 415.445C412.838 419.269 419.221 415.993 420.727 407.234C421.651 401.869 419.98 396.177 423.381 391.105C425.167 388.434 426.558 387.401 429.479 390.021C431.872 392.167 433.804 397.419 438.085 394.121C442.209 390.947 443.704 386.141 438.626 381.821C438.268 381.516 438.395 380.714 438.098 379.048C441.711 382.329 447.032 380.313 449.322 385.018C449.218 381.516 445.878 378.568 449.079 375.073C450.403 373.621 448.155 372.514 446.655 371.458C441.317 367.703 441.074 364.01 446.212 360.226C451.15 356.589 452.941 350.563 458.432 347.356C461.031 345.836 458.802 342.714 459.258 339.72C462.738 344.752 463.455 355.019 460.861 359.65C460.072 361.062 460.637 361.965 461.165 363.083C462.301 365.472 463.096 367.624 459.847 369.465C458.037 370.487 459.185 372.582 459.568 374.13C460.333 377.19 461.39 380.127 458.335 382.781C457.381 383.606 457.011 385.356 458.049 386.26C463.625 391.111 460.867 397.481 462.149 403.433C459.434 402.095 460.904 398.712 457.806 397.786C457.223 403.552 459.294 409.374 460.886 414.271C463.473 422.239 459.227 428.79 459.258 436.03C459.276 441.372 459.197 446.263 462.799 450.718C463.983 452.187 464.918 453.926 465.52 455.677C466.145 457.501 466.157 459.551 463.704 460.421C461.475 461.211 461.189 459.235 460.479 458.077C459.173 455.948 457.764 454.209 454.344 455.592C458.462 461.014 458.632 467.74 462.1 473.771C463.449 469.62 466.886 466.655 466.983 462.183C467.02 460.483 468.18 458.58 470.646 458.241C472.261 458.015 472.929 457.371 472.194 455.705C468.739 447.81 468.775 447.793 473.512 440.886C476.47 443.902 474.697 447.81 476.075 450.916C476.762 452.458 477.351 454.033 478.08 455.558C478.839 457.162 479.981 458.755 482.094 458.009C484.147 457.286 483.06 455.378 482.702 454.175C482.119 452.209 481.074 450.334 480.041 448.516C478.256 445.37 477.308 441.53 479.276 438.921C482.519 434.612 481.876 430.275 482.513 425.667C482.981 422.301 488.478 419.297 492.638 418.506C497.916 417.507 499.288 414.96 498.985 410.769C498.815 408.386 500.187 406.517 500.71 404.54C501.384 401.965 500.679 398.142 498.007 396.081C496.634 395.019 496.841 397.786 495.669 398.413C493.762 396.391 495.669 393.455 492.996 390.789C488.757 397.651 490.676 405.8 486.984 412.503C483.048 408.036 481.208 402.869 478.547 397.385C477.345 399.537 476.525 401.299 475.413 402.891C474.478 404.235 472.935 404.682 471.271 404.094C469.704 403.541 469.522 402.078 469.753 400.932C470.798 395.832 467.494 391.258 468.222 385.887C468.66 382.634 466.431 379.105 469.389 375.649C470.694 374.124 467.809 372.932 467.53 371.306C467.348 370.227 464.949 368.765 468.477 368.567C471.63 368.386 470.099 366.381 468.897 365.958C464.706 364.495 465.817 361.406 465.811 358.611C465.793 352.466 465.811 346.316 465.811 339.986C471.332 341.121 468.32 346.983 472.978 348.259C472.978 344.481 471.581 340.189 473.282 337.812C476.47 333.345 473.573 329.442 473.798 325.325C476.78 324.094 475.826 328.437 478.651 327.714C478.189 325.133 480.661 322.146 475.845 320.192C473.33 319.175 475.832 316.95 477.254 315.99C481.985 312.8 480.898 307.604 478.371 305.543C472.522 300.771 468.678 293.779 460.922 291.114C459.355 290.577 459.009 289.691 458.657 288.426C458.067 286.297 457.497 285.083 454.126 285.885C449.929 286.878 443.479 279.424 443.145 273.737C442.993 271.162 443.242 268.767 440.169 267.429C439.476 267.13 438.541 265.927 438.723 265.492C441.025 259.873 436.014 255.813 435.407 250.922C435.194 249.2 433.148 246.568 436.531 244.862C440.205 243.01 439.543 247.759 442.052 247.613C443.266 245.76 443.831 243.693 442.689 241.807C441.572 239.966 441.584 238.938 443.728 237.967C444.724 237.515 445.507 235.595 444.712 235.482C438.942 234.641 440.09 230.326 439.355 226.938C439.039 225.492 435.182 225.87 437.071 223.408C438.243 221.883 439.938 223.126 441.42 223.318C444.347 223.696 446.643 222.025 448.751 220.669C450.852 219.32 450.627 216.428 448.908 215.287C447.512 214.361 444.961 211.538 442.853 214.553C441.019 217.179 438.632 217.575 436.986 215.434C435.468 213.458 435.261 210.86 439.586 210.188C441.827 209.843 440.934 207.274 440.059 205.964C436.203 200.192 438.93 194.11 438.857 188.175C438.839 186.644 440.43 186.362 441.632 185.831C444.529 184.555 444.754 182.454 443.327 180.138C438.875 172.91 442.987 165.919 444.062 158.882C444.25 157.645 445.999 156.205 445.374 154.906C442.58 149.112 446.558 143.115 443.819 137.038C446.467 137.88 447.001 141.838 449.595 139.901C451.739 138.297 449.85 135.948 448.404 134.44C443.874 129.725 445.629 127.28 451.49 125.681C453.482 125.139 456.069 124.23 452.413 121.666C450.779 120.52 449.194 116.696 449.99 115.623C453.901 110.338 449.577 108.909 446.321 106.063C439.731 100.308 441.675 91.549 450.439 84.7157C455.766 80.5649 457.46 74.415 455.11 68.1352C453.257 63.1825 451.374 58.2467 457.375 54.3049C459.604 52.8422 458.244 50.3687 458.462 48.4035C459.021 43.2362 461.195 39.6275 467.202 38.9781C471.478 38.515 474.94 34.7652 479.835 36.4537C480.788 36.7812 483.352 35.7817 483.388 35.2904C483.819 28.7225 491.563 27.0622 493.683 21.7312L493.476 21.9796C494.29 21.189 496.646 20.229 495.675 21.7933C492.608 26.729 494.934 29.0331 500.218 31.2243C496.282 31.885 494.29 33.5566 492.559 35.6123C496.197 38.7409 499.246 42.6206 503.012 35.3299C504.196 33.0371 508.66 31.9641 510.379 28.9315C510.883 28.0392 511.964 27.3276 513.209 27.9714C514.727 28.7564 515.25 30.1739 515.341 31.6591C515.456 33.5058 514.515 33.4493 512.814 33.0371C511.071 32.6192 509.644 33.5849 510.081 35.5163C510.67 38.1253 512.772 40.9998 515.055 40.8191C522.933 40.1922 521.542 43.0724 519.623 47.9629C518.347 51.2102 516.051 54.0903 515.596 57.7102C519.021 59.4327 520.831 55.6659 523.801 55.2875C524.336 57.8345 523.4 60.1894 521.925 61.7481C517.776 66.1191 520.121 68.858 524.093 71.3711C526.656 72.9919 529.103 82.2196 527.421 84.4333C526.382 85.8 525.083 86.3083 523.376 85.4894C521.463 84.5745 519.866 84.936 518.815 86.6923C517.454 88.9738 519.343 91.0802 519.623 93.2432C519.829 94.8075 522.781 94.1467 523.759 93.7119C528.599 91.5772 527.968 94.6606 527.828 97.1624C527.731 98.9244 526.601 100.427 528.296 102.364C534.011 108.886 532.918 118.165 525.951 123.784C523.911 125.427 520.127 126.133 526.03 128.155C528.113 128.866 527.3 133.085 523.564 133.277C519.598 133.48 519.787 135.745 519.696 138.19C519.611 140.421 520.898 141.093 522.416 139.529C525.605 136.231 526.704 138.066 527.628 140.997C528.198 142.815 528.593 144.679 531.357 144.668C533.829 144.656 534.144 143.284 534.387 141.437C534.588 139.935 535.924 139.551 537.448 139.975C546.626 142.499 550.64 149.632 548.891 159.396C548.466 161.785 547.773 164.456 550.816 166.715C555.9 170.487 552.875 176.304 554.102 181.087C554.454 182.454 551.387 187.407 557.376 184.894C557.473 184.854 557.874 185.131 557.868 185.244C557.394 191.885 564.457 194.358 566.765 199.283C568.423 202.824 563.449 205.568 563.036 209.256C562.787 211.492 559.586 213.909 565.593 214.401C569.826 214.745 569.79 219.975 568.958 223.109C568.405 225.21 568.108 228.169 564.075 229.394C561.712 230.112 559.435 236.425 561.36 237.961C564.111 240.158 562.969 246.195 569.268 245.071C571.849 244.614 577.449 252.797 577.109 256.394C576.653 261.183 576.914 265.78 577.831 270.575C578.767 275.471 575.53 280.113 574.133 284.936C576.192 286.427 579.259 281.502 580.194 285.1C581.111 288.64 582.496 293.757 578.08 295.897C570.033 299.8 573.434 303.013 576.264 308.632C582.229 320.457 584.373 328.527 572.547 337.309C568.727 340.144 563.461 345.644 556.325 342.284C554.758 341.55 553.507 342.572 553.483 343.939C553.446 346.525 552.766 349.468 555.614 351.269C556.665 351.936 558.578 352.709 559.337 352.28C564.652 349.264 564.822 351.41 563.552 355.561C563.218 356.662 563.947 357.577 565.265 357.792C566.419 357.984 566.808 357.103 567.172 356.374C568.193 354.353 569.061 350.055 570.118 350.631C575.141 353.376 580.158 347.824 585.824 351.518C581.785 352.529 580.874 354.793 581.779 357.605C584.039 364.608 577.2 371.888 582.587 378.789C582.945 379.246 582.66 380.319 583.055 380.545C592.882 386.22 590.021 394.296 589.286 402.761C589.043 405.574 589.529 410.052 590.762 413.576C591.91 416.851 591.321 419.811 590.489 423.199C588.97 429.349 587.853 435.431 583.929 440.796C583.176 441.83 583.37 443.721 584.749 444.828C585.861 445.721 586.717 446.884 586.207 448.087C582.01 457.958 587.816 469.682 579.295 478.899C577.151 481.22 576.343 485.043 576.04 488.267C575.742 491.436 573.228 494.92 579.374 497.603C583.881 499.568 581.075 505.605 579.647 510.044C576.963 518.43 572.165 526.426 575.177 535.92C576.313 539.5 577.358 540.533 581.257 540.404C607.908 539.534 588.557 544.792 583.079 545.475C577.394 546.186 576.337 548.536 577.68 553.02C579.07 557.656 580.51 562.276 572.675 563.066C571.418 563.191 570.324 564.574 571.533 565.941C574.655 569.476 574.71 572.949 570.446 574.745C566.711 576.321 561.512 584.82 561.421 586.745C561.093 593.471 553.155 598.791 557.309 606.28C557.497 606.624 557.692 607.251 557.509 607.443C548.976 616.569 561.961 611.65 562.332 615.592C561.743 615.953 559.508 615.66 558.59 617.953C557.534 620.607 555.116 620.02 554.096 617.405C552.736 613.903 550.725 614.53 548.63 616.546C547.403 617.721 546.577 619.263 545.587 620.646C544.081 622.753 542.963 624.029 547.136 625.238C553.853 627.18 556.422 633.833 561.19 638.125C563.735 636.973 562.818 634.866 562.957 633.166C563.054 631.901 562.751 630.507 564.585 630.298C566.48 630.083 566.522 631.557 566.863 632.777C567.397 634.736 567.877 634.319 570.209 636.408C571.746 637.786 570.95 640.915 569.699 642.366C567.142 645.319 566.571 648.386 566.273 652.028C565.769 658.139 556.756 665.119 550.318 666.954C545.958 668.197 544.864 665.723 542.083 663.82C541.524 666.689 538.627 668.784 543.589 672.088C547.804 674.889 547.822 680.7 546.115 685.912C545.204 681.767 543.2 678.74 538.299 677.746C537.576 680.909 542.356 679.842 541.591 682.874C537.461 681.807 532.201 678.577 530.968 686.037C530.907 686.398 528.897 686.878 527.962 686.664C517.303 684.207 506.036 686.884 495.553 683.309C493.81 682.716 492.474 683.365 491.035 683.727C484.171 685.449 483.649 685.122 484.433 678.706C484.657 676.86 485.374 675.07 485.757 673.234C486.455 669.874 488.727 669.247 492.122 669.219C496.762 669.185 494.533 672.658 495.553 676.12C497.309 671.252 499.774 669.829 503.649 669.891C507.64 669.953 509.194 671.32 510.537 674.974C512.286 679.74 523.218 679.785 525.824 675.03C527.464 672.043 529.419 671.235 532.523 671.049C540.024 670.597 540.643 669.592 538.117 662.612C537.837 661.844 537.673 661.036 537.242 659.455C530.342 667.192 526.31 658.173 520.692 657.54C521.742 650.944 520.285 643.676 527.202 638.447C522.143 639.362 519.337 634.765 514.63 635.555C513.142 635.804 511.569 634.697 510.409 636.657C509.358 638.43 510.312 639.13 511.672 640.186C515.675 643.303 515.529 646.833 512.322 650.442C510.433 652.565 509.31 655.022 508.399 657.625C506.656 662.595 503.534 663.747 498.778 661.098C496.312 659.726 495.146 661.448 493.598 662.51C490.585 664.583 488.581 663.668 487.773 660.499C486.485 655.451 484.931 650.402 484.384 645.274C483.941 641.129 481.493 638.481 478.833 635.696C478.049 634.872 477.011 633.878 476.221 635.205C473.737 639.373 472.085 635.51 470.773 634.539C468.72 633.025 469.006 630.699 470.864 629.05C472.796 627.338 473.676 624.814 476.233 623.56C477.776 622.804 477.43 621.313 476.209 620.471C474.199 619.076 474.612 621.2 473.853 621.906C470.47 625.068 467.937 621.877 465.331 620.466C464.59 620.065 464.566 618.562 463.315 618.229C460.855 619.195 464.281 623.193 460.242 623.351C456.786 623.487 455.693 620.934 454.642 618.738C453.281 615.88 450.895 614.18 447.931 613.666C447.25 613.548 445.307 616.479 445.07 618.145C444.73 620.55 445.028 620.833 443.242 621.03C441.104 621.268 439.197 620.934 437.928 619.133C437.314 618.263 436.895 617.264 436.209 616.456C434.016 613.864 432.243 610.069 429.376 609.086C425.55 607.782 425.756 613.502 422.252 614.92C418.225 616.546 414.982 619.873 412.388 623.538C411.307 625.068 410.609 626.294 411.077 628.044C411.647 630.19 413.561 630.546 415.292 630.23C419.1 629.547 423.193 633.596 426.856 629.411C427.9 628.214 428.586 629.846 429.084 630.738C429.947 632.297 430.779 633.838 428.471 634.968C426.71 635.832 424.712 636.453 424.469 638.622C431.235 640.92 438.11 642.829 443.631 647.392C439.525 646.432 436.099 648.409 433.087 649.837C429.965 651.323 427.269 654.366 432.243 657.399C433.549 658.195 434.939 658.947 435.99 659.986C436.853 660.838 437.806 662.086 436.95 663.329C436.209 664.407 435.091 664.769 433.488 664.221C426.855 661.957 420.005 661.51 412.971 662.103C407.432 662.572 403.302 656.58 397.229 658.845C397.12 658.884 396.755 658.647 396.725 658.506C394.32 646.601 387.256 655.897 382.792 656.377C379.336 656.75 376.968 656.891 373.609 655.479C368.744 653.435 363.108 650.651 357.824 655.372C356.688 656.383 355.224 657.489 353.651 656.637C352.042 655.767 351.198 653.881 351.574 652.317C353.493 644.246 350.699 635.38 357.951 628.112C362.239 623.814 360.241 617.156 361.061 611.52C358.644 616.315 359.3 621.957 355.795 626.616C352.175 618.958 354.477 607.776 360.672 603.495C362.956 601.914 362.962 600.282 362.549 598.108C362.124 595.855 360.66 596.182 359.069 596.64C355.619 597.634 356.372 595.12 356.718 593.827C358.352 587.643 354.344 580.934 358.808 574.993C359.269 574.378 358.984 572.667 358.364 572.074C355.595 569.425 350.28 572.249 348.082 568.092C345.859 570.233 342.604 571.068 341.541 574.728C340.429 578.551 337.562 581.934 335.036 586.249C332.23 581.742 333.305 578.45 335.832 575.383C337.35 573.542 339.518 569.922 338.127 569.589C328.853 567.403 334.75 554.527 324.529 553.494C324.28 553.466 323.848 552.777 323.921 552.489C325.913 544.837 319.081 538.15 321.164 530.459C321.704 528.46 319.506 526.477 318.309 527.691C314.896 531.159 311.95 527.471 307.359 527.562C311.877 530.267 315.042 532.435 316.888 535.778C317.417 536.727 319.433 537.473 317.489 538.732C316.135 539.613 314.987 538.913 313.997 537.89C312.649 536.496 311.264 535.129 309.867 533.779C308.81 532.757 307.693 531.181 306.004 532.463C304.401 533.689 305.488 535.163 306.508 536.292C311.568 541.889 316.53 547.587 319.239 554.544C322.099 561.892 322.804 569.787 324.911 574.022C325.865 568.979 315.066 569.758 312.946 563.45C310.693 564.8 313.517 566.551 311.902 568.143C308.246 564.247 302.64 561.553 305.166 554.782C306.223 551.952 304.298 551.964 301.814 552.285C296.694 552.958 293.554 555.476 291.367 560.734C296.499 558.989 300.131 559.198 300.332 564.625C300.405 566.579 301.741 569.052 298.801 570.052C296.341 570.888 294.009 569.465 293.201 567.584C288.719 557.074 275.746 558.78 268.233 552.619C267.899 552.348 263.641 555.137 262.439 557.137C260.914 559.678 262.554 562.168 265.634 562.874C271.865 564.303 276.997 567.674 282.384 570.6C285.567 572.334 289.047 574.259 283.514 578.54C291.294 575.761 295.26 580.183 299.494 583.82C303.605 587.35 309.175 589.987 308.986 596.769C306.952 593.573 303.666 594.601 300.982 593.827C296.19 592.449 291.932 589.468 287.432 587.197C282.293 584.611 277.088 582.324 270.918 583.323C269.502 583.555 268.118 583.594 267.741 585.012C267.243 586.875 268.816 587.485 270.316 588.061C274.027 589.479 278.704 589.016 281.577 591.822C289.995 600.045 298.072 608.567 305.931 617.331C300.799 615.812 298.977 610.464 293.803 607.748C293.523 613.807 296.445 618.421 297.507 623.363C299.269 631.551 301.097 639.678 301.006 648.087C300.988 649.967 301.376 651.876 300.301 653.582C299.366 655.061 299.925 657.749 297.034 657.693C293.748 657.631 294.835 655.078 294.708 653.44C294.282 647.985 290.523 647.946 287.644 650.735C278.333 659.76 267.486 657.247 256.578 655.264C253.432 654.694 249.593 657.422 247.067 653.158C246.344 651.944 245.98 654.265 245.287 654.818C242.008 657.416 238.017 657.06 234.495 656.202C230.996 655.349 232.654 652.006 232.557 649.685C232.466 647.398 232.751 645.105 232.758 642.812C232.782 636.69 231.166 635.781 224.479 636.668C217.95 637.532 213.529 633.308 208.907 629.947C207.862 629.185 207.783 626.683 205.609 628.197C203.641 629.569 204.746 631.156 205.876 632.545C206.55 633.375 207.097 634.635 207.996 634.923C215.484 637.329 214.191 643.902 215.818 649.018C216.942 652.548 216.122 655.27 211.245 655.248C208.791 655.236 206.332 655.293 203.878 655.439C197.397 655.829 196.626 651.447 197.768 647.629C198.606 644.834 197.391 644.269 195.703 643.761C192.721 642.874 193.34 645.212 193.164 646.703C192.812 649.798 191.124 650.752 187.71 650.617C183.957 650.47 181.989 651.842 185.208 655.462C186.678 657.117 187.364 659.867 184.206 660.324C178.412 661.16 181.831 664.131 182.517 665.989C183.787 669.462 185.973 672.698 190.771 670.811C193.784 669.626 194.367 667.113 192.763 664.198C194.895 665.718 199.274 665.142 197.64 669.891C197.094 671.472 199.529 671.094 200.726 671.128C205.633 671.286 210.559 671.625 215.448 671.376C220.902 671.099 220.908 666.542 221.819 663.069C222.366 660.985 221.005 658.647 222.384 656.128C225.639 661.787 224.789 667.869 226.107 673.528C226.739 676.25 224.176 675.759 222.505 675.713C216.256 675.55 209.958 675.713 203.781 674.968C198.588 674.341 193.589 674.273 188.451 675.132C183.143 676.018 179.359 674.736 178.74 668.818C178.144 663.159 175.241 658.726 169.313 656.337C168.445 655.987 167.819 655.36 167.127 656.315C162.505 662.679 161.509 656.84 159.827 654.327C158.703 652.644 159.165 649.482 156.735 649.239C154.014 648.973 153.917 651.927 153.225 653.819C152.508 655.773 150.728 656.676 148.998 657.636L149.155 657.783C148.925 655.728 148.724 653.672 148.457 651.622C148.008 648.188 146.769 646.234 142.329 647.725C138.672 648.951 134.877 647.353 131.178 646.912C128.815 646.63 127.303 644.93 127.892 642.406C128.232 640.971 127.989 639.892 126.27 639.638C125.068 639.458 123.744 640.005 123.562 641.011C122.772 645.444 118.806 645.805 115.502 645.958C109.234 646.257 102.723 646.658 96.6983 645.41C91.6694 644.365 88.1286 640.378 88.0921 634.861C94.0988 635.137 97.5729 631.772 95.8176 626.119C94.8337 622.933 96.5768 622.024 98.4232 621.601C100.883 621.036 100.816 623.589 101.181 625.012C101.527 626.367 101.132 627.875 101.199 629.309C101.387 633.347 102.754 635.815 108.044 634.991C113.03 634.211 114.463 630.603 116.468 627.333C117.002 626.463 119.158 626.107 117.743 624.475C116.37 625.859 114.925 620.748 113.401 624.577C112.824 626.023 111.062 625.159 110.989 624.244C110.382 616.755 102.82 617.456 98.2228 615.417C89.6834 611.633 90.2179 612.35 88.2561 621.285C87.1932 626.124 92.0095 630.535 88.2257 635.002C87.3451 636.177 86.7195 637.684 85.5412 638.464C80.7674 641.592 76.7042 639.616 75.4592 633.726C76.4309 630.953 82.1583 631.534 81.2047 628.711C80.1904 625.706 75.532 626.424 72.4467 625.565C72.0276 625.447 71.5843 625.266 71.2745 624.989C70.4364 624.238 69.7258 623.306 70.8676 622.386C73.0358 620.635 75.0887 618.54 77.6274 617.495C79.2977 616.806 82.9964 618.467 82.1947 615.236C81.472 612.328 80.9011 608.527 76.7528 607.262C74.7972 606.664 73.1269 606.969 72.1855 608.708C71.0194 610.871 69.8958 613.096 69.1306 615.406C68.1952 618.201 67.9705 621.053 63.3242 620.59C61.1256 620.37 60.1903 623.058 61.8241 624.142C66.5068 627.254 70.1145 631.726 75.6778 633.709L75.6961 633.731ZM325.264 426.068C327.128 427.339 324.905 430.371 327.906 430.072C330.056 429.857 331.039 430.507 331.125 432.167C331.216 433.895 330.159 435.962 328.325 435.73C325.494 435.38 324.772 436.73 325.646 438.311C326.484 439.836 328.968 441.361 330.59 439.192C333.153 435.753 341.771 434.24 335.358 427.48C334.69 426.774 334.684 424.696 335.315 423.894C339.785 418.218 336.524 416.564 330.76 416.586C330.991 414.564 334.987 415.411 333.202 413.429C330.517 410.453 329.551 404.343 327.906 404.043C320.216 402.643 327.42 398.368 325.476 396.267C325.33 396.109 325.239 395.872 325.057 395.793C318.419 392.828 320.872 387.039 322.397 383.487C324.444 378.726 320.763 378.292 318.704 377.591C314.841 376.276 314.489 379.24 314.398 381.945C314.343 383.487 314.926 385.368 311.92 386.175C312.691 380.793 311.106 376.117 307.863 371.741C307.796 375.214 305.743 378.981 304.571 380.929C300.459 387.745 301.546 394.827 300.356 401.734C300.046 403.529 298.819 404.625 297.386 404.506C295.37 404.343 295.212 402.225 295.77 401.022C299.433 393.206 295.133 385.904 294.355 378.388C294.185 376.733 294.118 374.209 292.108 374.53C289.982 374.869 286.903 374.722 285.737 377.072C284.82 378.907 286.648 380.347 288.039 381.138C290.414 382.493 291.817 383.866 290.887 386.621C289.357 391.162 289.49 395.522 292.685 399.559C294.301 401.604 293.116 402.807 291.051 403.981C288.488 405.438 288.233 403.705 287.255 402.293C285.743 400.102 285.537 397.605 284.686 395.267C283.666 392.472 284.662 388.993 280.319 385.481C283.368 404.264 288.324 420.867 294.714 437.199C298.2 436.052 296.044 432.037 300.016 431.845C302.008 437.086 303.49 442.49 303.97 448.719C312.4 441.762 316.524 432.122 325.27 426.062L325.264 426.068ZM303.18 262.493C301.237 266.463 303.842 269.197 303.982 272.099C304.043 273.404 305.755 274.72 304.061 276.047C298.88 280.113 301.127 283.36 305.257 286.579C309.205 289.657 305.482 297.241 311.823 298.207C316.742 298.958 316.578 303.069 315.746 303.77C311.222 307.565 318.886 315.448 310.201 317.447C310.153 317.459 310.426 318.447 310.45 318.978C310.784 325.077 315.23 331.645 308.112 336.936C307.747 337.207 307.687 338.501 307.766 338.523C312.102 339.845 309.071 342.849 310.298 345.464C307.11 343.815 305.33 339.207 302.998 341.104C300.605 343.047 298.072 346.503 298.303 350.247C298.4 351.823 299.19 354.183 301.158 353.969C304.103 353.652 308.063 357.125 310.061 351.817C311.215 348.75 318.528 349.129 316.044 343.465C316.876 343.391 317.738 343.154 318.546 343.267C324.176 344.058 323.466 341.025 322.889 337.552C322.172 333.232 318.558 329.934 318.376 325.438C318.328 324.286 318.042 323.315 319.433 323.072C320.186 322.942 321.376 323.191 321.832 323.693C323.563 325.591 323.848 330.205 327.213 328.821C331.185 327.189 325.112 325.93 325.592 323.061C326.545 317.351 330.651 310.959 324.28 305.526C323.873 305.181 324.189 303.877 324.462 303.109C327.007 295.982 322.828 287.46 329.715 281.214C330.062 280.904 330.104 279.848 329.807 279.447C324.917 272.766 327.31 266.672 330.784 260.195C333.026 256.021 330.663 251.893 326.393 249.973C321.626 247.827 320.642 252.243 318.959 254.977C318.637 255.502 318.619 256.355 318.17 256.62C312.582 259.845 312.691 259.822 312.801 265.119C312.849 267.327 314.465 269.88 311.707 272.195C308.865 268.965 306.266 266.012 303.168 262.493H303.18ZM190.048 370.131C191.336 365.393 187.722 360.723 188.099 357.029C188.907 349.134 182.863 345.232 179.784 339.737C178.211 336.919 174.178 337.608 171.16 338.693C168.287 339.726 168.421 341.945 168.864 344.442C170.012 350.919 175.812 356.95 171.196 364.038C171.044 364.275 171.348 365.111 171.536 365.139C177.179 366.065 178.843 373.22 185.05 372.842C188.002 372.661 188.615 373.7 188.403 375.829C187.929 380.624 191.263 385.899 186.265 390.145C182.979 392.935 184.819 395.437 187.832 396.115C191.992 397.052 189.678 399.271 189.532 400.881C189.338 403.004 188.451 403.789 185.481 403.112C180.264 401.926 174.774 401.587 169.374 401.316C163.161 401.005 167.838 406.212 165.718 408.07C167.844 408.629 168.038 412.17 171.731 410.707C176.45 408.844 177.567 411.622 176.826 415.434C176.322 418.037 173.954 420.822 176.899 423.143C179.304 425.034 179.371 427.401 179.699 429.857C179.997 432.054 179.268 434.55 182.22 436.515C182.566 432.319 188.475 432.472 189.168 427.666C185.591 429.462 184.449 428.316 183.161 425.181C179.894 417.202 186.441 412.435 188.652 406.268C189.35 406.811 189.629 407.262 189.496 407.556C188.19 410.515 187.85 413.243 191.379 415.146C192.563 415.784 194.956 416.298 194.986 415.671C195.15 412.712 198.94 410.814 197.118 407.144C195.436 403.755 195.32 399.977 195.466 395.962C195.818 386.028 191.95 376.106 195.758 365.879C192.873 366.726 193.863 370.329 190.036 370.12L190.048 370.131ZM165.748 439.006C163.702 442.728 168.585 441.779 167.443 444.523C164.127 452.469 168.184 460.341 168.275 468.282C168.299 470.422 176.207 472.636 177.3 471.083C178.078 469.982 176.401 467.147 179.608 467.83C182.153 468.372 181.139 470.964 181.807 472.602C182.274 473.743 182.159 475.138 182.791 476.16C183.495 477.306 183.945 479.158 185.997 478.836C187.498 478.599 188.075 477.3 188.287 476.052C189.04 471.597 193.346 467.638 189.101 462.403C187.71 460.686 186.502 457.524 185.894 454.92C182.681 441.175 181.746 440.305 167.297 439.887C166.477 439.864 165.572 439.294 165.742 439.006H165.748ZM84.6666 405.387C84.5087 410.38 74.9126 414.672 84.5027 420.805C80.3848 419.393 77.8339 419.641 76.267 422.51C77.4149 424.944 79.6135 422.064 81.0833 423.577C78.496 427.175 77.761 430.755 80.3119 434.94C82.5105 438.549 87.5394 439.593 88.9181 444.185C89.0092 440.254 94.8398 439.887 94.0503 435.697C93.4429 432.483 93.7283 429.925 97.9069 428.429C100.664 427.44 100.099 424.809 98.405 422.6C96.4614 420.07 94.7548 417.377 92.9813 414.739C92.4165 413.904 91.3657 412.407 92.5622 412.102C97.9009 410.741 96.8623 405.195 100.263 402.569C103.446 400.113 101.047 397.21 100.3 394.539C100.021 393.545 99.2067 392.512 97.8584 393.161C95.4654 394.324 94.8216 396.662 94.0442 398.814C93.7709 399.565 94.0928 400.491 93.8802 401.271C92.3011 406.952 89.4769 408.194 84.6666 405.393V405.387ZM119.851 415.31C118.168 410.239 122.535 407.268 119.62 403.298C115.241 397.334 117.014 390.744 118.721 384.526C119.243 382.634 120.889 379.235 124.892 380.59C126.987 381.302 127.26 380.059 126.969 378.693C126.489 376.467 126.234 374.039 125.05 372.142C122.42 367.912 126.957 363.631 124.527 359.548C126.708 359.142 128.311 358.289 125.778 356.504C124.315 355.471 122.918 355.143 120.762 356.967C116.213 360.807 115.368 364.789 117.634 369.725C119 372.695 116.213 374.124 115.071 376.208C113.352 379.348 111.275 373.113 109.708 376.484C107.43 375.344 108.596 373.237 108.505 371.718C108.329 368.81 108.262 365.935 107.412 363.1C106.853 361.237 106.039 359.548 104.132 358.599C103.142 358.108 102.553 358.628 102.25 359.582C101.521 361.869 101.436 364.043 102.972 366.127C103.707 367.127 106.647 367.189 105.669 368.149C100.64 373.051 105.019 378.529 104.011 383.555C102.93 388.931 105.226 392.856 108.858 396.82C112.234 392.037 107.491 387.011 110.904 380.861C111.123 384.888 111.159 387.118 111.402 389.321C111.512 390.298 111.724 391.653 112.441 392.122C115.223 393.963 115.241 393.839 114.421 396.278C112.216 402.829 112.933 408.81 119.863 415.298L119.851 415.31ZM497.837 224.159C500.248 224.408 499.252 220.89 501.08 221.878C502.872 222.843 504.439 224.803 505.192 226.644C506.115 228.914 503.303 229.999 501.839 230.609C499.884 231.416 497.74 231.941 495.978 233.139C494.715 233.997 493.148 235.623 495.796 236.12C498.857 236.702 499.131 238.752 500.461 240.582C502.264 243.072 504.797 246.014 508.417 245.45C511.934 244.902 512.122 241.564 512.942 238.645C514.812 231.987 511.193 225.492 512.851 218.936C513.094 217.975 512.322 217.558 511.442 217.151C504.251 213.802 499.38 216.253 497.843 224.165L497.837 224.159ZM506.893 197.736C513.003 192.371 512.984 192.179 512.407 184.114C512.28 182.364 512.687 180.466 513.355 178.811C515.985 172.255 518.712 165.726 521.627 159.277C522.514 157.318 521.53 156.759 520.072 155.917C518.28 154.884 518.329 156.307 517.388 157.018C514.43 159.26 514.545 164.399 513.173 164.93C505.769 167.822 504.657 171.888 508.15 177.964C508.241 178.122 508.229 178.416 508.125 178.574C504.287 184.752 509.632 191.422 506.886 197.736H506.893ZM393.652 648.985C395.188 648.843 395.31 647.629 395.832 646.816C397.964 643.524 399.713 639.667 404.645 644.286C406.199 645.743 407.438 644.309 408.022 642.778C409.661 638.469 406.26 634.002 408.671 629.496C409.315 628.293 406.655 628.445 405.045 628.699C400.011 629.496 396.154 633.2 390.767 633.325C389.206 633.358 387.062 635.216 386.989 637.204C386.91 639.22 389.285 638.69 390.603 639.158C393.317 640.124 394.587 641.53 393.463 644.376C392.892 645.828 392.801 647.477 393.645 648.973L393.652 648.985ZM549.091 315.335C550.47 320.565 555.104 322.541 559.708 323.592C563.522 324.461 564.5 320.243 564.549 318.17C564.634 314.33 566.778 311.501 568.156 308.287C568.691 307.034 570.482 305.955 568.6 304.56C567.361 303.645 566.237 303.849 565.205 305.125C564.749 305.684 563.176 306.26 563.024 306.102C559.404 302.183 556.878 305.085 555.62 307.711C554.084 310.919 550.051 312.009 549.091 315.335ZM190.073 311.128C189.265 311.444 188.506 311.518 188.19 311.907C187.358 312.918 187.929 313.935 188.724 314.686C190.322 316.205 193.061 316.984 191.239 320.119C188.415 324.981 191.451 328.352 195.181 331.408C196.158 332.209 196.948 333.582 198.497 332.695C199.62 332.051 200.774 331.035 200.422 329.651C198.971 323.897 199.912 318.679 203.489 313.686C204.941 311.659 203.24 309.355 201.552 308.214C199.517 306.847 198.879 309.778 197.41 310.27C195.035 311.066 193.207 315.951 190.079 311.128H190.073ZM257.562 219.382C261.668 213.04 256.693 210.736 255.703 207.364C253.092 198.47 247.796 191.264 239.912 185.701C239.232 185.221 238.315 183.301 237.507 185.018C236.535 187.085 232.764 186.204 233.086 188.931C233.237 190.219 235.169 190.236 236.134 190.902C239.56 193.28 244.224 194.822 244.352 199.859C244.413 202.361 246.374 203.784 247.783 205.647C250.972 209.866 258.461 210.809 257.568 219.376L257.562 219.382ZM512.164 289.538C512.164 287.545 512.82 285.517 512.055 284.789C507.828 280.757 508.411 276.742 510.537 271.958C511.952 268.767 507.512 267.582 505.654 266.254C503.929 265.023 503.242 268.344 502.398 269.846C501.675 271.122 501.949 272.489 501.973 273.929C502.064 279.469 502.738 285.438 500.776 290.425C499.452 293.791 500.351 294.79 501.657 296.569C505.647 294.502 501.505 284.529 512.164 289.538ZM531.745 265.848C529.741 273.438 537.284 270.213 539.404 270.733C543 271.614 541.044 267.796 541.475 265.842C542.489 261.24 542.508 256.417 544.949 252.085C545.8 250.577 547.616 248.624 545.721 247.048C543.364 245.088 540.765 247.438 540.066 248.674C536.932 254.226 534.454 260.093 531.739 265.853L531.745 265.848ZM499.908 154.822C502.483 155.166 501.007 161.226 504.524 157.707C506.826 155.403 507.573 149.925 503.516 148.384C498.359 146.43 497.041 144.244 498.462 139.591C498.778 138.563 498.232 136.4 496.604 136.089C495.565 135.892 494.108 136.88 493.069 137.62C491.484 138.755 492.608 139.664 493.585 140.63C495.08 142.104 495.875 144.606 494.849 145.786C491.113 150.1 494.381 155.381 491.824 159.898C494.503 157.628 499.72 159.633 499.908 154.816V154.822ZM127.285 412.994C124.88 412.418 120.98 407.765 121.782 414.79C121.891 415.75 121.63 416.338 120.762 416.812C116.82 418.981 119.128 420.455 121.697 420.048C126.471 419.286 128.682 421.313 130.692 424.735C131.421 425.978 132.805 427.892 134.901 426.746C136.516 425.865 136.006 423.978 135.423 422.73C131.992 415.349 132.945 406.201 124.958 400.519C123.276 405.099 129.69 408.126 127.279 412.989L127.285 412.994ZM95.101 466.836C97.1477 466.305 100.828 466.706 99.0609 464.091C95.7144 459.139 94.8884 452.345 87.8127 449.165C86.2397 454.305 91.0621 457.953 90.558 461.911C89.3615 471.309 98.6297 471.969 102.997 476.668C102.863 471.608 102.183 466.955 95.101 466.842V466.836ZM105.869 509.163C107.06 512.743 107.546 516.933 110.807 520.13C112.575 521.863 115.016 524.015 116.82 521.886C117.907 520.604 121.211 517.012 116.486 514.81C114.105 513.703 113.886 511.574 114.743 509.434C115.466 507.626 117.944 505.791 115.277 504.024C113.558 502.883 111.196 502.03 108.973 503.007C106.44 504.12 106.045 506.463 105.869 509.168V509.163ZM185.955 510.687C195.624 502.753 193.274 492.164 194.373 482.552C194.537 481.124 193.844 478.961 191.579 478.882C188.876 478.786 189.569 481.073 189.156 482.535C187.382 488.815 189.247 495.361 187.267 501.765C186.502 504.255 183.58 506.689 185.955 510.693V510.687ZM490.354 13.8362C487.737 5.88477 485.101 -1.0219 473.354 1.20314C471.198 1.60975 468.332 -1.04449 466.461 2.48508C464.645 5.90736 466.072 8.53901 468.86 10.6624C470.3 11.758 473.269 11.6789 472.644 14.2372C472.109 16.4227 469.577 17.0721 467.633 18.0435C465.21 19.252 462.896 18.2468 460.485 17.8797C459.634 17.7498 458.165 16.5469 457.254 18.4275C454.107 24.9162 459.598 32.7942 467.445 32.2408C465.957 30.5748 462.629 31.1113 462.598 27.8811C468.083 28.7338 473.761 28.2707 478.906 31.9246C477.8 29.8689 477.539 26.4805 479.13 26.8815C485.678 28.5418 487.682 20.3927 493.646 21.7368L493.44 21.9853C493.148 19.0091 491.241 16.5526 490.348 13.8362H490.354ZM341.194 651.882C341.984 648.375 342.373 644.93 342.567 641.412C342.646 639.96 342.865 638.435 341.061 637.622C336.323 635.487 335.133 633.782 341.686 632.912C342.257 632.839 342.901 632.404 343.278 631.964C345.27 629.609 345.045 611.407 343.478 608.623C341.049 604.309 335.455 599.842 343.49 595.358C349.588 591.952 347.869 586.373 348.209 580.567C344.553 583.515 343.053 586.785 341.255 589.829C337.301 596.51 332.728 602.823 336.566 611.407C337.483 613.452 337.963 618.167 336.153 620.776C332.661 625.819 334.022 631.077 333.536 636.357C332.855 643.682 333.056 651.198 330.657 658.658C339.67 660.172 339.348 660.11 341.194 651.876V651.882ZM431.192 669.422C429.516 668.948 426.546 665.836 425.495 670.168C424.803 673.025 424.973 675.708 429.34 675.759C431.022 675.775 433.925 675.759 433.306 677.617C431.903 681.801 435.759 681.4 437.32 681.587C440.995 682.016 444.797 681.558 448.544 681.395C450.603 681.304 452.061 680.389 451.769 678.294C451.466 676.109 449.388 676.702 448.028 676.809C442.24 677.278 439.822 674.697 440.102 666.977C436.774 672.816 434.119 670.252 431.192 669.422ZM446.267 648.256C446.382 652.424 438.353 651.068 440.187 654.852C441.086 656.699 446.576 656.58 447.931 660.183C448.149 660.765 448.319 661.725 448.714 661.827C450.682 662.329 454.211 663.34 454.496 662.843C456.458 659.41 457.235 655.569 457.017 651.594C456.804 647.607 454.065 649.916 452.249 649.803C450.639 649.702 449.692 648.725 450.02 647.307C450.573 644.941 448.714 644.563 446.254 643.382C446.254 645.444 446.224 646.85 446.254 648.256H446.267Z" fill="white"/>
</mask>
<g mask="url(#mask0_53_68010)">
<path d="M390.141 -245.38L-315.502 410.744L-312.182 413.831L393.461 -242.293L390.141 -245.38Z" fill="#097F94"/>
<path d="M396.266 -239.687L-309.377 416.438L-306.057 419.524L399.586 -236.6L396.266 -239.687Z" fill="#097F94"/>
<path d="M402.389 -233.989L-303.254 422.135L-299.934 425.222L405.709 -230.903L402.389 -233.989Z" fill="#097F94"/>
<path d="M408.518 -228.302L-297.125 427.822L-293.805 430.909L411.838 -225.215L408.518 -228.302Z" fill="#097F94"/>
<path d="M414.641 -222.605L-291.002 433.52L-287.682 436.606L417.961 -219.518L414.641 -222.605Z" fill="#097F94"/>
<path d="M420.758 -216.911L-284.885 439.213L-281.565 442.3L424.078 -213.825L420.758 -216.911Z" fill="#097F94"/>
<path d="M426.885 -211.218L-278.758 444.906L-275.438 447.993L430.205 -208.131L426.885 -211.218Z" fill="#097F94"/>
<path d="M433.002 -205.525L-272.641 450.6L-269.321 453.686L436.322 -202.438L433.002 -205.525Z" fill="#097F94"/>
<path d="M439.133 -199.829L-266.51 456.295L-263.19 459.382L442.453 -196.743L439.133 -199.829Z" fill="#097F94"/>
<path d="M445.256 -194.142L-260.387 461.982L-257.067 465.069L448.576 -191.055L445.256 -194.142Z" fill="#097F94"/>
<path d="M451.379 -188.443L-254.264 467.682L-250.944 470.768L454.699 -185.356L451.379 -188.443Z" fill="#097F94"/>
<path d="M457.5 -182.751L-248.143 473.373L-244.823 476.46L460.82 -179.664L457.5 -182.751Z" fill="#097F94"/>
<path d="M463.62 -177.058L-242.023 479.066L-238.704 482.153L466.939 -173.971L463.62 -177.058Z" fill="#097F94"/>
<path d="M469.747 -171.366L-235.896 484.758L-232.577 487.845L473.066 -168.28L469.747 -171.366Z" fill="#097F94"/>
<path d="M475.866 -165.669L-229.777 490.455L-226.458 493.542L479.185 -162.582L475.866 -165.669Z" fill="#097F94"/>
<path d="M481.998 -159.982L-223.645 496.143L-220.325 499.229L485.318 -156.895L481.998 -159.982Z" fill="#097F94"/>
<path d="M488.118 -154.28L-217.525 501.844L-214.206 504.931L491.437 -151.194L488.118 -154.28Z" fill="#097F94"/>
<path d="M494.237 -148.591L-211.406 507.533L-208.086 510.62L497.557 -145.504L494.237 -148.591Z" fill="#097F94"/>
<path d="M500.364 -142.898L-205.279 513.227L-201.96 516.313L503.683 -139.811L500.364 -142.898Z" fill="#097F94"/>
<path d="M506.481 -137.204L-199.162 518.92L-195.842 522.007L509.801 -134.118L506.481 -137.204Z" fill="#097F94"/>
<path d="M512.606 -131.513L-193.037 524.611L-189.717 527.698L515.926 -128.426L512.606 -131.513Z" fill="#097F94"/>
<path d="M518.733 -125.82L-186.91 530.305L-183.59 533.391L522.053 -122.733L518.733 -125.82Z" fill="#097F94"/>
<path d="M524.854 -120.124L-180.789 536L-177.469 539.087L528.174 -117.037L524.854 -120.124Z" fill="#097F94"/>
<path d="M530.981 -114.429L-174.662 541.695L-171.342 544.782L534.301 -111.342L530.981 -114.429Z" fill="#097F94"/>
<path d="M537.1 -108.736L-168.543 547.389L-165.223 550.475L540.42 -105.649L537.1 -108.736Z" fill="#097F94"/>
<path d="M543.225 -103.042L-162.418 553.082L-159.098 556.169L546.545 -99.9554L543.225 -103.042Z" fill="#097F94"/>
<path d="M549.342 -97.3508L-156.301 558.773L-152.981 561.86L552.662 -94.264L549.342 -97.3508Z" fill="#097F94"/>
<path d="M555.469 -91.6574L-150.174 564.467L-146.854 567.554L558.789 -88.5707L555.469 -91.6574Z" fill="#097F94"/>
<path d="M561.596 -85.9699L-144.047 570.154L-140.727 573.241L564.916 -82.8832L561.596 -85.9699Z" fill="#097F94"/>
<path d="M567.715 -80.2668L-137.928 575.857L-134.608 578.944L571.035 -77.18L567.715 -80.2668Z" fill="#097F94"/>
<path d="M573.842 -74.5754L-131.801 581.549L-128.481 584.636L577.162 -71.4886L573.842 -74.5754Z" fill="#097F94"/>
<path d="M579.957 -68.882L-125.686 587.242L-122.366 590.329L583.277 -65.7953L579.957 -68.882Z" fill="#097F94"/>
<path d="M586.079 -63.1906L-119.564 592.934L-116.245 596.02L589.398 -60.1038L586.079 -63.1906Z" fill="#097F94"/>
<path d="M592.207 -57.4953L-113.436 598.629L-110.116 601.716L595.527 -54.4085L592.207 -57.4953Z" fill="#097F94"/>
<path d="M598.332 -51.8059L-107.311 604.318L-103.991 607.405L601.652 -48.7191L598.332 -51.8059Z" fill="#097F94"/>
<path d="M604.457 -46.1047L-101.186 610.02L-97.8658 613.106L607.777 -43.0179L604.457 -46.1047Z" fill="#097F94"/>
<path d="M610.575 -40.4153L-95.0684 615.709L-91.7486 618.796L613.894 -37.3284L610.575 -40.4153Z" fill="#097F94"/>
<path d="M616.698 -34.7219L-88.9453 621.402L-85.6255 624.489L620.017 -31.6351L616.698 -34.7219Z" fill="#097F94"/>
<path d="M622.823 -29.0285L-82.8203 627.096L-79.5006 630.182L626.142 -25.9417L622.823 -29.0285Z" fill="#097F94"/>
<path d="M628.946 -23.3332L-76.6973 632.791L-73.3775 635.878L632.266 -20.2464L628.946 -23.3332Z" fill="#097F94"/>
<path d="M635.073 -17.6438L-70.5703 638.48L-67.2505 641.567L638.392 -14.557L635.073 -17.6438Z" fill="#097F94"/>
<path d="M641.192 -11.9465L-64.4512 644.178L-61.1314 647.265L644.512 -8.85968L641.192 -11.9465Z" fill="#097F94"/>
<path d="M647.321 -6.25509L-58.3223 649.869L-55.0025 652.956L650.641 -3.16831L647.321 -6.25509Z" fill="#097F94"/>
<path d="M653.438 -0.563688L-52.2051 655.561L-48.8853 658.647L656.758 2.52312L653.438 -0.563688Z" fill="#097F94"/>
<path d="M659.557 5.13167L-46.0859 661.256L-42.7662 664.343L662.877 8.21845L659.557 5.13167Z" fill="#097F94"/>
<path d="M665.68 10.823L-39.9629 666.947L-36.6431 670.034L669 13.9099L665.68 10.823Z" fill="#097F94"/>
<path d="M671.809 16.5164L-33.834 672.641L-30.5142 675.727L675.129 19.6032L671.809 16.5164Z" fill="#097F94"/>
<path d="M677.938 22.2137L-27.7051 678.338L-24.3853 681.425L681.258 25.3005L677.938 22.2137Z" fill="#097F94"/>
<path d="M684.053 27.907L-21.5898 684.031L-18.27 687.118L687.373 30.9938L684.053 27.907Z" fill="#097F94"/>
<path d="M690.174 33.5965L-15.4688 689.721L-12.149 692.807L693.494 36.6832L690.174 33.5965Z" fill="#097F94"/>
<path d="M696.299 39.2899L-9.34375 695.414L-6.024 698.501L699.619 42.3766L696.299 39.2899Z" fill="#097F94"/>
<path d="M702.42 44.9812L-3.22266 701.105L0.0971405 704.192L705.74 48.0681L702.42 44.9812Z" fill="#097F94"/>
<path d="M708.555 50.6746L2.91211 706.799L6.23185 709.886L711.875 53.7614L708.555 50.6746Z" fill="#097F94"/>
<path d="M714.67 56.366L9.02734 712.49L12.3471 715.577L717.99 59.4528L714.67 56.366Z" fill="#097F94"/>
<path d="M720.79 62.0672L15.1465 718.191L18.4663 721.278L724.109 65.154L720.79 62.0672Z" fill="#097F94"/>
<path d="M726.914 67.7586L21.2715 723.883L24.5912 726.97L730.234 70.8454L726.914 67.7586Z" fill="#097F94"/>
<path d="M733.036 73.4481L27.3926 729.572L30.7123 732.659L736.355 76.5349L733.036 73.4481Z" fill="#097F94"/>
<path d="M739.161 79.1433L33.5176 735.268L36.8373 738.354L742.48 82.2301L739.161 79.1433Z" fill="#097F94"/>
<path d="M745.286 84.8407L39.6426 740.965L42.9623 744.052L748.605 87.9274L745.286 84.8407Z" fill="#097F94"/>
<path d="M751.409 90.5282L45.7656 746.652L49.0854 749.739L754.728 93.6149L751.409 90.5282Z" fill="#097F94"/>
<path d="M757.534 96.2273L51.8906 752.352L55.2104 755.438L760.853 99.3141L757.534 96.2273Z" fill="#097F94"/>
<path d="M763.653 101.919L58.0098 758.043L61.3295 761.13L766.972 105.006L763.653 101.919Z" fill="#097F94"/>
<path d="M769.78 107.61L64.1367 763.734L67.4565 766.821L773.099 110.697L769.78 107.61Z" fill="#097F94"/>
<path d="M775.897 113.305L70.2539 769.43L73.5737 772.516L779.217 116.392L775.897 113.305Z" fill="#097F94"/>
<path d="M782.02 119.001L76.377 775.125L79.6967 778.212L785.34 122.088L782.02 119.001Z" fill="#097F94"/>
<path d="M788.151 124.69L82.5078 780.814L85.8276 783.901L791.471 127.777L788.151 124.69Z" fill="#097F94"/>
<path d="M794.27 130.388L88.627 786.512L91.9467 789.598L797.59 133.474L794.27 130.388Z" fill="#097F94"/>
<path d="M800.395 136.081L94.752 792.205L98.0717 795.292L803.715 139.168L800.395 136.081Z" fill="#097F94"/>
<path d="M806.514 141.772L100.871 797.896L104.191 800.983L809.834 144.859L806.514 141.772Z" fill="#097F94"/>
<path d="M812.633 147.466L106.99 803.59L110.31 806.677L815.953 150.552L812.633 147.466Z" fill="#097F94"/>
<path d="M818.76 153.159L113.117 809.283L116.437 812.37L822.08 156.246L818.76 153.159Z" fill="#097F94"/>
<path d="M824.889 158.848L119.246 814.973L122.566 818.059L828.209 161.935L824.889 158.848Z" fill="#097F94"/>
<path d="M831.012 164.548L125.369 820.672L128.689 823.759L834.332 167.634L831.012 164.548Z" fill="#097F94"/>
<path d="M837.131 170.241L131.488 826.365L134.808 829.452L840.451 173.328L837.131 170.241Z" fill="#097F94"/>
<path d="M843.256 175.934L137.613 832.059L140.933 835.145L846.576 179.021L843.256 175.934Z" fill="#097F94"/>
<path d="M849.375 181.626L143.732 837.75L147.052 840.837L852.695 184.713L849.375 181.626Z" fill="#097F94"/>
<path d="M855.496 187.319L149.854 843.443L153.173 846.53L858.816 190.406L855.496 187.319Z" fill="#097F94"/>
<path d="M861.629 193.011L155.986 849.135L159.306 852.222L864.949 196.097L861.629 193.011Z" fill="#097F94"/>
<path d="M867.746 198.704L162.104 854.828L165.423 857.915L871.066 201.791L867.746 198.704Z" fill="#097F94"/>
<path d="M873.873 204.403L168.23 860.527L171.55 863.614L877.193 207.49L873.873 204.403Z" fill="#097F94"/>
<path d="M879.993 210.096L174.35 866.221L177.669 869.307L883.312 213.183L879.993 210.096Z" fill="#097F94"/>
<path d="M886.114 215.786L180.471 871.91L183.79 874.997L889.433 218.873L886.114 215.786Z" fill="#097F94"/>
<path d="M892.235 221.481L186.592 877.605L189.912 880.692L895.554 224.568L892.235 221.481Z" fill="#097F94"/>
<path d="M898.362 227.175L192.719 883.299L196.038 886.386L901.682 230.261L898.362 227.175Z" fill="#097F94"/>
<path d="M904.491 232.866L198.848 888.99L202.167 892.077L907.81 235.953L904.491 232.866Z" fill="#097F94"/>
<path d="M910.612 238.563L204.969 894.688L208.288 897.774L913.931 241.65L910.612 238.563Z" fill="#097F94"/>
<path d="M916.729 244.257L211.086 900.381L214.406 903.468L920.049 247.343L916.729 244.257Z" fill="#097F94"/>
<path d="M922.854 249.948L217.211 906.072L220.531 909.159L926.174 253.035L922.854 249.948Z" fill="#097F94"/>
<path d="M928.975 255.641L223.332 911.766L226.652 914.852L932.295 258.728L928.975 255.641Z" fill="#097F94"/>
<path d="M935.104 261.339L229.461 917.463L232.781 920.55L938.424 264.425L935.104 261.339Z" fill="#097F94"/>
<path d="M941.229 267.024L235.586 923.148L238.906 926.235L944.549 270.111L941.229 267.024Z" fill="#097F94"/>
<path d="M947.346 272.723L241.703 928.848L245.023 931.934L950.666 275.81L947.346 272.723Z" fill="#097F94"/>
<path d="M953.471 278.415L247.828 934.539L251.148 937.626L956.791 281.502L953.471 278.415Z" fill="#097F94"/>
<path d="M959.592 284.108L253.949 940.232L257.269 943.319L962.912 287.195L959.592 284.108Z" fill="#097F94"/>
<path d="M965.717 289.8L260.074 945.924L263.394 949.011L969.037 292.886L965.717 289.8Z" fill="#097F94"/>
<path d="M971.836 295.493L266.193 951.617L269.513 954.704L975.156 298.58L971.836 295.493Z" fill="#097F94"/>
<path d="M977.965 301.184L272.322 957.309L275.642 960.395L981.285 304.271L977.965 301.184Z" fill="#097F94"/>
<path d="M984.088 306.884L278.445 963.008L281.765 966.095L987.408 309.97L984.088 306.884Z" fill="#097F94"/>
<path d="M990.209 312.577L284.566 968.701L287.886 971.788L993.529 315.664L990.209 312.577Z" fill="#097F94"/>
<path d="M996.334 318.268L290.691 974.393L294.011 977.479L999.654 321.355L996.334 318.268Z" fill="#097F94"/>
<path d="M1002.45 323.958L296.811 980.082L300.13 983.169L1005.77 327.045L1002.45 323.958Z" fill="#097F94"/>
<path d="M1008.57 329.653L302.93 985.777L306.249 988.864L1011.89 332.74L1008.57 329.653Z" fill="#097F94"/>
</g>
</svg>
