<svg width="424" height="953" viewBox="0 0 424 953" fill="none" xmlns="http://www.w3.org/2000/svg">
<mask id="mask0_53_69349" style="mask-type:luminance" maskUnits="userSpaceOnUse" x="0" y="0" width="424" height="953">
<path d="M313.025 53.0272C310.632 53.0272 311.714 56.4957 311.534 58.4676C311.32 60.7617 311.288 63.0886 311.402 65.3882C311.446 66.2403 311.626 68.5399 313.118 67.0706C316.116 64.0991 316.253 67.0596 315.963 68.4634C314.095 77.4488 319.295 84.5497 322.016 92.4917C326.03 89.4711 329.002 85.9371 328.466 80.6005C327.855 74.5156 332.831 71.6151 335.988 67.9336C337.43 66.2512 341.128 66.3168 343.548 67.7206C347.562 70.0475 349.092 74.166 350.162 78.4156C350.954 81.5564 350.239 85.1614 347.557 86.2102C337.867 90.0064 339.118 99.0682 336.987 106.513C338.998 103.416 340.347 99.9859 341.69 96.5556C342.209 95.2337 342.133 93.7753 343.777 92.8741C350.206 89.3455 353.817 83.5774 355.712 76.6895C356.1 75.2748 355.619 73.4504 357.897 73.6744C359.83 73.8601 360.906 75.3622 360.863 77.0937C360.792 80.0379 360.551 83.0038 359.426 85.8278C355.581 95.485 352.047 105.235 351.462 115.755C351.282 118.967 349.714 120.54 346.672 121.78C340.09 124.462 336.354 131.568 329.198 133.573C329.084 133.606 329.013 133.841 328.953 133.988C327.172 138.298 323.545 140.876 320.147 143.771C317.657 145.89 315.417 148.441 313.598 151.15C312.342 153.019 311.708 155.897 314.576 157.022C316.799 157.891 318.531 157.459 320.257 154.411C323.676 148.359 329.384 144.044 335.349 139.226C335.693 143.662 333.683 145.901 331.252 147.988C326.074 152.434 321.114 156.908 320.699 164.56C320.552 167.297 318.869 169.908 316.182 171.333C313.981 172.497 313.265 174.403 313.232 176.659C313.167 181.466 312.763 186.234 311.468 190.877C311.118 192.139 312.451 194.602 310.272 194.444C308.447 194.307 305.831 194.897 304.591 192.385C304.154 191.494 304.132 189.954 302.357 190.293C301.603 191.62 303.996 192.489 302.674 194.083C299.932 191.653 298.025 192.199 296.075 195.509C295.032 197.279 292.733 200.731 290.296 198.617C284.692 193.756 285.61 200.032 283.9 201.829C279.569 198.399 279.296 197.973 277.826 198.901C275.816 200.174 274.822 199.07 273.522 198.071C272.479 197.268 271.463 196.356 270.283 195.82C267.88 194.728 265.389 194.657 263.362 196.623C261.724 198.213 260.964 200.496 261.696 202.544C262.592 205.041 265.148 205.254 267.541 205.286C269.343 205.314 271.179 205.144 272.866 206.051C276.717 208.116 285.861 206.723 288.843 203.347C289.903 202.146 290.673 200.993 292.405 201.414C294.42 201.905 293.814 203.763 294.164 205.095C294.606 206.767 300.276 210.159 301.8 209.547C302.685 209.192 303.81 208.853 303.171 207.466C302.827 206.712 301.303 205.691 303.067 205.325C304.203 205.09 305.574 203.921 306.754 205.008C307.557 205.751 307.093 206.881 306.891 207.837C306.23 210.923 300.828 213.955 297.638 213.043C291.875 211.399 290.307 212.049 287.724 217.642C286.959 219.303 286.162 220.821 284.212 220.411C276.472 218.789 272.293 227.228 265.088 227.103C264.761 227.097 264.253 228.435 264.105 229.2C263.821 230.637 262.63 230.56 261.696 231.134C255.12 235.176 246.5 230.648 240.35 236.295C240.115 236.514 239.389 236.104 238.924 236.181C237.111 236.481 236.357 232.45 234.56 234.69C233.375 236.164 235.8 237.847 236.248 239.54C236.75 241.435 236.941 243.418 237.324 245.346C237.679 247.149 237.542 249.252 239.667 250.175C241.781 248.22 240.241 245.942 240.705 244.15C245.976 247.761 243.239 251.874 241.273 255.856C239.165 260.127 235.598 258.783 232.189 258.013C231.075 257.762 229.797 257.374 228.775 257.669C219.539 260.318 209.63 258.947 200.552 262.465C198.963 263.082 197.253 263.252 195.784 262.23C193.331 260.531 190.737 260.87 188.164 261.575C184.947 262.454 181.708 262.771 178.381 262.858C172.897 263.006 169.194 267.299 164.234 268.976C167.358 269.62 170.297 269.708 173.23 269.604C179.796 269.369 186.487 267.376 192.73 271.199C193.932 271.936 196.046 271.674 196.161 273.542C196.27 275.389 194.287 275.509 193.069 276.263C191.496 277.229 188.481 278.404 190.562 280.392C191.987 281.752 193.238 286.433 197.45 282.855C201.967 279.021 207.888 279.229 213.541 279.005C210.051 281.179 206.932 283.921 202.699 284.379C201.563 284.5 199.787 284.827 200.295 286.166C201.372 288.984 203.704 291.049 206.364 292.371C208.571 293.463 209.461 291.322 210.543 289.885C212.897 286.75 212.919 286.766 216.578 286.788C210.761 292.371 212.788 298.281 220.315 301.656C228.065 305.13 236.537 303.612 244.272 306.578C246.626 307.479 249.619 306.72 252.323 306.72C251.717 307.228 251.078 307.321 250.471 307.517C247.888 308.348 244.463 308.227 243.982 311.849C243.507 315.405 246.921 315.552 248.964 317.038C251.127 318.606 254.404 319.572 255.011 322.309C255.846 326.056 258.632 328.197 260.369 331.671C261.844 328.618 261.139 326.111 260.303 323.893C259.582 321.987 259.479 321.184 261.532 320.217C265.864 318.185 268.278 319.889 268.311 325.286C268.349 331.376 268.344 337.472 268.469 343.562C268.502 345.065 267.89 346.856 270.228 348.402C270.256 342.339 273.019 337.035 271.501 331.158C271.042 329.394 270.529 326.641 273.216 326.242C275.641 325.881 276.362 328.427 276.641 330.328C277.018 332.917 276.838 335.588 277.018 338.215C277.127 339.766 278.05 340.689 279.683 340.367C281.087 340.089 281.743 339.253 280.776 337.876C277.793 333.627 280.109 331.425 283.736 329.295C289.401 325.963 289.313 325.827 288.986 319.813C288.969 319.485 289.078 319.157 289.067 318.83C289.035 317.699 288.248 317.289 287.423 317.732C281.672 320.796 280.142 315.416 277.668 312.564C276.969 311.761 275.603 311.745 275.434 310.549C278.575 310.074 282.327 310.467 283.452 313.143C285.867 318.879 287.09 313.766 288.112 312.794C290.029 310.986 289.007 308.55 288.745 306.474C285.632 307.179 282.119 310.407 280.055 306.977C277.302 302.41 273.735 302.388 269.518 302.689C265.842 302.945 262.161 303.12 258.484 303.333C262.057 302.274 265.656 301.951 269.24 301.476C270.54 301.301 272.916 301.864 272.49 299.635C272.129 297.745 270.059 298.679 268.666 298.865C266.432 299.16 264.182 299.745 261.188 298.598C264.296 297.177 266.656 297.795 268.917 297.538C270.627 297.347 272.195 297.09 272.659 295.009C273.129 292.895 272.02 291.977 270.239 291.393C268.824 290.929 267.295 290.513 267.634 288.427C268.202 284.953 266.334 285.652 264.094 286.16C255.038 288.208 245.845 288.389 236.625 287.913C244.31 286.794 252.017 286.034 259.735 285.439C263.024 285.182 265.083 283.986 265.034 280.359C264.985 276.35 266.913 273.46 270.288 271.461C272.981 269.866 276.078 268.599 271.037 265.71C268.797 264.426 268.923 261.4 268.573 258.953C268.366 257.5 268.584 255.675 267.787 254.67C264.826 250.956 264.089 247.996 267.06 243.347C270.9 237.339 279.23 235.624 284.075 241.135C284.277 241.364 284.545 241.883 284.474 241.954C282.294 244.057 283.988 244.319 285.637 244.167C287.259 244.014 288.543 243.943 289.166 245.833C289.728 247.548 289.914 249.186 288.204 250.241C287.035 250.962 286.183 251.644 287.358 252.824C288.68 254.157 289.362 252.513 290.122 251.868C290.733 251.355 291.258 250.617 291.553 249.875C292.793 246.805 294 247.4 295.464 249.727C297.288 252.633 298.381 255.768 298.566 259.728C300.718 258.172 301.292 256.336 302.018 254.556C302.952 252.256 304.498 250.53 307.235 250.874C309.518 251.158 312.424 253.19 312.997 249.088C313.462 245.756 318.219 246.362 318.099 243.675C317.848 237.961 321.398 236.367 325.73 235.017C326.669 234.728 328.352 234.979 327.352 232.592C325.435 228.042 325.457 222.984 325.631 218.161C325.774 214.228 326.019 210.809 322.971 207.641C321.688 206.302 320.513 204.281 323.774 202.135C327.909 199.409 330.766 194.553 330.569 189.528C330.329 183.383 331.11 177.336 331.35 171.268C331.64 163.883 334.021 156.394 340.8 152.554C356.914 143.432 358.006 126.292 363.818 111.637C364.146 110.807 363.851 109.659 363.654 108.698C361.917 100.346 365.62 93.1854 369.04 86.1665C370.935 82.2774 371.962 78.6559 369.968 74.8979C367.467 70.1731 368.548 65.7214 370.831 61.6957C373.486 57.0146 374.316 52.328 374.087 47.0242C373.907 42.8675 375.485 39.1532 379.871 37.1431C386.787 33.9695 378.265 29.8401 380.314 26.1312C380.871 25.1262 380.893 23.0178 378.577 22.8321C378.413 22.8211 378.249 22.8102 378.08 22.8048C375.704 22.7119 373.426 21.7779 373.426 19.3089C373.42 15.9661 372.672 10.9572 375.316 9.68451C379.549 7.64711 384.29 3.73616 389.042 5.42944C395.28 7.6471 395.99 4.08574 397.137 0H409.034C410.039 6.78954 407.871 12.8471 405.495 19.1178C403.55 24.2468 403.086 29.9712 402.327 35.4826C402.059 37.4271 401.971 39.8469 404.795 40.7918C408.357 41.9826 409.591 45.1725 409.187 48.3188C408.499 53.6827 408.411 59.4945 402.966 63.0285C399.907 65.0168 400.54 67.6769 402.174 70.3861C405.866 76.5038 405.713 77.1484 398.924 78.066C394.253 78.6942 395.018 80.4967 397.192 83.0749C400.699 87.2371 402.288 91.3283 400.011 97.0854C398.661 100.488 399.89 104.896 399.896 108.851C399.901 111.817 399.082 114.155 395.444 113.996C393.887 113.925 393.347 115.094 392.402 116.045C388.616 119.857 387.191 124.32 386.246 129.602C385.574 133.376 387.524 137.79 384.066 141.198C383.334 141.919 384.836 143.558 385.913 144.366C387.322 145.432 388.802 146.415 390.233 147.42C389.381 148.895 388.059 148.512 387.016 148.818C383.853 149.741 381.39 150.675 385.017 154.302C387.764 157.044 387.934 160.742 386.175 163.965C384.372 167.269 380.691 167.226 377.364 167.319C376.184 167.351 374.972 167.056 374.682 165.631C374.376 164.129 375.141 163.085 376.419 162.408C376.845 162.184 377.359 162.108 377.834 161.982C379.757 161.469 382.575 162.523 383.116 159.546C383.433 157.809 382.04 156.356 380.565 155.602C377.741 154.166 374.737 153.242 371.503 154.248C371.356 154.291 371.203 154.411 371.115 154.537C370.236 155.761 370.291 157.339 370.946 158.311C373.158 161.572 367.423 166.898 374.267 169.067C371.984 170.798 368.652 171.787 370.52 175.632C370.935 176.484 370.531 178.582 368.936 178.838C367.188 179.122 366.828 177.424 366.735 176.156C366.407 171.694 363.403 171.426 360.011 171.661C358.476 171.77 356.979 172.065 356.313 173.666C355.564 175.441 356.471 176.774 357.613 178.107C362.551 183.864 365.222 190.921 368.575 197.579C369.001 198.42 369.668 199.546 368.297 200.048C367.204 200.447 366.429 199.497 365.948 198.639C361.983 191.565 355.237 186.48 351.883 178.97C351.768 178.707 351.386 178.565 350.812 178.123C350.086 180.204 350.195 182.941 347.125 183.154C345.749 183.246 343.744 182.76 343.471 184.798C343.187 186.928 344.531 188.578 346.246 189.708C347.185 190.331 348.425 190.484 349.441 191.014C352.615 192.669 355.341 194.733 355.515 198.754C355.614 201.026 356.854 202.763 358.061 204.56C359.454 206.636 360.125 208.957 357.826 210.76C355.777 212.366 353.68 211.573 352.161 209.722C351.08 208.411 350.386 207.105 349.206 209.607C348.256 211.623 346.541 209.536 345.143 210.011C346.186 214.824 347.054 219.494 348.234 224.087C349.507 229.053 353.265 230.691 357.853 228.419C358.82 227.938 359.776 227.201 360.12 228.687C360.551 230.577 360.961 232.751 358.541 233.799C357.312 234.335 355.417 233.33 354.854 235.389C355.095 236.749 356.105 236.203 356.804 236.175C361.862 235.968 364.386 239.524 366.997 242.959L366.718 242.746C367.336 243.735 367.953 244.729 368.575 245.718C368.144 245.789 367.707 245.86 367.275 245.925C367.139 247.176 367.833 247.253 368.772 246.98C368.291 247.892 367.805 248.804 367.325 249.716C366.199 249.618 365.08 249.52 363.954 249.421V249.285C364.828 249.656 365.708 250.027 366.587 250.399C365.353 252.431 364.774 254.643 364.774 257.008C364.774 259.335 364.599 261.389 361.382 261.187C358.907 261.034 359.978 263.339 359.383 264.47C358.787 265.6 359.421 266.463 360.639 266.562C362.19 266.687 363.905 267.736 365.233 266.043C365.517 265.677 365.664 265.136 365.702 264.661C365.823 263.213 367.172 262.454 367.603 261.258C369.559 255.883 373.999 259.898 376.976 258.647C380.276 257.265 382.952 255.129 385.945 259.832C387.786 262.727 391.347 264.508 390.905 269.041C391.489 268.32 391.992 267.507 392.675 266.895C394.548 265.218 399.94 266.736 397.542 261.176C396.433 258.598 397.705 255.277 394.592 253.185C392.085 251.502 392.418 248.706 393.942 246.548C396.012 243.626 398.64 245.636 401.72 246.717C399.661 242.539 402.987 240.496 404.304 237.699C404.987 236.246 406.27 236.011 407.663 236.448C408.816 236.814 410.301 237.262 410.946 236.339C414.529 231.232 417.998 236.367 419.025 237.656C420.69 239.748 419.969 243.189 417.462 245.98C415.682 247.963 414.431 249.749 411.585 250.41C408.734 251.071 408.663 253.365 409.766 255.79C412.224 255.173 409.919 253.207 411.59 252.3C412.754 255.167 417.866 252.589 418.183 257.161C418.249 258.112 419.085 259.767 418.303 259.881C413.841 260.537 412.661 266.485 407.652 266.179C404.823 266.004 403.79 267.862 404.402 270.391C404.642 271.379 405.609 273.477 406.789 270.806C407.363 269.506 408.253 269.697 409.22 269.915C410.154 270.123 410.891 270.92 410.372 271.702C407.991 275.285 410.831 276.273 413.125 277.513C415.966 279.043 418.746 279.584 421.1 276.596C421.188 276.486 421.39 276.459 421.537 276.394C425.721 285.554 423.143 293.032 415.212 294.998C412.847 295.582 410.716 293.916 407.865 295.768C404.817 297.751 403.332 299.581 402.993 302.935C402.709 305.748 401.764 307.829 398.235 308.096C389.458 308.763 386.573 312.488 387.267 321.626C387.546 325.291 384.465 328.623 380.969 328.443C373.896 328.083 372.885 328.842 371.782 335.948C371.509 337.712 370.777 338.701 369.067 338.892C366.86 339.138 364.932 339.974 362.878 341.651C365.626 343.65 366.882 346.561 367.499 349.773C367.68 350.729 368.084 352.22 367.63 352.63C362.316 357.431 366.074 363.347 365.626 368.689C365.375 371.693 364.419 374.473 363.982 377.395C363.758 378.914 363.588 380.946 361.382 381.077C359.557 381.186 358.246 380.017 357.438 378.51C356.75 377.221 356.449 375.735 355.827 374.402C355.291 373.261 354.882 371.578 353.194 371.944C351.408 372.332 351.725 374.053 352.063 375.238C353.888 381.618 351.883 387.593 350.588 393.728C349.796 397.458 346.688 396.595 344.58 397.748C342.329 398.982 341.253 397.36 340.117 395.934C337.861 393.105 333.442 390.931 337.403 386.239C338.08 385.441 337.708 383.857 336.572 383.169C334.759 382.066 332.547 382.94 331.656 384.027C329.013 387.233 326.101 387.124 322.96 385.518C321.158 384.595 320.978 385.589 320.748 386.812C320.601 387.621 320.59 388.456 320.497 389.276C319.874 394.585 319.596 394.722 314.56 391.335C314.56 398.114 314.56 404.412 314.56 411.731C310.507 408.295 314.98 402.15 308.568 400.768C310.807 410.939 307.366 420.432 306.699 430.406C304.285 423.682 300.025 418.652 294.994 414.113C292.7 412.042 293.251 408.929 292.94 406.17C292.569 402.833 292.356 399.436 287.489 399.572C285.113 399.638 285.462 397.453 285.386 395.836C285.238 392.553 285.894 389.194 284.736 385.998C284.031 384.043 282.485 382.098 280.519 382.464C278.684 382.809 279.225 385.316 279.438 386.818C280.328 392.996 279.765 398.829 277.406 404.728C276.1 407.995 273.642 407.689 271.485 407.869C268.759 408.093 270.037 405.548 269.753 404.155C269.42 402.516 269.278 400.462 267.153 400.561C264.75 400.67 264.094 402.991 264.897 404.619C269.201 413.299 264.75 421.852 264.231 430.319C263.903 435.623 262.379 441.2 261.745 446.733C261.527 448.634 260.751 451.114 258.173 450.611C252.465 449.502 250.368 451.933 251.171 457.881C249.035 455.582 250.362 452.37 247.658 450.873C246.85 452.687 248.368 453.828 248.308 455.259C248.259 456.434 248.445 457.635 247.276 458.351C246.167 459.028 245.026 458.925 244.097 457.996C240.951 454.839 239.257 456.822 237.772 459.722C236.603 462 235.56 464.376 233.451 460.235C232.479 458.335 230.807 458.717 229.283 459.979C226.35 462.398 223.565 465.168 219.178 462.786C217.507 461.88 217.534 463.688 217.13 464.682C216.316 466.708 214.967 468.254 212.613 467.424C209.964 466.49 210.171 464.206 210.739 462.005C211.826 457.767 214.699 454.009 214.333 448.907C210.827 449.743 209.308 451.878 208.784 455.003C208.303 457.854 206.959 459.771 203.824 460.356C198.673 461.317 200.487 466.184 199.351 469.286C198.58 471.395 200.219 472.979 202.655 473.186C203.294 473.241 203.884 473.334 204.157 474.153C205.949 479.533 208.953 479.981 214.525 479.036C219.238 478.239 222.882 475.934 226.973 474.186C230.851 472.525 235.936 475.338 236.297 479.539C236.51 481.981 237.155 483.521 239.186 484.744C240.137 485.318 241.519 486.656 240.798 487.492C237.313 491.556 241.972 490.267 243.802 491.807C239.962 491.528 238.252 493.249 237.837 496.373C237.52 498.744 236.089 499.356 233.921 498.717C232.178 498.203 230.425 497.734 228.683 497.231C225.509 496.319 223.903 494.511 224.854 490.988C225.214 489.655 226.033 487.765 224.029 487.153C222.161 486.585 221.03 488.104 220.238 489.639C219.222 491.605 219.621 494.904 216.873 495.199C214 495.505 214.022 492.031 212.629 490.338C211.307 488.732 210.182 488.754 209.232 490.584C208.09 492.785 206.73 494.784 205.146 496.729C202.579 499.88 200.017 502.01 195.538 501.098C193.113 500.607 191.261 502.36 189.928 504.463C188.552 506.642 190.769 507.358 191.305 508.773C193.326 514.087 198.007 516.327 202.016 519.38C202.912 520.063 203.272 522.237 204.993 521.003C206.249 520.101 206.637 518.463 206.413 516.955C206.009 514.191 205.468 511.444 204.851 508.724C204.179 505.741 204.949 503.829 208.303 503.889C210.515 503.933 211.591 502.808 212.28 500.902C213.312 498.018 214.891 498.236 216.404 500.454C218.283 503.207 220.096 503.627 222.882 501.426C225.717 499.181 228.42 499.82 230.31 503.092C230.971 504.234 231.851 505.244 232.484 506.397C233.62 508.45 235.123 509.871 237.624 509.401C240.59 508.849 238.995 506.533 239.126 504.966C239.421 501.492 242.333 499.323 243.354 496.221C243.436 495.98 244.348 495.707 244.578 495.865C250.635 500.104 250.947 494.085 253.077 491.19C254.049 491.403 254.95 491.955 255.06 493.031C255.371 496.029 256.911 496.625 259.784 496.428C265.274 496.062 266.59 497.99 265.777 503.463C265.296 506.708 265.35 510.029 265.187 513.317C265.137 514.311 265.028 515.502 266.268 515.792C272.877 517.332 271.25 522.8 271.55 527.164C271.698 529.283 271.594 531.862 273.91 531.763C275.947 531.676 277.843 529.627 277.569 526.891C277.253 523.739 277.837 521.014 280.65 519.08C282.141 518.058 282.551 516.491 282.529 514.727C282.491 511.826 284.452 509.794 286.211 507.975C287.735 506.402 289.81 505.08 292.432 505.872C295.251 506.724 296.507 508.947 296.507 511.449C296.507 515.945 298.091 517.54 302.75 517.032C307.459 516.518 307.317 520.795 308.147 523.87C308.491 525.154 305.574 527.301 308.759 527.661C310.867 527.901 313.91 528.016 314.729 525.29C315.554 522.527 316.886 521.161 319.492 519.741C322.403 518.151 321.152 514.983 318.405 514.109C310.654 511.629 312.555 504.682 311.042 499.318C310.894 498.799 311.271 497.668 311.648 497.537C317.1 495.68 318.318 487.683 326.069 488.415C323.654 484.466 321.671 481.008 324.342 476.786C326.746 472.99 329.28 469.701 334.136 469.478C336.922 469.352 337.545 467.44 337.381 465.435C336.862 459.17 338.522 452.703 340.915 447.754C343.695 442.013 344.99 433.695 353.702 431.947C356.761 431.335 357.717 429.003 357.673 425.212C357.58 417.106 358.028 408.765 366.238 403.516C370.302 400.921 372.732 390.221 370.531 385.152C367.986 379.291 370.159 374.386 373.672 370.344C377.654 365.761 382.193 361.883 384.154 355.721C385.552 351.33 389.927 350.527 394.002 350.565C397.46 350.598 398.907 354.012 396.558 357.639C393.237 362.768 391.899 368.47 390.348 374.184C389.141 378.641 390.282 382.77 392.216 386.594C393.702 389.527 393.669 392.247 392.877 395.191C391.724 399.468 390.615 403.762 389.447 408.039C388.802 410.393 389.234 412.649 390.004 414.844C390.889 417.384 391.118 419.99 391.145 422.65C391.205 428.718 390.14 430.04 384.094 429.958C381.226 429.92 380.161 430.958 380.15 433.618C380.123 438.092 379.352 442.472 378.407 446.831C378.238 447.618 378.058 448.612 378.38 449.262C382.854 458.165 380.133 467.921 381.586 477.207C382.553 483.368 382.247 489.939 380.838 496.275C379.822 500.831 383.247 503.944 386.333 507.118C391.823 512.755 400.895 513.64 404.337 521.948C406.161 526.35 404.61 530.261 404.708 534.385C404.708 534.522 404.561 534.789 404.473 534.789C399.453 535.03 396.384 539.956 391.806 540.454C388.223 540.841 387.573 541.961 388.032 545.009C388.605 548.827 388.54 548.838 385.017 551.886C389.643 552.689 392.615 554.912 393.27 559.626C393.429 560.751 394.581 562.139 395.646 562.663C399.098 564.367 402.813 565.585 401.698 570.753C401.534 571.523 402.529 572.61 403.681 572.626C405.249 572.642 406.134 571.495 406.456 570.206C407.335 566.7 407.969 563.133 408.783 559.61C409.302 557.359 409.941 554.24 412.382 554.399C414.567 554.541 414.666 557.862 414.655 559.844C414.606 570.053 414.256 580.262 414.054 590.471C413.901 598.053 413.655 605.634 413.77 613.21C413.814 615.903 414.07 618.962 417.402 620.197C419.014 620.792 418.817 622.283 418.888 623.567C419.199 629.499 419.494 635.436 419.735 641.373C419.844 644.028 419.838 646.595 417.375 648.551C415.764 649.829 416.299 651.888 416.474 653.685C417.249 661.72 418.052 669.75 418.822 677.785C419.576 685.65 414.6 692.625 416.168 701.9C413.125 698.465 414.545 695.149 412.115 692.511C411.732 701.895 411.306 710.749 411.022 719.609C410.76 727.797 409.061 735.99 411.585 744.172C412.164 746.046 412.027 748.897 409.837 749.946C407.647 750.995 406.265 749.072 405.243 747.253C404.462 745.866 403.359 746.193 402.272 746.789C401.168 747.395 400.54 748.22 400.884 749.618C403.774 761.302 399.513 771.571 394.587 781.747C392.008 787.078 392.833 792.912 392.107 798.554C394.603 796.861 394.374 794.01 395.832 791.153C395.979 810.025 389.671 827.668 392.358 845.994C389.774 841.809 390.561 837.15 389.365 832.851C388.387 829.345 386.759 826.204 385.306 822.921C382.837 817.35 379.391 812.264 377.08 806.922C374.857 801.788 373.513 794.326 379.489 789.055C380.969 787.744 381.794 785.685 379.412 784.636C377.31 783.713 373.688 782.435 372.841 784.942C371.465 789.028 367.751 791.344 366.462 795.397C365.877 797.232 364.856 798.713 365.211 800.87C365.664 803.623 364.583 805.868 361.453 806.185C358.907 806.442 357.006 807.239 356.351 809.959C355.685 812.723 358.115 812.581 359.492 813.515C361.245 814.701 361.059 816.126 359.847 817.738C358.033 820.135 358.438 822.752 358.585 825.669C358.793 829.798 358.825 833.616 361.447 837.101C362.212 838.117 362.693 838.773 364.036 838.849C368.548 839.117 372.12 845.196 369.417 848.976C366.483 853.073 366.391 857.3 366.926 861.697C367.221 864.139 365.932 866.116 365.697 868.126C367.226 869.711 368.575 865.488 369.275 868.187C369.892 870.59 370.105 873.479 367.969 875.648C367.636 875.987 367.133 876.161 366.696 876.385C359.432 880.094 358.853 882.76 364.162 889.347C365.407 887.457 364.162 885.824 363.949 884.207C363.627 881.733 365.178 880.193 366.696 878.674C367.357 878.013 368.297 878.084 368.903 878.789C370.258 880.362 369.875 882.186 369.411 883.972C369.122 885.087 368.679 886.174 368.483 887.304C367.751 891.45 366.003 895.585 369.575 899.512C370.962 901.036 371.372 903.429 370.782 905.646C370.34 907.307 369.624 908.924 367.456 908.481C365.719 908.126 364.359 907.252 364.73 905.073C365.386 901.222 364.484 899.551 359.858 899.66C355.865 899.753 354.614 894.509 351.206 892.761C351.031 892.674 350.982 892.138 351.031 891.833C351.692 887.435 350.78 884.229 348.622 880.903C346.672 877.898 344.793 874.883 346.388 870.787C347.912 866.881 347.038 863.238 342.881 861.146C341.587 860.496 340.948 859.436 340.352 858.24C338.79 855.105 337.097 854.034 333.393 856.088C328.663 858.715 321.573 854.842 320.601 849.566C319.869 845.595 317.263 842.219 317.99 837.664C318.552 834.146 318.869 830.934 321.464 828.247C322.753 826.914 323.37 825.019 322.846 823.167C321.955 820.01 322.365 817.317 324.91 815.088C325.577 814.504 325.97 813.625 325.566 812.86C323.141 808.244 319.093 804.896 315.996 800.805C314.068 795.211 315.723 789.094 313.948 782.495C311.228 787.236 311.889 791.836 309.889 795.621C308.786 797.718 308.469 799.723 310.403 801.411C312.495 803.241 314.352 801.99 316.116 800.657C312.429 807.84 313.494 816.192 310.447 823.588C309.447 826.018 309.343 828.569 306.481 829.913C303.755 831.196 303.63 833.747 304.613 836.304C305.072 837.494 306.17 838.527 304.941 840.018C301.74 839.155 302.816 835.561 301.133 833.731C297.146 838.816 297.009 847.332 301.117 851.871C304.848 856 305.405 859.726 303.198 865.237C301.641 869.121 301.756 874.064 300.773 878.483C300.56 879.444 300.866 880.7 300.347 881.378C297.315 885.365 296.6 889.626 296.616 893.968L294.612 893.914C295.562 888.151 293.59 886.305 286.872 885.726C283.616 885.447 279.956 885.382 277.231 884.251C270.518 881.465 266.383 885.398 262.537 889.025C256.879 894.362 253.951 894.585 248.849 888.643C247.396 886.955 244.96 886.365 243.879 884.049C241.825 879.657 242.551 877.483 247.189 875.877C248.565 875.402 248.822 874.419 249.188 872.677C246.763 873.856 245.113 874.37 244.785 870.71C244.081 862.828 240.951 861.484 235.09 866.477C233.773 867.597 232.637 868.187 231.359 867.995C227.831 867.46 224.897 868.503 222.079 870.481C221.101 871.163 220.336 870.798 220.375 868.727C220.44 865.516 219.135 865.57 216.775 866.351C212.28 867.842 207.014 863.729 208.522 859.371C209.488 856.574 208.172 856.672 207.074 857.415C202.065 860.807 196.811 862.276 190.677 862.637C187.634 862.817 184.603 866.242 181.019 867.187C179.534 867.58 178.261 868.531 178.441 870.344C178.496 870.901 178.971 871.644 179.463 871.884C181.555 872.922 181.112 870.257 182.084 869.945C185.242 868.935 188.492 868.126 191.944 868.837C191.703 871.147 189.89 870.661 188.934 871.366C186.094 873.463 186.165 875.959 189.398 877.216C192.49 878.417 195.401 879.253 190.382 881.979C189.3 882.569 188.377 883.617 188.743 884.786C189.666 887.687 187.672 889.391 186.405 891.417C184.362 894.689 184.788 897.196 188.339 899.19C191.305 900.856 193.839 903.418 197.624 903.134C197.936 903.112 198.455 903.205 198.548 903.402C201.268 909.137 206.943 908.077 212.143 908.727C208.658 911.923 201.666 912.392 199.05 909.618C196.057 906.444 193.167 904.226 188.841 907.236C187.885 907.902 187.044 907.651 186.361 906.608C184.291 903.445 181.238 902.751 179.086 905.717C177.119 908.421 177.409 911.912 180.5 914.441C182.248 915.872 184.39 917.008 185.018 919.57C183.63 920.389 182.614 920.034 181.647 918.849C180.681 917.669 179.364 917.33 178.201 918.455C176.939 919.673 177.797 921.148 178.621 922.006C180.888 924.36 183.133 926.878 186.858 926.955C188.109 926.982 189.519 926.692 190.742 927.96C190.141 930.139 188.202 929.697 186.831 929.533C184.346 929.232 182.325 930.276 180.227 931.188C178.971 931.734 178.004 932.608 177.698 934.039C177.447 935.235 182.336 944.882 183.614 945.455C185.7 946.395 186.132 948 185.438 949.923C184.832 951.622 183.723 952.277 181.62 952.119C176.671 951.748 172.018 950.988 167.724 948.159C164.868 946.274 162.186 941.375 163.152 938.174C163.819 935.956 166.293 935.743 167.812 935.071C171.389 933.498 171.504 931.122 170.477 928.276C169.352 925.152 168.101 921.929 163.595 922.792C160.274 923.426 156.254 923.71 154.921 920.209C153.55 916.604 152.299 912.272 154.686 908.41C155.713 906.75 156.363 905.559 155.511 903.505C151.736 894.438 155.074 887.337 164.212 884.677C166.626 883.972 168.265 882.623 167.386 880.078C164.944 873.032 168.385 865.778 166.288 858.671C165.294 855.307 168.074 853.499 171.04 852.98C173.542 852.543 175.382 851.554 176.546 849.347C178.332 845.966 182.549 846.409 184.805 843.645C186.684 845.786 185.498 848.801 187.809 850.538C188.967 851.407 187.809 852.417 186.733 852.428C183.09 852.466 180.2 854.569 177.081 855.836C180.741 858 189.666 858.109 193.599 855.662C195.145 854.7 195.997 853.695 197.592 855.662C199.465 857.967 201.716 857.191 203.649 855.46C205.861 853.477 205.834 851.008 204.19 848.91C203.589 848.14 202.557 847.774 203.212 846.726C206.227 841.908 202.54 843.35 200.252 843.514C197.865 843.689 195.893 844.83 193.899 846.081C192.446 846.993 190.835 848.654 188.972 847.386C187.197 846.179 187.017 844.038 187.132 842.006C187.203 840.712 187.432 839.428 187.64 837.746C185.897 837.991 186.105 839.488 185.444 840.154C184.308 841.296 182.784 841.804 181.385 841.362C179.894 840.892 180.91 839.368 180.795 838.308C180.61 836.571 179.348 834.151 179.484 833.507C180.429 829.164 176.742 826.128 176.792 822.637C176.83 820.059 177.048 815.678 181.5 814.864C182.538 814.673 183.761 813.766 183.499 812.969C182.177 808.987 184.155 805.032 183.379 801.138C183.013 799.319 181.784 797.544 179.659 797.757C174.88 798.237 170.111 799.177 165.955 801.668C163.469 803.159 162.912 805.677 164.682 809.435C166.501 802.777 170.357 804.295 174.181 805.781C175.24 806.196 176.644 806.436 176.895 807.692C177.218 809.298 175.606 809.817 174.639 810.626C173.159 811.866 171.231 811.724 169.483 812.161C164.807 813.33 163.398 817.535 166.446 821.206C167.495 822.473 168.784 823.544 169.8 824.838C170.619 825.882 173.831 826.111 171.63 828.285C169.904 829.989 166.981 830.606 165.583 828.105C163.578 824.522 159.072 822.828 158.488 818.284C158.362 817.29 157.575 816.853 156.674 817.497C154.959 818.721 154.386 820.572 155.434 822.293C158.204 826.821 161.328 831.005 166.796 832.77C169.723 833.715 173.115 833.54 175.819 836.364C173.46 837.533 171.389 838.915 169.631 840.848C165.042 845.912 156.046 844.715 152.807 838.767C151.392 836.167 149.267 834.927 146.383 834.927C139.971 834.927 134.787 828.012 136.317 821.949C137.36 817.819 137.464 813.728 143.084 812.527C146.17 811.866 143.914 808.119 144.674 805.895C145.482 803.552 145.903 802.088 142.462 800.837C136.125 798.532 135.672 795.375 139.747 789.782C140.621 788.58 142.97 787.242 140.888 785.849C139.222 784.729 137.895 787.029 137.245 788.345C134.263 794.403 129.117 800.105 133.356 807.638C133.782 808.403 134.072 809.397 133.056 809.757C127.839 811.603 128.555 816.082 128.364 820.125C128.14 824.98 122.399 830.028 117.614 829.274C114.222 828.738 112.081 829.257 109.945 832.649C106.853 837.56 101.997 840.52 95.6121 839.679C93.6621 839.423 91.5646 838.783 91.0621 837.161C89.1394 830.973 85.0482 834.086 82.044 835.162C76.3414 837.199 71.9279 834.741 71.4363 828.717C71.2452 826.395 70.4805 824.259 70.9284 821.719C71.5237 818.338 68.383 816.443 65.5044 818.557C61.1838 821.73 60.0094 819.038 57.7262 816.001C54.5472 811.767 53.1051 807.638 54.8257 802.531C55.0715 801.799 54.8257 800.575 53.9682 800.422C48.9429 799.521 48.9593 794.283 46.1736 791.442C44.311 789.542 44.8954 786.838 45.9551 784.434C46.9984 782.069 46.4358 780.518 43.5954 780.54C41.3067 780.556 40.187 778.786 38.663 777.612C37.4013 776.645 36.2433 776.716 35.1781 777.913C34.184 779.032 34.6756 779.972 35.4458 780.982C36.5328 782.402 38.166 783.418 38.592 785.347C38.9853 787.138 39.8046 789.023 37.0571 789.673C36.0412 789.913 35.3693 790.487 34.8067 791.41C32.0756 795.905 29.8579 795.736 25.7504 792.327C21.4188 788.733 19.0755 784.205 17.1091 779.196C16.1041 776.64 17.5243 775.225 18.9226 773.592C23.6474 768.075 23.5709 767.578 17.7701 763.525C17.2457 763.159 16.5356 762.766 16.3499 762.23C14.6238 757.249 10.3414 755.446 6.02629 753.502C3.31157 752.273 2.59602 749.383 3.13132 746.893C3.8414 743.604 2.83089 741.064 1.21954 738.503C-1.03635 734.919 -0.0258456 732.713 3.12585 729.752C7.27168 725.863 11.2591 721.952 16.0986 718.893C18.1251 717.61 17.9667 715.37 17.4532 713.065C16.7486 709.902 17.2785 706.838 19.5835 704.298C20.4957 703.293 21.3423 702.436 22.9482 702.796C24.5705 703.162 24.9583 704.227 25.2533 705.609C25.5974 707.215 26.0453 708.805 26.597 710.35C27.5092 712.923 25.2861 717.124 30.3222 717.664C30.5243 717.686 30.9449 719.074 30.6991 719.439C26.4659 725.699 32.4907 725.213 35.4458 726.732C35.9811 727.01 36.5218 727.272 38.4063 728.223C31.726 728.976 27.7058 732.21 22.5823 736.203C28.8966 735.466 33.5613 738.661 38.9471 737.814C40.8807 737.509 43.9177 737.115 44.1526 740.048C44.3656 742.725 41.4488 742.293 39.6462 742.79C38.237 743.178 36.8332 743.588 34.4899 744.254C37.2319 745.959 39.2311 745.074 41.1156 744.73C45.4416 743.938 48.9265 744.5 50.7618 749.258C51.9035 752.218 54.5417 753.376 57.6278 752.95C59.7909 752.65 61.0199 753.256 60.5556 755.479C59.9548 758.336 61.0308 759.456 63.7838 759.576C67.8968 759.762 67.3124 763.607 68.5796 766.715C70.4477 764.12 72.059 762.225 75.0906 762.056C77.2864 761.936 76.467 760.395 75.533 759.243C73.1078 756.238 70.8737 753.36 73.4683 749.105C74.4187 747.548 73.2826 745.948 70.912 746.21C69.2952 746.39 67.5582 746.024 66.0342 746.461C63.5107 747.182 62.2489 745.827 61.2384 744.052C60.1295 742.102 59.7527 739.814 56.9888 739.032C55.0551 738.486 56.1257 736.427 56.2568 735.094C56.7976 729.594 55.5249 727.207 50.374 726.267C47.8887 725.814 47.1513 724.825 46.7963 722.591C46.5177 720.849 45.7475 719.15 44.9937 717.528C43.4206 714.13 44.2236 711.421 47.1896 709.334C50.9039 706.718 54.5417 704.451 51.8161 698.672C50.882 696.689 52.7555 693.325 55.6287 693.581C58.7094 693.854 61.222 691.648 64.2808 692.429C65.0346 692.62 66.1817 691.899 66.9519 691.331C71.6494 687.873 73.6212 688.911 76.112 694.346C78.1767 698.852 82.836 701.239 87.0856 703.73C87.2604 705.358 85.7965 705.374 84.8843 705.926C83.7209 706.636 81.5032 706.904 82.8578 708.958C83.8519 710.465 85.5889 709.886 86.8889 709.067C89.8058 707.242 91.1822 704.315 92.7936 701.37C94.476 698.295 94.7054 695.974 92.657 693.079C91.794 691.861 91.7012 689.916 91.7121 688.305C91.7285 685.033 91.5974 682.214 87.5007 681.28C84.8952 680.685 84.5511 678.003 84.0814 675.807C83.262 671.951 81.383 669.761 77.0679 669.892C73.3044 670.006 72.1737 666.505 72.0153 663.982C71.8624 661.507 71.3435 659.148 71.0868 656.728C70.841 654.417 69.6939 653.145 67.5418 652.56C63.5434 651.473 61.5169 648.791 61.222 644.705C61.1838 644.219 61.0964 643.706 60.9106 643.263C60.2716 641.745 59.556 639.664 57.7589 639.97C55.9783 640.276 55.798 642.351 56.0056 644.077C56.1257 645.06 56.1913 646.066 56.4644 647.005C57.3602 650.086 59.7745 653.101 55.3283 655.81C54.0993 656.558 54.3614 659.524 53.564 661.305C53.0833 662.376 54.9241 664.266 52.7064 664.419C51.3682 664.511 49.653 664.599 48.577 663.239C46.3375 660.404 43.6391 657.929 41.4215 655.155C39.6135 652.893 38.7013 649.643 41.2194 646.502C44.1416 642.865 45.895 639.014 42.1206 634.486C40.3126 632.317 42.7215 630.881 44.5131 630.16C47.6429 628.903 49.5929 627.549 47.8068 623.649C47.1076 622.119 48.4623 620.257 49.2652 618.585C50.7564 615.488 50.5215 612.992 46.4522 611.779C40.7277 610.07 37.8601 605.203 39.1601 599.484C40.766 592.421 40.553 586.101 33.6214 581.781C31.8626 580.683 31.2071 579.099 31.9336 577.116C33.0861 573.97 29.0168 571.463 30.9832 568.163C34.8012 561.756 40.2416 556.851 45.7148 551.973C46.6597 551.132 47.987 550.52 49.3526 551.586C49.7513 553.383 47.987 553.126 47.2442 553.787C45.3379 555.475 45.1849 557.993 47.1185 558.79C51.9526 560.784 49.582 562.767 47.4299 564.504C42.8198 568.213 43.4534 572.55 45.1194 577.351C45.8786 579.536 46.8236 580.016 48.6698 578.826C50.1938 577.837 52.1766 577.072 53.045 575.652C55.7707 571.173 60.6867 570.321 65.0619 567.601C64.5758 571.534 64.5867 574.915 59.5123 575.428C57.0707 575.674 51.2261 586.784 51.5102 589.455C51.6194 590.46 51.7614 591.684 52.8593 591.869C54.4379 592.143 54.6346 590.613 54.8694 589.57C55.5631 586.511 57.1089 584.031 60.4518 584.397C64.4392 584.834 69.1204 582.463 72.2666 587.172C73.6813 589.291 73.4246 590.143 71.1687 591.225C65.7939 593.798 63.4943 604.29 67.2523 609.103C69.0002 611.342 70.7863 613.434 71.267 616.357C71.5729 618.203 73.1242 619.148 74.6317 619.721C79.1545 621.447 82.5793 624.981 86.9163 626.981C88.4894 627.707 89.4234 628.931 90.2701 630.438C90.8545 631.476 91.5045 634.491 93.6239 631.454C94.0335 630.864 94.3012 631.367 94.689 631.689C100.807 636.813 108.29 637.659 115.817 638.298C117.701 638.457 118.75 637.626 118.155 635.644C117.8 634.464 119.116 632.213 115.828 632.77C112.676 633.306 111.638 630.848 110.092 628.084C106.837 622.267 110.229 616.919 109.743 611.419C109.486 608.524 110.251 604.706 105.078 607.071C104.608 607.284 103.756 607.071 103.276 606.759C101.227 605.443 98.7529 596.594 99.6323 594.229C100.25 592.574 101.894 590.924 100.861 589.127C98.2558 584.577 101.724 581.011 102.669 577.105C103.21 574.86 105.996 574.707 108.028 574.172C110.169 573.609 109.628 575.668 110.245 576.608C110.693 577.291 111.196 578.137 111.879 578.427C115.194 579.842 115.413 582.152 113.938 584.96C113.179 586.402 113.266 587.418 114.823 588.193C116.472 589.013 116.734 587.855 117.237 586.751C117.477 586.221 118.078 585.566 118.592 585.495C123.136 584.856 123.06 582.611 120.569 579.71C123.295 577.28 126.184 578.815 128.888 578.815C130.499 578.815 131.428 580.169 131.87 581.666C132.34 583.245 131.084 586.036 133.727 586.069C136.863 586.112 140.069 587.598 143.221 585.877C145.204 584.796 146.471 583.818 144.947 581.305C143.532 578.973 143.62 576.291 145.864 574.56C148.115 572.828 151.048 573.096 153.222 574.62C157.532 577.635 162.087 575.985 166.555 575.876C167.692 575.849 169.336 575.505 169.123 573.587C168.981 572.309 168.216 571.108 167.02 571.184C163.398 571.413 162.47 568.802 162.191 566.312C161.831 563.111 165.376 564.307 166.883 563.1C167.162 561.505 165.911 560.309 165.146 559.784C161.852 557.512 163.076 555.89 165.081 553.459C167.386 550.668 168.931 552.104 170.805 553.601C171.919 554.491 171.99 554.502 173.405 552.738C173.973 552.028 174.481 552.279 175.115 552.421C180.571 553.639 179.823 551.192 177.906 547.822C176.562 545.452 176.054 542.409 176.972 540.191C178.245 537.122 177.371 534.483 177.218 531.599C177.005 527.546 176.557 523.854 172.558 521.642C172.029 521.352 171.4 520.637 171.389 520.112C171.198 511.198 167.145 502.295 170.892 493.418C172.05 490.671 174.984 489.573 178.048 489.628C179.692 489.66 181.374 489.699 182.964 490.059C185.766 490.693 187.252 489.759 186.957 486.875C186.684 484.193 187.803 482.194 189.18 480.036C191.572 476.289 191.332 472.788 187.978 469.336C181.063 462.224 180.894 459.771 184.919 450.529C186.225 447.53 188.279 444.848 188.803 441.478C188.978 440.348 189.852 439.271 191.157 439.255C196.816 439.179 196.57 435.076 196.663 431.253C196.69 430.286 196.565 429.177 196.106 428.358C192.512 421.891 192.79 415.598 196.625 409.339C197.275 408.279 196.679 407.083 196.363 405.974C195.183 401.915 193.522 398.086 193.074 393.711C192.572 388.822 188.224 386.457 183.723 388.085C181.047 389.052 179.179 388.243 178.605 386.146C177.715 382.896 175.235 381.956 172.81 380.656C169.576 378.925 167.178 376.948 168.686 372.55C169.718 369.53 168.893 366.269 167.883 363.319C166.326 358.786 168.052 355.53 171.521 353.001C175.486 350.112 180.424 350.243 183.843 352.941C186.192 354.793 189.824 352.695 191.911 355.547C192.195 355.934 193.632 354.613 193.544 356.273C193.5 357.158 192.943 357.77 192.129 358.147C187.476 360.282 186.837 361.888 188.137 368.159C190.829 362.806 191.195 362.79 194.582 367.777C197.22 371.677 202.824 373.058 203.666 378.652C204.338 375.527 203.775 372.845 201.776 370.529C198.859 367.143 197.963 363.729 201.088 359.873C202.322 358.349 202.994 356.388 203.163 354.367C203.294 352.821 203.316 351.259 205.463 351.281C207.32 351.302 208.8 352.182 209.144 353.99C209.603 356.41 209.581 358.911 209.925 361.358C210.204 363.347 210.515 365.755 213.487 364.155C215.076 363.297 215.863 364.139 216.158 365.193C217.234 369.071 219.08 368.443 221.336 366.296C224.1 363.658 227.612 362.828 232.599 362.331C228.306 360.244 227.246 358.158 230.605 355.519C231.883 354.514 232.79 354.028 233.648 355.847C235.237 359.206 236.783 357.005 238.203 355.437C239.476 358.616 238.881 360.938 236.319 362.691C232.195 365.521 230.545 369.355 230.223 374.424C229.977 378.324 226.738 381.727 227.65 386.157C228.328 389.44 232.097 392.673 234.664 390.898C237.996 388.593 239.236 390.33 241.093 392.384C244.135 395.743 245.463 395.475 247.5 391.379C248.008 390.357 248.336 388.844 249.171 388.446C254.918 385.698 255.895 380.383 256.731 374.981C257.015 373.151 258.692 372.425 259.544 371.098C257.217 368.044 247.921 370.666 252.438 362.221C243.474 363.325 242.71 362.052 240.033 354.072C239.148 351.439 237.581 349.041 236.45 346.485C233.648 340.149 234.145 334.086 238.427 328.563C240.437 325.974 237.652 324.718 237.062 322.926C236.341 320.73 234.216 320.321 232.097 320.851C230.676 321.206 229.344 321.91 227.934 322.314C225.274 323.074 223.16 322.773 222.035 319.676C220.943 316.677 218.403 315.301 215.442 314.198C210.319 312.286 205.67 309.866 203.485 304.027C201.874 299.728 197.63 297.893 193.277 297.046C189.753 296.363 186.957 294.626 184.089 292.551C177.857 288.039 170.892 285.98 163.098 287.728C156.827 289.137 150.502 288.569 144.242 287.673C142.445 287.416 141.768 287.591 141.631 289.345C141.582 289.989 141.604 290.721 141.309 291.256C139.463 294.626 139.414 294.637 142.188 297.27C143.674 298.679 143.772 299.947 142.292 301.471C141.167 302.623 139.102 302.585 138.556 304.3C144.018 309.719 151.78 313.1 152.179 322.325C151.196 323.085 150.109 322.118 149.546 321.326C145.717 315.935 139.998 315.956 134.454 316.322C130.887 316.557 129.145 314.329 126.883 312.57C125.321 311.357 123.824 310.03 122.153 308.976C119.078 307.037 118.597 304.775 121.334 302.339C123.557 300.356 123.256 299.127 121.066 297.292C119.116 295.659 117.838 293.245 116.013 291.42C115.008 290.415 113.413 289.192 112.228 289.323C106.498 289.962 102.511 285.881 97.6441 284.27C91.368 282.184 90.2755 278.879 92.5478 272.199C94.6289 266.076 94.5306 265.912 88.4566 263.831C85.0755 262.673 83.415 260.723 85.6108 257.145C87.5389 253.999 86.3973 251.333 83.923 249.285C81.3229 247.133 80.2087 244.33 81.3393 241.506C82.5738 238.431 85.7965 238.579 88.6696 239.136C94.3613 240.245 99.9983 241.496 102.844 247.449C103.707 249.246 105.379 250.131 107.023 250.765C110.529 252.13 114.063 253.026 116.336 256.67C117.477 258.494 120.864 258.74 122.126 256.981C126.009 251.568 131.581 251.054 137.349 250.59C138.496 250.497 139.616 250.17 140.757 249.962C142.8 249.596 142.991 248.067 141.522 247.378C137.901 245.674 136.551 241.168 132.389 240.316C129.532 239.731 128.724 237.617 128.882 235.159C129.101 231.713 127.643 229.44 124.611 228.119C121.874 226.922 120.482 225.235 121 221.984C121.241 220.471 120.771 218.565 119.974 217.227C117.603 213.234 120.443 210.568 123.022 209.908C127.206 208.831 129.735 206.122 132.69 203.593C134.94 201.665 134.661 199.988 132.165 199.24C128.746 198.218 126.506 196.099 124.518 193.362C123.874 192.478 122.721 191.352 121.814 191.369C115.44 191.483 112.621 186.955 109.322 182.646C106.859 179.428 106.302 174.927 109.426 172.295C112.19 169.957 114.648 167.33 117.335 164.964C120.678 162.015 124.944 162.375 129.128 163.118C135.475 164.243 137.163 166.33 136.781 172.622C136.704 173.89 136.125 174.365 135.082 174.627C132.772 175.206 130.985 176.67 130.985 178.991C130.985 181.635 133.039 184.41 135.131 184.656C143.947 185.677 149.328 193.565 157.865 195.045C157.472 195.542 157.324 195.924 157.1 195.979C154.495 196.58 150.349 195.897 150.387 199.475C150.431 203.495 154.637 201.796 157.139 202.299C158.357 202.544 160.301 201.802 160.52 203.462C160.782 205.489 158.537 205.543 157.286 205.642C152.599 206.007 148.219 207.346 143.975 209.236C142.773 209.771 141.265 210.432 141.779 212.049C142.314 213.742 144.013 213.611 145.089 212.813C151.857 207.837 159.367 210.273 167.227 210.481C160.061 212.742 151.9 210.721 146.733 218.09C149.109 217.762 149.901 218.603 150.442 220.974C151.409 225.18 156.095 225.781 159.143 227.987C160.35 228.861 163.136 228.708 162.224 230.872C161.432 232.751 159.285 231.27 157.789 230.855C155.893 230.336 153.916 229.943 152.517 228.31C151.977 227.682 151.239 227.103 150.431 227.889C149.759 228.55 149.961 229.419 150.283 230.2C151.507 233.16 154.244 234.176 156.947 234.832C160.984 235.809 164.878 237.077 168.593 238.923C169.035 239.141 169.691 239.207 169.92 239.556C174.252 246.171 181.489 244.27 187.607 245.609C191.135 246.379 194.293 245.669 196.237 242.38C197.919 239.54 201.819 239.316 203.147 235.766C203.78 234.072 204.649 233.258 203.109 231.724C199.203 227.835 199.558 223.082 200.842 218.297C201.262 216.735 202.038 214.49 203.655 214.529C207.893 214.627 209.33 212.671 211.482 209.072C213.956 204.942 213.694 201.201 213.394 197.257C213.203 194.777 211.548 192.412 211.575 189.725C211.58 188.867 211.449 187.862 210.575 187.622C202.153 185.328 201.852 178.844 201.661 171.738C201.563 168.051 205.184 166.953 205.43 164.096C205.78 160.087 208.653 160.229 211.362 159.764C212.138 159.633 213.498 159.18 213.514 158.83C213.885 150.954 219.233 157.071 221.975 155.903C223.209 155.373 225.837 160.824 225.099 162.419C224.433 163.867 223.111 165.074 223.597 167.095C229.524 165.98 226.924 159.437 229.704 157.268C234.27 153.701 230.01 149.37 232.178 145.836C232.249 150.451 235.428 153.816 236.63 158.421C239.094 156.487 241.475 155.242 241.022 152.052C243.66 152.287 242.147 156.105 244.851 155.449C246.752 154.99 246.5 152.532 247.555 151.658C252.132 147.851 250.93 141.919 253.284 137.353C253.667 136.61 253.984 135.703 253.153 135.102C252.29 134.474 251.613 135.234 251.039 135.78C247.746 138.904 246.255 138.303 246.096 133.677C246.009 131.17 244.665 130.869 242.409 132.164C241.136 132.896 239.339 134.742 238.056 133.529C236.559 132.109 235.756 129.171 236.881 127.576C238.793 124.866 236.379 120.311 240.945 118.841C241.852 118.546 240.743 117.083 240.426 116.209C239.47 113.587 237.805 110.938 241.502 108.966C241.929 108.736 242.016 107.841 242.229 107.24C242.775 105.716 241.912 102.493 244.212 103.209C245.736 103.684 248.21 106.207 247.713 109.08C247.489 110.38 246.943 111.571 247.609 112.899C248.724 115.111 250.346 115.63 251.564 113.363C252.935 110.801 253.497 107.704 257.589 109.321C257.703 109.364 258.463 107.791 259.216 106.945C258.687 109.354 260.298 111.249 260.888 113.259C261.778 116.274 265.454 115.111 267.47 114.062C270.217 112.636 272.779 110.812 275.658 109.539C277.346 108.796 277.755 107.081 277.837 105.361C278.209 97.2493 282.322 89.9245 282.229 81.753C283.032 81.8622 283.485 81.8131 283.556 81.9496C284.496 83.8778 284.184 87.4009 287.391 86.7455C290.897 86.0299 292.022 82.0261 292.137 79.366C292.41 73.1937 298.042 68.0374 295.256 61.3789C294.923 60.576 295.573 58.8882 296.316 58.189C300.981 53.7919 301.658 46.9696 306.295 42.436L313.008 53.1146L313.025 53.0272ZM189.775 824.822C188.677 830.716 192.299 836.353 190.726 842.296C190.573 842.875 191.359 843.776 191.949 843.508C194.549 842.307 199.148 840.755 198.531 838.696C197.062 833.791 193.73 829.438 191.075 824.904C190.955 824.696 190.136 824.904 189.655 824.915C192.146 822.79 193.806 823.396 194.669 826.472C195.117 828.061 195.467 829.672 195.942 831.251C196.188 832.076 196.745 832.742 197.723 832.66C198.673 832.584 199.465 831.792 199.23 831.049C198.307 828.121 199.777 824.085 197.149 822.304C193.817 820.043 189.213 822.697 185.4 820.862C185.395 820.862 184.914 821.659 184.777 822.124C183.74 825.696 184.351 828.87 186.673 832.267C188.481 829.449 183.985 825.09 189.781 824.822H189.775ZM233.823 398.217C237.133 402.396 238.749 407.804 243.769 410.764C251.039 415.052 256.9 420.476 256.851 429.926C256.84 431.745 258.119 433.023 260.145 432.81C262.139 432.602 261.986 431.16 262.106 429.532C262.543 423.639 261.827 417.881 260.833 412.097C260.374 409.437 259.134 408.803 256.742 409.366C255.442 409.672 254.268 411.048 252.656 409.972C254.311 406.187 257.458 404.078 260.779 402.243C262.854 401.096 264.608 399.507 263.816 397.207C262.346 392.919 264.728 389.505 265.733 385.791C266.17 384.169 266.65 381.776 268.999 382.164C270.911 382.481 270.774 384.698 271.053 386.272C271.255 387.402 271.282 388.566 271.31 389.718C271.392 393.345 271.353 396.972 271.528 400.594C271.588 401.839 271.73 403.538 273.44 403.609C274.926 403.669 274.898 402.123 275.193 401.041C278.394 389.352 276.073 378.892 268.147 369.732C266.421 367.738 264.345 367.673 263.919 370.562C263.488 373.495 262.75 376.27 261.827 379.04C259.752 385.305 261.532 393.602 252.7 396.3C252.563 396.344 252.443 396.513 252.356 396.65C249.401 401.484 244.884 400.621 240.443 399.856C238.181 399.463 235.953 398.857 233.702 398.354C232.894 396.715 231.61 396.164 229.759 395.972C225.881 395.579 223.69 393.591 224.783 389.309C225.285 387.326 224.93 385.414 224.367 383.486C223.352 380.001 223.701 376.642 225.662 373.534C226.536 372.152 228.044 370.562 225.777 369.464C223.805 368.503 221.451 370.207 221.636 371.704C222.292 376.92 219.047 380.525 217.398 384.819C216.404 387.413 217.152 390.319 219.118 392.673C220.271 394.05 221.511 395.47 222.21 397.087C223.941 401.08 226.722 401.325 230.207 399.796C231.414 399.266 232.615 398.742 233.823 398.217ZM254.464 741.949C249.166 736.804 243.584 734.652 237.089 740.059C236.439 740.6 235.183 740.54 234.205 740.546C231.998 740.562 230.982 742.031 230.212 743.724C228.311 747.919 230.179 750.23 236.291 751.295C235.876 753.136 234.544 753.475 232.927 753.436C228.639 753.333 224.777 754.425 221.549 757.418C220.577 758.32 219.255 759.336 218.141 757.91C217.157 756.648 218.594 755.905 219.419 755.141C220.162 754.447 220.915 753.671 220.085 752.639C219.512 751.923 218.561 751.754 217.884 752.404C215.972 754.234 213.94 756.228 214.497 759.133C215 761.766 217.185 762.094 219.555 761.875C220.484 761.788 221.494 762.088 222.412 762.378C228.579 764.333 231.785 763.405 235.74 758.303C237.067 756.593 238.192 754.698 240.667 754.589C241.65 754.545 243.343 755.031 242.611 755.9C240.235 758.746 242.934 762.149 241.153 764.923C239.328 767.764 238.318 770.828 241.295 773.395C244.643 776.285 248.472 778.339 253.071 776.208C255.273 775.192 257.059 773.778 259.937 774.297C262.335 774.728 261.773 771.997 260.992 771.128C254.601 764.071 256.747 755.261 258.244 747.98C259.309 742.796 257.873 742.643 254.672 741.611C257.682 739.464 259.916 736.427 263.155 734.499C265.427 733.15 265.405 730.959 264.018 728.922C262.193 726.245 261.123 728.616 259.839 729.654C259.342 730.058 258.703 730.298 258.108 730.566C252.165 733.221 251.247 736.072 254.464 741.955V741.949ZM166.501 778.486C166.217 779.409 165.993 780.354 165.643 781.25C165.113 782.588 161.41 780.889 162.819 783.905C163.737 785.866 164.398 788.247 167.194 788.859C171.597 789.82 176.551 789.034 180.053 793.261C178.878 788.422 176.152 784.221 172.061 783.806C167.844 783.38 167.697 780.851 166.473 778.453C168.931 778.524 170.423 777.17 171.559 775.149C172.706 773.111 174.208 772.489 175.655 774.788C179.599 781.042 183.521 775.629 187.17 774.559C190.13 773.69 190.698 770.102 189.442 765.868C186.389 769.506 185.733 769.856 179.337 770.664C177.917 770.844 175.825 772.712 175.18 770.178C174.568 767.769 177.196 766.054 178.758 766.338C184.821 767.441 190.879 759.314 196.822 766.365C196.865 766.42 197.34 766.114 197.624 765.967C197.739 764.568 195.33 765.049 195.762 763.492C197.515 757.08 195.92 750.044 200.399 744.041C204.239 738.89 202.808 737.241 196.674 735.154C192.288 733.663 185.733 734.346 185.209 726.999C185.171 726.486 183.925 725.595 183.324 725.661C177.409 726.311 171.111 724.306 165.632 728.124C162.776 730.118 160.683 729.386 159.427 726.202C158.886 724.825 158.646 723.307 157.958 722.018C157.144 720.477 155.773 720.16 155.161 722.083C153.872 726.131 150.436 728.294 147.804 731.183C141.599 737.995 138.294 745.702 141.287 755.042C141.877 756.883 142.276 759.15 144.652 759.527C147.279 759.942 149.278 758.385 150.229 756.211C153.14 749.525 159.296 748.498 165.277 747.482C168.309 746.969 171.023 746.74 172.913 743.861C174 742.206 175.754 741.114 177.999 742.31C177.802 744.08 174.284 743.932 175.546 746.013C178.021 750.083 176.092 754.108 175.896 758.107C175.612 763.836 173.58 765.814 167.801 766.95C165.884 767.327 163.595 766.857 162.175 768.441C159.624 771.281 156.549 771.626 153.135 770.915C150.589 770.386 149.508 770.336 149.612 773.92C149.683 776.443 151.212 775.526 151.917 776.165C153.741 777.836 155.975 777.76 158.4 777.366C161.11 776.924 164.015 776.52 166.506 778.492L166.501 778.486ZM383.302 648.125C387.6 644.902 388.097 642.089 385.192 636.856C384.159 634.994 382.531 633.295 382.87 630.995C383.575 626.172 384.438 621.415 376.796 624.599C376.665 624.654 376.436 624.604 376.321 624.517C371.476 620.732 370.553 626.473 368.614 628.253C367.139 629.608 370.247 631.547 371.192 633.284C371.733 634.278 372.65 635.065 373.388 635.955C374.786 637.648 374.633 638.997 372.399 639.664C370.509 640.226 368.532 640.516 366.664 641.133C363.583 642.149 362.365 640.969 362.43 637.921C362.523 633.852 360.639 631.438 356.537 630.7C354.275 630.296 352.085 629.111 352.631 626.483C353.953 620.147 350.277 615.199 348.218 609.884C347.568 608.207 345.23 606.301 342.461 607.388C339.451 608.573 340.653 610.687 341.128 612.768C341.838 615.876 341.155 618.64 338.167 620.224C335.092 621.857 334.693 622.977 337.211 626.068C341.275 631.061 342.619 637.971 347.874 642.318C348.158 642.553 348.076 643.258 348.119 643.75C348.677 649.408 350.621 655.204 346.448 660.409C345.743 661.283 346.503 662.332 346.432 663.266C346.06 668.188 350.545 669.881 352.669 673.136C357.755 680.931 357.323 690.774 361.502 698.994C361.999 699.978 361.677 701.534 362.895 701.988C364.408 702.55 364.681 700.873 365.342 700.076C366.757 698.366 368.614 697.58 370.564 696.602C374.573 694.603 380.057 693.265 380.778 688.201C381.434 683.58 386.218 678.555 380.696 673.803C380.199 673.371 380.461 671.902 380.576 670.935C381.778 660.89 378.036 652.107 373.153 643.831C371.323 640.734 372.634 640.532 374.901 640.226C378.752 639.713 381.685 642.515 383.307 648.119L383.302 648.125ZM210.663 581.748C208.691 581.748 206.714 581.852 204.753 581.721C202.617 581.579 200.498 580.989 198.373 580.989C192.998 580.989 191.277 584.173 194.008 588.816C197.619 594.956 207.009 598.686 213.705 596.534C215.005 596.119 216.218 595.819 217.556 596.146C219.042 596.512 220.396 596.693 221.505 595.125C222.762 593.344 221.74 591.94 220.997 590.542C220.096 588.843 218.381 587.418 220.369 585.326C222.166 583.436 223.444 584.736 225.105 585.588C227.11 586.615 229.278 585.817 228.595 583.419C227.536 579.711 228.273 577.105 231.037 574.582C232.277 573.451 231.769 571.801 230.534 570.632C229.387 569.551 228.846 567.595 226.88 567.71C225.99 567.759 225.82 568.83 225.569 569.622C224.384 573.391 221.718 574.123 218.386 571.605C214.601 568.748 213.612 562.865 216.223 557.217C213.825 557.867 212.372 557.173 211.575 554.863C211.045 553.323 209.565 552.809 208.817 554.759C206.959 559.582 203.322 562.324 198.755 564.22C197.51 564.739 196.483 565.847 196.707 567.333C197.1 569.933 194.844 569.103 193.774 569.764C191.873 570.938 192.124 568.988 191.66 568.196C188.89 563.444 187.295 562.936 182.5 565.481C181.544 565.989 180.053 565.137 179.528 566.656C182.467 571.523 184.979 576.985 192.364 575.046C192.583 574.986 192.987 575.696 193.331 576.023C195.057 577.673 197.198 579.039 199.438 578.045C202.24 576.799 199.192 574.418 199.564 572.44C205.539 572.921 204.878 581.306 210.668 581.748H210.663ZM219.987 828.831C222.652 827.198 224.269 823.615 227.159 826.728C229.879 829.656 232.31 824.959 234.871 826.75C235.964 827.515 237.226 828.383 238.105 826.51C238.881 824.855 238.22 823.659 236.641 822.877C233.386 821.272 233.227 818.961 235.095 816.154C235.428 815.651 235.849 814.957 235.745 814.449C234.576 808.561 236.363 804.503 242.491 802.809C243.365 802.569 244.774 802.056 243.644 800.313C239.099 793.305 238.16 793.141 231.627 798.844C230.868 799.51 230.015 800.564 229.141 800.198C226.967 799.292 226.831 803.787 224.438 801.782C223.237 800.777 222.144 798.805 220.353 799.838C218.452 800.936 218.665 803.23 218.578 805.224C218.403 809.277 218.971 813.39 217.72 818.027C216.185 815.012 214.809 812.674 212.116 811.5C210.827 810.937 210.319 810.101 211.63 808.872C212.919 807.665 213.012 806.136 211.717 804.967C210.635 803.989 209.128 804.393 207.97 804.994C206.511 805.759 206.217 806.971 206.643 808.73C207.478 812.182 207.293 815.968 205.916 819.027C204.217 822.796 205.102 825.046 208.303 827.635C208.92 823.375 211.236 822.238 214.989 822.965C218.086 823.566 220.249 824.696 219.992 828.831H219.987ZM329.324 728.179C326.981 730.358 323.621 728.966 320.983 730.369C320.022 730.877 318.793 731.79 318.613 732.702C317.766 737.028 316.963 741.403 317.739 745.855C317.842 746.461 317.848 747.28 318.804 747.138C324.293 746.324 324.91 751.18 326.729 754.267C329.324 758.68 332.148 762.886 335.573 766.655C336.977 768.195 339.14 769.004 339.675 771.363C340.09 773.199 341.308 774.269 343.269 773.92C344.864 773.63 346.628 773.373 347.24 771.478C347.775 769.807 346.951 768.638 346.153 767.092C344.176 763.236 338.823 759.86 343.34 754.387C343.815 753.813 343.433 751.601 342.783 751.191C340.008 749.438 338.757 746.472 336.643 744.26C333.634 741.114 328.636 739.224 332.039 733.226C333.093 731.374 332.197 729.02 329.324 728.174V728.179ZM266.345 806.524C266.093 806.464 265.837 806.403 265.585 806.349C265.864 805.442 266.164 804.541 266.41 803.623C266.694 802.547 267.546 801.198 266.235 800.477C264.384 799.461 264.127 801.384 263.575 802.432C262.729 804.044 261.434 804.967 259.686 805.142C255.617 805.546 255.071 808.211 255.415 811.532C255.54 812.74 256.611 814.417 254.699 814.919C248.144 816.634 250.166 822.408 249.008 826.652C248.751 827.586 249.068 828.766 250.237 829.055C251.411 829.345 252.006 828.383 252.476 827.493C252.782 826.914 252.935 826.259 253.17 825.641C253.672 824.325 253.552 822.162 255.458 822.32C257.589 822.501 257.397 824.751 257.501 826.291C257.703 829.203 258.971 830.585 261.942 831.229C268.153 832.573 272.708 829.929 274.336 823.571C275.554 818.814 275.925 813.87 276.816 809.151C277.843 803.683 274.008 803.088 271.621 801.651C268.382 799.701 268.617 803.924 267.262 805.382C266.929 805.737 266.65 806.147 266.35 806.529L266.345 806.524ZM227.956 409.786C228.355 410.999 228.754 412.064 229.054 413.162C230.075 416.865 227.781 418.794 224.941 420.044C222.33 421.192 216.01 419.023 215.47 416.92C214.038 411.321 211.766 406.252 207.822 401.91C206.779 400.757 206.359 399.337 204.436 400.397C202.721 401.342 201.896 402.658 202.874 404.433C203.737 405.996 205.009 407.328 206.025 408.814C207.784 411.392 210.062 414.009 209.046 417.335C208.112 420.383 207.893 422.705 210.106 425.507C212.569 428.631 215.803 426.402 217.72 427.287C223.636 430.013 225.788 426.714 229.622 423.36C233.954 419.569 234.096 415.249 234.62 410.622C234.849 408.639 233.675 408.017 231.741 408.776C230.578 409.235 229.305 409.431 227.951 409.781L227.956 409.786ZM296.622 775.875C295.933 777.716 295.808 778.989 295.12 779.731C293.186 781.818 291.236 783.424 296.278 783.479C298.435 783.5 298.55 785.849 298.282 787.373C297.578 791.393 297.19 795.73 293.284 798.243C289.264 800.827 287.899 804.186 289.362 808.277C297.13 807.649 297.72 796.937 306.006 796.828C306.284 796.828 306.618 795.736 306.814 795.119C308.355 790.268 310.004 785.45 311.326 780.545C311.96 778.191 311.129 775.706 309.125 774.368C306.672 772.734 305.525 775.411 304.547 776.815C301.86 780.676 299.495 780.327 296.627 775.875H296.622ZM335.474 333.299C333.535 337.199 333.628 339.28 335.349 341.23C342.674 349.516 342.067 353.149 332.64 358.649C329.848 360.277 326.861 361.719 324.96 364.581C323.621 366.597 324.146 368.366 325.533 369.972C326.904 371.556 329.122 372.026 330.411 370.682C335.567 365.297 344.788 363.155 344.525 353.313C344.503 352.499 345.356 351.013 345.962 350.926C350.933 350.21 348.933 346.01 349.873 343.344C350.747 340.859 349.376 339.815 347.076 340.302C341.805 341.416 337.009 341.782 335.474 333.299ZM177.993 259.324C183.942 260.428 188.361 257.303 192.485 253.807C193.391 253.043 193.883 252.939 194.904 253.021C198.985 253.343 203.3 254.982 206.544 250.612C207.364 249.514 208.969 250.235 210.182 250.929C211.22 251.524 211.908 253.496 213.394 252.382C214.552 251.519 213.738 249.896 213.743 248.618C213.749 247.307 213.574 245.991 213.394 244.685C212.372 237.366 210.198 236.514 204.135 241.091C203.223 241.78 202.491 242.697 201.65 243.484C199.241 245.729 196.936 248.383 193.823 249.367C187.678 251.311 183.193 255.73 177.988 259.33L177.993 259.324ZM325.992 566.284C326.052 567.492 326.303 568.644 327.642 569.015C329.051 569.409 330.28 568.824 331.192 567.803C335.07 563.45 339.489 560.232 345.672 560.254C346.333 560.254 347.174 559.528 347.622 558.91C348.879 557.179 350.321 556.654 352.298 557.616C353.582 558.239 354.849 558.397 355.696 556.873C357.618 553.399 352.888 552.416 352.943 549.575C352.964 548.543 352.052 548.068 351.282 548.915C347.917 552.602 339.702 548.478 339.041 556.523C339.014 556.829 338.309 557.152 337.867 557.337C334.306 558.85 332.306 562.931 327.92 563.215C326.473 563.307 326.036 564.87 325.997 566.284H325.992ZM221.789 244.303C222.456 245.396 223.565 245.379 224.744 245.325C225.842 245.27 227.312 244.702 227.869 245.975C228.562 247.564 226.929 248.263 225.957 248.995C224.138 250.361 221.86 251.114 220.495 253.097C219.85 254.037 218.96 255.02 219.774 256.2C220.478 257.221 221.511 256.686 222.456 256.396C225.591 255.441 228.726 254.468 231.889 253.616C234.598 252.884 235.456 250.929 235.521 248.443C235.592 245.658 235.15 240.933 233.648 240.977C230.726 241.064 226.197 235.258 224.406 242.413C224.111 243.588 222.002 242.528 221.8 244.309L221.789 244.303ZM209.969 711.568C214.186 716.763 218.015 721.548 225.285 717.795C226.083 717.386 227.23 717.632 228.218 717.621C230.376 717.599 232.348 717.134 232.364 714.513C232.386 711.612 230.097 711.339 227.891 711.039C224.313 710.547 220.331 712.486 217.163 709.252C216.955 709.039 215.786 709.4 215.399 709.804C213.995 711.268 212.088 711.355 209.969 711.563V711.568ZM300.565 117.541C298.004 115.286 298.178 112.707 298.659 109.752C299.424 105.071 303.04 100.685 300.281 95.5615C300.063 95.1573 300.423 93.9337 300.795 93.7863C305.072 92.0766 304.946 87.3627 307.104 84.2438C309.425 80.89 311.331 76.7278 311.632 71.921C309.141 73.2046 309.081 75.3622 308.3 77.1156C306.967 80.0925 306.022 83.2715 302.723 84.9648C297.496 87.6522 296.425 92.9833 297.195 97.7081C297.894 102.007 297.594 105.71 296.496 109.73C295.551 113.21 295.83 116.602 300.565 117.541ZM303.531 734.045C303.029 733.199 302.128 733.363 301.357 733.166C298.615 732.467 296.228 734.242 293.623 734.264C290.985 734.291 286.697 735.548 289.87 730.096C290.291 729.37 290.16 728.086 289.838 727.223C289.406 726.049 288.778 724.487 287.188 724.76C285.626 725.027 286.2 726.584 286.178 727.649C286.134 729.949 286.058 732.265 286.211 734.559C286.473 738.503 291.17 743.02 293.994 741.725C297.731 740.01 302.543 739.295 303.526 734.04L303.531 734.045ZM282.289 216.5C279.35 216.151 280.262 209.847 276.035 212.098C272.992 213.72 270.152 213.01 267.033 212.114C261.795 210.612 256.289 209.072 251.924 215.151C254.044 214.955 255.813 214.567 257.561 214.66C263.116 214.955 269.25 213.3 273.298 219.062C274.074 220.166 275.155 220.34 276.33 219.712C278.323 218.653 280.301 217.571 282.289 216.495V216.5ZM315.521 752.125C313.533 755.55 314.259 760.242 310.299 762.465C310.081 762.591 310.02 763.547 310.25 763.836C312.003 766.092 312.331 768.528 311.752 771.287C311.484 772.576 312.511 773.324 313.735 773.739C317.46 774.996 319.487 773.286 318.908 769.331C318.427 766.07 315.406 762.864 316.739 759.893C318.181 756.681 317.072 754.742 315.526 752.125H315.521ZM173.061 757.566C173.279 756.244 172.826 755.55 172.072 755.13C170.335 754.174 168.254 754.026 166.943 755.337C164.299 757.981 161.055 758.806 157.636 759.488C156.144 759.783 154.883 760.586 153.839 761.701C152.823 762.782 151.447 763.918 152.616 765.513C153.752 767.065 155.385 766.442 156.587 765.524C160.088 762.831 163.955 761.351 168.38 760.952C170.532 760.756 172.422 759.543 173.061 757.566ZM296.01 876.347C295.546 872.999 295.202 869.88 294.661 866.794C294.317 864.822 292.842 864.145 290.957 864.379C289.182 864.603 288.396 865.614 288.565 867.449C288.712 869.071 289.035 870.967 287.609 872.065C283.277 875.413 287.5 875.648 289.237 876.232C290.356 876.609 291.378 876.746 292.088 877.795C292.749 878.772 293.557 879.772 294.907 879.144C296.179 878.548 296.021 877.254 296.004 876.342L296.01 876.347ZM91.9251 778.24C90.21 784.271 91.8541 790.192 86.6432 793.474C86.2772 793.704 86.5721 795.02 86.6049 795.829C86.807 800.963 91.4827 800.876 94.5907 802.574C95.6066 803.132 97.0432 803.345 97.4365 801.782C97.9062 799.909 96.6718 799.488 95.0932 799.761C92.3239 800.242 90.9419 798.205 89.4016 796.56C89.0465 796.178 88.9482 795.293 89.1121 794.747C89.3415 793.977 90.0625 793.988 90.707 794.403C94.7709 797.047 93.9625 792.977 93.8751 791.672C93.6129 787.668 92.7718 783.697 91.9306 778.246L91.9251 778.24ZM132.537 784.806C135.366 784.216 138.529 783.905 140.916 781.616C141.768 780.797 142.243 779.715 141.779 778.492C141.446 777.618 140.632 777.202 139.807 777.35C136.764 777.896 133.684 778.377 130.74 779.273C129.167 779.753 127.905 781.206 128.582 783.123C129.172 784.789 130.8 784.833 132.531 784.8L132.537 784.806ZM138.387 873.469C140.364 875.069 142.642 874.943 144.422 874.173C146.383 873.327 144.859 871.267 144.586 869.743C144.33 868.279 144.095 866.805 143.707 865.379C142.336 860.387 144.319 856.623 149.306 854.952C150.398 854.586 151.573 854.455 152.649 854.061C153.615 853.706 154.375 853.013 154.249 851.833C154.151 850.931 153.479 850.467 152.736 850.03C150.36 848.637 146.159 850.724 145.406 846.212C145.406 846.196 145.056 846.174 144.947 846.256C143.98 846.982 142.707 848.091 143.172 845.606C143.472 844 142.489 840.717 144.592 841.039C150.862 841.995 148.492 838.155 148.333 835.381C148.224 833.551 148.295 831.743 149.355 830.131C149.814 829.432 150.245 828.799 149.464 827.952C148.41 826.805 141.167 826.488 139.911 827.974C138.316 829.858 138.185 831.967 139.927 834.233C143.117 838.374 143.019 841.984 139.201 845.606C136.3 848.353 132.996 847.823 129.221 846.097C124.562 843.973 121.399 840.368 117.931 836.757C115.664 841.416 117.406 844.317 120.973 846.715C126.501 850.423 126.987 853.013 122.355 858.213C118.799 862.2 117.669 865.51 122.317 869.426C124.354 871.142 123.89 873.895 122.759 875.883C121.437 878.204 119.116 877.308 116.98 876.675C113.403 875.615 110.988 873.43 109.453 870.049C108.727 868.454 107.886 866.455 105.57 866.941C101.118 867.875 99.2991 873.441 102.325 876.746C104.297 878.893 105.805 880.946 102.718 883.333C101.287 884.437 101.418 885.78 101.861 887.332C103.041 891.456 106.258 894.443 107.908 898.311C108.164 898.912 109.246 899.48 109.961 899.501C115.533 899.671 118.286 904.439 118.215 908.012C118.095 914.036 119.269 917.177 125.534 917.467C126.08 917.494 126.572 918.248 127.135 918.581C128.2 919.209 129.494 920.64 130.39 918.712C131.089 917.204 132.171 915.216 129.877 913.922C127.872 912.791 125.813 911.742 123.721 910.77C122.492 910.202 120.869 909.705 121.099 908.225C121.394 906.307 123.207 907.329 124.354 907.318C125.998 907.301 127.643 907.564 129.292 907.689C130.324 907.771 131.406 907.689 131.745 906.531C132.132 905.209 130.903 904.898 130.073 904.472C127.719 903.276 125.261 902.282 122.983 900.954C121.448 900.059 120.7 898.207 121.23 896.661C121.88 894.771 123.453 896.432 124.627 896.454C126.004 896.481 127.561 897.043 128.582 895.454C119.056 889.713 117.789 884.939 124.474 880.22C124.174 884.715 127.091 887.665 133.209 888.806C132.051 886.458 130.816 884.333 129.959 882.061C129.505 880.864 129.614 879.22 131.177 878.701C132.706 878.188 133.05 879.592 133.465 880.684C133.7 881.307 133.995 881.897 134.825 881.886C138.452 876.56 129.407 872.769 133.028 867.367C134.689 870.399 135.694 871.273 138.392 873.469H138.387ZM139.086 322.407C136.295 321.921 135.071 319.447 138.234 317.06C139.108 316.399 140.55 315.634 139.698 314.345C138.693 312.827 136.988 313.542 135.645 314.017C134.946 314.263 134.443 315.088 133.88 315.672C131.155 318.524 127.817 317.491 124.567 317.213C121.159 316.923 123.131 314.509 122.623 312.99C122 311.139 120.192 309.872 117.996 309.877C114.003 309.893 109.262 314.487 109.524 318.589C109.716 321.61 108.874 323.227 105.974 324.057C103.603 324.734 101.976 326.324 101.877 329C101.719 333.294 106.313 335.604 106.4 340.089C106.427 341.498 110.185 341.225 112.261 341.536C120.826 342.814 125.649 350.811 122.055 358.524C120.285 362.325 122.186 364.073 125.004 364.761C130.92 366.198 137.595 365.979 139.867 374.014C138.228 370.043 140.26 365.848 137.622 362.462C135.415 359.621 134.913 356.519 136.737 353.225C137.518 351.821 137.775 350.33 136.344 349.194C133.039 346.578 134.432 344.125 136.404 341.558C137.502 340.132 139.07 338.641 139.266 337.035C139.883 332.086 142.27 329.639 147.623 330.355C145.307 326.63 143.767 323.221 139.08 322.407H139.086ZM292.012 414.664C292.208 419.018 290.783 423.131 290.302 427.38C290.214 428.156 290.165 429.237 289.182 429.347C287.833 429.494 288.494 427.681 287.664 427.358C286.052 431.684 286.735 435.956 288.991 439.719C290.99 443.062 284.261 448.563 291.782 450.327C292.028 450.387 292.159 451.556 292.099 452.179C291.684 456.226 290.449 459.973 288.183 463.693C286.063 461.24 286.522 459.039 287.112 456.761C287.456 455.434 288.609 453.55 286.675 452.9C284.938 452.321 282.999 453.293 282.043 454.981C280.721 457.319 281 459.766 282.507 461.989C283.245 463.07 284.321 463.944 284.949 465.075C286.101 467.162 285.998 469.833 284.157 470.892C282.152 472.045 281.977 469.166 281.12 467.975C280.213 466.714 279.312 465.479 277.569 465.889C275.772 466.309 275.352 467.877 275.538 469.396C276.248 475.257 276.493 481.096 275.073 487.088C277.575 483.428 280.027 480.844 284.468 479.157C287.631 477.949 286.069 471.209 289.138 467.888C289.581 467.407 289.821 466.736 290.28 466.282C294.355 462.246 295.262 457.248 295.081 451.747C294.917 446.662 294.273 441.544 295.595 436.486C297.96 427.44 298.009 418.608 292.749 409.956C291.602 411.523 291.962 413.184 292.028 414.659L292.012 414.664ZM334.289 409.404C332.219 408.153 329.215 409.044 328.335 410.256C326.189 413.206 323.064 415.025 320.885 417.772C318.449 420.847 319.978 428.757 323.174 431.122C326.697 433.727 332.825 431.979 335.185 428.281C337.79 424.201 335.13 420.197 335.802 416.21C335.584 413.867 337.015 411.048 334.295 409.404H334.289ZM193.484 176.921C193.44 180.035 193.61 183.148 193.675 186.262C193.703 187.436 193.719 188.812 192.288 189.042C190.78 189.282 190.589 187.736 190.136 186.753C189.54 185.459 190.332 184.18 190.365 182.924C190.469 178.445 191.911 173.78 189.125 169.154C188.421 171.606 188.361 174.021 187.17 175.561C183.346 180.499 188.027 186.649 184.559 191.505C184.51 191.576 184.87 192.084 185.132 192.21C188.12 193.652 188.574 196.711 189.327 199.436C191.436 199.043 191.589 195.138 193.708 196.918C196.658 199.398 194.178 202.572 193.167 205.614C202.185 202.075 200.623 186.742 196.619 171.792C195.188 173.922 193.511 174.955 193.484 176.927V176.921ZM34.0147 666.248C32.4033 663.14 29.2134 661.229 26.3239 659.519C22.8936 657.487 19.8348 660.508 18.1633 666.041C17.1474 669.406 18.4528 671.011 20.736 673.071C22.981 675.097 24.7071 674.748 26.8264 673.366C28.2957 672.41 30.0437 671.716 31.1033 673.628C32.0756 675.381 33.4412 677.43 31.3 679.423C30.5844 680.09 29.6395 680.658 29.2353 681.483C28.2466 683.504 29.8689 684.869 30.9777 686.147C31.7479 687.043 33.3046 686.497 33.3647 685.574C33.605 681.87 35.9265 678.981 37.2702 675.447C36.2214 672.377 35.5059 669.116 34.0201 666.248H34.0147ZM281.715 391.679C281.191 397.841 276.799 402.838 276.614 409.109C276.57 410.524 276.406 413.446 274.281 412.545C269.163 410.365 270.195 414.315 270.01 416.51C269.507 422.393 271.02 428.38 269.037 434.224C268.677 435.284 269.376 437.349 270.49 436.546C273.003 434.743 275.264 436.245 277.602 436.071C279.749 435.912 282.272 434.967 282.267 432.498C282.267 429.871 279.711 431.373 278.307 431.127C274.003 430.379 271.637 427.823 273.669 424.513C276.253 420.301 277.056 415.74 278.585 411.305C279.093 409.83 280.372 408.645 281.764 408.361C286.538 407.378 285.441 404.565 283.807 401.877C282.939 400.446 282.218 399.244 283.425 397.917C285.888 395.202 284.523 392.466 283.796 389.188C282.89 390.232 281.775 390.909 281.715 391.674V391.679ZM309.753 457.259C309.015 464.387 306.552 470.761 305.001 477.502C303.783 482.789 302.996 488.382 306.022 493.686C306.934 488.235 307.207 482.696 309.31 477.534C311.249 472.777 312.145 467.773 312.446 462.666C312.56 460.743 311.55 457.805 312.468 457.046C317.28 453.074 313.992 448.169 314.248 443.554C311.364 447.656 310.195 453.036 309.753 457.259ZM404.44 480.965C401.152 481.068 397.569 484.646 398.175 487.787C398.689 490.474 398.607 494.068 402.474 494.598C404.806 494.915 407.679 489.83 407.57 486.039C407.483 483.111 406.128 480.91 404.44 480.965ZM363.943 234.69C363.943 234.646 363.949 234.597 363.943 234.553C363.938 234.553 363.943 234.69 363.943 234.69Z" fill="white"/>
</mask>
<g mask="url(#mask0_53_69349)">
<path d="M6.93227 -9.3291H5.16797V960.438H6.93227V-9.3291Z" fill="#4ED775"/>
<path d="M14.5905 -9.3291H12.8262V960.438H14.5905V-9.3291Z" fill="#4ED775"/>
<path d="M22.2526 -9.3291H20.4883V960.438H22.2526V-9.3291Z" fill="#4ED775"/>
<path d="M29.9127 -9.3291H28.1484V960.438H29.9127V-9.3291Z" fill="#4ED775"/>
<path d="M37.5748 -9.3291H35.8105V960.438H37.5748V-9.3291Z" fill="#4ED775"/>
<path d="M45.233 -9.3291H43.4688V960.438H45.233V-9.3291Z" fill="#4ED775"/>
<path d="M52.8971 -9.3291H51.1328V960.438H52.8971V-9.3291Z" fill="#4ED775"/>
<path d="M60.5553 -9.3291H58.791V960.438H60.5553V-9.3291Z" fill="#4ED775"/>
<path d="M68.2174 -9.3291H66.4531V960.438H68.2174V-9.3291Z" fill="#4ED775"/>
<path d="M75.8776 -9.3291H74.1133V960.438H75.8776V-9.3291Z" fill="#4ED775"/>
<path d="M83.5397 -9.3291H81.7754V960.438H83.5397V-9.3291Z" fill="#4ED775"/>
<path d="M91.2018 -9.3291H89.4375V960.438H91.2018V-9.3291Z" fill="#4ED775"/>
<path d="M98.862 -9.3291H97.0977V960.438H98.862V-9.3291Z" fill="#4ED775"/>
<path d="M106.526 -9.3291H104.762V960.438H106.526V-9.3291Z" fill="#4ED775"/>
<path d="M114.182 -9.3291H112.418V960.438H114.182V-9.3291Z" fill="#4ED775"/>
<path d="M121.846 -9.3291H120.082V960.438H121.846V-9.3291Z" fill="#4ED775"/>
<path d="M129.505 -9.3291H127.74V960.438H129.505V-9.3291Z" fill="#4ED775"/>
<path d="M137.167 -9.3291H135.402V960.438H137.167V-9.3291Z" fill="#4ED775"/>
<path d="M144.827 -9.3291H143.062V960.438H144.827V-9.3291Z" fill="#4ED775"/>
<path d="M152.489 -9.3291H150.725V960.438H152.489V-9.3291Z" fill="#4ED775"/>
<path d="M160.147 -9.3291H158.383V960.438H160.147V-9.3291Z" fill="#4ED775"/>
<path d="M167.811 -9.3291H166.047V960.438H167.811V-9.3291Z" fill="#4ED775"/>
<path d="M175.469 -9.3291H173.705V960.438H175.469V-9.3291Z" fill="#4ED775"/>
<path d="M183.131 -9.3291H181.367V960.438H183.131V-9.3291Z" fill="#4ED775"/>
<path d="M190.792 -9.3291H189.027V960.438H190.792V-9.3291Z" fill="#4ED775"/>
<path d="M198.454 -9.3291H196.689V960.438H198.454V-9.3291Z" fill="#4ED775"/>
<path d="M206.112 -9.3291H204.348V960.438H206.112V-9.3291Z" fill="#4ED775"/>
<path d="M213.774 -9.3291H212.01V960.438H213.774V-9.3291Z" fill="#4ED775"/>
<path d="M221.434 -9.3291H219.67V960.438H221.434V-9.3291Z" fill="#4ED775"/>
<path d="M229.096 -9.3291H227.332V960.438H229.096V-9.3291Z" fill="#4ED775"/>
<path d="M236.755 -9.3291H234.99V960.438H236.755V-9.3291Z" fill="#4ED775"/>
<path d="M244.419 -9.3291H242.654V960.438H244.419V-9.3291Z" fill="#4ED775"/>
<path d="M252.077 -9.3291H250.312V960.438H252.077V-9.3291Z" fill="#4ED775"/>
<path d="M259.739 -9.3291H257.975V960.438H259.739V-9.3291Z" fill="#4ED775"/>
<path d="M267.399 -9.3291H265.635V960.438H267.399V-9.3291Z" fill="#4ED775"/>
<path d="M275.061 -9.3291H273.297V960.438H275.061V-9.3291Z" fill="#4ED775"/>
<path d="M282.717 -9.3291H280.953V960.438H282.717V-9.3291Z" fill="#4ED775"/>
<path d="M290.383 -9.3291H288.619V960.438H290.383V-9.3291Z" fill="#4ED775"/>
<path d="M298.042 -9.3291H296.277V960.438H298.042V-9.3291Z" fill="#4ED775"/>
<path d="M305.704 -9.3291H303.939V960.438H305.704V-9.3291Z" fill="#4ED775"/>
<path d="M313.364 -9.3291H311.6V960.438H313.364V-9.3291Z" fill="#4ED775"/>
<path d="M321.026 -9.3291H319.262V960.438H321.026V-9.3291Z" fill="#4ED775"/>
<path d="M328.682 -9.3291H326.918V960.438H328.682V-9.3291Z" fill="#4ED775"/>
<path d="M336.348 -9.3291H334.584V960.438H336.348V-9.3291Z" fill="#4ED775"/>
<path d="M344.006 -9.3291H342.242V960.438H344.006V-9.3291Z" fill="#4ED775"/>
<path d="M351.669 -9.3291H349.904V960.438H351.669V-9.3291Z" fill="#4ED775"/>
<path d="M359.327 -9.3291H357.562V960.438H359.327V-9.3291Z" fill="#4ED775"/>
<path d="M366.991 -9.3291H365.227V960.438H366.991V-9.3291Z" fill="#4ED775"/>
<path d="M374.647 -9.3291H372.883V960.438H374.647V-9.3291Z" fill="#4ED775"/>
<path d="M382.313 -9.3291H380.549V960.438H382.313V-9.3291Z" fill="#4ED775"/>
<path d="M389.971 -9.3291H388.207V960.438H389.971V-9.3291Z" fill="#4ED775"/>
<path d="M397.633 -9.3291H395.869V960.438H397.633V-9.3291Z" fill="#4ED775"/>
<path d="M405.292 -9.3291H403.527V960.438H405.292V-9.3291Z" fill="#4ED775"/>
<path d="M412.956 -9.3291H411.191V960.438H412.956V-9.3291Z" fill="#4ED775"/>
<path d="M420.612 -9.3291H418.848V960.438H420.612V-9.3291Z" fill="#4ED775"/>
<path d="M-48.5761 18.5122L-50.3379 18.6055L0.83627 985.381L2.5981 985.288L-48.5761 18.5122Z" fill="#4ED775"/>
<path d="M-40.9354 17.6118L-42.6973 17.7051L8.4769 984.481L10.2387 984.387L-40.9354 17.6118Z" fill="#4ED775"/>
<path d="M-33.2968 16.7183L-35.0586 16.8115L16.1156 983.587L17.8774 983.494L-33.2968 16.7183Z" fill="#4ED775"/>
<path d="M-25.664 15.8247L-27.4258 15.918L23.7484 982.693L25.5102 982.6L-25.664 15.8247Z" fill="#4ED775"/>
<path d="M-18.0233 14.9312L-19.7852 15.0244L31.389 981.8L33.1508 981.707L-18.0233 14.9312Z" fill="#4ED775"/>
<path d="M-10.3925 14.0366L-12.1543 14.1299L39.0199 980.905L40.7817 980.812L-10.3925 14.0366Z" fill="#4ED775"/>
<path d="M-2.75184 13.1372L-4.51367 13.2305L46.6605 980.006L48.4223 979.913L-2.75184 13.1372Z" fill="#4ED775"/>
<path d="M4.89074 12.2427L3.12891 12.3359L54.3031 979.111L56.0649 979.018L4.89074 12.2427Z" fill="#4ED775"/>
<path d="M12.5235 11.3491L10.7617 11.4424L61.9359 978.218L63.6977 978.125L12.5235 11.3491Z" fill="#4ED775"/>
<path d="M20.1603 10.4546L18.3984 10.5479L69.5726 977.323L71.3344 977.23L20.1603 10.4546Z" fill="#4ED775"/>
<path d="M27.8009 9.56104L26.0391 9.6543L77.2132 976.43L78.9751 976.336L27.8009 9.56104Z" fill="#4ED775"/>
<path d="M35.4317 8.66065L33.6699 8.75391L84.8441 975.529L86.6059 975.436L35.4317 8.66065Z" fill="#4ED775"/>
<path d="M43.0763 7.76807L41.3145 7.86133L92.4886 974.637L94.2504 974.544L43.0763 7.76807Z" fill="#4ED775"/>
<path d="M50.7091 6.87354L48.9473 6.9668L100.121 973.742L101.883 973.649L50.7091 6.87354Z" fill="#4ED775"/>
<path d="M58.3478 5.97998L56.5859 6.07324L107.76 972.849L109.522 972.755L58.3478 5.97998Z" fill="#4ED775"/>
<path d="M65.9786 5.08545L64.2168 5.17871L115.391 971.954L117.153 971.861L65.9786 5.08545Z" fill="#4ED775"/>
<path d="M73.6192 4.18604L71.8574 4.2793L123.032 971.055L124.793 970.961L73.6192 4.18604Z" fill="#4ED775"/>
<path d="M81.2618 3.29639L79.5 3.38965L130.674 970.165L132.436 970.072L81.2618 3.29639Z" fill="#4ED775"/>
<path d="M88.8966 2.39795L87.1348 2.49121L138.309 969.267L140.071 969.173L88.8966 2.39795Z" fill="#4ED775"/>
<path d="M96.5333 1.50342L94.7715 1.59668L145.946 968.372L147.707 968.279L96.5333 1.50342Z" fill="#4ED775"/>
<path d="M104.166 0.608889L102.404 0.702148L153.578 967.478L155.34 967.384L104.166 0.608889Z" fill="#4ED775"/>
<path d="M111.805 -0.289547L110.043 -0.196289L161.217 966.579L162.979 966.486L111.805 -0.289547Z" fill="#4ED775"/>
<path d="M119.443 -1.1792L117.682 -1.08594L168.856 965.689L170.618 965.596L119.443 -1.1792Z" fill="#4ED775"/>
<path d="M127.08 -2.07861L125.318 -1.98535L176.493 964.79L178.254 964.697L127.08 -2.07861Z" fill="#4ED775"/>
<path d="M134.721 -2.97217L132.959 -2.87891L184.133 963.896L185.895 963.803L134.721 -2.97217Z" fill="#4ED775"/>
<path d="M142.352 -3.86572L140.59 -3.77246L191.764 963.003L193.526 962.91L142.352 -3.86572Z" fill="#4ED775"/>
<path d="M149.99 -4.76025L148.229 -4.66699L199.403 962.108L201.165 962.015L149.99 -4.76025Z" fill="#4ED775"/>
<path d="M157.629 -5.65381L155.867 -5.56055L207.041 961.215L208.803 961.122L157.629 -5.65381Z" fill="#4ED775"/>
<path d="M165.268 -6.5542L163.506 -6.46094L214.68 960.314L216.442 960.221L165.268 -6.5542Z" fill="#4ED775"/>
<path d="M172.906 -7.44775L171.145 -7.35449L222.319 959.421L224.081 959.328L172.906 -7.44775Z" fill="#4ED775"/>
<path d="M180.539 -8.34228L178.777 -8.24902L229.952 958.526L231.713 958.433L180.539 -8.34228Z" fill="#4ED775"/>
<path d="M188.176 -9.23584L186.414 -9.14258L237.588 957.633L239.35 957.54L188.176 -9.23584Z" fill="#4ED775"/>
<path d="M195.817 -10.1304L194.055 -10.0371L245.229 956.738L246.991 956.645L195.817 -10.1304Z" fill="#4ED775"/>
<path d="M203.451 -11.0298L201.689 -10.9365L252.864 955.839L254.625 955.746L203.451 -11.0298Z" fill="#4ED775"/>
<path d="M211.092 -11.9243L209.33 -11.8311L260.504 954.944L262.266 954.851L211.092 -11.9243Z" fill="#4ED775"/>
<path d="M218.725 -12.8179L216.963 -12.7246L268.137 954.051L269.899 953.957L218.725 -12.8179Z" fill="#4ED775"/>
<path d="M226.363 -13.7124L224.602 -13.6191L275.776 953.156L277.538 953.063L226.363 -13.7124Z" fill="#4ED775"/>
<path d="M234 -14.605L232.238 -14.5117L283.412 952.264L285.174 952.17L234 -14.605Z" fill="#4ED775"/>
<path d="M241.635 -15.5054L239.873 -15.4121L291.047 951.363L292.809 951.27L241.635 -15.5054Z" fill="#4ED775"/>
<path d="M249.277 -16.3989L247.516 -16.3057L298.69 950.47L300.452 950.377L249.277 -16.3989Z" fill="#4ED775"/>
<path d="M256.912 -17.2876L255.15 -17.1943L306.325 949.581L308.086 949.488L256.912 -17.2876Z" fill="#4ED775"/>
<path d="M264.547 -18.188L262.785 -18.0947L313.959 948.681L315.721 948.587L264.547 -18.188Z" fill="#4ED775"/>
<path d="M272.188 -19.0815L270.426 -18.9883L321.6 947.787L323.362 947.694L272.188 -19.0815Z" fill="#4ED775"/>
<path d="M279.818 -19.981L278.057 -19.8877L329.231 946.888L330.993 946.794L279.818 -19.981Z" fill="#4ED775"/>
<path d="M287.463 -20.8755L285.701 -20.7822L336.875 945.993L338.637 945.9L287.463 -20.8755Z" fill="#4ED775"/>
<path d="M295.096 -21.7632L293.334 -21.6699L344.508 945.105L346.27 945.012L295.096 -21.7632Z" fill="#4ED775"/>
<path d="M302.734 -22.6626L300.973 -22.5693L352.147 944.206L353.909 944.113L302.734 -22.6626Z" fill="#4ED775"/>
<path d="M310.371 -23.5571L308.609 -23.4639L359.784 943.312L361.545 943.218L310.371 -23.5571Z" fill="#4ED775"/>
<path d="M318.006 -24.4565L316.244 -24.3633L367.418 942.412L369.18 942.319L318.006 -24.4565Z" fill="#4ED775"/>
<path d="M325.643 -25.3511L323.881 -25.2578L375.055 941.518L376.817 941.424L325.643 -25.3511Z" fill="#4ED775"/>
<path d="M333.283 -26.2388L331.521 -26.1455L382.696 940.63L384.457 940.537L333.283 -26.2388Z" fill="#4ED775"/>
<path d="M340.92 -27.1392L339.158 -27.0459L390.332 939.73L392.094 939.636L340.92 -27.1392Z" fill="#4ED775"/>
<path d="M348.559 -28.0327L346.797 -27.9395L397.971 938.836L399.733 938.743L348.559 -28.0327Z" fill="#4ED775"/>
<path d="M356.192 -28.9321L354.43 -28.8389L405.604 937.936L407.366 937.843L356.192 -28.9321Z" fill="#4ED775"/>
<path d="M363.83 -29.8198L362.068 -29.7266L413.243 937.049L415.004 936.955L363.83 -29.8198Z" fill="#4ED775"/>
<path d="M371.467 -30.7153L369.705 -30.6221L420.879 936.153L422.641 936.06L371.467 -30.7153Z" fill="#4ED775"/>
<path d="M379.108 -31.6138L377.346 -31.5205L428.52 935.255L430.282 935.162L379.108 -31.6138Z" fill="#4ED775"/>
<path d="M386.744 -32.5083L384.982 -32.415L436.157 934.36L437.918 934.267L386.744 -32.5083Z" fill="#4ED775"/>
<path d="M394.377 -33.4077L392.615 -33.3145L443.789 933.461L445.551 933.368L394.377 -33.4077Z" fill="#4ED775"/>
<path d="M402.016 -34.2964L400.254 -34.2031L451.428 932.572L453.19 932.479L402.016 -34.2964Z" fill="#4ED775"/>
<path d="M409.654 -35.1909L407.893 -35.0977L459.067 931.678L460.829 931.585L409.654 -35.1909Z" fill="#4ED775"/>
</g>
</svg>
