<svg width="612" height="747" viewBox="0 0 612 747" fill="none" xmlns="http://www.w3.org/2000/svg">
<mask id="mask0_53_100420" style="mask-type:luminance" maskUnits="userSpaceOnUse" x="0" y="0" width="612" height="747">
<path d="M548.419 678.506C550.105 677.327 549.139 674.404 546.879 674.64C542.097 675.144 541.868 672.046 540.903 669.007C540.11 666.501 538.961 664.082 537.756 661.724C536.79 659.832 535.072 659.503 533.057 660.156C528.794 661.532 528.202 665.662 527.46 668.821C526.634 672.336 530.44 670.532 532.159 671.278C534.765 672.413 536.88 674.694 539.106 676.592C540.284 677.596 539.552 678.605 538.693 679.422C538.381 679.718 537.917 679.921 537.488 680.047C534.313 680.979 529.525 680.201 528.481 683.469C527.499 686.535 533.386 685.904 534.391 688.92C533.113 695.326 528.933 697.476 524.023 694.07C522.806 693.226 522.165 691.586 521.261 690.308C517.371 685.449 522.321 680.656 521.227 675.396C519.207 665.684 519.76 664.911 510.971 669.018C506.239 671.234 498.466 670.472 497.841 678.616C497.763 679.603 495.949 680.546 495.357 678.978C493.784 674.815 492.299 680.376 490.888 678.868C489.437 680.645 491.652 681.034 492.199 681.977C494.258 685.531 495.731 689.458 500.859 690.302C506.306 691.196 507.706 688.509 507.902 684.122C507.969 682.564 507.567 680.924 507.918 679.449C508.292 677.897 508.22 675.128 510.753 675.742C512.65 676.203 514.447 677.19 513.432 680.656C511.635 686.798 515.201 690.462 521.383 690.16C521.344 696.16 517.706 700.492 512.533 701.627C506.339 702.987 499.637 702.549 493.192 702.225C489.788 702.055 485.709 701.66 484.9 696.845C484.716 695.748 483.349 695.156 482.116 695.353C480.352 695.628 480.101 696.801 480.447 698.359C481.055 701.101 479.499 702.949 477.071 703.256C473.266 703.739 469.359 705.472 465.598 704.139C461.034 702.521 459.756 704.644 459.298 708.378C459.025 710.605 458.818 712.843 458.578 715.075L458.74 714.916C456.96 713.868 455.124 712.886 454.388 710.764C453.674 708.708 453.573 705.494 450.777 705.784C448.277 706.042 448.757 709.486 447.602 711.312C445.872 714.049 444.851 720.394 440.097 713.473C439.388 712.437 438.747 713.117 437.848 713.501C431.755 716.1 428.769 720.921 428.155 727.069C427.514 733.502 423.624 734.895 418.167 733.935C412.882 733.003 407.743 733.074 402.403 733.759C396.053 734.571 389.574 734.396 383.146 734.571C381.427 734.62 378.788 735.152 379.44 732.191C380.796 726.038 379.92 719.424 383.268 713.276C384.686 716.018 383.285 718.557 383.849 720.822C384.786 724.595 384.792 729.553 390.405 729.855C395.433 730.123 400.5 729.756 405.55 729.586C406.778 729.542 409.283 729.959 408.725 728.237C407.04 723.076 411.549 723.701 413.742 722.051C412.09 725.221 412.693 727.952 415.79 729.24C420.728 731.297 422.977 727.776 424.283 723.997C424.986 721.974 428.501 718.744 422.542 717.839C419.288 717.345 419.997 714.351 421.509 712.552C424.818 708.62 422.798 707.128 418.937 707.287C415.433 707.43 413.691 706.393 413.329 703.031C413.156 701.414 413.786 698.869 410.723 699.834C408.982 700.383 407.737 700.997 408.597 704.035C409.769 708.192 408.976 712.947 402.314 712.53C399.797 712.371 397.263 712.311 394.741 712.322C389.725 712.344 388.882 709.388 390.037 705.549C391.711 699.988 390.383 692.842 398.084 690.22C399.004 689.908 399.568 688.542 400.26 687.637C401.421 686.124 402.559 684.396 400.539 682.904C398.296 681.254 398.223 683.979 397.146 684.807C392.386 688.465 387.839 693.056 381.126 692.118C374.251 691.153 372.588 692.145 372.61 698.798C372.621 701.287 372.917 703.788 372.817 706.273C372.716 708.801 374.424 712.431 370.825 713.358C367.203 714.29 363.102 714.68 359.726 711.855C359.011 711.258 358.637 708.729 357.895 710.051C355.295 714.691 351.344 711.724 348.108 712.344C336.891 714.499 325.731 717.235 316.156 707.424C313.198 704.391 309.331 704.43 308.89 710.364C308.756 712.141 309.878 714.921 306.496 714.987C303.522 715.047 304.097 712.119 303.137 710.517C302.032 708.664 302.434 706.585 302.417 704.545C302.328 695.408 304.203 686.573 306.016 677.667C307.11 672.292 310.107 667.28 309.822 660.688C304.499 663.644 302.624 669.462 297.345 671.108C305.43 661.576 313.739 652.313 322.394 643.374C325.352 640.319 330.162 640.829 333.979 639.283C335.524 638.658 337.137 637.989 336.629 635.965C336.239 634.424 334.821 634.374 333.365 634.128C327.02 633.042 321.669 635.526 316.379 638.34C311.747 640.807 307.367 644.049 302.439 645.546C299.677 646.385 296.296 645.272 294.203 648.743C294.008 641.367 299.739 638.504 303.968 634.665C308.321 630.716 312.406 625.907 320.402 628.929C314.71 624.273 318.287 622.178 321.563 620.297C327.098 617.116 332.383 613.452 338.789 611.895C341.958 611.127 343.643 608.418 342.075 605.654C340.837 603.476 336.456 600.444 336.11 600.74C328.382 607.436 315.04 605.577 310.43 617.006C309.604 619.052 307.199 620.598 304.672 619.693C301.653 618.613 303.025 615.92 303.098 613.792C303.304 607.891 307.043 607.661 312.322 609.564C310.073 603.844 306.842 601.102 301.575 600.378C299.019 600.027 297.043 600.016 298.126 603.093C300.732 610.458 294.962 613.381 291.201 617.62C289.538 615.893 292.445 613.99 290.124 612.52C287.942 619.381 276.838 618.531 277.814 624.015C279.979 619.408 280.705 610.825 283.645 602.84C286.43 595.283 291.541 589.086 296.742 582.998C297.791 581.77 298.913 580.169 297.255 578.836C295.52 577.437 294.376 579.148 293.282 580.262C291.843 581.732 290.42 583.212 289.036 584.731C288.02 585.845 286.843 586.607 285.448 585.647C283.45 584.276 285.526 583.47 286.067 582.439C287.97 578.808 291.223 576.45 295.872 573.505C291.151 573.406 288.121 577.41 284.611 573.642C283.378 572.321 281.118 574.476 281.676 576.653C283.813 585.017 276.787 592.283 278.841 600.603C278.919 600.915 278.473 601.667 278.216 601.694C267.703 602.824 273.768 616.819 264.226 619.194C262.792 619.551 265.024 623.488 266.587 625.49C269.187 628.824 270.292 632.406 267.407 637.303C264.801 632.614 261.855 628.934 260.711 624.783C259.617 620.806 256.269 619.891 253.981 617.571C251.716 622.095 246.253 619.024 243.401 621.903C242.765 622.545 242.469 624.41 242.944 625.079C247.536 631.539 243.412 638.833 245.098 645.557C245.449 646.961 246.225 649.692 242.676 648.612C241.046 648.112 239.534 647.761 239.099 650.207C238.675 652.571 238.68 654.348 241.03 656.065C247.402 660.721 249.768 672.874 246.046 681.204C242.436 676.137 243.117 670 240.628 664.79C241.47 670.916 239.417 678.155 243.825 682.828C251.286 690.73 248.412 700.372 250.388 709.141C250.773 710.841 249.908 712.892 248.25 713.841C246.632 714.762 245.125 713.566 243.959 712.464C238.524 707.331 232.732 710.358 227.726 712.585C224.272 714.12 221.834 713.961 218.279 713.561C213.687 713.04 206.421 702.933 203.944 715.875C203.916 716.034 203.536 716.287 203.425 716.243C197.175 713.78 192.928 720.29 187.231 719.786C179.999 719.138 172.951 719.627 166.132 722.089C164.486 722.681 163.331 722.292 162.567 721.118C161.685 719.769 162.667 718.409 163.554 717.482C164.637 716.358 166.071 715.535 167.41 714.669C172.533 711.378 169.76 708.06 166.545 706.448C163.448 704.896 159.922 702.746 155.697 703.788C161.378 698.825 168.448 696.746 175.407 694.251C175.156 691.893 173.108 691.213 171.294 690.281C168.917 689.052 169.776 687.374 170.663 685.679C171.171 684.709 171.874 682.937 172.951 684.237C176.718 688.783 180.925 684.38 184.843 685.125C186.623 685.465 188.598 685.082 189.179 682.745C189.658 680.837 188.939 679.51 187.828 677.842C185.166 673.855 181.829 670.241 177.683 668.475C174.079 666.94 174.291 660.715 170.357 662.136C167.41 663.2 165.58 667.329 163.326 670.143C162.622 671.025 162.187 672.111 161.557 673.055C160.251 675.012 158.287 675.374 156.088 675.117C154.252 674.903 154.554 674.59 154.208 671.98C153.968 670.17 151.964 666.984 151.267 667.11C148.226 667.669 145.77 669.517 144.364 672.621C143.287 675.013 142.16 677.787 138.605 677.639C134.448 677.469 137.975 673.12 135.447 672.068C134.164 672.429 134.136 674.064 133.377 674.497C130.698 676.027 128.092 679.499 124.61 676.06C123.829 675.287 124.253 672.983 122.188 674.497C120.939 675.413 120.581 677.031 122.166 677.853C124.794 679.219 125.698 681.961 127.691 683.826C129.605 685.619 129.895 688.147 127.785 689.792C126.435 690.845 124.739 695.046 122.177 690.516C121.363 689.074 120.302 690.16 119.493 691.054C116.759 694.081 114.242 696.96 113.785 701.468C113.221 707.046 111.62 712.535 110.297 718.025C109.466 721.469 107.407 722.462 104.31 720.208C102.719 719.051 101.514 717.181 98.9805 718.672C94.0867 721.546 90.8781 720.296 89.0813 714.894C88.1438 712.064 86.9887 709.393 85.0468 707.084C81.7489 703.163 81.5983 699.324 85.7164 695.935C87.1171 694.783 88.0936 694.021 87.0166 692.096C85.8224 689.968 84.2042 691.174 82.6696 690.9C77.8316 690.039 74.9411 695.035 69.7404 694.043C76.8607 699.724 75.354 707.627 76.4366 714.8C70.6611 715.491 66.5094 725.297 59.4115 716.884C58.965 718.607 58.7976 719.479 58.5075 720.318C55.9071 727.908 56.5488 728.999 64.2606 729.493C67.4525 729.696 69.4669 730.573 71.1522 733.82C73.8362 738.991 85.0803 738.942 86.8771 733.759C88.2554 729.783 89.8625 728.303 93.9639 728.231C97.9482 728.165 100.482 729.712 102.29 735.004C103.339 731.242 101.045 727.464 105.822 727.502C109.315 727.529 111.653 728.215 112.373 731.862C112.764 733.858 113.5 735.805 113.735 737.812C114.544 744.788 114.008 745.139 106.949 743.269C105.47 742.88 104.092 742.167 102.301 742.814C91.5198 746.697 79.9298 743.79 68.9647 746.461C68.0049 746.697 65.9347 746.176 65.8733 745.781C64.6066 737.67 59.1938 741.185 54.9473 742.342C54.1605 739.046 59.0766 740.209 58.3345 736.77C53.29 737.845 51.2309 741.141 50.2934 745.644C48.5413 739.973 48.558 733.661 52.8938 730.612C57.9997 727.019 55.0199 724.743 54.4451 721.623C51.588 723.69 50.4608 726.383 45.9744 725.029C39.3563 723.032 30.082 715.448 29.5631 708.801C29.2562 704.841 28.6702 701.507 26.0364 698.298C24.7474 696.724 23.9271 693.319 25.5119 691.822C27.9169 689.551 28.4024 690.001 28.9548 687.873C29.3008 686.546 29.3454 684.939 31.2985 685.175C33.1846 685.4 32.8665 686.919 32.9726 688.295C33.1121 690.143 32.169 692.436 34.7861 693.686C39.6911 689.019 42.3305 681.786 49.2388 679.68C53.5299 678.369 52.3804 676.981 50.8291 674.689C49.808 673.186 48.9598 671.514 47.6987 670.236C45.5447 668.047 43.48 667.362 42.0794 671.174C41.0303 674.02 38.5472 674.656 37.459 671.771C36.516 669.276 34.2114 669.6 33.6087 669.205C33.9882 664.922 47.3471 670.269 38.5639 660.348C38.3798 660.139 38.5751 659.454 38.7704 659.086C43.0448 650.942 34.881 645.162 34.5406 637.851C34.4457 635.756 29.0999 626.521 25.2552 624.805C20.8692 622.847 20.925 619.079 24.1391 615.235C25.3779 613.754 24.2563 612.251 22.9617 612.109C14.8984 611.247 16.3771 606.229 17.8112 601.184C19.1951 596.309 18.107 593.753 12.2589 592.98C6.62853 592.234 -13.276 586.519 14.1339 587.462C18.146 587.6 19.2174 586.481 20.3893 582.587C23.4863 572.266 18.559 563.568 15.7912 554.453C14.3292 549.621 11.4386 543.062 16.0758 540.923C22.3981 538.011 19.8145 534.222 19.5076 530.778C19.1951 527.273 18.3636 523.111 16.1595 520.588C7.39302 510.568 13.3694 497.823 9.05033 487.09C8.52579 485.785 9.40746 484.518 10.5514 483.548C11.9743 482.341 12.1752 480.284 11.394 479.16C7.35954 473.331 6.20443 466.711 4.64756 460.031C3.78822 456.346 3.18556 453.127 4.36298 449.567C5.62968 445.734 6.13748 440.869 5.88079 437.809C5.12188 428.607 2.17555 419.826 12.2868 413.657C12.6886 413.41 12.3984 412.247 12.7667 411.748C18.3078 404.246 11.2712 396.327 13.5982 388.72C14.5301 385.66 13.5926 383.197 9.44095 382.101C15.2722 378.081 20.4283 384.119 25.5956 381.135C26.6837 380.505 27.5765 385.177 28.6256 387.376C29.0051 388.166 29.4012 389.126 30.5898 388.917C31.9458 388.682 32.6991 387.689 32.3532 386.488C31.053 381.969 31.226 379.638 36.689 382.918C37.4702 383.389 39.44 382.545 40.5225 381.821C43.4521 379.863 42.7546 376.66 42.7156 373.852C42.6932 372.366 41.4042 371.253 39.7915 372.053C32.4536 375.706 27.0352 369.728 23.1068 366.646C10.942 357.098 13.1518 348.323 19.2844 335.468C22.1972 329.359 25.696 325.86 17.415 321.621C12.8728 319.295 14.3013 313.734 15.2388 309.884C16.193 305.974 19.3513 311.327 21.4718 309.703C20.0321 304.461 16.7063 299.415 17.6661 294.09C18.6092 288.88 18.877 283.884 18.4083 278.674C18.0567 274.764 23.8211 265.863 26.4772 266.362C32.9558 267.579 31.7784 261.02 34.6131 258.629C36.5941 256.956 34.2504 250.096 31.8175 249.317C27.6714 247.984 27.3701 244.765 26.7953 242.483C25.9415 239.078 25.9025 233.391 30.255 233.018C36.4323 232.486 33.14 229.859 32.8833 227.429C32.4592 223.42 27.3366 220.437 29.0441 216.587C31.4157 211.234 38.6867 208.542 38.2012 201.324C38.1956 201.204 38.6085 200.897 38.7034 200.94C44.8639 203.677 41.7111 198.286 42.0738 196.8C43.335 191.601 40.2212 185.278 45.4498 181.175C48.5803 178.718 47.8716 175.812 47.4308 173.218C45.6284 162.6 49.7633 154.846 59.205 152.104C60.773 151.648 62.1457 152.06 62.3522 153.694C62.6033 155.701 62.9325 157.198 65.4715 157.209C68.3118 157.22 68.7192 155.197 69.3051 153.217C70.2537 150.031 71.381 148.034 74.6621 151.621C76.2245 153.327 77.5415 152.592 77.4578 150.168C77.3629 147.508 77.5526 145.051 73.4735 144.826C69.6344 144.618 68.7973 140.033 70.9345 139.26C77.0058 137.06 73.1108 136.293 71.0126 134.505C63.8477 128.395 62.7205 118.31 68.602 111.213C70.3486 109.107 69.1879 107.473 69.0819 105.559C68.9368 102.839 68.284 99.488 73.2671 101.808C74.2715 102.274 77.3127 102.992 77.5191 101.298C77.8093 98.9505 79.7568 96.6581 78.3506 94.1793C77.2736 92.2708 75.6275 91.8759 73.6577 92.8685C71.8999 93.757 70.5662 93.2086 69.4948 91.7224C67.7594 89.3148 70.2761 79.2841 72.9155 77.5237C77.0058 74.7926 79.4108 71.8092 75.1476 67.0598C73.6298 65.3652 72.6644 62.8041 73.2168 60.04C76.2748 60.4459 78.1385 64.5426 81.6596 62.6725C81.1853 58.7348 78.8249 55.6033 77.5191 52.0715C75.5493 46.7573 74.1152 43.6258 82.2177 44.3058C84.5725 44.5032 86.732 41.3827 87.3347 38.5419C87.7811 36.4415 86.3135 35.3885 84.5223 35.8492C82.7701 36.2934 81.8103 36.3592 81.9275 34.352C82.0224 32.7341 82.5636 31.1931 84.1205 30.343C85.4039 29.641 86.5144 30.4143 87.0333 31.385C88.8023 34.681 93.3948 35.8492 94.6112 38.339C98.4839 46.2692 101.62 42.0463 105.364 38.6461C103.584 36.4086 101.531 34.5933 97.485 33.8748C102.915 31.4947 105.314 28.9829 102.156 23.6194C101.157 21.9193 103.579 22.9613 104.416 23.8223C104.416 23.8223 104.209 23.5536 104.204 23.5481C106.38 29.3449 114.348 31.1492 114.795 38.2896C114.828 38.8216 117.468 39.913 118.45 39.5565C123.483 37.7193 127.043 41.7995 131.44 42.2986C137.618 43.0061 139.855 46.9273 140.43 52.5486C140.648 54.6874 139.253 57.3747 141.546 58.9651C147.723 63.2483 145.787 68.6174 143.879 74.0029C141.462 80.8307 143.209 87.516 148.683 92.0295C157.695 99.4551 159.693 108.981 152.913 115.239C149.565 118.332 145.112 119.889 149.141 125.631C149.955 126.794 148.326 130.956 146.646 132.201C142.88 134.987 145.547 135.974 147.595 136.567C153.622 138.305 155.424 140.965 150.765 146.093C149.28 147.727 147.338 150.283 149.543 152.027C152.204 154.133 152.762 149.828 155.485 148.912C152.673 155.52 156.763 162.041 153.889 168.337C153.248 169.746 155.045 171.315 155.234 172.658C156.334 180.309 160.569 187.91 155.988 195.763C154.52 198.281 154.749 200.568 157.729 201.955C158.967 202.531 160.602 202.838 160.586 204.5C160.513 210.955 163.314 217.563 159.347 223.837C158.443 225.263 157.528 228.054 159.832 228.427C164.28 229.151 164.073 231.976 162.505 234.125C160.814 236.451 158.354 236.018 156.468 233.166C154.302 229.886 151.68 232.957 150.24 233.966C148.477 235.206 148.242 238.348 150.407 239.818C152.573 241.288 154.933 243.109 157.946 242.697C159.475 242.489 161.211 241.134 162.422 242.796C164.369 245.478 160.396 245.066 160.072 246.635C159.313 250.315 160.496 255.004 154.559 255.925C153.744 256.051 154.548 258.135 155.575 258.629C157.779 259.687 157.79 260.806 156.641 262.808C155.463 264.859 156.049 267.102 157.293 269.12C159.871 269.279 159.191 264.119 162.974 266.131C166.45 267.985 164.347 270.842 164.129 272.718C163.504 278.032 158.348 282.447 160.72 288.556C160.904 289.028 159.944 290.333 159.23 290.662C156.066 292.116 156.322 294.721 156.166 297.518C155.82 303.704 149.191 311.809 144.866 310.724C141.401 309.857 140.81 311.173 140.207 313.488C139.85 314.87 139.493 315.824 137.88 316.411C129.906 319.312 125.95 326.907 119.934 332.095C117.334 334.339 116.212 339.982 121.084 343.453C122.551 344.495 125.118 346.914 122.534 348.022C117.579 350.144 120.124 353.396 119.65 356.199C122.551 356.988 121.575 352.266 124.644 353.605C124.878 358.08 121.898 362.319 125.174 367.178C126.92 369.767 125.486 374.428 125.486 378.536C130.274 377.148 127.177 370.781 132.858 369.542C132.858 376.43 132.869 383.11 132.858 389.795C132.852 392.828 133.991 396.195 129.683 397.78C128.449 398.235 126.876 400.418 130.118 400.615C133.751 400.835 131.284 402.42 131.094 403.593C130.81 405.365 127.841 406.659 129.18 408.315C132.222 412.072 129.928 415.911 130.375 419.448C131.122 425.289 127.724 430.263 128.795 435.807C129.035 437.058 128.851 438.643 127.239 439.246C125.525 439.882 123.935 439.405 122.975 437.941C121.837 436.208 120.989 434.288 119.75 431.952C117.016 437.919 115.118 443.529 111.073 448.388C107.273 441.105 109.248 432.243 104.89 424.784C102.144 427.68 104.103 430.872 102.144 433.071C100.934 432.385 101.151 429.38 99.7338 430.532C96.9884 432.769 96.263 436.926 96.9549 439.729C97.485 441.879 98.9024 443.913 98.7294 446.502C98.4169 451.059 99.8231 453.823 105.258 454.914C109.538 455.77 115.197 459.033 115.676 462.697C116.329 467.704 115.676 472.426 119.002 477.104C121.022 479.939 120.046 484.118 118.215 487.535C117.155 489.514 116.084 491.549 115.481 493.688C115.113 494.999 113.997 497.072 116.106 497.856C118.282 498.668 119.449 496.935 120.235 495.191C120.983 493.534 121.591 491.818 122.295 490.145C123.717 486.767 121.887 482.522 124.934 479.237C129.811 486.75 129.844 486.761 126.29 495.35C125.537 497.165 126.223 497.867 127.886 498.108C130.419 498.476 131.619 500.543 131.652 502.397C131.747 507.261 135.291 510.486 136.675 514.994C140.246 508.44 140.419 501.124 144.654 495.234C141.144 493.732 139.688 495.624 138.349 497.938C137.618 499.194 137.322 501.344 135.028 500.488C132.506 499.545 132.517 497.313 133.159 495.333C133.773 493.43 134.738 491.538 135.955 489.942C139.66 485.1 139.576 479.78 139.599 473.972C139.627 466.097 135.263 458.978 137.925 450.319C139.56 444.994 141.691 438.665 141.089 432.396C137.902 433.405 139.415 437.08 136.624 438.539C137.941 432.062 135.101 425.135 140.843 419.865C141.909 418.883 141.529 416.98 140.547 416.081C137.4 413.196 138.488 410.004 139.281 406.675C139.677 404.997 140.854 402.721 138.996 401.602C135.653 399.595 136.468 397.259 137.64 394.665C138.187 393.447 138.767 392.471 137.952 390.936C135.285 385.901 136.022 374.735 139.604 369.268C140.073 372.52 137.779 375.914 140.458 377.565C146.105 381.053 147.947 387.607 153.03 391.555C158.315 395.663 158.063 399.683 152.573 403.763C151.027 404.909 148.711 406.121 150.078 407.695C153.365 411.496 149.933 414.699 149.827 418.505C152.182 413.393 157.651 415.582 161.372 412.017C161.071 413.832 161.2 414.699 160.831 415.033C155.608 419.739 157.143 424.96 161.384 428.409C165.792 431.99 167.773 426.281 170.234 423.951C173.242 421.099 174.67 422.223 176.512 425.13C180.005 430.647 178.292 436.839 179.24 442.668C180.786 452.189 187.359 455.748 195.858 451.591C189.34 447.544 184.848 441.906 184.128 434.157C182.678 418.423 177.65 402.622 190.925 388.21C195.373 383.384 197.13 374.417 196.84 366.805C196.472 357.054 198.704 352.497 207.822 349.343C210.366 348.466 210.791 347.155 211.075 344.961C212.119 336.927 210.065 328.043 217.582 321.692C218.24 321.133 218.368 319.498 218.151 318.484C215.818 307.641 217.855 296.761 218.318 285.968C218.536 280.983 214.942 276.085 216.611 272.285C222.007 259.984 214.055 244.266 226.984 234.136C228.441 222.197 238.368 213.165 238.736 200.803C238.915 194.804 242.586 192.462 248.446 193.191C249.947 193.378 251.749 194.721 252.603 192.555C253.295 190.806 253.038 188.892 251.001 187.894C248.524 186.682 249.439 184.877 249.417 182.788C249.35 177.627 253.758 173.64 252.647 168.079C252.324 166.456 253.021 161.246 257.346 161.937C264.154 163.034 263.713 158.153 263.166 154.84C262.022 147.958 265.454 144.058 270.577 140.685C271.905 139.813 273.367 139.062 274.483 137.971C280.632 131.971 289.203 130.183 297.01 133.408C302.512 135.678 304.359 134.691 303.801 128.861C303.232 122.977 305.648 118.019 308.6 113.665C310.732 110.517 314.096 106.519 319.236 108.323C324.252 110.083 329.587 109.765 334.805 111.52C339.174 112.99 337.466 117.207 340.362 117.723C349.603 119.368 347.55 125.686 346.975 131.768C346.467 137.137 349.759 142.534 354.257 142.72C362.337 143.049 361.528 147.667 361.668 152.553C361.718 154.259 360.763 156.814 363.872 156.255C368.738 155.383 367.248 158.92 367.326 160.906C367.566 167.311 368.486 173.799 365.523 179.974C364.218 182.7 365.395 185.607 365.635 188.436C365.836 190.822 367.002 191.623 369.324 190.91C375.4 189.034 378.252 190.992 376.65 196.943C375.188 202.372 375.925 207.324 377.722 212.156C379.641 217.316 378.765 220.004 372.398 219.455C373.821 222.126 374.92 224.605 377.755 223.535C384.485 221.002 383.296 227.588 382.71 228.899C381.031 232.65 381.371 236.703 380.21 240.504C377.671 239.867 380.478 235.705 377.125 236.407C374.418 236.972 374.692 239.165 375.423 241.348C376.617 244.896 376.539 247.721 371.907 249.141C370.64 249.531 369.167 252.306 369.748 254.444C370.361 256.704 372.409 255.448 373.883 255.558C379.468 255.997 382.9 260.11 381.628 265.852C380.545 270.727 381.667 273.53 386.801 274.659C388.553 275.043 391.376 275.383 389.083 278.52C388.134 279.814 389.1 281.739 389.926 282.206C395.997 285.617 394.479 291.924 396.153 297.008C398.112 302.947 400.427 308.782 402.191 314.776C403.792 320.228 403.776 325.997 398.541 329.458C394.334 332.238 395.333 335.046 396.521 338.572C398.586 334.629 403.307 333.11 404.78 328.586C405.355 326.831 406.677 324.242 410.237 324.664C412.882 324.982 415.667 323.003 413.714 319.937C407.179 309.703 410.907 301.565 419.11 294.836C420.801 293.448 418.468 290.18 421.906 290.701C427.91 291.611 426.28 287.262 426.141 284.399C425.996 281.41 432.792 275.147 435.203 276.793C439.556 279.754 444.79 278.339 447.865 277.061C455.777 273.776 454.109 278.69 454.382 282.622C454.684 286.999 450.828 289.763 449.209 293.991C454.946 291.693 457.485 286.758 461.748 283.632C463.271 286.434 462.122 288.611 461.296 290.591C458.986 296.135 456.637 301.066 459.566 307.669C462.2 313.603 462.462 314.765 467.334 310.159C472.172 305.585 473.718 307.422 474.421 312.742C474.449 312.95 475.096 313.076 475.464 313.246C476.725 312.166 476.061 309.451 478.689 309.512C480.553 311.113 477.434 313.91 480.213 315.654C483.366 310.153 487.813 306.106 491.663 301.384C493.594 303.972 492.166 307.109 494.197 309.259C498.051 304.967 501.232 304.557 503.739 308.031C509.386 305.311 503.354 297.923 509.347 295.072C511.942 298.17 513.153 304.351 519.112 301.905C525.39 299.327 526.567 303.413 529.017 307.225C531.339 310.844 527.315 314.014 528.9 316.959C532.46 323.573 529.157 328.218 524.787 332.49C523.203 334.042 522.371 335.024 524.257 337.135C528.766 329.88 540.267 332.913 543.068 323.31C546.014 326.463 545.233 328.136 542.292 329.622C541.232 330.16 539.938 331.366 540.908 332.935C541.807 334.382 543.18 334.125 544.575 333.576C545.574 333.181 546.572 332.348 547.744 333.22C546.879 340.081 544.792 346.601 541.16 354.191C545.674 351.872 549.881 353.062 547.711 356.21C543.442 362.407 545.389 369.07 543.687 375.289C542.934 378.037 539.385 380.093 540.35 383.208C542.108 388.912 537.951 391.956 534.424 393.124C527.583 395.389 524.067 399.085 523.883 406.078C523.85 407.443 523.27 408.814 521.69 409.209C519.91 409.653 519.363 408.052 518.56 407.065C517.064 405.222 515.881 403.001 512.985 403.094C511.596 409.352 515.117 413.997 516.797 419.135C517.879 422.448 520.563 421.998 520.853 420.106C521.875 413.476 531.83 412.346 530.328 404.449C530.155 403.533 531.054 402.184 532.41 402.123C533.861 402.063 534.017 403.445 534.553 404.405C535.585 406.231 533.57 409.105 537.326 410.569C536.455 403.034 544.19 404.065 547.348 399.398C547.822 405.03 546.014 409.176 543.481 412.944C541.282 416.218 537.466 417.88 534.664 420.797C525.206 430.647 524.704 436.581 534.575 447.154C536.21 442.921 536.712 438.352 540.518 435.358C541.673 434.447 543.939 432.698 542.198 430.806C539.781 428.179 539.72 432.051 538.364 432.572C536.813 433.17 535.183 433.855 533.755 432.934C530.926 431.113 534.575 430.729 534.742 429.484C535.462 424.121 542.136 423.654 543.593 418.697C543.542 423.38 546.885 422.903 548.553 421.395C553.369 417.04 558.101 412.297 558.81 405.392C559.507 398.592 563.832 396.974 569.792 397.314C571.259 397.396 575.522 407.416 574.551 409.275C572.866 412.505 571.287 415.801 575.126 418.242C578.759 420.55 580.014 416.037 582.514 414.962C582.81 414.836 583.279 415.099 583.982 415.253C581.024 419.185 579.406 423.638 575.45 427.038C570.405 431.376 570.885 436.257 575.277 441.22C575.812 441.829 576.214 442.816 576.175 443.606C575.818 450.878 574.099 457.975 574.529 465.439C574.73 468.916 576.159 473.912 572.057 477.235C571.387 477.778 572.598 480.734 573.703 480.164C577.743 478.069 576.85 481.886 577.905 483.197C578.731 484.222 579.172 486.103 580.807 485.352C582.743 484.463 581.437 483.136 580.55 482.127C578.893 480.246 579.3 478.508 580.623 476.616C581.409 475.491 580.505 472.886 583.05 473.429C584.719 473.786 584.406 475.606 584.06 476.912C582.068 484.409 586.884 480.274 589.579 479.374C589.216 481.54 588.34 483.29 588.798 484.595C591.431 492.119 588.965 498.816 586.281 505.753C584.3 510.875 583.201 516.371 589.796 519.897C591.616 520.868 591.141 523.171 590.594 524.871C590.221 526.034 588.435 526.824 587.949 525.688C587.213 523.966 583.111 526.237 584.495 522.195C586.22 517.166 580.55 517.588 578.257 515.68C576.192 513.963 574.68 516.442 573.324 517.95C572.515 518.844 572.275 521.12 570.534 520.072C568.709 518.976 569.552 517.511 571.008 516.283C572.531 515 572.325 513.113 570.986 512.12C569.06 510.689 568.302 513.053 567.297 513.99C562.498 518.455 567.788 521.109 569.473 524.268C570.841 526.84 574.445 528.441 570.456 532.121C568.302 534.107 569.356 537.874 570.958 540.408C572.978 543.6 575.394 540.331 577.587 540.397C579.914 540.463 581.37 539.333 583.145 538.45C590.221 534.935 595.455 543.759 602.452 541.384C602.57 541.346 604.043 543.594 603.73 544.159C601.18 548.749 605.081 552.917 604.405 557.272C603.903 560.524 604.885 561.906 608.345 561.588C611.18 561.325 612.24 562.208 611.955 565.548C611.598 569.71 611.816 573.094 606.933 575.392C604.456 576.56 600.661 579.297 600.198 581.66C598.206 591.812 585.349 589.47 582.062 597.718C581.962 597.97 580.221 597.959 579.551 597.57C576.147 595.579 574.769 598.288 573.753 600.307C572.464 602.862 571.728 606.268 573.458 608.516C574.964 610.469 577.704 608.302 579.875 607.814C580.533 607.666 581.097 607.173 581.744 606.953C585.662 605.643 589.529 607.551 590.271 610.441C591.147 613.842 586.56 612.279 584.54 613.255C581.901 614.527 578.96 614.236 576.069 614.341C570.059 614.565 564.725 616.617 559.329 619.485C553.341 622.66 551.728 627.168 551.539 634.029C553.955 629.806 557.152 630.371 559.1 632.647C561.276 635.181 558.575 636.996 556.527 638.597C555.679 639.261 555.21 640.402 554.591 641.339C553.548 642.919 549.468 642.365 550.758 645.091C552.08 647.893 553.464 643.714 555.166 644.219C555.562 644.339 555.992 644.487 556.299 644.745C558.704 646.791 558.882 646.884 559.959 644.652C561.131 642.217 561.94 639.612 562.855 637.056C564.976 631.133 570.249 628.079 576.359 629.269C584.367 630.826 588.033 634.204 587.576 639.595C587.079 645.392 581.633 651.359 575.757 650.405C570.204 649.5 568.826 651.666 567.554 655.807C566.806 658.247 565.032 660.408 562.565 661.126C558.67 662.267 561.432 656.794 558.486 656.547C557.56 658.225 556.606 659.75 555.841 661.368C553.743 665.799 548.118 669.835 555.914 674.903C558.179 676.373 558.402 681.78 557.655 685.465C556.488 691.191 553.347 697.295 563.96 699.384C557.727 700.278 557.638 700.24 555.344 705.209C554.502 707.035 553.38 708.006 551.394 708.532C543.676 710.6 540.06 707.874 539.67 699.302C539.469 694.937 540.708 689.968 534.156 688.915C539.876 686.76 543.593 681.901 548.408 678.517L548.419 678.506ZM299.37 487.765C299.861 480.992 301.385 475.118 303.438 469.42C307.523 469.634 305.302 474 308.89 475.244C315.458 457.487 320.558 439.438 323.694 419.015C319.23 422.837 320.251 426.616 319.202 429.654C318.326 432.193 318.114 434.914 316.557 437.294C315.553 438.829 315.285 440.716 312.651 439.131C310.525 437.848 309.303 436.542 310.972 434.321C314.258 429.928 314.398 425.196 312.819 420.254C311.864 417.26 313.304 415.768 315.748 414.293C317.177 413.432 319.057 411.874 318.114 409.873C316.914 407.322 313.75 407.482 311.557 407.109C309.493 406.758 309.426 409.505 309.247 411.304C308.449 419.475 304.024 427.411 307.791 435.912C308.371 437.217 308.209 439.52 306.134 439.701C304.66 439.827 303.399 438.637 303.081 436.685C301.854 429.177 302.975 421.477 298.745 414.063C297.534 411.94 295.425 407.843 295.358 404.07C292.027 408.831 290.392 413.914 291.19 419.761C288.093 418.878 288.695 416.838 288.64 415.159C288.545 412.22 288.182 408.995 284.209 410.427C282.1 411.183 278.305 411.66 280.414 416.832C281.988 420.688 284.505 426.983 277.68 430.208C277.496 430.296 277.401 430.554 277.251 430.724C275.253 433.005 282.663 437.65 274.751 439.175C273.06 439.504 272.067 446.145 269.304 449.381C267.463 451.536 271.581 450.615 271.815 452.814C265.889 452.792 262.536 454.585 267.134 460.761C267.781 461.633 267.775 463.892 267.089 464.66C260.493 472.009 269.355 473.66 271.994 477.394C273.662 479.758 276.213 478.096 277.078 476.44C277.976 474.718 277.234 473.254 274.321 473.632C272.429 473.879 271.347 471.636 271.436 469.755C271.525 467.95 272.535 467.248 274.745 467.479C277.831 467.802 275.543 464.501 277.463 463.124C286.463 469.716 290.704 480.191 299.376 487.759L299.37 487.765ZM291.396 295.839C288.562 293.322 290.23 290.547 290.275 288.145C290.386 282.381 290.498 282.409 284.75 278.904C284.287 278.619 284.27 277.692 283.936 277.122C282.206 274.149 281.196 269.351 276.291 271.681C271.899 273.765 269.466 278.251 271.771 282.792C275.348 289.829 277.809 296.454 272.775 303.72C272.468 304.159 272.513 305.305 272.87 305.645C279.963 312.435 275.66 321.703 278.277 329.452C278.556 330.286 278.88 331.706 278.467 332.079C271.916 337.986 276.14 344.94 277.117 351.142C277.608 354.257 271.363 355.628 275.448 357.4C278.908 358.902 279.204 353.89 280.984 351.822C281.452 351.279 282.674 351.005 283.45 351.148C284.879 351.411 284.583 352.464 284.533 353.72C284.343 358.606 280.627 362.193 279.89 366.893C279.298 370.666 278.567 373.962 284.36 373.106C285.186 372.986 286.073 373.238 286.932 373.32C284.376 379.479 291.893 379.068 293.087 382.402C295.146 388.177 299.214 384.398 302.244 384.744C304.27 384.974 305.079 382.413 305.179 380.697C305.419 376.627 302.813 372.871 300.352 370.759C297.959 368.703 296.128 373.704 292.847 375.503C294.108 372.657 290.995 369.394 295.453 367.957C295.537 367.929 295.475 366.525 295.102 366.229C287.775 360.476 292.35 353.336 292.691 346.7C292.719 346.119 292.998 345.044 292.948 345.033C284.014 342.861 291.893 334.289 287.245 330.165C286.385 329.403 286.223 324.933 291.279 324.116C297.802 323.063 293.969 314.82 298.031 311.469C302.283 307.97 304.593 304.439 299.264 300.018C297.523 298.576 299.281 297.15 299.348 295.73C299.493 292.576 302.172 289.609 300.174 285.288C296.988 289.116 294.315 292.324 291.391 295.839H291.396ZM410.661 397.703C414.579 408.825 410.6 419.613 410.963 430.411C411.108 434.776 410.996 438.884 409.261 442.57C407.386 446.557 411.281 448.619 411.454 451.838C411.487 452.518 413.948 451.964 415.17 451.267C418.797 449.194 418.446 446.233 417.107 443.014C416.973 442.69 417.263 442.202 417.977 441.615C420.254 448.317 426.989 453.5 423.624 462.176C422.302 465.581 421.13 466.837 417.447 464.879C418.156 470.106 424.238 469.936 424.59 474.499C427.62 472.36 426.872 469.651 427.179 467.259C427.519 464.589 427.586 462.011 430.064 459.954C433.094 457.437 430.661 454.41 430.142 451.575C429.377 447.429 430.527 444.407 435.382 446.436C439.176 448.021 439.383 444.171 441.57 443.568C439.394 441.549 444.204 435.884 437.809 436.224C432.257 436.52 426.61 436.882 421.241 438.177C418.184 438.912 417.274 438.056 417.073 435.753C416.922 434.003 414.54 431.59 418.82 430.57C421.917 429.835 423.808 427.115 420.432 424.082C415.293 419.465 418.725 413.734 418.234 408.518C418.016 406.198 418.647 405.074 421.682 405.271C428.066 405.683 429.774 397.901 435.583 396.892C435.778 396.859 436.09 395.948 435.929 395.696C431.18 387.991 437.151 381.431 438.328 374.39C438.78 371.681 438.919 369.267 435.962 368.143C432.859 366.964 428.713 366.218 427.09 369.278C423.926 375.256 417.704 379.496 418.541 388.078C418.931 392.093 415.209 397.171 416.537 402.326C412.603 402.551 413.619 398.635 410.656 397.714L410.661 397.703ZM439.941 478.157C425.081 478.612 424.115 479.555 420.812 494.505C420.187 497.329 418.948 500.768 417.514 502.638C413.15 508.331 417.581 512.636 418.351 517.478C418.569 518.833 419.16 520.248 420.706 520.506C422.815 520.857 423.278 518.839 424.004 517.594C424.651 516.48 424.534 514.967 425.014 513.722C425.7 511.945 424.657 509.126 427.274 508.534C430.577 507.788 428.847 510.87 429.651 512.066C430.778 513.755 438.908 511.347 438.936 509.022C439.037 500.39 443.211 491.829 439.796 483.191C438.618 480.208 443.64 481.239 441.537 477.197C441.71 477.509 440.778 478.129 439.935 478.157H439.941ZM515.463 436.169C515.24 435.319 515.569 434.316 515.29 433.499C514.486 431.157 513.828 428.618 511.361 427.351C509.978 426.643 509.141 427.768 508.85 428.848C508.08 431.749 505.619 434.914 508.889 437.579C512.388 440.431 511.322 446.463 516.808 447.944C518.035 448.273 516.958 449.902 516.378 450.812C514.548 453.681 512.796 456.609 510.798 459.362C509.057 461.764 508.476 464.622 511.311 465.696C515.613 467.325 515.904 470.111 515.279 473.599C514.464 478.157 520.468 478.557 520.558 482.829C521.981 477.844 527.148 476.703 529.408 472.782C532.03 468.236 531.277 464.336 528.615 460.426C530.128 458.775 532.393 461.912 533.57 459.263C531.958 456.143 529.33 455.874 525.094 457.41C534.954 450.741 525.083 446.079 524.921 440.645C519.972 443.694 517.07 442.339 515.446 436.164L515.463 436.169ZM494.347 430.757C493.505 428.108 493.522 428.239 496.379 426.238C497.11 425.722 497.333 424.252 497.444 423.188C497.696 420.786 497.735 418.368 497.958 413.986C501.468 420.677 496.591 426.139 500.062 431.338C503.8 427.027 506.155 422.761 505.045 416.914C504.007 411.447 508.51 405.491 503.337 400.16C502.327 399.124 505.352 399.052 506.11 397.966C507.684 395.701 507.6 393.332 506.853 390.848C506.54 389.806 505.932 389.246 504.916 389.778C502.952 390.81 502.121 392.647 501.546 394.67C500.675 397.747 500.603 400.873 500.424 404.037C500.329 405.688 501.529 407.981 499.185 409.22C497.573 405.557 495.436 412.33 493.667 408.918C492.495 406.653 489.627 405.107 491.033 401.871C493.365 396.508 492.495 392.181 487.819 388.002C485.598 386.016 484.158 386.373 482.657 387.497C480.051 389.438 481.703 390.371 483.946 390.81C481.446 395.252 486.111 399.908 483.405 404.504C482.194 406.566 481.932 409.209 481.435 411.628C481.134 413.108 481.418 414.463 483.572 413.69C487.685 412.214 489.381 415.911 489.917 417.967C491.675 424.729 493.499 431.892 488.996 438.374C485.994 442.69 490.486 445.92 488.756 451.438C495.882 444.379 496.619 437.881 494.353 430.757H494.347ZM85.962 235.996C85.058 236.44 84.2656 236.895 84.5111 237.937C86.2187 245.072 82.4911 252.13 84.4162 259.369C85.2589 262.539 85.4542 266.17 89.0701 266.768C92.7977 267.382 95.398 264.179 97.2562 261.475C98.6234 259.484 98.9024 257.258 102.055 256.627C104.778 256.079 103.171 254.318 101.871 253.381C100.057 252.081 97.8533 251.51 95.8389 250.627C94.3322 249.969 91.4417 248.79 92.3903 246.322C93.1604 244.315 94.7731 242.193 96.6201 241.14C98.5006 240.065 97.4739 243.893 99.957 243.624C98.3779 235.025 93.3669 232.36 85.9675 236.001L85.962 235.996ZM89.3659 194.052C89.2654 193.882 89.2487 193.559 89.3436 193.389C92.9372 186.78 91.7933 182.36 84.1819 179.218C82.7757 178.636 82.8929 173.048 79.8517 170.613C78.8807 169.834 78.9365 168.287 77.0895 169.412C75.5828 170.328 74.5784 170.936 75.488 173.07C78.4845 180.084 81.2913 187.181 83.9977 194.31C84.6785 196.109 85.097 198.176 84.9687 200.079C84.3716 208.854 84.3604 209.057 90.6381 214.892C87.8146 208.032 93.3166 200.776 89.3659 194.058V194.052ZM207.309 700.492C206.153 697.399 207.454 695.869 210.249 694.816C211.605 694.306 214.044 694.882 213.966 692.688C213.888 690.527 211.689 688.509 210.076 688.471C204.535 688.339 200.568 684.308 195.389 683.442C193.738 683.168 190.998 683.003 191.662 684.308C194.145 689.206 190.641 694.059 192.331 698.748C192.928 700.41 194.201 701.973 195.802 700.383C200.875 695.359 202.677 699.554 204.87 703.136C205.411 704.019 205.534 705.335 207.113 705.494C207.984 703.865 207.889 702.072 207.303 700.492H207.309ZM40.5225 334.454C39.2279 331.602 36.6332 328.443 32.9056 332.704C32.7494 332.88 31.1311 332.249 30.6624 331.646C29.5966 330.258 28.447 330.039 27.1692 331.037C25.2329 332.551 27.0743 333.724 27.6268 335.09C29.0441 338.583 31.2483 341.66 31.3376 345.833C31.3878 348.082 32.3922 352.672 36.3151 351.723C41.0527 350.583 45.8126 348.433 47.2355 342.746C46.2478 339.132 42.1017 337.942 40.5225 334.459V334.454ZM408.976 337.234C407.47 336.702 406.811 333.51 404.719 335.002C402.978 336.242 401.231 338.742 402.726 340.947C406.404 346.371 407.375 352.047 405.879 358.305C405.522 359.813 406.711 360.921 407.86 361.617C409.451 362.577 410.265 361.085 411.27 360.219C415.103 356.901 418.234 353.232 415.327 347.945C413.452 344.534 416.27 343.695 417.91 342.038C418.725 341.216 419.316 340.119 418.457 339.017C418.128 338.594 417.347 338.512 416.521 338.172C413.301 343.409 411.42 338.101 408.976 337.234ZM357.17 223.492C358.621 221.468 360.635 219.921 360.702 217.201C360.83 211.728 365.629 210.05 369.151 207.461C370.144 206.732 372.13 206.721 372.287 205.317C372.621 202.35 368.743 203.31 367.739 201.061C366.907 199.197 365.964 201.281 365.261 201.802C357.153 207.845 351.701 215.682 349.017 225.351C348.002 229.02 342.879 231.52 347.103 238.414C346.182 229.102 353.889 228.071 357.17 223.486V223.492ZM96.023 322.339C97.3679 320.403 98.2941 319.317 96.9326 315.654C94.9126 310.23 95.6101 303.742 95.705 297.72C95.7273 296.157 96.0119 294.671 95.2697 293.284C94.3992 291.649 93.6905 288.041 91.9216 289.373C90.0076 290.816 85.4374 292.11 86.8938 295.576C89.0813 300.781 89.6784 305.141 85.3314 309.528C84.5446 310.323 85.2198 312.522 85.2198 314.694C96.1848 309.248 91.9216 320.085 96.023 322.334V322.339ZM56.5098 270.266C55.7899 268.917 53.117 266.367 50.6952 268.495C48.7477 270.212 50.6171 272.334 51.4876 273.974C54.0043 278.679 54.021 283.928 55.0645 288.929C55.5053 291.057 53.4965 295.203 57.1905 294.249C59.3724 293.684 67.1288 297.188 65.0698 288.935C62.2797 282.677 59.7295 276.294 56.5098 270.261V270.266ZM106.14 173.755C103.506 168.841 106.871 163.099 103.026 158.41C101.971 157.127 102.792 154.401 104.326 152.8C105.331 151.753 106.491 150.765 104.862 149.531C103.796 148.725 102.295 147.656 101.229 147.87C99.5553 148.204 98.9973 150.557 99.3153 151.676C100.772 156.738 99.4213 159.112 94.1146 161.24C89.9406 162.913 90.7051 168.869 93.0767 171.375C96.6982 175.198 95.1748 168.617 97.8254 168.238C98.0151 173.476 103.383 171.298 106.14 173.761V173.755ZM483.488 435.358C475.28 441.533 476.257 451.481 472.724 459.51C472.127 460.865 471.603 462.916 473.26 463.876C475.419 465.121 476.842 463.037 477.59 461.688C479.655 457.964 481.926 455.765 486.842 456.593C489.482 457.037 491.859 455.43 487.802 453.072C486.909 452.551 486.641 451.92 486.753 450.873C487.579 443.233 483.567 448.29 481.095 448.915C478.617 443.628 485.207 440.332 483.477 435.358H483.488ZM506.088 518.137C510.58 513.036 520.117 512.312 518.883 502.095C518.365 497.79 523.331 493.825 521.707 488.242C514.43 491.697 513.582 499.084 510.134 504.47C508.315 507.316 512.098 506.877 514.207 507.459C506.925 507.579 506.228 512.636 506.088 518.142V518.137ZM499.933 546.775C497.651 545.711 495.218 546.643 493.449 547.883C490.709 549.802 493.254 551.799 494.001 553.762C494.883 556.093 494.66 558.402 492.21 559.608C487.344 561.999 490.748 565.91 491.864 567.297C493.722 569.611 496.234 567.27 498.053 565.389C501.406 561.917 501.909 557.36 503.131 553.466C502.952 550.526 502.545 547.982 499.939 546.77L499.933 546.775ZM419.406 545.426C417.374 538.466 419.288 531.353 417.464 524.52C417.04 522.93 417.748 520.44 414.975 520.55C412.642 520.637 411.928 522.99 412.101 524.542C413.234 534.99 410.812 546.501 420.762 555.133C423.206 550.779 420.204 548.135 419.411 545.426H419.406ZM104.471 23.8113C104.471 23.8113 104.265 23.5426 104.259 23.5371C110.398 22.0728 112.457 30.9298 119.192 29.1255C120.827 28.6868 120.565 32.3722 119.426 34.6097C124.722 30.6392 130.559 31.1437 136.2 30.2169C136.172 33.7268 132.746 33.1454 131.217 34.9552C139.286 35.5585 144.939 26.9922 141.697 19.9395C140.759 17.8993 139.247 19.2046 138.377 19.3472C135.899 19.742 133.516 20.8389 131.027 19.5227C129.03 18.4642 126.429 17.7622 125.877 15.3876C125.23 12.6071 128.288 12.6948 129.766 11.5047C132.64 9.19039 134.102 6.3386 132.238 2.61482C130.319 -1.22413 127.367 1.66605 125.152 1.22182C113.07 -1.2022 110.359 6.31118 107.663 14.9543C106.743 17.9103 104.778 20.5811 104.483 23.8168L104.471 23.8113ZM271.921 716.018C269.455 707.907 269.661 699.735 268.964 691.772C268.462 686.03 269.857 680.31 266.269 674.831C264.411 671.991 264.907 666.868 265.845 664.642C269.795 655.302 265.086 648.441 261.023 641.18C259.171 637.873 257.631 634.32 253.87 631.111C254.216 637.424 252.452 643.484 258.719 647.191C266.983 652.072 261.23 656.926 258.73 661.615C257.117 664.642 256.883 684.429 258.936 686.99C259.321 687.467 259.98 687.939 260.571 688.021C267.312 688.964 266.085 690.818 261.213 693.143C259.36 694.026 259.578 695.682 259.662 697.262C259.863 701.084 260.264 704.83 261.074 708.642C262.976 717.592 262.642 717.663 271.916 716.018H271.921ZM159.341 725.05C159.632 733.447 157.143 736.249 151.189 735.739C149.794 735.619 147.656 734.977 147.344 737.352C147.043 739.628 148.544 740.626 150.664 740.724C154.52 740.905 158.432 741.404 162.21 740.933C163.817 740.735 167.779 741.169 166.339 736.617C165.703 734.599 168.683 734.615 170.418 734.593C174.91 734.538 175.089 731.626 174.374 728.516C173.292 723.806 170.239 727.195 168.515 727.71C165.507 728.61 162.773 731.396 159.347 725.05H159.341ZM153.008 699.395C150.48 700.679 148.566 701.09 149.135 703.662C149.476 705.203 148.499 706.267 146.847 706.377C144.978 706.503 142.166 703.991 141.942 708.324C141.725 712.651 142.517 716.819 144.537 720.553C144.833 721.096 148.454 719.994 150.486 719.446C150.893 719.336 151.066 718.288 151.289 717.658C152.684 713.742 158.337 713.868 159.258 711.861C161.144 707.748 152.885 709.223 153.002 704.693C153.041 703.168 153.008 701.638 153.008 699.395Z" fill="white"/>
</mask>
<g mask="url(#mask0_53_100420)">
<path d="M613.713 -100.336H609.227V908.48H613.713V-100.336Z" fill="#21E03D"/>
<path d="M606.035 -100.336H601.549V908.48H606.035V-100.336Z" fill="#21E03D"/>
<path d="M598.35 -100.336H593.863V908.48H598.35V-100.336Z" fill="#21E03D"/>
<path d="M590.666 -100.336H586.18V908.48H590.666V-100.336Z" fill="#21E03D"/>
<path d="M582.983 -100.336H578.496V908.48H582.983V-100.336Z" fill="#21E03D"/>
<path d="M575.297 -100.336H570.811V908.48H575.297V-100.336Z" fill="#21E03D"/>
<path d="M567.615 -100.336H563.129V908.48H567.615V-100.336Z" fill="#21E03D"/>
<path d="M559.934 -100.336H555.447V908.48H559.934V-100.336Z" fill="#21E03D"/>
<path d="M552.246 -100.336H547.76V908.48H552.246V-100.336Z" fill="#21E03D"/>
<path d="M544.563 -100.336H540.076V908.48H544.563V-100.336Z" fill="#21E03D"/>
<path d="M536.885 -100.336H532.398V908.48H536.885V-100.336Z" fill="#21E03D"/>
<path d="M529.203 -100.336H524.717V908.48H529.203V-100.336Z" fill="#21E03D"/>
<path d="M521.516 -100.336H517.029V908.48H521.516V-100.336Z" fill="#21E03D"/>
<path d="M513.834 -100.336H509.348V908.48H513.834V-100.336Z" fill="#21E03D"/>
<path d="M506.149 -100.336H501.662V908.48H506.149V-100.336Z" fill="#21E03D"/>
<path d="M498.465 -100.336H493.979V908.48H498.465V-100.336Z" fill="#21E03D"/>
<path d="M490.777 -100.336H486.291V908.48H490.777V-100.336Z" fill="#21E03D"/>
<path d="M483.098 -100.336H478.611V908.48H483.098V-100.336Z" fill="#21E03D"/>
<path d="M475.418 -100.336H470.932V908.48H475.418V-100.336Z" fill="#21E03D"/>
<path d="M467.734 -100.336H463.248V908.48H467.734V-100.336Z" fill="#21E03D"/>
<path d="M460.051 -100.336H455.564V908.48H460.051V-100.336Z" fill="#21E03D"/>
<path d="M452.367 -100.336H447.881V908.48H452.367V-100.336Z" fill="#21E03D"/>
<path d="M444.684 -100.336H440.197V908.48H444.684V-100.336Z" fill="#21E03D"/>
<path d="M437 -100.336H432.514V908.48H437V-100.336Z" fill="#21E03D"/>
<path d="M429.317 -100.336H424.83V908.48H429.317V-100.336Z" fill="#21E03D"/>
<path d="M421.633 -100.336H417.146V908.48H421.633V-100.336Z" fill="#21E03D"/>
<path d="M413.947 -100.336H409.461V908.48H413.947V-100.336Z" fill="#21E03D"/>
<path d="M406.272 -100.336H401.785V908.48H406.272V-100.336Z" fill="#21E03D"/>
<path d="M398.584 -100.336H394.098V908.48H398.584V-100.336Z" fill="#21E03D"/>
<path d="M390.902 -100.336H386.416V908.48H390.902V-100.336Z" fill="#21E03D"/>
<path d="M383.217 -100.336H378.73V908.48H383.217V-100.336Z" fill="#21E03D"/>
<path d="M375.533 -100.336H371.047V908.48H375.533V-100.336Z" fill="#21E03D"/>
<path d="M367.85 -100.336H363.363V908.48H367.85V-100.336Z" fill="#21E03D"/>
<path d="M360.168 -100.336H355.682V908.48H360.168V-100.336Z" fill="#21E03D"/>
<path d="M352.483 -100.336H347.996V908.48H352.483V-100.336Z" fill="#21E03D"/>
<path d="M344.803 -100.336H340.316V908.48H344.803V-100.336Z" fill="#21E03D"/>
<path d="M337.119 -100.336H332.633V908.48H337.119V-100.336Z" fill="#21E03D"/>
<path d="M329.438 -100.336H324.951V908.48H329.438V-100.336Z" fill="#21E03D"/>
<path d="M321.752 -100.336H317.266V908.48H321.752V-100.336Z" fill="#21E03D"/>
<path d="M314.068 -100.336H309.582V908.48H314.068V-100.336Z" fill="#21E03D"/>
<path d="M306.387 -100.336H301.9V908.48H306.387V-100.336Z" fill="#21E03D"/>
<path d="M298.699 -100.336H294.213V908.48H298.699V-100.336Z" fill="#21E03D"/>
<path d="M291.018 -100.336H286.531V908.48H291.018V-100.336Z" fill="#21E03D"/>
<path d="M283.338 -100.336H278.852V908.48H283.338V-100.336Z" fill="#21E03D"/>
<path d="M275.654 -100.336H271.168V908.48H275.654V-100.336Z" fill="#21E03D"/>
<path d="M267.971 -100.336H263.484V908.48H267.971V-100.336Z" fill="#21E03D"/>
<path d="M260.285 -100.336H255.799V908.48H260.285V-100.336Z" fill="#21E03D"/>
<path d="M252.604 -100.336H248.117V908.48H252.604V-100.336Z" fill="#21E03D"/>
<path d="M244.916 -100.336H240.43V908.48H244.916V-100.336Z" fill="#21E03D"/>
<path d="M237.234 -100.336H232.748V908.48H237.234V-100.336Z" fill="#21E03D"/>
<path d="M229.553 -100.336H225.066V908.48H229.553V-100.336Z" fill="#21E03D"/>
<path d="M221.869 -100.336H217.383V908.48H221.869V-100.336Z" fill="#21E03D"/>
<path d="M214.188 -100.336H209.701V908.48H214.188V-100.336Z" fill="#21E03D"/>
<path d="M206.504 -100.336H202.018V908.48H206.504V-100.336Z" fill="#21E03D"/>
<path d="M198.822 -100.336H194.336V908.48H198.822V-100.336Z" fill="#21E03D"/>
<path d="M191.137 -100.336H186.65V908.48H191.137V-100.336Z" fill="#21E03D"/>
<path d="M183.451 -100.336H178.965V908.48H183.451V-100.336Z" fill="#21E03D"/>
<path d="M175.77 -100.336H171.283V908.48H175.77V-100.336Z" fill="#21E03D"/>
<path d="M168.086 -100.336H163.6V908.48H168.086V-100.336Z" fill="#21E03D"/>
<path d="M160.401 -100.336H155.914V908.48H160.401V-100.336Z" fill="#21E03D"/>
<path d="M152.725 -100.336H148.238V908.48H152.725V-100.336Z" fill="#21E03D"/>
<path d="M145.039 -100.336H140.553V908.48H145.039V-100.336Z" fill="#21E03D"/>
<path d="M137.356 -100.336H132.869V908.48H137.356V-100.336Z" fill="#21E03D"/>
<path d="M129.67 -100.336H125.184V908.48H129.67V-100.336Z" fill="#21E03D"/>
<path d="M121.988 -100.336H117.502V908.48H121.988V-100.336Z" fill="#21E03D"/>
<path d="M114.305 -100.336H109.818V908.48H114.305V-100.336Z" fill="#21E03D"/>
<path d="M106.619 -100.336H102.133V908.48H106.619V-100.336Z" fill="#21E03D"/>
<path d="M98.9376 -100.336H94.4512V908.48H98.9376V-100.336Z" fill="#21E03D"/>
<path d="M91.258 -100.336H86.7715V908.48H91.258V-100.336Z" fill="#21E03D"/>
<path d="M83.5744 -100.336H79.0879V908.48H83.5744V-100.336Z" fill="#21E03D"/>
<path d="M75.8888 -100.336H71.4023V908.48H75.8888V-100.336Z" fill="#21E03D"/>
<path d="M68.2052 -100.336H63.7188V908.48H68.2052V-100.336Z" fill="#21E03D"/>
<path d="M60.5216 -100.336H56.0352V908.48H60.5216V-100.336Z" fill="#21E03D"/>
<path d="M52.8361 -100.336H48.3496V908.48H52.8361V-100.336Z" fill="#21E03D"/>
<path d="M45.1544 -100.336H40.668V908.48H45.1544V-100.336Z" fill="#21E03D"/>
<path d="M37.4708 -100.336H32.9844V908.48H37.4708V-100.336Z" fill="#21E03D"/>
<path d="M29.7872 -100.336H25.3008V908.48H29.7872V-100.336Z" fill="#21E03D"/>
<path d="M22.1076 -100.336H17.6211V908.48H22.1076V-100.336Z" fill="#21E03D"/>
<path d="M14.424 -100.336H9.9375V908.48H14.424V-100.336Z" fill="#21E03D"/>
<path d="M6.74037 -100.336H2.25391V908.48H6.74037V-100.336Z" fill="#21E03D"/>
</g>
</svg>
