<svg width="836" height="436" viewBox="0 0 836 436" fill="none" xmlns="http://www.w3.org/2000/svg">
<mask id="mask0_52_11592" style="mask-type:luminance" maskUnits="userSpaceOnUse" x="0" y="0" width="836" height="461">
<path d="M781.177 365.866C782.676 367.062 784.816 367.401 787.342 368.69H770.39C769.826 369.898 770.689 370.111 771.296 370.456C771.774 370.726 772.238 371.019 772.801 371.365C771.217 372.521 769.691 371.963 768.207 371.865C765.916 371.721 763.533 371.284 761.821 373.13C760.929 374.097 759.902 374.051 759.096 372.935C758.718 372.406 758.332 371.853 757.811 371.411C756.77 370.507 755.578 369.719 754.565 368.799C752.839 367.229 752.482 369.392 751.619 369.392C749.892 369.403 751.162 366.475 749.022 367.033C745.839 367.862 743.792 367.597 742.529 365.037C742.265 364.497 741.53 364.629 740.852 364.865C737.1 366.147 734.067 364.893 732.355 361.862C731.278 359.947 730.45 357.439 726.526 357.801C726.098 357.841 725.463 357.6 725.17 357.329C722.288 354.712 721.696 356.403 721.51 358.992C719.755 357.496 720.533 355.385 718.121 354.591C717.665 355.207 718.607 356.507 716.752 356.72C714.376 356.99 713.227 355.771 711.686 353.982C711.351 356.961 709.232 356.449 706.884 355.886C707.676 358.1 711.593 358.486 710.716 361.235C708.461 360.522 707.277 358.721 704.972 358.313C703.909 358.123 702.839 357.14 701.961 358.348C701.155 359.458 701.162 360.723 701.904 361.862C702.439 362.685 703.253 363.306 704.723 363.007C707.755 362.391 707.741 362.432 707.947 364.893C708.005 365.584 708.889 366.165 709.538 365.94C714.205 364.335 716.002 368.218 719.399 369.012C720.583 369.288 721.503 370.231 722.688 370.577C725.085 371.273 724.871 372.526 724.336 374.028C724.107 374.672 722.11 375.328 723.815 375.926C725.149 376.392 726.983 376.127 727.939 374.919C728.317 374.448 728.26 373.769 728.424 373.182C728.709 372.164 729.63 371.491 730.85 371.497C732.348 371.508 732.205 372.544 732.005 373.338C731.756 374.333 732.191 374.885 733.411 375.155C733.903 375.264 734.61 375.397 734.774 375.679C736.757 379.101 739.04 380.925 742.95 376.95C743.521 376.369 744.405 376.841 744.941 377.335C745.911 378.227 747.159 378.854 748.593 378.952C750.919 379.113 751.469 379.964 750.827 381.58C750.506 382.38 750.313 383.22 751.661 383.617C753.16 384.059 753.138 383.093 753.709 382.426C755.386 380.459 761.985 380.706 764.604 382.754C765.239 383.254 765.652 383.933 766.316 384.405C767.579 385.308 768.742 385.451 768.756 383.726C768.77 380.706 771.86 381.661 773.829 381.367C774.778 381.224 775.163 382.219 775.348 382.915C775.605 383.893 774.749 384.111 773.757 384.232C773.015 384.318 772.173 384.123 771.51 384.727C771.767 385.854 772.837 386.585 773.814 387.378C776.761 389.765 776.212 391.324 772.138 392.377C770.554 392.785 768.563 392.578 767.115 394.177C774.157 393.217 780.186 394.275 785.622 397.174C787.92 398.399 789.204 396.461 790.153 395.966C792.7 394.655 795.254 394.505 797.937 394.632C802.168 394.833 806.163 394.114 810.18 393.246C812.698 392.705 813.476 391.56 813.162 389.65C811.571 380.004 810.037 370.358 808.453 360.712C806.669 349.852 804.993 338.986 803.002 328.149C801.861 321.937 800.555 315.748 800.241 309.466C800.22 308.995 799.735 308.54 799.549 308.063C798.215 304.583 797.166 301.137 801.276 298.209C801.832 297.813 803.017 297.18 801.561 296.576C800.741 296.231 799.72 296.173 799.677 297.341C799.656 297.882 799.307 298.526 798.557 298.186C796.296 297.163 797.765 294.988 796.374 293.516C795.518 292.607 797.252 292.331 798.222 292.181C808.018 290.628 817.757 288.874 827.66 287.764C829.215 287.591 830.192 287.798 830.542 289.087C830.792 290.001 830.649 290.893 829.301 290.881C828.509 290.876 827.438 292.268 826.482 290.266C825.669 288.552 822.466 289.282 820.261 289.932C818.092 290.571 819.326 291.295 820.04 292.181C821.838 294.407 817.942 293.619 817.707 295.075C818.527 297.375 822.73 294.902 823.864 297.214C822.651 298.152 820.675 297.623 819.512 298.957C821.738 300.412 824.128 299.325 826.375 299.256C827.346 299.228 828.594 298.658 828.894 299.901C829.158 300.999 828.273 301.511 826.953 301.793C825.412 302.121 823.65 301.666 822.016 302.529C823.85 303.737 826.347 302.489 827.638 303.691C829.179 305.123 825.369 305.808 826.368 307.35C827.788 308.299 830.164 305.21 830.727 307.729C831.134 309.553 828.344 309.368 826.668 309.725C825.355 310.001 824.092 310.433 821.895 311.054C825.826 311.272 828.666 309.955 832.49 310.887C828.78 312.21 826.34 314.402 822.473 313.09C821.538 312.774 820.475 312.774 820.389 313.752C820.311 314.614 821.381 314.413 822.13 314.43C823.992 314.476 825.89 315.385 827.702 314.218C827.966 314.045 828.444 314.022 828.83 314.028C829.593 314.033 835.807 318.808 835.814 319.423C835.857 321.448 835.836 323.478 835.85 325.503C835.857 326.935 834.951 327.47 833.146 327.378C831.341 327.286 829.522 327.309 827.71 327.39C826.775 327.43 825.769 327.775 826.176 328.719C826.432 329.311 827.289 329.61 828.13 329.357C828.851 329.144 829.457 328.678 830.178 328.506C834.109 327.58 835.872 328.563 835.872 331.646C835.886 347.327 835.879 363.007 835.9 378.681C835.929 403.847 835.971 429.012 836 454.177C836 459.187 835.95 459.245 829.422 459.245C766.737 459.222 704.052 459.28 641.367 459.044C633.89 459.015 626.356 458.952 618.879 458.503C617.444 458.417 613.328 459.13 616.774 456.012C617.594 455.27 616.11 453.976 615.497 453.01C614.855 452.009 612.95 451.094 615.304 450.07C617.18 449.248 619.271 449.116 620.455 450.749C622.025 452.912 624.008 454.057 627.198 453.28C627.647 454.712 623.866 454.454 625.664 455.846C627.212 457.042 629.074 458.681 631.757 457.698C633.74 456.973 635.502 455.27 634.725 453.884C633.662 451.997 633.861 450.111 633.447 448.264C632.663 444.767 628.175 443.185 626.941 439.918C626.634 439.095 625.193 438.641 626.163 437.427C626.891 436.513 625.856 435.247 625.207 434.994C621.426 433.527 623.737 430.226 621.611 428.247C620.784 427.476 624.308 425.595 626.534 425.733C627.126 425.112 626.57 424.571 626.284 424.042C625.771 423.099 626.341 422.443 627.205 421.931C628.089 421.402 628.903 421.753 629.659 422.236C630.258 422.61 630.872 423.145 631.55 423.22C632.62 423.346 634.033 423.95 634.796 423.024C635.481 422.184 633.947 421.695 633.669 421.068C630.908 414.971 623.973 416.116 618.079 415.368C607.456 414.016 596.775 413.044 586.073 412.164C584.704 412.049 583.712 411.399 582.777 410.657C573.374 403.179 560.967 402.294 550.193 408.322C548.581 409.225 546.619 409.259 544.971 408.966C534.226 407.051 523.224 407.741 512.365 406.918C503.854 406.274 495.635 404.313 487.059 404.082C481.608 403.933 476.179 403.461 470.735 403.191C468.915 403.099 466.797 403.542 467.481 401.086C467.738 400.165 466.689 400.2 465.919 400.263C465.113 400.326 461.781 404.635 462.259 404.801C465.298 405.86 463.864 409.852 468.416 410.093C470.749 410.22 471.648 412.239 471.784 414.08C471.841 414.85 471.291 415.926 472.725 416.093C474.331 416.277 474.866 415.213 475.244 414.189C475.515 413.441 475.108 412.55 475.986 411.911C477.498 413.453 477.463 413.407 479.468 412.118C480.552 411.422 481.394 412.015 482.008 412.762C482.671 413.568 482.428 415.103 484.055 415.08C485.917 415.052 484.954 413.142 486.203 412.475C487.829 412.728 487.858 413.896 488.265 414.793C489.042 416.501 490.02 417.818 492.788 416.904C493.123 416.795 493.801 416.72 493.894 416.841C496.17 419.671 500.251 418.169 503.369 419.078C506.686 420.05 510.375 421.143 514.228 420.925C514.756 420.896 515.547 421.264 515.84 421.632C517.524 423.76 518.244 423.881 518.794 421.132C519.079 419.722 524.965 419.613 525.636 421.028C526.442 422.742 527.855 423.432 529.945 423.588C531.287 423.686 532.078 424.163 532.364 425.216C533.727 430.243 537.879 433.919 542.388 437.715C543.194 435.736 540.911 434.074 541.917 432.21C542.36 431.399 541.011 429.881 542.524 429.53C543.779 429.236 545.727 429.213 546.804 430.237C547.86 431.238 548.852 431.296 550.165 430.709C552.954 429.461 556.072 430.686 555.972 433.269C555.922 434.609 556.643 435.213 557.699 435.65C559.062 436.208 558.841 434.868 559.426 434.454C560.867 433.435 566.089 434.143 567.074 435.541C567.452 436.081 567.302 436.559 566.403 436.593C564.484 436.668 563.671 438.963 561.316 438.106C560.046 440.579 558.605 443.007 557.599 445.544C557.25 446.418 558.006 446.659 559.397 445.935C560.653 445.279 561.181 446.027 561.452 446.585C562.194 448.086 564.07 449.61 561.659 451.238C560.203 452.216 558.42 452.998 558.248 454.764C558.177 455.535 557.357 456.455 558.626 456.95C560.125 457.531 561.602 456.588 563.157 456.645C564.348 456.691 564.077 455.892 563.949 455.293C563.785 454.5 563.421 453.706 564.777 453.234C567.902 452.141 569.45 450.531 567.58 447.81C567.388 447.534 567.68 447.051 567.766 446.573C570.998 449.11 571.019 449.219 569.421 452.538C568.151 455.173 570.299 457.33 575.136 458.468C518.48 459.141 461.824 459.308 405.146 458.946C407.329 457.617 409.691 458.014 412.074 458.353C413.351 458.532 414.778 458.745 415.584 457.657C416.333 456.645 415.227 455.851 414.928 454.937C413.822 451.566 411.025 452.314 408.05 452.688C403.548 453.257 400.901 451.589 400.851 447.833C398.732 450.462 396.199 452.147 393.203 453.504C392.154 453.982 391.319 454.431 390.085 454.373C388.529 454.298 387.609 454.879 387.538 456.133C387.466 457.485 388.815 457.065 389.735 457.427C391.662 458.187 393.531 458.768 395.75 458.825C379.775 460.188 363.872 459.274 347.976 459.694C347.969 459.366 347.955 459.044 347.948 458.716H362.581C361.339 456.726 361.382 454.477 357.708 455.316C356.324 455.633 355.917 454.845 355.953 453.878C355.981 452.866 355.96 451.859 355.96 450.525C354.604 451.296 355.532 453.148 353.605 452.975C351.95 452.826 352.05 451.508 351.636 450.6C350.973 449.116 349.746 448.69 348.069 449.512C346.2 450.427 346.492 449.029 346.335 448.5C345.793 446.648 345.265 444.871 341.876 444.917C345.45 442.673 344.858 442.161 342.839 439.038C341.498 436.973 339.357 435.213 339.343 432.107C339.322 427.729 338.287 423.082 336.775 418.71C335.569 415.219 331.238 416.07 328.163 416.133C325.866 416.179 323.362 415.903 321.014 416.818C319.195 417.531 318.168 416.449 317.939 415.069C317.797 414.2 317.911 413.303 317.911 412.417C319.63 412.36 319.231 413.798 320.486 413.947C320.486 413.947 320.608 413.947 320.729 413.947C320.643 411.865 324.218 410.128 322.812 408.425C320.964 406.193 318.995 403.45 314.743 403.202C314.5 403.191 314.272 403.076 313.587 402.886C319.131 400.746 325.659 401.258 330.589 397.962C331.78 399.607 330.346 401.828 331.916 403.737C333.008 402.961 333.593 402.288 332.786 401.137C331.181 398.854 331.509 396.478 332.358 394.062C332.943 392.388 332.779 390.904 331.474 389.225C329.362 386.521 331.788 383.438 330.946 380.556C327.293 380.976 326.13 382.253 326.972 385.158C327.172 385.843 327.435 386.55 327.407 387.24C327.357 388.293 328.07 389.691 326.372 390.249C324.225 390.95 324.51 389 323.54 388.391C319.388 385.791 319.295 382.345 319.587 378.566C319.73 376.702 320.001 374.505 315.014 374.557C312.039 374.586 307.615 375.558 304.64 373.096C303.941 372.521 302.8 372.785 302.5 373.665C302.072 374.919 300.438 375.449 299.639 376.806C302.664 377.209 304.191 379.417 307.13 380.027C308.921 380.401 309.135 381.488 307.259 382.368C305.867 383.018 307.095 385.463 305.24 385.158C302.614 384.732 305.575 383.231 305.09 382.155C304.804 381.523 304.562 381.034 303.706 380.873C303.078 380.752 302.279 380.832 301.815 380.556C299.846 379.377 298.333 377.629 295.501 379.947C293.517 381.575 292.618 383.214 292.661 385.336C292.661 385.624 292.49 385.917 292.255 386.636C289.793 383.91 285.584 385.308 282.601 383.473C281.26 382.65 281.217 385.112 279.819 385.745C278.72 386.239 280.24 386.82 280.989 387.079C281.695 387.321 282.509 387.608 283.229 387.545C287.66 387.131 287.774 388.396 286.069 391.152C283.243 395.713 284.021 397.082 288.809 400.505C291.477 402.414 291.705 405.388 292.461 408.04C292.568 408.42 291.969 409.052 291.584 408.845C288.209 407.033 288.587 409.656 288.067 410.749C286.661 413.671 282.872 413.596 280.482 413.453C275.716 413.159 276.915 415.046 277.85 417.68C274.846 415.713 272.413 417.283 269.895 417.214C268.339 417.168 268.168 419.216 267.79 420.447C267.405 421.695 266.919 422.593 265.435 421.143C263.944 419.676 260.898 419.883 260.27 417.433C257.923 420.919 253.406 419.619 250.545 421.224C249.846 421.615 248.64 421.5 248.034 421.931C246.736 422.863 245.665 423.933 247.891 425.118C249.275 425.854 250.488 426.797 251.758 427.666C253.257 428.69 253.563 429.766 252.194 431.083C250.952 432.273 249.632 432.314 248.091 431.595C247.049 431.106 246.258 430.122 244.709 431.066C243.282 431.928 242.626 432.981 243.154 434.229C244.881 438.307 242.398 442.248 242.683 446.274C242.726 446.844 242.59 447.66 241.584 447.626C240.507 447.591 240.621 446.774 240.75 446.199C241.385 443.381 240.136 442.363 236.34 441.477C232.202 440.51 231.995 436.553 230.882 433.568C230.49 432.504 231.953 430.669 229.748 430.467C226.873 430.203 223.669 429.679 221.008 430.749C219.474 431.365 220.744 432.699 221.729 433.55C222.428 434.154 223.933 433.418 224.34 434.488C222.242 437.053 218.161 436.95 215.279 438.555C213.752 439.406 213.859 439.682 214.23 440.695C214.608 441.718 213.995 442.57 212.675 442.794C211.234 443.041 210.556 442.179 210.213 441.264C209.764 440.062 210.128 438.848 210.37 437.646C210.584 436.616 210.22 435.725 208.701 435.679C207.381 435.633 206.332 435.926 205.768 437.186C203.963 441.212 206.931 444.376 209.557 447.028C211.647 449.144 210.784 445.382 212.404 445.325C214.023 446.671 214.202 451.077 212.589 452.325C211.762 452.964 210.912 452.895 210.285 452.187C207.866 449.461 206.189 450.283 204.249 452.665C202.515 454.793 196.593 455.069 194.296 453.418C193.475 452.831 192.455 452.619 191.406 452.9C190.993 453.01 190.472 453.401 190.422 453.712C190.251 454.701 191.299 455.115 192.184 455.506C197.863 458.014 203.471 459.958 210.52 458.825C215.479 458.026 220.815 458.67 225.988 458.67C225.988 459.026 225.988 459.389 225.995 459.745C214.758 459.745 203.514 459.745 192.277 459.745C180.833 459.745 169.389 459.757 157.945 459.763C146.501 459.763 135.064 459.705 123.62 459.791C112.347 459.878 101.06 460.476 89.8091 460.2C78.5292 459.924 67.2065 460.091 55.9481 459.872C45.032 459.659 33.902 459.918 22.8718 460.2C29.7068 459.469 36.5846 459.751 43.441 459.452C47.6433 459.268 48.0785 458.29 47.3437 455.725C47.151 455.046 46.9869 454.356 46.78 453.562C44.3899 454.16 45.1034 456.191 43.6194 457.169C44.3757 455.345 40.209 453.251 44.975 451.623C41.8072 451.008 38.7107 450.588 41.957 447.781C42.4208 447.378 41.9356 446.803 41.4719 446.429C40.2946 445.469 39.6882 444.445 40.6585 443.145C40.8369 442.903 40.9724 442.414 40.8083 442.282C36.9628 439.245 39.8238 435.817 39.9664 432.596C40.0663 430.485 40.2661 427.925 44.5326 428.178C44.8465 428.195 45.5029 427.873 45.4815 427.804C44.4684 424.364 47.572 425.469 49.6981 425.405C50.4686 425.382 51.3391 425.078 51.282 424.33C51.232 423.599 50.3473 423.461 49.5625 423.352C48.0357 423.133 46.5446 424.082 44.0118 423.059C48.2284 422.133 51.5745 421.304 55.256 421.897C59.8864 422.644 64.9163 418.699 63.8033 415.184C63.4323 414.028 62.2836 413.591 61.035 413.269C59.5938 412.9 59.6295 414.028 58.9589 414.482C56.5402 416.127 53.1655 416.058 50.2475 416.818C47.9002 417.427 45.1819 416.818 42.9273 418.376C41.5931 419.297 40.2804 418.135 40.2162 417.117C40.0378 414.252 40.1234 411.376 40.3018 408.512C40.3517 407.729 41.1437 406.751 40.3018 406.216C37.2196 404.272 35.2504 401.655 31.0196 400.298C24.7268 398.273 19.3331 399.579 13.3257 400.119C9.82972 400.43 5.9556 400.039 2.20992 400.177C-0.101707 400.263 -0.843715 396.041 1.16825 394.172C3.19449 392.291 6.06262 391.439 9.03776 391.25C12.2912 391.042 15.7515 392.941 18.7837 390.582C21.6447 392.291 25.9112 392.233 28.0302 394.724C29.5998 396.57 30.934 396.749 32.9745 395.362C33.9947 394.666 35.3789 394.678 36.6488 394.465C38.4539 394.166 40.1805 393.642 41.1793 392.325C43.5195 389.231 41.693 386.843 36.763 386.429C42.9273 384.548 49.4127 383.248 55.5414 380.648C56.3048 381.367 57.5605 382.363 57.1395 383.778C56.2834 386.642 58.5522 386.021 60.4857 385.676C62.3764 385.336 64.2813 384.98 66.065 384.399C67.8486 383.818 69.4539 383.605 70.3743 385.147C71.3161 386.723 69.7108 387.896 68.5692 388.88C67.3492 389.927 65.7082 389.541 64.3527 388.696C64.053 388.512 63.789 388.27 63.5821 388.011C62.9543 387.229 62.2194 387.108 61.349 387.752C60.5998 388.31 60.8424 388.885 61.5273 389.305C63.9959 390.818 63.5108 394.022 66.9996 395.006C67.9842 395.282 66.9996 395.73 66.6571 396.11C65.7082 397.157 65.3729 398.681 66.4217 399.383C67.5561 400.142 69.5824 400.395 71.1306 399.446C73.8132 397.795 77.9656 397.042 77.3092 393.309C77.2378 392.889 77.8942 392.486 78.3865 392.693C81.3188 393.895 81.7184 392.296 81.9324 390.715C82.2392 388.5 85.2072 389.518 86.3274 388.379C88.2965 386.377 89.4095 387.839 90.9149 388.891C93.0767 390.398 94.9674 389.179 95.3741 387.689C95.8735 385.883 97.7571 385.566 98.8843 385.664C100.775 385.825 100.147 387.505 100.333 388.615C100.433 389.213 100.525 389.817 100.697 390.41C100.868 391.014 101.175 391.635 102.059 391.761C102.972 391.888 103.322 391.301 103.814 390.807C105.791 388.805 107.874 388.719 109.786 390.473C110.007 390.68 110.464 391.025 110.549 390.979C115.03 388.811 116.749 391.911 119.239 393.671C120.495 394.557 120.816 393.176 121.594 392.872C122.835 392.383 124.491 391.342 124.041 393.706C123.891 394.494 124.783 394.712 124.933 395.132C125.711 397.295 128.857 399.475 125.118 401.747C124.255 402.276 123.955 403.237 124.227 403.99C125.732 408.166 122.022 408.92 118.269 409.685C117.677 409.806 116.964 409.766 116.55 410.485C117.734 411.278 118.911 410.72 120.06 410.444C120.823 410.26 121.63 410.059 122.165 410.692C122.636 411.25 122.507 411.923 121.986 412.406C121.002 413.309 120.567 414.235 120.802 415.466C121.237 417.744 122.343 416.714 123.477 415.88C123.934 416.053 124.384 416.225 124.84 416.398C126.089 418.112 128.572 418.376 130.312 418.031C134.03 417.289 137.911 417.657 141.535 416.697C142.705 416.386 143.747 415.995 144.353 417.307C145.966 420.827 146.851 424.318 144.71 427.948C143.818 429.455 143.034 430.3 141.114 428.805C140.016 427.954 138.681 427.982 137.54 428.592C136.177 429.323 136.605 430.41 137.254 431.324C138.717 433.384 138.111 434.799 135.285 435.633C132.396 436.484 132.082 438.612 131.34 440.516C130.997 441.385 131.59 441.81 132.567 442.121C134.615 442.76 136.612 443.502 138.667 444.117C141.585 444.997 142.277 446.383 140.073 447.982C136.941 450.254 137.568 453.539 135.913 456.202C135.178 457.381 136.976 457.801 138.467 458.296C139.081 457.186 138.039 455.466 140.344 455.063C141.029 455.161 140.772 455.633 140.736 455.995C140.593 457.462 141.685 458.164 143.312 458.014C145.103 457.847 145.317 456.536 145.288 455.42C145.267 454.471 144.453 453.752 143.454 453.188C142.391 452.59 141.992 451.762 142.427 450.778C142.941 449.599 144.246 449.432 145.595 449.426C146.373 449.426 147.172 449.455 147.921 449.599C150.846 450.162 151.759 448.937 151.652 446.982C151.488 444.036 152.152 441.77 156.24 440.39C158.937 439.481 157.289 437.393 156.432 435.84C155.348 433.878 152.801 432.256 154.249 429.61C156.382 430.335 156.689 432.043 157.681 433.47C158.523 430.807 160.421 428.799 162.147 426.688C163.21 425.388 164.395 424.548 166.371 424.313C168.276 424.088 169.853 423.478 170.088 421.701C170.216 420.723 171.28 420.096 172.257 420.309C175.646 421.034 179.777 420.286 182.11 423.243C183.023 424.399 184.985 424.514 186.269 424.698C187.668 424.899 187.761 423.099 188.217 422.063C188.574 421.27 187.953 419.998 189.573 419.803C190.971 419.63 191.035 420.718 191.435 421.431C191.756 422.006 192.291 422.023 193.026 421.908C196.344 421.402 196.344 421.425 197.949 423.363C198.434 422 199.932 420.867 198.769 419.331C198.598 419.107 198.57 418.543 198.712 418.486C203.699 416.455 199.961 413.038 200.767 410.346C201.238 408.776 200.567 406.987 203.728 406.924C204.149 406.918 204.791 406.596 204.941 406.303C206.04 404.117 204.334 401.937 204.955 399.682C205.776 396.703 202.95 395.88 200.025 395.27C199.29 395.121 198.27 395.08 198.22 394.356C198.149 393.315 199.376 393.493 200.211 393.355C201.274 393.176 202.979 393.608 203.079 392.377C203.193 391.014 201.259 391.485 200.332 391.278C197.713 390.68 194.788 389.576 193.09 392.624C192.612 393.481 190.807 393.493 190.493 392.757C189.523 390.479 187.696 391.065 185.906 391.71C184.992 390.772 186.048 390.508 186.426 390.053C187.925 388.247 186.961 387.378 184.543 387.275C182.238 387.177 179.962 386.993 178.022 388.563C176.103 390.116 175.104 389.202 174.911 387.424C174.74 385.837 175.232 384.128 173.491 382.834C172.421 382.748 172.685 383.432 172.514 383.847C171.629 385.963 169.938 386.435 168.668 384.353C166.663 381.068 161.298 380.861 159.315 377.473C158.601 376.254 155.776 376.881 153.85 377.318C150.882 377.991 148.085 379.049 145.01 379.515C143.233 379.786 141.706 380.585 141.928 382.466C142.199 384.755 138.945 386.976 141.664 389.34C139.823 389.742 138.546 390.703 137.112 391.664C135.464 392.762 134.543 395.702 136.191 395.748C138.995 395.834 137.932 397.191 137.718 397.813C137.312 398.969 135.842 398.365 134.743 398.474C133.373 398.612 131.19 396.173 130.576 399.147C130.576 399.164 129.585 399.17 129.192 398.998C128.272 398.578 127.894 397.726 128.586 397.18C132.638 393.982 127.922 390.968 128.3 387.844C128.393 387.079 127.209 386.078 126.017 385.958C122.607 385.618 121.722 383.582 120.866 381.551C119.981 379.435 119.475 377.26 115.786 376.915C114.21 376.766 114.474 375.713 115.087 374.758C116.65 372.325 115.451 370.398 111.969 370.341C105.241 370.231 98.5989 369.334 91.7639 369.875C86.5842 370.283 81.2475 368.903 75.8894 369.581C73.485 369.886 71.0235 370.507 68.5621 369.823C67.4848 369.524 65.4228 370.001 65.6583 368.5C65.8367 367.35 66.9853 366.084 68.7833 366.176C72.636 366.377 71.8583 365.158 70.1602 363.691C68.8475 362.558 68.3695 361.419 69.6537 360.165C71.3731 358.48 72.3863 355.673 75.6753 355.972C77.9085 356.173 79.6279 356.3 81.1904 354.706C82.1464 357.64 85.6638 358.296 87.2192 360.338C87.6758 360.93 88.639 360.424 89.3025 360.102C94.4894 357.6 96.2588 353.481 94.1327 348.511C92.4346 349.57 93.9115 350.818 93.6546 351.882C93.3764 353.01 93.1623 354.2 91.6712 354.666C90.1372 355.144 88.9458 354.183 87.8042 353.596C86.1133 352.722 87.8684 351.888 87.9897 351.014C88.2965 348.788 89.9089 347.396 92.0137 346.13C92.6915 345.727 93.6047 345.095 92.9055 344.341C92.1778 343.559 91.3287 344.048 90.5939 344.543C89.7163 345.124 88.6176 346.027 87.5902 345.147C86.3345 344.071 88.0539 343.68 88.8459 343.11C89.0742 342.943 89.0956 342.604 89.2169 342.345C85.9064 341.81 88.0468 338.641 85.3785 337.577C84.1584 337.094 83.3522 335.506 84.6935 334.379C86.0705 333.222 87.4546 334.338 88.4249 334.965C90.0088 335.983 92.3419 336.265 93.2694 337.905C93.99 339.176 95.0887 339.809 96.4443 338.578C97.4859 337.634 100.482 336.996 98.0068 335.08C96.7083 334.074 97.3647 333.263 98.5775 332.992C103.094 331.991 102.123 328.92 101.332 327.056C100.197 324.387 101.945 321.643 100.111 319.038C99.6049 318.313 100.161 317.048 98.6418 316.363C97.3789 315.794 97.8641 314.96 98.6846 314.333C99.5479 313.671 100.682 312.992 101.653 314.033C102.716 315.172 103.957 315.868 105.698 316.196C106.847 316.415 107.26 317.249 107.296 318.1C107.339 319.118 106.575 319.555 105.306 319.486C104.663 319.452 103.893 319.325 103.85 320.073C103.814 320.689 104.036 321.304 104.77 321.661C105.398 321.966 105.933 321.805 106.533 321.465C108.987 320.09 110.214 318.066 110.614 315.914C110.863 314.574 110.086 313.142 107.46 313.188C105.99 313.211 103.693 313.78 103.386 311.813C103.087 309.898 105.413 309.938 106.868 309.19C108.951 308.126 110.549 308.241 112.49 309.656C112.397 308.161 112.576 307.016 111.534 306.142C110.792 305.52 109.914 304.502 108.873 305.969C108.48 306.521 108.01 307.125 107.103 306.711C106.283 306.331 106.704 305.63 106.79 305.043C106.939 304.042 107.474 302.771 106.376 302.161C104.92 301.356 104.014 302.823 103.294 303.404C100.718 305.48 97.1649 304.37 94.1826 305.21C92.6986 305.63 95.3099 303.593 94.1327 302.431C92.1421 303.507 90.1301 303.559 88.3607 301.914C87.8684 301.454 86.9837 301.413 86.1632 301.597C84.3867 302 84.03 304.853 81.6542 303.657C79.7135 302.679 78.1867 303.76 76.2318 303.461C76.9667 301.931 76.2961 299.86 79.5138 299.67C80.4056 299.619 80.6196 299.193 80.3699 298.635C79.5566 296.812 77.4947 297.174 75.7467 297.168C74.441 297.163 72.9499 297.255 73.3138 298.808C73.4636 299.463 74.2769 300.24 72.7287 300.436C71.5872 300.579 70.36 300.723 69.668 299.647C69.2613 299.015 68.8903 298.353 68.348 297.801C67.7131 297.157 66.9354 296.507 65.7154 296.984C64.7451 297.37 64.5524 298.014 64.9591 298.79C65.1874 299.233 65.644 299.786 64.6166 299.952C63.9388 300.062 63.2967 299.826 62.9899 299.32C62.7188 298.871 62.412 298.353 62.4406 297.876C62.6189 295.029 62.7188 292.17 63.1826 289.351C63.5393 287.2 64.8878 285.348 61.3632 283.611C59.0302 282.454 60.2645 279.619 60.6212 277.634C60.9138 276.018 63.1683 276.392 64.8878 276.547C66.9211 276.731 67.5918 275.638 67.8629 274.321C68.184 272.733 69.2185 272.106 71.3375 271.623C73.6705 271.088 77.2307 271.025 76.9667 267.729C76.874 266.584 78.3936 267.033 79.0357 267.372C79.9347 267.844 81.9253 266.182 81.8896 268.276C81.8896 268.724 81.5757 269.691 82.1964 269.506C87.3119 268.017 84.5366 271.37 85.1787 272.492C85.5854 273.205 85.5854 274.557 86.5343 274.471C90.1587 274.143 93.3407 277.174 97.1078 275.253C97.5145 275.046 98.2707 274.81 98.5419 274.959C101.56 276.599 104.599 277.807 108.473 278.209C109.758 278.342 111.242 281.793 110.699 284.117C110.521 284.899 110.1 285.647 109.7 286.642C111.448 286.884 113.025 285.963 114.609 286.751C115.936 287.413 116.585 286.7 117.042 285.624C118.191 282.909 120.417 282.431 123.349 284.192C124.683 284.991 125.889 285.923 127.195 286.751C128.479 287.568 129.592 288.575 131.647 287.976C133.716 287.372 132.66 285.894 133.43 284.617C136.12 287.407 140.715 288.218 142.762 291.422C143.504 292.59 143.982 293.182 141.956 293.481C140.094 293.757 139.673 295.328 138.146 295.966C141.728 297.508 144.567 296.938 145.859 294.137C146.672 292.371 147.343 292.975 148.463 293.757C150.782 295.374 150.625 298.238 153.464 299.647C154.064 299.947 153.793 301.31 152.694 301.287C150.532 301.241 150.161 301.925 150.732 303.3C151.41 304.922 153.586 305.52 154.741 304.727C158.794 301.948 162.747 303.973 166.606 304.566C170.081 305.1 173.42 305.377 176.88 304.721C177.922 304.525 179.142 304.514 179.292 305.635C179.427 306.625 178.507 306.924 177.308 307.096C175.589 307.344 172.343 306.694 172.699 308.511C172.978 309.955 176.01 309.777 177.915 308.684C178.371 308.419 179.142 308.448 179.242 308.868C179.977 312.049 183.18 311.037 185.813 311.134C182.809 313.441 182.945 314.125 186.669 315.247C187.853 315.604 188.838 315.937 188.852 317.065C188.888 319.694 190.557 320.643 193.911 319.889C194.524 319.751 195.138 319.538 195.687 319.274C199.961 317.214 204.292 317.629 208.886 318.986C209.457 318.802 209.343 318.29 209.179 317.795C208.915 316.99 209.193 316.323 210.178 316.035C211.305 315.707 211.804 316.478 212.297 317.048C213.845 318.842 215.307 319.653 216.713 316.76C217.797 318.071 217.698 319.124 216.499 320.165C215.514 321.016 215.336 322.006 216.171 322.955C216.956 323.852 218.168 323.657 219.367 323.536C221.251 323.346 223.534 321.77 224.839 324.381C224.889 324.479 227.244 323.87 228.435 323.611C228.649 322.472 227.543 322.61 226.937 322.362C226.009 321.977 225.588 321.413 225.831 320.62C226.038 319.941 226.737 319.717 227.536 319.544C230.219 318.963 232.702 319.705 235.035 320.47C236.512 320.953 236.091 321.793 234.728 322.472C233.03 323.312 232.745 323.967 235.242 324.485C240.486 325.572 243.825 323.519 243.668 319.216C243.546 315.966 245.744 312.987 245.637 309.679C245.587 308.103 246.222 306.538 246.058 304.876C245.822 302.489 247.563 301.615 250.488 302.276C252.215 302.667 253.956 303.024 255.697 303.398C256.467 303.565 257.316 303.737 257.687 302.995C258.001 302.362 257.537 301.701 256.924 301.379C253.927 299.809 250.781 298.417 248.198 296.403C247.371 295.759 246.8 296.421 246.243 296.766C245.337 297.335 244.559 298.048 243.589 298.537C242.548 299.061 241.349 300.113 240.115 299.377C238.773 298.578 238.78 297.042 238.459 295.817C238.224 294.919 239.423 294.758 240.4 294.89C241.606 295.057 242.819 295.04 243.739 294.396C247.406 291.813 250.56 288.926 252.044 285.146C252.515 283.956 251.509 283.047 250.817 281.701C248.512 284.876 245.844 284.157 243.14 282.408C242.555 282.029 241.392 281.339 241.313 281.707C240.707 284.64 234.778 284.502 235.427 288.218C235.641 289.455 236.476 291.635 232.652 291.543C231.118 291.502 231.731 293.383 231.696 294.448C231.667 295.224 232.174 296.277 230.847 296.541C229.57 296.794 229.784 295.673 229.348 295.121C228.014 293.424 224.368 293.004 222.62 294.465C221.229 295.627 219.702 296.812 219.446 298.56C219.367 299.107 219.503 299.993 218.44 299.889C217.954 299.837 217.598 299.015 217.177 298.532C214.751 302.27 215.058 302.995 220.815 306.188C217.284 306.763 213.98 307.131 211.127 306.337C208.13 305.503 204.934 304.813 202.215 303.582C199.797 302.489 198.163 302.673 196.358 303.979C195.659 304.485 194.959 304.951 193.968 304.796C192.569 304.577 190.836 304.358 190.507 303.173C190.151 301.885 191.984 302.086 192.969 301.764C193.611 301.551 194.089 301.27 194.089 300.418C192.676 300.182 190.721 301.241 189.644 299.515C189.138 298.704 187.775 299.061 186.876 299.584C185.913 300.148 185.806 300.907 186.184 301.764C186.469 302.408 187.818 302.564 187.482 303.49C182.916 303.478 181.753 301.689 183.48 296.904C178.906 297.945 176.06 294.448 171.536 294.528C169.853 294.557 168.233 291.456 165.372 290.945C165.194 290.91 164.944 290.312 165.058 290.208C167.969 287.66 164.231 287.108 162.818 286.412C160.592 285.319 160.528 284.364 162.097 283.087C163.232 282.167 163.667 281.011 164.295 279.918C165.479 277.87 166.435 275.621 170.366 277.019C170.794 277.168 171.779 276.892 172.1 276.57C172.735 275.932 171.886 275.431 171.344 275.08C169.36 273.792 167.641 271.577 164.559 273.97C163.353 274.908 163.303 273.47 162.718 273.148C161.27 272.348 159.807 271.336 159.029 273.625C158.801 274.292 158.715 275.379 157.581 275.052C156.147 274.637 155.262 273.487 154.606 272.388C154.142 271.612 154.021 270.663 155.326 270.341C157.196 269.88 158.922 267.511 161.177 270.11C161.897 270.939 163.453 270.663 164.095 269.679C164.737 268.695 163.774 268.178 162.689 267.925C161.12 267.562 159.543 267.091 159.557 265.624C159.564 264.404 160.784 263.513 162.24 263.311C163.788 263.099 165.058 263.697 165.215 265.1C165.308 265.917 165.372 266.717 166.235 267.649C169.453 265.307 171.972 265.647 173.634 268.989C174.24 270.208 175.432 269.869 176.445 269.138C179.071 267.246 181.289 264.755 185.677 265.584C186.348 265.71 186.733 265.089 186.726 264.525C186.705 262.61 189.344 262.035 190.029 260.924C191.934 257.864 192.669 254.361 193.825 251.019C193.868 250.904 193.54 250.703 193.368 250.548C192.419 249.702 190.158 249.19 191.249 247.741C192.241 246.435 194.374 246.947 195.958 247.131C199.419 247.533 202.123 248.724 202.351 251.894C202.401 252.578 202.451 253.406 203.614 253.567C204.363 253.671 204.62 253.073 205.069 252.722C207.98 250.456 210.477 247.591 215.678 249.886C216.713 250.341 219.067 249.558 220.601 250.461C221.5 250.996 222.264 251.664 220.473 252.181C215.971 253.481 219.153 255.765 219.995 257.076C221.101 258.796 223.291 258.083 224.804 256.8C226.102 255.701 226.908 256.001 227.693 257.232C229.063 259.4 232.052 260.154 235.213 259.13C237.261 258.468 239.187 257.6 240.799 256.386C242.219 255.316 243.561 254.459 245.822 254.448C248.876 254.436 248.962 252.521 248.847 250.64C247.328 250.461 245.858 250.847 244.909 251.583C242.662 253.326 240.692 254.171 238.053 251.963C237.125 251.18 235.841 251.664 236.29 252.825C236.897 254.367 237.04 255.563 234.471 255.523C232.523 255.494 230.169 255.207 230.511 253.079C230.875 250.818 227.672 251.687 226.93 250.105C231.189 249.489 235.363 249.829 239.472 249.57C240.635 249.495 243.218 249.391 242.647 248.73C240.992 246.809 245.872 244.991 242.376 243.363C240.571 242.523 241.285 241.068 241.92 240.102C242.704 238.888 244.024 237.594 246.108 237.927C247.021 238.071 247.713 238.215 248.633 237.974C250.403 237.508 251.98 236.524 251.894 235.27C251.794 233.734 249.604 234.609 248.398 234.43C246.507 234.154 244.502 234.373 242.569 234.2C239.544 233.93 238.095 235.19 237.953 237.255C237.824 239.158 236.925 239.348 235.527 238.123C233.743 236.559 229.498 237.818 229.213 234.666C229.206 234.586 228.663 234.413 228.535 234.476C225.11 236.282 222.592 233.757 219.674 233.303C215.714 232.687 213.524 234.758 210.813 236.812C209.75 233.113 207.16 233.355 203.407 233.51C199.861 233.659 195.787 235.788 192.234 233.015C191.414 232.377 189.687 232.423 188.517 233.021C184.479 235.092 181.825 233.372 179.392 231.059C178.036 229.771 176.895 228.54 174.233 229.317C172.607 229.794 170.466 229.259 170.002 227.942C169.546 226.63 171.765 226.504 172.906 225.946C173.67 225.572 175.496 225.762 174.797 224.588C174.298 223.749 173.598 222.518 171.615 222.88C169.396 223.288 166.792 224.709 166.007 221.195C165.85 220.499 161.926 220.142 159.693 219.958C157.973 219.814 156.91 219.642 157.217 218.048C157.488 216.651 156.247 216.507 154.856 216.225C149.754 215.189 149.091 213.913 150.404 209.909C151.153 207.631 151.41 205.296 155.155 204.934C158.045 204.652 160.884 204.514 163.717 205.589C167.491 207.022 170.844 206.199 173.234 203.49C174.098 202.512 175.353 202.949 176.416 202.725C177.729 202.449 177.736 203.214 178.022 203.927C178.942 206.228 180.505 206.78 183.18 205.146C187.247 202.673 188.374 202.851 191.307 206.055C191.692 206.475 191.863 206.78 192.733 206.717C196.608 206.446 199.518 208.149 200.553 211.261C200.895 212.29 200.967 213.418 202.893 212.958C204.399 212.595 206.389 212.699 206.246 210.68C206.068 208.143 205.961 205.946 201.595 205.445C199.09 205.158 196.165 204.473 195.245 201.977C195.145 201.718 194.802 201.402 194.474 201.315C190.3 200.165 188.545 197.07 186.013 194.695C184.529 195.172 186.191 196.921 184.472 196.829C183.323 196.771 182.167 196.116 181.211 195.368C177.066 192.124 176.795 187.764 175.539 183.685C175.403 183.248 175.482 182.845 176.095 182.736C176.852 182.598 177.422 182.995 177.608 183.472C178.607 186.055 182.502 187.194 182.431 190.363C186.676 187.625 187.746 183.996 189.644 180.752C190.272 179.682 190.964 178.842 192.284 178.25C193.697 177.623 195.937 176.927 195.516 175.655C194.952 173.987 194.503 171.87 191.085 171.583C188.153 171.341 185.306 170.461 182.431 169.823C180.226 169.328 178.421 168.615 178.093 166.458C177.458 162.259 178.293 161.517 183.537 162.489C185.556 162.863 186.227 162.236 186.976 160.913C189.216 156.944 190.129 156.817 193.818 159.814C194.767 160.585 195.573 160.844 196.872 160.47C200.353 159.475 203.928 158.313 206.111 162.523C207.31 160.844 206.382 159.86 206.125 158.876C205.94 158.186 205.497 157.565 206.089 156.846C206.625 156.196 208.565 155.742 207.031 154.718C205.761 153.866 204.113 153.349 202.322 153.774C201.844 153.889 201.466 154.24 201.002 154.407C199.44 154.971 197.685 156.288 196.436 154.235C195.124 152.078 197.221 151.307 199.276 150.766C201.202 150.254 203.528 150.289 204.227 148.344C204.384 147.913 204.249 147.338 204.006 146.912C203.771 146.498 203.236 146.59 202.672 146.768C199.597 147.74 197.514 146.711 197.449 143.875C197.414 142.328 197.143 141.672 195.074 141.068C192.484 140.315 193.625 138.503 195.116 137.743C197.706 136.415 197.485 135.161 195.958 133.475C194.153 131.485 195.359 130.657 198.013 130.72C199.533 130.755 200.867 130.824 201.545 129.478C201.98 128.615 202.964 128.298 204.07 128.31C205.954 128.327 207.281 127.798 208.044 126.366C208.244 125.998 209.093 125.549 209.564 125.601C213.581 126.049 214.979 123.835 216.428 121.637C217.041 120.711 217.926 120.188 219.26 120.602C220.394 120.959 220.872 121.799 220.373 122.604C219.367 124.226 220.972 125.284 222.107 125.44C224.711 125.785 227.265 127.735 230.112 125.894C231.146 125.221 230.968 124.887 229.962 124.306C228.599 123.513 227.101 123.07 224.625 123.168C226.473 121.666 227.536 121.01 224.832 119.906C222.05 118.767 225.61 117.243 225.767 115.368C222.1 117.651 219.61 115.425 216.984 114.142C215.921 113.625 214.266 112.935 214.765 111.566C215.186 110.409 216.62 109.633 217.976 109.575C222.299 109.391 224.861 107.033 227.879 105.169C229.448 104.203 230.347 103.346 228.571 101.988C227.001 100.792 228.271 100.176 229.527 99.7795C230.469 99.4861 232.017 97.657 232.373 100.188C232.495 101.039 233.201 100.901 233.665 100.499C237.082 97.5132 239.344 100.309 241.763 101.545C243.953 102.667 244.816 104.761 246.736 106.527C247.456 105.204 247.535 103.858 248.84 102.966C250.902 101.563 253.97 101.626 254.655 103.041C256.096 106.009 259.935 106.705 262.018 108.931C262.703 109.667 263.973 110.168 264.758 111.008C265.628 111.939 266.755 112.354 268.047 111.416C269.081 110.668 270.323 110.496 271.657 110.513C273.255 110.53 273.612 109.811 273.49 108.718C273.376 107.671 273.433 106.601 271.436 106.757C268.931 106.952 267.997 106.124 268.047 104.094C268.09 102.19 265.899 101.459 263.98 100.798C262.446 100.268 260.669 99.9693 261.14 97.8986C263.06 98.4508 264.408 99.8543 266.713 99.5839C269.138 99.3021 269.916 97.634 271.536 96.7079C272.82 95.9774 273.562 94.7177 275.816 95.6207C277.693 96.3743 277.443 93.458 279.583 93.7341C282.245 94.0792 282.409 93.0438 281.603 91.4102C281.224 90.6452 281.788 89.9434 282.815 89.7881C284.249 89.5695 284.264 90.6222 284.792 91.2837C285.684 92.3881 283.322 94.9592 287.353 94.6716C290.371 94.4531 293.853 92.3421 294.366 90.093C294.687 88.6837 293.86 88.2063 292.112 88.6665C291.006 88.9598 289.864 90.1562 288.73 88.8448C287.76 87.7289 288.866 87.0674 289.822 86.2908C290.963 85.359 290.928 84.7435 289.608 83.386C288.002 81.7409 287.624 79.1007 289.536 76.7309C287.325 76.5123 285.049 77.1623 283.793 75.2468C283.55 74.8787 282.073 74.2747 280.982 74.965C280.347 75.3676 279.847 76.357 278.799 75.5575C277.885 74.8557 277.942 73.9008 278.313 72.9805C279.013 71.2319 280.875 70.4611 282.851 70.7199C287.003 71.2549 291.092 70.093 295.208 70.7199C296.257 70.881 297.434 70.8062 297.641 69.7306C297.812 68.8563 297.249 67.9417 296.122 67.8726C293.061 67.6828 291.62 66.3311 291.505 64.1453C291.377 61.6316 293.667 60.0901 295.965 58.8073C296.942 58.2666 298.126 58.1689 297.77 56.9379C297.106 54.6831 298.99 53.7167 300.802 52.2327C304.469 49.2359 308.864 48.908 313.544 48.7412C314.993 48.6894 315.214 47.9819 315.15 47.0788C315.064 45.9227 315.214 44.8528 316.791 44.1855C318.403 45.1806 317.311 46.9925 318.845 48.0797C319.923 48.4766 320.172 47.4527 320.886 47.1421C322.277 46.5439 323.825 45.9227 325.295 46.4634C326.836 47.0328 325.787 48.2638 325.766 49.2186C325.709 51.3929 326.993 52.8999 329.526 53.757C331.088 54.2862 333.193 55.3734 332.066 52.4916C331.945 52.1809 332.137 51.623 332.444 51.4102C333.072 50.973 333.614 51.3871 334.064 51.7668C335.084 52.6411 336.582 53.2911 336.225 54.7924C336.018 55.661 336.168 56.518 337.552 56.633C338.986 56.7538 339.686 55.9141 339.95 54.9937C340.228 54.0101 340.278 52.9805 340.328 51.9739C340.378 50.8637 340.706 49.9204 342.311 49.7075C343.952 49.489 344.972 49.0173 344.587 47.5045C344.316 46.4346 345.536 46.5324 346.364 46.3196C347.627 45.9917 347.783 46.4749 348.069 47.3147C348.39 48.2638 349.824 48.9828 350.809 48.6031C353.284 47.6368 355.846 48.3616 358.307 47.9819C358.685 47.9244 359.22 47.6483 359.406 47.7633C363.18 49.9779 364.778 47.3549 366.776 45.7386C367.561 45.1059 368.424 44.6975 369.523 44.8125C371 44.9678 371.906 44.6457 372.562 43.5125C373.218 42.3679 374.46 41.5511 376.208 41.5223C377.713 41.4935 378.498 40.7688 379.269 39.8945C380.774 38.1919 382.772 37.5361 385.554 37.4901C388.886 37.4383 391.241 35.2525 394.094 34.1079C397.348 32.8079 403.676 32.6066 406.202 34.3092C407.529 33.826 406.366 32.8251 406.908 32.1752C408.143 30.6796 409.006 28.5686 411.881 30.996C412.709 31.692 414.071 32.1004 415.291 32.3765C416.205 32.5893 418.074 33.1185 417.018 31.2318C416.69 30.6393 417.132 30.2367 417.839 30.0699C418.438 29.9261 418.666 30.3345 419.044 30.6221C421.335 32.365 424.288 33.9353 427.206 33.8318C430.36 33.7225 432.358 35.6667 432.764 36.4892C434.391 39.7794 436.988 38.9684 440.241 38.2551C437.202 35.7069 438.565 34.8671 442.275 34.9132C443.987 34.9362 445.521 31.853 447.454 34.7636C447.747 35.2065 448.432 35.5459 447.854 36.0521C445.578 38.0595 448.089 38.7786 449.659 40.2914C450.394 38.0365 451.643 36.4605 453.933 35.5344C454.496 35.3043 454.953 34.9247 455.695 35.0397C456.53 35.1663 457.058 37.191 458.192 35.3676C458.963 34.1251 458.47 33.0092 457.008 32.1982C455.995 31.6345 454.96 31.0938 453.733 30.438C455.074 29.3394 457.686 29.9318 458.292 27.9991C458.813 26.3483 458.435 25.0771 457.315 23.7081C456.494 22.7072 457.186 21.9479 458.649 21.7466C459.412 21.6431 460.204 21.6258 460.982 21.6546C466.347 21.8501 466.169 21.4245 466.782 21.2749C470 20.4869 471.227 18.3471 472.276 16.3051C473.496 13.9353 474.873 13.6879 476.978 15.4538C477.941 16.2649 478.89 16.9091 480.324 16.4202C481.765 15.9312 481.301 14.9246 481.151 14.0273C480.959 12.8481 481.13 11.9105 483.156 12.3074C485.753 12.8136 487.994 12.8251 489.192 10.4035C489.656 9.46589 491.176 9.43138 491.654 10.3402C492.938 12.7791 498.317 13.3773 496.605 17.168C496.384 17.6511 497.361 18.1918 498.182 18.3184C499.273 18.4852 500.023 18.048 500.187 17.2542C500.643 15.1029 504.196 13.4406 501.585 10.7314C500.872 9.99509 501.956 8.86193 503.54 9.72474C505.202 10.6278 506.922 11.4044 508.948 10.9557C511.887 10.3057 512.772 7.79204 514.256 6.22172C515.997 4.3753 519.272 3.19036 519.593 0.481125C519.643 0.0382137 520.599 -0.168855 521.241 0.164767C522.154 0.636438 522.09 1.36119 521.862 2.08021C520.692 5.68677 520.799 5.7788 524.908 7.53894C526.499 8.21769 527.997 9.11502 528.34 10.6796C528.754 12.5835 530.074 13.2968 532.614 13.4463C534.897 13.5786 537.38 15.0109 538.678 15.9082C542.88 18.8188 549.53 17.4441 552.798 21.413C553.647 22.4426 555.052 22.1953 556.322 21.7351C558.534 20.9298 560.803 20.602 563.029 21.6086C564.234 22.155 565.098 21.9249 565.597 21.0794C567.074 18.5887 569.913 19.348 572.403 19.2099C576.006 19.0086 576.663 20.8378 576.991 23.0581C577.155 24.1625 577.99 24.9735 579.695 24.5536C580.623 24.3236 581.514 24.1567 582.071 24.9735C582.677 25.8709 582.071 26.5381 581.222 27.0903C580.016 27.8841 579.481 28.8274 579.966 30.0584C580.487 31.3871 581.222 32.1867 582.884 30.8464C583.676 30.2079 584.254 29.0173 585.538 29.3624C587.144 29.7938 585.446 31.2318 586.566 32.2154C587.8 30.9385 588.285 29.2818 589.962 28.3385C590.861 27.8323 591.945 27.539 592.801 28.2407C593.736 29.0058 592.516 29.4257 592.088 29.9894C590.454 32.1291 588.406 34.1769 591.082 36.8171C592.131 37.8467 592.045 39.0892 589.812 39.6069C588.214 39.975 586.359 40.5042 586.751 42.2298C587.072 43.6736 588.542 43.8577 590.304 43.9669C593.144 44.1395 593.815 45.7098 592.281 47.6253C591.118 49.069 589.184 49.742 587.622 50.7889C586.423 51.5942 585.167 52.457 586.245 53.8835C587.144 55.0742 588.421 55.4941 590.212 55.103C593.608 54.3552 596.462 54.4243 596.618 58.0653C596.647 58.7211 597.325 58.9511 598.145 59.21C600.157 59.8427 601.277 61.0046 600.221 62.7878C599.729 63.6276 599.444 64.4329 600.856 64.7608C602.59 65.1577 603.468 63.8922 603.546 63.1099C603.71 61.3498 604.167 59.7564 605.251 58.2149C605.722 57.5534 606.229 57.03 607.128 56.7711C608.876 56.2592 611.601 56.8574 610.645 53.8318C610.324 52.8194 613.321 51.7093 615.725 52.6526C620.641 54.5853 621.932 54.1079 622.51 49.8053C622.903 46.8775 626.17 45.3302 627.34 42.782C627.797 41.7984 632.67 43.4205 633.719 44.9678C634.204 45.6753 634.446 46.5554 635.138 47.0903C636.03 47.7863 635.552 49.9434 637.436 49.2071C639.055 48.5744 641.866 48.258 641.403 45.6926C641.167 44.3869 641.788 42.2931 643.365 42.0918C645.284 41.8444 647.253 43.0811 647.795 44.8873C648.059 45.7731 648.972 46.147 649.579 46.7625C651.548 48.7584 654.074 50.4035 652.875 53.688C652.29 55.2871 652.597 58.4622 657.07 58.2379C657.32 58.2264 657.584 58.3242 657.841 58.3242C659.767 58.3299 658.847 61.3555 661.158 60.4064C661.808 60.1418 660.745 57.8813 661.451 57.0357C662.921 55.2698 664.49 56.9264 665.446 57.6857C667.565 59.3653 667.908 65.0426 665.91 66.843C664.326 68.2695 664.462 69.7823 664.412 71.3872C664.376 72.5088 664.605 73.5327 666.303 73.6075C667.851 73.6765 668.557 72.7044 668.949 71.7035C669.171 71.1398 669.014 70.4898 669.185 69.9031C669.442 69.0231 670.284 68.5284 671.382 68.3788C672.709 68.2005 673.102 68.9368 673.58 69.7248C674.122 70.6221 673.316 72.2672 675.378 72.319C677.097 72.3593 678.524 71.2606 678.767 70.1217C679.651 66.0722 684.995 68.1142 687.443 66.101C688.213 65.4683 691.695 68.5284 691.359 69.7938C690.553 72.8424 691.317 76.2707 687.656 78.6578C686.914 79.141 686.023 80.1476 687 81.1025C687.963 82.0401 689.162 81.3268 690.261 81.2348C690.974 81.1772 691.83 80.5503 692.358 81.2635C693.007 82.1321 691.581 82.0228 691.288 82.3909C689.997 83.9843 691.324 85.4798 692.044 86.9121C692.979 88.7585 691.359 92.7907 688.984 93.3659C685.509 94.2057 685.445 96.0809 686.494 98.1287C687.193 99.4804 687.856 100.757 687.578 102.218C687.393 103.173 686.886 104.283 685.423 103.823C681.656 102.644 681.307 104.951 681.3 106.532C681.292 109.414 680.843 111.514 676.377 111.87C674.486 112.02 674.993 113.585 675.635 114.332C678.51 117.657 675.963 120.142 673.594 122.535C672.674 123.461 672.103 124.128 672.816 125.181C674.144 127.148 672.724 128.69 671.061 129.736C667.294 132.118 663.613 134.505 660.516 137.456C659.482 138.439 657.684 138.359 656.121 137.922C654.759 137.542 653.56 137.427 653.011 138.79C656.906 140.487 660.923 141.425 665.361 140.263C666.324 140.01 667.473 140.165 667.451 141.051C667.423 142.305 669.492 143.639 667.694 144.698C666.067 145.658 663.977 145.888 665.996 148.137C666.952 149.201 662.007 152.365 660.124 151.732C656.771 150.611 656.1 151.853 655.008 154.05C653.681 156.725 653.318 159.883 649.172 161.591C647.596 162.241 647.674 165.25 644.378 164.761C641.103 164.272 637.928 163.294 634.489 163.823C634.232 163.864 633.904 163.415 633.555 163.323C632.449 163.047 632.991 160.723 631.015 161.85C629.381 162.782 629.745 164.514 630.258 165.796C631.464 168.816 630.301 170.766 626.877 172.273C622.874 174.039 619.385 174.189 615.632 171.922C613.492 170.628 611.608 172.187 611.216 175.569C612.536 175.086 613.142 173.337 615.033 174.154C616.617 174.833 616.167 176.052 616.025 177.157C615.825 178.698 618.072 179.86 616.859 181.546C620.084 181.264 622.082 180.251 622.66 177.766C622.924 176.622 624.237 175.673 625.614 175.535C630.601 175.046 632.798 172.262 634.839 169.23C635.409 168.385 635.859 167.044 637.614 168.005C639.055 168.793 640.304 169.949 638.67 171.29C636.187 173.326 634.546 175.23 637.778 177.766C638.691 178.48 637.878 179.406 636.801 179.693C633.997 180.447 632.934 182.615 630.865 183.961C629.409 184.91 630.365 186.786 631.357 186.63C635.295 186.015 637.55 190.07 641.724 188.16C641.724 188.114 641.688 187.631 641.724 187.148C641.859 185.48 643.265 185.463 644.784 185.825C646.354 186.193 646.818 187.079 646.04 188.195C645.548 188.897 644.92 189.598 644.142 190.116C642.18 191.416 640.133 192.44 641.239 195.046C641.745 196.231 640.033 197.358 638.599 198.181C636.943 199.13 635.181 200.09 634.618 201.758C634.368 202.512 633.818 203.49 634.675 204.082C635.788 204.859 636.401 203.783 637.215 203.369C639.833 202.029 644.306 203.559 645.048 205.946C645.341 206.878 645.048 208.235 646.54 208.563C647.867 208.856 648.487 207.769 649.08 206.999C649.786 206.084 649.871 204.565 651.712 204.698C653.788 204.841 655.408 206.147 656.014 207.459C656.749 209.046 657.898 210.237 659.175 211.514C661.351 213.694 660.937 216.242 660.117 218.692C659.625 220.148 659.303 221.557 660.609 222.742C663.185 225.072 661.701 226.855 659.296 228.27C657.648 229.242 656.785 230.248 658.033 231.531C659.51 233.055 660.645 231.491 661.929 230.967C664.319 229.995 665.182 228.149 666.41 226.51C667.373 225.215 668.022 223.731 670.391 223.076C670.726 225.509 672.139 227.539 669.706 230.082C668.172 231.687 668.543 234.482 668.379 236.754C668.279 238.123 668.999 239.458 667.658 240.792C666.93 241.511 667.494 242.581 668.486 243.237C669.499 243.91 670.433 243.634 671.183 242.915C671.967 242.173 673.102 242.42 674.072 242.224C675.121 242.011 675.613 240.28 676.84 241.2C678.125 242.161 676.819 243.415 676.048 244.209C671.646 248.736 668.436 254.039 662.143 257.352C661.23 257.835 660.217 258.186 659.218 257.968C655.7 257.214 654.752 258.572 654.851 260.97C654.88 261.574 654.987 262.311 654.609 262.759C651.983 265.9 654.83 267.459 657.47 269.397C658.783 266.435 659.924 263.731 661.201 261.062C661.551 260.338 662.157 259.377 663.285 259.417C664.733 259.475 664.126 260.694 664.547 261.362C665.824 263.386 665.268 265.457 664.262 267.649C666.595 267.131 666.531 264.031 668.257 265.083C670.348 266.36 667.572 267.827 666.488 269.092C666.21 269.414 665.953 269.748 665.211 270.668C668.215 270.335 670.048 269.42 670.69 267.804C671.803 264.991 675.406 263.835 677.047 261.425C677.361 260.965 678.053 260.706 678.724 260.999C679.437 261.316 679.366 261.833 678.917 262.293C678.217 263.012 677.568 263.685 679.288 264.094C680.843 264.462 681.563 264.042 682.106 262.788C683.497 259.55 683.64 259.567 687.064 261.649C689.212 262.955 692.979 261.845 693.714 259.688C695.098 255.615 695.926 255.345 700.185 257.732C701.683 258.572 702.568 258.301 703.11 257.036C704.066 254.793 705.985 253.464 708.226 251.825C711.115 249.708 711.886 249.087 715.845 250.283C719.655 251.428 724.478 254.35 723.929 257.847C727.503 257.473 728.246 254.942 729.979 253.286C730.272 253.004 730.036 252.4 729.444 252.308C725.727 251.721 728.024 250.036 727.71 248.396C729.872 248.995 730.686 250.438 733.068 249.685C734.66 249.179 735.18 251.019 734.331 252.29C733.368 253.723 732.212 255.08 731.285 256.53C730.628 257.565 730.885 258.704 732.334 259.089C734.046 259.544 733.739 258.083 734.374 257.456C736.215 255.632 735.623 252.003 740.538 252.365C741.637 252.446 741.701 251.387 741.808 250.72C741.937 249.921 741.63 248.839 742.8 248.592C744.741 248.178 745.183 245.238 747.78 246.487C751.704 248.368 752.653 252.003 750.113 254.752C749.057 255.891 748.344 256.645 750.013 257.801C752.396 259.452 753.602 259.187 754.529 256.639C754.801 255.891 754.465 254.747 755.721 254.586C757.426 254.367 757.112 255.771 757.605 256.495C758.14 257.289 758.325 258.353 759.816 258.365C761.236 258.376 761.7 257.427 762.213 256.605C762.77 255.719 762.955 254.758 764.946 255.126C766.872 255.483 768.899 255.937 768.827 257.479C768.735 259.469 769.305 261.942 766.694 263.288C764.011 264.669 765.174 265.785 766.815 266.757C768.406 267.7 769.798 268.414 768.321 270.145C767.721 270.852 768.599 271.508 769.07 272.072C770.661 273.97 771.032 275.771 768.941 277.634C768.278 278.221 767.643 279.095 769.498 279.348C773.379 279.883 774.342 280.717 772.352 283.651C770.468 286.423 772.009 287.027 774.728 287.626C776.205 287.948 777.631 288.391 777.325 289.806C777.025 291.186 777.567 293.027 774.828 293.452C773.572 293.648 772.423 293.936 773.75 295.195C774.235 295.65 773.879 296.501 773.393 296.484C769.676 296.34 769.398 299.86 766.373 300.389C766.13 300.43 765.909 300.574 765.702 300.694C765.096 301.057 761.821 309.587 762.042 310.145C762.542 311.433 763.826 311.359 764.832 310.853C766.387 310.065 767.985 309.564 769.798 309.34C770.868 309.207 771.624 307.119 773.151 309.351C773.565 309.955 775.377 307.896 776.411 306.981C777.111 306.366 777.025 304.807 778.488 305.21C780.264 305.699 779.401 307.068 779.144 308.143C778.88 309.271 777.646 310.289 778.88 311.583C779.686 312.434 778.695 312.831 777.696 312.981C776.048 313.222 774.792 314.16 773.971 315.04C773.151 315.926 773.336 317.398 773.936 318.514C774.521 319.607 775.891 319.124 777.032 319.13C781.584 319.153 785.601 318.497 787.577 314.741C787.877 314.166 788.605 313.763 789.489 313.999C790.581 314.287 790.659 315.034 790.467 315.765C789.882 317.951 788.091 319.544 786.165 321.091C785.201 321.868 783.789 322.903 785.258 323.921C786.507 324.79 787.884 323.841 789.061 323.197C790.003 322.679 789.71 320.689 791.523 321.488C792.857 322.075 792.693 323.668 792.664 324.865C792.636 325.998 791.544 327.142 790.26 326.809C786.75 325.912 785.087 328.264 782.576 329.069C781.456 329.426 780.621 330.168 780.806 331.221C780.999 332.308 782.255 332.066 783.196 332.331C785.48 332.964 787.591 333.93 790.046 332.59C790.595 332.291 792.051 333.056 791.43 333.418C789.033 334.816 791.487 335.834 791.565 337.002C791.665 338.497 793.435 340.666 788.94 340.159C787.242 339.97 785.572 341.805 785.665 343.03C785.736 344.013 782.911 345.175 786.057 346.326C788.341 347.16 787.149 353.291 784.83 354.384C782.904 355.293 780.599 355.822 780.5 358.117C780.471 358.762 779.223 359.021 778.302 359.187C776.904 359.446 774.663 358.986 774.735 360.763C774.799 362.334 775.734 363.829 778.195 364.128C778.538 365.382 779.651 365.825 781.163 365.848L781.177 365.866ZM268.575 234.321C269.474 235.299 269.673 238.181 272.028 234.994C273.012 233.659 274.297 233.959 275.367 235.144C277.493 237.502 279.919 237.099 282.259 235.42C283.857 234.269 285.441 233.165 288.281 232.894C282.444 231.088 278.906 231.399 268.539 234.355C264.037 231.577 259.4 233.119 255.49 234.827C253.014 235.903 255.162 238.831 253.892 240.815C256.838 240.366 257.174 236.443 260.406 238.336C263.138 239.935 258.964 240.74 258.579 242.167C259.771 242.541 261.212 242.426 261.84 243.57C262.232 244.289 263.131 244.611 264.123 244.324C265.393 243.961 264.372 243.375 264.294 242.863C264.258 242.615 264.437 242.15 264.644 242.104C268.411 241.241 267.062 238.744 267.305 236.846C267.433 235.839 266.948 234.804 268.582 234.315L268.575 234.321ZM256.289 371.037C253.185 370.398 249.782 369.334 247.485 370.669C242.847 373.355 239.893 371.353 236.333 369.472C234.792 368.661 232.787 366.101 230.547 369.104C230.461 369.225 229.498 369.104 229.12 368.903C227.294 367.913 223.94 369.742 223.063 366.786C222.856 366.084 221.878 367.137 221.251 367.235C219.032 367.591 218.24 370.065 215.942 369.748C213.759 369.449 213.31 370.364 212.753 372.153C212.054 369.363 210.42 368.023 207.83 367.465C206.91 367.269 205.74 366.895 205.226 368.051C204.727 369.179 205.333 369.904 206.717 370.053C209.878 370.398 210.691 371.428 209.864 373.999C208.551 378.083 207.588 382.334 214.737 384.226C216.299 384.64 217.469 385.82 219.21 384.669C220.78 383.628 221.158 384.755 221.707 385.532C222.378 386.487 221.543 387.281 221.229 388.132C221.008 388.724 220.901 389.415 221.829 389.691C222.706 389.95 223.248 389.374 223.762 388.926C224.426 388.35 224.468 387.654 224.361 386.924C224.133 385.394 224.932 384.209 226.866 383.979C228.735 383.755 228.556 385.175 228.892 386.101C229.106 386.7 229.377 387.321 230.283 387.419C231.567 387.557 231.546 386.654 231.974 386.061C232.98 384.652 233.95 383.208 235.185 381.92C235.998 381.068 237.411 380.913 238.759 381.16C239.458 381.287 240.043 381.874 239.751 382.294C238.238 384.439 242.241 386.182 240.379 388.339C240.058 388.713 240.643 389.242 241.163 389.15C243.19 388.788 246.001 390.381 246.992 389C248.005 387.591 246.85 385.497 245.301 384.036C244.909 383.663 244.21 383.496 243.696 383.185C243.061 382.8 242.498 382.322 242.99 381.638C243.432 381.022 244.131 381.068 244.995 381.126C249.739 381.465 251.765 379.757 250.966 376.202C250.624 374.684 251.387 373.01 252.358 373.234C255.09 373.867 255.169 372.101 256.289 371.037ZM340.149 375.155C340.742 375.408 342.325 375.391 342.775 376.737C343.446 378.739 344.965 380.286 347.091 381.615C349.731 383.271 352.492 384.98 352.114 388.189C352.007 389.075 353.035 390.277 354.333 389.622C356.017 388.776 358.107 388.224 358.386 385.986C359.334 378.52 360.719 371.094 361.867 363.645C362.174 361.632 363.194 359.602 358.5 359.308C356.352 359.17 355.453 358.486 354.654 360.459C354.183 361.632 352.942 362.506 351.023 362.184C349.781 361.977 348.547 362.558 348.668 363.306C349.153 366.435 341.669 367.01 344.758 370.893C344.801 370.95 343.988 371.359 343.667 371.664C342.518 372.762 341.412 373.89 340.142 375.155H340.149ZM222.62 362.616C223.869 360.976 225.346 359.734 228.214 360.729C229.905 361.316 230.511 360.378 231.225 359.182C233.465 355.425 231.781 351.284 233.401 347.511C234.3 345.405 234.157 343.409 232.866 341.287C231.41 342.667 229.955 344.163 227.829 344.048C225.431 343.916 227.543 341.701 226.188 340.832C224.818 341.011 223.919 342.276 222.228 341.563C219.66 340.476 218.197 341.339 217.448 343.409C217.22 344.042 216.549 344.629 215.921 345.118C215.115 345.745 213.638 346.239 214.672 347.275C215.728 348.333 217.077 347.654 218.104 347.016C219.381 346.216 221.044 345.492 220.052 343.806C219.731 343.254 219.938 342.782 220.758 342.667C221.486 342.564 221.936 342.909 222.292 343.392C224.604 346.527 223.063 350.571 218.775 352.48C217.976 352.837 217.426 353.372 217.947 353.93C219.224 355.293 218.14 356.679 218.333 358.02C218.489 359.113 217.698 361.35 220.13 361.022C222.485 360.7 221.365 362.426 222.62 362.627V362.616ZM341.748 327.666C340.749 327.775 340.478 328.419 340.199 328.943C338.266 332.509 339.35 335.494 343.267 337.899C345.286 339.141 347.013 340.522 345.343 342.777C344.751 343.576 345.557 344.583 346.192 344.387C348.426 343.703 348.732 344.767 349.589 345.906C350.602 347.263 352.136 346.866 353.548 345.981C355.346 344.853 355.653 342.639 357.315 341.874C360.298 340.499 358.193 339.659 356.16 337.795C360.191 339.239 361.76 337.928 362.509 336.254C363.351 334.356 361.104 333.901 359.413 333.493C357.9 333.125 359.235 331.721 357.965 331.341C355.739 333.924 352.093 332.762 349.16 333.401C348.483 333.545 348.262 332.883 348.64 332.308C350.338 329.673 346.77 329.438 345.408 328.77C343.474 327.821 343.224 329.8 342.518 330.772C342.119 331.324 342.29 332.245 340.956 332.296C340.121 330.64 342.418 329.305 341.762 327.672L341.748 327.666ZM61.6558 422.863C62.726 423.651 61.6558 425.331 63.525 425.797C67.6203 426.815 71.7441 427.775 75.8608 428.742C76.6242 428.92 77.6873 428.978 78.0155 428.431C79.5709 425.825 82.496 424.013 84.3154 421.586C84.7078 421.068 84.5152 420.378 84.03 419.86C83.7732 419.584 83.3522 419.613 83.0668 419.889C81.3188 421.603 80.0703 420.194 79.6993 419.222C79.1642 417.813 81.1904 417.934 82.2749 417.56C83.2238 417.232 84.2869 417.048 85.1073 416.593C85.8993 416.156 85.8565 409.248 85.2072 408.569C84.5366 407.873 83.6019 408.028 82.7101 408.115C82.018 408.178 81.3188 408.471 81.5186 409.064C82.4532 411.877 79.421 413.585 77.6588 414.804C75.2044 416.507 73.2924 420.459 68.2125 418.313C67.7131 418.1 67.1923 418.394 66.9853 418.814C66.7784 419.233 66.9996 419.573 67.442 419.866C68.2054 420.367 69.5823 419.866 70.1531 421.045C67.2993 421.655 64.4953 422.259 61.6486 422.869L61.6558 422.863ZM662.942 315.316C661.094 315.207 659.332 317.111 659.86 318.532C662.1 324.52 666.238 329.616 671.825 334.005C672.681 334.678 674.379 335.523 675.149 335.276C676.926 334.695 677.611 334.804 678.182 336.254C678.481 337.013 679.544 337.18 680.451 336.674C681.385 336.156 681.827 335.656 680.857 334.695C680.015 333.867 679.366 332.808 679.316 331.641C679.202 328.546 677.054 326.297 674.051 324.566C670.491 322.518 667.308 320.28 665.425 317.065C664.947 316.242 664.262 315.46 662.935 315.316H662.942ZM257.045 230.059C255.247 229.714 253.578 229.662 252.607 228.287C251.744 227.068 250.66 226.768 248.912 227.93C247.164 229.087 243.14 227.821 243.097 226.049C243.033 223.449 240.6 221.896 239.537 219.774C238.531 217.761 236.704 217.807 235.249 219.722C234.286 220.988 234.129 222.656 232.01 223.329C231.268 223.565 231.353 224.157 231.731 224.623C233.394 226.659 234.264 228.856 237.739 230.122C243.154 232.089 248.555 231.779 254.077 231.698C255.197 231.681 256.396 231.393 257.059 230.064L257.045 230.059ZM541.332 322.403C542.859 322.086 542.06 324.916 543.437 323.565C545.841 321.206 547.96 322.811 550.151 323.317C551.078 323.53 551.906 323.478 552.798 323.478C553.982 323.478 554.838 323.127 555.088 322.19C555.387 321.057 554.21 320.786 553.24 320.625C551.856 320.401 550.372 320.522 549.023 320.24C545.285 319.458 540.826 321.764 537.615 318.537C536.973 317.893 536.274 316.541 534.547 317.364C532.935 318.129 533.413 319.279 533.826 320.349C534.961 323.243 534.961 325.929 531.65 328.028C530.787 328.58 531.037 329.064 531.608 329.558C532.207 330.076 532.87 330.162 533.612 329.645C534.226 329.213 534.205 328.201 535.532 328.345C536.937 329.731 533.884 330.266 534.533 331.566C541.832 330.778 539.962 325.802 541.332 322.42V322.403ZM564.884 308.885C561.181 307.574 558.519 305.9 556.422 303.444C555.38 302.224 554.895 300.919 554.06 299.699C553.168 298.394 551.699 297.439 549.658 298.158C547.568 298.894 548.609 300.039 549.173 301.218C549.915 302.759 550.728 303.916 552.769 304.853C556.629 306.625 557.678 309.857 554.852 311.491C552.319 312.952 548.795 313.343 551.007 316.725C551.028 316.754 550.85 316.875 550.757 316.944C550.165 317.358 548.724 317.559 549.794 318.474C550.664 319.21 551.649 318.75 552.569 318.255C554.824 317.036 554.781 315.851 552.641 314.965C554.545 312.595 559.055 314.166 560.389 311.301C561.124 309.719 562.301 308.77 564.884 308.891V308.885ZM293.025 242.46C295.572 243.076 296.664 241.873 297.713 240.775C298.241 240.217 298.612 239.394 297.991 238.773C296.956 237.732 295.351 238.043 293.995 238.163C289.922 238.514 285.89 239.009 281.752 239.124C279.191 239.199 276.359 240.579 274.825 242.69C274.147 243.622 274.382 244.583 275.374 245.169C277.008 246.136 276.28 244.427 276.915 244.215C277.629 243.979 278.363 243.789 279.07 243.542C283.686 241.931 288.837 244.548 293.025 242.46ZM333.992 374.614C333.807 373.47 330.782 372.239 332.223 371.876C335.005 371.18 333.999 369.932 334.156 368.724C334.292 367.7 335.305 365.86 333.536 365.986C331.188 366.153 328.627 364.405 326.615 366.142C325.345 367.235 324.389 367.654 322.741 366.728C321.735 366.165 320.75 366.55 320.037 367.246C319.373 367.896 319.416 368.949 320.172 369.127C325.124 370.3 328.449 373.66 333.293 374.925C333.45 374.965 333.721 374.747 334.006 374.614H333.992ZM716.987 337.393C716.216 336.34 715.275 335.65 715.303 334.988C715.467 331.825 712.178 330.668 709.731 329.248C706.599 327.43 703.695 328.023 702.482 330.093C701.362 332.009 704.123 331.784 704.78 332.78C707.227 336.484 711.986 336.789 716.98 337.393H716.987ZM677.718 318.67C675.727 316.07 675.663 312.825 673.337 310.433C672.324 309.391 670.605 308.701 669.363 307.902C666.146 305.825 662.635 307.223 659.432 306.498C658.462 306.28 657.206 305.745 656.863 306.907C656.507 308.115 657.755 308.569 659.047 308.362C661.579 307.953 663.099 309.265 664.99 310.116C667.259 311.14 668.129 314.379 672.003 312.923C673.109 315.092 674.757 316.973 676.997 318.526C677.161 318.641 677.475 318.618 677.718 318.664V318.67ZM645.476 408.77C647.56 410.979 644.492 413.545 646.689 415.909C648.473 417.83 650.592 417.427 652.74 417.583C653.931 417.669 654.966 416.927 654.502 416.053C653.41 413.993 654.074 411.877 653.71 409.812C653.46 408.414 652.354 407.217 650.25 407.649C647.339 408.247 648.544 409.38 649.921 410.41C650.763 411.037 651.07 411.779 650.485 412.59C650.264 412.9 649.75 413.286 649.365 413.286C648.188 413.303 648.131 412.423 647.76 411.808C647.11 410.755 647.139 409.432 645.476 408.759V408.77ZM199.633 340.671C197.421 340.24 195.002 338.905 192.398 341.224C196.386 340.413 195.352 342.259 195.223 343.53C195.074 345.06 195.53 346.314 197.342 347.125C199.533 348.109 199.419 346.308 200.31 345.687C201.145 345.106 202.115 344.658 202.993 344.105C204.085 343.421 206.161 343.467 204.234 341.81C203.357 341.057 205.469 339.394 202.793 338.963C201.73 338.79 201.067 337.295 199.533 338.146C198.077 338.952 200.289 339.688 199.625 340.677L199.633 340.671ZM596.982 71.0478C593.094 73.4119 591.339 76.449 591.867 80.2627C592.017 81.3325 592.095 82.7073 593.972 81.7985C597.004 80.3259 598.994 77.9963 600.421 75.4712C601.606 73.3716 599.13 72.8424 597.574 71.9279C597.296 71.7611 597.617 71.1168 596.989 71.0421L596.982 71.0478ZM384.962 390.91C385.312 392.141 383.507 396.208 389.25 392.958C389.65 392.734 390.72 393.09 391.398 393.326C393.952 394.195 394.651 393.412 394.473 391.462C394.316 389.708 388.38 386.09 386.132 386.487C385.162 386.659 384.998 387.223 384.969 387.844C384.934 388.65 384.962 389.449 384.962 390.91ZM740.688 337.324C742.779 337.214 744.955 337.508 746.061 335.903C746.703 334.977 746.168 333.89 745.376 333.05C743.885 331.468 741.908 332.647 740.232 332.469C737.164 332.141 734.631 335.092 731.556 333.09C731.463 333.027 730.842 333.286 730.686 333.493C730.4 333.884 730.55 334.384 731.085 334.528C734.367 335.402 737.249 337.14 740.688 337.324ZM366.355 338.215C366.426 337.525 366.626 336.403 364.992 336.794C362.788 337.324 361.175 338.75 362.01 340.516C362.467 341.477 362.424 342.115 361.796 342.621C360.126 343.967 360.233 345.791 359.377 347.344C358.122 349.622 361.125 349.167 362.153 349.783C363.844 350.795 364.036 349.179 364.2 348.5C365.014 345.124 365.642 341.724 366.355 338.209V338.215ZM452.884 369.507C447.454 372.026 447.141 377.468 452.099 379.855C453.212 380.39 454.311 380.361 454.625 379.446C455.438 377.122 457.136 374.839 456.009 372.325C454.439 372.095 453.833 374.126 452.506 373.125C451.086 372.055 453.533 370.991 452.884 369.512V369.507ZM272.171 248.874C272.185 248.166 272.028 247.545 271.307 247.511C268.575 247.378 265.214 247.436 264.009 249.259C263.152 250.565 261.083 250.991 260.969 252.434C260.905 253.268 267.576 255.218 268.318 254.58C270.273 252.906 271.136 250.766 272.171 248.874ZM288.416 280.286C288.438 278.284 286.433 277.278 285.063 275.96C284.05 274.988 282.844 273.826 281.239 274.298C279.298 274.867 281.752 275.799 281.403 276.817C280.661 279.003 281.232 281.264 282.501 283.323C282.98 284.094 284.178 285.365 285.013 284.508C286.276 283.219 288.395 282.196 288.409 280.286H288.416ZM194.41 444.405C194.332 446.205 195.523 447.079 196.722 446.355C198.234 445.44 200.032 444.773 201.302 443.674C202.422 442.708 202.351 441.546 200.596 440.953C198.512 440.246 198.334 438.9 198.327 437.427C198.327 436.513 198.298 435.604 198.234 434.695C198.191 434.068 197.977 433.401 197.078 433.269C195.844 433.09 196.272 434.051 195.887 434.465C192.898 437.726 198.092 441.684 194.41 444.405ZM214.209 428.414C213.153 426.907 212.468 424.94 210.556 424.548C208.223 424.071 208.544 426.055 208.144 427.252C207.68 428.644 206.218 428.615 204.727 428.644C203.485 428.667 201.923 426.861 201.138 428.569C200.467 430.03 202.857 430.277 203.999 430.985C204.506 431.296 205.034 431.595 205.49 431.946C206.953 433.073 208.201 432.158 209.279 431.583C211.012 430.651 213.188 430.065 214.202 428.414H214.209ZM262.896 408.178C261.312 408.264 260.348 408.425 259.428 408.345C253.428 407.827 252.5 408.558 253.014 413.476C253.078 414.08 253 414.689 253.05 415.293C253.121 416.202 253.064 417.37 254.762 417.18C255.889 417.053 256.867 416.772 257.295 415.385C258.108 412.785 258.836 409.927 262.896 408.172V408.178ZM284.756 377.209C283.672 376.921 282.53 376.777 282.223 377.864C281.924 378.929 280.283 379.814 281.003 380.907C282.216 382.748 288.495 383.409 290.664 382.04C292.098 381.137 292.611 379.504 291.084 379.021C289.03 378.365 287.26 376.858 284.756 377.209ZM451.7 390.577C449.837 390.323 450.822 388.235 449.773 388.793C448.546 389.443 447.198 388.972 446.206 389.633C445.264 390.26 445.093 391.071 445.863 391.773C446.648 392.492 447.205 393.798 448.717 393.522C451.757 392.969 454.297 389.501 454.211 386.395C454.132 383.72 451.814 382.593 448.774 383.772C448.346 383.939 447.833 384.226 447.697 384.543C447.369 385.313 448.261 385.141 448.803 385.342C451.671 386.406 453.198 387.971 451.707 390.571L451.7 390.577ZM666.146 347.557C666.338 349.357 666.524 351.157 666.716 352.958C666.781 353.568 666.781 354.183 668.015 353.93C669.913 353.539 672.645 349.449 671.946 348.011C671.311 346.7 669.87 345.733 669.592 344.243C669.435 343.386 668.243 343.496 667.915 344.088C667.273 345.25 665.81 346.136 666.146 347.551V347.557ZM84.3154 281.983C84.3296 281.287 84.1798 280.844 83.0312 280.867C80.7552 280.913 79.2498 280.039 78.2438 278.399C77.937 277.899 76.7741 277.669 75.9536 277.416C75.1331 277.163 74.0772 276.829 73.5135 277.594C72.9642 278.342 73.7918 279.009 74.491 279.377C76.1748 280.251 77.3948 281.045 77.1451 282.966C76.9667 284.381 79.0072 285.492 80.5412 285.302C82.5103 285.054 84.2012 283.881 84.3225 281.983H84.3154ZM276.394 459.826C292.376 459.826 308.357 459.837 324.339 459.826C329.904 459.826 331.524 458.21 330.667 453.775C330.403 452.383 330.425 450.95 330.375 449.535C330.189 444.479 332.187 439.044 326.187 435C325.916 434.816 325.787 434.477 325.652 434.195C321.671 425.82 312.931 421.586 302.6 420.321C289.6 418.727 279.74 423.864 272.32 432.009C269.987 434.574 267.711 437.094 267.833 440.51C268.011 445.348 267.604 450.214 268.061 455.034C268.289 457.45 267.89 458.934 264.758 459.826C268.639 459.826 272.513 459.826 276.394 459.826ZM148.677 405.779C148.392 404.554 148.606 403.576 150.204 403.519C151.916 403.455 151.745 404.548 151.395 405.509C151.245 405.929 151.303 406.309 152.216 406.395C154.556 403.985 157.189 403.553 160.157 405.998C161.013 406.7 162.846 407.062 162.511 405.607C161.955 403.168 162.911 401.04 163.417 398.785C163.624 397.864 161.933 396.38 163.267 396.012C167.306 394.902 168.076 393.136 166.25 390.306C166.093 390.059 166.749 389.553 166.706 389.185C166.478 387.338 166.977 385.003 164.259 384.197C161.898 383.501 159.543 382.161 156.518 383.404C153.55 384.617 151.731 386.671 149.355 388.304C148.12 389.15 147.678 390.116 148.798 391.503C149.897 392.86 151.595 394.545 148.67 396.058C147.857 396.478 147.857 397.306 148.627 397.939C149.476 398.635 150.197 398.307 150.96 397.772C152.301 396.829 154.206 396.564 155.434 395.408C156.44 394.465 157.752 394.62 158.88 395.385C160.014 396.15 160.249 397.168 159.465 398.123C158.195 399.676 156.454 400.763 153.942 400.004C152.622 399.607 151.417 399.659 150.147 399.872C145.616 400.62 145.231 400.424 144.418 396.703C144.189 395.661 143.519 394.965 142.156 394.988C140.736 395.006 140.779 395.966 140.608 396.766C140.201 398.67 141.878 400.004 143.297 400.925C146.872 403.237 146.679 405.808 144.81 409.006C149.176 408.46 149.291 408.443 148.67 405.785L148.677 405.779ZM28.7651 403.806C27.6592 404.83 24.6198 404.382 25.2049 406.7C25.4974 407.856 24.6912 408.586 23.514 409.208C22.772 409.599 21.1952 409.829 22.2369 410.927C22.9361 411.664 24.1775 411.514 25.1264 411.175C26.1538 410.812 27.0599 410.243 28.1015 409.725C28.7793 410.72 28.5082 412.21 30.5844 412.089C32.4608 411.98 32.8746 410.807 33.7308 409.754C36.0495 406.901 32.7605 405.175 31.7687 402.788C30.5059 403.03 30.9911 405.871 28.7579 403.806H28.7651ZM220.858 443.133C219.895 444.571 219.331 446.015 220.644 447.39C221.807 448.604 224.033 448.799 225.125 447.948C226.63 446.774 230.861 447.683 229.719 444.508C229.298 443.335 229.691 442.581 231.111 442.069C231.895 441.787 234.121 442.616 233.08 440.873C232.416 439.774 230.775 440.096 229.634 440.62C228.093 441.321 226.808 442.466 225.681 442.167C223.07 441.592 221.771 441.77 220.858 443.133ZM727.753 361.77C727.611 360.821 727.411 359.74 725.891 359.895C724.45 360.039 722.852 360.269 722.138 361.644C720.947 363.95 723.508 368.552 726.647 369.023C728.324 369.277 731.035 369.771 730.743 366.487C731.891 364.531 728.039 363.743 727.746 361.77H727.753ZM787.285 366.055C789.033 366.602 790.581 365.877 791.765 364.847C792.222 364.451 792.207 363.68 791.615 363.49C788.084 362.38 789.204 361.103 791.729 359.803C789.639 359.492 779.244 362.995 778.202 364.14C778.545 365.394 779.658 365.837 781.17 365.86C783.218 365.589 785.208 365.4 787.277 366.05L787.285 366.055ZM330.261 426.832C330.632 426.947 330.931 427.453 331.031 427.81C331.723 430.324 332.836 432.716 334.228 435.046C334.684 435.817 334.556 437.289 335.84 437.059C337.417 436.777 336.996 435.431 336.996 434.269C336.996 431.819 333.657 430.864 333.307 428.793C332.915 426.441 332.415 424.548 328.77 424.048C327.393 423.858 326.722 422.449 326.586 421.356C326.294 418.963 324.653 418.307 321.128 418.814C324.603 421.575 325.645 425.377 330.254 426.826L330.261 426.832ZM135.649 411.888C136.833 411.273 136.555 410.088 134.665 410.295C132.66 410.513 131.661 409.512 130.205 408.189C129.834 412.009 126.959 410.128 123.97 409.743C126.959 412.239 126.324 413.936 123.592 415.345C123.463 415.414 123.542 415.73 123.52 415.932C123.977 416.104 124.426 416.277 124.883 416.449C129.984 417.151 132.253 413.654 135.649 411.894V411.888Z" fill="white"/>
</mask>
<g mask="url(#mask0_52_11592)">
<path d="M466.697 -126.861L464.34 -124.898L1037.53 322.611L1039.89 320.648L466.697 -126.861Z" fill="#1BAC55"/>
<path d="M460.084 -121.697L457.727 -119.734L1030.92 327.775L1033.27 325.812L460.084 -121.697Z" fill="#1BAC55"/>
<path d="M453.475 -116.535L451.117 -114.572L1024.31 332.937L1026.66 330.974L453.475 -116.535Z" fill="#1BAC55"/>
<path d="M446.85 -111.367L444.492 -109.404L1017.68 338.105L1020.04 336.142L446.85 -111.367Z" fill="#1BAC55"/>
<path d="M440.235 -106.203L437.877 -104.24L1011.07 343.269L1013.42 341.306L440.235 -106.203Z" fill="#1BAC55"/>
<path d="M433.617 -101.037L431.26 -99.0742L1004.45 348.435L1006.81 346.472L433.617 -101.037Z" fill="#1BAC55"/>
<path d="M426.998 -95.8729L424.641 -93.9102L997.829 353.599L1000.19 351.636L426.998 -95.8729Z" fill="#1BAC55"/>
<path d="M420.393 -90.701L418.035 -88.7383L991.224 358.771L993.582 356.808L420.393 -90.701Z" fill="#1BAC55"/>
<path d="M413.774 -85.5331L411.416 -83.5703L984.605 363.939L986.962 361.976L413.774 -85.5331Z" fill="#1BAC55"/>
<path d="M407.158 -80.369L404.801 -78.4062L977.99 369.103L980.347 367.14L407.158 -80.369Z" fill="#1BAC55"/>
<path d="M400.543 -75.2069L398.186 -73.2441L971.374 374.265L973.732 372.302L400.543 -75.2069Z" fill="#1BAC55"/>
<path d="M393.928 -70.037L391.57 -68.0742L964.759 379.435L967.117 377.472L393.928 -70.037Z" fill="#1BAC55"/>
<path d="M387.307 -64.8749L384.949 -62.9121L958.138 384.597L960.496 382.634L387.307 -64.8749Z" fill="#1BAC55"/>
<path d="M380.695 -59.7128L378.338 -57.75L951.527 389.759L953.884 387.796L380.695 -59.7128Z" fill="#1BAC55"/>
<path d="M374.076 -54.5389L371.719 -52.5762L944.908 394.933L947.265 392.97L374.076 -54.5389Z" fill="#1BAC55"/>
<path d="M367.457 -49.3749L365.1 -47.4121L938.288 400.097L940.646 398.134L367.457 -49.3749Z" fill="#1BAC55"/>
<path d="M360.846 -44.2147L358.488 -42.252L931.677 405.257L934.035 403.294L360.846 -44.2147Z" fill="#1BAC55"/>
<path d="M354.223 -39.0467L351.865 -37.084L925.054 410.425L927.412 408.462L354.223 -39.0467Z" fill="#1BAC55"/>
<path d="M347.613 -33.8768L345.256 -31.9141L918.445 415.595L920.802 413.632L347.613 -33.8768Z" fill="#1BAC55"/>
<path d="M340.996 -28.7089L338.639 -26.7461L911.827 420.763L914.185 418.8L340.996 -28.7089Z" fill="#1BAC55"/>
<path d="M334.379 -23.5487L332.021 -21.5859L905.21 425.923L907.568 423.96L334.379 -23.5487Z" fill="#1BAC55"/>
<path d="M327.766 -18.3788L325.408 -16.416L898.597 431.093L900.955 429.13L327.766 -18.3788Z" fill="#1BAC55"/>
<path d="M321.149 -13.2108L318.791 -11.248L891.98 436.261L894.337 434.298L321.149 -13.2108Z" fill="#1BAC55"/>
<path d="M314.527 -8.04674L312.17 -6.08398L885.359 441.425L887.716 439.462L314.527 -8.04674Z" fill="#1BAC55"/>
<path d="M307.914 -2.88466L305.557 -0.921875L878.745 446.587L881.103 444.625L307.914 -2.88466Z" fill="#1BAC55"/>
<path d="M301.299 2.28333L298.941 4.24609L872.13 451.755L874.488 449.792L301.299 2.28333Z" fill="#1BAC55"/>
<path d="M294.678 7.4474L292.32 9.41016L865.509 456.919L867.867 454.957L294.678 7.4474Z" fill="#1BAC55"/>
<path d="M288.069 12.6095L285.711 14.5723L858.9 462.081L861.257 460.119L288.069 12.6095Z" fill="#1BAC55"/>
<path d="M281.455 17.7872L279.098 19.75L852.286 467.259L854.644 465.296L281.455 17.7872Z" fill="#1BAC55"/>
<path d="M274.836 22.9493L272.479 24.9121L845.667 472.421L848.025 470.458L274.836 22.9493Z" fill="#1BAC55"/>
<path d="M268.223 28.1134L265.865 30.0762L839.054 477.585L841.412 475.623L268.223 28.1134Z" fill="#1BAC55"/>
<path d="M261.608 33.2794L259.25 35.2422L832.439 482.751L834.796 480.789L261.608 33.2794Z" fill="#1BAC55"/>
<path d="M254.986 38.4435L252.629 40.4062L825.818 487.915L828.175 485.953L254.986 38.4435Z" fill="#1BAC55"/>
<path d="M248.377 43.6076L246.02 45.5703L819.208 493.079L821.566 491.117L248.377 43.6076Z" fill="#1BAC55"/>
<path d="M241.752 48.7755L239.395 50.7383L812.583 498.247L814.941 496.285L241.752 48.7755Z" fill="#1BAC55"/>
<path d="M235.139 53.9415L232.781 55.9043L805.97 503.413L808.328 501.451L235.139 53.9415Z" fill="#1BAC55"/>
<path d="M228.522 59.1115L226.164 61.0742L799.353 508.583L801.71 506.621L228.522 59.1115Z" fill="#1BAC55"/>
<path d="M221.901 64.2755L219.543 66.2383L792.732 513.747L795.089 511.785L221.901 64.2755Z" fill="#1BAC55"/>
<path d="M215.289 69.4357L212.932 71.3984L786.12 518.908L788.478 516.945L215.289 69.4357Z" fill="#1BAC55"/>
<path d="M208.676 74.6095L206.318 76.5723L779.507 524.081L781.865 522.119L208.676 74.6095Z" fill="#1BAC55"/>
<path d="M202.059 79.7736L199.701 81.7363L772.89 529.245L775.248 527.283L202.059 79.7736Z" fill="#1BAC55"/>
<path d="M195.447 84.9357L193.09 86.8984L766.279 534.408L768.636 532.445L195.447 84.9357Z" fill="#1BAC55"/>
<path d="M188.826 90.1095L186.469 92.0723L759.658 539.581L762.015 537.619L188.826 90.1095Z" fill="#1BAC55"/>
<path d="M182.207 95.2716L179.85 97.2344L753.038 544.744L755.396 542.781L182.207 95.2716Z" fill="#1BAC55"/>
<path d="M175.596 100.436L173.238 102.398L746.427 549.908L748.785 547.945L175.596 100.436Z" fill="#1BAC55"/>
<path d="M168.981 105.604L166.623 107.566L739.812 555.076L742.169 553.113L168.981 105.604Z" fill="#1BAC55"/>
<path d="M162.361 110.766L160.004 112.729L733.193 560.238L735.55 558.275L162.361 110.766Z" fill="#1BAC55"/>
<path d="M155.748 115.93L153.391 117.893L726.579 565.402L728.937 563.439L155.748 115.93Z" fill="#1BAC55"/>
<path d="M149.123 121.098L146.766 123.061L719.954 570.57L722.312 568.607L149.123 121.098Z" fill="#1BAC55"/>
<path d="M142.514 126.26L140.156 128.223L713.345 575.732L715.703 573.769L142.514 126.26Z" fill="#1BAC55"/>
<path d="M135.901 131.438L133.543 133.4L706.732 580.91L709.089 578.947L135.901 131.438Z" fill="#1BAC55"/>
<path d="M129.279 136.6L126.922 138.562L700.111 586.072L702.468 584.109L129.279 136.6Z" fill="#1BAC55"/>
<path d="M122.668 141.764L120.311 143.727L693.499 591.236L695.857 589.273L122.668 141.764Z" fill="#1BAC55"/>
<path d="M116.049 146.93L113.691 148.893L686.88 596.402L689.238 594.439L116.049 146.93Z" fill="#1BAC55"/>
<path d="M109.432 152.094L107.074 154.057L680.263 601.566L682.621 599.603L109.432 152.094Z" fill="#1BAC55"/>
<path d="M102.82 157.258L100.463 159.221L673.652 606.73L676.009 604.767L102.82 157.258Z" fill="#1BAC55"/>
<path d="M96.2033 162.432L93.8457 164.395L667.035 611.904L669.392 609.941L96.2033 162.432Z" fill="#1BAC55"/>
<path d="M89.5822 167.594L87.2246 169.557L660.413 617.066L662.771 615.103L89.5822 167.594Z" fill="#1BAC55"/>
<path d="M82.9669 172.758L80.6094 174.721L653.798 622.23L656.156 620.267L82.9669 172.758Z" fill="#1BAC55"/>
<path d="M76.3537 177.926L73.9961 179.889L647.185 627.398L649.542 625.435L76.3537 177.926Z" fill="#1BAC55"/>
<path d="M69.7345 183.086L67.377 185.049L640.566 632.558L642.923 630.595L69.7345 183.086Z" fill="#1BAC55"/>
<path d="M63.1251 188.256L60.7676 190.219L633.956 637.728L636.314 635.765L63.1251 188.256Z" fill="#1BAC55"/>
<path d="M56.508 193.424L54.1504 195.387L627.339 642.896L629.697 640.933L56.508 193.424Z" fill="#1BAC55"/>
<path d="M49.8908 198.586L47.5332 200.549L620.722 648.058L623.08 646.095L49.8908 198.586Z" fill="#1BAC55"/>
<path d="M43.2775 203.754L40.9199 205.717L614.109 653.226L616.466 651.263L43.2775 203.754Z" fill="#1BAC55"/>
<path d="M36.6486 208.92L34.291 210.883L607.48 658.392L609.837 656.429L36.6486 208.92Z" fill="#1BAC55"/>
<path d="M30.0412 214.086L27.6836 216.049L600.872 663.558L603.23 661.595L30.0412 214.086Z" fill="#1BAC55"/>
<path d="M23.422 219.254L21.0645 221.217L594.253 668.726L596.611 666.763L23.422 219.254Z" fill="#1BAC55"/>
<path d="M16.8029 224.416L14.4453 226.379L587.634 673.888L589.992 671.925L16.8029 224.416Z" fill="#1BAC55"/>
<path d="M10.1896 229.58L7.83203 231.543L581.021 679.052L583.378 677.089L10.1896 229.58Z" fill="#1BAC55"/>
<path d="M3.57437 234.746L1.2168 236.709L574.406 684.218L576.763 682.255L3.57437 234.746Z" fill="#1BAC55"/>
<path d="M-3.04478 239.916L-5.40234 241.879L567.787 689.388L570.144 687.425L-3.04478 239.916Z" fill="#1BAC55"/>
<path d="M-9.65024 245.082L-12.0078 247.045L561.181 694.554L563.539 692.591L-9.65024 245.082Z" fill="#1BAC55"/>
<path d="M-16.2694 250.25L-18.627 252.213L554.562 699.722L556.919 697.759L-16.2694 250.25Z" fill="#1BAC55"/>
<path d="M-22.8885 255.414L-25.2461 257.377L547.943 704.886L550.3 702.923L-22.8885 255.414Z" fill="#1BAC55"/>
<path d="M-29.5018 260.578L-31.8594 262.541L541.329 710.05L543.687 708.087L-29.5018 260.578Z" fill="#1BAC55"/>
<path d="M-36.119 265.744L-38.4766 267.707L534.712 715.216L537.07 713.253L-36.119 265.744Z" fill="#1BAC55"/>
<path d="M-42.7362 270.906L-45.0938 272.869L528.095 720.378L530.453 718.416L-42.7362 270.906Z" fill="#1BAC55"/>
<path d="M-49.3514 276.076L-51.709 278.039L521.48 725.548L523.837 723.585L-49.3514 276.076Z" fill="#1BAC55"/>
<path d="M-55.9647 281.242L-58.3223 283.205L514.867 730.714L517.224 728.751L-55.9647 281.242Z" fill="#1BAC55"/>
<path d="M-62.5877 286.408L-64.9453 288.371L508.243 735.88L510.601 733.917L-62.5877 286.408Z" fill="#1BAC55"/>
<path d="M-69.203 291.574L-71.5605 293.537L501.628 741.046L503.986 739.083L-69.203 291.574Z" fill="#1BAC55"/>
<path d="M-75.8202 296.742L-78.1777 298.705L495.011 746.214L497.369 744.251L-75.8202 296.742Z" fill="#1BAC55"/>
<path d="M-82.4295 301.906L-84.7871 303.869L488.402 751.378L490.759 749.416L-82.4295 301.906Z" fill="#1BAC55"/>
<path d="M-89.0487 307.072L-91.4062 309.035L481.783 756.544L484.14 754.582L-89.0487 307.072Z" fill="#1BAC55"/>
<path d="M-95.6659 312.242L-98.0234 314.205L475.165 761.714L477.523 759.752L-95.6659 312.242Z" fill="#1BAC55"/>
<path d="M-102.279 317.404L-104.637 319.367L468.552 766.876L470.91 764.914L-102.279 317.404Z" fill="#1BAC55"/>
<path d="M-108.898 322.572L-111.256 324.535L461.933 772.044L464.291 770.082L-108.898 322.572Z" fill="#1BAC55"/>
<path d="M-115.515 327.735L-117.873 329.697L455.316 777.206L457.673 775.244L-115.515 327.735Z" fill="#1BAC55"/>
<path d="M-122.129 332.901L-124.486 334.863L448.702 782.372L451.06 780.41L-122.129 332.901Z" fill="#1BAC55"/>
<path d="M-128.744 338.067L-131.102 340.029L442.087 787.538L444.445 785.576L-128.744 338.067Z" fill="#1BAC55"/>
<path d="M-135.365 343.229L-137.723 345.191L435.466 792.701L437.824 790.738L-135.365 343.229Z" fill="#1BAC55"/>
</g>
</svg>
