<svg width="396" height="564" viewBox="0 0 396 564" fill="none" xmlns="http://www.w3.org/2000/svg">
<mask id="mask0_53_100290" style="mask-type:luminance" maskUnits="userSpaceOnUse" x="-9" y="0" width="405" height="564">
<path d="M332.9 350.493C333.715 354.502 337.307 358.715 331.821 362.398C329.345 358.791 326.717 355.511 326.197 363.376C326.182 363.615 325.896 363.931 325.657 364.043C323.616 364.997 322.501 366.744 322.31 369.284C328.983 370.787 334.423 366.32 340.653 365.337C339.971 368.709 336.242 368.261 334.632 370.375C338.458 373.253 342.874 372.555 347.112 372.855C342.166 374.358 336.797 377.134 332.824 371.969C331.082 369.702 330.542 369.865 328.525 370.991C324.078 373.466 319.346 374.394 314.109 373.935C309.235 373.507 303.056 374.414 300.621 377.924C296.663 383.634 293.964 383.786 290.051 379.11C287.978 379.976 288.559 383.038 285.686 383.022C286.022 381.657 286.318 380.445 286.853 378.265C283.119 381.296 280.215 381.01 277.322 378.255C276.334 377.312 273.593 375.652 273.853 378.993C274.301 384.8 270.42 385.946 266.386 387.25C265.082 387.673 263.63 387.8 263.885 389.787C265.703 391.152 267.837 389.7 270.833 390.561C265.326 392.471 264.639 396.918 263.263 400.876C262.469 399.302 263.931 397.412 262.143 395.793C259.015 398.452 261.898 402.883 259.957 404.839C255.19 409.632 257.385 415.597 256.061 421.694C255.062 417.635 254.242 414.314 253.427 410.997C252.515 416.061 244.126 415.118 245.017 421.231C247.595 422.158 247.722 418.455 249.938 419.056C249.749 427.644 250.712 428.342 257.711 424.898C257.879 424.817 258.129 424.853 258.261 424.741C262.046 421.491 264.134 421.577 263.36 427.318C263.253 428.102 263.014 428.953 264.002 429.279C265.026 429.615 265.902 429.167 266.554 428.362C267.837 426.778 267.404 425.168 266.747 423.442C265.922 421.277 265.688 419.137 269.014 417.049C267.241 423.314 270.038 426.243 275.458 429.172C273.502 421.19 277.765 415.786 279.156 409.699C276.319 415.668 282.156 418.2 284.183 422.229C284.586 423.024 285.757 422.779 286.083 422.036C287.393 419.005 288.788 415.383 287.683 412.602C286.639 409.974 283.628 407.508 279.762 408.614C275.977 403.571 271.286 398.752 275.488 391.702C275.641 391.442 276.028 391.325 276.339 391.116C278.55 392.446 279.355 394.402 280.343 396.862C281.978 400.917 280.908 407.182 287 408.349C289.44 408.817 290.352 411.089 291.743 411.466C294.921 412.322 295.823 419.3 301.497 414.13C300.453 417.212 299.725 419.356 298.996 421.501C294.972 420.482 293.215 416.723 290.26 413.769C287.235 417.838 287.657 421.516 291.029 424.15C294.453 426.824 296.811 423.645 299.067 421.363C302.226 423.951 302.378 420.711 303.244 419.122C303.586 418.496 303.306 417.558 303.57 416.86C303.84 416.152 303.988 415.108 305.837 415.093C302.592 424.511 304.197 435.015 296.271 443.822C294.524 437.877 300.229 433.97 298.803 428.928C296.5 433.935 291.483 438.545 292.206 443.73C292.945 448.987 297.707 453.363 301.991 457.137C298.395 458.074 297.152 457.825 295.527 455.853C290.001 449.16 289.557 449.629 281.723 452.884C277.404 454.682 274.862 461.467 268.372 458.084C267.303 457.524 266.024 459.271 266.1 460.825C266.284 464.492 268.428 464.727 271.352 463.815C272.58 463.433 274.658 462.149 274.684 464.864C274.704 467.35 274.444 467.05 276.507 467.416C281.957 468.384 284.28 462.582 289.094 462.363C288.574 459.867 284.688 458.584 287.652 455.436C289.262 457.82 291.513 458.726 294.116 458.747C297.626 458.772 299.378 462.373 299.658 464.024C300.045 466.296 296.521 467.426 293.948 467.783C292.053 468.043 290.123 467.895 288.208 467.87C281.137 467.773 275.32 472.439 268.372 473.468C280.312 476.555 291.228 467.044 303.046 471.232C299.602 478.281 297.198 479.239 289.934 476.336C287.423 475.332 284.127 473.238 282.283 474.904C278.183 478.607 273.695 480.023 268.27 480.146C277.358 479.382 285.976 486.89 295.701 479.31C293.536 486.533 288.085 486.554 282.416 488.927C297.886 492.101 312.612 489.849 327.012 495.722C320.838 495.722 315.734 495.722 309.861 495.722C313.727 498.55 317.884 496.96 321.45 498.127C319.387 504.051 314.171 499.894 310.681 502.018C314.018 504.341 317.67 502.782 321.338 503.75C317.92 506.531 315.052 507.489 311.379 505.523C307.829 503.623 307.212 499.66 304.671 497.118C308.155 495.07 306.275 494.454 303.84 494.362C296.098 494.082 288.36 493.777 280.699 492.483C279.181 492.228 276.319 492.651 276.66 493.532C278.784 498.998 273.14 497.434 272.422 497.332C268.296 496.736 270.858 500.337 269.605 501.55C268.851 502.278 267.736 505.034 270.323 506.384C271.215 506.847 272.982 506.7 272.712 508.33C272.463 509.827 271.103 510.474 269.692 510.668C261.384 511.809 253.05 512.787 244.768 514.096C242.338 514.478 238.793 515.059 241.548 519.047C242.389 520.259 242.7 521.528 241.319 521.747C236.358 522.536 232.094 527.294 226.461 524.289C219.345 520.489 211.684 522.928 204.267 522.572C202.871 522.506 200.961 523.346 202.418 524.89C204.012 526.581 204.822 529.713 208.683 528.71C213.1 527.559 217.445 529.515 221.835 530.039C212.85 532.337 205.163 536.544 198.19 542.203C198.689 541.388 199.188 540.573 199.683 539.758C201.236 537.191 200.172 534.95 198.689 532.861C197.543 531.247 196.316 532.296 195.251 533.086C193.728 534.216 191.431 535.688 192.918 537.558C194.298 539.285 193.774 544.098 198.368 542.045C201.379 544.959 205.255 544.786 209.019 545.02C208.49 547.516 208.138 550.43 204.476 549.416C198.883 547.863 193.351 549.217 187.799 549.401C185.883 549.462 183.566 550.313 182.231 548.785C180.377 546.66 184.666 546.177 184.009 543.956C181.401 543.349 178.869 543.619 176.144 544.078C173.103 544.592 169.553 548.642 166.731 542.208C165.208 538.734 159.447 545.723 156.019 541.663C154.012 539.29 151.938 540.049 149.728 540.818C147.981 541.424 146.3 541.658 144.858 540.207C143.967 539.31 143.04 538.571 141.888 539.606C139.301 541.918 139.336 545.137 139.24 548.209C139.143 551.357 141.97 550.165 143.539 550.807C144.522 551.209 146.244 550.628 146.279 552.228C146.325 554.138 144.527 553.955 143.238 554.097C136.927 554.785 131.146 558.025 124.417 557.357C125.634 560.47 129.22 557.923 130.224 560.755C127.84 562.543 124.946 562.395 123.011 561.3C119.466 559.293 115.773 559.848 112.94 561.157C109.079 562.945 107.76 560.775 106.273 558.559C105.228 557.001 105.086 554.719 102.401 555.172C100.007 555.58 98.6829 556.95 98.4486 559.456C98.3416 560.617 97.7711 562.1 96.5129 562.008C94.7352 561.876 94.7862 560.083 94.9441 558.799C95.5146 554.143 94.1902 548.983 91.0473 546.915C88.48 545.224 88.7296 542.478 88.8366 542.163C90.1508 538.251 87.4205 537.976 85.2557 538.485C79.8257 539.758 80.4777 535.79 80.4471 533.009C80.3962 528.73 80.3503 524.395 81.7766 520.203C82.1536 519.098 82.6222 517.249 81.0125 516.576C77.5539 515.125 78.6338 514.279 81.2316 513.337C84.9602 511.982 87.2779 509.399 88.2152 505.482C89.2034 501.356 91.0677 498.101 95.9017 497.347C98.306 496.976 99.0802 494.541 99.8596 492.457C96.243 491.327 99.9665 490.155 99.8698 488.988C99.7679 487.751 106.558 484.694 98.8917 485.474C98.6676 485.499 98.1226 484.654 98.1277 484.221C98.143 483.273 99.0293 483.217 99.7475 482.901C102.259 481.796 105.875 481.175 106.93 479.214C109.237 474.94 115.36 472.597 113.44 465.832C112.793 463.56 115.365 460.881 117.927 458.92C122.018 455.787 125.293 451.615 130.117 449.333C130.82 449.002 131.584 447.78 131.533 447.026C131.156 441.377 134.024 437.047 137.375 433.125C143.676 425.754 149.952 418.45 151.949 407.916C148.103 411.273 145.607 414.935 143.029 418.552C141.476 420.732 140.157 423.263 137.452 424.308C133.698 425.754 131.36 428.846 128.578 431.48C126.51 433.436 128.023 435.932 127.32 437.511C125.461 441.693 122.573 445.488 118.783 448.325C113.394 452.359 109.365 457.213 107.083 463.764C105.784 467.493 104.052 471.634 99.1974 473.626C98.7542 469.775 100.812 467.304 102.004 464.559C102.717 462.913 104.525 461.197 102.386 459.388C98.6676 456.251 99.7169 452.12 100.843 448.641C102.315 444.082 104.714 439.777 107.083 435.57C110.582 429.355 113.058 422.815 114.759 415.913C110.46 418.791 108.687 423.314 106.39 427.461C102.462 434.551 98.4893 441.392 91.9795 446.781C84.5324 452.95 76.8051 460.423 77.2381 470.62C77.6557 480.436 74.0341 487.919 69.4089 495.605C69.0065 496.268 68.2271 496.981 68.2883 497.602C68.5837 500.495 67.7229 504.193 72.73 504.611C70.8046 505.89 69.1695 506.924 68.3239 509.104C66.6226 513.469 61.0704 514.391 59.4709 510.306C58.0141 506.593 55.4774 508.763 53.0629 507.576C58.4929 501.351 58.3961 493.211 62.3285 486.635C64.5443 482.932 64.1317 482.728 60.347 479.422C59.8631 479 59.5015 477.981 59.6492 477.375C60.3929 474.278 59.2009 471.537 58.3146 468.725C57.7645 466.978 58.279 463.993 56.0224 463.978C53.4144 463.963 53.8015 467.141 53.1292 469.026C52.4415 470.956 53.2871 472.846 53.6436 474.741C54.1428 477.415 54.6063 480.11 54.0155 482.82C53.7557 484.027 53.0935 485.031 51.6061 484.664C50.6281 484.424 49.4005 483.518 49.7876 482.764C52.9356 476.646 45.3407 471.119 48.9115 464.997C49.3343 464.273 48.8555 463.046 47.8673 462.521C47.0268 462.073 46.0895 462.572 45.9316 463.224C44.541 468.965 36.4826 470.304 36.7883 477.252C36.8392 478.424 36.34 480.512 34.2516 480.609C33.2583 480.655 32.3872 480.222 32.0052 479.132C31.4704 477.594 30.5891 476.585 32.4076 474.69C34.8832 472.113 33.9561 470.585 30.421 469.724C31.8575 466.754 31.8269 462.908 35.8052 461.757C34.5521 459.791 32.9781 461.11 31.8473 460.468L31.9645 460.58C31.6996 457.173 29.3615 457.809 27.1814 458.125L27.3036 458.268C27.9811 453.388 22.7803 455.858 21.3999 453.551C18.4353 455.456 14.3603 456.154 13.7491 460.606C13.7491 460.606 13.7338 460.326 13.7338 460.321C12.44 460.504 9.05259 458.828 8.43115 456.541C7.1577 451.834 5.06925 454.412 4.16255 456.083C0.861778 462.149 -1.71059 457.916 -3.10119 455.268C-5.72449 450.266 -5.25077 444.443 -5.41886 438.952C-5.72449 429.101 -5.50546 419.229 -5.50546 409.092C-8.1746 410.014 -7.61938 411.762 -7.62447 413.157C-7.69579 425.907 -7.72126 438.662 -7.74673 451.417C-7.74673 453.556 -7.65504 455.685 -5.99956 457.346L-5.97409 457.264C-8.32232 459.643 -7.72635 462.659 -7.72635 465.526C-7.73654 495.559 -8.55154 395.37 -8.53626 320.338C-8.53626 303.086 -9.28505 285.777 -8.22554 268.585C-7.20678 252.015 -12.163 235.257 -5.23549 218.676C-2.91781 213.129 -4.60895 205.371 -4.61914 198.622C-4.63952 187.365 -4.50198 176.072 -2.87197 164.815C-2.20468 160.2 -1.85321 155.162 -1.03311 150.735C0.133366 144.409 -2.67331 137.93 0.454275 131.965C-2.6784 130.518 1.54434 128.465 0.046771 126.683C-1.27761 127.07 -2.54087 127.442 -4.02826 127.875C-4.9808 123.693 -2.48993 119.312 -1.30308 116.78C1.091 111.666 -5.25586 115.364 -3.43738 114.162C0.281085 111.712 -2.0264 109.45 -2.12318 106.562C-2.25053 102.839 -1.28271 99.1506 -1.50683 95.0196C-1.82265 89.2228 -2.22506 83.3039 -2.3575 77.4307C-2.53069 69.5201 -5.25586 61.5687 -2.22506 52.3387C-2.1079 57.081 0.296367 59.4191 1.70225 62.2105C0.612182 64.956 2.06391 67.233 2.75667 70.0498C5.58372 65.6692 5.1049 63.377 1.53416 62.3735C6.9132 58.9555 4.45799 54.1114 3.45452 49.8682C1.48322 41.5195 3.27114 33.2625 3.00117 24.9443C4.11162 28.1381 4.47328 31.3625 4.8655 34.5869C5.91991 43.2259 6.04216 52.1095 8.24777 60.4429C12.6284 76.9876 15.481 93.6697 16.4844 110.719C16.6016 112.67 15.3638 115.598 17.7273 116.464C20.3048 117.402 22.2761 115.074 24.1047 113.332C29.3615 108.314 34.6489 103.328 40.1807 98.086C39.1263 101.3 37.0073 103.689 35.036 106.17C33.3602 108.284 30.9661 110.184 30.2122 112.593C28.6178 117.687 28.9795 117.804 24.8332 120.081C23.1369 121.013 21.3999 121.874 19.7088 122.811C16.6169 124.523 15.481 127.08 16.189 130.579C16.6067 132.652 16.8461 134.777 16.9429 136.891C17.2128 142.728 17.9871 143.202 23.5444 140.69C26.3103 139.443 28.8471 137.324 32.2293 138.358L32.102 138.215C30.3599 143.625 25.8061 146.446 21.4865 149.33C18.6187 151.245 18.741 153.725 19.1179 156.466C19.342 158.086 20.7072 159.278 21.9399 158.631C27.65 155.641 34.5623 158.346 39.9413 154.897C43.7515 152.452 47.7348 150.618 51.9983 149.518C57.4742 148.107 60.2044 142.962 64.6105 140.324C65.8636 147.939 55.9817 146.91 54.5911 153.685C62.7564 150.053 68.0183 144.124 74.8491 139.04C74.3346 142.484 72.5772 144.557 70.825 145.978C64.2744 151.291 57.8918 156.772 51.5399 162.309C49.5329 164.061 47.7705 168.895 43.1504 166.103C42.8957 165.951 41.1842 167.387 40.8327 168.334C39.218 172.725 42.259 177.595 46.9911 178.629C48.0812 178.868 49.8997 177.972 49.9965 180.208C46.6906 181.889 42.4882 177.682 39.7681 181.655C37.8274 184.492 34.98 187.024 34.7915 192.066C44.4239 186.825 53.4602 182.47 63.5256 179.205C62.4813 183.682 60.2859 185.796 56.9444 187.034C54.9935 187.757 52.5332 188.353 51.7997 190.498C51.1222 192.479 50.8777 192.112 49.0337 191.613C43.0129 189.993 30.5993 195.352 27.7315 200.502C27.1203 201.597 26.9369 203.477 27.4666 204.536C28.2409 206.079 29.8047 205.025 31.0272 204.546C32.9425 203.792 34.8679 203.049 38.1992 201.755C34.7915 205.091 34.0173 208.041 33.0494 210.633C36.0548 212.406 39.162 206.762 40.4507 210.323C42.0298 214.698 47.0115 216.084 47.9946 220.709C48.6364 218.681 49.2833 216.654 50.0983 214.082C50.3989 216.191 49.4667 218.06 51.2801 219.44C55.187 215.926 55.5487 210.068 59.8784 206.788C61.106 210.944 56.1701 213.032 58.1363 217.5C62.8532 210.124 68.1864 204.001 74.7625 199.147C77.0852 205.356 70.1984 208.198 69.1542 213.257C69.9132 213.46 70.3309 213.73 70.6314 213.634C83.1621 209.604 92.7843 201.164 101.653 192.031C103.227 190.406 103.823 187.426 106.558 186.244C109.222 185.093 111.754 183.631 114.387 182.398C115.732 181.767 117.428 180.534 118.549 182.078C119.094 182.826 118.538 184.752 117.943 185.852C117.036 187.533 115.671 188.969 114.489 190.498C107.358 199.733 97.9443 206.426 87.9452 211.82C82.3318 214.846 81.4251 218.778 81.257 223.847C81.2316 224.539 81.8989 225.227 81.527 226.322C79.8308 231.263 82.8259 232.246 86.8704 232.567C88.4902 232.695 90.3851 229.842 91.8368 233.026C89.9623 233.795 88.531 235.445 86.1369 234.849C81.9804 233.81 81.5627 236.377 82.0568 239.49C82.7342 243.763 83.6511 248.006 82.6375 252.469C85.4696 252.387 86.1624 250.227 87.6243 249.102C89.4682 247.675 89.3511 243.122 92.4074 244.476C94.562 245.434 91.6331 248.531 91.8572 250.752C91.8827 251.012 92.336 251.231 93.1256 251.964C94.9033 247.324 101.286 247.263 102.401 242.49C103.196 239.087 105.432 237.106 107.388 234.961C109.354 232.807 112.895 231.655 115.508 232.511C118.34 233.433 116.954 236.861 116.873 239.26C116.659 245.724 111 249.015 108.152 253.956C107.76 254.639 106.731 254.97 106.155 254.2C102.814 249.698 102.86 254.262 102.381 255.764C101.306 259.131 100.644 262.631 99.8035 266.12C102.34 265.906 102.977 262.274 105.228 262.967C109.92 264.414 111.244 261.637 112.614 258.225C112.961 257.364 114.244 256.885 115.141 256.192C116.231 258.708 116.542 261.133 116.71 263.787C118.029 260.945 117.927 257.104 122.389 257.354C123.719 260.868 122.751 264.301 121.692 267.358C124.743 268.539 124.167 263.649 126.846 264.862C128.889 265.784 124.682 267.954 126.582 268.759C136.26 268.096 136.983 260.42 139.841 254.18C140.106 257.481 140.376 260.782 140.64 264.123C145.668 261.592 143.855 257.359 143.804 254.027C154.964 255.072 145.179 262.855 147.802 266.68C150.207 266.308 150.191 263.665 152.203 262.692C150.926 268.495 151.368 272.657 153.528 275.177C159.951 268.876 154.99 259.946 158.54 252.84C156.411 252.917 156.92 256.325 154.226 256.151C153.9 252.779 156.263 250.283 156.844 247.309C157.017 246.412 158.306 245.913 158.515 246.427C159.528 248.908 164.439 248.383 163.114 252.657C162.437 254.847 162.274 257.211 161.999 259.508C161.866 260.629 161.724 261.994 163.583 261.846C164.571 261.77 165.85 261.51 165.656 260.354C164.754 254.98 167.857 249.27 163.945 244.069C162.63 242.317 161.209 240.6 163.206 237.203C165.931 232.562 169.105 227.804 170.256 222.288C170.388 221.646 170.21 220.938 170.174 220.291C168.631 220.306 168.947 222.624 167.434 221.977C166.262 217.994 167.449 214.632 169.568 211.418C170.347 210.236 172.166 208.132 170.358 207.562C166.848 206.456 169.349 204.862 169.222 203.339C168.738 197.634 174.463 191.74 168.646 186.153C167.79 185.332 168.819 183.758 169.767 183.183C173.149 181.12 174.545 177.86 175.339 173.194C177.856 183.993 175.884 193.926 177.321 203.701C177.642 205.886 180.178 207.745 178.711 209.92C174.484 216.186 174.02 223.485 172.37 230.519C171.168 235.649 172.329 240.682 171.718 245.806C170.801 253.452 171.478 261.286 171.478 269.003C173.394 268.188 172.008 265.086 174.489 264.51C176.261 267.903 177.193 271.367 175.65 275.065C175.064 276.465 173.725 279.028 173.088 278.493C169.726 275.676 170.872 278.686 170.612 280.102C170.409 281.228 170.261 282.466 169.68 283.398C166.018 289.317 167.897 295.664 167.108 302.637C170.495 300.447 169.502 298.216 169.39 296.224C169.278 294.227 169.746 292.908 172.059 292.562C174.086 292.261 175.925 291.716 176.547 294.508C177.025 296.657 178.762 296.703 180.484 297.508C182.97 298.674 187.87 298.797 187.121 303.147C186.627 306.014 188.115 307.329 189.419 309.208C185.211 308.75 181.391 312.952 182.807 316.228C184.921 321.107 192.118 324.775 198.399 324.077C195.623 321.52 192.368 319.34 192.093 313.803C195.343 317.211 198.964 318.357 200.844 321.683C201.516 322.875 202.428 324.327 203.936 323.15C204.995 322.32 204.165 321.051 203.462 320.084C202.362 318.576 200.92 317.241 200.722 315.25C202.179 314.144 202.948 316.971 204.348 315.683C203.854 311.108 197.182 310.762 197.457 305.658C197.64 305.714 197.834 305.755 198.012 305.826C200.161 306.702 201.45 311.679 204.338 308.205C206.804 305.24 202.739 302.744 201.618 300.06C201.124 298.873 199.667 299.255 198.654 300.146C196.784 301.787 195.154 303.437 197.64 305.841C196.499 305.138 195.434 304.069 194.191 303.794C190.183 302.897 192.317 299.535 192.195 297.757C192.032 295.328 194.894 299.413 196 297.024C193.453 292.302 184.987 293.779 184.401 286.414C187.162 286.704 187.814 289.246 189.806 290.015C195.592 292.261 200.762 295.424 204.18 300.829C205.006 302.133 206.182 302.963 207.522 302.398C209.132 301.72 208.587 300.146 208.164 298.853C207.654 297.289 205.459 295.837 207.822 294.003C209.463 296.026 209.626 300.559 213.028 299.117C222.543 295.093 224.515 290.891 224.545 280.433C224.581 269.558 225.243 258.851 232.094 249.468C234.422 246.275 235.584 242.149 236.888 238.318C238.08 234.824 239.71 231.655 241.941 227.973C245.379 235.445 239.776 241.41 240.193 248.939C246.948 236.24 254.013 224.891 253.524 210.837C253.463 209.11 253.626 206.253 255.903 206.146C258.735 206.013 257.716 208.963 258.118 210.664C258.338 211.591 258.073 212.64 258.332 213.552C258.832 215.33 258.083 218.147 260.243 218.605C262.545 219.094 262.927 216.277 263.762 214.673C266.513 209.406 268.581 203.869 270.67 198.291C276.991 181.39 281.341 163.939 286.15 146.609C286.766 144.383 287.581 141.903 284.117 141.057C278.051 139.58 277.5 133.004 273.257 129.662C275.952 131.593 278.753 132.54 281.866 132.831C283.088 132.948 284.917 132.912 283.959 135.138C283.394 136.447 283.48 137.522 285.151 137.532C286.669 137.543 286.949 136.152 287.036 135.036C287.698 126.764 291.574 118.818 290.459 110.469C289.476 103.103 295.914 100.643 298.711 95.8244C299.658 94.1944 301.023 95.529 302.083 96.4153C303.219 97.3678 302.689 99.6142 305.74 99.9605C305.99 92.8802 304.793 85.5197 308.267 78.9487C310.967 80.6449 306.051 84.0985 309.805 84.9237C311.685 85.3363 315.011 87.0478 315.495 82.1883C316.315 86.2175 313.941 89.6864 315.765 93.8022C319.524 87.6183 320.726 81.083 323.859 75.4543C320.792 87.5215 317.212 99.3697 313.819 111.274C313.305 113.082 311.318 116.057 313.778 116.872C317.828 118.222 315.526 120.163 314.726 121.609C313.391 124.034 312.989 126.749 311.955 129.107C311.114 131.022 313.249 136.381 307.498 134.828C307.202 134.746 306.331 136.264 305.944 137.135C304.604 140.14 303.025 143.095 302.139 146.238C298.838 157.979 296.342 169.949 291.906 181.37C290.958 183.804 290.174 186.163 286.842 187.538C287.55 180.463 290.602 174.956 292.542 169.144C297.881 153.17 298.441 136.412 301.115 120C301.38 118.38 301.681 116.551 299.658 116.215C297.015 115.777 297.514 118.13 297.066 119.735C292.257 137.028 290.785 155.162 283.088 171.758C277.363 184.095 276.522 198.148 269.065 210.216C266.172 214.902 265.499 221.346 261.277 225.889C260.054 227.203 259.927 228.788 261.929 230.219C265.988 233.127 265.673 242.928 261.577 245.653C260.446 246.407 258.455 247.151 258.679 244.991C259.244 239.561 254.533 235.002 256.453 229.358C255.276 235.303 249.76 239.372 250.748 246.438C251.191 249.606 249.795 254.201 244.62 256.34C238.553 258.846 237.947 264.276 241.869 270.149C242.97 268.392 244.294 266.92 244.89 265.188C246.367 260.894 248.318 259.742 251.593 263.583C252.678 264.857 253.58 265.183 254.813 263.629C257.91 259.717 259.178 261.755 259.84 265.916C262.372 262.554 267.308 260.96 264.363 255.627C263.869 254.735 264.511 253.936 265.122 253.075C270.119 246.066 273.043 238.099 276.37 230.229C278.076 226.18 278.137 221.733 280.903 217.714C284.749 212.131 289.145 206.798 291.717 200.104C294.666 192.428 294.02 184.247 296.852 176.663C298.589 172.007 298.161 171.849 302.185 174.87C302.643 171.482 304.39 168.793 305.781 165.915C307.07 163.251 309.591 160.327 308.109 157.271C306.642 154.24 308.022 152.172 308.939 149.691C311.746 142.086 314.884 134.563 317.105 126.784C324.567 100.623 326.951 73.3251 334.688 47.1991C335.875 43.2005 336.812 38.4989 335.86 34.6123C333.13 23.4416 338.774 13.7991 340.388 3.46381C340.531 2.54693 341.152 0.529788 343.032 2.20564C345.059 4.01394 346.216 3.88659 348.386 1.55873C349.185 0.69788 349.934 -0.387093 351.258 0.137567C352.736 0.723353 352.231 2.03755 351.961 3.13271C351.264 5.94958 350.499 8.75626 349.771 11.5629C348.411 16.7892 345.625 22.1478 347.453 27.4097C349.226 32.5086 347.52 36.4767 345.584 40.5822C344.02 43.8983 341.682 46.8374 339.94 50.0771C337.612 54.4017 337.057 58.8282 340.144 63.1274L340.062 63.0611C337.953 63.4024 336.884 65.2005 337.057 66.7643C337.867 74.2318 334.352 80.7519 332.646 87.6081C330.741 95.2692 330.669 102.996 329.513 110.754C332.096 110.698 331.143 106.868 333.608 107.871C335.488 108.635 334.505 110.54 334.434 112.007C332.228 114.661 331.433 118.181 328.892 120.682C327.221 122.322 328.398 124.243 329.151 126.02C330.109 128.272 330.985 130.559 332.33 133.9C335.294 126.153 330.96 118.573 334.332 111.885C336.329 108.803 337.959 108.488 340.592 111.686C344.107 115.955 345.513 120.295 343.776 125.572L343.913 125.394C342.543 130.447 339.176 134.843 340.684 140.792C342.66 148.596 332.686 146.263 331.087 150.97C330.114 153.838 327.934 151.148 326.824 152.753C322.636 158.809 318.261 164.733 314.013 170.749C313.59 171.35 313.468 172.201 313.325 172.96C309.403 193.936 301.477 213.715 295.079 233.953C294.575 235.547 293.49 237.457 294.789 238.909C296.424 240.738 297.331 238.318 298.599 237.804C299.22 237.554 300.137 237.651 300.789 237.916C304.666 239.49 307.742 237.656 310.248 235.231C315.526 230.122 323.742 230.122 328.836 224.55C327.608 226.363 326.375 228.171 324.995 230.209C329.085 231.273 331.841 230.351 335.05 228.176C340.786 224.295 345.961 220.261 348.65 213.659C349.058 212.656 349.781 211.352 351.207 212.253C352.186 212.869 351.849 214.021 351.391 214.887C348.966 219.425 347.372 224.392 341.718 226.607C337.923 228.095 334.688 230.993 330.649 233.627C336.028 234.727 348.742 228.935 351.044 224.962C351.136 224.804 351.437 224.672 351.427 224.555C350.734 218.799 356.123 217.281 358.639 213.705C358.425 218.646 352.99 221.61 354.218 226.989C356.913 227.998 359.245 224.967 362.506 226.495C355.67 231.222 348.075 233.362 340.974 236.566C336.008 238.807 331.051 238.619 327.251 235.685C322.102 231.711 317.609 233.795 313.223 235.781C309.953 237.264 307.019 239.622 303.637 241.089C300.433 242.48 300.804 245.862 301.105 248.052C301.487 250.828 304.747 249.728 306.56 249.407C311.787 248.48 316.921 247.049 322.504 245.714C320.726 248.821 318.128 248.898 315.653 248.883C311.583 248.862 308.16 250.564 304.793 252.509C303.418 253.304 301.884 254.307 303.3 256.126C306.856 260.68 302.068 260.333 300.264 260.782C293.76 262.401 288.651 267.5 287.413 274.306C290.199 274.555 290.729 270.771 294.04 270.592C292.242 275.151 292.884 279.797 290.377 283.826C291.468 283.388 292.344 282.889 292.822 282.135C294.585 279.374 296.189 276.511 297.911 273.72C300.692 269.207 307.712 266.533 312.291 268.198C313.345 268.58 313.921 269.436 313.722 270.445C313.187 273.175 314.441 274.499 316.697 275.931C319.387 277.637 318.964 279.659 315.887 280.958C312.296 282.471 308.654 283.648 304.701 283.474C302.699 283.388 300.738 283.286 300.137 285.879C299.388 289.113 297.402 289.195 294.412 288.828C286.954 287.916 278.3 294.324 277.74 299.983C282.528 300.788 286.664 297.691 291.483 297.554C293.189 297.503 295.492 297.926 296.24 296.127C298.349 291.074 300.662 293.907 302.832 295.786C303.856 296.672 304.447 298.364 305.71 296.173C307.452 293.142 310.554 293.586 313.325 292.878C316.952 291.951 321.098 293.458 324.277 290.682C328.199 287.254 331.968 283.653 335.906 280.245C339.787 276.878 343.465 273.098 349.705 272.182C347.178 282.486 337.658 285.767 332.04 292.664C334.001 291.732 335.957 290.804 338.392 289.648C338.035 290.728 338.009 291.365 337.684 291.706C330.949 298.72 323.136 303.233 312.989 302.714C310.804 302.602 308.608 303.325 306.958 305.429C310.854 306.56 315.332 306.391 314.441 312.743C318.261 310.069 321.409 307.548 324.847 305.515C332.793 300.814 339.976 294.986 347.963 290.305C354.666 286.378 362.984 284.488 366.825 276.409C367.615 274.754 369.958 273.837 371.588 272.579C370.207 274.667 368.562 276.257 367.202 278.172C366.015 279.843 368.318 282.685 366.03 283.429C360.448 285.242 360.02 291.859 355.237 294.329C354.299 294.813 354.029 296.402 354.631 297.518C355.435 299.011 356.602 298.033 357.636 297.696C363.489 295.812 368.511 291.543 375.021 292.159C374.629 293.937 373.452 295.959 371.567 297.284C363.438 303.009 354.763 307.548 344.55 307.869C340.852 307.986 338.071 308.77 335.773 312.132C333.802 315.01 331.067 317.995 327.083 317.995C319.687 317.995 312.561 321.489 304.992 319.498C303.438 319.09 301.543 319.819 299.842 320.19C297.972 320.598 297.264 321.907 297.916 323.685C298.716 325.88 304.39 327.312 306.26 325.865C307.549 324.867 308.792 322.676 309.933 326.064C311.736 331.417 318.347 334.85 324.027 333.501C319.891 336.969 319.657 343.383 323.131 349.271C325.968 354.079 329.421 352.21 332.972 350.595L332.865 350.524L332.9 350.493ZM226.598 482.586C224.739 481.796 224.184 483.986 223.257 485.046C222.635 485.754 222.223 486.686 222.951 487.664C224.601 489.895 225.941 486.757 227.5 487.409C229.364 489.365 231.106 489.085 232.996 487.318C234.371 486.034 235.803 484.7 234.132 483.003C232.466 481.312 231.544 483.156 230.546 484.317C229.542 485.479 228.396 486.513 227.311 487.608C227.632 485.835 229.176 483.676 226.603 482.586H226.598ZM252.052 462.307C250.503 460.458 247.33 458.956 251.288 456.297C252.016 455.808 251.583 454.397 250.809 453.734C249.296 452.441 240.632 455.813 240.881 457.738C241.171 459.984 240.3 461.395 239.485 463.29C237.764 467.284 241.1 470.844 245.379 469.617C248.002 468.863 251.023 468.343 252.928 465.883C254.96 466.754 257.13 467.33 258.954 465.766C260.12 464.768 259.519 463.178 258.872 461.981C258.292 460.906 258.348 459.098 256.371 459.287C254.573 459.455 254.466 460.855 254.171 462.21C253.88 463.525 253.381 464.788 252.974 466.072C253.335 464.65 252.953 463.377 252.052 462.302V462.307ZM254.532 280.286C252.765 277.326 252.042 273.119 247.707 274.051C243.759 274.897 245.104 278.004 246.062 280.586C243.81 279.048 243.484 282.318 241.869 282.384C240.275 280.26 244.788 278.019 241.706 276.195C238.823 274.489 237.341 277.785 235.14 278.508C233.643 276.797 235.405 275.172 235.166 273.297C234.524 273.491 233.938 273.501 233.597 273.796C226.685 279.72 226.634 280.851 232.92 287.651C234.631 289.5 233.943 296.688 231.447 297.645C226.196 299.663 226.802 304.013 226.012 308.215C237.81 304.502 242.206 294.615 246.877 285.028C247.722 283.296 246.683 281.656 245.654 280.199C248.583 281.248 251.441 278.294 254.527 280.291L254.532 280.286ZM141.099 380.185C145.123 379.981 149.529 376.971 152.147 372.87C153.981 369.992 155.871 367.12 159.712 372.224C159.712 370.303 159.87 369.361 159.676 368.5C159.294 366.789 158.438 364.547 160.567 364.023C161.978 363.671 163.547 366.223 165.661 365.265C165.875 366.529 165.569 368.098 167.933 367.237C169.716 366.585 170.388 365.556 170.449 363.844C170.48 363.07 170.617 362.291 170.556 361.527C170.118 356.173 171.611 353.366 177.28 356.652C179.725 358.068 181.61 356.142 182.19 355.057C183.393 352.816 184.391 349.77 183.815 347.478C183.296 345.415 181.498 347.305 180.555 348.41C179.776 349.327 179.689 351.115 177.642 350.259C175.757 349.47 177.942 347.651 176.526 346.785C174.575 347.6 173.174 352.434 170.251 347.396C169.39 345.909 168.391 349.414 165.539 349.128C164.994 349.037 165.676 347.493 165.325 346.541C164.632 344.666 163.746 343.418 161.505 344.483C159.431 345.471 160.252 346.958 160.771 348.41C162.14 352.227 161.564 355.596 159.044 358.516C159.661 353.188 157.644 348.741 158.683 343.495C155.657 344.361 154.475 345.817 154.042 348.359C153.589 351.033 154.827 354.818 149.371 354.462C147.227 354.324 150.497 356.616 149.763 357.976C142.591 358.475 142.785 352.556 141.374 347.697C136.947 350.167 136.402 354.309 138.878 356.901C141.792 359.963 138.216 363.707 141.359 366.05C139.01 368.072 136.362 364.394 133.85 367.16C137.411 368.255 140.218 370.252 142.342 373.237C140.136 374.149 138.521 371.072 136.377 372.397C135.939 372.667 135.373 373.635 135.445 373.706C139.438 377.74 128.864 381.184 135.404 385.62C135.536 381.713 136.734 380.414 141.104 380.19L141.099 380.185ZM60.2146 260.507C63.388 257.715 62.9805 260.206 63.2148 262.34C63.2454 262.605 65.8381 263.109 66.8518 262.641C69.0269 261.642 72.8625 260.817 72.3429 258.316C71.3598 253.559 74.6708 250.553 75.5775 246.657C75.9697 244.955 76.5606 243.356 74.0341 243.6C71.0949 243.886 71.2223 241.405 69.9234 240.035C63.8923 233.683 70.5652 229.98 73.107 226.073C74.2531 224.315 74.2378 223.48 73.8201 222.054C73.0764 219.517 71.8488 221.463 70.7995 221.789C61.6205 224.641 60.3114 226.765 62.5425 236.983C63.1028 239.551 62.7258 241.43 61.4626 243.478C58.3656 248.506 56.379 255.708 56.2669 262.233C57.8969 261.444 56.9189 255.948 60.2146 260.507ZM143.574 312.998C144.232 314.913 145.602 317.104 141.761 318.316C139.591 319.004 140.88 321.754 142.586 322.855C143.748 323.603 145.199 323.741 144.512 325.641C143.865 327.429 142.342 327.184 141.099 326.874C139 326.354 137.615 326.858 137.304 329.038C136.953 331.55 139.464 331.295 140.508 331.305C142.546 331.331 146.162 335.594 146.565 329.247C146.702 327.042 149.534 330.475 151.312 328.427C152.234 325.457 145.867 325.157 147.95 321.321C150.594 321.219 154.847 324.347 155.249 318.117C150.634 319.055 147.42 316.9 147.843 311.765C148.189 307.568 146.228 306.137 143.31 304.471C142.856 307.385 142.581 310.125 143.569 312.993L143.574 312.998ZM199.81 362.423C202.561 363.06 202.54 360.324 203.732 359.031C208.245 354.125 205.688 346.729 209.926 341.671C211.062 340.316 209.508 339.216 208.373 338.492C207.237 337.774 205.846 338.014 205.316 339.094C202.423 344.977 196.341 349.536 197.905 357.319C198.338 358.959 196.743 361.715 199.81 362.423ZM159.1 329.303C158.362 330.541 160.201 331.504 161.352 332.258C163.277 333.511 165.315 332.635 165.885 331.213C167.388 327.485 173.5 327.76 173.017 322.63C172.976 322.187 172.324 321.393 172.069 321.438C165.513 322.534 165.62 317.74 165.269 312.102C160.231 317.924 162.034 324.388 159.095 329.303H159.1ZM-7.29847 319.747C-1.83284 307.196 -3.79395 294.34 -5.50546 281.615C-8.43948 294.329 -7.48185 307.043 -7.29847 319.747ZM151.77 291.543C153.472 296.362 147.252 299.841 149.621 304.685C150.889 307.283 153.808 306.921 156.146 308.225C156.538 306.065 156.691 304.12 157.267 302.311C158.138 299.591 152.881 300.08 154.669 296.362C155.779 294.054 157.012 289.898 153.171 288.202C151.923 287.651 151.872 284.906 149.779 286.276C148.276 287.259 148.994 288.584 149.213 289.923C149.386 290.998 149.06 292.149 148.959 293.27C150.4 293.275 150.258 291.115 151.77 291.543ZM248.695 406.607C246.79 405.028 247.911 402.746 247.106 400.958C246.678 404.732 244.61 408.186 245.415 412.098C254.604 407.408 258.855 402.946 258.169 398.711C257.762 403.229 252.969 399.75 251.797 402.914C249.953 401.177 251.95 398.869 250.717 396.48C248.7 400.046 250.585 403.617 248.695 406.602V406.607ZM290.831 326.782C291.126 325.371 292.838 323.848 291.35 322.595C289.613 321.133 288.213 322.834 286.914 323.929C282.467 327.678 281.535 333.867 277.363 337.907C281.3 333.424 289.343 333.903 290.831 326.782ZM344.56 22.1224C345.222 20.4669 344.988 18.3326 343.063 17.6959C340.964 17.0031 340.129 18.9795 339.456 20.5738C337.357 25.5607 335.906 30.6545 338.32 36.548C340.419 31.7445 342.619 26.9869 344.565 22.1224H344.56ZM285.813 440.669C282.798 436.461 285.268 433.079 286.837 428.413C282.294 430.196 282.604 433.644 283.246 435.825C284.092 438.713 279.049 439.441 281.586 442.472C283.552 444.825 279.63 447.739 282.401 450.525C288.926 447.255 289.629 445.992 285.813 440.664V440.669ZM163.751 409.515C158.459 415.455 148.006 417.003 148.23 428.933C154.75 422.749 159.381 416.244 163.751 409.515ZM305.751 345.013C304.869 345.746 303.642 346.281 303.708 347.565C303.789 349.128 305.216 348.772 306.255 349.118C307.447 349.521 308.353 350.733 309.535 351.232C311.435 352.032 313.335 351.344 314.7 350.05C316.631 348.227 314.476 348.003 313.457 346.994C311.165 344.727 315.205 344.264 315.001 341.895C311.894 343.174 308.42 342.797 305.751 345.018V345.013ZM270.359 430.512C270.95 432.799 269.381 435.02 270.619 437.2C271.347 438.489 270.527 441.137 273.359 440.608C276.064 440.103 275.993 438.494 274.953 436.365C273.191 432.753 276.415 434.842 278.096 434.108C275.402 432.264 273.359 430.598 270.359 430.512ZM111.224 553.267C109.869 553.608 108.738 554.602 109.212 556.201C109.675 557.78 111.112 557.882 112.502 557.688C115.854 557.225 118.279 555.809 118.258 551.647C115.345 551.179 113.404 552.717 111.224 553.262V553.267ZM286.654 301.675C287.016 303.366 287.632 306.468 290.082 306.208C292.502 305.948 293.627 303.35 293.857 300.961C294.081 298.593 292.283 298.792 290.602 299.011C289.145 299.703 286.007 298.644 286.654 301.68V301.675ZM314.563 364.812C314.537 364.705 313.412 364.619 313.198 364.868C312.046 366.208 311.405 367.828 311.41 369.605C311.41 370.624 312.337 370.736 313.091 370.767C316.896 370.909 320.161 370.329 319.911 365.026C317.894 364.736 316.06 370.634 314.563 364.812ZM134.477 541.954C134.151 542.932 133.051 544.124 134.752 544.771C136.097 545.28 136.754 544.098 137.487 543.197C140.085 539.972 137.589 536.59 137.411 533.325C136.433 536.203 135.445 539.076 134.482 541.959L134.477 541.954ZM174.397 401.722C174.636 400.637 175.665 399.475 174.514 398.548C173.287 397.565 172.339 398.762 171.601 399.552C169.93 401.35 168.386 403.27 166.39 405.618C169.425 404.06 173.419 406.118 174.397 401.722ZM188.497 523.993C182.69 524.024 181.044 525.134 178.467 531.583C181.696 529.138 184.926 526.698 188.497 523.993ZM10.4636 102.12C10.1936 101.804 7.90649 103.215 6.55154 103.822C8.56359 105.37 7.05583 109.435 11.2939 109.792C12.2464 106.852 12.2719 104.239 10.4585 102.115L10.4636 102.12ZM214.215 487.914C213.67 488.897 215.03 489.595 216.013 489.238C218.433 488.367 220.307 486.915 220.231 483.981C220.2 482.856 219.737 482.183 219.059 482.26C215.356 482.84 215.341 485.881 214.21 487.914H214.215ZM50.9745 250.1C53.175 249.382 54.912 248.587 54.4383 245.862C54.2702 244.894 53.6334 243.631 52.6809 244.15C50.8471 245.154 49.2884 246.667 47.6788 247.92C48.7281 249.366 49.0643 250.716 50.9694 250.1H50.9745ZM257.354 473.641C258.307 473.086 259.392 471.7 258.602 470.824C256.58 468.573 254.033 470.406 251.573 470.681C253.172 472.612 254.293 475.424 257.354 473.641ZM-5.27114 384.316C-8.20007 388.483 -8.37836 391.804 -6.35103 398.93C-4.53254 394 -6.56497 389.456 -5.27114 384.316ZM197.808 344.753C200.304 344.085 200.375 341.289 201.47 339.425C202.184 338.212 200.645 337.657 199.902 337.677C196.53 337.764 197.767 340.963 196.738 342.369C196.687 343.596 196.626 345.069 197.803 344.748L197.808 344.753ZM-6.08106 361.868C-8.07273 364.95 -7.61938 368.143 -6.08106 371.363C-6.08106 368.199 -6.08106 365.031 -6.08106 361.868ZM166.456 278.136C166.379 277.418 165.32 276.766 164.678 277.296C163.135 278.574 162.365 280.092 163.899 282.074C164.337 282.639 164.087 283.744 164.164 284.707C168.279 283.449 166.7 280.525 166.456 278.136ZM155.84 324.912C155.901 325.167 157.048 325.508 157.226 325.335C159.584 322.992 158.204 320.053 158.662 317.063C156.39 319.493 155.117 321.897 155.845 324.912H155.84ZM318.495 428.179C322.545 426.727 321.465 422.728 322.051 419.947C323.08 415.042 323.426 409.933 325.367 405.287C327.226 400.84 324.394 397.249 324.21 392.594C320.079 395.675 318.342 400.29 314.349 402.832C314.502 398.217 318.505 394.366 316.824 389.568C314.466 388.987 314.649 391.646 312.653 392.171C312.24 389.624 311.13 387.301 308.71 385.223C306.718 391.514 301.655 391.977 296.286 391.83L296.444 391.672C296.663 391.962 296.841 392.471 297.101 392.517C301.696 393.337 307.915 393.037 302.297 400.53C302.114 400.774 302.48 401.839 302.837 402.012C304.722 402.924 305.048 400.168 306.652 400.301C306.433 402.97 307.182 403.902 309.591 403.917C310.834 403.927 311.583 404.681 310.875 405.705C308.14 409.658 311.328 414.365 309.041 418.358C311.486 416.132 310.926 412.994 311.736 410.289C312.281 408.476 313.274 406.311 315.714 406.994C319.035 407.926 315.668 409.648 315.948 410.671C316.544 412.862 316.504 414.721 315.419 416.636L315.363 416.56C318.521 416.025 317.426 411.14 321.811 411.043C322.051 417.018 319.621 422.494 318.526 428.174C318.546 428.184 318.49 428.174 318.49 428.174L318.495 428.179ZM319.193 444.611C322.81 443.012 326.131 440.959 330.099 439.879C335.529 438.397 336.227 434.123 333.069 426.488C330.175 427.868 329.1 431.031 326.706 432.809C322.575 435.881 320.512 435.137 319.646 430.186C319.524 429.483 318.918 428.861 318.516 428.194C318.495 428.184 318.551 428.189 318.531 428.179C318.979 437.531 314.685 444.071 305.99 442.452C306.204 444.504 309.479 447.52 304.472 448.136C302.974 448.32 304.243 449.95 305.093 450.663C307.039 452.293 311.058 452.868 311.058 451.31C311.058 446.333 315.174 448.411 316.952 446.848C317.797 446.104 318.551 445.253 319.361 444.438C318.083 443.323 315.704 445.182 314.965 442.88C314.833 442.462 315.724 441.199 316.147 441.193C319.392 441.173 321.618 438 325.229 438C323.548 440.974 320.263 441.759 319.193 444.611ZM163.007 227.748C162.325 219.986 161.622 214.082 161.362 208.158C161.235 205.254 158.917 205.066 157.603 205.326C155.866 205.667 155.56 207.144 156.472 209.37C158.153 213.481 158.79 217.923 152.285 218.799C151.786 218.865 151.246 219.308 150.91 219.731C150.39 220.378 152.417 234.824 153.039 235.364C153.961 236.168 155.744 236.892 156.064 235.965C157.465 231.92 163.114 230.871 163.002 227.748H163.007ZM13.7847 460.586C13.7847 460.586 13.7694 460.305 13.7694 460.3C11.3754 469.897 16.4488 475.775 23.7482 480.691C26.7433 482.708 26.4275 479.84 26.9267 478.679C28.2358 475.643 26.9012 471.537 30.6859 469.495C26.1372 469.194 25.8825 467.218 28.5873 464.1C29.6621 462.862 31.7709 462.557 31.8779 460.448L31.995 460.56C29.8454 460.27 29.1629 462.251 27.8589 463.26C27.0744 463.866 26.2441 464.574 25.3171 463.876C24.2066 463.041 24.3747 461.864 25.1031 460.815C25.7551 459.877 26.509 459.006 27.217 458.105L27.3393 458.247C22.0519 461.187 19.3777 461.65 14.3501 460.529C14.1769 460.489 13.9732 460.565 13.7847 460.586ZM337.892 398.976C341 398.834 343.047 397.224 345.66 396.837C351.493 395.976 350.082 389.492 351.61 385.447C352.649 382.696 348.946 383.19 347.392 382.192C346.582 381.673 345.742 381.204 344.937 380.679C342.426 379.059 340.404 378.056 341.163 382.737C341.351 383.888 341.412 385.967 339.94 386.328C333.338 387.953 333.924 393.643 332.401 398.599C334.846 397.241 336.811 395.127 338.295 392.257C340.505 394.489 337.541 396.429 337.892 398.981V398.976ZM327.251 58.9555C333.339 39.426 333.395 20.6095 336.441 1.80323C333.69 2.45524 333.98 4.16675 333.257 5.17023C326.844 14.0436 332.829 24.2312 330.191 33.5121C329.049 37.5158 328.912 41.8863 327.272 45.6353C325.545 49.583 324.862 53.1741 327.251 58.9555ZM306.046 232.46C303.769 231.421 305.037 227.815 302.475 228.706C300.377 229.44 300.754 232.027 301.324 233.871C302.256 236.871 304.136 234.467 305.577 234.36C307.304 234.233 308.262 232.908 309.133 231.615C310.416 229.71 311.613 229.032 314.339 229.521C318.842 230.321 321.281 227.356 322.04 223.057C320.125 221.804 319.555 224.025 317.787 223.908C317.991 221.6 318.297 219.064 316.254 216.7C313.931 217.301 311.369 221.514 308.338 217.413C307.238 218.254 303.596 216.338 305.873 220.882C307.284 223.694 308.99 228.406 306.041 232.46H306.046ZM343.949 125.368C344.443 127.727 342.793 131.287 345.263 132.22C347.54 133.08 349.985 130.442 352.338 129.153C360.55 124.655 357.977 115.084 363.315 108.982C360.835 108.533 360.86 109.949 360.381 110.744C359.887 111.569 359.51 112.471 359.098 113.347C357.962 115.756 356.821 117.702 353.398 116.551C350.708 115.644 349.262 117.972 347.886 119.887C346.531 121.772 345.176 123.652 343.816 125.547C343.816 125.557 343.949 125.373 343.949 125.373V125.368ZM199.107 270.103C196.81 271.397 194.798 273.205 196.005 276.74C196.31 277.632 196.341 279.023 195.338 279.303C186.316 281.804 193.076 284.396 195.353 286.694C196.891 288.247 198.862 289.373 200.875 290.86C201.827 289.256 200.314 287.565 201.399 286.037C202.78 284.101 204.466 285.711 206.065 285.716C204.292 280.026 204.44 274.132 199.112 270.103H199.107ZM44.9282 519.444C34.7406 512.934 34.1955 511.08 38.5711 500.287C39.2893 498.519 39.8751 496.604 40.0177 494.719C40.1553 492.926 40.848 490.807 38.8665 489.391C37.8172 492.513 31.7964 488.128 32.5095 493.4C32.861 496.003 28.2358 498.188 32.4942 501.422C33.7982 502.411 30.8642 507.347 32.3261 510.668C33.732 513.872 36.4877 515.685 39.0805 517.661C40.5679 518.797 42.096 520.117 44.9231 519.439L44.9282 519.444ZM82.994 188.898C81.2316 189.464 80.4268 189.723 79.2144 190.116C81.4761 186.713 83.972 184.146 87.0589 181.874C85.7345 179.597 83.4423 178.955 81.1093 178.553C77.5844 177.946 73.9627 176.963 74.8236 183.086C75.17 185.562 73.9526 188.287 73.3209 190.869C72.6129 193.763 74.4008 195.413 76.4995 196.289C78.7254 197.216 79.1533 194.827 80.004 193.416C80.7782 192.133 81.6544 190.91 82.994 188.898ZM353.133 341.498C354.829 339.532 356.108 338.156 357.264 336.684C358.39 335.243 359.215 333.552 357.656 332.003C355.822 330.179 354.371 331.886 353.301 333.083C351.258 335.36 349.491 337.881 347.306 340.688C352.114 342.909 357.02 344.075 362.057 344.636C364.207 344.875 366.606 342.96 366.412 341.64C366.163 339.934 366.285 337.968 365.679 336.516C365.052 335.024 363.397 336.613 362.236 337.066C359.322 338.197 357.452 341.508 353.133 341.498ZM16.0718 531.338C14.5488 532 13.0207 532.668 11.4416 533.355C11.0188 531.69 13.6778 531.145 12.4603 529.678C11.6555 528.71 10.3057 529.041 9.20031 529.316C5.46147 530.248 1.73282 531.221 -1.98565 532.23C-3.10628 532.535 -4.37464 533.014 -4.20145 534.44C-4.0792 535.444 -3.06044 535.938 -2.03149 536.035C-0.294512 536.203 1.26419 536.325 2.29823 538.251C3.32208 540.166 5.14565 539.881 6.80114 538.796C7.28505 538.48 7.69255 538.052 8.17646 537.731C11.0137 535.846 13.8611 533.977 16.7035 532.102C16.4946 531.843 16.2807 531.588 16.0718 531.328V531.338ZM-5.93334 457.239C-5.43924 463.733 -2.21996 468.934 2.3186 473.376C0.0314913 475.342 -2.1894 472.77 -4.43067 474.43C-2.38806 477.589 0.917809 477.527 3.95371 477.915C4.93681 478.042 6.26119 477.237 6.10329 476.402C5.57863 473.605 3.53602 471.481 5.05397 467.88C6.5057 464.426 2.13013 463.978 -0.197731 462.582C-2.40844 461.253 -5.15399 460.331 -5.97409 457.356C-5.95881 457.32 -5.92824 457.239 -5.92824 457.239H-5.93334ZM-4.22692 513.484C-4.27276 518.237 -1.21649 518.94 0.123178 521.003C0.214867 523.448 -2.81084 521.36 -3.13685 523.178C1.88563 527.019 8.966 527.207 13.8357 523.626C14.7474 522.954 16.0362 522.414 15.486 520.972C15.0582 519.857 13.8509 520.208 12.9391 520.132C6.99979 519.623 0.719152 520.229 -4.22182 513.479L-4.22692 513.484ZM272.615 546.238C276.258 544.852 280.129 543.385 283.995 541.908C285.014 541.521 287.021 540.879 286.618 542.31C284.927 548.352 289.537 545.086 291.024 545.188C294.239 545.407 297.519 544.883 300.759 544.506C301.64 544.404 302.694 543.91 302.822 542.784C302.964 541.541 301.986 541.159 301.013 541.011C290.872 539.453 280.603 537.242 272.615 546.243V546.238ZM-2.72934 495.57C-2.20468 497.862 -0.294512 498.193 1.07062 499.156C4.15237 501.331 8.3904 501.86 9.62819 498.718C10.5094 496.481 9.06787 491.973 6.03707 489.625C5.75182 489.406 5.25772 489.024 5.12019 489.116C-1.36421 493.344 -1.6953 486.197 -4.78723 483.497C-5.51055 490.562 0.780276 492.096 4.49365 495.616C1.63603 498.606 -0.141699 493.904 -2.72425 495.575L-2.72934 495.57ZM372.688 383.644C370.121 384.622 371.033 387.474 368.964 388.437C367.008 388.508 367.864 385.111 365.373 385.427C364.202 388.519 362.923 391.692 361.787 394.916C360.57 398.365 365.241 396.755 365.44 399.037C369.509 398.044 374.038 388.733 372.683 383.644H372.688ZM337.668 81.358C341.799 79.4733 343.312 76.9162 343.389 74.3897C343.541 69.5099 346.577 68.7967 350.301 67.5742C357.6 65.1802 364.92 62.3531 366.377 53.0569C362.77 54.3762 362.18 58.4156 359.439 60.4226C356.322 62.7046 353.327 65.4501 349.506 66.1938C341.499 67.7474 340.108 74.0739 337.668 81.358ZM287.698 113.077C286.486 110.968 288.854 107.815 285.161 107.194C283.134 106.852 277.77 112.593 278.015 115.059C278.198 116.908 278.942 118.762 279.767 120.448C280.093 121.115 281.463 121.864 282.105 121.68C283.868 121.181 282.273 120.28 282.059 119.567C281.83 118.808 281.662 117.626 282.706 118.079C290.046 121.288 285.493 114.244 287.698 113.077ZM218.183 237.269C219.615 240.111 219.339 243.045 222.131 245.465C224.494 247.512 223.45 251.491 221.968 254.659C221.26 256.172 219.452 258.79 222.044 259.473C224.199 260.038 224.627 257.017 224.703 255.204C224.841 252.036 226.817 249.27 226.919 246.336C227.097 241.125 225.345 236.759 218.188 237.274L218.183 237.269ZM290.77 88.5861C287.367 86.681 284.489 82.4124 284.601 81.1186C285.192 74.1809 278.203 78.1795 276.828 74.7208C278.29 78.9538 281.545 82.1527 281.55 87.0376C281.55 90.0022 285.375 90.6083 290.77 88.5861ZM214.806 267.959C214.954 271.616 215.071 274.861 213.655 277.871C215.351 278.549 215.815 276.98 217.511 276.43C215.122 280.194 218.565 282.064 220.17 282.104C223.175 282.181 222.192 278.712 222.543 276.72C222.793 275.294 222.161 273.699 221.866 272.192C221.453 270.098 221.616 267.388 218.224 270.322C216.889 271.479 216.894 268.402 214.806 267.959ZM392.987 398.467C392.477 401.319 392.095 404.192 390.246 406.612C388.428 408.991 386.589 410.941 391.851 411.762C394.943 412.245 392.584 415.134 391.953 416.753C391.321 418.378 389.778 420.503 391.652 421.318C394.25 422.448 394.871 419.229 394.958 417.793C395.31 411.914 395.192 406.006 395.101 400.107C395.085 399.032 393.817 398.828 392.87 398.63L392.987 398.467ZM348.982 319.365C345.732 320.42 343.577 321.194 341.382 321.81C339.746 322.269 337.245 323.379 336.553 322.712C334.928 321.158 337.113 319.33 338.137 316.625C335.081 317.975 333.761 319.299 333.975 321.866C334.247 325.092 333.468 327.575 331.637 329.314C340.495 327.281 345.828 324.413 348.982 319.36V319.365ZM198.21 555.895C205.301 557.714 211.439 557.933 218.27 558.422C212.916 552.07 205.515 551.087 198.21 555.895ZM32.1325 138.189C36.4928 133.452 38.9277 138.271 41.4389 140.436C42.7531 141.572 42.8601 142.881 45.244 141.857C47.689 140.803 45.8145 139.982 45.7279 139.06C45.5343 137.048 45.3662 134.955 42.3914 135.795C39.2893 136.677 37.2977 135.867 36.6609 132.428C36.2738 130.335 34.0325 133.223 33.406 131.389C31.7709 132.016 33.5741 132.703 33.3805 133.401C32.9323 135.016 32.6165 136.671 32.2548 138.317C32.265 138.327 32.1376 138.184 32.1376 138.184L32.1325 138.189ZM150.451 560.454C144.929 557.673 139.515 557.821 132.776 561.178C139.662 563.618 145.062 562.298 150.451 560.454ZM362.2 2.92896C357.468 8.59835 357.167 15.8825 354.895 22.4484C360.707 17.1661 360.025 9.53051 362.2 2.92896ZM370.421 349.515C368.582 352.434 362.414 349.933 362.888 356.158C362.989 357.523 359.765 356.586 358.196 357.452C364.774 357.951 368.851 355.307 370.426 349.521L370.421 349.515ZM-2.41862 504.051C2.18616 507.657 5.30865 511.437 10.7284 511.727C8.75206 505.747 5.07434 503.455 -2.41862 504.051ZM294.672 549.615C299.918 550.078 304.253 550.221 308.481 550.965C310.075 551.245 310.753 550.7 311.063 549.722C311.384 548.708 310.371 548.005 309.433 547.74C304.599 546.396 299.893 546.243 294.677 549.615H294.672ZM388.57 382.61C385.377 387.678 385.412 393.205 380.879 396.613C387.664 396.429 390.618 391.32 388.57 382.61ZM381.465 381.041C378.566 386.68 376.325 391.035 373.931 395.691C380.986 392.65 383.176 388.88 381.465 381.041ZM392.87 398.63C393.977 394.725 393.832 391.488 392.437 388.921C390.72 393.633 389.085 398.115 387.272 403.077C390.919 402.929 391.785 400.494 392.992 398.467L392.875 398.63H392.87ZM357.779 386.624C355.018 390.067 354.32 394.137 352.899 398.232C359.5 395.604 360.707 392.675 357.779 386.624ZM210.925 268.682C205.831 272.472 204.827 276.374 207.94 281.788C209.116 277.148 211.862 273.516 210.925 268.682ZM353.367 365.52C359.847 368.948 363.636 365.515 367.864 360.37C361.955 360.732 358.553 365.316 353.367 365.52ZM332.9 350.493C339.283 351.446 344.682 348.706 350.107 346.062C343.694 344.921 338.702 348.945 333.033 350.58C333.007 350.56 332.906 350.488 332.906 350.488L332.9 350.493ZM17.493 487.949C15.0378 483.716 13.7287 480.563 12.9748 477.181C12.766 476.239 12.2362 475.149 11.1869 475.281C9.6231 475.48 9.69441 477.044 10.0204 478.006C11.248 481.623 11.8236 485.774 17.493 487.944V487.949ZM301.497 90.7765C304.38 87.7406 305.175 84.3073 305.43 80.5685C301.538 81.8963 300.227 85.2989 301.497 90.7765ZM296.286 391.835C295.97 390.261 297.254 387.912 293.515 388.463C291.228 388.799 288.651 387.179 285.324 386.17C288.213 391.254 291.977 392.207 296.444 391.672L296.286 391.83V391.835ZM275.845 206.844C281.219 204.134 282.136 198.551 284.082 193.63C279.772 197.043 277.638 201.857 275.85 206.889V206.844H275.845ZM275.85 206.889C274.872 212.956 270.17 217.714 270.099 224.101C274.138 219.109 276.823 213.639 275.85 206.864C275.845 206.844 275.85 206.889 275.85 206.889ZM355.425 0.983134C354.32 6.46405 353.214 11.9501 352.028 17.8385C356.042 14.5683 356.128 14.1811 355.425 0.983134ZM309.168 74.6903C311.664 69.7595 310.539 65.4909 309.642 61.2274C307.808 65.445 307.151 69.6831 309.168 74.6903ZM324.755 429.631C328.652 428.383 330.741 425.759 331.026 420.956C326.793 422.769 325.993 426.345 324.755 429.631ZM309.189 244.68C314.476 246.32 318.628 244.471 323.655 240.152C317.813 241.98 313.498 243.33 309.189 244.68ZM248.191 523.153C242.878 523.474 237.484 523.56 233.546 528.165C238.426 526.494 243.311 524.823 248.191 523.153ZM324.592 553.257C319.56 555.732 315.408 558.992 312.719 563.959C316.677 560.393 320.635 556.823 324.592 553.257ZM92.1883 459.149C88.8977 463.56 88.2814 466.999 88.5157 472.128C91.3835 467.819 92.7537 464.549 92.1883 459.149ZM343.266 521.701C337.408 521.548 332.513 524.125 327.934 527.61C333.043 525.638 338.152 523.672 343.266 521.701ZM364.334 15.7042C363.657 22.7846 362.052 28.0413 360.295 33.945C364.273 30.2979 365.623 24.4451 364.334 15.7042ZM282.08 93.7563C283.852 97.1793 286.756 97.6582 289.878 97.5206C290.882 97.4748 291.885 96.8992 291.926 95.8753C291.972 94.663 290.795 94.5051 289.853 94.5204C287.255 94.5713 284.632 94.9635 282.08 93.7563ZM162.172 199.59C162.768 197.186 165.187 195.057 163.094 192.448C162.753 192.021 161.194 191.847 161.051 192.077C159.38 194.807 161.24 197.104 162.167 199.59H162.172ZM315.424 416.636C314.196 421.964 312.968 427.293 311.746 432.621C313.274 427.349 317.329 422.581 315.388 416.585C315.368 416.56 315.424 416.636 315.424 416.636ZM340.098 63.0357C341.555 57.9674 346.567 54.8041 347.306 49.3487C345.212 54.0706 339.288 56.7601 340.154 63.0713C340.179 63.0968 340.098 63.0306 340.098 63.0306V63.0357ZM283.735 496.008C285.284 500.215 288.544 502.212 292.975 502.579C289.894 500.388 286.817 498.198 283.735 496.008Z" fill="white"/>
</mask>
<g mask="url(#mask0_53_100290)">
<path d="M393.955 -48.9717H392.213V630.479H393.955V-48.9717Z" fill="#F3FFD3"/>
<path d="M389.885 -48.9717H388.143V630.479H389.885V-48.9717Z" fill="#F3FFD3"/>
<path d="M385.808 -48.9717H384.066V630.479H385.808V-48.9717Z" fill="#F3FFD3"/>
<path d="M381.734 -48.9717H379.992V630.479H381.734V-48.9717Z" fill="#F3FFD3"/>
<path d="M377.664 -48.9717H375.922V630.479H377.664V-48.9717Z" fill="#F3FFD3"/>
<path d="M373.59 -48.9717H371.848V630.479H373.59V-48.9717Z" fill="#F3FFD3"/>
<path d="M369.514 -48.9717H367.771V630.479H369.514V-48.9717Z" fill="#F3FFD3"/>
<path d="M365.443 -48.9717H363.701V630.479H365.443V-48.9717Z" fill="#F3FFD3"/>
<path d="M361.369 -48.9717H359.627V630.479H361.369V-48.9717Z" fill="#F3FFD3"/>
<path d="M357.293 -48.9717H355.551V630.479H357.293V-48.9717Z" fill="#F3FFD3"/>
<path d="M353.224 -48.9717H351.482V630.479H353.224V-48.9717Z" fill="#F3FFD3"/>
<path d="M349.15 -48.9717H347.408V630.479H349.15V-48.9717Z" fill="#F3FFD3"/>
<path d="M345.074 -48.9717H343.332V630.479H345.074V-48.9717Z" fill="#F3FFD3"/>
<path d="M341.006 -48.9717H339.264V630.479H341.006V-48.9717Z" fill="#F3FFD3"/>
<path d="M336.93 -48.9717H335.188V630.479H336.93V-48.9717Z" fill="#F3FFD3"/>
<path d="M332.853 -48.9717H331.111V630.479H332.853V-48.9717Z" fill="#F3FFD3"/>
<path d="M328.785 -48.9717H327.043V630.479H328.785V-48.9717Z" fill="#F3FFD3"/>
<path d="M324.709 -48.9717H322.967V630.479H324.709V-48.9717Z" fill="#F3FFD3"/>
<path d="M320.635 -48.9717H318.893V630.479H320.635V-48.9717Z" fill="#F3FFD3"/>
<path d="M316.56 -48.9717H314.818V630.479H316.56V-48.9717Z" fill="#F3FFD3"/>
<path d="M312.49 -48.9717H310.748V630.479H312.49V-48.9717Z" fill="#F3FFD3"/>
<path d="M308.414 -48.9717H306.672V630.479H308.414V-48.9717Z" fill="#F3FFD3"/>
<path d="M304.34 -48.9717H302.598V630.479H304.34V-48.9717Z" fill="#F3FFD3"/>
<path d="M300.269 -48.9717H298.527V630.479H300.269V-48.9717Z" fill="#F3FFD3"/>
<path d="M296.195 -48.9717H294.453V630.479H296.195V-48.9717Z" fill="#F3FFD3"/>
<path d="M292.121 -48.9717H290.379V630.479H292.121V-48.9717Z" fill="#F3FFD3"/>
<path d="M288.049 -48.9717H286.307V630.479H288.049V-48.9717Z" fill="#F3FFD3"/>
<path d="M283.974 -48.9717H282.232V630.479H283.974V-48.9717Z" fill="#F3FFD3"/>
<path d="M279.9 -48.9717H278.158V630.479H279.9V-48.9717Z" fill="#F3FFD3"/>
<path d="M275.828 -48.9717H274.086V630.479H275.828V-48.9717Z" fill="#F3FFD3"/>
<path d="M271.756 -48.9717H270.014V630.479H271.756V-48.9717Z" fill="#F3FFD3"/>
<path d="M267.68 -48.9717H265.938V630.479H267.68V-48.9717Z" fill="#F3FFD3"/>
<path d="M263.609 -48.9717H261.867V630.479H263.609V-48.9717Z" fill="#F3FFD3"/>
<path d="M259.535 -48.9717H257.793V630.479H259.535V-48.9717Z" fill="#F3FFD3"/>
<path d="M255.459 -48.9717H253.717V630.479H255.459V-48.9717Z" fill="#F3FFD3"/>
<path d="M251.391 -48.9717H249.648V630.479H251.391V-48.9717Z" fill="#F3FFD3"/>
<path d="M247.314 -48.9717H245.572V630.479H247.314V-48.9717Z" fill="#F3FFD3"/>
<path d="M243.24 -48.9717H241.498V630.479H243.24V-48.9717Z" fill="#F3FFD3"/>
<path d="M239.164 -48.9717H237.422V630.479H239.164V-48.9717Z" fill="#F3FFD3"/>
<path d="M235.096 -48.9717H233.354V630.479H235.096V-48.9717Z" fill="#F3FFD3"/>
<path d="M231.019 -48.9717H229.277V630.479H231.019V-48.9717Z" fill="#F3FFD3"/>
<path d="M226.945 -48.9717H225.203V630.479H226.945V-48.9717Z" fill="#F3FFD3"/>
<path d="M222.875 -48.9717H221.133V630.479H222.875V-48.9717Z" fill="#F3FFD3"/>
<path d="M218.801 -48.9717H217.059V630.479H218.801V-48.9717Z" fill="#F3FFD3"/>
<path d="M214.725 -48.9717H212.982V630.479H214.725V-48.9717Z" fill="#F3FFD3"/>
<path d="M210.656 -48.9717H208.914V630.479H210.656V-48.9717Z" fill="#F3FFD3"/>
<path d="M206.58 -48.9717H204.838V630.479H206.58V-48.9717Z" fill="#F3FFD3"/>
<path d="M202.504 -48.9717H200.762V630.479H202.504V-48.9717Z" fill="#F3FFD3"/>
<path d="M198.435 -48.9717H196.693V630.479H198.435V-48.9717Z" fill="#F3FFD3"/>
<path d="M194.359 -48.9717H192.617V630.479H194.359V-48.9717Z" fill="#F3FFD3"/>
<path d="M190.285 -48.9717H188.543V630.479H190.285V-48.9717Z" fill="#F3FFD3"/>
<path d="M186.215 -48.9717H184.473V630.479H186.215V-48.9717Z" fill="#F3FFD3"/>
<path d="M182.139 -48.9717H180.396V630.479H182.139V-48.9717Z" fill="#F3FFD3"/>
<path d="M178.064 -48.9717H176.322V630.479H178.064V-48.9717Z" fill="#F3FFD3"/>
<path d="M173.994 -48.9717H172.252V630.479H173.994V-48.9717Z" fill="#F3FFD3"/>
<path d="M169.92 -48.9717H168.178V630.479H169.92V-48.9717Z" fill="#F3FFD3"/>
<path d="M165.844 -48.9717H164.102V630.479H165.844V-48.9717Z" fill="#F3FFD3"/>
<path d="M161.769 -48.9717H160.027V630.479H161.769V-48.9717Z" fill="#F3FFD3"/>
<path d="M157.699 -48.9717H155.957V630.479H157.699V-48.9717Z" fill="#F3FFD3"/>
<path d="M153.623 -48.9717H151.881V630.479H153.623V-48.9717Z" fill="#F3FFD3"/>
<path d="M149.549 -48.9717H147.807V630.479H149.549V-48.9717Z" fill="#F3FFD3"/>
<path d="M145.478 -48.9717H143.736V630.479H145.478V-48.9717Z" fill="#F3FFD3"/>
<path d="M141.404 -48.9717H139.662V630.479H141.404V-48.9717Z" fill="#F3FFD3"/>
<path d="M137.328 -48.9717H135.586V630.479H137.328V-48.9717Z" fill="#F3FFD3"/>
<path d="M133.26 -48.9717H131.518V630.479H133.26V-48.9717Z" fill="#F3FFD3"/>
<path d="M129.183 -48.9717H127.441V630.479H129.183V-48.9717Z" fill="#F3FFD3"/>
<path d="M125.109 -48.9717H123.367V630.479H125.109V-48.9717Z" fill="#F3FFD3"/>
<path d="M121.039 -48.9717H119.297V630.479H121.039V-48.9717Z" fill="#F3FFD3"/>
<path d="M116.965 -48.9717H115.223V630.479H116.965V-48.9717Z" fill="#F3FFD3"/>
<path d="M112.891 -48.9717H111.148V630.479H112.891V-48.9717Z" fill="#F3FFD3"/>
<path d="M108.82 -48.9717H107.078V630.479H108.82V-48.9717Z" fill="#F3FFD3"/>
<path d="M104.744 -48.9717H103.002V630.479H104.744V-48.9717Z" fill="#F3FFD3"/>
<path d="M100.67 -48.9717H98.9277V630.479H100.67V-48.9717Z" fill="#F3FFD3"/>
<path d="M96.5995 -48.9717H94.8574V630.479H96.5995V-48.9717Z" fill="#F3FFD3"/>
<path d="M92.5233 -48.9717H90.7812V630.479H92.5233V-48.9717Z" fill="#F3FFD3"/>
<path d="M88.4511 -48.9717H86.709V630.479H88.4511V-48.9717Z" fill="#F3FFD3"/>
<path d="M84.3749 -48.9717H82.6328V630.479H84.3749V-48.9717Z" fill="#F3FFD3"/>
<path d="M80.3046 -48.9717H78.5625V630.479H80.3046V-48.9717Z" fill="#F3FFD3"/>
<path d="M76.2304 -48.9717H74.4883V630.479H76.2304V-48.9717Z" fill="#F3FFD3"/>
<path d="M72.1542 -48.9717H70.4121V630.479H72.1542V-48.9717Z" fill="#F3FFD3"/>
<path d="M68.0839 -48.9717H66.3418V630.479H68.0839V-48.9717Z" fill="#F3FFD3"/>
<path d="M64.0097 -48.9717H62.2676V630.479H64.0097V-48.9717Z" fill="#F3FFD3"/>
<path d="M59.9354 -48.9717H58.1934V630.479H59.9354V-48.9717Z" fill="#F3FFD3"/>
<path d="M55.8651 -48.9717H54.123V630.479H55.8651V-48.9717Z" fill="#F3FFD3"/>
<path d="M51.7889 -48.9717H50.0469V630.479H51.7889V-48.9717Z" fill="#F3FFD3"/>
<path d="M47.7147 -48.9717H45.9727V630.479H47.7147V-48.9717Z" fill="#F3FFD3"/>
<path d="M43.6444 -48.9717H41.9023V630.479H43.6444V-48.9717Z" fill="#F3FFD3"/>
<path d="M39.5702 -48.9717H37.8281V630.479H39.5702V-48.9717Z" fill="#F3FFD3"/>
<path d="M35.494 -48.9717H33.752V630.479H35.494V-48.9717Z" fill="#F3FFD3"/>
<path d="M31.4257 -48.9717H29.6836V630.479H31.4257V-48.9717Z" fill="#F3FFD3"/>
<path d="M27.3514 -48.9717H25.6094V630.479H27.3514V-48.9717Z" fill="#F3FFD3"/>
<path d="M23.2753 -48.9717H21.5332V630.479H23.2753V-48.9717Z" fill="#F3FFD3"/>
<path d="M19.205 -48.9717H17.4629V630.479H19.205V-48.9717Z" fill="#F3FFD3"/>
<path d="M15.1307 -48.9717H13.3887V630.479H15.1307V-48.9717Z" fill="#F3FFD3"/>
<path d="M11.0546 -48.9717H9.3125V630.479H11.0546V-48.9717Z" fill="#F3FFD3"/>
<path d="M6.98036 -48.9717H5.23828V630.479H6.98036V-48.9717Z" fill="#F3FFD3"/>
<path d="M2.91005 -48.9717H1.16797V630.479H2.91005V-48.9717Z" fill="#F3FFD3"/>
</g>
</svg>
