<svg width="1189" height="832" viewBox="0 0 1189 832" fill="none" xmlns="http://www.w3.org/2000/svg">
<mask id="mask0_53_99978" style="mask-type:luminance" maskUnits="userSpaceOnUse" x="0" y="0" width="1189" height="832">
<path d="M197.481 703.724C201.201 685.933 195.831 685.582 180.761 695.584C171.701 701.601 157.291 696.348 159.381 688.685C162.191 678.432 152.501 678.153 148.601 673.422C146.291 670.624 142.231 669.698 139.441 671.983C136.521 674.384 139.531 676.93 141.921 678.378C146.681 681.274 145.911 685.564 142.251 686.886C126.621 692.553 136.231 696.07 143.101 700.045C145.411 701.376 146.721 703.211 145.861 705.568C141.151 718.385 150.561 720.534 161.251 722.207C163.961 717.198 155.221 715.821 158.611 710.425C163.141 711.063 169.181 710.461 172.771 712.763C177.841 716.001 166.991 719.302 170.371 723.593C176.521 725.931 183.701 721.578 189.851 727.154C174.111 733.441 158.501 725.607 143.311 728.8C149.191 731.364 155.261 732.434 161.261 733.738C164.101 734.359 168.241 735.159 167.481 738.227C166.371 742.733 161.611 741.069 158.911 739.836C150.671 736.068 138.801 737.237 138.811 743.03C138.831 751.673 132.101 749.587 127.391 752.267C137.081 755.865 145.651 759.651 154.221 762.143C165.011 765.282 177.991 768.7 186.811 756.512C190.481 751.439 197.441 752.672 201.541 755.541C208.731 760.578 212.841 757.259 218.451 753.544C236.441 741.644 257.221 739.621 277.941 744.846C289.081 747.653 298.671 750.306 308.791 743.857C307.711 741.689 305.661 740.727 303.211 739.864C299.281 738.469 292.801 740.565 291.641 735.636C290.241 729.673 297.951 731.535 301.001 729.178C305.661 725.58 307.051 721.326 305.551 716.181C303.791 710.128 298.591 713.663 294.771 712.925C291.051 712.206 286.621 714.157 283.511 711.144C284.381 704.605 300.281 705.136 294.821 700.297C287.931 694.181 289.561 683.621 278.411 680.185C274.751 684.683 272.341 693.056 263.731 689.782C256.171 686.904 261.281 680.087 261.701 674.924C244.341 675.49 242.981 682.668 245.441 697.958C246.441 704.192 245.621 708.077 242.291 712.637C232.411 705.154 241.541 694.721 235.621 684.575C232.271 692.31 229.671 698.174 221.331 698.867C214.631 699.425 207.811 702.357 201.781 696.753C200.001 703.184 204.981 708.374 200.121 714.364C196.071 710.722 196.831 706.602 197.431 703.715L197.481 703.724ZM1144.22 469.68C1144.05 461.099 1138.55 459.633 1133.37 458.32C1124.51 456.071 1126.22 448.966 1126.34 444.253C1126.48 438.856 1131.99 437.849 1137.56 440.925C1139.93 442.238 1141.72 441.86 1143.48 439.288C1149.18 430.95 1158.94 431.535 1165.56 435.771C1167.99 437.327 1175.39 449.982 1160.58 453.166C1158.57 453.598 1157.7 456.017 1159.3 457.457C1160.46 458.5 1162.9 459.264 1164.52 458.995C1169.83 458.104 1172.93 454.659 1175.65 450.81C1177.7 447.904 1181.01 446.088 1184.42 448.561C1188.19 451.295 1184.11 452.851 1182.16 454.497C1177.75 458.212 1177.24 463.879 1181.16 466.154C1189.89 471.218 1188.06 478.117 1187.8 484.854C1187.56 491.015 1182.8 488.442 1179.5 487.318C1174.76 485.699 1170.13 485.168 1168.23 490.079C1166.29 495.089 1171.65 495.152 1175.23 496.456C1177.38 497.239 1178.95 499.155 1180.91 500.414C1191.5 507.196 1191.35 514.049 1180.47 520.975C1179.71 521.461 1179.16 522.234 1178.64 522.954C1167.14 538.757 1165.13 538.784 1149.11 524.879C1143.7 520.193 1139.36 514.112 1130.81 512.835C1126.15 512.134 1126.14 508.977 1126.59 505.73C1127.4 499.838 1126.18 492.993 1121.64 489.944C1109.65 481.876 1118.59 475.517 1122.95 469.455C1128.31 461.99 1136.09 466.397 1144.23 469.689L1144.22 469.68ZM1075.98 563.393C1071.46 557.205 1064.71 551.367 1069.42 541.671C1070.76 538.91 1067.38 534.467 1066.25 530.779C1065.68 528.917 1064.42 527.397 1062.22 527.811C1059.33 528.351 1057.87 530.59 1059.54 532.731C1063.88 538.307 1061.98 542.994 1056.52 546.331C1050.9 549.766 1047.93 543.884 1043.65 542.4C1035.07 539.414 1038.44 532.767 1038.21 527.739C1037.97 522.504 1044.31 523.224 1047.24 524.258C1055.94 527.343 1060.99 520.445 1068.07 519.293C1072.27 518.619 1072.78 514.841 1071.63 511.783C1070.94 509.939 1069.03 507.556 1067.13 507.106C1061.12 505.667 1063.67 510.353 1062.24 512.511C1059.74 516.289 1054.33 520.121 1050 518.259C1042.19 514.895 1040.19 506.701 1041.15 500.279C1042.38 492.112 1042.69 480.689 1060.42 487.318C1068.13 490.205 1078.64 491.968 1088.14 487.957C1090.65 486.895 1094.56 486.814 1095.88 489.935C1096.85 492.247 1097.19 494.891 1094.53 497.185C1091.03 500.198 1087.64 505.289 1084.61 506.449C1067.27 513.051 1081.98 519.419 1083.95 525.607C1084.93 528.674 1088.3 528.926 1091.38 527.586C1095.07 525.976 1094.96 522.972 1092.53 521.155C1085.36 515.803 1092.58 512.835 1094.98 509.354C1096.97 506.467 1101.99 507.223 1102.34 509.354C1103.13 514.049 1108.24 519.662 1103.39 523.44C1099.91 526.147 1098.51 526.597 1102.26 529.583C1110.61 536.239 1103.52 544.792 1099.39 546.267C1088.93 549.991 1086.4 560.074 1075.98 563.402V563.393ZM343.821 621.461C339.281 617.485 336.081 612.089 331.951 611.513C313.711 608.941 318.551 600.117 322.981 590.583C324.261 587.84 324.981 584.323 324.201 581.553C321.961 573.611 326.701 571.83 334.251 570.939C339.741 570.292 347.191 567.854 349.721 571.731C352.801 576.462 347.381 581.202 341.671 584.233C353.691 595.719 359.441 583.217 368.721 580.482C364.211 585.348 371.391 594.631 357.761 596.555C350.991 597.509 347.011 602.842 352.961 609.166C354.111 610.389 357.131 611.882 356.941 612.215C350.171 623.791 344.251 635.96 335.601 646.403C331.491 651.367 306.951 644.397 304.401 638.883C300.751 631.013 309.001 616.577 318.701 612.952C323.041 611.333 325.131 614.22 328.211 615.192C333.111 616.748 335.791 622.09 343.821 621.461ZM664.381 824.582C672.981 818.655 679.101 814.967 677.781 807.241C683.961 809.318 682.131 814.283 685.241 816.334C689.221 818.961 693.911 820.642 698.961 818.88C703.301 817.368 705.181 814.427 702.961 810.443C694.681 795.548 710.601 790.358 719.261 784.08C722.431 781.778 724.021 781.751 722.921 778.288C721.931 775.185 721.431 771.956 726.361 771.038C728.681 770.607 731.171 770.849 733.581 770.786C733.551 773.728 733.951 776.732 733.421 779.61C731.981 787.435 723.971 789.981 713.101 794.451C721.761 794.685 725.931 794.801 730.081 794.918C730.851 799.811 725.671 799.497 723.671 801.691C720.991 804.632 719.951 814.167 722.391 817.827C723.761 819.887 724.921 823.44 723.791 825.077C721.531 828.342 718.941 826.669 717.681 823.647C717.171 822.414 715.551 820.66 715.001 821.713C710.861 829.592 700.511 824.105 696.931 827.253C684.451 838.236 677.021 826.291 664.391 824.591L664.381 824.582ZM387.081 631.706C391.591 635.933 397.251 639.414 399.791 644.163C402.161 648.588 403.851 650.9 409.421 649.164C411.761 648.435 415.401 646.906 413.761 644.945C410.961 641.591 412.501 635.447 404.741 634.827C401.721 634.584 397.861 637.66 395.281 633.891C413.691 627.082 422.651 629.853 430.931 644.873C437.111 656.071 440.931 656.548 449.421 647.059C451.391 644.855 454.401 641.977 455.891 645.701C458.351 651.889 453.871 658.068 451.411 663.717C450.011 666.937 444.681 667.153 439.021 665.048C421.261 658.437 404.731 648.435 384.011 648.741C381.151 648.786 376.291 644.882 375.781 642.274C374.881 637.687 379.591 639.351 383.061 639.135C388.601 638.784 381.221 633.423 387.101 631.697L387.081 631.706ZM426.831 688.245C416.601 676.156 434.051 681.355 437.371 678.638C443.781 673.395 453.241 680.365 461.911 680.177C465.801 680.096 466.271 687.219 465.711 691.698C464.621 700.387 436.281 715.237 427.211 711.945C424.021 710.784 424.451 709.103 425.431 706.791C427.901 701.008 427.141 694.981 426.831 688.245ZM334.571 532.92C333.501 527.19 321.961 525.364 330.451 519.041C337.491 513.807 343.811 505.541 354.151 507.645C361.281 509.103 361.631 516.919 359.641 522.135C354.291 536.131 331.821 546.987 312.981 545.134C318.651 538.865 322.641 531.589 334.571 532.92ZM834.051 655.388C841.041 646.78 853.541 644.622 846.751 633.163C845.211 630.554 854.441 626.633 859.201 626.291C866.931 625.733 859.551 630.644 860.961 632.398C864.101 636.329 868.081 639.549 873.031 641.923C885.961 648.129 886.401 652.681 876.981 662.17C872.881 666.298 861.401 673.988 880.311 673.988C883.281 673.988 885.491 675.634 884.001 678.126C881.771 681.867 880.241 686.5 874.331 687.444C871.231 687.939 868.341 688.254 867.731 684.377C866.591 677.082 865.251 670.049 870.211 663.015C872.981 659.085 875.661 653.526 871.681 649.47C867.601 645.305 861.731 647.383 856.351 649.218C850.141 651.331 843.641 652.771 834.051 655.379V655.388ZM735.481 740.178C749.691 733.019 757.521 735.753 761.091 752.42C765.101 738.838 774.191 734.287 780.081 727.388C785.511 721.029 793.661 720.085 802.451 720.921C802.851 725.517 802.151 730.896 796.151 730.959C781.731 731.112 779.401 741.06 775.231 749.146C770.981 757.367 763.401 759.759 755.681 753.364C749.981 748.642 745.211 743.11 735.491 740.178H735.481ZM299.901 161.306C300.951 162.098 301.841 162.844 302.621 163.537C301.481 163.15 300.521 162.466 299.901 161.306ZM1170.76 239.701C1178.75 239.441 1180.18 234.026 1184.24 229.763C1178.76 228.225 1176.48 234.413 1174.12 232.704C1159.25 221.973 1161.53 238.011 1155.62 241.186C1150.26 244.073 1151.94 250.333 1147.48 253.688C1143.48 250.306 1145.21 247.383 1146.87 244.864C1148.85 241.86 1150.13 239.477 1145.58 237.435C1141.24 235.492 1139.26 236.832 1137.94 240.619C1134.28 251.169 1124.56 246.222 1119.46 244.028C1112.37 240.979 1119.97 235.852 1121.14 231.642C1121.83 229.151 1127.94 228.422 1124.31 224.042C1104.67 231.22 1084.62 236.338 1063.1 232.146C1074.15 222 1094.29 223.808 1100.65 206.674C1105.18 214.922 1096.59 217.62 1098.32 223.467C1107.18 221.551 1111.05 217.458 1110.35 209.777C1109.52 200.603 1110.27 194.504 1123.65 202.231C1127.54 204.479 1136.78 208.518 1142.16 201.439C1146.68 195.494 1142.47 192.337 1136.59 189.072C1132.07 186.562 1137.84 174.816 1142.95 172.513C1149.71 169.473 1157.48 174.519 1163.15 169.959C1165.05 168.43 1171.57 169.041 1168.54 164.13C1167.27 162.071 1167.15 158.617 1162.78 159.228C1151.06 160.865 1141.91 152.24 1130.39 154.416C1130.23 146.6 1139.5 151.718 1140.95 147.032C1133.71 142.346 1133.41 130.032 1119.67 132.875C1119.26 132.956 1117.9 130.131 1117.26 128.575C1112.65 117.458 1100.64 119.707 1091.66 119.608C1085.59 119.545 1088.6 118.007 1086.89 116.055C1078.01 105.882 1088.38 101.277 1093.58 94.6843C1083.85 89.2517 1073.81 86.5534 1061.26 86.4274C1070.63 77.5769 1067.09 66.0641 1060.45 66.4958C1051.54 67.0714 1039.47 63.1768 1031.56 71.9104C1028.99 74.7437 1024.43 78.4764 1019.96 75.3463C1016.14 72.675 1022.37 70.2465 1022.45 67.6651C1022.62 62.3493 1021.68 57.0067 1021.2 51.673C1017.49 57.4384 1020.58 64.8228 1012.53 68.6814C1009.77 70.0036 1007.9 74.294 1003.97 70.8041C1001.03 68.1957 1001.35 65.3175 1004.96 62.988C1008.54 60.6764 1010.6 58.0141 1006.25 52.7613C997.551 63.3118 985.841 61.0182 975.201 57.1776C965.631 53.7237 957.891 53.166 950.291 62.6462C948.601 54.5332 949.891 42.7955 937.761 51.7899C929.081 58.2299 927.881 54.1824 923.991 48.9926C922.231 46.6361 923.161 40.4479 916.861 42.5346C905.741 46.2133 894.121 39.7823 882.291 45.6287C877.171 48.1561 869.481 45.0531 873.251 54.1554C874.221 56.485 873.471 58.5357 870.521 59.3992C868.011 60.1367 864.551 60.1997 864.201 57.7532C862.171 43.9018 843.351 41.1045 839.411 28.5573C838.161 24.5818 834.521 20.2824 829.891 23.4485C825.791 26.2547 830.181 29.5737 833.781 31.4175C836.141 32.6318 838.411 34.3497 836.581 36.4904C834.201 39.2607 831.301 37.8665 829.381 35.51C828.271 34.1428 828.101 32.0651 824.441 32.3979C824.591 39.4855 818.901 42.4267 812.361 45.3499C808.801 37.156 821.181 32.8027 815.871 24.7436C811.641 18.3126 805.311 14.58 799.111 10.2087C790.651 4.24537 789.691 13.5456 784.961 15.0207C777.711 17.2873 781.041 19.4369 785.071 21.7395C786.891 22.7739 787.521 24.5997 785.601 26.0748C783.111 27.9906 780.741 27.7748 777.481 26.4796C769.261 23.2326 775.781 16.181 772.421 11.5308C761.521 22.0903 752.721 23.6553 738.891 18.5105C733.811 16.6217 733.851 9.21029 726.841 10.0917C706.141 12.7181 684.611 9.3542 663.391 18.4925C662.741 11.342 662.231 5.67548 661.721 0C660.841 8.36482 652.361 11.4139 647.751 16.3788C644.201 20.1925 637.971 21.0739 634.571 16.9905C623.331 3.51681 621.851 13.5006 619.241 21.2178C613.661 22.3871 613.301 6.86275 604.111 17.9079C603.391 18.7714 595.671 18.2677 595.911 14.5979C596.241 9.60603 595.161 9.42615 590.491 11.0092C584.281 13.1229 587.551 15.0927 590.081 17.4582C596.461 23.4035 589.671 28.6023 586.711 32.0651C583.721 35.564 577.791 33.4413 575.051 28.5123C573.771 26.2097 571.821 26.3267 569.151 28.3234C558.481 36.3105 549.281 34.6915 542.261 24.2669C538.641 18.8973 535.391 24.3479 531.991 24.4378C528.401 24.5278 526.521 27.2531 526.561 29.8525C526.621 33.6841 531.171 32.1011 533.571 33.2074C535.751 34.2148 537.841 35.3571 539.971 36.4454C543.111 38.0644 549.331 35.564 549.451 40.6638C549.511 43.2092 546.951 46.4922 544.471 48.2641C540.331 51.2233 535.951 47.5445 534.051 45.6287C526.641 38.1543 523.711 41.995 521.131 48.6149C520.171 51.0793 519.551 54.3533 516.201 54.5872C512.001 54.875 510.361 51.7359 509.761 48.5519C509.321 46.2673 508.511 44.3515 505.481 42.8854C502.261 45.5208 500.011 48.6778 494.731 50.5937C484.041 54.4792 474.431 61.7287 470.391 72.558C467.271 80.9228 461.751 87.3269 450.411 87.3089C445.441 87.3089 442.291 90.4929 438.211 91.8781C434.021 93.3082 427.471 89.4855 425.361 95.6017C423.381 101.358 434.731 96.1054 433.181 102.114C432.851 103.382 432.561 104.812 431.701 105.792C426.971 111.207 432.531 114.391 436.181 118.861C430.721 118.807 426.451 118.771 421.971 118.726C422.921 121.479 423.891 123.907 424.591 126.381C430.121 145.755 425.261 153.202 402.041 156.593C395.071 157.609 396.561 163.555 391.671 165.398C387.641 157.798 383.951 150.837 380.441 144.208C372.431 145.035 370.031 154.956 360.031 150.693C344.111 143.893 332.511 150.009 328.951 165.336C328.001 169.428 323.391 172.189 318.591 173.664C317.241 174.078 314.791 173.754 315.331 172.27C320.031 159.3 308.651 165.56 302.601 163.51C314.821 174.519 294.381 173.727 293.621 180.293C302.211 182.407 315.281 180.365 313.391 193.614C303.161 195.935 288.741 187.552 283.011 199.101C278.871 207.456 291.841 211.027 297.661 217.116C295.341 207.357 297.041 200.189 311.721 196.978C294.561 211.378 316.091 207.888 318.691 213.024C309.241 220.444 299.931 227.073 286.091 223.781C281.811 222.765 278.131 225.005 276.561 228.539C275.241 231.526 275.851 234.62 279.381 236.607C289.081 242.076 298.581 240.34 307.921 235.744C308.531 235.447 308.871 234.341 308.921 233.594C309.221 228.809 309.731 228.027 312.621 229.565C317.491 232.155 324.611 231.535 327.631 236.949C323.131 242.013 310.651 238.568 311.561 248.282C312.221 255.289 317.921 258.302 325.901 258.887C331.551 259.3 327.901 262.403 327.281 264.508C326.331 267.764 325.001 269.365 321.711 265.893C317.601 261.558 310.991 261.891 306.961 263.78C301.791 266.199 306.091 269.833 308.321 273.278C310.581 276.758 308.341 280.455 305.251 283.954C296.031 294.406 288.111 282.263 279.321 283.333C271.671 284.269 266.271 279.412 262.671 273.925C254.371 261.252 235.331 258.95 222.151 269.203C220.471 270.516 219.891 271.973 220.351 273.817C229.721 271.218 235.871 283.136 241.681 280.266C254.481 273.943 254.081 284.521 259.551 287.849C266.141 291.86 274.431 292.49 282.211 293.938C282.401 293.974 282.601 294.774 282.481 295.143C278.591 307.214 287.741 302.815 293.071 300.918C298.491 298.984 301.971 301.295 305.361 303.517C309.911 306.512 314.401 309.372 320.311 308.176C328.241 306.575 327.931 311.819 329.091 315.722C330.641 320.912 326.961 322.387 321.971 323.709C318.271 324.69 313.311 324.564 311.691 327.289C313.881 335.159 321.811 324.717 324.081 332.803C320.711 335.51 312.721 332.632 311.711 337.561C308.521 353.085 299.061 340.538 292.681 341.042C291.131 341.159 288.541 334.539 287.781 338.469C286.331 345.971 268.941 344.352 276.021 353.391C281.771 360.721 273.981 359.498 272.121 359.399C267.171 359.138 262.311 357.51 257.421 356.422C269.651 355.604 271.411 346.303 276.621 340.493C277.271 339.773 276.841 337.714 276.071 336.832C275.391 336.05 273.541 336.059 272.201 335.708C268.971 348.21 251.671 343.164 245.261 353.274C244.601 345.62 258.391 340.133 247.131 333.127C238.841 345.638 237.031 345.737 227.791 334.611C224.301 330.401 219.861 329.205 215.071 333.19C211.961 335.771 209.221 338.685 205.851 341.887C217.021 347.94 229.701 348.66 243.661 353.985C234.621 356.197 228.411 359.04 222.451 356.215C212.921 351.718 205.721 356.26 199.831 360.856C195.431 364.301 193.551 369.131 185.751 367.027C183.981 366.55 180.451 370.984 177.721 373.161C196.911 376.938 180.731 388.325 186.241 396.42C180.031 394.756 176.171 393.812 172.391 392.679C168.731 391.581 165.161 389.117 161.461 392.634C172.091 404.362 171.651 410.335 158.671 419.572C151.291 424.825 159.531 426.462 162.431 428.791C156.681 431.993 148.871 425.877 149.381 428.647C151.131 438.118 128.181 434.215 137.941 446.151C124.401 452.788 131.401 466.145 125.051 474.951C118.791 467.314 95.8108 463.519 88.5007 470.615C83.9907 475.005 83.0408 474.195 78.4907 471.713C74.5208 469.545 69.0308 469.077 64.1107 468.7C54.5308 467.962 44.2808 467.189 48.5708 480.77C42.2607 480.491 38.4707 476.273 32.3507 476.741C23.6407 477.406 19.3108 481.481 22.4008 488.649C23.8308 491.968 21.6107 492.742 19.1407 492.859C12.4907 493.164 7.49072 498.759 0.000732422 496.762C4.50073 500.576 9.52075 503.292 14.8008 500.657C18.5208 498.795 20.9307 494.702 26.0807 495.206C39.6907 496.537 52.6307 493.695 64.8607 489.189C77.9307 484.368 84.5408 498.057 96.1608 496.151C91.4708 508.212 105.511 503.157 110.521 506.647C106.461 510.587 103.171 513.789 98.8208 518.007C107.631 519.482 110.011 526.741 116.651 530.105C118.681 521.263 122.901 517.494 131.811 523.682C134.941 525.859 140.791 526.579 139.701 523.701C134.911 511 149.151 518.277 152.031 513.915C148.151 510.758 142.061 516.658 138.341 510.695C143.781 505.649 147.221 496.249 157.831 506.458C160.701 509.219 164.431 505.901 167.691 505.918C184.041 505.999 201.741 503.607 209.411 521.488C210.651 524.393 214.081 524.861 216.901 523.215C219.341 521.794 217.791 519.455 217.881 517.566C218.431 505.918 209.871 502.968 197.051 501.565C210.811 492.319 225.271 497.149 239.971 494.244C233.451 489.962 230.071 486.005 224.061 486.598C226.091 482.929 227.331 479.106 233.441 477.973C238.611 477.019 239.231 473.619 236.611 468.897C233.551 463.384 227.601 464.679 222.811 463.968C224.901 457.78 230.821 459.408 234.301 457.295C256.731 443.65 280.881 436.167 308.481 441.195C312.121 441.86 317.231 441.86 317.911 446.285C318.561 450.504 313.801 453.526 310.801 453.814C298.201 455.046 299.671 463.366 296.571 470.957C306.251 470.229 306.441 454.938 319.491 462.997C328.211 468.385 313.581 470.471 320.841 475.589C334.511 463.582 356.921 488.433 369.651 465.462C370.581 469.851 371.281 473.152 372.481 478.836C373.891 471.812 382.031 474.897 382.261 470.552C383.081 454.291 387.161 451.925 402.921 459.651C405.951 461.135 408.901 464.337 410.901 459.147C412.121 455.981 413.161 452.797 417.791 454.29C422.501 455.811 427.101 458.212 427.121 463.411C427.171 478.369 437.251 476.129 448.331 473.584C446.991 469.167 443.711 468.331 440.031 468.097C432.181 467.593 430.831 462.691 429.961 457.214C429.601 454.956 428.601 452.842 432.271 452.141C438.541 450.945 441.731 454.066 445.681 457.825C448.931 460.91 452.961 467.719 460.261 458.806C464.951 453.076 474.681 454.003 483.501 459.714C475.921 462.475 469.651 464.13 464.241 467.018C461.721 468.358 460.791 472.055 459.431 474.789C459.321 475.014 461.371 476.624 462.391 476.597C464.741 476.534 467.751 472.324 469.141 477.037C470.021 479.997 465.721 480.617 464.081 482.326C456.421 490.304 447.751 479.7 438.781 483.675C447.621 487.957 451.561 491.509 440.371 496.052C436.601 497.581 433.101 501.286 435.771 505.9C436.531 507.223 439.931 509.058 440.051 507.951C440.811 501.062 450.461 503.949 452.601 498.354C457.471 485.681 467.681 485.681 479.671 490.439C485.651 492.805 491.781 496.789 498.101 490.142C499.541 488.622 503.871 489.558 503.111 492.472C499.371 506.845 513.221 505.037 521.661 508.239C514.141 505.28 510.481 500.261 519.271 496.375C530.221 491.527 522.941 488.46 519.051 485.636C512.761 481.058 511.331 477.649 520.751 475.823C529.241 474.177 523.271 471.722 522.621 468.583C522.171 466.433 527.501 465.111 531.221 465.165C537.041 465.255 541.951 466.298 544.751 471.506C549.341 480.06 540.901 498.084 530.491 501.385C542.381 512.008 558.031 513.357 573.711 514.004C578.491 514.202 581.331 520.085 586.821 516.784C588.221 521.56 582.641 522.117 580.531 524.771C577.551 528.521 576.541 533.289 578.041 537.255C582.331 548.588 588.691 558.545 603.821 561.684C609.171 562.79 617.341 562.026 617.971 569.023C618.781 578.045 624.871 575.616 630.351 574.024C632.321 573.458 634.671 569.698 636.201 571.902C643.881 582.947 643.001 572.189 643.781 569.491C644.741 566.145 647.491 564.256 649.801 562.188C652.121 560.11 655.791 557.475 658.451 557.78C662.821 558.275 661.181 562.727 661.621 565.525C662.971 574.024 662.011 583.28 665.581 590.943C665.041 592.904 669.051 594.729 671.331 595.107C673.611 595.485 676.101 595.242 678.101 596.241C682.441 598.417 681.121 604.255 678.261 607.861C676.391 610.218 673.981 612.988 675.241 615.623C675.821 616.829 677.061 617.665 678.251 618.448C683.921 622.171 689.881 626.012 696.891 627.082C703.901 628.153 712.241 625.481 714.591 619.617C715.391 617.62 715.531 615.282 717.271 613.798C719.741 611.684 724.231 612.709 726.241 615.147C728.251 617.584 728.361 620.822 728.031 623.809C736.951 622.261 746.681 625.194 752.571 631.193C754.541 625.239 756.411 618.511 752.861 613.168C751.921 611.765 750.641 610.524 749.931 609.022C749.211 607.52 750.041 604.668 751.451 603.589C750.401 600.261 750.601 596.654 749.991 593.209C749.521 590.583 750.411 589.081 753.541 588.595C757.161 588.038 757.061 590.07 757.841 592.301C761.651 603.067 765.891 613.717 769.931 624.42C771.541 628.701 773.691 634.053 779.401 632.974C785.631 631.796 784.191 626.012 784.871 621.272C786.201 612.053 778.281 602.69 787.531 593.299C792.741 588.011 803.471 583.289 797.651 573.026C796.631 571.227 798.801 569.212 801.601 568.25C806.711 566.496 843.531 573.997 844.021 578.099C845.731 592.4 857.331 581.903 863.391 584.647C870.141 587.705 874.991 595.386 884.871 590.808C886.661 589.98 889.891 591.815 890.321 588.272C891.351 579.826 901.161 579.241 905.031 574.537C909.351 576.48 902.291 579.961 910.121 581.715C906.711 570.894 918.971 569.653 924.431 564.13C921.791 560.982 914.981 563.645 915.841 559.327C917.421 551.403 925.041 547.275 932.441 543.434C935.571 548.777 948.921 546.888 945.201 557.061C942.381 564.787 950.281 565.084 954.531 565.462C958.911 565.848 962.661 562.493 961.601 557.466C960.781 553.598 960.221 549.685 959.271 545.845C958.681 543.452 952.741 541.464 958.611 538.721C960.291 537.939 962.791 537.102 964.261 537.642C968.251 539.108 968.381 542.517 967.161 545.521C965.221 550.324 966.911 553.886 971.081 557.169C972.651 553.706 972.131 548.633 978.491 548.912C979.821 548.975 982.351 551.826 982.061 552.267C977.981 558.455 992.621 558.032 987.851 565.183C986.911 566.595 994.021 565.83 994.321 564.04C995.551 556.746 999.311 557.825 1005.82 559.085C1011.21 560.128 1017.22 557.412 1021.03 551.619C1009.8 551.817 1002.49 539.243 989.681 546.079C988.301 546.816 986.651 545.26 987.201 543.956C992.351 531.831 981.361 527.829 973.101 522.621C969.521 520.364 970.621 515.462 971.791 516.244C981.581 522.792 985.081 511.63 990.301 511.864C995.601 512.098 997.921 514.068 995.891 508.203C991.991 496.942 998.071 492.94 1011.14 493.767C1006.48 489.917 994.961 489.899 999.411 485.978C1010.02 476.624 999.231 476.291 994.641 473.628C990.891 471.452 985.281 470.48 988.061 465.309C992.941 456.224 985.461 451.565 979.761 446.555C977.691 444.729 973.611 443.551 975.821 440.88C983.071 432.11 972.731 430.221 969.731 425.023C964.091 429.853 969.561 439.648 962.981 439.854C948.371 440.313 948.151 447.617 948.581 457.106C945.051 451.241 935.761 447.149 944.081 439.522C940.301 437.723 945.941 429.97 938.351 431.607C935.641 432.191 934.551 434.539 932.441 431.148C930.611 428.207 930.521 426.318 934.871 425.49C936.391 425.203 939.671 425.697 937.531 422.792C936.501 421.389 935.331 420.382 932.691 421.857C927.571 424.726 923.631 428.674 918.201 434.997C918.861 426.534 914.661 421.56 924.071 416.649C928.491 414.346 939.791 403.94 928.351 394.981C926.581 393.596 925.461 392.292 927.581 390.862C935.831 385.303 939.891 372.891 955.791 378.378C953.641 380.698 951.611 382.884 949.591 385.087C947.141 387.75 945.431 376.965 943.091 384.764C942.191 387.741 946.411 390.556 948.471 389.89C956.821 387.183 970.601 411.972 974.281 386.068C974.391 385.294 978.081 384.026 979.641 384.413C985.961 385.978 985.821 378.791 992.841 377.46C984.991 388.208 990.791 389.935 1000.35 390.169C1003.78 390.259 1007.54 395.557 1010.77 392.148C1014.52 388.199 1010.28 384.934 1006.26 382.749C1001.68 380.257 1001.24 377.073 1005.19 374.33C1010.59 370.579 1011.24 376.426 1013.78 378.27C1018.21 381.49 1017.86 389.962 1029.07 387.309C1016.48 379.979 1024.88 370.948 1030.07 368.205C1049.76 357.789 1068.94 373.17 1089.01 371.497C1090.13 371.407 1092.56 373.889 1092.6 375.221C1092.76 380.95 1099.67 381.849 1102.4 386.149C1106.39 392.4 1117.73 385.78 1123.88 391.41C1125.7 386.607 1124.66 382.515 1120.65 378.719C1117.43 375.67 1121.48 372.54 1123.14 373.673C1127.2 376.453 1135.12 369.545 1133.93 374.69C1132 382.992 1142.27 387.345 1137.36 395.656C1145.09 393.668 1143.91 386.257 1150.44 385.681C1152.87 388.397 1151.08 390.502 1149.41 392.76C1147.11 395.872 1142.58 400.891 1147.56 402.375C1152.26 403.778 1153.02 411.513 1159.2 408.032C1163.52 405.595 1168.11 402.636 1166.52 396.465C1164.96 390.448 1171.13 386.077 1172.84 380.617C1173.71 377.829 1177.65 374.753 1173.16 372.756C1163.79 368.583 1171.05 363.042 1171.17 357.465C1165.71 357.582 1158.65 366.793 1155.47 354.893C1153.52 347.599 1147.46 341.698 1139.18 352.312C1136.78 347.841 1137.04 344.882 1139.35 341.473C1145.9 331.795 1141.93 325.571 1130.04 322.954C1127.08 322.306 1124.87 319.212 1125.1 319.077C1135.16 313.195 1128.39 304.497 1130.32 297.356C1131.1 294.469 1134.47 292.733 1137.34 294.262C1148.67 300.279 1149.37 294.792 1149.42 286.787C1149.44 283.504 1155.42 280.554 1147.39 277.55C1143.88 276.237 1150.77 271.164 1151.67 272.216C1158.5 280.239 1166.2 266.505 1173.65 273.314C1175.84 275.31 1178.74 268.996 1176.64 267.188C1173.74 264.697 1169.62 260.416 1165.1 262.475C1157 266.163 1148.87 263.95 1140.32 265.515C1143.21 257.169 1149.47 257.672 1156.41 257.753C1162.61 257.825 1171.02 258.005 1165.61 248.273C1163.47 244.415 1164.33 239.908 1170.76 239.692V239.701ZM217.111 490.43C209.001 479.835 194.751 476.408 184.911 467.908C181.641 465.084 174.781 465.399 169.361 464.238C169.631 457.529 176.491 457.07 180.881 454.156C184.031 452.06 190.241 451.439 188.791 445.881C187.641 441.473 183.311 440.502 178.411 439.576C182.461 433.136 189.261 436.572 196.021 433.909C189.181 445.224 200.031 451.556 200.921 461.648C207.361 457.888 212.541 451.277 219.381 458.446C219.211 461.846 215.501 461.648 213.171 462.952C204.561 467.764 204.391 474.33 213.601 477.064C219.761 478.89 221.431 482.668 223.701 486.67C223.671 486.67 223.641 486.67 223.601 486.679C224.671 492.409 219.691 493.794 217.121 490.43H217.111ZM396.321 389.414C388.571 390.781 387.111 393.425 397.301 397.931C388.771 399.326 383.411 392.643 380.031 397.85C376.971 402.573 371.921 409.085 383.251 414.328C367.841 413.924 358.441 417.566 355.241 430.806C355.001 419.392 343.991 412.125 345.401 401.241C345.561 400.036 343.621 398.309 342.171 397.437C341.471 397.014 338.901 397.671 338.461 398.408C337.131 400.639 335.031 403.274 337.371 405.685C349.611 418.25 341.391 418.942 328.531 417.746C325.861 417.494 320.591 419.131 320.451 420.256C318.871 432.56 306.211 426.174 300.671 429.763C286.371 439.036 282.311 427.388 273.011 423.359C280.751 419.554 292.671 426.3 292.971 413.177C293.091 408.149 299.911 414.085 303.211 411.585C297.321 403.859 287.871 404.084 278.351 403.445C284.501 401.826 288.461 397.626 295.691 397.913C306.611 398.345 328.521 379.349 330.291 369.743C330.581 368.187 330.751 365.785 331.851 365.3C340.531 361.513 340.591 361.63 334.741 354.551C343.301 360.721 354.821 360.685 363.971 365.803C363.301 367.045 363.121 368.151 362.451 368.475C359.031 370.103 352.571 368.268 353.501 374.726C353.771 376.606 356.091 378.953 356.511 378.081C359.231 372.513 368.861 378.782 370.061 371.749C371.011 366.163 374.181 362.305 380.661 359.975C379.181 368.466 384.641 374.384 394.441 375.967C398.751 376.66 401.801 379.151 402.961 382.65C404.501 387.318 400.681 388.64 396.321 389.405V389.414ZM473.741 355.433C473.701 357.367 472.251 358.878 470.021 358.743C463.261 358.329 459.251 362.34 454.461 365.408C443.641 372.333 440.701 372.396 425.211 365.021C433.621 372.036 432.901 376.525 428.611 381.166C426.511 383.441 423.201 385.69 421.511 383.801C417.651 379.475 406.401 380.797 409.051 371.632C410.951 365.075 407.351 366.514 403.131 368.52C400.021 370.004 397.351 369.068 395.201 366.838C393.741 365.327 393.631 363.663 395.031 362.116C397.511 359.39 400.641 361.018 403.331 361.549C411.371 363.141 418.551 363.923 421.261 354.605C421.721 353.013 425.141 350.972 427.151 350.99C441.381 351.142 455.601 351.754 469.821 352.303C471.911 352.384 473.791 353.31 473.751 355.424L473.741 355.433ZM466.971 196.528C465.841 199.793 462.181 203.175 458.621 204.839C453.811 207.079 452.901 203.616 453.261 200.117C443.651 199.649 431.941 195.917 424.881 199.388C410.581 206.431 413.841 196.627 411.991 191.527C405.161 194.774 398.791 197.787 392.431 200.81C388.571 202.644 385.691 201.214 383.281 198.669C381.521 196.816 381.591 194.792 382.781 192.598C384.981 188.55 387.561 189.71 390.831 191.59C393.521 193.137 396.461 193.587 397.491 189.665C400.271 179.079 410.431 179.043 419.631 178.458C425.251 178.108 431.281 177.622 434.121 173.709C438.651 167.467 429.521 168.25 427.111 165.434C426.011 164.148 425.341 162.134 425.531 160.533C425.921 157.232 429.041 158.392 431.291 158.518C437.061 158.842 442.831 159.264 448.101 159.615C450.461 163.609 437.921 165.416 447.201 169.473C447.851 169.752 448.431 171.029 448.261 171.686C444.991 184.44 444.891 184.548 459.961 191.518C462.901 192.876 468.271 192.751 466.961 196.537L466.971 196.528ZM605.421 418.061C599.811 418.951 598.681 415.03 597.611 410.623C594.871 399.326 580.091 404.758 573.391 398.489C573.301 398.408 570.671 399.658 570.501 400.477C569.271 406.494 567.231 412.934 558.641 408.167C551.311 404.102 543.761 398.426 549.311 388.676C553.621 381.103 558.941 375.212 570.011 376.678C574.611 377.289 574.901 380.671 575.541 383.567C577.951 394.415 585.721 400.189 598.061 399.622C607.041 399.209 606.531 404.174 608.551 408.617C602.231 411.261 613.161 416.847 605.421 418.07V418.061ZM706.121 180.581C704.031 182.101 692.071 176.785 688.301 172.279C682.421 165.273 693.931 160.865 696.381 154.245C688.551 153.895 686.301 161.486 678.711 161.972C679.881 157.573 680.911 153.724 681.931 149.892C681.761 149.973 681.601 150.063 681.451 150.153C681.561 149.991 681.661 149.829 681.771 149.667C675.501 150.531 671.991 159.498 663.791 154.569C651.971 147.455 638.491 141.734 634.231 128.162C633.001 124.258 634.021 121.299 638.331 119.437C642.341 117.701 645.521 117.422 648.381 121.497C652.051 126.731 656.671 130.995 663.391 123.835C665.061 122.054 667.341 122.423 668.161 124.258C668.751 125.562 668.291 127.73 667.341 128.944C665.551 131.229 658.501 131.373 664.261 136.32C669.621 140.916 671.751 135.618 675.011 133.981C677.461 132.758 679.651 131.148 683.191 128.935C684.901 136.958 685.841 143.425 681.751 149.658C681.831 149.649 681.911 149.631 681.991 149.622C681.971 149.712 681.941 149.793 681.921 149.883C684.391 148.696 688.761 148.435 688.001 145.674C684.221 131.903 697.721 128.189 706.131 121.848C708.841 119.806 712.991 115.929 717.901 119.149C724.351 123.395 715.351 125.661 715.591 125.94C727.831 140.196 700.041 147.536 709.021 160.551C713.171 159.471 716.251 153.814 723.341 153.949C723.891 165.965 715.121 174.015 706.111 180.572L706.121 180.581ZM770.981 331.112C754.151 340.889 760.381 353.967 763.751 366.748C764.281 368.753 761.471 369.284 759.641 369.644C756.571 370.247 753.581 369.806 751.311 367.8C742.311 359.822 745.301 325.104 756.411 319.734C765.821 315.192 764.651 327.451 771.181 327.766C771.101 329.52 771.441 330.833 770.981 331.103V331.112ZM881.461 190.547C879.351 187.615 876.251 188.586 873.381 188.55C869.671 188.505 870.551 191.455 869.361 193.137C866.171 197.626 879.911 195.503 873.131 199.164C865.271 203.409 857.041 206.755 851.611 213.6C849.361 211.972 846.771 210.605 844.951 208.671C842.141 205.667 846.741 204.65 847.871 204.407C854.561 202.995 853.381 194.289 861.591 193.596C862.921 193.479 866.791 184.584 862.321 179.718C859.021 176.129 859.051 172.018 859.671 166.874C852.321 169.392 849.601 173.862 850.391 179.079C851.391 185.663 856.741 177.334 859.721 180.851C857.241 185.699 854.381 190.718 852.141 195.935C850.731 199.227 847.951 199.676 844.971 199.254C833.041 197.545 820.691 191.734 810.391 202.905C809.431 203.949 807.721 203.121 807.071 201.7C802.211 191.123 791.061 196.375 782.351 194.513C782.901 189.333 790.561 188.217 790.861 182.821C790.961 180.923 794.211 180.095 797.101 180.455C801.901 181.049 794.441 189.252 802.011 186.85C805.821 185.645 799.321 180.419 803.371 177.865C810.451 173.404 819.721 171.452 823.741 163.528C825.311 160.425 829.271 157.313 823.821 154.83C818.301 152.321 815.081 144.495 808.461 146.429C795.711 150.144 782.961 155.622 773.781 163.977C768.751 168.547 761.301 177.352 772.441 184.88C774.641 186.365 775.831 189 779.331 193.452C768.611 189.468 760.751 186.257 751.811 184.961C741.041 183.405 734.801 167.701 737.451 153.679C740.191 139.207 749.261 128.279 763.411 120.399C765.621 119.167 768.131 117.602 770.161 119.356C778.081 126.192 780.051 118.762 782.961 115.174C786.961 110.227 788.191 103.373 798.031 111.207C803.571 115.614 812.541 108.806 820.671 109.021C831.861 109.327 833.991 113.582 830.011 120.849C827.241 125.913 831.431 132.758 823.721 136.76C822.441 137.426 826.701 140.313 830.711 139.135C839.831 136.472 846.071 140.637 845.211 148.669C844.631 154.092 848.201 157.771 853.111 156.107C863.621 152.545 862.461 158.419 864.961 163.851C868.401 171.317 866.301 183.082 884.201 181.391C891.671 180.68 884.951 192.211 889.461 198.795C882.211 196.888 883.211 192.993 881.451 190.547H881.461ZM972.881 213.69C977.061 198.084 988.981 192.202 996.451 183.459C997.931 181.723 1003.15 181.319 999.231 178.063C996.621 175.895 993.471 177.217 991.561 179.628C988.461 183.54 985.841 187.894 977.641 186.976C986.471 170.651 989.721 171.794 1010.21 174.411C1024.33 176.21 1023.15 180.599 1016.33 185.492C1003.37 194.792 987.181 200.306 972.881 213.69ZM1042.32 237.93C1037.46 232.371 1050.24 228.189 1046.57 228.458C1036.85 229.178 1028.78 219.815 1020.26 224.87C1009.5 231.256 999.071 222.423 988.651 226.075C987.811 226.372 981.281 220.516 983.281 218.511C986.931 214.85 985.491 207.295 993.221 207.142C1008.02 206.836 1015.35 195.602 1023.96 188.802C1040.89 175.427 1053.31 176.138 1063.01 193.794C1070.45 207.331 1072.21 219.455 1062.9 232.128C1062.81 232.11 1062.72 232.092 1062.62 232.074C1056.8 236.787 1050 238.748 1042.32 237.948V237.93Z" fill="white"/>
</mask>
<g mask="url(#mask0_53_99978)">
<path d="M-135.794 -60.2863L63.1562 1032.46L57.2154 1033.34L-141.735 -59.4113L-135.794 -60.2863Z" fill="#35A558"/>
<path d="M-123.372 -62.0586L75.5781 1030.69L69.6372 1031.57L-129.313 -61.1836L-123.372 -62.0586Z" fill="#35A558"/>
<path d="M-110.952 -63.8233L87.998 1028.93L82.0572 1029.8L-116.893 -62.9482L-110.952 -63.8233Z" fill="#35A558"/>
<path d="M-98.5325 -65.5968L100.418 1027.15L94.4771 1028.03L-104.473 -64.7218L-98.5325 -65.5968Z" fill="#35A558"/>
<path d="M-86.1106 -67.3604L112.84 1025.39L106.899 1026.26L-92.0514 -66.4854L-86.1106 -67.3604Z" fill="#35A558"/>
<path d="M-73.7005 -69.1416L125.25 1023.61L119.309 1024.48L-79.6413 -68.2666L-73.7005 -69.1416Z" fill="#35A558"/>
<path d="M-61.2903 -70.9064L137.66 1021.84L131.719 1022.72L-67.2312 -70.0314L-61.2903 -70.9064Z" fill="#35A558"/>
<path d="M-48.8684 -72.6709L150.082 1020.08L144.141 1020.95L-54.8093 -71.7959L-48.8684 -72.6709Z" fill="#35A558"/>
<path d="M-36.4485 -74.4444L162.502 1018.3L156.561 1019.18L-42.3894 -73.5693L-36.4485 -74.4444Z" fill="#35A558"/>
<path d="M-24.0384 -76.216L174.912 1016.53L168.971 1017.41L-29.9792 -75.341L-24.0384 -76.216Z" fill="#35A558"/>
<path d="M-11.6184 -77.9893L187.332 1014.76L181.391 1015.63L-17.5593 -77.1143L-11.6184 -77.9893Z" fill="#35A558"/>
<path d="M0.803449 -79.753L199.754 1013L193.813 1013.87L-5.13744 -78.8779L0.803449 -79.753Z" fill="#35A558"/>
<path d="M13.2233 -81.5177L212.174 1011.23L206.233 1012.11L7.28246 -80.6427L13.2233 -81.5177Z" fill="#35A558"/>
<path d="M25.6238 -83.2989L224.574 1009.45L218.633 1010.33L19.6829 -82.4238L25.6238 -83.2989Z" fill="#35A558"/>
<path d="M38.0456 -85.0625L236.996 1007.69L231.055 1008.56L32.1047 -84.1875L38.0456 -85.0625Z" fill="#35A558"/>
<path d="M50.4636 -86.8361L249.414 1005.91L243.473 1006.79L44.5228 -85.9611L50.4636 -86.8361Z" fill="#35A558"/>
<path d="M62.8855 -88.6094L261.836 1004.14L255.895 1005.01L56.9446 -87.7344L62.8855 -88.6094Z" fill="#35A558"/>
<path d="M75.2976 -90.3721L274.248 1002.38L268.307 1003.25L69.3568 -89.4971L75.2976 -90.3721Z" fill="#35A558"/>
<path d="M87.7175 -92.1457L286.668 1000.6L280.727 1001.48L81.7766 -91.2706L87.7175 -92.1457Z" fill="#35A558"/>
<path d="M100.129 -93.9013L299.078 998.839L293.137 999.714L94.1885 -93.0263L100.129 -93.9013Z" fill="#35A558"/>
<path d="M112.548 -95.6914L311.498 997.058L305.557 997.933L106.607 -94.8164L112.548 -95.6914Z" fill="#35A558"/>
<path d="M124.96 -97.4552L323.91 995.294L317.969 996.169L119.019 -96.5802L124.96 -97.4552Z" fill="#35A558"/>
<path d="M137.38 -99.2188L336.33 993.53L330.389 994.405L131.439 -98.3438L137.38 -99.2188Z" fill="#35A558"/>
<path d="M149.8 -100.992L348.75 991.757L342.809 992.632L143.859 -100.117L149.8 -100.992Z" fill="#35A558"/>
<path d="M162.223 -102.757L361.172 989.983L355.231 990.858L156.282 -101.882L162.223 -102.757Z" fill="#35A558"/>
<path d="M174.62 -104.537L373.57 988.212L367.629 989.087L168.679 -103.662L174.62 -104.537Z" fill="#35A558"/>
<path d="M187.042 -106.302L385.992 986.447L380.051 987.322L181.101 -105.427L187.042 -106.302Z" fill="#35A558"/>
<path d="M199.464 -108.066L398.414 984.684L392.473 985.559L193.523 -107.191L199.464 -108.066Z" fill="#35A558"/>
<path d="M211.884 -109.849L410.834 982.9L404.893 983.775L205.943 -108.974L211.884 -109.849Z" fill="#35A558"/>
<path d="M224.305 -111.603L423.254 981.137L417.313 982.012L218.364 -110.728L224.305 -111.603Z" fill="#35A558"/>
<path d="M236.714 -113.384L435.664 979.365L429.723 980.24L230.773 -112.509L236.714 -113.384Z" fill="#35A558"/>
<path d="M249.126 -115.149L448.076 977.6L442.135 978.475L243.185 -114.274L249.126 -115.149Z" fill="#35A558"/>
<path d="M261.546 -116.923L460.496 975.826L454.555 976.701L255.605 -116.048L261.546 -116.923Z" fill="#35A558"/>
<path d="M273.966 -118.696L472.916 974.053L466.975 974.928L268.025 -117.821L273.966 -118.696Z" fill="#35A558"/>
<path d="M286.379 -120.45L485.328 972.29L479.387 973.165L280.438 -119.575L286.379 -120.45Z" fill="#35A558"/>
<path d="M298.798 -122.232L497.748 970.517L491.807 971.392L292.857 -121.357L298.798 -122.232Z" fill="#35A558"/>
<path d="M311.217 -124.005L510.168 968.744L504.227 969.619L305.277 -123.13L311.217 -124.005Z" fill="#35A558"/>
<path d="M323.63 -125.77L522.58 966.979L516.639 967.855L317.689 -124.895L323.63 -125.77Z" fill="#35A558"/>
<path d="M336.04 -127.541L534.99 965.208L529.049 966.083L330.099 -126.666L336.04 -127.541Z" fill="#35A558"/>
<path d="M348.461 -129.306L547.41 963.435L541.469 964.31L342.52 -128.431L348.461 -129.306Z" fill="#35A558"/>
<path d="M360.882 -131.079L559.832 961.67L553.891 962.545L354.941 -130.204L360.882 -131.079Z" fill="#35A558"/>
<path d="M373.301 -132.853L572.252 959.896L566.311 960.772L367.361 -131.978L373.301 -132.853Z" fill="#35A558"/>
<path d="M385.712 -134.615L584.662 958.134L578.721 959.009L379.771 -133.74L385.712 -134.615Z" fill="#35A558"/>
<path d="M398.132 -136.397L597.082 956.352L591.141 957.227L392.191 -135.522L398.132 -136.397Z" fill="#35A558"/>
<path d="M410.545 -138.153L609.494 954.587L603.553 955.462L404.604 -137.278L410.545 -138.153Z" fill="#35A558"/>
<path d="M422.964 -139.926L621.914 952.823L615.973 953.698L417.023 -139.051L422.964 -139.926Z" fill="#35A558"/>
<path d="M435.374 -141.697L634.324 951.052L628.383 951.927L429.433 -140.822L435.374 -141.697Z" fill="#35A558"/>
<path d="M447.796 -143.471L646.746 949.278L640.805 950.153L441.855 -142.596L447.796 -143.471Z" fill="#35A558"/>
<path d="M460.216 -145.244L659.166 947.505L653.225 948.38L454.275 -144.369L460.216 -145.244Z" fill="#35A558"/>
<path d="M472.637 -147L671.586 945.74L665.645 946.615L466.696 -146.125L472.637 -147Z" fill="#35A558"/>
<path d="M485.038 -148.772L683.988 943.978L678.047 944.853L479.097 -147.896L485.038 -148.772Z" fill="#35A558"/>
<path d="M497.458 -150.554L696.408 942.195L690.467 943.07L491.517 -149.679L497.458 -150.554Z" fill="#35A558"/>
<path d="M509.878 -152.318L708.828 940.431L702.887 941.306L503.937 -151.443L509.878 -152.318Z" fill="#35A558"/>
<path d="M522.298 -154.091L721.248 938.658L715.307 939.533L516.357 -153.216L522.298 -154.091Z" fill="#35A558"/>
<path d="M534.711 -155.855L733.66 936.886L727.719 937.761L528.77 -154.98L534.711 -155.855Z" fill="#35A558"/>
<path d="M547.132 -157.628L746.082 935.121L740.141 935.996L541.191 -156.753L547.132 -157.628Z" fill="#35A558"/>
<path d="M559.54 -159.401L758.49 933.348L752.549 934.223L553.599 -158.526L559.54 -159.401Z" fill="#35A558"/>
<path d="M571.962 -161.165L770.912 931.584L764.971 932.459L566.021 -160.29L571.962 -161.165Z" fill="#35A558"/>
<path d="M584.372 -162.946L783.322 929.803L777.381 930.678L578.431 -162.071L584.372 -162.946Z" fill="#35A558"/>
<path d="M596.793 -164.702L795.742 928.038L789.801 928.913L590.852 -163.827L596.793 -164.702Z" fill="#35A558"/>
<path d="M609.214 -166.476L808.164 926.273L802.223 927.148L603.273 -165.601L609.214 -166.476Z" fill="#35A558"/>
<path d="M621.634 -168.248L820.584 924.501L814.643 925.376L615.693 -167.373L621.634 -168.248Z" fill="#35A558"/>
<path d="M634.046 -170.021L832.996 922.729L827.055 923.604L628.105 -169.146L634.046 -170.021Z" fill="#35A558"/>
<path d="M646.454 -171.793L845.404 920.956L839.463 921.831L640.513 -170.918L646.454 -171.793Z" fill="#35A558"/>
<path d="M658.877 -173.549L857.826 919.191L851.885 920.066L652.936 -172.674L658.877 -173.549Z" fill="#35A558"/>
<path d="M671.298 -175.322L870.248 917.427L864.307 918.302L665.357 -174.447L671.298 -175.322Z" fill="#35A558"/>
<path d="M683.716 -177.105L882.666 915.645L876.725 916.52L677.775 -176.229L683.716 -177.105Z" fill="#35A558"/>
<path d="M696.128 -178.867L895.078 913.882L889.137 914.757L690.187 -177.992L696.128 -178.867Z" fill="#35A558"/>
<path d="M708.548 -180.641L907.498 912.108L901.557 912.983L702.607 -179.766L708.548 -180.641Z" fill="#35A558"/>
<path d="M720.959 -182.395L919.908 910.345L913.967 911.22L715.019 -181.52L720.959 -182.395Z" fill="#35A558"/>
<path d="M733.38 -184.178L932.33 908.571L926.389 909.446L727.439 -183.303L733.38 -184.178Z" fill="#35A558"/>
<path d="M745.79 -185.95L944.74 906.799L938.799 907.674L739.849 -185.075L745.79 -185.95Z" fill="#35A558"/>
<path d="M758.212 -187.714L957.162 905.035L951.221 905.91L752.271 -186.839L758.212 -187.714Z" fill="#35A558"/>
<path d="M770.63 -189.496L969.58 903.253L963.639 904.128L764.689 -188.621L770.63 -189.496Z" fill="#35A558"/>
<path d="M783.053 -191.252L982.002 901.488L976.061 902.363L777.112 -190.377L783.053 -191.252Z" fill="#35A558"/>
<path d="M795.454 -193.023L994.404 899.726L988.463 900.601L789.513 -192.148L795.454 -193.023Z" fill="#35A558"/>
<path d="M807.872 -194.797L1006.82 897.952L1000.88 898.827L801.931 -193.922L807.872 -194.797Z" fill="#35A558"/>
<path d="M820.294 -196.57L1019.24 896.179L1013.3 897.054L814.353 -195.695L820.294 -196.57Z" fill="#35A558"/>
<path d="M832.714 -198.343L1031.66 894.406L1025.72 895.281L826.773 -197.468L832.714 -198.343Z" fill="#35A558"/>
<path d="M845.127 -200.097L1044.08 892.644L1038.14 893.519L839.186 -199.222L845.127 -200.097Z" fill="#35A558"/>
<path d="M857.546 -201.87L1056.5 890.879L1050.56 891.754L851.605 -200.995L857.546 -201.87Z" fill="#35A558"/>
<path d="M869.956 -203.652L1068.91 889.097L1062.97 889.972L864.015 -202.777L869.956 -203.652Z" fill="#35A558"/>
<path d="M882.378 -205.417L1081.33 887.332L1075.39 888.207L876.437 -204.542L882.378 -205.417Z" fill="#35A558"/>
<path d="M894.786 -207.189L1093.74 885.561L1087.8 886.436L888.845 -206.313L894.786 -207.189Z" fill="#35A558"/>
<path d="M907.209 -208.945L1106.16 883.795L1100.22 884.67L901.268 -208.07L907.209 -208.945Z" fill="#35A558"/>
<path d="M919.63 -210.728L1118.58 882.021L1112.64 882.897L913.689 -209.853L919.63 -210.728Z" fill="#35A558"/>
<path d="M932.05 -212.499L1131 880.25L1125.06 881.125L926.109 -211.624L932.05 -212.499Z" fill="#35A558"/>
<path d="M944.45 -214.264L1143.4 878.485L1137.46 879.36L938.509 -213.389L944.45 -214.264Z" fill="#35A558"/>
<path d="M956.87 -216.036L1155.82 876.713L1149.88 877.588L950.929 -215.161L956.87 -216.036Z" fill="#35A558"/>
<path d="M969.293 -217.801L1168.24 874.939L1162.3 875.814L963.352 -216.926L969.293 -217.801Z" fill="#35A558"/>
<path d="M981.712 -219.574L1180.66 873.175L1174.72 874.05L975.771 -218.699L981.712 -219.574Z" fill="#35A558"/>
<path d="M994.122 -221.346L1193.07 871.403L1187.13 872.278L988.181 -220.471L994.122 -221.346Z" fill="#35A558"/>
<path d="M1006.54 -223.11L1205.49 869.639L1199.55 870.514L1000.6 -222.235L1006.54 -223.11Z" fill="#35A558"/>
<path d="M1018.95 -224.893L1217.9 867.856L1211.96 868.731L1013.01 -224.018L1018.95 -224.893Z" fill="#35A558"/>
<path d="M1031.38 -226.647L1230.32 866.093L1224.38 866.968L1025.43 -225.772L1031.38 -226.647Z" fill="#35A558"/>
<path d="M1043.79 -228.419L1242.74 864.33L1236.8 865.205L1037.84 -227.544L1043.79 -228.419Z" fill="#35A558"/>
<path d="M1056.2 -230.202L1255.15 862.547L1249.21 863.422L1050.26 -229.327L1056.2 -230.202Z" fill="#35A558"/>
<path d="M1068.63 -231.966L1267.58 860.783L1261.64 861.658L1062.68 -231.091L1068.63 -231.966Z" fill="#35A558"/>
<path d="M1081.05 -233.739L1280 859.01L1274.06 859.885L1075.1 -232.864L1081.05 -233.739Z" fill="#35A558"/>
<path d="M1093.47 -235.495L1292.42 857.245L1286.48 858.12L1087.53 -234.62L1093.47 -235.495Z" fill="#35A558"/>
<path d="M1105.87 -237.275L1304.82 855.474L1298.88 856.349L1099.93 -236.4L1105.87 -237.275Z" fill="#35A558"/>
<path d="M1118.29 -239.049L1317.24 853.7L1311.3 854.575L1112.35 -238.174L1118.29 -239.049Z" fill="#35A558"/>
</g>
</svg>
