<svg width="1260" height="729" viewBox="0 0 1260 729" fill="none" xmlns="http://www.w3.org/2000/svg">
<mask id="mask0_53_100084" style="mask-type:luminance" maskUnits="userSpaceOnUse" x="-35" y="0" width="1295" height="729">
<path d="M1141.81 411.982C1140.15 410.071 1140.62 407.725 1147.57 404.806C1150.07 403.759 1148.98 396.025 1142.72 392.647C1137.82 390.01 1133.27 389.49 1128.18 389.979C1126.26 390.163 1122.17 390.377 1124.99 393.533C1131.17 400.434 1124.25 398.921 1121.15 398.294C1115.58 397.171 1106.32 400.281 1105.77 392.226C1105.27 384.653 1111.03 378.997 1119.91 377.278C1122.94 376.689 1126.02 376.307 1128.92 375.856C1124.76 368.489 1118.14 364.194 1109.86 366.678C1106.74 367.61 1098.86 368.244 1100.67 376.292C1091.76 370.835 1087.45 363.483 1084.1 354.328C1077.63 359.914 1077.09 367.129 1072.5 373.586C1068.76 368.466 1070.91 364.117 1072.13 360.006C1075.44 348.917 1075.36 337.942 1070.39 327.35C1067.79 321.809 1063.9 317.652 1057.35 324.255C1053.77 327.87 1047.7 328.282 1045.08 333.754C1042.77 338.615 1039.12 334.709 1037.18 332.348C1031.61 325.6 1026.4 318.599 1019.86 311.966C1020.79 323.895 1025.03 335.413 1023.56 347.954C1017.99 344.69 1020.13 337.873 1015.17 334.182C1011.52 339.746 1015.35 346.632 1009.65 352.746C1007.86 344.904 1004.83 338.286 1005.99 331.003C1007.07 324.201 1011.6 317.873 1009.23 310.223C1000.93 324.056 994.233 338.745 978.237 347.801C977.44 341.672 972.337 337.835 977.666 329.757C988.954 312.646 991.522 307.357 1011.61 293.41C1012.85 292.554 1013.89 291.469 1014.45 290.98C1025.59 303.926 1039.7 313.517 1057.45 315.909C1069.78 317.575 1082.49 317.071 1094.63 320.64C1097.08 321.358 1100.32 322.527 1102.24 319.952C1103.95 317.644 1102.35 314.977 1101.16 312.844C1096.82 305.103 1088.5 302.535 1080.17 300.135C1072.16 297.827 1059.54 298.714 1058.61 290.223C1057.82 283.001 1070.15 280.7 1077.05 276.321C1076.22 271.789 1069.25 271.568 1068.76 266.7C1072.49 262.359 1077.85 268.006 1082 264.797C1083.24 260.058 1076.58 260.547 1075.51 257.238C1073.78 251.889 1081.12 253.15 1082.02 249.764C1072.03 242.695 1068.16 241.793 1055.86 243.994C1059 240.043 1065.07 238.981 1063.64 232.156C1062.64 227.356 1058.38 228.686 1056.93 226.149C1050.62 231.69 1045.84 224.406 1040.28 223.841C1033.53 223.153 1028.47 216.955 1030.2 207.991C1025.63 210.237 1023.52 215.518 1017.22 213.692C1013.95 212.744 1011.03 216.298 1009.5 219.37C1007.28 223.826 1004.82 228.51 998.329 226.225C991.128 223.688 981.921 221.411 981.09 213.378C980.528 207.998 979.177 203.046 977.079 197.872C980.285 196.81 987.972 201.678 984.17 193.256C978.212 180.05 971.363 167.256 962.971 155.189C959.756 150.565 956.643 146.446 965.363 143.794C968.459 142.854 971.498 141.631 968.208 137C963.936 130.978 972.085 129.862 975.182 126.667C972.429 123.825 969.19 127.783 966.579 125.903C965.379 122.502 970.835 123.251 970.767 120.416C966.982 119.293 963.911 122.059 960.545 121.914C955.207 121.692 946.605 123.695 951.918 113.836C954.267 109.472 948.426 106.048 951.078 101.684C936.635 113.446 924.021 110.878 915.771 94.7145C910.299 103.083 898.843 106.835 885.121 104.68C888.218 103.167 891.491 102.028 894.042 100.095C895.074 99.3153 894.865 96.7398 894.562 95.0814C894.319 93.7439 892.884 94.0497 891.843 94.7528C886.682 98.2224 883.006 93.8815 878.851 92.567C870.618 89.9762 867.781 86.8811 877.349 81.6613C884.105 77.9776 884.147 70.702 886.061 63.9614C873.086 63.3959 863.291 68.4399 853.699 75.7995C847.815 80.3086 841.311 73.6291 834.908 72.7808C832.465 72.4522 830.493 69.8079 828 69.0131C824.618 67.9355 820.615 67.8514 821.538 63.1361C822.419 58.65 827.371 58.2908 829.897 59.1696C842.503 63.564 847.866 57.1903 852.012 47.2475C847.127 46.6896 842.755 45.6655 845.398 39.1236C846.447 36.5328 848.118 29.6011 839.381 32.2454C839.037 32.3524 838.575 32.276 838.214 32.1613C828.034 28.6993 825.466 28.2178 817.787 33.4682C811.475 37.7862 808.832 32.7957 804.887 30.6787C801.908 34.7521 805.265 38.6039 804.501 42.7384C800.162 41.7296 795.857 40.7361 791.618 39.7503C789.453 43.495 792.349 45.5891 793.465 48.1034C794.665 50.8088 800.28 53.3003 796.419 56.105C792.525 58.9404 787.481 55.6771 783.1 54.3855C777.779 52.8111 780.112 50.1057 781.447 46.8806C785.735 36.5022 777.72 26.399 766.734 21.3855C756.554 16.7389 759.743 26.4601 754.187 27.8969C751.728 28.7452 755.841 19.1921 748.984 23.6706C745.728 25.7952 743.042 26.2002 744.511 31.1372C746.886 39.1388 735.497 50.2509 726.735 50.014C719.408 49.8153 723.965 42.8072 719.92 40.8966C721.733 40.8202 723.537 40.7514 725.845 40.6597C718.368 33.5905 707.398 30.4112 704.385 19.6431C703.588 16.7924 696.715 15.669 692.275 18.7718C682.338 25.7035 680.055 25.2373 673.878 15.5162C672.569 13.4603 672.863 7.88136 668.415 10.6021C655.138 18.726 653.828 7.38461 648.289 1.46938C644.521 1.74451 644.966 5.28294 644.194 7.78965C640.165 20.7436 640.224 20.7588 627.316 9.17293C633.812 23.663 613.703 27.1632 618.672 39.4675C606.519 39.4599 602.902 42.7308 605.227 51.3514C606.435 55.8528 612.713 57.6488 614.593 58.2143C625.142 61.3783 634.668 64.1296 637.807 75.5397C638.805 79.1775 642.977 79.0094 646.829 77.97C652.746 76.3804 656.422 80.2551 655.339 85.6583C654.432 90.1597 657.865 97.7639 658.713 98.1001C673.358 103.817 673.131 113.851 669.204 125.834C660.962 123.121 656.178 116.129 649.305 111.765C644.21 108.532 639.519 106.064 633.048 107.462C630.472 108.02 627.308 108.188 624.958 107.317C620.661 105.712 616.506 102.067 612.192 106.186C609.725 108.547 620.056 111.169 612.914 115.38C611.899 115.976 617.589 117.497 620.476 117.94C622.876 118.307 625.637 118.849 625.268 121.601C624.899 124.413 621.886 124.39 619.628 124.016C614.66 123.183 610.438 125.376 605.873 126.201C601.937 126.912 595.592 129.09 594.635 124.39C593.779 120.202 589.146 114.424 596.473 110.221C610.187 102.365 619.477 91.413 622.029 76.0518C618.042 73.4839 614.752 78.4285 609.834 77.9853C608.047 74.4621 611.437 68.2412 601.693 67.5916C590.036 66.8044 593.385 76.2275 588.374 79.552C586.108 76.7472 590.884 71.0536 585.504 70.5645C581.534 70.2053 574.703 67.5687 572.932 74.7067C567.376 73.3616 567.376 82.8076 560.972 79.8195C560.527 81.0652 559.613 82.3415 559.722 83.5413C560.192 88.8834 560.947 94.2025 561.618 99.5293C562.181 104.046 562.164 108.975 556.155 109.778C550.985 110.466 547.343 106.981 546.151 102.342C543.986 93.8815 541.476 87.1256 531.716 97.4582C531.061 98.1536 529.013 98.8032 528.577 98.4593C514.897 87.7217 506.361 103.083 494.964 104.122C489.794 104.596 483.592 107.485 493.982 111.91C496.886 113.14 494.738 121.73 504.095 118.108C498.145 120.943 493.487 122.533 491.339 128.677C488.41 137.054 478.246 138.437 471.683 134.929C464.314 131.001 453.119 128.402 455.888 114.936C456.979 109.617 452.162 98.4364 445.036 95.4788C433.304 90.6029 428.276 81.0957 419.968 73.4228C421.537 72.8878 422.762 72.0165 423.644 72.2458C434.764 75.0964 438.541 69.4716 439.816 60.8433C440.001 59.5671 438.541 57.2132 440.446 57.1597C458.473 56.5865 470.903 44.7713 486.034 38.4663C495.317 34.5993 503.894 29.3795 514.36 28.2484C516.634 28.0038 519.748 28.2561 520.545 25.9404C521.502 23.1586 518.925 20.6519 516.6 20.0252C506.504 17.2815 500.017 8.02657 488.191 7.86608C484.692 7.82023 478.338 5.54278 476.542 3.77738C469.291 -3.33007 464.407 0.980252 459.975 5.39757C453.387 11.9701 442.024 11.7102 436.459 20.4302C434.923 22.8376 425.817 20.7359 420.597 18.4203C416.728 16.7007 413.119 14.2781 408.52 14.5455C399.355 15.0882 393.153 21.355 385.449 24.71C379.952 27.1021 373.003 28.7834 379.473 37.2435C382.696 41.4545 373.296 37.2206 373.33 42.0659C378.206 43.9994 383.409 44.6567 388.923 43.6861C392.314 43.09 397.131 41.5921 397.786 45.826C398.567 50.847 393.12 52.964 388.965 51.9323C376.183 48.753 367.17 54.8899 357.804 60.828C352.885 63.9461 345.861 66.3688 356.335 71.4816C359.541 73.0483 357.485 76.0212 355.622 77.9165C352.76 80.8359 352.222 86.6594 345.45 84.9322C343.251 84.3667 341.018 83.9234 337.46 83.121C339.86 85.6353 341.295 87.1256 342.722 88.6235C335.202 84.8787 332.29 92.7963 326.776 93.5987C329.68 98.9561 332.869 104.107 339.894 107.837C339.994 103.794 335.958 98.7039 343.637 98.1383C346.457 97.932 346.591 97.1066 350.787 102.716C353.624 106.514 357.342 108.746 363.108 110.145C362.873 101.96 368.345 96.2583 374.513 91.6958C376.939 89.8998 376.242 96.8468 380.934 96.9308C383.93 90.5571 381.253 83.954 380.824 74.9589C387.43 85.9563 385.415 95.6393 385.759 104.932C385.919 109.197 385.054 113.408 386.422 117.711C387.681 121.669 394.219 124.688 390.795 129.067C387.278 133.569 380.506 133.913 374.824 135.097C371.853 135.716 368.605 135.204 365.407 135.204C362.302 132.323 367.824 131.849 367.22 130.374C365.508 126.217 368.471 119.85 362.789 118.001C357.099 116.152 351.333 118.307 347.372 123.167C338.903 133.569 325.081 134.837 313.6 126.53C311.829 125.254 308.589 123.389 307.473 123.993C297.679 129.304 285.081 125.88 275.841 132.774C270.428 136.809 264.553 138.75 257.302 135.739C250.915 133.087 244.545 133.859 240.265 139.652C238.46 142.09 237.638 145.728 240.718 147.356C245.393 149.832 247.138 150.94 244.604 156.847C242.757 161.158 249.404 161.601 253.701 159.53C270.109 151.651 283.739 156.893 297.066 166.637C293.432 169.603 289.471 170.015 285.719 170.573C282.606 171.032 280.088 170.229 280.323 175.113C280.507 178.842 277.671 182.511 271.376 183.015C264.897 183.527 260.827 193.798 265.753 197.826C276.647 206.729 266.24 209.695 260.953 212.767C250.949 218.583 249.807 221.655 255.069 231.193C257.646 235.855 257.134 242.397 265.837 241.113C266.542 244.223 261.053 245.278 263.042 248.77C266.735 248.87 268.137 245.736 270.738 244.361C274.322 242.473 277.889 243.207 277.176 247.089C275.547 255.931 285.686 258.094 288.136 264.628C289.093 267.189 294.792 270.192 297.024 268.259C305.702 260.746 308.749 270.857 313.541 272.775C319.063 274.984 314.187 278.905 310.536 280.074C308.304 280.792 305.299 279.203 302.639 279.21C298.174 279.225 294.8 279.111 298.04 285.401C299.198 287.647 301.716 292.791 298.283 297.888C296.176 301.022 307.037 305.745 303.025 312.462C317.099 309.917 308.337 322.497 314.103 326.402C324.837 333.67 325.912 348.305 339.634 354.457C353.624 360.732 354.749 361.076 358.106 347.717C358.332 346.807 359.348 346.066 360.153 345.042C364.82 349.887 363.93 355.099 362.831 360.449C361.647 366.166 362.738 371.561 368.907 374.32C375.159 377.117 378.055 371.638 381.446 368.588C385.625 364.828 389.15 360.495 389.737 354.771C390.04 351.836 392.423 350.522 395.369 350.094C399.96 349.436 398.13 353.372 399.481 354.733C402.822 358.088 403.476 362.627 412.347 362.757C421.923 362.902 433.958 366.471 442.661 373.319C444.382 374.672 443.652 376.559 443.308 378.34C441.352 388.657 445.347 396.338 456.031 400.511C459.228 401.756 458.691 415.291 466.538 402.498C468.125 407.098 469.484 411.057 471.23 416.132C473.874 412.96 470.768 406.242 478.145 407.381C485.271 408.482 489.904 412.509 490.709 418.44C491.951 427.641 493.571 437.362 491.599 446.243C486.731 468.207 493.412 487.581 503.97 506.603C511.708 520.535 521.09 534.154 513.881 550.929C513.26 552.381 513.831 554.498 515.828 555.583C519.513 546.649 522.71 546.473 532.53 555.369V534.268C535.794 542.064 536.348 548.56 536.936 557.402C538.606 553.382 539.428 551.403 540.947 547.742C545.37 559.924 540.998 570.723 542.97 581.453C544.355 576.409 545.748 571.365 547.133 566.321C547.611 566.321 548.09 566.321 548.568 566.321C548.82 568.904 548.694 571.579 549.416 574.039C550.398 577.387 547.955 582.01 552.009 583.982C557.464 586.634 557.984 579.488 564.539 577.738C557.632 588.858 554.149 599.137 557.431 610.448C566.755 605.159 571.681 617.831 582.843 616.279C580.141 619.481 578.479 621.002 577.388 622.821C573.251 629.699 569.65 631.197 566.931 622.133C564.346 613.528 558.757 614.239 551.573 617.387C538.346 623.18 532.697 621.224 526.781 608.835C523.969 602.943 521.644 596.806 519.722 590.616C516.945 581.636 518.027 570.554 503.432 569.416C500.377 577.433 504.314 586.474 504.272 595.461C504.255 599.733 497.566 602.049 501.745 606.298C497.667 606.489 496.08 602.79 492.908 601.613C487.058 599.443 482.526 591.411 474.621 598.105C472.548 591.258 464.138 595.171 460.966 591.793C455.385 585.847 454.906 590.05 454.361 593.917C453.245 601.896 452.758 600.971 442.645 600.788C437.584 600.696 429.703 601.567 426.061 606.145C423.014 609.974 422.259 614.262 425.927 620.284C431.625 629.646 435.251 639.573 447.034 644.373C449.929 645.55 451.96 648.11 450.332 651.511C448.88 654.537 446.111 655.722 442.703 655.515C438.406 655.248 434.134 654.713 429.846 654.292L430.031 654.132C436.535 660.406 445.112 667.751 452.263 669.165C468.544 672.39 475.107 687.613 490.953 690.418C503.886 692.703 507.427 691.007 505.766 679.222C510.935 679.918 513.823 685.038 519.462 684.969C521.871 681.286 519.093 678.167 518.094 674.912C517.07 671.557 514.444 668.538 516.198 662.317C521.451 674.018 526.294 683.762 530.196 693.811C533.042 701.133 537.423 703.724 545.32 700.353C548.618 698.947 552.026 698.596 555.635 698.557C562.416 698.489 561.266 697.755 564.808 692.199C567.72 687.621 572.755 683.96 579.386 682.134C592.487 678.519 606.628 679 619.116 673.009C628.86 668.339 630.623 663.311 623.59 655.347C617.698 648.668 609.935 643.44 605.05 635.951C605.059 635.951 604.782 635.912 604.782 635.912C599.352 627.001 591.731 618.862 591.236 606.657C595.785 609.072 594.476 613.734 599.008 614.919C599.662 609.997 600.225 605.794 600.787 601.59C613.283 604.005 607.09 593.635 610.329 589.714C612.906 586.596 613.015 581.904 617.102 578.862C619.57 584.372 614.299 589.103 617.22 594.024C624.572 586.145 634.5 581.346 641.34 571.999C642.909 576.485 641.13 578.266 639.888 579.909C636.976 583.753 637.219 587.467 640.492 590.601C643.816 593.78 646.938 590.272 650.085 589.439C653.098 588.644 655.683 585.977 660.886 587.375C654.97 592.442 647.433 594.873 646.804 602.523C661.432 604.112 662.187 592.473 665.998 585.297C669.346 578.976 666.123 572.305 659.779 567.23C651.453 560.573 652.771 543.141 661.86 542.308C673.089 541.284 671.83 534.956 671.537 528.926C671.318 524.326 672.46 520.558 674.969 516.782C688.842 495.888 699.182 473.48 709.262 450.928C710.999 447.045 711.175 439.854 717.386 440.626C726.139 441.711 738.896 441.512 740.776 450.928C742.891 461.49 754.64 472.082 742.035 484.348C736.42 489.805 732.484 497.592 733.231 507.268C734.104 518.678 725.736 528.758 719.945 538.785C717.26 543.439 712.073 548.086 706.391 540.948C704.327 538.357 703.739 539.679 702.279 540.971C697.361 545.296 697.436 548.529 704.125 551.395C711.032 554.353 716.555 558.479 710.025 565.977C703.865 573.038 701.649 580.49 702.17 589.76C702.883 602.309 694.474 608.973 681.348 608.713C679.443 608.675 676.371 607.926 676.841 610.341C678.956 621.193 669.632 618.014 664.034 619.428C653.921 621.98 642.775 620.719 633.241 625.916C642.733 627.743 652.25 624.869 664.067 627.322C654.584 629.615 646.493 629.47 642.347 637.296C647.71 639.206 653.031 641.109 659.552 643.44C651.747 645.259 645.41 640.093 639.04 643.433C642.968 646.895 646.896 650.357 650.824 653.819C651.126 654.048 651.47 654.247 651.713 654.522C657.868 661.553 666.386 664.714 677.269 664.006C675.246 667.881 669.573 672.78 672.636 675.019C676.9 678.129 684.033 679.214 689.816 678.947C693.786 678.764 696.345 679.405 699.35 681.186C710.302 687.667 721.263 694.148 732.417 700.338C742.924 706.162 754.212 708.431 766.029 703.953C773.197 701.24 780.221 700.415 787.833 702.081C799.684 704.671 811.584 703.28 823.611 702.562C837.123 701.752 838.5 704.113 836.334 716.265C835.915 718.611 848.118 729.685 850.551 728.967C853.732 728.027 854.681 725.421 853.715 722.906C852.566 719.918 850.593 717.182 848.848 714.4C845.012 708.286 843.946 704.992 853.707 701.194C866.598 696.181 880.177 695.072 893.152 691.312C896.191 690.433 899.002 690.082 902.057 692.077C905.834 694.537 910.886 695.355 913.261 691.091C915.116 687.766 911.876 683.517 908.821 681.958C897.567 676.203 894 667.132 893.958 656.341C893.916 646.749 886.338 640.827 880.74 634.3C876.862 629.783 872.817 626.673 876.384 620.505C879.85 614.521 868.663 609.286 874.932 602.928C873.581 602.347 872.28 601.422 870.878 601.269C868.176 600.979 865.851 602.385 865.91 604.777C866.246 618.228 857.307 614.735 848.512 613.429C831.97 610.968 828.588 613.612 829.822 628.752C830.753 640.208 823.099 647.796 817.476 658.129C813.481 650.571 818.559 644.953 817.871 639.038C814.413 636.684 812.457 640.804 809.52 640.742C806.75 640.689 802.05 640.681 802.764 638.259C806.314 626.207 795.093 632.313 791.006 629.921C789.89 626.81 792.726 626.306 794.556 625.205C796.394 624.097 799.457 623.868 798.802 620.933C798.358 618.962 796.436 618.159 794.363 617.983C791.501 617.731 788.295 617.884 787.699 620.964C786.113 629.18 780.02 632.932 772.106 635.385C770.251 635.958 766.566 637.449 770.477 639.52C778.064 643.532 771.258 646.528 770.116 649.936C778.635 649.317 786.927 648.102 795.328 639.688C789.571 664.694 811.349 674.048 822.73 690.051C804.023 686.796 780.935 692.612 782.437 665.03C777.821 667.743 778.559 672.993 772.878 675.088C773.667 670.204 771.325 665.389 772.03 661.813C772.945 657.151 764.762 654.178 770.36 649.73C764.72 649.08 763.033 639.604 754.741 644.151C753.012 645.099 753.247 642.233 753.826 641.163C756.05 636.99 751.686 633.903 753.063 629.821C746.214 630.593 743.394 634.957 739.458 637.701C734.045 641.469 728.531 644.441 722.849 638.878C717.755 633.895 713.903 629.302 719.408 621.147C735.614 597.15 758.703 579.496 781.841 561.781C791.09 554.696 798.886 546.603 806.264 537.937C810.963 532.419 814.312 525.113 824.576 524.784C828.311 524.669 833.397 521.284 834.471 516.553C835.017 514.153 832.432 512.778 830.384 511.8C825.222 509.323 821.102 512.312 817.476 514.78C796.075 529.308 777.46 547.1 754.33 559.595C750.218 561.819 746.088 567.115 740.843 563.462C735.816 559.97 737.494 554.223 739.265 549.439C742.656 540.291 744.855 530.302 750.536 522.453C756.638 514.023 767.431 509.01 775.194 501.245C778.987 497.455 788.127 500.542 789.344 508.934C789.621 510.821 791.232 514.635 791.669 513.909C794.413 509.293 801.539 513.099 801.463 511.54C800.917 500.504 808.848 510.011 812.13 507.237C809.083 500.917 808.546 494.237 814.085 488.085C808.639 485.854 805.265 490.233 800.28 489.797C801.068 487.848 802.562 486.052 802.126 484.822C801.337 482.567 794.145 483.828 797.56 478.991C800.515 474.803 804.686 478.326 808.311 478.563C809.872 478.67 811.467 478.876 812.952 479.304C817.938 480.748 823.812 485.594 827.749 479.999C830.837 475.605 828.345 469.659 825.164 464.967C823.703 462.819 821.639 460.893 825.214 457.63C828.714 461.94 833.9 464.187 838.777 466.9C842.461 468.949 844.551 471.96 845.768 476.239C849.234 488.383 848.814 501.551 856.838 512.533C858.952 515.422 855.57 514.902 854.345 515.82C851.71 517.776 849.209 519.885 845.776 522.637C858.994 526.825 872.439 530.294 870.182 547.299C864.475 544.54 860.396 541.307 858.155 536.653C855.344 530.814 851.307 530.951 847.345 534.88C842.713 539.473 837.216 542.69 831.198 545.25C819.876 550.065 813.246 559.236 807.833 568.422C803.637 575.537 799.549 579.764 790.729 578.098C789.193 583.348 795.899 581.086 796.033 585.09C786.935 588.835 777.326 592.419 769.009 598.304C765.517 600.773 762.613 602.385 765.215 606.734C768.237 611.785 771.375 607.284 774.153 606.65C782.454 604.747 788.379 599.305 794.623 594.368C797.997 591.701 801.715 589.385 806.129 587.979C795.714 596.088 788.454 607.681 774.145 611.319C777.057 616.875 780.624 619.099 786.306 613.803C787.917 612.305 790.662 610.02 792.08 610.425C805.139 614.193 804.375 605.534 807.094 598.342C808.823 593.78 813.347 589.179 819.893 588.186C827.631 587.009 835.26 585.312 843.292 586.16C847.538 586.611 853.959 590.004 853.984 581.307C854.009 572.633 847.455 574.689 842.595 575.476C836.687 576.432 831.886 574.345 826.649 572.916C822.57 571.8 820.413 570.218 821.555 566.107C822.772 561.743 825.902 560.161 830.401 561.33C841.127 564.127 850.728 569.813 862.142 571.097C866.22 571.556 867.001 576.378 869.066 579.351C870.887 581.98 873.379 583.753 876.846 583.195C880.48 582.607 880.463 579.481 880.278 577.135C879.263 564.586 890.148 559.954 898.658 553.718C899.984 552.748 901.553 552.343 902.997 553.306C904.835 554.536 905.003 556.431 904.105 558.12C902.737 560.681 900.848 563.004 899.489 565.572C898.591 567.268 898.792 569.232 900.588 570.455C902.712 571.9 904.373 570.562 905.523 569.064C909.736 563.554 913.681 562.11 919.396 568.033C922.292 571.036 937.541 564.104 936.056 560.673C932.279 551.968 943.231 547.658 942.157 539.335C941.62 535.193 949.358 534.1 954.737 536.897C959.236 539.244 964.213 541.544 969.072 538.212C974.158 534.719 971.724 529.713 970.902 525.235C968.485 512.143 971.556 508.888 986.252 510.432C994.233 511.272 1002.91 511.265 1008.5 518.219C1009.04 517.761 1010.13 517.073 1010.03 516.874C1004.22 505.028 1016.19 496.889 1017.61 486.572C1017.7 485.907 1018.11 484.99 1018.68 484.723C1039.46 474.894 1028.42 462.506 1021.91 450.607C1020.42 447.878 1022.02 446.724 1023.86 445.288C1025.13 444.302 1025.67 441.711 1024.42 442.001C1011.55 444.982 1023.41 421.329 1006.83 428.665C998.698 432.265 990.381 435.528 982.039 438.7C979.748 439.571 978.287 444.523 974.645 440.328C972.37 437.706 970.365 434.856 972.824 431.577C976.357 426.877 979.227 421.053 984.12 418.081C992.89 412.746 997.683 406.533 996.91 396.85C996.818 395.673 998.001 394.152 999.051 393.212C1004.25 388.558 1025.48 390.125 1028.83 395.895C1032.04 401.443 1026.28 407.305 1028.26 413.419C1032.08 413.648 1033.88 408.688 1039.29 409.804C1034.19 417.385 1042.71 421.367 1045.36 426.953C1047.12 430.675 1053.18 428.558 1057.45 426.953C1062.36 425.112 1068.89 419.066 1071.84 427.603C1074.24 434.512 1072.65 442.208 1062.23 443.988C1058.52 444.623 1057.23 445.922 1056.72 449.437C1055.99 454.596 1061.43 451.891 1063.58 454.802C1056.52 458.28 1049.14 458.341 1041.22 458.899C1050.24 467.688 1063.11 473.458 1063.3 487.306C1063.32 489.079 1065.69 488.674 1067.16 488.735C1070.48 488.872 1071.93 487.29 1072.68 484.379C1074 479.281 1075.79 474.283 1077.87 467.749C1089.62 476.729 1083.38 493.733 1099.36 497.73C1099.15 495.055 1100.37 490.087 1098.23 487.13C1088.38 473.48 1096.32 462.17 1102.8 450.576C1106.28 444.355 1109.31 438.371 1104.75 431.417C1101.94 427.145 1106.06 422.956 1108.89 423.033C1119.67 423.316 1130.72 419.334 1141.27 424.195L1141.73 411.982H1141.81ZM777.376 348.336C772.315 354.534 770.419 361.511 769.495 369.192C768.002 381.565 768.723 394.206 764.644 406.265C763.923 408.39 761.615 414.03 759.567 409.972C755.572 402.047 751.401 410.721 748.103 409.017C747.515 395.658 744.67 392.899 731.922 387.091C728.749 385.646 725.652 378.928 726.693 375.78C732.971 356.758 754.926 345.363 777.2 348.504C787.481 359.952 804.333 359.57 818.559 366.211C809.461 372.127 809.612 377.155 817.426 382.161C819.306 383.361 820.909 385.081 822.193 386.831C822.948 387.863 823.41 389.643 822.94 390.698C822.251 392.242 820.271 392.058 818.92 391.202C808.362 384.561 810.695 393.205 809.797 397.66C809.125 400.992 810.359 404.737 805.684 408.91C795.546 388.397 779.978 371.057 777.393 348.328L777.376 348.336ZM873.27 395.283C877.836 384.057 881.881 382.513 892.431 388.153C894.428 389.215 896.216 389.238 897.844 388.008C900.555 385.952 900.227 383.048 898.012 381.405C891.491 376.536 893.564 370.476 894.495 364.561C895.611 357.476 896.744 350.392 898.28 343.376C899.548 337.575 897.794 332.012 891.6 331.759C886.145 331.538 887.361 337.285 887.269 341.511C886.925 356.605 877.786 360.732 863.703 352.814C852.91 346.746 847.564 337.407 842.57 326.708C861.193 329.604 871.718 330.246 872.977 314.388C880.53 315.091 885.717 319.394 890.954 323.735C893.136 325.546 895.091 328.718 898.843 326.983C901.906 325.569 900.513 322.589 900.882 320.212C902.133 312.164 900.773 303.429 907.814 295.733C916.459 308.435 921.318 320.265 909.795 332.768C914.688 334.404 913.471 327.419 917.382 330.063C921.049 333.135 912.506 338.24 922.577 342.329C929.534 345.149 921.713 361.213 917.751 364.27C910.265 370.04 912.523 375 912.279 381C912.103 385.402 915.233 389.972 908.863 394.229C905.708 396.338 912.791 403.407 914.873 402.972C925.447 400.778 936.316 405.18 946.664 401.13C949.736 399.93 953 400.9 953.974 404.553C954.729 407.389 955.426 411.776 952.035 412.02C939.757 412.907 941.393 420.755 939.992 428.237C938.607 435.612 936.458 442.727 937.298 450.37C937.608 453.159 935.082 459.113 932.354 456.193C926.06 449.453 914.47 445.968 915.057 434.818C911.104 435.223 912.716 440.282 908.763 440.282C907.37 435.834 912.036 431.913 909.107 427.251C905.104 432.655 897.852 434.733 895.46 441.382C894.554 443.889 890.786 443.255 888.134 441.933C881.394 438.578 878.516 433.793 880.983 426.778C882.67 421.978 884.651 417.102 881.864 410.744C879.237 414.771 877.483 417.462 875.117 421.076C874.496 411.332 873.975 403.124 873.455 394.916C869.301 398.929 870.148 404.836 867.723 409.536C863.04 407.572 865.927 402.521 862.67 400.908C858.315 416.162 863.308 429.506 871.718 442.521C874.798 447.282 875.469 453.366 877.013 458.891C877.584 460.924 878.079 463.377 875.998 464.936C873.631 466.702 871.676 464.715 869.695 463.721C860.748 459.212 852.742 454.168 854.874 443.041C855.654 438.975 852.943 437.08 849.133 436.262C846.901 435.78 843.896 435.062 842.746 437.263C841.689 439.281 846.212 444.745 838.55 442.04C833.691 440.32 832.214 437.332 833.472 432.685C834.211 429.98 834.991 426.61 833.884 424.271C828.026 411.799 838.785 405.776 847.043 403.537C861.403 399.647 855.562 394.695 850.862 388.451C849.376 386.479 846.414 384.179 848.948 381.94C851.785 379.433 853.581 382.742 855.587 384.217C856.712 385.042 858.071 385.593 859.364 386.296C862.318 383.262 854.647 377.713 862.788 376.85C869.519 376.131 867.135 381.611 868.604 384.316C870.509 387.817 871.726 391.63 873.245 395.306L873.27 395.283ZM670.102 412.57C663.295 413.518 662.691 419.464 655.994 418.952C665.167 404.447 654.114 391.546 653.66 377.851C653.635 376.987 651.537 375.627 650.236 375.436C640.685 374.053 643.833 369.375 646.636 364.652C648.264 361.924 653.065 360.533 651.898 356.834C650.647 352.876 644.747 357.079 641.894 353.464C647.475 349.459 652.527 345.837 657.185 342.497C655.372 338.867 651.411 342.245 650.329 339.769C660.66 328.168 674.046 338.355 685.754 335.29C688.632 334.534 690.076 338.92 690.42 341.832C692.653 360.785 694.398 379.662 681.457 396.582C679.333 399.357 677.638 403.988 682.514 404.171C690.58 404.462 693.089 407.549 694.717 414.122C696.169 419.968 699.904 425.402 698.359 431.715C697.764 434.16 696.043 439.349 693.542 436.491C688.691 430.935 687.944 436.759 687.281 437.882C685.066 441.627 683.723 445.807 681.339 451.486C679.485 438.96 679.468 438.7 667.626 439.22C663.304 439.411 660.853 437.615 658.847 434.97C656.573 431.982 657.37 429.154 659.938 426.227C663.32 422.383 666.065 418.065 670.102 412.563V412.57ZM363.041 213.936C363.041 213.73 363.041 213.524 363.049 213.317C366.574 213.317 370.107 213.21 373.624 213.348C376.553 213.47 379.616 214.38 379.079 217.605C377.333 228.144 384.937 239.34 376.058 249.474C374.136 251.667 376.427 254.441 377.828 257.154C380.153 261.656 380.195 269.176 372.524 267.372C364.409 265.469 355.21 262.42 348.807 257.857C339.625 251.315 332.55 243.153 335.253 229.32C338.282 213.845 337.644 212.072 355.999 213.516C358.341 213.699 360.682 213.791 363.032 213.929L363.041 213.936ZM548.224 201.051C547.88 200.386 547.527 199.729 547.183 199.064C538.195 201.227 529.298 203.825 520.184 205.369C515.3 206.195 509.207 205.392 509.802 198.881C510.289 193.607 510.902 187.952 520.226 188.319C532.034 188.785 542.206 194.632 553.839 195.411C557.405 195.648 559.571 198.911 561.224 201.861C570.683 218.759 571.715 237.047 572.437 255.549C569.105 250.643 563.238 250.123 558.723 247.716C551.774 244.017 547.049 238.369 546.537 231.33C545.345 215.044 545.79 215.022 525.757 219.79C534.636 212.385 541.434 206.714 548.224 201.051ZM660.996 159.889C672.015 159.606 680.475 163.068 687.76 169.45C685.233 171.513 680.626 168.854 678.536 172.973C682.875 174.303 687.004 175.564 691.133 176.825C683.857 176.045 678.352 183.374 671.637 180.592C655.213 173.783 637.412 169.389 623.539 157.971C619.578 154.715 617.329 150.16 623.506 149.61C632.444 148.815 640.182 144.589 649.699 143.313C647.433 146.11 644.336 148.311 644.68 149.862C645.368 152.935 649.237 151.238 651.747 151.742C657.68 152.942 663.572 154.341 672.057 156.228C666.602 158.032 663.799 158.964 660.987 159.889H660.996ZM817.543 258.003C833.397 244.919 858.029 248.243 872.49 231.644C874.63 240.723 864.97 248.717 873.631 256.314C851.877 274.846 837.451 275.481 817.535 258.003H817.543ZM885.935 144.933C894.118 140.867 897.433 149.236 903.307 152.361C909.753 155.793 894.655 154.272 901.889 156.962C909.073 159.637 904.608 163.359 903.417 166.079C900.823 171.995 892.976 174.257 890.542 180.822C889.468 183.718 885.297 183.993 882.511 181.617C877.483 177.321 872.851 172.583 877.307 165.797C879.749 162.075 880.177 159.125 877.651 154.998C871.407 144.818 871.743 144.65 885.926 144.925L885.935 144.933ZM871.071 211.445C865.826 211.445 861.504 211.865 857.324 211.33C852.927 210.765 850.191 208.013 851.265 203.726C852.373 199.278 871.399 193.065 874.915 196.191C885.675 205.728 896.081 215.618 901.604 230.222C895.276 229.099 888.511 233.012 887.202 223.321C886.463 217.826 881.277 215.388 874.596 218.147C872.07 219.187 868.193 221.273 866.43 217.704C865.096 215.006 870.35 214.777 871.063 211.452L871.071 211.445ZM635.146 217.872C627.173 223.451 617.874 213.531 612.478 222.618C608.55 229.229 615.398 236.191 612.352 243.574C610.715 241.717 608.701 239.141 608.491 239.256C600.082 243.933 598.538 236.993 597.824 232.981C595.827 221.716 594.895 210.36 580.863 204.131C588.433 202.954 594.618 202.916 600.804 202.977C602.633 202.992 606.15 202.946 605.47 204.72C601.777 214.395 610.959 211.926 615.231 213.31C621.366 215.297 627.895 216.267 635.146 217.872ZM978.556 495.231C971.263 495.3 966.932 493.213 971.8 485.173C973.168 482.919 974.796 480.114 972.832 478.181C964.54 469.965 972.798 467.198 978.438 464.18C982.685 461.91 988.249 456.751 992.488 463.117C996.054 468.475 995.224 475.062 988.963 479.006C983.692 482.323 981.132 484.042 989.156 486.946C994.879 489.018 992.546 491.822 988.509 493.343C985.715 494.398 982.492 494.528 978.547 495.231H978.556ZM626.527 253.692C619.628 247.104 618.948 241.159 620.224 233.883C621.701 225.446 624.672 222.786 632.595 226.967C638.965 230.329 644.806 234.586 650.622 238.744C653.811 241.029 656.338 244.498 654.08 248.083C651.671 251.896 647.811 248.297 644.622 248.419C638.361 248.663 629.884 241.235 626.527 253.677V253.692ZM784.955 185.094C796.402 188.074 822.168 204.292 826.683 210.902C827.925 212.721 829.897 217.482 827.749 216.772C815.865 212.851 827.673 223.994 821.446 223.291C815.328 220.18 811.685 214.12 807.036 208.923C805.147 206.814 803.486 202.801 800.087 204.322C793.423 207.31 792.693 202.534 791.023 199.362C788.849 195.228 787.338 190.795 784.955 185.101V185.094ZM448.528 214.746C443.761 220.188 437.223 212.95 432.397 217.819C434.604 212.805 437.802 208.548 434.034 203.65C439.464 200.218 444.718 195.9 451.96 197.276C460.252 198.85 458.011 205.369 458.473 210.421C458.7 212.905 458.565 215.442 458.272 217.926C457.902 221.036 458.221 225.851 454.436 226.042C449.426 226.294 449.594 221.472 449.3 217.903C449.216 216.917 448.822 215.954 448.511 214.746H448.528ZM708.783 370.293C703.101 361.534 700.13 352.379 696.799 343.292C695.019 338.454 699.996 337.438 701.322 334.442C702.17 332.531 704.805 333.769 706.316 334.931C713.399 340.38 717.511 347.602 720.634 355.359C721.171 356.704 720.709 359.15 719.257 358.798C706.299 355.642 714.532 367.274 708.783 370.293ZM909.56 287.67C916.324 287.747 920.026 291.346 921.931 296.627C924.289 303.154 931.146 305.095 935.485 302.466C943.987 297.307 945.95 305.989 951.246 307.128C954.326 307.793 953.369 310.987 949.425 311.843C926.261 316.887 915.007 310.147 909.56 287.67ZM1259.06 669.126C1256.9 667.965 1254.75 667.842 1252.31 668.675C1240.62 672.68 1228.53 669.585 1217.17 668.293C1206.02 667.025 1195.82 667.315 1184.77 668.523C1171.39 669.982 1157.39 668.836 1144.52 663.708C1141.94 662.684 1138.23 661.889 1140.22 657.579C1145.15 646.933 1141.72 636.447 1131.4 629.898C1127.31 627.299 1123.97 624.189 1122.23 632.473C1121.64 635.278 1122.62 642.294 1116.18 642.653C1112.84 642.844 1109.92 642.263 1108.32 645.458C1106.15 649.806 1110.76 650.67 1112.96 652.894C1114.99 654.965 1116.42 657.518 1118.75 660.735C1113.17 661.217 1108.76 663.731 1104.08 664.954C1096.03 667.055 1086.46 671.465 1079.63 664.51C1073.79 658.565 1058.59 656.142 1067.22 642.5C1068.98 639.711 1064.97 635.347 1061.39 632.664C1058.29 630.333 1053.97 629.027 1052.32 623.868C1060.59 630.227 1067.31 624.9 1073.46 622.095C1077.46 620.268 1076.33 613.711 1073.89 611.327C1064.62 602.263 1067.55 587.001 1053.81 581.193C1056.72 576.852 1064.27 581.789 1063.73 577.349C1062.98 571.143 1065.32 570.295 1070.51 570.83C1075.48 571.349 1080.56 571.296 1081.93 577.761C1084.39 589.424 1087.47 600.994 1090.77 612.496C1093.77 622.966 1095.11 622.737 1104.46 616.363C1108.56 613.574 1107.13 610.203 1109.07 606.527C1113.51 611.189 1117.38 611.411 1120.86 605.878C1122.38 603.455 1124.68 600.391 1127.26 599.756C1138.02 597.112 1135.41 591.418 1132.22 585.152C1131.28 583.31 1130.08 579.511 1132.55 579.71C1145.35 580.734 1140.89 571.059 1143.71 565.916C1145.5 562.645 1144.9 555.407 1152.09 559.076C1158.8 562.492 1160.5 558.915 1162.72 554.987C1165.35 550.317 1167.46 545.319 1173.19 542.965C1170.64 549.163 1166.76 554.483 1163.32 560.031C1159.99 565.419 1160.39 565.862 1167.47 565.617C1169.24 565.556 1170.61 565.831 1171.41 567.238C1172.43 569.049 1172.09 571.395 1170.36 572.029C1161.57 575.247 1160.76 582.515 1160.29 589.576C1155.16 588.354 1158.33 579.557 1151.62 582.813C1148.11 584.51 1142.88 588.132 1147.02 594.246C1148.95 597.097 1153.67 601.483 1148.67 604.594C1141.77 608.896 1147.14 610.838 1149.66 613.474C1152.48 616.417 1156.53 618.557 1157.47 622.691C1158.4 626.749 1158.78 630.448 1165.4 629.31C1169.29 628.637 1170.14 632.603 1171.23 635.133C1173.25 639.795 1174.97 644.571 1176.54 649.371C1178.9 656.616 1183.14 658.985 1187.99 651.702C1192.21 645.381 1196.71 645.007 1203.63 646.948C1213.73 649.791 1216.04 647.231 1213.73 637.823C1212.31 632.068 1208.08 623.807 1214.09 620.903C1220.96 617.594 1230.99 617.219 1238.79 618.893C1243.76 619.963 1246.66 627.131 1246.73 633.429C1246.76 636.998 1242.87 643.456 1252.7 642.21C1255.13 641.904 1254.25 644.976 1254.22 646.52C1254.15 649.401 1253.67 652.275 1253.21 656.524C1256.15 654.208 1257.6 653.062 1259.05 651.916C1259.05 657.648 1259.05 663.387 1259.05 669.119L1259.06 669.126ZM429.93 654.292C429.703 651.075 429.594 647.85 429.233 644.648C428.26 636.042 424.005 633.566 416.283 638.274C409.015 642.707 404.374 641.606 399.389 635.645C395.335 630.8 390.124 626.879 384.014 624.12C381.958 623.195 379.003 622.485 379.465 619.879C380.027 616.699 383.468 616.539 386.095 616.699C396.309 617.319 401.277 610.578 407.312 604.984C411.751 600.872 410.954 597.632 405.977 594.185C414.504 594.812 427.127 587.895 426.673 582.202C426.338 577.952 421.713 573.367 426.17 569.569C434 562.882 420.161 566.229 421.923 560.879C424.206 553.948 415.083 561.215 413.824 556.057C414.672 552.962 420.505 554.253 422.276 550.891C413.967 550.126 405.815 547.011 397.82 541.544C399.062 538.556 404.122 540.298 404.953 536.744C404.542 536.194 404.215 535.231 403.686 535.132C392.398 533.038 382.528 523.492 381.219 512.747C379.843 501.475 369.52 506.366 363.225 504.914C360.959 504.394 353.599 500.519 352.684 508.116C349.176 507.696 345.676 507.1 345.055 503.179C344.442 499.32 344.157 495.414 343.553 489.912C339.155 496.591 338.123 503.21 335.446 508.957C332.936 514.352 333.163 519.511 324.518 518.731C321.069 518.418 321.573 521.238 322.252 523.454C323.31 526.901 324.3 530.363 325.727 535.201C313.835 529.102 299.777 533.015 288.984 525.105C291.838 522.094 295.127 522.698 298.182 522.53C300.507 522.4 302.849 520.443 301.262 519.343C291.544 512.587 305.039 511.7 304.645 507.367C301.111 504.356 297.116 508.605 292.635 506.358C297.268 500.871 303.73 499.358 310.394 498.387C313.868 497.883 317.536 498.272 320.91 497.516C324.107 496.798 328.715 497.317 329.646 493.443C329.99 492.006 327.716 489.721 326.13 488.284C322.823 485.303 318.853 485.471 315.412 487.955C310.486 491.509 305.987 495.399 299.592 496.981C290.679 499.182 290.738 494.535 287.339 488.857C281.716 479.465 291.678 476.576 292.425 469.827C285.509 473.74 278.779 473.863 271.821 471.593C270.453 471.142 267.633 470.89 267.6 471.02C265.518 478.838 258.108 479.999 251.393 482.239C244.016 484.7 236.925 487.558 228.658 486.931C224.722 486.633 222.766 486.327 223.689 482.216C223.941 481.092 222.875 477.332 222.17 478.815C219.283 484.837 210.966 474.184 209.766 482.82C208.935 488.811 213.635 497.768 205.62 499.939C200.148 501.421 196.287 492.342 190.74 489.025C188.717 487.818 172.528 489.209 170.975 491.463C161.433 505.265 148.693 504.287 134.535 498.754C131.857 497.707 125.68 497.539 126.184 498.815C128.928 505.869 111.958 506.855 120.687 515.307C123.204 517.745 125.924 518.051 128.76 518.976C130.699 519.61 132.352 520.718 132.369 522.744C132.386 524.509 130.59 525.227 129.104 525.197C116.205 524.922 111.354 532.671 108.517 542.285C121.148 543.409 124.22 549.324 116.23 559.718C112.94 563.997 111.312 567.574 113.234 572.404C114.921 576.638 112.151 578.587 108.895 581.185C100.167 588.124 98.6141 600.154 104.657 608.744C105.454 609.875 106.847 611.579 107.854 611.526C122.885 610.685 120.015 620.88 119.856 628.408C119.696 635.691 121.224 643.318 113.041 649.394C106.864 653.987 102.953 661.133 98.1525 667.224C96.1886 669.715 96.0795 672.313 100.15 672.741C106.57 673.422 105.79 677.976 106.268 681.629C107.779 692.994 104.942 695.034 93.0834 692.528C78.9838 689.547 64.3302 687.606 60.0752 671.794C59.2527 668.737 51.9679 666.047 57.163 663.272C61.1578 661.132 66.5123 657.426 72.4291 660.238C73.1173 660.567 73.688 661.102 74.3594 661.476C78.2368 663.624 83.3647 668.607 86.4364 665.481C90.6244 661.224 85.9496 654.399 81.8287 652.741C66.4786 646.551 55.3921 634.399 38.9845 629.653C45.0608 634.483 51.1287 639.321 57.2384 644.182C42.7948 653.383 29.7357 645.343 16.3748 641.667C13.6555 640.918 10.3824 639.81 8.46887 641.629C-3.03735 652.558 -15.6683 647.422 -27.5187 643.303C-34.7279 640.796 -35.1224 643.784 -34.9797 648.209C-34.3335 667.85 -34.9797 687.514 -32.2354 707.132C-31.161 714.798 -27.3508 718.091 -19.9821 718.894C-12.8904 719.666 -7.72888 717.144 -5.89929 710.289C-5.5719 709.05 -4.3634 708.011 -3.39832 706.651C4.89368 719.949 7.70508 720.751 25.3129 717.472C29.7861 716.639 34.8385 717.09 39.3621 718.015C58.6652 721.958 77.6493 719.605 96.6166 716.257C100.301 715.608 103.507 715.936 106.83 717.511C125.21 726.238 140.787 722.509 151.597 707.002C155.012 702.103 159.88 701.637 164.823 704.648C168.718 707.018 172.1 710.105 175.625 712.948C185.402 720.835 185.822 720.743 189.523 709.417C194.147 710.35 192.066 713.957 192.729 716.303C193.904 720.468 195.859 724.358 201.105 723.762C208.616 722.899 216.287 724.863 223.345 723.579C233.668 721.699 243.924 719.223 254.415 719.742C262.43 720.14 263.529 712.696 269.387 710.426C272.325 709.287 267.44 706.093 264.637 705.657C259.266 704.824 253.198 706.123 248.708 702.761C245.334 700.239 238.251 704.603 238.192 699.138C238.133 693.33 238.217 686.842 242.489 681.645C243.404 680.537 245.107 679.963 246.005 678.848C258.217 663.777 266.425 664.044 279.123 680.261C281.708 683.555 284.402 683.089 287.112 681.293C297.033 674.736 303.436 679.299 307.582 687.262C311.225 694.247 316.101 695.455 323.763 693.789C336.318 691.06 348.916 688.187 362.101 689.585C365.617 689.96 370.166 691.343 369.243 684.679C368.513 679.451 367.531 675.898 360.942 677.709C353.926 679.642 350.829 675.347 347.481 671.412C345.332 668.882 343.192 666.215 341.841 663.303C339.961 659.23 326.474 659.558 335.529 651.832C340.548 647.544 331.694 641.247 339.852 638.014C341.438 637.387 342.395 633.582 346.205 634.445C349.789 635.255 349.721 637.846 349.747 640.399C349.797 645.764 349.78 651.121 349.923 656.486C350.007 659.428 347.732 663.693 352.927 664.434C357.317 665.053 358.114 660.827 359.835 658.129C362.419 654.086 360.086 649.761 360.179 645.618C364.837 644.61 365.139 647.98 366.037 649.852C368.966 655.997 374.396 653.689 379.238 653.544C377.56 648.24 384.274 642.6 378.827 637.624C374.731 633.88 369.998 630.716 366.196 626.413C380.623 633.956 392.792 644.824 410.081 649.264C406.279 654.102 402.536 656.272 397.962 657.533C395.335 658.251 392.238 659 392.818 662.348C393.33 665.313 396.351 665.787 399.003 666.559C414.655 671.136 424.424 664.167 422.611 649.401C425.221 651.022 426.732 653.865 430.114 654.147L429.921 654.308L429.93 654.292ZM167.559 615.851C170.161 626.054 175.423 620.964 180.123 618.9C186.006 616.31 185.562 608.759 191.235 606.321C194.575 607.62 192.083 611.648 195.893 612.336C196.296 611.281 196.606 610.272 197.06 609.325C198.646 606.015 196.111 599.664 201.944 599.833C207.542 599.993 209.187 605.618 209.808 610.417C210.177 613.26 210.169 616.142 210.505 618.985C210.857 621.904 211.73 624.839 214.776 626.291C224.671 630.991 237.101 628.071 244.94 619.504C246.433 617.876 248.28 616.516 252.115 613.13C247.021 624.418 236.329 632.901 250.311 641.889C262.866 628.408 269.035 609.6 286.256 595.583C284.989 606.734 276.244 612.275 273.726 620.597C278.695 621.438 280.575 615.438 285.174 618.044C286.987 625.809 277.948 628.744 274.985 635.057C283.26 634.529 286.172 627.047 294.683 626.275C289.697 632.061 282.429 635.293 282.102 642.554C273.256 641.216 268.044 648.201 260.659 650.334C252.283 652.756 240.701 653.192 247.6 667.598C231.881 656.111 218.301 654.3 209.288 663.089C198.344 673.765 183.044 679.864 174.131 692.764C170.312 698.298 162.272 699.176 154.786 698.58C141.979 697.556 135.55 688.232 127.384 681.24C125.101 679.283 128.332 677.984 128.979 676.387C132.386 667.965 143.464 665.229 146.167 656.845C148.676 649.057 151.546 643.685 161.928 651.427C161.718 638.618 164.672 627.873 167.534 615.851H167.559ZM334.43 612.58C336.495 608.514 339.407 603.898 341.237 598.954C344.157 591.036 348.991 592.389 354.337 596.256C358.24 599.076 362.806 602.018 361.085 607.559C358.752 615.064 353.23 619.023 344.652 620.689C337.225 622.126 335.84 618.472 334.43 612.595V612.58ZM934.922 691.519C924.944 693.147 917.919 690.686 915.384 680.988C914.117 676.119 912.942 671.205 911.18 666.482C910.022 663.364 910.81 658.16 905.808 658.007C899.548 657.816 899.732 651.832 900.437 651.174C907.613 644.487 904.021 635.011 907.227 627.857C912.363 628.194 910.785 637.586 916.257 633.192C922.518 628.163 923.777 636.868 927.999 635.156C929.358 632.374 924.13 630.41 926.773 627.437C932.139 629.409 936.777 633.615 940.688 640.055C941.024 640.605 941.872 641.041 942.585 641.247C958.371 645.924 959.043 662.898 971.548 670.319C964.943 666.436 959.379 661.606 953.672 656.921C950.902 654.652 948.737 652.902 945.455 657.464C941.183 663.402 931.935 662.493 927.537 656.669C926.06 654.72 925.288 652.03 922.006 651.541C919.656 654.805 924.65 660.888 921.192 661.178C909.443 662.18 917.39 667.888 918.49 670.365C920.303 674.446 921.595 679.199 926.639 682.722C930.416 671.381 935.174 672.78 939.815 683.173C941.821 679.719 943.038 677.61 944.263 675.5C946.479 683.609 944.994 689.876 934.922 691.519ZM1075.14 535.751C1074.53 542.851 1073.32 549.928 1071.99 556.951C1071.26 560.856 1069.75 564.693 1064.66 565.709C1058.47 566.932 1055.91 559.947 1056.05 558.869C1057.2 549.981 1049.17 545.036 1046.47 537.975C1042.3 527.084 1044.6 521.314 1056.37 515.392C1058.6 514.268 1059.67 513.817 1058.13 511.784C1050.88 502.14 1066.16 505.686 1066.2 500.328C1077.21 500.428 1084.75 508.513 1095.11 510.776C1099.86 511.807 1099.08 519.343 1099.85 525.648C1083.02 516.385 1076.51 519.473 1075.14 535.751ZM516.349 35.5163C525.295 34.8056 534.309 29.7387 541.644 29.9603C557.128 30.4189 573.276 33.5752 586.989 41.9054C591.152 44.4351 595.197 48.0499 591.916 52.3755C588.777 56.5024 582.373 55.1574 579.52 52.0775C571.463 43.3957 564.002 48.6231 555.156 50.442C545.907 52.345 537.171 54.2174 529.282 59.0626C527.662 60.0562 525.195 60.1937 523.877 58.543C519.479 53.0634 515.761 47.2169 513.629 41.3781C513.176 38.3517 513.688 35.7227 516.349 35.5163ZM621.047 691.786C629.364 689.394 628.315 697.212 630.379 701.255C631.353 703.166 631.495 705.413 632.234 707.438C633.216 710.136 635.566 712.405 638.369 710.533C647.626 704.381 654.894 713.766 663.581 712.979C665.553 712.803 670.421 718.42 669.909 720.575C668.918 724.733 664.076 724.389 660.181 722.608C658.058 721.638 655.263 719.742 653.694 721.294C644.034 730.877 632.335 723.449 621.743 724.786C611.983 726.017 606.737 719.589 605.596 712.467C604.765 707.262 603.053 702.058 601.551 694.996C608.139 699.138 612.872 702.119 620.786 707.094C617.236 699.864 613.611 693.926 621.038 691.794L621.047 691.786ZM945.757 614.346C932.816 615.438 914.495 606.405 909.904 596.707C909.216 595.247 909.023 594.131 910.475 592.985C912.489 591.395 935.283 591.204 935.611 593.138C937.088 601.843 944.18 597.418 948.796 598.167C951.263 598.572 954.142 596.737 956.668 597.051C959.068 597.349 962.669 598.358 962.064 601.491C961.577 603.975 958.472 603.631 956.131 603.554C951.246 603.386 946.345 601.246 941.116 603.539C944.188 607.972 952.547 606.038 953.269 612.527C950.743 613.146 948.225 613.765 945.749 614.353L945.757 614.346ZM968.367 614.399C972.06 618.404 973.923 623.776 982.786 620.75C986.713 619.412 990.977 626.573 992.462 631.419C993.142 633.643 989.995 633.994 988.157 633.566C979.261 631.495 968.376 635.179 961.98 625.549C959.773 622.225 955.283 620.834 950.978 619.779C948.141 619.084 944.297 618.664 945.757 614.346C948.225 613.749 950.751 613.13 953.277 612.519C958.648 610.868 963.953 609.607 968.376 614.407L968.367 614.399ZM640.056 666.291C637.228 667.865 634.324 665.481 632.922 662.47C627.308 650.464 615.717 643.631 605.126 635.943C605.134 635.943 604.857 635.905 604.857 635.905C611.857 633.199 619.393 626.879 621.81 640.658C622.415 644.09 629.918 646.52 635.054 649.936C636.028 645.137 631.084 643.876 631.017 640.551C634.685 639.405 636.321 642.852 639.116 643.417C643.044 646.879 646.971 650.341 650.899 653.803C652.989 661.981 645.108 663.479 640.073 666.291H640.056Z" fill="white"/>
</mask>
<g mask="url(#mask0_53_100084)">
<path d="M1.18061 -258.977H3.06055V980.234H1.18061V-258.977Z" fill="#138D39"/>
<path d="M7.54975 -258.977H9.42969V980.234H7.54975V-258.977Z" fill="#138D39"/>
<path d="M13.9287 -258.977H15.8086V980.234H13.9287V-258.977Z" fill="#138D39"/>
<path d="M20.2978 -258.977H22.1777V980.234H20.2978V-258.977Z" fill="#138D39"/>
<path d="M26.6747 -258.977H28.5547V980.234H26.6747V-258.977Z" fill="#138D39"/>
<path d="M33.0457 -258.977H34.9258V980.234H33.0457V-258.977Z" fill="#138D39"/>
<path d="M39.415 -258.977H41.2949V980.234H39.415V-258.977Z" fill="#138D39"/>
<path d="M45.7939 -258.977H47.6738V980.234H45.7939V-258.977Z" fill="#138D39"/>
<path d="M52.165 -258.977H54.0449V980.234H52.165V-258.977Z" fill="#138D39"/>
<path d="M58.5438 -258.977H60.4238V980.234H58.5438V-258.977Z" fill="#138D39"/>
<path d="M64.913 -258.977H66.793V980.234H64.913V-258.977Z" fill="#138D39"/>
<path d="M71.2841 -258.977H73.1641V980.234H71.2841V-258.977Z" fill="#138D39"/>
<path d="M77.6611 -258.977H79.541V980.234H77.6611V-258.977Z" fill="#138D39"/>
<path d="M84.0301 -258.977H85.9102V980.234H84.0301V-258.977Z" fill="#138D39"/>
<path d="M90.4091 -258.977H92.2891V980.234H90.4091V-258.977Z" fill="#138D39"/>
<path d="M96.7783 -258.977H98.6582V980.234H96.7783V-258.977Z" fill="#138D39"/>
<path d="M103.149 -258.977H105.029V980.234H103.149V-258.977Z" fill="#138D39"/>
<path d="M109.528 -258.977H111.408V980.234H109.528V-258.977Z" fill="#138D39"/>
<path d="M115.899 -258.977H117.779V980.234H115.899V-258.977Z" fill="#138D39"/>
<path d="M122.276 -258.977H124.156V980.234H122.276V-258.977Z" fill="#138D39"/>
<path d="M128.645 -258.977H130.525V980.234H128.645V-258.977Z" fill="#138D39"/>
<path d="M135.014 -258.977H136.895V980.234H135.014V-258.977Z" fill="#138D39"/>
<path d="M141.393 -258.977H143.273V980.234H141.393V-258.977Z" fill="#138D39"/>
<path d="M147.765 -258.977H149.645V980.234H147.765V-258.977Z" fill="#138D39"/>
<path d="M154.143 -258.977H156.023V980.234H154.143V-258.977Z" fill="#138D39"/>
<path d="M160.514 -258.977H162.395V980.234H160.514V-258.977Z" fill="#138D39"/>
<path d="M166.884 -258.977H168.764V980.234H166.884V-258.977Z" fill="#138D39"/>
<path d="M173.261 -258.977H175.141V980.234H173.261V-258.977Z" fill="#138D39"/>
<path d="M179.63 -258.977H181.51V980.234H179.63V-258.977Z" fill="#138D39"/>
<path d="M186.009 -258.977H187.889V980.234H186.009V-258.977Z" fill="#138D39"/>
<path d="M192.38 -258.977H194.26V980.234H192.38V-258.977Z" fill="#138D39"/>
<path d="M198.749 -258.977H200.629V980.234H198.749V-258.977Z" fill="#138D39"/>
<path d="M205.13 -258.977H207.01V980.234H205.13V-258.977Z" fill="#138D39"/>
<path d="M211.499 -258.977H213.379V980.234H211.499V-258.977Z" fill="#138D39"/>
<path d="M217.878 -258.977H219.758V980.234H217.878V-258.977Z" fill="#138D39"/>
<path d="M224.245 -258.977H226.125V980.234H224.245V-258.977Z" fill="#138D39"/>
<path d="M230.618 -258.977H232.498V980.234H230.618V-258.977Z" fill="#138D39"/>
<path d="M236.995 -258.977H238.875V980.234H236.995V-258.977Z" fill="#138D39"/>
<path d="M243.364 -258.977H245.244V980.234H243.364V-258.977Z" fill="#138D39"/>
<path d="M249.745 -258.977H251.625V980.234H249.745V-258.977Z" fill="#138D39"/>
<path d="M256.114 -258.977H257.994V980.234H256.114V-258.977Z" fill="#138D39"/>
<path d="M262.483 -258.977H264.363V980.234H262.483V-258.977Z" fill="#138D39"/>
<path d="M268.862 -258.977H270.742V980.234H268.862V-258.977Z" fill="#138D39"/>
<path d="M275.233 -258.977H277.113V980.234H275.233V-258.977Z" fill="#138D39"/>
<path d="M281.602 -258.977H283.482V980.234H281.602V-258.977Z" fill="#138D39"/>
<path d="M287.979 -258.977H289.859V980.234H287.979V-258.977Z" fill="#138D39"/>
<path d="M294.349 -258.977H296.229V980.234H294.349V-258.977Z" fill="#138D39"/>
<path d="M300.729 -258.977H302.609V980.234H300.729V-258.977Z" fill="#138D39"/>
<path d="M307.099 -258.977H308.979V980.234H307.099V-258.977Z" fill="#138D39"/>
<path d="M313.47 -258.977H315.35V980.234H313.47V-258.977Z" fill="#138D39"/>
<path d="M319.849 -258.977H321.729V980.234H319.849V-258.977Z" fill="#138D39"/>
<path d="M326.218 -258.977H328.098V980.234H326.218V-258.977Z" fill="#138D39"/>
<path d="M332.595 -258.977H334.475V980.234H332.595V-258.977Z" fill="#138D39"/>
<path d="M338.964 -258.977H340.844V980.234H338.964V-258.977Z" fill="#138D39"/>
<path d="M345.335 -258.977H347.215V980.234H345.335V-258.977Z" fill="#138D39"/>
<path d="M351.714 -258.977H353.594V980.234H351.714V-258.977Z" fill="#138D39"/>
<path d="M358.085 -258.977H359.965V980.234H358.085V-258.977Z" fill="#138D39"/>
<path d="M364.464 -258.977H366.344V980.234H364.464V-258.977Z" fill="#138D39"/>
<path d="M370.833 -258.977H372.713V980.234H370.833V-258.977Z" fill="#138D39"/>
<path d="M377.202 -258.977H379.082V980.234H377.202V-258.977Z" fill="#138D39"/>
<path d="M383.579 -258.977H385.459V980.234H383.579V-258.977Z" fill="#138D39"/>
<path d="M389.95 -258.977H391.83V980.234H389.95V-258.977Z" fill="#138D39"/>
<path d="M396.329 -258.977H398.209V980.234H396.329V-258.977Z" fill="#138D39"/>
<path d="M402.7 -258.977H404.58V980.234H402.7V-258.977Z" fill="#138D39"/>
<path d="M409.069 -258.977H410.949V980.234H409.069V-258.977Z" fill="#138D39"/>
<path d="M415.448 -258.977H417.328V980.234H415.448V-258.977Z" fill="#138D39"/>
<path d="M421.817 -258.977H423.697V980.234H421.817V-258.977Z" fill="#138D39"/>
<path d="M428.188 -258.977H430.068V980.234H428.188V-258.977Z" fill="#138D39"/>
<path d="M434.565 -258.977H436.445V980.234H434.565V-258.977Z" fill="#138D39"/>
<path d="M440.935 -258.977H442.814V980.234H440.935V-258.977Z" fill="#138D39"/>
<path d="M447.313 -258.977H449.193V980.234H447.313V-258.977Z" fill="#138D39"/>
<path d="M453.685 -258.977H455.564V980.234H453.685V-258.977Z" fill="#138D39"/>
<path d="M460.054 -258.977H461.934V980.234H460.054V-258.977Z" fill="#138D39"/>
<path d="M466.433 -258.977H468.312V980.234H466.433V-258.977Z" fill="#138D39"/>
<path d="M472.804 -258.977H474.684V980.234H472.804V-258.977Z" fill="#138D39"/>
<path d="M479.181 -258.977H481.061V980.234H479.181V-258.977Z" fill="#138D39"/>
<path d="M485.55 -258.977H487.43V980.234H485.55V-258.977Z" fill="#138D39"/>
<path d="M491.919 -258.977H493.799V980.234H491.919V-258.977Z" fill="#138D39"/>
<path d="M498.298 -258.977H500.178V980.234H498.298V-258.977Z" fill="#138D39"/>
<path d="M504.669 -258.977H506.549V980.234H504.669V-258.977Z" fill="#138D39"/>
<path d="M511.048 -258.977H512.928V980.234H511.048V-258.977Z" fill="#138D39"/>
<path d="M517.419 -258.977H519.299V980.234H517.419V-258.977Z" fill="#138D39"/>
<path d="M523.788 -258.977H525.668V980.234H523.788V-258.977Z" fill="#138D39"/>
<path d="M530.165 -258.977H532.045V980.234H530.165V-258.977Z" fill="#138D39"/>
<path d="M536.534 -258.977H538.414V980.234H536.534V-258.977Z" fill="#138D39"/>
<path d="M542.913 -258.977H544.793V980.234H542.913V-258.977Z" fill="#138D39"/>
<path d="M549.284 -258.977H551.164V980.234H549.284V-258.977Z" fill="#138D39"/>
<path d="M555.655 -258.977H557.535V980.234H555.655V-258.977Z" fill="#138D39"/>
<path d="M562.034 -258.977H563.914V980.234H562.034V-258.977Z" fill="#138D39"/>
<path d="M568.403 -258.977H570.283V980.234H568.403V-258.977Z" fill="#138D39"/>
<path d="M574.78 -258.977H576.66V980.234H574.78V-258.977Z" fill="#138D39"/>
<path d="M581.151 -258.977H583.031V980.234H581.151V-258.977Z" fill="#138D39"/>
<path d="M587.522 -258.977H589.402V980.234H587.522V-258.977Z" fill="#138D39"/>
<path d="M593.899 -258.977H595.779V980.234H593.899V-258.977Z" fill="#138D39"/>
<path d="M600.268 -258.977H602.148V980.234H600.268V-258.977Z" fill="#138D39"/>
<path d="M606.649 -258.977H608.529V980.234H606.649V-258.977Z" fill="#138D39"/>
<path d="M613.018 -258.977H614.898V980.234H613.018V-258.977Z" fill="#138D39"/>
<path d="M619.388 -258.977H621.268V980.234H619.388V-258.977Z" fill="#138D39"/>
<path d="M625.767 -258.977H627.646V980.234H625.767V-258.977Z" fill="#138D39"/>
<path d="M632.138 -258.977H634.018V980.234H632.138V-258.977Z" fill="#138D39"/>
<path d="M638.515 -258.977H640.395V980.234H638.515V-258.977Z" fill="#138D39"/>
<path d="M644.884 -258.977H646.764V980.234H644.884V-258.977Z" fill="#138D39"/>
<path d="M651.253 -258.977H653.133V980.234H651.253V-258.977Z" fill="#138D39"/>
<path d="M657.634 -258.977H659.514V980.234H657.634V-258.977Z" fill="#138D39"/>
<path d="M664.003 -258.977H665.883V980.234H664.003V-258.977Z" fill="#138D39"/>
<path d="M670.382 -258.977H672.262V980.234H670.382V-258.977Z" fill="#138D39"/>
<path d="M676.753 -258.977H678.633V980.234H676.753V-258.977Z" fill="#138D39"/>
<path d="M683.122 -258.977H685.002V980.234H683.122V-258.977Z" fill="#138D39"/>
<path d="M689.499 -258.977H691.379V980.234H689.499V-258.977Z" fill="#138D39"/>
<path d="M695.868 -258.977H697.748V980.234H695.868V-258.977Z" fill="#138D39"/>
<path d="M702.239 -258.977H704.119V980.234H702.239V-258.977Z" fill="#138D39"/>
<path d="M708.618 -258.977H710.498V980.234H708.618V-258.977Z" fill="#138D39"/>
<path d="M714.989 -258.977H716.869V980.234H714.989V-258.977Z" fill="#138D39"/>
<path d="M721.368 -258.977H723.248V980.234H721.368V-258.977Z" fill="#138D39"/>
<path d="M727.737 -258.977H729.617V980.234H727.737V-258.977Z" fill="#138D39"/>
<path d="M734.106 -258.977H735.986V980.234H734.106V-258.977Z" fill="#138D39"/>
<path d="M740.483 -258.977H742.363V980.234H740.483V-258.977Z" fill="#138D39"/>
<path d="M746.854 -258.977H748.734V980.234H746.854V-258.977Z" fill="#138D39"/>
<path d="M753.235 -258.977H755.115V980.234H753.235V-258.977Z" fill="#138D39"/>
<path d="M759.604 -258.977H761.484V980.234H759.604V-258.977Z" fill="#138D39"/>
<path d="M765.974 -258.977H767.854V980.234H765.974V-258.977Z" fill="#138D39"/>
<path d="M772.352 -258.977H774.232V980.234H772.352V-258.977Z" fill="#138D39"/>
<path d="M778.724 -258.977H780.604V980.234H778.724V-258.977Z" fill="#138D39"/>
<path d="M785.099 -258.977H786.979V980.234H785.099V-258.977Z" fill="#138D39"/>
<path d="M791.47 -258.977H793.35V980.234H791.47V-258.977Z" fill="#138D39"/>
<path d="M797.839 -258.977H799.719V980.234H797.839V-258.977Z" fill="#138D39"/>
<path d="M804.22 -258.977H806.1V980.234H804.22V-258.977Z" fill="#138D39"/>
<path d="M810.589 -258.977H812.469V980.234H810.589V-258.977Z" fill="#138D39"/>
<path d="M816.968 -258.977H818.848V980.234H816.968V-258.977Z" fill="#138D39"/>
<path d="M823.339 -258.977H825.219V980.234H823.339V-258.977Z" fill="#138D39"/>
<path d="M829.708 -258.977H831.588V980.234H829.708V-258.977Z" fill="#138D39"/>
<path d="M836.085 -258.977H837.965V980.234H836.085V-258.977Z" fill="#138D39"/>
<path d="M842.456 -258.977H844.336V980.234H842.456V-258.977Z" fill="#138D39"/>
<path d="M848.835 -258.977H850.715V980.234H848.835V-258.977Z" fill="#138D39"/>
<path d="M855.204 -258.977H857.084V980.234H855.204V-258.977Z" fill="#138D39"/>
<path d="M861.575 -258.977H863.455V980.234H861.575V-258.977Z" fill="#138D39"/>
<path d="M867.954 -258.977H869.834V980.234H867.954V-258.977Z" fill="#138D39"/>
<path d="M874.323 -258.977H876.203V980.234H874.323V-258.977Z" fill="#138D39"/>
<path d="M880.692 -258.977H882.572V980.234H880.692V-258.977Z" fill="#138D39"/>
<path d="M887.071 -258.977H888.951V980.234H887.071V-258.977Z" fill="#138D39"/>
<path d="M893.442 -258.977H895.322V980.234H893.442V-258.977Z" fill="#138D39"/>
<path d="M899.819 -258.977H901.699V980.234H899.819V-258.977Z" fill="#138D39"/>
<path d="M906.19 -258.977H908.07V980.234H906.19V-258.977Z" fill="#138D39"/>
<path d="M912.559 -258.977H914.439V980.234H912.559V-258.977Z" fill="#138D39"/>
<path d="M918.938 -258.977H920.818V980.234H918.938V-258.977Z" fill="#138D39"/>
<path d="M925.308 -258.977H927.188V980.234H925.308V-258.977Z" fill="#138D39"/>
<path d="M931.686 -258.977H933.566V980.234H931.686V-258.977Z" fill="#138D39"/>
<path d="M938.058 -258.977H939.938V980.234H938.058V-258.977Z" fill="#138D39"/>
<path d="M944.427 -258.977H946.307V980.234H944.427V-258.977Z" fill="#138D39"/>
<path d="M950.806 -258.977H952.686V980.234H950.806V-258.977Z" fill="#138D39"/>
<path d="M957.175 -258.977H959.055V980.234H957.175V-258.977Z" fill="#138D39"/>
<path d="M963.554 -258.977H965.434V980.234H963.554V-258.977Z" fill="#138D39"/>
<path d="M969.923 -258.977H971.803V980.234H969.923V-258.977Z" fill="#138D39"/>
<path d="M976.294 -258.977H978.174V980.234H976.294V-258.977Z" fill="#138D39"/>
<path d="M982.673 -258.977H984.553V980.234H982.673V-258.977Z" fill="#138D39"/>
<path d="M989.042 -258.977H990.922V980.234H989.042V-258.977Z" fill="#138D39"/>
<path d="M995.419 -258.977H997.299V980.234H995.419V-258.977Z" fill="#138D39"/>
<path d="M1001.79 -258.977H1003.67V980.234H1001.79V-258.977Z" fill="#138D39"/>
<path d="M1008.16 -258.977H1010.04V980.234H1008.16V-258.977Z" fill="#138D39"/>
<path d="M1014.54 -258.977H1016.42V980.234H1014.54V-258.977Z" fill="#138D39"/>
<path d="M1020.91 -258.977H1022.79V980.234H1020.91V-258.977Z" fill="#138D39"/>
<path d="M1027.29 -258.977H1029.17V980.234H1027.29V-258.977Z" fill="#138D39"/>
<path d="M1033.66 -258.977H1035.54V980.234H1033.66V-258.977Z" fill="#138D39"/>
<path d="M1040.03 -258.977H1041.91V980.234H1040.03V-258.977Z" fill="#138D39"/>
<path d="M1046.4 -258.977H1048.28V980.234H1046.4V-258.977Z" fill="#138D39"/>
<path d="M1052.77 -258.977H1054.65V980.234H1052.77V-258.977Z" fill="#138D39"/>
<path d="M1059.15 -258.977H1061.03V980.234H1059.15V-258.977Z" fill="#138D39"/>
<path d="M1065.52 -258.977H1067.4V980.234H1065.52V-258.977Z" fill="#138D39"/>
<path d="M1071.89 -258.977H1073.77V980.234H1071.89V-258.977Z" fill="#138D39"/>
<path d="M1078.27 -258.977H1080.15V980.234H1078.27V-258.977Z" fill="#138D39"/>
<path d="M1084.64 -258.977H1086.52V980.234H1084.64V-258.977Z" fill="#138D39"/>
<path d="M1091.02 -258.977H1092.9V980.234H1091.02V-258.977Z" fill="#138D39"/>
<path d="M1097.39 -258.977H1099.27V980.234H1097.39V-258.977Z" fill="#138D39"/>
<path d="M1103.76 -258.977H1105.64V980.234H1103.76V-258.977Z" fill="#138D39"/>
<path d="M1110.14 -258.977H1112.02V980.234H1110.14V-258.977Z" fill="#138D39"/>
<path d="M1116.51 -258.977H1118.39V980.234H1116.51V-258.977Z" fill="#138D39"/>
<path d="M1122.89 -258.977H1124.77V980.234H1122.89V-258.977Z" fill="#138D39"/>
<path d="M1129.26 -258.977H1131.14V980.234H1129.26V-258.977Z" fill="#138D39"/>
<path d="M1135.63 -258.977H1137.51V980.234H1135.63V-258.977Z" fill="#138D39"/>
<path d="M1142.01 -258.977H1143.89V980.234H1142.01V-258.977Z" fill="#138D39"/>
<path d="M1148.38 -258.977H1150.26V980.234H1148.38V-258.977Z" fill="#138D39"/>
<path d="M1154.75 -258.977H1156.63V980.234H1154.75V-258.977Z" fill="#138D39"/>
<path d="M1161.12 -258.977H1163V980.234H1161.12V-258.977Z" fill="#138D39"/>
<path d="M1167.49 -258.977H1169.37V980.234H1167.49V-258.977Z" fill="#138D39"/>
<path d="M1173.87 -258.977H1175.75V980.234H1173.87V-258.977Z" fill="#138D39"/>
<path d="M1180.24 -258.977H1182.12V980.234H1180.24V-258.977Z" fill="#138D39"/>
<path d="M1186.61 -258.977H1188.49V980.234H1186.61V-258.977Z" fill="#138D39"/>
<path d="M1192.99 -258.977H1194.87V980.234H1192.99V-258.977Z" fill="#138D39"/>
<path d="M1199.36 -258.977H1201.24V980.234H1199.36V-258.977Z" fill="#138D39"/>
<path d="M1205.74 -258.977H1207.62V980.234H1205.74V-258.977Z" fill="#138D39"/>
<path d="M1212.11 -258.977H1213.99V980.234H1212.11V-258.977Z" fill="#138D39"/>
<path d="M1218.48 -258.977H1220.36V980.234H1218.48V-258.977Z" fill="#138D39"/>
<path d="M1224.86 -258.977H1226.74V980.234H1224.86V-258.977Z" fill="#138D39"/>
<path d="M1231.23 -258.977H1233.11V980.234H1231.23V-258.977Z" fill="#138D39"/>
<path d="M1237.61 -258.977H1239.49V980.234H1237.61V-258.977Z" fill="#138D39"/>
<path d="M1243.98 -258.977H1245.86V980.234H1243.98V-258.977Z" fill="#138D39"/>
<path d="M1250.35 -258.977H1252.23V980.234H1250.35V-258.977Z" fill="#138D39"/>
<path d="M1256.72 -258.977H1258.6V980.234H1256.72V-258.977Z" fill="#138D39"/>
</g>
</svg>
