<svg width="444" height="1022" viewBox="0 0 444 1022" fill="none" xmlns="http://www.w3.org/2000/svg">
<mask id="mask0_53_100526" style="mask-type:luminance" maskUnits="userSpaceOnUse" x="0" y="0" width="455" height="1022">
<path d="M335.937 56.9086C333.369 56.9086 334.53 60.631 334.336 62.7471C334.108 65.2092 334.073 67.7064 334.196 70.1743C334.243 71.0888 334.436 73.5567 336.036 71.9798C339.255 68.7909 339.401 71.9681 339.091 73.4747C337.086 83.1177 342.666 90.7383 345.586 99.2617C349.894 96.02 353.083 92.2273 352.509 86.5001C351.852 79.9698 357.192 76.857 360.581 72.906C362.128 71.1005 366.097 71.1709 368.694 72.6774C373.002 75.1746 374.644 79.5946 375.793 84.1553C376.643 87.5259 375.875 91.3949 372.996 92.5204C362.597 96.5945 363.94 106.32 361.654 114.31C363.811 110.986 365.259 107.304 366.701 103.623C367.258 102.204 367.176 100.639 368.94 99.6721C375.84 95.8852 379.714 89.6949 381.749 82.3029C382.165 80.7846 381.649 78.8267 384.093 79.067C386.168 79.2663 387.323 80.8784 387.276 82.7367C387.2 85.8963 386.942 89.0794 385.735 92.11C381.608 102.474 377.815 112.938 377.188 124.228C376.994 127.675 375.312 129.363 372.047 130.694C364.983 133.572 360.973 141.199 353.294 143.35C353.171 143.385 353.095 143.637 353.03 143.796C351.119 148.421 347.227 151.188 343.581 154.294C340.908 156.569 338.504 159.306 336.552 162.214C335.204 164.219 334.524 167.308 337.602 168.516C339.987 169.448 341.846 168.985 343.698 165.714C347.368 159.219 353.494 154.588 359.895 149.417C360.264 154.177 358.107 156.581 355.498 158.82C349.941 163.592 344.618 168.393 344.173 176.605C344.015 179.542 342.209 182.344 339.325 183.874C336.963 185.123 336.195 187.169 336.16 189.59C336.089 194.748 335.655 199.866 334.266 204.849C333.891 206.203 335.321 208.846 332.982 208.676C331.024 208.53 328.216 209.163 326.886 206.466C326.417 205.511 326.393 203.858 324.488 204.221C323.679 205.646 326.247 206.578 324.828 208.29C321.885 205.681 319.84 206.267 317.747 209.82C316.627 211.719 314.159 215.424 311.545 213.155C305.53 207.938 306.515 214.673 304.68 216.602C300.032 212.921 299.739 212.463 298.162 213.46C296.005 214.826 294.938 213.642 293.543 212.569C292.423 211.707 291.333 210.728 290.066 210.154C287.487 208.981 284.814 208.905 282.639 211.015C280.881 212.721 280.066 215.172 280.851 217.37C281.813 220.049 284.556 220.277 287.124 220.313C289.058 220.342 291.028 220.16 292.839 221.133C296.972 223.349 306.785 221.854 309.986 218.232C311.123 216.942 311.949 215.705 313.808 216.156C315.971 216.684 315.32 218.677 315.695 220.107C316.17 221.901 322.255 225.542 323.89 224.885C324.84 224.504 326.048 224.14 325.362 222.652C324.992 221.843 323.357 220.746 325.25 220.354C326.47 220.102 327.941 218.847 329.207 220.014C330.069 220.811 329.571 222.024 329.354 223.05C328.644 226.362 322.847 229.616 319.423 228.637C313.239 226.872 311.557 227.57 308.784 233.572C307.963 235.355 307.107 236.984 305.015 236.545C296.708 234.803 292.224 243.86 284.492 243.726C284.14 243.72 283.595 245.156 283.436 245.977C283.132 247.518 281.854 247.436 280.851 248.052C273.793 252.39 264.543 247.53 257.942 253.591C257.69 253.826 256.911 253.386 256.413 253.468C254.466 253.791 253.657 249.464 251.729 251.868C250.457 253.451 253.059 255.256 253.54 257.073C254.079 259.107 254.285 261.235 254.695 263.305C255.076 265.239 254.929 267.496 257.21 268.487C259.478 266.388 257.825 263.944 258.324 262.021C263.98 265.896 261.043 270.31 258.933 274.583C256.67 279.167 252.843 277.725 249.185 276.899C247.989 276.629 246.617 276.213 245.521 276.529C235.608 279.372 224.974 277.901 215.232 281.676C213.526 282.339 211.691 282.52 210.114 281.424C207.482 279.601 204.698 279.965 201.937 280.721C198.484 281.665 195.008 282.005 191.438 282.098C185.552 282.257 181.578 286.864 176.255 288.664C179.608 289.356 182.762 289.449 185.91 289.338C192.956 289.086 200.137 286.946 206.837 291.05C208.127 291.841 210.396 291.56 210.519 293.564C210.636 295.546 208.508 295.675 207.201 296.484C205.513 297.521 202.277 298.782 204.51 300.915C206.04 302.375 207.383 307.399 211.902 303.559C216.75 299.444 223.104 299.667 229.172 299.426C225.426 301.76 222.079 304.702 217.536 305.195C216.316 305.324 214.411 305.675 214.956 307.112C216.111 310.136 218.614 312.352 221.469 313.771C223.837 314.943 224.793 312.645 225.953 311.104C228.48 307.739 228.503 307.756 232.431 307.78C226.188 313.771 228.363 320.114 236.441 323.736C244.759 327.465 253.851 325.835 262.151 329.018C264.678 329.985 267.89 329.17 270.792 329.17C270.141 329.716 269.456 329.815 268.805 330.026C266.032 330.917 262.357 330.788 261.841 334.675C261.331 338.491 264.995 338.649 267.187 340.244C269.508 341.926 273.025 342.964 273.676 345.901C274.573 349.922 277.563 352.22 279.427 355.948C281.01 352.671 280.253 349.981 279.356 347.601C278.583 345.555 278.471 344.693 280.675 343.655C285.324 341.475 287.915 343.304 287.95 349.095C287.991 355.632 287.985 362.174 288.12 368.71C288.155 370.322 287.499 372.245 290.008 373.904C290.037 367.397 293.003 361.705 291.374 355.397C290.881 353.504 290.33 350.549 293.214 350.121C295.817 349.734 296.591 352.466 296.89 354.506C297.294 357.285 297.101 360.151 297.294 362.971C297.411 364.636 298.402 365.626 300.155 365.281C301.661 364.982 302.365 364.085 301.327 362.607C298.127 358.047 300.612 355.684 304.505 353.398C310.584 349.822 310.49 349.676 310.138 343.222C310.12 342.87 310.238 342.518 310.226 342.167C310.191 340.953 309.347 340.513 308.461 340.988C302.289 344.277 300.647 338.503 297.992 335.443C297.242 334.581 295.776 334.563 295.594 333.28C298.965 332.77 302.992 333.192 304.2 336.064C306.791 342.219 308.104 336.732 309.2 335.689C311.258 333.749 310.161 331.134 309.88 328.907C306.539 329.663 302.769 333.127 300.554 329.446C297.599 324.545 293.771 324.522 289.246 324.844C285.301 325.12 281.35 325.307 277.404 325.536C281.238 324.399 285.101 324.053 288.947 323.543C290.342 323.355 292.892 323.959 292.435 321.567C292.048 319.539 289.826 320.542 288.331 320.741C285.934 321.057 283.519 321.685 280.306 320.454C283.642 318.929 286.174 319.592 288.601 319.316C290.436 319.111 292.118 318.836 292.616 316.602C293.121 314.334 291.931 313.349 290.02 312.722C288.501 312.223 286.86 311.778 287.223 309.538C287.833 305.81 285.828 306.561 283.425 307.106C273.706 309.304 263.84 309.497 253.945 308.987C262.192 307.786 270.464 306.971 278.747 306.332C282.276 306.056 284.486 304.773 284.433 300.88C284.38 296.578 286.45 293.477 290.072 291.331C292.962 289.619 296.286 288.259 290.875 285.158C288.472 283.781 288.607 280.533 288.232 277.907C288.009 276.348 288.243 274.39 287.387 273.311C284.21 269.325 283.419 266.148 286.608 261.159C290.729 254.711 299.668 252.87 304.868 258.785C305.085 259.031 305.372 259.588 305.296 259.664C302.957 261.921 304.774 262.203 306.545 262.038C308.286 261.874 309.663 261.798 310.331 263.826C310.935 265.667 311.135 267.426 309.3 268.557C308.045 269.331 307.131 270.064 308.391 271.33C309.81 272.76 310.542 270.996 311.357 270.304C312.014 269.753 312.577 268.962 312.893 268.164C314.224 264.87 315.519 265.509 317.09 268.006C319.048 271.125 320.221 274.489 320.42 278.739C322.73 277.069 323.345 275.099 324.125 273.188C325.127 270.72 326.786 268.868 329.723 269.237C332.173 269.542 335.292 271.723 335.907 267.32C336.406 263.744 341.512 264.395 341.383 261.511C341.113 255.379 344.923 253.668 349.572 252.22C350.58 251.909 352.386 252.179 351.313 249.617C349.255 244.734 349.279 239.306 349.466 234.129C349.619 229.909 349.883 226.239 346.612 222.839C345.234 221.403 343.974 219.234 347.473 216.93C351.911 214.005 354.977 208.794 354.766 203.401C354.508 196.806 355.346 190.317 355.604 183.804C355.915 175.878 358.47 167.842 365.745 163.721C383.038 153.931 384.211 135.536 390.448 119.808C390.799 118.917 390.483 117.686 390.272 116.654C388.408 107.691 392.382 100.006 396.052 92.4735C398.086 88.2997 399.188 84.4132 397.048 80.3801C394.364 75.3095 395.524 70.5319 397.975 66.2116C400.824 61.1878 401.715 56.1582 401.468 50.4662C401.275 46.0052 402.969 42.019 407.676 39.8618C415.098 36.456 405.953 32.0243 408.151 28.0439C408.749 26.9653 408.772 24.7026 406.287 24.5033C406.111 24.4916 405.935 24.4798 405.754 24.474C403.204 24.3743 400.759 23.3719 400.759 20.7223C400.753 17.1347 399.95 11.7592 402.787 10.3934C407.33 8.20684 412.419 4.00963 417.519 5.82686C424.213 8.20684 424.975 4.3848 426.206 0H438.974C440.052 7.2865 437.725 13.7875 435.175 20.5171C433.088 26.0215 432.59 32.1649 431.775 38.0797C431.488 40.1666 431.394 42.7635 434.425 43.7776C438.247 45.0555 439.572 48.479 439.138 51.8555C438.399 57.612 438.305 63.8492 432.461 67.6419C429.178 69.7757 429.858 72.6305 431.611 75.5381C435.574 82.1036 435.409 82.7953 428.123 83.7801C423.111 84.4542 423.932 86.3887 426.265 89.1556C430.028 93.6224 431.734 98.0131 429.29 104.192C427.842 107.844 429.161 112.574 429.166 116.818C429.172 120.002 428.293 122.51 424.389 122.34C422.718 122.264 422.138 123.519 421.124 124.539C417.061 128.63 415.531 133.42 414.517 139.088C413.796 143.139 415.889 147.876 412.178 151.533C411.393 152.307 413.005 154.066 414.16 154.933C415.672 156.076 417.261 157.132 418.797 158.21C417.882 159.793 416.463 159.383 415.344 159.711C411.95 160.702 409.306 161.704 413.198 165.596C416.147 168.539 416.329 172.508 414.441 175.966C412.507 179.513 408.556 179.466 404.986 179.566C403.719 179.601 402.418 179.284 402.107 177.754C401.779 176.142 402.6 175.023 403.971 174.296C404.429 174.055 404.98 173.973 405.49 173.838C407.553 173.287 410.578 174.419 411.158 171.224C411.498 169.36 410.003 167.801 408.421 166.992C405.39 165.45 402.166 164.459 398.696 165.538C398.537 165.585 398.373 165.714 398.279 165.848C397.336 167.162 397.394 168.856 398.098 169.899C400.472 173.399 394.317 179.114 401.662 181.441C399.212 183.3 395.636 184.361 397.64 188.488C398.086 189.402 397.652 191.653 395.94 191.929C394.065 192.233 393.678 190.41 393.578 189.05C393.226 184.261 390.002 183.974 386.362 184.226C384.715 184.343 383.109 184.66 382.393 186.377C381.59 188.282 382.563 189.713 383.789 191.143C389.088 197.322 391.954 204.895 395.554 212.041C396.011 212.944 396.726 214.152 395.255 214.691C394.082 215.119 393.25 214.099 392.734 213.178C388.478 205.587 381.238 200.13 377.639 192.069C377.516 191.788 377.106 191.636 376.49 191.161C375.711 193.394 375.828 196.331 372.533 196.56C371.056 196.659 368.905 196.138 368.612 198.324C368.307 200.61 369.749 202.381 371.59 203.594C372.598 204.262 373.929 204.426 375.019 204.995C378.425 206.771 381.35 208.987 381.537 213.302C381.643 215.74 382.974 217.604 384.269 219.533C385.764 221.76 386.485 224.252 384.017 226.186C381.819 227.91 379.568 227.06 377.938 225.073C376.777 223.666 376.033 222.265 374.767 224.949C373.747 227.113 371.906 224.873 370.405 225.383C371.525 230.548 372.457 235.56 373.723 240.49C375.089 245.818 379.122 247.577 384.046 245.138C385.084 244.622 386.11 243.831 386.479 245.425C386.942 247.454 387.382 249.787 384.785 250.912C383.466 251.487 381.432 250.408 380.828 252.618C381.086 254.078 382.171 253.492 382.921 253.462C388.349 253.24 391.057 257.056 393.859 260.743L393.561 260.514C394.223 261.575 394.885 262.642 395.554 263.703C395.09 263.779 394.622 263.856 394.158 263.926C394.012 265.268 394.756 265.351 395.765 265.057C395.249 266.036 394.727 267.015 394.211 267.994C393.004 267.889 391.802 267.783 390.594 267.678V267.531C391.532 267.93 392.476 268.328 393.42 268.727C392.095 270.908 391.474 273.282 391.474 275.82C391.474 278.317 391.286 280.521 387.833 280.305C385.178 280.14 386.327 282.614 385.688 283.828C385.049 285.041 385.729 285.967 387.036 286.073C388.701 286.208 390.542 287.333 391.966 285.516C392.271 285.123 392.429 284.543 392.47 284.033C392.599 282.479 394.047 281.665 394.51 280.381C396.609 274.613 401.375 278.921 404.569 277.579C408.11 276.096 410.982 273.804 414.195 278.851C416.17 281.958 419.992 283.869 419.518 288.734C420.145 287.96 420.684 287.087 421.417 286.43C423.428 284.631 429.213 286.26 426.64 280.293C425.45 277.526 426.816 273.962 423.474 271.717C420.784 269.911 421.141 266.91 422.777 264.594C424.999 261.458 427.818 263.615 431.124 264.776C428.914 260.292 432.484 258.099 433.897 255.098C434.63 253.539 436.007 253.286 437.502 253.755C438.739 254.148 440.334 254.629 441.025 253.638C444.871 248.157 448.593 253.668 449.695 255.051C451.483 257.296 450.709 260.989 448.019 263.985C446.108 266.113 444.765 268.029 441.711 268.739C438.651 269.448 438.575 271.91 439.759 274.513C442.397 273.85 439.923 271.74 441.717 270.767C442.966 273.845 448.453 271.078 448.793 275.984C448.863 277.004 449.76 278.78 448.922 278.904C444.132 279.607 442.866 285.991 437.491 285.662C434.454 285.475 433.346 287.468 434.003 290.182C434.261 291.243 435.298 293.494 436.564 290.628C437.18 289.232 438.135 289.438 439.173 289.672C440.175 289.895 440.967 290.751 440.41 291.589C437.854 295.434 440.902 296.495 443.364 297.826C446.413 299.468 449.396 300.048 451.923 296.841C452.017 296.724 452.234 296.695 452.392 296.624C456.882 306.455 454.115 314.48 445.604 316.591C443.065 317.218 440.779 315.43 437.719 317.417C434.448 319.545 432.854 321.509 432.49 325.108C432.185 328.127 431.171 330.36 427.384 330.648C417.964 331.363 414.869 335.361 415.613 345.168C415.912 349.101 412.606 352.677 408.855 352.484C401.263 352.097 400.179 352.912 398.995 360.538C398.702 362.432 397.916 363.493 396.081 363.698C393.713 363.962 391.644 364.858 389.439 366.658C392.388 368.804 393.736 371.928 394.399 375.375C394.592 376.401 395.026 378.001 394.539 378.441C388.836 383.594 392.869 389.942 392.388 395.675C392.118 398.899 391.093 401.883 390.624 405.019C390.383 406.649 390.202 408.829 387.833 408.97C385.875 409.087 384.469 407.833 383.601 406.215C382.862 404.832 382.54 403.237 381.872 401.807C381.297 400.582 380.857 398.776 379.046 399.169C377.129 399.585 377.469 401.432 377.833 402.704C379.791 409.551 377.639 415.964 376.25 422.547C375.4 426.55 372.064 425.624 369.802 426.861C367.387 428.186 366.232 426.445 365.012 424.915C362.591 421.878 357.849 419.545 362.099 414.51C362.826 413.654 362.427 411.954 361.208 411.215C359.262 410.031 356.888 410.969 355.932 412.136C353.095 415.577 349.97 415.459 346.6 413.736C344.665 412.745 344.472 413.812 344.226 415.125C344.067 415.993 344.056 416.89 343.956 417.769C343.288 423.467 342.989 423.614 337.584 419.979C337.584 427.254 337.584 434.013 337.584 441.868C333.234 438.181 338.035 431.586 331.153 430.103C333.557 441.018 329.864 451.206 329.149 461.91C326.558 454.694 321.985 449.295 316.586 444.424C314.124 442.202 314.716 438.861 314.382 435.9C313.983 432.319 313.755 428.672 308.532 428.819C305.982 428.889 306.357 426.545 306.275 424.809C306.117 421.286 306.82 417.681 305.577 414.252C304.821 412.153 303.162 410.066 301.052 410.459C299.082 410.828 299.663 413.519 299.891 415.131C300.847 421.761 300.243 428.022 297.71 434.353C296.309 437.858 293.672 437.53 291.356 437.723C288.431 437.964 289.803 435.232 289.498 433.737C289.14 431.979 288.988 429.775 286.707 429.88C284.128 429.997 283.425 432.489 284.286 434.236C288.906 443.55 284.128 452.73 283.571 461.816C283.22 467.508 281.584 473.494 280.904 479.432C280.67 481.472 279.837 484.133 277.07 483.594C270.944 482.404 268.693 485.012 269.555 491.396C267.263 488.928 268.688 485.481 265.786 483.875C264.918 485.821 266.548 487.047 266.483 488.582C266.431 489.843 266.63 491.132 265.376 491.9C264.186 492.627 262.96 492.516 261.964 491.519C258.587 488.131 256.77 490.259 255.176 493.372C253.921 495.816 252.802 498.366 250.539 493.923C249.495 491.883 247.702 492.293 246.066 493.647C242.918 496.244 239.928 499.216 235.221 496.66C233.427 495.687 233.457 497.628 233.023 498.694C232.15 500.869 230.702 502.528 228.175 501.637C225.332 500.635 225.555 498.184 226.164 495.822C227.331 491.273 230.414 487.24 230.022 481.765C226.258 482.662 224.629 484.954 224.066 488.307C223.55 491.367 222.108 493.424 218.743 494.052C213.215 495.083 215.161 500.306 213.942 503.636C213.116 505.899 214.874 507.599 217.489 507.822C218.174 507.88 218.808 507.98 219.101 508.859C221.023 514.633 224.248 515.114 230.227 514.1C235.286 513.244 239.196 510.77 243.586 508.894C247.748 507.112 253.206 510.131 253.593 514.639C253.821 517.259 254.513 518.913 256.694 520.226C257.714 520.841 259.197 522.277 258.423 523.174C254.683 527.536 259.684 526.152 261.647 527.805C257.526 527.506 255.691 529.353 255.246 532.706C254.906 535.25 253.37 535.907 251.043 535.221C249.173 534.67 247.291 534.166 245.421 533.626C242.015 532.647 240.292 530.707 241.312 526.926C241.699 525.496 242.578 523.467 240.427 522.811C238.422 522.201 237.208 523.831 236.359 525.478C235.268 527.588 235.696 531.129 232.747 531.445C229.664 531.774 229.688 528.046 228.193 526.228C226.774 524.505 225.567 524.528 224.547 526.492C223.321 528.855 221.862 531 220.162 533.087C217.407 536.469 214.657 538.755 209.85 537.777C207.248 537.249 205.26 539.131 203.83 541.388C202.353 543.727 204.733 544.494 205.307 546.013C207.476 551.716 212.5 554.12 216.803 557.397C217.764 558.129 218.151 560.463 219.998 559.138C221.346 558.171 221.762 556.412 221.522 554.794C221.088 551.828 220.508 548.879 219.845 545.96C219.124 542.759 219.951 540.708 223.55 540.772C225.924 540.819 227.079 539.611 227.818 537.565C228.925 534.47 230.62 534.705 232.243 537.085C234.26 540.039 236.206 540.491 239.196 538.128C242.238 535.719 245.14 536.405 247.168 539.916C247.877 541.141 248.821 542.226 249.501 543.463C250.72 545.667 252.333 547.191 255.017 546.687C258.2 546.095 256.489 543.609 256.629 541.927C256.946 538.199 260.07 535.871 261.167 532.542C261.255 532.284 262.234 531.991 262.48 532.161C268.981 536.71 269.315 530.25 271.601 527.143C272.644 527.371 273.612 527.964 273.729 529.118C274.063 532.337 275.716 532.976 278.8 532.764C284.691 532.372 286.104 534.441 285.23 540.315C284.714 543.797 284.773 547.361 284.597 550.89C284.544 551.957 284.427 553.235 285.758 553.545C292.851 555.198 291.104 561.066 291.426 565.75C291.585 568.025 291.473 570.792 293.959 570.686C296.145 570.592 298.179 568.394 297.886 565.457C297.546 562.075 298.174 559.149 301.193 557.074C302.793 555.978 303.233 554.296 303.209 552.402C303.168 549.29 305.272 547.109 307.16 545.157C308.796 543.469 311.023 542.05 313.837 542.9C316.862 543.814 318.21 546.2 318.21 548.885C318.21 553.709 319.91 555.421 324.91 554.876C329.963 554.325 329.811 558.915 330.702 562.215C331.071 563.593 327.941 565.897 331.359 566.284C333.621 566.542 336.886 566.665 337.766 563.74C338.651 560.773 340.081 559.308 342.877 557.784C346.002 556.078 344.659 552.678 341.711 551.74C333.393 549.079 335.433 541.622 333.809 535.866C333.651 535.309 334.055 534.095 334.46 533.954C340.31 531.961 341.617 523.379 349.935 524.165C347.344 519.927 345.216 516.216 348.083 511.685C350.662 507.611 353.382 504.082 358.594 503.841C361.583 503.706 362.251 501.655 362.076 499.503C361.519 492.78 363.301 485.839 365.868 480.528C368.852 474.367 370.241 465.439 379.591 463.563C382.874 462.907 383.9 460.404 383.853 456.335C383.753 447.636 384.234 438.685 393.045 433.051C397.406 430.267 400.015 418.783 397.652 413.343C394.92 407.053 397.254 401.789 401.023 397.451C405.296 392.533 410.168 388.371 412.272 381.759C413.773 377.046 418.468 376.184 422.841 376.225C426.552 376.26 428.105 379.924 425.585 383.816C422.021 389.321 420.584 395.441 418.92 401.572C417.624 406.356 418.849 410.787 420.924 414.891C422.519 418.039 422.484 420.958 421.634 424.118C420.397 428.708 419.207 433.315 417.952 437.905C417.261 440.432 417.724 442.853 418.55 445.209C419.5 447.935 419.746 450.731 419.775 453.586C419.84 460.099 418.697 461.517 412.208 461.43C409.13 461.388 407.987 462.502 407.975 465.357C407.946 470.158 407.119 474.859 406.105 479.537C405.923 480.381 405.73 481.448 406.076 482.146C410.877 491.701 407.958 502.171 409.517 512.136C410.555 518.748 410.226 525.8 408.714 532.6C407.624 537.489 411.299 540.831 414.611 544.236C420.502 550.286 430.239 551.236 433.932 560.152C435.89 564.877 434.225 569.074 434.331 573.5C434.331 573.646 434.173 573.933 434.079 573.933C428.692 574.191 425.397 579.479 420.485 580.012C416.639 580.429 415.942 581.63 416.434 584.901C417.05 588.999 416.979 589.011 413.198 592.282C418.163 593.143 421.352 595.529 422.056 600.588C422.226 601.796 423.463 603.285 424.606 603.847C428.311 605.676 432.297 606.984 431.101 612.529C430.925 613.356 431.992 614.522 433.229 614.54C434.911 614.557 435.861 613.326 436.207 611.943C437.151 608.18 437.831 604.352 438.704 600.571C439.261 598.155 439.947 594.808 442.567 594.978C444.912 595.131 445.017 598.695 445.006 600.823C444.953 611.779 444.578 622.735 444.361 633.691C444.197 641.828 443.933 649.964 444.056 658.095C444.103 660.985 444.378 664.267 447.954 665.592C449.684 666.231 449.473 667.831 449.549 669.209C449.883 675.575 450.199 681.947 450.457 688.319C450.575 691.168 450.569 693.923 447.925 696.022C446.196 697.394 446.77 699.604 446.958 701.532C447.79 710.155 448.652 718.772 449.478 727.396C450.287 735.837 444.947 743.323 446.629 753.276C443.364 749.589 444.888 746.031 442.28 743.2C441.869 753.271 441.412 762.773 441.107 772.281C440.826 781.068 439.003 789.861 441.711 798.643C442.333 800.653 442.186 803.713 439.835 804.839C437.485 805.964 436.002 803.901 434.905 801.949C434.067 800.46 432.883 800.812 431.716 801.451C430.532 802.101 429.858 802.986 430.227 804.487C433.328 817.026 428.756 828.047 423.469 838.967C420.702 844.689 421.587 850.949 420.807 857.005C423.486 855.188 423.24 852.128 424.805 849.062C424.963 869.315 418.193 888.25 421.077 907.917C418.304 903.426 419.148 898.426 417.864 893.813C416.815 890.049 415.068 886.679 413.509 883.155C410.859 877.176 407.16 871.719 404.681 865.986C402.295 860.475 400.853 852.468 407.266 846.811C408.855 845.404 409.74 843.194 407.184 842.068C404.927 841.078 401.04 839.706 400.132 842.397C398.655 846.782 394.668 849.267 393.285 853.617C392.658 855.586 391.562 857.175 391.943 859.49C392.429 862.445 391.268 864.854 387.91 865.194C385.178 865.47 383.138 866.326 382.434 869.245C381.719 872.211 384.328 872.059 385.805 873.061C387.687 874.333 387.487 875.863 386.186 877.592C384.24 880.166 384.674 882.974 384.832 886.104C385.055 890.536 385.09 894.633 387.904 898.373C388.724 899.464 389.24 900.167 390.682 900.249C395.524 900.536 399.358 907.061 396.456 911.117C393.308 915.514 393.209 920.051 393.783 924.77C394.1 927.39 392.716 929.512 392.464 931.67C394.106 933.37 395.554 928.838 396.304 931.734C396.966 934.313 397.195 937.414 394.903 939.742C394.545 940.105 394.006 940.293 393.537 940.533C385.741 944.513 385.119 947.374 390.817 954.444C392.154 952.415 390.817 950.663 390.588 948.927C390.243 946.272 391.907 944.619 393.537 942.989C394.246 942.28 395.255 942.356 395.905 943.112C397.359 944.801 396.949 946.758 396.45 948.675C396.14 949.871 395.665 951.038 395.454 952.251C394.668 956.7 392.793 961.138 396.626 965.353C398.115 966.988 398.555 969.556 397.922 971.936C397.447 973.718 396.679 975.453 394.352 974.978C392.488 974.597 391.028 973.659 391.427 971.32C392.13 967.188 391.163 965.394 386.198 965.511C381.913 965.611 380.57 959.983 376.912 958.107C376.725 958.014 376.672 957.439 376.725 957.111C377.434 952.392 376.455 948.951 374.14 945.381C372.047 942.157 370.03 938.921 371.742 934.524C373.378 930.333 372.44 926.423 367.979 924.178C366.589 923.48 365.903 922.343 365.264 921.059C363.588 917.695 361.771 916.546 357.796 918.75C352.72 921.569 345.111 917.413 344.067 911.75C343.282 907.489 340.486 903.866 341.265 898.977C341.869 895.202 342.209 891.755 344.994 888.871C346.377 887.441 347.039 885.406 346.477 883.419C345.521 880.031 345.961 877.141 348.693 874.749C349.408 874.122 349.83 873.178 349.396 872.358C346.793 867.404 342.449 863.811 339.126 859.42C337.056 853.417 338.833 846.852 336.927 839.771C334.008 844.859 334.717 849.795 332.572 853.857C331.388 856.108 331.048 858.259 333.123 860.071C335.368 862.035 337.361 860.692 339.255 859.262C335.298 866.97 336.441 875.933 333.17 883.871C332.097 886.479 331.986 889.217 328.914 890.659C325.989 892.036 325.854 894.774 326.909 897.517C327.402 898.795 328.58 899.903 327.261 901.504C323.826 900.577 324.981 896.72 323.175 894.756C318.896 900.214 318.749 909.353 323.158 914.224C327.161 918.656 327.759 922.654 325.391 928.569C323.72 932.737 323.843 938.042 322.788 942.784C322.56 943.816 322.888 945.164 322.331 945.891C319.078 950.17 318.31 954.743 318.327 959.403L316.176 959.344C317.196 953.16 315.08 951.178 307.869 950.557C304.376 950.258 300.448 950.188 297.523 948.974C290.318 945.985 285.881 950.205 281.754 954.098C275.681 959.825 272.539 960.065 267.064 953.687C265.504 951.876 262.89 951.243 261.729 948.757C259.525 944.044 260.305 941.711 265.282 939.988C266.759 939.478 267.035 938.423 267.427 936.553C264.825 937.819 263.054 938.37 262.702 934.442C261.946 925.983 258.587 924.541 252.297 929.899C250.885 931.101 249.665 931.734 248.294 931.529C244.507 930.954 241.359 932.074 238.334 934.196C237.285 934.929 236.464 934.536 236.505 932.314C236.575 928.868 235.174 928.926 232.642 929.764C227.818 931.365 222.167 926.951 223.784 922.273C224.822 919.271 223.409 919.377 222.231 920.174C216.856 923.814 211.216 925.391 204.633 925.778C201.368 925.972 198.115 929.647 194.269 930.661C192.675 931.083 191.309 932.103 191.502 934.05C191.561 934.648 192.071 935.445 192.598 935.703C194.844 936.816 194.369 933.956 195.412 933.622C198.8 932.537 202.288 931.67 205.993 932.432C205.735 934.911 203.789 934.39 202.763 935.146C199.715 937.397 199.791 940.076 203.262 941.424C206.579 942.714 209.704 943.611 204.317 946.536C203.156 947.169 202.165 948.294 202.558 949.549C203.549 952.661 201.409 954.49 200.049 956.665C197.857 960.177 198.314 962.867 202.124 965.007C205.307 966.795 208.027 969.544 212.09 969.239C212.424 969.216 212.981 969.316 213.08 969.527C216 975.682 222.09 974.544 227.671 975.242C223.931 978.671 216.428 979.175 213.62 976.198C210.407 972.792 207.306 970.412 202.664 973.642C201.638 974.357 200.735 974.087 200.002 972.968C197.781 969.573 194.504 968.829 192.194 972.012C190.084 974.914 190.394 978.66 193.712 981.374C195.588 982.91 197.886 984.129 198.56 986.878C197.071 987.758 195.981 987.376 194.943 986.104C193.906 984.838 192.493 984.475 191.244 985.682C189.89 986.99 190.811 988.572 191.696 989.493C194.128 992.019 196.538 994.722 200.536 994.804C201.878 994.833 203.39 994.522 204.704 995.882C204.059 998.221 201.978 997.746 200.506 997.57C197.839 997.248 195.67 998.368 193.419 999.347C192.071 999.933 191.033 1000.87 190.705 1002.41C190.435 1003.69 195.682 1014.04 197.054 1014.66C199.293 1015.67 199.756 1017.39 199.012 1019.45C198.361 1021.28 197.171 1021.98 194.914 1021.81C189.603 1021.41 184.609 1020.6 180.001 1017.56C176.935 1015.54 174.057 1010.28 175.094 1006.84C175.81 1004.46 178.465 1004.24 180.095 1003.51C183.934 1001.83 184.057 999.276 182.955 996.222C181.748 992.869 180.405 989.411 175.569 990.337C172.005 991.017 167.691 991.322 166.26 987.564C164.789 983.695 163.447 979.047 166.008 974.902C167.11 973.12 167.808 971.842 166.893 969.638C162.843 959.907 166.425 952.286 176.232 949.432C178.823 948.675 180.581 947.227 179.638 944.496C177.017 936.934 180.71 929.149 178.459 921.522C177.392 917.911 180.376 915.971 183.559 915.414C186.244 914.945 188.22 913.884 189.468 911.516C191.385 907.887 195.911 908.362 198.332 905.396C200.348 907.694 199.076 910.93 201.556 912.794C202.798 913.726 201.556 914.81 200.401 914.822C196.491 914.863 193.39 917.12 190.043 918.48C193.97 920.801 203.549 920.919 207.769 918.292C209.428 917.261 210.343 916.182 212.055 918.292C214.065 920.766 216.48 919.934 218.556 918.076C220.93 915.948 220.9 913.298 219.136 911.047C218.491 910.22 217.383 909.828 218.087 908.702C221.322 903.532 217.366 905.079 214.909 905.255C212.348 905.443 210.231 906.668 208.092 908.01C206.533 908.989 204.803 910.771 202.804 909.411C200.899 908.116 200.706 905.818 200.829 903.637C200.905 902.248 201.151 900.87 201.374 899.065C199.504 899.329 199.727 900.935 199.017 901.65C197.798 902.875 196.163 903.42 194.662 902.946C193.062 902.442 194.152 900.806 194.029 899.669C193.829 897.805 192.475 895.208 192.622 894.516C193.636 889.856 189.679 886.596 189.732 882.851C189.773 880.084 190.007 875.382 194.785 874.509C195.899 874.304 197.212 873.331 196.931 872.475C195.512 868.201 197.634 863.957 196.802 859.778C196.409 857.826 195.09 855.92 192.81 856.149C187.68 856.665 182.563 857.673 178.102 860.346C175.434 861.947 174.837 864.649 176.736 868.682C178.688 861.536 182.826 863.166 186.93 864.76C188.067 865.206 189.574 865.464 189.843 866.812C190.189 868.536 188.46 869.092 187.422 869.96C185.834 871.291 183.764 871.138 181.889 871.607C176.871 872.862 175.358 877.376 178.629 881.315C179.755 882.675 181.138 883.824 182.229 885.213C183.108 886.333 186.555 886.579 184.192 888.912C182.34 890.741 179.204 891.403 177.703 888.719C175.552 884.873 170.716 883.056 170.088 878.179C169.953 877.112 169.109 876.643 168.142 877.334C166.301 878.648 165.686 880.635 166.811 882.481C169.783 887.341 173.137 891.831 179.004 893.725C182.146 894.739 185.787 894.551 188.688 897.582C186.156 898.836 183.934 900.319 182.047 902.395C177.123 907.829 167.468 906.545 163.992 900.161C162.474 897.371 160.193 896.04 157.098 896.04C150.216 896.04 144.653 888.619 146.294 882.112C147.414 877.68 147.525 873.29 153.557 872C156.869 871.291 154.448 867.269 155.263 864.884C156.131 862.369 156.582 860.798 152.889 859.455C146.089 856.982 145.603 853.593 149.976 847.591C150.914 846.301 153.434 844.865 151.201 843.37C149.413 842.168 147.988 844.636 147.291 846.049C144.09 852.55 138.568 858.67 143.117 866.753C143.574 867.574 143.885 868.641 142.795 869.028C137.196 871.009 137.964 875.816 137.759 880.154C137.519 885.365 131.358 890.782 126.223 889.973C122.582 889.398 120.285 889.955 117.992 893.596C114.675 898.866 109.463 902.043 102.61 901.14C100.518 900.865 98.2667 900.179 97.7274 898.438C95.664 891.796 91.2733 895.137 88.0492 896.292C81.9293 898.479 77.1927 895.841 76.6652 889.375C76.46 886.884 75.6393 884.592 76.12 881.866C76.759 878.237 73.3883 876.203 70.299 878.472C65.6621 881.878 64.4018 878.988 61.9515 875.728C58.5398 871.185 56.9922 866.753 58.8387 861.273C59.1025 860.487 58.8387 859.174 57.9184 859.01C52.5253 858.043 52.5429 852.421 49.5533 849.373C47.5543 847.333 48.1816 844.431 49.3188 841.852C50.4385 839.313 49.8347 837.649 46.7864 837.672C44.3302 837.69 43.1285 835.79 41.493 834.53C40.1389 833.492 38.8961 833.569 37.753 834.852C36.6861 836.054 37.2137 837.062 38.0403 838.147C39.2068 839.671 40.9596 840.761 41.4168 842.831C41.8389 844.753 42.7182 846.776 39.7696 847.473C38.6792 847.731 37.9582 848.347 37.3544 849.337C34.4234 854.162 32.0434 853.98 27.6352 850.322C22.9866 846.465 20.4718 841.605 18.3614 836.23C17.2828 833.487 18.807 831.968 20.3076 830.216C25.3783 824.295 25.2962 823.761 19.0707 819.412C18.508 819.019 17.7459 818.597 17.5466 818.022C15.6942 812.676 11.0984 810.742 6.46739 808.655C3.55396 807.336 2.78604 804.235 3.36052 801.562C4.12258 798.033 3.0381 795.307 1.30881 792.558C-1.11221 788.712 -0.0277374 786.344 3.35465 783.167C7.80393 778.993 12.0832 774.796 17.277 771.513C19.4518 770.136 19.2818 767.732 18.7307 765.258C17.9745 761.864 18.5432 758.576 21.0169 755.85C21.9959 754.771 22.9045 753.851 24.6279 754.238C26.369 754.631 26.7852 755.774 27.1017 757.257C27.471 758.98 27.9517 760.686 28.5438 762.345C29.5227 765.106 27.1369 769.614 32.5417 770.194C32.7586 770.218 33.21 771.707 32.9462 772.099C28.4031 778.817 34.8689 778.295 38.0403 779.925C38.6147 780.224 39.1951 780.505 41.2175 781.525C34.0482 782.334 29.7338 785.805 24.2352 790.09C31.0117 789.299 36.0179 792.728 41.7978 791.819C43.873 791.491 47.1323 791.069 47.3843 794.217C47.613 797.089 44.4826 796.626 42.5482 797.16C41.0358 797.576 39.5292 798.015 37.0144 798.731C39.9571 800.56 42.1027 799.61 44.1251 799.241C48.7678 798.391 52.5078 798.994 54.4774 804.1C55.7026 807.277 58.5339 808.52 61.846 808.063C64.1673 807.74 65.4863 808.391 64.988 810.777C64.3432 813.843 65.498 815.045 68.4525 815.174C72.8666 815.373 72.2393 819.5 73.5993 822.835C75.6041 820.051 77.3334 818.017 80.5869 817.835C82.9434 817.706 82.0641 816.053 81.0617 814.816C78.4589 811.592 76.0614 808.503 78.8458 803.936C79.8658 802.265 78.6465 800.548 76.1024 800.829C74.3673 801.023 72.5031 800.63 70.8676 801.099C68.1594 801.873 66.8052 800.419 65.7208 798.514C64.5308 796.421 64.1263 793.965 61.1601 793.126C59.0849 792.54 60.2339 790.33 60.3746 788.9C60.9549 782.997 59.5891 780.435 54.0612 779.427C51.394 778.94 50.6026 777.879 50.2216 775.482C49.9226 773.612 49.096 771.789 48.2871 770.048C46.5988 766.401 47.4605 763.494 50.6436 761.255C54.6298 758.447 58.5339 756.014 55.6088 749.812C54.6064 747.684 56.617 744.073 59.7005 744.349C63.0066 744.642 65.7032 742.273 68.9859 743.112C69.7949 743.317 71.0259 742.543 71.8524 741.933C76.8938 738.223 79.01 739.336 81.6831 745.169C83.8989 750.005 88.8992 752.567 93.4599 755.24C93.6475 756.987 92.0764 757.005 91.0975 757.597C89.8489 758.359 87.4689 758.646 88.9227 760.85C89.9895 762.468 91.8537 761.847 93.2488 760.967C96.3792 759.009 97.8564 755.867 99.5857 752.708C101.391 749.407 101.637 746.916 99.4391 743.809C98.5129 742.502 98.4133 740.415 98.425 738.686C98.4426 735.174 98.3019 732.15 93.9054 731.147C91.1092 730.508 90.7399 727.63 90.2358 725.273C89.3565 721.135 87.3399 718.784 82.7089 718.925C78.67 719.048 77.4565 715.29 77.2865 712.582C77.1224 709.927 76.5655 707.394 76.29 704.797C76.0262 702.318 74.7952 700.952 72.4855 700.325C68.1945 699.158 66.0197 696.28 65.7032 691.895C65.6621 691.373 65.5683 690.822 65.369 690.348C64.6832 688.718 63.9153 686.484 61.9867 686.813C60.0756 687.141 59.8822 689.369 60.1049 691.221C60.2339 692.276 60.3042 693.355 60.5973 694.363C61.5587 697.669 64.1497 700.905 59.378 703.813C58.0591 704.616 58.3405 707.799 57.4846 709.71C56.9688 710.859 58.9443 712.887 56.5643 713.051C55.1281 713.151 53.2874 713.245 52.1326 711.785C49.7292 708.743 46.8333 706.087 44.4533 703.109C42.513 700.682 41.534 697.194 44.2364 693.824C47.3726 689.92 49.2543 685.787 45.2037 680.927C43.2633 678.6 45.8485 677.058 47.7712 676.285C51.1302 674.936 53.2229 673.482 51.306 669.297C50.5557 667.656 52.0095 665.657 52.8712 663.863C54.4715 660.539 54.2195 657.86 49.8522 656.559C43.7088 654.724 40.6313 649.501 42.0264 643.363C43.7499 635.784 43.5213 629.001 36.0824 624.365C34.1948 623.186 33.4913 621.486 34.271 619.358C35.5079 615.982 31.1407 613.291 33.251 609.751C37.3485 602.874 43.1871 597.61 49.0609 592.375C50.075 591.473 51.4995 590.816 52.965 591.959C53.3929 593.888 51.4995 593.612 50.7022 594.322C48.6564 596.133 48.4923 598.835 50.5674 599.691C55.7553 601.831 53.2112 603.959 50.9016 605.823C45.954 609.803 46.634 614.458 48.4219 619.61C49.2367 621.955 50.2509 622.471 52.2322 621.193C53.8677 620.132 55.9957 619.311 56.9277 617.787C59.8529 612.98 65.1287 612.066 69.8242 609.147C69.3025 613.367 69.3142 616.996 63.8684 617.547C61.248 617.811 54.9757 629.734 55.2805 632.601C55.3977 633.679 55.5501 634.992 56.7284 635.192C58.4225 635.485 58.6336 633.843 58.8856 632.724C59.6301 629.441 61.2891 626.78 64.8766 627.172C69.1559 627.641 74.1797 625.097 77.5562 630.15C79.0745 632.425 78.7989 633.339 76.3779 634.5C70.6097 637.261 68.1418 648.522 72.1749 653.686C74.0507 656.09 75.9676 658.335 76.4834 661.471C76.8117 663.453 78.4765 664.467 80.0945 665.082C84.9482 666.935 88.6237 670.727 93.2782 672.873C94.9664 673.652 95.9688 674.966 96.8774 676.583C97.5047 677.697 98.2023 680.933 100.477 677.674C100.916 677.041 101.204 677.58 101.62 677.926C108.185 683.424 116.216 684.333 124.294 685.019C126.317 685.189 127.442 684.298 126.803 682.17C126.422 680.904 127.835 678.489 124.306 679.087C120.923 679.661 119.81 677.023 118.151 674.057C114.657 667.814 118.297 662.075 117.776 656.172C117.5 653.065 118.321 648.967 112.769 651.506C112.265 651.734 111.351 651.506 110.835 651.172C108.637 649.759 105.981 640.262 106.925 637.724C107.587 635.948 109.352 634.178 108.244 632.249C105.448 627.366 109.17 623.538 110.184 619.347C110.765 616.937 113.754 616.773 115.935 616.199C118.233 615.595 117.652 617.805 118.315 618.813C118.796 619.546 119.335 620.455 120.068 620.765C123.626 622.284 123.86 624.763 122.278 627.776C121.463 629.324 121.557 630.414 123.227 631.247C124.998 632.126 125.279 630.883 125.818 629.699C126.076 629.13 126.721 628.427 127.272 628.351C132.149 627.665 132.067 625.256 129.394 622.143C132.319 619.534 135.42 621.181 138.322 621.181C140.051 621.181 141.048 622.635 141.523 624.241C142.027 625.936 140.678 628.931 143.516 628.966C146.881 629.013 150.322 630.608 153.704 628.761C155.832 627.6 157.192 626.551 155.556 623.855C154.038 621.351 154.132 618.473 156.541 616.615C158.956 614.757 162.104 615.044 164.437 616.679C169.062 619.915 173.951 618.145 178.747 618.028C179.966 617.998 181.73 617.629 181.502 615.571C181.349 614.2 180.529 612.91 179.245 612.992C175.358 613.238 174.362 610.436 174.063 607.763C173.676 604.328 177.48 605.612 179.098 604.316C179.397 602.605 178.055 601.321 177.234 600.758C173.699 598.32 175.012 596.579 177.164 593.97C179.638 590.974 181.296 592.516 183.307 594.122C184.503 595.078 184.579 595.09 186.097 593.196C186.707 592.434 187.252 592.704 187.932 592.856C193.788 594.163 192.985 591.537 190.928 587.92C189.486 585.376 188.941 582.111 189.925 579.731C191.291 576.437 190.353 573.605 190.189 570.51C189.961 566.16 189.48 562.198 185.189 559.824C184.62 559.513 183.946 558.745 183.934 558.182C183.729 548.615 179.38 539.06 183.401 529.535C184.644 526.586 187.792 525.408 191.08 525.466C192.845 525.501 194.65 525.542 196.356 525.929C199.363 526.609 200.958 525.607 200.641 522.512C200.348 519.634 201.55 517.488 203.027 515.173C205.595 511.151 205.337 507.394 201.737 503.689C194.316 496.056 194.134 493.424 198.455 483.506C199.856 480.288 202.06 477.409 202.623 473.793C202.81 472.579 203.748 471.424 205.149 471.407C211.222 471.325 210.958 466.922 211.058 462.819C211.087 461.781 210.952 460.591 210.46 459.712C206.603 452.771 206.902 446.018 211.017 439.3C211.715 438.163 211.076 436.879 210.736 435.689C209.469 431.334 207.687 427.225 207.207 422.529C206.667 417.283 202.001 414.744 197.171 416.491C194.298 417.529 192.294 416.661 191.678 414.41C190.723 410.922 188.061 409.914 185.459 408.519C181.988 406.661 179.415 404.539 181.033 399.82C182.141 396.578 181.255 393.078 180.171 389.913C178.5 385.047 180.353 381.553 184.075 378.839C188.331 375.738 193.63 375.879 197.3 378.775C199.82 380.762 203.719 378.511 205.958 381.571C206.263 381.987 207.805 380.569 207.711 382.351C207.664 383.3 207.066 383.957 206.193 384.361C201.198 386.653 200.512 388.377 201.907 395.107C204.797 389.362 205.19 389.344 208.825 394.696C211.656 398.882 217.67 400.365 218.573 406.367C219.294 403.014 218.69 400.136 216.545 397.651C213.415 394.016 212.453 390.352 215.806 386.214C217.131 384.578 217.852 382.474 218.034 380.305C218.174 378.646 218.198 376.969 220.502 376.993C222.495 377.016 224.083 377.96 224.453 379.9C224.945 382.497 224.922 385.182 225.291 387.808C225.59 389.942 225.924 392.527 229.113 390.81C230.819 389.889 231.663 390.792 231.98 391.923C233.134 396.085 235.116 395.411 237.537 393.108C240.503 390.276 244.272 389.385 249.624 388.852C245.017 386.612 243.88 384.373 247.485 381.542C248.856 380.463 249.829 379.941 250.75 381.893C252.456 385.499 254.115 383.136 255.639 381.454C257.005 384.866 256.366 387.357 253.616 389.239C249.191 392.275 247.42 396.39 247.074 401.83C246.811 406.016 243.334 409.668 244.313 414.422C245.04 417.945 249.085 421.415 251.84 419.51C255.416 417.036 256.747 418.9 258.74 421.105C262.005 424.71 263.429 424.423 265.616 420.026C266.161 418.93 266.513 417.306 267.41 416.878C273.577 413.93 274.626 408.226 275.523 402.428C275.828 400.464 277.627 399.685 278.542 398.26C276.044 394.983 266.067 397.797 270.915 388.734C261.296 389.919 260.475 388.553 257.603 379.988C256.653 377.163 254.97 374.589 253.757 371.846C250.75 365.046 251.283 358.539 255.879 352.613C258.036 349.834 255.047 348.486 254.414 346.563C253.64 344.207 251.359 343.767 249.085 344.336C247.561 344.717 246.131 345.473 244.618 345.907C241.763 346.721 239.495 346.399 238.287 343.075C237.115 339.857 234.389 338.38 231.212 337.196C225.713 335.144 220.724 332.547 218.38 326.28C216.65 321.667 212.096 319.697 207.424 318.789C203.643 318.056 200.641 316.192 197.564 313.964C190.875 309.122 183.401 306.912 175.036 308.788C168.306 310.301 161.518 309.691 154.8 308.73C152.872 308.454 152.145 308.642 151.998 310.523C151.945 311.215 151.969 312.001 151.652 312.575C149.671 316.192 149.618 316.204 152.596 319.029C154.19 320.542 154.296 321.901 152.707 323.537C151.5 324.774 149.284 324.733 148.698 326.574C154.56 332.389 162.89 336.017 163.318 345.918C162.262 346.733 161.096 345.695 160.492 344.845C156.383 339.06 150.245 339.083 144.295 339.476C140.467 339.728 138.597 337.336 136.171 335.449C134.494 334.147 132.888 332.723 131.094 331.591C127.794 329.51 127.278 327.084 130.215 324.469C132.601 322.341 132.278 321.022 129.928 319.053C127.835 317.3 126.463 314.709 124.505 312.751C123.427 311.672 121.715 310.359 120.443 310.5C114.294 311.186 110.014 306.807 104.791 305.077C98.0557 302.838 96.8833 299.292 99.3219 292.122C101.555 285.551 101.45 285.375 94.9312 283.142C91.3026 281.899 89.5206 279.806 91.8771 275.967C93.9464 272.59 92.7213 269.729 90.0658 267.531C87.2754 265.222 86.0796 262.214 87.293 259.184C88.6178 255.883 92.0764 256.042 95.1599 256.64C101.268 257.83 107.318 259.172 110.372 265.562C111.298 267.49 113.092 268.44 114.856 269.12C118.62 270.585 122.412 271.547 124.851 275.457C126.076 277.415 129.711 277.678 131.065 275.791C135.233 269.982 141.212 269.431 147.402 268.932C148.633 268.833 149.835 268.481 151.06 268.258C153.253 267.865 153.458 266.224 151.881 265.485C147.994 263.656 146.546 258.82 142.08 257.906C139.014 257.279 138.146 255.01 138.316 252.372C138.551 248.673 136.985 246.234 133.732 244.816C130.795 243.532 129.3 241.721 129.857 238.233C130.115 236.609 129.611 234.563 128.755 233.127C126.211 228.842 129.259 225.981 132.026 225.272C136.516 224.117 139.231 221.209 142.402 218.495C144.817 216.426 144.518 214.626 141.839 213.823C138.17 212.727 135.766 210.453 133.632 207.516C132.941 206.566 131.704 205.359 130.731 205.376C123.89 205.499 120.865 200.64 117.324 196.014C114.68 192.562 114.082 187.731 117.436 184.906C120.402 182.397 123.04 179.577 125.924 177.039C129.511 173.874 134.09 174.26 138.58 175.058C145.392 176.265 147.203 178.505 146.793 185.258C146.711 186.618 146.089 187.128 144.97 187.409C142.49 188.03 140.573 189.601 140.573 192.093C140.573 194.93 142.777 197.908 145.022 198.172C154.484 199.268 160.258 207.733 169.42 209.321C168.998 209.855 168.84 210.265 168.599 210.324C165.803 210.969 161.354 210.236 161.395 214.075C161.442 218.39 165.956 216.567 168.64 217.106C169.948 217.37 172.034 216.573 172.269 218.355C172.55 220.529 170.141 220.588 168.799 220.694C163.769 221.086 159.068 222.523 154.513 224.551C153.223 225.125 151.605 225.835 152.156 227.57C152.731 229.387 154.554 229.246 155.709 228.39C162.972 223.05 171.032 225.665 179.468 225.887C171.777 228.314 163.019 226.145 157.473 234.053C160.023 233.701 160.873 234.604 161.454 237.148C162.491 241.662 167.521 242.307 170.792 244.675C172.087 245.613 175.077 245.449 174.098 247.77C173.248 249.787 170.944 248.198 169.338 247.753C167.304 247.196 165.182 246.774 163.681 245.021C163.101 244.347 162.309 243.726 161.442 244.57C160.721 245.279 160.938 246.211 161.284 247.049C162.597 250.227 165.533 251.317 168.435 252.02C172.767 253.07 176.947 254.43 180.933 256.411C181.408 256.645 182.111 256.716 182.358 257.091C187.006 264.19 194.773 262.15 201.339 263.586C205.126 264.413 208.514 263.651 210.601 260.122C212.406 257.073 216.592 256.833 218.016 253.023C218.696 251.205 219.628 250.332 217.975 248.685C213.784 244.511 214.165 239.411 215.542 234.276C215.994 232.599 216.826 230.19 218.561 230.231C223.11 230.337 224.652 228.238 226.962 224.375C229.617 219.943 229.336 215.928 229.013 211.695C228.808 209.034 227.032 206.496 227.061 203.612C227.067 202.691 226.926 201.613 225.989 201.355C216.949 198.893 216.627 191.935 216.422 184.308C216.316 180.351 220.203 179.173 220.467 176.107C220.842 171.804 223.925 171.957 226.833 171.458C227.665 171.318 229.125 170.831 229.142 170.456C229.541 162.003 235.28 168.568 238.223 167.314C239.547 166.745 242.367 172.596 241.576 174.307C240.861 175.861 239.442 177.156 239.964 179.325C246.324 178.129 243.534 171.107 246.517 168.779C251.418 164.952 246.846 160.303 249.173 156.51C249.249 161.464 252.661 165.075 253.95 170.016C256.594 167.941 259.15 166.605 258.664 163.181C261.495 163.433 259.871 167.531 262.773 166.827C264.813 166.335 264.543 163.697 265.674 162.759C270.587 158.673 269.297 152.307 271.824 147.407C272.234 146.609 272.574 145.636 271.683 144.991C270.757 144.317 270.03 145.132 269.414 145.718C265.88 149.071 264.279 148.427 264.109 143.461C264.016 140.771 262.573 140.448 260.152 141.838C258.787 142.623 256.858 144.604 255.48 143.303C253.874 141.779 253.013 138.625 254.22 136.914C256.272 134.006 253.681 129.117 258.581 127.54C259.555 127.224 258.365 125.653 258.025 124.715C256.999 121.901 255.211 119.058 259.179 116.942C259.637 116.695 259.73 115.734 259.959 115.089C260.545 113.454 259.619 109.995 262.087 110.763C263.722 111.273 266.378 113.981 265.845 117.065C265.604 118.46 265.018 119.738 265.733 121.162C266.929 123.536 268.67 124.093 269.977 121.661C271.449 118.911 272.052 115.587 276.443 117.323C276.566 117.37 277.381 115.681 278.19 114.773C277.621 117.358 279.351 119.392 279.984 121.549C280.939 124.785 284.884 123.536 287.047 122.411C289.996 120.881 292.745 118.923 295.835 117.557C297.646 116.76 298.086 114.919 298.174 113.073C298.572 104.368 302.986 96.5066 302.887 87.737C303.748 87.8542 304.235 87.8014 304.311 87.948C305.319 90.0173 304.985 93.7983 308.426 93.0949C312.19 92.3269 313.397 88.0301 313.52 85.1753C313.813 78.5512 319.857 73.0174 316.868 65.8716C316.51 65.0099 317.208 63.1985 318.005 62.4482C323.011 57.7292 323.738 50.4076 328.715 45.5421L335.919 57.0024L335.937 56.9086ZM203.666 885.195C202.488 891.521 206.374 897.57 204.686 903.948C204.522 904.569 205.366 905.537 205.999 905.249C208.789 903.96 213.725 902.295 213.063 900.085C211.486 894.821 207.91 890.149 205.061 885.283C204.932 885.061 204.053 885.283 203.537 885.295C206.21 883.015 207.992 883.665 208.918 886.966C209.399 888.672 209.774 890.401 210.284 892.095C210.548 892.98 211.146 893.695 212.195 893.607C213.215 893.525 214.065 892.675 213.813 891.878C212.822 888.736 214.399 884.404 211.58 882.493C208.004 880.066 203.062 882.915 198.971 880.945C198.965 880.945 198.449 881.801 198.302 882.3C197.188 886.133 197.845 889.539 200.336 893.185C202.277 890.161 197.452 885.483 203.672 885.195H203.666ZM250.937 427.365C254.49 431.85 256.225 437.653 261.612 440.83C269.414 445.432 275.704 451.253 275.652 461.394C275.64 463.346 277.012 464.718 279.186 464.489C281.326 464.267 281.162 462.719 281.291 460.972C281.76 454.647 280.992 448.469 279.925 442.261C279.433 439.406 278.102 438.726 275.534 439.33C274.139 439.658 272.879 441.135 271.15 439.98C272.926 435.918 276.302 433.655 279.866 431.686C282.094 430.455 283.976 428.749 283.126 426.281C281.549 421.679 284.105 418.015 285.183 414.029C285.652 412.288 286.168 409.721 288.689 410.137C290.741 410.477 290.594 412.857 290.893 414.545C291.11 415.758 291.139 417.007 291.168 418.244C291.256 422.136 291.215 426.029 291.403 429.915C291.467 431.252 291.62 433.075 293.455 433.151C295.049 433.216 295.02 431.557 295.336 430.396C298.772 417.851 296.28 406.625 287.774 396.795C285.922 394.655 283.694 394.585 283.237 397.686C282.774 400.834 281.983 403.812 280.992 406.784C278.764 413.507 280.675 422.412 271.197 425.308C271.05 425.355 270.921 425.536 270.827 425.683C267.656 430.871 262.808 429.945 258.042 429.124C255.615 428.702 253.224 428.051 250.808 427.512C249.941 425.753 248.563 425.161 246.576 424.956C242.414 424.534 240.063 422.4 241.236 417.804C241.775 415.676 241.394 413.625 240.79 411.555C239.7 407.815 240.075 404.21 242.18 400.875C243.117 399.392 244.735 397.686 242.303 396.508C240.186 395.476 237.66 397.305 237.859 398.911C238.563 404.509 235.081 408.378 233.31 412.986C232.243 415.77 233.046 418.889 235.157 421.415C236.394 422.893 237.724 424.417 238.475 426.152C240.333 430.437 243.317 430.701 247.057 429.059C248.352 428.491 249.642 427.928 250.937 427.365ZM273.09 796.257C267.404 790.735 261.413 788.425 254.443 794.229C253.745 794.809 252.397 794.744 251.348 794.75C248.979 794.768 247.889 796.345 247.063 798.162C245.023 802.664 247.027 805.144 253.587 806.287C253.141 808.262 251.711 808.626 249.976 808.585C245.374 808.473 241.23 809.646 237.765 812.858C236.722 813.825 235.303 814.916 234.107 813.386C233.052 812.031 234.594 811.234 235.479 810.414C236.276 809.669 237.085 808.837 236.194 807.729C235.579 806.961 234.559 806.779 233.832 807.477C231.78 809.44 229.6 811.58 230.198 814.699C230.737 817.524 233.082 817.876 235.626 817.641C236.622 817.548 237.707 817.87 238.692 818.181C245.31 820.279 248.751 819.283 252.995 813.808C254.419 811.973 255.627 809.939 258.283 809.821C259.338 809.775 261.155 810.296 260.369 811.228C257.819 814.282 260.715 817.935 258.804 820.912C256.846 823.961 255.762 827.249 258.957 830.004C262.55 833.105 266.659 835.31 271.595 833.023C273.958 831.933 275.874 830.415 278.964 830.972C281.537 831.435 280.933 828.504 280.095 827.572C273.237 819.998 275.54 810.543 277.146 802.728C278.29 797.165 276.748 797.001 273.313 795.893C276.543 793.59 278.94 790.33 282.416 788.261C284.855 786.813 284.832 784.462 283.343 782.276C281.385 779.403 280.236 781.948 278.858 783.061C278.325 783.495 277.639 783.753 277 784.04C270.622 786.889 269.637 789.949 273.09 796.263V796.257ZM178.688 835.468C178.383 836.459 178.143 837.473 177.768 838.434C177.199 839.87 173.224 838.047 174.737 841.283C175.722 843.387 176.431 845.943 179.432 846.6C184.157 847.632 189.474 846.787 193.232 851.325C191.971 846.131 189.046 841.623 184.655 841.177C180.13 840.72 179.972 838.006 178.659 835.433C181.296 835.509 182.897 834.055 184.116 831.886C185.347 829.7 186.959 829.031 188.513 831.499C192.745 838.211 196.954 832.402 200.87 831.253C204.047 830.321 204.657 826.47 203.308 821.927C200.032 825.831 199.328 826.206 192.464 827.073C190.94 827.267 188.694 829.272 188.003 826.552C187.346 823.967 190.166 822.126 191.842 822.431C198.349 823.615 204.85 814.892 211.228 822.46C211.275 822.519 211.785 822.19 212.09 822.032C212.213 820.531 209.628 821.047 210.091 819.377C211.972 812.495 210.261 804.944 215.068 798.502C219.189 792.974 217.653 791.204 211.07 788.964C206.363 787.364 199.328 788.097 198.765 780.212C198.724 779.661 197.388 778.706 196.743 778.776C190.394 779.474 183.635 777.322 177.756 781.42C174.69 783.56 172.445 782.774 171.097 779.357C170.516 777.879 170.258 776.25 169.52 774.866C168.646 773.213 167.175 772.873 166.518 774.937C165.135 779.28 161.448 781.602 158.622 784.703C151.963 792.013 148.416 800.284 151.629 810.308C152.262 812.284 152.69 814.716 155.24 815.121C158.059 815.566 160.205 813.896 161.225 811.562C164.349 804.387 170.956 803.285 177.375 802.195C180.628 801.644 183.542 801.398 185.57 798.308C186.736 796.532 188.618 795.36 191.027 796.644C190.816 798.543 187.041 798.385 188.395 800.618C191.051 804.985 188.982 809.306 188.771 813.597C188.466 819.746 186.285 821.868 180.083 823.087C178.025 823.492 175.569 822.988 174.045 824.688C171.308 827.736 168.007 828.105 164.344 827.343C161.612 826.774 160.451 826.722 160.562 830.567C160.639 833.275 162.28 832.291 163.036 832.977C164.994 834.77 167.392 834.688 169.995 834.266C172.902 833.791 176.021 833.358 178.694 835.474L178.688 835.468ZM411.358 695.565C415.971 692.106 416.504 689.087 413.386 683.471C412.278 681.472 410.531 679.649 410.895 677.181C411.651 672.005 412.577 666.899 404.376 670.317C404.235 670.376 403.989 670.323 403.866 670.229C398.666 666.167 397.676 672.328 395.595 674.239C394.012 675.693 397.347 677.773 398.362 679.638C398.942 680.704 399.927 681.549 400.718 682.504C402.219 684.321 402.055 685.769 399.657 686.484C397.629 687.088 395.507 687.399 393.502 688.061C390.196 689.152 388.888 687.885 388.959 684.614C389.058 680.247 387.036 677.656 382.634 676.865C380.207 676.431 377.856 675.159 378.442 672.339C379.861 665.539 375.916 660.228 373.706 654.525C373.008 652.725 370.499 650.679 367.527 651.846C364.297 653.118 365.587 655.386 366.097 657.62C366.859 660.955 366.126 663.922 362.92 665.621C359.619 667.374 359.191 668.576 361.894 671.894C366.255 677.252 367.697 684.667 373.337 689.333C373.641 689.586 373.553 690.342 373.6 690.869C374.198 696.942 376.285 703.162 371.807 708.748C371.05 709.686 371.865 710.812 371.789 711.814C371.39 717.096 376.203 718.913 378.483 722.407C383.941 730.772 383.478 741.335 387.962 750.158C388.496 751.213 388.15 752.884 389.457 753.37C391.081 753.974 391.374 752.174 392.083 751.318C393.602 749.484 395.595 748.639 397.687 747.59C401.99 745.445 407.876 744.009 408.649 738.574C409.353 733.615 414.488 728.222 408.561 723.122C408.028 722.659 408.309 721.082 408.432 720.044C409.722 709.264 405.707 699.838 400.466 690.957C398.502 687.633 399.909 687.417 402.342 687.088C406.475 686.537 409.622 689.544 411.363 695.559L411.358 695.565ZM226.082 624.329C223.966 624.329 221.844 624.441 219.74 624.3C217.448 624.148 215.173 623.515 212.893 623.515C207.125 623.515 205.278 626.932 208.209 631.915C212.084 638.504 222.161 642.508 229.348 640.198C230.743 639.752 232.044 639.43 233.48 639.782C235.075 640.174 236.529 640.368 237.719 638.685C239.067 636.774 237.971 635.268 237.173 633.767C236.206 631.944 234.365 630.414 236.499 628.169C238.428 626.141 239.8 627.536 241.582 628.45C243.733 629.552 246.06 628.697 245.327 626.123C244.19 622.143 244.982 619.347 247.948 616.638C249.278 615.425 248.733 613.655 247.408 612.4C246.177 611.239 245.597 609.141 243.487 609.264C242.531 609.317 242.349 610.466 242.08 611.316C240.808 615.36 237.947 616.146 234.371 613.444C230.309 610.378 229.248 604.064 232.05 598.003C229.476 598.701 227.917 597.956 227.061 595.476C226.493 593.823 224.904 593.272 224.101 595.365C222.108 600.541 218.204 603.484 213.303 605.518C211.967 606.075 210.865 607.265 211.105 608.859C211.527 611.65 209.106 610.759 207.957 611.468C205.917 612.728 206.187 610.636 205.688 609.786C202.716 604.686 201.005 604.141 195.858 606.872C194.832 607.417 193.232 606.503 192.669 608.133C195.823 613.356 198.519 619.218 206.445 617.137C206.679 617.072 207.113 617.834 207.482 618.186C209.335 619.956 211.632 621.422 214.036 620.355C217.043 619.018 213.772 616.463 214.171 614.34C220.584 614.856 219.874 623.855 226.088 624.329H226.082ZM236.089 889.498C238.95 887.745 240.685 883.9 243.786 887.241C246.705 890.383 249.314 885.342 252.063 887.265C253.235 888.085 254.589 889.018 255.533 887.007C256.366 885.231 255.656 883.947 253.962 883.109C250.468 881.385 250.298 878.906 252.303 875.892C252.661 875.353 253.112 874.609 253.001 874.063C251.746 867.744 253.663 863.389 260.24 861.571C261.178 861.314 262.691 860.763 261.477 858.893C256.6 851.372 255.592 851.196 248.581 857.316C247.766 858.031 246.852 859.162 245.914 858.769C243.581 857.796 243.434 862.621 240.866 860.469C239.577 859.391 238.404 857.275 236.482 858.383C234.442 859.561 234.67 862.023 234.576 864.163C234.389 868.512 234.999 872.926 233.656 877.903C232.009 874.667 230.532 872.158 227.642 870.898C226.258 870.294 225.713 869.397 227.12 868.078C228.503 866.783 228.603 865.141 227.214 863.887C226.053 862.838 224.435 863.271 223.192 863.916C221.627 864.737 221.311 866.038 221.768 867.926C222.665 871.631 222.465 875.693 220.988 878.976C219.165 883.021 220.115 885.436 223.55 888.214C224.212 883.642 226.698 882.423 230.725 883.202C234.049 883.847 236.37 885.061 236.095 889.498H236.089ZM353.429 781.479C350.914 783.818 347.309 782.323 344.478 783.829C343.446 784.374 342.127 785.353 341.934 786.332C341.025 790.975 340.163 795.671 340.996 800.448C341.107 801.099 341.113 801.978 342.139 801.826C348.03 800.952 348.693 806.164 350.645 809.476C353.429 814.212 356.46 818.726 360.135 822.771C361.642 824.424 363.963 825.291 364.538 827.824C364.983 829.793 366.29 830.942 368.395 830.567C370.107 830.257 372 829.981 372.656 827.947C373.231 826.153 372.346 824.899 371.49 823.24C369.368 819.101 363.623 815.478 368.471 809.605C368.981 808.989 368.571 806.615 367.873 806.175C364.895 804.294 363.553 801.11 361.284 798.736C358.054 795.36 352.69 793.332 356.342 786.895C357.474 784.908 356.512 782.381 353.429 781.473V781.479ZM285.84 865.558C285.57 865.493 285.295 865.429 285.025 865.37C285.324 864.397 285.646 863.43 285.91 862.445C286.215 861.29 287.13 859.842 285.723 859.068C283.735 857.978 283.46 860.041 282.868 861.167C281.959 862.896 280.57 863.887 278.694 864.075C274.327 864.508 273.741 867.369 274.11 870.933C274.245 872.229 275.394 874.028 273.342 874.568C266.308 876.408 268.477 882.604 267.234 887.159C266.958 888.162 267.298 889.428 268.553 889.739C269.813 890.049 270.452 889.017 270.956 888.062C271.284 887.441 271.449 886.737 271.701 886.075C272.24 884.662 272.111 882.341 274.157 882.511C276.443 882.704 276.238 885.119 276.349 886.772C276.566 889.897 277.926 891.38 281.115 892.072C287.78 893.514 292.669 890.676 294.416 883.853C295.723 878.747 296.122 873.442 297.077 868.377C298.179 862.509 294.064 861.87 291.503 860.329C288.026 858.236 288.278 862.767 286.825 864.332C286.467 864.714 286.168 865.153 285.846 865.563L285.84 865.558ZM244.642 439.781C245.069 441.082 245.497 442.225 245.82 443.404C246.916 447.378 244.454 449.448 241.406 450.79C238.604 452.021 231.821 449.694 231.241 447.437C229.705 441.428 227.266 435.988 223.034 431.328C221.914 430.091 221.463 428.567 219.4 429.704C217.559 430.718 216.674 432.131 217.723 434.036C218.649 435.713 220.015 437.143 221.106 438.738C222.993 441.504 225.438 444.312 224.347 447.882C223.345 451.153 223.11 453.645 225.484 456.652C228.128 460.005 231.599 457.613 233.656 458.563C240.005 461.488 242.314 457.947 246.429 454.348C251.078 450.28 251.23 445.643 251.793 440.678C252.039 438.55 250.779 437.882 248.704 438.697C247.455 439.189 246.089 439.4 244.636 439.775L244.642 439.781ZM318.333 832.666C317.594 834.641 317.46 836.007 316.721 836.804C314.646 839.044 312.553 840.767 317.964 840.826C320.279 840.849 320.402 843.37 320.115 845.005C319.359 849.32 318.943 853.974 314.751 856.671C310.437 859.444 308.971 863.049 310.542 867.439C318.878 866.765 319.511 855.27 328.404 855.153C328.703 855.153 329.061 853.98 329.272 853.318C330.925 848.112 332.695 842.942 334.114 837.678C334.794 835.151 333.903 832.484 331.751 831.048C329.119 829.295 327.888 832.168 326.839 833.674C323.955 837.819 321.417 837.443 318.339 832.666H318.333ZM360.03 357.695C357.949 361.881 358.048 364.114 359.895 366.207C367.756 375.099 367.105 378.998 356.987 384.901C353.992 386.648 350.785 388.195 348.745 391.267C347.309 393.43 347.872 395.329 349.361 397.053C350.832 398.753 353.212 399.257 354.596 397.815C360.129 392.035 370.024 389.737 369.743 379.174C369.72 378.3 370.634 376.706 371.285 376.612C376.619 375.844 374.474 371.336 375.482 368.475C376.42 365.808 374.949 364.688 372.481 365.21C366.824 366.406 361.677 366.799 360.03 357.695ZM191.022 278.306C197.405 279.49 202.148 276.137 206.574 272.385C207.547 271.564 208.074 271.453 209.17 271.541C213.549 271.887 218.18 273.645 221.662 268.956C222.542 267.777 224.265 268.551 225.567 269.296C226.68 269.935 227.419 272.051 229.013 270.855C230.256 269.929 229.383 268.188 229.389 266.816C229.394 265.409 229.207 263.996 229.013 262.595C227.917 254.74 225.584 253.826 219.077 258.738C218.098 259.477 217.313 260.462 216.41 261.306C213.825 263.715 211.351 266.564 208.01 267.619C201.415 269.706 196.602 274.448 191.016 278.311L191.022 278.306ZM349.853 607.734C349.918 609.029 350.187 610.266 351.624 610.665C353.136 611.087 354.455 610.46 355.434 609.364C359.596 604.692 364.338 601.239 370.974 601.262C371.683 601.262 372.586 600.483 373.067 599.82C374.415 597.962 375.963 597.399 378.085 598.431C379.462 599.099 380.822 599.269 381.731 597.634C383.794 593.905 378.718 592.85 378.776 589.802C378.8 588.694 377.821 588.184 376.994 589.093C373.383 593.05 364.567 588.624 363.858 597.259C363.828 597.587 363.072 597.933 362.597 598.132C358.775 599.756 356.63 604.135 351.923 604.44C350.369 604.539 349.9 606.216 349.859 607.734H349.853ZM238.023 262.185C238.738 263.357 239.928 263.34 241.195 263.281C242.373 263.223 243.95 262.613 244.548 263.979C245.292 265.685 243.539 266.435 242.496 267.221C240.544 268.686 238.1 269.495 236.634 271.623C235.942 272.631 234.987 273.686 235.86 274.953C236.616 276.049 237.724 275.474 238.739 275.164C242.103 274.138 245.468 273.094 248.862 272.18C251.77 271.394 252.69 269.296 252.76 266.628C252.837 263.639 252.362 258.568 250.75 258.615C247.614 258.709 242.754 252.478 240.831 260.157C240.515 261.417 238.252 260.28 238.035 262.191L238.023 262.185ZM225.338 763.652C229.863 769.227 233.973 774.362 241.775 770.335C242.631 769.895 243.862 770.159 244.923 770.147C247.238 770.124 249.355 769.626 249.372 766.812C249.396 763.699 246.939 763.406 244.571 763.084C240.732 762.556 236.458 764.637 233.058 761.167C232.835 760.938 231.581 761.325 231.165 761.759C229.658 763.33 227.612 763.424 225.338 763.646V763.652ZM322.565 126.145C319.816 123.724 320.004 120.957 320.52 117.786C321.34 112.762 325.221 108.055 322.261 102.556C322.026 102.122 322.413 100.809 322.812 100.651C327.402 98.8162 327.267 93.7573 329.582 90.4101C332.074 86.8108 334.12 82.3439 334.442 77.1853C331.769 78.5629 331.704 80.8784 330.866 82.7601C329.436 85.9549 328.422 89.3666 324.881 91.1838C319.271 94.0679 318.122 99.7893 318.949 104.86C319.699 109.473 319.377 113.448 318.198 117.762C317.184 121.496 317.483 125.137 322.565 126.145ZM325.749 787.774C325.209 786.866 324.242 787.042 323.415 786.831C320.473 786.08 317.911 787.985 315.115 788.009C312.283 788.038 307.682 789.386 311.088 783.536C311.539 782.757 311.398 781.379 311.052 780.453C310.589 779.192 309.915 777.516 308.209 777.809C306.533 778.096 307.148 779.767 307.125 780.91C307.078 783.378 306.996 785.863 307.16 788.326C307.441 792.558 312.483 797.406 315.513 796.016C319.523 794.176 324.688 793.408 325.743 787.769L325.749 787.774ZM302.951 232.347C299.797 231.972 300.776 225.207 296.239 227.623C292.974 229.364 289.926 228.601 286.578 227.64C280.957 226.028 275.048 224.375 270.364 230.899C272.639 230.688 274.538 230.272 276.414 230.372C282.375 230.688 288.958 228.912 293.302 235.097C294.135 236.281 295.295 236.468 296.556 235.794C298.695 234.657 300.817 233.496 302.951 232.341V232.347ZM338.616 807.178C336.482 810.853 337.262 815.889 333.012 818.275C332.777 818.409 332.713 819.435 332.959 819.746C334.841 822.167 335.192 824.781 334.571 827.742C334.284 829.125 335.386 829.928 336.699 830.374C340.697 831.722 342.872 829.887 342.25 825.643C341.734 822.143 338.493 818.703 339.923 815.514C341.471 812.067 340.281 809.986 338.622 807.178H338.616ZM185.728 813.016C185.963 811.598 185.476 810.853 184.667 810.402C182.803 809.376 180.57 809.218 179.163 810.625C176.325 813.462 172.843 814.347 169.174 815.08C167.573 815.396 166.219 816.258 165.1 817.454C164.009 818.615 162.532 819.834 163.787 821.546C165.006 823.21 166.759 822.542 168.048 821.557C171.806 818.667 175.956 817.079 180.704 816.651C183.014 816.44 185.042 815.138 185.728 813.016ZM317.677 940.492C317.178 936.899 316.809 933.551 316.229 930.239C315.859 928.123 314.277 927.396 312.254 927.648C310.349 927.889 309.505 928.973 309.687 930.943C309.845 932.684 310.191 934.718 308.661 935.896C304.012 939.49 308.543 939.742 310.408 940.369C311.609 940.773 312.706 940.92 313.468 942.045C314.177 943.095 315.044 944.167 316.492 943.493C317.858 942.854 317.688 941.465 317.671 940.486L317.677 940.492ZM98.6536 835.204C96.813 841.676 98.5774 848.03 92.9851 851.553C92.5923 851.799 92.9089 853.212 92.944 854.08C93.1609 859.59 98.1788 859.496 101.514 861.319C102.605 861.917 104.146 862.146 104.568 860.469C105.073 858.459 103.748 858.007 102.054 858.3C99.0816 858.816 97.5985 856.63 95.9454 854.865C95.5643 854.455 95.4588 853.505 95.6347 852.919C95.8809 852.093 96.6547 852.104 97.3464 852.55C101.708 855.387 100.84 851.02 100.746 849.619C100.465 845.322 99.5622 841.06 98.6595 835.21L98.6536 835.204ZM142.238 842.25C145.274 841.617 148.668 841.283 151.23 838.827C152.145 837.947 152.655 836.787 152.156 835.474C151.799 834.536 150.925 834.09 150.04 834.249C146.775 834.835 143.469 835.351 140.309 836.312C138.621 836.828 137.267 838.387 137.994 840.445C138.627 842.233 140.374 842.28 142.232 842.244L142.238 842.25ZM148.516 937.403C150.638 939.12 153.083 938.985 154.994 938.159C157.098 937.25 155.463 935.04 155.169 933.405C154.894 931.834 154.642 930.251 154.226 928.721C152.754 923.363 154.882 919.324 160.234 917.53C161.407 917.138 162.667 916.997 163.822 916.575C164.859 916.194 165.674 915.449 165.539 914.183C165.434 913.216 164.713 912.718 163.916 912.249C161.366 910.754 156.858 912.993 156.049 908.151C156.049 908.134 155.674 908.11 155.556 908.198C154.519 908.978 153.153 910.168 153.651 907.5C153.974 905.777 152.918 902.254 155.175 902.6C161.905 903.626 159.361 899.505 159.191 896.527C159.074 894.563 159.15 892.623 160.287 890.893C160.779 890.143 161.242 889.463 160.404 888.554C159.273 887.323 151.5 886.983 150.152 888.578C148.44 890.6 148.299 892.863 150.169 895.296C153.593 899.739 153.487 903.614 149.389 907.5C146.277 910.449 142.73 909.88 138.68 908.028C133.679 905.748 130.285 901.879 126.563 898.004C124.13 903.004 126 906.117 129.828 908.69C135.76 912.671 136.282 915.449 131.311 921.03C127.495 925.309 126.281 928.862 131.27 933.065C133.456 934.905 132.958 937.86 131.745 939.994C130.326 942.485 127.835 941.524 125.543 940.844C121.703 939.706 119.112 937.362 117.465 933.733C116.685 932.021 115.782 929.876 113.297 930.398C108.519 931.4 106.567 937.373 109.815 940.92C111.931 943.224 113.549 945.428 110.237 947.99C108.701 949.174 108.842 950.616 109.317 952.28C110.583 956.706 114.036 959.913 115.806 964.063C116.081 964.708 117.242 965.318 118.01 965.341C123.989 965.523 126.944 970.64 126.868 974.474C126.739 980.94 127.999 984.311 134.723 984.621C135.309 984.651 135.836 985.46 136.44 985.817C137.583 986.491 138.973 988.027 139.934 985.958C140.684 984.34 141.845 982.206 139.383 980.817C137.232 979.603 135.022 978.478 132.777 977.434C131.458 976.825 129.717 976.291 129.963 974.703C130.279 972.645 132.225 973.741 133.456 973.73C135.221 973.712 136.985 973.993 138.756 974.128C139.864 974.216 141.024 974.128 141.388 972.885C141.804 971.467 140.485 971.133 139.594 970.676C137.067 969.392 134.43 968.325 131.985 966.9C130.338 965.939 129.535 963.952 130.103 962.293C130.801 960.265 132.489 962.047 133.75 962.07C135.227 962.099 136.898 962.703 137.994 960.997C127.77 954.836 126.41 949.713 133.585 944.648C133.263 949.473 136.393 952.638 142.959 953.863C141.716 951.343 140.391 949.062 139.471 946.624C138.984 945.34 139.102 943.575 140.778 943.018C142.42 942.467 142.789 943.974 143.234 945.146C143.486 945.815 143.803 946.448 144.694 946.436C148.586 940.721 138.879 936.652 142.765 930.855C144.547 934.108 145.626 935.046 148.522 937.403H148.516ZM149.266 346.006C146.271 345.484 144.958 342.829 148.352 340.267C149.29 339.558 150.837 338.737 149.923 337.354C148.844 335.724 147.015 336.492 145.573 337.002C144.823 337.266 144.284 338.151 143.68 338.778C140.755 341.838 137.173 340.73 133.685 340.431C130.027 340.121 132.143 337.53 131.598 335.9C130.93 333.913 128.99 332.553 126.633 332.559C122.348 332.576 117.26 337.506 117.541 341.909C117.746 345.15 116.843 346.885 113.731 347.777C111.187 348.503 109.44 350.209 109.334 353.082C109.164 357.689 114.094 360.169 114.188 364.982C114.217 366.494 118.25 366.201 120.478 366.535C129.67 367.907 134.846 376.489 130.989 384.766C129.089 388.846 131.129 390.722 134.154 391.46C140.503 393.002 147.666 392.768 150.105 401.391C148.346 397.129 150.527 392.627 147.695 388.992C145.327 385.944 144.788 382.615 146.746 379.08C147.584 377.573 147.859 375.973 146.324 374.754C142.777 371.946 144.272 369.314 146.388 366.558C147.566 365.028 149.249 363.428 149.46 361.705C150.122 356.394 152.684 353.767 158.429 354.535C155.943 350.538 154.29 346.88 149.261 346.006H149.266ZM313.386 445.016C313.597 449.688 312.067 454.102 311.551 458.663C311.457 459.495 311.404 460.656 310.349 460.773C308.901 460.931 309.61 458.985 308.719 458.639C306.99 463.282 307.723 467.866 310.144 471.905C312.289 475.492 305.067 481.396 313.139 483.289C313.403 483.353 313.544 484.608 313.479 485.276C313.034 489.62 311.709 493.641 309.276 497.633C307.002 495.001 307.494 492.639 308.127 490.194C308.497 488.77 309.733 486.748 307.658 486.05C305.794 485.429 303.713 486.472 302.687 488.283C301.269 490.792 301.568 493.419 303.186 495.804C303.977 496.965 305.132 497.903 305.806 499.116C307.043 501.356 306.931 504.222 304.956 505.359C302.805 506.596 302.617 503.507 301.697 502.229C300.724 500.875 299.756 499.55 297.886 499.99C295.958 500.441 295.506 502.124 295.706 503.753C296.468 510.043 296.732 516.31 295.207 522.74C297.892 518.813 300.524 516.04 305.29 514.229C308.684 512.933 307.008 505.699 310.302 502.135C310.777 501.62 311.035 500.899 311.527 500.412C315.9 496.08 316.873 490.716 316.68 484.813C316.504 479.356 315.812 473.863 317.231 468.435C319.769 458.727 319.822 449.248 314.177 439.963C312.946 441.645 313.333 443.427 313.403 445.01L313.386 445.016ZM358.758 439.371C356.536 438.028 353.312 438.984 352.368 440.285C350.064 443.451 346.711 445.403 344.372 448.351C341.758 451.652 343.399 460.14 346.828 462.678C350.609 465.474 357.187 463.598 359.719 459.63C362.515 455.251 359.66 450.954 360.381 446.675C360.147 444.16 361.683 441.135 358.764 439.371H358.758ZM207.646 189.871C207.599 193.212 207.781 196.554 207.851 199.895C207.881 201.155 207.898 202.633 206.363 202.879C204.745 203.137 204.539 201.478 204.053 200.423C203.414 199.033 204.264 197.662 204.299 196.313C204.41 191.507 205.958 186.5 202.968 181.535C202.212 184.167 202.148 186.758 200.87 188.411C196.766 193.711 201.79 200.311 198.068 205.523C198.015 205.599 198.402 206.144 198.683 206.279C201.89 207.826 202.376 211.109 203.185 214.034C205.448 213.612 205.612 209.421 207.887 211.332C211.052 213.993 208.391 217.399 207.306 220.664C216.985 216.866 215.308 200.411 211.011 184.367C209.475 186.653 207.676 187.761 207.646 189.877V189.871ZM36.5044 715.015C34.7751 711.679 31.3517 709.628 28.2507 707.793C24.5693 705.612 21.2866 708.854 19.4928 714.792C18.4025 718.403 19.8035 720.127 22.2538 722.337C24.6631 724.511 26.5155 724.136 28.79 722.653C30.3669 721.627 32.2427 720.883 33.38 722.935C34.4234 724.816 35.8889 727.014 33.591 729.154C32.8231 729.869 31.8089 730.479 31.3751 731.364C30.3141 733.533 32.0551 734.999 33.2451 736.37C34.0717 737.332 35.7424 736.745 35.8068 735.755C36.0648 731.78 38.5561 728.679 39.9982 724.887C38.8727 721.592 38.1047 718.092 36.5103 715.015H36.5044ZM302.336 420.348C301.773 426.961 297.06 432.325 296.86 439.054C296.814 440.572 296.638 443.709 294.357 442.741C288.865 440.402 289.973 444.641 289.773 446.997C289.234 453.311 290.858 459.735 288.73 466.008C288.343 467.145 289.093 469.361 290.289 468.499C292.986 466.565 295.413 468.177 297.922 467.989C300.225 467.819 302.934 466.805 302.928 464.155C302.928 461.336 300.184 462.948 298.678 462.684C294.058 461.881 291.52 459.137 293.701 455.585C296.474 451.065 297.335 446.171 298.977 441.411C299.522 439.828 300.894 438.556 302.388 438.251C307.512 437.196 306.334 434.177 304.581 431.293C303.649 429.757 302.875 428.467 304.17 427.043C306.814 424.129 305.349 421.193 304.569 417.675C303.596 418.795 302.4 419.522 302.336 420.343V420.348ZM332.425 490.728C331.634 498.378 328.99 505.219 327.325 512.453C326.018 518.127 325.174 524.13 328.422 529.822C329.401 523.971 329.694 518.027 331.951 512.488C334.032 507.382 334.993 502.012 335.315 496.531C335.439 494.468 334.354 491.314 335.339 490.499C340.503 486.238 336.974 480.973 337.25 476.02C334.155 480.422 332.9 486.197 332.425 490.728ZM434.044 516.169C430.515 516.28 426.669 520.12 427.32 523.491C427.871 526.375 427.783 530.232 431.933 530.801C434.436 531.141 437.52 525.683 437.403 521.615C437.309 518.473 435.855 516.11 434.044 516.169ZM390.583 251.868C390.583 251.821 390.588 251.768 390.583 251.721C390.577 251.721 390.583 251.868 390.583 251.868Z" fill="white"/>
</mask>
<g mask="url(#mask0_53_100526)">
<path d="M7.44031 -10.0117H5.54688V1030.74H7.44031V-10.0117Z" fill="#4FF97F"/>
<path d="M15.6591 -10.0117H13.7656V1030.74H15.6591V-10.0117Z" fill="#4FF97F"/>
<path d="M23.8817 -10.0117H21.9883V1030.74H23.8817V-10.0117Z" fill="#4FF97F"/>
<path d="M32.1024 -10.0117H30.209V1030.74H32.1024V-10.0117Z" fill="#4FF97F"/>
<path d="M40.327 -10.0117H38.4336V1030.74H40.327V-10.0117Z" fill="#4FF97F"/>
<path d="M48.5458 -10.0117H46.6523V1030.74H48.5458V-10.0117Z" fill="#4FF97F"/>
<path d="M56.7704 -10.0117H54.877V1030.74H56.7704V-10.0117Z" fill="#4FF97F"/>
<path d="M64.9891 -10.0117H63.0957V1030.74H64.9891V-10.0117Z" fill="#4FF97F"/>
<path d="M73.2118 -10.0117H71.3184V1030.74H73.2118V-10.0117Z" fill="#4FF97F"/>
<path d="M81.4325 -10.0117H79.5391V1030.74H81.4325V-10.0117Z" fill="#4FF97F"/>
<path d="M89.6551 -10.0117H87.7617V1030.74H89.6551V-10.0117Z" fill="#4FF97F"/>
<path d="M97.8778 -10.0117H95.9844V1030.74H97.8778V-10.0117Z" fill="#4FF97F"/>
<path d="M106.099 -10.0117H104.205V1030.74H106.099V-10.0117Z" fill="#4FF97F"/>
<path d="M114.325 -10.0117H112.432V1030.74H114.325V-10.0117Z" fill="#4FF97F"/>
<path d="M122.542 -10.0117H120.648V1030.74H122.542V-10.0117Z" fill="#4FF97F"/>
<path d="M130.766 -10.0117H128.873V1030.74H130.766V-10.0117Z" fill="#4FF97F"/>
<path d="M138.985 -10.0117H137.092V1030.74H138.985V-10.0117Z" fill="#4FF97F"/>
<path d="M147.208 -10.0117H145.314V1030.74H147.208V-10.0117Z" fill="#4FF97F"/>
<path d="M155.429 -10.0117H153.535V1030.74H155.429V-10.0117Z" fill="#4FF97F"/>
<path d="M163.651 -10.0117H161.758V1030.74H163.651V-10.0117Z" fill="#4FF97F"/>
<path d="M171.87 -10.0117H169.977V1030.74H171.87V-10.0117Z" fill="#4FF97F"/>
<path d="M180.095 -10.0117H178.201V1030.74H180.095V-10.0117Z" fill="#4FF97F"/>
<path d="M188.313 -10.0117H186.42V1030.74H188.313V-10.0117Z" fill="#4FF97F"/>
<path d="M196.538 -10.0117H194.645V1030.74H196.538V-10.0117Z" fill="#4FF97F"/>
<path d="M204.759 -10.0117H202.865V1030.74H204.759V-10.0117Z" fill="#4FF97F"/>
<path d="M212.981 -10.0117H211.088V1030.74H212.981V-10.0117Z" fill="#4FF97F"/>
<path d="M221.2 -10.0117H219.307V1030.74H221.2V-10.0117Z" fill="#4FF97F"/>
<path d="M229.423 -10.0117H227.529V1030.74H229.423V-10.0117Z" fill="#4FF97F"/>
<path d="M237.643 -10.0117H235.75V1030.74H237.643V-10.0117Z" fill="#4FF97F"/>
<path d="M245.866 -10.0117H243.973V1030.74H245.866V-10.0117Z" fill="#4FF97F"/>
<path d="M254.085 -10.0117H252.191V1030.74H254.085V-10.0117Z" fill="#4FF97F"/>
<path d="M262.309 -10.0117H260.416V1030.74H262.309V-10.0117Z" fill="#4FF97F"/>
<path d="M270.528 -10.0117H268.635V1030.74H270.528V-10.0117Z" fill="#4FF97F"/>
<path d="M278.751 -10.0117H276.857V1030.74H278.751V-10.0117Z" fill="#4FF97F"/>
<path d="M286.974 -10.0117H285.08V1030.74H286.974V-10.0117Z" fill="#4FF97F"/>
<path d="M295.196 -10.0117H293.303V1030.74H295.196V-10.0117Z" fill="#4FF97F"/>
<path d="M303.413 -10.0117H301.52V1030.74H303.413V-10.0117Z" fill="#4FF97F"/>
<path d="M311.64 -10.0117H309.746V1030.74H311.64V-10.0117Z" fill="#4FF97F"/>
<path d="M319.858 -10.0117H317.965V1030.74H319.858V-10.0117Z" fill="#4FF97F"/>
<path d="M328.081 -10.0117H326.188V1030.74H328.081V-10.0117Z" fill="#4FF97F"/>
<path d="M336.302 -10.0117H334.408V1030.74H336.302V-10.0117Z" fill="#4FF97F"/>
<path d="M344.524 -10.0117H342.631V1030.74H344.524V-10.0117Z" fill="#4FF97F"/>
<path d="M352.741 -10.0117H350.848V1030.74H352.741V-10.0117Z" fill="#4FF97F"/>
<path d="M360.97 -10.0117H359.076V1030.74H360.97V-10.0117Z" fill="#4FF97F"/>
<path d="M369.188 -10.0117H367.295V1030.74H369.188V-10.0117Z" fill="#4FF97F"/>
<path d="M377.411 -10.0117H375.518V1030.74H377.411V-10.0117Z" fill="#4FF97F"/>
<path d="M385.63 -10.0117H383.736V1030.74H385.63V-10.0117Z" fill="#4FF97F"/>
<path d="M393.854 -10.0117H391.961V1030.74H393.854V-10.0117Z" fill="#4FF97F"/>
<path d="M402.071 -10.0117H400.178V1030.74H402.071V-10.0117Z" fill="#4FF97F"/>
<path d="M410.298 -10.0117H408.404V1030.74H410.298V-10.0117Z" fill="#4FF97F"/>
<path d="M418.517 -10.0117H416.623V1030.74H418.517V-10.0117Z" fill="#4FF97F"/>
<path d="M426.739 -10.0117H424.846V1030.74H426.739V-10.0117Z" fill="#4FF97F"/>
<path d="M434.958 -10.0117H433.064V1030.74H434.958V-10.0117Z" fill="#4FF97F"/>
<path d="M443.182 -10.0117H441.289V1030.74H443.182V-10.0117Z" fill="#4FF97F"/>
<path d="M-52.1307 19.8677L-54.0215 19.9678L0.898394 1057.51L2.78918 1057.41L-52.1307 19.8677Z" fill="#4FF97F"/>
<path d="M-43.9315 18.9009L-45.8223 19.001L9.09761 1056.54L10.9884 1056.44L-43.9315 18.9009Z" fill="#4FF97F"/>
<path d="M-35.7323 17.9419L-37.623 18.042L17.2968 1055.58L19.1876 1055.48L-35.7323 17.9419Z" fill="#4FF97F"/>
<path d="M-27.5409 16.9829L-29.4316 17.083L25.4882 1054.62L27.379 1054.52L-27.5409 16.9829Z" fill="#4FF97F"/>
<path d="M-19.3416 16.0239L-21.2324 16.124L33.6875 1053.66L35.5782 1053.56L-19.3416 16.0239Z" fill="#4FF97F"/>
<path d="M-11.1522 15.064L-13.043 15.1641L41.8769 1052.7L43.7677 1052.6L-11.1522 15.064Z" fill="#4FF97F"/>
<path d="M-2.95296 14.0991L-4.84375 14.1992L50.0761 1051.74L51.9669 1051.64L-2.95296 14.0991Z" fill="#4FF97F"/>
<path d="M5.25017 13.1392L3.35938 13.2393L58.2793 1050.78L60.17 1050.68L5.25017 13.1392Z" fill="#4FF97F"/>
<path d="M13.4416 12.1802L11.5508 12.2803L66.4707 1049.82L68.3614 1049.72L13.4416 12.1802Z" fill="#4FF97F"/>
<path d="M21.6369 11.2202L19.7461 11.3203L74.666 1048.86L76.5568 1048.76L21.6369 11.2202Z" fill="#4FF97F"/>
<path d="M29.8361 10.2612L27.9453 10.3613L82.8652 1047.9L84.756 1047.8L29.8361 10.2612Z" fill="#4FF97F"/>
<path d="M38.0256 9.29445L36.1348 9.39453L91.0546 1046.93L92.9454 1046.83L38.0256 9.29445Z" fill="#4FF97F"/>
<path d="M46.2306 8.33644L44.3398 8.43652L99.2597 1045.98L101.151 1045.88L46.2306 8.33644Z" fill="#4FF97F"/>
<path d="M54.422 7.37648L52.5312 7.47656L107.451 1045.02L109.342 1044.92L54.422 7.37648Z" fill="#4FF97F"/>
<path d="M62.6193 6.41749L60.7285 6.51758L115.648 1044.06L117.539 1043.96L62.6193 6.41749Z" fill="#4FF97F"/>
<path d="M70.8088 5.45753L68.918 5.55762L123.838 1043.1L125.729 1043L70.8088 5.45753Z" fill="#4FF97F"/>
<path d="M79.0099 4.49269L77.1191 4.59277L132.039 1042.13L133.93 1042.03L79.0099 4.49269Z" fill="#4FF97F"/>
<path d="M87.2111 3.53761L85.3203 3.6377L140.24 1041.18L142.131 1041.08L87.2111 3.53761Z" fill="#4FF97F"/>
<path d="M95.4044 2.57374L93.5137 2.67383L148.434 1040.21L150.324 1040.11L95.4044 2.57374Z" fill="#4FF97F"/>
<path d="M103.6 1.61378L101.709 1.71387L156.629 1039.25L158.52 1039.15L103.6 1.61378Z" fill="#4FF97F"/>
<path d="M111.791 0.653821L109.9 0.753906L164.82 1038.29L166.711 1038.19L111.791 0.653821Z" fill="#4FF97F"/>
<path d="M119.99 -0.311022L118.1 -0.210938L173.019 1037.33L174.91 1037.23L119.99 -0.311022Z" fill="#4FF97F"/>
<path d="M128.188 -1.26512L126.297 -1.16504L181.217 1036.37L183.108 1036.27L128.188 -1.26512Z" fill="#4FF97F"/>
<path d="M136.383 -2.23094L134.492 -2.13086L189.412 1035.41L191.303 1035.31L136.383 -2.23094Z" fill="#4FF97F"/>
<path d="M144.582 -3.18993L142.691 -3.08984L197.611 1034.45L199.502 1034.35L144.582 -3.18993Z" fill="#4FF97F"/>
<path d="M152.772 -4.14891L150.881 -4.04883L205.801 1033.49L207.692 1033.39L152.772 -4.14891Z" fill="#4FF97F"/>
<path d="M160.971 -5.10887L159.08 -5.00879L214 1032.53L215.891 1032.43L160.971 -5.10887Z" fill="#4FF97F"/>
<path d="M169.168 -6.06786L167.277 -5.96777L222.197 1031.57L224.088 1031.47L169.168 -6.06786Z" fill="#4FF97F"/>
<path d="M177.365 -7.03368L175.475 -6.93359L230.394 1030.61L232.285 1030.51L177.365 -7.03368Z" fill="#4FF97F"/>
<path d="M185.563 -7.99266L183.672 -7.89258L238.592 1029.65L240.483 1029.55L185.563 -7.99266Z" fill="#4FF97F"/>
<path d="M193.754 -8.95262L191.863 -8.85254L246.783 1028.69L248.674 1028.59L193.754 -8.95262Z" fill="#4FF97F"/>
<path d="M201.951 -9.91161L200.061 -9.81152L254.98 1027.73L256.871 1027.63L201.951 -9.91161Z" fill="#4FF97F"/>
<path d="M210.151 -10.8716L208.26 -10.7715L263.18 1026.77L265.07 1026.67L210.151 -10.8716Z" fill="#4FF97F"/>
<path d="M218.344 -11.8374L216.453 -11.7373L271.373 1025.8L273.264 1025.7L218.344 -11.8374Z" fill="#4FF97F"/>
<path d="M226.543 -12.7974L224.652 -12.6973L279.572 1024.84L281.463 1024.74L226.543 -12.7974Z" fill="#4FF97F"/>
<path d="M234.736 -13.7563L232.846 -13.6562L287.766 1023.88L289.656 1023.78L234.736 -13.7563Z" fill="#4FF97F"/>
<path d="M242.934 -14.7163L241.043 -14.6162L295.963 1022.92L297.854 1022.82L242.934 -14.7163Z" fill="#4FF97F"/>
<path d="M251.129 -15.6743L249.238 -15.5742L304.158 1021.96L306.049 1021.86L251.129 -15.6743Z" fill="#4FF97F"/>
<path d="M259.322 -16.6401L257.432 -16.54L312.352 1021L314.242 1020.9L259.322 -16.6401Z" fill="#4FF97F"/>
<path d="M267.526 -17.5991L265.635 -17.499L320.555 1020.04L322.445 1019.94L267.526 -17.5991Z" fill="#4FF97F"/>
<path d="M275.719 -18.5532L273.828 -18.4531L328.748 1019.09L330.639 1018.99L275.719 -18.5532Z" fill="#4FF97F"/>
<path d="M283.912 -19.519L282.021 -19.4189L336.941 1018.12L338.832 1018.02L283.912 -19.519Z" fill="#4FF97F"/>
<path d="M292.111 -20.478L290.221 -20.3779L345.141 1017.16L347.031 1017.06L292.111 -20.478Z" fill="#4FF97F"/>
<path d="M300.301 -21.4429L298.41 -21.3428L353.33 1016.2L355.221 1016.1L300.301 -21.4429Z" fill="#4FF97F"/>
<path d="M308.506 -22.4038L306.615 -22.3037L361.535 1015.24L363.426 1015.14L308.506 -22.4038Z" fill="#4FF97F"/>
<path d="M316.697 -23.3559L314.807 -23.2559L369.727 1014.28L371.617 1014.18L316.697 -23.3559Z" fill="#4FF97F"/>
<path d="M324.895 -24.3208L323.004 -24.2207L377.924 1013.32L379.815 1013.22L324.895 -24.3208Z" fill="#4FF97F"/>
<path d="M333.09 -25.2817L331.199 -25.1816L386.119 1012.36L388.01 1012.26L333.09 -25.2817Z" fill="#4FF97F"/>
<path d="M341.283 -26.2466L339.393 -26.1465L394.312 1011.39L396.203 1011.29L341.283 -26.2466Z" fill="#4FF97F"/>
<path d="M349.479 -27.2065L347.588 -27.1064L402.508 1010.43L404.399 1010.33L349.479 -27.2065Z" fill="#4FF97F"/>
<path d="M357.68 -28.1597L355.789 -28.0596L410.709 1009.48L412.6 1009.38L357.68 -28.1597Z" fill="#4FF97F"/>
<path d="M365.875 -29.1255L363.984 -29.0254L418.904 1008.51L420.795 1008.41L365.875 -29.1255Z" fill="#4FF97F"/>
<path d="M374.072 -30.0845L372.182 -29.9844L427.102 1007.55L428.992 1007.45L374.072 -30.0845Z" fill="#4FF97F"/>
<path d="M382.264 -31.0493L380.373 -30.9492L435.293 1006.59L437.184 1006.49L382.264 -31.0493Z" fill="#4FF97F"/>
<path d="M390.463 -32.0024L388.572 -31.9023L443.492 1005.64L445.383 1005.54L390.463 -32.0024Z" fill="#4FF97F"/>
<path d="M398.658 -32.9634L396.768 -32.8633L451.687 1004.68L453.578 1004.58L398.658 -32.9634Z" fill="#4FF97F"/>
<path d="M406.858 -33.9272L404.967 -33.8271L459.887 1003.71L461.777 1003.61L406.858 -33.9272Z" fill="#4FF97F"/>
<path d="M415.053 -34.8872L413.162 -34.7871L468.082 1002.75L469.973 1002.65L415.053 -34.8872Z" fill="#4FF97F"/>
<path d="M423.244 -35.853L421.354 -35.7529L476.273 1001.79L478.164 1001.69L423.244 -35.853Z" fill="#4FF97F"/>
<path d="M431.444 -36.8061L429.553 -36.7061L484.473 1000.83L486.363 1000.73L431.444 -36.8061Z" fill="#4FF97F"/>
<path d="M439.641 -37.7671L437.75 -37.667L492.67 999.872L494.561 999.772L439.641 -37.7671Z" fill="#4FF97F"/>
</g>
</svg>
