<svg width="745" height="618" viewBox="0 0 745 618" fill="none" xmlns="http://www.w3.org/2000/svg">
<mask id="mask0_52_12162" style="mask-type:luminance" maskUnits="userSpaceOnUse" x="-49" y="0" width="794" height="618">
<path d="M613.097 522.591C610.612 509.379 614.199 509.119 624.264 516.546C630.316 521.015 639.941 517.114 638.545 511.423C636.668 503.809 643.14 503.602 645.745 500.088C647.288 498.011 650 497.323 651.863 499.02C653.814 500.803 651.803 502.693 650.207 503.769C647.028 505.919 647.542 509.105 649.986 510.087C660.426 514.295 654.007 516.907 649.419 519.859C647.876 520.848 647.001 522.21 647.575 523.96C650.721 533.478 644.436 535.075 637.296 536.317C635.486 532.597 641.323 531.575 639.059 527.567C636.033 528.041 631.999 527.594 629.601 529.304C626.215 531.708 633.462 534.16 631.204 537.346C627.096 539.082 622.301 535.849 618.193 539.991C628.706 544.659 639.133 538.842 649.278 541.213C645.351 543.117 641.297 543.911 637.289 544.88C635.392 545.341 632.627 545.935 633.135 548.213C633.876 551.559 637.055 550.324 638.859 549.408C644.362 546.61 652.291 547.478 652.284 551.78C652.271 558.199 656.766 556.649 659.912 558.639C653.44 561.311 647.716 564.123 641.991 565.973C634.784 568.304 626.115 570.842 620.223 561.792C617.772 558.025 613.123 558.94 610.385 561.071C605.582 564.811 602.837 562.346 599.09 559.588C587.074 550.751 573.194 549.248 559.355 553.129C551.914 555.213 545.508 557.183 538.749 552.394C539.47 550.784 540.84 550.07 542.476 549.429C545.101 548.393 549.429 549.95 550.204 546.289C551.139 541.861 545.989 543.243 543.952 541.493C540.84 538.822 539.911 535.662 540.913 531.842C542.089 527.347 545.562 529.972 548.113 529.424C550.598 528.89 553.557 530.339 555.634 528.101C555.053 523.246 544.433 523.64 548.08 520.046C552.682 515.504 551.593 507.663 559.041 505.111C561.485 508.451 563.095 514.669 568.846 512.238C573.896 510.101 570.482 505.038 570.202 501.204C581.797 501.625 582.706 506.955 581.062 518.31C580.395 522.938 580.942 525.824 583.166 529.21C589.766 523.653 583.667 515.905 587.622 508.371C589.859 514.115 591.596 518.47 597.166 518.984C601.642 519.398 606.197 521.576 610.224 517.414C611.413 522.19 608.087 526.044 611.333 530.493C614.038 527.788 613.531 524.728 613.13 522.584L613.097 522.591ZM-19.2626 348.788C-19.1491 342.416 -15.4754 341.327 -12.0155 340.352C-6.09764 338.682 -7.23981 333.406 -7.31996 329.906C-7.41347 325.898 -11.0938 325.15 -14.8142 327.434C-16.3972 328.409 -17.5928 328.129 -18.7683 326.219C-22.5756 320.027 -29.0946 320.461 -33.5163 323.607C-35.1394 324.763 -40.0821 334.16 -30.19 336.525C-28.8475 336.845 -28.2663 338.642 -29.335 339.711C-30.1098 340.486 -31.7396 341.053 -32.8216 340.853C-36.3684 340.192 -38.439 337.634 -40.2557 334.775C-41.625 332.617 -43.8359 331.268 -46.1135 333.105C-48.6316 335.136 -45.9065 336.291 -44.604 337.513C-41.6584 340.272 -41.3178 344.48 -43.9361 346.17C-49.7671 349.93 -48.5448 355.053 -48.3711 360.056C-48.2108 364.631 -45.0315 362.721 -42.8273 361.886C-39.6613 360.684 -36.5688 360.29 -35.2997 363.937C-34.0039 367.657 -37.584 367.704 -39.9752 368.672C-41.4113 369.254 -42.4599 370.676 -43.7691 371.611C-50.8403 376.648 -50.7423 381.737 -43.4752 386.88C-42.9676 387.241 -42.6002 387.815 -42.2529 388.35C-34.5716 400.085 -33.2291 400.105 -22.5288 389.779C-18.9153 386.299 -16.0165 381.784 -10.3056 380.836C-7.19305 380.315 -7.18637 377.97 -7.48694 375.559C-8.02797 371.184 -7.21309 366.101 -4.18067 363.837C3.82785 357.845 -2.14348 353.123 -5.05566 348.621C-8.63579 343.077 -13.8323 346.35 -19.2693 348.795L-19.2626 348.788ZM26.3172 418.38C29.3362 413.785 33.8448 409.45 30.6988 402.249C29.8038 400.199 32.0614 396.899 32.8162 394.161C33.1969 392.778 34.0385 391.649 35.5079 391.957C37.4382 392.357 38.4134 394.021 37.298 395.61C34.3992 399.751 35.6682 403.231 39.3151 405.709C43.0689 408.261 45.0527 403.893 47.9114 402.791C53.6423 400.573 51.3914 395.637 51.545 391.903C51.7053 388.016 47.4706 388.55 45.5136 389.318C39.7025 391.609 36.3295 386.486 31.6005 385.631C28.7952 385.13 28.4546 382.325 29.2227 380.054C29.6836 378.685 30.9593 376.915 32.2284 376.581C36.2427 375.512 34.5394 378.992 35.4946 380.595C37.1644 383.4 40.7779 386.246 43.6701 384.863C48.8866 382.365 50.2225 376.28 49.5813 371.511C48.7597 365.446 48.5527 356.964 36.7102 361.886C31.5604 364.03 24.5405 365.339 18.1951 362.36C16.5186 361.572 13.907 361.512 13.0253 363.83C12.3774 365.547 12.1503 367.51 13.927 369.213C16.2648 371.451 18.5291 375.232 20.5529 376.093C32.1349 380.996 22.3096 385.725 20.9937 390.32C20.3392 392.598 18.0882 392.785 16.031 391.79C13.5663 390.594 13.6398 388.363 15.2629 387.014C20.0519 383.04 15.2295 380.836 13.6264 378.251C12.2972 376.107 8.94422 376.668 8.71044 378.251C8.18277 381.737 4.76963 385.905 8.00911 388.71C10.3335 390.721 11.2686 391.055 8.76388 393.272C3.18663 398.215 7.92228 404.567 10.6808 405.663C17.6674 408.428 19.3573 415.915 26.3172 418.387V418.38ZM515.351 461.502C518.384 458.55 520.521 454.542 523.28 454.114C535.463 452.204 532.23 445.652 529.271 438.572C528.416 436.534 527.935 433.923 528.456 431.866C529.952 425.968 526.786 424.645 521.743 423.984C518.076 423.503 513.1 421.693 511.41 424.572C509.353 428.085 512.973 431.605 516.787 433.856C508.759 442.386 504.918 433.101 498.72 431.071C501.732 434.684 496.936 441.577 506.04 443.007C510.562 443.715 513.22 447.676 509.246 452.371C508.478 453.28 506.461 454.388 506.588 454.635C511.11 463.232 515.064 472.269 520.842 480.024C523.587 483.711 539.978 478.534 541.681 474.44C544.119 468.595 538.609 457.875 532.13 455.183C529.231 453.981 527.835 456.125 525.778 456.846C522.505 458.002 520.715 461.969 515.351 461.502ZM301.239 612.341C295.494 607.94 291.407 605.201 292.288 599.463C288.16 601.006 289.383 604.693 287.305 606.216C284.647 608.167 281.514 609.416 278.141 608.106C275.243 606.984 273.987 604.8 275.47 601.841C281 590.78 270.367 586.926 264.582 582.264C262.465 580.554 261.403 580.534 262.138 577.963C262.799 575.658 263.133 573.26 259.84 572.579C258.29 572.259 256.627 572.439 255.018 572.392C255.038 574.576 254.77 576.807 255.124 578.945C256.086 584.756 261.436 586.646 268.697 589.965C262.912 590.139 260.127 590.226 257.355 590.313C256.841 593.946 260.301 593.713 261.637 595.342C263.427 597.526 264.121 604.607 262.492 607.325C261.577 608.855 260.802 611.493 261.557 612.709C263.066 615.133 264.796 613.891 265.638 611.647C265.978 610.731 267.06 609.429 267.428 610.21C270.193 616.062 277.106 611.987 279.497 614.325C287.833 622.48 292.796 613.61 301.232 612.348L301.239 612.341ZM486.456 469.11C483.444 472.249 479.664 474.834 477.967 478.36C476.384 481.647 475.255 483.363 471.535 482.074C469.972 481.533 467.541 480.398 468.636 478.942C470.506 476.45 469.478 471.888 474.661 471.427C476.678 471.247 479.256 473.531 480.979 470.733C468.683 465.676 462.698 467.734 457.168 478.888C453.04 487.204 450.488 487.558 444.817 480.511C443.502 478.875 441.491 476.737 440.496 479.503C438.853 484.098 441.845 488.687 443.488 492.881C444.423 495.273 447.983 495.433 451.764 493.87C463.626 488.961 474.667 481.533 488.507 481.76C490.417 481.794 493.663 478.895 494.004 476.958C494.605 473.551 491.459 474.787 489.142 474.627C485.441 474.366 490.37 470.385 486.443 469.103L486.456 469.11ZM459.906 511.096C466.739 502.119 455.084 505.98 452.866 503.962C448.585 500.068 442.266 505.245 436.475 505.104C433.877 505.044 433.563 510.334 433.937 513.661C434.665 520.113 453.594 531.14 459.652 528.696C461.783 527.834 461.496 526.585 460.841 524.869C459.191 520.574 459.699 516.099 459.906 511.096ZM521.53 395.75C522.244 391.496 529.952 390.14 524.281 385.444C519.579 381.557 515.358 375.419 508.451 376.982C503.689 378.064 503.455 383.868 504.784 387.742C508.358 398.135 523.366 406.197 535.95 404.821C532.163 400.165 529.498 394.762 521.53 395.75ZM187.91 486.696C183.241 480.304 174.892 478.701 179.428 470.192C180.456 468.255 174.291 465.342 171.112 465.089C165.949 464.674 170.878 468.321 169.936 469.624C167.839 472.543 165.181 474.934 161.874 476.697C153.238 481.306 152.944 484.686 159.236 491.732C161.974 494.798 169.642 500.509 157.012 500.509C155.028 500.509 153.552 501.731 154.547 503.582C156.036 506.36 157.058 509.8 161.006 510.501C163.076 510.869 165.007 511.103 165.414 508.224C166.176 502.807 167.071 497.584 163.758 492.36C161.908 489.441 160.118 485.314 162.776 482.301C165.501 479.209 169.422 480.752 173.015 482.114C177.163 483.684 181.505 484.753 187.91 486.69V486.696ZM253.748 549.662C244.257 544.346 239.027 546.376 236.643 558.753C233.964 548.667 227.893 545.287 223.959 540.164C220.332 535.442 214.888 534.741 209.017 535.362C208.75 538.775 209.217 542.769 213.225 542.816C222.857 542.93 224.413 550.317 227.198 556.322C230.037 562.426 235.1 564.203 240.256 559.454C244.063 555.948 247.249 551.84 253.742 549.662H253.748ZM544.68 119.787C543.979 120.375 543.384 120.929 542.863 121.444C543.625 121.156 544.266 120.649 544.68 119.787ZM-36.9896 178.004C-42.3263 177.81 -43.2815 173.79 -45.9933 170.624C-42.333 169.481 -40.8101 174.077 -39.2338 172.808C-29.3016 164.839 -30.8245 176.749 -26.877 179.106C-23.2969 181.25 -24.4191 185.899 -21.4401 188.391C-18.7683 185.879 -19.9239 183.708 -21.0326 181.838C-22.3551 179.607 -23.2101 177.837 -20.171 176.321C-17.2722 174.878 -15.9497 175.874 -15.068 178.686C-12.6233 186.52 -6.13103 182.847 -2.72457 181.217C2.01107 178.953 -3.06523 175.145 -3.84671 172.02C-4.30758 170.169 -8.38865 169.628 -5.96405 166.375C7.15415 171.706 20.5462 175.506 34.9201 172.394C27.5395 164.859 14.0873 166.202 9.83925 153.478C6.81351 159.603 12.5511 161.606 11.3955 165.948C5.47765 164.525 2.89275 161.486 3.3603 155.782C3.91468 148.969 3.41373 144.441 -5.52322 150.178C-8.12148 151.848 -14.2932 154.847 -17.8867 149.59C-20.9057 145.175 -18.0937 142.831 -14.1663 140.406C-11.1472 138.543 -15.0012 129.82 -18.4143 128.11C-22.9296 125.852 -28.1194 129.599 -31.9066 126.213C-33.1757 125.077 -37.5306 125.531 -35.5067 121.884C-34.6585 120.355 -34.5783 117.79 -31.6595 118.244C-23.8313 119.46 -17.7197 113.054 -10.0251 114.671C-9.91822 108.866 -16.11 112.667 -17.0785 109.187C-12.2426 105.707 -12.0422 96.5631 -2.86484 98.6738C-2.59099 98.7339 -1.6826 96.6366 -1.25512 95.4811C1.82405 87.2254 9.84593 88.8952 15.844 88.8218C19.8983 88.775 17.8878 87.6328 19.03 86.1834C24.9613 78.6291 18.0348 75.2093 14.5615 70.3133C21.0605 66.279 27.7666 64.2752 36.1491 64.1817C29.8906 57.6092 32.2551 49.0597 36.6902 49.3803C42.6415 49.8078 50.7034 46.9156 55.9868 53.4013C57.7034 55.5052 60.7491 58.2772 63.7348 55.9528C66.2863 53.969 62.1251 52.1656 62.0716 50.2486C61.9581 46.3011 62.5859 42.3336 62.9065 38.3728C65.3846 42.6542 63.3207 48.1379 68.6975 51.0034C70.541 51.9852 71.7901 55.1713 74.415 52.5797C76.3788 50.6427 76.165 48.5053 73.7538 46.7754C71.3626 45.0588 69.9866 43.0817 72.8922 39.181C78.7032 47.0158 86.5247 45.3126 93.6315 42.4605C100.024 39.8956 105.193 39.4815 110.27 46.5215C111.399 40.4968 110.537 31.7803 118.639 38.4596C124.437 43.242 125.238 40.2363 127.836 36.3823C129.012 34.6323 128.391 30.0369 132.599 31.5866C140.026 34.3184 147.788 29.5427 155.689 33.8842C159.109 35.7611 164.245 33.4568 161.727 40.2163C161.079 41.9462 161.58 43.4691 163.551 44.1103C165.227 44.658 167.538 44.7048 167.772 42.888C169.128 32.6018 181.698 30.5246 184.33 21.2069C185.165 18.2546 187.596 15.0619 190.689 17.413C193.427 19.497 190.495 21.9616 188.091 23.3309C186.514 24.2326 184.998 25.5084 186.22 27.098C187.81 29.1553 189.747 28.12 191.03 26.37C191.771 25.3547 191.884 23.8118 194.329 24.0589C194.229 29.3223 198.029 31.5064 202.398 33.6772C204.776 27.5923 196.507 24.3595 200.053 18.3748C202.879 13.5991 207.107 10.8272 211.248 7.58105C216.899 3.15265 217.54 10.0591 220.699 11.1545C225.542 12.8377 223.317 14.434 220.626 16.1439C219.41 16.9121 218.989 18.268 220.272 19.3634C221.935 20.7861 223.518 20.6258 225.695 19.664C231.186 17.2527 226.831 12.0161 229.075 8.56289C236.355 16.4044 242.233 17.5666 251.471 13.7461C254.864 12.3434 254.837 6.83964 259.519 7.49421C273.346 9.44458 287.726 6.9465 301.9 13.7327C302.334 8.42264 302.675 4.21466 303.015 0C303.603 6.21178 309.267 8.47607 312.346 12.1631C314.717 14.9951 318.879 15.6497 321.15 12.6172C328.657 2.61161 329.646 10.0257 331.389 15.7565C335.116 16.6249 335.357 5.09633 341.495 13.2986C341.976 13.9398 347.132 13.5657 346.972 10.8405C346.751 7.13351 347.473 6.99993 350.592 8.1755C354.74 9.74514 352.556 11.2079 350.866 12.9646C346.605 17.3796 351.14 21.2403 353.117 23.8118C355.114 26.4101 359.075 24.8337 360.905 21.1735C361.76 19.4636 363.062 19.5504 364.846 21.0332C371.973 26.9645 378.118 25.7622 382.807 18.0208C385.224 14.0333 387.395 18.0809 389.666 18.1477C392.064 18.2145 393.32 20.2384 393.293 22.1687C393.253 25.0141 390.214 23.8385 388.611 24.6601C387.155 25.4082 385.759 26.2565 384.336 27.0646C382.239 28.2669 378.084 26.4101 378.004 30.1973C377.964 32.0875 379.674 34.5255 381.33 35.8413C384.096 38.0388 387.021 35.3069 388.29 33.8842C393.24 28.3337 395.197 31.1858 396.92 36.1018C397.561 37.9319 397.975 40.3632 400.213 40.5369C403.018 40.7506 404.114 38.4195 404.514 36.055C404.808 34.3585 405.349 32.9358 407.373 31.8471C409.524 33.8041 411.027 36.1485 414.553 37.5712C421.694 40.4567 428.112 45.8402 430.811 53.8822C432.895 60.0939 436.582 64.8496 444.156 64.8363C447.476 64.8363 449.58 67.2008 452.305 68.2294C455.104 69.2914 459.479 66.4527 460.888 70.9946C462.21 75.2694 454.629 71.3687 455.665 75.8305C455.885 76.7723 456.079 77.8343 456.653 78.5623C459.813 82.5833 456.099 84.9478 453.661 88.2674C457.308 88.2273 460.16 88.2006 463.152 88.1672C462.518 90.2111 461.87 92.0145 461.402 93.8513C457.709 108.239 460.955 113.769 476.464 116.287C481.12 117.042 480.124 121.457 483.391 122.826C486.082 117.182 488.547 112.012 490.891 107.09C496.242 107.704 497.845 115.072 504.524 111.906C515.157 106.856 522.906 111.398 525.283 122.779C525.918 125.819 528.997 127.869 532.203 128.965C533.105 129.272 534.741 129.031 534.381 127.929C531.241 118.298 538.842 122.946 542.883 121.424C534.721 129.599 548.374 129.011 548.881 133.887C543.144 135.457 534.414 133.941 535.676 143.779C542.509 145.503 552.141 139.277 555.968 147.854C558.733 154.059 550.07 156.71 546.183 161.232C547.733 153.985 546.597 148.662 536.792 146.277C548.254 156.971 533.873 154.379 532.136 158.193C538.448 163.704 544.667 168.626 553.911 166.182C556.77 165.427 559.228 167.09 560.276 169.715C561.158 171.933 560.751 174.23 558.393 175.707C551.914 179.768 545.569 178.478 539.33 175.065C538.923 174.845 538.695 174.023 538.662 173.469C538.462 169.916 538.121 169.334 536.191 170.477C532.938 172.4 528.182 171.939 526.165 175.96C529.171 179.721 537.507 177.163 536.899 184.376C536.458 189.58 532.651 191.817 527.321 192.251C523.547 192.558 525.985 194.863 526.399 196.426C527.033 198.844 527.922 200.033 530.119 197.454C532.864 194.235 537.279 194.482 539.971 195.885C543.424 197.682 540.552 200.38 539.063 202.938C537.553 205.523 539.049 208.268 541.113 210.867C547.272 218.628 552.562 209.611 558.433 210.406C563.543 211.1 567.149 207.493 569.554 203.419C575.098 194.008 587.815 192.298 596.619 199.912C597.741 200.888 598.128 201.97 597.821 203.339C591.562 201.409 587.455 210.259 583.574 208.128C575.024 203.432 575.292 211.287 571.638 213.759C567.236 216.738 561.699 217.205 556.503 218.281C556.376 218.307 556.242 218.902 556.322 219.176C558.921 228.139 552.809 224.873 549.249 223.464C545.629 222.028 543.304 223.744 541.04 225.394C538.001 227.618 535.002 229.742 531.054 228.854C525.758 227.665 525.965 231.559 525.19 234.458C524.155 238.312 526.613 239.407 529.946 240.389C532.417 241.117 535.73 241.024 536.812 243.048C535.349 248.892 530.052 241.137 528.536 247.142C530.787 249.152 536.124 247.015 536.799 250.675C538.929 262.204 545.248 252.886 549.509 253.26C550.545 253.347 552.275 248.431 552.782 251.35C553.751 256.921 565.366 255.718 560.637 262.431C556.796 267.875 562 266.966 563.242 266.893C566.548 266.699 569.794 265.49 573.061 264.682C564.892 264.074 563.716 257.168 560.236 252.853C559.802 252.318 560.089 250.789 560.604 250.134C561.058 249.553 562.294 249.56 563.189 249.299C565.346 258.584 576.901 254.837 581.183 262.344C581.624 256.66 572.413 252.586 579.934 247.382C585.471 256.673 586.68 256.747 592.851 248.485C595.183 245.359 598.148 244.47 601.348 247.429C603.425 249.346 605.255 251.51 607.506 253.888C600.045 258.383 591.576 258.918 582.251 262.872C588.289 264.515 592.437 266.626 596.418 264.528C602.784 261.189 607.593 264.562 611.527 267.975C614.466 270.533 615.722 274.12 620.931 272.557C622.114 272.203 624.471 275.496 626.295 277.112C613.477 279.917 624.284 288.374 620.604 294.385C624.752 293.149 627.33 292.448 629.855 291.606C632.3 290.791 634.684 288.961 637.156 291.573C630.055 300.283 630.349 304.718 639.019 311.578C643.948 315.478 638.445 316.694 636.508 318.424C640.348 320.802 645.565 316.26 645.224 318.317C644.055 325.35 659.384 322.451 652.865 331.315C661.909 336.244 657.234 346.163 661.475 352.702C665.656 347.031 681.005 344.213 685.888 349.483C688.9 352.742 689.535 352.141 692.574 350.298C695.226 348.688 698.893 348.341 702.179 348.06C708.578 347.512 715.424 346.938 712.558 357.024C716.773 356.817 719.305 353.684 723.392 354.031C729.21 354.526 732.102 357.551 730.038 362.875C729.083 365.339 730.566 365.914 732.216 366.001C736.657 366.228 739.997 370.382 745 368.9C741.994 371.732 738.641 373.749 735.115 371.792C732.63 370.409 731.02 367.37 727.58 367.744C718.49 368.733 709.847 366.622 701.678 363.276C692.948 359.695 688.533 369.861 680.771 368.445C683.904 377.402 674.526 373.649 671.18 376.24C673.892 379.166 676.089 381.544 678.995 384.676C673.11 385.772 671.521 391.162 667.086 393.66C665.73 387.094 662.911 384.295 656.96 388.891C654.869 390.507 650.962 391.042 651.69 388.904C654.889 379.473 645.378 384.877 643.454 381.637C646.046 379.293 650.113 383.674 652.598 379.246C648.965 375.499 646.667 368.519 639.58 376.1C637.663 378.15 635.172 375.686 632.994 375.699C622.074 375.759 610.251 373.983 605.128 387.261C604.3 389.418 602.009 389.766 600.125 388.543C598.496 387.488 599.531 385.751 599.471 384.349C599.103 375.699 604.821 373.508 613.384 372.466C604.193 365.6 594.535 369.187 584.716 367.029C589.071 363.85 591.329 360.911 595.343 361.352C593.987 358.627 593.159 355.788 589.078 354.946C585.624 354.238 585.21 351.714 586.96 348.207C589.004 344.113 592.978 345.074 596.178 344.547C594.782 339.951 590.828 341.16 588.503 339.591C573.521 329.458 557.391 323.901 538.956 327.635C536.525 328.129 533.112 328.129 532.657 331.415C532.223 334.548 535.403 336.792 537.406 337.006C545.822 337.921 544.84 344.099 546.911 349.737C540.445 349.196 540.319 337.841 531.602 343.825C525.778 347.826 535.549 349.376 530.7 353.176C521.57 344.26 506.601 362.714 498.098 345.655C497.477 348.915 497.01 351.366 496.208 355.588C495.266 350.371 489.829 352.662 489.676 349.436C489.128 337.36 486.403 335.603 475.876 341.341C473.853 342.443 471.882 344.821 470.546 340.967C469.731 338.615 469.037 336.251 465.944 337.36C462.798 338.489 459.726 340.272 459.712 344.133C459.679 355.24 452.946 353.577 445.545 351.687C446.441 348.407 448.631 347.786 451.089 347.612C456.333 347.238 457.234 343.598 457.815 339.531C458.056 337.854 458.724 336.284 456.272 335.763C452.085 334.875 449.954 337.193 447.316 339.985C445.145 342.276 442.453 347.332 437.577 340.713C434.444 336.458 427.945 337.146 422.054 341.387C427.117 343.438 431.305 344.667 434.919 346.811C436.602 347.806 437.223 350.551 438.131 352.582C438.205 352.749 436.836 353.945 436.154 353.924C434.585 353.878 432.574 350.752 431.646 354.252C431.058 356.449 433.93 356.91 435.026 358.179C440.142 364.104 445.933 356.229 451.924 359.181C446.02 362.36 443.388 364.999 450.862 368.372C453.38 369.507 455.718 372.259 453.935 375.686C453.427 376.668 451.156 378.03 451.076 377.209C450.568 372.092 444.123 374.236 442.693 370.082C439.441 360.671 432.621 360.671 424.612 364.204C420.618 365.961 416.524 368.92 412.302 363.984C411.341 362.855 408.448 363.549 408.956 365.714C411.454 376.387 402.203 375.044 396.566 377.422C401.589 375.225 404.033 371.498 398.162 368.612C390.848 365.012 395.711 362.734 398.309 360.637C402.511 357.237 403.466 354.706 397.174 353.35C391.503 352.128 395.491 350.304 395.925 347.973C396.225 346.377 392.665 345.395 390.18 345.435C386.293 345.502 383.014 346.277 381.143 350.144C378.078 356.496 383.715 369.881 390.668 372.333C382.726 380.221 372.273 381.223 361.8 381.704C358.607 381.851 356.71 386.219 353.043 383.768C352.108 387.314 355.835 387.729 357.245 389.699C359.235 392.484 359.91 396.024 358.908 398.97C356.042 407.386 351.794 414.78 341.689 417.111C338.115 417.933 332.658 417.365 332.237 422.561C331.696 429.261 327.629 427.457 323.968 426.275C322.652 425.854 321.083 423.062 320.061 424.699C314.931 432.901 315.519 424.912 314.998 422.909C314.357 420.424 312.52 419.021 310.977 417.485C309.427 415.942 306.976 413.985 305.199 414.212C302.28 414.58 303.376 417.886 303.082 419.963C302.18 426.275 302.822 433.148 300.437 438.839C300.798 440.295 298.119 441.651 296.596 441.931C295.073 442.212 293.41 442.032 292.074 442.773C289.176 444.389 290.057 448.724 291.968 451.403C293.217 453.153 294.826 455.21 293.985 457.167C293.597 458.062 292.769 458.683 291.974 459.264C288.187 462.029 284.206 464.882 279.524 465.676C274.842 466.471 269.271 464.487 267.702 460.133C267.167 458.65 267.074 456.913 265.912 455.811C264.262 454.241 261.263 455.003 259.92 456.813C258.578 458.623 258.504 461.028 258.725 463.245C252.767 462.096 246.268 464.274 242.333 468.729C241.018 464.307 239.769 459.311 242.14 455.343C242.768 454.301 243.623 453.38 244.097 452.264C244.578 451.149 244.023 449.031 243.082 448.23C243.783 445.759 243.649 443.08 244.057 440.522C244.371 438.572 243.776 437.456 241.686 437.096C239.268 436.681 239.334 438.191 238.813 439.847C236.269 447.843 233.437 455.751 230.738 463.699C229.663 466.879 228.227 470.853 224.413 470.051C220.252 469.176 221.213 464.882 220.759 461.362C219.871 454.515 225.161 447.562 218.983 440.589C215.503 436.661 208.336 433.155 212.223 425.534C212.904 424.198 211.455 422.702 209.585 421.987C206.172 420.684 181.578 426.255 181.251 429.301C180.109 439.921 172.361 432.126 168.313 434.163C163.805 436.434 160.565 442.138 153.966 438.739C152.77 438.124 150.613 439.487 150.326 436.855C149.638 430.583 143.085 430.149 140.5 426.656C137.615 428.098 142.331 430.683 137.101 431.986C139.378 423.951 131.189 423.029 127.542 418.928C129.306 416.59 133.854 418.567 133.28 415.361C132.225 409.476 127.135 406.411 122.192 403.559C120.102 407.526 111.185 406.123 113.669 413.678C115.553 419.415 110.276 419.636 107.438 419.916C104.512 420.203 102.007 417.712 102.715 413.978C103.263 411.106 103.637 408.201 104.272 405.349C104.666 403.572 108.633 402.096 104.712 400.059C103.59 399.478 101.921 398.856 100.939 399.257C98.2736 400.346 98.1868 402.877 99.0017 405.108C100.297 408.675 99.1686 411.32 96.3834 413.758C95.3347 411.186 95.682 407.419 91.434 407.626C90.5456 407.673 88.8558 409.79 89.0495 410.118C91.7746 414.713 81.9961 414.399 85.1821 419.709C85.81 420.758 81.061 420.19 80.8606 418.861C80.039 413.444 77.5276 414.246 73.1794 415.181C69.5792 415.955 65.5649 413.938 63.0201 409.637C70.521 409.784 75.4036 400.446 83.9598 405.522C84.8815 406.07 85.9836 404.915 85.6163 403.946C82.1764 394.942 89.517 391.97 95.0341 388.103C97.4253 386.426 96.6906 382.786 95.9091 383.367C89.3701 388.23 87.0323 379.94 83.5457 380.114C80.0056 380.288 78.456 381.751 79.8119 377.396C82.4169 369.033 78.3558 366.061 69.626 366.675C72.7385 363.817 80.4331 363.803 77.4608 360.891C70.374 353.944 77.581 353.697 80.6469 351.72C83.1516 350.104 86.8987 349.383 85.0419 345.542C81.7824 338.796 86.7785 335.336 90.5857 331.616C91.9683 330.26 94.6935 329.385 93.2174 327.401C88.3748 320.889 95.2813 319.486 97.2851 315.625C101.052 319.212 97.3986 326.486 101.794 326.639C111.552 326.98 111.699 332.404 111.412 339.45C113.77 335.095 119.975 332.056 114.418 326.392C116.942 325.056 113.175 319.299 118.245 320.514C120.055 320.949 120.783 322.692 122.192 320.174C123.415 317.99 123.475 316.587 120.569 315.972C119.554 315.759 117.363 316.126 118.793 313.969C119.481 312.927 120.262 312.179 122.025 313.274C125.445 315.405 128.077 318.337 131.704 323.033C131.263 316.747 134.068 313.054 127.783 309.407C124.831 307.697 117.283 299.969 124.924 293.316C126.106 292.288 126.854 291.319 125.438 290.257C119.928 286.129 117.216 276.912 106.596 280.986C108.032 282.709 109.388 284.333 110.737 285.969C112.374 287.946 113.516 279.938 115.079 285.728C115.68 287.939 112.861 290.03 111.485 289.536C105.908 287.525 96.704 305.933 94.246 286.697C94.1725 286.123 91.7078 285.181 90.6659 285.468C86.4445 286.63 86.538 281.293 81.8491 280.305C87.0924 288.287 83.2184 289.569 76.833 289.743C74.5419 289.81 72.0305 293.744 69.8731 291.212C67.3683 288.28 70.2004 285.855 72.8855 284.232C75.9446 282.382 76.2385 280.018 73.6002 277.98C69.9933 275.195 69.5592 279.537 67.8626 280.906C64.9037 283.297 65.1374 289.589 57.6499 287.619C66.0592 282.175 60.4486 275.469 56.982 273.432C43.8304 265.697 31.0194 277.119 17.614 275.876C16.8659 275.81 15.2428 277.653 15.2161 278.642C15.1092 282.896 10.4938 283.564 8.67037 286.757C6.00531 291.399 -1.56905 286.483 -5.67684 290.665C-6.89248 287.098 -6.19783 284.059 -3.51942 281.24C-1.36867 278.976 -4.0738 276.651 -5.18257 277.493C-7.89438 279.557 -13.1844 274.427 -12.3896 278.248C-11.1005 284.413 -17.9601 287.645 -14.6806 293.817C-19.8437 292.341 -19.0555 286.837 -23.4171 286.41C-25.0402 288.427 -23.8446 289.99 -22.7292 291.666C-21.1929 293.977 -18.1672 297.705 -21.4935 298.807C-24.6328 299.849 -25.1404 305.593 -29.2682 303.008C-32.1537 301.198 -35.2195 299 -34.1575 294.418C-33.1155 289.95 -37.2367 286.704 -38.3789 282.649C-38.96 280.579 -41.5916 278.294 -38.5926 276.812C-32.3341 273.712 -37.1833 269.598 -37.2634 265.457C-33.6165 265.544 -28.9009 272.383 -26.7769 263.546C-25.4744 258.129 -21.4267 253.748 -15.8962 261.629C-14.2932 258.31 -14.4668 256.112 -16.0098 253.581C-20.3847 246.394 -17.733 241.772 -9.79131 239.828C-7.81423 239.347 -6.3381 237.05 -6.49172 236.949C-13.2111 232.581 -8.68922 226.122 -9.97833 220.819C-10.4993 218.675 -12.7503 217.386 -14.6672 218.521C-22.2349 222.99 -22.7025 218.915 -22.7359 212.971C-22.7492 210.533 -26.7435 208.342 -21.38 206.111C-19.0355 205.136 -23.6376 201.369 -24.2387 202.15C-28.8007 208.108 -33.9438 197.909 -38.9199 202.965C-40.3827 204.448 -42.3197 199.759 -40.917 198.416C-38.98 196.566 -36.2281 193.387 -33.2091 194.916C-27.7988 197.655 -22.3685 196.012 -16.6577 197.174C-18.588 190.975 -22.7693 191.35 -27.4047 191.41C-31.5459 191.463 -37.1632 191.597 -33.5497 184.37C-32.1203 181.504 -32.6947 178.158 -36.9896 177.998V178.004ZM599.985 364.197C605.402 356.329 614.92 353.784 621.492 347.472C623.677 345.375 628.259 345.609 631.879 344.747C631.699 339.764 627.116 339.424 624.184 337.26C622.08 335.703 617.932 335.242 618.901 331.115C619.669 327.842 622.561 327.12 625.834 326.432C623.129 321.65 618.587 324.201 614.072 322.224C618.64 330.627 611.393 335.329 610.799 342.823C606.497 340.031 603.037 335.122 598.469 340.446C598.582 342.97 601.06 342.823 602.617 343.792C608.368 347.365 608.481 352.241 602.329 354.272C598.215 355.628 597.1 358.433 595.583 361.405C595.603 361.405 595.623 361.405 595.65 361.412C594.935 365.667 598.262 366.695 599.978 364.197H599.985ZM480.285 289.182C485.461 290.197 486.436 292.161 479.63 295.507C485.328 296.542 488.908 291.58 491.165 295.447C493.209 298.954 496.582 303.789 489.015 307.683C499.307 307.383 505.586 310.088 507.723 319.92C507.884 311.444 515.238 306.047 514.296 297.965C514.189 297.07 515.485 295.788 516.453 295.14C516.921 294.826 518.637 295.313 518.931 295.861C519.82 297.518 521.222 299.475 519.659 301.265C511.484 310.596 516.974 311.11 525.564 310.222C527.347 310.035 530.867 311.25 530.961 312.085C532.016 321.222 540.472 316.48 544.173 319.145C553.724 326.032 556.436 317.382 562.648 314.389C557.478 311.564 549.516 316.574 549.316 306.828C549.235 303.095 544.68 307.503 542.476 305.646C546.41 299.909 552.722 300.076 559.081 299.601C554.973 298.399 552.328 295.28 547.499 295.494C540.205 295.814 525.571 281.708 524.388 274.574C524.195 273.418 524.081 271.635 523.346 271.274C517.549 268.462 517.509 268.549 521.416 263.293C515.699 267.875 508.004 267.848 501.892 271.648C502.34 272.57 502.46 273.392 502.908 273.632C505.192 274.841 509.507 273.479 508.886 278.274C508.705 279.67 507.156 281.414 506.875 280.766C505.058 276.631 498.626 281.287 497.825 276.063C497.19 271.916 495.073 269.05 490.745 267.32C491.733 273.626 488.086 278.021 481.54 279.196C478.662 279.71 476.624 281.561 475.85 284.159C474.821 287.625 477.373 288.607 480.285 289.175V289.182ZM428.573 263.947C428.6 265.383 429.569 266.505 431.058 266.405C435.573 266.098 438.252 269.077 441.451 271.355C448.678 276.498 450.642 276.544 460.988 271.067C455.371 276.277 455.852 279.61 458.717 283.057C460.12 284.747 462.331 286.416 463.459 285.014C466.038 281.801 473.552 282.783 471.782 275.977C470.513 271.107 472.917 272.176 475.736 273.666C477.813 274.768 479.597 274.073 481.033 272.417C482.008 271.294 482.081 270.059 481.146 268.91C479.49 266.886 477.399 268.095 475.602 268.489C470.232 269.671 465.437 270.252 463.626 263.333C463.319 262.15 461.035 260.634 459.692 260.648C450.188 260.761 440.69 261.215 431.192 261.623C429.796 261.683 428.54 262.371 428.567 263.941L428.573 263.947ZM433.095 145.943C433.85 148.368 436.295 150.879 438.672 152.115C441.885 153.778 442.493 151.207 442.253 148.608C448.671 148.261 456.493 145.489 461.209 148.067C470.76 153.297 468.583 146.017 469.818 142.23C474.38 144.641 478.635 146.879 482.883 149.123C485.461 150.485 487.385 149.423 488.995 147.533C490.17 146.157 490.123 144.654 489.329 143.025C487.859 140.019 486.136 140.88 483.952 142.276C482.155 143.425 480.191 143.759 479.503 140.847C477.646 132.986 470.86 132.959 464.715 132.525C460.961 132.264 456.934 131.903 455.037 128.998C452.011 124.363 458.109 124.944 459.719 122.853C460.454 121.898 460.901 120.402 460.774 119.213C460.514 116.761 458.43 117.623 456.927 117.717C453.073 117.957 449.219 118.271 445.699 118.531C444.123 121.497 452.499 122.84 446.3 125.852C445.866 126.059 445.479 127.008 445.592 127.495C447.776 136.966 447.843 137.047 437.777 142.223C435.814 143.232 432.227 143.138 433.102 145.95L433.095 145.943ZM340.62 310.455C344.367 311.117 345.122 308.204 345.836 304.932C347.667 296.542 357.539 300.577 362.014 295.921C362.074 295.861 363.831 296.789 363.944 297.397C364.766 301.866 366.128 306.648 371.866 303.108C376.762 300.089 381.805 295.874 378.098 288.634C375.219 283.01 371.665 278.635 364.271 279.724C361.199 280.178 361.005 282.689 360.578 284.84C358.968 292.895 353.778 297.184 345.536 296.763C339.538 296.456 339.878 300.143 338.529 303.442C342.751 305.406 335.45 309.554 340.62 310.462V310.455ZM273.359 134.108C274.755 135.236 282.743 131.289 285.262 127.943C289.189 122.739 281.501 119.467 279.865 114.551C285.095 114.29 286.597 119.927 291.667 120.288C290.886 117.022 290.198 114.163 289.516 111.318C289.63 111.378 289.737 111.445 289.837 111.511C289.763 111.391 289.697 111.271 289.623 111.151C293.811 111.792 296.156 118.451 301.633 114.791C309.528 109.508 318.531 105.26 321.377 95.1805C322.198 92.2817 321.517 90.0842 318.638 88.7015C315.96 87.4124 313.836 87.2054 311.925 90.2311C309.474 94.1185 306.388 97.2845 301.9 91.9677C300.784 90.6452 299.261 90.9191 298.714 92.2817C298.32 93.2502 298.627 94.8599 299.261 95.7616C300.457 97.4581 305.166 97.565 301.319 101.239C297.739 104.652 296.316 100.718 294.138 99.502C292.502 98.5936 291.039 97.398 288.675 95.7549C287.533 101.713 286.905 106.515 289.637 111.144C289.583 111.137 289.53 111.124 289.476 111.117C289.49 111.184 289.51 111.244 289.523 111.311C287.873 110.429 284.954 110.236 285.462 108.185C287.987 97.9591 278.97 95.2005 273.352 90.4916C271.542 88.9754 268.77 86.0966 265.491 88.4878C261.183 91.6404 267.194 93.3236 267.034 93.5307C258.858 104.117 277.42 109.568 271.422 119.233C268.65 118.431 266.593 114.23 261.857 114.33C261.49 123.254 267.348 129.232 273.366 134.101L273.359 134.108ZM230.037 245.886C241.278 253.147 237.117 262.858 234.866 272.35C234.512 273.839 236.389 274.233 237.611 274.501C239.662 274.948 241.659 274.621 243.175 273.131C249.186 267.207 247.189 241.424 239.769 237.437C233.483 234.064 234.265 243.168 229.903 243.402C229.957 244.704 229.73 245.679 230.037 245.88V245.886ZM156.244 141.502C157.653 139.324 159.723 140.046 161.64 140.019C164.118 139.985 163.531 142.176 164.326 143.425C166.456 146.758 157.279 145.182 161.807 147.9C167.057 151.053 172.554 153.538 176.181 158.621C177.684 157.412 179.414 156.397 180.63 154.961C182.507 152.73 179.434 151.975 178.679 151.795C174.211 150.746 174.999 144.28 169.515 143.766C168.627 143.679 166.042 137.073 169.028 133.46C171.232 130.795 171.212 127.742 170.798 123.922C175.707 125.792 177.524 129.112 176.996 132.986C176.328 137.875 172.755 131.69 170.764 134.301C172.421 137.901 174.331 141.629 175.827 145.503C176.769 147.947 178.626 148.281 180.616 147.967C188.585 146.698 196.834 142.383 203.714 150.679C204.355 151.454 205.497 150.839 205.931 149.784C209.177 141.929 216.625 145.83 222.442 144.447C222.075 140.6 216.959 139.772 216.758 135.764C216.692 134.355 214.521 133.74 212.59 134.007C209.384 134.448 214.367 140.54 209.311 138.756C206.766 137.861 211.108 133.981 208.402 132.084C203.673 128.771 197.482 127.321 194.797 121.437C193.748 119.133 191.103 116.822 194.743 114.978C198.43 113.114 200.581 107.303 205.003 108.74C213.519 111.498 222.035 115.566 228.167 121.771C231.526 125.164 236.502 131.703 229.062 137.294C227.592 138.396 226.797 140.353 224.46 143.659C231.62 140.7 236.87 138.316 242.841 137.354C250.035 136.198 254.203 124.536 252.433 114.123C250.602 103.376 244.544 95.2606 235.093 89.4095C233.617 88.4945 231.94 87.3323 230.585 88.6347C225.294 93.711 223.979 88.1939 222.035 85.5288C219.363 81.8552 218.542 76.7656 211.969 82.5833C208.269 85.8561 202.278 80.7999 196.847 80.9602C189.373 81.1873 187.95 84.3466 190.609 89.7435C192.459 93.504 189.66 98.5869 194.81 101.559C195.665 102.054 192.82 104.198 190.141 103.323C184.05 101.346 179.882 104.438 180.456 110.403C180.844 114.43 178.459 117.162 175.179 115.926C168.159 113.281 168.934 117.643 167.264 121.677C164.967 127.221 166.369 135.958 154.413 134.702C149.424 134.174 153.912 142.737 150.9 147.627C155.743 146.211 155.075 143.318 156.25 141.502H156.244ZM95.1811 158.688C92.3891 147.099 84.4274 142.731 79.4379 136.238C78.4494 134.949 74.9627 134.649 77.581 132.231C79.3243 130.621 81.4283 131.603 82.7041 133.393C84.7747 136.298 86.5247 139.531 92.0017 138.85C86.1039 126.727 83.9331 127.575 70.2471 129.519C60.8159 130.855 61.6041 134.114 66.1594 137.748C74.8158 144.654 85.6296 148.749 95.1811 158.688ZM48.7998 176.688C52.046 172.561 43.5098 169.455 45.9611 169.655C52.4534 170.189 57.8436 163.236 63.5344 166.99C70.7214 171.732 77.6879 165.173 84.6478 167.885C85.2088 168.105 89.5705 163.757 88.2346 162.268C85.7966 159.549 86.7585 153.939 81.5953 153.825C71.7099 153.598 66.814 145.255 61.063 140.206C49.7549 130.274 41.4592 130.801 34.9803 143.913C30.0108 153.965 28.8353 162.969 35.0537 172.38C35.1138 172.367 35.174 172.353 35.2408 172.34C39.1281 175.84 43.6701 177.296 48.7998 176.702V176.688Z" fill="white"/>
</mask>
<g mask="url(#mask0_52_12162)">
<path d="M835.677 -44.789L702.791 766.695L706.759 767.345L839.645 -44.1392L835.677 -44.789Z" fill="#00A465"/>
<path d="M827.38 -46.0975L694.494 765.387L698.462 766.037L831.348 -45.4477L827.38 -46.0975Z" fill="#00A465"/>
<path d="M819.089 -47.4139L686.203 764.07L690.171 764.72L823.057 -46.7641L819.089 -47.4139Z" fill="#00A465"/>
<path d="M810.794 -48.7324L677.908 762.752L681.876 763.402L814.762 -48.0826L810.794 -48.7324Z" fill="#00A465"/>
<path d="M802.503 -50.0409L669.617 761.443L673.585 762.093L806.471 -49.3911L802.503 -50.0409Z" fill="#00A465"/>
<path d="M794.208 -51.3573L661.322 760.127L665.29 760.777L798.176 -50.7075L794.208 -51.3573Z" fill="#00A465"/>
<path d="M785.911 -52.6738L653.025 758.811L656.994 759.46L789.879 -52.024L785.911 -52.6738Z" fill="#00A465"/>
<path d="M777.622 -53.9862L644.736 757.498L648.704 758.148L781.59 -53.3364L777.622 -53.9862Z" fill="#00A465"/>
<path d="M769.327 -55.3006L636.441 756.184L640.41 756.833L773.295 -54.6508L769.327 -55.3006Z" fill="#00A465"/>
<path d="M761.036 -56.6094L628.15 754.875L632.118 755.525L765.004 -55.9596L761.036 -56.6094Z" fill="#00A465"/>
<path d="M752.741 -57.9335L619.855 753.551L623.824 754.201L756.709 -57.2837L752.741 -57.9335Z" fill="#00A465"/>
<path d="M744.444 -59.244L611.559 752.24L615.527 752.89L748.412 -58.5942L744.444 -59.244Z" fill="#00A465"/>
<path d="M736.155 -60.5547L603.27 750.93L607.238 751.579L740.123 -59.9049L736.155 -60.5547Z" fill="#00A465"/>
<path d="M727.866 -61.869L594.98 749.615L598.949 750.265L731.834 -61.2192L727.866 -61.869Z" fill="#00A465"/>
<path d="M719.569 -63.1874L586.684 748.297L590.652 748.947L723.537 -62.5376L719.569 -63.1874Z" fill="#00A465"/>
<path d="M711.274 -64.5039L578.389 746.98L582.357 747.63L715.242 -63.8541L711.274 -64.5039Z" fill="#00A465"/>
<path d="M702.977 -65.8143L570.092 745.67L574.06 746.32L706.946 -65.1645L702.977 -65.8143Z" fill="#00A465"/>
<path d="M694.694 -67.1229L561.809 744.361L565.777 745.011L698.662 -66.4731L694.694 -67.1229Z" fill="#00A465"/>
<path d="M686.399 -68.4473L553.514 743.037L557.482 743.687L690.367 -67.7974L686.399 -68.4473Z" fill="#00A465"/>
<path d="M678.102 -69.7577L545.217 741.727L549.185 742.376L682.071 -69.1079L678.102 -69.7577Z" fill="#00A465"/>
<path d="M669.806 -71.0663L536.92 740.418L540.888 741.068L673.774 -70.4165L669.806 -71.0663Z" fill="#00A465"/>
<path d="M661.517 -72.3848L528.631 739.1L532.599 739.749L665.485 -71.735L661.517 -72.3848Z" fill="#00A465"/>
<path d="M653.227 -73.701L520.342 737.783L524.31 738.433L657.196 -73.0512L653.227 -73.701Z" fill="#00A465"/>
<path d="M644.931 -75.0174L512.045 736.467L516.013 737.117L648.899 -74.3676L644.931 -75.0174Z" fill="#00A465"/>
<path d="M636.634 -76.3281L503.748 735.156L507.716 735.806L640.602 -75.6783L636.634 -76.3281Z" fill="#00A465"/>
<path d="M628.345 -77.6385L495.459 733.846L499.427 734.496L632.313 -76.9887L628.345 -77.6385Z" fill="#00A465"/>
<path d="M620.048 -78.9608L487.162 732.523L491.13 733.173L624.016 -78.311L620.048 -78.9608Z" fill="#00A465"/>
<path d="M611.759 -80.2695L478.873 731.215L482.841 731.865L615.727 -79.6197L611.759 -80.2695Z" fill="#00A465"/>
<path d="M603.464 -81.5878L470.578 729.896L474.546 730.546L607.432 -80.938L603.464 -81.5878Z" fill="#00A465"/>
<path d="M595.173 -82.8963L462.287 728.588L466.255 729.238L599.141 -82.2465L595.173 -82.8963Z" fill="#00A465"/>
<path d="M586.878 -84.2129L453.992 727.271L457.96 727.921L590.846 -83.5631L586.878 -84.2129Z" fill="#00A465"/>
<path d="M578.581 -85.5292L445.695 725.955L449.663 726.605L582.549 -84.8794L578.581 -85.5292Z" fill="#00A465"/>
<path d="M570.284 -86.8397L437.398 724.645L441.367 725.294L574.252 -86.1899L570.284 -86.8397Z" fill="#00A465"/>
<path d="M562.005 -88.1562L429.119 723.328L433.087 723.978L565.973 -87.5064L562.005 -88.1562Z" fill="#00A465"/>
<path d="M553.706 -89.4725L420.82 722.012L424.788 722.662L557.674 -88.8227L553.706 -89.4725Z" fill="#00A465"/>
<path d="M545.409 -90.7831L412.523 720.701L416.492 721.351L549.377 -90.1333L545.409 -90.7831Z" fill="#00A465"/>
<path d="M537.114 -92.0996L404.229 719.385L408.197 720.035L541.082 -91.4498L537.114 -92.0996Z" fill="#00A465"/>
<path d="M528.819 -93.41L395.934 718.074L399.902 718.724L532.787 -92.7602L528.819 -93.41Z" fill="#00A465"/>
<path d="M520.536 -94.7323L387.65 716.752L391.618 717.402L524.504 -94.0825L520.536 -94.7323Z" fill="#00A465"/>
<path d="M512.239 -96.043L379.354 715.441L383.322 716.091L516.207 -95.3931L512.239 -96.043Z" fill="#00A465"/>
<path d="M503.944 -97.3534L371.059 714.131L375.027 714.781L507.912 -96.7036L503.944 -97.3534Z" fill="#00A465"/>
<path d="M495.647 -98.6698L362.762 712.814L366.73 713.464L499.615 -98.02L495.647 -98.6698Z" fill="#00A465"/>
<path d="M487.358 -99.9844L354.473 711.5L358.441 712.15L491.326 -99.3346L487.358 -99.9844Z" fill="#00A465"/>
<path d="M479.069 -101.301L346.184 710.184L350.152 710.833L483.037 -100.651L479.069 -101.301Z" fill="#00A465"/>
<path d="M470.772 -102.613L337.887 708.871L341.855 709.521L474.74 -101.963L470.772 -102.613Z" fill="#00A465"/>
<path d="M462.476 -103.922L329.59 707.562L333.558 708.212L466.444 -103.272L462.476 -103.922Z" fill="#00A465"/>
<path d="M454.186 -105.244L321.301 706.24L325.269 706.89L458.154 -104.594L454.186 -105.244Z" fill="#00A465"/>
<path d="M445.89 -106.555L313.004 704.93L316.972 705.579L449.858 -105.905L445.89 -106.555Z" fill="#00A465"/>
<path d="M437.595 -107.873L304.709 703.611L308.677 704.261L441.563 -107.223L437.595 -107.873Z" fill="#00A465"/>
<path d="M429.304 -109.182L296.418 702.303L300.386 702.953L433.272 -108.532L429.304 -109.182Z" fill="#00A465"/>
<path d="M421.015 -110.498L288.129 700.986L292.097 701.636L424.983 -109.848L421.015 -110.498Z" fill="#00A465"/>
<path d="M412.72 -111.814L279.834 699.67L283.802 700.32L416.688 -111.165L412.72 -111.814Z" fill="#00A465"/>
<path d="M404.423 -113.125L271.537 698.359L275.505 699.009L408.391 -112.475L404.423 -113.125Z" fill="#00A465"/>
<path d="M396.126 -114.441L263.24 697.043L267.208 697.693L400.094 -113.791L396.126 -114.441Z" fill="#00A465"/>
<path d="M387.845 -115.758L254.959 695.727L258.927 696.376L391.813 -115.108L387.845 -115.758Z" fill="#00A465"/>
<path d="M379.548 -117.07L246.662 694.414L250.63 695.064L383.516 -116.42L379.548 -117.07Z" fill="#00A465"/>
<path d="M371.251 -118.385L238.365 693.1L242.333 693.749L375.219 -117.735L371.251 -118.385Z" fill="#00A465"/>
<path d="M362.956 -119.695L230.07 691.789L234.038 692.439L366.924 -119.045L362.956 -119.695Z" fill="#00A465"/>
<path d="M354.667 -121.017L221.781 690.467L225.749 691.117L358.635 -120.368L354.667 -121.017Z" fill="#00A465"/>
<path d="M346.376 -122.328L213.49 689.156L217.458 689.806L350.344 -121.678L346.376 -122.328Z" fill="#00A465"/>
<path d="M338.081 -123.639L205.195 687.846L209.163 688.496L342.049 -122.989L338.081 -123.639Z" fill="#00A465"/>
<path d="M329.786 -124.955L196.9 686.529L200.869 687.179L333.754 -124.305L329.786 -124.955Z" fill="#00A465"/>
<path d="M321.495 -126.271L188.609 685.213L192.577 685.863L325.463 -125.622L321.495 -126.271Z" fill="#00A465"/>
<path d="M313.2 -127.588L180.314 683.896L184.283 684.546L317.168 -126.938L313.2 -127.588Z" fill="#00A465"/>
<path d="M304.909 -128.898L172.023 682.586L175.992 683.236L308.877 -128.248L304.909 -128.898Z" fill="#00A465"/>
<path d="M296.612 -130.209L163.727 681.275L167.695 681.925L300.58 -129.559L296.612 -130.209Z" fill="#00A465"/>
<path d="M288.325 -131.531L155.439 679.953L159.408 680.603L292.293 -130.881L288.325 -131.531Z" fill="#00A465"/>
<path d="M280.028 -132.84L147.143 678.645L151.111 679.294L283.996 -132.19L280.028 -132.84Z" fill="#00A465"/>
<path d="M271.731 -134.156L138.846 677.328L142.814 677.978L275.699 -133.506L271.731 -134.156Z" fill="#00A465"/>
<path d="M263.442 -135.469L130.557 676.016L134.525 676.665L267.41 -134.819L263.442 -135.469Z" fill="#00A465"/>
<path d="M255.153 -136.783L122.268 674.701L126.236 675.351L259.121 -136.133L255.153 -136.783Z" fill="#00A465"/>
<path d="M246.856 -138.101L113.971 673.383L117.939 674.033L250.824 -137.452L246.856 -138.101Z" fill="#00A465"/>
<path d="M238.559 -139.41L105.674 672.074L109.642 672.724L242.528 -138.76L238.559 -139.41Z" fill="#00A465"/>
<path d="M230.265 -140.727L97.3789 670.758L101.347 671.408L234.233 -140.077L230.265 -140.727Z" fill="#00A465"/>
<path d="M221.975 -142.045L89.0898 669.439L93.058 670.089L225.944 -141.395L221.975 -142.045Z" fill="#00A465"/>
<path d="M213.684 -143.351L80.7988 668.133L84.7669 668.783L217.653 -142.702L213.684 -143.351Z" fill="#00A465"/>
<path d="M205.39 -144.67L72.5039 666.814L76.472 667.464L209.358 -144.02L205.39 -144.67Z" fill="#00A465"/>
<path d="M197.093 -145.98L64.207 665.504L68.1751 666.154L201.061 -145.331L197.093 -145.98Z" fill="#00A465"/>
<path d="M188.798 -147.305L55.9121 664.18L59.8802 664.829L192.766 -146.655L188.798 -147.305Z" fill="#00A465"/>
<path d="M180.507 -148.611L47.6211 662.873L51.5892 663.523L184.475 -147.961L180.507 -148.611Z" fill="#00A465"/>
<path d="M172.218 -149.924L39.332 661.561L43.3002 662.21L176.186 -149.274L172.218 -149.924Z" fill="#00A465"/>
<path d="M163.923 -151.246L31.0371 660.238L35.0052 660.888L167.891 -150.596L163.923 -151.246Z" fill="#00A465"/>
<path d="M155.626 -152.557L22.7402 658.928L26.7084 659.578L159.594 -151.907L155.626 -152.557Z" fill="#00A465"/>
<path d="M147.339 -153.873L14.4531 657.611L18.4212 658.261L151.307 -153.223L147.339 -153.873Z" fill="#00A465"/>
<path d="M139.04 -155.184L6.1543 656.301L10.1224 656.951L143.008 -154.534L139.04 -155.184Z" fill="#00A465"/>
<path d="M130.751 -156.5L-2.13477 654.984L1.83335 655.634L134.719 -155.85L130.751 -156.5Z" fill="#00A465"/>
<path d="M122.454 -157.816L-10.4316 653.668L-6.46352 654.318L126.422 -157.166L122.454 -157.816Z" fill="#00A465"/>
<path d="M114.165 -159.127L-18.7207 652.357L-14.7526 653.007L118.133 -158.477L114.165 -159.127Z" fill="#00A465"/>
<path d="M105.868 -160.437L-27.0176 651.047L-23.0495 651.697L109.836 -159.788L105.868 -160.437Z" fill="#00A465"/>
<path d="M97.5731 -161.762L-35.3125 649.723L-31.3444 650.372L101.541 -161.112L97.5731 -161.762Z" fill="#00A465"/>
<path d="M89.2841 -163.07L-43.6016 648.414L-39.6334 649.064L93.2522 -162.42L89.2841 -163.07Z" fill="#00A465"/>
<path d="M80.9931 -164.385L-51.8926 647.1L-47.9245 647.749L84.9612 -163.735L80.9931 -164.385Z" fill="#00A465"/>
<path d="M72.6981 -165.697L-60.1875 645.787L-56.2194 646.437L76.6662 -165.047L72.6981 -165.697Z" fill="#00A465"/>
<path d="M64.4013 -167.012L-68.4844 644.473L-64.5163 645.122L68.3694 -166.362L64.4013 -167.012Z" fill="#00A465"/>
<path d="M56.1044 -168.33L-76.7812 643.154L-72.8132 643.804L60.0725 -167.68L56.1044 -168.33Z" fill="#00A465"/>
<path d="M47.8212 -169.639L-85.0645 641.846L-81.0963 642.496L51.7893 -168.989L47.8212 -169.639Z" fill="#00A465"/>
<path d="M39.5263 -170.957L-93.3594 640.527L-89.3913 641.177L43.4943 -170.307L39.5263 -170.957Z" fill="#00A465"/>
<path d="M31.2294 -172.273L-101.656 639.211L-97.6881 639.861L35.1975 -171.623L31.2294 -172.273Z" fill="#00A465"/>
<path d="M22.9325 -173.582L-109.953 637.902L-105.985 638.552L26.9006 -172.932L22.9325 -173.582Z" fill="#00A465"/>
<path d="M14.6435 -174.898L-118.242 636.586L-114.274 637.236L18.6116 -174.248L14.6435 -174.898Z" fill="#00A465"/>
<path d="M6.34853 -176.209L-126.537 635.275L-122.569 635.925L10.3166 -175.559L6.34853 -176.209Z" fill="#00A465"/>
<path d="M-1.94051 -177.531L-134.826 633.953L-130.858 634.603L2.02761 -176.881L-1.94051 -177.531Z" fill="#00A465"/>
</g>
</svg>
