<svg width="663" height="542" viewBox="0 0 663 542" fill="none" xmlns="http://www.w3.org/2000/svg">
<mask id="mask0_53_108249" style="mask-type:luminance" maskUnits="userSpaceOnUse" x="0" y="0" width="774" height="542">
<path d="M645.419 458.201C642.997 446.617 646.493 446.389 656.306 452.901C662.205 456.819 671.587 453.399 670.226 448.409C668.397 441.733 674.706 441.551 677.245 438.471C678.749 436.649 681.393 436.046 683.209 437.534C685.111 439.097 683.151 440.755 681.595 441.698C678.495 443.583 678.997 446.377 681.38 447.238C691.557 450.927 685.299 453.217 680.826 455.806C679.322 456.672 678.469 457.867 679.029 459.401C682.096 467.747 675.969 469.146 669.009 470.236C667.244 466.974 672.935 466.078 670.728 462.564C667.778 462.98 663.845 462.587 661.508 464.086C658.207 466.195 665.271 468.344 663.071 471.138C659.066 472.66 654.391 469.826 650.387 473.457C660.635 477.55 670.799 472.449 680.69 474.528C676.861 476.197 672.909 476.894 669.002 477.743C667.153 478.148 664.458 478.669 664.952 480.666C665.675 483.6 668.774 482.516 670.532 481.714C675.897 479.26 683.626 480.022 683.62 483.793C683.607 489.421 687.989 488.062 691.055 489.808C684.746 492.15 679.166 494.616 673.586 496.238C666.561 498.282 658.109 500.507 652.366 492.572C649.977 489.269 645.445 490.071 642.776 491.939C638.094 495.219 635.418 493.058 631.765 490.639C620.052 482.891 606.522 481.574 593.031 484.976C585.777 486.803 579.533 488.531 572.944 484.332C573.647 482.921 574.982 482.294 576.577 481.732C579.136 480.824 583.355 482.188 584.111 478.979C585.022 475.096 580.002 476.309 578.016 474.774C574.982 472.432 574.077 469.662 575.054 466.312C576.2 462.371 579.585 464.672 582.073 464.192C584.495 463.723 587.379 464.994 589.404 463.032C588.838 458.775 578.485 459.12 582.04 455.97C586.526 451.987 585.465 445.112 592.725 442.875C595.108 445.803 596.677 451.255 602.283 449.123C607.206 447.249 603.878 442.81 603.605 439.449C614.908 439.818 615.794 444.491 614.192 454.447C613.541 458.505 614.075 461.035 616.243 464.004C622.676 459.132 616.731 452.339 620.586 445.733C622.767 450.769 624.46 454.587 629.89 455.038C634.253 455.401 638.693 457.311 642.619 453.662C643.778 457.849 640.536 461.229 643.7 465.129C646.337 462.757 645.842 460.075 645.452 458.195L645.419 458.201ZM28.9883 305.813C29.099 300.226 32.6801 299.271 36.0529 298.416C41.8217 296.952 40.7083 292.326 40.6302 289.257C40.539 285.743 36.9514 285.087 33.3247 287.09C31.7816 287.945 30.6161 287.699 29.4702 286.024C25.7588 280.595 19.404 280.976 15.0937 283.734C13.5115 284.747 8.69328 292.987 18.3362 295.06C19.6449 295.342 20.2114 296.917 19.1696 297.854C18.4143 298.533 16.8256 299.031 15.7708 298.855C12.3134 298.276 10.295 296.033 8.52399 293.526C7.18922 291.635 5.03405 290.452 2.81377 292.062C0.359086 293.842 3.01562 294.855 4.28528 295.927C7.15667 298.346 7.48873 302.035 4.93639 303.517C-0.747792 306.814 0.443737 311.306 0.613026 315.692C0.769292 319.704 3.86856 318.029 6.01722 317.297C9.10348 316.243 12.1181 315.897 13.3552 319.095C14.6184 322.357 11.1284 322.398 8.79746 323.247C7.39757 323.757 6.37534 325.004 5.09916 325.824C-1.79391 330.24 -1.69842 334.702 5.38564 339.211C5.88049 339.528 6.2386 340.031 6.57717 340.5C14.0649 350.79 15.3737 350.807 25.8044 341.753C29.3269 338.702 32.1527 334.743 37.7197 333.912C40.7539 333.455 40.7604 331.399 40.4674 329.285C39.94 325.449 40.7343 320.992 43.6904 319.007C51.4972 313.754 45.6763 309.613 42.8374 305.666C39.3475 300.806 34.2819 303.675 28.9818 305.819L28.9883 305.813ZM73.42 366.83C76.363 362.801 80.758 359 77.6913 352.687C76.8188 350.889 79.0195 347.996 79.7553 345.595C80.1264 344.383 80.9468 343.393 82.3793 343.662C84.261 344.014 85.2116 345.472 84.1242 346.866C81.2984 350.497 82.5355 353.548 86.0906 355.721C89.7498 357.958 91.6836 354.128 94.4703 353.161C100.057 351.217 97.8626 346.889 98.0124 343.615C98.1686 340.207 94.0406 340.676 92.1329 341.349C86.4682 343.358 83.1801 338.866 78.5703 338.116C75.8356 337.677 75.5036 335.217 76.2523 333.226C76.7016 332.026 77.9452 330.474 79.1823 330.181C83.0955 329.244 81.4352 332.295 82.3662 333.701C83.994 336.16 87.5165 338.655 90.3358 337.443C95.421 335.253 96.7232 329.917 96.0981 325.736C95.2973 320.418 95.0954 312.981 83.5513 317.297C78.5312 319.177 71.6881 320.325 65.5025 317.713C63.8682 317.022 61.3224 316.969 60.4629 319.001C59.8314 320.506 59.61 322.228 61.3419 323.721C63.6208 325.683 65.8281 328.998 67.8009 329.753C79.0912 334.052 69.5134 338.198 68.2307 342.228C67.5926 344.225 65.3984 344.388 63.3929 343.516C60.9903 342.468 61.062 340.512 62.6442 339.329C67.3126 335.844 62.6116 333.912 61.0489 331.645C59.7532 329.765 56.4847 330.257 56.2568 331.645C55.7424 334.702 52.4152 338.356 55.5731 340.816C57.839 342.579 58.7505 342.872 56.3089 344.816C50.8721 349.15 55.4885 354.719 58.1775 355.68C64.9881 358.104 66.6355 364.669 73.42 366.836V366.83ZM550.136 404.639C553.092 402.05 555.175 398.536 557.865 398.162C569.741 396.487 566.589 390.742 563.705 384.534C562.872 382.748 562.403 380.458 562.911 378.654C564.369 373.483 561.283 372.323 556.367 371.744C552.792 371.322 547.942 369.735 546.294 372.259C544.289 375.339 547.818 378.426 551.536 380.399C543.709 387.878 539.966 379.737 533.923 377.957C536.86 381.125 532.185 387.169 541.059 388.422C545.467 389.043 548.059 392.516 544.185 396.633C543.436 397.43 541.47 398.402 541.593 398.618C546.001 406.155 549.856 414.079 555.488 420.878C558.164 424.111 574.142 419.572 575.803 415.982C578.179 410.858 572.807 401.459 566.492 399.099C563.666 398.044 562.305 399.924 560.3 400.557C557.109 401.57 555.364 405.049 550.136 404.639ZM341.416 536.893C335.817 533.033 331.832 530.632 332.692 525.602C328.668 526.954 329.859 530.187 327.834 531.522C325.243 533.232 322.189 534.327 318.901 533.18C316.075 532.196 314.851 530.281 316.297 527.686C321.688 517.988 311.322 514.609 305.684 510.521C303.62 509.022 302.584 509.005 303.301 506.75C303.945 504.729 304.271 502.627 301.061 502.03C299.55 501.749 297.929 501.907 296.36 501.866C296.379 503.781 296.119 505.737 296.464 507.611C297.401 512.706 302.617 514.363 309.694 517.274C304.056 517.426 301.341 517.502 298.639 517.578C298.137 520.764 301.51 520.559 302.812 521.988C304.557 523.903 305.234 530.111 303.646 532.495C302.754 533.836 301.998 536.149 302.734 537.215C304.206 539.341 305.892 538.251 306.712 536.284C307.044 535.481 308.099 534.339 308.457 535.024C311.153 540.155 317.892 536.582 320.223 538.632C328.349 545.783 333.186 538.005 341.41 536.898L341.416 536.893ZM521.969 411.309C519.032 414.061 515.347 416.328 513.693 419.42C512.15 422.301 511.05 423.806 507.423 422.676C505.9 422.202 503.529 421.206 504.597 419.93C506.42 417.745 505.418 413.745 510.47 413.341C512.437 413.183 514.95 415.186 516.63 412.732C504.643 408.299 498.809 410.103 493.418 419.883C489.394 427.174 486.907 427.484 481.379 421.306C480.096 419.871 478.136 417.997 477.166 420.422C475.564 424.451 478.481 428.474 480.083 432.152C480.995 434.248 484.465 434.389 488.15 433.019C499.714 428.714 510.477 422.202 523.968 422.401C525.83 422.43 528.994 419.889 529.326 418.19C529.912 415.203 526.846 416.287 524.586 416.146C520.979 415.918 525.784 412.428 521.956 411.303L521.969 411.309ZM496.087 448.122C502.748 440.251 491.386 443.636 489.225 441.867C485.051 438.453 478.891 442.992 473.246 442.869C470.714 442.816 470.408 447.454 470.772 450.371C471.482 456.028 489.934 465.697 495.84 463.553C497.917 462.798 497.637 461.703 496.999 460.198C495.391 456.432 495.885 452.508 496.087 448.122ZM556.159 346.989C556.855 343.258 564.369 342.069 558.841 337.952C554.257 334.544 550.142 329.162 543.41 330.532C538.767 331.481 538.54 336.57 539.835 339.967C543.319 349.079 557.949 356.148 570.216 354.942C566.524 350.86 563.926 346.122 556.159 346.989ZM230.943 426.729C226.392 421.124 218.253 419.719 222.674 412.258C223.676 410.559 217.667 408.006 214.567 407.783C209.534 407.42 214.339 410.618 213.421 411.76C211.377 414.319 208.786 416.416 205.563 417.962C197.144 422.003 196.857 424.966 202.991 431.144C205.66 433.833 213.135 438.84 200.822 438.84C198.889 438.84 197.45 439.911 198.42 441.534C199.872 443.97 200.868 446.986 204.716 447.601C206.735 447.923 208.616 448.128 209.013 445.604C209.756 440.854 210.628 436.275 207.399 431.695C205.595 429.136 203.85 425.517 206.442 422.875C209.098 420.164 212.92 421.517 216.423 422.711C220.466 424.088 224.699 425.025 230.943 426.723V426.729ZM295.123 481.937C285.87 477.275 280.772 479.055 278.448 489.907C275.837 481.064 269.918 478.101 266.083 473.609C262.548 469.468 257.241 468.854 251.518 469.398C251.257 472.391 251.713 475.893 255.62 475.934C265.009 476.033 266.526 482.51 269.241 487.775C272.008 493.128 276.944 494.686 281.97 490.522C285.681 487.447 288.787 483.846 295.116 481.937H295.123ZM578.733 105.028C578.049 105.543 577.469 106.029 576.962 106.48C577.704 106.228 578.329 105.783 578.733 105.028ZM11.7079 156.072C6.50556 155.902 5.57447 152.376 2.93097 149.6C6.49905 148.599 7.98357 152.628 9.52019 151.515C19.2022 144.529 17.7176 154.971 21.5657 157.038C25.0556 158.918 23.9618 162.994 26.8657 165.178C29.4702 162.976 28.3437 161.073 27.2629 159.433C25.9737 157.477 25.1403 155.925 28.1028 154.596C30.9286 153.331 32.2178 154.204 33.0773 156.669C35.4604 163.539 41.7891 160.318 45.1098 158.889C49.7262 156.903 44.7777 153.565 44.0159 150.824C43.5667 149.202 39.5884 148.728 41.9519 145.876C54.7397 150.549 67.7944 153.881 81.8063 151.152C74.6115 144.546 61.4982 145.724 57.3572 134.567C54.4076 139.937 60.0007 141.694 58.8742 145.501C53.1054 144.254 50.5856 141.589 51.0414 136.588C51.5818 130.614 51.0935 126.644 42.3817 131.674C39.8488 133.138 33.8326 135.768 30.3296 131.159C27.3866 127.288 30.1278 125.232 33.9563 123.106C36.8993 121.472 33.1424 113.824 29.8152 112.325C25.4138 110.345 20.3546 113.631 16.6629 110.662C15.4257 109.666 11.1805 110.064 13.1534 106.867C13.9803 105.526 14.0584 103.277 16.9038 103.675C24.5348 104.741 30.4924 99.1246 37.9932 100.542C38.0974 95.4526 32.0616 98.7849 31.1175 95.7338C35.8315 92.6826 36.0268 84.6652 44.9731 86.5158C45.24 86.5686 46.1255 84.7297 46.5422 83.7165C49.5438 76.4781 57.3637 77.9422 63.2106 77.8777C67.1629 77.8367 65.203 76.8353 66.3164 75.5645C72.0983 68.9409 65.3463 65.9425 61.9605 61.6498C68.2958 58.1126 74.8329 56.3557 83.0043 56.2737C76.9034 50.511 79.2084 43.0149 83.5317 43.296C89.3331 43.6708 97.192 41.135 102.342 46.8215C104.016 48.6663 106.985 51.0966 109.895 49.0586C112.382 47.3193 108.326 45.7381 108.274 44.0573C108.163 40.5962 108.775 37.1175 109.088 33.6447C111.503 37.3986 109.491 42.2067 114.733 44.7191C116.53 45.58 117.748 48.3735 120.306 46.1012C122.221 44.4028 122.012 42.5288 119.662 41.012C117.331 39.5069 115.99 37.7735 118.822 34.3534C124.486 41.2229 132.111 39.7295 139.039 37.2288C145.27 34.98 150.309 34.6169 155.258 40.7895C156.358 35.507 155.518 27.8645 163.416 33.7209C169.068 37.914 169.849 35.2787 172.382 31.8995C173.528 30.3652 172.922 26.336 177.024 27.6947C184.265 30.0899 191.831 25.9026 199.533 29.7093C202.867 31.3549 207.874 29.3345 205.419 35.2611C204.788 36.7779 205.276 38.1131 207.197 38.6753C208.831 39.1555 211.084 39.1965 211.312 37.6036C212.634 28.5848 224.887 26.7635 227.453 18.5939C228.267 16.0054 230.637 13.2061 233.651 15.2675C236.321 17.0947 233.463 19.2557 231.119 20.4562C229.582 21.2468 228.104 22.3654 229.295 23.7592C230.845 25.563 232.733 24.6552 233.983 23.1209C234.706 22.2307 234.817 20.8779 237.2 21.0946C237.102 25.7094 240.807 27.6244 245.065 29.5277C247.383 24.1926 239.323 21.3581 242.78 16.1108C245.534 11.9235 249.656 9.49315 253.693 6.64696C259.201 2.7642 259.826 8.81965 262.906 9.78009C267.626 11.2559 265.458 12.6556 262.834 14.1548C261.649 14.8283 261.239 16.0171 262.489 16.9776C264.11 18.225 265.653 18.0844 267.776 17.2411C273.128 15.127 268.883 10.5356 271.071 7.50783C278.168 14.3832 283.897 15.4022 292.902 12.0524C296.21 10.8225 296.184 5.9969 300.748 6.57083C314.226 8.28088 328.244 6.0906 342.061 12.0407C342.484 7.38486 342.816 3.69536 343.148 0C343.721 5.44641 349.243 7.4317 352.244 10.6644C354.556 13.1475 358.612 13.7214 360.826 11.0626C368.144 2.28982 369.108 8.79038 370.807 13.8151C374.441 14.5765 374.675 4.4684 380.659 11.66C381.128 12.2222 386.154 11.8942 385.998 9.50484C385.783 6.25457 386.486 6.13745 389.527 7.16817C393.57 8.54441 391.441 9.82696 389.794 11.3672C385.64 15.2382 390.061 18.6232 391.988 20.8779C393.935 23.156 397.796 21.7739 399.58 18.5646C400.413 17.0654 401.683 17.1415 403.421 18.4416C410.369 23.6421 416.359 22.5879 420.93 15.8004C423.287 12.3042 425.403 15.8531 427.617 15.9117C429.954 15.9703 431.178 17.7447 431.152 19.4372C431.113 21.932 428.151 20.9013 426.588 21.6216C425.169 22.2775 423.808 23.0213 422.421 23.7299C420.376 24.7841 416.326 23.156 416.248 26.4766C416.209 28.1339 417.876 30.2715 419.491 31.4252C422.186 33.3519 425.038 30.9567 426.275 29.7093C431.1 24.8426 433.008 27.3433 434.688 31.6536C435.313 33.2582 435.716 35.3899 437.898 35.5422C440.632 35.7296 441.7 33.6857 442.091 31.6126C442.377 30.1251 442.905 28.8777 444.878 27.9231C446.974 29.639 448.439 31.6946 451.877 32.942C458.837 35.4719 465.095 40.1921 467.725 47.2432C469.756 52.6896 473.351 56.8593 480.734 56.8476C483.97 56.8476 486.021 58.9207 488.678 59.8226C491.406 60.7538 495.671 58.2648 497.044 62.2471C498.334 65.9952 490.944 62.5751 491.953 66.4871C492.168 67.3129 492.356 68.244 492.916 68.8824C495.996 72.4079 492.376 74.4811 489.999 77.3917C493.554 77.3565 496.335 77.3331 499.252 77.3038C498.633 79.0959 498.002 80.6771 497.546 82.2876C493.945 94.9021 497.109 99.7512 512.228 101.959C516.766 102.621 515.796 106.492 518.98 107.692C521.604 102.744 524.007 98.211 526.292 93.8949C531.508 94.4336 533.07 100.893 539.581 98.1173C549.947 93.6899 557.5 97.6722 559.818 107.651C560.436 110.316 563.438 112.114 566.563 113.074C567.442 113.344 569.038 113.133 568.686 112.167C565.626 103.722 573.035 107.798 576.974 106.463C569.018 113.631 582.327 113.115 582.821 117.391C577.228 118.767 568.718 117.437 569.949 126.064C576.61 127.575 585.999 122.117 589.73 129.636C592.425 135.077 583.98 137.402 580.191 141.366C581.702 135.012 580.595 130.345 571.036 128.254C582.209 137.63 568.191 135.358 566.498 138.702C572.651 143.533 578.713 147.849 587.724 145.706C590.511 145.044 592.907 146.502 593.929 148.804C594.789 150.748 594.392 152.763 592.093 154.057C585.778 157.618 579.592 156.488 573.511 153.495C573.113 153.302 572.892 152.581 572.86 152.095C572.664 148.98 572.332 148.47 570.45 149.472C567.28 151.158 562.644 150.754 560.677 154.28C563.607 157.577 571.733 155.334 571.141 161.659C570.711 166.221 567 168.183 561.804 168.563C558.125 168.833 560.501 170.853 560.905 172.224C561.524 174.344 562.39 175.386 564.532 173.125C567.208 170.303 571.512 170.519 574.136 171.749C577.502 173.325 574.702 175.69 573.25 177.933C571.779 180.2 573.237 182.607 575.249 184.885C581.252 191.69 586.409 183.784 592.132 184.481C597.113 185.09 600.629 181.928 602.973 178.355C608.378 170.104 620.775 168.604 629.356 175.281C630.45 176.136 630.828 177.084 630.528 178.285C624.427 176.592 620.423 184.352 616.64 182.484C608.306 178.367 608.566 185.254 605.005 187.421C600.714 190.033 595.316 190.443 590.251 191.386C590.127 191.409 589.997 191.93 590.075 192.17C592.608 200.029 586.65 197.166 583.18 195.93C579.651 194.671 577.385 196.176 575.177 197.623C572.215 199.573 569.291 201.435 565.443 200.656C560.28 199.614 560.482 203.028 559.727 205.57C558.717 208.949 561.114 209.909 564.363 210.77C566.772 211.408 570.001 211.326 571.056 213.101C569.63 218.225 564.467 211.426 562.989 216.691C565.183 218.454 570.385 216.58 571.043 219.789C573.12 229.897 579.279 221.727 583.434 222.055C584.443 222.131 586.129 217.821 586.624 220.38C587.568 225.264 598.891 224.21 594.281 230.096C590.537 234.869 595.609 234.072 596.82 234.008C600.043 233.838 603.208 232.778 606.392 232.07C598.429 231.537 597.283 225.481 593.89 221.698C593.467 221.229 593.747 219.888 594.248 219.314C594.691 218.805 595.896 218.811 596.768 218.582C598.871 226.723 610.135 223.437 614.309 230.02C614.739 225.036 605.76 221.464 613.092 216.902C618.489 225.048 619.668 225.112 625.684 217.868C627.956 215.127 630.847 214.348 633.966 216.943C635.991 218.623 637.775 220.521 639.969 222.606C632.696 226.547 624.44 227.016 615.351 230.482C621.237 231.923 625.28 233.774 629.161 231.935C635.366 229.007 640.054 231.964 643.889 234.957C646.754 237.2 647.978 240.345 653.057 238.974C654.209 238.664 656.508 241.551 658.285 242.968C645.79 245.428 656.325 252.842 652.738 258.113C656.781 257.029 659.294 256.414 661.755 255.677C664.138 254.962 666.463 253.357 668.872 255.647C661.951 263.284 662.237 267.173 670.689 273.187C675.494 276.607 670.129 277.673 668.24 279.19C671.984 281.275 677.069 277.292 676.737 279.096C675.598 285.263 690.541 282.721 684.186 290.493C693.002 294.815 688.444 303.511 692.579 309.245C696.655 304.273 711.617 301.801 716.377 306.422C719.313 309.28 719.932 308.753 722.894 307.136C725.479 305.725 729.054 305.42 732.257 305.174C738.495 304.694 745.169 304.191 742.376 313.034C746.484 312.852 748.952 310.105 752.937 310.41C758.608 310.843 761.427 313.496 759.415 318.164C758.484 320.325 759.93 320.828 761.538 320.905C765.868 321.104 769.123 324.746 774 323.446C771.07 325.929 767.801 327.698 764.364 325.982C761.941 324.77 760.372 322.105 757.019 322.433C748.158 323.3 739.732 321.449 731.769 318.515C723.259 315.376 718.955 324.29 711.389 323.048C714.443 330.901 705.302 327.61 702.039 329.882C704.683 332.447 706.825 334.532 709.657 337.279C703.921 338.239 702.372 342.965 698.048 345.156C696.726 339.399 693.979 336.945 688.177 340.974C686.139 342.392 682.33 342.86 683.04 340.986C686.159 332.717 676.887 337.455 675.012 334.614C677.538 332.559 681.504 336.4 683.926 332.518C680.384 329.232 678.144 323.112 671.236 329.759C669.367 331.557 666.938 329.396 664.816 329.408C654.17 329.461 642.645 327.903 637.651 339.545C636.844 341.437 634.611 341.741 632.775 340.67C631.186 339.744 632.195 338.222 632.136 336.992C631.778 329.408 637.352 327.487 645.699 326.574C636.74 320.553 627.325 323.698 617.753 321.806C621.999 319.019 624.199 316.442 628.113 316.829C626.791 314.439 625.983 311.95 622.005 311.212C618.639 310.592 618.235 308.378 619.941 305.303C621.934 301.713 625.808 302.557 628.926 302.094C627.566 298.065 623.711 299.125 621.445 297.749C606.841 288.864 591.117 283.992 573.146 287.266C570.776 287.699 567.449 287.699 567.006 290.58C566.583 293.327 569.682 295.295 571.635 295.482C579.839 296.284 578.882 301.702 580.901 306.644C574.598 306.17 574.474 296.214 565.977 301.461C560.3 304.969 569.825 306.328 565.098 309.66C556.198 301.842 541.606 318.023 533.318 303.066C532.712 305.924 532.256 308.073 531.475 311.775C530.557 307.201 525.257 309.209 525.107 306.381C524.573 295.793 521.917 294.252 511.655 299.283C509.682 300.249 507.762 302.334 506.459 298.955C505.665 296.894 504.988 294.82 501.973 295.793C498.907 296.782 495.911 298.346 495.898 301.731C495.866 311.47 489.303 310.012 482.088 308.354C482.961 305.479 485.097 304.934 487.493 304.782C492.604 304.454 493.483 301.262 494.049 297.696C494.284 296.226 494.935 294.85 492.545 294.393C488.463 293.614 486.386 295.646 483.814 298.094C481.698 300.103 479.074 304.536 474.321 298.732C471.267 295.002 464.932 295.605 459.189 299.324C464.124 301.122 468.207 302.199 471.729 304.079C473.37 304.952 473.976 307.359 474.861 309.139C474.933 309.286 473.598 310.334 472.934 310.316C471.404 310.275 469.444 307.535 468.539 310.603C467.966 312.53 470.766 312.934 471.833 314.047C476.821 319.241 482.466 312.337 488.307 314.925C482.551 317.713 479.985 320.026 487.271 322.984C489.726 323.979 492.005 326.392 490.266 329.396C489.772 330.257 487.558 331.452 487.48 330.732C486.985 326.246 480.702 328.125 479.308 324.483C476.137 316.231 469.49 316.231 461.683 319.329C457.789 320.869 453.798 323.464 449.683 319.136C448.745 318.146 445.926 318.755 446.421 320.653C448.856 330.011 439.838 328.834 434.343 330.919C439.239 328.992 441.622 325.724 435.899 323.194C428.769 320.038 433.509 318.041 436.042 316.202C440.138 313.221 441.069 311.001 434.935 309.813C429.407 308.741 433.294 307.142 433.718 305.098C434.011 303.699 430.54 302.838 428.118 302.873C424.329 302.931 421.132 303.611 419.309 307.002C416.32 312.571 421.815 324.307 428.593 326.456C420.852 333.373 410.662 334.251 400.452 334.673C397.34 334.802 395.491 338.632 391.916 336.482C391.005 339.592 394.638 339.955 396.012 341.683C397.952 344.125 398.61 347.229 397.633 349.811C394.84 357.19 390.699 363.673 380.848 365.717C377.364 366.438 372.045 365.94 371.634 370.496C371.107 376.37 367.142 374.789 363.574 373.752C362.291 373.383 360.761 370.935 359.765 372.37C354.764 379.562 355.337 372.558 354.829 370.801C354.204 368.622 352.414 367.392 350.91 366.045C349.399 364.693 347.009 362.977 345.277 363.176C342.432 363.498 343.5 366.397 343.213 368.218C342.334 373.752 342.96 379.778 340.635 384.768C340.987 386.045 338.376 387.234 336.891 387.48C335.407 387.726 333.785 387.567 332.483 388.217C329.657 389.635 330.517 393.435 332.379 395.784C333.597 397.318 335.166 399.122 334.345 400.838C333.968 401.623 333.16 402.167 332.386 402.677C328.694 405.101 324.813 407.602 320.249 408.299C315.685 408.996 310.254 407.256 308.724 403.438C308.203 402.138 308.112 400.615 306.979 399.649C305.371 398.273 302.448 398.94 301.139 400.528C299.83 402.115 299.758 404.223 299.973 406.167C294.165 405.16 287.83 407.069 283.995 410.975C282.712 407.098 281.495 402.718 283.806 399.239C284.418 398.326 285.252 397.517 285.714 396.539C286.183 395.561 285.642 393.705 284.724 393.002C285.408 390.835 285.278 388.487 285.675 386.244C285.981 384.534 285.401 383.556 283.364 383.24C281.007 382.876 281.072 384.2 280.564 385.652C278.083 392.662 275.322 399.596 272.692 406.565C271.644 409.353 270.244 412.838 266.526 412.135C262.469 411.368 263.407 407.602 262.964 404.516C262.098 398.513 267.255 392.416 261.232 386.302C257.84 382.859 250.854 379.784 254.643 373.102C255.307 371.931 253.894 370.619 252.071 369.992C248.744 368.851 224.77 373.735 224.451 376.405C223.338 385.717 215.785 378.882 211.839 380.669C207.444 382.66 204.286 387.661 197.853 384.68C196.688 384.141 194.585 385.336 194.305 383.029C193.634 377.53 187.247 377.149 184.727 374.086C181.914 375.351 186.511 377.617 181.413 378.759C183.633 371.714 175.651 370.906 172.096 367.31C173.814 365.261 178.249 366.994 177.689 364.183C176.66 359.024 171.698 356.335 166.88 353.835C164.842 357.313 156.15 356.084 158.572 362.707C160.408 367.738 155.264 367.931 152.497 368.177C149.645 368.429 147.204 366.244 147.894 362.971C148.428 360.453 148.792 357.905 149.411 355.404C149.795 353.847 153.663 352.552 149.841 350.766C148.747 350.257 147.119 349.712 146.162 350.063C143.564 351.018 143.479 353.237 144.274 355.193C145.537 358.321 144.436 360.64 141.721 362.777C140.699 360.523 141.038 357.22 136.897 357.401C136.031 357.442 134.383 359.299 134.572 359.586C137.229 363.615 127.696 363.34 130.802 367.995C131.414 368.915 126.785 368.417 126.59 367.252C125.789 362.502 123.341 363.205 119.102 364.025C115.592 364.704 111.679 362.936 109.198 359.164C116.51 359.293 121.27 351.106 129.611 355.557C130.509 356.037 131.584 355.024 131.225 354.174C127.872 346.28 135.028 343.674 140.406 340.283C142.737 338.813 142.021 335.622 141.259 336.131C134.885 340.394 132.606 333.127 129.207 333.279C125.756 333.431 124.246 334.714 125.567 330.896C128.107 323.563 124.148 320.957 115.638 321.496C118.672 318.99 126.173 318.978 123.275 316.424C116.367 310.334 123.393 310.117 126.381 308.384C128.823 306.966 132.476 306.334 130.665 302.967C127.488 297.052 132.358 294.018 136.07 290.756C137.417 289.567 140.074 288.8 138.635 287.061C133.915 281.351 140.647 280.121 142.6 276.736C146.273 279.881 142.711 286.258 146.995 286.393C156.508 286.692 156.651 291.447 156.371 297.626C158.67 293.807 164.718 291.143 159.301 286.176C161.762 285.005 158.09 279.957 163.032 281.023C164.797 281.403 165.506 282.932 166.88 280.724C168.072 278.809 168.13 277.579 165.298 277.04C164.308 276.853 162.173 277.175 163.566 275.284C164.237 274.37 164.998 273.714 166.717 274.675C170.051 276.543 172.616 279.114 176.152 283.231C175.722 277.72 178.457 274.481 172.33 271.284C169.452 269.784 162.095 263.009 169.543 257.176C170.696 256.274 171.425 255.425 170.045 254.494C164.673 250.874 162.029 242.793 151.677 246.365C153.077 247.876 154.398 249.299 155.714 250.734C157.309 252.467 158.422 245.445 159.946 250.523C160.532 252.461 157.784 254.294 156.443 253.861C151.006 252.098 142.034 268.238 139.638 251.372C139.566 250.868 137.164 250.043 136.148 250.295C132.033 251.314 132.124 246.634 127.553 245.768C132.664 252.766 128.888 253.89 122.663 254.043C120.43 254.101 117.982 257.551 115.879 255.331C113.437 252.76 116.198 250.634 118.815 249.211C121.797 247.589 122.084 245.516 119.512 243.73C115.996 241.287 115.573 245.094 113.919 246.295C111.035 248.391 111.262 253.908 103.964 252.18C112.161 247.407 106.692 241.528 103.312 239.741C90.4921 232.96 78.0038 242.974 64.9361 241.885C64.2068 241.826 62.6246 243.443 62.5986 244.309C62.4944 248.04 57.9952 248.625 56.2177 251.425C53.6198 255.495 46.2362 251.185 42.2319 254.851C41.0469 251.723 41.724 249.059 44.335 246.587C46.4315 244.602 43.7946 242.564 42.7137 243.302C40.0702 245.112 34.9134 240.614 35.6883 243.964C36.9449 249.369 30.258 252.204 33.4549 257.615C28.4219 256.321 29.1902 251.495 24.9384 251.12C23.3563 252.889 24.5217 254.259 25.6091 255.729C27.1066 257.756 30.0562 261.023 26.8136 261.99C23.7534 262.903 23.2586 267.94 19.2347 265.673C16.4219 264.086 13.4334 262.16 14.4686 258.142C15.4843 254.224 11.467 251.378 10.3536 247.823C9.78714 246.008 7.22178 244.005 10.1453 242.705C16.2461 239.987 11.5191 236.38 11.441 232.749C14.996 232.825 19.5928 238.822 21.6634 231.074C22.933 226.324 26.8788 222.483 32.2699 229.393C33.8326 226.483 33.6633 224.556 32.1592 222.336C27.8945 216.035 30.4794 211.982 38.2211 210.278C40.1483 209.856 41.5873 207.842 41.4375 207.754C34.8874 203.924 39.2954 198.261 38.0388 193.611C37.5309 191.731 35.3367 190.601 33.468 191.596C26.0909 195.514 25.6351 191.942 25.6026 186.73C25.5896 184.592 21.6959 182.671 26.9243 180.715C29.2097 179.86 24.7236 176.557 24.1376 177.242C19.6905 182.466 14.677 173.524 9.82621 177.957C8.40028 179.257 6.51206 175.146 7.87939 173.969C9.76761 172.347 12.4502 169.559 15.3932 170.9C20.6672 173.301 25.9607 171.86 31.5277 172.879C29.646 167.445 25.57 167.773 21.0513 167.825C17.0145 167.872 11.5386 167.989 15.0611 161.653C16.4545 159.14 15.8945 156.206 11.7079 156.066V156.072ZM632.638 319.323C637.918 312.425 647.197 310.193 653.604 304.659C655.733 302.82 660.199 303.025 663.728 302.27C663.552 297.901 659.086 297.602 656.227 295.705C654.177 294.34 650.133 293.936 651.077 290.317C651.826 287.447 654.645 286.815 657.836 286.212C655.199 282.018 650.771 284.256 646.37 282.522C650.823 289.889 643.759 294.012 643.179 300.583C638.986 298.135 635.613 293.831 631.16 298.498C631.271 300.712 633.686 300.583 635.203 301.432C640.809 304.565 640.92 308.84 634.923 310.621C630.912 311.81 629.825 314.269 628.347 316.875C628.367 316.875 628.386 316.875 628.412 316.881C627.715 320.612 630.958 321.514 632.631 319.323H632.638ZM515.953 253.551C520.999 254.441 521.949 256.163 515.315 259.097C520.869 260.004 524.358 255.653 526.559 259.044C528.552 262.118 531.84 266.359 524.463 269.773C534.496 269.509 540.617 271.881 542.7 280.502C542.856 273.07 550.025 268.338 549.107 261.252C549.003 260.467 550.266 259.343 551.21 258.775C551.666 258.499 553.339 258.927 553.626 259.407C554.492 260.859 555.859 262.575 554.336 264.145C546.366 272.326 551.718 272.777 560.091 271.998C561.83 271.834 565.261 272.9 565.352 273.632C566.381 281.644 574.624 277.486 578.231 279.822C587.542 285.86 590.186 278.276 596.241 275.653C591.201 273.175 583.44 277.568 583.245 269.023C583.167 265.749 578.726 269.615 576.577 267.987C580.412 262.956 586.565 263.102 592.764 262.687C588.76 261.632 586.181 258.898 581.474 259.085C574.364 259.366 560.098 246.997 558.945 240.743C558.756 239.73 558.646 238.166 557.93 237.85C552.278 235.384 552.239 235.46 556.048 230.851C550.474 234.869 542.974 234.845 537.016 238.178C537.452 238.986 537.569 239.706 538.006 239.917C540.232 240.977 544.439 239.782 543.833 243.987C543.657 245.211 542.147 246.74 541.873 246.172C540.102 242.547 533.832 246.628 533.051 242.049C532.432 238.412 530.368 235.9 526.149 234.383C527.113 239.911 523.558 243.765 517.177 244.795C514.37 245.246 512.385 246.869 511.629 249.147C510.627 252.186 513.114 253.047 515.953 253.545V253.551ZM465.544 231.425C465.57 232.685 466.514 233.668 467.966 233.581C472.367 233.311 474.978 235.923 478.097 237.92C485.142 242.429 487.056 242.47 497.142 237.668C491.666 242.236 492.135 245.159 494.928 248.18C496.296 249.662 498.451 251.126 499.551 249.896C502.064 247.079 509.389 247.94 507.664 241.973C506.427 237.703 508.771 238.64 511.519 239.946C513.544 240.913 515.282 240.304 516.682 238.851C517.632 237.867 517.704 236.784 516.793 235.777C515.178 234.002 513.14 235.062 511.388 235.408C506.153 236.444 501.478 236.954 499.714 230.887C499.414 229.85 497.188 228.521 495.879 228.532C486.614 228.632 477.355 229.03 468.096 229.387C466.735 229.44 465.511 230.043 465.537 231.42L465.544 231.425ZM469.952 127.961C470.688 130.087 473.071 132.289 475.389 133.373C478.52 134.831 479.113 132.576 478.878 130.298C485.136 129.993 492.76 127.563 497.357 129.824C506.668 134.409 504.545 128.026 505.75 124.705C510.197 126.819 514.344 128.781 518.485 130.749C520.999 131.944 522.874 131.012 524.443 129.355C525.589 128.149 525.543 126.831 524.769 125.402C523.336 122.767 521.656 123.522 519.527 124.746C517.776 125.753 515.861 126.046 515.191 123.493C513.381 116.6 506.765 116.577 500.775 116.196C497.116 115.967 493.19 115.651 491.341 113.104C488.391 109.039 494.336 109.549 495.905 107.716C496.621 106.878 497.057 105.567 496.934 104.524C496.68 102.375 494.648 103.13 493.183 103.212C489.426 103.423 485.67 103.698 482.238 103.927C480.702 106.527 488.866 107.704 482.824 110.345C482.401 110.527 482.023 111.358 482.134 111.786C484.263 120.09 484.328 120.161 474.516 124.699C472.602 125.584 469.105 125.502 469.958 127.967L469.952 127.961ZM379.806 272.203C383.458 272.783 384.194 270.23 384.891 267.36C386.675 260.004 396.298 263.542 400.661 259.46C400.719 259.407 402.432 260.221 402.542 260.754C403.343 264.672 404.672 268.865 410.265 265.761C415.037 263.114 419.953 259.419 416.339 253.07C413.533 248.139 410.069 244.303 402.862 245.258C399.866 245.656 399.678 247.858 399.261 249.744C397.692 256.807 392.633 260.567 384.598 260.198C378.751 259.928 379.083 263.161 377.768 266.054C381.883 267.776 374.766 271.413 379.806 272.209V272.203ZM314.239 117.578C315.6 118.568 323.387 115.107 325.842 112.173C329.67 107.61 322.176 104.741 320.581 100.431C325.679 100.202 327.144 105.145 332.086 105.461C331.324 102.597 330.654 100.091 329.989 97.5961C330.1 97.6488 330.204 97.7073 330.302 97.7659C330.23 97.6605 330.165 97.5551 330.094 97.4497C334.176 98.0119 336.461 103.851 341.801 100.641C349.497 96.009 358.274 92.2844 361.047 83.4471C361.848 80.9055 361.184 78.9787 358.378 77.7665C355.767 76.6362 353.696 76.4546 351.834 79.1076C349.445 82.516 346.436 85.2919 342.061 80.6302C340.974 79.4707 339.489 79.7108 338.955 80.9055C338.571 81.7546 338.871 83.166 339.489 83.9566C340.655 85.4441 345.245 85.5378 341.495 88.7588C338.005 91.7514 336.618 88.302 334.495 87.2362C332.9 86.4397 331.474 85.3914 329.169 83.9508C328.056 89.1746 327.444 93.3853 330.107 97.4438C330.055 97.4379 330.002 97.4262 329.95 97.4204C329.963 97.479 329.983 97.5316 329.996 97.5902C328.388 96.8172 325.542 96.6473 326.037 94.8494C328.498 85.8834 319.708 83.4647 314.233 79.336C312.468 78.0066 309.766 75.4825 306.569 77.5791C302.369 80.3433 308.229 81.8191 308.073 82.0006C300.104 91.2829 318.198 96.0617 312.351 104.536C309.649 103.833 307.643 100.149 303.027 100.237C302.669 108.061 308.379 113.303 314.246 117.572L314.239 117.578ZM272.008 215.59C282.966 221.956 278.91 230.471 276.716 238.793C276.371 240.099 278.2 240.444 279.392 240.678C281.391 241.071 283.337 240.784 284.816 239.478C290.675 234.283 288.729 211.678 281.495 208.182C275.368 205.224 276.13 213.206 271.878 213.411C271.93 214.553 271.709 215.408 272.008 215.584V215.59ZM200.074 124.067C201.448 122.158 203.466 122.79 205.335 122.767C207.75 122.737 207.177 124.658 207.952 125.753C210.029 128.676 201.083 127.294 205.497 129.677C210.615 132.441 215.974 134.62 219.509 139.077C220.974 138.017 222.661 137.126 223.846 135.867C225.675 133.911 222.68 133.25 221.944 133.091C217.589 132.172 218.357 126.503 213.011 126.052C212.145 125.976 209.625 120.184 212.536 117.016C214.685 114.679 214.665 112.003 214.261 108.653C219.047 110.293 220.818 113.203 220.304 116.6C219.653 120.887 216.169 115.464 214.229 117.754C215.844 120.91 217.706 124.178 219.164 127.575C220.082 129.718 221.892 130.011 223.833 129.736C231.6 128.623 239.642 124.84 246.348 132.113C246.973 132.793 248.086 132.254 248.51 131.329C251.674 124.442 258.934 127.862 264.605 126.649C264.247 123.276 259.259 122.55 259.064 119.036C258.999 117.8 256.883 117.262 255.001 117.496C251.876 117.882 256.733 123.223 251.804 121.66C249.324 120.875 253.556 117.473 250.919 115.809C246.309 112.905 240.273 111.634 237.656 106.474C236.633 104.454 234.055 102.428 237.604 100.811C241.198 99.1773 243.294 94.0823 247.605 95.3414C255.906 97.76 264.208 101.327 270.185 106.767C273.46 109.742 278.311 115.476 271.058 120.377C269.625 121.344 268.85 123.059 266.571 125.958C273.551 123.364 278.669 121.273 284.49 120.43C291.502 119.417 295.565 109.192 293.84 100.062C292.056 90.6387 286.15 83.5233 276.937 78.3931C275.498 77.5908 273.864 76.5718 272.542 77.7138C267.385 82.1646 266.103 77.3272 264.208 74.9906C261.603 71.7696 260.803 67.307 254.396 72.4079C250.789 75.2775 244.948 70.8443 239.655 70.9848C232.369 71.1839 230.982 73.954 233.573 78.6859C235.377 81.983 232.649 86.4397 237.669 89.0458C238.502 89.4792 235.728 91.3591 233.117 90.5919C227.179 88.8584 223.116 91.5699 223.676 96.7996C224.054 100.331 221.73 102.726 218.533 101.643C211.689 99.3237 212.445 103.148 210.817 106.685C208.577 111.546 209.945 119.206 198.29 118.105C193.426 117.642 197.801 125.15 194.865 129.437C199.585 128.195 198.934 125.66 200.08 124.067H200.074ZM140.549 139.135C137.828 128.974 130.066 125.144 125.203 119.452C124.239 118.322 120.84 118.058 123.393 115.938C125.092 114.527 127.143 115.388 128.387 116.957C130.405 119.505 132.111 122.339 137.45 121.742C131.701 111.113 129.585 111.856 116.243 113.56C107.05 114.732 107.818 117.59 112.259 120.775C120.697 126.831 131.238 130.421 140.549 139.135ZM95.3363 154.918C98.5007 151.299 90.1796 148.576 92.5691 148.751C98.8979 149.22 104.152 143.123 109.7 146.415C116.706 150.573 123.497 144.822 130.281 147.199C130.828 147.393 135.08 143.58 133.778 142.274C131.401 139.891 132.339 134.971 127.306 134.872C117.669 134.673 112.897 127.358 107.291 122.931C96.2674 114.222 88.1806 114.685 81.8649 126.181C77.0206 134.995 75.8747 142.889 81.9365 151.141C81.9951 151.129 82.0537 151.117 82.1188 151.106C85.9083 154.174 90.3358 155.451 95.3363 154.93V154.918Z" fill="white"/>
</mask>
<g mask="url(#mask0_53_108249)">
<path d="M789.652 -49.6246L660.113 661.874L663.981 662.444L793.52 -49.0549L789.652 -49.6246Z" fill="#4DDD5E"/>
<path d="M781.566 -50.7798L652.027 660.719L655.896 661.288L785.434 -50.21L781.566 -50.7798Z" fill="#4DDD5E"/>
<path d="M773.478 -51.9272L643.939 659.571L647.808 660.141L777.346 -51.3575L773.478 -51.9272Z" fill="#4DDD5E"/>
<path d="M765.39 -53.0768L635.852 658.422L639.72 658.992L769.258 -52.507L765.39 -53.0768Z" fill="#4DDD5E"/>
<path d="M757.316 -54.2368L627.777 657.262L631.645 657.831L761.184 -53.6671L757.316 -54.2368Z" fill="#4DDD5E"/>
<path d="M749.228 -55.3852L619.689 656.113L623.558 656.683L753.096 -54.8155L749.228 -55.3852Z" fill="#4DDD5E"/>
<path d="M741.142 -56.5396L611.604 654.959L615.472 655.529L745.01 -55.9699L741.142 -56.5396Z" fill="#4DDD5E"/>
<path d="M733.054 -57.6938L603.516 653.805L607.384 654.374L736.922 -57.1241L733.054 -57.6938Z" fill="#4DDD5E"/>
<path d="M724.972 -58.8423L595.434 652.656L599.302 653.226L728.84 -58.2725L724.972 -58.8423Z" fill="#4DDD5E"/>
<path d="M716.886 -59.9967L587.348 651.502L591.216 652.072L720.754 -59.4269L716.886 -59.9967Z" fill="#4DDD5E"/>
<path d="M708.805 -61.1402L579.268 650.353L583.136 650.922L712.673 -60.5705L708.805 -61.1402Z" fill="#4DDD5E"/>
<path d="M700.72 -62.3061L571.182 649.192L575.05 649.762L704.588 -61.7364L700.72 -62.3061Z" fill="#4DDD5E"/>
<path d="M692.638 -63.4537L563.1 648.045L566.968 648.615L696.506 -62.884L692.638 -63.4537Z" fill="#4DDD5E"/>
<path d="M684.55 -64.602L555.012 646.896L558.88 647.466L688.418 -64.0323L684.55 -64.602Z" fill="#4DDD5E"/>
<path d="M676.464 -65.7563L546.926 645.742L550.794 646.312L680.332 -65.1866L676.464 -65.7563Z" fill="#4DDD5E"/>
<path d="M668.373 -66.9059L538.836 644.587L542.704 645.157L672.241 -66.3361L668.373 -66.9059Z" fill="#4DDD5E"/>
<path d="M660.304 -68.0649L530.766 643.434L534.634 644.003L664.172 -67.4952L660.304 -68.0649Z" fill="#4DDD5E"/>
<path d="M652.214 -69.2143L522.676 642.284L526.544 642.854L656.082 -68.6446L652.214 -69.2143Z" fill="#4DDD5E"/>
<path d="M644.126 -70.3619L514.588 641.137L518.456 641.706L647.994 -69.7922L644.126 -70.3619Z" fill="#4DDD5E"/>
<path d="M636.04 -71.5229L506.502 639.976L510.37 640.545L639.909 -70.9532L636.04 -71.5229Z" fill="#4DDD5E"/>
<path d="M627.953 -72.6666L498.416 638.826L502.284 639.396L631.821 -72.0968L627.953 -72.6666Z" fill="#4DDD5E"/>
<path d="M619.874 -73.8248L490.336 637.674L494.204 638.244L623.743 -73.2551L619.874 -73.8248Z" fill="#4DDD5E"/>
<path d="M611.792 -74.9751L482.254 636.523L486.122 637.093L615.66 -74.4053L611.792 -74.9751Z" fill="#4DDD5E"/>
<path d="M603.704 -76.1294L474.166 635.369L478.034 635.939L607.573 -75.5596L603.704 -76.1294Z" fill="#4DDD5E"/>
<path d="M595.618 -77.2838L466.08 634.215L469.948 634.785L599.487 -76.714L595.618 -77.2838Z" fill="#4DDD5E"/>
<path d="M587.535 -78.4263L457.998 633.066L461.866 633.636L591.404 -77.8566L587.535 -78.4263Z" fill="#4DDD5E"/>
<path d="M579.45 -79.5864L449.912 631.912L453.78 632.482L583.319 -79.0167L579.45 -79.5864Z" fill="#4DDD5E"/>
<path d="M571.363 -80.7408L441.824 630.758L445.692 631.328L575.231 -80.1711L571.363 -80.7408Z" fill="#4DDD5E"/>
<path d="M563.283 -81.8891L433.744 629.609L437.612 630.179L567.151 -81.3194L563.283 -81.8891Z" fill="#4DDD5E"/>
<path d="M555.202 -83.0434L425.664 628.455L429.532 629.025L559.071 -82.4737L555.202 -83.0434Z" fill="#4DDD5E"/>
<path d="M547.114 -84.192L417.576 627.301L421.444 627.871L550.982 -83.6223L547.114 -84.192Z" fill="#4DDD5E"/>
<path d="M539.027 -85.3471L409.488 626.151L413.356 626.721L542.895 -84.7774L539.027 -85.3471Z" fill="#4DDD5E"/>
<path d="M530.939 -86.5014L401.4 624.997L405.269 625.567L534.807 -85.9317L530.939 -86.5014Z" fill="#4DDD5E"/>
<path d="M522.859 -87.649L393.32 623.85L397.188 624.419L526.727 -87.0793L522.859 -87.649Z" fill="#4DDD5E"/>
<path d="M514.773 -88.8091L385.234 622.689L389.103 623.259L518.641 -88.2393L514.773 -88.8091Z" fill="#4DDD5E"/>
<path d="M506.69 -89.9527L377.152 621.54L381.02 622.11L510.558 -89.383L506.69 -89.9527Z" fill="#4DDD5E"/>
<path d="M498.605 -91.107L369.066 620.392L372.935 620.961L502.473 -90.5373L498.605 -91.107Z" fill="#4DDD5E"/>
<path d="M490.525 -92.2602L360.986 619.238L364.854 619.808L494.393 -91.6905L490.525 -92.2602Z" fill="#4DDD5E"/>
<path d="M482.437 -93.4155L352.898 618.083L356.767 618.653L486.305 -92.8458L482.437 -93.4155Z" fill="#4DDD5E"/>
<path d="M474.349 -94.5698L344.811 616.929L348.679 617.498L478.217 -94.0001L474.349 -94.5698Z" fill="#4DDD5E"/>
<path d="M466.262 -95.7125L336.725 615.78L340.593 616.35L470.13 -95.1427L466.262 -95.7125Z" fill="#4DDD5E"/>
<path d="M458.189 -96.8657L328.65 614.633L332.519 615.203L462.057 -96.296L458.189 -96.8657Z" fill="#4DDD5E"/>
<path d="M450.101 -98.0268L320.562 613.472L324.431 614.041L453.969 -97.4571L450.101 -98.0268Z" fill="#4DDD5E"/>
<path d="M442.013 -99.1762L312.475 612.322L316.343 612.892L445.881 -98.6065L442.013 -99.1762Z" fill="#4DDD5E"/>
<path d="M433.927 -100.33L304.389 611.169L308.257 611.739L437.795 -99.7598L433.927 -100.33Z" fill="#4DDD5E"/>
<path d="M425.844 -101.478L296.307 610.015L300.175 610.584L429.712 -100.908L425.844 -101.478Z" fill="#4DDD5E"/>
<path d="M417.757 -102.633L288.219 608.865L292.087 609.435L421.625 -102.064L417.757 -102.633Z" fill="#4DDD5E"/>
<path d="M409.679 -103.788L280.141 607.711L284.009 608.281L413.547 -103.218L409.679 -103.788Z" fill="#4DDD5E"/>
<path d="M401.591 -104.936L272.053 606.562L275.921 607.132L405.459 -104.366L401.591 -104.936Z" fill="#4DDD5E"/>
<path d="M393.511 -106.096L263.973 605.402L267.841 605.972L397.379 -105.526L393.511 -106.096Z" fill="#4DDD5E"/>
<path d="M385.422 -107.239L255.885 604.254L259.753 604.824L389.29 -106.669L385.422 -107.239Z" fill="#4DDD5E"/>
<path d="M377.335 -108.394L247.797 603.104L251.665 603.674L381.203 -107.824L377.335 -108.394Z" fill="#4DDD5E"/>
<path d="M369.247 -109.547L239.709 601.951L243.577 602.521L373.116 -108.978L369.247 -109.547Z" fill="#4DDD5E"/>
<path d="M361.165 -110.702L231.627 600.797L235.495 601.367L365.034 -110.132L361.165 -110.702Z" fill="#4DDD5E"/>
<path d="M353.087 -111.856L223.549 599.643L227.417 600.212L356.955 -111.286L353.087 -111.856Z" fill="#4DDD5E"/>
<path d="M344.998 -113L215.461 598.493L219.329 599.063L348.866 -112.43L344.998 -113Z" fill="#4DDD5E"/>
<path d="M336.911 -114.154L207.373 597.345L211.241 597.914L340.78 -113.584L336.911 -114.154Z" fill="#4DDD5E"/>
<path d="M328.827 -115.314L199.289 596.185L203.157 596.754L332.696 -114.744L328.827 -115.314Z" fill="#4DDD5E"/>
<path d="M320.745 -116.462L191.207 595.037L195.075 595.607L324.614 -115.892L320.745 -116.462Z" fill="#4DDD5E"/>
<path d="M312.658 -117.617L183.119 593.882L186.987 594.452L316.526 -117.047L312.658 -117.617Z" fill="#4DDD5E"/>
<path d="M304.576 -118.759L175.039 592.733L178.907 593.303L308.445 -118.19L304.576 -118.759Z" fill="#4DDD5E"/>
<path d="M296.49 -119.92L166.951 591.579L170.819 592.149L300.358 -119.35L296.49 -119.92Z" fill="#4DDD5E"/>
<path d="M288.409 -121.074L158.871 590.425L162.739 590.995L292.278 -120.504L288.409 -121.074Z" fill="#4DDD5E"/>
<path d="M280.322 -122.222L150.783 589.276L154.651 589.846L284.19 -121.652L280.322 -122.222Z" fill="#4DDD5E"/>
<path d="M272.236 -123.382L142.697 588.116L146.565 588.686L276.104 -122.813L272.236 -123.382Z" fill="#4DDD5E"/>
<path d="M264.147 -124.526L134.609 586.967L138.478 587.537L268.015 -123.956L264.147 -124.526Z" fill="#4DDD5E"/>
<path d="M256.072 -125.679L126.533 585.819L130.401 586.389L259.94 -125.109L256.072 -125.679Z" fill="#4DDD5E"/>
<path d="M247.988 -126.835L118.449 584.664L122.317 585.234L251.856 -126.265L247.988 -126.835Z" fill="#4DDD5E"/>
<path d="M239.9 -127.989L110.361 583.51L114.229 584.079L243.768 -127.419L239.9 -127.989Z" fill="#4DDD5E"/>
<path d="M231.812 -129.142L102.273 582.356L106.142 582.926L235.68 -128.572L231.812 -129.142Z" fill="#4DDD5E"/>
<path d="M223.731 -130.285L94.1934 581.208L98.0615 581.778L227.599 -129.715L223.731 -130.285Z" fill="#4DDD5E"/>
<path d="M215.644 -131.44L86.1055 580.059L89.9736 580.628L219.512 -130.87L215.644 -131.44Z" fill="#4DDD5E"/>
<path d="M207.564 -132.6L78.0254 578.898L81.8935 579.468L211.432 -132.03L207.564 -132.6Z" fill="#4DDD5E"/>
<path d="M199.476 -133.749L69.9375 577.75L73.8057 578.32L203.344 -133.179L199.476 -133.749Z" fill="#4DDD5E"/>
<path d="M191.398 -134.903L61.8594 576.596L65.7275 577.165L195.266 -134.333L191.398 -134.903Z" fill="#4DDD5E"/>
<path d="M183.307 -136.046L53.7695 575.447L57.6377 576.017L187.175 -135.476L183.307 -136.046Z" fill="#4DDD5E"/>
<path d="M175.22 -137.207L45.6816 574.292L49.5498 574.862L179.088 -136.637L175.22 -137.207Z" fill="#4DDD5E"/>
<path d="M167.134 -138.36L37.5957 573.139L41.4639 573.708L171.002 -137.79L167.134 -138.36Z" fill="#4DDD5E"/>
<path d="M159.06 -139.509L29.5215 571.989L33.3897 572.559L162.928 -138.94L159.06 -139.509Z" fill="#4DDD5E"/>
<path d="M150.974 -140.663L21.4355 570.836L25.3037 571.406L154.842 -140.093L150.974 -140.663Z" fill="#4DDD5E"/>
<path d="M142.885 -141.812L13.3477 569.681L17.2158 570.25L146.753 -141.242L142.885 -141.812Z" fill="#4DDD5E"/>
<path d="M134.798 -142.967L5.25977 568.531L9.12793 569.101L138.666 -142.398L134.798 -142.967Z" fill="#4DDD5E"/>
<path d="M126.718 -144.12L-2.82031 567.379L1.04785 567.949L130.586 -143.55L126.718 -144.12Z" fill="#4DDD5E"/>
<path d="M118.63 -145.269L-10.9082 566.229L-7.04008 566.799L122.498 -144.699L118.63 -145.269Z" fill="#4DDD5E"/>
<path d="M110.552 -146.43L-18.9863 565.068L-15.1182 565.638L114.42 -145.86L110.552 -146.43Z" fill="#4DDD5E"/>
<path d="M102.463 -147.572L-27.0742 563.921L-23.2061 564.491L106.331 -147.002L102.463 -147.572Z" fill="#4DDD5E"/>
<path d="M94.3821 -148.725L-35.1562 562.773L-31.2881 563.343L98.2503 -148.155L94.3821 -148.725Z" fill="#4DDD5E"/>
<path d="M86.2962 -149.886L-43.2422 561.612L-39.3741 562.182L90.1643 -149.316L86.2962 -149.886Z" fill="#4DDD5E"/>
<path d="M78.2083 -151.036L-51.3301 560.463L-47.4619 561.033L82.0765 -150.466L78.2083 -151.036Z" fill="#4DDD5E"/>
<path d="M70.1204 -152.19L-59.418 559.309L-55.5498 559.878L73.9885 -151.62L70.1204 -152.19Z" fill="#4DDD5E"/>
<path d="M62.0315 -153.334L-67.5059 558.159L-63.6377 558.729L65.8997 -152.764L62.0315 -153.334Z" fill="#4DDD5E"/>
<path d="M53.9583 -154.492L-75.5801 557.007L-71.712 557.577L57.8264 -153.922L53.9583 -154.492Z" fill="#4DDD5E"/>
<path d="M45.8724 -155.647L-83.666 555.852L-79.7978 556.421L49.7406 -155.077L45.8724 -155.647Z" fill="#4DDD5E"/>
</g>
</svg>
