<svg width="794" height="618" viewBox="0 0 794 618" fill="none" xmlns="http://www.w3.org/2000/svg">
<mask id="mask0_53_101255" style="mask-type:luminance" maskUnits="userSpaceOnUse" x="0" y="0" width="794" height="618">
<path d="M662.097 522.591C659.612 509.379 663.199 509.119 673.264 516.546C679.316 521.015 688.941 517.114 687.545 511.423C685.668 503.809 692.14 503.602 694.745 500.088C696.288 498.011 699 497.323 700.863 499.02C702.814 500.803 700.803 502.693 699.207 503.769C696.028 505.919 696.542 509.105 698.986 510.087C709.426 514.295 703.007 516.907 698.419 519.859C696.876 520.848 696.001 522.21 696.575 523.96C699.721 533.478 693.436 535.075 686.296 536.317C684.486 532.597 690.323 531.575 688.059 527.567C685.033 528.041 680.999 527.594 678.601 529.304C675.215 531.708 682.462 534.16 680.204 537.346C676.096 539.082 671.301 535.849 667.193 539.991C677.706 544.659 688.133 538.842 698.278 541.213C694.351 543.117 690.297 543.911 686.289 544.88C684.392 545.341 681.627 545.935 682.135 548.213C682.876 551.559 686.055 550.324 687.859 549.408C693.362 546.61 701.291 547.478 701.284 551.78C701.271 558.198 705.766 556.649 708.912 558.639C702.44 561.311 696.716 564.123 690.991 565.973C683.784 568.304 675.115 570.842 669.223 561.792C666.772 558.025 662.123 558.94 659.385 561.071C654.582 564.811 651.837 562.346 648.09 559.588C636.074 550.751 622.194 549.248 608.355 553.129C600.914 555.213 594.508 557.183 587.749 552.394C588.47 550.784 589.84 550.07 591.476 549.429C594.101 548.393 598.429 549.95 599.204 546.289C600.139 541.861 594.989 543.243 592.952 541.493C589.84 538.822 588.911 535.662 589.913 531.842C591.089 527.347 594.562 529.972 597.113 529.424C599.598 528.89 602.557 530.339 604.634 528.101C604.053 523.245 593.433 523.64 597.08 520.046C601.682 515.504 600.593 507.663 608.041 505.111C610.485 508.451 612.095 514.669 617.846 512.238C622.896 510.101 619.482 505.038 619.202 501.204C630.797 501.625 631.706 506.955 630.062 518.31C629.395 522.938 629.942 525.824 632.166 529.21C638.766 523.653 632.667 515.905 636.622 508.371C638.859 514.115 640.596 518.47 646.166 518.984C650.642 519.398 655.197 521.576 659.224 517.414C660.413 522.19 657.087 526.044 660.333 530.493C663.038 527.788 662.531 524.728 662.13 522.584L662.097 522.591ZM29.7374 348.788C29.8509 342.416 33.5246 341.327 36.9845 340.352C42.9024 338.682 41.7602 333.406 41.68 329.906C41.5865 325.898 37.9062 325.15 34.1858 327.434C32.6028 328.409 31.4072 328.129 30.2317 326.219C26.4244 320.027 19.9054 320.461 15.4837 323.607C13.8606 324.763 8.91791 334.16 18.81 336.525C20.1525 336.845 20.7337 338.642 19.665 339.711C18.8902 340.486 17.2604 341.053 16.1784 340.853C12.6316 340.192 10.561 337.634 8.74425 334.775C7.37499 332.617 5.16413 331.268 2.88647 333.105C0.368365 335.136 3.09354 336.291 4.39601 337.513C7.3416 340.272 7.68224 344.48 5.06394 346.17C-0.767115 349.93 0.455203 355.053 0.628866 360.056C0.78917 364.631 3.96852 362.721 6.1727 361.886C9.33871 360.684 12.4312 360.29 13.7003 363.937C14.9961 367.657 11.416 367.704 9.02478 368.672C7.58873 369.254 6.54008 370.676 5.23093 371.611C-1.84026 376.648 -1.74231 381.737 5.52481 386.88C6.03244 387.241 6.3998 387.815 6.74713 388.35C14.4284 400.085 15.7709 400.105 26.4712 389.779C30.0847 386.299 32.9835 381.784 38.6944 380.836C41.8069 380.315 41.8136 377.97 41.5131 375.559C40.972 371.184 41.7869 366.101 44.8193 363.837C52.8278 357.845 46.8565 353.123 43.9443 348.621C40.3642 343.077 35.1677 346.35 29.7307 348.795L29.7374 348.788ZM75.3172 418.38C78.3362 413.785 82.8448 409.45 79.6988 402.249C78.8038 400.199 81.0614 396.899 81.8161 394.161C82.1969 392.778 83.0385 391.649 84.5079 391.957C86.4382 392.357 87.4134 394.021 86.298 395.61C83.3992 399.751 84.6682 403.231 88.3151 405.709C92.0689 408.261 94.0527 403.893 96.9114 402.791C102.642 400.573 100.391 395.637 100.545 391.903C100.705 388.016 96.4706 388.55 94.5136 389.318C88.7025 391.609 85.3295 386.486 80.6005 385.631C77.7952 385.13 77.4546 382.325 78.2227 380.054C78.6835 378.685 79.9593 376.915 81.2284 376.581C85.2427 375.512 83.5394 378.992 84.4946 380.595C86.1644 383.4 89.7779 386.246 92.6701 384.863C97.8866 382.365 99.2225 376.28 98.5813 371.511C97.7597 365.446 97.5527 356.964 85.7102 361.886C80.5604 364.03 73.5405 365.339 67.1951 362.361C65.5186 361.572 62.907 361.512 62.0253 363.83C61.3774 365.547 61.1503 367.51 62.927 369.214C65.2648 371.451 67.5291 375.232 69.5529 376.093C81.1349 380.996 71.3096 385.725 69.9937 390.32C69.3392 392.598 67.0882 392.785 65.031 391.79C62.5663 390.594 62.6398 388.363 64.2629 387.014C69.0519 383.04 64.2295 380.836 62.6264 378.251C61.2972 376.107 57.9442 376.668 57.7104 378.251C57.1828 381.737 53.7696 385.905 57.0091 388.71C59.3335 390.721 60.2686 391.055 57.7639 393.272C52.1866 398.215 56.9223 404.567 59.6808 405.663C66.6674 408.428 68.3573 415.915 75.3172 418.387V418.38ZM564.351 461.502C567.384 458.55 569.521 454.542 572.28 454.114C584.463 452.204 581.23 445.652 578.271 438.572C577.416 436.534 576.935 433.923 577.456 431.866C578.952 425.968 575.786 424.645 570.743 423.984C567.076 423.503 562.1 421.693 560.41 424.572C558.353 428.085 561.973 431.605 565.787 433.856C557.759 442.386 553.918 433.101 547.72 431.071C550.732 434.684 545.936 441.577 555.04 443.007C559.562 443.715 562.22 447.676 558.246 452.371C557.478 453.28 555.461 454.388 555.588 454.635C560.11 463.232 564.064 472.269 569.842 480.024C572.587 483.711 588.978 478.534 590.681 474.44C593.119 468.595 587.609 457.875 581.13 455.183C578.231 453.981 576.835 456.125 574.778 456.846C571.505 458.002 569.715 461.969 564.351 461.502ZM350.238 612.341C344.494 607.94 340.407 605.201 341.288 599.463C337.16 601.006 338.383 604.693 336.305 606.216C333.647 608.167 330.514 609.416 327.141 608.106C324.243 606.984 322.987 604.8 324.47 601.841C330 590.78 319.367 586.926 313.582 582.264C311.465 580.554 310.403 580.534 311.138 577.963C311.799 575.658 312.133 573.26 308.84 572.579C307.29 572.259 305.627 572.439 304.018 572.392C304.038 574.576 303.77 576.807 304.124 578.945C305.086 584.756 310.436 586.646 317.697 589.965C311.912 590.139 309.127 590.226 306.355 590.313C305.841 593.946 309.301 593.713 310.637 595.342C312.427 597.526 313.121 604.607 311.492 607.325C310.577 608.855 309.802 611.493 310.557 612.708C312.066 615.133 313.796 613.891 314.638 611.647C314.978 610.731 316.06 609.429 316.428 610.21C319.193 616.062 326.106 611.987 328.497 614.325C336.833 622.48 341.796 613.61 350.232 612.348L350.238 612.341ZM535.456 469.11C532.444 472.249 528.664 474.834 526.967 478.36C525.384 481.647 524.255 483.363 520.535 482.074C518.972 481.533 516.541 480.398 517.636 478.942C519.506 476.45 518.478 471.888 523.661 471.427C525.678 471.247 528.256 473.531 529.979 470.733C517.683 465.676 511.698 467.734 506.168 478.888C502.04 487.204 499.488 487.558 493.817 480.511C492.502 478.875 490.491 476.737 489.496 479.503C487.853 484.098 490.845 488.687 492.488 492.881C493.423 495.273 496.983 495.433 500.764 493.87C512.626 488.961 523.667 481.533 537.507 481.76C539.417 481.794 542.663 478.895 543.004 476.958C543.605 473.551 540.459 474.787 538.141 474.627C534.441 474.366 539.37 470.385 535.443 469.103L535.456 469.11ZM508.906 511.096C515.739 502.119 504.084 505.98 501.866 503.962C497.585 500.068 491.266 505.245 485.475 505.104C482.877 505.044 482.563 510.334 482.937 513.661C483.665 520.113 502.594 531.141 508.652 528.696C510.783 527.834 510.496 526.585 509.841 524.869C508.191 520.574 508.699 516.099 508.906 511.096ZM570.53 395.75C571.244 391.496 578.952 390.14 573.281 385.444C568.579 381.557 564.358 375.419 557.451 376.982C552.689 378.064 552.455 383.868 553.784 387.742C557.358 398.135 572.366 406.197 584.95 404.821C581.163 400.165 578.498 394.762 570.53 395.75ZM236.91 486.696C232.241 480.304 223.892 478.701 228.428 470.192C229.456 468.255 223.291 465.342 220.112 465.089C214.949 464.674 219.878 468.321 218.936 469.624C216.839 472.543 214.18 474.934 210.874 476.697C202.238 481.306 201.944 484.686 208.236 491.732C210.974 494.798 218.642 500.509 206.012 500.509C204.028 500.509 202.552 501.731 203.547 503.582C205.036 506.36 206.058 509.8 210.006 510.501C212.076 510.869 214.007 511.103 214.414 508.224C215.176 502.807 216.071 497.584 212.758 492.36C210.908 489.441 209.118 485.314 211.776 482.301C214.501 479.209 218.422 480.752 222.015 482.114C226.163 483.684 230.505 484.753 236.91 486.69V486.696ZM302.748 549.662C293.257 544.346 288.027 546.376 285.643 558.753C282.964 548.667 276.893 545.287 272.959 540.164C269.332 535.442 263.888 534.741 258.017 535.362C257.75 538.775 258.217 542.769 262.225 542.816C271.857 542.93 273.413 550.317 276.198 556.322C279.037 562.426 284.1 564.203 289.256 559.454C293.063 555.948 296.249 551.84 302.742 549.662H302.748ZM593.68 119.787C592.979 120.375 592.384 120.929 591.863 121.444C592.625 121.156 593.266 120.649 593.68 119.787ZM12.0104 178.004C6.67366 177.811 5.71852 173.79 3.00671 170.624C6.66698 169.481 8.18987 174.077 9.76619 172.808C19.6984 164.839 18.1755 176.749 22.123 179.106C25.7031 181.25 24.5809 185.899 27.5599 188.391C30.2317 185.879 29.0761 183.708 27.9674 181.838C26.6449 179.607 25.7899 177.837 28.829 176.321C31.7278 174.878 33.0503 175.874 33.932 178.686C36.3767 186.52 42.869 182.847 46.2754 181.217C51.0111 178.953 45.9348 175.145 45.1533 172.02C44.6924 170.169 40.6113 169.628 43.0359 166.376C56.1542 171.706 69.5462 175.506 83.9201 172.394C76.5395 164.859 63.0873 166.202 58.8392 153.478C55.8135 159.603 61.5511 161.606 60.3955 165.948C54.4776 164.525 51.8927 161.486 52.3603 155.782C52.9147 148.969 52.4137 144.441 43.4768 150.178C40.8785 151.848 34.7068 154.847 31.1133 149.59C28.0943 145.175 30.9063 142.831 34.8337 140.406C37.8528 138.543 33.9988 129.82 30.5857 128.11C26.0704 125.852 20.8806 129.599 17.0934 126.213C15.8243 125.077 11.4694 125.531 13.4933 121.884C14.3415 120.355 14.4217 117.79 17.3405 118.244C25.1687 119.46 31.2803 113.054 38.9749 114.671C39.0818 108.866 32.89 112.667 31.9215 109.187C36.7574 105.707 36.9578 96.5631 46.1352 98.6738C46.409 98.7339 47.3174 96.6366 47.7449 95.481C50.8241 87.2254 58.8459 88.8952 64.844 88.8218C68.8983 88.775 66.8878 87.6328 68.03 86.1834C73.9613 78.6291 67.0348 75.2093 63.5615 70.3133C70.0605 66.279 76.7666 64.2752 85.1491 64.1817C78.8906 57.6092 81.2551 49.0597 85.6902 49.3803C91.6414 49.8078 99.7034 46.9156 104.987 53.4013C106.703 55.5052 109.749 58.2772 112.735 55.9528C115.286 53.969 111.125 52.1656 111.072 50.2486C110.958 46.3011 111.586 42.3336 111.907 38.3728C114.385 42.6542 112.321 48.1379 117.698 51.0034C119.541 51.9852 120.79 55.1713 123.415 52.5797C125.379 50.6427 125.165 48.5053 122.754 46.7754C120.363 45.0588 118.987 43.0817 121.892 39.181C127.703 47.0158 135.525 45.3126 142.631 42.4605C149.024 39.8956 154.193 39.4815 159.27 46.5215C160.398 40.4968 159.537 31.7803 167.639 38.4596C173.437 43.242 174.238 40.2363 176.836 36.3823C178.012 34.6323 177.391 30.0369 181.599 31.5865C189.026 34.3184 196.788 29.5427 204.689 33.8842C208.109 35.7611 213.245 33.4568 210.727 40.2163C210.079 41.9462 210.58 43.4691 212.551 44.1103C214.227 44.658 216.538 44.7048 216.772 42.888C218.128 32.6018 230.698 30.5246 233.33 21.2069C234.165 18.2546 236.596 15.0619 239.689 17.413C242.427 19.497 239.495 21.9616 237.091 23.3309C235.514 24.2326 233.998 25.5084 235.22 27.098C236.81 29.1553 238.747 28.12 240.03 26.37C240.771 25.3547 240.884 23.8118 243.329 24.059C243.229 29.3223 247.029 31.5064 251.398 33.6772C253.776 27.5923 245.507 24.3595 249.053 18.3748C251.879 13.5991 256.107 10.8272 260.248 7.58105C265.899 3.15265 266.54 10.0591 269.699 11.1545C274.542 12.8377 272.317 14.434 269.626 16.1439C268.41 16.9121 267.989 18.268 269.272 19.3634C270.935 20.7861 272.518 20.6258 274.695 19.664C280.186 17.2527 275.831 12.0161 278.075 8.56289C285.355 16.4044 291.233 17.5666 300.471 13.7461C303.864 12.3434 303.837 6.83964 308.519 7.49421C322.346 9.44458 336.726 6.9465 350.9 13.7327C351.334 8.42264 351.675 4.21466 352.015 0C352.603 6.21178 358.267 8.47607 361.346 12.1631C363.717 14.9951 367.879 15.6497 370.15 12.6172C377.657 2.61161 378.646 10.0257 380.389 15.7565C384.116 16.6249 384.357 5.09633 390.495 13.2986C390.976 13.9398 396.132 13.5657 395.972 10.8405C395.751 7.13351 396.473 6.99993 399.592 8.1755C403.74 9.74514 401.556 11.2079 399.866 12.9646C395.605 17.3796 400.14 21.2403 402.117 23.8118C404.114 26.4101 408.075 24.8337 409.905 21.1735C410.76 19.4636 412.062 19.5504 413.846 21.0332C420.973 26.9645 427.118 25.7622 431.807 18.0208C434.224 14.0333 436.395 18.0809 438.666 18.1477C441.064 18.2145 442.32 20.2384 442.293 22.1687C442.253 25.0141 439.214 23.8385 437.611 24.6601C436.155 25.4082 434.759 26.2565 433.336 27.0646C431.239 28.2669 427.084 26.4101 427.004 30.1973C426.964 32.0875 428.674 34.5255 430.33 35.8413C433.096 38.0388 436.021 35.3069 437.29 33.8842C442.24 28.3337 444.197 31.1858 445.92 36.1018C446.561 37.9319 446.975 40.3632 449.213 40.5369C452.018 40.7506 453.114 38.4195 453.514 36.055C453.808 34.3585 454.349 32.9358 456.373 31.8471C458.524 33.8041 460.027 36.1485 463.553 37.5712C470.694 40.4567 477.112 45.8402 479.811 53.8822C481.895 60.0939 485.582 64.8496 493.156 64.8363C496.476 64.8363 498.58 67.2008 501.305 68.2294C504.104 69.2914 508.479 66.4527 509.888 70.9946C511.21 75.2694 503.629 71.3687 504.665 75.8305C504.885 76.7722 505.079 77.8343 505.653 78.5623C508.813 82.5833 505.099 84.9478 502.661 88.2674C506.308 88.2273 509.16 88.2006 512.152 88.1672C511.518 90.2111 510.87 92.0145 510.402 93.8513C506.709 108.239 509.955 113.769 525.464 116.287C530.12 117.042 529.124 121.457 532.391 122.826C535.082 117.182 537.547 112.012 539.891 107.09C545.242 107.704 546.845 115.072 553.524 111.906C564.157 106.856 571.906 111.398 574.283 122.779C574.918 125.819 577.997 127.869 581.203 128.965C582.105 129.272 583.741 129.031 583.381 127.929C580.241 118.298 587.842 122.946 591.883 121.424C583.721 129.599 597.374 129.011 597.881 133.887C592.144 135.457 583.414 133.941 584.676 143.779C591.509 145.503 601.141 139.277 604.968 147.854C607.733 154.059 599.07 156.71 595.183 161.232C596.733 153.985 595.597 148.662 585.792 146.277C597.254 156.971 582.873 154.379 581.136 158.193C587.448 163.704 593.667 168.626 602.911 166.182C605.77 165.427 608.228 167.09 609.276 169.715C610.158 171.933 609.751 174.23 607.393 175.707C600.914 179.768 594.569 178.478 588.33 175.065C587.923 174.845 587.695 174.023 587.662 173.469C587.462 169.916 587.121 169.334 585.191 170.477C581.938 172.4 577.182 171.939 575.165 175.96C578.171 179.721 586.507 177.163 585.899 184.376C585.458 189.58 581.651 191.817 576.321 192.251C572.547 192.558 574.985 194.863 575.399 196.426C576.033 198.844 576.922 200.033 579.119 197.454C581.864 194.235 586.279 194.482 588.971 195.885C592.424 197.682 589.552 200.38 588.063 202.938C586.553 205.523 588.049 208.268 590.113 210.867C596.272 218.628 601.562 209.611 607.433 210.406C612.543 211.1 616.149 207.493 618.554 203.419C624.098 194.008 636.815 192.298 645.619 199.912C646.741 200.888 647.128 201.97 646.821 203.339C640.562 201.409 636.455 210.259 632.574 208.128C624.024 203.432 624.292 211.287 620.638 213.759C616.236 216.738 610.699 217.205 605.503 218.281C605.376 218.307 605.242 218.902 605.322 219.176C607.921 228.139 601.809 224.873 598.249 223.464C594.629 222.028 592.304 223.744 590.04 225.394C587.001 227.618 584.002 229.742 580.054 228.854C574.758 227.665 574.965 231.559 574.19 234.458C573.155 238.312 575.613 239.407 578.945 240.389C581.417 241.117 584.73 241.024 585.812 243.048C584.349 248.892 579.052 241.137 577.536 247.142C579.787 249.152 585.124 247.015 585.799 250.675C587.929 262.204 594.248 252.886 598.509 253.26C599.545 253.347 601.275 248.431 601.782 251.35C602.751 256.921 614.366 255.718 609.637 262.431C605.796 267.875 611 266.966 612.242 266.893C615.548 266.699 618.794 265.49 622.061 264.682C613.892 264.074 612.716 257.168 609.236 252.853C608.802 252.318 609.089 250.789 609.604 250.134C610.058 249.553 611.294 249.56 612.189 249.299C614.346 258.584 625.901 254.837 630.183 262.344C630.624 256.66 621.413 252.586 628.934 247.382C634.471 256.673 635.68 256.747 641.852 248.485C644.183 245.359 647.148 244.47 650.348 247.429C652.425 249.346 654.255 251.51 656.506 253.888C649.045 258.383 640.576 258.918 631.251 262.872C637.289 264.515 641.437 266.626 645.418 264.528C651.784 261.189 656.593 264.562 660.527 267.975C663.466 270.533 664.722 274.12 669.931 272.557C671.114 272.203 673.471 275.496 675.295 277.112C662.477 279.917 673.284 288.374 669.604 294.385C673.752 293.149 676.33 292.448 678.855 291.606C681.3 290.791 683.684 288.961 686.156 291.573C679.055 300.283 679.349 304.718 688.019 311.578C692.948 315.478 687.445 316.694 685.508 318.424C689.348 320.802 694.565 316.26 694.224 318.317C693.055 325.35 708.384 322.451 701.865 331.315C710.909 336.244 706.234 346.163 710.475 352.702C714.656 347.031 730.005 344.213 734.888 349.483C737.9 352.742 738.535 352.141 741.574 350.298C744.226 348.688 747.893 348.341 751.179 348.06C757.578 347.512 764.424 346.938 761.558 357.024C765.773 356.817 768.305 353.684 772.392 354.031C778.21 354.526 781.102 357.551 779.038 362.875C778.083 365.339 779.566 365.914 781.216 366.001C785.657 366.228 788.997 370.382 794 368.9C790.994 371.732 787.641 373.749 784.115 371.792C781.63 370.409 780.02 367.37 776.58 367.744C767.49 368.733 758.847 366.622 750.678 363.276C741.948 359.695 737.533 369.861 729.771 368.445C732.904 377.402 723.526 373.649 720.18 376.24C722.892 379.166 725.089 381.544 727.995 384.676C722.11 385.772 720.521 391.162 716.086 393.66C714.73 387.094 711.911 384.295 705.96 388.891C703.869 390.507 699.962 391.042 700.69 388.904C703.889 379.473 694.378 384.877 692.454 381.637C695.046 379.293 699.113 383.674 701.598 379.246C697.965 375.499 695.667 368.519 688.58 376.1C686.663 378.15 684.172 375.686 681.994 375.699C671.074 375.759 659.251 373.983 654.128 387.261C653.3 389.418 651.009 389.766 649.125 388.543C647.496 387.488 648.531 385.751 648.471 384.349C648.103 375.699 653.821 373.508 662.384 372.466C653.193 365.6 643.535 369.187 633.716 367.029C638.071 363.85 640.329 360.911 644.343 361.352C642.987 358.627 642.159 355.788 638.078 354.946C634.624 354.238 634.21 351.714 635.96 348.207C638.004 344.113 641.978 345.074 645.178 344.547C643.782 339.951 639.828 341.16 637.503 339.591C622.521 329.458 606.391 323.901 587.956 327.635C585.525 328.129 582.112 328.129 581.657 331.415C581.223 334.548 584.403 336.792 586.406 337.006C594.822 337.921 593.84 344.099 595.911 349.737C589.445 349.196 589.319 337.841 580.602 343.825C574.778 347.826 584.549 349.376 579.7 353.176C570.57 344.259 555.601 362.714 547.098 345.655C546.477 348.915 546.01 351.366 545.208 355.588C544.266 350.371 538.829 352.662 538.676 349.436C538.128 337.36 535.403 335.603 524.876 341.341C522.853 342.443 520.882 344.821 519.546 340.967C518.731 338.615 518.037 336.251 514.944 337.36C511.798 338.489 508.726 340.272 508.712 344.133C508.679 355.24 501.946 353.577 494.545 351.687C495.441 348.407 497.631 347.786 500.089 347.612C505.333 347.238 506.234 343.598 506.815 339.531C507.056 337.854 507.724 336.284 505.272 335.763C501.085 334.875 498.954 337.193 496.316 339.985C494.145 342.276 491.453 347.332 486.577 340.713C483.444 336.458 476.945 337.146 471.054 341.387C476.117 343.438 480.305 344.667 483.919 346.811C485.602 347.806 486.223 350.551 487.131 352.582C487.205 352.749 485.836 353.945 485.154 353.924C483.585 353.878 481.574 350.752 480.646 354.252C480.058 356.449 482.93 356.91 484.026 358.179C489.142 364.104 494.933 356.229 500.924 359.181C495.02 362.36 492.388 364.999 499.862 368.372C502.38 369.507 504.718 372.259 502.935 375.686C502.427 376.668 500.156 378.03 500.076 377.209C499.568 372.092 493.123 374.236 491.693 370.082C488.441 360.671 481.621 360.671 473.612 364.204C469.618 365.961 465.524 368.92 461.302 363.984C460.341 362.855 457.448 363.549 457.956 365.714C460.454 376.387 451.203 375.044 445.566 377.422C450.589 375.225 453.033 371.498 447.162 368.612C439.848 365.012 444.711 362.734 447.309 360.637C451.511 357.237 452.466 354.706 446.174 353.35C440.503 352.128 444.491 350.304 444.925 347.973C445.225 346.377 441.665 345.395 439.18 345.435C435.293 345.502 432.014 346.277 430.143 350.144C427.078 356.496 432.715 369.881 439.668 372.333C431.726 380.221 421.273 381.223 410.8 381.704C407.607 381.851 405.71 386.219 402.043 383.768C401.108 387.314 404.835 387.729 406.245 389.699C408.235 392.484 408.91 396.024 407.908 398.97C405.042 407.386 400.794 414.78 390.689 417.111C387.115 417.933 381.658 417.365 381.237 422.561C380.696 429.261 376.629 427.457 372.968 426.275C371.652 425.854 370.083 423.062 369.061 424.699C363.931 432.901 364.519 424.912 363.998 422.909C363.357 420.424 361.52 419.021 359.977 417.485C358.427 415.942 355.976 413.985 354.199 414.212C351.28 414.58 352.376 417.886 352.082 419.963C351.18 426.275 351.822 433.148 349.437 438.839C349.798 440.295 347.119 441.651 345.596 441.931C344.073 442.212 342.41 442.032 341.074 442.773C338.176 444.389 339.057 448.724 340.968 451.403C342.217 453.153 343.826 455.21 342.985 457.167C342.597 458.062 341.769 458.683 340.974 459.264C337.187 462.029 333.206 464.882 328.524 465.676C323.842 466.471 318.271 464.487 316.702 460.133C316.167 458.65 316.074 456.913 314.911 455.811C313.262 454.241 310.263 455.003 308.92 456.813C307.578 458.623 307.504 461.028 307.725 463.245C301.767 462.096 295.268 464.274 291.333 468.729C290.018 464.307 288.769 459.311 291.14 455.343C291.768 454.301 292.623 453.38 293.097 452.264C293.578 451.149 293.023 449.031 292.082 448.23C292.783 445.759 292.649 443.08 293.057 440.522C293.371 438.572 292.776 437.456 290.686 437.096C288.268 436.681 288.334 438.191 287.813 439.847C285.269 447.843 282.437 455.751 279.738 463.699C278.663 466.879 277.227 470.853 273.413 470.051C269.252 469.176 270.213 464.882 269.759 461.362C268.871 454.515 274.161 447.562 267.983 440.589C264.503 436.661 257.336 433.155 261.223 425.534C261.904 424.198 260.455 422.702 258.585 421.987C255.172 420.684 230.578 426.255 230.251 429.301C229.109 439.921 221.361 432.126 217.313 434.163C212.805 436.434 209.565 442.138 202.966 438.739C201.77 438.124 199.613 439.487 199.326 436.855C198.638 430.583 192.085 430.149 189.5 426.656C186.615 428.098 191.331 430.683 186.101 431.986C188.378 423.951 180.189 423.029 176.542 418.928C178.306 416.59 182.854 418.567 182.28 415.361C181.225 409.477 176.135 406.411 171.192 403.559C169.102 407.526 160.185 406.123 162.669 413.678C164.553 419.415 159.276 419.636 156.438 419.916C153.512 420.203 151.007 417.712 151.715 413.978C152.263 411.106 152.637 408.201 153.272 405.349C153.666 403.572 157.633 402.096 153.712 400.059C152.59 399.478 150.921 398.856 149.939 399.257C147.274 400.346 147.187 402.877 148.002 405.108C149.297 408.675 148.169 411.32 145.383 413.758C144.335 411.186 144.682 407.419 140.434 407.626C139.546 407.673 137.856 409.79 138.049 410.118C140.775 414.713 130.996 414.399 134.182 419.709C134.81 420.758 130.061 420.19 129.861 418.861C129.039 413.444 126.528 414.246 122.179 415.181C118.579 415.955 114.565 413.938 112.02 409.637C119.521 409.784 124.404 400.446 132.96 405.522C133.882 406.07 134.984 404.915 134.616 403.946C131.176 394.942 138.517 391.97 144.034 388.103C146.425 386.426 145.691 382.786 144.909 383.367C138.37 388.23 136.032 379.94 132.546 380.114C129.006 380.288 127.456 381.751 128.812 377.396C131.417 369.033 127.356 366.061 118.626 366.675C121.739 363.817 129.433 363.803 126.461 360.891C119.374 353.944 126.581 353.697 129.647 351.72C132.152 350.104 135.899 349.383 134.042 345.542C130.782 338.796 135.778 335.336 139.586 331.616C140.968 330.26 143.693 329.385 142.217 327.401C137.375 320.889 144.281 319.486 146.285 315.625C150.052 319.212 146.399 326.486 150.794 326.639C160.552 326.98 160.699 332.404 160.412 339.45C162.77 335.095 168.975 332.056 163.418 326.392C165.942 325.056 162.175 319.299 167.245 320.514C169.055 320.949 169.783 322.692 171.192 320.174C172.415 317.99 172.475 316.587 169.569 315.973C168.554 315.759 166.363 316.126 167.793 313.969C168.48 312.927 169.262 312.179 171.025 313.274C174.445 315.405 177.077 318.337 180.704 323.033C180.263 316.747 183.068 313.054 176.783 309.407C173.831 307.697 166.283 299.969 173.924 293.316C175.106 292.288 175.854 291.319 174.438 290.257C168.928 286.129 166.216 276.912 155.596 280.986C157.032 282.709 158.388 284.333 159.737 285.969C161.374 287.946 162.516 279.938 164.079 285.728C164.68 287.939 161.861 290.03 160.485 289.536C154.908 287.525 145.704 305.934 143.246 286.697C143.173 286.123 140.708 285.181 139.666 285.468C135.445 286.63 135.538 281.293 130.849 280.305C136.092 288.287 132.218 289.569 125.833 289.743C123.542 289.81 121.031 293.744 118.873 291.212C116.368 288.28 119.2 285.855 121.885 284.232C124.945 282.382 125.239 280.018 122.6 277.98C118.993 275.195 118.559 279.537 116.863 280.906C113.904 283.297 114.137 289.589 106.65 287.619C115.059 282.175 109.449 275.469 105.982 273.432C92.8304 265.697 80.0194 277.119 66.614 275.876C65.8659 275.81 64.2428 277.653 64.2161 278.642C64.1092 282.896 59.4938 283.564 57.6704 286.757C55.0053 291.399 47.431 286.483 43.3232 290.665C42.1075 287.098 42.8022 284.059 45.4806 281.24C47.6313 278.976 44.9262 276.651 43.8174 277.493C41.1056 279.557 35.8156 274.427 36.6104 278.248C37.8995 284.413 31.0399 287.645 34.3194 293.817C29.1563 292.341 29.9445 286.837 25.5829 286.41C23.9598 288.427 25.1554 289.99 26.2708 291.666C27.8071 293.977 30.8328 297.705 27.5065 298.807C24.3672 299.849 23.8596 305.593 19.7318 303.008C16.8463 301.198 13.7805 299 14.8425 294.418C15.8845 289.95 11.7633 286.704 10.6211 282.649C10.04 280.579 7.40839 278.294 10.4074 276.812C16.6659 273.712 11.8167 269.598 11.7366 265.457C15.3835 265.544 20.0991 272.383 22.2231 263.546C23.5256 258.129 27.5733 253.748 33.1038 261.629C34.7068 258.31 34.5332 256.112 32.9902 253.581C28.6153 246.394 31.267 241.772 39.2087 239.828C41.1858 239.347 42.6619 237.049 42.5083 236.949C35.7889 232.581 40.3108 226.122 39.0217 220.819C38.5007 218.675 36.2497 217.386 34.3328 218.521C26.7651 222.99 26.2975 218.915 26.2641 212.971C26.2508 210.533 22.2565 208.342 27.62 206.111C29.9645 205.136 25.3624 201.369 24.7613 202.15C20.1993 208.108 15.0562 197.909 10.0801 202.965C8.61734 204.448 6.68033 199.759 8.08299 198.416C10.02 196.566 12.7719 193.387 15.7909 194.916C21.2012 197.655 26.6315 196.012 32.3423 197.174C30.412 190.975 26.2307 191.35 21.5953 191.41C17.4541 191.463 11.8368 191.597 15.4503 184.37C16.8797 181.504 16.3053 178.158 12.0104 177.998V178.004ZM648.985 364.197C654.402 356.329 663.92 353.784 670.492 347.472C672.677 345.375 677.259 345.609 680.879 344.747C680.698 339.764 676.116 339.424 673.184 337.26C671.08 335.703 666.932 335.242 667.901 331.115C668.669 327.842 671.561 327.12 674.834 326.432C672.129 321.65 667.587 324.201 663.072 322.224C667.64 330.627 660.393 335.329 659.799 342.823C655.497 340.031 652.037 335.122 647.469 340.446C647.582 342.97 650.06 342.823 651.617 343.792C657.368 347.365 657.481 352.241 651.329 354.272C647.215 355.628 646.1 358.433 644.583 361.405C644.603 361.405 644.623 361.405 644.65 361.412C643.935 365.667 647.262 366.695 648.978 364.197H648.985ZM529.285 289.182C534.461 290.197 535.436 292.161 528.63 295.507C534.328 296.542 537.908 291.58 540.165 295.447C542.209 298.954 545.582 303.789 538.015 307.683C548.307 307.383 554.586 310.088 556.723 319.92C556.884 311.444 564.238 306.047 563.296 297.965C563.189 297.07 564.485 295.788 565.453 295.14C565.921 294.826 567.637 295.313 567.931 295.861C568.82 297.518 570.222 299.475 568.659 301.265C560.484 310.596 565.974 311.11 574.564 310.222C576.347 310.035 579.867 311.25 579.961 312.085C581.016 321.223 589.472 316.48 593.173 319.145C602.724 326.032 605.436 317.382 611.648 314.389C606.478 311.564 598.516 316.574 598.316 306.828C598.235 303.095 593.68 307.503 591.476 305.646C595.41 299.909 601.722 300.076 608.081 299.602C603.973 298.399 601.328 295.28 596.499 295.494C589.205 295.814 574.571 281.708 573.388 274.574C573.195 273.418 573.081 271.635 572.346 271.274C566.549 268.462 566.509 268.549 570.416 263.293C564.699 267.875 557.004 267.848 550.892 271.648C551.34 272.57 551.46 273.392 551.908 273.632C554.192 274.841 558.507 273.479 557.886 278.274C557.705 279.67 556.156 281.414 555.875 280.766C554.058 276.631 547.626 281.287 546.825 276.063C546.19 271.916 544.073 269.05 539.745 267.32C540.733 273.626 537.086 278.021 530.54 279.196C527.662 279.71 525.624 281.561 524.85 284.159C523.821 287.625 526.372 288.607 529.285 289.175V289.182ZM477.573 263.947C477.6 265.383 478.569 266.505 480.058 266.405C484.573 266.098 487.252 269.077 490.451 271.355C497.678 276.498 499.642 276.544 509.988 271.067C504.371 276.277 504.852 279.61 507.717 283.057C509.12 284.747 511.331 286.416 512.459 285.014C515.038 281.801 522.552 282.783 520.782 275.977C519.513 271.107 521.917 272.176 524.736 273.666C526.813 274.768 528.597 274.073 530.033 272.417C531.008 271.294 531.081 270.059 530.146 268.91C528.49 266.886 526.399 268.095 524.602 268.489C519.232 269.671 514.437 270.252 512.626 263.333C512.319 262.15 510.035 260.634 508.692 260.648C499.188 260.761 489.69 261.215 480.192 261.623C478.796 261.683 477.54 262.371 477.567 263.941L477.573 263.947ZM482.095 145.943C482.85 148.368 485.295 150.879 487.672 152.115C490.885 153.778 491.493 151.207 491.253 148.608C497.671 148.261 505.493 145.489 510.209 148.067C519.76 153.297 517.583 146.017 518.818 142.23C523.38 144.641 527.635 146.879 531.883 149.123C534.461 150.485 536.385 149.423 537.995 147.533C539.17 146.157 539.123 144.654 538.328 143.025C536.859 140.019 535.136 140.88 532.952 142.276C531.155 143.425 529.191 143.759 528.503 140.847C526.646 132.986 519.86 132.959 513.715 132.525C509.961 132.264 505.934 131.903 504.037 128.998C501.011 124.363 507.109 124.944 508.719 122.853C509.454 121.898 509.901 120.402 509.774 119.213C509.514 116.761 507.43 117.623 505.927 117.717C502.073 117.957 498.219 118.271 494.699 118.531C493.123 121.497 501.499 122.84 495.3 125.852C494.866 126.059 494.479 127.008 494.592 127.495C496.776 136.966 496.843 137.047 486.777 142.223C484.814 143.232 481.227 143.138 482.102 145.95L482.095 145.943ZM389.62 310.455C393.367 311.117 394.122 308.204 394.836 304.932C396.667 296.542 406.539 300.577 411.014 295.921C411.074 295.861 412.831 296.789 412.944 297.397C413.766 301.866 415.128 306.648 420.866 303.108C425.762 300.089 430.805 295.874 427.098 288.634C424.219 283.01 420.665 278.635 413.271 279.724C410.199 280.178 410.005 282.689 409.578 284.84C407.968 292.895 402.778 297.184 394.536 296.763C388.538 296.456 388.878 300.143 387.529 303.442C391.751 305.406 384.45 309.554 389.62 310.462V310.455ZM322.359 134.108C323.755 135.236 331.743 131.289 334.262 127.943C338.189 122.739 330.501 119.467 328.865 114.551C334.095 114.29 335.597 119.927 340.667 120.288C339.886 117.022 339.198 114.163 338.516 111.318C338.63 111.378 338.737 111.445 338.837 111.511C338.763 111.391 338.697 111.271 338.623 111.151C342.811 111.792 345.156 118.451 350.633 114.791C358.528 109.508 367.531 105.26 370.377 95.1805C371.198 92.2817 370.517 90.0842 367.638 88.7015C364.96 87.4124 362.836 87.2054 360.925 90.2311C358.474 94.1185 355.388 97.2845 350.9 91.9677C349.784 90.6452 348.261 90.9191 347.714 92.2817C347.32 93.2502 347.627 94.8599 348.261 95.7616C349.457 97.4581 354.166 97.565 350.319 101.239C346.739 104.652 345.316 100.718 343.138 99.502C341.502 98.5936 340.039 97.398 337.675 95.7549C336.533 101.713 335.905 106.515 338.637 111.144C338.583 111.137 338.53 111.124 338.476 111.117C338.49 111.184 338.51 111.244 338.523 111.311C336.873 110.429 333.954 110.236 334.462 108.185C336.987 97.9591 327.97 95.2005 322.352 90.4916C320.542 88.9754 317.77 86.0966 314.491 88.4878C310.183 91.6404 316.194 93.3236 316.034 93.5307C307.858 104.117 326.42 109.568 320.422 119.233C317.65 118.431 315.593 114.23 310.857 114.33C310.49 123.254 316.348 129.232 322.366 134.101L322.359 134.108ZM279.037 245.886C290.278 253.147 286.117 262.858 283.866 272.35C283.512 273.839 285.389 274.233 286.611 274.501C288.662 274.948 290.659 274.621 292.175 273.131C298.186 267.207 296.189 241.424 288.769 237.437C282.483 234.064 283.265 243.168 278.903 243.402C278.957 244.704 278.73 245.679 279.037 245.88V245.886ZM205.244 141.502C206.653 139.324 208.723 140.046 210.64 140.019C213.118 139.985 212.531 142.176 213.326 143.425C215.456 146.758 206.279 145.182 210.807 147.9C216.057 151.053 221.554 153.538 225.181 158.621C226.684 157.412 228.414 156.397 229.63 154.961C231.507 152.73 228.434 151.975 227.679 151.795C223.211 150.746 223.999 144.28 218.515 143.766C217.627 143.679 215.042 137.073 218.028 133.46C220.232 130.795 220.212 127.742 219.798 123.922C224.707 125.792 226.524 129.112 225.996 132.986C225.328 137.875 221.755 131.69 219.764 134.301C221.421 137.901 223.331 141.629 224.827 145.503C225.769 147.947 227.626 148.281 229.616 147.967C237.585 146.698 245.834 142.383 252.714 150.679C253.355 151.454 254.497 150.839 254.931 149.784C258.177 141.929 265.625 145.83 271.442 144.447C271.075 140.6 265.959 139.772 265.758 135.764C265.692 134.355 263.521 133.74 261.59 134.007C258.384 134.448 263.367 140.54 258.311 138.756C255.766 137.861 260.108 133.981 257.402 132.084C252.673 128.771 246.482 127.321 243.797 121.437C242.748 119.133 240.103 116.822 243.743 114.978C247.43 113.114 249.581 107.303 254.003 108.74C262.519 111.498 271.035 115.566 277.167 121.771C280.526 125.164 285.502 131.703 278.062 137.294C276.592 138.396 275.797 140.353 273.46 143.659C280.62 140.7 285.87 138.316 291.841 137.354C299.035 136.198 303.203 124.536 301.433 114.123C299.602 103.376 293.544 95.2606 284.093 89.4095C282.617 88.4945 280.94 87.3323 279.585 88.6347C274.294 93.711 272.979 88.1939 271.035 85.5288C268.363 81.8552 267.542 76.7656 260.969 82.5833C257.269 85.8561 251.278 80.7999 245.847 80.9602C238.373 81.1873 236.95 84.3466 239.609 89.7435C241.459 93.504 238.66 98.5869 243.81 101.559C244.665 102.054 241.82 104.198 239.141 103.323C233.05 101.346 228.882 104.438 229.456 110.403C229.844 114.43 227.459 117.162 224.179 115.926C217.159 113.281 217.934 117.643 216.264 121.677C213.967 127.221 215.369 135.958 203.413 134.702C198.424 134.174 202.912 142.737 199.9 147.627C204.743 146.211 204.075 143.318 205.25 141.502H205.244ZM144.181 158.688C141.389 147.099 133.427 142.731 128.438 136.238C127.449 134.949 123.963 134.649 126.581 132.231C128.324 130.621 130.428 131.603 131.704 133.393C133.775 136.298 135.525 139.531 141.002 138.85C135.104 126.727 132.933 127.575 119.247 129.519C109.816 130.855 110.604 134.114 115.159 137.748C123.816 144.654 134.63 148.749 144.181 158.688ZM97.7998 176.688C101.046 172.561 92.5098 169.455 94.9611 169.655C101.453 170.189 106.844 163.236 112.534 166.99C119.721 171.732 126.688 165.173 133.648 167.885C134.209 168.105 138.57 163.757 137.235 162.268C134.797 159.549 135.758 153.939 130.595 153.825C120.71 153.598 115.814 145.255 110.063 140.206C98.7549 130.274 90.4592 130.801 83.9803 143.913C79.0108 153.965 77.8353 162.969 84.0537 172.38C84.1138 172.367 84.174 172.354 84.2408 172.34C88.1281 175.84 92.6701 177.296 97.7998 176.702V176.688Z" fill="white"/>
</mask>
<g mask="url(#mask0_53_101255)">
<path d="M884.677 -44.789L751.791 766.695L755.759 767.345L888.645 -44.1392L884.677 -44.789Z" fill="#33E09E"/>
<path d="M876.38 -46.0985L743.494 765.386L747.462 766.036L880.348 -45.4487L876.38 -46.0985Z" fill="#33E09E"/>
<path d="M868.089 -47.4139L735.203 764.07L739.171 764.72L872.057 -46.7641L868.089 -47.4139Z" fill="#33E09E"/>
<path d="M859.794 -48.7324L726.908 762.752L730.876 763.402L863.762 -48.0826L859.794 -48.7324Z" fill="#33E09E"/>
<path d="M851.503 -50.0399L718.617 761.444L722.585 762.094L855.471 -49.3901L851.503 -50.0399Z" fill="#33E09E"/>
<path d="M843.208 -51.3583L710.322 760.126L714.29 760.776L847.176 -50.7085L843.208 -51.3583Z" fill="#33E09E"/>
<path d="M834.911 -52.6738L702.025 758.811L705.994 759.46L838.879 -52.024L834.911 -52.6738Z" fill="#33E09E"/>
<path d="M826.622 -53.9852L693.736 757.499L697.704 758.149L830.59 -53.3354L826.622 -53.9852Z" fill="#33E09E"/>
<path d="M818.327 -55.3016L685.441 756.183L689.41 756.832L822.295 -54.6518L818.327 -55.3016Z" fill="#33E09E"/>
<path d="M810.036 -56.6094L677.15 754.875L681.118 755.525L814.004 -55.9596L810.036 -56.6094Z" fill="#33E09E"/>
<path d="M801.741 -57.9335L668.855 753.551L672.824 754.201L805.709 -57.2837L801.741 -57.9335Z" fill="#33E09E"/>
<path d="M793.444 -59.244L660.559 752.24L664.527 752.89L797.412 -58.5942L793.444 -59.244Z" fill="#33E09E"/>
<path d="M785.155 -60.5547L652.27 750.93L656.238 751.579L789.123 -59.9049L785.155 -60.5547Z" fill="#33E09E"/>
<path d="M776.866 -61.87L643.98 749.614L647.949 750.264L780.834 -61.2202L776.866 -61.87Z" fill="#33E09E"/>
<path d="M768.569 -63.1874L635.684 748.297L639.652 748.947L772.537 -62.5376L768.569 -63.1874Z" fill="#33E09E"/>
<path d="M760.274 -64.5039L627.389 746.98L631.357 747.63L764.242 -63.8541L760.274 -64.5039Z" fill="#33E09E"/>
<path d="M751.977 -65.8143L619.092 745.67L623.06 746.32L755.946 -65.1645L751.977 -65.8143Z" fill="#33E09E"/>
<path d="M743.694 -67.1229L610.809 744.361L614.777 745.011L747.662 -66.4731L743.694 -67.1229Z" fill="#33E09E"/>
<path d="M735.399 -68.4473L602.514 743.037L606.482 743.687L739.367 -67.7974L735.399 -68.4473Z" fill="#33E09E"/>
<path d="M727.102 -69.7567L594.217 741.728L598.185 742.377L731.071 -69.1069L727.102 -69.7567Z" fill="#33E09E"/>
<path d="M718.806 -71.0663L585.92 740.418L589.888 741.068L722.774 -70.4165L718.806 -71.0663Z" fill="#33E09E"/>
<path d="M710.517 -72.3848L577.631 739.1L581.599 739.749L714.485 -71.735L710.517 -72.3848Z" fill="#33E09E"/>
<path d="M702.227 -73.7001L569.342 737.784L573.31 738.434L706.196 -73.0503L702.227 -73.7001Z" fill="#33E09E"/>
<path d="M693.931 -75.0184L561.045 736.466L565.013 737.116L697.899 -74.3686L693.931 -75.0184Z" fill="#33E09E"/>
<path d="M685.634 -76.3281L552.748 735.156L556.716 735.806L689.602 -75.6783L685.634 -76.3281Z" fill="#33E09E"/>
<path d="M677.345 -77.6376L544.459 733.847L548.427 734.496L681.313 -76.9878L677.345 -77.6376Z" fill="#33E09E"/>
<path d="M669.048 -78.9598L536.162 732.524L540.13 733.174L673.016 -78.31L669.048 -78.9598Z" fill="#33E09E"/>
<path d="M660.759 -80.2705L527.873 731.214L531.841 731.864L664.727 -79.6207L660.759 -80.2705Z" fill="#33E09E"/>
<path d="M652.464 -81.5878L519.578 729.896L523.546 730.546L656.432 -80.938L652.464 -81.5878Z" fill="#33E09E"/>
<path d="M644.173 -82.8963L511.287 728.588L515.255 729.238L648.141 -82.2465L644.173 -82.8963Z" fill="#33E09E"/>
<path d="M635.878 -84.2139L502.992 727.271L506.96 727.92L639.846 -83.564L635.878 -84.2139Z" fill="#33E09E"/>
<path d="M627.581 -85.5301L494.695 725.954L498.663 726.604L631.549 -84.8803L627.581 -85.5301Z" fill="#33E09E"/>
<path d="M619.284 -86.8397L486.398 724.645L490.367 725.294L623.252 -86.1899L619.284 -86.8397Z" fill="#33E09E"/>
<path d="M611.005 -88.1562L478.119 723.328L482.087 723.978L614.973 -87.5064L611.005 -88.1562Z" fill="#33E09E"/>
<path d="M602.706 -89.4715L469.82 722.013L473.788 722.662L606.674 -88.8217L602.706 -89.4715Z" fill="#33E09E"/>
<path d="M594.409 -90.7831L461.523 720.701L465.492 721.351L598.377 -90.1333L594.409 -90.7831Z" fill="#33E09E"/>
<path d="M586.114 -92.0996L453.229 719.385L457.197 720.035L590.082 -91.4498L586.114 -92.0996Z" fill="#33E09E"/>
<path d="M577.819 -93.411L444.934 718.073L448.902 718.723L581.787 -92.7612L577.819 -93.411Z" fill="#33E09E"/>
<path d="M569.536 -94.7313L436.65 716.753L440.618 717.403L573.504 -94.0815L569.536 -94.7313Z" fill="#33E09E"/>
<path d="M561.239 -96.043L428.354 715.441L432.322 716.091L565.207 -95.3931L561.239 -96.043Z" fill="#33E09E"/>
<path d="M552.944 -97.3524L420.059 714.132L424.027 714.782L556.912 -96.7026L552.944 -97.3524Z" fill="#33E09E"/>
<path d="M544.647 -98.6688L411.762 712.815L415.73 713.465L548.615 -98.019L544.647 -98.6688Z" fill="#33E09E"/>
<path d="M536.358 -99.9853L403.473 711.499L407.441 712.149L540.326 -99.3355L536.358 -99.9853Z" fill="#33E09E"/>
<path d="M528.069 -101.302L395.184 710.183L399.152 710.832L532.037 -100.652L528.069 -101.302Z" fill="#33E09E"/>
<path d="M519.772 -102.612L386.887 708.872L390.855 709.522L523.74 -101.962L519.772 -102.612Z" fill="#33E09E"/>
<path d="M511.476 -103.922L378.59 707.562L382.558 708.212L515.444 -103.272L511.476 -103.922Z" fill="#33E09E"/>
<path d="M503.186 -105.245L370.301 706.239L374.269 706.889L507.154 -104.595L503.186 -105.245Z" fill="#33E09E"/>
<path d="M494.89 -106.555L362.004 704.93L365.972 705.579L498.858 -105.905L494.89 -106.555Z" fill="#33E09E"/>
<path d="M486.595 -107.872L353.709 703.612L357.677 704.262L490.563 -107.222L486.595 -107.872Z" fill="#33E09E"/>
<path d="M478.304 -109.182L345.418 702.302L349.386 702.952L482.272 -108.533L478.304 -109.182Z" fill="#33E09E"/>
<path d="M470.015 -110.498L337.129 700.986L341.097 701.636L473.983 -109.848L470.015 -110.498Z" fill="#33E09E"/>
<path d="M461.72 -111.814L328.834 699.67L332.802 700.32L465.688 -111.165L461.72 -111.814Z" fill="#33E09E"/>
<path d="M453.423 -113.126L320.537 698.358L324.505 699.008L457.391 -112.476L453.423 -113.126Z" fill="#33E09E"/>
<path d="M445.126 -114.442L312.24 697.042L316.208 697.692L449.094 -113.792L445.126 -114.442Z" fill="#33E09E"/>
<path d="M436.845 -115.758L303.959 695.727L307.927 696.376L440.813 -115.108L436.845 -115.758Z" fill="#33E09E"/>
<path d="M428.548 -117.069L295.662 694.415L299.63 695.065L432.516 -116.419L428.548 -117.069Z" fill="#33E09E"/>
<path d="M420.251 -118.386L287.365 693.099L291.333 693.748L424.219 -117.736L420.251 -118.386Z" fill="#33E09E"/>
<path d="M411.956 -119.695L279.07 691.789L283.038 692.439L415.924 -119.045L411.956 -119.695Z" fill="#33E09E"/>
<path d="M403.667 -121.017L270.781 690.467L274.749 691.117L407.635 -120.368L403.667 -121.017Z" fill="#33E09E"/>
<path d="M395.376 -122.328L262.49 689.156L266.458 689.806L399.344 -121.678L395.376 -122.328Z" fill="#33E09E"/>
<path d="M387.081 -123.639L254.195 687.846L258.163 688.496L391.049 -122.989L387.081 -123.639Z" fill="#33E09E"/>
<path d="M378.786 -124.955L245.9 686.529L249.869 687.179L382.754 -124.305L378.786 -124.955Z" fill="#33E09E"/>
<path d="M370.495 -126.271L237.609 685.213L241.577 685.863L374.463 -125.622L370.495 -126.271Z" fill="#33E09E"/>
<path d="M362.2 -127.588L229.314 683.896L233.283 684.546L366.168 -126.938L362.2 -127.588Z" fill="#33E09E"/>
<path d="M353.909 -128.898L221.023 682.586L224.992 683.236L357.877 -128.248L353.909 -128.898Z" fill="#33E09E"/>
<path d="M345.612 -130.209L212.727 681.275L216.695 681.925L349.58 -129.559L345.612 -130.209Z" fill="#33E09E"/>
<path d="M337.325 -131.531L204.439 679.953L208.408 680.603L341.293 -130.881L337.325 -131.531Z" fill="#33E09E"/>
<path d="M329.028 -132.841L196.143 678.644L200.111 679.293L332.996 -132.191L329.028 -132.841Z" fill="#33E09E"/>
<path d="M320.731 -134.157L187.846 677.327L191.814 677.977L324.699 -133.507L320.731 -134.157Z" fill="#33E09E"/>
<path d="M312.442 -135.469L179.557 676.016L183.525 676.665L316.41 -134.819L312.442 -135.469Z" fill="#33E09E"/>
<path d="M304.153 -136.783L171.268 674.701L175.236 675.351L308.121 -136.133L304.153 -136.783Z" fill="#33E09E"/>
<path d="M295.856 -138.1L162.971 673.384L166.939 674.034L299.824 -137.451L295.856 -138.1Z" fill="#33E09E"/>
<path d="M287.559 -139.41L154.674 672.074L158.642 672.724L291.528 -138.76L287.559 -139.41Z" fill="#33E09E"/>
<path d="M279.265 -140.727L146.379 670.758L150.347 671.408L283.233 -140.077L279.265 -140.727Z" fill="#33E09E"/>
<path d="M270.975 -142.044L138.09 669.44L142.058 670.09L274.944 -141.394L270.975 -142.044Z" fill="#33E09E"/>
<path d="M262.684 -143.352L129.799 668.132L133.767 668.782L266.653 -142.703L262.684 -143.352Z" fill="#33E09E"/>
<path d="M254.39 -144.67L121.504 666.814L125.472 667.464L258.358 -144.02L254.39 -144.67Z" fill="#33E09E"/>
<path d="M246.093 -145.979L113.207 665.505L117.175 666.155L250.061 -145.33L246.093 -145.979Z" fill="#33E09E"/>
<path d="M237.798 -147.304L104.912 664.181L108.88 664.83L241.766 -146.654L237.798 -147.304Z" fill="#33E09E"/>
<path d="M229.507 -148.612L96.6211 662.872L100.589 663.522L233.475 -147.962L229.507 -148.612Z" fill="#33E09E"/>
<path d="M221.218 -149.924L88.332 661.561L92.3002 662.21L225.186 -149.274L221.218 -149.924Z" fill="#33E09E"/>
<path d="M212.923 -151.246L80.0371 660.238L84.0052 660.888L216.891 -150.596L212.923 -151.246Z" fill="#33E09E"/>
<path d="M204.626 -152.556L71.7402 658.929L75.7084 659.579L208.594 -151.906L204.626 -152.556Z" fill="#33E09E"/>
<path d="M196.339 -153.874L63.4531 657.61L67.4212 658.26L200.307 -153.224L196.339 -153.874Z" fill="#33E09E"/>
<path d="M188.04 -155.184L55.1543 656.301L59.1224 656.951L192.008 -154.534L188.04 -155.184Z" fill="#33E09E"/>
<path d="M179.751 -156.499L46.8652 654.985L50.8334 655.635L183.719 -155.849L179.751 -156.499Z" fill="#33E09E"/>
<path d="M171.454 -157.817L38.5684 653.667L42.5365 654.317L175.422 -157.167L171.454 -157.817Z" fill="#33E09E"/>
<path d="M163.165 -159.127L30.2793 652.357L34.2474 653.007L167.133 -158.477L163.165 -159.127Z" fill="#33E09E"/>
<path d="M154.868 -160.436L21.9824 651.048L25.9505 651.698L158.836 -159.787L154.868 -160.436Z" fill="#33E09E"/>
<path d="M146.573 -161.761L13.6875 649.724L17.6556 650.373L150.541 -161.111L146.573 -161.761Z" fill="#33E09E"/>
<path d="M138.284 -163.07L5.39844 648.414L9.36656 649.064L142.252 -162.42L138.284 -163.07Z" fill="#33E09E"/>
<path d="M129.993 -164.385L-2.89258 647.1L1.07554 647.749L133.961 -163.735L129.993 -164.385Z" fill="#33E09E"/>
<path d="M121.698 -165.696L-11.1875 645.788L-7.21942 646.438L125.666 -165.046L121.698 -165.696Z" fill="#33E09E"/>
<path d="M113.401 -167.013L-19.4844 644.472L-15.5163 645.121L117.369 -166.363L113.401 -167.013Z" fill="#33E09E"/>
<path d="M105.104 -168.33L-27.7812 643.154L-23.8132 643.804L109.072 -167.68L105.104 -168.33Z" fill="#33E09E"/>
<path d="M96.8212 -169.639L-36.0645 641.846L-32.0963 642.496L100.789 -168.989L96.8212 -169.639Z" fill="#33E09E"/>
<path d="M88.5263 -170.956L-44.3594 640.528L-40.3913 641.178L92.4943 -170.306L88.5263 -170.956Z" fill="#33E09E"/>
<path d="M80.2294 -172.272L-52.6562 639.212L-48.6881 639.862L84.1975 -171.623L80.2294 -172.272Z" fill="#33E09E"/>
<path d="M71.9325 -173.582L-60.9531 637.902L-56.985 638.552L75.9006 -172.932L71.9325 -173.582Z" fill="#33E09E"/>
<path d="M63.6435 -174.898L-69.2422 636.586L-65.2741 637.236L67.6116 -174.248L63.6435 -174.898Z" fill="#33E09E"/>
<path d="M55.3485 -176.208L-77.5371 635.276L-73.569 635.926L59.3166 -175.558L55.3485 -176.208Z" fill="#33E09E"/>
<path d="M47.0595 -177.532L-85.8262 633.952L-81.8581 634.602L51.0276 -176.882L47.0595 -177.532Z" fill="#33E09E"/>
</g>
</svg>
