<svg width="439" height="537" viewBox="0 0 439 537" fill="none" xmlns="http://www.w3.org/2000/svg">
<mask id="mask0_53_111763" style="mask-type:luminance" maskUnits="userSpaceOnUse" x="0" y="0" width="440" height="537">
<path d="M51.376 335.823C51.1259 339.035 51.1973 341.223 50.7288 343.291C50.2167 345.542 49.768 348.365 48.2197 349.64C47.116 350.549 43.2332 350.033 42.3994 348.861C41.1647 347.13 41.4387 344.26 41.2918 341.862C41.2521 341.215 42.0024 340.516 42.3915 339.845C33.7842 341.211 39.9459 347.841 36.6348 352.042C44.9919 352.042 51.7928 352.042 58.5937 352.042C58.6056 351.791 58.6175 351.541 58.6334 351.291C56.6324 350.882 54.6355 350.473 52.4717 350.033C52.976 345.415 53.4325 341.211 53.9407 336.542C56.4379 336.415 59.0145 336.288 60.7415 336.201C61.1783 338.837 61.5157 340.874 61.8929 343.16C61.2736 343.847 60.2016 345.038 58.8875 346.499C63.8661 347.647 64.4139 349.092 62.8259 352.848C61.9644 354.884 62.0279 357.322 61.742 359.585C61.6031 360.689 62.0636 362.443 61.5038 362.832C55.6995 366.89 61.0115 371.289 60.547 373.949C64.5966 375.735 67.7052 377.085 70.794 378.479C72.918 379.44 75.0381 380.428 77.1224 381.472C85.7257 385.78 95.6154 385.176 104.298 391.1C115.121 398.48 129.127 395.959 141.888 396.666C143.337 396.745 145.044 396.035 146.29 395.189C151.241 391.838 156.152 392.922 161.615 394.661C159.392 398.016 157.443 400.962 155.112 404.475C158.125 405.281 160.118 405.817 162.377 406.421C161.437 411.824 160.519 417.077 159.479 423.052C166.725 423.052 173.875 423.052 181.275 423.052C181.275 425.43 181.275 427.073 181.275 429.106C184.801 429.106 188.068 429.198 191.324 429.07C192.995 429.007 194.651 428.554 197.073 428.149C197.073 433.144 197.073 437.801 197.073 442.458C197.073 446.313 196.032 448.941 191.288 448.365C186.063 447.73 187.282 443.911 187.37 440.798C187.453 437.67 187.993 434.557 188.334 431.437C187.465 431.373 186.591 431.31 185.722 431.246C185.174 437.785 184.626 444.324 184.086 450.787C185.015 451.196 185.539 451.629 186.071 451.633C192.539 451.716 199.145 452.598 205.45 451.585C217.856 449.596 221.91 459.776 228.631 466.16C229.437 466.926 230.017 468.053 230.39 469.121C231.113 471.186 231.613 473.33 232.363 476.006C230.296 478.822 230.699 480.913 233.57 482.278C232.316 484.351 231.053 486.439 229.62 488.813C237.882 489.695 238.053 490.183 234.793 497.135C234.15 498.508 234.174 500.688 234.813 502.062C235.758 504.09 237.536 505.73 238.962 507.533C238.521 507.795 238.084 508.057 237.644 508.323C236.635 508.069 235.623 507.81 234.614 507.556C234.448 508.458 234.086 509.375 234.15 510.26C234.416 513.984 235.357 517.74 235.055 521.404C234.205 531.707 238.477 536.606 248.903 536.566C255.386 536.543 261.869 536.531 268.349 536.531C286.342 536.527 304.33 536.531 322.105 536.531C321.239 535.355 319.838 534.232 320.032 533.593C321.045 530.274 322.462 527.078 323.792 523.695C324.503 525.529 325.209 527.34 326.293 530.135C328.064 527.506 329.219 525.795 330.371 524.088C332.078 524.191 333.789 524.295 335.988 524.422C337.298 517.117 341.007 510.193 335.905 503.15C339.006 502.784 342.114 502.415 346.664 501.875C342.964 499.239 340.641 497.587 338.315 495.932L338.593 494.368C346.076 495.273 346.66 490.894 346.465 485.772C344.754 485.324 343.369 484.958 341.507 484.47C342.527 483.084 343.639 482.255 343.778 481.286C345.39 470.094 347.7 458.902 347.994 447.659C348.137 442.232 348.931 438.865 353.767 436.518C354.727 439.198 355.688 441.866 356.72 444.745C362.481 439.961 353.036 432.052 359.694 429.372C359.118 423.981 358.614 419.498 358.308 415.004C358.301 414.861 360.385 414.579 361.496 414.361C357.983 412.205 357.129 409.192 356.899 405.007C356.022 389.031 361.691 374.203 364.192 358.834C364.879 354.614 364.835 349.794 366.955 346.388C371.668 338.829 368.595 329.805 372.589 322.329C373.582 320.475 374.602 318.641 375.09 317.747C374.574 314.913 373.725 312.88 373.943 310.97C374.896 302.625 376.651 294.343 377.159 285.982C377.595 278.816 382.11 277.228 388.073 276.025C388.613 277.808 389.149 279.582 389.955 282.254C391.813 276.053 393.46 270.554 395.283 264.464C399.642 269.542 399.467 271.447 395.505 275.449C399.816 285.744 389.446 293.097 391.781 302.617C390.963 302.542 390.145 302.466 389.331 302.395C389.53 299.834 389.899 297.273 389.875 294.716C389.855 292.219 389.434 289.726 389.188 287.229C388.39 287.094 387.588 286.959 386.79 286.824C385.294 292.592 383.773 298.353 382.316 304.13C381.379 307.842 380.66 311.613 379.628 315.298C378.576 319.038 376.857 322.627 376.127 326.418C373.51 339.992 370.858 353.578 368.885 367.255C367.801 374.779 368.162 382.505 367.654 390.123C367.352 394.685 369.266 399.918 363.438 403.09C362.624 403.534 364.133 408.247 364.565 410.986C365.308 411.157 366.054 411.328 366.797 411.499C365.105 412.527 363.418 413.555 361.727 414.583C364.621 419.788 368.667 422.639 373.951 421.384C372.803 418.24 371.084 415.223 370.783 412.066C370.596 410.113 373.026 408.045 373.463 405.861C374.562 400.358 375.201 394.764 376.027 389.206L375.896 389.385C376.19 380.833 376.71 380.4 383.138 383.354L382.951 383.465C383.269 380.972 383.582 378.479 383.833 376.502C381.649 374.743 379.592 373.087 377.536 371.428C378.183 370.777 378.826 370.126 379.473 369.474C380.772 370.586 382.074 371.694 383.372 372.805C383.908 372.436 384.444 372.071 384.98 371.702C383.952 370.169 383.257 367.946 381.824 367.247C378.739 365.739 377.468 362.697 380.097 361.625C384.373 359.887 385.294 356.012 387.009 353.661C395.159 362.443 388.668 373.064 390.467 382.771C391.165 383.211 391.86 383.652 392.559 384.093C392.853 382.508 393.151 380.92 393.444 379.336C394.064 379.757 394.679 380.178 395.298 380.599C394.897 386.439 394.802 392.323 394.024 398.115C392.495 409.51 390.768 420.888 388.767 432.207C387.807 437.65 386.147 442.978 384.587 448.298C383.614 451.621 381.84 454.745 381.129 458.104C379.557 465.532 378.473 473.064 377.075 480.532C376.841 481.782 376.301 483.192 375.432 484.057C373.729 485.756 371.696 487.126 369.608 488.79C369.23 487.253 368.817 485.562 368.405 483.871C365.935 496.174 364.677 508.458 363.156 520.706C362.795 523.628 361.56 526.438 360.734 529.277C360.734 531.342 360.734 533.688 360.734 536.602C365.018 536.273 368.897 535.975 371.994 535.737C370.632 534.22 369.068 533.279 368.945 532.171C368.714 530.119 370.306 527.308 369.409 525.986C365.832 520.698 369.842 515.437 367.908 510.328C368.547 510.272 369.183 510.216 369.822 510.161C370.489 516.382 371.152 522.599 371.819 528.821C374.022 527.181 376.432 524.048 378.116 524.402C382.32 525.279 383.594 522.667 385.667 520.416C388.204 517.653 389.756 514.528 391.193 511.038C395.342 500.946 400.178 491.136 404.616 481.159C406.272 477.439 408.074 473.671 408.932 469.733C410.647 461.88 411.775 453.896 413.108 445.96C413.267 445.007 413.108 443.998 413.279 443.045C414.685 435.03 415.105 426.661 417.797 419.097C422.033 407.199 427.87 395.872 432.884 384.243C433.928 381.822 434.353 379.138 434.817 377.466C432.646 376.208 429.91 375.195 429.998 374.576C430.379 371.833 430.887 367.541 432.598 366.834C438.041 364.591 437.954 359.605 438.057 355.936C438.783 330.031 438.994 304.106 439.01 278.189C439.01 275.187 437.68 270.904 435.48 269.431C429.35 265.322 426.972 259.652 425.424 252.958C424.273 247.988 420.993 245.054 416.836 245.526C408.908 240.23 411.79 233.203 412.235 226.577C412.326 225.203 412.275 223.818 412.434 222.456C413.105 216.647 410.913 212.757 405.383 210.379C398.467 207.401 394.02 199.27 394.766 191.489C389.633 190.301 384.48 188.904 379.243 187.959C374.741 187.149 370.155 186.752 365.59 186.395C364.335 186.296 362.965 186.871 361.735 187.352C355.68 189.698 354.827 194.871 354.172 200.513C353.691 204.669 352.226 208.739 350.952 212.769C350.269 214.932 349.066 216.929 348.097 219.006C348.601 219.296 349.106 219.581 349.61 219.871C348.149 220.824 346.553 221.63 345.263 222.777C343.96 223.933 343.127 226.37 341.789 226.616C334.849 227.895 335.647 234.299 333.749 238.602C331.327 244.101 330.077 250.112 328.322 255.904C328.08 255.833 327.834 255.765 327.591 255.694C326.547 239.071 325.499 222.444 324.455 205.821C324.916 206.047 325.38 206.273 325.841 206.496C326.809 204.55 327.778 202.605 328.747 200.66C323.105 198.603 326.071 193.696 325.249 190.051C319.945 189.182 318.984 185.815 321.787 179.765C322.581 178.054 322.605 175.652 322.156 173.762C320.926 168.545 319.075 163.471 317.872 158.25C317.487 156.583 318.353 154.63 318.69 152.533C317.348 152.609 316.415 152.664 316.499 152.66C314.871 149.246 313.474 146.316 312.056 143.35C314.268 143.251 315.895 143.18 317.527 143.104C317.46 142.183 317.495 140.48 317.305 140.452C314.851 140.123 312.37 140.031 308.868 139.817C308.364 138.956 307.101 137.221 306.276 135.299C303.802 129.534 301.345 123.754 299.193 117.866C298.049 114.734 297.557 111.367 296.68 107.734C286.457 103.057 286.782 90.5673 281.224 81.9799C282.435 81.3049 283.84 80.5268 286.643 78.9625C282.554 78.0931 279.934 77.5333 276.785 76.8623C277.861 75.31 278.552 74.3175 279.239 73.3249C278.616 73.2971 277.988 73.2733 277.365 73.2455C277.008 71.1294 277.361 68.4019 276.162 67.0084C272.871 63.1772 273.45 58.4329 272.402 54.1491C271.314 49.7065 273.069 43.4297 270.576 40.6982C265.161 34.7628 259.051 28.8632 250.078 27.5213C246.017 26.9138 241.34 26.894 238.569 22.0107C236.993 19.2356 233.455 17.0559 229.552 19.6564C229.457 19.7199 228.985 19.2236 228.663 18.9656C229.417 17.7547 230.168 16.5517 231.097 15.0629C228.179 14.8922 225.658 15.4004 223.804 14.515C217.773 11.6287 212.024 8.16677 206.093 5.05417C203.218 3.54551 200.312 1.72718 197.208 1.09989C188.017 -0.758137 178.981 -0.738285 170.723 4.94697C169.679 5.66557 167.475 4.48644 165.859 4.66906C164.553 4.81596 163.326 5.68145 162.064 6.22933C164.39 7.65859 163.648 9.25062 161.699 9.67146C160.797 9.86599 159.444 7.93253 158.372 7.0313C156.021 7.69035 153.373 7.92459 151.273 9.12357C145.814 12.2362 138.116 11.0729 134.61 18.1835C133.911 19.6048 130.656 19.6127 128.798 20.6608C127.099 21.6176 125.479 22.9079 124.224 24.3928C123.117 25.7069 122.811 27.692 121.719 29.0299C117.816 33.81 113.775 38.4829 109.698 43.1121C108.046 44.986 106.132 46.6217 104.393 48.4201C103.099 49.7581 101.892 51.1794 100.193 53.0652C102.718 53.7441 104.036 54.0975 105.35 54.4508C104.06 56.4796 102.512 57.2696 100.884 57.8215C98.9979 58.4607 97.0407 58.8974 95.1112 59.4016C93.6978 59.7708 92.2924 60.2353 90.8512 60.4219C87.8895 60.8031 85.2334 63.8482 81.9501 61.4819C79.0519 66.8178 71.58 66.5518 68.9756 73.5195C67.3915 77.7596 70.4327 85.823 62.0041 86.744C61.9445 86.752 61.9207 87.1053 61.6627 88.3122C62.3852 88.6219 63.6596 89.1698 65.5137 89.9599C60.4319 94.7995 55.7074 98.5036 52.2335 103.145C51.3204 104.364 47.7314 109.596 53.7382 111.554C46.5244 121.181 55.0404 127.009 58.8716 134.338C57.7679 135.013 56.557 135.748 56.6444 135.696C56.8508 138.991 57.899 141.739 56.954 143.116C53.4167 148.273 55.755 153.474 55.628 159.168C54.3655 159.831 52.702 160.7 49.6132 162.316C56.4141 162.236 59.9833 164.265 61.0751 169.744C61.2736 170.729 62.8735 172.047 63.9296 172.15C70.4446 172.773 68.7097 177.331 68.2531 181.063C67.4392 187.697 66.3395 194.295 65.3628 200.906C65.9782 200.989 66.5936 201.076 67.2089 201.16C68.3762 193.41 69.5394 185.664 70.8257 177.121C73.2912 181.071 74.6133 184.505 77.0311 186.768C81.4658 190.925 79.9333 193.16 76.249 194.498C79.175 201.958 81.9819 209.124 84.5466 215.659C84.8603 214.317 85.3565 212.193 85.8528 210.065C86.3252 210.029 86.7977 209.997 87.2741 209.962C88.1436 211.836 89.013 213.71 90.0572 215.953C90.6289 214.42 90.9941 213.44 91.673 211.625C94.3806 217.279 99.9786 220.51 98.8709 227.121C98.6406 228.498 98.8392 229.951 98.8392 231.369C99.0615 231.369 99.2878 231.369 99.5101 231.365C100.979 226.7 102.448 222.035 103.917 217.37C104.64 217.485 105.362 217.604 106.081 217.719C106.668 227.895 107.256 238.07 107.843 248.246L108.709 247.67C110.166 250.803 111.619 253.935 113.652 258.31C109.622 256.921 107.435 256.166 104.389 255.114C105.048 257.6 105.386 258.874 105.696 260.033C98.1086 259.386 92.9633 269.828 84.8602 263.023C84.1377 265.433 83.6255 267.14 83.5938 267.251C80.775 268.426 78.4167 268.645 77.7616 269.812C73.5374 277.375 69.6863 285.141 65.9464 292.382C66.8834 294.975 67.7965 297.496 68.7097 300.017C65.4065 300.696 62.1192 301.494 58.7883 301.99C57.7203 302.149 56.5014 301.172 55.4097 301.287C52.9839 301.541 50.5978 302.157 48.1959 302.625C48.1959 302.625 48.4221 302.371 48.4301 302.367C48.4579 303.34 48.4062 305.158 48.5095 305.166C55.6478 305.761 62.9053 307.369 69.9364 303.201C70.262 305.559 70.5756 307.798 70.8853 310.041C70.3096 309.835 69.7379 309.624 69.1623 309.418C68.1181 311.193 65.8273 313.348 66.2363 314.674C68.1141 320.773 63.7271 329.412 57.6131 329.475C52.2534 329.531 46.8817 328.36 39.7633 327.522C37.5519 330.166 34.0542 334.343 30.5604 338.519L29.155 338.19C29.5202 333.283 29.8895 328.371 30.2547 323.496C37.4963 323.496 43.7532 323.496 50.8003 323.496C48.1601 318.252 45.4207 316.286 40.5374 317.688C36.1544 318.946 33.8438 313.805 29.8141 313.527C30.1555 309.358 26.7491 310.347 24.7045 310.176C21.1313 309.882 17.459 310.557 13.9176 310.125C11.2139 309.791 8.64917 308.37 6.02094 307.433C4.71475 307.473 3.02747 309.128 1.75699 311.058C0.859741 312.423 -0.307526 315.278 0.0736084 315.568C5.24277 319.451 2.21753 324.501 2.43192 329.09C2.49939 330.539 3.53561 333.148 4.22644 333.179C10.8328 333.493 17.4629 333.366 24.0851 333.366C24.0613 332.762 24.0375 332.159 24.0097 331.552C20.6867 331.758 17.3438 331.81 14.0406 332.195C7.18814 332.997 4.61151 330.249 5.73108 323.393C6.06854 321.332 5.78268 319.169 5.78268 317.517C11.8173 317.517 18.2768 317.517 24.0494 317.517C22.8385 320.233 21.5839 323.051 20.3293 325.87C22.3105 325.247 24.2916 324.624 26.368 323.973C26.368 329.582 26.368 335.248 26.368 342.017C29.8419 340.814 32.7758 340.076 35.4517 338.797C38.1832 337.491 40.5096 336.574 42.2724 339.98C45.0872 338.69 47.9021 337.4 51.3839 335.8L51.376 335.823ZM273.657 189.877C269.818 192.501 268.432 192.163 266.84 187.554C272.406 187.344 275.662 185.283 273.645 178.343C272.045 180.114 270.882 181.396 268.805 183.687C268.003 174.282 267.277 165.746 266.546 157.214C265.836 157.21 265.121 157.202 264.41 157.198C263.954 160.299 264.136 163.701 262.85 166.405C261.699 168.827 258.936 170.482 256.883 172.475C255.823 170.625 254.108 168.875 253.81 166.909C252.401 157.635 253.441 148.579 256.784 139.73C258.316 135.672 259.106 131.333 260.234 127.12C258.717 126.851 256.403 126.438 254.199 126.041C248.379 129.487 254.175 140.595 243.404 141.655C243.94 139.345 244.393 137.411 244.842 135.482C245.298 135.295 245.755 135.108 246.211 134.926C246.592 135.946 246.973 136.962 247.355 137.983C247.756 137.808 248.153 137.633 248.554 137.459C248.895 129.876 249.177 122.289 249.598 114.71C249.792 111.192 253.119 107.587 249.197 104.233C248.907 103.982 248.593 103.756 247.72 103.073C246.116 109.568 244.576 115.817 243.031 122.066L241.816 121.876C242.193 119.061 242.567 116.246 242.944 113.431C242.519 113.336 242.094 113.237 241.669 113.142C239.93 121.681 238.191 130.225 236.449 138.765C235.877 138.654 235.309 138.543 234.737 138.431C238.057 120.578 241.376 102.72 244.695 84.8661C245.35 84.7748 246.005 84.6835 246.66 84.5882C247.581 86.4939 249.336 88.4353 249.264 90.3053C249.046 96.1136 253.262 98.9681 256.331 102.724C258.916 105.88 261.151 109.338 263.398 112.752C266.126 116.897 267.884 121.578 272.116 124.826C275.67 127.553 274.451 131.19 272.378 134.707C270.552 137.812 267.598 140.949 270.965 146.955C273.057 142.509 274.499 139.444 276.007 136.236C276.706 136.74 277.504 137.018 277.567 137.415C278.548 143.581 279.382 149.77 280.355 155.936C281.677 164.349 283.09 172.745 284.464 181.15C287.104 192.334 289.748 203.514 292.38 214.698C293.158 218.009 294.341 221.3 294.572 224.651C294.941 230.027 294.671 235.446 294.671 240.568C298.252 239.496 300.721 243.827 300.864 254.042C299.705 253.197 298.792 252.53 297.879 251.859C297.41 252.196 296.938 252.534 296.469 252.871C297.974 255.468 299.483 258.064 300.706 260.172C300.106 262.701 299.376 265.762 298.395 269.883C289.323 273.039 294.707 283.036 291.876 289.889C290.46 288.626 290.501 284.042 291.999 276.136C291.181 276.672 290.526 277.101 289.665 277.669C289.113 266.195 288.569 254.924 287.997 243.069C288.664 244.137 289.093 244.82 289.522 245.506C289.851 245.479 290.185 245.451 290.514 245.419C289.835 238.96 289.156 232.496 288.394 225.243C286.929 226.982 286.06 228.018 285.186 229.054C284.742 228.931 284.297 228.812 283.852 228.689C284.194 226.033 284.539 223.377 284.88 220.721C284.464 220.59 284.043 220.459 283.626 220.332C282.848 222.281 282.07 224.234 281.291 226.184C280.795 226.223 280.299 226.267 279.803 226.307C278.635 215.599 277.468 204.896 276.226 193.493C277.774 193.91 278.743 194.172 279.191 194.292C280.986 189.837 282.749 185.462 284.511 181.087C278.266 180.587 277.575 187.193 273.653 189.873L273.657 189.877ZM199.625 380.948C201.321 369.193 200.773 357.54 198.141 346.011C197.426 342.886 195.83 339.96 194.695 337.074C199.61 336.447 200.828 338.392 202.468 350.664C208.054 346.467 210.952 339.674 209.332 334.589L210.75 333.688C212.084 336.097 214.057 338.372 214.617 340.953C215.685 345.852 215.879 350.303 222.875 350.811C228.171 351.196 226.46 355.118 223.534 358.711C227.238 358.588 230.47 359.636 230.291 354.896C230.18 352.002 229.775 349.116 229.481 345.987C232.558 345.987 235.075 345.987 238.966 345.987C236.929 344.069 235.936 343.136 234.745 342.017C236.25 341.529 237.521 341.12 239.025 340.631C239.025 337.809 239.025 334.954 239.025 330.607C242.916 336.042 246.009 340.361 249.145 344.744C249.411 343.375 249.808 341.318 250.404 338.253C251.531 340.048 252.162 341.048 252.119 340.981C256.649 335.585 261.361 329.967 266.59 323.742C268.73 328.939 270.215 332.54 271.696 336.141C271.974 336.141 272.255 336.145 272.533 336.149V320.066C282.32 330.099 280.152 345.399 268.253 353.896C267.332 352.578 266.419 351.263 265.506 349.949C265.038 350.009 264.573 350.072 264.105 350.132C264.553 353.582 265.002 357.036 265.466 360.585C253.072 363.285 256.093 373.905 255.378 382.385C245.771 379.809 248.494 390.123 243.063 392.732C241.967 391.171 240.657 389.309 239.267 387.328C234.114 392.096 229.036 392.045 223.288 391.306C217.844 390.608 212.179 391.652 206.319 391.946C205.37 395.999 203.937 397.897 198.561 396.797C192.273 395.515 185.452 396.71 178.869 397.008C175.269 397.17 171.93 393.526 168.094 396.305C167.9 396.444 165.99 395.07 165.871 394.252C165.704 393.113 166.149 391.052 166.888 390.755C170.731 389.198 174.689 387.304 178.723 386.975C186.02 386.379 193.4 386.804 200.09 386.804C199.931 385.089 199.328 382.949 199.618 380.94L199.625 380.948ZM215.323 408.275C213.771 405.063 212.953 403.368 211.631 400.632C217.44 400.251 222.863 399.525 228.219 399.842C229.362 399.91 231.442 403.975 231.113 405.853C229.441 415.346 222.446 420.368 212.441 420.181C206.347 420.07 200.253 420.161 193.194 420.161C194.262 417.621 194.782 416.378 195.461 414.766C194.389 414.849 193.702 414.687 193.341 414.961C190.375 417.2 187.604 421.21 184.515 421.456C178.365 421.948 172.033 420.499 165.832 419.494C165.2 419.391 164.585 416.842 164.625 415.449C164.72 412.162 165.216 408.886 165.538 405.726C176.559 405.726 187.739 405.726 198.923 405.726C199.117 405.726 199.403 405.583 199.49 405.67C203.429 409.605 205.299 406.961 206.335 403.856C209.027 405.178 211.472 406.381 215.327 408.275H215.323ZM153.873 155.134C150.407 155.646 146.509 156.222 142.316 156.837C143.031 159.6 143.813 162.626 144.595 165.655C143.948 165.822 143.297 165.988 142.65 166.155C136.27 152.883 129.358 139.754 132.081 123.079C142.106 138.527 159.666 147.618 162.512 168.092C156.259 165.722 157.482 159.025 153.869 155.138L153.873 155.134ZM276.214 530.79C275.694 528.535 275.757 526.121 275.749 523.775C275.713 510.911 275.586 498.048 275.825 485.193C275.884 482.044 277.19 478.92 279.136 475.998C283.026 495.213 282.637 514.23 279.521 534.943C277.929 533.025 276.5 532.036 276.21 530.79H276.214ZM211.433 444.808C211.433 445.312 211.433 446.976 211.433 449.195C208.197 449.195 205.037 449.723 202.214 448.973C200.82 448.604 199.304 445.932 199.173 444.201C198.939 441.14 199.844 438.007 200.026 434.887C200.122 433.263 199.689 431.611 199.411 429.281C205.652 429.281 212.58 429.281 219.508 429.281C219.754 429.904 220 430.524 220.242 431.147C217.162 433.596 214.077 436.05 210.047 439.258C213.136 439.671 215.002 439.917 216.864 440.167C217.078 440.695 217.289 441.227 217.503 441.755C215.712 442.656 213.922 443.554 211.429 444.808H211.433ZM124.919 87.7008C124.558 88.1574 124.193 88.61 123.831 89.0666C126.801 92.5603 129.771 96.058 132.951 99.8019C124.177 100.247 115.982 83.4885 119.218 73.2177C124.26 74.8693 129.302 76.5169 134.344 78.1685C134.578 77.6683 134.813 77.1641 135.047 76.6638C136.055 78.2876 137.064 79.9114 138.076 81.5352C137.894 81.9679 137.707 82.4007 137.524 82.8374C133.618 81.4042 129.707 79.967 125.447 78.4027C125.634 87.8755 136.5 85.688 138.938 91.8457C138.501 92.4174 138.064 92.9931 137.624 93.5648C133.387 91.6114 129.151 89.6581 124.915 87.7048L124.919 87.7008ZM302.095 337.126C304.299 332.782 295.346 329.59 301.682 324.707C302.865 326.077 303.985 327.371 305.446 329.058C306.014 327.986 306.502 327.065 306.681 326.728C308.467 328.927 310.44 331.365 313.136 334.684C313.835 332.227 314.152 331.111 314.069 331.405C316.221 335.252 319.004 339.667 321.199 344.359C322.704 347.575 324.296 351.148 321.787 354.924C323.482 344.995 312.957 343.156 309.797 336.324C307.232 336.59 304.946 336.828 302.095 337.126ZM212.981 306.365C214.196 316.215 215.244 324.707 216.491 334.803C210.865 328.689 208.725 312.4 212.981 306.365ZM289.653 325.259C289.097 325.35 288.537 325.442 287.981 325.537C286.461 318.764 284.944 311.987 283.423 305.214C288.088 307.35 283.419 315.651 292.511 315.044C292.511 318.216 292.511 322.15 292.511 326.081C292.237 326.136 291.963 326.196 291.689 326.251C291.28 324.751 290.871 323.25 290.26 320.999C289.97 323.012 289.811 324.135 289.649 325.259H289.653ZM191.57 328.078C188.251 327.379 183.546 315.326 184.638 308.743C187.481 315.862 193.416 320.384 191.57 328.078ZM133.237 117.159C132.042 115.905 132.077 113.479 131.569 111.573C133.423 111.55 135.698 110.827 137.044 111.645C140.307 113.618 143.746 116.135 139.621 120.879C137.417 119.665 134.856 118.863 133.241 117.163L133.237 117.159ZM149.181 84.5684C149.308 86.0969 151.237 87.8517 152.778 88.7966C155.338 90.3648 158.248 91.3613 161.377 92.7668C155.775 95.3513 145.881 89.2532 142.519 81.297C145.977 80.7332 148.776 79.701 149.181 84.5684ZM405.915 395.535C405.351 400.799 404.132 405.988 403.124 411.205C402.48 411.125 401.833 411.046 401.19 410.967C401.19 405.412 401.19 399.862 401.19 392.736C402.897 393.708 405.994 394.792 405.915 395.535ZM397.958 346.916C398.57 346.992 399.185 347.067 399.797 347.142C398.661 356.381 397.53 365.619 396.394 374.858C395.477 374.735 394.56 374.616 393.643 374.493C395.08 365.302 396.517 356.107 397.954 346.916H397.958ZM339.363 477.407C338.684 477.328 338.005 477.248 337.326 477.173C337.779 470.32 338.231 463.472 338.68 456.619C339.494 456.663 340.304 456.707 341.118 456.75C344.401 464.119 338.204 470.304 339.359 477.407H339.363ZM180.549 192.827C180.021 193.212 179.493 193.593 178.965 193.978C174.459 187.753 169.956 181.527 165.45 175.302C166.189 174.786 166.923 174.266 167.662 173.75C171.957 180.11 176.253 186.466 180.549 192.827ZM190.157 206.615C190.82 206.099 191.479 205.579 192.142 205.063C195.822 209.652 199.502 214.238 203.179 218.827C202.337 219.45 201.499 220.074 200.658 220.697C197.156 216.004 193.658 211.308 190.157 206.615ZM317.039 497.254C316.463 497.234 315.883 497.214 315.308 497.198C312.036 491.434 315.582 485.756 317.039 479.972V497.254ZM208.372 94.4938C207.153 89.7256 205.93 84.9575 204.711 80.1893C205.398 80.0146 206.085 79.8399 206.776 79.6653C209.118 84.2865 212.56 88.7172 208.376 94.4977L208.372 94.4938ZM179.263 102.16C174.526 97.7612 170.06 93.6164 165.597 89.4715C173.2 90.4323 177.917 94.4025 179.263 102.16ZM424.586 328.554C425.082 328.558 425.579 328.566 426.075 328.57C426.075 334.108 426.075 339.647 426.075 345.185C424.872 345.137 423.673 345.086 422.47 345.038C423.177 339.543 423.88 334.049 424.586 328.554ZM390.038 340.623C388.716 342.12 387.029 344.026 384.821 346.519C382.443 340.874 387.398 336.451 388.061 331.377C388.712 334.422 389.363 337.471 390.038 340.623ZM144.194 174.218C145.191 171.975 146.068 169.998 147.458 166.874C148.855 170.788 149.947 173.849 151.039 176.914C150.439 177.264 149.84 177.613 149.24 177.962C147.636 176.771 146.036 175.584 144.194 174.214V174.218ZM149.058 185.823C152.427 184.632 155.166 186.21 157.276 190.556C156.831 191.115 156.387 191.671 155.938 192.231C153.774 190.218 151.61 188.201 149.058 185.827V185.823ZM236.282 304.078C237.092 303.919 237.902 303.757 238.712 303.598C239.414 307.608 240.113 311.621 240.816 315.631C240.101 315.738 239.39 315.846 238.676 315.953C237.878 311.995 237.08 308.036 236.278 304.078H236.282ZM323.768 294.486C324.106 294.482 324.447 294.474 324.785 294.47C325.217 299.135 325.646 303.796 326.079 308.461C325.309 308.469 324.538 308.481 323.768 308.489C323.768 303.82 323.768 299.155 323.768 294.486ZM229.068 328.574C229.612 328.57 230.156 328.562 230.7 328.558C230.942 331.897 231.184 335.236 231.426 338.575C230.489 338.575 229.548 338.575 228.612 338.579C228.766 335.244 228.917 331.909 229.072 328.578L229.068 328.574ZM351.214 427.542C352.059 428.074 352.901 428.602 353.747 429.134C352.48 430.936 351.218 432.735 349.955 434.537C349.296 434.14 348.641 433.743 347.982 433.346C349.058 431.413 350.138 429.475 351.214 427.542ZM370.735 171.65C370.302 177.768 363.005 182.373 355.95 180.928C350.487 179.808 344.949 179.054 339.534 177.752C338.7 177.553 337.541 174.48 337.934 174.064C344.099 167.537 347.295 157.992 357.526 155.507C361.568 154.526 363.982 155.035 365.538 158.818C367.293 163.086 369.004 167.37 370.735 171.65ZM382.955 383.469C384.003 383.918 385.051 384.367 385.718 384.652C383.257 390.413 380.934 395.856 378.663 401.18C377.81 397.285 376.921 393.248 376.035 389.214L375.904 389.393C378.318 387.384 380.732 385.371 383.146 383.362L382.955 383.473V383.469ZM48.1919 302.645C48.1919 302.645 48.4182 302.391 48.4261 302.387C44.5909 302.387 40.7518 302.387 37.5955 302.387C39.6799 300.739 42.2446 298.71 45.4128 296.205C46.4688 298.647 47.3304 300.648 48.1959 302.645H48.1919ZM10.9121 301.39H23.8548C23.8588 301.752 23.8628 302.113 23.8668 302.474C19.5631 302.736 15.2634 302.998 10.9598 303.26C10.9439 302.637 10.928 302.014 10.9121 301.39Z" fill="white"/>
</mask>
<g mask="url(#mask0_53_111763)">
<path d="M-6.0033 529.479H457.611V535.351H-6.0033V529.479Z" fill="#C1CAC2"/>
<path d="M-6.0033 518.533H457.611V524.322H-6.0033V518.533Z" fill="#C1CAC2"/>
<path d="M-6.0033 507.589H457.611V513.298H-6.0033V507.589Z" fill="#C1CAC2"/>
<path d="M-6.0033 496.646H457.611V502.272H-6.0033V496.646Z" fill="#C1CAC2"/>
<path d="M-6.0033 485.701H457.611V491.243H-6.0033V485.701Z" fill="#C1CAC2"/>
<path d="M-6.0033 474.755H457.611V480.214H-6.0033V474.755Z" fill="#C1CAC2"/>
<path d="M-6.0033 463.809H457.611V469.188H-6.0033V463.809Z" fill="#C1CAC2"/>
<path d="M-6.0033 452.864H457.611V458.16H-6.0033V452.864Z" fill="#C1CAC2"/>
<path d="M-6.0033 441.918H457.611V447.131H-6.0033V441.918Z" fill="#C1CAC2"/>
<path d="M-6.0033 430.972H457.611V436.101H-6.0033V430.972Z" fill="#C1CAC2"/>
<path d="M-6.0033 420.026H457.611V425.076H-6.0033V420.026Z" fill="#C1CAC2"/>
<path d="M-6.0033 409.084H457.611V414.051H-6.0033V409.084Z" fill="#C1CAC2"/>
<path d="M-6.0033 398.139H457.611V403.022H-6.0033V398.139Z" fill="#C1CAC2"/>
<path d="M-6.0033 387.193H457.611V391.993H-6.0033V387.193Z" fill="#C1CAC2"/>
<path d="M-6.0033 376.247H457.611V380.964H-6.0033V376.247Z" fill="#C1CAC2"/>
<path d="M-6.0033 365.302H457.611V369.939H-6.0033V365.302Z" fill="#C1CAC2"/>
<path d="M-6.0033 354.356H457.611V358.91H-6.0033V354.356Z" fill="#C1CAC2"/>
<path d="M-6.0033 343.411H457.611V347.882H-6.0033V343.411Z" fill="#C1CAC2"/>
<path d="M-6.0033 332.469H457.611V336.856H-6.0033V332.469Z" fill="#C1CAC2"/>
<path d="M-6.0033 321.522H457.611V325.83H-6.0033V321.522Z" fill="#C1CAC2"/>
<path d="M-6.0033 310.577H457.611V314.801H-6.0033V310.577Z" fill="#C1CAC2"/>
<path d="M-6.0033 299.632H457.611V303.773H-6.0033V299.632Z" fill="#C1CAC2"/>
<path d="M-6.0033 288.687H457.611V292.744H-6.0033V288.687Z" fill="#C1CAC2"/>
<path d="M-6.0033 277.74H457.611V281.718H-6.0033V277.74Z" fill="#C1CAC2"/>
<path d="M-6.0033 266.794H457.611V270.689H-6.0033V266.794Z" fill="#C1CAC2"/>
<path d="M-6.0033 255.853H457.611V259.664H-6.0033V255.853Z" fill="#C1CAC2"/>
<path d="M-6.0033 244.907H457.611V248.635H-6.0033V244.907Z" fill="#C1CAC2"/>
<path d="M-6.0033 233.961H457.611V237.606H-6.0033V233.961Z" fill="#C1CAC2"/>
<path d="M-6.0033 223.016H457.611V226.581H-6.0033V223.016Z" fill="#C1CAC2"/>
<path d="M-6.0033 212.069H457.611V215.551H-6.0033V212.069Z" fill="#C1CAC2"/>
<path d="M-6.0033 201.124H457.611V204.522H-6.0033V201.124Z" fill="#C1CAC2"/>
<path d="M-6.0033 190.179H457.611V193.494H-6.0033V190.179Z" fill="#C1CAC2"/>
<path d="M-6.0033 179.232H457.611V182.468H-6.0033V179.232Z" fill="#C1CAC2"/>
<path d="M-6.0033 168.291H457.611V171.443H-6.0033V168.291Z" fill="#C1CAC2"/>
<path d="M-6.0033 157.346H457.611V160.415H-6.0033V157.346Z" fill="#C1CAC2"/>
<path d="M-6.0033 146.399H457.611V149.385H-6.0033V146.399Z" fill="#C1CAC2"/>
<path d="M-6.0033 135.454H457.611V138.36H-6.0033V135.454Z" fill="#C1CAC2"/>
<path d="M-6.0033 124.508H457.611V127.331H-6.0033V124.508Z" fill="#C1CAC2"/>
<path d="M-6.0033 113.562H457.611V116.302H-6.0033V113.562Z" fill="#C1CAC2"/>
<path d="M-6.0033 102.617H457.611V105.273H-6.0033V102.617Z" fill="#C1CAC2"/>
<path d="M-6.0033 91.6748H457.611V94.2475H-6.0033V91.6748Z" fill="#C1CAC2"/>
<path d="M-6.0033 80.729H457.611V83.2223H-6.0033V80.729Z" fill="#C1CAC2"/>
<path d="M-6.0033 69.7837H457.611V72.1936H-6.0033V69.7837Z" fill="#C1CAC2"/>
<path d="M-6.0033 58.8379H457.611V61.1644H-6.0033V58.8379Z" fill="#C1CAC2"/>
<path d="M-6.0033 47.8921H457.611V50.1352H-6.0033V47.8921Z" fill="#C1CAC2"/>
<path d="M-6.0033 36.9468H457.611V39.1105H-6.0033V36.9468Z" fill="#C1CAC2"/>
<path d="M-6.0033 26.001H457.611V28.0813H-6.0033V26.001Z" fill="#C1CAC2"/>
<path d="M-6.0033 15.0591H457.611V17.0561H-6.0033V15.0591Z" fill="#C1CAC2"/>
<path d="M-6.0033 4.11328H457.611V6.02689H-6.0033V4.11328Z" fill="#C1CAC2"/>
<path d="M437.275 -22.4907H438.764V580.953H437.275V-22.4907Z" fill="#95C9E6"/>
<path d="M430.746 -22.4907H432.234V580.953H430.746V-22.4907Z" fill="#95C9E6"/>
<path d="M424.214 -22.4907H425.703V580.953H424.214V-22.4907Z" fill="#95C9E6"/>
<path d="M417.689 -22.4907H419.178V580.953H417.689V-22.4907Z" fill="#95C9E6"/>
<path d="M411.156 -22.4907H412.645V580.953H411.156V-22.4907Z" fill="#95C9E6"/>
<path d="M404.624 -22.4907H406.113V580.953H404.624V-22.4907Z" fill="#95C9E6"/>
<path d="M398.099 -22.4907H399.588V580.953H398.099V-22.4907Z" fill="#95C9E6"/>
<path d="M391.568 -22.4907H393.057V580.953H391.568V-22.4907Z" fill="#95C9E6"/>
<path d="M385.037 -22.4907H386.525V580.953H385.037V-22.4907Z" fill="#95C9E6"/>
<path d="M378.505 -22.4907H379.994V580.953H378.505V-22.4907Z" fill="#95C9E6"/>
<path d="M371.98 -22.4907H373.469V580.953H371.98V-22.4907Z" fill="#95C9E6"/>
<path d="M365.449 -22.4907H366.938V580.953H365.449V-22.4907Z" fill="#95C9E6"/>
<path d="M358.917 -22.4907H360.406V580.953H358.917V-22.4907Z" fill="#95C9E6"/>
<path d="M352.39 -22.4907H353.879V580.953H352.39V-22.4907Z" fill="#95C9E6"/>
<path d="M345.859 -22.4907H347.348V580.953H345.859V-22.4907Z" fill="#95C9E6"/>
<path d="M339.328 -22.4907H340.816V580.953H339.328V-22.4907Z" fill="#95C9E6"/>
<path d="M332.796 -22.4907H334.285V580.953H332.796V-22.4907Z" fill="#95C9E6"/>
<path d="M326.271 -22.4907H327.76V580.953H326.271V-22.4907Z" fill="#95C9E6"/>
<path d="M319.74 -22.4907H321.229V580.953H319.74V-22.4907Z" fill="#95C9E6"/>
<path d="M313.208 -22.4907H314.697V580.953H313.208V-22.4907Z" fill="#95C9E6"/>
<path d="M306.681 -22.4907H308.17V580.953H306.681V-22.4907Z" fill="#95C9E6"/>
<path d="M300.152 -22.4907H301.641V580.953H300.152V-22.4907Z" fill="#95C9E6"/>
<path d="M293.621 -22.4907H295.109V580.953H293.621V-22.4907Z" fill="#95C9E6"/>
<path d="M287.087 -22.4907H288.576V580.953H287.087V-22.4907Z" fill="#95C9E6"/>
<path d="M280.562 -22.4907H282.051V580.953H280.562V-22.4907Z" fill="#95C9E6"/>
<path d="M274.031 -22.4907H275.52V580.953H274.031V-22.4907Z" fill="#95C9E6"/>
<path d="M267.501 -22.4907H268.99V580.953H267.501V-22.4907Z" fill="#95C9E6"/>
<path d="M260.97 -22.4907H262.459V580.953H260.97V-22.4907Z" fill="#95C9E6"/>
<path d="M254.443 -22.4907H255.932V580.953H254.443V-22.4907Z" fill="#95C9E6"/>
<path d="M247.912 -22.4907H249.4V580.953H247.912V-22.4907Z" fill="#95C9E6"/>
<path d="M241.38 -22.4907H242.869V580.953H241.38V-22.4907Z" fill="#95C9E6"/>
<path d="M234.855 -22.4907H236.344V580.953H234.855V-22.4907Z" fill="#95C9E6"/>
<path d="M228.322 -22.4907H229.811V580.953H228.322V-22.4907Z" fill="#95C9E6"/>
<path d="M221.792 -22.4907H223.281V580.953H221.792V-22.4907Z" fill="#95C9E6"/>
<path d="M215.265 -22.4907H216.754V580.953H215.265V-22.4907Z" fill="#95C9E6"/>
<path d="M208.734 -22.4907H210.223V580.953H208.734V-22.4907Z" fill="#95C9E6"/>
<path d="M202.203 -22.4907H203.691V580.953H202.203V-22.4907Z" fill="#95C9E6"/>
<path d="M195.671 -22.4907H197.16V580.953H195.671V-22.4907Z" fill="#95C9E6"/>
<path d="M189.146 -22.4907H190.635V580.953H189.146V-22.4907Z" fill="#95C9E6"/>
<path d="M182.615 -22.4907H184.104V580.953H182.615V-22.4907Z" fill="#95C9E6"/>
<path d="M176.083 -22.4907H177.572V580.953H176.083V-22.4907Z" fill="#95C9E6"/>
<path d="M169.556 -22.4907H171.045V580.953H169.556V-22.4907Z" fill="#95C9E6"/>
<path d="M163.027 -22.4907H164.516V580.953H163.027V-22.4907Z" fill="#95C9E6"/>
<path d="M156.494 -22.4907H157.982V580.953H156.494V-22.4907Z" fill="#95C9E6"/>
<path d="M149.964 -22.4907H151.453V580.953H149.964V-22.4907Z" fill="#95C9E6"/>
<path d="M143.437 -22.4907H144.926V580.953H143.437V-22.4907Z" fill="#95C9E6"/>
<path d="M136.906 -22.4907H138.395V580.953H136.906V-22.4907Z" fill="#95C9E6"/>
<path d="M130.376 -22.4907H131.865V580.953H130.376V-22.4907Z" fill="#95C9E6"/>
<path d="M123.843 -22.4907H125.332V580.953H123.843V-22.4907Z" fill="#95C9E6"/>
<path d="M117.318 -22.4907H118.807V580.953H117.318V-22.4907Z" fill="#95C9E6"/>
<path d="M110.787 -22.4907H112.275V580.953H110.787V-22.4907Z" fill="#95C9E6"/>
<path d="M104.255 -22.4907H105.744V580.953H104.255V-22.4907Z" fill="#95C9E6"/>
<path d="M97.728 -22.4907H99.2168V580.953H97.728V-22.4907Z" fill="#95C9E6"/>
<path d="M91.1987 -22.4907H92.6875V580.953H91.1987V-22.4907Z" fill="#95C9E6"/>
<path d="M84.6674 -22.4907H86.1562V580.953H84.6674V-22.4907Z" fill="#95C9E6"/>
<path d="M78.1362 -22.4907H79.625V580.953H78.1362V-22.4907Z" fill="#95C9E6"/>
<path d="M71.6088 -22.4907H73.0977V580.953H71.6088V-22.4907Z" fill="#95C9E6"/>
<path d="M65.0776 -22.4907H66.5664V580.953H65.0776V-22.4907Z" fill="#95C9E6"/>
<path d="M58.5483 -22.4907H60.0371V580.953H58.5483V-22.4907Z" fill="#95C9E6"/>
<path d="M52.019 -22.4907H53.5078V580.953H52.019V-22.4907Z" fill="#95C9E6"/>
<path d="M45.4897 -22.4907H46.9785V580.953H45.4897V-22.4907Z" fill="#95C9E6"/>
<path d="M38.9585 -22.4907H40.4473V580.953H38.9585V-22.4907Z" fill="#95C9E6"/>
<path d="M32.4272 -22.4907H33.916V580.953H32.4272V-22.4907Z" fill="#95C9E6"/>
<path d="M25.9018 -22.4907H27.3906V580.953H25.9018V-22.4907Z" fill="#95C9E6"/>
<path d="M19.3706 -22.4907H20.8594V580.953H19.3706V-22.4907Z" fill="#95C9E6"/>
<path d="M12.8393 -22.4907H14.3281V580.953H12.8393V-22.4907Z" fill="#95C9E6"/>
<path d="M6.31197 -22.4907H7.80078V580.953H6.31197V-22.4907Z" fill="#95C9E6"/>
<path d="M-0.219276 -22.4907H1.26953V580.953H-0.219276V-22.4907Z" fill="#95C9E6"/>
</g>
</svg>
