<svg width="471" height="1116" viewBox="0 0 471 1116" fill="none" xmlns="http://www.w3.org/2000/svg">
<mask id="mask0_53_118812" style="mask-type:luminance" maskUnits="userSpaceOnUse" x="-25" y="0" width="496" height="1116">
<path d="M104.408 62.1016C107.21 62.1016 105.943 66.1637 106.154 68.473C106.404 71.1597 106.442 73.8848 106.308 76.5779C106.257 77.5759 106.046 80.269 104.299 78.5482C100.787 75.0683 100.627 78.5354 100.966 80.1794C103.154 90.7024 97.0643 99.0185 93.8786 108.32C89.1769 104.782 85.6969 100.643 86.3238 94.3935C87.0403 87.2673 81.2126 83.8705 77.5152 79.5589C75.8264 77.5887 71.4957 77.6654 68.6618 79.3095C63.9601 82.0346 62.1689 86.8579 60.9151 91.8347C59.9875 95.5129 60.8256 99.7349 63.9665 100.963C75.3147 105.409 73.8498 116.022 76.3446 124.741C73.9905 121.114 72.4104 117.096 70.8368 113.079C70.2291 111.531 70.3186 109.823 68.3932 108.767C60.8639 104.635 56.6356 97.8798 54.4158 89.8132C53.9616 88.1564 54.5246 86.0199 51.857 86.2821C49.5925 86.4996 48.3323 88.2588 48.3835 90.2866C48.4666 93.7346 48.7481 97.2081 50.0659 100.515C54.5694 111.825 58.7082 123.244 59.3926 135.564C59.6037 139.326 61.4397 141.168 65.0028 142.62C72.7111 145.761 77.0866 154.083 85.4666 156.431C85.601 156.47 85.6841 156.745 85.7545 156.917C87.8399 161.965 92.0875 164.984 96.0664 168.374C98.9834 170.856 101.606 173.844 103.736 177.017C105.208 179.204 105.95 182.576 102.591 183.893C99.9877 184.91 97.9599 184.405 95.9384 180.836C91.9339 173.748 85.2491 168.694 78.2636 163.052C77.8606 168.246 80.2147 170.869 83.0614 173.313C89.1257 178.52 94.9341 183.759 95.4203 192.721C95.593 195.926 97.5633 198.984 100.711 200.653C103.289 202.016 104.127 204.248 104.165 206.89C104.242 212.52 104.715 218.104 106.231 223.542C106.641 225.019 105.08 227.904 107.632 227.719C109.769 227.559 112.833 228.25 114.285 225.307C114.797 224.264 114.822 222.461 116.901 222.857C117.784 224.412 114.982 225.429 116.53 227.297C119.742 224.45 121.974 225.09 124.258 228.966C125.48 231.039 128.173 235.082 131.026 232.606C137.589 226.913 136.514 234.263 138.517 236.367C143.589 232.35 143.909 231.851 145.63 232.939C147.984 234.429 149.148 233.137 150.671 231.966C151.893 231.026 153.082 229.958 154.464 229.331C157.279 228.051 160.196 227.968 162.569 230.271C164.488 232.133 165.377 234.807 164.52 237.205C163.471 240.129 160.477 240.378 157.675 240.417C155.564 240.449 153.415 240.25 151.438 241.312C146.929 243.73 136.22 242.099 132.727 238.146C131.486 236.739 130.584 235.389 128.556 235.881C126.196 236.457 126.906 238.632 126.497 240.193C125.979 242.15 119.339 246.123 117.554 245.406C116.517 244.991 115.2 244.594 115.948 242.969C116.351 242.086 118.136 240.89 116.07 240.462C114.739 240.186 113.133 238.818 111.752 240.091C110.811 240.961 111.355 242.285 111.592 243.404C112.366 247.018 118.692 250.569 122.428 249.5C129.177 247.575 131.013 248.336 134.039 254.887C134.934 256.831 135.868 258.61 138.152 258.13C147.216 256.23 152.11 266.113 160.548 265.966C160.931 265.96 161.526 267.527 161.699 268.423C162.032 270.105 163.426 270.015 164.52 270.687C172.222 275.421 182.317 270.118 189.52 276.732C189.795 276.988 190.645 276.508 191.189 276.598C193.313 276.95 194.196 272.229 196.3 274.852C197.688 276.579 194.848 278.549 194.324 280.532C193.735 282.752 193.511 285.074 193.063 287.332C192.648 289.443 192.808 291.906 190.319 292.987C187.844 290.697 189.647 288.029 189.104 285.931C182.931 290.159 186.136 294.976 188.438 299.64C190.908 304.642 195.085 303.069 199.077 302.167C200.382 301.872 201.878 301.418 203.075 301.764C213.892 304.866 225.496 303.26 236.128 307.38C237.989 308.103 239.991 308.301 241.712 307.105C244.584 305.116 247.623 305.512 250.636 306.337C254.404 307.367 258.197 307.738 262.093 307.841C268.515 308.013 272.853 313.041 278.661 315.005C275.002 315.76 271.56 315.862 268.125 315.741C260.436 315.466 252.6 313.131 245.288 317.609C243.881 318.472 241.405 318.165 241.271 320.353C241.143 322.515 243.465 322.656 244.892 323.539C246.734 324.671 250.265 326.046 247.828 328.375C246.158 329.968 244.693 335.45 239.761 331.26C234.471 326.769 227.537 327.012 220.916 326.75C225.003 329.296 228.656 332.507 233.614 333.045C234.944 333.185 237.023 333.569 236.428 335.137C235.168 338.437 232.437 340.855 229.321 342.403C226.737 343.683 225.694 341.175 224.428 339.493C221.671 335.821 221.645 335.84 217.359 335.866C224.172 342.403 221.799 349.325 212.984 353.278C203.906 357.347 193.985 355.568 184.926 359.042C182.169 360.097 178.664 359.208 175.497 359.208C176.207 359.803 176.956 359.912 177.666 360.142C180.692 361.115 184.703 360.974 185.266 365.215C185.822 369.379 181.824 369.552 179.431 371.292C176.898 373.128 173.06 374.26 172.35 377.465C171.371 381.853 168.109 384.361 166.075 388.43C164.347 384.854 165.173 381.917 166.151 379.32C166.996 377.088 167.117 376.147 164.712 375.015C159.639 372.635 156.812 374.631 156.773 380.951C156.729 388.084 156.735 395.223 156.588 402.356C156.55 404.115 157.266 406.213 154.528 408.023C154.496 400.923 151.259 394.711 153.038 387.828C153.575 385.762 154.176 382.538 151.029 382.071C148.189 381.649 147.344 384.63 147.018 386.856C146.577 389.888 146.788 393.016 146.577 396.093C146.449 397.91 145.368 398.991 143.455 398.613C141.811 398.287 141.043 397.309 142.176 395.696C145.668 390.72 142.956 388.142 138.708 385.647C132.075 381.745 132.177 381.585 132.561 374.542C132.58 374.158 132.452 373.774 132.465 373.39C132.503 372.066 133.425 371.586 134.391 372.104C141.127 375.693 142.918 369.392 145.816 366.053C146.634 365.113 148.234 365.093 148.432 363.692C144.754 363.136 140.359 363.597 139.041 366.731C136.214 373.448 134.781 367.46 133.585 366.322C131.339 364.204 132.535 361.351 132.842 358.92C136.489 359.746 140.602 363.526 143.02 359.509C146.244 354.161 150.421 354.135 155.36 354.487C159.665 354.788 163.976 354.993 168.282 355.242C164.098 354.001 159.882 353.624 155.686 353.067C154.164 352.862 151.381 353.521 151.88 350.911C152.302 348.698 154.726 349.792 156.358 350.009C158.974 350.355 161.61 351.039 165.115 349.696C161.475 348.033 158.712 348.756 156.063 348.455C154.061 348.231 152.225 347.93 151.682 345.493C151.131 343.018 152.43 341.943 154.515 341.258C156.172 340.715 157.963 340.228 157.567 337.785C156.901 333.716 159.089 334.535 161.712 335.13C172.318 337.529 183.084 337.74 193.882 337.184C184.882 335.872 175.856 334.983 166.817 334.286C162.966 333.985 160.554 332.584 160.612 328.337C160.669 323.641 158.411 320.257 154.458 317.916C151.304 316.048 147.677 314.564 153.581 311.18C156.204 309.677 156.057 306.133 156.466 303.267C156.71 301.565 156.454 299.429 157.388 298.252C160.855 293.902 161.718 290.435 158.238 284.991C153.741 277.954 143.986 275.945 138.312 282.4C138.075 282.669 137.762 283.276 137.845 283.36C140.397 285.822 138.414 286.129 136.482 285.95C134.582 285.771 133.079 285.688 132.35 287.901C131.691 289.91 131.474 291.829 133.476 293.064C134.845 293.908 135.843 294.708 134.467 296.089C132.919 297.65 132.12 295.725 131.23 294.97C130.514 294.369 129.9 293.505 129.554 292.635C128.102 289.04 126.689 289.737 124.974 292.462C122.838 295.866 121.558 299.537 121.341 304.175C118.82 302.352 118.149 300.203 117.298 298.117C116.204 295.424 114.394 293.403 111.189 293.806C108.515 294.138 105.112 296.518 104.44 291.714C103.896 287.812 98.3245 288.522 98.4652 285.375C98.7595 278.683 94.6015 276.815 89.5287 275.235C88.4284 274.896 86.4582 275.191 87.6288 272.395C89.8741 267.066 89.8485 261.143 89.6439 255.494C89.4775 250.889 89.1897 246.884 92.7592 243.174C94.2625 241.607 95.6378 239.24 91.8188 236.726C86.9763 233.534 83.6307 227.847 83.861 221.962C84.1425 214.765 83.2277 207.684 82.9462 200.577C82.6072 191.928 79.8181 183.158 71.8795 178.661C53.0085 167.978 51.7291 147.904 44.9227 130.741C44.5389 129.769 44.8843 128.425 45.1146 127.299C47.1489 117.518 42.8117 109.132 38.8072 100.912C36.5875 96.3573 35.3849 92.1161 37.7198 87.715C40.6495 82.1817 39.383 76.9682 36.709 72.2536C33.6001 66.7714 32.6278 61.2828 32.8965 55.0714C33.1075 50.2033 31.2588 45.8534 26.1221 43.4993C18.0235 39.7827 28.0028 34.9466 25.6039 30.603C24.9514 29.426 24.9259 26.9568 27.6382 26.7393C27.8301 26.7265 28.022 26.7137 28.2203 26.7073C31.003 26.5985 33.6705 25.5047 33.6705 22.6132C33.6769 18.6983 34.5533 12.8323 31.4572 11.3418C26.4995 8.95574 20.9469 4.37552 15.3816 6.35857C8.07626 8.95574 7.24466 4.78492 5.90131 0H-8.03125C-9.20828 7.95142 -6.6687 15.0456 -3.88605 22.3893C-1.6087 28.3961 -1.06497 35.1001 -0.175812 41.5546C0.137634 43.8319 0.240021 46.6658 -3.0672 47.7725C-7.23801 49.167 -8.68375 52.9028 -8.21039 56.5875C-7.40436 62.8693 -7.302 69.6756 -0.924255 73.8145C2.65805 76.143 1.91602 79.2583 0.00332642 82.4312C-4.32101 89.5958 -4.14191 90.3506 3.80951 91.4253C9.27893 92.1609 8.38333 94.2719 5.83734 97.2913C1.7305 102.166 -0.131042 106.957 2.5365 113.699C4.11655 117.685 2.67725 122.847 2.67084 127.479C2.66446 130.952 3.62399 133.69 7.88437 133.504C9.70752 133.421 10.3408 134.79 11.4474 135.903C15.8805 140.368 17.5501 145.595 18.6568 151.781C19.4437 156.201 17.1599 161.37 21.2092 165.361C22.0664 166.206 20.3072 168.125 19.047 169.072C17.3966 170.319 15.6631 171.47 13.9871 172.647C14.985 174.375 16.5331 173.927 17.7549 174.285C21.4587 175.366 24.3437 176.46 20.0961 180.708C16.8785 183.919 16.6802 188.25 18.74 192.024C20.851 195.894 25.1625 195.843 29.0583 195.952C30.44 195.99 31.8601 195.644 32.1992 193.975C32.5574 192.216 31.6618 190.994 30.1649 190.201C29.666 189.938 29.0647 189.849 28.5081 189.702C26.2564 189.1 22.9556 190.335 22.3223 186.849C21.9512 184.814 23.5825 183.113 25.3097 182.23C28.6169 180.548 32.1352 179.467 35.9222 180.644C36.0949 180.695 36.274 180.836 36.3764 180.983C37.4063 182.416 37.3423 184.264 36.5747 185.403C33.9839 189.222 40.7007 195.459 32.6853 197.999C35.3593 200.026 39.2614 201.184 37.0737 205.688C36.5875 206.686 37.0609 209.142 38.9288 209.443C40.9758 209.775 41.398 207.786 41.5068 206.302C41.8906 201.076 45.4089 200.762 49.3814 201.037C51.179 201.165 52.9317 201.51 53.7121 203.385C54.5885 205.464 53.5266 207.025 52.1897 208.586C46.4068 215.328 43.2787 223.593 39.351 231.391C38.8521 232.376 38.0716 233.694 39.6772 234.282C40.9566 234.749 41.865 233.636 42.4279 232.632C47.0721 224.348 54.9724 218.392 58.9001 209.596C59.0344 209.289 59.4822 209.123 60.1539 208.605C61.0047 211.042 60.8767 214.247 64.4718 214.496C66.0838 214.605 68.4315 214.036 68.7514 216.422C69.084 218.917 67.5103 220.848 65.5017 222.173C64.4014 222.902 62.9493 223.081 61.7595 223.702C58.0429 225.64 54.8508 228.058 54.6461 232.766C54.5309 235.427 53.0789 237.461 51.6651 239.566C50.0339 241.997 49.2471 244.716 51.9402 246.827C54.3391 248.707 56.7955 247.78 58.5739 245.611C59.8404 244.076 60.6528 242.547 62.0346 245.477C63.1476 247.837 65.1563 245.394 66.7939 245.95C65.5721 251.586 64.555 257.055 63.1732 262.435C61.6828 268.25 57.2816 270.169 51.9082 267.508C50.7759 266.945 49.6565 266.081 49.2535 267.821C48.7481 270.035 48.2683 272.581 51.1022 273.809C52.5415 274.436 54.7613 273.259 55.4201 275.67C55.1387 277.263 53.9552 276.624 53.1364 276.592C47.2129 276.348 44.2574 280.513 41.1997 284.537L41.5259 284.287C40.8031 285.445 40.0803 286.609 39.351 287.767C39.8564 287.85 40.3681 287.933 40.8734 288.01C41.0334 289.475 40.2209 289.565 39.1207 289.245C39.6836 290.313 40.253 291.381 40.8159 292.45C42.1337 292.334 43.445 292.219 44.7628 292.104V291.944C43.7393 292.379 42.7094 292.814 41.6795 293.249C43.1252 295.629 43.8033 298.22 43.8033 300.99C43.8033 303.715 44.008 306.12 47.7758 305.883C50.6736 305.704 49.4198 308.404 50.117 309.728C50.8143 311.052 50.0723 312.063 48.6458 312.178C46.829 312.325 44.8204 313.553 43.2659 311.57C42.9333 311.142 42.7605 310.508 42.7158 309.952C42.575 308.256 40.995 307.367 40.4896 305.966C38.1995 299.672 32.9988 304.374 29.5125 302.909C25.6487 301.29 22.5142 298.789 19.0087 304.297C16.8529 307.687 12.6821 309.773 13.2003 315.082C12.5158 314.238 11.9272 313.284 11.1276 312.568C8.93344 310.604 2.61966 312.383 5.42792 305.87C6.7265 302.851 5.23602 298.962 8.88229 296.512C11.8185 294.541 11.4283 291.266 9.64355 288.739C7.21909 285.317 4.14212 287.671 0.534241 288.938C2.94589 284.044 -0.949829 281.652 -2.49152 278.376C-3.29111 276.675 -4.79437 276.4 -6.4256 276.911C-7.77536 277.34 -9.51535 277.865 -10.2702 276.783C-14.4666 270.802 -18.5287 276.815 -19.7313 278.325C-21.6824 280.775 -20.838 284.805 -17.9017 288.074C-15.8163 290.396 -14.3515 292.488 -11.0186 293.262C-7.67944 294.036 -7.59628 296.723 -8.88846 299.563C-11.7671 298.84 -9.06754 296.537 -11.025 295.475C-12.3876 298.834 -18.3751 295.814 -18.7462 301.169C-18.8229 302.282 -19.8017 304.22 -18.8869 304.354C-13.6606 305.122 -12.2788 312.088 -6.41284 311.73C-3.09921 311.525 -1.8902 313.7 -2.60663 316.662C-2.88812 317.82 -4.02036 320.276 -5.4021 317.148C-6.07379 315.626 -7.11652 315.85 -8.24875 316.106C-9.34265 316.349 -10.2062 317.283 -9.59851 318.197C-6.80945 322.394 -10.1358 323.552 -12.8226 325.004C-16.149 326.795 -19.4051 327.428 -22.1621 323.929C-22.2645 323.801 -22.5012 323.769 -22.6739 323.692C-27.5739 334.42 -24.5546 343.177 -15.2662 345.48C-12.4963 346.165 -10.0015 344.214 -6.66232 346.382C-3.09283 348.704 -1.35284 350.847 -0.956207 354.775C-0.623566 358.07 0.483063 360.507 4.61551 360.82C14.8954 361.601 18.273 365.963 17.4606 376.666C17.1344 380.958 20.7422 384.86 24.8363 384.649C33.1204 384.227 34.3038 385.116 35.5959 393.438C35.9158 395.505 36.773 396.662 38.7753 396.886C41.3596 397.174 43.6178 398.153 46.023 400.117C42.8054 402.458 41.334 405.868 40.6112 409.629C40.4001 410.748 39.9267 412.495 40.4577 412.975C46.6819 418.598 42.2808 425.525 42.8053 431.782C43.0996 435.3 44.2191 438.556 44.7308 441.978C44.9931 443.757 45.1914 446.136 47.7758 446.29C49.9124 446.418 51.4476 445.049 52.3943 443.283C53.2004 441.774 53.5522 440.034 54.2815 438.473C54.9084 437.136 55.3882 435.166 57.3648 435.594C59.4566 436.048 59.0856 438.063 58.689 439.452C56.5524 446.923 58.9001 453.922 60.4162 461.105C61.3437 465.474 64.9836 464.464 67.4528 465.813C70.0883 467.259 71.3485 465.359 72.6791 463.69C75.321 460.376 80.4962 457.83 75.8584 452.335C75.0652 451.401 75.5002 449.546 76.8307 448.74C78.9545 447.448 81.5453 448.471 82.588 449.744C85.6841 453.499 89.0937 453.371 92.7719 451.491C94.8829 450.41 95.0941 451.574 95.3627 453.007C95.5355 453.954 95.5482 454.932 95.657 455.892C96.3862 462.11 96.7125 462.27 102.61 458.303C102.61 466.242 102.61 473.618 102.61 482.19C107.357 478.166 102.118 470.969 109.628 469.351C107.005 481.262 111.035 492.38 111.816 504.061C114.643 496.186 119.633 490.295 125.524 484.979C128.211 482.554 127.565 478.908 127.93 475.678C128.365 471.769 128.614 467.79 134.314 467.95C137.096 468.027 136.687 465.468 136.777 463.575C136.949 459.73 136.182 455.796 137.538 452.054C138.363 449.764 140.173 447.486 142.476 447.915C144.626 448.318 143.992 451.254 143.743 453.013C142.7 460.248 143.359 467.08 146.123 473.989C147.651 477.814 150.53 477.456 153.057 477.667C156.249 477.929 154.752 474.948 155.085 473.317C155.475 471.398 155.641 468.993 158.13 469.108C160.944 469.236 161.712 471.955 160.772 473.861C155.731 484.026 160.944 494.043 161.552 503.959C161.936 510.17 163.721 516.701 164.463 523.181C164.718 525.408 165.627 528.312 168.646 527.723C175.331 526.425 177.788 529.271 176.847 536.238C179.348 533.544 177.794 529.783 180.96 528.03C181.907 530.154 180.129 531.491 180.199 533.167C180.257 534.542 180.039 535.95 181.408 536.788C182.707 537.581 184.044 537.459 185.131 536.372C188.816 532.674 190.799 534.997 192.539 538.393C193.908 541.061 195.13 543.844 197.599 538.995C198.737 536.769 200.695 537.216 202.48 538.694C205.915 541.528 209.177 544.771 214.314 541.982C216.272 540.92 216.24 543.038 216.713 544.202C217.666 546.575 219.246 548.385 222.003 547.413C225.106 546.319 224.863 543.645 224.197 541.067C222.924 536.103 219.56 531.702 219.988 525.727C224.095 526.706 225.873 529.207 226.488 532.866C227.05 536.206 228.624 538.451 232.296 539.135C238.328 540.261 236.204 545.961 237.535 549.594C238.437 552.064 236.518 553.919 233.665 554.162C232.916 554.226 232.226 554.335 231.906 555.294C229.808 561.595 226.289 562.12 219.764 561.013C214.244 560.079 209.977 557.38 205.186 555.332C200.644 553.388 194.688 556.682 194.266 561.602C194.017 564.461 193.262 566.265 190.882 567.698C189.769 568.37 188.151 569.937 188.995 570.915C193.076 575.675 187.62 574.165 185.477 575.969C189.974 575.643 191.976 577.658 192.462 581.317C192.833 584.093 194.509 584.81 197.049 584.061C199.089 583.46 201.143 582.91 203.183 582.321C206.9 581.253 208.781 579.136 207.668 575.01C207.245 573.449 206.286 571.235 208.634 570.519C210.821 569.854 212.146 571.632 213.073 573.429C214.263 575.732 213.796 579.596 217.014 579.942C220.378 580.3 220.353 576.231 221.984 574.248C223.532 572.368 224.85 572.393 225.963 574.536C227.3 577.114 228.893 579.455 230.748 581.733C233.754 585.424 236.755 587.919 242 586.85C244.84 586.275 247.009 588.328 248.57 590.791C250.182 593.343 247.585 594.181 246.958 595.838C244.591 602.062 239.109 604.685 234.413 608.261C233.364 609.06 232.942 611.607 230.927 610.161C229.456 609.105 229.001 607.186 229.264 605.421C229.737 602.184 230.37 598.966 231.093 595.78C231.88 592.288 230.978 590.049 227.05 590.119C224.46 590.17 223.199 588.852 222.393 586.62C221.184 583.242 219.336 583.498 217.564 586.095C215.363 589.32 213.239 589.812 209.977 587.234C206.657 584.605 203.49 585.353 201.277 589.185C200.503 590.522 199.473 591.706 198.731 593.055C197.401 595.461 195.641 597.124 192.712 596.574C189.238 595.928 191.106 593.215 190.952 591.379C190.607 587.311 187.197 584.771 186.001 581.138C185.905 580.856 184.837 580.536 184.568 580.722C177.474 585.686 177.109 578.637 174.615 575.246C173.476 575.496 172.42 576.142 172.292 577.402C171.928 580.914 170.124 581.611 166.759 581.381C160.33 580.952 158.789 583.21 159.742 589.62C160.305 593.42 160.241 597.309 160.433 601.16C160.49 602.325 160.618 603.719 159.166 604.058C151.426 605.862 153.332 612.265 152.98 617.377C152.807 619.859 152.929 622.878 150.217 622.763C147.831 622.66 145.611 620.262 145.931 617.057C146.302 613.366 145.617 610.174 142.323 607.909C140.576 606.713 140.097 604.877 140.122 602.811C140.167 599.414 137.87 597.034 135.811 594.904C134.026 593.062 131.595 591.514 128.525 592.441C125.224 593.439 123.752 596.043 123.752 598.972C123.752 604.237 121.897 606.105 116.441 605.51C110.926 604.909 111.093 609.918 110.12 613.519C109.717 615.022 113.133 617.536 109.404 617.959C106.935 618.24 103.372 618.375 102.412 615.182C101.446 611.946 99.8854 610.346 96.834 608.683C93.4244 606.822 94.8893 603.111 98.107 602.088C107.184 599.184 104.958 591.047 106.73 584.765C106.903 584.157 106.461 582.833 106.02 582.679C99.6359 580.505 98.2094 571.139 89.1321 571.997C91.9595 567.372 94.2816 563.322 91.1535 558.377C88.3389 553.932 85.3707 550.081 79.6838 549.818C76.4214 549.671 75.6921 547.432 75.884 545.085C76.4917 537.747 74.547 530.173 71.7451 524.378C68.4891 517.654 66.973 507.912 56.7699 505.865C53.1876 505.148 52.0681 502.417 52.1193 497.977C52.2281 488.484 51.7035 478.716 42.0889 472.569C37.3295 469.53 34.4829 456.998 37.0609 451.062C40.0419 444.198 37.4959 438.454 33.3826 433.72C28.7192 428.353 23.4034 423.811 21.1069 416.595C19.4692 411.452 14.3453 410.512 9.57315 410.557C5.52386 410.595 3.82867 414.593 6.57938 418.841C10.4687 424.847 12.036 431.526 13.8527 438.217C15.2664 443.437 13.9295 448.273 11.6649 452.751C9.92499 456.186 9.96335 459.372 10.8909 462.82C12.2407 467.829 13.5393 472.857 14.9082 477.865C15.6631 480.622 15.1577 483.264 14.2557 485.836C13.2194 488.811 12.9508 491.862 12.9188 494.977C12.8484 502.084 14.0958 503.632 21.1772 503.536C24.5356 503.492 25.7831 504.707 25.7958 507.822C25.8279 513.061 26.7298 518.192 27.8365 523.297C28.0348 524.218 28.2459 525.382 27.8685 526.143C22.6294 536.57 25.815 547.995 24.1134 558.87C22.9812 566.086 23.3394 573.781 24.9898 581.202C26.1797 586.537 22.1688 590.183 18.5545 593.9C12.1255 600.501 1.50021 601.538 -2.52988 611.267C-4.66647 616.423 -2.84973 621.004 -2.96487 625.833C-2.96487 625.993 -2.79214 626.307 -2.68982 626.307C3.189 626.588 6.78409 632.358 12.1447 632.94C16.3411 633.394 17.1024 634.706 16.565 638.275C15.8933 642.747 15.9701 642.76 20.0961 646.329C14.6779 647.27 11.198 649.873 10.4304 655.394C10.2448 656.711 8.89511 658.336 7.64771 658.95C3.60483 660.946 -0.745117 662.373 0.559845 668.424C0.75177 669.326 -0.412476 670.599 -1.76224 670.618C-3.59818 670.638 -4.63449 669.294 -5.0119 667.785C-6.04181 663.678 -6.78387 659.5 -7.737 655.374C-8.34473 652.739 -9.09314 649.086 -11.9526 649.272C-14.5114 649.438 -14.6265 653.327 -14.6137 655.649C-14.5562 667.605 -14.1467 679.561 -13.9101 691.517C-13.7309 700.396 -13.4431 709.275 -13.5774 718.148C-13.6286 721.302 -13.9293 724.884 -17.8314 726.33C-19.7185 727.027 -19.4882 728.773 -19.5714 730.276C-19.936 737.224 -20.2814 744.177 -20.5629 751.13C-20.6908 754.239 -20.6844 757.246 -17.7994 759.536C-15.9123 761.033 -16.5392 763.445 -16.7439 765.549C-17.6523 774.959 -18.5927 784.363 -19.4946 793.773C-20.3774 802.984 -14.5497 811.153 -16.3857 822.015C-12.8226 817.991 -14.4858 814.108 -11.6391 811.019C-11.1913 822.009 -10.6924 832.378 -10.3597 842.754C-10.0527 852.343 -8.06326 861.939 -11.0186 871.521C-11.6967 873.715 -11.5368 877.055 -8.97162 878.283C-6.40643 879.511 -4.78799 877.259 -3.59177 875.129C-2.677 873.504 -1.3848 873.888 -0.111816 874.585C1.18036 875.295 1.91602 876.261 1.513 877.899C-1.871 891.582 3.11862 903.608 8.88867 915.526C11.908 921.769 10.9421 928.601 11.7929 935.209C8.86951 933.226 9.13815 929.887 7.43018 926.541C7.25748 948.643 14.6459 969.305 11.4986 990.767C14.5244 985.867 13.6033 980.41 15.0042 975.376C16.1493 971.269 18.0555 967.591 19.7571 963.746C22.6486 957.221 26.685 951.266 29.3909 945.009C31.9945 938.996 33.5681 930.258 26.5699 924.085C24.8363 922.55 23.8704 920.138 26.6594 918.91C29.1223 917.829 33.3635 916.332 34.355 919.268C35.967 924.053 40.3169 926.765 41.8266 931.512C42.5111 933.661 43.7073 935.395 43.2915 937.922C42.7606 941.146 44.0272 943.775 47.6926 944.146C50.6736 944.447 52.8997 945.38 53.6674 948.566C54.4478 951.803 51.6011 951.637 49.9891 952.731C47.9357 954.119 48.1532 955.788 49.5733 957.675C51.6971 960.484 51.2237 963.548 51.051 966.964C50.8079 971.8 50.7696 976.271 47.699 980.353C46.8034 981.542 46.2405 982.31 44.6669 982.4C39.383 982.713 35.1993 989.833 38.3658 994.26C41.801 999.057 41.9098 1004.01 41.2829 1009.16C40.9374 1012.02 42.4471 1014.33 42.7222 1016.69C40.931 1018.54 39.351 1013.6 38.5322 1016.76C37.8093 1019.57 37.5598 1022.96 40.0611 1025.5C40.4513 1025.89 41.0398 1026.1 41.5515 1026.36C50.0595 1030.7 50.7375 1033.82 44.5197 1041.54C43.0612 1039.33 44.5197 1037.41 44.7692 1035.52C45.1466 1032.62 43.3299 1030.82 41.5515 1029.04C40.7775 1028.27 39.6772 1028.35 38.9672 1029.17C37.3807 1031.02 37.8285 1033.15 38.3723 1035.24C38.7113 1036.55 39.2294 1037.82 39.4597 1039.15C40.3169 1044 42.364 1048.84 38.1804 1053.44C36.5555 1055.23 36.0757 1058.03 36.7666 1060.63C37.2848 1062.57 38.1228 1064.47 40.6624 1063.95C42.6966 1063.53 44.2894 1062.51 43.8544 1059.96C43.0868 1055.45 44.1423 1053.49 49.5605 1053.62C54.2367 1053.73 55.7016 1047.58 59.6933 1045.54C59.898 1045.44 59.9556 1044.81 59.898 1044.45C59.124 1039.3 60.1923 1035.55 62.7191 1031.65C65.0028 1028.13 67.2033 1024.6 65.3354 1019.8C63.5507 1015.23 64.5742 1010.96 69.4423 1008.51C70.9583 1007.75 71.7068 1006.51 72.4041 1005.11C74.2336 1001.44 76.2166 1000.18 80.5538 1002.59C86.0935 1005.67 94.3968 1001.13 95.5354 994.95C96.3926 990.3 99.444 986.346 98.5932 981.011C97.9343 976.892 97.5633 973.13 94.5247 969.983C93.015 968.422 92.2922 966.203 92.9063 964.034C93.949 960.337 93.4692 957.183 90.4883 954.573C89.7078 953.888 89.2473 952.858 89.7206 951.963C92.5609 946.557 97.301 942.636 100.928 937.845C103.186 931.294 101.248 924.13 103.327 916.402C106.513 921.955 105.739 927.341 108.08 931.774C109.372 934.231 109.743 936.578 107.479 938.555C105.029 940.698 102.854 939.233 100.787 937.672C105.105 946.084 103.858 955.865 107.427 964.527C108.598 967.373 108.72 970.361 112.072 971.934C115.264 973.438 115.411 976.425 114.259 979.419C113.722 980.813 112.436 982.022 113.876 983.769C117.624 982.758 116.364 978.549 118.334 976.406C123.004 982.361 123.164 992.334 118.353 997.65C113.984 1002.49 113.332 1006.85 115.916 1013.3C117.739 1017.85 117.605 1023.64 118.756 1028.82C119.006 1029.94 118.648 1031.41 119.255 1032.21C122.806 1036.88 123.644 1041.87 123.624 1046.95L125.972 1046.89C124.859 1040.14 127.168 1037.98 135.037 1037.3C138.849 1036.97 143.135 1036.9 146.327 1035.57C154.189 1032.31 159.032 1036.91 163.535 1041.16C170.162 1047.41 173.591 1047.67 179.566 1040.71C181.267 1038.74 184.12 1038.05 185.387 1035.33C187.792 1030.19 186.942 1027.65 181.51 1025.76C179.898 1025.21 179.598 1024.06 179.169 1022.02C182.009 1023.4 183.941 1024 184.325 1019.71C185.15 1010.48 188.816 1008.91 195.68 1014.76C197.221 1016.07 198.552 1016.76 200.049 1016.53C204.181 1015.91 207.616 1017.13 210.917 1019.44C212.062 1020.24 212.958 1019.82 212.913 1017.39C212.836 1013.63 214.365 1013.69 217.129 1014.61C222.393 1016.35 228.56 1011.54 226.795 1006.43C225.662 1003.16 227.204 1003.27 228.49 1004.14C234.356 1008.12 240.51 1009.84 247.693 1010.26C251.257 1010.47 254.807 1014.48 259.003 1015.59C260.743 1016.05 262.234 1017.16 262.023 1019.28C261.959 1019.94 261.402 1020.81 260.826 1021.09C258.376 1022.3 258.894 1019.18 257.756 1018.82C254.058 1017.63 250.252 1016.69 246.209 1017.52C246.491 1020.22 248.615 1019.66 249.734 1020.48C253.06 1022.94 252.977 1025.86 249.19 1027.33C245.57 1028.74 242.16 1029.72 248.039 1032.91C249.305 1033.6 250.387 1034.83 249.958 1036.2C248.877 1039.59 251.212 1041.59 252.696 1043.96C255.088 1047.8 254.589 1050.73 250.431 1053.07C246.958 1055.02 243.99 1058.02 239.556 1057.69C239.192 1057.66 238.584 1057.77 238.475 1058C235.29 1064.72 228.643 1063.47 222.553 1064.24C226.635 1067.98 234.823 1068.53 237.887 1065.28C241.392 1061.56 244.776 1058.96 249.843 1062.49C250.962 1063.27 251.947 1062.98 252.747 1061.75C255.171 1058.05 258.747 1057.24 261.268 1060.71C263.571 1063.88 263.232 1067.97 259.611 1070.93C257.564 1072.6 255.056 1073.93 254.321 1076.93C255.945 1077.89 257.135 1077.48 258.268 1076.09C259.4 1074.71 260.941 1074.31 262.304 1075.63C263.782 1077.06 262.777 1078.78 261.811 1079.79C259.157 1082.54 256.528 1085.49 252.165 1085.58C250.7 1085.61 249.05 1085.28 247.617 1086.76C248.32 1089.31 250.591 1088.79 252.197 1088.6C255.107 1088.25 257.474 1089.47 259.931 1090.54C261.402 1091.18 262.534 1092.2 262.893 1093.88C263.187 1095.28 257.462 1106.58 255.965 1107.25C253.521 1108.35 253.016 1110.23 253.828 1112.48C254.538 1114.47 255.837 1115.24 258.3 1115.05C264.095 1114.62 269.545 1113.73 274.573 1110.42C277.919 1108.21 281.06 1102.47 279.928 1098.72C279.147 1096.12 276.249 1095.88 274.471 1095.09C270.281 1093.25 270.147 1090.46 271.349 1087.13C272.667 1083.47 274.132 1079.7 279.409 1080.71C283.299 1081.45 288.007 1081.78 289.568 1077.68C291.173 1073.46 292.638 1068.39 289.843 1063.86C288.64 1061.92 287.879 1060.53 288.877 1058.12C293.297 1047.5 289.389 1039.19 278.687 1036.07C275.859 1035.24 273.94 1033.66 274.97 1030.68C277.829 1022.43 273.799 1013.94 276.256 1005.61C277.42 1001.67 274.164 999.556 270.69 998.948C267.761 998.437 265.605 997.279 264.242 994.695C262.151 990.735 257.212 991.253 254.57 988.016C252.37 990.524 253.758 994.055 251.052 996.089C249.696 997.106 251.052 998.29 252.312 998.302C256.579 998.347 259.963 1000.81 263.615 1002.29C259.329 1004.83 248.877 1004.96 244.271 1002.09C242.461 1000.96 241.463 999.787 239.595 1002.09C237.401 1004.79 234.765 1003.88 232.501 1001.85C229.91 999.531 229.942 996.639 231.867 994.183C232.571 993.281 233.78 992.852 233.012 991.624C229.481 985.982 233.799 987.671 236.48 987.863C239.275 988.067 241.584 989.404 243.919 990.869C245.621 991.937 247.508 993.882 249.689 992.398C251.768 990.984 251.979 988.477 251.845 986.097C251.762 984.581 251.493 983.078 251.25 981.107C253.291 981.395 253.048 983.148 253.822 983.928C255.152 985.265 256.937 985.86 258.575 985.342C260.321 984.792 259.131 983.007 259.265 981.766C259.483 979.732 260.961 976.898 260.801 976.143C259.694 971.058 264.012 967.501 263.954 963.413C263.91 960.394 263.654 955.264 258.44 954.311C257.225 954.087 255.792 953.025 256.099 952.091C257.647 947.427 255.331 942.796 256.24 938.235C256.668 936.105 258.108 934.026 260.596 934.275C266.193 934.838 271.778 935.939 276.646 938.856C279.557 940.602 280.209 943.551 278.137 947.952C276.006 940.154 271.49 941.932 267.012 943.672C265.771 944.159 264.127 944.44 263.833 945.911C263.456 947.792 265.343 948.4 266.475 949.346C268.208 950.799 270.467 950.632 272.514 951.144C277.989 952.513 279.64 957.439 276.07 961.737C274.842 963.222 273.332 964.475 272.143 965.991C271.183 967.213 267.422 967.482 270 970.028C272.021 972.024 275.443 972.747 277.081 969.817C279.429 965.62 284.706 963.637 285.391 958.315C285.538 957.151 286.459 956.639 287.514 957.394C289.523 958.827 290.195 960.995 288.967 963.01C285.723 968.314 282.064 973.214 275.661 975.28C272.232 976.386 268.26 976.182 265.093 979.489C267.857 980.858 270.281 982.476 272.341 984.741C277.714 990.671 288.25 989.27 292.043 982.304C293.7 979.259 296.189 977.807 299.566 977.807C307.076 977.807 313.147 969.708 311.356 962.607C310.134 957.771 310.013 952.98 303.43 951.573C299.816 950.799 302.458 946.41 301.569 943.807C300.622 941.062 300.129 939.348 304.159 937.883C311.58 935.184 312.111 931.486 307.339 924.936C306.315 923.528 303.564 921.961 306.002 920.33C307.953 919.019 309.507 921.712 310.268 923.253C313.761 930.348 319.787 937.026 314.823 945.847C314.324 946.743 313.985 947.907 315.175 948.329C321.284 950.492 320.446 955.737 320.67 960.471C320.932 966.158 327.655 972.068 333.259 971.186C337.232 970.559 339.739 971.167 342.24 975.139C345.861 980.89 351.548 984.357 359.026 983.372C361.31 983.071 363.766 982.323 364.355 980.423C366.606 973.175 371.398 976.821 374.916 978.082C381.594 980.468 386.763 977.589 387.339 970.533C387.563 967.815 388.458 965.313 387.934 962.339C387.237 958.379 390.915 956.159 394.286 958.635C399.346 962.352 400.721 959.198 403.395 955.641C407.118 950.684 408.807 945.847 406.792 939.866C406.504 939.009 406.792 937.576 407.796 937.397C413.682 936.342 413.662 930.207 416.925 926.88C419.106 924.654 418.422 921.488 417.181 918.673C415.959 915.903 416.618 914.086 419.944 914.112C422.625 914.131 423.936 912.059 425.721 910.683C427.198 909.551 428.554 909.634 429.802 911.035C430.966 912.347 430.39 913.447 429.488 914.63C428.215 916.294 426.303 917.483 425.804 919.741C425.343 921.84 424.384 924.047 427.601 924.808C428.791 925.089 429.578 925.761 430.237 926.842C433.435 932.107 436.033 931.908 440.843 927.917C445.916 923.708 448.66 918.404 450.963 912.538C452.14 909.545 450.477 907.888 448.839 905.975C443.306 899.514 443.395 898.932 450.189 894.186C450.803 893.757 451.635 893.296 451.852 892.669C453.874 886.835 458.889 884.724 463.942 882.447C467.122 881.008 467.96 877.624 467.333 874.707C466.501 870.856 467.685 867.881 469.572 864.881C472.214 860.685 471.03 858.1 467.339 854.633C462.484 850.079 457.814 845.498 452.146 841.916C449.773 840.413 449.959 837.79 450.56 835.091C451.385 831.387 450.765 827.798 448.065 824.823C446.997 823.646 446.005 822.642 444.125 823.064C442.225 823.493 441.771 824.74 441.425 826.359C441.022 828.239 440.498 830.101 439.852 831.911C438.783 834.924 441.387 839.843 435.489 840.477C435.252 840.502 434.76 842.127 435.047 842.556C440.005 849.887 432.949 849.317 429.488 851.096C428.862 851.422 428.228 851.729 426.021 852.842C433.845 853.725 438.553 857.512 444.553 862.188C437.158 861.324 431.695 865.067 425.388 864.075C423.123 863.717 419.567 863.256 419.292 866.691C419.042 869.826 422.458 869.321 424.569 869.903C426.22 870.357 427.864 870.837 430.608 871.617C427.397 873.613 425.055 872.577 422.848 872.174C417.782 871.246 413.701 871.905 411.551 877.477C410.214 880.944 407.125 882.3 403.51 881.801C400.977 881.449 399.538 882.159 400.082 884.763C400.785 888.108 399.525 889.42 396.301 889.561C391.484 889.778 392.169 894.282 390.685 897.921C388.497 894.883 386.61 892.663 383.059 892.465C380.488 892.324 381.447 890.52 382.541 889.17C385.381 885.652 387.998 882.281 384.959 877.298C383.846 875.475 385.177 873.6 387.953 873.907C389.847 874.118 391.881 873.69 393.666 874.201C396.621 875.046 398.099 873.459 399.282 871.38C400.581 869.097 401.022 866.416 404.259 865.502C406.523 864.862 405.27 862.45 405.116 860.889C404.483 854.448 405.973 851.652 412.006 850.552C414.916 850.021 415.78 848.863 416.196 846.247C416.522 844.206 417.424 842.217 418.307 840.317C420.149 836.338 419.209 833.165 415.735 830.721C411.385 827.657 407.125 825.003 410.317 818.235C411.411 815.912 409.217 811.972 405.852 812.273C402.244 812.592 399.301 810.008 395.719 810.923C394.836 811.147 393.493 810.302 392.591 809.637C387.089 805.588 384.78 806.803 381.863 813.168C379.445 818.446 373.988 821.241 369.012 824.158C368.807 826.064 370.521 826.084 371.59 826.73C372.952 827.561 375.549 827.875 373.963 830.28C372.799 832.046 370.764 831.367 369.242 830.408C365.826 828.271 364.214 824.843 362.327 821.395C360.357 817.793 360.088 815.074 362.487 811.684C363.497 810.258 363.606 807.98 363.593 806.093C363.574 802.261 363.728 798.961 368.525 797.867C371.577 797.169 371.98 794.028 372.53 791.457C373.489 786.941 375.69 784.375 380.744 784.529C385.151 784.663 386.475 780.563 386.661 777.607C386.84 774.71 387.448 771.946 387.748 769.112C388.036 766.406 389.38 764.916 391.9 764.232C396.583 762.958 398.956 759.818 399.301 755.033C399.346 754.463 399.448 753.862 399.666 753.344C400.414 751.565 401.252 749.128 403.357 749.486C405.442 749.845 405.653 752.276 405.41 754.297C405.27 755.448 405.193 756.625 404.873 757.726C403.824 761.334 400.996 764.865 406.204 768.038C407.643 768.914 407.336 772.388 408.27 774.473C408.833 775.727 406.677 777.94 409.274 778.119C410.841 778.228 412.85 778.33 414.11 776.737C416.733 773.417 419.893 770.52 422.49 767.27C424.608 764.622 425.676 760.815 422.727 757.137C419.304 752.877 417.251 748.367 421.671 743.064C423.789 740.524 420.968 738.842 418.869 737.998C415.204 736.526 412.92 734.94 415.012 730.372C415.831 728.581 414.245 726.4 413.304 724.442C411.558 720.815 411.833 717.892 416.599 716.472C423.303 714.47 426.661 708.77 425.139 702.072C423.258 693.801 423.507 686.4 431.625 681.34C433.685 680.054 434.452 678.199 433.602 675.877C432.252 672.192 437.018 669.256 434.715 665.392C430.243 657.888 423.872 652.144 417.462 646.432C416.355 645.446 414.801 644.73 413.202 645.977C412.735 648.082 414.801 647.781 415.671 648.555C417.904 650.532 418.083 653.481 415.818 654.415C410.157 656.75 412.933 659.072 415.454 661.106C420.853 665.45 420.111 670.529 418.159 676.152C417.27 678.711 416.164 679.273 414.001 677.879C412.217 676.721 409.895 675.826 408.877 674.162C405.685 668.917 399.928 667.919 394.804 664.733C395.373 669.339 395.361 673.299 401.303 673.9C404.163 674.188 411.008 687.199 410.675 690.327C410.547 691.504 410.381 692.937 409.095 693.155C407.246 693.475 407.016 691.684 406.741 690.462C405.928 686.879 404.118 683.975 400.203 684.404C395.533 684.916 390.051 682.139 386.367 687.654C384.71 690.135 385.01 691.133 387.652 692.4C393.947 695.413 396.64 707.702 392.239 713.337C390.192 715.96 388.1 718.41 387.537 721.832C387.179 723.995 385.362 725.101 383.597 725.773C378.3 727.794 374.289 731.933 369.21 734.274C367.368 735.125 366.274 736.558 365.282 738.324C364.598 739.539 363.836 743.07 361.354 739.514C360.875 738.823 360.561 739.411 360.107 739.789C352.942 745.789 344.179 746.781 335.364 747.529C333.157 747.714 331.928 746.742 332.626 744.42C333.042 743.038 331.5 740.403 335.351 741.055C339.042 741.682 340.257 738.804 342.068 735.567C345.88 728.754 341.908 722.491 342.477 716.05C342.778 712.659 341.882 708.188 347.94 710.958C348.49 711.207 349.488 710.958 350.051 710.593C352.45 709.051 355.348 698.688 354.318 695.918C353.595 693.98 351.669 692.048 352.879 689.944C355.93 684.615 351.868 680.438 350.761 675.864C350.128 673.235 346.865 673.056 344.486 672.429C341.978 671.77 342.611 674.182 341.889 675.282C341.364 676.081 340.775 677.073 339.976 677.412C336.093 679.069 335.837 681.775 337.564 685.063C338.453 686.752 338.351 687.941 336.528 688.85C334.596 689.809 334.289 688.453 333.7 687.161C333.419 686.54 332.715 685.773 332.114 685.69C326.792 684.941 326.881 682.312 329.798 678.915C326.606 676.069 323.222 677.866 320.056 677.866C318.169 677.866 317.081 679.453 316.563 681.205C316.013 683.054 317.484 686.323 314.388 686.361C310.716 686.412 306.961 688.152 303.27 686.137C300.948 684.871 299.464 683.726 301.249 680.783C302.906 678.052 302.803 674.911 300.174 672.883C297.538 670.855 294.103 671.169 291.557 672.953C286.51 676.484 281.175 674.553 275.942 674.425C274.612 674.393 272.686 673.99 272.936 671.744C273.102 670.247 273.998 668.84 275.399 668.93C279.64 669.198 280.727 666.141 281.054 663.224C281.476 659.475 277.324 660.876 275.559 659.462C275.232 657.594 276.697 656.193 277.593 655.579C281.45 652.918 280.017 651.018 277.67 648.172C274.97 644.903 273.16 646.585 270.966 648.338C269.661 649.38 269.577 649.393 267.921 647.327C267.255 646.496 266.66 646.79 265.918 646.956C259.528 648.383 260.404 645.517 262.649 641.57C264.223 638.794 264.818 635.23 263.743 632.633C262.253 629.038 263.276 625.948 263.456 622.571C263.705 617.824 264.23 613.5 268.912 610.909C269.533 610.57 270.268 609.732 270.281 609.118C270.505 598.678 275.251 588.251 270.863 577.856C269.507 574.638 266.072 573.353 262.483 573.417C260.558 573.455 258.587 573.5 256.726 573.922C253.444 574.664 251.704 573.57 252.05 570.193C252.37 567.052 251.058 564.71 249.446 562.184C246.644 557.795 246.926 553.695 250.854 549.652C258.952 541.323 259.15 538.451 254.436 527.627C252.907 524.115 250.502 520.974 249.888 517.028C249.683 515.703 248.659 514.443 247.13 514.424C240.503 514.334 240.791 509.53 240.682 505.052C240.65 503.92 240.797 502.622 241.335 501.662C245.544 494.088 245.218 486.719 240.727 479.388C239.966 478.147 240.663 476.746 241.034 475.447C242.416 470.694 244.361 466.21 244.885 461.086C245.474 455.361 250.566 452.591 255.837 454.497C258.971 455.63 261.159 454.683 261.831 452.226C262.873 448.42 265.778 447.32 268.618 445.797C272.405 443.77 275.213 441.454 273.448 436.304C272.239 432.767 273.204 428.948 274.388 425.493C276.211 420.184 274.19 416.371 270.128 413.41C265.483 410.026 259.7 410.179 255.696 413.339C252.945 415.508 248.691 413.051 246.248 416.391C245.915 416.845 244.233 415.297 244.335 417.241C244.386 418.278 245.039 418.994 245.992 419.436C251.442 421.937 252.19 423.817 250.668 431.161C247.514 424.892 247.086 424.873 243.12 430.713C240.03 435.281 233.467 436.899 232.481 443.45C231.695 439.791 232.354 436.65 234.695 433.937C238.111 429.971 239.16 425.973 235.501 421.457C234.055 419.672 233.268 417.376 233.07 415.009C232.916 413.199 232.891 411.369 230.377 411.395C228.202 411.42 226.468 412.45 226.065 414.567C225.528 417.401 225.554 420.331 225.151 423.197C224.824 425.525 224.46 428.347 220.98 426.472C219.118 425.468 218.197 426.453 217.852 427.688C216.591 432.229 214.429 431.494 211.787 428.98C208.55 425.89 204.437 424.918 198.597 424.336C203.625 421.892 204.866 419.448 200.932 416.359C199.435 415.182 198.373 414.612 197.369 416.742C195.507 420.677 193.697 418.099 192.034 416.263C190.543 419.986 191.24 422.704 194.24 424.758C199.07 428.071 201.002 432.562 201.379 438.498C201.667 443.066 205.461 447.051 204.392 452.239C203.599 456.084 199.185 459.871 196.179 457.792C192.277 455.092 190.824 457.126 188.65 459.532C185.086 463.466 183.532 463.152 181.146 458.355C180.551 457.158 180.167 455.386 179.188 454.919C172.459 451.702 171.314 445.478 170.335 439.151C170.002 437.008 168.039 436.157 167.041 434.603C169.766 431.027 180.653 434.097 175.363 424.208C185.86 425.5 186.756 424.009 189.891 414.663C190.927 411.58 192.763 408.772 194.087 405.778C197.369 398.358 196.786 391.257 191.771 384.79C189.417 381.758 192.68 380.286 193.37 378.188C194.215 375.616 196.703 375.137 199.185 375.757C200.849 376.173 202.409 376.998 204.06 377.472C207.175 378.361 209.651 378.009 210.968 374.382C212.248 370.87 215.222 369.258 218.69 367.966C224.69 365.727 230.134 362.893 232.693 356.055C234.58 351.02 239.55 348.871 244.648 347.879C248.774 347.08 252.05 345.045 255.408 342.615C262.707 337.331 270.863 334.919 279.992 336.966C287.335 338.616 294.743 337.951 302.074 336.902C304.179 336.601 304.972 336.806 305.132 338.859C305.189 339.614 305.164 340.472 305.509 341.098C307.671 345.045 307.729 345.058 304.479 348.141C302.739 349.792 302.624 351.276 304.358 353.061C305.675 354.41 308.093 354.366 308.733 356.374C302.336 362.72 293.246 366.68 292.779 377.484C293.931 378.374 295.204 377.241 295.862 376.314C300.347 370 307.044 370.025 313.537 370.454C317.714 370.729 319.755 368.119 322.403 366.059C324.233 364.639 325.986 363.085 327.943 361.85C331.545 359.579 332.108 356.931 328.903 354.078C326.299 351.756 326.651 350.316 329.216 348.167C331.5 346.254 332.997 343.427 335.133 341.29C336.31 340.113 338.178 338.68 339.566 338.834C346.277 339.582 350.947 334.804 356.646 332.917C363.996 330.473 365.276 326.603 362.615 318.779C360.177 311.608 360.293 311.417 367.406 308.979C371.366 307.623 373.31 305.339 370.739 301.149C368.481 297.465 369.818 294.343 372.715 291.944C375.76 289.424 377.065 286.142 375.741 282.835C374.296 279.233 370.521 279.406 367.157 280.059C360.491 281.357 353.889 282.822 350.556 289.795C349.546 291.899 347.588 292.936 345.663 293.678C341.556 295.277 337.417 296.326 334.756 300.593C333.419 302.73 329.453 303.017 327.975 300.958C323.427 294.618 316.902 294.017 310.147 293.473C308.803 293.364 307.492 292.981 306.155 292.737C303.763 292.309 303.539 290.518 305.26 289.712C309.501 287.716 311.081 282.438 315.955 281.44C319.301 280.756 320.248 278.28 320.062 275.402C319.806 271.365 321.514 268.704 325.065 267.156C328.269 265.755 329.901 263.778 329.293 259.972C329.011 258.2 329.562 255.968 330.496 254.401C333.272 249.724 329.945 246.603 326.926 245.829C322.026 244.568 319.064 241.395 315.603 238.434C312.968 236.176 313.294 234.212 316.218 233.335C320.222 232.139 322.845 229.657 325.173 226.452C325.928 225.416 327.278 224.098 328.34 224.117C335.805 224.252 339.106 218.949 342.97 213.901C345.855 210.134 346.507 204.862 342.848 201.779C339.611 199.041 336.733 195.964 333.585 193.194C329.67 189.74 324.674 190.162 319.774 191.032C312.341 192.35 310.364 194.794 310.812 202.163C310.902 203.647 311.58 204.204 312.802 204.511C315.508 205.189 317.599 206.903 317.599 209.622C317.599 212.718 315.194 215.968 312.744 216.255C302.419 217.452 296.118 226.689 286.12 228.422C286.58 229.005 286.753 229.452 287.015 229.516C290.067 230.22 294.922 229.42 294.877 233.61C294.826 238.319 289.9 236.329 286.971 236.918C285.544 237.205 283.267 236.336 283.011 238.28C282.704 240.653 285.333 240.717 286.798 240.833C292.287 241.261 297.417 242.828 302.387 245.042C303.795 245.669 305.56 246.443 304.959 248.336C304.332 250.319 302.343 250.166 301.082 249.232C293.157 243.404 284.361 246.257 275.156 246.5C283.548 249.149 293.105 246.782 299.157 255.411C296.374 255.027 295.447 256.013 294.813 258.789C293.681 263.714 288.193 264.418 284.623 267.003C283.209 268.026 279.947 267.847 281.015 270.38C281.943 272.581 284.457 270.847 286.209 270.361C288.429 269.753 290.745 269.293 292.383 267.38C293.016 266.644 293.879 265.966 294.826 266.887C295.613 267.661 295.376 268.679 294.999 269.593C293.566 273.06 290.361 274.25 287.195 275.018C282.467 276.163 277.906 277.647 273.556 279.809C273.038 280.065 272.27 280.142 272.002 280.551C266.929 288.298 258.453 286.072 251.288 287.639C247.156 288.541 243.459 287.709 241.181 283.858C239.211 280.532 234.644 280.27 233.089 276.112C232.347 274.129 231.33 273.176 233.134 271.378C237.708 266.823 237.292 261.258 235.789 255.654C235.296 253.825 234.388 251.196 232.494 251.24C227.53 251.356 225.848 249.065 223.327 244.85C220.43 240.014 220.737 235.632 221.088 231.013C221.312 228.109 223.251 225.339 223.219 222.192C223.212 221.188 223.366 220.01 224.389 219.729C234.253 217.042 234.605 209.449 234.829 201.127C234.944 196.809 230.703 195.523 230.415 192.177C230.006 187.482 226.641 187.648 223.468 187.105C222.56 186.951 220.967 186.42 220.948 186.011C220.513 176.786 214.25 183.951 211.039 182.582C209.593 181.961 206.516 188.346 207.38 190.213C208.16 191.909 209.708 193.322 209.139 195.689C202.198 194.384 205.243 186.721 201.987 184.181C196.639 180.004 201.629 174.931 199.089 170.792C199.006 176.198 195.283 180.138 193.876 185.531C190.991 183.266 188.202 181.808 188.733 178.072C185.643 178.347 187.415 182.819 184.248 182.051C182.022 181.514 182.317 178.635 181.082 177.611C175.721 173.153 177.129 166.206 174.371 160.858C173.924 159.988 173.553 158.926 174.525 158.222C175.536 157.487 176.329 158.376 177.001 159.016C180.858 162.675 182.604 161.971 182.79 156.553C182.892 153.616 184.466 153.265 187.108 154.781C188.598 155.638 190.703 157.8 192.206 156.38C193.959 154.717 194.899 151.275 193.582 149.407C191.343 146.234 194.17 140.899 188.822 139.179C187.76 138.833 189.059 137.119 189.43 136.095C190.549 133.025 192.5 129.922 188.17 127.613C187.671 127.344 187.568 126.295 187.319 125.591C186.679 123.807 187.69 120.032 184.997 120.87C183.212 121.427 180.314 124.382 180.896 127.747C181.159 129.27 181.798 130.664 181.018 132.219C179.713 134.809 177.813 135.417 176.387 132.762C174.781 129.762 174.122 126.135 169.331 128.029C169.196 128.08 168.307 126.238 167.424 125.246C168.045 128.067 166.158 130.287 165.467 132.641C164.424 136.172 160.119 134.809 157.759 133.581C154.541 131.912 151.541 129.775 148.17 128.285C146.193 127.415 145.713 125.406 145.617 123.391C145.182 113.891 140.365 105.313 140.474 95.7432C139.534 95.8712 139.003 95.8136 138.92 95.9735C137.819 98.2316 138.184 102.358 134.429 101.59C130.322 100.752 129.004 96.0631 128.87 92.9478C128.55 85.7192 121.955 79.6805 125.217 71.8826C125.608 70.9422 124.846 68.9656 123.976 68.1468C118.513 62.9972 117.72 55.0074 112.289 49.698L104.427 62.204L104.408 62.1016ZM248.749 965.972C250.035 972.875 245.794 979.476 247.636 986.436C247.815 987.114 246.894 988.17 246.203 987.856C243.158 986.449 237.772 984.632 238.495 982.22C240.215 976.476 244.117 971.378 247.226 966.068C247.367 965.825 248.327 966.068 248.89 966.081C245.973 963.593 244.028 964.303 243.017 967.904C242.493 969.766 242.083 971.653 241.527 973.501C241.239 974.467 240.586 975.248 239.441 975.152C238.328 975.062 237.401 974.135 237.676 973.265C238.757 969.836 237.036 965.109 240.113 963.023C244.015 960.375 249.408 963.484 253.873 961.334C253.879 961.334 254.442 962.268 254.602 962.812C255.818 966.996 255.101 970.712 252.382 974.691C250.265 971.391 255.53 966.286 248.743 965.972H248.749ZM197.164 466.364C193.287 471.257 191.394 477.59 185.515 481.057C177.001 486.079 170.137 492.431 170.194 503.498C170.207 505.628 168.71 507.125 166.337 506.876C164.002 506.632 164.181 504.944 164.04 503.037C163.529 496.135 164.367 489.393 165.531 482.618C166.068 479.503 167.52 478.761 170.322 479.42C171.845 479.778 173.22 481.39 175.107 480.13C173.169 475.697 169.484 473.228 165.595 471.078C163.164 469.735 161.111 467.873 162.038 465.18C163.759 460.159 160.97 456.16 159.793 451.811C159.281 449.911 158.718 447.109 155.967 447.563C153.729 447.934 153.888 450.531 153.562 452.373C153.326 453.698 153.294 455.06 153.262 456.41C153.166 460.658 153.21 464.905 153.006 469.146C152.935 470.605 152.769 472.594 150.767 472.677C149.027 472.748 149.059 470.937 148.713 469.671C144.965 455.981 147.683 443.731 156.965 433.004C158.987 430.669 161.418 430.592 161.917 433.976C162.422 437.411 163.286 440.661 164.367 443.904C166.798 451.241 164.712 460.958 175.056 464.118C175.216 464.169 175.357 464.368 175.459 464.528C178.92 470.189 184.21 469.178 189.411 468.283C192.059 467.822 194.669 467.112 197.305 466.524C198.251 464.604 199.755 463.958 201.923 463.734C206.465 463.274 209.03 460.945 207.751 455.93C207.162 453.608 207.578 451.369 208.237 449.111C209.427 445.03 209.017 441.096 206.721 437.456C205.697 435.837 203.932 433.976 206.587 432.69C208.896 431.564 211.653 433.56 211.435 435.313C210.668 441.422 214.468 445.644 216.399 450.672C217.564 453.71 216.687 457.114 214.384 459.871C213.035 461.483 211.583 463.146 210.764 465.039C208.736 469.716 205.48 470.003 201.399 468.212C199.985 467.592 198.578 466.978 197.164 466.364ZM172.99 868.918C179.195 862.892 185.732 860.371 193.338 866.704C194.1 867.338 195.571 867.267 196.716 867.274C199.3 867.293 200.49 869.014 201.392 870.997C203.618 875.909 201.431 878.615 194.272 879.863C194.759 882.019 196.319 882.415 198.213 882.37C203.235 882.249 207.757 883.528 211.538 887.034C212.676 888.089 214.225 889.279 215.53 887.61C216.681 886.132 214.999 885.262 214.033 884.366C213.163 883.554 212.28 882.646 213.252 881.436C213.924 880.598 215.037 880.4 215.83 881.161C218.069 883.304 220.449 885.639 219.796 889.042C219.208 892.126 216.649 892.51 213.873 892.254C212.785 892.151 211.602 892.503 210.527 892.842C203.305 895.132 199.55 894.045 194.919 888.07C193.364 886.068 192.046 883.848 189.148 883.72C187.997 883.669 186.014 884.238 186.871 885.255C189.654 888.588 186.494 892.574 188.579 895.823C190.716 899.15 191.899 902.738 188.413 905.745C184.491 909.129 180.007 911.534 174.621 909.039C172.043 907.85 169.951 906.193 166.58 906.8C163.772 907.306 164.431 904.107 165.345 903.09C172.83 894.825 170.316 884.507 168.563 875.98C167.316 869.909 168.998 869.73 172.747 868.521C169.222 866.007 166.606 862.45 162.812 860.192C160.151 858.612 160.177 856.047 161.801 853.661C163.938 850.526 165.192 853.303 166.695 854.518C167.277 854.991 168.026 855.273 168.723 855.586C175.683 858.695 176.758 862.034 172.99 868.924V868.918ZM276.006 911.707C276.339 912.788 276.601 913.895 277.011 914.944C277.631 916.511 281.968 914.522 280.318 918.053C279.243 920.349 278.469 923.138 275.194 923.855C270.038 924.981 264.236 924.059 260.135 929.011C261.511 923.343 264.703 918.424 269.494 917.937C274.433 917.438 274.605 914.477 276.038 911.669C273.16 911.752 271.413 910.165 270.083 907.798C268.739 905.412 266.98 904.683 265.285 907.376C260.666 914.701 256.073 908.361 251.8 907.107C248.333 906.09 247.668 901.888 249.139 896.93C252.715 901.19 253.483 901.6 260.973 902.546C262.637 902.758 265.087 904.945 265.842 901.977C266.558 899.156 263.481 897.147 261.652 897.48C254.551 898.772 247.457 889.254 240.497 897.512C240.446 897.576 239.889 897.218 239.556 897.045C239.422 895.407 242.243 895.97 241.738 894.147C239.684 886.637 241.552 878.398 236.307 871.368C231.81 865.335 233.486 863.403 240.67 860.96C245.806 859.213 253.483 860.013 254.097 851.409C254.142 850.808 255.6 849.765 256.304 849.842C263.232 850.603 270.607 848.255 277.023 852.727C280.369 855.062 282.819 854.205 284.29 850.475C284.924 848.863 285.205 847.085 286.011 845.575C286.964 843.771 288.57 843.4 289.286 845.652C290.796 850.392 294.82 852.925 297.903 856.309C305.17 864.286 309.04 873.312 305.535 884.251C304.844 886.407 304.377 889.062 301.594 889.503C298.517 889.989 296.176 888.166 295.063 885.62C291.653 877.79 284.444 876.588 277.439 875.398C273.889 874.796 270.71 874.528 268.496 871.157C267.223 869.218 265.17 867.939 262.541 869.34C262.771 871.412 266.891 871.24 265.413 873.677C262.515 878.443 264.773 883.157 265.004 887.84C265.336 894.55 267.716 896.866 274.484 898.196C276.729 898.638 279.41 898.088 281.073 899.943C284.06 903.269 287.662 903.672 291.66 902.841C294.641 902.22 295.907 902.163 295.786 906.359C295.703 909.314 293.911 908.24 293.086 908.988C290.95 910.946 288.333 910.856 285.493 910.396C282.32 909.877 278.917 909.404 276 911.713L276.006 911.707ZM22.1048 759.037C17.0704 755.263 16.4883 751.969 19.8914 745.84C21.1005 743.659 23.0067 741.669 22.6101 738.976C21.7849 733.328 20.7742 727.756 29.7235 731.485C29.8771 731.549 30.1458 731.492 30.2801 731.389C35.9542 726.956 37.0353 733.68 39.3062 735.765C41.0334 737.352 37.3935 739.622 36.2868 741.657C35.6535 742.821 34.5789 743.742 33.7153 744.785C32.0777 746.768 32.2568 748.348 34.8731 749.128C37.0865 749.787 39.4022 750.126 41.5899 750.849C45.1978 752.039 46.6243 750.657 46.5476 747.088C46.4388 742.322 48.6458 739.494 53.4499 738.631C56.0982 738.157 58.6634 736.769 58.0237 733.692C56.4756 726.272 60.7808 720.476 63.1924 714.252C63.9537 712.288 66.6916 710.056 69.9348 711.329C73.4596 712.717 72.0522 715.192 71.4957 717.63C70.6641 721.269 71.4637 724.506 74.9628 726.361C78.5643 728.274 79.0313 729.586 76.0823 733.206C71.323 739.053 69.7493 747.145 63.5954 752.237C63.2628 752.512 63.3587 753.337 63.3076 753.913C62.6551 760.54 60.3777 767.328 65.265 773.424C66.0902 774.447 65.2011 775.676 65.2842 776.77C65.7192 782.533 60.4673 784.516 57.9789 788.329C52.0234 797.457 52.5287 808.984 47.635 818.612C47.0529 819.763 47.4303 821.587 46.0038 822.118C44.2318 822.776 43.912 820.813 43.138 819.879C41.4812 817.876 39.3062 816.955 37.0225 815.81C32.3271 813.469 25.9046 811.902 25.0602 805.972C24.2925 800.56 18.6888 794.674 25.1562 789.109C25.7383 788.604 25.4312 786.883 25.2969 785.751C23.8895 773.987 28.2715 763.701 33.9904 754.009C36.1333 750.382 34.5981 750.145 31.9433 749.787C27.4335 749.186 23.9983 752.467 22.0984 759.031L22.1048 759.037ZM224.287 681.301C226.596 681.301 228.912 681.423 231.208 681.269C233.71 681.103 236.192 680.412 238.68 680.412C244.975 680.412 246.99 684.142 243.791 689.579C239.563 696.769 228.566 701.138 220.724 698.618C219.201 698.132 217.781 697.78 216.214 698.164C214.474 698.592 212.888 698.803 211.589 696.967C210.118 694.882 211.314 693.238 212.184 691.6C213.239 689.611 215.248 687.941 212.92 685.491C210.815 683.278 209.318 684.8 207.373 685.798C205.026 687.001 202.486 686.067 203.286 683.259C204.527 678.915 203.663 675.864 200.426 672.909C198.974 671.584 199.569 669.652 201.015 668.284C202.358 667.017 202.991 664.727 205.294 664.861C206.337 664.919 206.535 666.172 206.83 667.1C208.218 671.514 211.34 672.371 215.242 669.422C219.675 666.077 220.833 659.187 217.775 652.573C220.583 653.334 222.285 652.521 223.219 649.815C223.839 648.012 225.573 647.41 226.449 649.694C228.624 655.342 232.884 658.554 238.232 660.773C239.691 661.381 240.893 662.68 240.631 664.42C240.171 667.465 242.813 666.492 244.066 667.266C246.292 668.642 245.998 666.358 246.542 665.43C249.785 659.865 251.653 659.27 257.27 662.251C258.389 662.846 260.135 661.848 260.75 663.627C257.308 669.326 254.365 675.723 245.717 673.452C245.461 673.382 244.987 674.213 244.584 674.597C242.563 676.529 240.055 678.128 237.433 676.964C234.151 675.506 237.721 672.717 237.286 670.401C230.287 670.964 231.061 680.783 224.281 681.301H224.287ZM213.367 970.668C210.246 968.755 208.352 964.559 204.968 968.205C201.782 971.634 198.936 966.132 195.936 968.23C194.656 969.126 193.179 970.143 192.149 967.949C191.24 966.011 192.014 964.61 193.863 963.695C197.676 961.814 197.861 959.108 195.673 955.82C195.283 955.232 194.791 954.419 194.912 953.824C196.281 946.928 194.189 942.176 187.012 940.193C185.988 939.911 184.338 939.31 185.662 937.269C190.984 929.062 192.085 928.87 199.735 935.548C200.625 936.329 201.623 937.563 202.646 937.135C205.192 936.073 205.352 941.338 208.154 938.99C209.561 937.813 210.841 935.503 212.939 936.713C215.165 937.998 214.915 940.685 215.018 943.02C215.222 947.767 214.557 952.583 216.022 958.014C217.82 954.483 219.432 951.745 222.585 950.37C224.095 949.711 224.69 948.732 223.155 947.293C221.645 945.879 221.536 944.088 223.052 942.719C224.319 941.574 226.084 942.048 227.441 942.751C229.149 943.647 229.494 945.067 228.995 947.127C228.016 951.17 228.234 955.603 229.846 959.185C231.835 963.599 230.799 966.234 227.05 969.267C226.328 964.277 223.615 962.946 219.221 963.797C215.593 964.501 213.06 965.825 213.361 970.668H213.367ZM85.3195 852.791C88.0638 855.343 91.9979 853.712 95.0876 855.356C96.2135 855.951 97.6528 857.019 97.8639 858.088C98.8554 863.154 99.7958 868.278 98.8874 873.491C98.7659 874.201 98.7595 875.161 97.64 874.995C91.2111 874.042 90.4883 879.728 88.3581 883.343C85.3195 888.511 82.0123 893.437 78.0014 897.851C76.3574 899.655 73.8242 900.602 73.1973 903.365C72.7111 905.515 71.2846 906.768 68.9881 906.359C67.1201 906.02 65.054 905.719 64.3375 903.5C63.7106 901.542 64.6765 900.173 65.6105 898.363C67.9262 893.847 74.1952 889.893 68.9049 883.483C68.3484 882.812 68.7962 880.221 69.5574 879.741C72.8071 877.688 74.2719 874.214 76.7476 871.623C80.2723 867.939 86.1255 865.726 82.1402 858.702C80.9056 856.533 81.9547 853.776 85.3195 852.784V852.791ZM159.076 944.542C159.371 944.472 159.671 944.402 159.966 944.338C159.639 943.276 159.287 942.22 159 941.146C158.667 939.885 157.669 938.305 159.204 937.461C161.373 936.271 161.674 938.523 162.32 939.751C163.311 941.638 164.827 942.719 166.874 942.924C171.64 943.397 172.28 946.519 171.877 950.408C171.73 951.822 170.476 953.786 172.715 954.375C180.391 956.383 178.024 963.145 179.38 968.115C179.681 969.209 179.31 970.591 177.941 970.93C176.566 971.269 175.868 970.143 175.318 969.1C174.96 968.422 174.781 967.655 174.506 966.932C173.917 965.39 174.058 962.857 171.826 963.042C169.331 963.253 169.555 965.889 169.433 967.693C169.196 971.103 167.712 972.721 164.232 973.476C156.959 975.049 151.624 971.953 149.718 964.507C148.291 958.936 147.856 953.146 146.813 947.619C145.611 941.216 150.101 940.519 152.897 938.836C156.69 936.553 156.415 941.497 158.002 943.205C158.392 943.621 158.718 944.101 159.07 944.549L159.076 944.542ZM204.034 479.912C203.567 481.332 203.1 482.58 202.748 483.866C201.552 488.203 204.239 490.461 207.565 491.926C210.623 493.269 218.024 490.73 218.658 488.267C220.334 481.71 222.995 475.774 227.613 470.688C228.835 469.338 229.328 467.675 231.579 468.916C233.588 470.023 234.554 471.564 233.409 473.643C232.398 475.473 230.908 477.034 229.718 478.774C227.658 481.793 224.991 484.857 226.18 488.753C227.274 492.322 227.53 495.041 224.939 498.323C222.054 501.982 218.267 499.372 216.022 500.408C209.094 503.6 206.574 499.737 202.083 495.809C197.01 491.369 196.844 486.309 196.23 480.891C195.961 478.569 197.337 477.84 199.601 478.729C200.964 479.266 202.454 479.497 204.041 479.906L204.034 479.912ZM123.618 908.649C124.424 910.805 124.571 912.295 125.377 913.165C127.642 915.609 129.925 917.49 124.021 917.554C121.494 917.579 121.36 920.33 121.673 922.115C122.499 926.823 122.953 931.902 127.527 934.845C132.235 937.87 133.834 941.805 132.12 946.596C123.023 945.86 122.332 933.316 112.628 933.188C112.302 933.188 111.912 931.908 111.681 931.186C109.877 925.505 107.946 919.863 106.397 914.119C105.655 911.361 106.628 908.451 108.975 906.884C111.848 904.971 113.191 908.105 114.336 909.749C117.483 914.272 120.253 913.863 123.612 908.649H123.618ZM78.1165 390.336C80.3875 394.903 80.2787 397.34 78.2636 399.624C69.6853 409.328 70.3954 413.582 81.4366 420.024C84.7054 421.93 88.2045 423.619 90.4307 426.971C91.9979 429.332 91.3838 431.404 89.759 433.285C88.1534 435.14 85.5562 435.69 84.0465 434.117C78.0078 427.809 67.2097 425.302 67.5168 413.774C67.5424 412.821 66.5444 411.081 65.8344 410.979C60.0132 410.141 62.3544 405.222 61.2542 402.1C60.2307 399.189 61.8363 397.967 64.5294 398.537C70.7025 399.842 76.319 400.27 78.1165 390.336ZM262.547 303.702C255.581 304.994 250.406 301.335 245.576 297.241C244.514 296.345 243.938 296.224 242.742 296.32C237.964 296.697 232.91 298.616 229.11 293.499C228.151 292.213 226.27 293.057 224.85 293.87C223.634 294.567 222.828 296.876 221.088 295.571C219.732 294.561 220.685 292.661 220.679 291.164C220.673 289.629 220.877 288.087 221.088 286.558C222.285 277.986 224.831 276.988 231.931 282.349C233 283.155 233.857 284.23 234.842 285.151C237.663 287.78 240.362 290.889 244.009 292.04C251.205 294.318 256.457 299.493 262.554 303.708L262.547 303.702ZM89.2216 663.192C89.1513 664.605 88.857 665.955 87.2898 666.39C85.6394 666.851 84.2 666.166 83.1317 664.97C78.5899 659.872 73.4148 656.104 66.1734 656.129C65.3994 656.129 64.4142 655.279 63.8897 654.556C62.4184 652.528 60.7296 651.914 58.4139 653.04C56.9106 653.769 55.4265 653.954 54.435 652.17C52.1833 648.101 57.7231 646.95 57.6591 643.623C57.6335 642.414 58.7018 641.858 59.6037 642.849C63.5443 647.167 73.1653 642.337 73.9393 651.76C73.9713 652.118 74.7965 652.496 75.3147 652.713C79.4855 654.485 81.8268 659.264 86.9635 659.596C88.6587 659.705 89.1704 661.535 89.2152 663.192H89.2216ZM211.256 286.11C210.476 287.39 209.177 287.37 207.796 287.306C206.51 287.242 204.789 286.577 204.137 288.068C203.324 289.929 205.237 290.748 206.375 291.605C208.506 293.204 211.173 294.087 212.772 296.409C213.527 297.51 214.57 298.661 213.617 300.043C212.792 301.239 211.583 300.612 210.476 300.273C206.804 299.154 203.132 298.015 199.428 297.017C196.255 296.16 195.251 293.87 195.174 290.959C195.091 287.697 195.609 282.163 197.369 282.214C200.791 282.317 206.094 275.517 208.192 283.897C208.538 285.272 211.007 284.031 211.244 286.117L211.256 286.11ZM225.099 833.338C220.161 839.421 215.677 845.025 207.162 840.63C206.228 840.151 204.885 840.438 203.727 840.426C201.2 840.4 198.891 839.856 198.872 836.786C198.846 833.389 201.527 833.069 204.111 832.717C208.301 832.142 212.964 834.412 216.675 830.625C216.918 830.376 218.287 830.798 218.741 831.272C220.385 832.986 222.617 833.088 225.099 833.331V833.338ZM118.999 137.656C122 135.014 121.795 131.995 121.232 128.534C120.336 123.052 116.102 117.915 119.332 111.915C119.588 111.441 119.166 110.008 118.731 109.836C113.722 107.833 113.869 102.313 111.342 98.6602C108.624 94.7325 106.391 89.858 106.039 84.2287C108.956 85.732 109.027 88.2588 109.941 90.3122C111.502 93.7986 112.609 97.5216 116.473 99.5046C122.595 102.652 123.848 108.895 122.946 114.429C122.128 119.463 122.479 123.8 123.765 128.508C124.872 132.583 124.546 136.556 118.999 137.656ZM115.526 859.661C116.114 858.67 117.17 858.862 118.072 858.631C121.283 857.812 124.079 859.892 127.13 859.917C130.22 859.949 135.241 861.42 131.525 855.036C131.032 854.185 131.186 852.682 131.563 851.671C132.068 850.296 132.804 848.467 134.666 848.786C136.495 849.1 135.823 850.923 135.849 852.17C135.9 854.864 135.99 857.576 135.811 860.263C135.504 864.881 130.002 870.171 126.695 868.655C122.319 866.647 116.684 865.809 115.532 859.655L115.526 859.661ZM140.404 253.55C143.845 253.14 142.777 245.758 147.728 248.394C151.291 250.294 154.618 249.462 158.27 248.413C164.405 246.654 170.853 244.85 175.964 251.97C173.482 251.739 171.41 251.285 169.363 251.394C162.857 251.739 155.673 249.801 150.933 256.55C150.025 257.842 148.758 258.047 147.383 257.311C145.048 256.07 142.732 254.804 140.404 253.543V253.55ZM101.485 880.835C103.813 884.846 102.962 890.341 107.6 892.945C107.856 893.092 107.926 894.211 107.658 894.55C105.604 897.192 105.22 900.045 105.898 903.276C106.212 904.785 105.009 905.662 103.576 906.148C99.2137 907.619 96.8404 905.617 97.5185 900.986C98.0814 897.167 101.619 893.412 100.058 889.932C98.3693 886.17 99.6679 883.899 101.478 880.835H101.485ZM268.324 887.207C268.068 885.659 268.599 884.846 269.481 884.353C271.516 883.234 273.953 883.061 275.488 884.597C278.584 887.693 282.384 888.659 286.389 889.458C288.135 889.804 289.613 890.744 290.834 892.049C292.024 893.316 293.636 894.646 292.267 896.514C290.937 898.331 289.024 897.602 287.617 896.527C283.516 893.373 278.987 891.64 273.806 891.173C271.285 890.942 269.072 889.522 268.324 887.207ZM124.335 1026.31C124.878 1022.39 125.281 1018.74 125.915 1015.13C126.318 1012.82 128.045 1012.02 130.252 1012.3C132.331 1012.56 133.252 1013.74 133.054 1015.89C132.881 1017.79 132.503 1020.01 134.173 1021.3C139.246 1025.22 134.301 1025.5 132.267 1026.18C130.955 1026.62 129.759 1026.78 128.928 1028.01C128.154 1029.16 127.207 1030.33 125.627 1029.59C124.136 1028.89 124.322 1027.38 124.341 1026.31L124.335 1026.31ZM363.344 911.419C365.353 918.481 363.427 925.416 369.53 929.26C369.958 929.529 369.613 931.07 369.575 932.017C369.338 938.03 363.862 937.928 360.222 939.917C359.032 940.57 357.35 940.819 356.889 938.99C356.339 936.796 357.785 936.303 359.634 936.623C362.877 937.186 364.495 934.8 366.299 932.874C366.715 932.427 366.83 931.39 366.638 930.751C366.37 929.849 365.525 929.861 364.77 930.348C360.011 933.444 360.958 928.678 361.06 927.149C361.367 922.46 362.352 917.81 363.338 911.425L363.344 911.419ZM315.783 919.108C312.469 918.417 308.765 918.053 305.97 915.372C304.972 914.413 304.415 913.146 304.959 911.713C305.349 910.69 306.302 910.204 307.268 910.376C310.831 911.016 314.439 911.579 317.887 912.628C319.73 913.191 321.207 914.893 320.414 917.138C319.723 919.089 317.817 919.14 315.789 919.102L315.783 919.108ZM308.931 1022.94C306.616 1024.82 303.948 1024.67 301.863 1023.77C299.566 1022.78 301.351 1020.37 301.671 1018.58C301.972 1016.87 302.247 1015.14 302.701 1013.47C304.306 1007.62 301.984 1003.22 296.144 1001.26C294.865 1000.83 293.489 1000.68 292.229 1000.22C291.097 999.799 290.208 998.987 290.355 997.605C290.47 996.55 291.257 996.006 292.127 995.494C294.909 993.863 299.829 996.307 300.711 991.023C300.711 991.003 301.121 990.978 301.249 991.074C302.381 991.925 303.871 993.223 303.328 990.313C302.976 988.432 304.127 984.587 301.665 984.965C294.321 986.084 297.097 981.587 297.283 978.338C297.411 976.195 297.327 974.077 296.086 972.19C295.549 971.371 295.044 970.629 295.958 969.638C297.193 968.294 305.675 967.923 307.147 969.663C309.015 971.87 309.168 974.339 307.128 976.994C303.392 981.843 303.507 986.071 307.978 990.313C311.375 993.53 315.245 992.91 319.666 990.888C325.122 988.4 328.826 984.178 332.888 979.95C335.543 985.406 333.502 988.803 329.325 991.611C322.851 995.955 322.282 998.987 327.706 1005.08C331.871 1009.75 333.195 1013.62 327.751 1018.21C325.365 1020.22 325.909 1023.44 327.233 1025.77C328.781 1028.49 331.5 1027.44 334.001 1026.7C338.191 1025.46 341.019 1022.9 342.816 1018.94C343.667 1017.07 344.652 1014.73 347.364 1015.3C352.578 1016.39 354.708 1022.91 351.164 1026.78C348.855 1029.3 347.089 1031.7 350.704 1034.5C352.38 1035.79 352.226 1037.36 351.708 1039.18C350.326 1044.01 346.558 1047.51 344.626 1052.04C344.326 1052.74 343.059 1053.41 342.221 1053.43C335.696 1053.63 332.472 1059.21 332.555 1063.4C332.696 1070.45 331.321 1074.13 323.983 1074.47C323.344 1074.5 322.768 1075.39 322.109 1075.78C320.862 1076.51 319.346 1078.19 318.297 1075.93C317.478 1074.16 316.211 1071.84 318.898 1070.32C321.246 1069 323.657 1067.77 326.107 1066.63C327.547 1065.96 329.446 1065.38 329.178 1063.65C328.832 1061.4 326.709 1062.6 325.365 1062.59C323.44 1062.57 321.514 1062.87 319.582 1063.02C318.373 1063.12 317.107 1063.02 316.71 1061.66C316.256 1060.12 317.695 1059.75 318.668 1059.25C321.425 1057.85 324.303 1056.69 326.971 1055.13C328.768 1054.08 329.645 1051.92 329.024 1050.1C328.263 1047.89 326.421 1049.84 325.045 1049.86C323.433 1049.89 321.61 1050.55 320.414 1048.69C331.57 1041.97 333.054 1036.38 325.224 1030.85C325.576 1036.11 322.16 1039.57 314.996 1040.91C316.352 1038.16 317.798 1035.67 318.802 1033.01C319.333 1031.6 319.205 1029.68 317.375 1029.07C315.584 1028.47 315.181 1030.11 314.695 1031.39C314.42 1032.12 314.075 1032.81 313.102 1032.8C308.855 1026.56 319.448 1022.12 315.207 1015.8C313.262 1019.35 312.085 1020.37 308.925 1022.94H308.931ZM308.113 377.58C311.381 377.011 312.814 374.113 309.111 371.318C308.087 370.544 306.398 369.648 307.396 368.138C308.573 366.36 310.569 367.198 312.143 367.755C312.962 368.042 313.55 369.008 314.209 369.693C317.401 373.032 321.31 371.823 325.116 371.497C329.107 371.158 326.798 368.33 327.393 366.552C328.122 364.383 330.24 362.899 332.811 362.906C337.487 362.925 343.04 368.305 342.733 373.109C342.509 376.646 343.494 378.54 346.891 379.512C349.667 380.305 351.574 382.167 351.689 385.301C351.874 390.329 346.494 393.035 346.392 398.287C346.36 399.938 341.959 399.618 339.528 399.982C329.498 401.479 323.849 410.844 328.058 419.877C330.131 424.329 327.905 426.376 324.604 427.182C317.676 428.865 309.859 428.609 307.198 438.019C309.117 433.368 306.737 428.455 309.827 424.489C312.411 421.163 313 417.529 310.863 413.672C309.949 412.028 309.648 410.281 311.324 408.951C315.194 405.887 313.563 403.015 311.254 400.008C309.968 398.338 308.132 396.592 307.902 394.711C307.179 388.916 304.383 386.05 298.114 386.888C300.827 382.525 302.63 378.533 308.119 377.58H308.113ZM129.017 485.625C128.787 490.723 130.456 495.54 131.019 500.517C131.122 501.425 131.179 502.692 132.331 502.82C133.911 502.993 133.137 500.869 134.109 500.491C135.996 505.558 135.197 510.56 132.555 514.968C130.213 518.883 138.094 525.324 129.286 527.391C128.998 527.461 128.844 528.83 128.915 529.559C129.401 534.299 130.847 538.688 133.501 543.044C135.983 540.172 135.446 537.594 134.755 534.926C134.352 533.372 133.002 531.165 135.267 530.404C137.301 529.725 139.572 530.864 140.692 532.841C142.24 535.579 141.913 538.445 140.148 541.048C139.284 542.315 138.024 543.338 137.288 544.662C135.939 547.106 136.06 550.234 138.216 551.475C140.564 552.825 140.768 549.454 141.773 548.059C142.835 546.581 143.89 545.136 145.931 545.615C148.035 546.108 148.528 547.944 148.31 549.722C147.479 556.586 147.191 563.425 148.854 570.442C145.924 566.156 143.052 563.13 137.851 561.154C134.147 559.74 135.977 551.846 132.382 547.957C131.864 547.394 131.582 546.607 131.045 546.076C126.273 541.349 125.211 535.495 125.422 529.054C125.614 523.098 126.369 517.104 124.821 511.181C122.051 500.587 121.993 490.243 128.154 480.111C129.497 481.947 129.075 483.891 128.998 485.618L129.017 485.625ZM79.5047 479.465C81.9291 478 85.4474 479.042 86.4774 480.463C88.9914 483.917 92.6504 486.047 95.2028 489.265C98.0558 492.866 96.2647 502.129 92.5225 504.899C88.3965 507.95 81.219 505.903 78.4555 501.572C75.4042 496.794 78.5196 492.105 77.7327 487.435C77.9886 484.691 76.3126 481.39 79.4983 479.465H79.5047ZM244.405 207.197C244.457 210.844 244.258 214.49 244.181 218.136C244.149 219.512 244.13 221.124 245.806 221.392C247.572 221.674 247.796 219.863 248.327 218.712C249.024 217.196 248.096 215.699 248.058 214.228C247.936 208.982 246.248 203.519 249.51 198.101C250.335 200.973 250.406 203.801 251.8 205.605C256.278 211.387 250.796 218.59 254.858 224.277C254.916 224.36 254.493 224.955 254.186 225.102C250.687 226.791 250.156 230.374 249.273 233.566C246.804 233.105 246.625 228.531 244.143 230.617C240.689 233.521 243.593 237.237 244.776 240.801C234.215 236.655 236.045 218.699 240.734 201.191C242.41 203.685 244.373 204.894 244.405 207.204V207.197ZM431.164 780.262C433.052 776.622 436.787 774.383 440.171 772.381C444.189 770.002 447.771 773.539 449.728 780.019C450.918 783.96 449.389 785.84 446.715 788.252C444.086 790.625 442.065 790.216 439.583 788.597C437.862 787.478 435.815 786.666 434.574 788.904C433.435 790.958 431.836 793.357 434.344 795.692C435.182 796.472 436.288 797.137 436.762 798.103C437.92 800.47 436.02 802.069 434.721 803.566C433.819 804.615 431.996 803.976 431.926 802.895C431.644 798.557 428.926 795.174 427.352 791.035C428.58 787.44 429.418 783.621 431.158 780.262H431.164ZM141.075 458.706C141.689 465.922 146.833 471.775 147.05 479.119C147.101 480.776 147.293 484.198 149.782 483.143C155.776 480.59 154.567 485.215 154.784 487.787C155.373 494.677 153.601 501.688 155.923 508.532C156.345 509.773 155.526 512.191 154.221 511.251C151.278 509.14 148.63 510.899 145.892 510.694C143.378 510.509 140.423 509.402 140.429 506.511C140.429 503.434 143.423 505.193 145.067 504.905C150.108 504.029 152.878 501.035 150.498 497.159C147.472 492.227 146.532 486.885 144.741 481.691C144.146 479.964 142.649 478.575 141.018 478.243C135.427 477.091 136.713 473.797 138.625 470.65C139.642 468.974 140.487 467.566 139.073 466.012C136.188 462.832 137.787 459.628 138.638 455.789C139.7 457.011 141.005 457.805 141.075 458.7V458.706ZM108.24 535.508C109.103 543.856 111.988 551.322 113.805 559.215C115.232 565.408 116.153 571.958 112.609 578.17C111.541 571.785 111.221 565.299 108.758 559.254C106.487 553.682 105.438 547.822 105.086 541.841C104.952 539.59 106.135 536.148 105.06 535.259C99.4248 530.608 103.276 524.864 102.975 519.458C106.353 524.262 107.722 530.563 108.24 535.508ZM-2.65143 563.271C1.19955 563.393 5.39597 567.583 4.68591 571.261C4.08459 574.408 4.18054 578.617 -0.348511 579.238C-3.07999 579.609 -6.44479 573.653 -6.31686 569.214C-6.21451 565.785 -4.62808 563.207 -2.65143 563.271ZM44.7756 274.852C44.7756 274.8 44.7692 274.743 44.7756 274.692C44.782 274.692 44.7756 274.852 44.7756 274.852Z" fill="white"/>
</mask>
<g mask="url(#mask0_53_118812)">
<path d="M462.883 -10.9268H464.949V1124.79H462.883V-10.9268Z" fill="#00FF48"/>
<path d="M453.914 -10.9268H455.98V1124.79H453.914V-10.9268Z" fill="#00FF48"/>
<path d="M444.94 -10.9268H447.006V1124.79H444.94V-10.9268Z" fill="#00FF48"/>
<path d="M435.969 -10.9268H438.035V1124.79H435.969V-10.9268Z" fill="#00FF48"/>
<path d="M426.996 -10.9268H429.062V1124.79H426.996V-10.9268Z" fill="#00FF48"/>
<path d="M418.028 -10.9268H420.094V1124.79H418.028V-10.9268Z" fill="#00FF48"/>
<path d="M409.051 -10.9268H411.117V1124.79H409.051V-10.9268Z" fill="#00FF48"/>
<path d="M400.082 -10.9268H402.148V1124.79H400.082V-10.9268Z" fill="#00FF48"/>
<path d="M391.11 -10.9268H393.176V1124.79H391.11V-10.9268Z" fill="#00FF48"/>
<path d="M382.139 -10.9268H384.205V1124.79H382.139V-10.9268Z" fill="#00FF48"/>
<path d="M373.166 -10.9268H375.232V1124.79H373.166V-10.9268Z" fill="#00FF48"/>
<path d="M364.192 -10.9268H366.258V1124.79H364.192V-10.9268Z" fill="#00FF48"/>
<path d="M355.221 -10.9268H357.287V1124.79H355.221V-10.9268Z" fill="#00FF48"/>
<path d="M346.246 -10.9268H348.312V1124.79H346.246V-10.9268Z" fill="#00FF48"/>
<path d="M337.279 -10.9268H339.346V1124.79H337.279V-10.9268Z" fill="#00FF48"/>
<path d="M328.303 -10.9268H330.369V1124.79H328.303V-10.9268Z" fill="#00FF48"/>
<path d="M319.334 -10.9268H321.4V1124.79H319.334V-10.9268Z" fill="#00FF48"/>
<path d="M310.362 -10.9268H312.428V1124.79H310.362V-10.9268Z" fill="#00FF48"/>
<path d="M301.391 -10.9268H303.457V1124.79H301.391V-10.9268Z" fill="#00FF48"/>
<path d="M292.416 -10.9268H294.482V1124.79H292.416V-10.9268Z" fill="#00FF48"/>
<path d="M283.447 -10.9268H285.514V1124.79H283.447V-10.9268Z" fill="#00FF48"/>
<path d="M274.473 -10.9268H276.539V1124.79H274.473V-10.9268Z" fill="#00FF48"/>
<path d="M265.504 -10.9268H267.57V1124.79H265.504V-10.9268Z" fill="#00FF48"/>
<path d="M256.531 -10.9268H258.598V1124.79H256.531V-10.9268Z" fill="#00FF48"/>
<path d="M247.559 -10.9268H249.625V1124.79H247.559V-10.9268Z" fill="#00FF48"/>
<path d="M238.586 -10.9268H240.652V1124.79H238.586V-10.9268Z" fill="#00FF48"/>
<path d="M229.617 -10.9268H231.684V1124.79H229.617V-10.9268Z" fill="#00FF48"/>
<path d="M220.645 -10.9268H222.711V1124.79H220.645V-10.9268Z" fill="#00FF48"/>
<path d="M211.674 -10.9268H213.74V1124.79H211.674V-10.9268Z" fill="#00FF48"/>
<path d="M202.699 -10.9268H204.766V1124.79H202.699V-10.9268Z" fill="#00FF48"/>
<path d="M193.731 -10.9268H195.797V1124.79H193.731V-10.9268Z" fill="#00FF48"/>
<path d="M184.756 -10.9268H186.822V1124.79H184.756V-10.9268Z" fill="#00FF48"/>
<path d="M175.787 -10.9268H177.854V1124.79H175.787V-10.9268Z" fill="#00FF48"/>
<path d="M166.813 -10.9268H168.879V1124.79H166.813V-10.9268Z" fill="#00FF48"/>
<path d="M157.842 -10.9268H159.908V1124.79H157.842V-10.9268Z" fill="#00FF48"/>
<path d="M148.869 -10.9268H150.936V1124.79H148.869V-10.9268Z" fill="#00FF48"/>
<path d="M139.903 -10.9268H141.969V1124.79H139.903V-10.9268Z" fill="#00FF48"/>
<path d="M130.924 -10.9268H132.99V1124.79H130.924V-10.9268Z" fill="#00FF48"/>
<path d="M121.957 -10.9268H124.023V1124.79H121.957V-10.9268Z" fill="#00FF48"/>
<path d="M112.983 -10.9268H115.049V1124.79H112.983V-10.9268Z" fill="#00FF48"/>
<path d="M104.012 -10.9268H106.078V1124.79H104.012V-10.9268Z" fill="#00FF48"/>
<path d="M95.0393 -10.9268H97.1055V1124.79H95.0393V-10.9268Z" fill="#00FF48"/>
<path d="M86.0725 -10.9268H88.1387V1124.79H86.0725V-10.9268Z" fill="#00FF48"/>
<path d="M77.094 -10.9268H79.1602V1124.79H77.094V-10.9268Z" fill="#00FF48"/>
<path d="M68.1252 -10.9268H70.1914V1124.79H68.1252V-10.9268Z" fill="#00FF48"/>
<path d="M59.1525 -10.9268H61.2188V1124.79H59.1525V-10.9268Z" fill="#00FF48"/>
<path d="M50.1838 -10.9268H52.25V1124.79H50.1838V-10.9268Z" fill="#00FF48"/>
<path d="M41.2072 -10.9268H43.2734V1124.79H41.2072V-10.9268Z" fill="#00FF48"/>
<path d="M32.2424 -10.9268H34.3086V1124.79H32.2424V-10.9268Z" fill="#00FF48"/>
<path d="M23.2639 -10.9268H25.3301V1124.79H23.2639V-10.9268Z" fill="#00FF48"/>
<path d="M14.2951 -10.9268H16.3613V1124.79H14.2951V-10.9268Z" fill="#00FF48"/>
<path d="M5.32247 -10.9268H7.38867V1124.79H5.32247V-10.9268Z" fill="#00FF48"/>
<path d="M527.89 21.6798L529.953 21.7891L470.022 1154.01L467.958 1153.9L527.89 21.6798Z" fill="#00FF48"/>
<path d="M518.943 20.6256L521.006 20.7349L461.074 1152.95L459.011 1152.84L518.943 20.6256Z" fill="#00FF48"/>
<path d="M509.995 19.5788L512.059 19.688L452.127 1151.91L450.064 1151.8L509.995 19.5788Z" fill="#00FF48"/>
<path d="M501.058 18.5329L503.121 18.6421L443.19 1150.86L441.126 1150.75L501.058 18.5329Z" fill="#00FF48"/>
<path d="M492.109 17.486L494.172 17.5952L434.24 1149.81L432.177 1149.7L492.109 17.486Z" fill="#00FF48"/>
<path d="M483.173 16.4386L485.236 16.5479L425.305 1148.77L423.242 1148.66L483.173 16.4386Z" fill="#00FF48"/>
<path d="M474.224 15.3849L476.287 15.4941L416.356 1147.71L414.292 1147.6L474.224 15.3849Z" fill="#00FF48"/>
<path d="M465.273 14.338L467.336 14.4473L407.404 1146.66L405.341 1146.56L465.273 14.338Z" fill="#00FF48"/>
<path d="M456.335 13.2907L458.398 13.3999L398.467 1145.62L396.404 1145.51L456.335 13.2907Z" fill="#00FF48"/>
<path d="M447.392 12.2433L449.455 12.3525L389.524 1144.57L387.46 1144.46L447.392 12.2433Z" fill="#00FF48"/>
<path d="M438.443 11.1964L440.506 11.3057L380.574 1143.52L378.511 1143.41L438.443 11.1964Z" fill="#00FF48"/>
<path d="M429.507 10.1422L431.57 10.2515L371.639 1142.47L369.576 1142.36L429.507 10.1422Z" fill="#00FF48"/>
<path d="M420.554 9.09635L422.617 9.20557L362.686 1141.42L360.622 1141.31L420.554 9.09635Z" fill="#00FF48"/>
<path d="M411.614 8.04947L413.678 8.15869L353.746 1140.38L351.683 1140.27L411.614 8.04947Z" fill="#00FF48"/>
<path d="M402.669 7.00211L404.732 7.11133L344.801 1139.33L342.738 1139.22L402.669 7.00211Z" fill="#00FF48"/>
<path d="M393.732 5.95523L395.795 6.06445L335.863 1138.28L333.8 1138.17L393.732 5.95523Z" fill="#00FF48"/>
<path d="M384.784 4.90153L386.848 5.01074L326.916 1137.23L324.853 1137.12L384.784 4.90153Z" fill="#00FF48"/>
<path d="M375.833 3.86002L377.896 3.96924L317.965 1136.19L315.902 1136.08L375.833 3.86002Z" fill="#00FF48"/>
<path d="M366.892 2.80729L368.955 2.9165L309.024 1135.13L306.96 1135.02L366.892 2.80729Z" fill="#00FF48"/>
<path d="M357.948 1.76041L360.012 1.86963L300.08 1134.09L298.017 1133.98L357.948 1.76041Z" fill="#00FF48"/>
<path d="M349.009 0.713047L351.072 0.822266L291.141 1133.04L289.077 1132.93L349.009 0.713047Z" fill="#00FF48"/>
<path d="M340.064 -0.339686L342.127 -0.230469L282.195 1131.99L280.132 1131.88L340.064 -0.339686Z" fill="#00FF48"/>
<path d="M331.118 -1.3807L333.182 -1.27148L273.25 1130.95L271.187 1130.84L331.118 -1.3807Z" fill="#00FF48"/>
<path d="M322.173 -2.4349L324.236 -2.32568L264.305 1129.89L262.242 1129.78L322.173 -2.4349Z" fill="#00FF48"/>
<path d="M313.226 -3.4808L315.289 -3.37158L255.358 1128.85L253.294 1128.74L313.226 -3.4808Z" fill="#00FF48"/>
<path d="M304.288 -4.52767L306.352 -4.41846L246.42 1127.8L244.357 1127.69L304.288 -4.52767Z" fill="#00FF48"/>
<path d="M295.343 -5.57455L297.406 -5.46533L237.475 1126.75L235.411 1126.64L295.343 -5.57455Z" fill="#00FF48"/>
<path d="M286.398 -6.62191L288.461 -6.5127L228.529 1125.7L226.466 1125.6L286.398 -6.62191Z" fill="#00FF48"/>
<path d="M277.452 -7.67562L279.516 -7.56641L219.584 1124.65L217.521 1124.54L277.452 -7.67562Z" fill="#00FF48"/>
<path d="M268.505 -8.7225L270.568 -8.61328L210.637 1123.6L208.574 1123.5L268.505 -8.7225Z" fill="#00FF48"/>
<path d="M259.568 -9.76986L261.631 -9.66064L201.699 1122.56L199.636 1122.45L259.568 -9.76986Z" fill="#00FF48"/>
<path d="M250.622 -10.8172L252.686 -10.708L192.754 1121.51L190.691 1121.4L250.622 -10.8172Z" fill="#00FF48"/>
<path d="M241.675 -11.8646L243.738 -11.7554L183.807 1120.46L181.743 1120.35L241.675 -11.8646Z" fill="#00FF48"/>
<path d="M232.734 -12.9183L234.797 -12.8091L174.865 1119.41L172.802 1119.3L232.734 -12.9183Z" fill="#00FF48"/>
<path d="M223.786 -13.9652L225.85 -13.856L165.918 1118.36L163.855 1118.25L223.786 -13.9652Z" fill="#00FF48"/>
<path d="M214.847 -15.0125L216.91 -14.9033L156.979 1117.31L154.915 1117.21L214.847 -15.0125Z" fill="#00FF48"/>
<path d="M205.902 -16.0594L207.965 -15.9502L148.033 1116.27L145.97 1116.16L205.902 -16.0594Z" fill="#00FF48"/>
<path d="M196.956 -17.1053L199.02 -16.9961L139.088 1115.22L137.025 1115.11L196.956 -17.1053Z" fill="#00FF48"/>
<path d="M188.015 -18.159L190.078 -18.0498L130.147 1114.17L128.083 1114.06L188.015 -18.159Z" fill="#00FF48"/>
<path d="M179.066 -19.2064L181.129 -19.0972L121.197 1113.12L119.134 1113.01L179.066 -19.2064Z" fill="#00FF48"/>
<path d="M170.124 -20.2464L172.188 -20.1372L112.256 1112.08L110.193 1111.97L170.124 -20.2464Z" fill="#00FF48"/>
<path d="M161.183 -21.3001L163.246 -21.1909L103.315 1111.03L101.251 1110.92L161.183 -21.3001Z" fill="#00FF48"/>
<path d="M152.236 -22.3475L154.299 -22.2383L94.3673 1109.98L92.304 1109.87L152.236 -22.3475Z" fill="#00FF48"/>
<path d="M143.298 -23.4002L145.361 -23.291L85.4298 1108.93L83.3665 1108.82L143.298 -23.4002Z" fill="#00FF48"/>
<path d="M134.345 -24.4481L136.408 -24.3389L76.4767 1107.88L74.4134 1107.77L134.345 -24.4481Z" fill="#00FF48"/>
<path d="M125.405 -25.4871L127.469 -25.3779L67.5373 1106.84L65.4739 1106.73L125.405 -25.4871Z" fill="#00FF48"/>
<path d="M116.46 -26.5413L118.523 -26.4321L58.592 1105.79L56.5286 1105.68L116.46 -26.5413Z" fill="#00FF48"/>
<path d="M107.517 -27.5882L109.58 -27.479L49.6486 1104.74L47.5852 1104.63L107.517 -27.5882Z" fill="#00FF48"/>
<path d="M98.5754 -28.6419L100.639 -28.5327L40.7072 1103.68L38.6439 1103.58L98.5754 -28.6419Z" fill="#00FF48"/>
<path d="M89.632 -29.6893L91.6953 -29.5801L31.7638 1102.64L29.7005 1102.53L89.632 -29.6893Z" fill="#00FF48"/>
<path d="M80.6828 -30.7298L82.7461 -30.6206L22.8146 1101.6L20.7513 1101.49L80.6828 -30.7298Z" fill="#00FF48"/>
<path d="M71.7394 -31.783L73.8027 -31.6738L13.8712 1100.54L11.8079 1100.43L71.7394 -31.783Z" fill="#00FF48"/>
<path d="M62.7941 -32.8309L64.8574 -32.7217L4.92594 1099.5L2.86262 1099.39L62.7941 -32.8309Z" fill="#00FF48"/>
<path d="M53.8547 -33.8831L55.918 -33.7739L-4.01352 1098.44L-6.07683 1098.33L53.8547 -33.8831Z" fill="#00FF48"/>
<path d="M44.9093 -34.9237L46.9727 -34.8145L-12.9588 1097.4L-15.0222 1097.29L44.9093 -34.9237Z" fill="#00FF48"/>
<path d="M35.966 -35.972L38.0293 -35.8628L-21.9022 1096.35L-23.9655 1096.25L35.966 -35.972Z" fill="#00FF48"/>
<path d="M27.0168 -37.0247L29.0801 -36.9155L-30.8514 1095.3L-32.9147 1095.19L27.0168 -37.0247Z" fill="#00FF48"/>
<path d="M18.0734 -38.0716L20.1367 -37.9624L-39.7948 1094.26L-41.8581 1094.15L18.0734 -38.0716Z" fill="#00FF48"/>
<path d="M9.13586 -39.1258L11.1992 -39.0166L-48.7323 1093.2L-50.7956 1093.09L9.13586 -39.1258Z" fill="#00FF48"/>
<path d="M0.188638 -40.1659L2.25195 -40.0566L-57.6795 1092.16L-59.7428 1092.05L0.188638 -40.1659Z" fill="#00FF48"/>
</g>
</svg>
