<svg width="489" height="575" viewBox="0 0 489 575" fill="none" xmlns="http://www.w3.org/2000/svg">
<mask id="mask0_53_118941" style="mask-type:luminance" maskUnits="userSpaceOnUse" x="0" y="0" width="532" height="575">
<path d="M376.763 423.284C383.928 439.067 377.49 454.994 378.924 471.409C376.081 470.877 374.931 470.553 373.761 470.453C365.531 469.751 360.129 465.3 358.725 457.643C356.683 446.485 354.811 435.298 352.914 424.115C352.621 422.373 351.779 419.833 352.596 418.937C359.925 410.857 352.183 402.168 353.935 394.123C355.17 388.457 357.918 383.015 360.632 377.807C362.718 373.799 363.514 370.239 360.557 366.57C357.415 362.666 353.278 362.507 348.966 364.09C345.755 365.27 342.036 366.116 339.701 368.337C337.714 370.224 337.385 373.849 336.046 377.458C339.795 381.974 344.724 387.008 343.131 394.78C342.992 395.462 344.012 396.383 344.49 397.195C345.735 396.288 346.985 395.377 349.285 393.699C350.231 398.977 351.137 404.011 352.063 409.189C340.791 409.731 340.532 409.507 343.071 401.72C338.675 400.585 335.618 401.79 334.03 406.092C331.774 412.201 329.613 418.245 322.543 420.69C321.393 421.088 320.751 423.229 320.074 424.653C318.311 428.357 316.658 432.111 315.219 435.278C299.745 432.609 297.744 419.141 291.669 409.477C287.716 403.189 285.217 395.98 282.175 389.129C281.532 387.685 280.776 385.902 281.079 384.493C282.264 378.992 279.227 378.285 273.601 379.086C272.869 367.685 272.142 356.667 271.465 345.648C270.853 335.725 270.23 325.803 269.733 315.875C268.841 298.085 268.04 280.296 267.203 262.506C267.014 258.464 266.432 254.386 266.805 250.393C267.039 247.869 268.05 244.194 269.862 243.258C275.369 240.415 274.069 236.422 272.685 232.389C270.45 225.862 271.371 220.719 276.584 216.362C279.541 213.893 280.114 211.782 276.932 208.665C275.254 210.98 273.77 213.026 272.312 215.038C268.244 215.003 267.293 212.887 267.084 209.272C266.282 195.531 264.978 181.824 264.166 168.082C263.439 155.78 263.375 143.432 262.468 131.139C262.14 126.658 259.874 122.351 259.143 117.856C258.311 112.732 258.226 107.49 257.778 102.302C255.772 79.125 253.731 55.9483 251.744 32.7717C250.903 22.9385 250.156 13.0953 249.319 2.68948C243.738 2.68948 246.765 29.9637 241.104 29.9637C251.54 95.8639 247.397 134.405 244.251 202.337C242.02 198.463 240.621 195.919 239.113 193.44C236.17 188.62 233.95 188.595 230.644 192.977C229.688 194.246 227.716 196.004 226.74 195.72C225.082 195.232 222.652 193.32 222.643 191.981C222.588 187.181 219.705 186.265 215.458 186.185C216.588 184.035 217.465 182.362 218.739 179.937C216.006 180.529 214.119 180.938 211.933 181.411C212.077 182.566 212.217 183.686 212.157 183.213C205.769 188.989 200.063 194.152 194.333 199.34C193.471 198.264 192.227 195.242 190.409 194.844C188.428 194.41 185.913 196.412 183.315 197.487C175.861 182.466 168.239 167.077 160.586 151.707C158.689 147.898 156.673 144.149 154.726 140.365C152.764 136.551 152.993 133.335 157.275 131.259C157.818 130.995 158.53 130.82 158.833 130.377C160.84 127.48 164.34 124.487 161.024 120.838C157.818 117.308 154.751 120.509 152.022 122.386C150.972 123.103 150.349 124.443 149.055 126.11C144.25 116.636 139.769 107.793 135.288 98.9508C134.517 99.3341 133.745 99.7126 132.978 100.096C138.246 111.189 143.513 122.287 148.945 133.728C144.723 132.314 141.726 130.288 139.047 130.641C134.442 131.254 133.705 135.446 134.99 139.175C136.419 143.327 139.854 141.864 142.627 140.599C149.11 137.651 151.111 138.179 153.999 144.229C164.987 167.211 175.951 190.208 186.889 213.216C187.726 214.973 188.273 216.86 189.2 219.34C181.119 219.35 174.124 219.27 172.122 208.56C168.293 211.548 165.47 213.748 162.642 215.949C162.797 216.641 162.951 217.338 163.1 218.03C156.538 216.447 149.946 214.998 143.454 213.161C142.299 212.832 141.686 210.826 140.666 209.745C139.013 207.998 137.335 205.155 135.478 205.005C132.913 204.791 129.105 205.877 127.74 207.779C125.082 211.468 122.423 212.19 118.48 210.836C112.261 208.7 106.028 206.589 99.7294 204.707C97.9071 204.159 95.8459 204.388 93.8892 204.313C88.8108 204.119 83.4087 205.553 81.1134 198.284C80.1177 195.132 76.0898 195.72 74.3073 198.568C73.0925 200.51 73.1423 203.238 72.4402 206.484C81.9001 203.348 89.5526 205.444 97.3694 207.724C104.524 209.81 111.913 211.159 119.257 212.494C124.898 213.519 128.253 216.517 129.777 222.028C130.17 223.457 131.778 224.548 132.829 225.792C135.732 223.049 141.512 228.665 143.349 222.003C143.807 220.335 146.481 218.12 148.094 218.15C152.904 218.244 157.743 219.106 162.468 220.151C164.245 220.545 166.132 221.949 167.263 223.427C169.732 226.669 171.569 226.604 174.621 223.885C179.546 219.499 191.744 222.586 194.701 228.61C204.51 248.595 214.283 268.6 224.057 288.606C224.584 289.681 225.017 290.806 225.715 292.419C223.962 292.892 222.478 293.291 219.357 294.127C221.771 295.666 222.976 297.09 224.101 297.03C228.448 296.796 229.827 299.773 231.301 302.86C234.791 310.174 238.351 317.453 241.796 324.787C245.814 333.336 247.562 353.779 244.998 361.596H239.262C239.705 364.025 240.074 366.067 240.532 368.576C239.123 368.9 237.524 369.841 236.588 369.398C228.647 365.604 220.522 362.039 213.113 357.364C209.887 355.327 208.298 354.436 204.868 358.972C210.086 361.103 214.756 362.885 219.322 364.907C224.042 366.998 228.657 369.323 233.691 371.723C225.939 377.07 223.594 381.113 226.875 384.907C233.955 393.102 238.948 385.076 245.625 380.391C242.971 387.575 236.305 393.595 246.033 398.703C236.479 402.034 234.457 391.001 225.784 390.095C227.178 393.406 228.269 395.995 229.812 399.649C226.466 398.534 223.449 397.872 220.746 396.562C211.276 391.982 201.731 387.491 192.58 382.323C188.034 379.759 183.783 376.248 180.258 372.38C171.863 363.159 163.195 354.073 158.819 341.894C157.803 339.061 155.468 336.696 151.898 340.495C150.877 341.581 147.531 340.779 145.336 340.391C141.427 339.699 140.018 340.943 142.035 344.508C143.359 346.853 145.132 350.363 147.118 350.672C157.738 352.33 157.016 363.303 162.458 369.109C162.841 369.517 162.961 374.282 164.056 377.02C164.4 377.877 162.433 379.465 162 380.864C160.984 384.165 159.411 387.615 159.63 390.896C159.889 394.77 162.09 397.18 167.163 395.845C172.102 394.546 176.225 394.84 180.223 400.63C183.932 406.007 191.485 408.785 197.464 412.514C201.378 414.954 205.505 417.05 209.533 419.296C209.269 420.167 209.01 421.043 208.747 421.915C206.133 422.059 203.479 422.552 200.91 422.273C196.09 421.75 191.291 420.919 186.541 419.928C185.037 419.614 183.778 418.28 182.309 417.623C181.039 417.055 179.316 416.069 178.341 416.503C168.886 420.71 159.69 416.861 150.469 415.666C149.135 415.492 148.189 412.743 146.959 411.27C145.241 409.209 143.484 405.599 141.646 405.539C137.444 405.4 133.82 407.64 134.059 412.938C134.093 413.699 134.148 414.461 134.213 415.527C131.131 415.308 128.348 415.044 125.555 414.924C115.338 414.491 109.334 409.104 110.922 398.992C113.267 384.07 117.275 369.403 120.89 354.7C121.532 352.091 123.971 349.975 125.117 347.421C129.622 337.403 125.679 330.219 114.776 328.74C112.042 328.372 109.07 328.591 106.391 329.268C100.412 330.782 100.76 332.111 103.065 337.667C105.301 343.049 106.68 349.303 106.441 355.093C105.968 366.594 104.021 378.031 102.936 389.512C102.747 391.509 103.568 393.704 104.3 395.666C106.296 401.003 108.502 406.266 110.623 411.559C110.07 412.146 109.523 412.729 108.97 413.316C106.316 412.559 101.92 412.455 101.348 410.921C99.7493 406.644 93.5108 403.518 97.6084 397.389C99.3062 394.845 100.865 391.115 100.247 388.442C99.6946 386.047 96.2044 382.935 93.7697 382.701C90.1003 382.348 86.1769 384.1 82.4926 385.355C82.0993 385.489 82.0395 388.636 82.7863 389.736C85.4899 393.709 88.2033 397.827 91.6686 401.088C95.4724 404.663 95.9056 408.87 95.2932 413.266C94.4418 419.365 89.3086 420.984 80.9591 417.912C79.6048 421.073 78.151 424.558 73.451 421.795C73.0078 421.536 71.1557 424.638 69.7318 424.887C66.0524 425.524 62.2485 425.44 58.0165 424.309C59.3708 423.249 60.725 422.188 62.2236 421.013C52.1613 422.552 42.2136 423.682 32.4451 425.684C24.6382 427.287 16.8513 429.443 9.4328 432.325C4.95184 434.068 -1.65021 437.07 0.376221 442.691C1.91968 446.963 7.51099 451.086 12.1812 452.684C29.8362 458.728 44.708 452.639 57.2697 439.858C60.735 436.333 63.5729 432.196 66.9187 428.536C67.7552 427.62 69.4032 427.332 70.7375 427.008C81.4819 424.379 92.2462 421.835 102.991 419.196C104.275 418.882 105.455 418.17 106.615 416.498H97.23C99.2116 415.253 99.7245 414.65 100.123 414.72C113.347 417.035 127.268 414.162 140.013 420.043C140.531 420.281 141.263 420.615 141.686 420.431C151.569 416.099 161.293 419.978 170.957 421.257C181.099 422.597 191.101 424.982 201.134 427.073C202.458 427.346 203.578 428.571 204.798 429.358C203.847 430.219 203.026 431.34 201.921 431.902C197.878 433.958 196.225 437.309 197.609 441.412C198.968 445.44 200.979 449.104 206.556 448.875C211.341 448.681 213.043 446.46 214.298 442.114C215.204 438.967 218.052 436.378 219.376 434.486C224.33 436.139 227.945 437.399 231.595 438.554C237.126 440.311 239.899 445.026 238.376 450.294C249.752 452.958 254.378 462.756 259.904 471.101C265.615 468.671 271.311 466.625 270.654 458.489C274.204 459.221 276.982 459.794 279.889 460.391C271.898 479.256 263.534 487.307 254.149 485.116C252.914 486.635 251.58 488.273 249.852 490.404C251.515 491.141 252.71 492.126 253.9 492.117C258.58 492.087 263.365 491.061 267.905 491.758C270.918 492.221 274.846 494.317 276.18 496.836C282.971 509.682 289.145 522.856 295.349 536.005C300.612 547.153 305.321 558.579 310.992 569.508C312.202 571.838 316.449 573.67 319.397 573.825C329.414 574.352 339.476 574.024 349.753 574.024C349.753 572.092 349.952 571.43 349.723 571.002C341.637 555.662 333.387 540.406 325.491 524.972C323.903 521.865 324.007 517.937 322.693 514.646C321.07 510.583 319.048 506.615 316.713 502.916C314.094 498.768 311.231 495.223 313.835 489.677C316.096 484.862 313.357 481.985 304.933 479.679C305.57 477.882 305.794 475.826 306.885 474.452C309.962 470.558 313.741 467.177 316.519 463.105C317.729 461.332 317.176 458.35 317.425 455.92H309.952C309.638 455.646 308.284 454.481 306.591 453.018C305.227 454.302 303.967 455.487 302.09 457.255C299.641 454.685 297.151 452.062 294.209 448.975C315.892 448.895 331.794 461.337 349.389 469.154C351.575 470.125 352.461 474.033 354.045 476.747C344.027 476.309 335 475.711 325.964 475.577C318.759 475.467 317.266 477.837 319.581 484.608C324.943 500.292 339.725 505.898 354.836 498.236C355.981 497.658 359.501 498.888 359.706 499.779C361.866 509.244 363.699 518.798 365.207 528.387C365.347 529.264 361.941 531.828 361.344 531.499C358.416 529.881 355.832 527.606 353.233 525.445C352.531 524.857 352.377 523.513 351.645 523.08C346.985 520.332 346.731 519.087 351.217 515.821C355.419 512.759 358.351 509.662 354.562 504.459C352.362 501.432 345.128 501.487 341.264 505.037C338.839 507.267 336.853 508.85 333.188 508.681C329.489 508.517 325.924 513.924 326.855 517.539C328.055 522.204 331.495 523.219 335.787 522.219C336.942 521.95 338.038 521.422 338.501 522.627C341.274 524.424 343.987 526.331 346.84 527.989C352.212 531.106 359.372 532.161 360.383 540.177C360.467 540.865 361.189 541.91 361.767 542.03C371.61 544.036 370.39 553.511 373.741 559.829C375.339 562.841 375.822 566.466 377.525 569.393C378.561 571.171 380.96 572.147 382.753 573.486C383.096 572.988 383.44 572.485 383.783 571.987C380.965 563.807 378.187 555.612 375.324 547.447C372.795 540.237 375.06 536.563 382.509 534.133C385.735 533.083 388.429 530.389 391.366 528.442L390.56 527.038H378.969C381.453 524.753 382.549 523.747 383.783 522.607C382.23 520.645 380.906 518.963 379.307 516.941C371.441 520.297 377.042 528.303 372.895 534.93C370.241 522.343 367.921 511.33 365.162 498.25C373.467 503.219 379.218 502.677 384.938 497.18C388.175 494.073 397.963 498.604 399.507 502.921C400.034 504.399 401.284 505.764 402.504 506.829C407.777 511.439 411.964 515.99 411.013 524.18C409.305 538.848 408.678 553.645 407.772 568.398C407.682 569.861 408.752 571.395 409.285 572.898C410.575 571.748 411.974 570.703 413.134 569.433C414.891 567.501 416.445 565.38 418.152 563.404C420.433 560.765 422.783 558.181 425.103 555.577C424.73 555.134 424.361 554.696 423.988 554.253C420.995 556.264 418.008 558.281 414.896 560.372V517.703C415.638 517.539 416.38 517.374 417.122 517.21C422.633 527.641 427.423 538.539 433.871 548.353C439.522 556.951 446.99 564.37 453.791 572.187C454.433 572.923 456.071 573.013 457.246 573.023C463.306 573.073 469.37 573.018 475.429 572.953C478.755 572.918 480.309 571.609 479.248 567.979C471.715 542.254 469.081 515.662 465.521 489.239C464.341 480.471 463.853 471.614 463.042 462.796C463.022 462.597 462.863 462.293 462.942 462.218C470.595 455.094 462.798 450.18 460.851 444.031C455.738 427.869 451.75 411.354 447.184 394.496C449.743 394.939 451.162 395.183 452.581 395.432C452.372 394.093 451.924 392.738 452.009 391.419C452.243 387.755 451.879 383.767 453.229 380.52C456.803 371.932 461.344 363.747 465.173 355.258C478.362 326.007 491.153 296.562 508.031 269.153C511.187 264.03 514.683 259.116 517.779 254.47C516.968 253.176 515.101 251.558 515.33 250.323C516.828 242.237 515.619 240.704 507.468 241.446C505.626 236.801 503.789 232.15 501.952 227.5C503.261 233.793 504.576 240.087 505.88 246.37C499.801 249.526 499.124 253.246 503.251 259.718C495.32 257.015 487.384 254.311 479.158 251.508C478.601 254.376 478.113 256.318 477.859 258.284C477.117 264.02 480.358 269.85 484.869 271.06C490.246 272.504 494.454 270.204 496.888 263.831C498.586 259.385 501.633 260.047 504.8 261.132C508.872 262.526 506.965 265.28 505.761 267.51C500.194 277.856 494.394 288.083 488.922 298.479C484.884 306.151 482.3 314.859 472.512 318.389C470.062 315.506 468.643 312.305 470.829 307.869C473.433 302.586 469.25 299.788 466.059 296.676C462.803 293.505 461.105 297.01 458.825 298.14C455.653 299.708 452.467 301.252 449.28 302.805C445.332 304.732 443.191 307.52 445.078 312.046C445.984 314.222 447.11 316.308 448.374 318.942C449.46 316.811 450.286 315.183 451.899 312.016C453.069 315.531 453.751 317.583 454.827 320.814C457.052 317.782 458.855 315.327 460.722 312.788C469.48 313.828 474.463 322.771 470.799 330.687C467.657 337.478 465.128 344.548 462.061 351.374C457.301 361.959 452.317 372.44 447.428 382.965C446.791 382.831 446.159 382.691 445.521 382.557C442.574 367.122 439.447 351.718 436.793 336.233C436.007 331.638 437.067 326.888 441.259 323.891C445.168 321.098 443.445 318.882 441.583 315.77C439.766 318.996 438.396 321.426 436.465 324.852C435.359 322.601 434.722 321.78 434.543 320.869C431.272 304.224 427.244 287.665 425.183 270.866C424.217 262.974 421.035 253.629 428.932 246.544C429.848 245.723 429.992 243.975 430.371 242.626C432.736 234.256 434.941 225.832 437.505 217.527C438.108 215.581 439.512 213.101 441.19 212.394C453.791 207.097 466.358 202.143 479.666 211.339C482.783 213.494 487.787 214.162 491.67 213.644C496.614 212.982 498.347 214.844 499.402 218.931C500.154 221.854 501.13 224.717 502.006 227.605C502.006 221.899 502.006 216.188 502.006 210.482L502.081 210.547C497.635 211.508 494.364 210.009 490.53 207.296C485.407 203.666 478.939 201.983 473.179 199.2C469.743 197.537 466.597 195.292 463.246 193.435C458.466 190.786 453.637 188.092 447.114 193.479C453.154 180.524 457.859 168.944 463.883 158.095C467.229 152.07 473.134 148.107 480.986 148.714C484.182 148.963 488.643 151.602 489.793 145.722C490.685 141.176 487.15 135.909 482.873 135.048C482.111 134.893 481.339 134.779 479.846 134.515C479.402 139.852 480.249 146.036 471.844 147.505C472.009 145.09 471.67 142.755 472.372 140.788C478.362 124.014 484.575 107.32 490.64 90.5714C492.123 86.4688 493.308 82.2567 494.633 78.0894C493.995 77.6562 493.358 77.2181 492.726 76.7849C491.018 78.5325 488.539 79.9813 487.727 82.0774C481.668 97.726 475.982 113.519 470.082 129.232C468.12 134.45 466.582 139.708 461.07 143.044C458.685 144.487 456.739 148.804 456.798 151.772C457.032 163.407 449.868 172.274 446.169 182.396C445.825 183.342 442.634 184.144 441.269 183.641C437.694 182.332 434.528 179.907 430.943 178.637C428.902 177.911 426.084 177.965 424.167 178.852C423.131 179.33 422.698 182.401 422.967 184.149C423.918 190.318 424.929 196.526 426.646 202.511C427.582 205.772 429.977 208.615 431.715 211.647C432.273 211.627 432.83 211.607 433.388 211.583C429.763 220.495 426.139 229.407 422.638 238.02C419.213 237.403 416.405 236.895 412.138 236.123C408.902 227.779 404.177 218.757 402.384 207.888C399.805 192.265 404.152 177.861 406.323 163.044C408.15 150.597 413.457 149.596 424.794 147.978C423.525 145.598 422.394 143.472 421.12 141.082C417.475 143.502 414.398 145.543 410.595 148.067C411.212 144.622 411.346 142.058 412.193 139.753C412.81 138.075 414.095 136.337 415.568 135.356C417.286 134.216 419.527 133.868 421.543 133.175C420.189 131.378 418.835 129.586 417.48 127.788C417.804 127.679 418.123 127.569 418.446 127.465C416.485 123.113 414.518 118.762 412.223 113.663C408.653 118.473 405.516 118.368 402.409 113.136C404.7 112.424 406.701 111.801 408.698 111.179C405.028 109.521 401.443 109.232 399.004 112.887C397.012 115.869 399.98 121.659 404.117 123.989C406.567 125.369 408.847 127.056 410.122 127.898C408.792 130.875 407.099 132.981 407.592 133.823C411.491 140.539 407.642 143.213 402.026 145.394C402.404 142.481 402.768 139.713 403.271 135.879C400.886 136.058 398.426 135.506 397.007 136.476C391.525 140.24 386.133 144.398 384.859 151.503C384.525 153.37 385.038 156.467 386.278 157.253C387.647 158.13 390.515 157.472 392.322 156.621C394.01 155.824 395.006 153.673 396.594 152.523C398.088 151.438 399.96 150.88 401.667 150.089C402.335 151.951 403.868 153.982 403.539 155.655C400.209 172.832 399.093 190.527 391.889 206.823C391.59 207.5 391.68 208.351 391.585 209.133C383.584 207.689 382.26 206.668 372.407 194.47C379.143 184.184 379.292 182.048 373.532 178.374C369.982 176.113 361.593 177.925 359.472 181.416C356.818 185.777 359.297 190.268 366.557 196.362C360.93 194.689 355.04 193.549 349.833 191.01C348.304 190.263 347.955 185.439 348.384 182.685C349.285 176.93 351.177 171.338 352.412 165.628C352.795 163.865 352.372 161.923 352.317 160.066C350.176 160.146 347.597 159.524 346.019 160.504C344.585 161.396 343.305 164.204 343.609 165.862C344.281 169.561 345.989 173.066 347.487 177.258C343.32 176.282 340.935 186.061 336.952 177.592C332.705 184.637 333.004 187.505 338.461 193.25C334.363 193.644 330.271 194.241 326.163 194.386C319.76 194.615 313.347 194.45 306.95 194.684C306.038 194.719 304.814 195.859 304.351 196.79C302.693 200.116 306.223 209.84 310.275 211.787C314.443 213.788 319.028 214.072 322.509 210.049C325.874 206.151 329.22 202.197 332.153 197.97C336.101 192.275 352.611 192.374 356.161 198.344C356.454 198.837 356.489 199.474 356.669 200.037C357.311 202.083 357.669 205.658 358.675 205.852C360.821 206.265 363.305 204.926 366.467 204.089C366.696 204.398 367.552 205.563 368.409 206.728C368.523 206.305 368.638 205.882 368.752 205.459C371.331 205.847 374.214 205.618 376.43 206.733C385.013 211.055 395.085 214.5 397.864 224.876C399.711 231.772 405.352 238.155 401.538 246.524C400.502 248.795 402.444 253.808 404.62 255.914C413.965 264.956 415.12 276.91 417.495 288.521C418.63 294.077 419.482 299.728 421.11 305.14C423.47 313.017 421.324 319.967 418.202 327.052C417.371 328.939 417.296 332.952 418.337 333.585C425.576 338.001 424.71 345.698 426.651 352.23C427.722 355.825 428.832 359.445 429.464 363.129C430.61 369.791 431.411 376.507 432.347 383.204C432.516 384.409 432.208 386.062 432.89 386.749C437.914 391.802 435.773 395.253 430.739 398.404C430.127 398.788 429.654 400.456 429.977 401.098C433.682 408.447 428.837 414.695 427.458 421.342C425.153 432.44 422.589 443.483 420.02 454.526C419.308 457.573 418.192 460.526 416.893 464.698C410.316 458.191 401.896 454.656 404.391 443.951C404.66 442.796 402.041 439.978 400.338 439.515C392.705 437.459 390.968 435.736 390.345 427.834C390.281 427.033 390.505 425.733 390.112 425.509C381.921 420.869 387.179 413.55 387.035 407.68C386.885 401.621 386.562 394.436 393.696 390.637C394.05 390.448 393.398 386.694 392.72 386.52C386.318 384.872 389.021 381.501 390.515 377.847C391.53 375.367 391.979 372.46 391.899 369.766C391.61 360.092 388.693 350.289 396.385 341.546C397.928 339.788 395.772 334.775 395.324 331.264C394.807 331.215 394.289 331.165 393.771 331.115C392.705 332.569 391.635 334.028 390.405 335.706C385.461 332.937 382.026 329.766 382.842 323.667C383.45 319.116 382.469 314.854 377.704 313.131C375.085 312.185 370.774 311.234 369.419 312.544C367.293 314.605 366.776 318.529 366.148 321.775C365.994 322.571 367.866 324.334 369.106 324.737C387.532 330.722 392.606 343.01 389.499 361.182C388.757 365.509 390.485 371.782 382.051 371.728C383.086 374.073 384.53 375.765 384.346 377.264C383.968 380.381 383.43 385.494 381.712 386.072C375.713 388.083 376.738 391.922 377.211 396.712C379.407 395.845 381.184 395.143 383.559 394.207C382.857 403.323 382.195 412.111 381.508 420.899C381.239 424.349 379.511 424.996 376.654 423.329L376.753 423.234L376.763 423.284ZM235.891 294.64C232.645 291.404 229.678 289.561 228.294 286.893C218.62 268.232 209.628 249.203 199.61 230.731C196.279 224.592 199.137 219.972 200.885 215.093C201.338 213.823 206.033 214.082 208.776 213.619C209.374 213.519 209.956 213.33 210.544 213.191C216.439 211.782 222.274 209.711 228.249 209.163C233.292 208.705 238.5 210.014 243.638 210.542L243.245 213.31C238.396 212.648 233.541 211.986 228.692 211.324C228.338 211.906 227.985 212.489 227.631 213.071C230.156 215.481 232.685 217.886 234.527 219.648C233.87 222.651 232.267 227.455 232.834 227.729C239.118 230.736 237.918 236.796 239.257 241.774C245.262 264.045 247.213 286.734 246.158 309.716C246.008 312.997 245.406 316.258 245.018 319.529C241.029 310.622 232.471 303.502 235.891 294.65V294.64ZM423.604 471.36C423.101 469.273 421.882 467.053 422.22 465.106C423.475 457.957 425.183 450.882 426.841 443.807C429.549 432.256 432.352 420.725 435.115 409.184L437.336 409.074C437.799 412.176 438.237 415.278 438.735 418.375C439.467 422.9 440.045 427.461 441.05 431.927C442.22 437.115 443.913 442.189 445.063 447.381C445.287 448.392 444.301 450.543 443.485 450.772C435.379 453.042 440.244 456.328 442.444 459.799C444.844 463.588 447.652 467.486 448.623 471.718C450.057 477.957 450.331 484.524 450.51 490.966C450.64 495.592 449.798 500.242 449.43 504.887C449.4 505.236 449.718 505.609 449.888 505.983C451.561 506.062 453.234 506.147 455.096 506.237C454.314 507.451 453.318 508.278 453.353 509.055C453.716 516.911 453.761 524.823 454.867 532.585C455.932 540.053 456.579 547.188 452.855 553.964L450.859 554.128C450.186 548.731 449.519 543.339 448.812 537.663C447.662 538.49 446.472 539.346 445.471 540.063C436.42 535.174 433.452 525.978 428.598 518.146C426.363 514.536 425.934 511.798 429.066 508.522C431.66 505.803 431.665 502.881 427.388 500.152C426.422 503.16 425.611 505.664 424.804 508.173C424.351 508.268 423.903 508.367 423.45 508.462C421.747 504.096 420.044 499.734 418.172 494.94C417.704 495.298 418.551 494.979 418.601 494.561C419.387 488.193 422.927 487.989 427.767 490.254C428.648 490.668 429.748 490.603 430.749 490.757C437.455 491.773 443.385 488.93 444.72 484.061C446.686 476.886 444.192 472.888 436.241 469.876C432.034 468.283 430.226 469.433 428.728 473.784C427.438 477.543 424.411 480.705 422.15 484.13C421.404 483.737 420.657 483.344 419.915 482.945C421.185 478.942 422.459 474.939 423.594 471.36H423.604ZM347.248 423.841C348.737 424.987 349.773 425.365 349.882 425.928C351.909 436.025 354.214 446.092 355.588 456.284C356.166 460.575 352.267 462.726 348.18 460.869C340.627 457.439 333.193 453.734 325.79 449.985C322.474 448.303 319.352 446.236 316.474 444.538C320.193 437.583 323.654 431.638 326.606 425.45C329.593 419.181 332.72 418.25 338.132 422.856C339.471 423.996 340.378 425.649 341.697 427.347C340.139 428.447 338.814 429.378 336.579 430.951C342.872 431.862 346.223 430.184 347.244 423.836L347.248 423.841ZM264.465 406.321C261.697 407.212 259.292 408.043 256.857 408.765C250.315 410.697 244.729 418.897 246.128 425.484C246.76 428.462 247.278 431.439 243.763 431.394C240.019 431.345 234.781 430.667 232.884 428.198C228.891 423.005 232.854 412.51 239.038 409.487C243.514 407.302 248.229 405.619 252.939 403.672C248.428 398.857 247.114 391.474 251.166 386.734C252.785 384.842 257.973 384.344 260.711 385.385C269.394 388.686 263.619 395.99 264.271 401.566C269.444 402.188 271.181 407.924 267.656 414.74C266.447 411.549 265.441 408.885 264.465 406.316V406.321ZM385.76 464.18C394.04 466.824 393.975 466.789 398.053 458.783C399.522 455.9 402.185 453.939 404.705 457.021C408.09 461.158 415.379 463.214 412.979 470.887C412.85 471.31 413.293 472.012 413.632 472.46C416.674 476.518 416.37 484.354 412.093 490.239C411.62 484.106 413.901 477.349 406.238 475.452C404.729 482.537 396.196 483.299 385.755 477.827V464.18H385.76ZM278.665 405.688C279.257 405.449 279.85 405.21 280.447 404.971C286.432 414.879 292.421 424.787 298.61 435.034C291.366 435.527 287.656 433.147 285.849 427.615C284.659 423.976 283.265 420.401 282.07 416.761C280.865 413.092 279.795 409.383 278.665 405.688ZM403.759 496.652C389.25 495.418 384.859 493.371 382.389 486.869C390.241 489.732 399.248 488.188 403.759 496.652ZM273.98 453.784C275.06 451.489 276.046 449.398 277.818 445.639C281.458 448.656 284.54 451.076 287.363 453.759C287.647 454.028 286.666 456.557 285.784 456.961C281.443 458.937 277.634 457.733 273.98 453.784ZM185.839 201.251C192.262 203.278 197.918 204.991 197.504 212.673C190.912 215.192 190.673 214.963 185.839 201.251ZM386.318 450.409C385.8 450.234 385.277 450.055 384.759 449.881C385.018 445.514 385.277 441.153 385.531 436.846C389.519 438.405 392.815 439.694 396.116 440.984C388.653 439.824 388.603 446.401 386.318 450.409ZM411.884 508.845L409.778 509.881C407.323 507.158 403.993 504.842 405.103 500.476C405.71 500.192 406.313 499.913 406.92 499.63C408.573 502.702 410.231 505.774 411.884 508.845ZM309.588 317.224C310.076 318.852 310.017 320.704 309.912 322.442C309.613 327.495 309.165 332.539 308.622 339.639C302.414 346.823 296.021 333.44 288.428 336.069C291.132 335.755 293.835 335.447 295.966 335.203C298.934 324.802 291.645 318.548 288.388 310.846C290.066 312.35 291.744 313.858 294.019 315.895C295.115 305.733 300.014 311.498 303.848 312.788C304.575 311.09 305.187 309.671 305.974 307.844C307.383 311.419 308.697 314.262 309.588 317.224ZM158.589 61.8732C158.868 61.3504 159.152 60.8227 159.431 60.2999C162.817 61.9081 166.197 63.5162 168.647 64.6813C170.738 61.7089 172.585 59.0801 174.865 55.8388C173.865 54.2755 172.251 51.7661 170.638 49.2518C171.076 48.9481 171.515 48.6444 171.953 48.3407C174.542 51.4425 177.131 54.5393 180.038 58.0196C181.557 55.9733 182.662 54.4796 184.48 52.0399C185.002 59.1249 185.55 65.1294 185.779 71.1438C185.814 72.0052 184.47 73.3893 183.489 73.7328C179.72 75.0373 175.836 76.0181 171.365 77.2977C171.803 73.7179 172.087 71.3978 172.291 69.7348C167.492 66.9815 163.041 64.4274 158.589 61.8782V61.8732ZM517.705 23.8447C514.264 31.074 509.171 37.8751 507.453 45.4629C505.97 52.025 503.62 56.6653 497.864 59.9514C499.731 54.2605 502.191 48.8236 504.396 43.2921C509.554 30.352 514.688 17.397 519.632 4.37234C521.155 0.354395 523.43 -1.05463 528.24 0.817421C524.7 8.57947 521.314 16.2668 517.71 23.8447H517.705ZM197.38 459.978C200.671 461.282 204.066 462.368 207.208 463.966C209.229 464.997 211.271 466.48 212.58 468.288C214.333 470.697 216.304 473.58 216.419 476.333C216.489 478.096 213.636 481.088 211.624 481.576C208.04 482.438 204.096 481.82 200.327 481.82C203.21 475.895 196.379 477.797 191.883 475.273C195.956 475.024 198.042 474.895 201.149 474.7C195.055 469.617 198.346 467.113 203.22 464.987C200.576 463.533 198.59 462.442 196.608 461.352C196.867 460.899 197.126 460.441 197.385 459.988L197.38 459.978ZM293.751 140.669C293.203 137.97 295.03 134.161 296.967 131.816C298.177 130.357 301.567 130.706 303.982 130.243C304.127 130.835 304.271 131.428 304.415 132.015C306.253 131.03 308.09 130.044 309.927 129.058C310.151 129.302 310.37 129.546 310.594 129.79C309.519 131.518 308.443 133.24 307.373 134.953C310.4 136.75 313.014 138.304 315.628 139.857L315.04 140.913C313.288 140.4 311.54 139.892 309.036 139.16C311.316 144.95 308.762 147.261 303.942 147.669C305.182 151.04 306.228 153.888 307.278 156.735C306.95 156.86 306.616 156.979 306.287 157.104C304.46 153.325 302.628 149.546 300.228 144.587V153.3C297.495 148.232 294.567 144.662 293.751 140.659V140.669ZM210.081 282.352C211.998 289.083 210.016 293.749 205.012 294.695C201.597 295.342 198.157 295.87 195.204 296.373C196.031 295.138 197.35 293.166 199.252 290.328C194.836 289.213 191.515 288.372 188.189 287.53C188.189 287.266 188.184 287.007 188.179 286.743C190.628 286.41 193.078 286.081 195.562 285.743C195.408 283.288 195.249 280.769 195.075 278.035C197.445 277.767 199.307 277.552 201.652 277.284C200.317 274.401 199.212 272.011 198.107 269.621C198.565 269.397 199.028 269.168 199.486 268.944C201.258 272.504 203.036 276.069 204.798 279.604C205.381 277.557 205.958 275.516 206.65 273.081C207.955 276.557 209.239 279.395 210.086 282.357L210.081 282.352ZM288.757 353.605C292.765 352.544 296.788 350.174 298.565 351.309C301.348 353.087 303.041 357.08 304.336 360.465C304.913 361.969 303.982 365.29 302.708 366.042C298.336 368.611 293.517 370.418 288.841 372.464C288.617 372.564 288.179 372.171 287.741 371.957C288.508 370.428 289.27 368.905 290.38 366.679C287.253 365.693 284.614 364.862 281.976 364.03C282.055 363.672 282.135 363.313 282.215 362.96C285.207 363.134 288.194 363.308 291.799 363.517C290.524 359.375 289.578 356.298 288.752 353.605H288.757ZM201.039 173.006C196.912 171.333 190.733 171.891 190.195 166.155C189.653 160.34 195.926 159.817 199.715 157.547C200.058 157.343 200.397 157.109 200.765 156.954C204.425 155.436 207.472 157.577 207.626 161.625C207.82 166.902 208.149 172.17 208.413 177.358C206.441 176.163 203.912 174.166 201.044 173.001L201.039 173.006ZM93.2867 287.605C95.4924 290.771 95.5472 295.168 97.7478 297.035C103.11 301.575 101.253 304.981 99.2963 307.012C92.9432 309.019 88.6813 310.368 84.5737 311.668C85.3703 310.518 86.4458 308.959 88.0391 306.654C85.0318 306.037 82.7017 305.554 80.3766 305.076L80.3865 304.249C83.0801 303.975 85.7787 303.696 88.6515 303.403C87.9445 299.484 81.6412 296.089 88.6962 293.052C86.5354 290.458 84.6435 288.177 82.7465 285.902C83.11 285.618 83.4684 285.329 83.8319 285.046C86.8242 288.481 89.8115 291.911 94.0037 296.726C93.6801 292.604 93.4859 290.104 93.2917 287.605H93.2867ZM502.101 210.557C503.211 205.553 504.073 200.475 505.512 195.571C506.851 191.01 509.39 186.743 510.316 182.133C511.083 178.314 512.975 176.994 516.037 178C518.701 178.871 520.951 180.992 523.386 182.561C521.947 184.707 520.896 188.247 519.014 188.764C508.011 191.787 505.666 201.177 502.315 209.959C502.245 210.149 502.126 210.318 502.031 210.497L502.106 210.562L502.101 210.557ZM376.763 423.284C370.873 418.634 364.983 413.988 358.585 408.94C364.341 406.022 368.453 403.936 372.571 401.855C373.248 402.253 373.925 402.651 374.607 403.05C369.579 410.787 372.486 417.19 376.664 423.383L376.763 423.289V423.284ZM291.371 401.392C292.043 397.289 289.962 391.802 296.126 390.174C300.582 388.999 301.971 392.918 303.23 396.388C299.546 398.544 296.215 400.496 292.884 402.447C292.381 402.094 291.874 401.74 291.371 401.387V401.392ZM524.889 242.208C525.527 241.386 527.533 240.923 528.554 241.291C529.868 241.764 531.138 243.079 531.79 244.358C532.124 245.011 531.312 247.017 530.585 247.301C527.628 248.461 524.501 249.193 520.214 250.438C522.315 246.619 523.331 244.204 524.889 242.208Z" fill="white"/>
</mask>
<g mask="url(#mask0_53_118941)">
<path d="M301.386 -253.212L824.189 269.409L822.919 270.68L300.115 -251.941L301.386 -253.212Z" fill="#FBEAA2"/>
<path d="M298.724 -250.553L821.527 272.068L820.257 273.339L297.453 -249.282L298.724 -250.553Z" fill="#FBEAA2"/>
<path d="M296.066 -247.888L818.869 274.732L817.598 276.004L294.795 -246.617L296.066 -247.888Z" fill="#FBEAA2"/>
<path d="M293.398 -245.229L816.201 277.392L814.93 278.663L292.127 -243.958L293.398 -245.229Z" fill="#FBEAA2"/>
<path d="M290.744 -242.569L813.547 280.051L812.276 281.322L289.473 -241.298L290.744 -242.569Z" fill="#FBEAA2"/>
<path d="M288.122 -239.984L810.834 282.728L809.563 283.999L286.851 -238.713L288.122 -239.984Z" fill="#FBEAA2"/>
<path d="M285.421 -237.246L808.225 285.375L806.954 286.646L284.151 -235.975L285.421 -237.246Z" fill="#FBEAA2"/>
<path d="M282.755 -234.582L805.559 288.039L804.288 289.31L281.485 -233.311L282.755 -234.582Z" fill="#FBEAA2"/>
<path d="M280.097 -231.923L802.9 290.698L801.63 291.969L278.826 -230.651L280.097 -231.923Z" fill="#FBEAA2"/>
<path d="M277.435 -229.258L800.238 293.363L798.968 294.634L276.164 -227.987L277.435 -229.258Z" fill="#FBEAA2"/>
<path d="M274.775 -226.598L797.578 296.022L796.307 297.294L273.504 -225.327L274.775 -226.598Z" fill="#FBEAA2"/>
<path d="M272.113 -223.939L794.916 298.682L793.645 299.953L270.842 -222.668L272.113 -223.939Z" fill="#FBEAA2"/>
<path d="M269.499 -221.353L792.211 301.359L790.94 302.63L268.228 -220.082L269.499 -221.353Z" fill="#FBEAA2"/>
<path d="M266.787 -218.616L789.59 304.005L788.319 305.276L265.516 -217.345L266.787 -218.616Z" fill="#FBEAA2"/>
<path d="M264.13 -215.951L786.934 306.67L785.663 307.941L262.86 -214.68L264.13 -215.951Z" fill="#FBEAA2"/>
<path d="M261.466 -213.292L784.27 309.329L782.999 310.6L260.196 -212.021L261.466 -213.292Z" fill="#FBEAA2"/>
<path d="M258.81 -210.627L781.613 311.994L780.343 313.265L257.539 -209.356L258.81 -210.627Z" fill="#FBEAA2"/>
<path d="M256.144 -207.968L778.947 314.653L777.677 315.924L254.873 -206.697L256.144 -207.968Z" fill="#FBEAA2"/>
<path d="M253.484 -205.309L776.287 317.312L775.016 318.583L252.213 -204.038L253.484 -205.309Z" fill="#FBEAA2"/>
<path d="M250.868 -202.727L773.58 319.985L772.309 321.256L249.597 -201.456L250.868 -202.727Z" fill="#FBEAA2"/>
<path d="M248.164 -199.985L770.967 322.636L769.696 323.907L246.893 -198.713L248.164 -199.985Z" fill="#FBEAA2"/>
<path d="M245.499 -197.32L768.303 325.301L767.032 326.572L244.229 -196.049L245.499 -197.32Z" fill="#FBEAA2"/>
<path d="M242.841 -194.661L765.645 327.959L764.374 329.231L241.571 -193.39L242.841 -194.661Z" fill="#FBEAA2"/>
<path d="M240.173 -191.997L762.977 330.624L761.706 331.895L238.903 -190.726L240.173 -191.997Z" fill="#FBEAA2"/>
<path d="M237.521 -189.338L760.324 333.283L759.054 334.554L236.25 -188.066L237.521 -189.338Z" fill="#FBEAA2"/>
<path d="M234.853 -186.678L757.656 335.943L756.386 337.214L233.582 -185.407L234.853 -186.678Z" fill="#FBEAA2"/>
<path d="M232.243 -184.096L754.955 338.616L753.684 339.887L230.972 -182.825L232.243 -184.096Z" fill="#FBEAA2"/>
<path d="M229.533 -181.354L752.336 341.267L751.065 342.538L228.262 -180.083L229.533 -181.354Z" fill="#FBEAA2"/>
<path d="M226.871 -178.69L749.674 343.931L748.403 345.202L225.6 -177.419L226.871 -178.69Z" fill="#FBEAA2"/>
<path d="M224.21 -176.031L747.014 346.59L745.743 347.861L222.94 -174.76L224.21 -176.031Z" fill="#FBEAA2"/>
<path d="M221.55 -173.366L744.354 349.254L743.083 350.526L220.279 -172.095L221.55 -173.366Z" fill="#FBEAA2"/>
<path d="M218.89 -170.707L741.693 351.914L740.423 353.185L217.619 -169.436L218.89 -170.707Z" fill="#FBEAA2"/>
<path d="M216.228 -168.048L739.031 354.573L737.761 355.844L214.957 -166.776L216.228 -168.048Z" fill="#FBEAA2"/>
<path d="M213.564 -165.383L736.367 357.238L735.096 358.509L212.293 -164.112L213.564 -165.383Z" fill="#FBEAA2"/>
<path d="M210.908 -162.724L733.711 359.896L732.44 361.168L209.637 -161.453L210.908 -162.724Z" fill="#FBEAA2"/>
<path d="M208.242 -160.059L731.045 362.562L729.774 363.833L206.971 -158.788L208.242 -160.059Z" fill="#FBEAA2"/>
<path d="M205.587 -157.4L728.391 365.221L727.12 366.492L204.317 -156.129L205.587 -157.4Z" fill="#FBEAA2"/>
<path d="M202.919 -154.736L725.723 367.885L724.452 369.156L201.649 -153.465L202.919 -154.736Z" fill="#FBEAA2"/>
<path d="M200.261 -152.076L723.064 370.544L721.794 371.816L198.99 -150.805L200.261 -152.076Z" fill="#FBEAA2"/>
<path d="M197.599 -149.417L720.402 373.204L719.132 374.475L196.328 -148.146L197.599 -149.417Z" fill="#FBEAA2"/>
<path d="M194.939 -146.753L717.742 375.868L716.471 377.139L193.668 -145.481L194.939 -146.753Z" fill="#FBEAA2"/>
<path d="M192.277 -144.093L715.08 378.528L713.809 379.799L191.006 -142.822L192.277 -144.093Z" fill="#FBEAA2"/>
<path d="M189.619 -141.428L712.422 381.192L711.151 382.464L188.348 -140.157L189.619 -141.428Z" fill="#FBEAA2"/>
<path d="M186.951 -138.77L709.754 383.851L708.483 385.122L185.68 -137.499L186.951 -138.77Z" fill="#FBEAA2"/>
<path d="M184.296 -136.105L707.1 386.516L705.829 387.787L183.026 -134.834L184.296 -136.105Z" fill="#FBEAA2"/>
<path d="M181.63 -133.446L704.434 389.175L703.163 390.446L180.36 -132.175L181.63 -133.446Z" fill="#FBEAA2"/>
<path d="M178.974 -130.786L701.777 391.834L700.507 393.106L177.703 -129.515L178.974 -130.786Z" fill="#FBEAA2"/>
<path d="M176.308 -128.122L699.111 394.499L697.841 395.77L175.037 -126.851L176.308 -128.122Z" fill="#FBEAA2"/>
<path d="M173.648 -125.463L696.451 397.158L695.18 398.429L172.377 -124.191L173.648 -125.463Z" fill="#FBEAA2"/>
<path d="M170.988 -122.799L693.791 399.822L692.52 401.093L169.717 -121.527L170.988 -122.799Z" fill="#FBEAA2"/>
<path d="M168.326 -120.139L691.129 402.481L689.858 403.753L167.055 -118.868L168.326 -120.139Z" fill="#FBEAA2"/>
<path d="M165.665 -117.475L688.469 405.146L687.198 406.417L164.395 -116.204L165.665 -117.475Z" fill="#FBEAA2"/>
<path d="M163.005 -114.815L685.809 407.806L684.538 409.077L161.735 -113.544L163.005 -114.815Z" fill="#FBEAA2"/>
<path d="M160.337 -112.156L683.141 410.465L681.87 411.736L159.067 -110.885L160.337 -112.156Z" fill="#FBEAA2"/>
<path d="M157.685 -109.491L680.488 413.129L679.218 414.401L156.414 -108.22L157.685 -109.491Z" fill="#FBEAA2"/>
<path d="M155.017 -106.833L677.82 415.788L676.55 417.059L153.746 -105.562L155.017 -106.833Z" fill="#FBEAA2"/>
<path d="M152.363 -104.168L675.166 418.453L673.895 419.724L151.092 -102.896L152.363 -104.168Z" fill="#FBEAA2"/>
<path d="M149.697 -101.508L672.5 421.112L671.229 422.383L148.426 -100.237L149.697 -101.508Z" fill="#FBEAA2"/>
<path d="M147.037 -98.8444L669.84 423.776L668.569 425.048L145.766 -97.5732L147.037 -98.8444Z" fill="#FBEAA2"/>
<path d="M144.374 -96.1848L667.178 426.436L665.907 427.707L143.104 -94.9136L144.374 -96.1848Z" fill="#FBEAA2"/>
<path d="M141.714 -93.5256L664.518 429.095L663.247 430.366L140.444 -92.2544L141.714 -93.5256Z" fill="#FBEAA2"/>
<path d="M139.054 -90.861L661.857 431.76L660.587 433.031L137.783 -89.5899L139.054 -90.861Z" fill="#FBEAA2"/>
<path d="M136.392 -88.2013L659.195 434.419L657.925 435.691L135.121 -86.9302L136.392 -88.2013Z" fill="#FBEAA2"/>
<path d="M133.728 -85.5373L656.531 437.083L655.261 438.355L132.457 -84.2662L133.728 -85.5373Z" fill="#FBEAA2"/>
<path d="M131.072 -82.8781L653.875 439.743L652.604 441.014L129.801 -81.6069L131.072 -82.8781Z" fill="#FBEAA2"/>
<path d="M128.406 -80.2135L651.209 442.407L649.938 443.678L127.135 -78.9424L128.406 -80.2135Z" fill="#FBEAA2"/>
<path d="M125.751 -77.5544L648.555 445.066L647.284 446.338L124.481 -76.2832L125.751 -77.5544Z" fill="#FBEAA2"/>
<path d="M123.083 -74.8947L645.887 447.726L644.616 448.997L121.813 -73.6235L123.083 -74.8947Z" fill="#FBEAA2"/>
<path d="M120.425 -72.2306L643.229 450.39L641.958 451.661L119.155 -70.9595L120.425 -72.2306Z" fill="#FBEAA2"/>
<path d="M117.761 -69.571L640.564 453.05L639.294 454.321L116.49 -68.2998L117.761 -69.571Z" fill="#FBEAA2"/>
<path d="M115.103 -66.9069L637.906 455.714L636.636 456.985L113.832 -65.6358L115.103 -66.9069Z" fill="#FBEAA2"/>
<path d="M112.481 -64.3448L635.193 458.367L633.922 459.638L111.21 -63.0739L112.481 -64.3448Z" fill="#FBEAA2"/>
<path d="M109.783 -61.5827L632.586 461.038L631.315 462.309L108.512 -60.3115L109.783 -61.5827Z" fill="#FBEAA2"/>
<path d="M107.115 -58.924L629.918 463.697L628.647 464.968L105.844 -57.6528L107.115 -58.924Z" fill="#FBEAA2"/>
<path d="M104.46 -56.2643L627.264 466.356L625.993 467.628L103.19 -54.9932L104.46 -56.2643Z" fill="#FBEAA2"/>
<path d="M101.794 -53.5998L624.598 469.021L623.327 470.292L100.524 -52.3286L101.794 -53.5998Z" fill="#FBEAA2"/>
<path d="M99.1323 -50.9411L621.936 471.68L620.665 472.951L97.8616 -49.6699L99.1323 -50.9411Z" fill="#FBEAA2"/>
<path d="M96.4721 -48.276L619.275 474.345L618.005 475.616L95.2014 -47.0049L96.4721 -48.276Z" fill="#FBEAA2"/>
<path d="M93.8583 -45.7135L616.57 476.999L615.299 478.269L92.5874 -44.4426L93.8583 -45.7135Z" fill="#FBEAA2"/>
<path d="M91.1518 -42.9528L613.955 479.668L612.684 480.939L89.8811 -41.6816L91.1518 -42.9528Z" fill="#FBEAA2"/>
<path d="M88.4897 -40.2931L611.293 482.328L610.022 483.599L87.219 -39.022L88.4897 -40.2931Z" fill="#FBEAA2"/>
<path d="M85.8256 -37.634L608.629 484.987L607.358 486.258L84.5549 -36.3628L85.8256 -37.634Z" fill="#FBEAA2"/>
<path d="M83.1694 -34.9694L605.973 487.651L604.702 488.923L81.8987 -33.6983L83.1694 -34.9694Z" fill="#FBEAA2"/>
<path d="M80.5014 -32.3097L603.305 490.311L602.034 491.582L79.2307 -31.0386L80.5014 -32.3097Z" fill="#FBEAA2"/>
<path d="M77.8491 -29.6457L600.652 492.975L599.382 494.246L76.5784 -28.3745L77.8491 -29.6457Z" fill="#FBEAA2"/>
<path d="M75.2274 -27.088L597.939 495.624L596.669 496.895L73.9565 -25.817L75.2274 -27.088Z" fill="#FBEAA2"/>
<path d="M72.5229 -24.3224L595.326 498.298L594.055 499.569L71.2522 -23.0513L72.5229 -24.3224Z" fill="#FBEAA2"/>
<path d="M69.8588 -21.6628L592.662 500.958L591.391 502.229L68.5881 -20.3916L69.8588 -21.6628Z" fill="#FBEAA2"/>
<path d="M67.2006 -19.0031L590.004 503.618L588.733 504.889L65.9299 -17.732L67.2006 -19.0031Z" fill="#FBEAA2"/>
<path d="M64.5385 -16.339L587.342 506.282L586.071 507.553L63.2678 -15.0679L64.5385 -16.339Z" fill="#FBEAA2"/>
<path d="M61.8803 -13.6794L584.684 508.941L583.413 510.213L60.6096 -12.4082L61.8803 -13.6794Z" fill="#FBEAA2"/>
<path d="M59.2124 -11.0153L582.016 511.605L580.745 512.877L57.9416 -9.74415L59.2124 -11.0153Z" fill="#FBEAA2"/>
<path d="M56.6043 -8.45718L579.316 514.255L578.045 515.526L55.3334 -7.18625L56.6043 -8.45718Z" fill="#FBEAA2"/>
<path d="M53.892 -5.69157L576.695 516.929L575.425 518.2L52.6213 -4.42042L53.892 -5.69157Z" fill="#FBEAA2"/>
<path d="M51.2358 -3.03239L574.039 519.588L572.768 520.86L49.9651 -1.76124L51.2358 -3.03239Z" fill="#FBEAA2"/>
<path d="M48.5698 -0.372722L571.373 522.248L570.102 523.519L47.2991 0.898426L48.5698 -0.372722Z" fill="#FBEAA2"/>
<path d="M45.9116 2.29134L568.715 524.912L567.444 526.183L44.6409 3.56249L45.9116 2.29134Z" fill="#FBEAA2"/>
<path d="M43.2495 4.95052L566.053 527.571L564.782 528.842L41.9788 6.22167L43.2495 4.95052Z" fill="#FBEAA2"/>
<path d="M40.5893 7.61556L563.393 530.236L562.122 531.507L39.3186 8.88671L40.5893 7.61556Z" fill="#FBEAA2"/>
<path d="M37.9735 10.1688L560.686 532.881L559.415 534.152L36.7026 11.4398L37.9735 10.1688Z" fill="#FBEAA2"/>
<path d="M35.267 12.9388L558.07 535.56L556.8 536.831L33.9963 14.2099L35.267 12.9388Z" fill="#FBEAA2"/>
<path d="M32.601 15.5985L555.404 538.219L554.134 539.49L31.3303 16.8696L32.601 15.5985Z" fill="#FBEAA2"/>
<path d="M29.9467 18.2576L552.75 540.878L551.479 542.15L28.676 19.5288L29.9467 18.2576Z" fill="#FBEAA2"/>
<path d="M27.2807 20.9222L550.084 543.543L548.813 544.814L26.01 22.1934L27.2807 20.9222Z" fill="#FBEAA2"/>
<path d="M24.6245 23.5809L547.428 546.202L546.157 547.473L23.3538 24.852L24.6245 23.5809Z" fill="#FBEAA2"/>
<path d="M21.9584 26.2459L544.762 548.867L543.491 550.138L20.6877 27.5171L21.9584 26.2459Z" fill="#FBEAA2"/>
<path d="M19.3446 28.8002L542.057 551.512L540.786 552.783L18.0737 30.0711L19.3446 28.8002Z" fill="#FBEAA2"/>
<path d="M16.6381 31.5692L539.441 554.19L538.171 555.461L15.3674 32.8404L16.6381 31.5692Z" fill="#FBEAA2"/>
<path d="M13.978 34.2288L536.781 556.85L535.511 558.121L12.7073 35.5L13.978 34.2288Z" fill="#FBEAA2"/>
<path d="M11.3159 36.888L534.119 559.509L532.848 560.78L10.0452 38.1592L11.3159 36.888Z" fill="#FBEAA2"/>
<path d="M8.65571 39.5526L531.459 562.173L530.188 563.444L7.38501 40.8237L8.65571 39.5526Z" fill="#FBEAA2"/>
<path d="M5.9897 42.2122L528.793 564.833L527.522 566.104L4.71895 43.4834L5.9897 42.2122Z" fill="#FBEAA2"/>
<path d="M3.3354 44.8763L526.139 567.497L524.868 568.768L2.0647 46.1474L3.3354 44.8763Z" fill="#FBEAA2"/>
<path d="M0.713718 47.4256L523.426 570.138L522.155 571.409L-0.557208 48.6966L0.713718 47.4256Z" fill="#FBEAA2"/>
<path d="M-1.98686 50.2L520.816 572.821L519.546 574.092L-3.25757 51.4712L-1.98686 50.2Z" fill="#FBEAA2"/>
<path d="M-4.65288 52.8592L518.15 575.48L516.88 576.751L-5.92358 54.1304L-4.65288 52.8592Z" fill="#FBEAA2"/>
<path d="M-7.31499 55.5189L515.488 578.14L514.218 579.411L-8.58569 56.79L-7.31499 55.5189Z" fill="#FBEAA2"/>
<path d="M-9.97515 58.1829L512.828 580.804L511.557 582.075L-11.2459 59.4541L-9.97515 58.1829Z" fill="#FBEAA2"/>
<path d="M-12.6353 60.8421L510.168 583.463L508.897 584.734L-13.906 62.1133L-12.6353 60.8421Z" fill="#FBEAA2"/>
<path d="M-15.2955 63.5072L507.508 586.128L506.237 587.399L-16.5662 64.7783L-15.2955 63.5072Z" fill="#FBEAA2"/>
<path d="M-17.9112 66.0565L504.801 588.769L503.53 590.039L-19.1822 67.3275L-17.9112 66.0565Z" fill="#FBEAA2"/>
<path d="M-20.6216 68.8304L502.182 591.451L500.911 592.722L-21.8923 70.1016L-20.6216 68.8304Z" fill="#FBEAA2"/>
<path d="M-23.2779 71.4896L499.525 594.11L498.255 595.381L-24.5486 72.7607L-23.2779 71.4896Z" fill="#FBEAA2"/>
<path d="M-25.9458 74.1493L496.857 596.77L495.587 598.041L-27.2166 75.4204L-25.9458 74.1493Z" fill="#FBEAA2"/>
<path d="M-28.5982 76.8138L494.205 599.435L492.934 600.706L-29.8689 78.0849L-28.5982 76.8138Z" fill="#FBEAA2"/>
<path d="M-31.2662 79.4725L491.537 602.093L490.266 603.364L-32.5369 80.7436L-31.2662 79.4725Z" fill="#FBEAA2"/>
<path d="M-33.9244 82.1375L488.879 604.758L487.608 606.029L-35.1951 83.4087L-33.9244 82.1375Z" fill="#FBEAA2"/>
<path d="M-36.5865 84.7962L486.217 607.417L484.946 608.688L-37.8572 86.0674L-36.5865 84.7962Z" fill="#FBEAA2"/>
<path d="M-39.2466 87.4608L483.557 610.082L482.286 611.353L-40.5173 88.7319L-39.2466 87.4608Z" fill="#FBEAA2"/>
<path d="M-41.9087 90.1204L480.895 612.741L479.624 614.012L-43.1794 91.3916L-41.9087 90.1204Z" fill="#FBEAA2"/>
<path d="M-44.5669 92.7796L478.236 615.4L476.966 616.672L-45.8376 94.0508L-44.5669 92.7796Z" fill="#FBEAA2"/>
<path d="M-47.2349 95.4442L475.568 618.065L474.298 619.336L-48.5056 96.7153L-47.2349 95.4442Z" fill="#FBEAA2"/>
<path d="M-49.8892 98.1029L472.914 620.724L471.643 621.995L-51.16 99.3741L-49.8892 98.1029Z" fill="#FBEAA2"/>
<path d="M-52.5552 100.768L470.248 623.389L468.977 624.66L-53.8259 102.039L-52.5552 100.768Z" fill="#FBEAA2"/>
<path d="M-55.2115 103.427L467.592 626.048L466.321 627.319L-56.4822 104.698L-55.2115 103.427Z" fill="#FBEAA2"/>
<path d="M-57.8775 106.092L464.926 628.712L463.655 629.984L-59.1482 107.363L-57.8775 106.092Z" fill="#FBEAA2"/>
<path d="M-60.5376 108.751L462.266 631.372L460.995 632.643L-61.8084 110.022L-60.5376 108.751Z" fill="#FBEAA2"/>
<path d="M-63.1978 111.41L459.605 634.031L458.335 635.302L-64.4685 112.681L-63.1978 111.41Z" fill="#FBEAA2"/>
<path d="M-65.858 114.075L456.945 636.695L455.675 637.966L-67.1287 115.346L-65.858 114.075Z" fill="#FBEAA2"/>
<path d="M-68.5201 116.734L454.283 639.354L453.012 640.626L-69.7908 118.005L-68.5201 116.734Z" fill="#FBEAA2"/>
<path d="M-71.1802 119.399L451.623 642.02L450.352 643.291L-72.451 120.67L-71.1802 119.399Z" fill="#FBEAA2"/>
<path d="M-73.8462 122.057L448.957 644.678L447.686 645.949L-75.1169 123.329L-73.8462 122.057Z" fill="#FBEAA2"/>
<path d="M-76.5005 124.722L446.303 647.343L445.032 648.614L-77.7712 125.993L-76.5005 124.722Z" fill="#FBEAA2"/>
<path d="M-79.1685 127.381L443.635 650.002L442.364 651.273L-80.4392 128.652L-79.1685 127.381Z" fill="#FBEAA2"/>
<path d="M-81.8267 130.041L440.977 652.662L439.706 653.933L-83.0974 131.312L-81.8267 130.041Z" fill="#FBEAA2"/>
<path d="M-84.4888 132.705L438.314 655.326L437.044 656.597L-85.7595 133.977L-84.4888 132.705Z" fill="#FBEAA2"/>
<path d="M-87.149 135.364L435.654 657.985L434.384 659.256L-88.4197 136.635L-87.149 135.364Z" fill="#FBEAA2"/>
<path d="M-89.8111 138.029L432.992 660.649L431.721 661.921L-91.0818 139.3L-89.8111 138.029Z" fill="#FBEAA2"/>
<path d="M-92.4712 140.688L430.332 663.309L429.061 664.58L-93.7419 141.959L-92.4712 140.688Z" fill="#FBEAA2"/>
<path d="M-95.1373 143.352L427.666 665.973L426.395 667.244L-96.408 144.624L-95.1373 143.352Z" fill="#FBEAA2"/>
<path d="M-97.7916 146.012L425.012 668.633L423.741 669.904L-99.0623 147.283L-97.7916 146.012Z" fill="#FBEAA2"/>
<path d="M-100.458 148.671L422.346 671.292L421.075 672.563L-101.728 149.942L-100.458 148.671Z" fill="#FBEAA2"/>
<path d="M-103.114 151.336L419.689 673.957L418.419 675.228L-104.385 152.607L-103.114 151.336Z" fill="#FBEAA2"/>
<path d="M-105.78 153.994L417.023 676.615L415.753 677.886L-107.051 155.266L-105.78 153.994Z" fill="#FBEAA2"/>
<path d="M-108.44 156.66L414.363 679.28L413.093 680.551L-109.711 157.931L-108.44 156.66Z" fill="#FBEAA2"/>
<path d="M-111.102 159.319L411.701 681.939L410.43 683.211L-112.373 160.59L-111.102 159.319Z" fill="#FBEAA2"/>
<path d="M-113.76 161.983L409.043 684.604L407.772 685.875L-115.031 163.254L-113.76 161.983Z" fill="#FBEAA2"/>
<path d="M-116.422 164.642L406.381 687.263L405.11 688.534L-117.693 165.914L-116.422 164.642Z" fill="#FBEAA2"/>
<path d="M-119.083 167.302L403.721 689.922L402.45 691.194L-120.353 168.573L-119.083 167.302Z" fill="#FBEAA2"/>
<path d="M-121.749 169.966L401.055 692.587L399.784 693.858L-123.019 171.237L-121.749 169.966Z" fill="#FBEAA2"/>
<path d="M-124.403 172.625L398.4 695.246L397.13 696.517L-125.674 173.896L-124.403 172.625Z" fill="#FBEAA2"/>
<path d="M-127.071 175.289L395.732 697.91L394.462 699.181L-128.342 176.561L-127.071 175.289Z" fill="#FBEAA2"/>
<path d="M-129.725 177.949L393.078 700.57L391.807 701.841L-130.996 179.22L-129.725 177.949Z" fill="#FBEAA2"/>
<path d="M-132.391 180.614L390.412 703.234L389.141 704.506L-133.662 181.885L-132.391 180.614Z" fill="#FBEAA2"/>
<path d="M-135.053 183.273L387.75 705.894L386.479 707.165L-136.324 184.544L-135.053 183.273Z" fill="#FBEAA2"/>
<path d="M-137.669 185.808L385.043 708.52L383.772 709.791L-138.94 187.079L-137.669 185.808Z" fill="#FBEAA2"/>
<path d="M-140.374 188.597L382.43 711.218L381.159 712.489L-141.644 189.868L-140.374 188.597Z" fill="#FBEAA2"/>
<path d="M-143.034 191.256L379.77 713.876L378.499 715.148L-144.304 192.527L-143.034 191.256Z" fill="#FBEAA2"/>
<path d="M-145.694 193.92L377.109 716.541L375.839 717.812L-146.965 195.191L-145.694 193.92Z" fill="#FBEAA2"/>
<path d="M-148.36 196.579L374.443 719.2L373.173 720.471L-149.631 197.851L-148.36 196.579Z" fill="#FBEAA2"/>
<path d="M-151.016 199.244L371.787 721.865L370.516 723.136L-152.287 200.515L-151.016 199.244Z" fill="#FBEAA2"/>
<path d="M-153.684 201.904L369.119 724.524L367.848 725.796L-154.955 203.175L-153.684 201.904Z" fill="#FBEAA2"/>
<path d="M-156.29 204.439L366.422 727.151L365.151 728.422L-157.561 205.71L-156.29 204.439Z" fill="#FBEAA2"/>
<path d="M-159.004 207.227L363.799 729.848L362.528 731.119L-160.275 208.499L-159.004 207.227Z" fill="#FBEAA2"/>
<path d="M-161.663 209.886L361.141 732.507L359.87 733.778L-162.933 211.157L-161.663 209.886Z" fill="#FBEAA2"/>
<path d="M-164.325 212.551L358.479 735.172L357.208 736.443L-165.595 213.822L-164.325 212.551Z" fill="#FBEAA2"/>
<path d="M-166.985 215.21L355.818 737.831L354.548 739.102L-168.256 216.481L-166.985 215.21Z" fill="#FBEAA2"/>
<path d="M-169.647 217.874L353.156 740.495L351.886 741.766L-170.918 219.145L-169.647 217.874Z" fill="#FBEAA2"/>
<path d="M-172.305 220.534L350.498 743.155L349.227 744.426L-173.576 221.805L-172.305 220.534Z" fill="#FBEAA2"/>
<path d="M-174.927 223.065L347.785 745.777L346.514 747.048L-176.198 224.336L-174.927 223.065Z" fill="#FBEAA2"/>
<path d="M-177.629 225.858L345.174 748.479L343.903 749.75L-178.9 227.129L-177.629 225.858Z" fill="#FBEAA2"/>
<path d="M-180.294 228.517L342.51 751.138L341.239 752.409L-181.564 229.788L-180.294 228.517Z" fill="#FBEAA2"/>
<path d="M-182.95 231.181L339.854 753.802L338.583 755.073L-184.221 232.452L-182.95 231.181Z" fill="#FBEAA2"/>
<path d="M-185.616 233.841L337.188 756.461L335.917 757.733L-186.886 235.112L-185.616 233.841Z" fill="#FBEAA2"/>
<path d="M-188.276 236.505L334.527 759.126L333.257 760.397L-189.547 237.776L-188.276 236.505Z" fill="#FBEAA2"/>
<path d="M-190.936 239.164L331.867 761.785L330.596 763.056L-192.207 240.436L-190.936 239.164Z" fill="#FBEAA2"/>
<path d="M-193.552 241.696L329.16 764.408L327.889 765.679L-194.823 242.967L-193.552 241.696Z" fill="#FBEAA2"/>
<path d="M-196.26 244.489L326.543 767.109L325.272 768.381L-197.531 245.76L-196.26 244.489Z" fill="#FBEAA2"/>
<path d="M-198.919 247.147L323.885 769.768L322.614 771.039L-200.189 248.418L-198.919 247.147Z" fill="#FBEAA2"/>
<path d="M-201.586 249.812L321.217 772.433L319.946 773.704L-202.857 251.083L-201.586 249.812Z" fill="#FBEAA2"/>
<path d="M-204.239 252.471L318.564 775.092L317.294 776.363L-205.51 253.742L-204.239 252.471Z" fill="#FBEAA2"/>
<path d="M-206.907 255.136L315.896 777.756L314.626 779.027L-208.177 256.407L-206.907 255.136Z" fill="#FBEAA2"/>
</g>
</svg>
