<svg width="817" height="505" viewBox="0 0 817 505" fill="none" xmlns="http://www.w3.org/2000/svg">
<mask id="mask0_53_119447" style="mask-type:luminance" maskUnits="userSpaceOnUse" x="0" y="0" width="817" height="505">
<path d="M5.95 470.125C5.93 471.275 5.42 472.785 5.96 473.515C11.87 481.535 6.77 484.135 0 485.995V477.195C0.91 477.055 2.1 478.555 2.61 476.835C2.67 476.645 0.92 475.915 0 475.435C0 474.265 0 473.085 0 471.915V468.395C1.35 467.395 4 467.035 3.66 465.185C3.3 463.215 1.29 464.805 0 464.875C0 462.525 0 460.185 0 457.835C1.8 456.665 3.61 455.485 5.41 454.315L5.2 454.205C6.38 456.405 5.88 461.145 10.69 457.825L10.5 457.945C12.94 459.495 15.61 460.785 17.77 462.665C20.96 465.445 20.62 468.135 16.62 470.005C17.81 469.415 18.04 468.405 17.58 467.305C17.43 466.945 16.52 466.505 16.44 466.585C15.45 467.545 16.07 468.535 16.53 469.505C12.81 467.735 9.24 468.455 5.72 470.165C5.71 470.165 5.41 470.075 5.41 470.075L5.95 470.135V470.125ZM517.08 332.165C517.43 332.015 518.44 332.455 518.44 332.615C518.43 333.305 518.15 333.995 517.93 334.685C521.13 336.705 520.54 340.355 521.45 343.335C522.48 346.695 523.74 350.555 519.72 352.745C515.01 355.315 516.3 347.985 512.02 348.105C514.08 355.965 508.45 355.725 503.45 355.835C500.56 355.895 497.63 354.865 494.78 355.085C492.48 355.265 489.31 359.055 488.17 355.505C486.96 351.735 491.95 352.395 494.23 351.105C495.05 350.645 496.72 351.445 496.51 349.405C494.91 348.745 493.29 348.095 491.68 347.405C489.81 346.605 487.55 346.205 486.16 344.895C478.32 337.535 478.45 337.495 472.02 346.425C469.75 349.575 467.63 352.285 463.78 347.305C461.86 344.815 457.48 344.535 455.16 347.495C453.05 350.185 448.3 353.575 452.03 357.205C459.07 364.035 452.65 365.055 448.46 366.945C443.95 368.985 439.42 370.915 434.24 371.185C423.4 371.745 413.63 374.455 409.27 388.075C407.52 381.975 404.41 379.285 399.44 380.075C396.64 380.525 394.6 382.425 397.71 384.695C403.49 388.935 398.91 389.605 395.94 391.195C392.84 392.855 389.26 391.645 382.8 393.095C395.68 398.055 403.39 403.525 391.05 414.235C390.39 413.665 389.57 412.925 388.71 412.235C381.56 406.515 373.19 404.225 364.26 403.755C357.79 403.415 355.88 409.385 352.19 412.885C350.27 414.705 348.8 416.455 345.58 413.985C337.52 407.795 334.73 408.765 329.27 417.395C325.18 423.875 321.94 432.045 308.88 428.285C313.46 432.825 315.75 435.715 312.67 439.215C311.11 440.985 309.6 443.125 306.84 442.205C294.96 438.255 282.51 440.105 270.4 438.465C267.45 438.065 263.98 437.735 262.47 435.285C260.36 431.855 258.88 432.105 255.08 432.935C247.88 434.515 241.03 426.215 242.08 418.595C243.28 409.905 244.05 401.135 247.82 392.995C249.19 390.045 249.67 386.815 248.39 383.585C245.48 376.245 242.72 368.845 239.65 361.565C234.62 349.665 232.04 337.635 236.69 324.955C244.09 330.595 246.92 329.225 256.37 315.155C252.82 314.275 249.44 313.525 246.11 312.595C244.57 312.165 241.83 311.985 242.87 309.595C247.6 298.745 247.36 286.625 251.29 275.285C255.47 277.535 254.37 281.125 254.95 284.105C255.44 286.645 254.43 291.205 258.9 289.615C261.13 288.825 267.8 288.905 264.51 282.315C263.78 280.855 262.59 279.435 262.28 277.765C261.6 274.155 262.88 271.325 266.36 269.975C270.63 268.315 270.15 272.335 271.19 274.385C276.07 284.015 271.78 292.585 268.02 301.215C266.9 303.785 263.32 306.105 265.32 308.985C267.53 312.185 271.69 311.695 275.12 310.995C281.93 309.615 288.75 311.235 295.65 310.355C301.98 309.545 306.21 312.555 302.26 319.965C301.4 321.585 300.4 323.325 302.4 324.565C310.99 329.905 318.14 338.995 328.65 339.425C337.84 339.805 343.34 344.565 350.45 349.905C346.82 351.415 344.23 352.485 341.32 353.695C348.38 358.525 355.4 356.785 362.47 355.955C376.33 354.345 389.82 357.425 403.25 360.135C407.79 361.055 411.84 359.265 416.15 359.095C417.98 359.025 422.39 355.885 419.5 352.675C414.08 346.655 406.89 341.795 399.2 340.515C390.16 339.005 378.51 347.035 374.01 331.725C373.74 330.795 368.97 328.115 366.63 328.145C359.16 328.245 358.02 322.755 355.48 318.105C357.87 316.415 360.5 319.395 362.28 317.045C357.72 306.965 345.42 307.045 338.58 299.635C346.68 294.035 361.05 296.905 360.2 280.035C348.95 293.205 336.49 274.195 325 282.855C324.84 282.975 323.51 281.135 322.51 280.635C318.32 278.535 301.74 282.975 301.2 287.135C300.01 296.325 296.28 292.325 292.24 289.825C290.01 288.445 287.58 287.385 285.24 286.175C289.56 290.995 289.9 298.775 297.02 301.625C298.44 302.195 299.17 304.485 298.06 306.285C296.97 308.065 294.48 308.575 293.46 307.555C287.82 301.925 282.05 306.025 276.3 306.785C274.13 307.075 271.19 308.585 270.03 305.765C269.02 303.315 271.58 301.665 273.2 300.035C276.29 296.905 279.75 294.295 283.83 293.235C284.88 288.845 277.08 289.135 279.95 284.545C280.79 283.195 282.58 283.655 284 284.265C282.4 281.415 281.52 278.375 281.92 275.025C287.97 276.445 296.47 272.075 296.09 267.025C295.57 260.165 289.82 261.825 285.29 261.895C282.22 261.945 278.23 260.855 277.73 258.425C275.82 249.195 270.73 242.365 260.74 236.085C275.46 235.315 285.5 248.135 299.42 240.095C293.1 239.035 295.65 228.515 287.13 231.755C287.04 231.185 287.15 230.275 286.84 230.095C283.52 228.225 281.96 223.705 277.08 224.075C274.33 224.285 274.94 221.785 275.25 220.225C275.68 218.075 277.96 215.505 279.29 216.875C284.2 221.905 289.38 216.905 294.1 218.075C300.21 219.585 305.92 209.525 312.18 217.675C312.65 218.285 315.58 217.135 315.46 215.645C315.19 212.235 317.39 210.685 319.25 208.545C320.44 207.175 319.79 205.715 317.83 204.405C311.73 200.325 299.98 203.525 299.97 190.575C299.97 189.655 294.03 183.305 289.79 180.145C277.32 170.835 277.6 168.245 287.49 156.495C289 154.705 290.6 152.985 292.17 151.255C298.18 144.635 297.46 141.975 289.16 138.925C285.95 137.745 282.9 138.055 279.66 138.415C273.68 139.085 267.67 139.435 261.67 139.915C261.42 139.085 261.17 138.255 260.91 137.415C271.44 134.105 281.05 128.965 290.84 124.185C291.72 123.755 293.25 123.955 294.18 124.435C300.48 127.715 307.33 126.695 313.98 127.415C319.58 128.025 325.59 127.335 330.77 130.135C330.25 133.155 322.18 133.785 328.62 137.095C332.1 138.885 337.39 141.335 341.14 139.165C348.09 135.125 355.14 136.825 362.26 136.475C370.42 136.085 378.67 137.205 386.75 135.335C389.39 134.725 391.83 133.505 393.08 131.035C393.84 129.535 392.48 128.195 391.3 127.385C383.46 122.015 374.9 120.645 366.12 124.265C363.64 125.285 362.32 124.785 360.68 123.615C353.76 118.645 354.28 116.505 363.8 110.995C361.04 107.605 357.77 104.995 353.3 106.745C347.73 108.925 342.65 106.515 339.18 103.695C333.48 99.0449 329.86 103.245 325.71 105.035C319.87 107.565 325.43 113.085 323.28 117.135C322.49 118.625 327.12 117.565 329.17 118.255C331.52 119.055 334.97 118.665 334.77 122.475C334.57 126.135 331.96 127.415 328.63 127.205C327.11 127.105 325.03 128.075 324.29 125.725C325.12 124.025 327.93 124.985 328.15 122.355C320.48 120.685 312.01 123.855 304.88 119.465C305.58 116.295 309.97 117.555 310.2 112.505C297.21 118.305 284.31 118.015 271.51 118.635C269.51 118.735 265.38 118.695 267.11 121.915C270.07 127.435 265.64 127.645 263.04 129.385C257.69 132.955 251.76 135.585 246.95 140.065C245 141.885 241.75 144.695 239.3 141.855C235.64 137.615 233.77 140.235 232.23 143.045C230.78 145.685 228.82 146.915 226.12 147.455C218.66 148.945 211.19 150.415 203.73 151.895L203.93 151.725C202.57 153.485 200.12 154.715 201.31 157.655C205.85 168.845 199.31 179.435 199.46 190.405C199.61 200.655 193.24 209.915 183.37 214.055C184.99 209.845 187.27 205.145 181.71 202.715C175.68 200.085 175.29 208.145 171.04 209.335C166.7 205.675 172.66 201.435 170.73 197.585C167.48 198.295 168.43 202.125 165.32 203.745C166.76 193.175 158.03 185.415 159.72 175.195C159.87 189.065 156.25 203.035 161.65 216.295C156.963 214.648 152.483 216.242 148.21 221.075C148.03 221.285 147.72 221.395 147.46 221.525C134.8 227.845 128.41 240.455 118.95 249.995C122.52 247.015 126.02 243.935 129.7 241.095C131.79 239.485 134.32 237.955 136.67 240.615C138.68 242.885 137.01 244.615 136.2 247.135C134.02 253.935 129.99 255.605 123.6 257.615C117.19 259.635 123.96 263.765 125.08 266.955L125.31 267.155C135.39 267.495 143.85 264.315 149.33 255.435C150.91 252.875 151.96 249.735 155.49 250.305C158.94 250.855 159.54 254.135 160.04 257.065C160.65 260.635 161.03 265.625 157.39 266.325C149.9 267.765 146.5 274.655 139.81 277.275C131.81 280.405 131.55 286.865 137.87 293.155C139.51 294.785 141.57 295.985 143.43 297.385C144.17 297.495 144.91 297.595 145.61 297.695C156.08 297.355 153.49 304.555 151.92 311.385C155.94 308.865 158.77 306.915 161.77 305.265C163.53 304.295 166.21 301.215 167.27 304.985C168.04 307.705 168.27 313.795 164.77 313.345C161.15 312.875 161.98 314.625 162.68 315.385C169.44 322.645 165.36 331.715 166.83 339.815C167.3 342.405 168.97 347.465 164.47 347.645C160.95 347.785 162.49 342.935 161.69 340.325C161.6 340.035 160.83 339.955 160.27 339.735C158.71 341.705 158.45 344.105 158.67 346.405C160.33 364.245 154.75 381.665 155.82 399.515C156.19 405.685 155.42 412.915 145.45 408.795C143.34 407.925 142.44 409.435 141.8 411.385C139.99 416.885 141.8 419.585 147.81 419.705C150.13 419.745 149.5 421.665 150.16 422.765C151.09 424.305 152.91 424.965 153.51 423.335C155.89 416.845 164.12 413.245 162.08 404.395C160.99 399.665 161.14 394.315 162.1 389.515C163.64 381.785 159.79 373.505 164.89 364.435C167.23 374.545 164.8 382.865 164.61 391.185C164.36 402.305 162.88 413.465 166.39 424.365C166.89 425.925 166.76 428.345 169.15 428.215C171.37 428.105 171.81 425.935 171.61 424.225C169.52 406.695 172.39 389.105 170.85 371.545C169.73 358.755 170.99 345.855 169.27 333.045C168.67 328.575 170.75 324.475 172.85 320.545C175.21 316.155 177.94 309.245 182.58 310.855C187.1 312.435 184.92 319.745 183.42 324.115C178.26 339.115 177.11 354.315 179.13 369.955C180.64 381.705 179.17 393.555 177.02 404.935C175.3 414.035 176.93 423.775 172.24 432.285C170.14 436.095 168.17 441.235 163.08 440.515C157.99 439.795 157.23 434.645 156.79 430.115C156.75 429.715 156.03 429.385 155.49 428.895C150.76 432.105 152.55 437.375 151.44 441.665C149.87 447.725 145.23 452.705 140.33 453.745C134.93 454.885 129.22 451.345 127.42 444.385C125.68 437.675 120.9 432.665 116.65 427.445C108.78 417.775 103.59 416.905 93.68 424.505C88.37 428.585 83.6 433.115 77.09 435.615C73.89 436.845 70.95 439.575 70.81 444.295C70.26 462.725 57.18 477.315 54.8 495.245C54.77 495.485 54.43 495.685 54.25 495.915C53.28 497.125 50.82 498.165 53.28 499.945C54.71 500.975 56.66 500.975 58.31 500.035C60.9 498.565 61.31 495.855 61.92 493.285C65.16 479.785 72.77 468.095 77.79 455.335C78.91 452.475 81.09 449.295 84.8 449.435C88.27 449.565 88.13 452.985 88.75 455.465C90.77 463.525 95.9 465.325 103.47 463.325C108.43 462.005 112.78 459.555 117.49 456.955C115.48 460.015 122.72 464.675 115.88 465.775C113.53 466.155 111.36 465.495 110.31 468.065C109.06 471.105 109.88 474.085 112.32 476.045C115.26 478.415 120.01 479.515 121.54 482.435C124.18 487.485 138.74 485.745 130.25 497.155C130.03 497.455 131.16 499.145 131.98 499.765C136.74 503.385 155.72 502.915 159.62 498.465C163.23 494.335 166.18 493.555 170.81 496.665C173.56 498.505 177.1 499.155 181.74 500.875C178.03 494.555 181.89 491.525 185.35 491.285C192.39 490.795 194.59 486.665 196.51 481.095C197.87 477.155 201.43 474.635 204.13 471.555C213.63 460.735 222.7 449.815 223.98 434.335C224.5 428.065 227.5 422.005 229.64 414.965C236.13 426.945 234.22 434.705 228.77 443.865C224.8 450.545 218.55 457.795 221.7 467.235C222.43 469.415 220.55 470.945 219.49 472.695C216.77 477.185 214.17 481.765 211.8 486.455C209.03 491.945 214.52 502.185 220.71 502.295C235.36 502.555 250.02 502.245 264.67 502.055C267.62 502.015 269.79 500.495 266.85 497.845C262.49 493.925 260.79 488.575 258.05 483.785C250.76 471.035 247.01 469.865 233.42 475.765C231.67 476.525 230.59 478.795 228.05 478.175C228.97 476.545 229.47 474.515 230.76 473.585C238.11 468.305 240.55 461.355 239.96 452.415C239.59 446.725 244.54 445.895 249.29 445.555C256.34 445.045 262.32 450.225 268.86 449.815C281.3 449.055 293.51 447.505 304.86 454.575C306.42 455.545 308.18 453.815 309.36 452.535C312.33 449.295 315.16 446.005 316.8 441.755C318.36 437.735 320.51 433.965 324.49 431.565C326.14 433.985 324.54 435.485 323.89 436.895C321.27 442.595 320.89 446.205 329.19 445.075C333.88 444.435 338.72 444.955 344.34 444.955C339.873 451.482 340.163 457.758 345.21 463.785L345.41 463.395C341.67 465.285 337.93 467.185 333.62 469.365C333.29 463.555 329.73 460.165 327.21 456.395C322.57 449.445 318.83 458.425 314.37 457.765C308.32 456.865 302.29 464.795 297.05 459.665C290.3 453.055 287.68 459.295 287.68 462.805C287.66 476.045 280.03 478.145 269.45 477.405C268.33 477.325 267.02 477.615 266.08 478.185C265.18 478.735 264.2 479.805 264.04 480.775C263.73 482.755 265.37 482.855 266.9 483.115C276.25 484.695 284.95 481.525 293.47 478.765C297.79 477.365 302.03 474.895 304.99 479.065C307.27 482.275 307.42 486.985 308.52 491.035C300.32 486.295 293.04 479.225 283.77 489.135C287.89 489.895 291.23 491.055 290.1 496.405C289.12 501.025 292.22 502.825 296.29 502.815C302.73 502.795 309.17 502.235 315.61 502.355C321.34 502.465 324.16 500.215 324.9 494.395C325.71 487.995 329.73 486.565 335.09 490.365C337.18 491.845 339.13 493.535 341.26 495.235C339.87 497.555 335.99 497.235 335.9 500.375C375.25 504.865 414.58 502.725 454.68 504.085C446.3 491.565 436.65 487.815 424.21 493.335C420.35 495.045 416.57 497.025 412.94 492.515C412.11 491.485 410.11 491.795 408.21 492.845C399.85 497.465 384.22 492.095 379.38 483.305C381.6 482.575 383.72 483.355 385.04 484.835C390.4 490.835 397.54 490.215 403.74 488.565C424.87 482.955 446.54 478.995 466.61 469.775C469.84 468.295 473.33 466.735 475.33 471.715C476.03 473.455 476.99 476.685 479.25 474.395C480.68 472.945 486.27 473.075 483.07 468.435C482.11 467.035 481.92 464.995 484.01 465.365C489.32 466.315 492.46 462.465 496.59 460.755C504.45 457.495 509.34 460.795 510.84 469.285C511.73 474.325 510.65 479.205 510.55 484.155C510.48 487.665 510.01 491.635 513.57 493.685C517.18 495.765 519.33 492.185 521.94 490.545C523.78 489.385 526.97 486.455 527.79 489.035C530.37 497.125 538.65 496.265 543.54 500.455C545.04 501.745 546.75 503.655 548.89 501.945C551.19 500.105 550.22 497.665 549.15 495.525C548.23 493.705 546.99 492.045 545.97 490.275C539.26 478.565 533.79 466.885 541.61 453.245C544.35 448.465 540.43 445.395 536.22 444.405C525.26 441.815 518.21 430.855 503.86 432.395C509.8 426.075 516.18 424.565 519.01 419.135C513.12 419.625 508.38 423.235 504.41 426.675C499.6 430.845 494.44 428.525 489.58 429.645C486.87 430.265 486.83 426.425 486.49 424.475C484.83 415.095 490.47 405.305 484.91 396.105C491.91 392.065 488.03 382.525 492.58 378.795C496.81 375.325 504.5 373.595 510.01 374.625C525.13 377.445 534.81 371.625 541.76 358.985C542.45 357.735 543.64 356.745 544.68 355.725C545.05 355.355 545.68 355.245 547.03 355.425C543.64 360.205 550.06 369.275 538.9 370.865C535.34 371.375 535.4 374.365 538.38 376.505C541.94 379.065 541.83 382.495 540.43 385.925C537.15 394.005 536.94 403.985 527.03 408.175C529.58 411.065 532.3 407.185 534.95 408.335C532.15 416.015 522.69 413.585 518.77 419.345C525.25 418.165 532.07 418.655 538.66 415.085C536.66 423.005 530.85 430.355 536.39 438.005C542.7 422.905 541.81 406.455 548.34 391.655C550.95 393.235 549.48 397.435 553.69 399.015C551.47 393.475 556.69 386.205 547.78 383.555C547.55 383.485 547.32 382.185 547.53 382.025C552.31 378.315 551.12 370.405 553.25 368.315C558.5 363.155 556.83 358.585 556.61 353.275C556.24 344.145 564.01 336.335 569.5 340.615C577.91 347.185 587.67 343.085 596.28 346.345C599.1 347.405 602.21 343.255 601.54 342.065C598.6 336.845 601.26 327.785 591.6 326.875C589.88 326.715 587.38 326.825 586.39 324.425C587.02 321.745 592.45 323.415 591.12 320.675C589.26 316.825 585.03 313.935 580.83 313.355C574.64 312.495 570.45 316.225 568.91 322.575C561.17 316.275 561.477 310.872 569.83 306.365C572.83 304.755 572.74 301.535 573.84 298.905C578.7 287.365 580.74 273.495 597.07 271.495C598.68 271.295 600.13 268.915 601.46 267.375C610.18 257.285 614.97 243.915 627.13 236.685C628.63 235.795 628.04 234.275 627.98 232.775C627.66 225.735 632.51 221.905 638.77 224.865C642.69 226.725 645.73 226.935 649.45 224.965C651.74 223.755 654.37 223.395 657.11 224.265C668.9 228.025 676.82 245.895 671.23 256.855C675.35 257.295 679.38 257.715 685.52 258.365C681.77 256.495 679.86 255.545 677.8 254.515C680.41 250.955 683.19 248.595 687.53 250.965C692.23 253.525 692.85 259.205 696.33 262.835C698.05 264.625 694.89 264.265 694.01 264.975C683.39 273.505 683 274.765 687.2 287.735C687.65 284.065 688 281.185 688.35 278.315C688.62 276.125 690.38 275.595 692.06 275.105C693.97 274.545 695.75 274.885 696.16 277.105C697.57 284.805 700.87 279.745 702.94 277.895C708.08 273.305 712.6 273.365 718.68 276.875C723.97 279.925 729.08 286.155 736.92 281.705C738.72 280.685 740.78 283.155 740.99 285.315C741.67 292.505 746.42 286.555 749.05 287.775C751.25 288.795 753.89 287.125 754.26 284.415C754.83 280.215 750.51 281.785 748.78 280.275C746.02 277.855 742.84 275.625 742.91 271.285C742.95 269.105 743.37 266.265 745.55 266.355C751.57 266.625 754.87 260.435 760.17 261.405C756.64 251.395 747.61 250.005 739.63 249.615C736.71 249.475 732.92 251.815 731.16 248.395C729.15 244.495 729.18 240.455 733.84 236.915C737.77 233.925 735.56 230.165 731.24 229.465C724.07 228.305 717.61 224.465 709.69 231.795C704.17 236.905 701.77 238.215 706.89 244.425C709.06 247.055 711.21 251.855 708.84 254.775C706.33 257.855 702.37 254.785 699.19 253.505C698.43 253.195 697.82 252.505 697.12 251.965C698.18 249.565 701.72 252.465 702.07 249.705C702.44 246.725 699.42 247.145 697.72 246.395C694.82 245.115 691.36 244.745 689.85 241.335C689 239.405 688.48 238.845 686.2 240.465C681.45 243.825 678.33 239.465 676.29 236.475C673.61 232.555 670.33 227.705 674.05 222.765C678.73 216.545 684.91 211.175 692.84 211.145C701.51 211.115 707.43 209.925 708.53 199.755C708.88 196.585 711.98 190.465 715.91 193.815C722.25 199.205 730.01 199.205 736.86 202.215C741.88 204.425 741.8 206.005 738.44 209.475C736.59 211.385 732.16 212.315 733.91 215.935C735.57 219.375 739.73 218.405 742.74 218.025C759.47 215.945 772.71 228.055 788.67 229.135C791.24 229.305 793.31 231.735 793.09 234.845C792.98 236.445 792.38 237.845 794.99 237.005C801.62 234.875 809.02 236.085 816.2 231.955C809.71 230.575 810.39 223.475 805.5 220.845C799.81 217.775 794 214.385 800.26 207.015C793.81 203.255 787.4 208.735 781.87 205.715C775.96 202.485 771.23 202.885 766.28 208.445C773.07 208.015 774.9 214.675 780.02 216.985C767.3 218.985 755.54 214.595 743.57 212.955C743.38 210.575 744.71 209.865 745.87 209.005C748.07 207.385 752.19 207.275 751.54 203.315C750.96 199.755 747.26 199.825 744.61 198.825C738.31 196.455 732 194.125 725.69 191.765C722.06 190.405 720.02 187.455 719.11 184.015C718.01 179.865 722.04 178.815 724.37 176.825C730.2 171.865 737.18 171.635 744.32 171.995C746.6 172.115 749.09 173.565 752.45 170.925C745.72 169.605 738.05 170.995 738.88 161.495C738.92 161.075 736.98 160.045 735.96 160.045C721.07 160.135 705.01 154.915 692.21 170.205C705.49 167.565 717.76 164.945 732.65 164.365C720.46 168.785 714.04 177.255 705.53 182.785C703.37 184.185 702.46 186.385 702.4 188.795C702.15 199.555 694.87 204.415 685.94 204.735C678.43 205.005 674.42 207.845 671.39 215.565C670.23 211.455 669.73 208.895 668.79 206.525C664.25 195.115 661.8 194.935 653.87 204.325C650.97 207.755 649.35 213.885 644.12 213.635C637.27 213.305 630.77 215.625 624.05 215.125C616.64 214.565 611.4 216.165 610.76 224.985C610.37 230.425 605.51 231.995 601.17 232.345C597.8 232.615 591.68 236.625 591.87 228.165C589.15 228.405 587.33 223.395 585.52 225.435C580.21 231.435 579.16 225.255 575.98 221.925C576.71 230.235 573.99 234.385 565.94 233.235C564.78 233.065 563.46 234.665 562.12 234.885C555.68 235.935 549.14 237.685 542.7 235.525C537.21 233.675 532.33 231.805 528.04 238.035C526.08 240.875 521.53 240.285 518.95 239.605C510.2 237.285 502.55 239.375 495.72 244.285C492.73 246.435 491.89 251.205 487.19 251.985C486.37 252.125 485.25 254.375 486.3 255.815C487.42 257.345 488.91 256.415 490.25 255.865C498.07 252.685 505.66 260.365 513.62 256.425C514.19 256.145 515.73 258.445 517.04 258.875C520.69 260.065 525.84 260.755 527.01 257.015C529.41 249.325 531.14 258.375 532.9 256.755C530.24 260.835 537.07 265.435 531.95 269.595C526.18 274.295 519.86 277.185 513.07 273.415C511.42 272.495 511.14 270.185 509.68 272.955C507.77 276.575 504.91 275.825 501.73 275.955C496.86 276.155 491.94 276.275 487.44 279.225C480.72 283.625 474.18 287.745 464.96 286.865C461.92 286.575 457.4 285.195 453.77 287.055C442.43 292.855 429.68 295.785 419.46 303.875C417.49 305.435 413.79 306.655 415.39 309.685C417.12 312.975 420.58 310.885 423.3 310.175C433.93 307.395 443.88 301.075 456.55 304.285C437.76 315.775 415.76 316.615 397.01 326.645C404.9 321.475 414.3 325.755 421.98 322.315C439.78 314.355 439.61 314.675 453.12 314.745C460.63 314.785 469.37 321.685 475.98 312.055C476.67 311.045 478.84 311.735 479.73 313.145C480.74 314.745 479.76 315.805 478.51 316.805C476.13 318.715 472.71 319.625 471.95 323.235C474.22 325.055 477.41 322.035 479.27 325.055C482.74 330.685 486.17 331.865 490.86 329.215C497.56 325.425 501.19 326.645 505.96 326.355C513.19 325.915 513.98 330.865 516.51 334.835C515.69 333.745 515.78 332.775 517.08 332.225V332.165ZM202.47 310.555C205.46 320.325 197.04 325.355 194.93 332.695C193.77 336.715 192.12 340.265 194.17 344.465C195.79 347.785 195.4 351.575 194.24 354.805C187.59 373.215 192.1 392.315 190.16 410.955C189.35 418.715 192.44 425.985 191.65 432.765C190.96 438.655 193.37 447.075 185.11 451.495C179.09 454.715 185.7 457.295 187.09 459.435C190.35 464.485 190.26 458.465 191.84 457.595C198.08 454.155 197.61 447.085 200.42 441.805C202.07 438.705 203.56 436.015 207.64 437.185C211.43 438.275 210.95 441.355 210.92 444.355C210.81 455.045 203.68 461.415 196.16 466.955C192.13 469.925 188.87 464.615 185.56 462.825C180.45 460.055 178.11 454.285 179.76 449.175C187.58 424.925 183.93 399.985 184.38 375.415C184.76 354.935 188.81 334.985 190.04 314.685C190.12 313.345 191.24 312.065 192.77 308.915C195.45 322.145 199.26 313.685 202.47 310.545V310.555ZM202.27 334.745C203.41 328.485 205.27 322.965 209.79 318.415C210.62 317.575 210.05 314.935 212.31 316.075C213.77 316.815 215.81 318.785 214.41 320.255C206.6 328.455 212 338.315 211.96 346.905C211.92 355.915 216.77 365.305 220.85 373.885C224.52 381.595 222.96 389.155 219.32 394.735C216.77 398.655 212.24 401.905 209 406.225C206.53 409.525 202.51 405.485 201.58 401.955C200.56 398.055 200.65 393.865 200.13 388.535C205.4 371.585 198.93 353.045 202.27 334.755V334.745ZM473.2 425.565C464.39 426.615 455.69 427.215 447.1 424.705C444.73 424.015 441.11 425.065 440.24 421.955C439.32 418.655 441.11 414.725 443.6 413.425C452.83 408.635 455.48 399.725 459.13 391.265C460.12 388.965 460.88 386.295 464.53 386.435C467.79 386.555 467.65 389.215 469.01 390.925C474.04 397.275 471.42 404.485 471.66 411.305C471.89 417.815 474.18 419.825 480.03 416.035C481.6 422.305 479.31 424.825 473.21 425.555L473.2 425.565ZM255.94 221.515C251.95 233.845 251.75 237.055 262.94 243.835C273.39 250.165 274.43 258.885 275.14 270.195C269.98 264.765 270.72 257.775 267.08 253.355C263.41 248.895 259.12 244.275 251.72 244.225C259.26 249.195 257.44 255.765 255.79 262.375C249.91 261.315 253.23 255.415 250.87 252.615C247.3 252.555 248.17 259.785 243.64 257.015C238.54 253.895 238.83 246.055 240.09 243.805C244.8 235.425 247.02 225.405 255.6 217.345C255.83 219.915 256.17 220.805 255.94 221.525V221.515ZM355.19 448.205C357.99 444.285 362.15 448.145 363.98 442.565C365.55 437.765 373.11 438.415 378.84 439.345C383.13 440.045 387.22 441.185 386.36 445.835C383.85 459.475 395.62 461.095 404.7 468.215C395.28 467.145 389.51 463.245 383.86 459.065C381.77 457.515 379.89 455.505 377.57 454.505C375.66 453.685 372.42 454.375 374.54 457.295C377.88 461.895 373.65 463.295 371.64 466.875C366.68 459.035 367.45 448.295 355.18 448.205H355.19ZM223.77 197.555C222.24 198.765 220.64 199.105 218.88 198.455C216.7 197.655 215.26 195.655 215.8 193.685C217.18 188.675 215.18 184.645 213.05 180.495C212.67 179.755 212.51 178.725 212.68 177.925C214.12 171.275 217.59 165.165 213.39 157.735C211.55 154.485 216.62 153.675 219.39 154.805C226.99 157.895 228.51 171.005 221.52 176.215C232.19 181.725 232.76 190.415 223.76 197.555H223.77ZM563.2 269.195C563.39 265.565 560.39 263.585 559 261.005C565.14 256.395 572.13 256.775 578.68 254.445C579.48 259.535 574.6 260.035 574.09 264.835C582.86 259.725 590.87 255.065 598.99 250.335C600.64 254.025 598.95 256.925 596.95 257.805C586.59 262.355 579.06 271.825 567.16 273.895C560.47 275.055 555.47 275.955 552.26 268.225C550.8 264.705 546.76 262.345 545.54 255.435C551.91 262.025 555.04 269.005 563.2 269.205V269.195ZM424.1 411.045C428.84 402.245 435.65 395.335 445.89 393.005C450.07 392.055 451.82 394.525 449.69 397.855C445.16 404.935 440.27 411.765 436.47 419.305C435.44 421.345 432.98 421.075 431.95 421.015C425.53 421.045 421.52 415.835 424.1 411.045ZM418.76 398.155C417.21 388.475 420.87 380.525 429.23 379.975C440.02 379.265 447.88 372.415 457.51 369.505C462.95 367.865 466.85 368.495 471.98 371.255C452.17 377.035 433.53 383.505 418.76 398.155ZM234.7 407.105C233.54 409.275 231.48 411.115 228.95 409.895C225.73 408.345 229.46 406.485 229.23 404.915C227.79 394.985 236.66 385.595 230.66 375.425C229.83 374.025 229.47 371.795 231.27 370.605C233.61 369.065 234.98 371.135 236.43 372.515C239.82 375.755 241.29 379.745 241.06 384.795C240.08 392.285 238.46 400.015 234.69 407.105H234.7ZM272.91 155.535C267.62 160.045 261.63 163.805 259.52 171.245C258.77 173.895 256.19 176.195 252.78 175.865C250.68 175.655 248.71 174.565 248.04 172.435C246.92 168.885 249.46 167.815 251.9 165.815C254.88 163.375 256.6 159.245 258.51 155.665C261.81 149.495 267.58 148.935 273.52 148.605C275.13 148.515 276.39 149.075 276.58 151.275C276.46 153.365 274.42 154.255 272.9 155.545L272.91 155.535ZM210.75 219.315C210.5 223.065 209.87 226.795 209.32 230.515C209.08 232.105 209.49 234.475 206.99 234.445C204.56 234.415 203.63 232.485 203.47 230.225C203.45 229.935 203.47 229.645 203.48 229.355C203.62 221.185 207.81 212.725 201.74 205.005C206.74 198.955 203.09 191.115 206.56 184.505C211.76 195.765 211.53 207.525 210.74 219.325L210.75 219.315ZM422.43 461.695C422.11 456.175 433.05 447.185 438.38 448.625C442 449.605 444.83 451.675 445.23 455.645C445.65 459.805 442.42 460.965 439.23 461.865C435.31 462.975 431.37 463.975 428.14 464.845C424.88 465.185 422.62 464.995 422.43 461.705V461.695ZM404.15 428.505C401.34 430.675 398.98 433.435 399.29 437.365C399.46 439.535 399.51 442.565 397 441.805C393.53 440.755 390.29 438.305 387.49 435.855C384.99 433.665 387.78 432.305 389.28 431.195C395.44 426.645 400.95 421.605 402.81 413.525C411.3 420.945 411.35 422.965 404.15 428.505ZM203.73 151.875C200.58 143.735 205.32 135.625 203.77 127.385C202.94 122.985 205.65 123.735 208.68 125.245C214.51 128.165 216.24 134.885 222.51 140.175C219.97 132.975 218.19 127.765 216.28 122.605C215.77 121.225 214.85 119.995 216.28 118.665C217.03 117.975 232.79 118.225 233.49 118.945C238.48 124.095 254.98 127.245 259.61 122.585C266.73 115.415 274.88 109.395 282.35 102.095C271.86 99.9549 272.24 100.725 261.64 105.935C255.54 108.925 247.99 108.545 243.67 115.495C242.53 117.325 241.12 114.665 240.44 113.005C239.37 110.395 239.84 105.955 237.03 105.635C234.86 105.385 230.46 106.335 230.07 110.735C230.05 110.975 228.16 111.515 227.8 111.195C223.14 106.955 212.97 108.775 214.02 97.9749C214.41 93.9849 214.16 89.8549 214.83 85.8049C215.97 78.9549 213.8 73.0449 207.38 70.5049C201.04 68.0049 201.08 64.7149 203.83 59.8549L204.01 60.0349C202.05 59.4349 200.14 58.6349 198.14 58.2549C190.71 56.8649 187.13 62.6349 184.92 67.5049C182.5 72.8249 187.83 74.6849 192.21 76.1049C197.13 77.7049 199.75 81.1849 200.43 86.4149C201.89 97.5849 204.64 109.065 190.26 114.745C199.95 121.545 201.03 125.685 196.53 136.505C193.55 143.665 196.07 148.835 203.94 151.715L203.74 151.885L203.73 151.875ZM203.83 59.8549C212.48 61.7649 220.93 64.8749 230.22 63.6449C224.83 60.9549 219.2 58.9149 213.63 56.7149C210.39 55.4349 207.89 53.1749 212.37 50.7949C221.1 46.1449 227.97 39.2349 236.61 32.1249C224.94 36.3549 224.5 27.0649 221.13 21.5249C224.7 18.9849 228.37 22.0049 232.13 21.3849C240.31 20.0349 241.08 19.1349 234.99 14.9749C240.76 14.7549 243.49 10.7049 247.08 7.8449C251.45 4.3549 251.94 3.04489 245.83 0.714892C239.41 -1.72511 233.87 3.0049 228.09 1.2849C220.21 -1.0651 216.78 2.67489 214.59 9.49489C212.88 14.8349 209.98 18.3149 203.17 17.7149C195.14 17.0049 188.13 21.2349 180.92 24.6549C189.19 21.4349 193.73 29.9749 200.66 30.5449C201.22 33.2449 196.97 33.5249 197.94 37.2649C201.1 37.2649 204.51 37.2849 207.92 37.2649C209.6 37.2449 211.8 36.5249 212.34 38.7349C212.8 40.6349 210.93 41.8549 209.5 42.7849C205.17 45.5749 200.12 47.4449 196.82 52.9649C200.41 54.3649 206.21 53.8149 204 60.0449C204 60.0449 203.82 59.8649 203.83 59.8649V59.8549ZM127.1 18.5049C119.3 27.3749 110.73 35.1149 99.82 40.1049C97.71 41.0749 98.98 45.4749 99.41 45.4449C103.62 45.2049 107.6 47.3649 111.26 47.3649C118.48 47.3649 125.76 42.9749 131.67 40.1549C141.31 35.5549 149.01 31.3249 159.96 34.8449C163.15 35.8649 169.36 32.4049 169.27 27.8049C169.18 23.4849 164.1 26.0949 161.25 25.7449C155.04 24.9849 150.16 28.8649 144.7 30.7549C142.33 31.5749 138.34 33.0149 139.56 28.4449C140.78 23.8849 137.77 19.9149 139.06 15.1449C135.39 18.6849 130.05 15.1649 127.1 18.5149V18.5049ZM109.47 269.865C107.86 271.205 105.63 269.885 105.95 266.965C106.27 264.095 106.76 261.295 108.38 258.795C102.77 264.335 100.12 272.825 92.03 275.945C81.27 280.095 73.14 286.805 68.53 298.845C70.52 297.725 71.51 297.165 72.5 296.595C75.51 294.885 79.4 292.115 81.79 295.395C83.7 298.015 79.24 299.895 77.29 301.865C76.88 302.275 76.37 302.595 75.96 303.005C74.78 304.175 74.34 305.485 75.59 306.835C76.97 308.315 79.12 308.955 80.1 307.125C84.73 298.505 92.59 292.905 100.59 286.315C96.12 285.315 94.73 288.675 92.13 288.755C91.41 288.775 90.34 288.245 90.02 287.655C89.69 287.025 90 285.295 90.15 285.285C98.29 284.515 101.66 274.375 110.54 275.015C117.01 275.485 121.66 272.135 125.3 267.105L125.07 266.905C120.13 269.045 114.29 265.825 109.46 269.845L109.47 269.865ZM130.42 298.165C130.9 302.135 131.24 304.985 131.61 308.015C123.91 305.075 123.82 305.105 125.04 312.325C125.53 315.235 123.99 316.775 121.74 315.485C108.76 308.025 101.61 320.015 92.3 324.275C87.61 326.415 88.42 329.915 93.34 331.385C96.43 332.315 99.05 333.135 102.62 329.985C108.58 324.735 114.32 317.005 124.57 320.875C126.81 321.725 128.86 319.755 130.6 318.025C135.1 313.545 139.02 308.495 144.45 304.935C147.13 303.175 148.5 300.595 145.62 297.665C144.92 297.565 144.18 297.455 143.44 297.355C139.13 297.535 135.26 300.585 130.42 298.175V298.165ZM245.57 23.9849C243.08 25.3949 243 25.5849 246.31 27.4349C247.7 28.2149 247.82 29.2149 247.5 30.2149C246.65 32.8849 246.73 33.8549 250.08 32.9749C262.64 29.6849 272.93 39.4649 285.04 39.4149C287.13 39.4149 288.85 43.4349 291.68 40.2549C293.89 37.7749 294.57 35.1349 292.75 32.3049C291.07 29.7149 289.83 26.0949 285.73 26.8449C283.81 27.1949 281.95 29.0249 280.04 27.3249C273.4 21.3949 265.09 24.1449 259.74 22.8749C253.53 22.7649 249.39 21.8149 245.57 23.9749V23.9849ZM666.57 171.015C667.08 172.865 670.48 171.835 672.05 170.545C677.81 165.795 685.02 164.925 694.49 162.765C689.78 162.245 687.78 161.995 685.78 161.805C681.1 161.345 679.57 157.805 682.85 155.525C688.76 151.425 685.13 147.725 683.94 143.455C675.18 150.285 665.65 153.065 654.4 148.965C652.39 160.205 664.3 162.765 666.57 171.025V171.015ZM188.99 159.635C182.86 157.395 179.86 159.805 176.62 160.545C169.61 162.135 165.03 158.455 161.22 153.435C160.19 152.075 161.67 148.735 158.45 149.005C156.08 149.205 155.36 151.545 155.28 153.655C155.03 159.745 151.69 158.715 148.24 156.625C145.84 155.165 143.76 153.165 141.39 151.275C138.14 156.155 135.75 161.085 140.79 166.085C143.65 168.925 146.78 171.895 151.52 170.335C159.893 167.595 164.34 170.348 164.86 178.595C165.05 163.975 176.25 162.025 188.99 159.635ZM85.82 201.975C85.84 203.095 84.28 205.145 83.31 205.245C74.62 206.095 74.69 213.475 72.56 219.205C71.91 220.965 69.86 223.265 72.7 224.385C74.84 225.225 76.91 222.925 77.19 221.125C78.07 215.455 84.46 215.175 86.59 210.795C87.91 208.075 93.68 215.095 92.44 209.395C90.79 201.845 96.43 199.915 100.97 194.305C93.63 194.885 85.6 190.255 85.82 201.965V201.975Z" fill="white"/>
</mask>
<g mask="url(#mask0_53_119447)">
<path d="M1.58008 -102.855H0.580078V572.765H1.58008V-102.855Z" fill="#23A748"/>
<path d="M7.18945 -102.855H6.18945V572.765H7.18945V-102.855Z" fill="#23A748"/>
<path d="M12.8008 -102.855H11.8008V572.765H12.8008V-102.855Z" fill="#23A748"/>
<path d="M18.4102 -102.855H17.4102V572.765H18.4102V-102.855Z" fill="#23A748"/>
<path d="M24.0195 -102.855H23.0195V572.765H24.0195V-102.855Z" fill="#23A748"/>
<path d="M29.6406 -102.855H28.6406V572.765H29.6406V-102.855Z" fill="#23A748"/>
<path d="M35.25 -102.855H34.25V572.765H35.25V-102.855Z" fill="#23A748"/>
<path d="M40.8594 -102.855H39.8594V572.765H40.8594V-102.855Z" fill="#23A748"/>
<path d="M46.4707 -102.855H45.4707V572.765H46.4707V-102.855Z" fill="#23A748"/>
<path d="M52.0801 -102.855H51.0801V572.765H52.0801V-102.855Z" fill="#23A748"/>
<path d="M57.6895 -102.855H56.6895V572.765H57.6895V-102.855Z" fill="#23A748"/>
<path d="M63.3008 -102.855H62.3008V572.765H63.3008V-102.855Z" fill="#23A748"/>
<path d="M68.9102 -102.855H67.9102V572.765H68.9102V-102.855Z" fill="#23A748"/>
<path d="M74.5195 -102.855H73.5195V572.765H74.5195V-102.855Z" fill="#23A748"/>
<path d="M80.1309 -102.855H79.1309V572.765H80.1309V-102.855Z" fill="#23A748"/>
<path d="M85.7402 -102.855H84.7402V572.765H85.7402V-102.855Z" fill="#23A748"/>
<path d="M91.3496 -102.855H90.3496V572.765H91.3496V-102.855Z" fill="#23A748"/>
<path d="M96.9609 -102.855H95.9609V572.765H96.9609V-102.855Z" fill="#23A748"/>
<path d="M102.57 -102.855H101.57V572.765H102.57V-102.855Z" fill="#23A748"/>
<path d="M108.18 -102.855H107.18V572.765H108.18V-102.855Z" fill="#23A748"/>
<path d="M113.791 -102.855H112.791V572.765H113.791V-102.855Z" fill="#23A748"/>
<path d="M119.4 -102.855H118.4V572.765H119.4V-102.855Z" fill="#23A748"/>
<path d="M125.01 -102.855H124.01V572.765H125.01V-102.855Z" fill="#23A748"/>
<path d="M130.619 -102.855H129.619V572.765H130.619V-102.855Z" fill="#23A748"/>
<path d="M136.23 -102.855H135.23V572.765H136.23V-102.855Z" fill="#23A748"/>
<path d="M141.84 -102.855H140.84V572.765H141.84V-102.855Z" fill="#23A748"/>
<path d="M147.449 -102.855H146.449V572.765H147.449V-102.855Z" fill="#23A748"/>
<path d="M153.061 -102.855H152.061V572.765H153.061V-102.855Z" fill="#23A748"/>
<path d="M158.67 -102.855H157.67V572.765H158.67V-102.855Z" fill="#23A748"/>
<path d="M164.279 -102.855H163.279V572.765H164.279V-102.855Z" fill="#23A748"/>
<path d="M169.891 -102.855H168.891V572.765H169.891V-102.855Z" fill="#23A748"/>
<path d="M175.5 -102.855H174.5V572.765H175.5V-102.855Z" fill="#23A748"/>
<path d="M181.109 -102.855H180.109V572.765H181.109V-102.855Z" fill="#23A748"/>
<path d="M186.721 -102.855H185.721V572.765H186.721V-102.855Z" fill="#23A748"/>
<path d="M192.33 -102.855H191.33V572.765H192.33V-102.855Z" fill="#23A748"/>
<path d="M197.939 -102.855H196.939V572.765H197.939V-102.855Z" fill="#23A748"/>
<path d="M203.551 -102.855H202.551V572.765H203.551V-102.855Z" fill="#23A748"/>
<path d="M209.16 -102.855H208.16V572.765H209.16V-102.855Z" fill="#23A748"/>
<path d="M214.77 -102.855H213.77V572.765H214.77V-102.855Z" fill="#23A748"/>
<path d="M220.381 -102.855H219.381V572.765H220.381V-102.855Z" fill="#23A748"/>
<path d="M225.99 -102.855H224.99V572.765H225.99V-102.855Z" fill="#23A748"/>
<path d="M231.6 -102.855H230.6V572.765H231.6V-102.855Z" fill="#23A748"/>
<path d="M237.211 -102.855H236.211V572.765H237.211V-102.855Z" fill="#23A748"/>
<path d="M242.82 -102.855H241.82V572.765H242.82V-102.855Z" fill="#23A748"/>
<path d="M248.43 -102.855H247.43V572.765H248.43V-102.855Z" fill="#23A748"/>
<path d="M254.051 -102.855H253.051V572.765H254.051V-102.855Z" fill="#23A748"/>
<path d="M259.66 -102.855H258.66V572.765H259.66V-102.855Z" fill="#23A748"/>
<path d="M265.27 -102.855H264.27V572.765H265.27V-102.855Z" fill="#23A748"/>
<path d="M270.881 -102.855H269.881V572.765H270.881V-102.855Z" fill="#23A748"/>
<path d="M276.49 -102.855H275.49V572.765H276.49V-102.855Z" fill="#23A748"/>
<path d="M282.1 -102.855H281.1V572.765H282.1V-102.855Z" fill="#23A748"/>
<path d="M287.711 -102.855H286.711V572.765H287.711V-102.855Z" fill="#23A748"/>
<path d="M293.32 -102.855H292.32V572.765H293.32V-102.855Z" fill="#23A748"/>
<path d="M298.93 -102.855H297.93V572.765H298.93V-102.855Z" fill="#23A748"/>
<path d="M304.541 -102.855H303.541V572.765H304.541V-102.855Z" fill="#23A748"/>
<path d="M310.15 -102.855H309.15V572.765H310.15V-102.855Z" fill="#23A748"/>
<path d="M315.76 -102.855H314.76V572.765H315.76V-102.855Z" fill="#23A748"/>
<path d="M321.369 -102.855H320.369V572.765H321.369V-102.855Z" fill="#23A748"/>
<path d="M326.98 -102.855H325.98V572.765H326.98V-102.855Z" fill="#23A748"/>
<path d="M332.59 -102.855H331.59V572.765H332.59V-102.855Z" fill="#23A748"/>
<path d="M338.199 -102.855H337.199V572.765H338.199V-102.855Z" fill="#23A748"/>
<path d="M343.811 -102.855H342.811V572.765H343.811V-102.855Z" fill="#23A748"/>
<path d="M349.42 -102.855H348.42V572.765H349.42V-102.855Z" fill="#23A748"/>
<path d="M355.029 -102.855H354.029V572.765H355.029V-102.855Z" fill="#23A748"/>
<path d="M360.641 -102.855H359.641V572.765H360.641V-102.855Z" fill="#23A748"/>
<path d="M366.25 -102.855H365.25V572.765H366.25V-102.855Z" fill="#23A748"/>
<path d="M371.859 -102.855H370.859V572.765H371.859V-102.855Z" fill="#23A748"/>
<path d="M377.471 -102.855H376.471V572.765H377.471V-102.855Z" fill="#23A748"/>
<path d="M383.08 -102.855H382.08V572.765H383.08V-102.855Z" fill="#23A748"/>
<path d="M388.689 -102.855H387.689V572.765H388.689V-102.855Z" fill="#23A748"/>
<path d="M394.301 -102.855H393.301V572.765H394.301V-102.855Z" fill="#23A748"/>
<path d="M399.91 -102.855H398.91V572.765H399.91V-102.855Z" fill="#23A748"/>
<path d="M405.52 -102.855H404.52V572.765H405.52V-102.855Z" fill="#23A748"/>
<path d="M411.131 -102.855H410.131V572.765H411.131V-102.855Z" fill="#23A748"/>
<path d="M416.74 -102.855H415.74V572.765H416.74V-102.855Z" fill="#23A748"/>
<path d="M422.35 -102.855H421.35V572.765H422.35V-102.855Z" fill="#23A748"/>
<path d="M427.961 -102.855H426.961V572.765H427.961V-102.855Z" fill="#23A748"/>
<path d="M433.57 -102.855H432.57V572.765H433.57V-102.855Z" fill="#23A748"/>
<path d="M439.18 -102.855H438.18V572.765H439.18V-102.855Z" fill="#23A748"/>
<path d="M444.791 -102.855H443.791V572.765H444.791V-102.855Z" fill="#23A748"/>
<path d="M450.4 -102.855H449.4V572.765H450.4V-102.855Z" fill="#23A748"/>
<path d="M456.01 -102.855H455.01V572.765H456.01V-102.855Z" fill="#23A748"/>
<path d="M461.619 -102.855H460.619V572.765H461.619V-102.855Z" fill="#23A748"/>
<path d="M467.23 -102.855H466.23V572.765H467.23V-102.855Z" fill="#23A748"/>
<path d="M472.85 -102.855H471.85V572.765H472.85V-102.855Z" fill="#23A748"/>
<path d="M478.461 -102.855H477.461V572.765H478.461V-102.855Z" fill="#23A748"/>
<path d="M484.07 -102.855H483.07V572.765H484.07V-102.855Z" fill="#23A748"/>
<path d="M489.68 -102.855H488.68V572.765H489.68V-102.855Z" fill="#23A748"/>
<path d="M495.291 -102.855H494.291V572.765H495.291V-102.855Z" fill="#23A748"/>
<path d="M500.9 -102.855H499.9V572.765H500.9V-102.855Z" fill="#23A748"/>
<path d="M506.51 -102.855H505.51V572.765H506.51V-102.855Z" fill="#23A748"/>
<path d="M512.121 -102.855H511.121V572.765H512.121V-102.855Z" fill="#23A748"/>
<path d="M517.73 -102.855H516.73V572.765H517.73V-102.855Z" fill="#23A748"/>
<path d="M523.34 -102.855H522.34V572.765H523.34V-102.855Z" fill="#23A748"/>
<path d="M528.949 -102.855H527.949V572.765H528.949V-102.855Z" fill="#23A748"/>
<path d="M534.561 -102.855H533.561V572.765H534.561V-102.855Z" fill="#23A748"/>
<path d="M540.17 -102.855H539.17V572.765H540.17V-102.855Z" fill="#23A748"/>
<path d="M545.779 -102.855H544.779V572.765H545.779V-102.855Z" fill="#23A748"/>
<path d="M551.391 -102.855H550.391V572.765H551.391V-102.855Z" fill="#23A748"/>
<path d="M557 -102.855H556V572.765H557V-102.855Z" fill="#23A748"/>
<path d="M562.609 -102.855H561.609V572.765H562.609V-102.855Z" fill="#23A748"/>
<path d="M568.221 -102.855H567.221V572.765H568.221V-102.855Z" fill="#23A748"/>
<path d="M573.83 -102.855H572.83V572.765H573.83V-102.855Z" fill="#23A748"/>
<path d="M579.439 -102.855H578.439V572.765H579.439V-102.855Z" fill="#23A748"/>
<path d="M585.051 -102.855H584.051V572.765H585.051V-102.855Z" fill="#23A748"/>
<path d="M590.66 -102.855H589.66V572.765H590.66V-102.855Z" fill="#23A748"/>
<path d="M596.27 -102.855H595.27V572.765H596.27V-102.855Z" fill="#23A748"/>
<path d="M601.881 -102.855H600.881V572.765H601.881V-102.855Z" fill="#23A748"/>
<path d="M607.49 -102.855H606.49V572.765H607.49V-102.855Z" fill="#23A748"/>
<path d="M613.1 -102.855H612.1V572.765H613.1V-102.855Z" fill="#23A748"/>
<path d="M618.711 -102.855H617.711V572.765H618.711V-102.855Z" fill="#23A748"/>
<path d="M624.32 -102.855H623.32V572.765H624.32V-102.855Z" fill="#23A748"/>
<path d="M629.93 -102.855H628.93V572.765H629.93V-102.855Z" fill="#23A748"/>
<path d="M635.541 -102.855H634.541V572.765H635.541V-102.855Z" fill="#23A748"/>
<path d="M641.15 -102.855H640.15V572.765H641.15V-102.855Z" fill="#23A748"/>
<path d="M646.76 -102.855H645.76V572.765H646.76V-102.855Z" fill="#23A748"/>
<path d="M652.371 -102.855H651.371V572.765H652.371V-102.855Z" fill="#23A748"/>
<path d="M657.98 -102.855H656.98V572.765H657.98V-102.855Z" fill="#23A748"/>
<path d="M663.59 -102.855H662.59V572.765H663.59V-102.855Z" fill="#23A748"/>
<path d="M669.199 -102.855H668.199V572.765H669.199V-102.855Z" fill="#23A748"/>
<path d="M674.811 -102.855H673.811V572.765H674.811V-102.855Z" fill="#23A748"/>
<path d="M680.42 -102.855H679.42V572.765H680.42V-102.855Z" fill="#23A748"/>
<path d="M686.029 -102.855H685.029V572.765H686.029V-102.855Z" fill="#23A748"/>
<path d="M691.641 -102.855H690.641V572.765H691.641V-102.855Z" fill="#23A748"/>
<path d="M697.26 -102.855H696.26V572.765H697.26V-102.855Z" fill="#23A748"/>
<path d="M702.871 -102.855H701.871V572.765H702.871V-102.855Z" fill="#23A748"/>
<path d="M708.48 -102.855H707.48V572.765H708.48V-102.855Z" fill="#23A748"/>
<path d="M714.09 -102.855H713.09V572.765H714.09V-102.855Z" fill="#23A748"/>
<path d="M719.699 -102.855H718.699V572.765H719.699V-102.855Z" fill="#23A748"/>
<path d="M725.311 -102.855H724.311V572.765H725.311V-102.855Z" fill="#23A748"/>
<path d="M730.92 -102.855H729.92V572.765H730.92V-102.855Z" fill="#23A748"/>
<path d="M736.529 -102.855H735.529V572.765H736.529V-102.855Z" fill="#23A748"/>
<path d="M742.141 -102.855H741.141V572.765H742.141V-102.855Z" fill="#23A748"/>
<path d="M747.75 -102.855H746.75V572.765H747.75V-102.855Z" fill="#23A748"/>
<path d="M753.359 -102.855H752.359V572.765H753.359V-102.855Z" fill="#23A748"/>
<path d="M758.971 -102.855H757.971V572.765H758.971V-102.855Z" fill="#23A748"/>
<path d="M764.58 -102.855H763.58V572.765H764.58V-102.855Z" fill="#23A748"/>
<path d="M770.189 -102.855H769.189V572.765H770.189V-102.855Z" fill="#23A748"/>
<path d="M775.801 -102.855H774.801V572.765H775.801V-102.855Z" fill="#23A748"/>
<path d="M781.41 -102.855H780.41V572.765H781.41V-102.855Z" fill="#23A748"/>
<path d="M787.02 -102.855H786.02V572.765H787.02V-102.855Z" fill="#23A748"/>
<path d="M792.631 -102.855H791.631V572.765H792.631V-102.855Z" fill="#23A748"/>
<path d="M798.24 -102.855H797.24V572.765H798.24V-102.855Z" fill="#23A748"/>
<path d="M803.85 -102.855H802.85V572.765H803.85V-102.855Z" fill="#23A748"/>
<path d="M809.461 -102.855H808.461V572.765H809.461V-102.855Z" fill="#23A748"/>
<path d="M815.07 -102.855H814.07V572.765H815.07V-102.855Z" fill="#23A748"/>
<path d="M10.9692 -140.43L-51.0859 532.334L-50.0902 532.426L11.965 -140.338L10.9692 -140.43Z" fill="#3EB29C"/>
<path d="M16.561 -139.918L-45.4941 532.846L-44.4984 532.938L17.5568 -139.827L16.561 -139.918Z" fill="#3EB29C"/>
<path d="M22.1411 -139.408L-39.9141 533.356L-38.9183 533.448L23.1369 -139.316L22.1411 -139.408Z" fill="#3EB29C"/>
<path d="M27.7329 -138.887L-34.3223 533.877L-33.3265 533.969L28.7287 -138.795L27.7329 -138.887Z" fill="#3EB29C"/>
<path d="M33.3227 -138.375L-28.7324 534.389L-27.7366 534.481L34.3185 -138.283L33.3227 -138.375Z" fill="#3EB29C"/>
<path d="M38.9028 -137.845L-23.1523 534.919L-22.1566 535.011L39.8986 -137.753L38.9028 -137.845Z" fill="#3EB29C"/>
<path d="M44.4946 -137.333L-17.5605 535.431L-16.5648 535.523L45.4904 -137.242L44.4946 -137.333Z" fill="#3EB29C"/>
<path d="M50.0767 -136.823L-11.9785 535.941L-10.9827 536.033L51.0724 -136.731L50.0767 -136.823Z" fill="#3EB29C"/>
<path d="M55.6665 -136.301L-6.38867 536.463L-5.3929 536.555L56.6623 -136.209L55.6665 -136.301Z" fill="#3EB29C"/>
<path d="M61.2583 -135.79L-0.796875 536.974L0.198898 537.066L62.2541 -135.698L61.2583 -135.79Z" fill="#3EB29C"/>
<path d="M66.8384 -135.28L4.7832 537.484L5.77898 537.576L67.8341 -135.188L66.8384 -135.28Z" fill="#3EB29C"/>
<path d="M72.4302 -134.748L10.375 538.016L11.3708 538.107L73.4259 -134.657L72.4302 -134.748Z" fill="#3EB29C"/>
<path d="M78.02 -134.237L15.9648 538.527L16.9606 538.619L79.0158 -134.145L78.02 -134.237Z" fill="#3EB29C"/>
<path d="M83.602 -133.726L21.5469 539.038L22.5426 539.129L84.5978 -133.635L83.602 -133.726Z" fill="#3EB29C"/>
<path d="M89.1919 -133.205L27.1367 539.559L28.1325 539.651L90.1877 -133.113L89.1919 -133.205Z" fill="#3EB29C"/>
<path d="M94.7739 -132.694L32.7188 540.07L33.7145 540.162L95.7697 -132.602L94.7739 -132.694Z" fill="#3EB29C"/>
<path d="M100.354 -132.173L38.2988 540.591L39.2946 540.683L101.35 -132.081L100.354 -132.173Z" fill="#3EB29C"/>
<path d="M105.946 -131.652L43.8906 541.112L44.8864 541.204L106.942 -131.56L105.946 -131.652Z" fill="#3EB29C"/>
<path d="M111.536 -131.141L49.4805 541.624L50.4762 541.715L112.531 -131.049L111.536 -131.141Z" fill="#3EB29C"/>
<path d="M117.116 -130.62L55.0605 542.144L56.0563 542.236L118.111 -130.528L117.116 -130.62Z" fill="#3EB29C"/>
<path d="M122.708 -130.109L60.6523 542.655L61.6481 542.747L123.703 -130.017L122.708 -130.109Z" fill="#3EB29C"/>
<path d="M128.29 -129.598L66.2344 543.166L67.2301 543.258L129.285 -129.506L128.29 -129.598Z" fill="#3EB29C"/>
<path d="M133.879 -129.067L71.8242 543.697L72.82 543.789L134.875 -128.975L133.879 -129.067Z" fill="#3EB29C"/>
<path d="M139.471 -128.555L77.416 544.209L78.4118 544.301L140.467 -128.463L139.471 -128.555Z" fill="#3EB29C"/>
<path d="M145.051 -128.045L82.9961 544.719L83.9919 544.811L146.047 -127.953L145.051 -128.045Z" fill="#3EB29C"/>
<path d="M150.643 -127.523L88.5879 545.241L89.5837 545.333L151.639 -127.432L150.643 -127.523Z" fill="#3EB29C"/>
<path d="M156.233 -127.012L94.1777 545.752L95.1735 545.844L157.229 -126.92L156.233 -127.012Z" fill="#3EB29C"/>
<path d="M161.815 -126.492L99.7598 546.272L100.756 546.364L162.811 -126.4L161.815 -126.492Z" fill="#3EB29C"/>
<path d="M167.405 -125.97L105.35 546.794L106.345 546.886L168.401 -125.878L167.405 -125.97Z" fill="#3EB29C"/>
<path d="M172.997 -125.459L110.941 547.305L111.937 547.397L173.992 -125.367L172.997 -125.459Z" fill="#3EB29C"/>
<path d="M178.579 -124.949L116.523 547.815L117.519 547.907L179.574 -124.857L178.579 -124.949Z" fill="#3EB29C"/>
<path d="M184.168 -124.427L122.113 548.337L123.109 548.429L185.164 -124.335L184.168 -124.427Z" fill="#3EB29C"/>
<path d="M189.749 -123.907L127.693 548.857L128.689 548.949L190.744 -123.815L189.749 -123.907Z" fill="#3EB29C"/>
<path d="M195.34 -123.385L133.285 549.379L134.281 549.471L196.336 -123.293L195.34 -123.385Z" fill="#3EB29C"/>
<path d="M200.93 -122.874L138.875 549.89L139.871 549.982L201.926 -122.782L200.93 -122.874Z" fill="#3EB29C"/>
<path d="M206.512 -122.363L144.457 550.401L145.453 550.493L207.508 -122.271L206.512 -122.363Z" fill="#3EB29C"/>
<path d="M212.102 -121.842L150.047 550.922L151.043 551.014L213.098 -121.75L212.102 -121.842Z" fill="#3EB29C"/>
<path d="M217.694 -121.33L155.639 551.434L156.634 551.525L218.69 -121.239L217.694 -121.33Z" fill="#3EB29C"/>
<path d="M223.264 -120.81L161.209 551.954L162.205 552.046L224.26 -120.718L223.264 -120.81Z" fill="#3EB29C"/>
<path d="M228.866 -120.289L166.811 552.475L167.806 552.567L229.861 -120.197L228.866 -120.289Z" fill="#3EB29C"/>
<path d="M234.446 -119.777L172.391 552.987L173.386 553.079L235.442 -119.685L234.446 -119.777Z" fill="#3EB29C"/>
<path d="M240.028 -119.267L177.973 553.497L178.968 553.589L241.024 -119.175L240.028 -119.267Z" fill="#3EB29C"/>
<path d="M245.618 -118.746L183.562 554.019L184.558 554.11L246.613 -118.654L245.618 -118.746Z" fill="#3EB29C"/>
<path d="M251.2 -118.225L189.145 554.539L190.14 554.631L252.195 -118.133L251.2 -118.225Z" fill="#3EB29C"/>
<path d="M256.791 -117.714L194.736 555.05L195.732 555.142L257.787 -117.622L256.791 -117.714Z" fill="#3EB29C"/>
<path d="M262.381 -117.192L200.326 555.572L201.322 555.664L263.377 -117.1L262.381 -117.192Z" fill="#3EB29C"/>
<path d="M267.961 -116.682L205.906 556.082L206.902 556.174L268.957 -116.59L267.961 -116.682Z" fill="#3EB29C"/>
<path d="M273.553 -116.17L211.498 556.594L212.494 556.686L274.549 -116.078L273.553 -116.17Z" fill="#3EB29C"/>
<path d="M279.143 -115.639L217.088 557.125L218.084 557.217L280.139 -115.547L279.143 -115.639Z" fill="#3EB29C"/>
<path d="M284.725 -115.129L222.67 557.635L223.666 557.727L285.721 -115.037L284.725 -115.129Z" fill="#3EB29C"/>
<path d="M290.315 -114.607L228.26 558.157L229.256 558.249L291.311 -114.515L290.315 -114.607Z" fill="#3EB29C"/>
<path d="M295.907 -114.096L233.852 558.668L234.847 558.76L296.903 -114.004L295.907 -114.096Z" fill="#3EB29C"/>
<path d="M301.489 -113.585L239.434 559.179L240.429 559.271L302.485 -113.494L301.489 -113.585Z" fill="#3EB29C"/>
<path d="M307.079 -113.064L245.023 559.7L246.019 559.792L308.074 -112.973L307.079 -113.064Z" fill="#3EB29C"/>
<path d="M312.67 -112.543L250.615 560.221L251.611 560.313L313.666 -112.451L312.67 -112.543Z" fill="#3EB29C"/>
<path d="M318.25 -112.032L256.195 560.732L257.191 560.824L319.246 -111.94L318.25 -112.032Z" fill="#3EB29C"/>
<path d="M323.84 -111.511L261.785 561.253L262.781 561.345L324.836 -111.419L323.84 -111.511Z" fill="#3EB29C"/>
<path d="M329.422 -111L267.367 561.764L268.363 561.856L330.418 -110.909L329.422 -111Z" fill="#3EB29C"/>
<path d="M335.014 -110.489L272.959 562.275L273.955 562.367L336.01 -110.397L335.014 -110.489Z" fill="#3EB29C"/>
<path d="M340.604 -109.958L278.549 562.806L279.545 562.898L341.6 -109.866L340.604 -109.958Z" fill="#3EB29C"/>
<path d="M346.186 -109.447L284.131 563.317L285.127 563.409L347.182 -109.355L346.186 -109.447Z" fill="#3EB29C"/>
<path d="M351.776 -108.936L289.721 563.828L290.716 563.92L352.772 -108.844L351.776 -108.936Z" fill="#3EB29C"/>
<path d="M357.368 -108.414L295.312 564.35L296.308 564.441L358.363 -108.323L357.368 -108.414Z" fill="#3EB29C"/>
<path d="M362.938 -107.904L300.883 564.86L301.879 564.952L363.934 -107.812L362.938 -107.904Z" fill="#3EB29C"/>
<path d="M368.528 -107.383L306.473 565.381L307.468 565.473L369.524 -107.291L368.528 -107.383Z" fill="#3EB29C"/>
<path d="M374.12 -106.861L312.064 565.903L313.06 565.995L375.115 -106.769L374.12 -106.861Z" fill="#3EB29C"/>
<path d="M379.702 -106.351L317.646 566.413L318.642 566.505L380.697 -106.259L379.702 -106.351Z" fill="#3EB29C"/>
<path d="M385.291 -105.83L323.236 566.935L324.232 567.026L386.287 -105.738L385.291 -105.83Z" fill="#3EB29C"/>
<path d="M390.872 -105.319L328.816 567.445L329.812 567.537L391.867 -105.227L390.872 -105.319Z" fill="#3EB29C"/>
<path d="M396.463 -104.808L334.408 567.957L335.404 568.048L397.459 -104.716L396.463 -104.808Z" fill="#3EB29C"/>
<path d="M402.053 -104.276L339.998 568.488L340.994 568.58L403.049 -104.184L402.053 -104.276Z" fill="#3EB29C"/>
<path d="M407.635 -103.766L345.58 568.998L346.576 569.09L408.631 -103.674L407.635 -103.766Z" fill="#3EB29C"/>
<path d="M413.227 -103.254L351.172 569.51L352.168 569.602L414.223 -103.162L413.227 -103.254Z" fill="#3EB29C"/>
<path d="M418.817 -102.733L356.762 570.031L357.757 570.123L419.813 -102.641L418.817 -102.733Z" fill="#3EB29C"/>
<path d="M424.399 -102.223L362.344 570.542L363.34 570.633L425.395 -102.131L424.399 -102.223Z" fill="#3EB29C"/>
<path d="M429.989 -101.701L367.934 571.063L368.929 571.155L430.985 -101.609L429.989 -101.701Z" fill="#3EB29C"/>
<path d="M435.581 -101.18L373.525 571.584L374.521 571.676L436.576 -101.088L435.581 -101.18Z" fill="#3EB29C"/>
<path d="M441.161 -100.669L379.105 572.095L380.101 572.187L442.156 -100.578L441.161 -100.669Z" fill="#3EB29C"/>
<path d="M446.75 -100.148L384.695 572.616L385.691 572.708L447.746 -100.056L446.75 -100.148Z" fill="#3EB29C"/>
<path d="M452.333 -99.6376L390.277 573.126L391.273 573.218L453.328 -99.5458L452.333 -99.6376Z" fill="#3EB29C"/>
<path d="M457.924 -99.1264L395.869 573.638L396.865 573.73L458.92 -99.0345L457.924 -99.1264Z" fill="#3EB29C"/>
<path d="M463.514 -98.5946L401.459 574.169L402.455 574.261L464.51 -98.5028L463.514 -98.5946Z" fill="#3EB29C"/>
<path d="M469.096 -98.0844L407.041 574.68L408.037 574.772L470.092 -97.9925L469.096 -98.0844Z" fill="#3EB29C"/>
<path d="M474.686 -97.5732L412.631 575.191L413.627 575.283L475.682 -97.4813L474.686 -97.5732Z" fill="#3EB29C"/>
<path d="M480.278 -97.0517L418.223 575.712L419.218 575.804L481.274 -96.9598L480.278 -97.0517Z" fill="#3EB29C"/>
<path d="M485.848 -96.5414L423.793 576.223L424.789 576.315L486.844 -96.4496L485.848 -96.5414Z" fill="#3EB29C"/>
<path d="M491.44 -96.0199L429.385 576.744L430.381 576.836L492.436 -95.9281L491.44 -96.0199Z" fill="#3EB29C"/>
<path d="M497.03 -95.4985L434.975 577.266L435.97 577.357L498.026 -95.4066L497.03 -95.4985Z" fill="#3EB29C"/>
<path d="M502.612 -94.9877L440.557 577.776L441.552 577.868L503.608 -94.8959L502.612 -94.9877Z" fill="#3EB29C"/>
<path d="M508.202 -94.4765L446.146 578.288L447.142 578.379L509.197 -94.3846L508.202 -94.4765Z" fill="#3EB29C"/>
<path d="M513.784 -93.956L451.729 578.808L452.724 578.9L514.779 -93.8641L513.784 -93.956Z" fill="#3EB29C"/>
<path d="M519.374 -93.435L457.318 579.329L458.314 579.421L520.369 -93.3431L519.374 -93.435Z" fill="#3EB29C"/>
<path d="M524.963 -92.9135L462.908 579.851L463.904 579.942L525.959 -92.8216L524.963 -92.9135Z" fill="#3EB29C"/>
<path d="M530.545 -92.4028L468.49 580.361L469.486 580.453L531.541 -92.3109L530.545 -92.4028Z" fill="#3EB29C"/>
<path d="M536.137 -91.8915L474.082 580.873L475.078 580.964L537.133 -91.7997L536.137 -91.8915Z" fill="#3EB29C"/>
<path d="M541.727 -91.37L479.672 581.394L480.668 581.486L542.723 -91.2782L541.727 -91.37Z" fill="#3EB29C"/>
<path d="M547.309 -90.8598L485.254 581.904L486.25 581.996L548.305 -90.7679L547.309 -90.8598Z" fill="#3EB29C"/>
<path d="M552.899 -90.3383L490.844 582.426L491.84 582.518L553.895 -90.2465L552.899 -90.3383Z" fill="#3EB29C"/>
<path d="M558.491 -89.8168L496.436 582.947L497.431 583.039L559.486 -89.725L558.491 -89.8168Z" fill="#3EB29C"/>
<path d="M564.071 -89.3066L502.016 583.458L503.011 583.549L565.067 -89.2147L564.071 -89.3066Z" fill="#3EB29C"/>
<path d="M569.663 -88.7953L507.607 583.969L508.603 584.061L570.658 -88.7035L569.663 -88.7953Z" fill="#3EB29C"/>
<path d="M575.252 -88.2738L513.197 584.49L514.193 584.582L576.248 -88.182L575.252 -88.2738Z" fill="#3EB29C"/>
<path d="M580.834 -87.7533L518.779 585.011L519.775 585.103L581.83 -87.6615L580.834 -87.7533Z" fill="#3EB29C"/>
<path d="M586.426 -87.2416L524.371 585.522L525.367 585.614L587.422 -87.1498L586.426 -87.2416Z" fill="#3EB29C"/>
<path d="M592.006 -86.7216L529.951 586.042L530.947 586.134L593.002 -86.6298L592.006 -86.7216Z" fill="#3EB29C"/>
<path d="M597.596 -86.2099L535.541 586.554L536.537 586.646L598.592 -86.118L597.596 -86.2099Z" fill="#3EB29C"/>
<path d="M603.188 -85.6889L541.133 587.075L542.129 587.167L604.184 -85.597L603.188 -85.6889Z" fill="#3EB29C"/>
<path d="M608.768 -85.1781L546.713 587.586L547.709 587.678L609.764 -85.0863L608.768 -85.1781Z" fill="#3EB29C"/>
<path d="M614.36 -84.6567L552.305 588.107L553.3 588.199L615.356 -84.5648L614.36 -84.6567Z" fill="#3EB29C"/>
<path d="M619.94 -84.1357L557.885 588.628L558.881 588.72L620.936 -84.0438L619.94 -84.1357Z" fill="#3EB29C"/>
<path d="M625.522 -83.6249L563.467 589.139L564.463 589.231L626.518 -83.5331L625.522 -83.6249Z" fill="#3EB29C"/>
<path d="M631.112 -83.1137L569.057 589.65L570.052 589.742L632.108 -83.0218L631.112 -83.1137Z" fill="#3EB29C"/>
<path d="M636.704 -82.5922L574.648 590.172L575.644 590.264L637.699 -82.5004L636.704 -82.5922Z" fill="#3EB29C"/>
<path d="M642.284 -82.0717L580.229 590.692L581.224 590.784L643.279 -81.9798L642.284 -82.0717Z" fill="#3EB29C"/>
<path d="M647.875 -81.5605L585.82 591.204L586.816 591.295L648.871 -81.4686L647.875 -81.5605Z" fill="#3EB29C"/>
<path d="M653.465 -81.039L591.41 591.725L592.406 591.817L654.461 -80.9471L653.465 -81.039Z" fill="#3EB29C"/>
<path d="M659.047 -80.5287L596.992 592.235L597.988 592.327L660.043 -80.4369L659.047 -80.5287Z" fill="#3EB29C"/>
<path d="M664.639 -80.017L602.584 592.747L603.58 592.839L665.635 -79.9252L664.639 -80.017Z" fill="#3EB29C"/>
<path d="M670.219 -79.4867L608.164 593.277L609.16 593.369L671.215 -79.3949L670.219 -79.4867Z" fill="#3EB29C"/>
<path d="M675.809 -78.9754L613.754 593.789L614.75 593.88L676.805 -78.8836L675.809 -78.9754Z" fill="#3EB29C"/>
<path d="M681.401 -78.4643L619.346 594.3L620.341 594.392L682.397 -78.3724L681.401 -78.4643Z" fill="#3EB29C"/>
<path d="M686.981 -77.9438L624.926 594.82L625.922 594.912L687.977 -77.8519L686.981 -77.9438Z" fill="#3EB29C"/>
<path d="M692.573 -77.432L630.518 595.332L631.513 595.424L693.569 -77.3402L692.573 -77.432Z" fill="#3EB29C"/>
<path d="M698.163 -76.9106L636.107 595.854L637.103 595.945L699.158 -76.8187L698.163 -76.9106Z" fill="#3EB29C"/>
<path d="M703.745 -76.3905L641.689 596.374L642.685 596.465L704.74 -76.2987L703.745 -76.3905Z" fill="#3EB29C"/>
<path d="M709.336 -75.8788L647.281 596.885L648.277 596.977L710.332 -75.787L709.336 -75.8788Z" fill="#3EB29C"/>
<path d="M714.916 -75.3588L652.861 597.405L653.857 597.497L715.912 -75.267L714.916 -75.3588Z" fill="#3EB29C"/>
<path d="M720.506 -74.8471L658.451 597.917L659.447 598.009L721.502 -74.7552L720.506 -74.8471Z" fill="#3EB29C"/>
<path d="M726.098 -74.3359L664.043 598.428L665.039 598.52L727.094 -74.244L726.098 -74.3359Z" fill="#3EB29C"/>
<path d="M731.678 -73.8052L669.623 598.959L670.619 599.051L732.674 -73.7133L731.678 -73.8052Z" fill="#3EB29C"/>
<path d="M737.27 -73.2939L675.215 599.47L676.211 599.562L738.266 -73.202L737.27 -73.2939Z" fill="#3EB29C"/>
<path d="M742.862 -72.7826L680.807 599.981L681.802 600.073L743.858 -72.6908L742.862 -72.7826Z" fill="#3EB29C"/>
<path d="M748.432 -72.2622L686.377 600.502L687.373 600.594L749.428 -72.1703L748.432 -72.2622Z" fill="#3EB29C"/>
<path d="M754.022 -71.7509L691.967 601.013L692.963 601.105L755.018 -71.659L754.022 -71.7509Z" fill="#3EB29C"/>
<path d="M759.614 -71.2392L697.559 601.525L698.554 601.617L760.61 -71.1473L759.614 -71.2392Z" fill="#3EB29C"/>
<path d="M765.194 -70.7088L703.139 602.055L704.134 602.147L766.19 -70.617L765.194 -70.7088Z" fill="#3EB29C"/>
<path d="M770.786 -70.1977L708.73 602.566L709.726 602.658L771.781 -70.1058L770.786 -70.1977Z" fill="#3EB29C"/>
<path d="M776.375 -69.6762L714.32 603.088L715.316 603.18L777.371 -69.5843L776.375 -69.6762Z" fill="#3EB29C"/>
<path d="M781.958 -69.1654L719.902 603.599L720.898 603.69L782.953 -69.0736L781.958 -69.1654Z" fill="#3EB29C"/>
<path d="M787.549 -68.6543L725.494 604.11L726.49 604.202L788.545 -68.5624L787.549 -68.6543Z" fill="#3EB29C"/>
<path d="M793.129 -68.1239L731.074 604.64L732.07 604.732L794.125 -68.0321L793.129 -68.1239Z" fill="#3EB29C"/>
<path d="M798.719 -67.6127L736.664 605.151L737.66 605.243L799.715 -67.5209L798.719 -67.6127Z" fill="#3EB29C"/>
<path d="M804.311 -67.1011L742.256 605.663L743.252 605.755L805.307 -67.0092L804.311 -67.1011Z" fill="#3EB29C"/>
<path d="M809.891 -66.5805L747.836 606.184L748.832 606.275L810.887 -66.4886L809.891 -66.5805Z" fill="#3EB29C"/>
<path d="M815.483 -66.0693L753.428 606.695L754.424 606.787L816.479 -65.9774L815.483 -66.0693Z" fill="#3EB29C"/>
<path d="M821.075 -65.5477L759.02 607.216L760.015 607.308L822.07 -65.4559L821.075 -65.5477Z" fill="#3EB29C"/>
<path d="M826.655 -65.0273L764.6 607.737L765.595 607.829L827.651 -64.9354L826.655 -65.0273Z" fill="#3EB29C"/>
<path d="M832.247 -64.516L770.191 608.248L771.187 608.34L833.242 -64.4242L832.247 -64.516Z" fill="#3EB29C"/>
<path d="M837.836 -64.0047L775.781 608.759L776.777 608.851L838.832 -63.9129L837.836 -64.0047Z" fill="#3EB29C"/>
<path d="M843.417 -63.4844L781.361 609.28L782.357 609.372L844.412 -63.3925L843.417 -63.4844Z" fill="#3EB29C"/>
<path d="M849.008 -62.9628L786.953 609.801L787.949 609.893L850.004 -62.871L849.008 -62.9628Z" fill="#3EB29C"/>
<path d="M854.588 -62.4422L792.533 610.322L793.529 610.414L855.584 -62.3504L854.588 -62.4422Z" fill="#3EB29C"/>
</g>
</svg>
