<svg width="768" height="582" viewBox="0 0 768 582" fill="none" xmlns="http://www.w3.org/2000/svg">
<mask id="mask0_52_12624" style="mask-type:luminance" maskUnits="userSpaceOnUse" x="0" y="0" width="768" height="582">
<path d="M694.062 334.165C706.113 339.571 705.564 348.644 703.966 358.844C702.903 365.651 701.009 365.376 695.779 362.624C687.544 358.288 673.747 363.271 670.734 370.803C669.643 373.541 672.128 373.408 673.135 374.266C676.851 377.455 677.316 380.2 671.832 381.108C663.625 382.474 663.167 388.26 663.498 394.546C663.794 400.241 662.358 405.224 660.063 410.532C656.156 419.556 660.858 426.37 670.664 427.489C671.966 427.637 672.656 427.658 673.585 428.875C679.885 437.132 675.436 462.937 666.279 468.864C662.822 471.103 662.435 474.01 662.435 477.572C662.435 483.499 661.182 489.594 662.182 495.317C663.97 505.594 660.176 508.016 651.208 504.75C646.105 502.891 643.043 504.75 640.713 509.149C638.89 512.598 640.29 518.659 633.962 518.581C626.536 518.497 629.359 510.324 625.403 507.129C621.672 507.819 620.405 512.07 621.278 513.689C626.008 522.46 615.956 524.916 613.429 529.689C610.93 534.405 600.949 533.61 594.086 528.57C590.735 526.113 584.808 524.346 580.81 526.845C571.392 532.744 562.804 527.556 559.644 521.517C554.076 510.881 541.342 515.167 535.817 506.742C533.423 509.107 521.774 503.518 529.256 514.372C524.174 517.145 519.099 522.129 514.01 522.143C507.266 522.164 500.685 522.777 494.019 523.333C489.753 523.685 485.783 523.297 484.551 517.378C483.193 510.859 476.871 507.755 471.839 509.733C466.278 511.915 468.185 518.448 469.832 523.473C470.635 525.916 471.458 528.359 472.198 530.822C473.598 535.454 470.959 537.101 467.003 537.636C463.913 538.051 461.146 540.05 459.105 534.659C454.649 522.889 454.339 523.445 445.843 529.583C441.437 532.765 436.728 528.661 432.786 527.084C421.481 522.565 413.851 528.302 407.051 535.447C403.144 539.558 402.124 544.098 410.873 544.816C414.815 545.14 420.291 548.012 413.583 553.073C407.818 557.423 414.843 559.309 415.28 562.463C415.913 567.066 418.173 571.431 417.159 576.28C411.556 569.558 407.009 586.6 400.976 576.949C399.463 574.521 397.281 577.745 395.331 578.068C375.833 581.299 373.707 580.06 367.555 560.443C368.083 579.033 356.074 576.076 345.044 576.203C301.803 576.696 263.426 564.694 231.813 532.821C240.26 532.821 248.524 532.554 256.76 532.899C264.77 533.23 266.629 530.308 263.665 522.946C258.118 509.128 254.676 494.747 252.107 478.128C262.616 486.096 260.068 498.548 268.48 507.896C270.437 495.549 272.337 484.963 273.724 474.306C274.491 468.428 271.169 466.732 265.728 468.055C256.492 470.3 252.184 465.957 246.8 458.221C242.133 451.52 236.368 448.008 243.104 439.645C245.49 436.682 242.252 433.43 240.781 430.326C238.268 424.997 231.293 421.421 234.742 413.397C235.671 411.243 231.363 404.999 229.139 406.449C225.506 408.821 223.683 414.093 221.417 418.31C221.065 418.971 222.437 420.513 222.937 421.682C228.392 434.352 225.077 442.172 210.788 444.601C209.211 444.868 203.481 445.741 207.254 450.422C210.232 454.111 216.63 457.539 206.951 460.819C203.664 461.931 202.13 464.852 197.639 465.999C184.314 469.406 178.69 460.115 170.764 454.681C167.695 452.583 164.647 447.219 161.824 451.302C157.08 458.151 166.378 452.921 166.885 455.751C167.448 458.89 168.272 462.255 167.659 465.246C167.124 467.851 163.999 465.429 162.176 466.218C158.868 458.151 149.154 461.29 144.142 455.786C138.813 449.922 138.722 442.693 137.441 434.795C134.231 438.019 127.143 437.583 130.747 444.756C131.894 447.05 138.405 448.184 132.485 451.703C128.769 453.913 124.299 454.772 121.089 450.162C119.217 447.473 119.618 441.475 113.487 445.206C109.855 447.416 103.245 446.952 105.659 454.322C96.1355 456.722 97.9164 469.681 88.8712 474.003C88.6248 471.659 88.2095 470.688 88.5192 470.124C91.0533 465.556 93.7563 460.995 90.5465 455.722C89.4906 453.984 87.3155 454.026 86.0626 455.258C81.9095 459.326 82.8809 464.817 82.8105 469.85C82.7612 473.651 84.1479 477.515 83.8171 481.26C83.62 483.513 85.3516 488.088 80.5088 487.856C76.9892 487.687 75.9122 484.885 75.9122 481.387C75.9122 471.983 75.2506 462.571 75.5532 453.181C75.8067 445.185 70.4781 438.568 70.9567 430.375C71.1257 427.489 67.1486 422.667 64.1288 421.724C60.4193 420.569 60.1377 426.243 58.0964 428.728C57.125 429.903 57.9415 432.346 54.8795 432.543C50.3604 427.658 52.1554 421.048 50.8321 414.811C49.7199 415.044 48.5373 415.17 47.4392 415.551C41.5757 417.599 38.0562 424.765 30.8552 423.547C28.8279 423.202 26.8288 396.214 28.6449 393.617C29.4966 392.392 31.2986 391.055 32.622 391.104C35.325 391.209 35.4587 393.849 35.6418 395.919C36.3245 403.76 40.3157 401.845 42.0051 397.242C45.6372 387.324 49.389 395.553 52.5707 396.869C54.3164 397.587 51.1066 404.436 56.583 402.134C61.0246 400.269 64.5723 396.256 68.4719 393.145C68.662 392.997 68.486 391.991 68.4227 391.984C52.8804 390.59 67.1064 375.702 58.0119 369.107C52.7537 365.299 50.5223 352.938 60.5741 345.033C67.0219 339.965 59.0326 330.469 63.9247 323.895C60.0391 322.248 56.9349 312.295 51.9231 323.606C49.3116 329.498 42.6738 329.449 40.0693 323.606C35.867 314.16 29.8416 313.498 21.1694 315.863C17.2135 316.94 12.4269 316.462 12.6662 309.767C12.9337 302.327 17.9667 306.938 21.3243 306.086C16.4181 296.295 8.86515 288.707 2.00206 280.584C-3.60104 273.953 4.52204 267.547 2.76228 260.149C1.79089 256.052 3.05792 249.661 3.614 244.353C4.2264 238.462 3.09311 230.881 11.6878 228.818C12.0398 228.734 12.5114 228.283 12.5747 227.938C14.8061 215.205 25.1676 214.283 35.3179 211.39C25.5055 208.595 15.7001 205.801 5.95097 203.027C5.33857 199.536 9.40715 200.204 9.6676 198.994C11.2373 191.582 15.1229 192.687 19.5575 195.988C21.986 197.797 24.0906 200.542 27.0189 197.086C29.5107 194.151 26.6458 192.926 25.0268 190.976C20.1136 185.042 26.2516 180.868 28.666 177.152C32.8824 170.669 34.0509 178.848 36.8384 179.96C39.1754 180.889 42.357 181.797 43.9267 179.657C46.855 175.666 42.9624 175.061 40.3157 173.829C39.295 173.35 38.9571 171.499 37.9435 170.915C20.6345 160.976 20.2051 159.132 31.9673 143.73C36.4794 137.817 55.2244 137.106 60.7008 144.913C67.1627 154.127 73.1952 147.081 77.5805 145.532C80.7973 144.399 85.4854 138.669 82.9865 130.694C80.4313 122.521 76.954 113.138 81.3182 103.819C81.9517 102.46 81.5716 100.412 83.4018 99.8063C91.004 97.3074 98.9511 92.4012 105.856 92.3308C112.98 92.2604 120.455 81.3358 127.846 92.6265C126.784 85.2425 129.782 78.1189 121.554 73.2409C119.083 71.7767 116.133 64.2308 122.335 59.9933C125.333 57.945 125.868 54.9182 123.018 52.4263C119.984 49.7796 117.091 49.0054 115.542 54.3621C114.536 57.8394 112.009 55.7277 110.474 54.6578C101.161 48.1677 90.1311 43.8317 82.0151 31.4992C92.7708 37.1797 101.478 27.325 110.791 32.8507C111.509 33.273 115.028 30.9924 115.549 29.4086C118.991 19.0049 126.41 20.4549 135.097 20.7154C147.267 21.0814 147.985 31.457 147.88 37.1516C147.76 43.4868 146.69 54.9604 134.16 53.5033C130.507 53.074 130.275 55.8966 129.219 58.135C127.945 60.824 127.762 62.7034 131.077 64.245C137.356 67.1591 139.827 71.4107 134.667 77.6332C132.499 80.2518 134.688 81.9411 136.709 81.9482C141.404 81.9622 142.389 84.9679 143.121 88.4804C143.846 92.007 146.064 94.3721 149.414 92.7883C153.096 91.0497 150.716 88.7127 148.696 86.9459C145.493 84.1444 149.069 82.6028 149.914 80.6037C151.336 77.225 154.271 77.7177 156.376 79.1185C160.592 81.913 166.779 84.616 167.934 88.579C171.207 99.8345 178.69 105.663 188.622 109.731C189.41 110.055 190.346 110.358 190.867 110.963C196.489 117.481 204.779 117.981 215.736 112.463C202.594 105.628 201.433 91.113 194.746 80.2377C193.443 78.1119 198.983 71.1573 205.832 74.0011C211.02 76.155 216.327 77.7318 221.522 73.1423C218.643 66.3989 207.205 70.3689 206.818 60.8028C212.836 59.2542 218.369 62.2036 225.647 63.5059C222.522 54.9534 225.929 47.1119 223.141 39.0381C229.505 44.5285 239.197 44.7819 241.788 54.5803C255.901 30.6334 277.588 23.5451 304.267 35.9831C298.473 30.3166 299.67 23.1931 290.759 24.1082C286.922 24.5024 287.112 19.4835 289.097 16.2808C290.695 13.6974 291.744 8.53074 296.045 13.4581C299.776 17.7308 300.874 15.1897 304.928 13.1554C310.764 10.2272 318.908 12.5782 324.3 18.3573C329.002 23.4043 332.029 24.4109 334.647 16.2526C336.702 9.8541 347.261 8.96716 346.487 -0.000604807C352.364 1.84363 358.474 3.19515 364.035 5.73625C366.9 7.04551 368.329 10.0864 367.175 14.338C365.014 22.2851 358.925 18.315 354.061 19.4906C354.927 21.7642 356.44 23.9252 356.384 26.051C356.306 28.8666 355.983 31.6259 359.291 32.1116C366.443 33.1604 359.03 27.3391 361.621 26.6282C368.146 24.8473 371.285 15.0419 380.549 19.3991C387.616 22.7215 386.398 12.7401 392.001 11.7757C393.416 11.9095 389.2 22.0809 396.584 15.0771C402.553 9.40357 406.72 11.7054 407.621 19.4976C408.177 24.3123 410.402 26.783 415.019 25.6216C419.989 24.3686 426.796 26.7478 429.111 19.6173C429.548 18.2658 429.71 17.0762 431.082 17.59C432.575 18.1531 434.355 19.1597 435.045 20.476C439.114 28.2613 439.029 28.0641 446.104 28.2894C447.687 28.3387 449.18 30.8305 450.728 32.182C456.275 37.0108 458.394 44.5989 468.889 45.3873C474.225 45.7885 474.893 59.3387 476.449 67.328C477.09 70.6223 473.852 73.8181 475.907 77.2743C479.983 74.5712 486.923 65.1318 489.408 59.2542C489.851 58.2124 491.717 56.6568 491.815 56.7342C499.22 62.647 509.258 51.9547 516.304 60.662C517.754 62.457 520.859 65.3923 522.822 63.5692C530.523 56.4245 537.52 63.2172 543.567 65.2726C555.195 69.2215 564.895 74.1207 572.159 58.6841C574.454 53.813 576.643 54.0171 574.003 48.773C579.776 51.2438 594.874 64.9981 597.676 65.0896C606.637 65.3712 611.226 76.148 620.236 73.8321C627.381 71.9949 627.683 74.6064 627.712 80.7163C627.761 93.3585 636.581 99.764 648.512 95.8081C655.234 93.5767 656.304 98.5744 659.549 101.636C663.069 104.952 666.623 111.836 671.966 102.298C675.007 96.871 680.167 98.7434 682.996 103.692C684.665 106.613 685.122 110.119 688.585 111.935C695.195 115.405 706.964 116.559 696.202 128.42C695.322 129.384 696.899 133.39 698.264 135.325C699.39 136.916 701.094 135.304 702.495 134.185C711.04 127.364 712.342 135.818 712.743 140.302C713.447 148.27 717.185 152.691 724.006 155.746C729.137 158.04 732.361 162.313 736.022 166.663C742.476 174.329 748.129 183.057 757.941 187.802C766.67 192.025 770.682 208.602 764.044 214.578C758.244 219.801 755.696 211.305 752.12 208.166C748.474 211.143 751.817 214.712 750.93 217.936C748.671 226.129 749.318 234.816 738.619 239.419C733.164 241.763 721.268 248.556 735.508 257.861C740.745 261.282 735.93 280.886 732.305 286.306C726.568 294.88 722.295 302.412 709.759 303.179C705.254 303.453 702.551 315.223 704.853 322.086C708.351 332.518 703.86 334.306 694.055 334.151L694.062 334.165ZM346.48 117.038C346.487 118.502 346.494 119.973 346.501 121.437C345.171 125.274 349.971 132.418 340.785 132.01C349.091 146.461 362.691 148.066 373.925 135.051C378.226 130.074 370.434 132.707 369.589 130.497C369.659 126.041 369.737 121.585 369.807 117.129L369.73 117.869C367.991 103.868 357.003 108.901 349.119 108.45C348.021 108.387 339.835 112.132 346.585 117.327L346.473 117.031L346.48 117.038ZM407.29 201.971C400.857 196.094 393.318 198.733 386.771 200.627C383.041 201.711 386.518 206.73 387.137 209.763C388.644 217.126 397.907 217.584 400.526 216.852C406.966 215.043 403.799 220.167 405.425 221.322C394.831 230.212 407.635 231.965 410.535 235.731C414.942 241.453 415.42 234.513 418.144 232.591C426.859 226.439 427.302 227.058 419.827 219.534C420.439 220.118 421.467 221.286 421.594 221.195C430.576 214.719 437.143 215.353 441.922 226.538C442.908 228.839 448.272 227.685 451.404 225.791C453.248 224.679 453.572 222.941 452.122 221.645C446.533 216.655 449.891 207.884 443.577 202.893C439.515 199.684 438.882 195.742 441.754 189.54C447.23 177.715 437.579 169.986 429.252 162.757C434.546 159.547 437.375 163.791 440.86 164.615C443.851 165.326 446.786 167.459 447.955 163.109C448.997 159.251 445.329 159.695 443.028 159.167C438.509 158.132 433.884 157.435 429.477 156.048C420.418 153.205 414.667 157.027 411.922 165.185C409.085 173.618 414.449 179.2 421.636 180.206C432.349 181.706 428.133 188.111 426.873 192.989C425.381 198.754 420.503 200.176 414.928 198.966C411.676 198.262 407.987 196.241 407.283 201.964L407.29 201.971ZM261.673 240.996C266.579 251.224 262.94 259.494 260.554 267.744C257.612 277.916 248.714 277.698 239.986 277.81C245.575 281.668 250.664 284.884 256.169 287.059C259.012 288.179 263.123 291.269 265.425 287.982C266.72 286.13 264.897 281.808 263.926 278.774C263.461 277.331 261.539 276.36 263.06 273.404C268.578 276.804 273.295 271.123 278.94 271.637C290.561 272.693 301.205 272.341 302.45 256.996C302.95 250.836 307.174 251.104 315.972 250.801C297.227 256.496 318.908 262.197 311.397 268.005C310.496 268.702 313.889 269.786 315.283 269.448C320.147 268.265 323.68 265.928 323.589 259.966C323.539 256.763 326.313 252.871 329.15 255.44C339.201 264.549 354.385 265.71 362.444 277.74C369.688 288.545 380.514 283.35 389.432 281.907C395.662 280.9 403.053 277.5 403.13 268.054C403.179 262.359 404.742 256.665 412.302 256.334C418.201 256.073 417.961 249.957 417.666 247.753C416.87 241.918 412.429 246.022 409.684 246.62C404.432 247.767 400.42 247.767 399.104 241.158C398.752 239.377 395.662 236.406 395.218 236.639C385.779 241.594 383.512 232.929 378.12 229.043C375.087 226.854 364.95 224.13 363.866 229.494C362.29 237.307 357.559 235.914 353.864 235.632C344.636 234.935 336.843 235.076 331.677 244.902C329.15 249.703 323.272 246.937 318.683 246.289C309.511 245.001 304.682 236.66 297.523 232.443C294.82 235.562 297.08 237.061 297.896 238.856C300.536 244.67 300.353 249.703 293.828 252.836C287.366 255.94 284.459 252.807 282.657 246.817C281.291 242.291 277.117 240.348 273.569 242.896C268.881 246.268 266.706 241.39 261.694 240.975L261.673 240.996ZM494.385 276.233C487.909 287.587 484.213 296.414 473.303 286.461C471.177 284.518 468.432 286.44 467.876 287.813C466.313 291.677 458.57 292.163 462.04 298.688C465.63 305.445 472.085 306.762 477.371 303.51C488.218 296.844 498.798 298.582 509.849 301.468C514.08 302.574 518.022 302.271 520.07 297.625C522.569 291.973 518.662 286.707 518.859 281.175C515.833 282.984 510.223 275.783 509.138 283.814C508.78 286.489 509.174 289.537 505.492 289.016C500.551 288.319 502.17 285.553 503.852 282.54C505.33 279.894 502.909 279.499 500.98 278.31C497.271 276.015 493.23 273.326 494.019 265.956C498.678 269.807 503.296 266.569 508.364 270.616C511.975 273.495 520.366 270.743 526.525 269.842C528.271 269.588 527.722 267.012 526.567 265.485C521.591 258.903 517.529 266.21 513.003 266.315C512.362 266.329 511.694 265.492 510.694 264.823C510.617 259.178 518.522 250.984 507.618 248.077C491.942 243.903 477.646 248.542 464.56 257.502C461.759 259.417 459.541 263.225 462.434 264.844C471.972 270.208 476.203 286.7 494.378 276.233L494.385 276.233ZM364.028 186.07C358.42 184.958 353.73 184.972 349.957 186.112C340.757 188.886 325.658 184.796 326.299 179.137C327.228 170.985 325.56 166.79 317.465 164.615C315.578 164.108 316.113 156.668 311.165 160.786C308.194 163.256 306.625 167.402 304.421 170.795C317.465 177.623 301.634 179.946 302.274 184.866C308.842 189.934 324.722 186.844 318.584 203.337C318.338 204.006 319.823 205.315 320.499 206.328C326.193 202.232 332.409 211.291 337.294 206.286C341.461 202.021 341.933 195.918 338.483 189.252C348.655 197.121 355.581 190.596 364.035 186.077L364.028 186.07ZM190.36 187.422C189.227 180.382 184.18 179.341 185.757 176.229C187.284 173.21 191.001 174.547 193.781 174.998C197.456 175.589 203.136 177.891 203.129 172.724C203.129 167.557 209.31 160.469 200.321 156.443C192.078 152.754 182.033 146.891 176.113 155.858C171.249 163.228 164.337 169.437 161.183 177.996C160.233 180.58 154.377 182.501 159.621 185.711C162.422 187.429 166.245 190.125 169.567 185.345C175.325 177.053 181.921 178.067 190.353 187.414L190.36 187.422ZM255.986 424.969C256.112 429.931 254.078 436.147 259.667 437.85C266.354 439.892 270.31 432.613 275.878 430.283C272.182 424.582 284.951 419.697 276.709 413.826C275.16 412.721 271.753 413.256 272.513 410.222C273.379 406.738 276.124 408.152 278.722 408.427C288.436 409.448 276.026 398.439 284.437 397.538C286.359 397.333 283.093 394.166 281.685 393.251C279.053 391.54 258.886 398.685 258.344 401.627C256.985 408.955 261.103 413.91 267.037 417.085C269.662 418.493 272.612 417.613 269.761 422.329C266.305 428.059 265.608 422.4 263.722 421.604C261.335 420.59 261.877 414.966 257.316 417.451C253.606 419.471 255.458 422.561 255.979 424.969L255.986 424.969ZM490.45 108.633C487.634 107.859 485.002 107.725 483.066 106.5C475.809 101.89 471.437 99.757 474.119 112.132C475.555 118.755 469.016 118.178 465.299 116.693C462.033 115.384 459.619 111.935 456.655 109.267C453.931 112.751 455.388 117.988 451.32 121.465C446.681 125.428 449.665 133.939 455.846 134.924C461.111 135.762 466.13 133.193 470.121 130.342C476.442 125.83 481.848 123.472 487.824 130.426C489.162 131.982 491.309 133.481 493.089 130.954C494.427 129.061 494.251 126.139 492.371 125.21C487.127 122.62 485.156 117.298 481.271 113.406C483.551 110.527 488.345 113.765 490.45 108.64L490.45 108.633ZM646.055 280.71C638.84 277.958 630.408 278.38 629.119 267.843C627.775 256.876 622.334 258.136 615.97 264.337C613.331 266.907 610.895 269.736 607.995 271.968C602.61 276.114 603.532 279.232 607.432 284.511C613.077 292.156 620.553 283.814 622.01 285.37C632.913 296.985 638.115 282.73 646.062 280.717L646.055 280.71ZM171.249 417.472C181.505 421.484 197.273 416.529 194.767 411.257C187.707 396.411 204.389 401.374 206.487 394.912C200.616 388.197 185.665 384.016 185.004 388.436C182.899 402.486 171.988 404.267 161.493 408.293C168.8 409.293 176.099 410.292 184.131 411.397C180.259 417.219 173.241 410.87 171.249 417.479L171.249 417.472ZM500.192 565.806C504.373 564.708 511.264 566.137 511.335 560.07C511.426 552.397 504.458 551.904 498.904 553.016C485.142 555.776 472.747 550.236 459.858 547.66C455.297 546.745 448.75 544.422 447.089 549.497C443.182 561.442 440.465 552.439 437.622 549.546C435.454 547.343 435.306 543.007 430.026 545.541C425.81 547.561 424.698 550.313 424.423 554.382C423.945 561.534 437.784 579.723 444.83 581.187C448.546 581.961 448.955 578.582 450.714 577.393C459.386 571.564 462.491 554.114 479.715 563.075C481.721 564.117 489.211 571.825 494.272 565.525C496.82 565.687 498.636 566.222 500.206 565.813L500.192 565.806ZM346.48 117.038C346.48 118.502 346.494 119.973 346.501 121.437C345.171 125.274 349.971 132.418 340.771 132.031C343.305 134.157 345.853 136.262 348.401 138.366L348.085 138.606C351.069 133.242 354.061 127.885 357.045 122.521C354.04 119.825 352.906 113.356 346.592 117.334L346.48 117.038ZM369.737 117.854C368.73 115.447 367.822 112.638 364.479 115.053C363.817 115.532 363.458 117.693 363.937 118.277C366.372 121.233 368.231 119.551 369.814 117.136C369.814 117.136 369.737 117.876 369.737 117.854ZM364.486 131.968C366.492 136.015 369.188 134.15 369.934 130.116C365.457 127.575 362.691 122.099 356.588 122.359C359.291 125.478 362.48 127.927 364.486 131.968ZM348.43 138.338C349.823 138.803 351.182 139.288 352.547 139.774C352.583 139.443 352.611 139.112 352.646 138.782C351.126 138.725 349.605 138.662 348.085 138.606C348.085 138.606 348.401 138.366 348.43 138.338Z" fill="white"/>
</mask>
<g mask="url(#mask0_52_12624)">
<path d="M0.025362 -46.7231L0.0253906 607.072L2.75655 607.072L2.75652 -46.7231L0.025362 -46.7231Z" fill="#16A733"/>
<path d="M5.36521 -46.7231L5.36523 607.072L8.09639 607.072L8.09636 -46.7231L5.36521 -46.7231Z" fill="#16A733"/>
<path d="M10.7148 -46.7231L10.7148 607.072L13.446 607.072L13.446 -46.7231L10.7148 -46.7231Z" fill="#16A733"/>
<path d="M16.0664 -46.7231L16.0664 607.072L18.7976 607.072L18.7975 -46.7231L16.0664 -46.7231Z" fill="#16A733"/>
<path d="M21.4082 -46.7231L21.4082 607.072L24.1394 607.072L24.1393 -46.7231L21.4082 -46.7231Z" fill="#16A733"/>
<path d="M26.7558 -46.7231L26.7559 607.072L29.487 607.072L29.487 -46.7231L26.7558 -46.7231Z" fill="#16A733"/>
<path d="M32.0996 -46.7231L32.0996 607.072L34.8308 607.072L34.8307 -46.7231L32.0996 -46.7231Z" fill="#16A733"/>
<path d="M37.4511 -46.7231L37.4512 607.072L40.1823 607.072L40.1823 -46.7231L37.4511 -46.7231Z" fill="#16A733"/>
<path d="M42.7929 -46.7231L42.793 607.072L45.5241 607.072L45.5241 -46.7231L42.7929 -46.7231Z" fill="#16A733"/>
<path d="M48.1425 -46.7231L48.1426 607.072L50.8737 607.072L50.8737 -46.7231L48.1425 -46.7231Z" fill="#16A733"/>
<path d="M53.4843 -46.7231L53.4844 607.072L56.2155 607.072L56.2155 -46.7231L53.4843 -46.7231Z" fill="#16A733"/>
<path d="M58.8359 -46.7231L58.8359 607.072L61.5671 607.072L61.5671 -46.7231L58.8359 -46.7231Z" fill="#16A733"/>
<path d="M64.1836 -46.7231L64.1836 607.072L66.9147 607.072L66.9147 -46.7231L64.1836 -46.7231Z" fill="#16A733"/>
<path d="M69.5293 -46.7231L69.5293 607.072L72.2605 607.072L72.2604 -46.7231L69.5293 -46.7231Z" fill="#16A733"/>
<path d="M74.8769 -46.7231L74.877 607.072L77.6081 607.072L77.6081 -46.7231L74.8769 -46.7231Z" fill="#16A733"/>
<path d="M80.2187 -46.7231L80.2188 607.072L82.9499 607.072L82.9499 -46.7231L80.2187 -46.7231Z" fill="#16A733"/>
<path d="M85.5683 -46.7231L85.5684 607.072L88.2995 607.072L88.2995 -46.7231L85.5683 -46.7231Z" fill="#16A733"/>
<path d="M90.9121 -46.7231L90.9121 607.072L93.6433 607.072L93.6432 -46.7231L90.9121 -46.7231Z" fill="#16A733"/>
<path d="M96.2617 -46.7231L96.2617 607.072L98.9929 607.072L98.9929 -46.7231L96.2617 -46.7231Z" fill="#16A733"/>
<path d="M101.605 -46.7231L101.605 607.072L104.337 607.072L104.337 -46.7231L101.605 -46.7231Z" fill="#16A733"/>
<path d="M106.953 -46.7231L106.953 607.072L109.684 607.072L109.684 -46.7231L106.953 -46.7231Z" fill="#16A733"/>
<path d="M112.303 -46.7231L112.303 607.072L115.034 607.072L115.034 -46.7231L112.303 -46.7231Z" fill="#16A733"/>
<path d="M117.646 -46.7231L117.646 607.072L120.378 607.072L120.378 -46.7231L117.646 -46.7231Z" fill="#16A733"/>
<path d="M122.996 -46.7231L122.996 607.072L125.727 607.072L125.727 -46.7231L122.996 -46.7231Z" fill="#16A733"/>
<path d="M128.338 -46.7231L128.338 607.072L131.069 607.072L131.069 -46.7231L128.338 -46.7231Z" fill="#16A733"/>
<path d="M133.689 -46.7231L133.689 607.072L136.421 607.072L136.421 -46.7231L133.689 -46.7231Z" fill="#16A733"/>
<path d="M139.031 -46.7231L139.031 607.072L141.762 607.072L141.762 -46.7231L139.031 -46.7231Z" fill="#16A733"/>
<path d="M144.379 -46.7231L144.379 607.072L147.11 607.072L147.11 -46.7231L144.379 -46.7231Z" fill="#16A733"/>
<path d="M149.728 -46.7231L149.729 607.072L152.46 607.072L152.46 -46.7231L149.728 -46.7231Z" fill="#16A733"/>
<path d="M155.072 -46.7231L155.072 607.072L157.803 607.072L157.803 -46.7231L155.072 -46.7231Z" fill="#16A733"/>
<path d="M160.422 -46.7231L160.422 607.072L163.153 607.072L163.153 -46.7231L160.422 -46.7231Z" fill="#16A733"/>
<path d="M165.766 -46.7231L165.766 607.072L168.497 607.072L168.497 -46.7231L165.766 -46.7231Z" fill="#16A733"/>
<path d="M171.115 -46.7231L171.115 607.072L173.846 607.072L173.846 -46.7231L171.115 -46.7231Z" fill="#16A733"/>
<path d="M176.459 -46.7231L176.459 607.072L179.19 607.072L179.19 -46.7231L176.459 -46.7231Z" fill="#16A733"/>
<path d="M181.809 -46.7231L181.809 607.072L184.54 607.072L184.54 -46.7231L181.809 -46.7231Z" fill="#16A733"/>
<path d="M187.148 -46.7231L187.148 607.072L189.88 607.072L189.88 -46.7231L187.148 -46.7231Z" fill="#16A733"/>
<path d="M192.498 -46.7231L192.498 607.072L195.229 607.072L195.229 -46.7231L192.498 -46.7231Z" fill="#16A733"/>
<path d="M197.85 -46.7231L197.85 607.072L200.581 607.072L200.581 -46.7231L197.85 -46.7231Z" fill="#16A733"/>
<path d="M203.191 -46.7231L203.191 607.072L205.923 607.072L205.923 -46.7231L203.191 -46.7231Z" fill="#16A733"/>
<path d="M208.543 -46.7231L208.543 607.072L211.274 607.072L211.274 -46.7231L208.543 -46.7231Z" fill="#16A733"/>
<path d="M213.885 -46.7231L213.885 607.072L216.616 607.072L216.616 -46.7231L213.885 -46.7231Z" fill="#16A733"/>
<path d="M219.234 -46.7231L219.234 607.072L221.966 607.072L221.966 -46.7231L219.234 -46.7231Z" fill="#16A733"/>
<path d="M224.576 -46.7231L224.576 607.072L227.307 607.072L227.307 -46.7231L224.576 -46.7231Z" fill="#16A733"/>
<path d="M229.926 -46.7231L229.926 607.072L232.657 607.072L232.657 -46.7231L229.926 -46.7231Z" fill="#16A733"/>
<path d="M235.275 -46.7231L235.275 607.072L238.007 607.072L238.007 -46.7231L235.275 -46.7231Z" fill="#16A733"/>
<path d="M240.619 -46.7231L240.619 607.072L243.35 607.072L243.35 -46.7231L240.619 -46.7231Z" fill="#16A733"/>
<path d="M245.969 -46.7231L245.969 607.072L248.7 607.072L248.7 -46.7231L245.969 -46.7231Z" fill="#16A733"/>
<path d="M251.312 -46.7231L251.312 607.072L254.044 607.072L254.044 -46.7231L251.312 -46.7231Z" fill="#16A733"/>
<path d="M256.662 -46.7231L256.662 607.072L259.393 607.072L259.393 -46.7231L256.662 -46.7231Z" fill="#16A733"/>
<path d="M262.004 -46.7231L262.004 607.072L264.735 607.072L264.735 -46.7231L262.004 -46.7231Z" fill="#16A733"/>
<path d="M267.352 -46.7231L267.352 607.072L270.083 607.072L270.083 -46.7231L267.352 -46.7231Z" fill="#16A733"/>
<path d="M272.695 -46.7231L272.695 607.072L275.426 607.072L275.426 -46.7231L272.695 -46.7231Z" fill="#16A733"/>
<path d="M278.045 -46.7231L278.045 607.072L280.776 607.072L280.776 -46.7231L278.045 -46.7231Z" fill="#16A733"/>
<path d="M283.395 -46.7231L283.395 607.072L286.126 607.072L286.126 -46.7231L283.395 -46.7231Z" fill="#16A733"/>
<path d="M288.738 -46.7231L288.738 607.072L291.469 607.072L291.469 -46.7231L288.738 -46.7231Z" fill="#16A733"/>
<path d="M294.088 -46.7231L294.088 607.072L296.819 607.072L296.819 -46.7231L294.088 -46.7231Z" fill="#16A733"/>
<path d="M299.432 -46.7231L299.432 607.072L302.163 607.072L302.163 -46.7231L299.432 -46.7231Z" fill="#16A733"/>
<path d="M304.779 -46.7231L304.779 607.072L307.51 607.072L307.51 -46.7231L304.779 -46.7231Z" fill="#16A733"/>
<path d="M310.121 -46.7231L310.121 607.072L312.852 607.072L312.852 -46.7231L310.121 -46.7231Z" fill="#16A733"/>
<path d="M315.473 -46.7231L315.473 607.072L318.204 607.072L318.204 -46.7231L315.473 -46.7231Z" fill="#16A733"/>
<path d="M320.822 -46.7231L320.822 607.072L323.553 607.072L323.553 -46.7231L320.822 -46.7231Z" fill="#16A733"/>
<path d="M326.164 -46.7231L326.164 607.072L328.895 607.072L328.895 -46.7231L326.164 -46.7231Z" fill="#16A733"/>
<path d="M331.516 -46.7231L331.516 607.072L334.247 607.072L334.247 -46.7231L331.516 -46.7231Z" fill="#16A733"/>
<path d="M336.855 -46.7231L336.855 607.072L339.587 607.072L339.587 -46.7231L336.855 -46.7231Z" fill="#16A733"/>
<path d="M342.205 -46.7231L342.205 607.072L344.936 607.072L344.936 -46.7231L342.205 -46.7231Z" fill="#16A733"/>
<path d="M347.549 -46.7231L347.549 607.072L350.28 607.072L350.28 -46.7231L347.549 -46.7231Z" fill="#16A733"/>
<path d="M352.898 -46.7231L352.898 607.072L355.63 607.072L355.63 -46.7231L352.898 -46.7231Z" fill="#16A733"/>
<path d="M358.242 -46.7231L358.242 607.072L360.973 607.072L360.973 -46.7231L358.242 -46.7231Z" fill="#16A733"/>
<path d="M363.592 -46.7231L363.592 607.072L366.323 607.072L366.323 -46.7231L363.592 -46.7231Z" fill="#16A733"/>
<path d="M368.941 -46.7231L368.941 607.072L371.673 607.072L371.673 -46.7231L368.941 -46.7231Z" fill="#16A733"/>
<path d="M374.285 -46.7231L374.285 607.072L377.016 607.072L377.016 -46.7231L374.285 -46.7231Z" fill="#16A733"/>
<path d="M379.633 -46.7231L379.633 607.072L382.364 607.072L382.364 -46.7231L379.633 -46.7231Z" fill="#16A733"/>
<path d="M384.975 -46.7231L384.975 607.072L387.706 607.072L387.706 -46.7231L384.975 -46.7231Z" fill="#16A733"/>
<path d="M390.326 -46.7231L390.326 607.072L393.057 607.072L393.057 -46.7231L390.326 -46.7231Z" fill="#16A733"/>
<path d="M395.668 -46.7231L395.668 607.072L398.399 607.072L398.399 -46.7231L395.668 -46.7231Z" fill="#16A733"/>
<path d="M401.018 -46.7231L401.018 607.072L403.749 607.072L403.749 -46.7231L401.018 -46.7231Z" fill="#16A733"/>
<path d="M406.369 -46.7231L406.369 607.072L409.1 607.072L409.1 -46.7231L406.369 -46.7231Z" fill="#16A733"/>
<path d="M411.711 -46.7231L411.711 607.072L414.442 607.072L414.442 -46.7231L411.711 -46.7231Z" fill="#16A733"/>
<path d="M417.059 -46.7231L417.059 607.072L419.79 607.072L419.79 -46.7231L417.059 -46.7231Z" fill="#16A733"/>
<path d="M422.402 -46.7231L422.402 607.072L425.133 607.072L425.133 -46.7231L422.402 -46.7231Z" fill="#16A733"/>
<path d="M427.752 -46.7231L427.752 607.072L430.483 607.072L430.483 -46.7231L427.752 -46.7231Z" fill="#16A733"/>
<path d="M433.096 -46.7231L433.096 607.072L435.827 607.072L435.827 -46.7231L433.096 -46.7231Z" fill="#16A733"/>
<path d="M438.445 -46.7231L438.445 607.072L441.176 607.072L441.176 -46.7231L438.445 -46.7231Z" fill="#16A733"/>
<path d="M443.787 -46.7231L443.787 607.072L446.518 607.072L446.518 -46.7231L443.787 -46.7231Z" fill="#16A733"/>
<path d="M449.139 -46.7231L449.139 607.072L451.87 607.072L451.87 -46.7231L449.139 -46.7231Z" fill="#16A733"/>
<path d="M454.486 -46.7231L454.486 607.072L457.217 607.072L457.217 -46.7231L454.486 -46.7231Z" fill="#16A733"/>
<path d="M459.828 -46.7231L459.828 607.072L462.559 607.072L462.559 -46.7231L459.828 -46.7231Z" fill="#16A733"/>
<path d="M465.178 -46.7231L465.178 607.072L467.909 607.072L467.909 -46.7231L465.178 -46.7231Z" fill="#16A733"/>
<path d="M470.521 -46.7231L470.521 607.072L473.253 607.072L473.253 -46.7231L470.521 -46.7231Z" fill="#16A733"/>
<path d="M475.871 -46.7231L475.871 607.072L478.602 607.072L478.602 -46.7231L475.871 -46.7231Z" fill="#16A733"/>
<path d="M481.215 -46.7231L481.215 607.072L483.946 607.072L483.946 -46.7231L481.215 -46.7231Z" fill="#16A733"/>
<path d="M486.564 -46.7231L486.564 607.072L489.296 607.072L489.296 -46.7231L486.564 -46.7231Z" fill="#16A733"/>
<path d="M491.904 -46.7231L491.904 607.072L494.635 607.072L494.635 -46.7231L491.904 -46.7231Z" fill="#16A733"/>
<path d="M497.256 -46.7231L497.256 607.072L499.987 607.072L499.987 -46.7231L497.256 -46.7231Z" fill="#16A733"/>
<path d="M502.605 -46.7231L502.605 607.072L505.337 607.072L505.337 -46.7231L502.605 -46.7231Z" fill="#16A733"/>
<path d="M507.949 -46.7231L507.949 607.072L510.68 607.072L510.68 -46.7231L507.949 -46.7231Z" fill="#16A733"/>
<path d="M513.299 -46.7231L513.299 607.072L516.03 607.072L516.03 -46.7231L513.299 -46.7231Z" fill="#16A733"/>
<path d="M518.639 -46.7231L518.639 607.072L521.37 607.072L521.37 -46.7231L518.639 -46.7231Z" fill="#16A733"/>
<path d="M523.992 -46.7231L523.992 607.072L526.723 607.072L526.723 -46.7231L523.992 -46.7231Z" fill="#16A733"/>
<path d="M529.332 -46.7231L529.332 607.072L532.063 607.072L532.063 -46.7231L529.332 -46.7231Z" fill="#16A733"/>
<path d="M534.682 -46.7231L534.682 607.072L537.413 607.072L537.413 -46.7231L534.682 -46.7231Z" fill="#16A733"/>
<path d="M540.031 -46.7231L540.031 607.072L542.762 607.072L542.762 -46.7231L540.031 -46.7231Z" fill="#16A733"/>
<path d="M545.375 -46.7231L545.375 607.072L548.106 607.072L548.106 -46.7231L545.375 -46.7231Z" fill="#16A733"/>
<path d="M550.725 -46.7231L550.725 607.072L553.456 607.072L553.456 -46.7231L550.725 -46.7231Z" fill="#16A733"/>
<path d="M556.068 -46.7231L556.068 607.072L558.8 607.072L558.799 -46.7231L556.068 -46.7231Z" fill="#16A733"/>
<path d="M561.416 -46.7231L561.416 607.072L564.147 607.072L564.147 -46.7231L561.416 -46.7231Z" fill="#16A733"/>
<path d="M566.758 -46.7231L566.758 607.072L569.489 607.072L569.489 -46.7231L566.758 -46.7231Z" fill="#16A733"/>
<path d="M572.111 -46.7231L572.111 607.072L574.842 607.072L574.842 -46.7231L572.111 -46.7231Z" fill="#16A733"/>
<path d="M577.459 -46.7231L577.459 607.072L580.19 607.072L580.19 -46.7231L577.459 -46.7231Z" fill="#16A733"/>
<path d="M582.801 -46.7231L582.801 607.072L585.532 607.072L585.532 -46.7231L582.801 -46.7231Z" fill="#16A733"/>
<path d="M588.152 -46.7231L588.152 607.072L590.884 607.072L590.883 -46.7231L588.152 -46.7231Z" fill="#16A733"/>
<path d="M593.494 -46.7231L593.494 607.072L596.225 607.072L596.225 -46.7231L593.494 -46.7231Z" fill="#16A733"/>
<path d="M598.844 -46.7231L598.844 607.072L601.575 607.072L601.575 -46.7231L598.844 -46.7231Z" fill="#16A733"/>
<path d="M604.186 -46.7231L604.186 607.072L606.917 607.072L606.917 -46.7231L604.186 -46.7231Z" fill="#16A733"/>
<path d="M609.535 -46.7231L609.535 607.072L612.266 607.072L612.266 -46.7231L609.535 -46.7231Z" fill="#16A733"/>
<path d="M614.879 -46.7231L614.879 607.072L617.61 607.072L617.61 -46.7231L614.879 -46.7231Z" fill="#16A733"/>
<path d="M620.228 -46.7231L620.229 607.072L622.96 607.072L622.96 -46.7231L620.228 -46.7231Z" fill="#16A733"/>
<path d="M625.578 -46.7231L625.578 607.072L628.309 607.072L628.309 -46.7231L625.578 -46.7231Z" fill="#16A733"/>
<path d="M630.922 -46.7231L630.922 607.072L633.653 607.072L633.653 -46.7231L630.922 -46.7231Z" fill="#16A733"/>
<path d="M636.27 -46.7231L636.27 607.072L639.001 607.072L639.001 -46.7231L636.27 -46.7231Z" fill="#16A733"/>
<path d="M641.613 -46.7231L641.613 607.072L644.344 607.072L644.344 -46.7231L641.613 -46.7231Z" fill="#16A733"/>
<path d="M646.961 -46.7231L646.961 607.072L649.692 607.072L649.692 -46.7231L646.961 -46.7231Z" fill="#16A733"/>
<path d="M652.305 -46.7231L652.305 607.072L655.036 607.072L655.036 -46.7231L652.305 -46.7231Z" fill="#16A733"/>
<path d="M657.654 -46.7231L657.654 607.072L660.385 607.072L660.385 -46.7231L657.654 -46.7231Z" fill="#16A733"/>
<path d="M662.998 -46.7231L662.998 607.072L665.729 607.072L665.729 -46.7231L662.998 -46.7231Z" fill="#16A733"/>
<path d="M668.348 -46.7231L668.348 607.072L671.079 607.072L671.079 -46.7231L668.348 -46.7231Z" fill="#16A733"/>
<path d="M673.697 -46.7231L673.697 607.072L676.428 607.072L676.428 -46.7231L673.697 -46.7231Z" fill="#16A733"/>
<path d="M679.041 -46.7231L679.041 607.072L681.772 607.072L681.772 -46.7231L679.041 -46.7231Z" fill="#16A733"/>
<path d="M684.389 -46.7231L684.389 607.072L687.12 607.072L687.12 -46.7231L684.389 -46.7231Z" fill="#16A733"/>
<path d="M689.732 -46.7231L689.732 607.072L692.464 607.072L692.464 -46.7231L689.732 -46.7231Z" fill="#16A733"/>
<path d="M695.082 -46.7231L695.082 607.072L697.813 607.072L697.813 -46.7231L695.082 -46.7231Z" fill="#16A733"/>
<path d="M700.424 -46.7231L700.424 607.072L703.155 607.072L703.155 -46.7231L700.424 -46.7231Z" fill="#16A733"/>
<path d="M705.775 -46.7231L705.775 607.072L708.507 607.072L708.507 -46.7231L705.775 -46.7231Z" fill="#16A733"/>
<path d="M711.125 -46.7231L711.125 607.072L713.856 607.072L713.856 -46.7231L711.125 -46.7231Z" fill="#16A733"/>
<path d="M716.465 -46.7231L716.465 607.072L719.196 607.072L719.196 -46.7231L716.465 -46.7231Z" fill="#16A733"/>
<path d="M721.814 -46.7231L721.814 607.072L724.546 607.072L724.546 -46.7231L721.814 -46.7231Z" fill="#16A733"/>
<path d="M727.158 -46.7231L727.158 607.072L729.889 607.072L729.889 -46.7231L727.158 -46.7231Z" fill="#16A733"/>
<path d="M732.508 -46.7231L732.508 607.072L735.239 607.072L735.239 -46.7231L732.508 -46.7231Z" fill="#16A733"/>
<path d="M737.852 -46.7231L737.852 607.072L740.583 607.072L740.583 -46.7231L737.852 -46.7231Z" fill="#16A733"/>
<path d="M743.201 -46.7231L743.201 607.072L745.932 607.072L745.932 -46.7231L743.201 -46.7231Z" fill="#16A733"/>
<path d="M748.545 -46.7231L748.545 607.072L751.276 607.072L751.276 -46.7231L748.545 -46.7231Z" fill="#16A733"/>
<path d="M753.895 -46.7231L753.895 607.072L756.626 607.072L756.626 -46.7231L753.895 -46.7231Z" fill="#16A733"/>
<path d="M759.244 -46.7231L759.244 607.072L761.975 607.072L761.975 -46.7231L759.244 -46.7231Z" fill="#16A733"/>
<path d="M764.584 -46.7231L764.584 607.072L767.315 607.072L767.315 -46.7231L764.584 -46.7231Z" fill="#16A733"/>
</g>
</svg>
