<svg width="636" height="1092" viewBox="0 0 636 1092" fill="none" xmlns="http://www.w3.org/2000/svg">
<mask id="mask0_53_112002" style="mask-type:luminance" maskUnits="userSpaceOnUse" x="0" y="0" width="636" height="1092">
<path d="M160.596 730.478C161.001 727.904 161.322 725.308 161.838 722.754C162.661 718.707 165.25 719.105 168.655 719.447C175.109 720.089 170.595 724.429 171.621 727.017C174.998 724.945 175.5 723.131 174.258 718.84C169.486 702.373 163.457 686.959 149.195 676.179C148.692 675.802 148.239 674.623 148.462 674.134C154.672 660.542 142.287 660.165 135.616 655.323C132.665 653.181 131.123 649.085 128.409 645.086C132.309 646.656 134.849 649.217 138.407 648.561C145.629 647.229 151.079 648.896 152.844 656.969C153.291 659.014 154.316 660.493 156.738 659.314C158.328 658.539 159.019 656.795 158.294 655.525C154.798 649.42 152.816 643.831 157.226 636.811C158.58 634.655 150.765 633.35 152.097 626.742C154.4 615.348 150.423 603.884 148.65 591.687C145.35 593.745 144.876 595.49 144.338 598.239C143.557 602.265 142.831 607.735 136.419 607.666C129.581 607.589 123.643 608.301 124.334 617.727C124.585 621.139 119.847 622.598 118.814 620.888C114.132 613.15 106.938 618.146 101.063 617.113C102.515 610.931 119.01 611.329 107.085 601.03C112.297 599.007 117.119 597.074 121.982 595.26C131.109 591.848 131.437 590.647 124.836 580.746C123.385 584.507 127.027 589.391 122.205 591.178C118.221 592.657 115.137 590.864 111.962 588.366C108.481 585.63 88.8526 586.886 84.7916 589.44C82.0006 591.199 79.1188 592.908 76.0766 594.136C75.0439 594.555 73.3972 593.445 72.0296 593.034C74.4927 588.268 75.8254 580.893 79.6352 579.253C89.034 575.199 99.4725 578.234 109.471 579.393C109.485 569.966 109.499 570.091 100.073 570.831C94.7835 571.243 89.4875 568.159 88.2316 564.272C86.4732 558.851 92.9275 559.946 96.1023 559.13C105.306 556.75 111.062 546.807 122.185 548.161C121.557 550.617 116.309 554.378 121.333 556.38C133.111 561.062 133.404 571.766 135.916 581.43C136.544 583.858 135.847 587.005 140.926 586.998C136.433 578.792 141.75 578.632 147.485 578.185C156.975 577.446 160.889 571.94 156.961 563.114C152.314 552.696 149.006 542.16 148.009 530.836C147.695 527.305 144.555 526.398 142.161 524.57C131.444 516.399 129.992 508.291 132.972 495.41C135.756 483.367 135.107 470.703 132.958 458.506C131.255 448.793 129.092 439.352 132.379 429.633C134.242 424.113 131.562 423.046 125.283 425.062C136.803 411.233 142.629 395.68 142.231 380.273C141.701 359.71 142.859 338.456 133.956 318.466C132.462 315.116 130.181 307.923 135.84 300.91C145.064 289.488 145.071 274.284 141.359 259.784C141.178 259.065 141.129 257.865 140.717 257.712C132.672 254.691 124.417 252.179 116.547 248.774C107.971 245.054 100.477 243.275 93.0322 251.495C87.2338 257.893 80.2353 254.809 73.4879 251.209C82.9147 252.039 89.8643 248.292 95.3278 240.386C90.3528 237.351 84.7149 236.64 79.3142 237.205C69.72 238.216 63.2588 233.465 56.023 228.113C44.8729 219.858 34.1413 208.234 17.6114 215.323C13.5923 207.885 5.99375 216.935 0 210.99C8.99411 209.273 16.3206 205.596 24.6588 208.311C30.1571 210.104 33.0807 208.185 32.8226 200.914C35.5089 213.209 43.6448 217.451 53.7483 219.279C54.488 219.412 55.7718 219.209 55.9254 219.551C66.0498 242.389 90.2202 228.057 105.606 238.042C110.644 241.314 117.684 243.917 124.382 245.124C126.511 245.508 128.897 247.085 130.802 245.236C132.825 243.275 131.137 240.826 130.39 238.935C127.111 230.562 121.508 224.087 113.379 220.047C110.685 218.707 107.755 217.528 104.678 218.812C92.8228 223.766 90.4853 222.287 88.2386 205.652C94.63 218.735 101.461 218.156 109.304 210.376C112.674 207.034 112.332 214.074 115.2 212.985C114.107 208.059 106.094 200.661 91.1622 190.79C95.6348 189.304 101.238 194.348 103.708 189.213C105.508 185.466 102.598 181.119 100.833 177.511C94.8812 165.329 91.2598 152.427 88.106 139.337L87.8408 139.679C92.9275 144.417 95.8581 150.02 97.5257 156.99C101.684 174.385 105.529 178.23 125.122 188.683C127.048 183.184 121.961 179.57 120.308 175.934C114.691 163.577 123.259 153.816 124.048 142.84C124.494 136.56 124.578 131.25 121.243 125.675C117.998 120.274 120.942 114.818 122.833 109.103C124.082 109.745 124.976 110.296 125.931 110.68C130.488 112.487 122.561 121.063 131.137 120.484C138.833 119.96 145.929 116.73 147.653 109.005C149.592 100.311 159.396 93.3757 153.828 82.9512C153.605 82.5325 154.295 81.0533 154.491 81.0602C169.046 81.9534 163.213 71.5079 163.101 64.9071C162.996 58.7669 166.576 59.3181 171.565 59.36C167.65 67.2795 168.753 75.8271 165.306 83.7187C162.557 90.0195 163.645 90.6544 172.709 91.4568C171.704 97.5273 167.029 102.042 166.974 108.985C166.932 114.057 161.057 119.849 153.207 119.744C146.146 119.646 140.494 121.642 144.324 131.104C131.674 126.303 130.502 126.973 128.122 139.567C127.913 140.677 127.648 141.807 127.194 142.826C119.121 161.016 127.02 176.8 134.584 192.681C135.882 195.402 137.905 196.853 140.717 196.888C144.066 196.93 145.001 193.992 145.783 191.578C149.865 178.977 154.009 166.41 144.89 153.962C141.212 148.945 139.998 143.112 142.496 137.02C143.501 137.02 144.415 136.748 144.876 137.09C145.511 137.558 164.908 152.685 165.648 153.292C170.511 157.332 179.896 157.067 177.503 168.092C176.763 171.504 185.108 168.301 188.353 172.32C190.062 174.434 192.03 171.085 193.091 169.208C196.049 163.975 198.777 158.602 201.848 153.432C203.383 150.85 206.439 150.055 208.693 151.499C211.337 153.188 208.867 155.434 207.939 157.332C206.139 161.037 201.994 164.91 209.411 167.492C212.314 168.503 213.109 171.839 212.014 174.169C210.814 176.723 207.492 174.699 206.195 174.085C200.32 171.336 197.815 174.679 195.979 179.046C193.956 183.854 192.456 188.885 190.774 193.699C193.523 195.814 195.603 194.467 197.389 193.281C200.012 191.536 202.106 184.957 205.204 193.26C205.546 194.174 214.938 193.378 215.112 192.443C217.701 178.572 222.857 191.885 226.451 191.16C232.416 189.959 237.482 190.357 239.366 197.6C239.52 198.186 242.332 198.786 243.301 198.263C244.362 197.691 245.576 194.934 245.269 194.634C236.945 186.554 252.205 181.579 247.879 174.169C257.061 170.757 249.595 161.965 253.866 155.93C258.778 148.987 262.65 148.771 269.23 151.436C272.307 152.685 276.005 155.337 279.264 151.492C279.02 148.841 277.443 148.192 275.356 148.094C273.514 148.003 271.114 148.171 270.619 146.036C270.04 143.524 272.105 141.723 274.114 140.823C280.771 137.844 283.471 130.845 289.94 126.17C283.611 126.422 278.029 126.729 280.904 118.23C281.518 116.409 278.182 113.38 276.633 116.353C273.319 122.73 269.391 118.823 266.376 117.267C264.737 116.416 263.174 111.49 264.011 110.534C266.662 107.491 271.044 104.798 274.868 106.319C280.45 108.531 282.843 106.919 284.434 101.867C285.523 98.4205 288.251 97.8553 291.531 97.6041C302.06 96.8017 309.261 87.9611 307.509 77.6063C306.944 74.278 305.535 72.0522 308.898 68.8844C311.207 66.7074 312.149 61.0974 307.565 59.4227C304.334 58.2366 301.027 51.1892 296.687 57.8249C293.973 61.9765 292.354 57.6714 290.233 57.3504L290.477 57.5597C290.847 53.1639 282.404 52.4591 286.179 46.256C289.807 40.2902 295.361 42.9138 299.178 43.6464C305.932 44.9443 308.27 41.8741 308.409 36.7456C308.507 33.0614 309.351 31.9939 312.687 32.0846C314.305 32.1264 316.231 31.2473 315.868 29.6703C312.98 17.2223 325.183 15.0662 330.207 8.03282C332.301 5.09526 333.089 1.25759 336.375 7.15365C337.387 8.96782 339.09 7.62115 338.727 5.77906C338.329 3.76952 335.999 0.783112 340.736 2.80661C343.332 3.91605 346.995 3.62299 348.119 7.24436C348.858 9.63069 347.421 11.1379 345.474 11.2704C339.446 11.6821 338.511 18.6457 333.333 20.5227C343.409 23.0974 351.475 17.3339 362.709 16.1757C363.086 16.4687 363.609 18.9458 361.292 21.7438C359.855 23.4742 357.95 24.9744 358.439 27.5561C360.602 38.9435 356.422 43.7999 343.751 44.5605C341.49 44.6931 337.799 44.8954 338.015 46.9608C338.985 56.2619 331.121 53.429 326.705 55.906C331.596 57.0015 333.871 69.6868 341.49 58.097C343.151 55.5781 350.91 55.9409 349.256 63.386C348.496 66.812 347.044 69.931 352.096 68.2913C360.169 65.6747 368.298 67.754 376.378 67.0702C378.429 60.3647 370.363 61.1392 369.345 56.555C373.189 50.8333 380.781 51.8521 385.84 48.0493C387.591 46.7305 390.361 46.8073 388.931 43.7092C387.94 41.5601 386.154 41.7346 384.221 42.7952C380.453 44.8605 375.624 47.0585 373.957 41.4485C372.526 36.627 377.753 35.0082 381.206 32.2381C387.172 27.4445 390.41 29.0982 394.108 34.1988C398.623 40.4298 404.56 37.7364 410.345 36.5153C406.444 34.0871 405.844 25.4559 397.443 30.8844C396.146 31.7217 388.61 23.2649 384.27 18.8132C383.063 17.5782 384.598 15.3523 386.049 16.3082C391.882 20.1738 391.198 2.58333 398.281 12.7008C400.158 15.3802 402.069 18.3108 405.272 17.02C412.068 14.2847 414.748 18.0596 417.643 23.0346C419.472 26.1815 422.974 27.4305 426.568 26.3769C431.159 25.0372 427.712 21.1926 428.605 18.6946C429.812 15.3174 425.87 10.1749 432.094 8.5073C438.855 6.69313 439.204 12.2961 440.928 16.1687C442.205 19.0365 441.807 23.8161 446.51 17.7805C448.373 15.3872 449.768 19.7831 450.633 22.2531C451.994 26.1257 463.165 28.3306 465.754 25.8675C468.056 23.6905 459.23 20.6623 466.375 19.6366C469.096 19.2458 471.517 18.7225 473.785 16.8664C474.629 12.6171 464.951 16.9083 468.789 11.9403C474.601 4.42541 481.049 -4.13609 493.134 2.22049C494.174 5.05339 491.62 5.56974 489.617 6.50473C485.794 8.291 485.982 11.9542 488.005 13.9777C493.399 19.3784 491.201 11.0681 492.457 11.0751C499.163 11.096 504.138 8.40961 508.136 3.21131C509.203 1.82277 510.822 2.35307 511.945 3.60904C513.76 5.64649 513.718 8.05376 511.799 9.64465C507.689 13.0497 504.968 18.9039 497.202 17.1874C500.495 26.6351 506.029 31.0449 515.044 29.6285C518.253 29.1261 520.416 28.9586 520.64 32.6009C520.828 35.6431 518.316 35.985 515.951 36.1595C514.464 36.2711 511.715 36.3479 511.68 36.6479C509.957 54.0151 502.1 38.1062 497.509 38.9994C496.385 56.5968 494.069 57.6016 477.26 50.31C474.343 49.0471 468.37 50.331 466.389 52.6475C464.393 54.978 467.889 57.5946 471.517 57.8598C473.96 58.0412 476.025 59.7437 476.213 62.1091C476.506 65.8491 471.65 64.3908 471.636 64.6629C471.189 72.9383 454.939 68.6471 459.432 80.8858C465.719 78.5693 473.339 81.9534 478.39 73.0988C481.991 66.7911 503.914 72.8058 503.496 79.7415C502.833 90.6265 513.111 81.1998 514.346 86.8656C520.263 85.3584 518.818 81.9883 516.397 78.4925C512.699 73.1616 528.113 77.4389 520.772 69.5403C519.098 67.7331 520.605 68.382 530.457 68.9402C537.183 69.3239 539.786 71.8847 543.1 75.855C547.768 81.437 544.97 84.0467 539.221 84.7025C535.795 85.0933 531.908 83.5024 533.96 89.7543C535.46 94.3316 537.1 96.1667 541.907 93.5083C544.475 92.0918 547.713 90.8568 550.497 91.1289C554.083 91.4708 560.468 85.798 560.858 93.6967C561.068 97.9879 563.384 105.21 554.327 106.703C548.62 107.645 543.973 114.462 536.43 107.673C537.121 116.869 546.387 117.902 547.099 124.719C547.189 125.57 549.01 125.298 549.68 124.21C554.055 117.099 557.258 123.156 560.223 125.487C563.719 128.229 560.977 134.188 560.084 134.585C555.758 136.504 551.397 139.714 545.933 137.509C543.317 136.455 543.01 129.52 538.404 134.076C535.181 137.265 538.37 140.544 539.884 143.3C544.977 152.587 539.2 154.15 531.992 155.267C528.385 155.825 523.619 154.674 523.452 161.163C523.298 167.171 518.895 167.492 513.648 168.755C504.821 170.869 505.17 162.112 500.439 159.572C497.662 158.079 498.876 152.727 502.91 150.257C503.544 149.866 503.503 148.366 504.438 144.975C497.551 151.087 489.75 148.785 483.693 154.618C481.809 156.432 474.615 158.637 469.696 160.123C467.184 160.884 465.649 158.958 465.614 156.118C465.538 149.671 459.335 148.534 455.588 145.868C452.022 143.328 449.636 147.738 449.419 152.699C449.029 161.644 447.096 170.534 445.603 179.409C445.463 180.226 443.433 181.586 443.084 181.37C434.55 176.207 427.754 189.227 419.262 183.582C414.078 180.142 410.094 181.698 406.612 187.071C410.687 189.694 417.581 191.704 409.333 197.823C407.086 199.491 406.961 204.005 405.865 207.215C405.028 209.664 401.755 212.113 406.005 214.535C410.84 217.291 412.103 215.686 410.805 210.753C419.541 211.046 425.026 201.877 432.631 201.94C439.755 202.003 436.999 211.492 439.804 216.342C441.632 219.503 438.039 223.877 433.678 224.115C430.426 224.296 428.18 224.324 429.247 228.169C429.98 230.792 432.875 234.1 434.718 232.837C442.867 227.276 444.284 235.286 446.593 238.865C451.471 246.422 456.613 246.869 462.335 240.847C465.496 237.519 467.352 238.105 469.194 241.419C472.787 247.873 476.806 250.274 482.863 243.973C483.924 242.87 487.049 242.012 487.887 242.689C495.067 248.508 501.57 242.724 508.24 241.684C510.138 241.391 511.792 238.342 513.592 241.621C514.785 243.798 512.762 245.738 512.573 247.378C511.973 252.646 505.938 251.118 503.893 256.888C500.419 266.706 507.312 262.003 510.341 264.278C502.979 269.239 494.962 264.55 487.761 266.755C482.842 268.262 477.358 267.85 476.011 274.242C475.55 276.419 469.34 275.226 473.129 279.363C474.804 281.191 478.097 281.91 479.046 279.949C481.37 275.142 485.814 279.238 488.961 276.663C492.401 273.851 498.283 275.658 499.107 279.426C500.377 285.217 494.439 283.417 491.103 284.038C486.722 284.855 480.923 282.496 486.017 291.965C489.757 298.907 478.348 300.073 474.462 299.808C468.845 299.424 465.593 302.892 461.114 303.917C458.846 304.434 458.288 306.429 459.209 308.355C460.297 310.616 461.951 310.058 463.807 308.892C469.389 305.376 470.792 302.25 472.369 313.428C474.476 328.36 464.924 329.148 458.044 333.83C462.977 340.354 469.829 339.098 476.388 337.277C480.358 336.175 477.518 328.409 485.375 328.709C491.424 328.939 494.215 330.237 496.03 335.372C497.558 339.705 497.076 337.473 500.872 336.593C513.25 333.712 514.032 315.584 528.915 316.491C532.69 316.721 533.29 313.4 531.49 309.841C529.822 306.555 528.845 302.913 526.529 296.619C532.264 301.622 536.514 308.202 540.665 299.187C546.226 302.661 550.092 301.322 552.248 295.112C556.867 297.847 562.756 299.633 565.694 303.61C568.059 306.813 561.849 309.29 559.602 309.66C552.478 310.832 546.652 314.6 540.281 317.272C536.311 318.94 534.385 321.968 533.653 325.715C533.241 327.837 534.016 330.265 536.172 331.66C539.13 333.572 539.451 330.921 541.014 329.337C544.845 325.45 550.985 325.346 555.102 321.103C557 319.142 559.805 322.038 560.635 324.885C561.41 327.536 562.177 329.518 564.124 325.506C565.792 322.066 568.68 321.675 571.75 323.029C573.467 323.783 574.925 325.506 573.711 327.599C571.855 330.788 570.355 334.856 565.896 334.975C553.064 335.317 543.156 345.106 529.557 344.813C532.794 354.714 537.679 356.996 546.408 352.956C550.908 350.877 556.574 346.802 562.003 354.107C551.292 355.956 546.024 366.171 533.953 367.56C538.3 370.532 539.849 373.944 544.008 371.223C550.859 366.744 559.316 367.644 566.754 364.95C569.287 364.029 572.79 361.762 574.604 365.857C576.663 370.498 570.453 369.325 569.734 371.921C568.031 378.061 562.17 375.096 557.809 377.343C563.14 384.243 578.909 372.221 577.144 388.758C581.973 388.863 581.847 383.832 586.013 382.297C584.875 387.083 582.245 391.172 583.222 395.735L583.431 395.456C576.635 392.589 568.897 392.868 562.449 388.297C559.972 386.539 553.797 384.208 555.897 393.042C556.93 397.382 539.751 401.094 533.911 397.633C531.992 396.496 530.499 394.563 528.517 393.614C522.97 390.956 518.002 394.947 515.965 398.157C512.957 402.901 520.605 401.841 523.619 405.051C517.311 407.13 514.506 413.082 505.861 412.056C515.218 420.499 522.007 413.814 528.113 411.484C535.041 408.832 553.846 412.565 557.118 419.131C560.147 425.209 555.786 425.376 551.815 425.02C545.724 424.476 540.372 424.246 540.882 432.912C541.007 435.019 540.009 438.11 536.96 437.015C528.475 433.98 520.165 440.329 511.506 436.987C513.111 434.496 515.051 432.179 516.209 429.528C518.553 424.155 516.209 420.813 510.71 422.271C502.114 424.553 493.797 427.176 484.768 424.804C483.61 424.497 480.798 426.179 480.819 426.255C483.617 434.782 476.465 441.034 475.816 448.702C475.774 449.163 476.59 450.154 476.785 450.098C481.195 448.87 484.14 451.563 483.742 454.989C483.24 459.378 478.174 457.445 475.188 458.492C473.101 459.225 471.231 460.257 473.708 462.155C477.051 464.723 467.603 471.149 477.044 471.749C481.237 472.014 482.256 471.714 481.614 467.242C481.181 464.214 484.231 465.337 485.612 466.188C488.571 468.03 489.903 471.045 487.461 473.85C479.521 482.976 485.117 485.488 493.608 487.086C495.918 484.448 490.503 480.695 492.89 480.618C501.242 480.339 501.305 469.154 508.073 469.391C511.576 469.516 516.795 476.271 511.527 479.39C502.958 484.462 508.129 489.026 510.006 495.034C513.355 492.787 514.806 488.551 518.728 487.595C523.64 486.395 524.003 492.319 528.573 493.512C528.175 487.163 530.241 482.348 536.897 480.995C539.263 485.16 537.218 498.027 547.866 486.395C550.873 483.109 555.507 486.088 558.981 486.8C563.496 487.721 560.6 490.547 558.807 492.452C557.928 493.387 557.6 494.929 558.94 494.95C572.902 495.173 561.724 502.709 560.733 504.028C552.904 514.452 557.711 527.144 553.79 537.862C551.746 528.031 547.503 525.728 539.005 529.196C534.071 531.212 527.826 533.717 529.048 523.614C529.292 521.562 527.268 519.902 525.622 519.895C522.377 519.881 522.426 523.132 523.082 524.849C524.777 529.3 526.096 532.838 519.216 533.354C517.521 533.48 517.66 535.462 517.89 537.046C519.642 548.803 518.588 550.387 507.975 552.759C506.545 553.08 505.247 553.966 503.928 554.58C508.401 570.643 522.928 552.968 529.934 562.939C526.822 565.856 522.398 564.879 519.014 567.189C511.973 571.982 523.577 578.13 516.844 581.925C520.242 583.426 522.461 579.741 524.449 579.644C529.138 579.413 534.183 574.955 538.865 579.874C543.54 584.786 540.212 588.805 537.86 593.11C537.428 593.906 538.035 595.267 538.286 597.492C546.101 593.062 555.883 594.025 561.117 585.344C562.268 583.44 564.019 581.521 566.664 582.839C569.022 584.012 569.392 586.586 569.127 588.756C568.108 597.053 571.171 597.325 577.144 593.306C579.489 591.729 583.18 591.589 584.268 593.941C586.013 597.709 581.819 599.062 579.37 600.025C573.893 602.174 569.043 606.361 562.561 605.775C562.24 605.747 557.725 604.198 560.077 608.217C561.068 609.913 559.561 613.255 563.182 613.192C576.223 612.969 589.341 615.236 602.284 611.685C606.317 610.575 608.676 611.28 605.341 615.983C603.652 618.369 605.278 620.197 608.278 622.647C610.169 617.239 612.339 612.327 613.511 607.191C614.293 603.765 615.297 598.134 610.274 597.925C604.685 597.695 607.776 603.563 606.073 609.082C596.967 591.561 599.605 574.871 600.365 557.615C604.908 559.164 602.263 563.079 603.666 564.977C607.064 569.561 607.831 561.949 610.553 563.232C614 567.782 608.606 572.785 611.913 578.353C620.084 573.266 619.058 564.551 620.098 555.013C623.454 559.597 625.317 562.172 624.536 565.716C621.654 578.758 630.83 593.438 619.177 605.3C618.982 605.503 619.079 606.019 619.086 606.396C619.37 623.165 615.828 637.451 608.459 649.252C604.238 649.231 606.422 643.907 602.549 642.777C596.639 650.138 591.211 658.142 587.192 667.038C584.994 671.901 582.063 675.948 578.309 679.856C573.292 685.082 570.264 684.503 567.013 676.018C565.519 682.082 564.605 686.212 569.748 686.812C577.842 687.754 578.47 693.671 580.263 699.477C583.431 709.734 584.122 720.284 594.407 728.385C600.938 733.527 602.752 731.357 606.631 727.994C608.313 726.536 609.799 724.715 610.943 722.796C613.735 718.107 618.005 719.021 621.982 719.907C628.178 721.289 622.882 725.112 623.461 727.624C625.115 734.749 623.378 741.014 621.773 747.978C619.198 759.156 628.094 756.553 636 755.13C627.753 765.75 612.227 762.931 606.31 775.386C611.327 778.365 617.23 770.523 621.78 776.468C619.24 783.41 611.544 778.917 607.441 782.573C613.532 790.234 620.901 782.294 628.653 783.919C624.682 789.906 619.275 790.499 614.418 790.43C610.378 790.374 608.362 791.274 608.878 795.14C611.062 811.453 605.222 827.327 606.422 843.627C606.764 848.267 610.846 852.712 607.078 858.468C602.556 852.963 604.782 846.836 604.782 841.561C604.782 835.484 602.843 830.641 599.703 825.89C598.23 823.657 596.402 820.866 593.73 823.692C592.202 825.311 590.932 828.618 594.79 830.209C597.7 831.409 601.126 833.021 598.963 836.607C597.623 838.819 594.337 840.305 591.623 841.129C588.106 842.196 588.176 838.575 586.661 836.607C580.291 828.325 572.378 836.21 564.696 833.656C566.42 838.994 569.79 836.482 571.827 837.521C573.92 838.589 575.225 840.445 572.881 842.88C566.838 849.153 552.185 849.858 545.717 843.138C540.602 837.828 532.299 845.692 528.371 836.97C530.855 834.654 533.792 831.918 537.588 828.374C532.906 827.083 532.041 816.47 524.519 825.178C523.068 826.86 519.984 826.49 518.497 824.362C516.439 821.396 521.107 820.168 520.891 816.31C511.318 822.108 503.942 816.156 496.518 812.214C493.901 810.825 492.611 810.56 491.076 812.556C488.25 816.226 492.464 815.368 493.72 816.519C498.193 820.622 506.656 822.317 501.751 831.904C499.951 835.428 511.897 835.379 506.524 840.333C500.37 846.02 491.013 843.899 483.058 845.176C481.426 845.434 479.583 844.373 477.246 843.766C487.859 855.524 488.605 855.796 502.198 852.732C504.242 860.052 497.976 861.685 493.28 864.113C496.497 867.099 499.637 866.932 501.13 864.797C505.994 857.854 512.022 862.376 517.43 862.913C518.881 863.059 523.689 863.541 522.244 867.476C521.261 870.162 517.918 874.014 515.651 872.026C510.403 867.427 506.726 873.77 502.107 871.328C502.554 875.898 504.849 875.856 507.096 875.382C511.75 874.398 512.364 877.294 511.987 880.615C511.562 884.369 510.222 885.29 505.903 883.72C501.5 882.115 496.455 882.401 492.632 887.383C490.238 890.495 485.675 890.886 482.654 887.327C479.402 883.497 474.818 883.12 470.638 881.62C468.238 880.754 466.089 881.403 464.728 883.608C461.435 888.911 461.553 888.751 454.764 886.085C450.466 884.397 446.475 884.355 445.617 890.516C444.172 900.941 441.172 911.456 445.4 921.769C448.68 929.779 443.747 937.168 444.577 944.906C445.142 950.161 445.589 955.422 446.161 960.669C446.649 965.128 449.308 967.381 453.697 967.535C476.123 968.323 499.114 972.349 520.765 968.602C533.562 966.39 545.159 967.13 556.239 969.747C569.245 972.824 582.301 967.486 594.825 972.482C596.472 973.138 599.242 973.815 601.594 970.856C588.28 965.483 574.688 966.335 561.033 965.797C570.299 965.707 578.358 954.794 588.58 963.732C589.376 964.43 592.697 963.202 592.271 962.734C582.426 951.877 604.971 954.933 600.728 949.449C601.81 959.204 615.66 957.717 623.468 964.109C629.504 969.049 625.589 972.356 625.771 976.34C626.071 982.878 621.549 980.171 618.793 979.243C614.851 977.917 612.318 979.997 609.52 981.902C602.898 986.409 596.242 990.421 587.576 987.553C585.727 986.939 582.112 987.365 581.282 988.614C574.423 998.969 567.236 992.082 560.872 988.726C557.307 986.849 553.692 986.57 550.162 985.788C546.952 985.076 546.205 986.73 549.094 990.156C552.178 993.819 548.871 993.645 547.147 994.398C543.428 996.031 539.312 999.025 541.293 1002.59C543.742 1007 547.022 1004.49 549.883 1000.94C550.964 999.604 556.993 997.064 556.483 1003.88C556.169 1008.14 557.865 1005.95 559.274 1004.93C565.778 1000.22 576.09 1019.55 580.354 1001.63C580.989 998.962 581.582 997.196 584.533 998.159C586.934 998.941 590.241 997.49 591.671 1000.55C592.655 1002.66 590.297 1003.66 589.515 1005.19C586.48 1011.14 580.814 1012.97 575.232 1014.24C565.938 1016.35 562.484 1030.4 549.729 1025.94C556.407 1029.53 563.356 1029.94 568.59 1036.86C572.657 1042.24 581.875 1035.45 589.153 1036.25C587.562 1029.03 581.317 1033.08 577.926 1030.7C586.11 1025.18 592.83 1026.58 599.94 1035.18C603.729 1039.77 610.902 1038.38 615.095 1033.45C617.454 1030.67 621.759 1029.54 625.883 1027.87C616.895 1032.63 635.672 1045.43 617.014 1048.04C625.206 1052.07 626.517 1055.39 621.961 1062.68C620.468 1065.07 619.756 1076.25 624.131 1082.39C628.276 1088.21 625.869 1089.87 620.077 1089.18C609.918 1087.98 598.782 1092.33 589.801 1084C589.229 1083.46 587.408 1083.27 587.003 1083.7C578.637 1092.64 574.932 1083.52 569.971 1079.39C578.491 1082.05 586.654 1078.21 595.404 1079.92C592.285 1073.73 578.651 1084.29 583.473 1069.63C582.44 1069.3 581.421 1068.79 580.368 1068.67C576.293 1068.24 572.204 1067.75 568.108 1067.63C563.426 1067.5 557.16 1071.25 557.586 1061.28C557.67 1059.37 548.773 1054.43 547.217 1055.52C535.976 1063.3 524.666 1061.01 512.706 1058.65C510.362 1058.19 504.207 1057.98 502.135 1064.82C512.085 1065.73 520.835 1067.92 529.466 1074.05C536.772 1079.25 548.801 1077.98 558.465 1081.07C561.682 1082.1 565.171 1080.71 568.122 1078.78C563.419 1085.72 556.093 1084.93 549.122 1085.29C525.705 1086.49 502.289 1087.8 478.865 1088.88C475.753 1089.01 470.457 1089.83 470.471 1085.72C470.492 1079.76 475.446 1083.82 478.237 1083.73C483.442 1083.55 488.661 1083.68 494.097 1082.43C481.46 1079.73 471.029 1067.54 456.229 1074.65L456.578 1074.85C465.935 1067.1 478.23 1066.59 490.448 1061.5C481.3 1057.85 473.213 1059.78 465.238 1059.35C471.022 1056.99 476.325 1053.41 482.989 1054.9C484.775 1055.3 487.308 1055.3 487.336 1052.86C487.363 1050.02 484.838 1048.85 482.514 1049.95C478.949 1051.62 475.271 1051.35 471.622 1051.91C468.364 1052.42 466.445 1052.77 466.284 1048.87C466.242 1047.8 465.447 1046 465.307 1046.34C461.833 1054.94 454.429 1047.13 450.34 1049.95C445.631 1053.18 440.139 1053.99 436.999 1051.08C433.078 1047.44 440.516 1044.66 440.725 1040.43C436.448 1036.05 431.173 1038.59 426.142 1038.26C409.131 1037.16 392.252 1036.86 375.638 1041.46C368.542 1043.42 371.494 1038.2 371.166 1035.31C365.598 1036.57 360.288 1033.35 355.04 1033.96C350.47 1034.49 345.998 1041.54 342.139 1032.81C340.981 1030.19 338.399 1030.96 336.138 1031.64C333.417 1032.45 333.18 1034.16 333.236 1036.81C333.466 1046.81 332.349 1057.38 347.24 1057.5C348.677 1057.51 351.58 1058.31 350.212 1060.89C349.563 1062.11 347.254 1062.44 344.881 1063.57C357.385 1065.17 368.954 1064.83 380.565 1063.8C383.809 1063.51 385.128 1064.08 384.451 1059.18C383.872 1054.94 390.194 1056.76 392.636 1057.53C396.941 1058.9 400.709 1061.95 406.626 1065.42C385.379 1069.54 366.344 1068.7 347.107 1069C353.331 1072.48 362.018 1070.73 365.674 1078.83C360.881 1080.8 356.129 1077.42 351.189 1078.65C351.88 1080.98 355.661 1081.58 354.859 1084.65C353.994 1087.97 351.189 1086.73 349.256 1086.49C341.427 1085.53 333.619 1084.35 325.825 1083.1C318.548 1081.94 312.1 1082.8 305.416 1086.85C297.594 1091.58 288.356 1088.16 279.822 1088.08C257.152 1087.87 234.607 1089.68 212.021 1090.93C208.337 1091.14 204.548 1092.01 200.117 1089.65C206.439 1084.37 213.054 1087.32 219.152 1087.8C226.772 1088.4 229.36 1085.55 226.939 1077.43C220.862 1080.54 214.714 1086.14 207.758 1080.19C208.009 1074.98 215.893 1078.28 215.077 1071.7C214.261 1065.08 208.155 1067.37 204.332 1063.53C212.44 1061.62 218.643 1062.37 223.68 1068.34C226.374 1071.53 229.939 1073.59 233.575 1071.14C239.568 1067.1 231.907 1063.2 231.181 1062.61C224.253 1056.88 228.921 1051.98 231.474 1046.95C233.289 1043.37 236.47 1042.54 240.134 1043.64C244.788 1045.03 242.227 1048.43 242.032 1051.12C241.711 1055.45 240.05 1060.18 246.009 1062.67C248.758 1056.23 247.055 1049.31 249.058 1042.77C249.951 1039.86 244.955 1032.13 241.18 1034.7C231.028 1041.62 227.588 1032.59 220.806 1027.95C217.443 1037.29 225.229 1048.7 214.826 1055.95C211.588 1053.81 215.307 1047.18 208.86 1045.87C202.845 1044.65 198.003 1047.85 192.798 1048.89C185.757 1050.29 178.201 1046.95 177.726 1036.82C173.986 1046.79 165.46 1040.89 160.415 1045.5C159.647 1046.19 154.909 1044.53 157.875 1041.72C163.262 1036.63 163.722 1028.01 170.204 1024.26C175.668 1021.1 175.528 1016.7 175.284 1011.1C172.004 1012.74 169.395 1017.84 165.215 1012.87C162.396 1009.51 163.994 1007.29 166.408 1005.21C171.991 1000.41 164.894 991.203 175.291 985.718C169.876 998.822 181.871 1006.62 180.419 1017.88C179.994 1021.19 182.569 1023.08 185.513 1021.97C189.714 1020.4 197.521 1023.01 197.431 1016.34C197.333 1008.93 202.608 1001.17 194.737 993.596C184.104 983.367 183.183 969.063 183.797 955.254C178.591 952.979 181.913 961.304 177.817 959.294C174.754 957.794 176.149 954.466 176.442 952.065C177.307 944.948 178.794 937.908 179.694 930.798C180.217 926.695 185.408 920.959 175.34 920.038C172.102 919.745 172.898 913.549 173.749 909.816C174.286 907.479 175.626 905.155 178.152 905.399C182.589 905.818 181.808 910.284 182.757 914.428C186.469 907.562 181.257 902.629 181.878 896.782C189.183 896.14 185.743 905.455 191.604 906.174C192.602 900.292 191.772 895.338 185.639 892.449C184.62 891.967 183.545 891.584 182.478 891.207C178.515 889.825 179.533 880.985 174.502 883.713C169.772 886.281 169.723 892.923 170.379 898.771C170.846 902.908 168.62 906.739 164.901 911.009C165.257 906.223 155.782 904.778 163.031 898.729C163.869 898.031 163.206 893.607 161.908 892.568C150.765 883.643 156.005 879.373 166.241 876.638C175.103 874.272 173.847 866.485 173.393 860.966C172.577 851.079 176.324 848.867 187.216 851.497C181.703 846.753 180.399 842.224 181.417 836.879C182.429 831.556 185.946 828.827 190.09 825.973C195.121 822.499 199.936 818.619 194.179 811.348C192.498 809.227 193.356 805.083 193.028 801.601C192.051 802.306 191.346 802.612 190.949 803.143C188.458 806.464 193.07 814.07 186.05 813.937C179.108 813.805 182.227 807.218 181.857 803.15C181.634 800.68 181.047 798.566 178.096 798.559C174.754 798.552 170.874 797.791 168.23 799.221C166.018 800.422 167.434 804.182 168.962 806.366C176.679 817.384 174.733 829.344 172.451 841.289C171.684 845.301 170.79 849.558 165.69 850.695C162.62 848.288 164.308 845.895 165.85 843.906C168.885 839.998 168.941 837.361 166.478 832.17C161.978 822.666 158.273 817.391 146.355 821.25C139.712 823.399 131.458 824.271 122.771 819.631C132.888 817.203 124.752 810.134 127.25 805.536C128.409 805.815 129.469 805.752 129.755 806.192C139.28 820.817 138.938 820.154 155.754 811.872C161.796 808.899 167.274 808.627 162.375 800.331C161.761 799.291 162.968 796.605 164.05 795.251C166.457 792.216 178.877 793.032 167.734 784.938C167.462 784.743 168.39 779.803 171.572 782.412C174.349 784.687 176.659 785.985 179.031 782.51C181.201 779.328 177.098 778.114 176.568 775.902C174.6 767.752 167.155 768.353 161.406 766.092C163.855 761.808 166.143 757.705 168.523 753.665C172.57 746.778 176.924 740.072 164.538 736.779C162.724 736.298 161.775 732.578 160.422 730.36L160.687 730.597L160.596 730.478ZM309.219 290.583C311.57 286.048 313.538 281.896 305.234 282.21C298.857 282.447 294.88 280.982 301.229 274.346C302.792 272.707 301.683 270.767 300.587 269.218C297.322 264.585 297.448 261.019 303.309 258.64C307.188 257.07 306.456 253.825 305.109 251.027C303.581 247.852 301.222 249.011 298.459 249.883C290.756 252.311 290.491 260.747 285.355 265.164C277.247 272.141 288.426 278.554 285.551 284.429C294.643 283.327 301.188 291.072 309.519 290.304C302.73 292.39 308.94 298.796 305.618 302.04C306.483 302.494 308.081 303.387 308.109 303.345C312.456 296.04 324.248 303.15 327.549 293.144C328.33 290.779 332.608 292.474 334.687 293.325C338.601 294.916 335.336 296.228 334.059 297.854C332.468 299.863 333.947 299.989 335.754 299.891C346.395 299.347 356.652 297.526 365.953 291.986C363.881 290.723 362.004 291.037 360.274 290.667C353.122 289.118 342.474 291.714 345.056 278.163C345.516 275.735 343.304 275.156 341.483 274.667C338.134 273.774 335.957 276.147 335.538 278.505C334.526 284.185 331.038 285.203 326.181 287.255C320.446 289.676 314.919 289.872 309.219 290.583ZM355.599 453.014C352.382 444.551 364.049 452.582 362.841 446.351C361.865 440.685 355.864 440.818 351.056 437.887C359.981 435.173 364.656 444.069 372.017 442.75C371.103 439.638 369.686 437.545 367.523 435.829C359.932 429.786 340.729 428.398 332.475 433.596C328.107 436.345 323.648 436.185 319.853 433.414C316.524 430.986 313.601 429.744 309.526 430.965C304.174 432.563 299.945 430.142 296.673 426.116C294.461 423.395 292.507 420.715 288.335 422.215C289.235 429.026 297.985 428.16 299.527 432.779C302.499 441.697 301.739 441.899 309.868 438.689C311.507 438.041 314.752 439.248 314.403 439.478C308.73 443.134 321.416 451.856 310.007 454.152C305.437 455.073 304.641 458.457 310.628 460.788C316.622 463.125 318.08 466.258 310.084 468.491C308.305 468.986 307 471.198 305.011 473.047C310.314 475.72 313.545 476.145 317.445 471.359C320.62 467.465 325.281 460.48 327.723 460.655C338.762 461.443 335.252 451.207 339.348 447.111C340.102 446.358 336.948 441.704 341.106 441.236C344.804 440.818 346.319 444.823 346.332 447.432C346.374 455.631 349.905 456.085 355.927 452.707C358.187 458.555 359.562 462.623 351.252 466.404C341.581 470.807 340.046 482.481 341.846 491.028C342.655 494.866 336.696 500.127 333.808 504.746C329.112 498.627 324.8 504.997 320.118 504.795C323.383 511.501 328.672 515.917 335.113 520.516C325.728 522.832 321.59 507.558 313.238 514.899C311.975 524.256 332.545 522.448 321.953 535.769C328.672 540.799 334.101 535.064 338.525 532.761C344.002 529.914 347.714 525.602 353.631 531.443C355.138 532.929 357.657 531.505 358.313 529.803C359.583 526.516 353.331 528.365 354.594 523.886C361.271 528.428 369.526 515.415 376.49 526.802C374.334 527.647 372.45 527.961 371.11 528.986C364.663 533.92 367.412 541.169 368.263 546.87C369.205 553.199 374.989 548.782 378.792 549.256C384.807 550.01 387.479 542.286 393.32 545.056C395.099 545.9 394.401 551.929 398.274 547.986C401.658 544.546 397.45 543.158 395.399 541.148C393.899 539.676 393.096 537.492 391.952 535.58C395.49 532.405 401.044 537.848 403.067 532.085C402.042 529.524 399.858 530.647 398.162 530.312C391.184 528.959 393.306 522.762 392.133 518.478C391.464 516.029 391.84 511.849 394.799 511.926C409.061 512.289 402.042 503.114 401.372 497.364C400.862 492.961 398.281 488.83 397.548 484.428C395.622 472.915 395.755 473.019 386.928 468.519C383.725 466.886 381.144 468.491 378.269 468.958C373.65 469.705 369.17 469.754 371.438 462.93C373.392 457.041 370.845 455.617 365.521 455.352C362.207 455.185 358.948 453.81 355.627 453.014H355.599ZM204.373 376.163C198.115 384.215 192.344 386.483 182.024 380.134C165.152 369.751 155.949 374.384 153.584 393.419C152.984 398.247 152.488 403.467 150.311 407.646C140.549 426.388 142.992 446.19 143.989 466C144.276 471.631 146.027 474.722 151.56 476.878C156.856 478.936 163.171 481.134 165.815 486.367C167.26 489.228 167.316 491.803 171.188 491.775C175.123 491.74 176.784 489.619 178.563 486.165C185.143 473.403 170.93 466.774 171.076 455.526C173.072 453.629 175.863 458.638 179.219 455.778C169.437 449.316 180.091 446.658 181.913 442.423C184.013 437.552 188.269 437.106 192.728 440.552C190.565 443.413 181.773 443.783 187.53 448.64C192.749 453.035 193.37 458.987 196.056 463.962C200.508 462.644 201.757 454.403 206.418 458.792C212.028 464.074 218.482 462.225 224.42 463.16C234.321 464.716 238.208 460.027 236.387 450.196C235.298 444.327 235.207 437.392 231.928 432.975C223.157 421.183 235.48 418.999 240.106 416.082C251.863 408.665 252.554 408.846 244.188 397.312C243.915 397.996 243.232 398.889 243.448 399.273C248.486 408.142 240.671 411.177 235.661 413.019C226.095 416.522 232.333 407.046 229.814 404.255C225.495 399.469 228.453 393 227.483 385.751C221.441 392.637 223.618 399.413 223.834 407.116C213.102 399.378 209.551 403.432 210.521 415.517C206.948 411.149 198.498 411.833 201.22 406.565C204.478 400.25 198.073 388.402 211.393 387.334C213.361 387.174 212.747 384.076 211.302 382.666C208.909 380.336 207.158 377.175 203.578 376.275C209.376 376.394 213.961 374.468 217.135 369.388C213.647 366.792 212.286 373.707 209.879 369.939C208.086 367.127 207.479 363.75 210.514 360.631C214.086 356.961 218.859 353.465 216.64 347.227C212.488 335.526 200.675 331.318 190.376 338.505C186.748 341.038 184.746 339.454 184.508 337.228C183.873 331.318 178.361 328.904 174.502 321.271C182.603 326.909 188.255 325.101 193.754 322.855C193.621 318.828 188.192 321.285 188.758 317.51C197.068 313.337 204.96 317.175 213.375 318.263C210.493 314.768 207.367 311.949 203.752 310.079C194.64 305.362 194.151 301.601 202.378 295.126C203.899 293.932 207.332 294.895 206.648 291.267C202.071 288.755 201.966 288.692 204.869 284.136C206.404 281.729 204.925 280.577 203.278 279.754C200.459 278.345 198.233 276.488 196.796 273.363C199.81 271.262 210.186 273.39 202.922 265.122C200.054 261.856 196.747 259.393 200.738 256.491C204.583 253.693 205.692 259.01 207.862 261.319C214.268 268.129 217.247 280.494 231.049 275.386C230.351 281.645 226.199 285.35 222.843 288.036C217.826 292.042 219.724 296.786 218.775 301.238C218.168 304.085 220.624 304.085 222.243 304.385C222.955 304.517 224.281 303.603 224.685 302.829C228.265 296.033 228.223 296.012 234.377 301.692C246.874 281.275 237.552 270.132 223.974 258.556C218.252 253.679 217.519 262.561 213.361 260.231C207.423 256.902 205.057 242.368 209.223 236.877C215.454 228.664 221.573 233.36 228.439 236.8C229.981 230.422 232.437 223.564 227.93 219.342C223.018 214.744 217.805 219.998 213.64 223.843C211.463 220.012 217.61 218.882 215.579 215.916C206.09 214.137 205.999 226.669 196.607 226.955C181.989 227.401 165.962 243.387 162.773 257.726C159.284 273.418 158.454 289.711 150.869 304.49C148.413 309.269 147.932 315.256 149.055 321.061C151.623 334.305 153.877 347.611 156.263 360.882C156.71 363.352 155.698 366.639 158.949 367.693C161.119 368.397 163.666 367.881 164.678 365.355C165.704 362.787 169.081 360.945 166.862 357.247C165.773 355.44 162.857 354.833 163.401 351.546C170.965 348.783 174.719 353.158 176.512 359.438C177.956 364.483 183.336 367.874 182.234 373.833C189.721 373.589 196.726 377.929 204.373 376.163ZM211.428 864.685C212.014 863.31 212.321 861.706 213.228 860.589C221.58 850.381 223.492 850.437 232.382 859.361C233.735 860.715 238.305 865.76 239.261 858.266C240.134 851.428 245.325 848.183 250.579 844.666C232.416 838.931 231.314 835.637 243.427 823.915C241.815 821.319 234.482 826.043 236.617 819.024C237.35 816.603 235.124 811.446 239.98 812.172C252.282 814.021 244.118 804.908 243.853 803.289C243.022 798.119 239.08 798.133 234.956 801.161C232.765 802.766 230.358 805.432 226.96 802.487C227.623 798.307 234.866 798.852 233.637 793.332C230.121 794.184 225.857 796.968 223.771 792C220.882 785.12 228.837 789.209 230.791 786.013C232.563 783.124 239.296 782.768 236.373 777.249C233.889 772.56 230.156 773.928 225.899 776.433C219.417 780.249 214.77 779.112 216.78 770.027C217.61 766.28 215.733 764.948 212.74 765.045C209.956 765.136 209.111 767.125 209.851 769.867C210.849 773.593 209.963 777.249 209.593 781.017C208.393 793.311 202.957 804.964 204.066 817.531C204.297 820.14 202.022 827.404 209.335 821.599C209.795 821.236 211.553 821.857 212.209 822.52C213.661 823.999 212.384 824.752 211.225 825.939C203.773 833.595 203.804 840.354 211.316 846.215C201.764 848.406 200.389 852.328 206.655 859.912C208.079 861.636 209.977 862.976 211.658 864.49C211.93 879.199 221.378 891.884 221.071 906.753C221.05 907.618 222.369 908.539 223.115 909.391C226.569 913.333 228.237 917.743 226.562 922.955C224.434 929.584 228.956 928.042 232.884 929.423C238.04 931.237 241.641 924.783 247.586 929.472C258.708 938.257 246.609 946.658 250.279 954.822C241.578 949.156 253.545 937.064 241.383 932.096C238.319 941.271 238.696 950.865 232.207 958.834C230.302 961.171 227.748 971.031 229.786 973.591C235.445 980.708 228.355 981.978 226.151 985.223C224.957 986.974 220.736 986.172 221.629 990.205C222.487 994.077 225.613 993.582 228.488 994.538C242.387 999.143 261.722 994.231 266.411 1015.53C266.544 1016.15 267.409 1017.02 267.974 1017.05C277.736 1017.63 277.352 1026.15 279.543 1032.27C281.56 1037.9 282.104 1044.06 283.988 1049.76C286.2 1056.43 290.512 1059.5 297.308 1054.91C299.694 1053.3 302.778 1051.54 303.658 1055.24C306.372 1066.62 314.236 1062.54 321.283 1062.83C320.592 1058.08 319.706 1054.41 319.58 1050.69C318.973 1032.07 320.397 1013.38 317.717 994.81C317.452 992.989 318.094 990.812 316.224 989.814C314.152 988.712 312.687 989.919 312.024 992.061C310.216 997.901 306.595 996.589 303.511 993.694C300.504 990.882 297.482 990.331 293.477 990.393C274.561 990.686 274.568 990.519 279.69 971.003C280.227 968.951 280.506 966.837 281.008 964.206C284.469 971.184 277.073 979.383 285.53 985.028C283.409 975.357 285.816 965.965 285.928 956.496C285.948 954.961 285.125 952.058 282.697 954.647C276.633 961.101 277.087 954.117 276.745 951.486C276.354 948.493 275.908 945.82 274.645 942.953C269.377 931 262.497 919.285 268.895 905.323C270.982 900.773 269.97 895.61 267.346 891.221C266.223 889.337 263.648 889.414 262.26 890.516C258.115 893.81 259.692 898.75 259.329 903.104C259.231 904.304 258.987 904.562 258.359 903.857C258.129 901.227 257.933 898.596 257.661 895.973C256.908 888.667 255.903 883.253 248.06 892.128C244.878 895.728 239.01 895.086 234.258 895.428C231.83 895.603 228.397 894.884 227.72 891.988C226.848 888.29 230.805 887.572 232.898 887.404C240.413 886.79 246.637 883.706 252.289 879.045C257.933 874.391 265.085 877.112 273.305 875.842C267.06 871.056 262.392 874.049 257.919 874.419C243.594 875.598 228.083 882.652 217.491 865.899C216.082 863.666 213.689 863.764 211.428 864.671V864.685ZM421.076 816.33C423.386 815.814 427.014 817.768 427.524 813.839C427.942 810.623 424.823 811.007 422.688 810.63C420.295 810.204 417.022 810.839 417.483 806.443C420.609 804.008 426.051 808.962 428.417 802.682C419.751 797.526 410.233 807.664 401.288 801.154C405.663 797.561 412.41 797.31 416.862 789.236C408.321 791.951 402 793.521 396.041 795.977C390.145 798.405 387.898 796.13 388.742 790.758C389.321 787.066 386.886 780.682 395.504 781.519C398.476 781.805 401.839 777.172 401.783 773.188C401.665 764.243 406.528 766.559 411.357 768.506C414.378 769.727 417.309 771.165 420.574 772.637C420.993 758.109 419.653 756.909 408.405 759.917C406.382 760.461 403.96 759.575 401.735 759.317C396.027 758.647 389.956 762.429 389.803 766.008C389.28 778.149 379.197 772.741 374.04 775.895C371.968 777.165 368.438 776.754 366.693 774.521C363.574 770.523 371.473 771.395 370.028 767.843C367.865 764.229 361.125 770.181 360.302 762.135C365.926 764.675 369.666 761.752 373.419 758.5C370.294 754.802 363.135 752.862 368.689 745.899C370.594 743.505 367.768 742.849 366.142 742.382C360.951 740.889 356.876 738.44 353.352 733.876C350.868 730.66 345.111 731.462 341.762 733.339C339.467 734.623 337.066 740.896 337.869 741.67C342.411 746.052 342.39 754.118 344.323 756.226C353.464 766.196 340.834 767.411 339.599 772.595C342.983 775.372 345.418 772.365 348.398 771.792C351.81 771.137 358.083 769.225 359.729 775.205C361.041 779.963 358.278 783.396 353.08 783.41C342.795 783.445 347.351 792.942 345.809 797.058C343.388 803.561 342.655 806.052 334.875 802.473C335.978 799.926 341.288 803.555 340.52 799.138C339.871 795.405 337.122 798.063 335.245 798.545C331.652 799.466 329.796 796.758 327.472 794.93C326.202 793.925 323.893 791.03 323.174 793.479C320.104 803.924 313.203 797.889 307.663 797.686C305.514 797.61 303.134 796.284 301.501 798.81C300.141 800.924 299.806 803.889 301.62 805.083C309.805 810.476 316.517 815.856 306.951 825.68C306.246 826.406 306.26 827.09 307.349 827.188C317.871 828.123 312.317 834.856 310.803 839.95C317.738 838.561 320.376 830.474 326.718 831.772C334.031 833.272 337.966 828.395 342.648 825.122C345.788 822.931 347.407 824.11 349.396 825.973C351.977 828.395 352.843 830.935 349.507 833.509C344.581 837.305 348.14 838.791 351.084 841.526C358.153 848.085 363.274 836.67 370.915 840.382C364.174 845.762 357.204 849.809 349.57 849.369C340.653 848.86 342.802 854.847 344.902 857.324C347.372 860.233 348.872 866.185 355.92 864.211C358.871 863.387 366.309 865.055 363.923 871.579C362.883 874.412 359.527 875.689 360.134 880.448C360.63 884.369 346.66 888.793 343.269 886.581C339.857 884.348 336.724 877.266 332.67 881.731C329.454 885.276 335.803 889.616 338.043 893.523C338.762 894.786 339.864 895.938 341.036 896.81C343.067 898.324 346.877 899.252 346.018 902.064C344.588 906.739 340.723 902.12 338.532 902.971C330.172 906.23 327.681 901.82 325.051 895.01C324.039 892.393 324.158 887.202 319.022 886.748C316.008 890.753 320.508 893.607 320.941 896.936C321.66 902.476 319.58 905.211 315.938 906.683C312.212 908.197 309.791 905.288 308.877 901.443C308.214 898.659 306.463 896.342 303.518 896.363C295.243 896.426 298.543 891.06 298.717 886.965C298.801 884.976 303.567 882.743 295.55 879.833C291.796 917.254 301.048 952.679 301.557 990.498C312.68 984.393 306.56 973.026 314.41 968.442C315.659 971.847 312.701 975.447 316.378 978.615C319.797 974.045 321.325 968.958 319.671 963.913C317.124 956.168 321.018 952.407 326.363 947.865C332.615 942.555 340.716 942.988 347.149 938.962C349.751 943.42 344.135 947.802 347.435 953.566C349.221 948.284 351.594 944.39 351.649 940.469C351.775 931.14 359.388 934.398 363.114 934.161C368.221 933.84 373.092 938.361 373.964 943.392C375.945 954.836 364.3 966.321 352.012 966.46C346.828 966.523 341.609 966.97 336.48 967.744C327.186 969.154 322.023 977.555 323.781 987.839C325.176 995.961 332.977 1001.61 341.483 999.799C344.728 999.108 347.393 1000.12 350.324 1000.33C370.698 1001.76 390.85 1010.32 411.566 1002.04C413.778 1001.15 416.708 1001.95 419.297 1002.13C429.638 1002.84 441.193 1008.93 448.24 995.313C448.777 994.273 450.675 993.422 451.959 993.387C456.32 993.261 461.874 992.801 460.737 987.574C459.614 982.39 453.104 980.771 448.415 982.209C441.409 984.358 435.332 982.285 428.849 981.078C429.959 977.394 435.29 979.864 435.555 975.245C434.494 971.645 426.819 975.245 427.796 968.351C429.987 952.931 421.788 936.673 431.62 921.692C432.743 919.982 432.394 915.447 430.999 914.268C424.537 908.811 427.356 901.792 426.979 895.373C426.728 891.13 428.452 886.665 425.284 881.655C421.718 890.439 424.384 898.764 422.919 907.304C417.79 904.555 417.804 900.11 416.883 896.336C415.815 891.954 416.046 887.069 414.183 883.127C412.494 879.561 407.721 873.435 404.63 878.766C402.432 882.548 402.502 882.317 399.732 880.671C395.636 878.229 391.296 878.354 386.628 878.57C381.646 878.794 376.155 878.222 373.503 871.586H389.949C384.095 865.599 377.732 864.148 370.97 863.694C368.012 863.499 365.465 862.466 366.24 858.95C366.937 855.789 370.14 856.27 371.773 857.24C382.414 863.576 393.215 859.71 404.044 858.538C403.5 853.047 397.66 852.649 395.19 849.118C399.558 845.218 402.383 848.365 405.3 850.639C407.896 852.656 409.103 858.838 413.799 854.589C416.736 851.937 421.104 849.648 419.709 843.627C418.299 837.535 421.879 831.814 423.623 825.994C419.13 825.527 413.959 831.542 409.27 824.18C414.706 822.813 420.818 823.064 421.362 816.023L421.097 816.31L421.076 816.33ZM538.83 754.837C538.935 753.079 532.09 753.225 534.958 747.978C542.319 753.365 546.205 748.892 549.799 742.801C553.127 737.17 558.667 731.706 560.335 732.362C567.955 735.328 570.564 729.725 573.285 724.826C576.349 719.321 571.855 695.918 567.166 695.5C553.811 694.313 552.129 685.438 550.497 674.406C557 675.683 562.728 676.772 566.692 671.064C574.869 659.293 583.215 647.654 589.592 634.725C592.188 629.464 588.978 624.37 585.678 627.566C579.147 633.88 572.462 626.1 566.978 630.35C566.064 631.055 565.296 631.913 566.587 633.832C567.41 634.006 568.778 634.439 570.173 634.578C573.32 634.885 577.737 633.455 576.83 639.26C576.021 644.424 572.79 643.014 569.225 642.177C560.468 640.112 551.662 639.365 543.421 645.994C541.196 635.695 545.871 632.729 553.978 632.339C546.792 630.231 541.684 627.482 536.234 636.706C527.826 650.913 521.219 649.671 514.75 634.104C510.543 639.177 505.994 641.019 500.265 636.49C498.151 634.822 492.743 636.365 494.118 638.995C496.72 643.984 492.59 644.542 491.25 647.152C488.243 653.013 485.752 659.251 491.222 666.277C496.176 660.088 500.684 656.146 509.594 657.702C512.392 658.19 518.197 659.544 522.44 657.835C523.745 662.824 518.33 664.142 516.6 667.471C520.933 671.532 526.564 666.94 531.148 670.904C524.917 679.179 515.092 675.711 507.515 678.656C505.701 679.36 501.367 676.227 502.065 681.105C502.644 685.194 505.512 683.31 508.15 682.738C510.997 682.124 515.986 682.821 516.013 685.061C516.055 689.031 512.015 692.213 508.066 690.064C504.675 688.222 499.337 693.769 497.662 686.806C497.118 684.538 494.774 685.787 494.941 687.259C495.813 694.662 488.738 688.822 487.175 692.318C488.585 694.209 490.001 696.274 491.578 698.214C495.709 703.294 501.786 708.115 491.215 713.104C484.203 716.418 492.799 719.565 491.934 723.326C491.103 726.927 493.371 728.336 497.558 727.373C504.312 725.831 510.634 724.45 515.651 718.777C518.846 715.162 524.68 713.962 527.903 718.379C531.999 723.996 527.206 724.91 522.586 725.412C520.039 725.692 520.681 728.273 520.667 729.99C520.612 736.374 516.488 740.491 509.203 746.827C519.488 743.464 521.121 745.878 521.17 752.953C521.205 757.628 520.814 765.61 530.052 766.678C522.14 753.714 535.432 760.552 538.809 754.823L538.83 754.837ZM324.744 334.863C322.699 338.352 321.541 341.206 319.636 343.418C314.822 349.021 320.271 354.058 320.941 359.012C321.59 363.834 327.312 358.475 330.703 359.536C333.64 360.457 337.617 354.135 339.732 360.924C341.281 365.892 339.39 368.676 334.812 370.693C332.14 371.865 329.175 374.147 329.426 377.266C329.991 384.264 342.502 390.914 349.103 387.481C354.573 384.634 359.255 387.69 364.286 387.886C367.412 388.004 375.157 399.636 372.191 384.369C371.605 381.341 376.252 386.616 378.492 384.606C378.046 380.594 372.087 381.801 371.961 377.405C375.513 374.649 380.865 381.794 382.804 376.617C384.786 371.328 378.401 370.951 375.227 368.83C374.361 368.251 373.196 366.43 373.371 366.234C380.271 358.384 372.24 354.798 367.565 348.825C381.032 359.312 377.655 342.713 383.697 340.564C389.224 338.596 386.489 326.155 394.743 325.967C399.167 325.862 401.553 324.131 404.33 322.234C412.641 316.547 421.083 311.244 430.985 308.711C428.989 302.068 426.086 298.663 419.688 305.348C417.95 307.162 415.55 308.257 413.701 310.288C411.14 313.1 390.389 311.048 390.856 308.774C392.224 302.208 394.631 295.698 401.867 293.158C407.721 291.1 413.52 284.869 419.869 293.025C420.895 294.344 425.228 295.209 427.677 292.921C424.188 286.564 412.187 285.88 417.001 274.011C407.7 277.982 401.818 273.746 396.92 266.811C395.162 264.32 390.124 261.026 389.894 263.133C388.554 275.33 378.004 271.862 370.733 275.693C375.855 279.147 377.055 281.889 375.185 289.146C372.84 298.252 366.247 301.182 361.627 306.883C360.267 308.557 358.027 310.044 358.906 312.653C360.197 316.498 362.22 313.686 364.16 313.191C366.791 312.521 368.514 314.154 369.191 316.526C370 319.352 367.482 320.154 365.905 321.703C365.053 322.541 358.432 319.254 363.344 324.69C364.739 326.239 365.598 327.955 364.181 329.672C362.402 331.828 360.323 330.648 358.076 329.923C349.856 327.285 349.863 327.418 349.758 335.247C349.745 336.119 348.97 337.138 348.286 337.821C342.439 343.69 329.133 342.21 324.737 334.863H324.744ZM400.193 671.887C404.47 672.208 394.178 659.118 405.879 667.296C407.875 668.692 407.638 665.866 407.226 664.554C406.068 660.828 408.196 658.86 411.126 660.046C418.746 663.124 417.322 658.037 417.218 653.983C417.134 650.976 416.618 647.961 416.729 644.961C416.841 641.905 417.86 638.269 413.129 638.549C410.526 638.702 405.74 633.685 405.181 641.458C405.049 643.342 401.232 645.987 397.66 644.033C394.743 642.442 396.39 639.33 395.643 637.788C393.508 633.357 398.064 631.92 398.239 628.822C398.476 624.719 397.667 621.3 393.403 619.66C388.533 617.783 389.224 620.77 388.756 624.105C388.386 626.763 384.905 626.275 383.104 625.159C375.352 620.351 368.528 616.109 368.13 631.034C368.026 634.906 362.353 636.057 359.102 637.774C356.45 639.169 355.047 635.527 353.854 633.127C351.426 628.25 357.225 629.778 358.313 627.336C353.526 626.191 348.942 625.354 344.107 626.728C345.293 629.847 350.505 630.887 347.798 635.346C344.016 641.57 345.635 644.145 353.052 643.942C357.518 643.817 358.543 645.212 357.399 650.934C355.878 658.511 351.733 661.693 345.977 664.596C339.229 668.001 343.311 673.918 342.955 678.684C342.795 680.784 345.237 683.742 347.24 682.884C349.884 681.747 353.729 678.684 353.617 676.632C352.884 662.726 364.258 670.792 366.456 671.35C373.643 673.192 373.594 674.274 375.289 668.378C376.406 664.491 388.533 660.053 389.203 662.9C390.863 669.934 398.581 667.324 400.186 671.887H400.193ZM362.981 587.989C363.581 590.689 367.719 590.668 367.182 594.164C366.072 601.344 366.149 601.079 373.943 600.472C377.536 600.193 381.227 601.253 385.121 601.742C383.593 598.204 381.89 594.185 385.553 591.596C389.28 588.966 391.491 592.413 393.717 595.113C396.76 598.797 401.337 597.688 404.937 597.088C409.494 596.32 407.533 592.985 406.179 590.131C404.993 587.633 407.317 586.893 409.026 586.321C419.59 582.791 428.201 573.929 440.237 574.613C442.93 574.766 443.677 573.587 443.963 571.668C444.256 569.736 442.756 569.31 441.123 569.149C429.994 568.012 428.78 564.642 438.465 558.216C440.488 556.869 441.5 554.001 443.112 551.643C438.353 550.959 435.757 554.162 432.52 555.306C424.454 558.16 416.995 571.271 406.821 557.525C404.812 554.81 394.652 555.969 394.799 556.52C397.876 567.984 387.423 560.776 385.526 563.637C383.09 567.307 371.696 565.584 377.746 573.643C384.479 582.609 378.813 583.453 372.394 585.142C369.233 585.972 366.142 587.033 362.974 587.996L362.981 587.989ZM413.359 73.3012C410.652 73.3012 408.217 72.7499 406.193 73.4128C401.944 74.8153 396.578 76.3643 395.797 81.0812C394.827 86.9354 393.766 97.0319 396.459 98.5112C408.51 105.119 416.625 116.506 428.696 122.849C440.432 129.017 457.82 126.896 468.231 118.432C472.508 114.95 471.671 111.434 469.975 108.768C467.701 105.196 464.958 106.766 462 109.836C458.748 113.206 454.045 115.181 449.964 117.755C443.579 121.781 437.418 117.804 431.682 116.29C426.993 115.055 434.508 110.185 431.159 106.514C428.947 104.093 436.978 104.226 433.887 101.212C431.299 98.6856 428.549 101.093 426.268 103.451C424.461 105.314 422.004 106.975 419.185 105.893C417.267 105.154 416.129 103.312 418.292 101.651C420.63 99.8579 416.018 95.2247 422.318 94.5828C433.838 93.4036 432.045 88.9589 423.721 84.242C421.551 83.014 420.895 80.8998 420.944 78.4576C421.076 72.2964 417.853 71.4521 413.352 73.3012H413.359ZM175.933 567.314C172.381 569.826 173.065 574.013 174.558 577.062C176.679 581.395 182.157 579.358 184.508 578.367C188.653 576.629 193.342 576.071 194.047 579.616C195.847 588.673 199.685 581.611 201.275 580.635C204.004 578.96 205.846 575.855 207.723 573.734C203.215 568.682 195.393 577.969 194.207 570.14C193.67 566.603 194.723 561.348 193.844 556.115C199.182 557.748 204.953 560.1 202.992 563.916C200.333 569.101 202.587 569.715 205.657 568.521C212.154 566.003 214.268 569.443 215.231 575.464C219.724 567.949 217.868 562.807 212.447 558.599C208.937 555.871 206.962 552.054 206.355 548.021C204.806 537.743 195.91 532.294 192.156 522.937C186.197 529.077 194.389 533.557 192.84 536.557C188.681 544.609 182.387 542.265 175.64 537.367C178.947 535.294 181.424 533.738 184.083 532.071C181.061 528.372 178.228 524.263 173.1 527.465C168.669 530.235 168.802 534.073 170.504 539.223C173.093 547.044 176.163 554.252 181.466 560.616C184.466 564.216 179.303 569.156 182.778 573.001C181.703 573.329 180.636 573.922 179.554 573.95C173.428 574.111 182.255 567.3 175.933 567.307V567.314ZM567.745 821.522C571.297 823.608 573.355 824.173 574.367 825.527C579.063 831.807 584.024 829.386 586.955 824.808C590.395 819.415 586.215 816.275 581.31 813.805C578.972 812.625 574.465 812.821 574.946 807.315C578.372 809.088 581.198 810.902 584.275 812.046C587.694 813.316 589.32 812.102 588.238 808.188C585.838 799.466 591.602 791.616 602.389 788.483C594.672 788.406 589.459 783.878 583.626 780.145C581.617 778.861 575.693 774.981 573.551 778.547C566.692 789.99 556.435 784.924 546.952 785.085C551.697 789.934 559.149 790.904 561.884 797.819C562.386 799.082 566.517 798.893 564.78 802.124C563.733 804.064 562.038 806.569 559.686 805.885C552.75 803.882 546.659 809.018 538.195 806.08C547.12 814.747 554.704 819.638 564.396 811.956C566.643 810.169 569.064 810.351 570.069 812.681C571.981 817.126 576.593 817.098 580.765 819.861C576.565 820.398 573.327 820.81 567.752 821.522H567.745ZM180.259 201.033C177.245 193.574 170.909 191.578 164.818 188.634C159.298 185.968 157.889 186.827 154.561 192.234C144.862 208.01 154.798 221.114 158.628 235.035C159.836 239.431 162.724 237.463 165.634 235.718C179.254 227.555 171.46 210.969 180.266 201.026L180.259 201.033ZM174.83 639.958C175.319 642.896 175.654 645.868 176.345 648.757C176.979 651.422 176.024 655.937 180.287 655.56C184.718 655.169 190.481 656.948 193.314 651.966C197.096 645.331 201.91 643.517 208.811 646.559C210.416 647.264 212.726 648.568 213.64 646.126C214.707 643.272 212.391 642.428 209.983 641.891C206.048 641.012 200.961 640.698 206.474 634.753C207.123 634.048 205.671 629.952 204.178 628.94C196.112 623.491 188.653 624.782 179.764 629.115C173.246 632.283 176.896 636.539 174.83 639.965V639.958ZM463.444 595.929C472.348 598.951 480.33 590.312 479.786 587.556C478.062 578.827 472.773 589.196 468.782 587.612C468.098 587.34 467.191 587.214 466.787 586.705C461.895 580.495 456.711 586.007 453.187 587.71C448.456 589.992 446.147 593.215 441.898 586.782C440.418 584.549 434.808 579.609 429.547 586.419C427.356 589.259 421.83 589.761 419.751 594.555C418.983 596.32 412.501 595.169 415.759 599.921C418.355 603.709 420.888 603.479 422.507 598.246C423.302 595.664 426.749 595.65 429.401 596.976C431.968 598.26 433.79 599.844 432.352 603.165C431.717 604.637 427.552 606.626 432.192 607.756C434.243 608.259 439.204 608.001 438.374 605.063C436.525 598.532 441.36 598.483 444.256 598.727C451.066 599.293 457.346 597.66 463.437 595.936L463.444 595.929ZM333.954 171.86C333.954 168.838 333.898 165.817 333.968 162.803C334.038 159.795 334.171 156.781 334.38 153.774C334.68 149.378 334.282 144.347 329.489 143.614C323.872 142.756 325.149 148.094 324.744 151.632C324.283 155.679 321.471 158.463 317.801 156.928C310.461 153.843 318.276 154.004 319.008 152.511C319.839 150.836 318.548 149.601 317.41 148.701C315.61 147.278 312.31 145.666 311.382 147.236C309.198 150.934 303.441 153.376 305.046 158.351C307.021 164.477 306.7 168.496 299.918 170.604C297.775 171.266 296.98 174.113 298.822 174.944C303.811 177.19 310.189 169.299 314.794 176.842C315.945 174.993 316.936 173.018 318.29 171.336C320.795 168.224 322.678 163.71 327.493 164.128C331.54 164.477 332.67 168.001 333.954 171.86ZM279.655 198.981C279.006 204.801 266.369 208.045 275.747 215.986C276.138 216.321 275.726 218.637 275.245 218.812C263.948 222.922 267.339 227.687 274.107 233.402C276.173 235.146 272.726 237.191 271.951 239.075C270.026 243.764 274.156 245.717 275.573 248.829C276.564 251.013 278.957 251.125 280.276 249.688C282.481 247.294 284.888 244.775 284.295 240.868C283.485 235.537 282.711 230.932 288.153 226.229C290.882 223.871 290.268 213.202 285.879 212.553C275.119 210.955 277.554 205.966 279.655 198.974V198.981ZM223.736 704.256C218.887 710.139 215.44 715.511 210.8 719.495C208.002 721.896 204.283 723.194 203.222 727.178C202.434 730.129 201.722 733.388 205.846 734.532C209.216 735.46 211.505 733.032 211.177 730.436C210.486 725.029 212.391 725.866 215.712 727.652C219.647 729.767 224.846 730.695 227.49 733.827C234.133 741.698 237.643 737.016 243.476 730.611C233.7 731.692 232.591 728.113 234.545 721.01C236.554 713.697 235.026 711.604 230.888 713.23C220.631 717.263 225.488 709.127 223.743 704.27L223.736 704.256ZM379.26 72.7848C362.283 69.6868 362.227 69.8333 353.84 81.1719C352.438 83.0698 348.433 83.7187 350.638 86.9493C352.766 90.0613 355.299 86.1678 357.42 86.3493C362.66 86.7958 372.275 81.765 369.177 94.8689C368.654 97.0808 371.773 103.235 376.252 101.232C383.049 98.1972 388.372 90.8707 387.242 84.4793C385.812 76.4062 379.302 83.4675 374.969 83.8443C374.124 83.9141 373.217 83.1954 372.443 82.8884C372.882 78.025 378.52 77.1109 379.26 72.7848ZM272.705 652.818C276.654 645.694 272.286 642.24 271.275 638.158C269.16 629.617 264.227 627.14 258.254 634.39C250.747 643.503 248.039 629.457 242.276 631.85C240.476 625.696 246.63 625.968 249.163 623.302C249.972 622.444 250.453 621.495 249.051 620.19C246.134 622.193 242.89 623.972 240.189 626.373C235.403 630.629 235.459 643.565 239.066 642.735C245.806 641.193 248.828 644.354 252.77 648.143C253.921 649.252 258.31 649.217 259.078 648.157C265.923 638.751 269.195 645.121 272.698 652.825L272.705 652.818ZM306.784 142.484C307.446 141.005 306.26 140.126 305.332 140.202C299.611 140.663 294.259 140.656 288.753 137.83C286.297 136.567 284.651 140.426 285.034 143.265C285.948 149.95 284.874 155.637 279.152 160.165C276.647 162.14 278.692 167.694 278.992 167.366C284.037 161.826 289.367 178.432 292.047 167.882C294.329 158.902 297.106 151.541 305.011 146.461C306.03 145.805 306.211 143.845 306.784 142.484ZM248.514 323.21C250.356 328.095 249.1 334.647 255.031 336.6C259.936 338.212 273.905 324.257 273.117 318.703C272.203 312.228 265.804 308.453 261.213 308.711C253.754 309.13 250.028 315.891 248.507 323.217L248.514 323.21ZM417.574 678.677C408.81 683.24 400.995 688.32 391.505 684.789C389.894 684.189 387.34 684.712 387.591 687.322C387.807 689.548 388.282 691.355 391.805 689.345C396.683 686.568 398.141 690.036 396.229 693.93C390.515 705.568 390.598 705.645 403.36 705.945C405.761 706.001 408.468 708.345 409.815 705.094C411.322 701.472 403.946 703.049 405.475 698.653C416.387 697.028 418.495 689.722 417.574 678.677ZM618.368 417.017C618.347 421.085 618.605 425.181 618.214 429.214C617.886 432.584 620.063 437.238 615.207 438.843C610.434 440.42 609.688 434.824 606.68 433.1L607.022 432.884C604.622 439.366 604.629 444.453 613.309 445.8C615.716 446.176 618.054 447.977 617.558 451.479C616.763 457.138 613.909 452.289 612.22 452.784C609.248 453.663 607.141 455.624 607.587 459.49C608.146 464.304 604.936 465.839 599.926 466.67C600.666 459.022 603.792 451.542 591.371 449.568C587.757 448.995 581.952 453.67 579.042 447.83C576.523 449.958 571.841 446.239 570.327 450.963C568.492 456.692 576.097 453.014 576.886 457.243C569.448 459.566 563.321 458.352 556.56 455.422C551.299 453.14 546.247 465.937 538.684 456.161C533.995 450.098 527.966 463.599 520.73 457.215C524.812 459.866 525.426 463.711 527.087 466.921C528.078 468.84 529.02 469.649 531.462 468.47C536.779 465.902 559.882 468.972 561.396 473.577C564.78 483.89 572.783 480.757 579.314 481.392C584.847 481.937 590.485 481.406 595.635 484.023C597.658 485.049 601.991 483.2 601.307 487.588C600.777 490.987 597.644 491.935 594.344 492.145C589.229 492.466 585.112 487.477 577.43 489.682C583.87 493.331 588.538 496.352 593.548 498.634C595.698 499.611 599.158 503.309 600.282 500.706C603.512 493.24 615.388 491.935 613.644 481.239C613.016 477.366 614.474 473.717 616.491 470.465C625.848 455.352 623.029 438.703 622.764 422.355C622.708 419.069 621.221 417.526 618.075 417.338L618.382 417.017H618.368ZM583.459 395.366C586.71 397.605 588.873 400.341 588.378 404.66C586.689 419.25 594.769 427.463 607.022 432.884L606.68 433.1C607.231 431.726 607.783 430.351 608.334 428.984C600.603 427.023 602.542 416.682 594.937 413.926C591.12 412.544 590.318 407.562 592.034 403.118C593.604 399.036 593.486 398.994 603.75 399.301C605.187 402.615 601.468 404.583 601.587 408.588C611.404 403.139 610.064 418.636 618.375 417.024L618.068 417.345C628.897 411.016 628.562 400.983 627.418 390.384C626.685 383.587 627.662 376.568 626.58 369.856C623.866 353.019 612.834 335.714 630.439 320.475C630.537 320.391 629.818 319.373 629.392 318.64C624.927 320.008 624.529 326.288 619.435 326.964C615.43 315.451 621.291 305.125 623.043 294.288C615.193 310.595 605.522 326.392 611.844 345.748C605.815 345.839 601.238 342.908 594.86 347.067C603.568 346.739 611.39 348.295 611.599 355.175C611.906 365.118 608.899 375.173 607.141 385.15C607.015 385.876 606.199 389.532 604.426 385.702C601.866 380.175 596.263 387.886 593.444 383.253C589.327 387.007 594.637 389.616 594.951 393.461C590.604 392.944 586.487 392.616 583.229 395.701C583.229 395.701 583.438 395.421 583.466 395.38L583.459 395.366ZM160.582 730.471C157.61 730.848 154.588 731.741 151.693 731.448C149.579 731.232 146.948 728.727 149.844 726.948C152.921 725.05 153.667 723.48 151.63 720.933C149.599 718.4 147.681 720.849 145.678 721.554C144.338 722.021 142.706 721.938 141.247 721.756C137.277 721.268 135.121 719.021 135.498 714.897C135.679 712.944 133.6 709.852 137.082 709.308C144.017 708.227 137.717 713.306 139.412 714.765C141.087 716.209 142.922 716.474 144.129 714.458C145.685 711.862 148.783 712.274 150.172 711.325C143.131 706.301 135.177 704.026 125.024 706.517C133.195 710.655 121.368 720.27 131.297 723.891C130.92 724.387 130.648 725.099 130.146 725.357C122.352 729.334 117.97 712.985 109.122 721.735C108.801 722.049 105.864 720.577 105.348 718.267C103.847 711.562 103.575 711.36 98.9771 715.086C96.6396 716.977 94.8812 712.504 92.9554 715.1C95.9209 722.552 99.626 729.536 107.559 737.637C96.7233 734.616 90.7924 740.254 83.6613 741.719C77.7303 742.94 75.6161 745.794 75.037 751.202C74.9114 752.36 72.4692 753.127 74.9811 755.395C78.6444 753.239 82.7472 751.878 86.857 755.695C89.2015 757.872 93.3461 756.805 92.9694 754.083C91.511 743.505 97.5397 744.28 104.454 745.313C107.266 745.731 108.341 743.917 108.76 741.3C109.367 737.519 111.648 735.397 115.095 735.293C118.11 745.927 109.269 749.367 103.017 755.032C107.329 757.705 111.474 757.384 114.523 754.202C117.363 751.237 119.498 747.852 123.399 752.185C129.12 758.542 117.412 755.451 119.038 760C130.083 765.694 128.527 746.813 138.442 749.611C133.551 747.873 128.653 746.136 123.761 744.399C130.948 743.792 137.389 743.45 140.633 734.379C140.033 748.145 151.281 737.923 154.498 743.156C153.486 737.519 158.335 734.532 160.317 730.248C160.317 730.248 160.582 730.485 160.568 730.485L160.582 730.471ZM79.3421 1066.87C68.3594 1068.37 57.6279 1068.04 46.9033 1065.54C45.124 1065.13 43.1005 1063.91 42.4098 1066.73C42.2004 1067.58 42.9749 1069.51 43.4494 1069.56C50.9434 1070.37 57.0836 1076.57 63.7682 1076.85C71.0946 1077.15 78.2327 1077.42 85.5452 1078.7C110.511 1083.08 136.056 1082.59 161.008 1087.66C167.888 1089.06 175.382 1086.62 181.878 1083.75C188.827 1080.68 192.644 1073.78 191.158 1066.73C189.79 1060.25 183.155 1068.84 179.184 1062.52C180.231 1068.16 180.085 1071.75 181.613 1074.36C183.245 1077.15 183.19 1078.97 180.252 1078.87C173.826 1078.66 167.134 1081.21 160.973 1078.45C160.994 1072.82 167.553 1076.11 168.006 1071.48C159.773 1068.56 152.67 1066.02 142.594 1068.83C129.965 1072.35 115.598 1069.21 102.319 1070.15C91.4273 1070.93 96.2977 1066.59 97.6374 1059.84C91.0645 1064.97 85.3917 1066.03 79.3421 1066.85V1066.87ZM144.178 990.442C140.047 981.678 130.837 983.22 126.162 985.858C119.491 989.626 113.114 981.964 105.648 989.437C99.0329 996.052 85.9918 999.241 75.2812 997.301C65.2823 995.487 55.73 998.271 46.0311 996.471C62.4005 1003.28 87.3943 1003.32 105.592 996.45C108.39 995.396 111.823 994.796 112.486 999.325C113.358 1005.24 113.26 1005.26 119.812 1006.64C119.791 1003.04 110.699 999.911 117.161 997.196C123.51 994.531 131.876 993.98 139.021 997.504C140.877 998.418 144.08 1000.97 139.531 1002.59C137.877 1003.18 134.605 1000.85 135.735 1004.91C136.461 1007.54 141.094 1009.54 141.924 1008.36C145.301 1003.57 151.442 1008 155.761 1003.25C145.364 1000.99 147.15 994.273 147.506 986.36C146.397 987.721 145.287 989.082 144.185 990.435L144.178 990.442ZM219.075 149.078C214.289 164.77 218.315 174.748 230.009 183.142C232.242 184.747 235.284 187.413 235.947 183.763C236.959 178.209 243.483 175.334 242.059 169.201C241.941 168.692 240.224 168.189 239.324 168.301C236.854 168.601 236.059 176.737 232.709 170.136C232.109 168.95 231.579 159.74 237.224 159.712C245.116 159.67 244.264 153.027 244.906 149.831C245.548 146.601 236.554 145.017 239.624 138.646C238.187 138.828 235.891 138.507 235.445 139.267C230.212 148.206 224.274 143.893 217.701 140.405C219.299 143.356 220.359 144.807 219.054 149.078H219.075ZM87.8408 139.672C87.2408 134.46 93.1368 130.692 91.4273 125.2C89.355 124.761 88.5456 126.01 87.4361 127.07C85.1684 129.24 86.6965 135.318 81.9727 134.16C77.9117 133.162 77.9187 128.375 77.9536 124.531C78.0303 116.639 77.4372 108.664 78.3932 100.877C79.1049 95.0503 83.7101 89.7334 79.991 83.3419C79.4538 82.4209 80.2074 80.1392 81.0865 79.1275C83.9473 75.848 82.0355 75.4224 79.8585 72.3941C76.3208 67.4819 70.669 58.7669 76.8651 53.6244C85.8732 46.1514 86.857 47.3445 83.8357 37.0387C82.3146 41.7555 84.2404 48.5726 76.6488 49.4448C67.7035 50.4705 74.5974 40.8554 69.0921 38.3156C69.0921 44.1697 68.7292 49.4308 69.2246 54.6012C69.5386 57.8947 71.3668 61.0067 72.1064 64.2931C73.3554 69.7845 75.0858 75.3386 75.1835 80.8928C75.4905 98.1205 73.3484 100.793 61.6958 99.3834C73.46 104.805 73.2367 114.629 72.4622 125.012C72.1971 128.585 73.0483 132.883 74.9602 135.82C77.9047 140.335 81.6796 146.056 88.106 139.302C88.106 139.302 87.8408 139.644 87.8199 139.672H87.8408ZM290.449 57.49C282.955 55.5711 274.638 55.1385 271.142 46.3886C269.991 43.5139 267.681 44.093 265.504 44.3233C257.885 45.1257 260.201 52.8499 259.182 56.3666C256.789 64.6071 266.851 57.7621 269.244 62.1649C265.504 66.0515 267.528 73.9989 261.011 75.4712C256.95 76.3853 253.412 76.0364 254.284 81.6045C254.682 84.1722 254.626 87.1936 258.031 87.7448C262.399 88.4565 266.446 87.4936 268.881 83.5024C270.905 80.188 271.728 75.7433 277.073 76.4202C278.72 80.4951 275.301 86.2027 282.39 88.2053C284.686 77.5645 276.968 68.5843 277.115 58.1528C281.141 59.2134 279.815 62.3045 281.253 63.8605C282.613 65.3328 281.448 68.6401 284.916 68.8076C288.091 65.6398 284.958 59.4507 290.247 57.3016C290.247 57.3016 290.491 57.5109 290.456 57.483L290.449 57.49ZM144.296 956.629C144.75 957.92 143.536 960.418 142.322 961.562C139.691 964.046 136.035 965.386 132.616 964.869C130.69 964.583 130.244 957.843 126.573 962.588C124.271 965.567 125.199 969.9 126.071 973.549C126.992 977.401 132.135 977.987 133.244 977.003C138.7 972.154 142.461 976.954 146.822 978.413C154.868 981.106 162.85 977.129 163.178 970.256C163.736 958.583 148.183 948.953 137.312 954.04C139.314 957.948 143.075 953.14 144.303 956.629H144.296ZM608.292 278.763C603.645 272.386 602.724 277.779 599.424 279.293C594.337 281.624 597.233 290.911 593.144 289.341C582.887 285.406 571.36 295.754 562.345 285.811C560.44 283.71 558.263 282.978 556.888 285.392C555.067 288.595 559.26 286.927 559.784 288.071C564.605 298.635 574.555 292.174 581.833 294.567C587.464 296.423 594.435 299.933 598.558 290.388C600.379 286.173 603.177 289.551 604.817 292.446C607.866 297.84 613.581 298.335 616.812 294.721C619.882 291.295 628.799 287.046 620 280.068C618.249 278.679 617.307 276.258 616.023 274.367C611.941 273.572 610.853 282.28 608.285 278.756L608.292 278.763ZM464.226 234.135C466.5 233.562 470.429 234.135 471.664 235.704C479.046 245.096 482.563 231.769 488.668 232.746C489.513 232.879 486.659 224.24 492.457 222.063C486.756 223.431 486.582 216.607 482.277 215.288C477.113 213.704 477.727 219.754 476.73 219.53C471.999 218.449 471.413 226.473 466.403 223.724C462.146 221.393 464.344 217.905 464.61 214.737C464.847 211.813 464.086 209.511 460.688 208.89C453.78 218.337 464.965 223.403 466.891 230.66C461.17 232.355 461.009 225.608 455.525 225.81C456.181 231.581 456.774 236.012 464.219 234.128L464.226 234.135ZM456.502 1074.77C431.333 1075.4 407.519 1086.95 379.846 1083C384.674 1088.81 389.217 1087.91 393.473 1088.02C410.708 1088.47 427.907 1079.5 445.275 1087.95C447.228 1088.9 453.431 1089.44 452.022 1085.48C448.861 1076.61 454.869 1081.18 457.409 1081.05C460.395 1080.91 463.626 1082.49 467.582 1079.36C462.886 1077.39 459.509 1075.97 456.132 1074.56C456.132 1074.56 456.481 1074.76 456.502 1074.77ZM421.069 816.337C420.072 815.333 419.248 814.021 418.062 813.337C407.024 806.994 394.338 807.455 382.602 807.427C367.579 807.392 351.789 804.88 336.166 811.788C342.488 816.819 348.084 816.798 354.057 814.363C362.597 810.888 369.582 812.095 374.124 820.733C372.498 822.701 370.928 822.345 369.561 821.78C362.744 818.947 362.297 827.055 357.999 828.744C357.162 829.071 355.857 834.619 358.118 835.784C363.344 838.477 361.9 831.13 365.039 830.237C366.093 829.937 367.314 830.307 368.417 830.125C377.215 828.702 385.986 827.32 394.736 830.565C396.787 831.325 398.329 831.423 400.109 828.667C404.951 821.145 412.996 818.131 421.349 816.044C421.349 816.044 421.083 816.33 421.069 816.337Z" fill="white"/>
</mask>
<g mask="url(#mask0_53_112002)">
<path d="M703.837 1087.75H-63.3066V1094.6H703.837V1087.75Z" fill="#1DBB4C"/>
<path d="M703.837 1078.74H-63.3066V1085.58H703.837V1078.74Z" fill="#1DBB4C"/>
<path d="M703.837 1069.72H-63.3066V1076.56H703.837V1069.72Z" fill="#1DBB4C"/>
<path d="M703.837 1060.7H-63.3066V1067.55H703.837V1060.7Z" fill="#1DBB4C"/>
<path d="M703.837 1051.69H-63.3066V1058.53H703.837V1051.69Z" fill="#1DBB4C"/>
<path d="M703.837 1042.66H-63.3066V1049.51H703.837V1042.66Z" fill="#1DBB4C"/>
<path d="M703.837 1033.65H-63.3066V1040.5H703.837V1033.65Z" fill="#1DBB4C"/>
<path d="M703.837 1024.63H-63.3066V1031.47H703.837V1024.63Z" fill="#1DBB4C"/>
<path d="M703.837 1015.61H-63.3066V1022.45H703.837V1015.61Z" fill="#1DBB4C"/>
<path d="M703.837 1006.59H-63.3066V1013.44H703.837V1006.59Z" fill="#1DBB4C"/>
<path d="M703.837 997.573H-63.3066V1004.42H703.837V997.573Z" fill="#1DBB4C"/>
<path d="M703.837 988.552H-63.3066V995.397H703.837V988.552Z" fill="#1DBB4C"/>
<path d="M703.837 979.538H-63.3066V986.383H703.837V979.538Z" fill="#1DBB4C"/>
<path d="M703.837 970.516H-63.3066V977.361H703.837V970.516Z" fill="#1DBB4C"/>
<path d="M703.837 961.502H-63.3066V968.347H703.837V961.502Z" fill="#1DBB4C"/>
<path d="M703.837 952.479H-63.3066V959.323H703.837V952.479Z" fill="#1DBB4C"/>
<path d="M703.837 943.463H-63.3066V950.308H703.837V943.463Z" fill="#1DBB4C"/>
<path d="M703.837 934.441H-63.3066V941.286H703.837V934.441Z" fill="#1DBB4C"/>
<path d="M703.837 925.425H-63.3066V932.27H703.837V925.425Z" fill="#1DBB4C"/>
<path d="M703.837 916.403H-63.3066V923.248H703.837V916.403Z" fill="#1DBB4C"/>
<path d="M703.837 907.39H-63.3066V914.235H703.837V907.39Z" fill="#1DBB4C"/>
<path d="M703.837 898.367H-63.3066V905.212H703.837V898.367Z" fill="#1DBB4C"/>
<path d="M703.837 889.354H-63.3066V896.198H703.837V889.354Z" fill="#1DBB4C"/>
<path d="M703.837 880.329H-63.3066V887.174H703.837V880.329Z" fill="#1DBB4C"/>
<path d="M703.837 871.314H-63.3066V878.16H703.837V871.314Z" fill="#1DBB4C"/>
<path d="M703.837 862.302H-63.3066V869.147H703.837V862.302Z" fill="#1DBB4C"/>
<path d="M703.837 853.278H-63.3066V860.123H703.837V853.278Z" fill="#1DBB4C"/>
<path d="M703.837 844.264H-63.3066V851.109H703.837V844.264Z" fill="#1DBB4C"/>
<path d="M703.837 835.242H-63.3066V842.087H703.837V835.242Z" fill="#1DBB4C"/>
<path d="M703.837 826.225H-63.3066V833.07H703.837V826.225Z" fill="#1DBB4C"/>
<path d="M703.837 817.204H-63.3066V824.049H703.837V817.204Z" fill="#1DBB4C"/>
<path d="M703.837 808.189H-63.3066V815.035H703.837V808.189Z" fill="#1DBB4C"/>
<path d="M703.837 799.165H-63.3066V806.01H703.837V799.165Z" fill="#1DBB4C"/>
<path d="M703.837 790.153H-63.3066V796.998H703.837V790.153Z" fill="#1DBB4C"/>
<path d="M703.837 781.129H-63.3066V787.974H703.837V781.129Z" fill="#1DBB4C"/>
<path d="M703.837 772.114H-63.3066V778.959H703.837V772.114Z" fill="#1DBB4C"/>
<path d="M703.837 763.093H-63.3066V769.938H703.837V763.093Z" fill="#1DBB4C"/>
<path d="M703.837 754.077H-63.3066V760.922H703.837V754.077Z" fill="#1DBB4C"/>
<path d="M703.837 745.056H-63.3066V751.901H703.837V745.056Z" fill="#1DBB4C"/>
<path d="M703.837 736.041H-63.3066V742.886H703.837V736.041Z" fill="#1DBB4C"/>
<path d="M703.837 727.017H-63.3066V733.862H703.837V727.017Z" fill="#1DBB4C"/>
<path d="M703.837 718.004H-63.3066V724.849H703.837V718.004Z" fill="#1DBB4C"/>
<path d="M703.837 708.989H-63.3066V715.834H703.837V708.989Z" fill="#1DBB4C"/>
<path d="M703.837 699.968H-63.3066V706.813H703.837V699.968Z" fill="#1DBB4C"/>
<path d="M703.837 690.952H-63.3066V697.797H703.837V690.952Z" fill="#1DBB4C"/>
<path d="M703.837 681.929H-63.3066V688.774H703.837V681.929Z" fill="#1DBB4C"/>
<path d="M703.837 672.916H-63.3066V679.761H703.837V672.916Z" fill="#1DBB4C"/>
<path d="M703.837 663.893H-63.3066V670.738H703.837V663.893Z" fill="#1DBB4C"/>
<path d="M703.837 654.877H-63.3066V661.722H703.837V654.877Z" fill="#1DBB4C"/>
<path d="M703.837 645.855H-63.3066V652.7H703.837V645.855Z" fill="#1DBB4C"/>
<path d="M703.837 636.841H-63.3066V643.686H703.837V636.841Z" fill="#1DBB4C"/>
<path d="M703.837 627.818H-63.3066V634.663H703.837V627.818Z" fill="#1DBB4C"/>
<path d="M703.837 618.804H-63.3066V625.649H703.837V618.804Z" fill="#1DBB4C"/>
<path d="M703.837 609.78H-63.3066V616.625H703.837V609.78Z" fill="#1DBB4C"/>
<path d="M703.837 600.767H-63.3066V607.612H703.837V600.767Z" fill="#1DBB4C"/>
<path d="M703.837 591.744H-63.3066V598.589H703.837V591.744Z" fill="#1DBB4C"/>
<path d="M703.837 582.728H-63.3066V589.573H703.837V582.728Z" fill="#1DBB4C"/>
<path d="M703.837 573.709H-63.3066V580.554H703.837V573.709Z" fill="#1DBB4C"/>
<path d="M703.837 564.692H-63.3066V571.537H703.837V564.692Z" fill="#1DBB4C"/>
<path d="M703.837 555.67H-63.3066V562.515H703.837V555.67Z" fill="#1DBB4C"/>
<path d="M703.837 546.655H-63.3066V553.5H703.837V546.655Z" fill="#1DBB4C"/>
<path d="M703.837 537.631H-63.3066V544.476H703.837V537.631Z" fill="#1DBB4C"/>
<path d="M703.837 528.619H-63.3066V535.464H703.837V528.619Z" fill="#1DBB4C"/>
<path d="M703.837 519.603H-63.3066V526.448H703.837V519.603Z" fill="#1DBB4C"/>
<path d="M703.837 510.58H-63.3066V517.425H703.837V510.58Z" fill="#1DBB4C"/>
<path d="M703.837 501.566H-63.3066V508.411H703.837V501.566Z" fill="#1DBB4C"/>
<path d="M703.837 492.543H-63.3066V499.388H703.837V492.543Z" fill="#1DBB4C"/>
<path d="M703.837 483.53H-63.3066V490.375H703.837V483.53Z" fill="#1DBB4C"/>
<path d="M703.837 474.507H-63.3066V481.352H703.837V474.507Z" fill="#1DBB4C"/>
<path d="M703.837 465.491H-63.3066V472.336H703.837V465.491Z" fill="#1DBB4C"/>
<path d="M703.837 456.47H-63.3066V463.315H703.837V456.47Z" fill="#1DBB4C"/>
<path d="M703.837 447.454H-63.3066V454.299H703.837V447.454Z" fill="#1DBB4C"/>
<path d="M703.837 438.431H-63.3066V445.276H703.837V438.431Z" fill="#1DBB4C"/>
<path d="M703.837 429.418H-63.3066V436.263H703.837V429.418Z" fill="#1DBB4C"/>
<path d="M703.837 420.394H-63.3066V427.239H703.837V420.394Z" fill="#1DBB4C"/>
<path d="M703.837 411.381H-63.3066V418.226H703.837V411.381Z" fill="#1DBB4C"/>
<path d="M703.837 402.36H-63.3066V409.205H703.837V402.36Z" fill="#1DBB4C"/>
<path d="M703.837 393.342H-63.3066V400.187H703.837V393.342Z" fill="#1DBB4C"/>
<path d="M703.837 384.321H-63.3066V391.166H703.837V384.321Z" fill="#1DBB4C"/>
<path d="M703.837 375.306H-63.3066V382.151H703.837V375.306Z" fill="#1DBB4C"/>
<path d="M703.837 366.287H-63.3066V373.132H703.837V366.287Z" fill="#1DBB4C"/>
<path d="M703.837 357.269H-63.3066V364.114H703.837V357.269Z" fill="#1DBB4C"/>
<path d="M703.837 348.246H-63.3066V355.091H703.837V348.246Z" fill="#1DBB4C"/>
<path d="M703.837 339.232H-63.3066V346.077H703.837V339.232Z" fill="#1DBB4C"/>
<path d="M703.837 330.217H-63.3066V337.062H703.837V330.217Z" fill="#1DBB4C"/>
<path d="M703.837 321.194H-63.3066V328.039H703.837V321.194Z" fill="#1DBB4C"/>
<path d="M703.837 312.181H-63.3066V319.026H703.837V312.181Z" fill="#1DBB4C"/>
<path d="M703.837 303.159H-63.3066V310.004H703.837V303.159Z" fill="#1DBB4C"/>
<path d="M703.837 294.143H-63.3066V300.988H703.837V294.143Z" fill="#1DBB4C"/>
<path d="M703.837 285.122H-63.3066V291.967H703.837V285.122Z" fill="#1DBB4C"/>
<path d="M703.837 276.106H-63.3066V282.951H703.837V276.106Z" fill="#1DBB4C"/>
<path d="M703.837 267.084H-63.3066V273.929H703.837V267.084Z" fill="#1DBB4C"/>
<path d="M703.837 258.07H-63.3066V264.915H703.837V258.07Z" fill="#1DBB4C"/>
<path d="M703.837 249.047H-63.3066V255.892H703.837V249.047Z" fill="#1DBB4C"/>
<path d="M703.837 240.032H-63.3066V246.877H703.837V240.032Z" fill="#1DBB4C"/>
<path d="M703.837 231.01H-63.3066V237.855H703.837V231.01Z" fill="#1DBB4C"/>
<path d="M703.837 221.995H-63.3066V228.84H703.837V221.995Z" fill="#1DBB4C"/>
<path d="M703.837 212.973H-63.3066V219.818H703.837V212.973Z" fill="#1DBB4C"/>
<path d="M703.837 203.958H-63.3066V210.803H703.837V203.958Z" fill="#1DBB4C"/>
<path d="M703.837 194.935H-63.3066V201.78H703.837V194.935Z" fill="#1DBB4C"/>
<path d="M703.837 185.921H-63.3066V192.766H703.837V185.921Z" fill="#1DBB4C"/>
<path d="M703.837 176.899H-63.3066V183.744H703.837V176.899Z" fill="#1DBB4C"/>
<path d="M703.837 167.885H-63.3066V174.73H703.837V167.885Z" fill="#1DBB4C"/>
<path d="M703.837 158.868H-63.3066V165.713H703.837V158.868Z" fill="#1DBB4C"/>
<path d="M703.837 149.847H-63.3066V156.692H703.837V149.847Z" fill="#1DBB4C"/>
<path d="M703.837 140.832H-63.3066V147.677H703.837V140.832Z" fill="#1DBB4C"/>
<path d="M703.837 131.81H-63.3066V138.655H703.837V131.81Z" fill="#1DBB4C"/>
<path d="M703.837 122.795H-63.3066V129.64H703.837V122.795Z" fill="#1DBB4C"/>
<path d="M703.837 113.772H-63.3066V120.617H703.837V113.772Z" fill="#1DBB4C"/>
<path d="M703.837 104.757H-63.3066V111.602H703.837V104.757Z" fill="#1DBB4C"/>
<path d="M703.837 95.7358H-63.3066V102.581H703.837V95.7358Z" fill="#1DBB4C"/>
<path d="M703.837 86.7202H-63.3066V93.5652H703.837V86.7202Z" fill="#1DBB4C"/>
<path d="M703.837 77.6982H-63.3066V84.5433H703.837V77.6982Z" fill="#1DBB4C"/>
<path d="M703.837 68.6841H-63.3066V75.5291H703.837V68.6841Z" fill="#1DBB4C"/>
<path d="M703.837 59.6611H-63.3066V66.5061H703.837V59.6611Z" fill="#1DBB4C"/>
<path d="M703.837 50.646H-63.3066V57.491H703.837V50.646Z" fill="#1DBB4C"/>
<path d="M703.837 41.624H-63.3066V48.469H703.837V41.624Z" fill="#1DBB4C"/>
<path d="M703.837 32.6094H-63.3066V39.4544H703.837V32.6094Z" fill="#1DBB4C"/>
<path d="M703.837 23.5869H-63.3066V30.4319H703.837V23.5869Z" fill="#1DBB4C"/>
<path d="M703.837 14.5723H-63.3066V21.4173H703.837V14.5723Z" fill="#1DBB4C"/>
<path d="M703.837 5.55078H-63.3066V12.3958H703.837V5.55078Z" fill="#1DBB4C"/>
<path d="M703.837 -3.46484H-63.3066V3.38017H703.837V-3.46484Z" fill="#1DBB4C"/>
</g>
</svg>
