<svg width="460" height="660" viewBox="0 0 460 660" fill="none" xmlns="http://www.w3.org/2000/svg">
<mask id="mask0_53_111889" style="mask-type:luminance" maskUnits="userSpaceOnUse" x="0" y="0" width="473" height="660">
<path d="M72.8995 410.156C71.9458 414.847 67.7433 419.777 74.1632 424.087C77.0602 419.867 80.136 416.028 80.744 425.231C80.7619 425.511 81.0957 425.881 81.3759 426.012C83.7642 427.129 85.0696 429.173 85.2922 432.146C77.4834 433.904 71.1172 428.677 63.827 427.526C64.6258 431.472 68.9892 430.948 70.8728 433.422C66.3962 436.789 61.2281 435.973 56.2686 436.325C62.0566 438.083 68.3394 441.332 72.9889 435.287C75.0275 432.635 75.6594 432.826 78.0199 434.143C83.2237 437.04 88.7614 438.125 94.8892 437.588C100.594 437.087 107.824 438.149 110.674 442.256C115.305 448.938 118.464 449.117 123.042 443.645C125.469 444.658 124.789 448.24 128.151 448.222C127.758 446.625 127.412 445.206 126.786 442.655C131.155 446.202 134.553 445.868 137.939 442.643C139.095 441.54 142.302 439.597 141.998 443.507C141.473 450.303 146.016 451.644 150.737 453.17C152.263 453.665 153.962 453.814 153.663 456.138C151.535 457.736 149.038 456.037 145.533 457.045C151.977 459.28 152.781 464.484 154.391 469.115C155.321 467.273 153.61 465.062 155.702 463.166C159.362 466.278 155.988 471.464 158.259 473.753C163.839 479.362 161.27 486.342 162.819 493.477C163.988 488.727 164.947 484.84 165.901 480.96C166.968 486.885 176.786 485.782 175.743 492.935C172.726 494.02 172.577 489.686 169.984 490.39C170.205 500.44 169.078 501.256 160.888 497.227C160.691 497.131 160.399 497.173 160.244 497.042C155.815 493.239 153.371 493.34 154.277 500.058C154.403 500.976 154.683 501.972 153.526 502.353C152.328 502.747 151.303 502.222 150.54 501.28C149.038 499.426 149.544 497.543 150.313 495.522C151.279 492.989 151.553 490.485 147.661 488.041C149.735 495.373 146.463 498.801 140.12 502.228C142.409 492.887 137.42 486.563 135.793 479.44C139.113 486.426 132.282 489.388 129.909 494.103C129.438 495.033 128.067 494.747 127.686 493.877C126.154 490.33 124.521 486.092 125.814 482.837C127.036 479.761 130.559 476.876 135.083 478.17C139.512 472.269 145.002 466.63 140.085 458.38C139.906 458.076 139.453 457.939 139.089 457.694C136.502 459.25 135.56 461.539 134.404 464.418C132.49 469.163 133.742 476.495 126.613 477.86C123.758 478.408 122.691 481.067 121.063 481.508C117.344 482.509 116.289 490.676 109.648 484.626C110.87 488.232 111.723 490.741 112.575 493.251C117.284 492.059 119.341 487.66 122.798 484.202C126.339 488.965 125.844 493.269 121.898 496.351C117.892 499.48 115.132 495.76 112.492 493.09C108.796 496.118 108.617 492.327 107.604 490.467C107.204 489.734 107.532 488.637 107.222 487.821C106.906 486.992 106.733 485.77 104.57 485.752C108.367 496.774 106.489 509.065 115.764 519.372C117.809 512.415 111.133 507.843 112.802 501.942C115.496 507.801 121.367 513.196 120.521 519.264C119.657 525.416 114.083 530.536 109.07 534.953C113.279 536.05 114.733 535.758 116.634 533.451C123.102 525.618 123.621 526.167 132.788 529.976C137.843 532.08 140.818 540.02 148.412 536.062C149.664 535.406 151.16 537.451 151.07 539.269C150.856 543.561 148.346 543.835 144.925 542.768C143.488 542.321 141.056 540.819 141.026 543.996C141.003 546.905 141.307 546.553 138.892 546.982C132.514 548.115 129.796 541.325 124.163 541.069C124.771 538.148 129.319 536.646 125.85 532.962C123.966 535.752 121.332 536.813 118.286 536.837C114.179 536.867 112.128 541.081 111.8 543.012C111.347 545.671 115.472 546.994 118.482 547.411C120.7 547.715 122.959 547.543 125.2 547.513C133.474 547.4 140.281 552.86 148.412 554.064C134.44 557.676 121.665 546.547 107.836 551.447C111.866 559.697 114.679 560.818 123.18 557.42C126.118 556.245 129.975 553.796 132.133 555.745C136.931 560.078 142.183 561.735 148.531 561.879C137.897 560.984 127.811 569.771 116.432 560.901C118.965 569.353 125.343 569.377 131.978 572.155C113.875 575.869 96.6417 573.234 79.7903 580.107C87.0149 580.107 92.9877 580.107 99.8606 580.107C95.3362 583.415 90.4722 581.555 86.2996 582.92C88.7137 589.853 94.8177 584.989 98.9009 587.474C94.9965 590.193 90.7225 588.369 86.4307 589.501C90.4304 592.756 93.7864 593.877 98.0842 591.576C102.239 589.352 102.96 584.715 105.935 581.74C101.857 579.344 104.057 578.623 106.906 578.515C115.967 578.188 125.021 577.83 133.987 576.316C135.763 576.018 139.113 576.513 138.714 577.544C136.228 583.94 142.833 582.11 143.673 581.991C148.501 581.293 145.503 585.507 146.969 586.926C147.852 587.779 149.157 591.003 146.129 592.583C145.086 593.125 143.017 592.953 143.333 594.86C143.625 596.613 145.217 597.37 146.868 597.596C156.59 598.931 166.342 600.076 176.035 601.608C178.878 602.055 183.027 602.734 179.802 607.402C178.818 608.82 178.455 610.305 180.07 610.561C185.876 611.485 190.865 617.052 197.458 613.536C205.785 609.089 214.751 611.944 223.43 611.527C225.063 611.449 227.298 612.433 225.593 614.239C223.728 616.218 222.78 619.884 218.262 618.71C213.093 617.362 208.009 619.651 202.871 620.265C213.386 622.954 222.381 627.877 230.541 634.5C229.957 633.546 229.373 632.593 228.794 631.639C226.976 628.634 228.222 626.012 229.957 623.568C231.298 621.678 232.735 622.906 233.98 623.83C235.763 625.153 238.451 626.876 236.71 629.064C235.095 631.084 235.709 636.717 230.332 634.315C226.809 637.725 222.273 637.522 217.868 637.796C218.488 640.717 218.899 644.127 223.185 642.941C229.73 641.122 236.204 642.708 242.701 642.923C244.942 642.994 247.655 643.99 249.216 642.201C251.386 639.716 246.367 639.149 247.136 636.551C250.188 635.841 253.151 636.157 256.34 636.694C259.898 637.296 264.053 642.034 267.355 634.506C269.138 630.441 275.879 638.619 279.891 633.868C282.24 631.09 284.666 631.979 287.253 632.879C289.297 633.588 291.264 633.862 292.951 632.163C293.995 631.114 295.079 630.25 296.427 631.46C299.455 634.166 299.413 637.933 299.526 641.528C299.639 645.212 296.331 643.817 294.495 644.568C293.345 645.039 291.33 644.359 291.288 646.231C291.235 648.466 293.339 648.252 294.847 648.419C302.232 649.223 308.998 653.014 316.872 652.234C315.448 655.876 311.251 652.895 310.077 656.209C312.867 658.302 316.252 658.129 318.518 656.847C322.666 654.499 326.988 655.148 330.302 656.68C334.821 658.773 336.364 656.233 338.105 653.64C339.327 651.816 339.494 649.146 342.635 649.676C345.437 650.153 346.987 651.757 347.261 654.689C347.386 656.049 348.054 657.783 349.526 657.676C351.606 657.521 351.547 655.423 351.362 653.921C350.694 648.472 352.244 642.434 355.922 640.014C358.926 638.035 358.634 634.822 358.509 634.452C356.971 629.874 360.166 629.552 362.7 630.149C369.054 631.639 368.291 626.995 368.327 623.741C368.386 618.733 368.44 613.661 366.771 608.755C366.33 607.461 365.781 605.298 367.665 604.511C371.712 602.812 370.449 601.822 367.409 600.72C363.045 599.134 360.333 596.112 359.236 591.528C358.08 586.7 355.898 582.891 350.241 582.008C347.428 581.573 346.522 578.724 345.61 576.286C349.842 574.963 345.485 573.592 345.598 572.227C345.717 570.778 337.771 567.202 346.742 568.114C347.005 568.143 347.642 567.154 347.636 566.647C347.619 565.539 346.581 565.473 345.741 565.103C342.802 563.81 338.57 563.083 337.336 560.788C334.636 555.787 327.471 553.044 329.718 545.128C330.475 542.47 327.465 539.334 324.467 537.04C319.68 533.374 315.847 528.492 310.202 525.821C309.38 525.434 308.485 524.003 308.545 523.121C308.986 516.51 305.63 511.444 301.708 506.854C294.334 498.228 286.99 489.68 284.654 477.353C289.154 481.281 292.075 485.567 295.091 489.8C296.909 492.351 298.453 495.313 301.618 496.535C306.012 498.228 308.748 501.847 312.002 504.928C314.422 507.217 312.652 510.138 313.475 511.986C315.65 516.88 319.03 521.321 323.465 524.641C329.772 529.362 334.487 535.043 337.157 542.708C338.677 547.072 340.704 551.918 346.385 554.249C346.903 549.742 344.495 546.851 343.1 543.638C342.266 541.713 340.15 539.704 342.653 537.588C347.005 533.916 345.777 529.082 344.459 525.01C342.737 519.676 339.929 514.639 337.157 509.715C333.062 502.443 330.165 494.789 328.174 486.712C333.205 490.08 335.28 495.373 337.968 500.225C342.564 508.523 347.213 516.528 354.831 522.835C363.546 530.053 372.589 538.798 372.082 550.732C371.593 562.218 375.831 570.975 381.244 579.97C381.715 580.745 382.627 581.579 382.555 582.306C382.21 585.692 383.217 590.02 377.357 590.509C379.611 592.005 381.524 593.215 382.514 595.766C384.505 600.875 391.002 601.953 392.874 597.173C394.578 592.827 397.547 595.367 400.372 593.978C394.018 586.694 394.131 577.168 389.53 569.473C386.937 565.139 387.419 564.901 391.848 561.032C392.415 560.537 392.838 559.345 392.665 558.636C391.795 555.012 393.19 551.805 394.227 548.514C394.871 546.47 394.268 542.977 396.909 542.959C399.961 542.941 399.508 546.66 400.295 548.866C401.1 551.125 400.11 553.337 399.693 555.554C399.109 558.684 398.566 561.837 399.258 565.008C399.562 566.421 400.337 567.595 402.077 567.166C403.222 566.886 404.658 565.825 404.205 564.942C400.521 557.783 409.409 551.316 405.231 544.151C404.736 543.304 405.296 541.868 406.452 541.254C407.436 540.729 408.533 541.314 408.718 542.076C410.345 548.794 419.775 550.362 419.417 558.493C419.358 559.864 419.942 562.308 422.386 562.421C423.548 562.475 424.568 561.968 425.015 560.692C425.641 558.892 426.672 557.712 424.544 555.494C421.647 552.478 422.732 550.69 426.869 549.683C425.188 546.207 425.223 541.707 420.568 540.36C422.034 538.059 423.876 539.603 425.199 538.852L425.062 538.983C425.372 534.995 428.108 535.74 430.66 536.11L430.517 536.277C429.724 530.566 435.81 533.457 437.425 530.757C440.894 532.986 445.663 533.803 446.378 539.013C446.378 539.013 446.396 538.685 446.396 538.679C447.91 538.893 451.874 536.932 452.602 534.256C454.092 528.748 456.536 531.764 457.597 533.719C461.459 540.819 464.47 535.865 466.097 532.766C469.167 526.912 468.613 520.099 468.809 513.673C469.167 502.145 468.911 490.592 468.911 478.73C472.034 479.809 471.384 481.854 471.39 483.487C471.474 498.407 471.504 513.333 471.533 528.259C471.533 530.763 471.426 533.254 469.489 535.198L469.459 535.102C472.207 537.886 471.51 541.415 471.51 544.771C471.521 579.916 472.475 462.672 472.457 374.868C472.457 354.678 473.334 334.423 472.094 314.305C470.902 294.915 476.701 275.303 468.595 255.901C465.882 249.409 467.861 240.331 467.873 232.433C467.897 219.259 467.736 206.044 465.829 192.87C465.048 187.47 464.637 181.574 463.677 176.394C462.312 168.991 465.596 161.409 461.936 154.429C465.602 152.736 460.661 150.333 462.413 148.247C463.963 148.7 465.441 149.135 467.182 149.642C468.297 144.748 465.382 139.622 463.993 136.659C461.191 130.674 468.619 135.002 466.49 133.595C462.139 130.728 464.839 128.081 464.953 124.702C465.102 120.344 463.969 116.029 464.231 111.194C464.601 104.411 465.072 97.4843 465.227 90.6114C465.429 81.3541 468.619 72.0492 465.072 61.2481C464.935 66.7977 462.121 69.5337 460.476 72.8003C461.752 76.0132 460.053 78.6777 459.242 81.9741C455.934 76.8477 456.494 74.1653 460.673 72.991C454.378 68.9913 457.251 63.3225 458.425 58.357C460.732 48.5872 458.64 38.9246 458.956 29.1905C457.656 32.9279 457.233 36.7012 456.774 40.4744C455.54 50.5841 455.397 60.9798 452.816 70.7318C447.69 90.0928 444.352 109.615 443.177 129.566C443.04 131.849 444.489 135.276 441.723 136.29C438.707 137.386 436.4 134.662 434.26 132.624C428.108 126.752 421.921 120.916 415.447 114.783C416.681 118.544 419.161 121.34 421.468 124.243C423.429 126.716 426.231 128.94 427.113 131.759C428.979 137.72 428.555 137.857 433.408 140.522C435.393 141.613 437.425 142.62 439.404 143.717C443.022 145.72 444.352 148.712 443.523 152.807C443.034 155.233 442.754 157.719 442.641 160.193C442.325 167.024 441.419 167.578 434.916 164.64C431.679 163.179 428.71 160.699 424.752 161.909L424.901 161.743C426.94 168.073 432.269 171.375 437.324 174.749C440.68 176.99 440.537 179.893 440.096 183.1C439.833 184.996 438.236 186.391 436.793 185.634C430.111 182.135 422.022 185.3 415.728 181.264C411.269 178.403 406.607 176.257 401.618 174.97C395.21 173.319 392.015 167.298 386.859 164.21C385.393 173.122 396.957 171.918 398.584 179.846C389.029 175.596 382.871 168.657 374.878 162.708C375.48 166.738 377.536 169.164 379.587 170.827C387.253 177.044 394.721 183.458 402.155 189.938C404.503 191.988 406.566 197.645 411.972 194.378C412.27 194.2 414.273 195.881 414.684 196.989C416.574 202.128 413.015 207.826 407.478 209.036C406.202 209.316 404.074 208.267 403.961 210.884C407.829 212.851 412.747 207.927 415.93 212.577C418.201 215.897 421.534 218.86 421.754 224.761C410.482 218.627 399.907 213.531 388.129 209.71C389.351 214.949 391.92 217.423 395.83 218.872C398.113 219.718 400.992 220.415 401.851 222.925C402.643 225.244 402.93 224.815 405.087 224.23C412.133 222.335 426.66 228.606 430.016 234.632C430.731 235.914 430.946 238.113 430.326 239.353C429.42 241.159 427.59 239.925 426.159 239.365C423.918 238.483 421.665 237.613 417.766 236.099C421.754 240.003 422.66 243.454 423.793 246.488C420.276 248.563 416.64 241.958 415.132 246.125C413.284 251.245 407.454 252.867 406.303 258.279C405.552 255.907 404.795 253.534 403.842 250.524C403.49 252.992 404.581 255.179 402.459 256.795C397.887 252.682 397.463 245.827 392.397 241.988C390.96 246.852 396.736 249.296 394.435 254.524C388.916 245.892 382.675 238.727 374.979 233.047C372.261 240.313 380.32 243.639 381.542 249.558C380.654 249.797 380.165 250.113 379.813 249.999C365.15 245.284 353.889 235.407 343.512 224.719C341.67 222.818 340.972 219.331 337.771 217.948C334.654 216.601 331.691 214.89 328.609 213.447C327.036 212.708 325.051 211.266 323.739 213.072C323.102 213.948 323.751 216.201 324.449 217.489C325.51 219.456 327.107 221.137 328.49 222.925C336.835 233.732 347.851 241.565 359.552 247.877C366.121 251.418 367.182 256.02 367.379 261.951C367.409 262.762 366.628 263.566 367.063 264.848C369.048 270.63 365.543 271.78 360.81 272.156C358.914 272.305 356.697 268.967 354.998 272.692C357.192 273.592 358.867 275.524 361.668 274.826C366.532 273.61 367.021 276.615 366.443 280.257C365.65 285.258 364.577 290.223 365.764 295.445C362.449 295.35 361.639 292.822 359.928 291.505C357.77 289.836 357.907 284.507 354.331 286.092C351.809 287.213 355.237 290.837 354.974 293.436C354.945 293.74 354.414 293.997 353.49 294.855C351.41 289.425 343.941 289.353 342.635 283.768C341.705 279.786 339.089 277.467 336.8 274.958C334.499 272.436 330.356 271.089 327.298 272.09C323.984 273.169 325.605 277.181 325.7 279.989C325.951 287.553 332.573 291.404 335.905 297.186C336.364 297.984 337.569 298.372 338.242 297.472C342.152 292.202 342.099 297.543 342.659 299.302C343.917 303.242 344.692 307.337 345.675 311.42C342.707 311.17 341.962 306.92 339.327 307.73C333.837 309.423 332.287 306.175 330.684 302.181C330.278 301.174 328.776 300.613 327.727 299.803C326.452 302.747 326.088 305.585 325.891 308.69C324.347 305.364 324.467 300.87 319.245 301.162C317.689 305.275 318.822 309.292 320.061 312.869C316.491 314.252 317.164 308.529 314.029 309.948C311.639 311.027 316.562 313.566 314.339 314.508C303.013 313.733 302.167 304.75 298.823 297.448C298.513 301.311 298.197 305.173 297.887 309.084C292.004 306.121 294.126 301.168 294.185 297.269C281.125 298.491 292.576 307.599 289.506 312.076C286.692 311.641 286.71 308.547 284.356 307.409C285.85 314.2 285.333 319.07 282.806 322.019C275.289 314.645 281.095 304.196 276.94 295.88C279.432 295.97 278.836 299.957 281.989 299.755C282.371 295.809 279.605 292.888 278.925 289.407C278.723 288.358 277.215 287.773 276.97 288.375C275.784 291.278 270.038 290.664 271.588 295.666C272.38 298.229 272.571 300.995 272.893 303.683C273.048 304.994 273.215 306.592 271.039 306.419C269.883 306.33 268.387 306.026 268.613 304.673C269.668 298.384 266.038 291.702 270.616 285.616C272.154 283.565 273.817 281.556 271.48 277.58C268.291 272.15 264.578 266.583 263.23 260.127C263.075 259.376 263.284 258.547 263.326 257.79C265.132 257.808 264.762 260.52 266.533 259.763C267.904 255.102 266.515 251.168 264.035 247.406C263.123 246.023 260.995 243.562 263.111 242.894C267.218 241.6 264.291 239.735 264.44 237.952C265.007 231.276 258.307 224.379 265.114 217.84C266.115 216.881 264.911 215.039 263.803 214.365C259.845 211.951 258.211 208.136 257.281 202.676C254.337 215.313 256.644 226.937 254.963 238.376C254.587 240.933 251.619 243.109 253.335 245.654C258.283 252.986 258.825 261.528 260.757 269.76C262.163 275.762 260.804 281.652 261.52 287.648C262.593 296.596 261.8 305.763 261.8 314.794C259.559 313.84 261.18 310.21 258.277 309.537C256.203 313.507 255.112 317.56 256.918 321.888C257.603 323.527 259.171 326.525 259.916 325.899C263.85 322.603 262.509 326.126 262.813 327.783C263.052 329.1 263.224 330.549 263.904 331.64C268.19 338.566 265.99 345.993 266.914 354.154C262.95 351.591 264.113 348.98 264.244 346.649C264.375 344.312 263.826 342.768 261.12 342.363C258.748 342.011 256.596 341.374 255.869 344.64C255.308 347.156 253.276 347.209 251.261 348.151C248.352 349.516 242.618 349.659 243.494 354.75C244.072 358.106 242.332 359.644 240.806 361.843C245.729 361.307 250.2 366.225 248.543 370.057C246.069 375.768 237.646 380.06 230.297 379.243C233.545 376.251 237.354 373.7 237.676 367.22C233.873 371.208 229.635 372.549 227.435 376.441C226.648 377.836 225.581 379.535 223.817 378.158C222.577 377.187 223.549 375.702 224.371 374.57C225.659 372.805 227.346 371.244 227.578 368.913C225.874 367.619 224.973 370.928 223.334 369.42C223.912 364.067 231.721 363.661 231.399 357.689C231.185 357.754 230.958 357.802 230.75 357.885C228.234 358.911 226.726 364.734 223.346 360.669C220.461 357.2 225.218 354.279 226.529 351.138C227.107 349.749 228.812 350.196 229.999 351.239C232.186 353.158 234.094 355.09 231.185 357.903C232.52 357.081 233.766 355.829 235.22 355.507C239.911 354.458 237.414 350.524 237.557 348.443C237.748 345.6 234.398 350.381 233.104 347.585C236.085 342.059 245.992 343.788 246.677 335.168C243.446 335.508 242.683 338.483 240.353 339.383C233.581 342.011 227.531 345.713 223.531 352.038C222.565 353.564 221.188 354.535 219.621 353.874C217.737 353.081 218.375 351.239 218.87 349.725C219.466 347.895 222.035 346.196 219.269 344.05C217.35 346.417 217.159 351.722 213.177 350.035C202.042 345.326 199.735 340.408 199.699 328.17C199.658 315.444 198.883 302.914 190.865 291.934C188.141 288.197 186.782 283.368 185.256 278.886C183.861 274.797 181.954 271.089 179.343 266.779C175.319 275.524 181.876 282.504 181.388 291.314C173.483 276.454 165.216 263.173 165.788 246.727C165.859 244.706 165.669 241.362 163.004 241.237C159.69 241.082 160.882 244.533 160.411 246.524C160.155 247.609 160.465 248.837 160.161 249.904C159.577 251.984 160.453 255.281 157.925 255.817C155.231 256.389 154.784 253.093 153.807 251.215C150.588 245.052 148.168 238.572 145.724 232.045C138.326 212.267 133.236 191.845 127.608 171.566C126.887 168.961 125.933 166.058 129.987 165.069C137.086 163.34 137.73 155.645 142.695 151.734C139.542 153.993 136.264 155.102 132.622 155.442C131.191 155.579 129.051 155.537 130.172 158.142C130.833 159.674 130.732 160.932 128.777 160.944C127 160.956 126.673 159.328 126.571 158.023C125.796 148.342 121.26 139.044 122.566 129.274C123.716 120.654 116.181 117.775 112.909 112.136C111.8 110.229 110.203 111.79 108.963 112.828C107.634 113.942 108.253 116.571 104.683 116.976C104.391 108.691 105.792 100.077 101.726 92.3877C98.567 94.3727 104.319 98.4142 99.9261 99.3798C97.7266 99.8626 93.8341 101.866 93.2678 96.1788C92.3081 100.894 95.0859 104.953 92.9519 109.77C88.5528 102.533 87.146 94.8853 83.4801 88.2986C87.0685 102.42 91.259 116.285 95.2289 130.215C95.831 132.332 98.1557 135.813 95.2766 136.766C90.5378 138.346 93.2321 140.617 94.1679 142.31C95.7297 145.147 96.2006 148.325 97.4106 151.085C98.3942 153.326 95.8966 159.597 102.626 157.779C102.972 157.683 103.991 159.46 104.444 160.479C106.012 163.996 107.86 167.453 108.897 171.131C112.76 184.871 115.681 198.879 120.873 212.243C121.981 215.092 122.899 217.852 126.798 219.462C125.969 211.182 122.399 204.738 120.128 197.937C113.881 179.244 113.225 159.632 110.095 140.426C109.785 138.531 109.434 136.391 111.8 135.998C114.894 135.485 114.31 138.239 114.834 140.116C120.461 160.354 122.184 181.574 131.191 200.995C137.891 215.432 138.875 231.878 147.601 246C150.987 251.484 151.774 259.024 156.715 264.341C158.146 265.879 158.295 267.733 155.952 269.408C151.202 272.812 151.571 284.28 156.364 287.469C157.687 288.352 160.018 289.222 159.755 286.695C159.094 280.34 164.608 275.005 162.36 268.401C163.737 275.357 170.193 280.12 169.037 288.387C168.518 292.095 170.151 297.472 176.208 299.975C183.307 302.908 184.016 309.262 179.426 316.135C178.139 314.079 176.589 312.356 175.892 310.329C174.163 305.304 171.88 303.957 168.047 308.452C166.777 309.942 165.722 310.323 164.28 308.505C160.656 303.927 159.171 306.312 158.396 311.182C155.434 307.248 149.658 305.382 153.103 299.141C153.681 298.098 152.93 297.162 152.215 296.154C146.367 287.952 142.946 278.629 139.053 269.42C137.056 264.681 136.985 259.477 133.748 254.774C129.248 248.241 124.103 242 121.093 234.167C117.642 225.184 118.399 215.611 115.085 206.735C113.052 201.287 113.553 201.102 108.844 204.637C108.307 200.673 106.263 197.526 104.635 194.158C103.127 191.04 100.176 187.619 101.911 184.042C103.628 180.495 102.012 178.075 100.939 175.172C97.655 166.273 93.9832 157.469 91.3842 148.366C82.6515 117.751 79.8618 85.8069 70.8072 55.2336C69.4183 50.5543 68.3216 45.0524 69.4362 40.5042C72.6313 27.432 66.0266 16.1481 64.137 4.05344C63.9701 2.98048 63.2429 0.619971 61.0433 2.5811C58.6709 4.69721 57.3177 4.54819 54.7784 1.82407C53.8426 0.816677 52.9663 -0.452986 51.4165 0.160984C49.6878 0.846486 50.278 2.38439 50.5939 3.66598C51.4105 6.96235 52.3047 10.2468 53.1571 13.5312C54.7486 19.6471 58.0092 25.9179 55.8693 32.0755C53.7949 38.0424 55.7918 42.6859 58.0569 47.4904C59.8869 51.3709 62.623 54.8103 64.6616 58.6014C67.3857 63.6622 68.0354 68.8422 64.4231 73.8732L64.5185 73.7957C66.9863 74.1951 68.2381 76.2993 68.0354 78.1293C67.0876 86.8679 71.2007 94.4979 73.1975 102.521C75.4269 111.486 75.5103 120.529 76.8635 129.607C73.8413 129.542 74.956 125.059 72.0709 126.234C69.8714 127.128 71.0218 129.357 71.1053 131.074C73.6863 134.179 74.6162 138.298 77.5907 141.225C79.5459 143.145 78.1689 145.392 77.2867 147.472C76.166 150.107 75.1408 152.783 73.5671 156.694C70.0979 147.627 75.1706 138.757 71.2245 130.931C68.8878 127.324 66.9803 126.955 63.8986 130.698C59.7856 135.693 58.1404 140.772 60.173 146.948L60.0121 146.739C61.6156 152.652 65.5557 157.796 63.7913 164.759C61.4785 173.891 73.1499 171.161 75.0216 176.669C76.1601 180.025 78.7114 176.877 80.0108 178.755C84.9107 185.842 90.0311 192.775 95.0024 199.815C95.4972 200.518 95.6403 201.514 95.8072 202.402C100.397 226.949 109.672 250.095 117.159 273.777C117.749 275.643 119.019 277.878 117.499 279.577C115.585 281.717 114.524 278.886 113.04 278.284C112.313 277.992 111.24 278.105 110.477 278.415C105.941 280.257 102.34 278.111 99.4075 275.273C93.2321 269.295 83.6172 269.295 77.6563 262.773C79.0929 264.896 80.5354 267.012 82.1508 269.396C77.3642 270.642 74.1393 269.563 70.384 267.018C63.6721 262.475 57.6158 257.754 54.4684 250.029C53.9916 248.855 53.1451 247.329 51.4761 248.384C50.3316 249.105 50.725 250.452 51.2615 251.466C54.0988 256.777 55.9647 262.589 62.5812 265.182C67.0221 266.922 70.8072 270.314 75.5342 273.396C69.2395 274.683 54.3612 267.906 51.6668 263.256C51.5596 263.072 51.2079 262.917 51.2198 262.779C52.0305 256.044 45.7238 254.267 42.7792 250.083C43.0295 255.865 49.3898 259.334 47.9532 265.629C44.7999 266.809 42.0698 263.262 38.2549 265.051C46.2544 270.582 55.142 273.086 63.4515 276.835C69.2633 279.458 75.0633 279.237 79.5101 275.804C85.5366 271.155 90.7941 273.593 95.9264 275.917C99.7533 277.652 103.187 280.412 107.145 282.128C110.894 283.756 110.459 287.714 110.107 290.277C109.66 293.526 105.845 292.238 103.723 291.863C97.6073 290.778 91.5988 289.103 85.0656 287.541C87.146 291.177 90.1861 291.267 93.083 291.249C97.8458 291.225 101.852 293.216 105.792 295.493C107.401 296.423 109.195 297.597 107.538 299.725C103.377 305.054 108.981 304.649 111.091 305.173C118.703 307.069 124.682 313.036 126.13 320.999C122.87 321.291 122.25 316.863 118.375 316.654C120.479 321.989 119.728 327.425 122.661 332.14C121.385 331.628 120.36 331.043 119.8 330.161C117.737 326.93 115.86 323.58 113.845 320.314C110.59 315.033 102.376 311.903 97.0172 313.852C95.7833 314.299 95.1097 315.301 95.3422 316.481C95.9681 319.676 94.5017 321.226 91.8611 322.901C88.7137 324.898 89.2085 327.264 92.8088 328.784C97.0113 330.555 101.273 331.932 105.899 331.729C108.242 331.628 110.536 331.508 111.24 334.542C112.116 338.328 114.441 338.423 117.94 337.994C126.667 336.927 136.794 344.426 137.45 351.048C131.847 351.99 127.006 348.366 121.367 348.205C119.371 348.145 116.676 348.64 115.8 346.536C113.332 340.623 110.626 343.937 108.087 346.136C106.888 347.174 106.197 349.153 104.719 346.589C102.68 343.043 99.0499 343.561 95.8072 342.733C91.563 341.648 86.7109 343.412 82.9913 340.164C78.4014 336.152 73.9903 331.938 69.3826 327.95C64.8404 324.01 60.5367 319.587 53.2346 318.514C56.1912 330.573 67.3321 334.411 73.9069 342.482C71.612 341.392 69.323 340.307 66.4737 338.954C66.8909 340.217 66.9207 340.962 67.3022 341.362C75.1825 349.57 84.3265 354.851 96.2006 354.243C98.7578 354.112 101.327 354.958 103.258 357.42C98.6982 358.744 93.4586 358.547 94.5017 365.98C90.0311 362.851 86.3473 359.9 82.3237 357.522C73.0247 352.02 64.6198 345.201 55.2732 339.723C47.4286 335.127 37.6945 332.915 33.2 323.461C32.2761 321.524 29.5341 320.451 27.6266 318.979C29.242 321.423 31.1674 323.282 32.7589 325.524C34.1478 327.479 31.4535 330.805 34.1299 331.675C40.6631 333.797 41.1638 341.541 46.761 344.432C47.8578 344.998 48.1738 346.858 47.4704 348.163C46.5286 349.91 45.1635 348.765 43.9535 348.372C37.1044 346.166 31.227 341.171 23.609 341.892C24.068 343.973 25.4449 346.339 27.6505 347.889C37.164 354.589 47.3154 359.9 59.267 360.276C63.5946 360.413 66.8492 361.331 69.5376 365.265C71.8444 368.633 75.0454 372.126 79.7068 372.126C88.362 372.126 96.7013 376.215 105.559 373.884C107.377 373.407 109.595 374.26 111.586 374.695C113.773 375.172 114.602 376.704 113.839 378.784C112.903 381.353 106.263 383.028 104.075 381.335C102.567 380.167 101.112 377.604 99.7771 381.568C97.6669 387.833 89.9297 391.85 83.2834 390.271C88.1236 394.33 88.3978 401.835 84.3325 408.726C81.0123 414.353 76.9708 412.165 72.816 410.275L72.9412 410.192L72.8995 410.156ZM197.297 564.734C199.473 563.81 200.123 566.373 201.207 567.613C201.935 568.441 202.418 569.532 201.565 570.677C199.634 573.288 198.066 569.616 196.242 570.379C194.06 572.668 192.022 572.34 189.81 570.271C188.201 568.769 186.526 567.208 188.481 565.223C190.43 563.244 191.509 565.401 192.677 566.76C193.852 568.12 195.193 569.33 196.463 570.611C196.087 568.537 194.281 566.009 197.291 564.734H197.297ZM167.511 541.004C169.323 538.84 173.036 537.081 168.405 533.97C167.552 533.397 168.059 531.746 168.965 530.971C170.735 529.457 180.875 533.403 180.583 535.657C180.243 538.285 181.262 539.937 182.216 542.154C184.231 546.827 180.327 550.994 175.319 549.557C172.25 548.675 168.715 548.067 166.485 545.188C164.107 546.207 161.568 546.881 159.434 545.051C158.069 543.883 158.772 542.023 159.529 540.622C160.208 539.364 160.143 537.248 162.456 537.469C164.56 537.665 164.685 539.305 165.031 540.89C165.371 542.428 165.955 543.906 166.432 545.409C166.008 543.746 166.456 542.255 167.511 540.998V541.004ZM164.608 327.997C166.676 324.534 167.523 319.611 172.595 320.701C177.215 321.691 175.641 325.327 174.521 328.349C177.155 326.549 177.537 330.376 179.426 330.453C181.292 327.968 176.011 325.345 179.617 323.211C182.991 321.214 184.726 325.071 187.301 325.917C189.053 323.914 186.991 322.013 187.271 319.819C188.022 320.046 188.707 320.058 189.107 320.403C197.196 327.336 197.255 328.659 189.9 336.617C187.897 338.781 188.702 347.191 191.622 348.312C197.768 350.673 197.059 355.763 197.983 360.681C184.177 356.335 179.033 344.765 173.567 333.547C172.577 331.52 173.793 329.601 174.997 327.896C171.57 329.124 168.226 325.667 164.614 328.003L164.608 327.997ZM297.35 444.902C292.641 444.664 287.485 441.141 284.421 436.342C282.275 432.975 280.064 429.613 275.569 435.585C275.569 433.338 275.385 432.235 275.611 431.228C276.058 429.225 277.06 426.602 274.568 425.988C272.917 425.577 271.081 428.563 268.607 427.443C268.357 428.921 268.714 430.757 265.949 429.75C263.862 428.987 263.075 427.783 263.004 425.78C262.968 424.874 262.807 423.962 262.879 423.068C263.391 416.803 261.645 413.518 255.01 417.363C252.149 419.02 249.944 416.767 249.264 415.497C247.857 412.874 246.689 409.31 247.363 406.627C247.971 404.213 250.075 406.425 251.178 407.718C252.09 408.791 252.191 410.883 254.587 409.882C256.793 408.958 254.235 406.83 255.893 405.817C258.176 406.77 259.815 412.427 263.236 406.532C264.244 404.791 265.412 408.893 268.75 408.559C269.388 408.451 268.589 406.645 269.001 405.531C269.811 403.337 270.848 401.877 273.471 403.122C275.897 404.279 274.938 406.019 274.33 407.718C272.728 412.185 273.402 416.127 276.35 419.545C275.629 413.31 277.99 408.106 276.774 401.966C280.314 402.979 281.697 404.684 282.204 407.659C282.734 410.788 281.286 415.217 287.67 414.8C290.18 414.639 286.353 417.321 287.211 418.913C295.604 419.497 295.377 412.57 297.029 406.884C302.209 409.775 302.846 414.621 299.949 417.655C296.54 421.238 300.724 425.619 297.046 428.361C299.794 430.727 302.894 426.423 305.833 429.66C301.666 430.942 298.382 433.279 295.896 436.772C298.477 437.839 300.367 434.238 302.876 435.788C303.389 436.104 304.051 437.237 303.967 437.32C299.294 442.041 311.669 446.071 304.015 451.262C303.86 446.69 302.459 445.17 297.345 444.908L297.35 444.902ZM392.003 304.851C388.29 301.585 388.767 304.5 388.492 306.997C388.457 307.307 385.423 307.897 384.236 307.349C381.691 306.181 377.202 305.215 377.81 302.288C378.961 296.721 375.086 293.204 374.025 288.644C373.566 286.653 372.875 284.781 375.831 285.067C379.271 285.401 379.122 282.498 380.642 280.895C387.7 273.461 379.891 269.128 376.916 264.556C375.575 262.499 375.593 261.522 376.082 259.853C376.952 256.884 378.389 259.161 379.617 259.543C390.358 262.881 391.89 265.367 389.279 277.324C388.624 280.328 389.065 282.528 390.543 284.924C394.167 290.808 396.492 299.236 396.623 306.872C394.716 305.948 395.86 299.516 392.003 304.851ZM294.454 366.278C293.685 368.52 292.081 371.083 296.576 372.501C299.115 373.306 297.607 376.525 295.61 377.813C294.251 378.689 292.552 378.85 293.357 381.073C294.114 383.165 295.896 382.879 297.35 382.516C299.806 381.908 301.428 382.498 301.791 385.049C302.203 387.988 299.264 387.69 298.042 387.702C295.658 387.731 291.425 392.721 290.954 385.293C290.794 382.712 287.479 386.73 285.399 384.334C284.32 380.859 291.771 380.507 289.333 376.018C286.239 375.899 281.262 379.559 280.791 372.269C286.192 373.366 289.953 370.844 289.458 364.836C289.053 359.924 291.348 358.249 294.763 356.3C295.294 359.709 295.616 362.916 294.459 366.272L294.454 366.278ZM228.645 424.117C225.426 424.862 225.45 421.661 224.056 420.147C218.774 414.406 221.767 405.751 216.807 399.832C215.478 398.246 217.296 396.959 218.625 396.112C219.954 395.272 221.582 395.552 222.202 396.816C225.587 403.701 232.705 409.036 230.875 418.144C230.368 420.063 232.234 423.288 228.645 424.117ZM276.285 385.359C277.149 386.807 274.997 387.934 273.65 388.816C271.397 390.283 269.012 389.257 268.345 387.594C266.586 383.231 259.433 383.553 260 377.55C260.047 377.032 260.81 376.102 261.108 376.155C268.78 377.437 268.655 371.828 269.066 365.229C274.961 372.042 272.851 379.607 276.291 385.359H276.285ZM471.009 374.176C464.613 359.489 466.908 344.444 468.911 329.553C472.344 344.432 471.223 359.31 471.009 374.176ZM284.862 341.171C282.872 346.81 290.15 350.881 287.378 356.55C285.894 359.59 282.478 359.167 279.742 360.693C279.283 358.165 279.104 355.888 278.431 353.772C277.411 350.589 283.563 351.161 281.471 346.81C280.171 344.11 278.729 339.246 283.223 337.261C284.684 336.617 284.743 333.404 287.193 335.007C288.952 336.158 288.111 337.708 287.855 339.275C287.652 340.533 288.034 341.88 288.153 343.192C286.466 343.198 286.633 340.67 284.862 341.171ZM171.439 475.821C173.668 473.973 172.357 471.303 173.299 469.211C173.799 473.628 176.219 477.669 175.278 482.247C164.524 476.759 159.549 471.537 160.352 466.582C160.828 471.869 166.438 467.798 167.809 471.5C169.966 469.467 167.63 466.767 169.072 463.971C171.433 468.144 169.227 472.322 171.439 475.815V475.821ZM122.13 382.408C121.785 380.757 119.782 378.975 121.522 377.509C123.555 375.798 125.194 377.789 126.714 379.07C131.918 383.457 133.009 390.7 137.891 395.427C133.283 390.181 123.871 390.742 122.13 382.408ZM59.255 25.8881C58.4801 23.9509 58.7543 21.4532 61.0075 20.7081C63.4634 19.8975 64.441 22.2103 65.2278 24.076C67.6837 29.9117 69.3826 35.8726 66.5571 42.7693C64.1012 37.1482 61.5261 31.5808 59.2491 25.8881H59.255ZM128.002 515.682C131.531 510.758 128.64 506.8 126.804 501.34C132.121 503.426 131.757 507.462 131.006 510.013C130.017 513.393 135.918 514.245 132.949 517.792C130.648 520.546 135.238 523.955 131.996 527.216C124.36 523.389 123.537 521.911 128.002 515.676V515.682ZM270.842 479.225C277.036 486.175 289.268 487.987 289.005 501.948C281.375 494.711 275.957 487.099 270.842 479.225ZM104.671 403.742C105.702 404.601 107.139 405.227 107.061 406.729C106.966 408.559 105.297 408.141 104.081 408.547C102.686 409.018 101.625 410.436 100.242 411.021C98.0186 411.956 95.7952 411.152 94.1977 409.638C91.9385 407.504 94.46 407.241 95.6522 406.061C98.3346 403.409 93.6076 402.866 93.846 400.094C97.4821 401.59 101.547 401.149 104.671 403.748V403.742ZM146.087 503.796C145.396 506.472 147.232 509.071 145.783 511.622C144.931 513.13 145.89 516.23 142.576 515.61C139.411 515.02 139.494 513.136 140.71 510.645C142.773 506.418 139 508.862 137.033 508.004C140.186 505.846 142.576 503.897 146.087 503.796ZM332.311 647.447C333.897 647.846 335.22 649.009 334.666 650.88C334.123 652.728 332.442 652.848 330.815 652.621C326.893 652.079 324.055 650.421 324.079 645.551C327.489 645.003 329.76 646.803 332.311 647.441V647.447ZM127.018 353.027C126.595 355.006 125.874 358.636 123.007 358.332C120.175 358.028 118.858 354.988 118.59 352.193C118.327 349.421 120.432 349.653 122.399 349.91C124.103 350.72 127.775 349.48 127.018 353.033V353.027ZM94.3587 426.912C94.3885 426.787 95.7058 426.686 95.9562 426.978C97.3033 428.546 98.0544 430.441 98.0485 432.521C98.0485 433.714 96.9636 433.845 96.0813 433.881C91.6286 434.047 87.8077 433.368 88.0998 427.163C90.4603 426.823 92.6062 433.726 94.3587 426.912ZM305.1 634.208C305.481 635.352 306.769 636.747 304.778 637.504C303.204 638.1 302.435 636.717 301.577 635.662C298.537 631.889 301.458 627.931 301.666 624.11C302.811 627.478 303.967 630.84 305.094 634.214L305.1 634.208ZM258.384 470.105C258.104 468.835 256.9 467.476 258.247 466.391C259.684 465.241 260.792 466.642 261.657 467.565C263.612 469.67 265.418 471.917 267.755 474.665C264.202 472.841 259.529 475.249 258.384 470.105ZM241.885 613.19C248.68 613.226 250.605 614.525 253.621 622.072C249.842 619.21 246.063 616.355 241.885 613.19ZM450.223 119.504C450.539 119.134 453.216 120.785 454.801 121.495C452.447 123.307 454.211 128.064 449.252 128.481C448.137 125.041 448.107 121.983 450.229 119.498L450.223 119.504ZM211.788 570.969C212.426 572.119 210.834 572.936 209.684 572.519C206.852 571.499 204.659 569.801 204.748 566.367C204.784 565.05 205.326 564.263 206.119 564.352C210.453 565.032 210.471 568.59 211.794 570.969H211.788ZM402.816 292.673C400.241 291.833 398.209 290.903 398.763 287.714C398.96 286.581 399.705 285.103 400.819 285.711C402.965 286.885 404.789 288.656 406.673 290.122C405.445 291.815 405.052 293.395 402.822 292.673H402.816ZM161.305 554.266C160.191 553.617 158.921 551.995 159.845 550.97C162.211 548.335 165.192 550.481 168.071 550.803C166.199 553.062 164.888 556.353 161.305 554.266ZM468.636 449.736C472.064 454.612 472.273 458.499 469.9 466.838C467.772 461.068 470.15 455.751 468.636 449.736ZM230.988 403.438C228.067 402.657 227.984 399.385 226.702 397.203C225.868 395.785 227.668 395.135 228.538 395.159C232.484 395.26 231.036 399.003 232.24 400.649C232.299 402.085 232.371 403.808 230.994 403.432L230.988 403.438ZM469.584 423.467C471.915 427.073 471.384 430.811 469.584 434.578C469.584 430.876 469.584 427.169 469.584 423.467ZM267.677 325.482C267.767 324.641 269.007 323.878 269.758 324.498C271.564 325.995 272.464 327.771 270.67 330.09C270.157 330.751 270.449 332.045 270.36 333.171C265.543 331.699 267.391 328.278 267.677 325.482ZM280.1 380.221C280.028 380.519 278.687 380.918 278.478 380.715C275.718 377.973 277.334 374.534 276.797 371.035C279.456 373.878 280.946 376.692 280.094 380.221H280.1ZM89.7569 501.066C85.0179 499.367 86.2817 494.688 85.5962 491.433C84.3921 485.693 83.9867 479.714 81.7156 474.277C79.5399 469.074 82.8542 464.871 83.0688 459.423C87.903 463.029 89.9357 468.43 94.609 471.404C94.4302 466.004 89.745 461.497 91.712 455.882C94.4719 455.203 94.2574 458.314 96.594 458.928C97.0768 455.948 98.3763 453.23 101.208 450.798C103.538 458.159 109.464 458.702 115.746 458.529L115.562 458.344C115.305 458.684 115.097 459.28 114.793 459.333C109.416 460.293 102.138 459.942 108.712 468.71C108.927 468.996 108.498 470.242 108.081 470.445C105.875 471.512 105.494 468.287 103.616 468.442C103.872 471.565 102.996 472.656 100.177 472.674C98.722 472.686 97.8458 473.568 98.6743 474.766C101.875 479.392 98.1438 484.9 100.82 489.573C97.959 486.968 98.6147 483.296 97.667 480.131C97.0291 478.009 95.8668 475.476 93.0115 476.274C89.125 477.365 93.0652 479.38 92.7373 480.578C92.0399 483.141 92.0876 485.317 93.3572 487.558L93.4228 487.469C89.7271 486.843 91.0086 481.126 85.8763 481.013C85.5962 488.005 88.4395 494.413 89.7211 501.06C89.6973 501.072 89.7628 501.06 89.7628 501.06L89.7569 501.066ZM88.9402 520.295C84.708 518.424 80.8215 516.021 76.178 514.758C69.8237 513.023 69.007 508.022 72.7028 499.087C76.0886 500.702 77.3463 504.404 80.1479 506.484C84.9822 510.078 87.3963 509.208 88.4097 503.414C88.5528 502.592 89.2621 501.864 89.733 501.084C89.7569 501.072 89.6913 501.078 89.7151 501.066C89.1906 512.01 94.2156 519.664 104.391 517.768C104.14 520.17 100.308 523.699 106.167 524.42C107.92 524.635 106.435 526.542 105.44 527.377C103.163 529.284 98.4598 529.958 98.4598 528.134C98.4598 522.31 93.6434 524.742 91.563 522.912C90.5735 522.042 89.6913 521.047 88.7435 520.093C90.2397 518.787 93.0234 520.963 93.8878 518.269C94.0427 517.78 92.9996 516.302 92.5048 516.296C88.7077 516.272 86.1028 512.558 81.8766 512.558C83.8437 516.039 87.6884 516.957 88.9402 520.295ZM271.713 266.517C272.511 257.433 273.334 250.524 273.638 243.591C273.787 240.194 276.499 239.973 278.037 240.277C280.07 240.677 280.428 242.405 279.361 245.01C277.393 249.821 276.648 255.018 284.26 256.044C284.845 256.121 285.476 256.64 285.87 257.135C286.478 257.892 284.105 274.797 283.378 275.428C282.299 276.37 280.213 277.217 279.837 276.132C278.198 271.399 271.588 270.171 271.719 266.517H271.713ZM446.337 538.989C446.337 538.989 446.355 538.661 446.355 538.655C449.156 549.885 443.219 556.764 434.677 562.516C431.172 564.877 431.542 561.521 430.958 560.162C429.426 556.609 430.987 551.805 426.559 549.414C431.882 549.063 432.18 546.75 429.014 543.102C427.757 541.653 425.289 541.296 425.164 538.828L425.027 538.959C427.542 538.619 428.341 540.938 429.867 542.118C430.785 542.828 431.756 543.656 432.841 542.839C434.141 541.862 433.944 540.485 433.092 539.257C432.329 538.16 431.446 537.141 430.618 536.086L430.475 536.253C436.662 539.692 439.792 540.235 445.675 538.923C445.878 538.875 446.116 538.965 446.337 538.989ZM67.0578 466.892C63.4217 466.725 61.0254 464.841 57.9675 464.388C51.1423 463.381 52.7934 455.793 51.0052 451.06C49.7892 447.841 54.1227 448.419 55.9408 447.251C56.8886 446.643 57.8721 446.094 58.8139 445.48C61.7527 443.585 64.1191 442.411 63.2309 447.889C63.0104 449.236 62.9389 451.668 64.6616 452.091C72.3869 453.993 71.7014 460.651 73.4837 466.451C70.6224 464.861 68.3235 462.387 66.5869 459.03C63.9999 461.64 67.4691 463.911 67.0578 466.898V466.892ZM79.5101 68.9913C72.3868 46.1372 72.3213 24.1178 68.7567 2.11019C71.9756 2.87318 71.6358 4.87604 72.4822 6.05033C79.987 16.4342 72.983 28.3559 76.0707 39.2167C77.4059 43.9019 77.5669 49.0163 79.4863 53.4036C81.507 58.0232 82.3058 62.2257 79.5101 68.9913ZM104.325 272.031C106.99 270.815 105.506 266.594 108.504 267.638C110.96 268.496 110.519 271.524 109.851 273.682C108.76 277.193 106.561 274.379 104.874 274.254C102.853 274.105 101.732 272.555 100.713 271.041C99.2108 268.812 97.81 268.019 94.621 268.591C89.3515 269.527 86.4963 266.058 85.6081 261.027C87.8494 259.561 88.517 262.16 90.5854 262.022C90.347 259.322 89.9893 256.354 92.3797 253.588C95.0978 254.291 98.0961 259.221 101.643 254.422C102.93 255.406 107.192 253.165 104.528 258.482C102.877 261.772 100.88 267.286 104.331 272.031H104.325ZM59.9704 146.709C59.3922 149.469 61.3235 153.636 58.4324 154.727C55.7679 155.734 52.9067 152.646 50.1528 151.138C40.5438 145.875 43.5541 134.674 37.3071 127.533C40.21 127.009 40.1802 128.666 40.7405 129.596C41.3188 130.561 41.7599 131.616 42.2427 132.642C43.572 135.461 44.9072 137.738 48.9129 136.391C52.0603 135.33 53.7531 138.054 55.3626 140.295C56.9482 142.501 58.5338 144.7 60.1253 146.918C60.1253 146.93 59.9704 146.715 59.9704 146.715V146.709ZM229.468 316.082C232.156 317.596 234.511 319.712 233.098 323.849C232.74 324.892 232.705 326.519 233.879 326.847C244.436 329.774 236.526 332.808 233.861 335.496C232.061 337.314 229.754 338.632 227.4 340.372C226.285 338.495 228.055 336.516 226.786 334.727C225.17 332.462 223.197 334.346 221.325 334.352C223.4 327.693 223.227 320.797 229.462 316.082H229.468ZM409.892 607.867C421.814 600.249 422.451 598.079 417.331 585.448C416.491 583.379 415.805 581.138 415.638 578.933C415.477 576.834 414.667 574.355 416.985 572.698C418.213 576.352 425.259 571.219 424.425 577.389C424.013 580.435 429.426 582.992 424.442 586.777C422.916 587.934 426.35 593.71 424.639 597.596C422.994 601.346 419.769 603.468 416.735 605.78C414.994 607.11 413.206 608.654 409.898 607.861L409.892 607.867ZM365.346 221.053C367.409 221.715 368.351 222.019 369.769 222.478C367.123 218.496 364.202 215.492 360.589 212.833C362.139 210.169 364.822 209.418 367.552 208.947C371.677 208.237 375.915 207.087 374.908 214.252C374.502 217.149 375.927 220.338 376.666 223.36C377.495 226.746 375.402 228.677 372.946 229.703C370.341 230.787 369.841 227.992 368.845 226.341C367.939 224.838 366.914 223.408 365.346 221.053ZM49.2229 399.629C47.2379 397.328 45.7417 395.719 44.3886 393.996C43.0713 392.309 42.1056 390.33 43.9296 388.518C46.0755 386.384 47.7744 388.381 49.0262 389.782C51.4165 392.446 53.4849 395.397 56.0421 398.682C50.415 401.28 44.6747 402.646 38.7794 403.301C36.2639 403.581 33.4563 401.34 33.6829 399.796C33.9749 397.799 33.8319 395.498 34.5412 393.8C35.2744 392.053 37.2117 393.913 38.5708 394.443C41.9804 395.767 44.168 399.641 49.2229 399.629ZM443.66 621.785C445.443 622.56 447.231 623.341 449.079 624.146C449.574 622.197 446.462 621.559 447.887 619.842C448.828 618.71 450.408 619.097 451.702 619.419C456.077 620.51 460.44 621.648 464.792 622.829C466.103 623.186 467.587 623.747 467.385 625.416C467.242 626.59 466.049 627.168 464.845 627.281C462.813 627.478 460.989 627.621 459.779 629.874C458.58 632.116 456.446 631.782 454.509 630.512C453.943 630.143 453.466 629.642 452.9 629.266C449.579 627.061 446.247 624.873 442.921 622.68C443.166 622.376 443.416 622.077 443.66 621.773V621.785ZM469.411 535.072C468.833 542.673 465.066 548.759 459.755 553.956C462.431 556.257 465.03 553.247 467.653 555.19C465.263 558.886 461.394 558.815 457.841 559.268C456.691 559.417 455.141 558.475 455.326 557.497C455.94 554.225 458.33 551.739 456.554 547.525C454.855 543.483 459.975 542.959 462.699 541.325C465.286 539.77 468.499 538.691 469.459 535.21C469.441 535.168 469.405 535.072 469.405 535.072H469.411ZM467.414 600.892C467.468 606.454 463.892 607.277 462.324 609.691C462.217 612.552 465.757 610.108 466.139 612.236C460.261 616.731 451.976 616.951 446.277 612.761C445.21 611.974 443.702 611.342 444.346 609.655C444.847 608.35 446.259 608.761 447.326 608.671C454.277 608.075 461.626 608.785 467.408 600.886L467.414 600.892ZM143.447 639.221C139.184 637.6 134.654 635.883 130.13 634.154C128.938 633.701 126.589 632.95 127.06 634.625C129.039 641.695 123.644 637.874 121.904 637.993C118.143 638.249 114.304 637.635 110.513 637.194C109.481 637.075 108.248 636.497 108.099 635.18C107.932 633.725 109.076 633.278 110.215 633.105C122.083 631.281 134.1 628.694 143.447 639.227V639.221ZM465.662 579.928C465.048 582.61 462.813 582.998 461.215 584.125C457.609 586.67 452.649 587.29 451.201 583.612C450.17 580.995 451.857 575.72 455.403 572.972C455.737 572.715 456.315 572.268 456.476 572.376C464.064 577.323 464.452 568.96 468.07 565.801C468.917 574.068 461.555 575.863 457.209 579.982C460.553 583.481 462.634 577.979 465.656 579.934L465.662 579.928ZM26.3391 448.95C29.3433 450.094 28.2763 453.432 30.6964 454.559C32.9854 454.642 31.984 450.666 34.8989 451.036C36.2699 454.654 37.7661 458.368 39.0953 462.141C40.52 466.177 35.0539 464.293 34.8214 466.963C30.0587 465.801 24.7594 454.905 26.345 448.95H26.3391ZM67.3201 95.2072C62.4858 93.0017 60.7155 90.0093 60.626 87.0527C60.4472 81.3422 56.8945 80.5077 52.5371 79.0771C43.9952 76.2755 35.4294 72.9672 33.7246 62.0886C37.9449 63.6324 38.6364 68.3594 41.8433 70.708C45.4914 73.3785 48.9964 76.5914 53.467 77.4617C62.8375 79.2797 64.4648 86.6832 67.3201 95.2072ZM125.796 132.326C127.215 129.858 124.443 126.168 128.765 125.441C131.137 125.041 137.414 131.759 137.128 134.644C136.913 136.808 136.043 138.978 135.077 140.951C134.696 141.732 133.092 142.608 132.341 142.394C130.279 141.809 132.145 140.754 132.395 139.92C132.663 139.032 132.86 137.649 131.638 138.179C123.048 141.935 128.377 133.691 125.796 132.326ZM207.145 277.658C205.469 280.984 205.791 284.417 202.525 287.249C199.759 289.645 200.981 294.301 202.716 298.008C203.544 299.779 205.66 302.843 202.626 303.641C200.105 304.303 199.604 300.768 199.515 298.646C199.354 294.938 197.041 291.702 196.922 288.268C196.713 282.17 198.763 277.062 207.139 277.664L207.145 277.658ZM122.202 103.666C126.184 101.436 129.552 96.4411 129.421 94.927C128.729 86.8083 136.907 91.4876 138.517 87.4402C136.806 92.3937 132.997 96.1371 132.991 101.854C132.991 105.323 128.514 106.032 122.202 103.666ZM211.097 313.572C210.924 317.852 210.787 321.649 212.444 325.172C210.459 325.965 209.916 324.129 207.931 323.485C210.727 327.89 206.697 330.078 204.82 330.125C201.303 330.215 202.453 326.156 202.042 323.825C201.75 322.156 202.489 320.29 202.835 318.526C203.318 316.076 203.127 312.905 207.097 316.338C208.659 317.691 208.653 314.091 211.097 313.572ZM2.58496 466.296C3.18103 469.634 3.62811 472.996 5.7919 475.827C7.91995 478.611 10.0718 480.894 3.91422 481.854C0.295959 482.42 3.05588 485.8 3.79501 487.695C4.53418 489.597 6.3403 492.083 4.1467 493.036C1.10666 494.36 0.379425 490.592 0.278076 488.911C-0.133209 482.033 0.00387573 475.118 0.111176 468.215C0.129059 466.957 1.61331 466.719 2.72205 466.487L2.58496 466.296ZM54.081 373.729C57.884 374.963 60.4055 375.869 62.9746 376.591C64.8881 377.127 67.8148 378.426 68.6255 377.646C70.527 375.828 67.9698 373.688 66.7717 370.522C70.3482 372.102 71.8921 373.652 71.6417 376.656C71.3238 380.431 72.2358 383.336 74.3778 385.371C64.0118 382.993 57.7708 379.637 54.081 373.723V373.729ZM230.517 650.523C222.22 652.651 215.037 652.907 207.043 653.479C213.308 646.046 221.969 644.896 230.517 650.523ZM424.866 161.713C419.763 156.169 416.914 161.808 413.975 164.342C412.437 165.671 412.312 167.203 409.522 166.005C406.661 164.771 408.855 163.811 408.956 162.732C409.183 160.378 409.379 157.928 412.86 158.911C416.491 159.942 418.821 158.995 419.566 154.971C420.019 152.521 422.642 155.901 423.375 153.755C425.289 154.488 423.179 155.293 423.405 156.11C423.93 157.999 424.299 159.936 424.723 161.862C424.711 161.874 424.86 161.707 424.86 161.707L424.866 161.713ZM286.406 655.858C292.868 652.603 299.204 652.776 307.091 656.704C299.031 659.56 292.713 658.016 286.406 655.858ZM38.6125 3.42754C44.1502 10.062 44.5019 18.5861 47.1604 26.2696C40.3591 20.0882 41.1578 11.1528 38.6125 3.42754ZM28.9916 409.012C31.1435 412.427 38.3622 409.501 37.8078 416.785C37.6886 418.382 41.4618 417.285 43.2978 418.299C35.6003 418.883 30.8296 415.789 28.9857 409.018L28.9916 409.012ZM465.298 589.853C459.91 594.073 456.256 598.496 449.913 598.836C452.226 591.838 456.53 589.156 465.298 589.853ZM117.636 643.173C111.496 643.716 106.423 643.882 101.476 644.753C99.6102 645.081 98.8174 644.443 98.4538 643.298C98.0783 642.112 99.2645 641.289 100.361 640.979C106.018 639.406 111.526 639.227 117.63 643.173H117.636ZM7.75302 447.74C11.4905 453.671 11.4488 460.138 16.754 464.126C8.81409 463.911 5.35675 457.933 7.75302 447.74ZM16.0685 445.904C19.4602 452.502 22.083 457.599 24.8846 463.047C16.6288 459.488 14.0656 455.077 16.0685 445.904ZM2.72205 466.487C1.42654 461.917 1.59546 458.129 3.22873 455.125C5.23755 460.639 7.151 465.885 9.27307 471.69C5.0051 471.518 3.9917 468.668 2.57898 466.296L2.71609 466.487H2.72205ZM43.7866 452.437C47.0173 456.466 47.834 461.229 49.4971 466.022C41.7718 462.946 40.359 459.518 43.7866 452.437ZM215.639 314.419C221.6 318.853 222.774 323.419 219.132 329.756C217.755 324.326 214.542 320.075 215.639 314.419ZM48.9487 427.741C41.3665 431.753 36.9315 427.735 31.984 421.714C38.8987 422.138 42.8805 427.502 48.9487 427.741ZM72.8995 410.156C65.4305 411.271 59.112 408.064 52.7636 404.97C60.2684 403.635 66.11 408.344 72.7445 410.258C72.7743 410.234 72.8936 410.15 72.8936 410.15L72.8995 410.156ZM441.997 571.011C444.87 566.057 446.402 562.367 447.285 558.409C447.529 557.307 448.149 556.031 449.377 556.186C451.207 556.418 451.123 558.248 450.742 559.375C449.305 563.607 448.632 568.465 441.997 571.005V571.011ZM109.648 106.229C106.274 102.676 105.345 98.6586 105.047 94.2833C109.601 95.8371 111.135 99.8189 109.648 106.229ZM115.746 458.535C116.116 456.693 114.614 453.945 118.989 454.589C121.665 454.982 124.682 453.087 128.574 451.906C125.194 457.855 120.789 458.97 115.562 458.344L115.746 458.529V458.535ZM139.667 242.053C133.379 238.882 132.306 232.349 130.029 226.591C135.071 230.585 137.569 236.218 139.661 242.107V242.053H139.667ZM139.661 242.107C140.806 249.207 146.308 254.774 146.391 262.249C141.664 256.407 138.523 250.005 139.661 242.077C139.667 242.053 139.661 242.107 139.661 242.107ZM46.5405 1.15049C47.834 7.56439 49.1275 13.9843 50.5164 20.875C45.8192 17.0482 45.7179 16.5951 46.5405 1.15049ZM100.671 87.4044C97.7504 81.6343 99.0677 76.6391 100.117 71.6498C102.263 76.5854 103.032 81.5449 100.671 87.4044ZM82.4309 502.764C77.8709 501.304 75.4269 498.234 75.0931 492.613C80.0466 494.735 80.9825 498.92 82.4309 502.764ZM100.647 286.331C94.46 288.25 89.6019 286.086 83.7185 281.032C90.5556 283.172 95.6045 284.751 100.647 286.331ZM172.029 612.206C178.246 612.582 184.559 612.683 189.166 618.072C183.456 616.117 177.739 614.161 172.029 612.206ZM82.6217 647.435C88.511 650.332 93.3692 654.147 96.5165 659.959C91.8849 655.786 87.2533 651.608 82.6217 647.435ZM354.587 537.308C358.438 542.47 359.159 546.494 358.885 552.496C355.529 547.453 353.925 543.626 354.587 537.308ZM60.7691 610.507C67.6241 610.329 73.3525 613.345 78.7114 617.422C72.7326 615.115 66.7538 612.814 60.7691 610.507ZM36.1149 18.3774C36.9077 26.6631 38.7854 32.8147 40.8419 39.7233C36.1864 35.4553 34.6068 28.6063 36.1149 18.3774ZM132.371 109.716C130.297 113.722 126.899 114.282 123.245 114.121C122.071 114.067 120.897 113.394 120.849 112.196C120.795 110.777 122.172 110.592 123.275 110.61C126.315 110.67 129.385 111.129 132.371 109.716ZM272.69 233.565C271.993 230.752 269.161 228.26 271.611 225.208C272.011 224.707 273.835 224.505 274.002 224.773C275.957 227.968 273.781 230.656 272.696 233.565H272.69ZM93.3513 487.558C94.7879 493.793 96.2244 500.028 97.655 506.264C95.8668 500.094 91.1219 494.515 93.393 487.499C93.4169 487.469 93.3513 487.558 93.3513 487.558ZM64.4768 73.7659C62.772 67.8348 56.9064 64.1331 56.0421 57.749C58.492 63.2748 65.4246 66.4221 64.4112 73.8077C64.3814 73.8375 64.4768 73.76 64.4768 73.76V73.7659ZM130.434 580.441C128.622 585.364 124.807 587.701 119.621 588.13C123.227 585.567 126.828 583.004 130.434 580.441Z" fill="white"/>
</mask>
<g mask="url(#mask0_53_111889)">
<path d="M1.45159 -57.3076H3.49023V737.802H1.45159V-57.3076Z" fill="#22FFE2"/>
<path d="M6.2153 -57.3076H8.25391V737.802H6.2153V-57.3076Z" fill="#22FFE2"/>
<path d="M10.9848 -57.3076H13.0234V737.802H10.9848V-57.3076Z" fill="#22FFE2"/>
<path d="M15.7524 -57.3076H17.791V737.802H15.7524V-57.3076Z" fill="#22FFE2"/>
<path d="M20.5161 -57.3076H22.5547V737.802H20.5161V-57.3076Z" fill="#22FFE2"/>
<path d="M25.2837 -57.3076H27.3223V737.802H25.2837V-57.3076Z" fill="#22FFE2"/>
<path d="M30.0532 -57.3076H32.0918V737.802H30.0532V-57.3076Z" fill="#22FFE2"/>
<path d="M34.8169 -57.3076H36.8555V737.802H34.8169V-57.3076Z" fill="#22FFE2"/>
<path d="M39.5844 -57.3076H41.623V737.802H39.5844V-57.3076Z" fill="#22FFE2"/>
<path d="M44.354 -57.3076H46.3926V737.802H44.354V-57.3076Z" fill="#22FFE2"/>
<path d="M49.1157 -57.3076H51.1543V737.802H49.1157V-57.3076Z" fill="#22FFE2"/>
<path d="M53.8833 -57.3076H55.9219V737.802H53.8833V-57.3076Z" fill="#22FFE2"/>
<path d="M58.6528 -57.3076H60.6914V737.802H58.6528V-57.3076Z" fill="#22FFE2"/>
<path d="M63.4145 -57.3076H65.4531V737.802H63.4145V-57.3076Z" fill="#22FFE2"/>
<path d="M68.184 -57.3076H70.2227V737.802H68.184V-57.3076Z" fill="#22FFE2"/>
<path d="M72.9535 -57.3076H74.9922V737.802H72.9535V-57.3076Z" fill="#22FFE2"/>
<path d="M77.7153 -57.3076H79.7539V737.802H77.7153V-57.3076Z" fill="#22FFE2"/>
<path d="M82.4848 -57.3076H84.5234V737.802H82.4848V-57.3076Z" fill="#22FFE2"/>
<path d="M87.2524 -57.3076H89.291V737.802H87.2524V-57.3076Z" fill="#22FFE2"/>
<path d="M92.0219 -57.3076H94.0605V737.802H92.0219V-57.3076Z" fill="#22FFE2"/>
<path d="M96.7837 -57.3076H98.8223V737.802H96.7837V-57.3076Z" fill="#22FFE2"/>
<path d="M101.553 -57.3076H103.592V737.802H101.553V-57.3076Z" fill="#22FFE2"/>
<path d="M106.323 -57.3076H108.361V737.802H106.323V-57.3076Z" fill="#22FFE2"/>
<path d="M111.084 -57.3076H113.123V737.802H111.084V-57.3076Z" fill="#22FFE2"/>
<path d="M115.854 -57.3076H117.893V737.802H115.854V-57.3076Z" fill="#22FFE2"/>
<path d="M120.622 -57.3076H122.66V737.802H120.622V-57.3076Z" fill="#22FFE2"/>
<path d="M125.385 -57.3076H127.424V737.802H125.385V-57.3076Z" fill="#22FFE2"/>
<path d="M130.155 -57.3076H132.193V737.802H130.155V-57.3076Z" fill="#22FFE2"/>
<path d="M134.922 -57.3076H136.961V737.802H134.922V-57.3076Z" fill="#22FFE2"/>
<path d="M139.686 -57.3076H141.725V737.802H139.686V-57.3076Z" fill="#22FFE2"/>
<path d="M144.454 -57.3076H146.492V737.802H144.454V-57.3076Z" fill="#22FFE2"/>
<path d="M149.223 -57.3076H151.262V737.802H149.223V-57.3076Z" fill="#22FFE2"/>
<path d="M153.985 -57.3076H156.023V737.802H153.985V-57.3076Z" fill="#22FFE2"/>
<path d="M158.754 -57.3076H160.793V737.802H158.754V-57.3076Z" fill="#22FFE2"/>
<path d="M163.524 -57.3076H165.562V737.802H163.524V-57.3076Z" fill="#22FFE2"/>
<path d="M168.286 -57.3076H170.324V737.802H168.286V-57.3076Z" fill="#22FFE2"/>
<path d="M173.055 -57.3076H175.094V737.802H173.055V-57.3076Z" fill="#22FFE2"/>
<path d="M177.823 -57.3076H179.861V737.802H177.823V-57.3076Z" fill="#22FFE2"/>
<path d="M182.592 -57.3076H184.631V737.802H182.592V-57.3076Z" fill="#22FFE2"/>
<path d="M187.354 -57.3076H189.393V737.802H187.354V-57.3076Z" fill="#22FFE2"/>
<path d="M192.123 -57.3076H194.162V737.802H192.123V-57.3076Z" fill="#22FFE2"/>
<path d="M196.891 -57.3076H198.93V737.802H196.891V-57.3076Z" fill="#22FFE2"/>
<path d="M201.655 -57.3076H203.693V737.802H201.655V-57.3076Z" fill="#22FFE2"/>
<path d="M206.422 -57.3076H208.461V737.802H206.422V-57.3076Z" fill="#22FFE2"/>
<path d="M211.192 -57.3076H213.23V737.802H211.192V-57.3076Z" fill="#22FFE2"/>
<path d="M215.954 -57.3076H217.992V737.802H215.954V-57.3076Z" fill="#22FFE2"/>
<path d="M220.723 -57.3076H222.762V737.802H220.723V-57.3076Z" fill="#22FFE2"/>
<path d="M225.493 -57.3076H227.531V737.802H225.493V-57.3076Z" fill="#22FFE2"/>
<path d="M230.254 -57.3076H232.293V737.802H230.254V-57.3076Z" fill="#22FFE2"/>
<path d="M235.024 -57.3076H237.062V737.802H235.024V-57.3076Z" fill="#22FFE2"/>
<path d="M239.791 -57.3076H241.83V737.802H239.791V-57.3076Z" fill="#22FFE2"/>
<path d="M244.555 -57.3076H246.594V737.802H244.555V-57.3076Z" fill="#22FFE2"/>
<path d="M249.325 -57.3076H251.363V737.802H249.325V-57.3076Z" fill="#22FFE2"/>
<path d="M254.092 -57.3076H256.131V737.802H254.092V-57.3076Z" fill="#22FFE2"/>
<path d="M258.856 -57.3076H260.895V737.802H258.856V-57.3076Z" fill="#22FFE2"/>
<path d="M263.623 -57.3076H265.662V737.802H263.623V-57.3076Z" fill="#22FFE2"/>
<path d="M268.393 -57.3076H270.432V737.802H268.393V-57.3076Z" fill="#22FFE2"/>
<path d="M273.161 -57.3076H275.199V737.802H273.161V-57.3076Z" fill="#22FFE2"/>
<path d="M277.924 -57.3076H279.963V737.802H277.924V-57.3076Z" fill="#22FFE2"/>
<path d="M282.694 -57.3076H284.732V737.802H282.694V-57.3076Z" fill="#22FFE2"/>
<path d="M287.461 -57.3076H289.5V737.802H287.461V-57.3076Z" fill="#22FFE2"/>
<path d="M292.225 -57.3076H294.264V737.802H292.225V-57.3076Z" fill="#22FFE2"/>
<path d="M296.993 -57.3076H299.031V737.802H296.993V-57.3076Z" fill="#22FFE2"/>
<path d="M301.762 -57.3076H303.801V737.802H301.762V-57.3076Z" fill="#22FFE2"/>
<path d="M306.524 -57.3076H308.562V737.802H306.524V-57.3076Z" fill="#22FFE2"/>
<path d="M311.293 -57.3076H313.332V737.802H311.293V-57.3076Z" fill="#22FFE2"/>
<path d="M316.061 -57.3076H318.1V737.802H316.061V-57.3076Z" fill="#22FFE2"/>
<path d="M320.825 -57.3076H322.863V737.802H320.825V-57.3076Z" fill="#22FFE2"/>
<path d="M325.592 -57.3076H327.631V737.802H325.592V-57.3076Z" fill="#22FFE2"/>
<path d="M330.362 -57.3076H332.4V737.802H330.362V-57.3076Z" fill="#22FFE2"/>
<path d="M335.123 -57.3076H337.162V737.802H335.123V-57.3076Z" fill="#22FFE2"/>
<path d="M339.893 -57.3076H341.932V737.802H339.893V-57.3076Z" fill="#22FFE2"/>
<path d="M344.663 -57.3076H346.701V737.802H344.663V-57.3076Z" fill="#22FFE2"/>
<path d="M349.424 -57.3076H351.463V737.802H349.424V-57.3076Z" fill="#22FFE2"/>
<path d="M354.194 -57.3076H356.232V737.802H354.194V-57.3076Z" fill="#22FFE2"/>
<path d="M358.961 -57.3076H361V737.802H358.961V-57.3076Z" fill="#22FFE2"/>
<path d="M363.731 -57.3076H365.77V737.802H363.731V-57.3076Z" fill="#22FFE2"/>
<path d="M368.495 -57.3076H370.533V737.802H368.495V-57.3076Z" fill="#22FFE2"/>
<path d="M373.262 -57.3076H375.301V737.802H373.262V-57.3076Z" fill="#22FFE2"/>
<path d="M378.032 -57.3076H380.07V737.802H378.032V-57.3076Z" fill="#22FFE2"/>
<path d="M382.793 -57.3076H384.832V737.802H382.793V-57.3076Z" fill="#22FFE2"/>
<path d="M387.563 -57.3076H389.602V737.802H387.563V-57.3076Z" fill="#22FFE2"/>
<path d="M392.331 -57.3076H394.369V737.802H392.331V-57.3076Z" fill="#22FFE2"/>
<path d="M397.094 -57.3076H399.133V737.802H397.094V-57.3076Z" fill="#22FFE2"/>
<path d="M401.864 -57.3076H403.902V737.802H401.864V-57.3076Z" fill="#22FFE2"/>
<path d="M406.631 -57.3076H408.67V737.802H406.631V-57.3076Z" fill="#22FFE2"/>
<path d="M411.395 -57.3076H413.434V737.802H411.395V-57.3076Z" fill="#22FFE2"/>
<path d="M416.163 -57.3076H418.201V737.802H416.163V-57.3076Z" fill="#22FFE2"/>
<path d="M420.932 -57.3076H422.971V737.802H420.932V-57.3076Z" fill="#22FFE2"/>
<path d="M425.694 -57.3076H427.732V737.802H425.694V-57.3076Z" fill="#22FFE2"/>
<path d="M430.461 -57.3076H432.5V737.802H430.461V-57.3076Z" fill="#22FFE2"/>
<path d="M435.231 -57.3076H437.27V737.802H435.231V-57.3076Z" fill="#22FFE2"/>
<path d="M439.995 -57.3076H442.033V737.802H439.995V-57.3076Z" fill="#22FFE2"/>
<path d="M444.762 -57.3076H446.801V737.802H444.762V-57.3076Z" fill="#22FFE2"/>
<path d="M449.532 -57.3076H451.57V737.802H449.532V-57.3076Z" fill="#22FFE2"/>
<path d="M454.299 -57.3076H456.338V737.802H454.299V-57.3076Z" fill="#22FFE2"/>
<path d="M459.063 -57.3076H461.102V737.802H459.063V-57.3076Z" fill="#22FFE2"/>
</g>
</svg>
