<svg width="686" height="598" viewBox="0 0 686 598" fill="none" xmlns="http://www.w3.org/2000/svg">
<mask id="mask0_53_112139" style="mask-type:luminance" maskUnits="userSpaceOnUse" x="0" y="0" width="768" height="598">
<path d="M694.062 343.267C706.113 348.82 705.564 358.141 703.966 368.618C702.903 375.61 701.009 375.328 695.779 372.501C687.544 368.047 673.747 373.166 670.734 380.903C669.643 383.716 672.128 383.579 673.135 384.461C676.851 387.736 677.316 390.556 671.832 391.489C663.625 392.892 663.167 398.835 663.498 405.293C663.794 411.142 662.358 416.262 660.063 421.714C656.156 430.984 660.858 437.983 670.664 439.133C671.966 439.284 672.656 439.306 673.585 440.557C679.885 449.039 675.436 475.547 666.279 481.635C662.822 483.934 662.435 486.921 662.435 490.58C662.435 496.668 661.182 502.93 662.182 508.808C663.97 519.365 660.176 521.853 651.208 518.498C646.105 516.589 643.043 518.498 640.713 523.017C638.89 526.56 640.29 532.786 633.962 532.706C626.536 532.619 629.359 524.224 625.403 520.942C621.672 521.65 620.405 526.018 621.278 527.681C626.008 536.69 615.956 539.214 613.429 544.116C610.93 548.961 600.949 548.144 594.086 542.967C590.735 540.443 584.808 538.628 580.81 541.195C571.392 547.254 562.804 541.925 559.644 535.721C554.076 524.796 541.342 529.199 535.817 520.544C533.423 522.973 521.774 517.232 529.256 528.382C524.174 531.231 519.099 536.35 514.01 536.365C507.266 536.387 500.685 537.016 494.019 537.587C489.753 537.948 485.783 537.551 484.551 531.47C483.193 524.774 476.871 521.585 471.839 523.617C466.278 525.859 468.185 532.569 469.832 537.731C470.635 540.241 471.458 542.75 472.198 545.28C473.598 550.038 470.959 551.73 467.003 552.28C463.913 552.706 461.146 554.76 459.105 549.221C454.649 537.131 454.339 537.703 445.843 544.008C441.437 547.276 436.728 543.061 432.786 541.441C421.481 536.799 413.851 542.692 407.051 550.031C403.144 554.254 402.124 558.918 410.873 559.655C414.815 559.988 420.291 562.938 413.583 568.137C407.818 572.606 414.843 574.543 415.28 577.783C415.913 582.512 418.173 586.995 417.159 591.977C411.556 585.071 407.009 602.577 400.976 592.664C399.463 590.169 397.281 593.481 395.331 593.813C375.833 597.132 373.707 595.86 367.555 575.708C368.083 594.804 356.074 591.767 345.044 591.897C301.803 592.403 263.426 580.075 231.813 547.334C240.26 547.334 248.524 547.059 256.76 547.413C264.77 547.753 266.629 544.753 263.665 537.189C258.118 522.995 254.676 508.223 252.107 491.151C262.616 499.336 260.068 512.127 268.48 521.73C270.437 509.047 272.337 498.172 273.724 487.225C274.491 481.187 271.169 479.444 265.728 480.804C256.492 483.11 252.184 478.649 246.8 470.702C242.133 463.818 236.368 460.21 243.104 451.62C245.49 448.576 242.252 445.235 240.781 442.047C238.268 436.573 231.293 432.9 234.742 424.657C235.671 422.444 231.363 416.03 229.139 417.52C225.506 419.957 223.683 425.372 221.417 429.704C221.065 430.383 222.437 431.967 222.937 433.167C228.392 446.183 225.077 454.216 210.788 456.711C209.211 456.985 203.481 457.882 207.254 462.69C210.232 466.479 216.63 470.001 206.951 473.37C203.664 474.513 202.13 477.514 197.639 478.692C184.314 482.192 178.69 472.647 170.764 467.065C167.695 464.91 164.647 459.4 161.824 463.594C157.08 470.63 166.378 465.257 166.885 468.164C167.448 471.389 168.272 474.845 167.659 477.918C167.124 480.594 163.999 478.106 162.176 478.916C158.868 470.63 149.154 473.855 144.142 468.2C138.813 462.177 138.722 454.751 137.441 446.638C134.231 449.95 127.143 449.502 130.747 456.87C131.894 459.227 138.405 460.391 132.485 464.006C128.769 466.277 124.299 467.159 121.089 462.423C119.217 459.661 119.618 453.5 113.487 457.332C109.855 459.603 103.245 459.126 105.659 466.696C96.1355 469.162 97.9164 482.474 88.8712 486.914C88.6248 484.506 88.2095 483.508 88.5192 482.929C91.0533 478.237 93.7563 473.551 90.5465 468.135C89.4906 466.349 87.3155 466.393 86.0626 467.658C81.9095 471.837 82.8809 477.477 82.8105 482.647C82.7613 486.552 84.148 490.522 83.8171 494.369C83.62 496.682 85.3516 501.382 80.5088 501.144C76.9892 500.97 75.9122 498.092 75.9122 494.499C75.9122 484.838 75.2506 475.171 75.5533 465.525C75.8067 457.311 70.4781 450.514 70.9567 442.097C71.1257 439.133 67.1486 434.18 64.1289 433.211C60.4193 432.025 60.1377 437.853 58.0964 440.405C57.125 441.613 57.9415 444.122 54.8795 444.324C50.3604 439.306 52.1554 432.516 50.8321 426.11C49.7199 426.349 48.5373 426.479 47.4392 426.869C41.5757 428.973 38.0562 436.334 30.8552 435.083C28.8279 434.729 26.8289 407.006 28.6449 404.338C29.4967 403.08 31.2987 401.706 32.622 401.757C35.325 401.865 35.4587 404.577 35.6418 406.703C36.3246 414.758 40.3157 412.791 42.0051 408.062C45.6372 397.874 49.3891 406.327 52.5707 407.679C54.3164 408.416 51.1066 415.452 56.583 413.087C61.0246 411.171 64.5723 407.05 68.472 403.854C68.662 403.702 68.486 402.668 68.4227 402.661C52.8804 401.229 67.1064 385.936 58.0119 379.161C52.7537 375.249 50.5223 362.551 60.5741 354.431C67.0219 349.225 59.0326 339.471 63.9247 332.717C60.0392 331.025 56.9349 320.801 51.9231 332.421C49.3116 338.473 42.6738 338.422 40.0693 332.421C35.867 322.717 29.8416 322.037 21.1694 324.467C17.2135 325.573 12.4269 325.082 12.6663 318.205C12.9337 310.562 17.9667 315.298 21.3243 314.423C16.4181 304.365 8.86516 296.571 2.00208 288.226C-3.60102 281.415 4.52206 274.835 2.76229 267.235C1.7909 263.027 3.05794 256.461 3.61402 251.009C4.22642 244.957 3.09313 237.17 11.6878 235.051C12.0398 234.964 12.5114 234.502 12.5748 234.147C14.8061 221.067 25.1676 220.12 35.318 217.148C25.5055 214.277 15.7001 211.406 5.95099 208.558C5.33859 204.971 9.40717 205.658 9.66762 204.414C11.2373 196.8 15.1229 197.936 19.5575 201.327C21.986 203.185 24.0907 206.005 27.0189 202.455C29.5107 199.44 26.6458 198.181 25.0269 196.178C20.1136 190.083 26.2517 185.795 28.6661 181.977C32.8825 175.318 34.0509 183.72 36.8384 184.862C39.1754 185.817 42.357 186.749 43.9267 184.551C46.855 180.451 42.9624 179.83 40.3157 178.564C39.295 178.073 38.9572 176.171 37.9435 175.571C20.6345 165.361 20.2051 163.466 31.9674 147.645C36.4794 141.572 55.2244 140.841 60.7008 148.86C67.1627 158.325 73.1952 151.087 77.5805 149.497C80.7974 148.332 85.4854 142.447 82.9865 134.254C80.4313 125.859 76.954 116.22 81.3183 106.647C81.9518 105.251 81.5717 103.147 83.4018 102.525C91.004 99.9585 98.9511 94.9186 105.856 94.8463C112.98 94.774 120.455 83.5519 127.846 95.15C126.784 87.5649 129.782 80.2474 121.554 75.2365C119.083 73.7324 116.133 65.981 122.335 61.6281C125.334 59.5239 125.868 56.4147 123.018 53.855C119.984 51.1362 117.091 50.3409 115.542 55.8435C114.536 59.4155 112.009 57.2463 110.474 56.1472C101.161 49.4804 90.1312 45.0262 82.0151 32.3579C92.7708 38.1932 101.478 28.0701 110.791 33.7462C111.509 34.1801 115.028 31.8373 115.549 30.2104C118.991 19.5233 126.41 21.0128 135.097 21.2804C147.267 21.6564 147.985 32.3146 147.88 38.1642C147.76 44.6719 146.69 56.4581 134.16 54.9614C130.507 54.5203 130.275 57.4198 129.219 59.7192C127.945 62.4814 127.762 64.412 131.077 65.9955C137.356 68.9891 139.827 73.3564 134.667 79.7484C132.499 82.4383 134.688 84.1736 136.709 84.1809C141.404 84.1954 142.389 87.2829 143.121 90.8911C143.846 94.5137 146.064 96.9432 149.414 95.3163C153.096 93.5303 150.716 91.1297 148.696 89.3148C145.493 86.4369 149.069 84.8534 149.914 82.7999C151.336 79.329 154.271 79.8352 156.376 81.2742C160.592 84.1448 166.78 86.9214 167.934 90.9923C171.207 102.554 178.69 108.541 188.622 112.721C189.41 113.053 190.346 113.364 190.867 113.986C196.489 120.682 204.779 121.195 215.736 115.526C202.594 108.505 201.433 93.5954 194.746 82.4238C193.444 80.2401 198.983 73.0961 205.832 76.0174C211.02 78.23 216.328 79.8497 221.522 75.1352C218.643 68.2081 207.205 72.2863 206.818 62.4597C212.836 60.8689 218.369 63.8986 225.647 65.2363C222.522 56.4509 225.929 48.3958 223.141 40.1021C229.505 45.7421 239.197 46.0024 241.788 56.0676C255.901 31.4685 277.588 24.1871 304.267 36.9639C298.473 31.1431 299.67 23.8256 290.759 24.7656C286.922 25.1705 287.112 20.015 289.097 16.725C290.695 14.0713 291.744 8.76392 296.045 13.8254C299.776 18.2145 300.874 15.6042 304.928 13.5145C310.764 10.5065 318.908 12.9216 324.3 18.8581C329.002 24.0425 332.029 25.0765 334.647 16.6961C336.703 10.1233 347.261 9.21222 346.487 0.000187237C352.364 1.89466 358.474 3.28296 364.035 5.89331C366.9 7.23822 368.329 10.3619 367.175 14.7293C365.014 22.8928 358.925 18.8147 354.061 20.0222C354.927 22.3578 356.44 24.5776 356.384 26.7613C356.306 29.6536 355.983 32.4881 359.291 32.987C366.443 34.0644 359.03 28.0845 361.621 27.3543C368.146 25.5248 371.285 15.4524 380.549 19.9282C387.616 23.3411 386.398 13.0879 392.001 12.0973C393.416 12.2347 389.2 22.6831 396.584 15.4885C402.553 9.66053 406.72 12.025 407.621 20.0295C408.177 24.9753 410.402 27.5133 415.019 26.3203C419.989 25.0331 426.796 27.4772 429.111 20.1523C429.548 18.764 429.71 17.5421 431.082 18.0699C432.575 18.6484 434.356 19.6824 435.045 21.0346C439.114 29.0318 439.029 28.8293 446.104 29.0607C447.688 29.1113 449.18 31.671 450.728 33.0593C456.275 38.0197 458.394 45.8144 468.889 46.6242C474.225 47.0364 474.893 60.9557 476.449 69.1626C477.09 72.5466 473.852 75.8294 475.907 79.3797C479.983 76.6031 486.923 66.9066 489.408 60.8689C489.851 59.7987 491.717 58.2007 491.815 58.2803C499.22 64.3541 509.258 53.3706 516.304 62.3151C517.754 64.1589 520.859 67.1741 522.822 65.3013C530.523 57.9621 537.52 64.9398 543.567 67.0512C555.195 71.1077 564.895 76.1403 572.159 60.2832C574.454 55.2795 576.643 55.4892 574.003 50.1022C579.776 52.6403 594.874 66.7692 597.676 66.8632C606.637 67.1525 611.226 78.2228 620.236 75.8438C627.381 73.9566 627.683 76.6392 627.712 82.9155C627.761 95.902 636.581 102.482 648.512 98.4183C655.234 96.1262 656.304 101.26 659.549 104.405C663.069 107.811 666.623 114.883 671.966 105.085C675.007 99.5102 680.167 101.434 682.996 106.517C684.665 109.518 685.122 113.119 688.585 114.984C695.195 118.549 706.964 119.735 696.202 131.919C695.322 132.909 696.899 137.023 698.264 139.012C699.39 140.646 701.094 138.99 702.495 137.841C711.04 130.834 712.342 139.518 712.743 144.124C713.447 152.309 717.185 156.85 724.006 159.988C729.137 162.346 732.361 166.735 736.022 171.203C742.476 179.078 748.129 188.044 757.941 192.917C766.67 197.256 770.682 214.284 764.044 220.423C758.244 225.788 755.696 217.061 752.12 213.836C748.474 216.895 751.817 220.561 750.93 223.872C748.671 232.289 749.318 241.212 738.619 245.941C733.164 248.349 721.268 255.326 735.508 264.885C740.745 268.399 735.93 288.537 732.305 294.105C726.568 302.912 722.295 310.649 709.759 311.437C705.254 311.719 702.551 323.809 704.853 330.859C708.351 341.575 703.86 343.412 694.055 343.252L694.062 343.267ZM346.48 120.226C346.487 121.73 346.494 123.242 346.501 124.746C345.171 128.686 349.971 136.026 340.785 135.606C349.091 150.451 362.691 152.1 373.925 138.73C378.226 133.618 370.434 136.322 369.589 134.052C369.659 129.475 369.737 124.897 369.807 120.32L369.73 121.08C367.991 106.698 357.003 111.868 349.119 111.405C348.021 111.34 339.835 115.186 346.585 120.523L346.473 120.219L346.48 120.226ZM407.29 207.473C400.857 201.435 393.318 204.147 386.771 206.092C383.041 207.205 386.518 212.361 387.137 215.477C388.644 223.041 397.907 223.511 400.526 222.759C406.966 220.9 403.799 226.164 405.425 227.35C394.831 236.483 407.635 238.283 410.535 242.152C414.942 248.03 415.42 240.901 418.145 238.927C426.859 232.607 427.302 233.243 419.827 225.514C420.439 226.114 421.467 227.314 421.594 227.22C430.576 220.568 437.143 221.219 441.922 232.708C442.908 235.073 448.272 233.887 451.404 231.942C453.248 230.799 453.572 229.013 452.122 227.683C446.533 222.556 449.891 213.547 443.577 208.42C439.515 205.123 438.882 201.074 441.754 194.703C447.23 182.556 437.579 174.616 429.252 167.19C434.546 163.893 437.375 168.253 440.86 169.099C443.851 169.829 446.787 172.02 447.955 167.552C448.997 163.589 445.329 164.045 443.028 163.503C438.509 162.44 433.884 161.724 429.477 160.299C420.418 157.378 414.667 161.304 411.922 169.685C409.085 178.347 414.449 184.081 421.636 185.115C432.349 186.656 428.133 193.236 426.873 198.246C425.381 204.168 420.503 205.629 414.928 204.385C411.676 203.662 407.987 201.587 407.283 207.466L407.29 207.473ZM261.673 247.56C266.579 258.067 262.94 266.563 260.554 275.037C257.612 285.486 248.714 285.262 239.986 285.377C245.575 289.34 250.664 292.644 256.169 294.879C259.012 296.028 263.123 299.203 265.425 295.826C266.72 293.924 264.897 289.484 263.926 286.368C263.461 284.886 261.539 283.888 263.06 280.851C268.578 284.343 273.295 278.508 278.94 279.036C290.561 280.121 301.205 279.759 302.45 263.996C302.95 257.669 307.174 257.944 315.972 257.633C297.227 263.483 318.908 269.339 311.397 275.305C310.496 276.021 313.889 277.134 315.283 276.787C320.147 275.572 323.68 273.172 323.589 267.047C323.539 263.757 326.313 259.759 329.15 262.398C339.201 271.755 354.385 272.948 362.444 285.305C369.688 296.404 380.514 291.068 389.432 289.586C395.662 288.552 403.053 285.059 403.13 275.355C403.18 269.506 404.742 263.656 412.302 263.316C418.201 263.049 417.962 256.765 417.666 254.502C416.87 248.508 412.429 252.723 409.684 253.338C404.432 254.516 400.42 254.516 399.104 247.727C398.752 245.897 395.662 242.846 395.218 243.085C385.779 248.175 383.512 239.274 378.12 235.283C375.087 233.034 364.95 230.235 363.866 235.745C362.29 243.771 357.559 242.34 353.864 242.051C344.636 241.335 336.843 241.479 331.677 251.573C329.15 256.505 323.272 253.663 318.683 252.998C309.511 251.675 304.682 243.106 297.523 238.775C294.82 241.978 297.08 243.518 297.896 245.362C300.536 251.335 300.353 256.505 293.828 259.723C287.366 262.911 284.459 259.694 282.657 253.54C281.291 248.891 277.117 246.895 273.569 249.513C268.881 252.976 266.706 247.965 261.694 247.539L261.673 247.56ZM494.385 283.758C487.909 295.421 484.213 304.488 473.303 294.264C471.177 292.268 468.432 294.242 467.876 295.652C466.313 299.622 458.57 300.121 462.04 306.824C465.63 313.765 472.085 315.117 477.371 311.777C488.218 304.929 498.798 306.715 509.849 309.68C514.08 310.815 518.022 310.504 520.07 305.732C522.569 299.926 518.662 294.517 518.859 288.834C515.833 290.692 510.223 283.295 509.139 291.545C508.78 294.293 509.174 297.424 505.492 296.889C500.551 296.173 502.17 293.331 503.852 290.236C505.33 287.518 502.909 287.113 500.98 285.891C497.271 283.533 493.23 280.771 494.019 273.201C498.678 277.156 503.296 273.83 508.364 277.987C511.975 280.945 520.366 278.118 526.525 277.192C528.271 276.932 527.722 274.285 526.567 272.716C521.591 265.955 517.529 273.461 513.003 273.569C512.362 273.584 511.694 272.723 510.694 272.037C510.617 266.237 518.522 257.821 507.618 254.835C491.942 250.547 477.646 255.312 464.56 264.517C461.759 266.483 459.541 270.395 462.434 272.058C471.972 277.568 476.203 294.51 494.378 283.758L494.385 283.758ZM364.028 191.139C358.42 189.996 353.73 190.011 349.957 191.182C340.757 194.031 325.658 189.83 326.299 184.016C327.228 175.643 325.56 171.333 317.465 169.099C315.578 168.579 316.113 160.936 311.165 165.166C308.194 167.704 306.625 171.963 304.421 175.448C317.465 182.462 301.634 184.848 302.274 189.902C308.842 195.108 324.722 191.934 318.584 208.876C318.338 209.563 319.823 210.908 320.499 211.949C326.193 207.74 332.409 217.046 337.294 211.905C341.461 207.524 341.933 201.254 338.483 194.407C348.655 202.491 355.581 195.788 364.035 191.146L364.028 191.139ZM190.36 192.527C189.227 185.296 184.18 184.226 185.757 181.03C187.284 177.928 191.001 179.302 193.781 179.765C197.456 180.372 203.136 182.736 203.129 177.429C203.129 172.122 209.31 164.84 200.321 160.704C192.078 156.915 182.033 150.892 176.113 160.104C171.249 167.675 164.337 174.052 161.183 182.845C160.233 185.499 154.377 187.473 159.621 190.77C162.422 192.534 166.245 195.303 169.567 190.394C175.325 181.876 181.921 182.917 190.353 192.52L190.36 192.527ZM255.986 436.544C256.112 441.642 254.078 448.026 259.667 449.776C266.354 451.873 270.31 444.397 275.878 442.003C272.182 436.146 284.951 431.128 276.709 425.098C275.16 423.962 271.753 424.512 272.513 421.395C273.379 417.816 276.124 419.27 278.722 419.552C288.436 420.6 276.026 409.291 284.437 408.366C286.359 408.156 283.093 404.902 281.685 403.962C279.053 402.205 258.886 409.544 258.344 412.567C256.985 420.094 261.103 425.184 267.037 428.445C269.662 429.892 272.612 428.988 269.761 433.832C266.305 439.718 265.608 433.905 263.722 433.088C261.335 432.046 261.877 426.269 257.316 428.821C253.606 430.897 255.458 434.071 255.979 436.544L255.986 436.544ZM490.45 111.593C487.634 110.797 485.002 110.66 483.066 109.402C475.809 104.666 471.437 102.475 474.119 115.186C475.555 121.991 469.016 121.398 465.299 119.872C462.033 118.527 459.619 114.984 456.655 112.244C453.931 115.823 455.388 121.202 451.32 124.775C446.681 128.845 449.665 137.587 455.846 138.6C461.111 139.46 466.13 136.821 470.121 133.892C476.442 129.258 481.848 126.835 487.824 133.979C489.162 135.577 491.309 137.117 493.089 134.522C494.427 132.577 494.251 129.576 492.371 128.621C487.127 125.96 485.156 120.494 481.271 116.495C483.551 113.538 488.345 116.864 490.45 111.6L490.45 111.593ZM646.055 288.356C638.84 285.529 630.408 285.963 629.119 275.139C627.775 263.873 622.334 265.167 615.97 271.538C613.331 274.177 610.895 277.084 607.995 279.376C602.61 283.635 603.532 286.838 607.432 292.261C613.077 300.114 620.553 291.545 622.01 293.143C632.913 305.074 638.115 290.432 646.062 288.364L646.055 288.356ZM171.249 428.843C181.505 432.965 197.273 427.874 194.767 422.458C187.707 407.209 204.389 412.306 206.487 405.669C200.616 398.77 185.665 394.475 185.004 399.016C182.899 413.449 171.988 415.278 161.493 419.414C168.8 420.441 176.099 421.468 184.131 422.603C180.259 428.583 173.241 422.061 171.249 428.85L171.249 428.843ZM500.192 581.217C504.373 580.089 511.264 581.557 511.335 575.324C511.426 567.443 504.458 566.937 498.904 568.079C485.142 570.914 472.747 565.223 459.858 562.576C455.297 561.636 448.75 559.25 447.089 564.464C443.182 576.734 440.465 567.486 437.622 564.514C435.454 562.251 435.306 557.797 430.026 560.4C425.81 562.475 424.698 565.302 424.423 569.482C423.945 576.828 437.784 595.513 444.83 597.017C448.546 597.812 448.954 594.341 450.714 593.119C459.386 587.132 462.491 569.207 479.715 578.412C481.721 579.482 489.211 587.4 494.272 580.928C496.82 581.094 498.636 581.644 500.206 581.225L500.192 581.217ZM346.48 120.226C346.48 121.73 346.494 123.242 346.501 124.746C345.171 128.686 349.971 136.026 340.771 135.628C343.305 137.812 345.853 139.974 348.401 142.136L348.085 142.381C351.069 136.872 354.061 131.369 357.045 125.859C354.04 123.09 352.906 116.445 346.592 120.53L346.48 120.226ZM369.737 121.065C368.73 118.592 367.822 115.707 364.479 118.187C363.817 118.679 363.458 120.899 363.937 121.499C366.372 124.536 368.231 122.808 369.814 120.328C369.814 120.328 369.737 121.087 369.737 121.065ZM364.486 135.563C366.492 139.721 369.188 137.804 369.934 133.661C365.457 131.051 362.691 125.425 356.588 125.693C359.291 128.896 362.48 131.412 364.486 135.563ZM348.43 142.107C349.823 142.584 351.182 143.083 352.547 143.582C352.583 143.242 352.611 142.902 352.646 142.562C351.126 142.504 349.605 142.439 348.085 142.381C348.085 142.381 348.401 142.136 348.43 142.107Z" fill="white"/>
</mask>
<g mask="url(#mask0_53_112139)">
<path d="M0.0253986 -47.9936L0.0253906 623.608L2.75655 623.608L2.75656 -47.9936L0.0253986 -47.9936Z" fill="#4FF16F"/>
<path d="M5.36524 -47.9936L5.36523 623.608L8.09639 623.608L8.0964 -47.9936L5.36524 -47.9936Z" fill="#4FF16F"/>
<path d="M10.7168 -47.9936L10.7168 623.608L13.448 623.608L13.448 -47.9936L10.7168 -47.9936Z" fill="#4FF16F"/>
<path d="M16.0664 -47.9936L16.0664 623.608L18.7976 623.608L18.7976 -47.9936L16.0664 -47.9936Z" fill="#4FF16F"/>
<path d="M21.4082 -47.9936L21.4082 623.608L24.1394 623.608L24.1394 -47.9936L21.4082 -47.9936Z" fill="#4FF16F"/>
<path d="M26.7559 -47.9936L26.7559 623.608L29.487 623.608L29.487 -47.9936L26.7559 -47.9936Z" fill="#4FF16F"/>
<path d="M32.0996 -47.9936L32.0996 623.608L34.8308 623.608L34.8308 -47.9936L32.0996 -47.9936Z" fill="#4FF16F"/>
<path d="M37.4512 -47.9936L37.4512 623.608L40.1823 623.608L40.1823 -47.9936L37.4512 -47.9936Z" fill="#4FF16F"/>
<path d="M42.793 -47.9936L42.793 623.608L45.5241 623.608L45.5241 -47.9936L42.793 -47.9936Z" fill="#4FF16F"/>
<path d="M48.1426 -47.9936L48.1426 623.608L50.8737 623.608L50.8737 -47.9936L48.1426 -47.9936Z" fill="#4FF16F"/>
<path d="M53.4863 -47.9936L53.4863 623.608L56.2175 623.608L56.2175 -47.9936L53.4863 -47.9936Z" fill="#4FF16F"/>
<path d="M58.8359 -47.9936L58.8359 623.608L61.5671 623.608L61.5671 -47.9936L58.8359 -47.9936Z" fill="#4FF16F"/>
<path d="M64.1836 -47.9936L64.1836 623.608L66.9147 623.608L66.9148 -47.9936L64.1836 -47.9936Z" fill="#4FF16F"/>
<path d="M69.5274 -47.9936L69.5273 623.608L72.2585 623.608L72.2585 -47.9936L69.5274 -47.9936Z" fill="#4FF16F"/>
<path d="M74.877 -47.9936L74.877 623.608L77.6081 623.608L77.6081 -47.9936L74.877 -47.9936Z" fill="#4FF16F"/>
<path d="M80.2188 -47.9936L80.2188 623.608L82.9499 623.608L82.9499 -47.9936L80.2188 -47.9936Z" fill="#4FF16F"/>
<path d="M85.5684 -47.9936L85.5684 623.608L88.2995 623.608L88.2995 -47.9936L85.5684 -47.9936Z" fill="#4FF16F"/>
<path d="M90.9121 -47.9936L90.9121 623.608L93.6433 623.608L93.6433 -47.9936L90.9121 -47.9936Z" fill="#4FF16F"/>
<path d="M96.2617 -47.9936L96.2617 623.608L98.9929 623.608L98.9929 -47.9936L96.2617 -47.9936Z" fill="#4FF16F"/>
<path d="M101.605 -47.9936L101.605 623.608L104.337 623.608L104.337 -47.9936L101.605 -47.9936Z" fill="#4FF16F"/>
<path d="M106.953 -47.9936L106.953 623.608L109.684 623.608L109.684 -47.9936L106.953 -47.9936Z" fill="#4FF16F"/>
<path d="M112.303 -47.9936L112.303 623.608L115.034 623.608L115.034 -47.9936L112.303 -47.9936Z" fill="#4FF16F"/>
<path d="M117.646 -47.9936L117.646 623.608L120.378 623.608L120.378 -47.9936L117.646 -47.9936Z" fill="#4FF16F"/>
<path d="M122.996 -47.9936L122.996 623.608L125.727 623.608L125.727 -47.9936L122.996 -47.9936Z" fill="#4FF16F"/>
<path d="M128.338 -47.9931L128.338 623.609L131.069 623.609L131.069 -47.9931L128.338 -47.9931Z" fill="#4FF16F"/>
<path d="M133.688 -47.9931L133.688 623.609L136.419 623.609L136.419 -47.9931L133.688 -47.9931Z" fill="#4FF16F"/>
<path d="M139.031 -47.9931L139.031 623.609L141.762 623.609L141.762 -47.9931L139.031 -47.9931Z" fill="#4FF16F"/>
<path d="M144.379 -47.9931L144.379 623.609L147.11 623.609L147.11 -47.9931L144.379 -47.9931Z" fill="#4FF16F"/>
<path d="M149.73 -47.9931L149.73 623.609L152.462 623.609L152.462 -47.9931L149.73 -47.9931Z" fill="#4FF16F"/>
<path d="M155.072 -47.9931L155.072 623.609L157.803 623.609L157.803 -47.9931L155.072 -47.9931Z" fill="#4FF16F"/>
<path d="M160.422 -47.9931L160.422 623.609L163.153 623.609L163.153 -47.9931L160.422 -47.9931Z" fill="#4FF16F"/>
<path d="M165.766 -47.9931L165.766 623.609L168.497 623.609L168.497 -47.9931L165.766 -47.9931Z" fill="#4FF16F"/>
<path d="M171.115 -47.9931L171.115 623.609L173.846 623.609L173.846 -47.9931L171.115 -47.9931Z" fill="#4FF16F"/>
<path d="M176.459 -47.9931L176.459 623.609L179.19 623.609L179.19 -47.9931L176.459 -47.9931Z" fill="#4FF16F"/>
<path d="M181.809 -47.9931L181.809 623.609L184.54 623.609L184.54 -47.9931L181.809 -47.9931Z" fill="#4FF16F"/>
<path d="M187.148 -47.9931L187.148 623.609L189.88 623.609L189.88 -47.9931L187.148 -47.9931Z" fill="#4FF16F"/>
<path d="M192.498 -47.9931L192.498 623.609L195.229 623.609L195.229 -47.9931L192.498 -47.9931Z" fill="#4FF16F"/>
<path d="M197.85 -47.9931L197.85 623.609L200.581 623.609L200.581 -47.9931L197.85 -47.9931Z" fill="#4FF16F"/>
<path d="M203.191 -47.9931L203.191 623.609L205.923 623.609L205.923 -47.9931L203.191 -47.9931Z" fill="#4FF16F"/>
<path d="M208.543 -47.9931L208.543 623.609L211.274 623.609L211.274 -47.9931L208.543 -47.9931Z" fill="#4FF16F"/>
<path d="M213.885 -47.9931L213.885 623.609L216.616 623.609L216.616 -47.9931L213.885 -47.9931Z" fill="#4FF16F"/>
<path d="M219.234 -47.9931L219.234 623.609L221.966 623.609L221.966 -47.9931L219.234 -47.9931Z" fill="#4FF16F"/>
<path d="M224.576 -47.9931L224.576 623.609L227.307 623.609L227.307 -47.9931L224.576 -47.9931Z" fill="#4FF16F"/>
<path d="M229.926 -47.9931L229.926 623.609L232.657 623.609L232.657 -47.9931L229.926 -47.9931Z" fill="#4FF16F"/>
<path d="M235.275 -47.9931L235.275 623.609L238.007 623.609L238.007 -47.9931L235.275 -47.9931Z" fill="#4FF16F"/>
<path d="M240.619 -47.9931L240.619 623.609L243.35 623.609L243.35 -47.9931L240.619 -47.9931Z" fill="#4FF16F"/>
<path d="M245.969 -47.9931L245.969 623.609L248.7 623.609L248.7 -47.9931L245.969 -47.9931Z" fill="#4FF16F"/>
<path d="M251.313 -47.9931L251.312 623.609L254.044 623.609L254.044 -47.9931L251.313 -47.9931Z" fill="#4FF16F"/>
<path d="M256.662 -47.9931L256.662 623.609L259.393 623.609L259.393 -47.9931L256.662 -47.9931Z" fill="#4FF16F"/>
<path d="M262.004 -47.9931L262.004 623.609L264.735 623.609L264.735 -47.9931L262.004 -47.9931Z" fill="#4FF16F"/>
<path d="M267.352 -47.9931L267.352 623.609L270.083 623.609L270.083 -47.9931L267.352 -47.9931Z" fill="#4FF16F"/>
<path d="M272.695 -47.9931L272.695 623.609L275.426 623.609L275.426 -47.9931L272.695 -47.9931Z" fill="#4FF16F"/>
<path d="M278.045 -47.9931L278.045 623.609L280.776 623.609L280.776 -47.9931L278.045 -47.9931Z" fill="#4FF16F"/>
<path d="M283.396 -47.9931L283.396 623.609L286.128 623.609L286.128 -47.9931L283.396 -47.9931Z" fill="#4FF16F"/>
<path d="M288.738 -47.9931L288.738 623.609L291.469 623.609L291.469 -47.9931L288.738 -47.9931Z" fill="#4FF16F"/>
<path d="M294.088 -47.9931L294.088 623.609L296.819 623.609L296.819 -47.9931L294.088 -47.9931Z" fill="#4FF16F"/>
<path d="M299.432 -47.9931L299.432 623.609L302.163 623.609L302.163 -47.9931L299.432 -47.9931Z" fill="#4FF16F"/>
<path d="M304.779 -47.9931L304.779 623.609L307.51 623.609L307.51 -47.9931L304.779 -47.9931Z" fill="#4FF16F"/>
<path d="M310.123 -47.9931L310.123 623.609L312.854 623.609L312.854 -47.9931L310.123 -47.9931Z" fill="#4FF16F"/>
<path d="M315.473 -47.9931L315.473 623.609L318.204 623.609L318.204 -47.9931L315.473 -47.9931Z" fill="#4FF16F"/>
<path d="M320.822 -47.9931L320.822 623.609L323.553 623.609L323.553 -47.9931L320.822 -47.9931Z" fill="#4FF16F"/>
<path d="M326.164 -47.9931L326.164 623.609L328.895 623.609L328.895 -47.9931L326.164 -47.9931Z" fill="#4FF16F"/>
<path d="M331.516 -47.9931L331.516 623.609L334.247 623.609L334.247 -47.9931L331.516 -47.9931Z" fill="#4FF16F"/>
<path d="M336.855 -47.9931L336.855 623.609L339.587 623.609L339.587 -47.9931L336.855 -47.9931Z" fill="#4FF16F"/>
<path d="M342.205 -47.9931L342.205 623.609L344.936 623.609L344.936 -47.9931L342.205 -47.9931Z" fill="#4FF16F"/>
<path d="M347.549 -47.9931L347.549 623.609L350.28 623.609L350.28 -47.9931L347.549 -47.9931Z" fill="#4FF16F"/>
<path d="M352.898 -47.9931L352.898 623.609L355.63 623.609L355.63 -47.9931L352.898 -47.9931Z" fill="#4FF16F"/>
<path d="M358.242 -47.9931L358.242 623.609L360.973 623.609L360.973 -47.9931L358.242 -47.9931Z" fill="#4FF16F"/>
<path d="M363.592 -47.9931L363.592 623.609L366.323 623.609L366.323 -47.9931L363.592 -47.9931Z" fill="#4FF16F"/>
<path d="M368.941 -47.9931L368.941 623.609L371.673 623.609L371.673 -47.9931L368.941 -47.9931Z" fill="#4FF16F"/>
<path d="M374.285 -47.9931L374.285 623.609L377.016 623.609L377.016 -47.9931L374.285 -47.9931Z" fill="#4FF16F"/>
<path d="M379.633 -47.9931L379.633 623.609L382.364 623.609L382.364 -47.9931L379.633 -47.9931Z" fill="#4FF16F"/>
<path d="M384.975 -47.9931L384.975 623.609L387.706 623.609L387.706 -47.9931L384.975 -47.9931Z" fill="#4FF16F"/>
<path d="M390.326 -47.9931L390.326 623.609L393.057 623.609L393.057 -47.9931L390.326 -47.9931Z" fill="#4FF16F"/>
<path d="M395.668 -47.9931L395.668 623.609L398.399 623.609L398.399 -47.9931L395.668 -47.9931Z" fill="#4FF16F"/>
<path d="M401.018 -47.9931L401.018 623.609L403.749 623.609L403.749 -47.9931L401.018 -47.9931Z" fill="#4FF16F"/>
<path d="M406.369 -47.9931L406.369 623.609L409.1 623.609L409.1 -47.9931L406.369 -47.9931Z" fill="#4FF16F"/>
<path d="M411.711 -47.9931L411.711 623.609L414.442 623.609L414.442 -47.9931L411.711 -47.9931Z" fill="#4FF16F"/>
<path d="M417.059 -47.9931L417.059 623.609L419.79 623.609L419.79 -47.9931L417.059 -47.9931Z" fill="#4FF16F"/>
<path d="M422.402 -47.9926L422.402 623.609L425.133 623.609L425.133 -47.9926L422.402 -47.9926Z" fill="#4FF16F"/>
<path d="M427.752 -47.9926L427.752 623.609L430.483 623.609L430.483 -47.9926L427.752 -47.9926Z" fill="#4FF16F"/>
<path d="M433.094 -47.9926L433.094 623.609L435.825 623.609L435.825 -47.9926L433.094 -47.9926Z" fill="#4FF16F"/>
<path d="M438.445 -47.9926L438.445 623.609L441.176 623.609L441.176 -47.9926L438.445 -47.9926Z" fill="#4FF16F"/>
<path d="M443.789 -47.9926L443.789 623.609L446.52 623.609L446.52 -47.9926L443.789 -47.9926Z" fill="#4FF16F"/>
<path d="M449.139 -47.9926L449.139 623.609L451.87 623.609L451.87 -47.9926L449.139 -47.9926Z" fill="#4FF16F"/>
<path d="M454.486 -47.9926L454.486 623.609L457.217 623.609L457.217 -47.9926L454.486 -47.9926Z" fill="#4FF16F"/>
<path d="M459.828 -47.9926L459.828 623.609L462.559 623.609L462.559 -47.9926L459.828 -47.9926Z" fill="#4FF16F"/>
<path d="M465.178 -47.9926L465.178 623.609L467.909 623.609L467.909 -47.9926L465.178 -47.9926Z" fill="#4FF16F"/>
<path d="M470.521 -47.9926L470.521 623.609L473.253 623.609L473.253 -47.9926L470.521 -47.9926Z" fill="#4FF16F"/>
<path d="M475.871 -47.9926L475.871 623.609L478.602 623.609L478.602 -47.9926L475.871 -47.9926Z" fill="#4FF16F"/>
<path d="M481.215 -47.9926L481.215 623.609L483.946 623.609L483.946 -47.9926L481.215 -47.9926Z" fill="#4FF16F"/>
<path d="M486.564 -47.9926L486.564 623.609L489.296 623.609L489.296 -47.9926L486.564 -47.9926Z" fill="#4FF16F"/>
<path d="M491.904 -47.9926L491.904 623.609L494.635 623.609L494.635 -47.9926L491.904 -47.9926Z" fill="#4FF16F"/>
<path d="M497.256 -47.9926L497.256 623.609L499.987 623.609L499.987 -47.9926L497.256 -47.9926Z" fill="#4FF16F"/>
<path d="M502.605 -47.9926L502.605 623.609L505.337 623.609L505.337 -47.9926L502.605 -47.9926Z" fill="#4FF16F"/>
<path d="M507.949 -47.9926L507.949 623.609L510.68 623.609L510.68 -47.9926L507.949 -47.9926Z" fill="#4FF16F"/>
<path d="M513.299 -47.9926L513.299 623.609L516.03 623.609L516.03 -47.9926L513.299 -47.9926Z" fill="#4FF16F"/>
<path d="M518.639 -47.9926L518.639 623.609L521.37 623.609L521.37 -47.9926L518.639 -47.9926Z" fill="#4FF16F"/>
<path d="M523.992 -47.9926L523.992 623.609L526.723 623.609L526.723 -47.9926L523.992 -47.9926Z" fill="#4FF16F"/>
<path d="M529.332 -47.9926L529.332 623.609L532.063 623.609L532.063 -47.9926L529.332 -47.9926Z" fill="#4FF16F"/>
<path d="M534.682 -47.9926L534.682 623.609L537.413 623.609L537.413 -47.9926L534.682 -47.9926Z" fill="#4FF16F"/>
<path d="M540.033 -47.9926L540.033 623.609L542.764 623.609L542.764 -47.9926L540.033 -47.9926Z" fill="#4FF16F"/>
<path d="M545.375 -47.9926L545.375 623.609L548.106 623.609L548.106 -47.9926L545.375 -47.9926Z" fill="#4FF16F"/>
<path d="M550.725 -47.9926L550.725 623.609L553.456 623.609L553.456 -47.9926L550.725 -47.9926Z" fill="#4FF16F"/>
<path d="M556.068 -47.9926L556.068 623.609L558.8 623.609L558.8 -47.9926L556.068 -47.9926Z" fill="#4FF16F"/>
<path d="M561.416 -47.9926L561.416 623.609L564.147 623.609L564.147 -47.9926L561.416 -47.9926Z" fill="#4FF16F"/>
<path d="M566.758 -47.9946L566.758 623.607L569.489 623.607L569.489 -47.9946L566.758 -47.9946Z" fill="#4FF16F"/>
<path d="M572.111 -47.9926L572.111 623.609L574.842 623.609L574.842 -47.9926L572.111 -47.9926Z" fill="#4FF16F"/>
<path d="M577.459 -47.9926L577.459 623.609L580.19 623.609L580.19 -47.9926L577.459 -47.9926Z" fill="#4FF16F"/>
<path d="M582.801 -47.9946L582.801 623.607L585.532 623.607L585.532 -47.9946L582.801 -47.9946Z" fill="#4FF16F"/>
<path d="M588.152 -47.9946L588.152 623.607L590.884 623.607L590.884 -47.9946L588.152 -47.9946Z" fill="#4FF16F"/>
<path d="M593.494 -47.9946L593.494 623.607L596.225 623.607L596.225 -47.9946L593.494 -47.9946Z" fill="#4FF16F"/>
<path d="M598.844 -47.9946L598.844 623.607L601.575 623.607L601.575 -47.9946L598.844 -47.9946Z" fill="#4FF16F"/>
<path d="M604.186 -47.9946L604.186 623.607L606.917 623.607L606.917 -47.9946L604.186 -47.9946Z" fill="#4FF16F"/>
<path d="M609.535 -47.9946L609.535 623.607L612.266 623.607L612.266 -47.9946L609.535 -47.9946Z" fill="#4FF16F"/>
<path d="M614.879 -47.9946L614.879 623.607L617.61 623.607L617.61 -47.9946L614.879 -47.9946Z" fill="#4FF16F"/>
<path d="M620.229 -47.9946L620.229 623.607L622.96 623.607L622.96 -47.9946L620.229 -47.9946Z" fill="#4FF16F"/>
<path d="M625.578 -47.9946L625.578 623.607L628.309 623.607L628.309 -47.9946L625.578 -47.9946Z" fill="#4FF16F"/>
<path d="M630.922 -47.9946L630.922 623.607L633.653 623.607L633.653 -47.9946L630.922 -47.9946Z" fill="#4FF16F"/>
<path d="M636.268 -47.9946L636.268 623.607L638.999 623.607L638.999 -47.9946L636.268 -47.9946Z" fill="#4FF16F"/>
<path d="M641.615 -47.9946L641.615 623.607L644.346 623.607L644.346 -47.9946L641.615 -47.9946Z" fill="#4FF16F"/>
<path d="M646.963 -47.9946L646.963 623.607L649.694 623.607L649.694 -47.9946L646.963 -47.9946Z" fill="#4FF16F"/>
<path d="M652.305 -47.9946L652.305 623.607L655.036 623.607L655.036 -47.9946L652.305 -47.9946Z" fill="#4FF16F"/>
<path d="M657.654 -47.9946L657.654 623.607L660.385 623.607L660.385 -47.9946L657.654 -47.9946Z" fill="#4FF16F"/>
<path d="M662.998 -47.9946L662.998 623.607L665.729 623.607L665.729 -47.9946L662.998 -47.9946Z" fill="#4FF16F"/>
<path d="M668.348 -47.9946L668.348 623.607L671.079 623.607L671.079 -47.9946L668.348 -47.9946Z" fill="#4FF16F"/>
<path d="M673.699 -47.9946L673.699 623.607L676.43 623.607L676.43 -47.9946L673.699 -47.9946Z" fill="#4FF16F"/>
<path d="M679.041 -47.9946L679.041 623.607L681.772 623.607L681.772 -47.9946L679.041 -47.9946Z" fill="#4FF16F"/>
<path d="M684.389 -47.9946L684.389 623.607L687.12 623.607L687.12 -47.9946L684.389 -47.9946Z" fill="#4FF16F"/>
</g>
</svg>
