<svg width="628" height="726" viewBox="0 0 628 726" fill="none" xmlns="http://www.w3.org/2000/svg">
<mask id="mask0_53_126897" style="mask-type:luminance" maskUnits="userSpaceOnUse" x="0" y="0" width="628" height="726">
<path d="M79.8943 669.167C73.1698 670.187 74.4391 675.015 74.2339 679.247C73.8301 687.568 70.1185 690.214 62.2016 688.205C60.1695 687.687 59.0157 686.751 58.1503 684.975C55.7912 680.153 55.7015 680.194 49.304 679.324C60.1952 677.297 56.9772 671.367 55.7784 665.812C55.0092 662.235 55.24 656.984 57.5605 655.559C65.5607 650.642 59.7849 646.72 57.631 642.417C56.849 640.849 55.8682 639.365 54.913 637.737C51.8873 637.976 54.7272 643.293 50.7271 642.184C48.195 641.487 46.3808 639.389 45.6116 637.022C44.3103 633.005 42.8936 630.895 37.1947 631.777C31.169 632.707 25.5791 626.913 25.0663 621.286C24.5919 616.053 28.3548 612.775 36.5729 611.261C42.8423 610.104 48.2526 613.073 50.4258 618.825C51.3617 621.304 52.1886 623.832 53.3938 626.198C54.5028 628.367 54.6823 628.272 57.1503 626.287C57.4644 626.037 57.9003 625.888 58.3105 625.775C60.0542 625.28 61.4773 629.339 62.8298 626.621C64.1504 623.975 59.9644 624.511 58.9003 622.979C58.2657 622.067 57.7849 620.959 56.9131 620.315C54.8105 618.765 52.0412 617.001 54.272 614.539C56.272 612.328 59.5541 611.785 62.035 615.88C61.8427 609.222 60.1824 604.847 54.0412 601.76C48.5027 598.976 43.0346 596.985 36.8614 596.765C33.8998 596.657 30.8805 596.944 28.1689 595.71C26.0984 594.762 21.3931 596.282 22.2906 592.98C23.0534 590.172 27.0215 588.319 31.0408 589.594C31.7075 589.803 32.2908 590.286 32.9639 590.429C35.1883 590.9 38.0025 593.004 39.5474 591.108C41.323 588.927 40.5666 585.619 39.2461 583.139C38.2012 581.178 36.7909 578.549 33.2972 580.481C32.6113 580.862 30.8228 580.874 30.7203 580.624C27.3484 572.613 14.1494 574.89 12.1109 565.031C11.6365 562.736 7.73903 560.078 5.20052 558.945C0.1876 556.71 0.411978 553.432 0.0465857 549.384C-0.248292 546.136 0.841453 545.284 3.75177 545.54C7.30312 545.856 8.30955 544.509 7.79672 541.35C7.1044 537.118 11.1045 533.076 8.48905 528.618C8.16853 528.07 9.68137 525.888 9.80317 525.924C16.9828 528.231 22.3547 519.665 29.6177 523.075C31.4382 523.933 32.9318 525.03 35.3229 524.964C37.573 524.905 40.0473 528.076 42.1243 524.976C43.7718 522.514 44.8487 518.861 42.6371 516.929C38.5409 513.353 42.2397 511.803 43.6436 509.306C45.368 506.236 50.804 503.661 45.8744 499.328C44.8359 498.416 44.0602 496.127 42.0858 497.51C40.714 498.476 40.4961 500.305 42.0666 501.551C43.5667 502.743 44.4321 504.162 42.5538 505.229C40.7653 506.248 40.5153 504.037 39.6884 503.167C38.2973 501.706 36.746 499.298 34.6242 500.961C32.2715 502.815 26.4509 502.41 28.2202 507.285C29.6433 511.207 25.4317 509.002 24.6753 510.677C24.1817 511.78 22.3419 511.011 21.9636 509.884C21.4059 508.233 20.9188 505.998 22.7842 505.056C29.56 501.635 28.4253 496.3 26.3932 491.329C23.6368 484.593 21.1047 478.091 23.8098 470.789C24.2778 469.525 23.3803 467.821 23.0085 465.722C25.7714 466.593 30.7138 470.61 28.6689 463.332C28.3099 462.063 27.9958 460.298 29.7074 459.953C32.3164 459.428 31.3933 461.955 32.1946 463.046C33.5536 464.882 33.9703 466.575 32.2716 468.399C31.3613 469.376 30.0215 470.67 32.0088 471.528C33.6883 472.255 34.1434 470.431 34.9896 469.436C36.0729 468.166 35.1562 464.459 39.3038 466.491C40.432 467.046 41.682 464.173 40.9897 463.648C36.7845 460.424 38.246 455.572 38.4512 452.198C38.8935 444.95 37.1306 438.06 36.7652 431.002C36.7268 430.239 37.137 429.274 37.6883 428.69C42.1948 423.874 42.682 419.135 37.5088 414.921C33.4511 411.619 31.7908 407.297 28.7587 403.477C29.4831 403.328 29.9638 403.071 30.2651 403.19C32.8357 404.234 34.1178 408.621 37.8486 406.373C41.7846 404.001 40.1691 400.8 38.4383 397.665C37.4447 395.865 41.8166 386.137 43.3231 386.054C49.4386 385.726 53.8746 387.294 54.5925 393.898C55.3169 400.604 60.176 405.211 65.112 409.437C66.8235 410.903 70.2531 411.368 70.2018 406.82C71.6954 411.637 78.5417 412.09 79.2789 417.293C79.452 418.503 83.1893 418.873 80.2918 420.643C78.8238 421.537 77.1507 420.869 75.5609 420.291C74.1698 419.779 74.1057 416.024 71.6249 418.575C69.8428 420.41 72.1634 422.109 73.3493 422.991C77.2596 425.9 77.7725 430.335 79.452 434.442C89.5804 424.178 89.0611 418.414 79.3558 408.853C76.4776 406.016 72.5672 404.406 70.3108 401.23C67.7146 397.57 65.8556 393.546 66.3428 388.075C69.5864 392.605 77.5225 391.609 76.6314 398.923C80.4841 397.504 78.4199 394.715 79.4776 392.938C80.0289 392.009 80.1892 390.667 81.6764 390.727C83.0674 390.781 83.9906 392.092 83.8175 392.98C82.279 400.645 92.4907 401.742 93.542 408.179C93.8433 410.015 96.5998 410.45 97.7088 407.238C99.4268 402.249 103.042 397.743 101.619 391.663C98.6447 391.573 97.4331 393.725 95.8946 395.519C95.0741 396.479 94.51 398.035 92.683 397.605C91.0612 397.224 90.465 395.889 90.433 394.566C90.2471 387.777 86.638 384.188 79.6186 381.989C75.9968 380.856 71.7275 377.9 73.5352 372.363C74.5224 369.335 70.8813 367.344 70.1121 364.674C68.3684 358.635 70.3621 352.168 65.9838 346.154C63.7594 343.096 68.0736 341.94 72.7083 344.193C68.9838 336.826 66.8428 330.496 65.9517 323.838C67.1505 322.986 68.1761 323.802 69.2018 324.184C70.6313 324.714 72.0416 324.964 72.9583 323.558C73.9583 322.032 72.6249 320.858 71.5416 320.339C68.5223 318.897 67.721 317.275 70.7403 314.212C73.6121 323.534 85.4136 320.583 90.0419 327.629C91.9779 325.578 91.1253 324.625 89.4971 323.123C85.0098 318.974 81.6251 314.468 85.2726 308.049C86.9008 305.187 82.7726 302.112 85.1572 298.601C87.6701 294.9 88.8816 290.936 95.3241 293.439C101.44 295.812 102.677 289.815 105.344 286.805C111.491 289.571 105.305 296.741 111.094 299.382C113.666 296.012 116.929 296.41 120.882 300.574C122.966 298.488 121.504 295.442 123.485 292.933C127.434 297.51 131.998 301.45 135.235 306.785C138.094 305.092 134.883 302.374 136.799 300.818C139.492 300.759 138.812 303.393 140.107 304.442C140.485 304.276 141.146 304.156 141.178 303.954C141.896 298.786 143.479 297.004 148.447 301.444C153.447 305.915 153.716 304.788 156.415 299.03C159.422 292.617 157.011 287.83 154.639 282.448C153.793 280.529 152.614 278.413 154.178 275.695C158.55 278.729 161.159 283.521 167.043 285.75C165.377 281.649 161.422 278.967 161.736 274.717C162.011 270.902 160.306 266.128 168.422 269.323C171.576 270.563 176.948 271.94 181.416 269.061C183.89 267.469 190.858 273.543 190.711 276.446C190.57 279.229 188.896 283.449 195.057 282.567C198.583 282.061 196.191 285.238 197.929 286.585C206.352 293.117 210.173 301.021 203.467 310.951C201.461 313.926 204.32 315.845 207.031 315.541C210.685 315.124 212.044 317.645 212.628 319.344C214.141 323.737 218.987 325.209 221.102 329.036C222.327 325.614 223.346 322.89 219.032 320.19C213.66 316.834 213.641 311.231 215.288 305.938C217.096 300.121 219.474 294.458 221.48 288.689C223.198 283.759 221.641 277.632 227.872 274.324C228.718 273.871 229.711 272.005 228.737 270.747C226.384 267.702 229.282 267.374 231.077 266.998C236.346 265.902 237.494 263.184 236.385 258.445C235.077 252.878 238.603 248.878 244.333 248.455C245.84 248.342 247.942 249.57 248.577 247.37C249.173 245.296 247.66 242.602 246.359 242.226C241.609 240.849 241.526 238.108 242.75 234.662C243.507 232.546 243.782 230.419 241.006 229.87C237.564 229.191 240.449 233.226 237.84 233.846C236.647 230.156 237 226.222 235.269 222.58C234.667 221.311 233.449 214.915 240.353 217.371C243.263 218.408 244.391 216.006 245.853 213.407C239.321 213.938 238.423 211.333 240.391 206.32C242.237 201.629 242.987 196.819 241.487 191.55C239.846 185.774 242.769 183.873 249.007 185.697C251.391 186.394 252.59 185.613 252.795 183.295C253.039 180.553 254.25 177.727 252.911 175.081C249.872 169.085 250.814 162.79 251.064 156.574C251.141 154.648 249.616 151.209 254.609 152.055C257.795 152.598 256.821 150.118 256.872 148.461C257.013 143.717 256.186 139.234 264.475 138.912C269.09 138.734 272.462 133.494 271.943 128.285C271.353 122.378 269.244 116.251 278.725 114.653C281.7 114.152 279.943 110.063 284.43 108.633C289.783 106.928 295.251 107.232 300.405 105.528C305.681 103.775 309.13 107.661 311.322 110.713C314.348 114.939 316.828 119.755 316.245 125.466C315.668 131.128 317.566 132.082 323.213 129.882C331.226 126.753 340.021 128.487 346.329 134.311C347.477 135.366 348.977 136.093 350.336 136.945C355.586 140.224 359.111 144.009 357.938 150.69C357.374 153.909 356.925 158.642 363.906 157.581C368.342 156.907 369.06 161.968 368.727 163.541C367.586 168.942 372.112 172.81 372.048 177.823C372.022 179.849 372.964 181.596 370.419 182.776C368.33 183.742 368.067 185.601 368.778 187.3C369.656 189.404 371.503 188.099 373.041 187.92C379.054 187.211 382.817 189.488 383.003 195.305C383.381 207.304 393.567 216.072 395.061 227.665C408.33 237.5 400.17 252.759 405.708 264.698C407.42 268.387 403.734 273.144 403.958 277.984C404.439 288.462 406.523 299.024 404.132 309.551C403.907 310.534 404.042 312.126 404.715 312.662C412.427 318.831 410.324 327.456 411.394 335.252C411.689 337.386 412.125 338.656 414.734 339.508C424.087 342.566 426.376 346.995 425.997 356.46C425.702 363.851 427.504 372.553 432.068 377.238C445.69 391.234 440.53 406.57 439.042 421.847C438.305 429.369 433.696 434.847 427.01 438.775C435.735 442.81 442.472 439.353 444.062 430.108C445.036 424.446 443.273 418.438 446.863 413.085C448.748 410.266 450.216 409.175 453.299 411.941C455.825 414.206 457.863 419.749 462.383 416.268C466.735 412.918 468.312 407.846 462.953 403.286C462.575 402.964 462.71 402.118 462.396 400.359C466.21 403.822 471.825 401.694 474.242 406.66C474.133 402.964 470.607 399.853 473.985 396.163C475.383 394.631 473.011 393.463 471.428 392.348C465.793 388.385 465.537 384.486 470.96 380.493C476.171 376.654 478.062 370.294 483.857 366.909C486.601 365.305 484.249 362.009 484.729 358.85C488.402 364.161 489.159 374.997 486.422 379.885C485.588 381.375 486.184 382.329 486.742 383.509C487.941 386.03 488.781 388.301 485.351 390.244C483.441 391.323 484.652 393.534 485.056 395.168C485.864 398.398 486.979 401.498 483.755 404.299C482.748 405.169 482.357 407.017 483.454 407.971C489.338 413.091 486.428 419.814 487.781 426.097C484.915 424.684 486.466 421.114 483.197 420.136C482.582 426.222 484.768 432.367 486.447 437.535C489.178 445.945 484.697 452.86 484.729 460.501C484.749 466.14 484.665 471.302 488.466 476.004C489.717 477.554 490.704 479.39 491.338 481.238C491.999 483.163 492.011 485.327 489.422 486.245C487.069 487.079 486.768 484.993 486.018 483.771C484.64 481.524 483.152 479.688 479.543 481.148C483.89 486.87 484.069 493.969 487.729 500.335C489.152 495.954 492.781 492.825 492.883 488.104C492.922 486.31 494.146 484.301 496.749 483.944C498.454 483.705 499.159 483.026 498.383 481.267C494.736 472.935 494.774 472.917 499.774 465.627C502.896 468.81 501.025 472.935 502.48 476.213C503.204 477.84 503.826 479.503 504.595 481.113C505.396 482.805 506.601 484.486 508.832 483.699C510.999 482.936 509.852 480.922 509.473 479.652C508.858 477.578 507.755 475.599 506.666 473.68C504.781 470.36 503.781 466.307 505.858 463.553C509.281 459.005 508.602 454.427 509.275 449.563C509.768 446.011 515.57 442.84 519.961 442.005C525.531 440.95 526.98 438.262 526.66 433.84C526.48 431.324 527.929 429.351 528.48 427.265C529.192 424.547 528.448 420.512 525.628 418.336C524.179 417.216 524.397 420.136 523.159 420.798C521.147 418.664 523.16 415.565 520.339 412.751C515.865 419.993 517.89 428.594 513.993 435.669C509.839 430.955 507.896 425.501 505.089 419.713C503.819 421.984 502.954 423.844 501.781 425.525C500.794 426.943 499.165 427.414 497.409 426.794C495.755 426.21 495.563 424.666 495.806 423.456C496.909 418.074 493.422 413.246 494.191 407.577C494.653 404.144 492.3 400.419 495.422 396.771C496.8 395.162 493.755 393.904 493.46 392.187C493.268 391.049 490.736 389.505 494.46 389.297C497.787 389.106 496.172 386.99 494.903 386.543C490.479 384.999 491.652 381.739 491.646 378.788C491.627 372.303 491.646 365.812 491.646 359.13C497.473 360.328 494.294 366.515 499.21 367.862C499.21 363.875 497.736 359.345 499.531 356.835C502.896 352.121 499.839 348.002 500.076 343.657C503.223 342.357 502.217 346.941 505.198 346.178C504.71 343.454 507.319 340.301 502.236 338.239C499.582 337.166 502.223 334.817 503.723 333.804C508.717 330.436 507.569 324.953 504.903 322.777C498.73 317.74 494.672 310.361 486.486 307.548C484.832 306.982 484.466 306.046 484.095 304.711C483.473 302.463 482.87 301.182 479.313 302.028C474.883 303.077 468.075 295.21 467.723 289.207C467.562 286.489 467.825 283.962 464.581 282.549C463.851 282.233 462.863 280.964 463.056 280.505C465.485 274.574 460.197 270.289 459.556 265.127C459.331 263.309 457.171 260.531 460.742 258.731C464.62 256.776 463.921 261.789 466.569 261.634C467.851 259.679 468.447 257.497 467.242 255.506C466.062 253.563 466.075 252.478 468.338 251.453C469.389 250.976 470.216 248.95 469.376 248.831C463.287 247.942 464.498 243.389 463.722 239.812C463.389 238.286 459.318 238.686 461.312 236.087C462.549 234.478 464.338 235.789 465.902 235.992C468.992 236.391 471.415 234.627 473.639 233.196C475.857 231.772 475.62 228.72 473.806 227.516C472.332 226.538 469.639 223.558 467.415 226.741C465.479 229.513 462.96 229.93 461.222 227.671C459.62 225.585 459.402 222.843 463.966 222.133C466.331 221.77 465.389 219.058 464.466 217.675C460.395 211.583 463.274 205.164 463.197 198.899C463.178 197.284 464.857 196.986 466.126 196.426C469.184 195.079 469.421 192.861 467.915 190.417C463.216 182.788 467.556 175.409 468.69 167.982C468.889 166.677 470.735 165.157 470.075 163.786C467.126 157.67 471.325 151.34 468.434 144.927C471.229 145.815 471.793 149.993 474.53 147.949C476.793 146.256 474.8 143.776 473.274 142.185C468.492 137.208 470.344 134.627 476.53 132.94C478.633 132.368 481.364 131.408 477.505 128.702C475.78 127.492 474.107 123.457 474.947 122.324C479.075 116.745 474.511 115.237 471.075 112.233C464.12 106.159 466.171 96.9146 475.421 89.7023C481.043 85.3213 482.832 78.8303 480.351 72.2022C478.396 66.9748 476.409 61.7653 482.742 57.6048C485.095 56.061 483.659 53.4504 483.89 51.3761C484.479 45.9222 486.774 42.1134 493.114 41.428C497.627 40.9392 501.281 36.9814 506.448 38.7636C507.454 39.1093 510.159 38.0543 510.198 37.5357C510.653 30.6036 518.826 28.8512 521.063 23.2245L520.845 23.4868C521.704 22.6523 524.192 21.639 523.166 23.2901C519.929 28.4996 522.384 30.9315 527.961 33.2442C523.807 33.9415 521.704 35.7058 519.877 37.8755C523.717 41.1776 526.935 45.2725 530.91 37.5775C532.16 35.1575 536.871 34.025 538.685 30.8242C539.218 29.8824 540.359 29.1314 541.673 29.8109C543.275 30.6394 543.827 32.1355 543.923 33.7031C544.045 35.6522 543.051 35.5926 541.256 35.1575C539.416 34.7164 537.91 35.7357 538.371 37.7742C538.993 40.5279 541.211 43.5618 543.621 43.3711C551.936 42.7095 550.468 45.7493 548.442 50.9112C547.096 54.3385 544.673 57.3783 544.192 61.199C547.807 63.017 549.718 59.0413 552.852 58.642C553.417 61.3302 552.429 63.8157 550.872 65.4608C546.493 70.0743 548.968 72.9651 553.16 75.6176C555.865 77.3282 558.449 87.0678 556.673 89.4043C555.577 90.8467 554.205 91.3832 552.404 90.5189C550.384 89.5533 548.699 89.9348 547.59 91.7885C546.154 94.1966 548.147 96.4198 548.442 98.7027C548.66 100.354 551.775 99.6564 552.807 99.1974C557.917 96.9444 557.25 100.199 557.103 102.839C557 104.699 555.808 106.285 557.596 108.329C563.628 115.213 562.474 125.007 555.122 130.937C552.968 132.672 548.974 133.417 555.205 135.551C557.404 136.302 556.545 140.754 552.602 140.957C548.416 141.172 548.615 143.562 548.519 146.143C548.429 148.497 549.788 149.206 551.391 147.555C554.756 144.074 555.917 146.011 556.891 149.105C557.493 151.024 557.91 152.991 560.827 152.979C563.436 152.967 563.769 151.519 564.026 149.57C564.237 147.984 565.648 147.579 567.257 148.026C576.943 150.69 581.18 158.219 579.334 168.524C578.885 171.046 578.154 173.865 581.366 176.249C586.731 180.231 583.539 186.37 584.834 191.419C585.206 192.861 581.968 198.089 588.289 195.436C588.392 195.394 588.815 195.687 588.808 195.806C588.308 202.815 595.764 205.426 598.199 210.624C599.95 214.361 594.699 217.258 594.263 221.15C594.001 223.51 590.622 226.061 596.962 226.58C601.43 226.944 601.392 232.463 600.514 235.771C599.93 237.988 599.616 241.112 595.36 242.405C592.866 243.162 590.462 249.826 592.494 251.447C595.398 253.766 594.193 260.138 600.841 258.952C603.565 258.469 609.475 267.106 609.116 270.902C608.636 275.957 608.911 280.809 609.879 285.869C610.866 291.037 607.45 295.937 605.975 301.027C608.148 302.601 611.386 297.403 612.373 301.2C613.341 304.937 614.802 310.337 610.142 312.596C601.648 316.715 605.238 320.107 608.225 326.037C614.52 338.519 616.783 347.036 604.302 356.305C600.27 359.297 594.712 365.103 587.18 361.556C585.526 360.781 584.206 361.86 584.18 363.303C584.141 366.033 583.424 369.138 586.43 371.039C587.539 371.743 589.558 372.559 590.36 372.106C595.969 368.923 596.148 371.188 594.808 375.569C594.456 376.732 595.225 377.697 596.616 377.924C597.834 378.126 598.244 377.197 598.629 376.428C599.706 374.294 600.623 369.758 601.738 370.366C607.039 373.263 612.334 367.403 618.315 371.302C614.052 372.369 613.091 374.759 614.046 377.727C616.431 385.118 609.213 392.801 614.899 400.085C615.277 400.568 614.975 401.7 615.392 401.939C625.764 407.929 622.745 416.453 621.969 425.388C621.713 428.356 622.226 433.083 623.527 436.802C624.738 440.259 624.117 443.382 623.238 446.959C621.636 453.45 620.456 459.869 616.315 465.532C615.52 466.623 615.725 468.619 617.181 469.788C618.354 470.729 619.258 471.957 618.719 473.227C614.29 483.646 620.418 496.02 611.424 505.747C609.161 508.197 608.309 512.232 607.988 515.636C607.674 518.98 605.02 522.657 611.507 525.489C616.264 527.563 613.302 533.935 611.796 538.62C608.962 547.471 603.898 555.911 607.078 565.931C608.277 569.71 609.379 570.801 613.495 570.664C641.623 569.746 621.2 575.295 615.418 576.016C609.418 576.767 608.302 579.247 609.719 583.979C611.187 588.873 612.706 593.749 604.437 594.583C603.11 594.714 601.956 596.175 603.232 597.617C606.527 601.348 606.584 605.014 602.084 606.91C598.142 608.573 592.654 617.543 592.558 619.576C592.212 626.675 583.834 632.289 588.219 640.193C588.417 640.557 588.622 641.218 588.43 641.421C579.423 651.053 593.129 645.862 593.52 650.022C592.898 650.404 590.539 650.094 589.571 652.514C588.456 655.315 585.904 654.695 584.827 651.935C583.391 648.24 581.27 648.902 579.058 651.029C577.763 652.269 576.891 653.896 575.846 655.357C574.257 657.58 573.077 658.927 577.481 660.203C584.571 662.253 587.283 669.275 592.315 673.805C595.001 672.589 594.033 670.365 594.18 668.571C594.283 667.236 593.962 665.764 595.898 665.543C597.898 665.317 597.943 666.873 598.302 668.16C598.866 670.228 599.373 669.787 601.834 671.993C603.456 673.447 602.616 676.749 601.296 678.281C598.597 681.398 597.994 684.635 597.68 688.479C597.148 694.929 587.635 702.296 580.84 704.233C576.238 705.544 575.084 702.934 572.148 700.925C571.558 703.953 568.5 706.164 573.737 709.651C578.186 712.608 578.206 718.741 576.404 724.243C575.443 719.868 573.327 716.673 568.154 715.624C567.391 718.962 572.436 717.835 571.628 721.036C567.269 719.909 561.718 716.5 560.417 724.374C560.353 724.755 558.231 725.262 557.244 725.035C545.993 722.443 534.102 725.268 523.038 721.495C521.198 720.869 519.788 721.554 518.268 721.936C511.025 723.754 510.473 723.408 511.3 716.637C511.537 714.688 512.294 712.798 512.698 710.861C513.435 707.315 515.832 706.653 519.416 706.623C524.313 706.588 521.961 710.253 523.038 713.907C524.89 708.769 527.493 707.267 531.583 707.333C535.794 707.398 537.435 708.841 538.852 712.697C540.698 717.728 552.237 717.776 554.987 712.757C556.718 709.604 558.782 708.751 562.058 708.555C569.975 708.078 570.628 707.017 567.962 699.649C567.667 698.839 567.494 697.987 567.039 696.318C559.756 704.484 555.5 694.965 549.57 694.297C550.679 687.335 549.141 679.664 556.442 674.144C551.102 675.11 548.141 670.258 543.173 671.093C541.602 671.355 539.942 670.187 538.718 672.255C537.609 674.127 538.615 674.866 540.051 675.98C544.275 679.27 544.121 682.996 540.737 686.805C538.743 689.046 537.557 691.639 536.596 694.386C534.756 699.632 531.461 700.848 526.442 698.052C523.839 696.604 522.608 698.422 520.974 699.542C517.794 701.73 515.679 700.764 514.826 697.42C513.467 692.092 511.826 686.763 511.249 681.351C510.781 676.976 508.198 674.18 505.39 671.242C504.563 670.371 503.467 669.322 502.634 670.723C500.012 675.122 498.268 671.045 496.883 670.02C494.717 668.422 495.018 665.967 496.979 664.226C499.018 662.42 499.947 659.756 502.646 658.432C504.275 657.634 503.909 656.06 502.621 655.172C500.499 653.7 500.935 655.941 500.133 656.686C496.563 660.024 493.89 656.656 491.14 655.166C490.358 654.743 490.332 653.157 489.011 652.806C486.415 653.825 490.031 658.045 485.768 658.212C482.12 658.355 480.966 655.661 479.857 653.342C478.421 650.326 475.902 648.532 472.774 647.99C472.056 647.864 470.005 650.958 469.755 652.716C469.396 655.255 469.71 655.553 467.825 655.762C465.569 656.012 463.556 655.661 462.216 653.759C461.569 652.841 461.126 651.786 460.402 650.934C458.088 648.198 456.216 644.193 453.19 643.156C449.152 641.779 449.37 647.817 445.671 649.313C441.421 651.029 437.998 654.54 435.26 658.409C434.119 660.024 433.382 661.317 433.876 663.165C434.478 665.43 436.498 665.806 438.324 665.472C442.344 664.751 446.664 669.024 450.53 664.608C451.632 663.344 452.357 665.067 452.882 666.008C453.793 667.653 454.671 669.281 452.235 670.473C450.376 671.385 448.267 672.04 448.011 674.329C455.152 676.755 462.408 678.77 468.235 683.586C463.902 682.573 460.286 684.659 457.107 686.167C453.812 687.734 450.966 690.947 456.216 694.148C457.594 694.988 459.062 695.781 460.171 696.878C461.081 697.778 462.088 699.095 461.184 700.406C460.402 701.545 459.222 701.926 457.53 701.348C450.53 698.958 443.299 698.487 435.876 699.113C430.029 699.608 425.67 693.284 419.26 695.674C419.145 695.716 418.76 695.465 418.728 695.316C416.189 682.751 408.734 692.562 404.023 693.069C400.375 693.463 397.875 693.611 394.33 692.121C389.195 689.964 383.246 687.025 377.669 692.008C376.471 693.075 374.926 694.243 373.266 693.343C371.567 692.425 370.676 690.435 371.073 688.783C373.099 680.266 370.15 670.908 377.804 663.237C382.33 658.701 380.221 651.673 381.086 645.725C378.535 650.785 379.227 656.74 375.528 661.657C371.708 653.575 374.137 641.773 380.676 637.255C383.086 635.586 383.093 633.863 382.657 631.568C382.208 629.19 380.663 629.536 378.984 630.019C375.342 631.068 376.137 628.415 376.503 627.05C378.227 620.523 373.996 613.442 378.708 607.172C379.195 606.522 378.894 604.716 378.24 604.09C375.317 601.295 369.708 604.275 367.387 599.888C365.041 602.147 361.605 603.029 360.483 606.892C359.31 610.927 356.284 614.497 353.618 619.051C350.656 614.295 351.791 610.82 354.457 607.583C356.06 605.64 358.349 601.819 356.881 601.468C347.092 599.161 353.316 585.571 342.528 584.48C342.265 584.45 341.81 583.723 341.887 583.419C343.989 575.343 336.778 568.285 338.976 560.167C339.547 558.057 337.226 555.965 335.964 557.246C332.361 560.906 329.252 557.014 324.406 557.109C329.175 559.964 332.515 562.253 334.463 565.782C335.021 566.783 337.149 567.57 335.098 568.899C333.669 569.829 332.457 569.09 331.412 568.011C329.989 566.539 328.527 565.096 327.053 563.672C325.938 562.593 324.758 560.93 322.976 562.283C321.284 563.576 322.431 565.132 323.508 566.324C328.848 572.231 334.085 578.245 336.944 585.589C339.964 593.343 340.707 601.676 342.932 606.147C343.938 600.824 332.54 601.646 330.303 594.988C327.925 596.413 330.906 598.261 329.201 599.942C325.341 595.829 319.425 592.986 322.091 585.839C323.207 582.853 321.175 582.865 318.553 583.205C313.149 583.914 309.835 586.572 307.527 592.122C312.944 590.28 316.777 590.5 316.989 596.228C317.066 598.291 318.476 600.901 315.373 601.956C312.777 602.839 310.316 601.336 309.463 599.352C304.732 588.259 291.039 590.059 283.11 583.556C282.757 583.27 278.264 586.215 276.994 588.325C275.385 591.007 277.116 593.635 280.366 594.38C286.943 595.889 292.36 599.447 298.046 602.535C301.405 604.364 305.078 606.397 299.238 610.915C307.45 607.982 311.636 612.65 316.104 616.488C320.444 620.214 326.322 622.997 326.124 630.156C323.976 626.782 320.508 627.867 317.675 627.05C312.617 625.596 308.123 622.449 303.373 620.053C297.95 617.323 292.456 614.909 285.943 615.964C284.45 616.208 282.988 616.25 282.591 617.746C282.065 619.713 283.725 620.357 285.309 620.965C289.225 622.461 294.161 621.972 297.193 624.934C306.078 633.613 314.604 642.607 322.899 651.858C317.482 650.255 315.559 644.61 310.098 641.743C309.803 648.139 312.886 653.008 314.008 658.224C315.867 666.867 317.796 675.444 317.7 684.319C317.681 686.304 318.091 688.319 316.957 690.119C315.97 691.68 316.559 694.518 313.508 694.458C310.04 694.392 311.187 691.698 311.053 689.97C310.604 684.212 306.636 684.17 303.597 687.115C293.77 696.639 282.321 693.987 270.808 691.895C267.488 691.293 263.436 694.172 260.77 689.672C260.007 688.39 259.622 690.84 258.891 691.424C255.43 694.166 251.218 693.79 247.5 692.884C243.808 691.984 245.558 688.456 245.455 686.006C245.359 683.592 245.66 681.172 245.667 678.752C245.692 672.291 243.987 671.331 236.929 672.267C230.038 673.179 225.372 668.72 220.493 665.174C219.391 664.369 219.307 661.729 217.012 663.326C214.935 664.774 216.102 666.449 217.294 667.916C218.006 668.792 218.583 670.121 219.532 670.425C227.436 672.964 226.07 679.902 227.788 685.302C228.974 689.028 228.109 691.901 222.961 691.877C220.371 691.865 217.775 691.925 215.185 692.08C208.346 692.491 207.531 687.866 208.737 683.836C209.621 680.886 208.339 680.29 206.557 679.753C203.41 678.817 204.063 681.285 203.878 682.859C203.506 686.125 201.724 687.132 198.121 686.989C194.159 686.834 192.082 688.283 195.48 692.104C197.031 693.85 197.756 696.753 194.422 697.236C188.307 698.118 191.916 701.253 192.64 703.214C193.98 706.88 196.288 710.295 201.352 708.304C204.531 707.052 205.147 704.4 203.454 701.324C205.704 702.928 210.326 702.32 208.602 707.333C208.025 709.002 210.596 708.602 211.858 708.638C217.038 708.805 222.237 709.163 227.397 708.9C233.154 708.608 233.16 703.798 234.122 700.132C234.699 697.933 233.263 695.465 234.718 692.807C238.154 698.779 237.256 705.199 238.647 711.171C239.314 714.044 236.609 713.526 234.846 713.478C228.25 713.305 221.602 713.478 215.083 712.691C209.602 712.03 204.326 711.958 198.903 712.864C193.3 713.8 189.307 712.447 188.653 706.2C188.025 700.228 184.96 695.549 178.704 693.027C177.787 692.658 177.127 691.996 176.396 693.004C171.518 699.721 170.467 693.558 168.691 690.905C167.505 689.129 167.992 685.791 165.428 685.535C162.556 685.255 162.454 688.372 161.723 690.369C160.966 692.431 159.088 693.385 157.261 694.398L157.428 694.553C157.184 692.384 156.973 690.214 156.691 688.05C156.216 684.426 154.909 682.364 150.223 683.938C146.364 685.231 142.357 683.544 138.453 683.079C135.96 682.781 134.363 680.987 134.985 678.323C135.344 676.809 135.088 675.67 133.274 675.402C132.004 675.211 130.607 675.789 130.415 676.85C129.581 681.529 125.395 681.911 121.908 682.072C115.292 682.388 108.421 682.811 102.061 681.494C96.7536 680.391 93.0164 676.183 92.9779 670.359C99.3178 670.652 102.984 667.099 101.132 661.133C100.093 657.771 101.933 656.811 103.882 656.364C106.478 655.768 106.408 658.462 106.792 659.964C107.158 661.395 106.741 662.986 106.812 664.5C107.01 668.762 108.453 671.367 114.036 670.497C119.299 669.674 120.812 665.865 122.927 662.414C123.491 661.496 125.767 661.121 124.273 659.398C122.825 660.858 121.299 655.464 119.69 659.505C119.081 661.031 117.222 660.119 117.145 659.154C116.504 651.25 108.523 651.989 103.67 649.837C94.6574 645.844 95.2215 646.601 93.151 656.03C92.0292 661.139 97.1126 665.794 93.1189 670.508C92.1894 671.748 91.5291 673.34 90.2855 674.162C85.247 677.464 80.9584 675.378 79.6443 669.161C80.67 666.235 86.7149 666.849 85.7085 663.868C84.638 660.697 79.7212 661.454 76.4647 660.548C76.0224 660.423 75.5545 660.232 75.2275 659.94C74.3429 659.148 73.5929 658.164 74.7981 657.193C77.0866 655.345 79.2533 653.134 81.9328 652.031C83.6957 651.304 87.5996 653.056 86.7534 649.647C85.9906 646.577 85.388 642.566 81.0097 641.23C78.9456 640.599 77.1827 640.92 76.1891 642.756C74.9583 645.039 73.7724 647.388 72.9647 649.825C71.9775 652.776 71.7403 655.786 66.8363 655.297C64.5158 655.065 63.5286 657.902 65.253 659.046C70.1954 662.331 74.0032 667.051 79.8751 669.144L79.8943 669.167ZM343.303 449.987C345.271 451.328 342.925 454.529 346.092 454.213C348.361 453.986 349.4 454.672 349.489 456.424C349.586 458.248 348.47 460.429 346.534 460.185C343.547 459.816 342.784 461.24 343.707 462.909C344.592 464.518 347.214 466.128 348.925 463.839C351.63 460.209 360.727 458.612 353.957 451.477C353.252 450.732 353.246 448.538 353.913 447.692C358.631 441.702 355.188 439.955 349.105 439.979C349.348 437.845 353.566 438.739 351.682 436.647C348.848 433.506 347.829 427.056 346.092 426.741C337.976 425.262 345.579 420.75 343.528 418.533C343.374 418.366 343.278 418.116 343.085 418.032C336.079 414.903 338.669 408.793 340.278 405.044C342.438 400.02 338.553 399.561 336.38 398.821C332.303 397.433 331.931 400.562 331.835 403.417C331.777 405.044 332.393 407.029 329.22 407.881C330.034 402.201 328.361 397.266 324.938 392.646C324.867 396.312 322.7 400.288 321.463 402.344C317.123 409.538 318.271 417.013 317.014 424.303C316.687 426.198 315.393 427.355 313.88 427.229C311.751 427.056 311.585 424.821 312.175 423.552C316.04 415.302 311.501 407.595 310.681 399.662C310.501 397.915 310.431 395.251 308.309 395.591C306.065 395.948 302.815 395.793 301.585 398.273C300.617 400.21 302.546 401.73 304.014 402.565C306.521 403.995 308.001 405.444 307.021 408.352C305.405 413.145 305.546 417.746 308.918 422.008C310.623 424.166 309.373 425.435 307.194 426.675C304.488 428.213 304.219 426.383 303.187 424.893C301.591 422.58 301.373 419.946 300.476 417.478C299.399 414.527 300.45 410.856 295.867 407.148C299.085 426.973 304.315 444.497 311.059 461.735C314.739 460.525 312.463 456.287 316.655 456.084C318.758 461.616 320.322 467.32 320.829 473.894C329.726 466.551 334.079 456.376 343.31 449.981L343.303 449.987ZM319.995 277.34C317.944 281.53 320.694 284.415 320.841 287.479C320.906 288.856 322.713 290.244 320.925 291.645C315.457 295.937 317.828 299.364 322.188 302.762C326.354 306.01 322.425 314.015 329.117 315.034C334.31 315.827 334.137 320.166 333.258 320.905C328.483 324.911 336.572 333.232 327.406 335.342C327.354 335.354 327.643 336.397 327.668 336.957C328.021 343.394 332.713 350.327 325.2 355.912C324.816 356.198 324.752 357.563 324.835 357.586C329.412 358.981 326.213 362.152 327.508 364.912C324.143 363.171 322.264 358.308 319.803 360.31C317.277 362.361 314.604 366.009 314.848 369.961C314.95 371.624 315.784 374.115 317.861 373.889C320.97 373.555 325.149 377.22 327.258 371.618C328.476 368.381 336.194 368.78 333.572 362.802C334.451 362.724 335.361 362.474 336.213 362.593C342.156 363.428 341.406 360.227 340.797 356.561C340.04 352.001 336.226 348.521 336.034 343.776C335.983 342.56 335.681 341.535 337.149 341.278C337.944 341.141 339.201 341.404 339.682 341.934C341.508 343.937 341.81 348.807 345.361 347.346C349.553 345.624 343.143 344.294 343.65 341.267C344.656 335.24 348.989 328.493 342.265 322.759C341.835 322.396 342.169 321.019 342.457 320.208C345.143 312.686 340.733 303.691 348.002 297.099C348.368 296.771 348.412 295.657 348.098 295.233C342.938 288.182 345.464 281.751 349.13 274.914C351.496 270.509 349.002 266.152 344.496 264.125C339.464 261.86 338.425 266.521 336.649 269.406C336.31 269.961 336.29 270.861 335.816 271.141C329.918 274.544 330.034 274.521 330.149 280.112C330.201 282.442 331.906 285.136 328.995 287.58C325.995 284.171 323.252 281.053 319.982 277.34H319.995ZM200.589 390.948C201.948 385.947 198.134 381.017 198.531 377.119C199.384 368.786 193.005 364.668 189.755 358.868C188.095 355.894 183.839 356.621 180.653 357.765C177.621 358.856 177.762 361.199 178.23 363.833C179.441 370.67 185.563 377.036 180.691 384.516C180.531 384.767 180.851 385.649 181.05 385.678C187.005 386.656 188.762 394.208 195.313 393.809C198.429 393.618 199.076 394.715 198.852 396.962C198.352 402.022 201.871 407.589 196.595 412.072C193.127 415.016 195.07 417.657 198.249 418.372C202.64 419.361 200.198 421.704 200.044 423.403C199.839 425.644 198.903 426.472 195.768 425.757C190.262 424.505 184.467 424.148 178.768 423.862C172.21 423.534 177.146 429.029 174.909 430.99C177.153 431.581 177.358 435.318 181.255 433.774C186.236 431.807 187.416 434.74 186.634 438.763C186.102 441.511 183.601 444.449 186.71 446.899C189.249 448.896 189.32 451.393 189.666 453.986C189.98 456.305 189.211 458.939 192.326 461.014C192.691 456.585 198.929 456.746 199.659 451.673C195.884 453.569 194.679 452.359 193.32 449.051C189.871 440.629 196.781 435.598 199.115 429.089C199.852 429.661 200.147 430.138 200.006 430.448C198.627 433.571 198.268 436.45 201.993 438.459C203.243 439.133 205.769 439.675 205.801 439.013C205.974 435.89 209.974 433.887 208.051 430.013C206.275 426.437 206.153 422.449 206.307 418.211C206.679 407.727 202.595 397.254 206.615 386.459C203.57 387.353 204.615 391.156 200.576 390.936L200.589 390.948ZM174.941 463.642C172.781 467.57 177.935 466.569 176.73 469.466C173.229 477.852 177.512 486.161 177.608 494.542C177.633 496.801 185.98 499.137 187.134 497.498C187.954 496.336 186.185 493.344 189.57 494.065C192.255 494.637 191.185 497.373 191.89 499.101C192.384 500.305 192.262 501.778 192.929 502.857C193.672 504.067 194.147 506.022 196.313 505.682C197.897 505.432 198.506 504.061 198.73 502.743C199.525 498.04 204.07 493.862 199.589 488.337C198.121 486.525 196.845 483.187 196.204 480.439C192.813 465.931 191.826 465.013 176.576 464.572C175.71 464.548 174.755 463.946 174.935 463.642H174.941ZM89.3624 428.159C89.1958 433.428 79.0674 437.958 89.1894 444.431C84.8431 442.941 82.1508 443.204 80.4969 446.232C81.7085 448.801 84.029 445.761 85.5803 447.358C82.8495 451.155 82.0738 454.934 84.7662 459.351C87.0868 463.159 92.3945 464.262 93.8497 469.108C93.9459 464.96 100.1 464.572 99.2665 460.149C98.6255 456.758 98.9267 454.058 103.337 452.478C106.247 451.435 105.651 448.657 103.863 446.327C101.811 443.657 100.01 440.813 98.1383 438.03C97.5421 437.148 96.4331 435.568 97.6959 435.246C103.331 433.81 102.234 427.957 105.824 425.185C109.183 422.592 106.651 419.528 105.863 416.709C105.568 415.66 104.709 414.569 103.286 415.255C100.76 416.482 100.081 418.95 99.2601 421.221C98.9716 422.014 99.3114 422.991 99.087 423.814C97.4203 429.81 94.4395 431.122 89.3624 428.165V428.159ZM126.498 438.632C124.722 433.279 129.331 430.144 126.254 425.954C121.632 419.659 123.504 412.704 125.305 406.141C125.857 404.144 127.594 400.556 131.818 401.987C134.03 402.738 134.318 401.426 134.011 399.984C133.504 397.635 133.235 395.072 131.985 393.07C129.209 388.605 133.998 384.087 131.434 379.778C133.735 379.348 135.427 378.448 132.754 376.565C131.209 375.474 129.735 375.128 127.459 377.054C122.658 381.107 121.767 385.309 124.158 390.518C125.6 393.654 122.658 395.162 121.453 397.361C119.639 400.675 117.446 394.095 115.792 397.653C113.389 396.449 114.619 394.226 114.523 392.622C114.337 389.553 114.267 386.519 113.369 383.527C112.78 381.56 111.921 379.778 109.908 378.776C108.863 378.258 108.241 378.806 107.921 379.813C107.151 382.227 107.062 384.522 108.683 386.722C109.459 387.777 112.562 387.842 111.53 388.855C106.222 394.029 110.844 399.811 109.78 405.116C108.638 410.79 111.062 414.933 114.895 419.117C118.459 414.069 113.453 408.764 117.055 402.273C117.286 406.522 117.325 408.877 117.581 411.201C117.696 412.233 117.921 413.663 118.677 414.158C121.613 416.101 121.632 415.97 120.767 418.545C118.44 425.459 119.196 431.771 126.511 438.62L126.498 438.632ZM525.448 236.88C527.993 237.142 526.942 233.429 528.871 234.472C530.762 235.491 532.416 237.559 533.211 239.502C534.185 241.899 531.217 243.043 529.672 243.687C527.608 244.539 525.345 245.093 523.486 246.357C522.153 247.263 520.499 248.98 523.294 249.504C526.525 250.118 526.813 252.282 528.217 254.213C530.121 256.842 532.794 259.947 536.615 259.351C540.327 258.773 540.525 255.25 541.391 252.169C543.365 245.141 539.544 238.286 541.294 231.366C541.551 230.353 540.737 229.912 539.807 229.483C532.217 225.948 527.076 228.535 525.454 236.886L525.448 236.88ZM535.006 208.99C541.455 203.328 541.436 203.125 540.827 194.614C540.692 192.766 541.121 190.763 541.827 189.017C544.602 182.097 547.481 175.206 550.558 168.399C551.493 166.331 550.455 165.741 548.916 164.853C547.025 163.762 547.077 165.264 546.083 166.015C542.961 168.381 543.083 173.805 541.634 174.366C533.82 177.417 532.647 181.709 536.333 188.123C536.429 188.29 536.416 188.599 536.307 188.766C532.256 195.287 537.897 202.327 535 208.99H535.006ZM415.484 685.267C417.106 685.118 417.234 683.836 417.786 682.978C420.036 679.503 421.882 675.432 427.087 680.308C428.728 681.845 430.036 680.331 430.651 678.716C432.382 674.168 428.792 669.453 431.337 664.697C432.017 663.427 429.209 663.588 427.51 663.857C422.196 664.697 418.125 668.607 412.439 668.738C410.792 668.774 408.529 670.735 408.452 672.833C408.369 674.961 410.875 674.401 412.266 674.895C415.132 675.915 416.472 677.399 415.286 680.403C414.683 681.935 414.587 683.675 415.478 685.255L415.484 685.267ZM579.545 333.113C581 338.632 585.892 340.718 590.751 341.827C594.776 342.745 595.808 338.292 595.86 336.105C595.949 332.052 598.212 329.065 599.667 325.674C600.232 324.351 602.123 323.212 600.135 321.74C598.828 320.774 597.642 320.989 596.552 322.336C596.071 322.926 594.411 323.534 594.251 323.367C590.43 319.23 587.763 322.294 586.436 325.066C584.815 328.451 580.558 329.602 579.545 333.113ZM200.615 328.672C199.762 329.006 198.961 329.083 198.627 329.495C197.749 330.561 198.352 331.634 199.192 332.427C200.877 334.03 203.769 334.853 201.845 338.161C198.865 343.293 202.07 346.852 206.006 350.076C207.038 350.923 207.871 352.371 209.506 351.435C210.692 350.756 211.91 349.683 211.538 348.222C210.006 342.149 210.999 336.641 214.775 331.372C216.307 329.232 214.512 326.8 212.73 325.596C210.583 324.154 209.91 327.247 208.358 327.766C205.852 328.606 203.922 333.762 200.621 328.672H200.615ZM271.847 231.837C276.18 225.143 270.93 222.712 269.885 219.153C267.129 209.765 261.539 202.16 253.218 196.289C252.5 195.782 251.532 193.755 250.68 195.567C249.654 197.749 245.673 196.819 246.013 199.698C246.173 201.057 248.212 201.075 249.231 201.778C252.846 204.288 257.77 205.915 257.904 211.232C257.968 213.872 260.039 215.374 261.526 217.341C264.892 221.794 272.796 222.789 271.853 231.831L271.847 231.837ZM540.57 305.885C540.57 303.781 541.262 301.641 540.455 300.872C535.993 296.616 536.609 292.378 538.852 287.33C540.346 283.962 535.66 282.71 533.698 281.31C531.878 280.01 531.153 283.515 530.262 285.1C529.499 286.448 529.788 287.89 529.813 289.41C529.91 295.257 530.621 301.557 528.551 306.821C527.153 310.373 528.102 311.428 529.48 313.306C533.692 311.124 529.32 300.598 540.57 305.885ZM561.237 280.88C559.122 288.891 567.083 285.488 569.321 286.036C573.116 286.966 571.052 282.937 571.507 280.874C572.577 276.017 572.596 270.926 575.173 266.355C576.071 264.763 577.988 262.701 575.987 261.038C573.5 258.969 570.757 261.449 570.019 262.754C566.712 268.614 564.096 274.807 561.231 280.886L561.237 280.88ZM527.634 163.696C530.352 164.06 528.794 170.456 532.506 166.742C534.935 164.31 535.724 158.529 531.442 156.901C525.999 154.839 524.608 152.532 526.108 147.621C526.442 146.536 525.865 144.253 524.147 143.925C523.051 143.717 521.512 144.76 520.416 145.541C518.743 146.739 519.929 147.698 520.961 148.718C522.538 150.273 523.377 152.914 522.294 154.16C518.352 158.713 521.801 164.286 519.102 169.055C521.929 166.659 527.435 168.775 527.634 163.69V163.696ZM134.344 436.188C131.806 435.58 127.69 430.669 128.536 438.083C128.652 439.097 128.376 439.717 127.459 440.217C123.299 442.506 125.735 444.062 128.447 443.633C133.485 442.828 135.818 444.968 137.94 448.58C138.71 449.891 140.171 451.912 142.383 450.702C144.088 449.772 143.549 447.781 142.934 446.464C139.312 438.674 140.319 429.017 131.889 423.021C130.113 427.855 136.883 431.05 134.338 436.182L134.344 436.188ZM100.375 493.016C102.536 492.455 106.42 492.879 104.555 490.119C101.023 484.892 100.151 477.721 92.683 474.365C91.0227 479.789 96.1126 483.64 95.5805 487.818C94.3177 497.737 104.1 498.434 108.709 503.393C108.568 498.052 107.85 493.141 100.375 493.022V493.016ZM111.741 537.69C112.998 541.469 113.51 545.892 116.953 549.265C118.818 551.095 121.395 553.366 123.299 551.119C124.446 549.766 127.934 545.975 122.946 543.65C120.434 542.482 120.203 540.235 121.107 537.976C121.87 536.069 124.485 534.131 121.671 532.266C119.857 531.062 117.363 530.162 115.017 531.193C112.344 532.367 111.927 534.841 111.741 537.696V537.69ZM196.268 539.299C206.474 530.925 203.993 519.749 205.153 509.604C205.326 508.096 204.596 505.813 202.204 505.73C199.352 505.628 200.083 508.042 199.647 509.586C197.775 516.214 199.743 523.122 197.653 529.882C196.845 532.51 193.762 535.079 196.268 539.305V539.299ZM517.55 14.8917C514.788 6.49924 512.005 -0.790486 499.608 1.55796C497.332 1.98712 494.306 -0.814334 492.332 2.911C490.415 6.52308 491.922 9.30069 494.864 11.5419C496.383 12.6982 499.518 12.6147 498.858 15.3149C498.294 17.6216 495.621 18.3071 493.569 19.3323C491.011 20.6078 488.569 19.5468 486.024 19.1594C485.127 19.0223 483.575 17.7527 482.614 19.7376C479.293 26.5862 485.088 34.9012 493.37 34.317C491.8 32.5587 488.287 33.1249 488.255 29.7155C494.044 30.6156 500.037 30.1268 505.467 33.9833C504.3 31.8136 504.025 28.2373 505.704 28.6605C512.614 30.4129 514.73 21.8118 521.025 23.2304L520.807 23.4927C520.499 20.3515 518.486 17.7587 517.544 14.8917H517.55ZM360.118 688.324C360.951 684.623 361.361 680.987 361.567 677.274C361.65 675.742 361.881 674.132 359.977 673.274C354.977 671.021 353.72 669.221 360.637 668.303C361.24 668.226 361.919 667.767 362.317 667.302C364.419 664.816 364.182 645.605 362.528 642.667C359.964 638.113 354.06 633.398 362.541 628.666C368.977 625.071 367.163 619.182 367.522 613.055C363.663 616.166 362.079 619.617 360.182 622.83C356.009 629.881 351.182 636.545 355.233 645.605C356.201 647.763 356.708 652.74 354.797 655.494C351.111 660.817 352.547 666.366 352.034 671.939C351.316 679.67 351.528 687.603 348.996 695.477C358.509 697.075 358.169 697.009 360.118 688.319V688.324ZM455.107 706.838C453.338 706.337 450.203 703.053 449.094 707.625C448.363 710.641 448.543 713.472 453.152 713.526C454.927 713.544 457.992 713.526 457.338 715.487C455.857 719.903 459.927 719.48 461.575 719.677C465.453 720.13 469.466 719.647 473.421 719.474C475.594 719.379 477.133 718.413 476.825 716.202C476.505 713.895 474.312 714.521 472.876 714.634C466.767 715.129 464.216 712.405 464.511 704.257C460.998 710.42 458.197 707.714 455.107 706.838ZM471.017 684.498C471.139 688.897 462.665 687.466 464.601 691.46C465.549 693.409 471.344 693.284 472.774 697.086C473.005 697.7 473.184 698.714 473.601 698.821C475.678 699.352 479.402 700.418 479.704 699.894C481.774 696.27 482.595 692.217 482.364 688.021C482.14 683.812 479.248 686.25 477.332 686.131C475.633 686.024 474.633 684.993 474.979 683.496C475.562 680.999 473.601 680.6 471.005 679.354C471.005 681.53 470.973 683.014 471.005 684.498H471.017Z" fill="white"/>
</mask>
<g mask="url(#mask0_53_126897)">
<path d="M411.779 -258.702L-333 433.812L-329.496 437.07L415.283 -255.444L411.779 -258.702Z" fill="#5CF6CB"/>
<path d="M418.244 -252.692L-326.535 439.823L-323.031 443.081L421.748 -249.434L418.244 -252.692Z" fill="#5CF6CB"/>
<path d="M424.707 -246.678L-320.072 445.836L-316.568 449.094L428.211 -243.42L424.707 -246.678Z" fill="#5CF6CB"/>
<path d="M431.176 -240.676L-313.604 451.838L-310.1 455.096L434.68 -237.418L431.176 -240.676Z" fill="#5CF6CB"/>
<path d="M437.639 -234.662L-307.141 457.852L-303.637 461.11L441.143 -231.404L437.639 -234.662Z" fill="#5CF6CB"/>
<path d="M444.094 -228.652L-300.686 463.862L-297.182 467.12L447.598 -225.394L444.094 -228.652Z" fill="#5CF6CB"/>
<path d="M450.561 -222.645L-294.219 469.87L-290.715 473.128L454.065 -219.387L450.561 -222.645Z" fill="#5CF6CB"/>
<path d="M457.018 -216.635L-287.762 475.879L-284.258 479.137L460.522 -213.377L457.018 -216.635Z" fill="#5CF6CB"/>
<path d="M463.488 -210.623L-281.291 481.891L-277.787 485.149L466.992 -207.365L463.488 -210.623Z" fill="#5CF6CB"/>
<path d="M469.951 -204.62L-274.828 487.895L-271.324 491.153L473.455 -201.362L469.951 -204.62Z" fill="#5CF6CB"/>
<path d="M476.414 -198.606L-268.365 493.909L-264.861 497.167L479.918 -195.348L476.414 -198.606Z" fill="#5CF6CB"/>
<path d="M482.875 -192.598L-261.904 499.917L-258.4 503.174L486.379 -189.34L482.875 -192.598Z" fill="#5CF6CB"/>
<path d="M489.334 -186.588L-255.445 505.926L-251.941 509.184L492.838 -183.33L489.334 -186.588Z" fill="#5CF6CB"/>
<path d="M495.801 -180.583L-248.979 511.932L-245.475 515.19L499.305 -177.325L495.801 -180.583Z" fill="#5CF6CB"/>
<path d="M502.258 -174.569L-242.521 517.945L-239.018 521.203L505.762 -171.311L502.258 -174.569Z" fill="#5CF6CB"/>
<path d="M508.731 -168.565L-236.049 523.949L-232.545 527.207L512.235 -165.307L508.731 -168.565Z" fill="#5CF6CB"/>
<path d="M515.19 -162.549L-229.59 529.965L-226.086 533.223L518.693 -159.291L515.19 -162.549Z" fill="#5CF6CB"/>
<path d="M521.649 -156.544L-223.131 535.971L-219.627 539.229L525.152 -153.286L521.649 -156.544Z" fill="#5CF6CB"/>
<path d="M528.115 -150.534L-216.664 541.98L-213.16 545.238L531.619 -147.276L528.115 -150.534Z" fill="#5CF6CB"/>
<path d="M534.572 -144.525L-210.207 547.989L-206.703 551.247L538.076 -141.267L534.572 -144.525Z" fill="#5CF6CB"/>
<path d="M541.037 -138.518L-203.742 553.996L-200.238 557.254L544.541 -135.26L541.037 -138.518Z" fill="#5CF6CB"/>
<path d="M547.504 -132.508L-197.275 560.006L-193.772 563.264L551.008 -129.25L547.504 -132.508Z" fill="#5CF6CB"/>
<path d="M553.963 -126.499L-190.816 566.016L-187.313 569.274L557.467 -123.241L553.963 -126.499Z" fill="#5CF6CB"/>
<path d="M560.43 -120.486L-184.35 572.028L-180.846 575.286L563.934 -117.228L560.43 -120.486Z" fill="#5CF6CB"/>
<path d="M566.889 -114.477L-177.891 578.037L-174.387 581.295L570.393 -111.219L566.889 -114.477Z" fill="#5CF6CB"/>
<path d="M573.354 -108.469L-171.426 584.045L-167.922 587.303L576.858 -105.211L573.354 -108.469Z" fill="#5CF6CB"/>
<path d="M579.811 -102.462L-164.969 590.053L-161.465 593.311L583.315 -99.2036L579.811 -102.462Z" fill="#5CF6CB"/>
<path d="M586.277 -96.4517L-158.502 596.062L-154.998 599.32L589.781 -93.1938L586.277 -96.4517Z" fill="#5CF6CB"/>
<path d="M592.744 -90.4483L-152.035 602.066L-148.531 605.324L596.248 -87.1903L592.744 -90.4483Z" fill="#5CF6CB"/>
<path d="M599.203 -84.4303L-145.576 608.084L-142.072 611.342L602.707 -81.1723L599.203 -84.4303Z" fill="#5CF6CB"/>
<path d="M605.67 -78.422L-139.109 614.092L-135.605 617.35L609.174 -75.164L605.67 -78.422Z" fill="#5CF6CB"/>
<path d="M612.123 -72.4127L-132.656 620.102L-129.152 623.36L615.627 -69.1547L612.123 -72.4127Z" fill="#5CF6CB"/>
<path d="M618.584 -66.4069L-126.195 626.107L-122.691 629.365L622.088 -63.1489L618.584 -66.4069Z" fill="#5CF6CB"/>
<path d="M625.053 -60.3946L-119.727 632.12L-116.223 635.378L628.557 -57.1366L625.053 -60.3946Z" fill="#5CF6CB"/>
<path d="M631.518 -54.3897L-113.262 638.125L-109.758 641.382L635.022 -51.1318L631.518 -54.3897Z" fill="#5CF6CB"/>
<path d="M637.983 -48.3737L-106.797 644.141L-103.293 647.399L641.486 -45.1157L637.983 -48.3737Z" fill="#5CF6CB"/>
<path d="M644.44 -42.3678L-100.34 650.146L-96.836 653.404L647.943 -39.1098L644.44 -42.3678Z" fill="#5CF6CB"/>
<path d="M650.901 -36.358L-93.8789 656.156L-90.375 659.414L654.404 -33.1L650.901 -36.358Z" fill="#5CF6CB"/>
<path d="M657.365 -30.3502L-87.4141 662.164L-83.9102 665.422L660.869 -27.0922L657.365 -30.3502Z" fill="#5CF6CB"/>
<path d="M663.828 -24.3385L-80.9512 668.176L-77.4473 671.434L667.332 -21.0805L663.828 -24.3385Z" fill="#5CF6CB"/>
<path d="M670.295 -18.3331L-74.4844 674.181L-70.9805 677.439L673.799 -15.0751L670.295 -18.3331Z" fill="#5CF6CB"/>
<path d="M676.754 -12.3209L-68.0254 680.193L-64.5215 683.451L680.258 -9.06295L676.754 -12.3209Z" fill="#5CF6CB"/>
<path d="M683.223 -6.31307L-61.5566 686.201L-58.0528 689.459L686.727 -3.05509L683.223 -6.31307Z" fill="#5CF6CB"/>
<path d="M689.68 -0.305747L-55.0996 692.208L-51.5957 695.467L693.184 2.95226L689.68 -0.305747Z" fill="#5CF6CB"/>
<path d="M696.139 5.70398L-48.6406 698.218L-45.1368 701.476L699.643 8.96196L696.139 5.70398Z" fill="#5CF6CB"/>
<path d="M702.6 11.7118L-42.1797 704.226L-38.6758 707.484L706.104 14.9699L702.6 11.7118Z" fill="#5CF6CB"/>
<path d="M709.069 17.7216L-35.7109 710.236L-32.2071 713.494L712.572 20.9796L709.069 17.7216Z" fill="#5CF6CB"/>
<path d="M715.537 23.7333L-29.2422 716.248L-25.7383 719.506L719.041 26.9913L715.537 23.7333Z" fill="#5CF6CB"/>
<path d="M721.992 29.7431L-22.7871 722.257L-19.2832 725.515L725.496 33.0011L721.992 29.7431Z" fill="#5CF6CB"/>
<path d="M728.453 35.7494L-16.3262 728.264L-12.8223 731.522L731.957 39.0074L728.453 35.7494Z" fill="#5CF6CB"/>
<path d="M734.918 41.7587L-9.86133 734.273L-6.35746 737.531L738.422 45.0166L734.918 41.7587Z" fill="#5CF6CB"/>
<path d="M741.379 47.7641L-3.40039 740.278L0.103529 743.536L744.883 51.0221L741.379 47.7641Z" fill="#5CF6CB"/>
<path d="M747.854 53.7738L3.07422 746.288L6.57808 749.546L751.358 57.0318L747.854 53.7738Z" fill="#5CF6CB"/>
<path d="M754.309 59.7816L9.5293 752.296L13.0332 755.554L757.813 63.0396L754.309 59.7816Z" fill="#5CF6CB"/>
<path d="M760.766 65.7978L15.9863 758.312L19.4902 761.57L764.27 69.0558L760.766 65.7978Z" fill="#5CF6CB"/>
<path d="M767.231 71.8055L22.4512 764.32L25.955 767.578L770.735 75.0635L767.231 71.8055Z" fill="#5CF6CB"/>
<path d="M773.692 77.8109L28.9121 770.325L32.416 773.583L777.195 81.0689L773.692 77.8109Z" fill="#5CF6CB"/>
<path d="M780.156 83.8212L35.377 776.335L38.8808 779.593L783.66 87.0792L780.156 83.8212Z" fill="#5CF6CB"/>
<path d="M786.621 89.8348L41.8418 782.349L45.3457 785.607L790.125 93.0928L786.621 89.8348Z" fill="#5CF6CB"/>
<path d="M793.084 95.8383L48.3047 788.353L51.8086 791.611L796.588 99.0962L793.084 95.8383Z" fill="#5CF6CB"/>
<path d="M799.549 101.853L54.7695 794.367L58.2734 797.625L803.053 105.111L799.549 101.853Z" fill="#5CF6CB"/>
<path d="M806.006 107.86L61.2266 800.375L64.7304 803.632L809.51 111.118L806.006 107.86Z" fill="#5CF6CB"/>
<path d="M812.473 113.868L67.6934 806.382L71.1972 809.64L815.977 117.126L812.473 113.868Z" fill="#5CF6CB"/>
<path d="M818.93 119.877L74.1504 812.392L77.6543 815.65L822.434 123.135L818.93 119.877Z" fill="#5CF6CB"/>
<path d="M825.393 125.89L80.6133 818.404L84.1171 821.662L828.897 129.148L825.393 125.89Z" fill="#5CF6CB"/>
<path d="M831.863 131.895L87.084 824.409L90.5878 827.667L835.367 135.153L831.863 131.895Z" fill="#5CF6CB"/>
<path d="M838.322 137.907L93.543 830.421L97.0468 833.679L841.826 141.165L838.322 137.907Z" fill="#5CF6CB"/>
<path d="M844.787 143.916L100.008 836.431L103.512 839.689L848.291 147.174L844.787 143.916Z" fill="#5CF6CB"/>
<path d="M851.246 149.925L106.467 842.439L109.971 845.697L854.75 153.183L851.246 149.925Z" fill="#5CF6CB"/>
<path d="M857.703 155.934L112.924 848.449L116.428 851.707L861.207 159.192L857.703 155.934Z" fill="#5CF6CB"/>
<path d="M864.17 161.942L119.391 854.456L122.894 857.714L867.674 165.2L864.17 161.942Z" fill="#5CF6CB"/>
<path d="M870.639 167.948L125.859 860.462L129.363 863.72L874.143 171.206L870.639 167.948Z" fill="#5CF6CB"/>
<path d="M877.102 173.964L132.322 866.478L135.826 869.736L880.606 177.222L877.102 173.964Z" fill="#5CF6CB"/>
<path d="M883.561 179.971L138.781 872.485L142.285 875.743L887.065 183.229L883.561 179.971Z" fill="#5CF6CB"/>
<path d="M890.026 185.981L145.246 878.496L148.75 881.754L893.529 189.239L890.026 185.981Z" fill="#5CF6CB"/>
<path d="M896.485 191.989L151.705 884.503L155.209 887.761L899.988 195.247L896.485 191.989Z" fill="#5CF6CB"/>
<path d="M902.945 197.997L158.166 890.511L161.67 893.769L906.449 201.255L902.945 197.997Z" fill="#5CF6CB"/>
<path d="M909.418 204.004L164.639 896.519L168.143 899.777L912.922 207.262L909.418 204.004Z" fill="#5CF6CB"/>
<path d="M915.873 210.014L171.094 902.528L174.598 905.786L919.377 213.272L915.873 210.014Z" fill="#5CF6CB"/>
<path d="M922.34 216.028L177.561 908.542L181.064 911.8L925.844 219.286L922.34 216.028Z" fill="#5CF6CB"/>
<path d="M928.799 222.038L184.02 914.552L187.523 917.81L932.303 225.295L928.799 222.038Z" fill="#5CF6CB"/>
<path d="M935.26 228.043L190.48 920.558L193.984 923.816L938.764 231.301L935.26 228.043Z" fill="#5CF6CB"/>
<path d="M941.721 234.054L196.941 926.568L200.445 929.826L945.225 237.312L941.721 234.054Z" fill="#5CF6CB"/>
<path d="M948.188 240.063L203.408 932.577L206.912 935.835L951.692 243.321L948.188 240.063Z" fill="#5CF6CB"/>
<path d="M954.656 246.071L209.877 938.585L213.381 941.843L958.16 249.329L954.656 246.071Z" fill="#5CF6CB"/>
<path d="M961.117 252.082L216.338 944.597L219.842 947.855L964.621 255.34L961.117 252.082Z" fill="#5CF6CB"/>
<path d="M967.572 258.093L222.793 950.607L226.297 953.865L971.076 261.351L967.572 258.093Z" fill="#5CF6CB"/>
<path d="M974.037 264.1L229.258 956.614L232.762 959.872L977.541 267.358L974.037 264.1Z" fill="#5CF6CB"/>
<path d="M980.498 270.108L235.719 962.622L239.223 965.88L984.002 273.366L980.498 270.108Z" fill="#5CF6CB"/>
<path d="M986.967 276.121L242.188 968.636L245.691 971.894L990.471 279.379L986.967 276.121Z" fill="#5CF6CB"/>
<path d="M993.432 282.123L248.652 974.638L252.156 977.896L996.936 285.381L993.432 282.123Z" fill="#5CF6CB"/>
<path d="M999.889 288.137L255.109 980.651L258.613 983.909L1003.39 291.395L999.889 288.137Z" fill="#5CF6CB"/>
<path d="M1006.35 294.145L261.574 986.659L265.078 989.917L1009.86 297.403L1006.35 294.145Z" fill="#5CF6CB"/>
<path d="M1012.81 300.155L268.035 992.669L271.539 995.927L1016.32 303.413L1012.81 300.155Z" fill="#5CF6CB"/>
<path d="M1019.28 306.162L274.498 998.677L278.002 1001.93L1022.78 309.421L1019.28 306.162Z" fill="#5CF6CB"/>
<path d="M1025.74 312.17L280.957 1004.68L284.461 1007.94L1029.24 315.428L1025.74 312.17Z" fill="#5CF6CB"/>
<path d="M1032.21 318.178L287.426 1010.69L290.93 1013.95L1035.71 321.436L1032.21 318.178Z" fill="#5CF6CB"/>
<path d="M1038.67 324.194L293.889 1016.71L297.393 1019.97L1042.17 327.452L1038.67 324.194Z" fill="#5CF6CB"/>
<path d="M1045.13 330.202L300.35 1022.72L303.853 1025.97L1048.63 333.46L1045.13 330.202Z" fill="#5CF6CB"/>
<path d="M1051.59 336.209L306.814 1028.72L310.318 1031.98L1055.1 339.467L1051.59 336.209Z" fill="#5CF6CB"/>
<path d="M1058.05 342.215L313.273 1034.73L316.777 1037.99L1061.56 345.473L1058.05 342.215Z" fill="#5CF6CB"/>
<path d="M1064.51 348.225L319.73 1040.74L323.234 1044L1068.01 351.483L1064.51 348.225Z" fill="#5CF6CB"/>
</g>
</svg>
