<svg width="442" height="823" viewBox="0 0 442 823" fill="none" xmlns="http://www.w3.org/2000/svg">
<mask id="mask0_52_11925" style="mask-type:luminance" maskUnits="userSpaceOnUse" x="0" y="0" width="480" height="823">
<path d="M120.979 550.278C121.284 548.338 121.526 546.383 121.915 544.459C122.535 541.41 124.485 541.71 127.05 541.968C131.912 542.451 128.511 545.721 129.284 547.671C131.828 546.11 132.206 544.743 131.271 541.51C127.675 529.105 123.134 517.494 112.39 509.373C112.012 509.089 111.67 508.201 111.838 507.833C116.516 497.594 107.186 497.31 102.161 493.662C99.938 492.049 98.7764 488.963 96.7317 485.951C99.6699 487.134 101.583 489.063 104.264 488.569C109.704 487.565 113.809 488.821 115.139 494.903C115.476 496.443 116.248 497.557 118.072 496.669C119.271 496.085 119.791 494.771 119.244 493.815C116.611 489.215 115.118 485.005 118.44 479.717C119.46 478.093 113.573 477.11 114.577 472.132C116.311 463.549 113.315 454.913 111.98 445.725C109.494 447.275 109.137 448.59 108.732 450.66C108.143 453.693 107.596 457.814 102.766 457.762C97.6147 457.704 93.1416 458.24 93.662 465.341C93.8512 467.912 90.2822 469.01 89.5042 467.722C85.9773 461.893 80.558 465.657 76.1322 464.879C77.2255 460.222 89.6514 460.521 80.6684 452.763C84.5949 451.239 88.227 449.783 91.8906 448.416C98.7658 445.846 99.0129 444.942 94.0404 437.483C92.9471 440.316 95.6909 443.995 92.0588 445.341C89.0575 446.455 86.7342 445.105 84.3426 443.223C81.7197 441.162 66.9337 442.108 63.8745 444.032C61.772 445.357 59.6012 446.645 57.3094 447.57C56.5315 447.885 55.291 447.049 54.2608 446.739C56.1162 443.149 57.1202 437.593 59.9901 436.358C67.0704 433.304 74.9338 435.591 82.4661 436.463C82.4766 429.362 82.4871 429.457 75.3858 430.014C71.4015 430.324 67.412 428.001 66.4659 425.073C65.1413 420.989 70.0034 421.814 72.395 421.199C79.3281 419.407 83.6645 411.916 92.043 412.936C91.57 414.786 87.6172 417.619 91.4018 419.128C100.274 422.655 100.495 430.718 102.387 437.998C102.86 439.827 102.335 442.198 106.161 442.193C102.776 436.011 106.782 435.89 111.102 435.554C118.251 434.997 121.2 430.849 118.24 424.2C114.74 416.353 112.248 408.416 111.497 399.885C111.26 397.225 108.895 396.542 107.092 395.164C99.0181 389.009 97.9248 382.902 100.169 373.198C102.267 364.126 101.778 354.586 100.159 345.398C98.8762 338.081 97.2468 330.969 99.7225 323.647C101.126 319.49 99.1075 318.685 94.3768 320.204C103.055 309.786 107.444 298.07 107.144 286.464C106.745 270.974 107.617 254.963 100.91 239.904C99.7856 237.381 98.0668 231.962 102.33 226.679C109.278 218.075 109.284 206.621 106.487 195.698C106.351 195.157 106.314 194.253 106.004 194.137C99.9432 191.861 93.7251 189.969 87.7959 187.404C81.336 184.602 75.6907 183.262 70.0822 189.454C65.7142 194.274 60.4422 191.951 55.3593 189.238C62.4606 189.864 67.6959 187.041 71.8115 181.086C68.0638 178.799 63.8167 178.263 59.7483 178.689C52.5209 179.451 47.6536 175.872 42.2028 171.84C33.8033 165.622 25.7191 156.865 13.2669 162.205C10.2393 156.602 4.51516 163.42 0 158.941C6.77537 157.648 12.2945 154.878 18.5758 156.923C22.7177 158.274 24.9201 156.828 24.7256 151.351C26.7493 160.613 32.8781 163.809 40.4893 165.186C41.0464 165.286 42.0136 165.133 42.1292 165.391C49.7561 182.595 67.9639 171.798 79.5541 179.32C83.3491 181.785 88.6527 183.746 93.6988 184.655C95.3019 184.944 97.0996 186.132 98.5346 184.739C100.059 183.262 98.7869 181.417 98.2244 179.993C95.754 173.685 91.5332 168.807 85.4096 165.764C83.3807 164.755 81.173 163.866 78.855 164.833C69.9245 168.565 68.1637 167.451 66.4711 154.92C71.2859 164.776 76.4318 164.339 82.3399 158.479C84.8787 155.961 84.6211 161.264 86.7815 160.444C85.958 156.734 79.922 151.16 68.6735 143.724C72.0428 142.605 76.2636 146.405 78.1244 142.536C79.4805 139.714 77.2886 136.439 75.9588 133.721C71.4751 124.544 68.7471 114.825 66.3713 104.964L66.1715 105.222C70.0034 108.791 72.211 113.012 73.4673 118.263C76.6 131.367 79.4962 134.263 94.2559 142.137C95.7067 137.995 91.8748 135.272 90.6291 132.534C86.3978 123.225 92.8525 115.871 93.4465 107.603C93.7829 102.872 93.8459 98.8722 91.3334 94.6724C88.8892 90.604 91.1074 86.4936 92.5319 82.1887C93.4727 82.6723 94.1455 83.0875 94.8657 83.3766C98.298 84.738 92.3269 91.198 98.7869 90.7617C104.585 90.3675 109.93 87.9338 111.229 82.1151C112.69 75.5658 120.075 70.341 115.88 62.4881C115.712 62.1727 116.233 61.0584 116.38 61.0636C127.344 61.7364 122.95 53.8678 122.866 48.8953C122.787 44.2698 125.484 44.685 129.242 44.7166C126.293 50.6825 127.124 57.1214 124.527 63.0663C122.456 67.8127 123.276 68.291 130.104 68.8955C129.347 73.4685 125.825 76.8693 125.783 82.0993C125.752 85.9207 121.326 90.2834 115.413 90.2046C110.093 90.131 105.836 91.6343 108.721 98.7618C99.1916 95.1455 98.3085 95.6501 96.5161 105.138C96.3585 105.973 96.1587 106.825 95.817 107.592C89.7355 121.296 95.6856 133.185 101.383 145.149C102.361 147.199 103.885 148.292 106.004 148.318C108.527 148.35 109.231 146.137 109.82 144.318C112.895 134.825 116.017 125.359 109.147 115.981C106.377 112.202 105.462 107.808 107.344 103.219C108.101 103.219 108.79 103.014 109.137 103.272C109.615 103.624 124.227 115.02 124.785 115.477C128.448 118.52 135.518 118.32 133.715 126.625C133.158 129.196 139.444 126.783 141.889 129.811C143.176 131.403 144.659 128.88 145.458 127.466C147.686 123.524 149.741 119.477 152.054 115.582C153.211 113.637 155.513 113.038 157.211 114.126C159.203 115.398 157.342 117.091 156.643 118.52C155.287 121.311 152.165 124.229 157.752 126.173C159.939 126.936 160.538 129.448 159.713 131.204C158.809 133.127 156.307 131.603 155.329 131.141C150.903 129.07 149.016 131.587 147.634 134.878C146.109 138.499 144.979 142.289 143.712 145.916C145.783 147.509 147.35 146.494 148.695 145.601C150.672 144.287 152.249 139.33 154.582 145.585C154.84 146.273 161.915 145.674 162.046 144.97C163.996 134.52 167.881 144.549 170.588 144.003C175.082 143.099 178.898 143.398 180.317 148.854C180.433 149.296 182.551 149.748 183.282 149.354C184.081 148.923 184.995 146.846 184.764 146.62C178.493 140.534 189.989 136.786 186.73 131.204C193.647 128.633 188.023 122.01 191.24 117.464C194.94 112.234 197.858 112.071 202.814 114.079C205.132 115.02 207.918 117.017 210.373 114.121C210.189 112.123 209.001 111.634 207.429 111.561C206.042 111.493 204.233 111.619 203.86 110.01C203.424 108.118 204.98 106.762 206.494 106.084C211.508 103.839 213.542 98.5673 218.415 95.0456C213.647 95.2348 209.442 95.4661 211.608 89.0639C212.071 87.692 209.558 85.4108 208.391 87.65C205.894 92.4542 202.935 89.5107 200.664 88.3386C199.429 87.6973 198.252 83.9864 198.883 83.2662C200.88 80.9745 204.181 78.9456 207.061 80.0914C211.266 81.7577 213.069 80.5435 214.268 76.7379C215.088 74.1413 217.143 73.7155 219.613 73.5263C227.545 72.9218 232.97 66.2621 231.65 58.4618C231.225 55.9545 230.163 54.2778 232.696 51.8914C234.436 50.2514 235.146 46.0254 231.692 44.7639C229.259 43.8703 226.767 38.5614 223.498 43.5602C221.453 46.6877 220.234 43.4445 218.636 43.2027L218.82 43.3604C219.098 40.049 212.738 39.5181 215.582 34.8452C218.315 30.3511 222.499 32.3275 225.374 32.8794C230.462 33.857 232.223 31.5443 232.328 27.6809C232.402 24.9056 233.038 24.1014 235.55 24.1697C236.77 24.2012 238.221 23.5389 237.947 22.351C235.771 12.9738 244.964 11.3496 248.749 6.05122C250.326 3.83832 250.92 0.947356 253.396 5.38893C254.158 6.75557 255.44 5.7411 255.167 4.35344C254.867 2.83962 253.112 0.589927 256.681 2.11425C258.636 2.95001 261.396 2.72924 262.242 5.45726C262.799 7.25491 261.716 8.39027 260.25 8.49014C255.708 8.80027 255.004 14.0461 251.104 15.46C258.694 17.3996 264.77 13.0579 273.233 12.1853C273.517 12.4061 273.911 14.2721 272.166 16.3798C271.083 17.6834 269.648 18.8135 270.016 20.7583C271.645 29.3366 268.497 32.995 258.952 33.5679C257.248 33.6678 254.468 33.8202 254.631 35.3761C255.361 42.3828 249.438 40.2487 246.11 42.1147C249.795 42.9399 251.509 52.4959 257.248 43.7652C258.499 41.8676 264.344 42.141 263.099 47.7494C262.526 50.3303 261.433 52.6798 265.238 51.4446C271.32 49.4735 277.443 51.0399 283.53 50.5248C285.075 45.4735 278.999 46.0569 278.232 42.6035C281.128 38.2934 286.847 39.0608 290.658 36.1961C291.977 35.2027 294.064 35.2605 292.986 32.9267C292.24 31.3077 290.894 31.4391 289.438 32.2381C286.6 33.794 282.962 35.4497 281.706 31.2236C280.629 27.5915 284.565 26.3721 287.167 24.2853C291.661 20.6742 294.1 21.92 296.886 25.7623C300.287 30.4562 304.76 28.4273 309.118 27.5074C306.179 25.6782 305.727 19.1762 299.399 23.2656C298.421 23.8964 292.744 17.5257 289.475 14.1722C288.566 13.2418 289.722 11.5651 290.815 12.2852C295.209 15.1972 294.694 1.94605 300.03 9.56769C301.443 11.5861 302.884 13.7937 305.296 12.8213C310.416 10.7609 312.434 13.6045 314.616 17.3523C315.993 19.7229 318.632 20.6637 321.339 19.87C324.797 18.8608 322.201 15.9646 322.873 14.0828C323.783 11.5388 320.813 7.66491 325.502 6.40865C330.595 5.04201 330.858 9.26282 332.156 12.1801C333.118 14.3404 332.818 17.941 336.361 13.3943C337.764 11.5914 338.816 14.9028 339.468 16.7636C340.492 19.6808 348.908 21.3418 350.858 19.4863C352.592 17.8464 345.943 15.5651 351.326 14.7924C353.376 14.4981 355.2 14.1039 356.908 12.7057C357.544 9.50461 350.253 12.7372 353.144 8.99475C357.523 3.33372 362.38 -3.11576 371.484 1.67272C372.267 3.80678 370.343 4.19575 368.834 4.90009C365.954 6.2457 366.096 9.00526 367.62 10.5296C371.683 14.598 370.028 8.33771 370.974 8.34297C376.025 8.35874 379.773 6.33506 382.785 2.41912C383.589 1.37312 384.808 1.77259 385.655 2.71873C387.021 4.25357 386.99 6.06699 385.544 7.26543C382.448 9.8305 380.398 14.2405 374.548 12.9475C377.029 20.0645 381.197 23.3865 387.988 22.3195C390.406 21.941 392.036 21.8149 392.204 24.5586C392.346 26.8504 390.454 27.108 388.672 27.2394C387.552 27.3235 385.481 27.3813 385.455 27.6073C384.157 40.6902 378.238 28.7059 374.779 29.3787C373.933 42.6351 372.188 43.392 359.526 37.8991C357.328 36.9477 352.829 37.9149 351.336 39.66C349.833 41.4156 352.466 43.3867 355.2 43.5864C357.039 43.7231 358.595 45.0056 358.737 46.7875C358.958 49.6049 355.299 48.5063 355.289 48.7113C354.953 54.9453 342.711 51.7127 346.096 60.9322C350.832 59.1871 356.572 61.7364 360.377 55.0662C363.089 50.3145 379.605 54.8454 379.289 60.0702C378.79 68.27 386.532 61.1688 387.463 65.4369C391.92 64.3015 390.832 61.7627 389.008 59.1293C386.222 55.1135 397.833 58.3356 392.304 52.3855C391.042 51.0241 392.178 51.5129 399.6 51.9334C404.667 52.2225 406.627 54.1516 409.124 57.1424C412.64 61.3475 410.533 63.3133 406.201 63.8074C403.621 64.1018 400.693 62.9033 402.238 67.613C403.368 71.0611 404.604 72.4435 408.225 70.4409C410.159 69.3738 412.598 68.4435 414.696 68.6485C417.397 68.906 422.207 64.6327 422.501 70.5828C422.659 73.8154 424.404 79.2557 417.581 80.3805C413.282 81.0901 409.781 86.2255 404.099 81.1112C404.619 88.039 411.6 88.8169 412.136 93.9523C412.204 94.5936 413.576 94.3886 414.081 93.5686C417.376 88.2124 419.789 92.7749 422.023 94.5305C424.656 96.5962 422.591 101.085 421.918 101.385C418.659 102.83 415.374 105.248 411.258 103.587C409.287 102.793 409.056 97.5686 405.586 101.001C403.158 103.403 405.56 105.874 406.701 107.95C410.538 114.946 406.186 116.123 400.756 116.964C398.038 117.385 394.448 116.518 394.322 121.406C394.207 125.932 390.89 126.173 386.937 127.125C380.288 128.717 380.551 122.121 376.987 120.208C374.895 119.083 375.81 115.051 378.848 113.19C379.326 112.896 379.294 111.766 379.999 109.211C374.811 113.816 368.934 112.081 364.372 116.476C362.953 117.842 357.533 119.503 353.828 120.623C351.935 121.196 350.779 119.745 350.753 117.606C350.695 112.749 346.022 111.892 343.199 109.884C340.514 107.971 338.716 111.293 338.553 115.03C338.259 121.769 336.803 128.465 335.678 135.151C335.573 135.766 334.043 136.791 333.78 136.628C327.352 132.739 322.232 142.547 315.835 138.294C311.93 135.703 308.928 136.875 306.306 140.923C309.375 142.899 314.568 144.413 308.355 149.023C306.663 150.279 306.568 153.68 305.743 156.098C305.112 157.942 302.647 159.787 305.848 161.611C309.491 163.688 310.442 162.479 309.465 158.762C316.045 158.983 320.177 152.076 325.906 152.124C331.273 152.171 329.197 159.32 331.31 162.973C332.687 165.354 329.98 168.65 326.695 168.828C324.245 168.965 322.553 168.986 323.357 171.882C323.909 173.859 326.09 176.35 327.478 175.399C333.617 171.209 334.684 177.244 336.424 179.94C340.098 185.633 343.972 185.969 348.282 181.433C350.663 178.926 352.062 179.367 353.449 181.864C356.156 186.726 359.184 188.534 363.746 183.788C364.545 182.957 366.9 182.311 367.531 182.821C372.94 187.204 377.838 182.847 382.864 182.064C384.293 181.843 385.539 179.546 386.895 182.016C387.794 183.656 386.27 185.118 386.128 186.353C385.676 190.321 381.129 189.17 379.589 193.517C376.971 200.913 382.164 197.37 384.446 199.084C378.9 202.821 372.861 199.289 367.436 200.949C363.731 202.085 359.599 201.775 358.585 206.59C358.238 208.229 353.56 207.331 356.414 210.448C357.675 211.825 360.156 212.366 360.871 210.889C362.622 207.268 365.97 210.353 368.34 208.413C370.932 206.295 375.363 207.657 375.983 210.495C376.94 214.858 372.467 213.502 369.954 213.969C366.653 214.584 362.285 212.808 366.122 219.941C368.94 225.171 360.346 226.048 357.418 225.849C353.186 225.559 350.737 228.172 347.362 228.945C345.654 229.334 345.234 230.837 345.927 232.288C346.747 233.991 347.993 233.57 349.391 232.692C353.596 230.043 354.653 227.688 355.841 236.109C357.428 247.357 350.232 247.951 345.05 251.478C348.766 256.393 353.928 255.447 358.868 254.075C361.859 253.244 359.72 247.394 365.639 247.62C370.196 247.794 372.298 248.771 373.665 252.64C374.816 255.904 374.453 254.222 377.313 253.56C386.638 251.389 387.226 237.733 398.438 238.416C401.282 238.59 401.734 236.088 400.378 233.407C399.121 230.931 398.385 228.188 396.64 223.446C400.961 227.215 404.162 232.172 407.29 225.381C411.479 227.998 414.391 226.989 416.015 222.311C419.495 224.372 423.931 225.717 426.144 228.713C427.926 231.126 423.248 232.992 421.555 233.27C416.188 234.154 411.799 236.992 407 239.005C404.01 240.261 402.559 242.543 402.007 245.365C401.697 246.963 402.28 248.792 403.904 249.844C406.133 251.284 406.375 249.286 407.552 248.093C410.438 245.165 415.064 245.087 418.165 241.891C419.595 240.414 421.708 242.595 422.333 244.74C422.917 246.737 423.495 248.23 424.961 245.208C426.217 242.616 428.394 242.322 430.706 243.342C431.999 243.909 433.098 245.208 432.183 246.784C430.785 249.187 429.655 252.251 426.296 252.34C416.63 252.598 409.166 259.972 398.921 259.752C401.36 267.21 405.04 268.929 411.615 265.886C415.006 264.319 419.274 261.25 423.363 266.753C415.295 268.146 411.326 275.841 402.233 276.887C405.508 279.126 406.675 281.697 409.807 279.647C414.969 276.272 421.34 276.95 426.943 274.921C428.851 274.228 431.49 272.519 432.856 275.605C434.407 279.1 429.729 278.217 429.187 280.172C427.905 284.798 423.489 282.564 420.204 284.257C424.22 289.455 436.099 280.398 434.769 292.856C438.407 292.935 438.312 289.145 441.45 287.989C440.593 291.594 438.612 294.675 439.348 298.112L439.505 297.902C434.386 295.742 428.557 295.952 423.7 292.509C421.834 291.184 417.182 289.429 418.764 296.083C419.542 299.353 406.601 302.149 402.201 299.542C400.756 298.685 399.631 297.229 398.138 296.514C393.96 294.512 390.217 297.518 388.682 299.936C386.417 303.51 392.178 302.711 394.448 305.129C389.697 306.696 387.584 311.179 381.071 310.407C388.12 316.767 393.234 311.731 397.833 309.976C403.053 307.978 417.219 310.79 419.684 315.737C421.965 320.315 418.68 320.441 415.689 320.173C411.1 319.763 407.069 319.589 407.452 326.118C407.547 327.705 406.795 330.034 404.498 329.208C398.107 326.922 391.847 331.705 385.323 329.187C386.532 327.311 387.994 325.566 388.866 323.568C390.632 319.521 388.866 317.003 384.724 318.102C378.248 319.821 371.983 321.797 365.181 320.01C364.309 319.779 362.19 321.045 362.206 321.103C364.314 327.526 358.926 332.236 358.438 338.013C358.406 338.36 359.021 339.106 359.168 339.064C362.49 338.139 364.708 340.168 364.409 342.749C364.03 346.055 360.214 344.599 357.964 345.387C356.393 345.939 354.984 346.717 356.85 348.147C359.368 350.081 352.251 354.922 359.363 355.374C362.522 355.574 363.289 355.348 362.805 351.979C362.48 349.697 364.777 350.544 365.817 351.185C368.046 352.573 369.05 354.843 367.21 356.956C361.229 363.832 365.444 365.724 371.841 366.928C373.581 364.941 369.502 362.113 371.3 362.055C377.591 361.845 377.639 353.419 382.737 353.598C385.376 353.692 389.308 358.78 385.339 361.13C378.885 364.951 382.779 368.389 384.193 372.915C386.716 371.222 387.81 368.031 390.764 367.311C394.464 366.407 394.737 370.87 398.18 371.769C397.881 366.985 399.437 363.359 404.451 362.339C406.233 365.477 404.693 375.17 412.714 366.407C414.979 363.932 418.47 366.176 421.087 366.712C424.488 367.406 422.307 369.535 420.956 370.97C420.294 371.674 420.047 372.836 421.056 372.851C431.574 373.02 423.153 378.696 422.407 379.69C416.509 387.543 420.131 397.104 417.177 405.178C415.637 397.772 412.441 396.037 406.039 398.649C402.322 400.168 397.618 402.055 398.538 394.444C398.722 392.899 397.197 391.648 395.957 391.643C393.513 391.632 393.55 394.082 394.044 395.375C395.321 398.728 396.314 401.393 391.132 401.782C389.854 401.877 389.96 403.37 390.133 404.563C391.452 413.42 390.659 414.613 382.664 416.4C381.586 416.642 380.609 417.309 379.615 417.772C382.984 429.872 393.928 416.558 399.205 424.069C396.861 426.266 393.529 425.53 390.979 427.27C385.676 430.881 394.417 435.512 389.345 438.371C391.904 439.501 393.576 436.726 395.074 436.652C398.606 436.479 402.406 433.12 405.933 436.826C409.455 440.526 406.948 443.554 405.177 446.797C404.851 447.396 405.308 448.421 405.497 450.098C411.384 446.76 418.754 447.486 422.696 440.947C423.563 439.512 424.882 438.066 426.874 439.06C428.651 439.943 428.93 441.882 428.73 443.517C427.963 449.767 430.27 449.972 434.769 446.944C436.536 445.756 439.316 445.651 440.136 447.423C441.45 450.261 438.291 451.281 436.446 452.006C432.32 453.625 428.667 456.779 423.784 456.337C423.542 456.316 420.141 455.149 421.913 458.177C422.659 459.454 421.524 461.972 424.252 461.925C434.076 461.757 443.957 463.465 453.708 460.789C456.746 459.954 458.523 460.485 456.01 464.027C454.738 465.825 455.963 467.202 458.223 469.047C459.648 464.973 461.282 461.273 462.165 457.404C462.754 454.823 463.511 450.582 459.726 450.424C455.516 450.25 457.845 454.671 456.562 458.829C449.703 445.63 451.689 433.057 452.262 420.058C455.684 421.225 453.692 424.174 454.749 425.604C457.308 429.057 457.887 423.322 459.937 424.29C462.533 427.717 458.47 431.486 460.962 435.68C467.117 431.848 466.344 425.283 467.127 418.098C469.656 421.551 471.059 423.491 470.47 426.161C468.299 435.985 475.211 447.044 466.433 455.98C466.286 456.132 466.36 456.521 466.365 456.805C466.579 469.438 463.91 480.199 458.36 489.089C455.18 489.074 456.825 485.063 453.908 484.211C449.456 489.757 445.366 495.786 442.339 502.488C440.683 506.151 438.475 509.2 435.647 512.143C431.868 516.08 429.587 515.644 427.137 509.252C426.012 513.82 425.324 516.932 429.198 517.384C435.295 518.094 435.768 522.551 437.119 526.924C439.505 534.651 440.026 542.598 447.774 548.701C452.693 552.575 454.06 550.94 456.983 548.407C458.249 547.308 459.369 545.936 460.231 544.491C462.333 540.958 465.55 541.647 468.546 542.315C473.214 543.355 469.224 546.236 469.661 548.128C470.907 553.495 469.598 558.215 468.389 563.461C466.449 571.881 473.151 569.921 479.106 568.848C472.893 576.848 461.198 574.725 456.741 584.107C460.52 586.352 464.967 580.444 468.394 584.922C466.481 590.152 460.683 586.767 457.592 589.521C462.181 595.293 467.732 589.311 473.571 590.536C470.581 595.046 466.507 595.493 462.849 595.44C459.805 595.398 458.286 596.076 458.675 598.988C460.32 611.277 455.921 623.235 456.825 635.514C457.082 639.009 460.157 642.358 457.319 646.694C453.913 642.547 455.59 637.932 455.59 633.958C455.59 629.38 454.128 625.732 451.763 622.152C450.654 620.47 449.277 618.368 447.264 620.497C446.113 621.716 445.156 624.208 448.063 625.406C450.254 626.31 452.835 627.524 451.206 630.226C450.197 631.892 447.721 633.012 445.676 633.632C443.027 634.436 443.08 631.708 441.939 630.226C437.14 623.987 431.179 629.927 425.392 628.003C426.691 632.024 429.229 630.132 430.764 630.915C432.341 631.719 433.324 633.117 431.558 634.952C427.006 639.677 415.968 640.208 411.095 635.146C407.242 631.146 400.987 637.07 398.028 630.499C399.899 628.754 402.112 626.694 404.972 624.024C401.445 623.051 400.793 615.056 395.126 621.616C394.033 622.883 391.71 622.605 390.59 621.001C389.04 618.767 392.556 617.842 392.393 614.936C385.182 619.304 379.626 614.82 374.033 611.85C372.062 610.804 371.089 610.604 369.933 612.108C367.804 614.872 370.979 614.226 371.925 615.093C375.294 618.184 381.67 619.461 377.975 626.683C376.619 629.338 385.618 629.301 381.57 633.033C376.934 637.317 369.886 635.719 363.894 636.681C362.664 636.875 361.276 636.076 359.515 635.619C367.51 644.476 368.072 644.681 378.312 642.373C379.852 647.887 375.131 649.117 371.594 650.946C374.017 653.196 376.382 653.07 377.507 651.462C381.171 646.232 385.712 649.638 389.786 650.042C390.879 650.153 394.501 650.515 393.413 653.48C392.672 655.504 390.154 658.405 388.446 656.907C384.493 653.443 381.723 658.221 378.243 656.381C378.58 659.824 380.309 659.793 382.001 659.435C385.507 658.694 385.97 660.876 385.686 663.378C385.366 666.206 384.356 666.899 381.103 665.717C377.786 664.508 373.986 664.723 371.105 668.476C369.302 670.821 365.865 671.115 363.589 668.434C361.139 665.548 357.686 665.265 354.537 664.134C352.729 663.483 351.11 663.972 350.085 665.633C347.604 669.627 347.694 669.506 342.579 667.499C339.341 666.227 336.335 666.195 335.688 670.836C334.6 678.689 332.34 686.61 335.525 694.379C337.996 700.413 334.28 705.98 334.905 711.809C335.331 715.767 335.667 719.73 336.098 723.683C336.466 727.042 338.469 728.74 341.775 728.855C358.669 729.449 375.988 732.482 392.299 729.66C401.939 727.993 410.675 728.55 419.022 730.522C428.819 732.84 438.654 728.818 448.089 732.582C449.329 733.076 451.416 733.586 453.188 731.357C443.158 727.31 432.919 727.951 422.633 727.546C429.613 727.478 435.684 719.257 443.385 725.991C443.984 726.516 446.486 725.591 446.165 725.239C438.748 717.06 455.732 719.362 452.536 715.231C453.35 722.579 463.784 721.46 469.666 726.274C474.213 729.996 471.264 732.487 471.401 735.489C471.627 740.414 468.221 738.374 466.144 737.675C463.174 736.677 461.266 738.243 459.159 739.678C454.17 743.074 449.156 746.096 442.628 743.936C441.235 743.473 438.512 743.794 437.886 744.735C432.719 752.535 427.306 747.347 422.512 744.819C419.826 743.405 417.103 743.194 414.443 742.606C412.025 742.07 411.463 743.315 413.639 745.896C415.962 748.656 413.471 748.524 412.173 749.092C409.371 750.322 406.27 752.577 407.763 755.263C409.608 758.585 412.078 756.698 414.233 754.022C415.048 753.013 419.589 751.1 419.206 756.235C418.969 759.447 420.246 757.796 421.308 757.029C426.207 753.476 433.976 768.041 437.187 754.538C437.666 752.53 438.112 751.2 440.336 751.925C442.144 752.514 444.636 751.421 445.713 753.728C446.454 755.316 444.678 756.067 444.089 757.224C441.802 761.702 437.534 763.079 433.329 764.036C426.328 765.628 423.726 776.209 414.117 772.851C419.148 775.558 424.383 775.862 428.325 781.077C431.39 785.134 438.333 780.02 443.816 780.619C442.617 775.179 437.913 778.228 435.358 776.441C441.524 772.278 446.586 773.334 451.942 779.815C454.796 783.269 460.199 782.223 463.358 778.506C465.135 776.414 468.378 775.563 471.485 774.306C464.715 777.891 478.859 787.531 464.804 789.502C470.975 792.535 471.963 795.037 468.531 800.53C467.406 802.333 466.87 810.748 470.165 815.374C473.288 819.758 471.474 821.009 467.111 820.494C459.458 819.589 451.069 822.864 444.304 816.588C443.873 816.183 442.501 816.042 442.197 816.367C435.894 823.095 433.103 816.231 429.366 813.119C435.784 815.122 441.934 812.231 448.525 813.519C446.176 808.856 435.905 816.809 439.537 805.765C438.759 805.518 437.992 805.129 437.198 805.04C434.128 804.714 431.048 804.346 427.963 804.257C424.436 804.157 419.715 806.985 420.036 799.474C420.099 798.033 413.397 794.317 412.225 795.132C403.757 800.998 395.237 799.274 386.228 797.492C384.461 797.145 379.825 796.987 378.264 802.139C385.76 802.827 392.351 804.478 398.853 809.098C404.357 813.009 413.418 812.057 420.698 814.386C423.121 815.158 425.75 814.112 427.973 812.656C424.43 817.887 418.911 817.293 413.66 817.561C396.02 818.465 378.38 819.453 360.735 820.262C358.39 820.367 354.401 820.982 354.411 817.886C354.427 813.392 358.159 816.457 360.261 816.383C364.183 816.252 368.114 816.346 372.209 815.411C362.69 813.371 354.832 804.194 343.683 809.55L343.946 809.697C350.995 803.857 360.256 803.474 369.46 799.642C362.569 796.893 356.477 798.344 350.469 798.023C354.826 796.241 358.821 793.545 363.841 794.669C365.187 794.969 367.095 794.969 367.116 793.129C367.137 790.995 365.234 790.112 363.484 790.937C360.798 792.199 358.028 791.994 355.278 792.42C352.824 792.803 351.378 793.066 351.257 790.123C351.226 789.324 350.627 787.968 350.522 788.22C347.904 794.696 342.327 788.814 339.247 790.937C335.699 793.376 331.562 793.986 329.197 791.789C326.243 789.05 331.846 786.958 332.004 783.768C328.781 780.467 324.808 782.38 321.018 782.133C308.203 781.308 295.488 781.082 282.973 784.541C277.627 786.018 279.851 782.086 279.604 779.91C275.409 780.861 271.409 778.433 267.456 778.895C264.013 779.295 260.644 784.604 257.737 778.028C256.865 776.057 254.92 776.635 253.217 777.145C251.167 777.76 250.988 779.042 251.03 781.04C251.204 788.577 250.363 796.535 261.58 796.625C262.662 796.635 264.849 797.24 263.819 799.185C263.33 800.099 261.59 800.351 259.803 801.198C269.222 802.407 277.937 802.149 286.684 801.371C289.128 801.156 290.121 801.581 289.612 797.891C289.175 794.701 293.937 796.068 295.777 796.651C299.02 797.681 301.859 799.978 306.316 802.591C290.311 805.697 275.971 805.066 261.48 805.292C266.168 807.91 272.713 806.596 275.467 812.699C271.856 814.181 268.276 811.631 264.555 812.562C265.075 814.317 267.924 814.769 267.32 817.082C266.668 819.579 264.555 818.643 263.099 818.465C257.201 817.745 251.319 816.856 245.448 815.915C239.966 815.038 235.109 815.689 230.073 818.738C224.181 822.302 217.222 819.721 210.793 819.663C193.716 819.505 176.733 820.872 159.718 821.813C156.943 821.965 154.088 822.628 150.751 820.846C155.513 816.872 160.496 819.09 165.09 819.453C170.83 819.905 172.78 817.755 170.956 811.642C166.378 813.986 161.747 818.202 156.506 813.724C156.696 809.797 162.635 812.283 162.02 807.321C161.405 802.338 156.806 804.062 153.925 801.166C160.033 799.731 164.706 800.299 168.501 804.793C170.53 807.195 173.216 808.746 175.955 806.901C180.47 803.857 174.698 800.924 174.152 800.478C168.932 796.162 172.449 792.472 174.372 788.683C175.739 785.986 178.136 785.361 180.895 786.186C184.401 787.232 182.472 789.797 182.325 791.821C182.083 795.085 180.832 798.648 185.321 800.525C187.392 795.668 186.11 790.454 187.618 785.534C188.291 783.342 184.528 777.513 181.684 779.452C174.036 784.667 171.445 777.86 166.336 774.364C163.802 781.403 169.668 789.997 161.831 795.463C159.392 793.844 162.194 788.856 157.337 787.868C152.806 786.948 149.158 789.355 145.237 790.138C139.933 791.195 134.241 788.677 133.883 781.05C131.066 788.562 124.643 784.115 120.842 787.584C120.264 788.11 116.695 786.853 118.929 784.74C122.987 780.903 123.334 774.412 128.217 771.589C132.333 769.208 132.227 765.891 132.043 761.676C129.573 762.911 127.607 766.753 124.459 763.005C122.335 760.477 123.539 758.806 125.357 757.239C129.562 753.623 124.217 746.685 132.049 742.553C127.97 752.425 137.005 758.296 135.912 766.78C135.591 769.271 137.531 770.695 139.749 769.865C142.913 768.677 148.795 770.648 148.727 765.618C148.653 760.041 152.627 754.191 146.698 748.488C138.687 740.782 137.994 730.006 138.456 719.604C134.535 717.891 137.037 724.161 133.952 722.648C131.644 721.518 132.695 719.01 132.916 717.202C133.568 711.841 134.687 706.537 135.365 701.181C135.76 698.09 139.67 693.77 132.086 693.076C129.647 692.855 130.246 688.187 130.887 685.375C131.292 683.614 132.301 681.864 134.204 682.048C137.547 682.363 136.958 685.727 137.673 688.85C140.469 683.677 136.543 679.961 137.011 675.556C142.514 675.073 139.923 682.09 144.338 682.631C145.09 678.2 144.464 674.468 139.844 672.292C139.076 671.93 138.267 671.64 137.463 671.357C134.477 670.316 135.245 663.656 131.455 665.711C127.891 667.646 127.854 672.65 128.348 677.055C128.7 680.172 127.024 683.057 124.222 686.274C124.49 682.668 117.352 681.58 122.813 677.023C123.444 676.497 122.945 673.165 121.967 672.382C113.573 665.659 117.52 662.442 125.231 660.381C131.907 658.6 130.961 652.734 130.619 648.576C130.004 641.128 132.827 639.461 141.032 641.443C136.879 637.869 135.896 634.457 136.664 630.431C137.426 626.421 140.075 624.365 143.197 622.216C146.987 619.598 150.614 616.675 146.278 611.198C145.011 609.6 145.657 606.478 145.41 603.855C144.674 604.386 144.143 604.617 143.844 605.017C141.967 607.519 145.442 613.248 140.154 613.148C134.924 613.049 137.273 608.087 136.995 605.022C136.827 603.161 136.385 601.569 134.162 601.564C131.644 601.558 128.721 600.985 126.729 602.063C125.063 602.967 126.13 605.8 127.281 607.445C133.095 615.745 131.628 624.754 129.909 633.753C129.331 636.776 128.658 639.982 124.816 640.839C122.503 639.025 123.775 637.222 124.937 635.724C127.223 632.781 127.265 630.794 125.41 626.883C122.02 619.724 119.229 615.75 110.251 618.657C105.247 620.276 99.0286 620.933 92.4846 617.438C100.106 615.608 93.9774 610.284 95.8591 606.82C96.7317 607.03 97.5306 606.983 97.7461 607.314C104.921 618.331 104.663 617.832 117.331 611.593C121.883 609.353 126.009 609.148 122.319 602.899C121.857 602.115 122.766 600.092 123.581 599.072C125.394 596.786 134.75 597.401 126.356 591.303C126.151 591.156 126.85 587.435 129.247 589.4C131.339 591.114 133.079 592.092 134.866 589.474C136.501 587.077 133.41 586.163 133.011 584.496C131.528 578.357 125.92 578.809 121.589 577.106C123.434 573.879 125.158 570.788 126.95 567.744C129.999 562.557 133.279 557.505 123.949 555.024C122.582 554.662 121.867 551.86 120.848 550.188L121.047 550.367L120.979 550.278ZM232.938 218.9C234.709 215.483 236.192 212.356 229.937 212.592C225.132 212.771 222.136 211.667 226.92 206.668C228.097 205.433 227.261 203.972 226.436 202.805C223.976 199.315 224.071 196.629 228.486 194.836C231.409 193.654 230.857 191.21 229.842 189.102C228.691 186.71 226.914 187.583 224.833 188.24C219.03 190.069 218.83 196.424 214.962 199.751C208.854 205.007 217.274 209.838 215.109 214.264C221.958 213.433 226.888 219.268 233.164 218.689C228.05 220.261 232.728 225.086 230.226 227.531C230.878 227.872 232.081 228.545 232.102 228.514C235.377 223.01 244.26 228.366 246.746 220.829C247.335 219.047 250.557 220.324 252.124 220.965C255.072 222.164 252.612 223.152 251.651 224.377C250.452 225.891 251.566 225.985 252.928 225.912C260.944 225.502 268.67 224.13 275.677 219.956C274.116 219.005 272.702 219.241 271.398 218.963C266.011 217.796 257.99 219.751 259.934 209.544C260.281 207.714 258.615 207.278 257.243 206.91C254.72 206.237 253.08 208.024 252.765 209.801C252.003 214.08 249.375 214.847 245.716 216.392C241.395 218.216 237.233 218.364 232.938 218.9ZM267.877 341.261C265.454 334.885 274.242 340.935 273.333 336.241C272.597 331.973 268.076 332.073 264.455 329.865C271.178 327.821 274.699 334.523 280.245 333.529C279.556 331.185 278.489 329.608 276.86 328.315C271.141 323.763 256.676 322.717 250.457 326.633C247.167 328.704 243.808 328.583 240.949 326.496C238.441 324.667 236.239 323.731 233.169 324.651C229.138 325.855 225.952 324.031 223.487 320.998C221.821 318.948 220.349 316.93 217.206 318.06C217.884 323.19 224.475 322.538 225.637 326.018C227.876 332.735 227.303 332.888 233.427 330.47C234.662 329.981 237.106 330.89 236.844 331.064C232.57 333.818 242.126 340.389 233.532 342.118C230.089 342.812 229.49 345.361 234 347.117C238.515 348.878 239.614 351.238 233.59 352.92C232.25 353.293 231.267 354.959 229.769 356.352C233.763 358.365 236.197 358.686 239.135 355.08C241.527 352.147 245.038 346.885 246.878 347.017C255.193 347.611 252.549 339.9 255.635 336.814C256.202 336.247 253.827 332.741 256.959 332.389C259.745 332.073 260.886 335.09 260.896 337.056C260.928 343.232 263.588 343.574 268.124 341.03C269.827 345.435 270.862 348.499 264.602 351.348C257.317 354.665 256.16 363.458 257.517 369.897C258.126 372.788 253.637 376.752 251.461 380.231C247.924 375.622 244.675 380.421 241.148 380.268C243.608 385.319 247.593 388.647 252.444 392.111C245.375 393.856 242.258 382.35 235.966 387.879C235.014 394.928 250.51 393.567 242.531 403.601C247.593 407.391 251.682 403.07 255.015 401.335C259.141 399.191 261.937 395.942 266.394 400.342C267.53 401.462 269.427 400.389 269.921 399.107C270.878 396.631 266.168 398.024 267.12 394.649C272.15 398.071 278.368 388.268 283.614 396.847C281.99 397.483 280.571 397.719 279.561 398.492C274.705 402.208 276.776 407.669 277.417 411.964C278.127 416.731 282.484 413.404 285.349 413.761C289.88 414.329 291.893 408.51 296.292 410.597C297.633 411.233 297.107 415.774 300.024 412.805C302.574 410.213 299.404 409.167 297.859 407.653C296.729 406.544 296.124 404.899 295.262 403.459C297.927 401.067 302.111 405.167 303.635 400.826C302.863 398.896 301.217 399.743 299.94 399.49C294.684 398.471 296.282 393.803 295.399 390.576C294.894 388.731 295.178 385.582 297.407 385.64C308.15 385.913 302.863 379.001 302.358 374.67C301.974 371.353 300.03 368.242 299.478 364.925C298.027 356.252 298.127 356.331 291.478 352.941C289.065 351.711 287.12 352.92 284.954 353.272C281.475 353.834 278.1 353.871 279.809 348.73C281.28 344.294 279.362 343.222 275.351 343.022C272.854 342.896 270.4 341.86 267.898 341.261H267.877ZM153.957 283.368C149.242 289.434 144.895 291.142 137.121 286.359C124.411 278.538 117.478 282.028 115.696 296.367C115.244 300.004 114.871 303.936 113.231 307.085C105.878 321.203 107.717 336.12 108.469 351.043C108.684 355.285 110.004 357.613 114.172 359.238C118.162 360.788 122.919 362.444 124.911 366.386C125.999 368.541 126.041 370.481 128.958 370.46C131.923 370.434 133.174 368.836 134.514 366.234C139.471 356.62 128.764 351.627 128.874 343.153C130.377 341.724 132.48 345.498 135.008 343.343C127.639 338.475 135.665 336.473 137.037 333.282C138.619 329.613 141.825 329.277 145.184 331.873C143.555 334.028 136.932 334.307 141.268 337.965C145.2 341.277 145.668 345.761 147.691 349.508C151.045 348.515 151.986 342.307 155.497 345.613C159.723 349.592 164.585 348.199 169.058 348.904C176.517 350.076 179.445 346.544 178.073 339.138C177.253 334.717 177.185 329.492 174.714 326.165C168.107 317.282 177.39 315.637 180.874 313.44C189.731 307.852 190.252 307.989 183.949 299.3C183.744 299.815 183.229 300.488 183.392 300.777C187.187 307.458 181.3 309.744 177.526 311.132C170.32 313.771 175.019 306.633 173.121 304.53C169.868 300.924 172.096 296.052 171.366 290.59C166.814 295.778 168.454 300.882 168.617 306.685C160.533 300.856 157.857 303.91 158.588 313.014C155.897 309.723 149.531 310.238 151.581 306.27C154.036 301.513 149.211 292.588 159.245 291.784C160.727 291.663 160.265 289.329 159.176 288.267C157.374 286.512 156.054 284.13 153.358 283.452C157.726 283.542 161.179 282.091 163.571 278.264C160.943 276.309 159.918 281.518 158.104 278.68C156.753 276.561 156.296 274.017 158.583 271.668C161.274 268.903 164.869 266.27 163.198 261.57C160.07 252.756 151.171 249.586 143.413 255C140.68 256.908 139.171 255.715 138.992 254.038C138.514 249.586 134.361 247.767 131.455 242.017C137.557 246.264 141.815 244.903 145.957 243.21C145.857 240.177 141.768 242.027 142.193 239.184C148.454 236.041 154.398 238.932 160.738 239.751C158.567 237.118 156.212 234.995 153.489 233.586C146.624 230.033 146.256 227.199 152.454 222.322C153.6 221.423 156.186 222.148 155.671 219.415C152.222 217.523 152.144 217.475 154.33 214.043C155.487 212.23 154.372 211.362 153.132 210.742C151.008 209.68 149.331 208.282 148.249 205.927C150.519 204.345 158.335 205.948 152.864 199.72C150.703 197.26 148.212 195.404 151.218 193.217C154.115 191.11 154.95 195.115 156.585 196.855C161.41 201.985 163.655 211.299 174.052 207.452C173.526 212.166 170.399 214.958 167.87 216.981C164.091 219.998 165.521 223.573 164.806 226.926C164.349 229.071 166.199 229.071 167.418 229.297C167.954 229.397 168.953 228.708 169.258 228.125C171.955 223.005 171.923 222.989 176.559 227.268C185.973 211.888 178.951 203.494 168.722 194.773C164.412 191.099 163.86 197.79 160.727 196.035C156.254 193.528 154.472 182.579 157.61 178.442C162.304 172.255 166.914 175.793 172.086 178.384C173.248 173.58 175.098 168.413 171.702 165.233C168.002 161.769 164.075 165.727 160.937 168.623C159.297 165.738 163.928 164.886 162.399 162.652C155.25 161.312 155.182 170.752 148.107 170.968C137.095 171.304 125.021 183.346 122.619 194.148C119.991 205.969 119.365 218.243 113.652 229.376C111.801 232.976 111.439 237.486 112.285 241.859C114.219 251.836 115.917 261.859 117.715 271.857C118.051 273.718 117.289 276.193 119.738 276.987C121.373 277.518 123.292 277.129 124.054 275.226C124.827 273.292 127.371 271.904 125.699 269.118C124.879 267.757 122.682 267.3 123.092 264.824C128.79 262.743 131.618 266.038 132.969 270.769C134.057 274.569 138.109 277.124 137.279 281.613C142.919 281.429 148.196 284.698 153.957 283.368ZM159.271 651.377C159.713 650.342 159.944 649.133 160.627 648.292C166.919 640.602 168.359 640.644 175.056 647.367C176.075 648.387 179.518 652.187 180.238 646.542C180.895 641.391 184.806 638.946 188.764 636.297C175.082 631.976 174.252 629.496 183.376 620.665C182.162 618.71 176.638 622.268 178.246 616.98C178.798 615.156 177.121 611.272 180.78 611.819C190.047 613.211 183.897 606.347 183.697 605.127C183.072 601.232 180.102 601.243 176.995 603.524C175.345 604.733 173.531 606.741 170.972 604.523C171.471 601.374 176.927 601.784 176.002 597.627C173.353 598.268 170.141 600.365 168.569 596.623C166.393 591.44 172.386 594.52 173.857 592.113C175.192 589.937 180.265 589.669 178.062 585.511C176.191 581.979 173.379 583.009 170.173 584.896C165.29 587.771 161.789 586.914 163.303 580.071C163.928 577.248 162.514 576.244 160.259 576.318C158.162 576.386 157.526 577.884 158.083 579.95C158.835 582.757 158.167 585.511 157.889 588.349C156.985 597.611 152.89 606.389 153.726 615.855C153.899 617.821 152.186 623.293 157.694 618.92C158.041 618.646 159.366 619.114 159.86 619.614C160.953 620.728 159.991 621.296 159.119 622.189C153.505 627.957 153.528 633.049 159.187 637.464C151.991 639.115 150.956 642.069 155.676 647.782C156.748 649.08 158.178 650.09 159.445 651.23C159.65 662.311 166.767 671.867 166.535 683.068C166.52 683.719 167.513 684.413 168.075 685.055C170.677 688.024 171.934 691.346 170.672 695.273C169.069 700.266 172.475 699.105 175.434 700.145C179.319 701.512 182.031 696.65 186.509 700.182C194.888 706.8 185.773 713.128 188.538 719.278C181.984 715.01 190.998 705.901 181.836 702.159C179.529 709.071 179.813 716.298 174.924 722.301C173.489 724.062 171.566 731.489 173.1 733.418C177.363 738.779 172.023 739.736 170.362 742.18C169.463 743.499 166.283 742.895 166.956 745.933C167.602 748.85 169.957 748.477 172.123 749.197C182.593 752.666 197.158 748.966 200.691 765.013C200.791 765.476 201.442 766.133 201.868 766.159C209.222 766.59 208.933 773.008 210.583 777.618C212.102 781.865 212.512 786.501 213.931 790.795C215.598 795.821 218.846 798.133 223.966 794.675C225.763 793.46 228.087 792.141 228.749 794.922C230.794 803.5 236.717 800.425 242.026 800.646C241.506 797.066 240.838 794.296 240.744 791.5C240.286 777.471 241.359 763.394 239.34 749.402C239.141 748.03 239.624 746.39 238.215 745.639C236.654 744.808 235.55 745.718 235.051 747.331C233.69 751.731 230.962 750.743 228.638 748.561C226.373 746.443 224.097 746.028 221.08 746.075C206.83 746.296 206.835 746.17 210.693 731.468C211.098 729.922 211.308 728.33 211.687 726.348C214.294 731.604 208.722 737.781 215.093 742.033C213.495 734.748 215.308 727.673 215.393 720.54C215.408 719.383 214.788 717.197 212.959 719.147C208.391 724.009 208.733 718.747 208.475 716.766C208.181 714.511 207.845 712.498 206.893 710.337C202.925 701.333 197.742 692.508 202.562 681.99C204.134 678.563 203.371 674.673 201.395 671.367C200.549 669.948 198.609 670.006 197.563 670.836C194.441 673.317 195.629 677.039 195.356 680.319C195.282 681.223 195.098 681.417 194.625 680.886C194.451 678.905 194.304 676.923 194.099 674.947C193.532 669.443 192.775 665.364 186.867 672.051C184.47 674.763 180.049 674.279 176.47 674.537C174.64 674.668 172.054 674.127 171.545 671.945C170.888 669.16 173.868 668.618 175.445 668.492C181.106 668.029 185.794 665.706 190.052 662.195C194.304 658.689 199.692 660.739 205.884 659.782C201.18 656.176 197.663 658.431 194.294 658.71C183.503 659.598 171.818 664.912 163.839 652.292C162.777 650.61 160.974 650.684 159.271 651.367V651.377ZM317.202 614.951C318.942 614.562 321.675 616.034 322.059 613.075C322.374 610.652 320.024 610.941 318.416 610.657C316.613 610.336 314.148 610.815 314.495 607.503C316.85 605.669 320.95 609.401 322.731 604.67C316.203 600.786 309.034 608.423 302.295 603.519C305.591 600.812 310.674 600.623 314.027 594.541C307.593 596.586 302.831 597.768 298.342 599.619C293.901 601.448 292.208 599.734 292.844 595.687C293.28 592.906 291.446 588.097 297.937 588.728C300.177 588.943 302.71 585.453 302.668 582.452C302.579 575.713 306.242 577.458 309.88 578.925C312.156 579.845 314.363 580.927 316.823 582.036C317.139 571.093 316.13 570.189 307.656 572.454C306.132 572.864 304.308 572.197 302.631 572.002C298.332 571.497 293.759 574.346 293.643 577.043C293.249 586.189 285.654 582.115 281.769 584.491C280.208 585.448 277.548 585.138 276.234 583.456C273.885 580.444 279.835 581.101 278.747 578.425C277.117 575.703 272.04 580.186 271.419 574.126C275.656 576.039 278.473 573.837 281.301 571.387C278.947 568.601 273.554 567.14 277.738 561.894C279.173 560.091 277.044 559.597 275.819 559.245C271.908 558.12 268.839 556.275 266.184 552.838C264.313 550.414 259.977 551.019 257.453 552.433C255.724 553.4 253.916 558.126 254.52 558.709C257.942 562.01 257.927 568.086 259.383 569.674C266.268 577.185 256.754 578.099 255.824 582.005C258.373 584.097 260.208 581.831 262.452 581.4C265.023 580.906 269.748 579.466 270.988 583.971C271.977 587.555 269.895 590.142 265.979 590.152C258.231 590.178 261.664 597.332 260.502 600.433C258.678 605.332 258.126 607.209 252.265 604.512C253.096 602.594 257.096 605.327 256.518 602C256.029 599.188 253.958 601.19 252.544 601.553C249.837 602.247 248.439 600.207 246.689 598.83C245.732 598.073 243.992 595.892 243.451 597.737C241.138 605.606 235.939 601.059 231.766 600.907C230.147 600.849 228.355 599.85 227.125 601.753C226.1 603.345 225.847 605.579 227.214 606.478C233.38 610.541 238.436 614.594 231.23 621.995C230.699 622.541 230.709 623.057 231.529 623.13C239.456 623.834 235.272 628.907 234.131 632.744C239.356 631.698 241.343 625.606 246.121 626.584C251.629 627.714 254.594 624.039 258.121 621.574C260.486 619.924 261.706 620.812 263.204 622.216C265.149 624.039 265.8 625.953 263.288 627.892C259.577 630.752 262.258 631.871 264.476 633.932C269.801 638.873 273.659 630.273 279.414 633.07C274.337 637.122 269.086 640.171 263.335 639.84C256.618 639.456 258.237 643.966 259.819 645.832C261.68 648.024 262.81 652.508 268.119 651.02C270.342 650.4 275.945 651.656 274.147 656.571C273.364 658.705 270.836 659.667 271.293 663.251C271.667 666.206 261.143 669.538 258.589 667.872C256.019 666.19 253.658 660.855 250.605 664.219C248.181 666.889 252.965 670.158 254.652 673.102C255.193 674.053 256.024 674.92 256.907 675.577C258.436 676.718 261.306 677.417 260.66 679.535C259.582 683.057 256.67 679.577 255.02 680.219C248.723 682.673 246.846 679.352 244.865 674.221C244.102 672.25 244.192 668.34 240.323 667.998C238.052 671.015 241.443 673.165 241.769 675.672C242.31 679.846 240.744 681.906 238 683.015C235.193 684.156 233.369 681.964 232.681 679.068C232.181 676.97 230.862 675.225 228.644 675.241C222.41 675.288 224.896 671.246 225.027 668.161C225.09 666.663 228.68 664.981 222.641 662.789C219.813 690.978 226.783 717.665 227.167 746.154C235.545 741.555 230.935 732.992 236.849 729.539C237.79 732.104 235.561 734.816 238.331 737.202C240.907 733.759 242.058 729.928 240.812 726.127C238.893 720.293 241.827 717.46 245.853 714.038C250.562 710.038 256.665 710.364 261.511 707.331C263.472 710.69 259.241 713.99 261.727 718.332C263.072 714.353 264.86 711.42 264.902 708.466C264.996 701.438 270.731 703.893 273.538 703.714C277.385 703.473 281.054 706.879 281.711 710.669C283.204 719.289 274.431 727.941 265.175 728.046C261.27 728.093 257.338 728.43 253.474 729.013C246.473 730.075 242.583 736.403 243.908 744.151C244.959 750.269 250.836 754.522 257.243 753.16C259.687 752.64 261.695 753.402 263.903 753.56C279.251 754.637 294.432 761.087 310.038 754.848C311.704 754.18 313.911 754.779 315.861 754.916C323.651 755.452 332.356 760.041 337.665 749.781C338.069 748.997 339.499 748.356 340.466 748.33C343.751 748.235 347.935 747.888 347.079 743.951C346.232 740.046 341.328 738.827 337.796 739.909C332.519 741.528 327.94 739.967 323.057 739.058C323.893 736.282 327.909 738.143 328.109 734.664C327.31 731.951 321.528 734.664 322.264 729.47C323.914 717.854 317.738 705.607 325.144 694.321C325.99 693.034 325.728 689.617 324.676 688.729C319.809 684.618 321.932 679.33 321.649 674.495C321.459 671.299 322.758 667.935 320.371 664.161C317.685 670.778 319.693 677.049 318.59 683.483C314.726 681.412 314.737 678.064 314.043 675.22C313.239 671.919 313.412 668.24 312.009 665.27C310.737 662.584 307.141 657.969 304.813 661.985C303.157 664.834 303.21 664.66 301.123 663.42C298.037 661.58 294.768 661.675 291.252 661.837C287.499 662.006 283.362 661.575 281.364 656.576H293.754C289.343 652.066 284.55 650.973 279.456 650.631C277.228 650.484 275.309 649.706 275.893 647.057C276.418 644.676 278.831 645.038 280.061 645.769C288.077 650.542 296.213 647.63 304.371 646.747C303.961 642.61 299.562 642.31 297.701 639.651C300.991 636.712 303.12 639.083 305.317 640.797C307.273 642.316 308.182 646.973 311.72 643.772C313.932 641.774 317.223 640.05 316.172 635.514C315.11 630.925 317.806 626.615 319.12 622.231C315.735 621.879 311.84 626.41 308.308 620.865C312.403 619.834 317.007 620.024 317.417 614.72L317.218 614.936L317.202 614.951ZM405.907 568.628C405.986 567.303 400.83 567.413 402.99 563.461C408.535 567.518 411.463 564.149 414.17 559.56C416.677 555.319 420.851 551.203 422.107 551.697C427.847 553.931 429.813 549.71 431.863 546.02C434.17 541.873 430.785 524.243 427.253 523.928C417.192 523.034 415.926 516.348 414.696 508.038C419.595 509 423.91 509.82 426.896 505.52C433.056 496.653 439.342 487.886 444.147 478.146C446.102 474.182 443.684 470.345 441.198 472.753C436.278 477.51 431.242 471.649 427.111 474.85C426.422 475.381 425.844 476.027 426.817 477.473C427.437 477.604 428.467 477.93 429.518 478.035C431.889 478.267 435.216 477.189 434.533 481.562C433.923 485.452 431.49 484.39 428.804 483.759C422.207 482.204 415.573 481.641 409.366 486.635C407.689 478.876 411.211 476.642 417.319 476.348C411.905 474.761 408.057 472.69 403.952 479.638C397.618 490.34 392.64 489.405 387.768 477.678C384.598 481.499 381.171 482.887 376.856 479.475C375.263 478.219 371.189 479.381 372.225 481.363C374.185 485.121 371.074 485.541 370.064 487.507C367.799 491.922 365.922 496.622 370.043 501.915C373.775 497.252 377.171 494.282 383.883 495.455C385.991 495.823 390.364 496.842 393.56 495.555C394.543 499.313 390.464 500.306 389.161 502.813C392.425 505.873 396.667 502.414 400.12 505.4C395.426 511.634 388.025 509.021 382.317 511.239C380.95 511.77 377.686 509.41 378.212 513.084C378.648 516.164 380.808 514.745 382.795 514.314C384.94 513.852 388.698 514.377 388.719 516.065C388.751 519.055 385.707 521.452 382.732 519.833C380.178 518.446 376.156 522.624 374.895 517.379C374.485 515.67 372.719 516.611 372.845 517.72C373.502 523.297 368.172 518.898 366.995 521.531C368.057 522.956 369.124 524.511 370.311 525.973C373.423 529.799 378.001 533.431 370.038 537.19C364.756 539.686 371.231 542.057 370.58 544.89C369.954 547.602 371.662 548.664 374.816 547.939C379.904 546.777 384.666 545.736 388.446 541.463C390.853 538.74 395.247 537.836 397.676 541.163C400.761 545.395 397.15 546.083 393.67 546.462C391.752 546.672 392.235 548.617 392.225 549.91C392.183 554.719 389.076 557.821 383.589 562.593C391.337 560.06 392.567 561.878 392.603 567.208C392.63 570.73 392.335 576.743 399.295 577.548C393.334 567.781 403.347 572.932 405.891 568.617L405.907 568.628ZM244.633 252.256C243.093 254.884 242.221 257.034 240.786 258.7C237.159 262.921 241.264 266.716 241.769 270.448C242.258 274.08 246.568 270.044 249.122 270.843C251.335 271.536 254.331 266.774 255.924 271.889C257.091 275.631 255.666 277.728 252.218 279.247C250.205 280.13 247.971 281.849 248.16 284.199C248.586 289.471 258.011 294.48 262.983 291.894C267.104 289.749 270.631 292.052 274.421 292.199C276.776 292.288 282.61 301.05 280.376 289.55C279.935 287.268 283.435 291.242 285.123 289.728C284.786 286.706 280.297 287.615 280.203 284.304C282.878 282.228 286.91 287.61 288.371 283.71C289.864 279.726 285.054 279.442 282.663 277.844C282.011 277.408 281.133 276.036 281.265 275.889C286.463 269.975 280.413 267.273 276.891 262.774C287.036 270.674 284.492 258.17 289.044 256.551C293.207 255.068 291.146 245.696 297.365 245.554C300.697 245.476 302.495 244.172 304.587 242.742C310.847 238.458 317.207 234.464 324.666 232.556C323.162 227.552 320.976 224.987 316.156 230.022C314.847 231.389 313.039 232.214 311.646 233.744C309.717 235.862 294.085 234.316 294.437 232.603C295.467 227.657 297.28 222.753 302.731 220.839C307.141 219.289 311.509 214.595 316.292 220.739C317.065 221.733 320.329 222.385 322.174 220.661C319.546 215.872 310.505 215.357 314.132 206.416C307.126 209.407 302.694 206.216 299.005 200.992C297.68 199.115 293.885 196.634 293.711 198.221C292.702 207.409 284.755 204.797 279.278 207.683C283.136 210.285 284.04 212.35 282.631 217.817C280.865 224.676 275.898 226.884 272.418 231.178C271.393 232.44 269.706 233.56 270.368 235.525C271.341 238.422 272.865 236.303 274.326 235.93C276.308 235.426 277.606 236.656 278.116 238.443C278.726 240.571 276.828 241.176 275.64 242.343C274.999 242.974 270.011 240.498 273.711 244.593C274.762 245.759 275.409 247.052 274.342 248.346C273.002 249.97 271.435 249.081 269.743 248.535C263.551 246.548 263.556 246.648 263.477 252.545C263.467 253.202 262.883 253.97 262.368 254.485C257.963 258.905 247.94 257.791 244.628 252.256H244.633ZM301.47 506.141C304.692 506.382 296.939 496.522 305.754 502.682C307.257 503.733 307.078 501.605 306.768 500.616C305.896 497.809 307.499 496.327 309.706 497.221C315.446 499.539 314.374 495.707 314.295 492.653C314.232 490.388 313.843 488.117 313.927 485.857C314.011 483.554 314.779 480.816 311.215 481.026C309.254 481.142 305.648 477.362 305.228 483.218C305.128 484.637 302.253 486.629 299.562 485.158C297.365 483.959 298.605 481.615 298.043 480.453C296.434 477.115 299.867 476.033 299.998 473.699C300.177 470.608 299.567 468.033 296.355 466.797C292.686 465.383 293.207 467.633 292.855 470.146C292.576 472.148 289.953 471.78 288.597 470.939C282.757 467.318 277.617 464.122 277.317 475.365C277.238 478.282 272.965 479.15 270.515 480.443C268.518 481.494 267.461 478.75 266.563 476.942C264.733 473.268 269.101 474.419 269.921 472.579C266.316 471.717 262.862 471.086 259.22 472.122C260.113 474.471 264.04 475.255 262 478.613C259.151 483.302 260.371 485.242 265.958 485.089C269.322 484.995 270.095 486.046 269.233 490.356C268.087 496.064 264.965 498.461 260.628 500.648C255.545 503.213 258.62 507.67 258.352 511.26C258.231 512.842 260.071 515.071 261.58 514.425C263.572 513.568 266.468 511.26 266.384 509.715C265.832 499.239 274.4 505.315 276.056 505.736C281.47 507.124 281.433 507.938 282.71 503.497C283.551 500.569 292.686 497.226 293.191 499.371C294.442 504.669 300.256 502.703 301.464 506.141H301.47ZM273.438 442.939C273.89 444.973 277.007 444.957 276.602 447.591C275.766 453 275.824 452.8 281.696 452.342C284.403 452.132 287.183 452.931 290.116 453.299C288.965 450.634 287.682 447.607 290.442 445.656C293.249 443.675 294.915 446.271 296.592 448.306C298.884 451.081 302.332 450.245 305.044 449.793C308.476 449.215 306.999 446.702 305.98 444.553C305.086 442.671 306.836 442.114 308.124 441.683C316.082 439.023 322.569 432.348 331.636 432.863C333.665 432.978 334.227 432.09 334.442 430.644C334.663 429.188 333.533 428.868 332.303 428.747C323.919 427.89 323.005 425.351 330.301 420.51C331.825 419.496 332.587 417.336 333.801 415.559C330.216 415.044 328.261 417.456 325.822 418.318C319.746 420.468 314.127 430.345 306.463 419.99C304.949 417.945 297.296 418.818 297.407 419.233C299.725 427.869 291.851 422.439 290.421 424.594C288.587 427.359 280.003 426.061 284.56 432.132C289.633 438.886 285.364 439.522 280.529 440.794C278.148 441.42 275.819 442.219 273.433 442.944L273.438 442.939ZM311.388 55.2186C309.349 55.2186 307.514 54.8034 305.99 55.3027C302.789 56.3593 298.747 57.5261 298.158 61.0794C297.428 65.4894 296.629 73.0953 298.658 74.2096C307.735 79.1873 313.848 87.7656 322.942 92.5436C331.783 97.1902 344.882 95.5923 352.724 89.2164C355.946 86.5935 355.315 83.9443 354.038 81.9364C352.324 79.2452 350.259 80.4278 348.03 82.7406C345.581 85.2794 342.038 86.7669 338.963 88.7065C334.153 91.7394 329.512 88.7433 325.191 87.6027C321.659 86.6723 327.32 83.0034 324.797 80.2386C323.131 78.4147 329.181 78.5145 326.852 76.2438C324.902 74.341 322.831 76.1545 321.113 77.9311C319.751 79.3345 317.901 80.5855 315.777 79.7708C314.332 79.2136 313.475 77.826 315.105 76.575C316.865 75.2241 313.391 71.7339 318.137 71.2503C326.816 70.362 325.465 67.0138 319.194 63.4605C317.559 62.5354 317.065 60.9427 317.102 59.103C317.202 54.4617 314.773 53.8257 311.383 55.2186H311.388ZM132.532 427.365C129.857 429.257 130.372 432.411 131.497 434.708C133.095 437.972 137.221 436.437 138.992 435.691C142.115 434.382 145.647 433.961 146.178 436.631C147.534 443.454 150.425 438.135 151.623 437.399C153.678 436.137 155.066 433.798 156.48 432.2C153.084 428.395 147.192 435.391 146.299 429.493C145.894 426.828 146.688 422.87 146.025 418.928C150.046 420.158 154.393 421.93 152.916 424.805C150.914 428.71 152.611 429.173 154.924 428.274C159.818 426.376 161.41 428.968 162.136 433.504C165.521 427.843 164.123 423.969 160.039 420.799C157.395 418.744 155.907 415.869 155.45 412.831C154.283 405.088 147.581 400.983 144.753 393.934C140.264 398.56 146.435 401.935 145.268 404.195C142.136 410.261 137.394 408.494 132.312 404.805C134.803 403.243 136.669 402.071 138.672 400.815C136.396 398.029 134.262 394.933 130.398 397.346C127.06 399.433 127.16 402.324 128.443 406.203C130.393 412.095 132.706 417.525 136.701 422.319C138.961 425.031 135.071 428.752 137.689 431.648C136.879 431.895 136.075 432.342 135.26 432.363C130.645 432.484 137.295 427.354 132.532 427.359V427.365ZM427.689 618.862C430.365 620.434 431.915 620.859 432.677 621.879C436.215 626.61 439.952 624.786 442.16 621.338C444.751 617.275 441.603 614.909 437.907 613.049C436.147 612.16 432.751 612.307 433.114 608.16C435.695 609.495 437.823 610.862 440.141 611.724C442.717 612.681 443.942 611.766 443.127 608.817C441.319 602.247 445.661 596.334 453.787 593.973C447.973 593.916 444.047 590.504 439.653 587.692C438.139 586.725 433.676 583.803 432.062 586.488C426.896 595.109 419.169 591.293 412.025 591.414C415.6 595.067 421.213 595.797 423.274 601.006C423.652 601.958 426.764 601.816 425.455 604.25C424.667 605.711 423.39 607.598 421.618 607.083C416.393 605.574 411.805 609.443 405.429 607.23C412.152 613.758 417.865 617.443 425.166 611.656C426.859 610.31 428.683 610.447 429.44 612.202C430.88 615.551 434.354 615.53 437.497 617.611C434.333 618.016 431.894 618.326 427.694 618.862H427.689ZM135.791 151.44C133.52 145.821 128.748 144.318 124.159 142.1C120.001 140.092 118.94 140.739 116.432 144.812C109.126 156.697 116.611 166.568 119.497 177.054C120.406 180.366 122.582 178.884 124.774 177.569C135.034 171.42 129.163 158.925 135.796 151.435L135.791 151.44ZM131.702 482.088C132.07 484.301 132.322 486.54 132.842 488.716C133.321 490.724 132.601 494.125 135.812 493.841C139.15 493.547 143.492 494.887 145.626 491.134C148.475 486.135 152.101 484.769 157.3 487.06C158.509 487.591 160.249 488.574 160.937 486.734C161.742 484.585 159.996 483.949 158.183 483.544C155.218 482.882 151.387 482.645 155.539 478.167C156.028 477.636 154.935 474.55 153.81 473.788C147.734 469.683 142.115 470.655 135.418 473.92C130.509 476.306 133.258 479.512 131.702 482.093V482.088ZM349.118 448.921C355.825 451.197 361.838 444.689 361.428 442.613C360.13 436.037 356.146 443.848 353.139 442.655C352.624 442.45 351.941 442.356 351.636 441.972C347.951 437.294 344.046 441.446 341.391 442.729C337.828 444.448 336.088 446.876 332.887 442.03C331.772 440.348 327.546 436.626 323.583 441.756C321.933 443.896 317.77 444.274 316.203 447.885C315.625 449.215 310.742 448.348 313.197 451.927C315.152 454.781 317.06 454.608 318.279 450.666C318.879 448.721 321.475 448.71 323.473 449.709C325.407 450.676 326.779 451.869 325.696 454.371C325.218 455.481 322.08 456.979 325.575 457.83C327.12 458.209 330.858 458.014 330.232 455.801C328.839 450.881 332.482 450.844 334.663 451.028C339.793 451.454 344.524 450.224 349.113 448.926L349.118 448.921ZM251.572 129.464C251.572 127.188 251.53 124.912 251.582 122.641C251.635 120.376 251.735 118.105 251.892 115.84C252.118 112.528 251.819 108.738 248.208 108.186C243.976 107.54 244.938 111.561 244.633 114.226C244.286 117.274 242.168 119.372 239.403 118.215C233.874 115.892 239.761 116.013 240.313 114.888C240.938 113.627 239.966 112.696 239.109 112.018C237.753 110.946 235.267 109.732 234.568 110.914C232.922 113.7 228.586 115.54 229.795 119.288C231.282 123.903 231.041 126.93 225.931 128.518C224.318 129.017 223.719 131.162 225.106 131.787C228.864 133.48 233.669 127.535 237.138 133.217C238.005 131.824 238.752 130.336 239.771 129.07C241.658 126.725 243.078 123.324 246.704 123.64C249.753 123.903 250.605 126.557 251.572 129.464ZM210.667 149.895C210.178 154.279 200.659 156.723 207.724 162.705C208.018 162.957 207.708 164.702 207.345 164.833C198.835 167.929 201.39 171.519 206.488 175.824C208.044 177.138 205.448 178.679 204.864 180.098C203.413 183.63 206.525 185.102 207.592 187.446C208.339 189.091 210.142 189.175 211.135 188.093C212.796 186.29 214.609 184.392 214.163 181.449C213.553 177.433 212.969 173.964 217.069 170.421C219.125 168.644 218.662 160.607 215.356 160.119C207.251 158.915 209.085 155.157 210.667 149.89V149.895ZM168.543 530.525C164.89 534.956 162.293 539.003 158.798 542.004C156.69 543.813 153.889 544.79 153.09 547.792C152.496 550.015 151.96 552.47 155.066 553.332C157.605 554.031 159.329 552.202 159.082 550.246C158.561 546.173 159.996 546.803 162.498 548.149C165.463 549.742 169.379 550.441 171.371 552.801C176.375 558.73 179.019 555.203 183.413 550.378C176.049 551.192 175.213 548.496 176.685 543.145C178.199 537.636 177.048 536.06 173.931 537.284C166.204 540.322 169.863 534.194 168.548 530.535L168.543 530.525ZM285.701 54.8297C272.912 52.4959 272.87 52.6063 266.552 61.1477C265.496 62.5775 262.479 63.0663 264.139 65.5C265.743 67.8443 267.651 64.9112 269.249 65.0479C273.196 65.3843 280.439 61.5945 278.105 71.4658C277.711 73.1321 280.061 77.7682 283.435 76.2596C288.555 73.9731 292.566 68.454 291.714 63.6392C290.637 57.5577 285.732 62.8771 282.468 63.1609C281.832 63.2135 281.149 62.6721 280.565 62.4408C280.897 58.7772 285.144 58.0886 285.701 54.8297ZM205.432 491.775C208.407 486.409 205.117 483.807 204.354 480.732C202.762 474.298 199.045 472.432 194.546 477.893C188.89 484.758 186.851 474.177 182.509 475.98C181.153 471.344 185.789 471.549 187.697 469.541C188.307 468.895 188.67 468.18 187.613 467.197C185.416 468.705 182.972 470.046 180.938 471.854C177.332 475.06 177.374 484.805 180.091 484.18C185.169 483.018 187.445 485.399 190.415 488.254C191.282 489.089 194.588 489.063 195.166 488.264C200.323 481.179 202.788 485.978 205.427 491.78L205.432 491.775ZM231.104 107.335C231.603 106.22 230.709 105.558 230.01 105.616C225.7 105.963 221.669 105.958 217.521 103.829C215.671 102.877 214.431 105.784 214.72 107.924C215.408 112.959 214.599 117.243 210.289 120.654C208.402 122.142 209.942 126.326 210.168 126.079C213.968 121.905 217.984 134.415 220.002 126.468C221.721 119.703 223.813 114.157 229.769 110.331C230.536 109.837 230.673 108.36 231.104 107.335ZM187.208 243.478C188.596 247.158 187.65 252.093 192.118 253.565C195.813 254.779 206.336 244.267 205.742 240.083C205.053 235.205 200.233 232.361 196.775 232.556C191.156 232.871 188.349 237.964 187.203 243.483L187.208 243.478ZM314.563 511.255C307.961 514.693 302.074 518.519 294.926 515.86C293.711 515.408 291.788 515.802 291.977 517.768C292.14 519.444 292.497 520.806 295.152 519.292C298.826 517.2 299.924 519.812 298.484 522.745C294.179 531.513 294.242 531.571 303.856 531.797C305.664 531.839 307.704 533.605 308.718 531.155C309.854 528.427 304.298 529.615 305.449 526.304C313.67 525.079 315.257 519.576 314.563 511.255ZM465.824 314.144C465.808 317.208 466.002 320.294 465.708 323.332C465.461 325.871 467.101 329.377 463.443 330.586C459.847 331.774 459.285 327.558 457.019 326.26L457.277 326.097C455.469 330.98 455.474 334.812 462.013 335.826C463.826 336.11 465.587 337.466 465.214 340.105C464.615 344.368 462.465 340.714 461.193 341.088C458.954 341.75 457.366 343.227 457.703 346.139C458.123 349.766 455.705 350.922 451.931 351.548C452.488 345.787 454.843 340.152 445.487 338.665C442.764 338.234 438.391 341.755 436.199 337.356C434.302 338.959 430.775 336.157 429.634 339.716C428.252 344.031 433.981 341.261 434.575 344.446C428.972 346.197 424.357 345.282 419.263 343.075C415.3 341.356 411.495 350.996 405.797 343.632C402.265 339.064 397.723 349.235 392.272 344.425C395.347 346.423 395.81 349.319 397.061 351.737C397.807 353.182 398.517 353.792 400.356 352.904C404.362 350.97 421.765 353.282 422.906 356.751C425.455 364.52 431.484 362.16 436.404 362.639C440.572 363.048 444.819 362.649 448.699 364.62C450.223 365.393 453.487 364 452.972 367.306C452.573 369.866 450.212 370.581 447.726 370.738C443.873 370.98 440.772 367.222 434.985 368.883C439.837 371.632 443.353 373.908 447.127 375.627C448.746 376.363 451.353 379.149 452.199 377.188C454.633 371.564 463.579 370.581 462.265 362.523C461.792 359.606 462.891 356.857 464.41 354.407C471.458 343.022 469.335 330.48 469.135 318.165C469.093 315.689 467.974 314.528 465.603 314.386L465.834 314.144H465.824ZM439.526 297.834C441.976 299.521 443.605 301.581 443.232 304.835C441.96 315.826 448.047 322.013 457.277 326.097L457.019 326.26C457.435 325.224 457.85 324.189 458.265 323.158C452.441 321.681 453.902 313.892 448.173 311.815C445.298 310.775 444.693 307.022 445.986 303.673C447.169 300.598 447.08 300.567 454.812 300.798C455.895 303.295 453.093 304.777 453.182 307.794C460.578 303.689 459.569 315.363 465.829 314.149L465.598 314.391C473.755 309.623 473.503 302.065 472.641 294.081C472.089 288.961 472.825 283.673 472.01 278.617C469.966 265.933 461.655 252.897 474.917 241.418C474.991 241.355 474.449 240.587 474.129 240.035C470.765 241.066 470.465 245.796 466.628 246.306C463.611 237.633 468.026 229.854 469.345 221.691C463.432 233.975 456.147 245.875 460.909 260.456C456.368 260.524 452.919 258.317 448.115 261.449C454.675 261.202 460.567 262.375 460.725 267.557C460.956 275.048 458.691 282.622 457.366 290.138C457.272 290.685 456.657 293.439 455.322 290.554C453.393 286.391 449.172 292.199 447.048 288.709C443.947 291.537 447.947 293.502 448.184 296.399C444.909 296.01 441.808 295.763 439.353 298.086C439.353 298.086 439.511 297.876 439.532 297.844L439.526 297.834ZM120.968 550.273C118.729 550.556 116.453 551.229 114.272 551.008C112.679 550.846 110.698 548.959 112.879 547.618C115.197 546.188 115.759 545.006 114.225 543.087C112.695 541.179 111.25 543.024 109.741 543.555C108.732 543.907 107.502 543.844 106.403 543.707C103.412 543.34 101.788 541.647 102.072 538.541C102.209 537.069 100.642 534.74 103.265 534.33C108.49 533.516 103.744 537.342 105.021 538.441C106.282 539.529 107.665 539.728 108.574 538.209C109.746 536.254 112.08 536.564 113.126 535.849C107.822 532.065 101.83 530.351 94.1823 532.228C100.337 535.345 91.428 542.588 98.9078 545.316C98.6239 545.689 98.4189 546.225 98.0405 546.42C92.1692 549.416 88.8682 537.1 82.2032 543.692C81.9614 543.928 79.7486 542.819 79.3596 541.079C78.2295 536.028 78.0245 535.876 74.5606 538.682C72.7997 540.107 71.4751 536.738 70.0244 538.693C72.2583 544.307 75.0494 549.568 81.0258 555.671C72.8628 553.395 68.395 557.642 63.023 558.746C58.5552 559.666 56.9625 561.815 56.5262 565.889C56.4316 566.762 54.5919 567.34 56.4842 569.048C59.2437 567.424 62.3344 566.399 65.4304 569.274C67.1965 570.914 70.3188 570.11 70.0349 568.06C68.9363 560.091 73.4778 560.675 78.6868 561.453C80.8051 561.768 81.6145 560.401 81.9299 558.43C82.3872 555.581 84.106 553.984 86.7026 553.905C88.9733 561.915 82.3136 564.507 77.604 568.775C80.8524 570.788 83.9746 570.546 86.2716 568.149C88.4109 565.915 90.0193 563.366 92.9576 566.63C97.2678 571.419 88.4477 569.09 89.6724 572.517C97.9932 576.806 96.821 562.583 104.29 564.691C100.606 563.382 96.9156 562.073 93.231 560.764C98.6449 560.307 103.497 560.049 105.941 553.216C105.489 563.587 113.962 555.886 116.385 559.829C115.623 555.581 119.276 553.332 120.769 550.104C120.769 550.104 120.968 550.283 120.958 550.283L120.968 550.273ZM59.7694 803.684C51.496 804.814 43.4118 804.567 35.3328 802.685C33.9925 802.375 32.4681 801.455 31.9478 803.579C31.7901 804.22 32.3735 805.676 32.731 805.713C38.3762 806.323 43.0018 810.99 48.0373 811.2C53.5564 811.432 58.9336 811.632 64.4422 812.599C83.2492 815.894 102.493 815.526 121.289 819.348C126.472 820.404 132.117 818.565 137.011 816.399C142.246 814.086 145.121 808.888 144.002 803.579C142.971 798.701 137.973 805.171 134.982 800.409C135.77 804.656 135.66 807.363 136.811 809.329C138.041 811.426 137.999 812.798 135.786 812.725C130.945 812.567 125.904 814.486 121.263 812.409C121.279 808.168 126.219 810.643 126.561 807.158C120.359 804.956 115.008 803.048 107.418 805.161C97.9038 807.81 87.0811 805.45 77.0783 806.16C68.8733 806.743 72.5422 803.474 73.5514 798.391C68.5999 802.254 64.3266 803.053 59.7694 803.673V803.684ZM108.611 746.112C105.499 739.51 98.5608 740.671 95.0391 742.658C90.0141 745.497 85.2099 739.725 79.5856 745.355C74.6026 750.338 64.7786 752.74 56.7102 751.279C49.1779 749.912 41.9821 752.009 34.6758 750.653C47.0071 755.783 65.8351 755.81 79.5436 750.637C81.6513 749.844 84.2374 749.392 84.7368 752.803C85.3938 757.26 85.3202 757.271 90.2559 758.317C90.2401 755.605 83.3912 753.245 88.2585 751.2C93.0417 749.192 99.344 748.777 104.726 751.431C106.125 752.12 108.537 754.043 105.11 755.263C103.864 755.704 101.399 753.949 102.251 757.013C102.797 758.995 106.288 760.498 106.913 759.61C109.457 755.999 114.083 759.342 117.336 755.757C109.504 754.059 110.85 748.997 111.118 743.037C110.282 744.062 109.447 745.087 108.616 746.107L108.611 746.112ZM165.032 112.302C161.426 124.123 164.459 131.64 173.269 137.963C174.951 139.172 177.242 141.18 177.742 138.431C178.504 134.247 183.419 132.081 182.346 127.461C182.257 127.077 180.964 126.699 180.286 126.783C178.425 127.009 177.826 133.138 175.303 128.166C174.851 127.272 174.451 120.334 178.704 120.313C184.648 120.281 184.007 115.277 184.491 112.87C184.974 110.436 178.199 109.243 180.512 104.444C179.429 104.581 177.7 104.339 177.363 104.912C173.421 111.645 168.948 108.397 163.997 105.768C165.2 107.992 165.999 109.085 165.016 112.302H165.032ZM66.1715 105.217C65.7195 101.29 70.1611 98.4517 68.8733 94.315C67.3122 93.9838 66.7024 94.9247 65.8667 95.7237C64.1584 97.3584 65.3095 101.937 61.751 101.064C58.6918 100.312 58.6971 96.7066 58.7234 93.8104C58.7812 87.8655 58.3344 81.8575 59.0545 75.9915C59.5907 71.6025 63.0598 67.5972 60.2582 62.7824C59.8535 62.0886 60.4211 60.3698 61.0834 59.6076C63.2385 57.1372 61.7983 56.8166 60.1583 54.5353C57.4934 50.8349 53.2358 44.2698 57.9034 40.3959C64.6893 34.7664 65.4304 35.6652 63.1544 27.9017C62.0086 31.4549 63.4593 36.5903 57.7404 37.2474C51.0019 38.02 56.1951 30.7768 52.0479 28.8636C52.0479 33.2736 51.7745 37.2368 52.1477 41.1318C52.3843 43.6127 53.7614 45.957 54.3186 48.4328C55.2595 52.5695 56.563 56.7535 56.6366 60.9375C56.8679 73.9153 55.2542 75.9284 46.4762 74.8667C55.3383 78.9508 55.1701 86.3517 54.5867 94.1731C54.3869 96.8643 55.0282 100.102 56.4684 102.315C58.6866 105.716 61.5302 110.026 66.3713 104.938C66.3713 104.938 66.1715 105.196 66.1558 105.217H66.1715ZM218.799 43.3079C213.153 41.8624 206.888 41.5365 204.254 34.9451C203.387 32.7795 201.647 33.2158 200.007 33.3892C194.268 33.9937 196.013 39.8124 195.245 42.4616C193.442 48.6693 201.022 43.5129 202.825 46.8296C200.007 49.7573 201.532 55.7443 196.622 56.8533C193.563 57.5419 190.898 57.2791 191.555 61.4736C191.855 63.4079 191.813 65.6839 194.378 66.0992C197.668 66.6353 200.717 65.9099 202.551 62.9033C204.076 60.4066 204.696 57.0583 208.722 57.5682C209.963 60.6379 207.387 64.9375 212.728 66.4461C214.457 58.4302 208.643 51.6654 208.754 43.8072C211.787 44.6062 210.788 46.9347 211.871 48.1069C212.896 49.2159 212.018 51.7074 214.63 51.8336C217.022 49.4472 214.662 44.7849 218.646 43.1659C218.646 43.1659 218.83 43.3236 218.804 43.3026L218.799 43.3079ZM108.7 720.64C109.042 721.612 108.127 723.494 107.213 724.356C105.231 726.227 102.477 727.236 99.9012 726.847C98.4505 726.632 98.1141 721.554 95.3492 725.129C93.6147 727.373 94.3138 730.637 94.9708 733.386C95.6646 736.288 99.5385 736.729 100.374 735.988C104.485 732.335 107.318 735.951 110.603 737.05C116.664 739.079 122.677 736.083 122.924 730.905C123.344 722.111 111.628 714.858 103.439 718.69C104.947 721.633 107.78 718.012 108.706 720.64H108.7ZM458.234 209.996C454.733 205.191 454.039 209.254 451.553 210.395C447.721 212.151 449.902 219.147 446.822 217.964C439.095 215 430.412 222.795 423.621 215.304C422.186 213.722 420.546 213.17 419.51 214.989C418.139 217.402 421.298 216.145 421.692 217.007C425.324 224.966 432.819 220.098 438.302 221.901C442.544 223.299 447.795 225.943 450.901 218.753C452.273 215.578 454.381 218.122 455.616 220.303C457.913 224.366 462.218 224.74 464.651 222.017C466.964 219.436 473.682 216.235 467.054 210.979C465.734 209.933 465.025 208.109 464.058 206.684C460.983 206.085 460.163 212.645 458.228 209.99L458.234 209.996ZM349.707 176.376C351.42 175.945 354.38 176.376 355.31 177.559C360.871 184.634 363.52 174.594 368.12 175.33C368.756 175.43 366.606 168.923 370.974 167.283C366.679 168.313 366.548 163.172 363.305 162.179C359.415 160.986 359.878 165.543 359.126 165.375C355.562 164.56 355.121 170.605 351.347 168.534C348.14 166.778 349.796 164.15 349.996 161.764C350.175 159.561 349.602 157.827 347.042 157.359C341.838 164.476 350.264 168.292 351.715 173.759C347.405 175.036 347.284 169.953 343.152 170.106C343.646 174.452 344.093 177.79 349.702 176.371L349.707 176.376ZM343.888 809.639C324.929 810.112 306.989 818.812 286.142 815.837C289.78 820.215 293.202 819.537 296.408 819.621C309.391 819.957 322.348 813.198 335.431 819.569C336.902 820.283 341.575 820.688 340.514 817.703C338.132 811.022 342.658 814.465 344.571 814.37C346.821 814.26 349.255 815.453 352.235 813.093C348.698 811.61 346.154 810.543 343.609 809.482C343.609 809.482 343.872 809.629 343.888 809.639ZM317.197 614.957C316.445 614.2 315.825 613.211 314.931 612.696C306.616 607.918 297.06 608.265 288.219 608.244C276.902 608.218 265.007 606.326 253.238 611.529C258 615.319 262.216 615.303 266.715 613.469C273.149 610.851 278.41 611.761 281.832 618.268C280.607 619.75 279.425 619.482 278.395 619.056C273.259 616.922 272.923 623.03 269.685 624.302C269.054 624.549 268.071 628.728 269.774 629.606C273.711 631.635 272.623 626.1 274.989 625.427C275.782 625.201 276.702 625.48 277.533 625.343C284.161 624.271 290.768 623.23 297.359 625.674C298.905 626.247 300.066 626.321 301.407 624.244C305.055 618.578 311.115 616.307 317.407 614.736C317.407 614.736 317.207 614.951 317.197 614.957Z" fill="white"/>
</mask>
<g mask="url(#mask0_52_11925)">
<path d="M530.209 819.416H-47.6895V824.572H530.209V819.416Z" fill="#006821"/>
<path d="M530.209 812.625H-47.6895V817.781H530.209V812.625Z" fill="#006821"/>
<path d="M530.209 805.828H-47.6895V810.985H530.209V805.828Z" fill="#006821"/>
<path d="M530.209 799.037H-47.6895V804.194H530.209V799.037Z" fill="#006821"/>
<path d="M530.209 792.248H-47.6895V797.405H530.209V792.248Z" fill="#006821"/>
<path d="M530.209 785.449H-47.6895V790.606H530.209V785.449Z" fill="#006821"/>
<path d="M530.209 778.66H-47.6895V783.817H530.209V778.66Z" fill="#006821"/>
<path d="M530.209 771.863H-47.6895V777.02H530.209V771.863Z" fill="#006821"/>
<path d="M530.209 765.07H-47.6895V770.227H530.209V765.07Z" fill="#006821"/>
<path d="M530.209 758.275H-47.6895V763.432H530.209V758.275Z" fill="#006821"/>
<path d="M530.209 751.482H-47.6895V756.639H530.209V751.482Z" fill="#006821"/>
<path d="M530.209 744.686H-47.6895V749.842H530.209V744.686Z" fill="#006821"/>
<path d="M530.209 737.896H-47.6895V743.053H530.209V737.896Z" fill="#006821"/>
<path d="M530.209 731.1H-47.6895V736.256H530.209V731.1Z" fill="#006821"/>
<path d="M530.209 724.309H-47.6895V729.465H530.209V724.309Z" fill="#006821"/>
<path d="M530.209 717.512H-47.6895V722.668H530.209V717.512Z" fill="#006821"/>
<path d="M530.209 710.721H-47.6895V715.877H530.209V710.721Z" fill="#006821"/>
<path d="M530.209 703.926H-47.6895V709.082H530.209V703.926Z" fill="#006821"/>
<path d="M530.209 697.133H-47.6895V702.289H530.209V697.133Z" fill="#006821"/>
<path d="M530.209 690.336H-47.6895V695.492H530.209V690.336Z" fill="#006821"/>
<path d="M530.209 683.547H-47.6895V688.703H530.209V683.547Z" fill="#006821"/>
<path d="M530.209 676.748H-47.6895V681.905H530.209V676.748Z" fill="#006821"/>
<path d="M530.209 669.959H-47.6895V675.115H530.209V669.959Z" fill="#006821"/>
<path d="M530.209 663.162H-47.6895V668.319H530.209V663.162Z" fill="#006821"/>
<path d="M530.209 656.371H-47.6895V661.528H530.209V656.371Z" fill="#006821"/>
<path d="M530.209 649.58H-47.6895V654.736H530.209V649.58Z" fill="#006821"/>
<path d="M530.209 642.783H-47.6895V647.94H530.209V642.783Z" fill="#006821"/>
<path d="M530.209 635.992H-47.6895V641.149H530.209V635.992Z" fill="#006821"/>
<path d="M530.209 629.195H-47.6895V634.352H530.209V629.195Z" fill="#006821"/>
<path d="M530.209 622.402H-47.6895V627.559H530.209V622.402Z" fill="#006821"/>
<path d="M530.209 615.609H-47.6895V620.766H530.209V615.609Z" fill="#006821"/>
<path d="M530.209 608.816H-47.6895V613.973H530.209V608.816Z" fill="#006821"/>
<path d="M530.209 602.02H-47.6895V607.176H530.209V602.02Z" fill="#006821"/>
<path d="M530.209 595.23H-47.6895V600.387H530.209V595.23Z" fill="#006821"/>
<path d="M530.209 588.434H-47.6895V593.59H530.209V588.434Z" fill="#006821"/>
<path d="M530.209 581.641H-47.6895V586.797H530.209V581.641Z" fill="#006821"/>
<path d="M530.209 574.846H-47.6895V580.002H530.209V574.846Z" fill="#006821"/>
<path d="M530.209 568.055H-47.6895V573.211H530.209V568.055Z" fill="#006821"/>
<path d="M530.209 561.258H-47.6895V566.414H530.209V561.258Z" fill="#006821"/>
<path d="M530.209 554.467H-47.6895V559.623H530.209V554.467Z" fill="#006821"/>
<path d="M530.209 547.67H-47.6895V552.826H530.209V547.67Z" fill="#006821"/>
<path d="M530.209 540.879H-47.6895V546.035H530.209V540.879Z" fill="#006821"/>
<path d="M530.209 534.088H-47.6895V539.244H530.209V534.088Z" fill="#006821"/>
<path d="M530.209 527.293H-47.6895V532.449H530.209V527.293Z" fill="#006821"/>
<path d="M530.209 520.502H-47.6895V525.658H530.209V520.502Z" fill="#006821"/>
<path d="M530.209 513.703H-47.6895V518.86H530.209V513.703Z" fill="#006821"/>
<path d="M530.209 506.914H-47.6895V512.07H530.209V506.914Z" fill="#006821"/>
<path d="M530.209 500.117H-47.6895V505.274H530.209V500.117Z" fill="#006821"/>
<path d="M530.209 493.326H-47.6895V498.483H530.209V493.326Z" fill="#006821"/>
<path d="M530.209 486.529H-47.6895V491.686H530.209V486.529Z" fill="#006821"/>
<path d="M530.209 479.738H-47.6895V484.895H530.209V479.738Z" fill="#006821"/>
<path d="M530.209 472.941H-47.6895V478.098H530.209V472.941Z" fill="#006821"/>
<path d="M530.209 466.15H-47.6895V471.307H530.209V466.15Z" fill="#006821"/>
<path d="M530.209 459.354H-47.6895V464.51H530.209V459.354Z" fill="#006821"/>
<path d="M530.209 452.564H-47.6895V457.721H530.209V452.564Z" fill="#006821"/>
<path d="M530.209 445.766H-47.6895V450.922H530.209V445.766Z" fill="#006821"/>
<path d="M530.209 438.975H-47.6895V444.131H530.209V438.975Z" fill="#006821"/>
<path d="M530.209 432.18H-47.6895V437.336H530.209V432.18Z" fill="#006821"/>
<path d="M530.209 425.387H-47.6895V430.543H530.209V425.387Z" fill="#006821"/>
<path d="M530.209 418.592H-47.6895V423.748H530.209V418.592Z" fill="#006821"/>
<path d="M530.209 411.801H-47.6895V416.957H530.209V411.801Z" fill="#006821"/>
<path d="M530.209 405.002H-47.6895V410.158H530.209V405.002Z" fill="#006821"/>
<path d="M530.209 398.213H-47.6895V403.369H530.209V398.213Z" fill="#006821"/>
<path d="M530.209 391.422H-47.6895V396.578H530.209V391.422Z" fill="#006821"/>
<path d="M530.209 384.625H-47.6895V389.781H530.209V384.625Z" fill="#006821"/>
<path d="M530.209 377.834H-47.6895V382.99H530.209V377.834Z" fill="#006821"/>
<path d="M530.209 371.037H-47.6895V376.194H530.209V371.037Z" fill="#006821"/>
<path d="M530.209 364.248H-47.6895V369.404H530.209V364.248Z" fill="#006821"/>
<path d="M530.209 357.449H-47.6895V362.606H530.209V357.449Z" fill="#006821"/>
<path d="M530.209 350.658H-47.6895V355.815H530.209V350.658Z" fill="#006821"/>
<path d="M530.209 343.863H-47.6895V349.02H530.209V343.863Z" fill="#006821"/>
<path d="M530.209 337.072H-47.6895V342.229H530.209V337.072Z" fill="#006821"/>
<path d="M530.209 330.273H-47.6895V335.43H530.209V330.273Z" fill="#006821"/>
<path d="M530.209 323.484H-47.6895V328.641H530.209V323.484Z" fill="#006821"/>
<path d="M530.209 316.688H-47.6895V321.844H530.209V316.688Z" fill="#006821"/>
<path d="M530.209 309.896H-47.6895V315.053H530.209V309.896Z" fill="#006821"/>
<path d="M530.209 303.102H-47.6895V308.258H530.209V303.102Z" fill="#006821"/>
<path d="M530.209 296.309H-47.6895V301.465H530.209V296.309Z" fill="#006821"/>
<path d="M530.209 289.512H-47.6895V294.668H530.209V289.512Z" fill="#006821"/>
<path d="M530.209 282.721H-47.6895V287.877H530.209V282.721Z" fill="#006821"/>
<path d="M530.209 275.926H-47.6895V281.082H530.209V275.926Z" fill="#006821"/>
<path d="M530.209 269.133H-47.6895V274.289H530.209V269.133Z" fill="#006821"/>
<path d="M530.209 262.336H-47.6895V267.492H530.209V262.336Z" fill="#006821"/>
<path d="M530.209 255.547H-47.6895V260.703H530.209V255.547Z" fill="#006821"/>
<path d="M530.209 248.756H-47.6895V253.912H530.209V248.756Z" fill="#006821"/>
<path d="M530.209 241.957H-47.6895V247.113H530.209V241.957Z" fill="#006821"/>
<path d="M530.209 235.168H-47.6895V240.324H530.209V235.168Z" fill="#006821"/>
<path d="M530.209 228.373H-47.6895V233.529H530.209V228.373Z" fill="#006821"/>
<path d="M530.209 221.58H-47.6895V226.737H530.209V221.58Z" fill="#006821"/>
<path d="M530.209 214.783H-47.6895V219.94H530.209V214.783Z" fill="#006821"/>
<path d="M530.209 207.992H-47.6895V213.149H530.209V207.992Z" fill="#006821"/>
<path d="M530.209 201.195H-47.6895V206.352H530.209V201.195Z" fill="#006821"/>
<path d="M530.209 194.406H-47.6895V199.563H530.209V194.406Z" fill="#006821"/>
<path d="M530.209 187.609H-47.6895V192.766H530.209V187.609Z" fill="#006821"/>
<path d="M530.209 180.818H-47.6895V185.975H530.209V180.818Z" fill="#006821"/>
<path d="M530.209 174.021H-47.6895V179.178H530.209V174.021Z" fill="#006821"/>
<path d="M530.209 167.23H-47.6895V172.387H530.209V167.23Z" fill="#006821"/>
<path d="M530.209 160.434H-47.6895V165.59H530.209V160.434Z" fill="#006821"/>
<path d="M530.209 153.643H-47.6895V158.799H530.209V153.643Z" fill="#006821"/>
<path d="M530.209 146.846H-47.6895V152.002H530.209V146.846Z" fill="#006821"/>
<path d="M530.209 140.055H-47.6895V145.211H530.209V140.055Z" fill="#006821"/>
<path d="M530.209 133.26H-47.6895V138.416H530.209V133.26Z" fill="#006821"/>
<path d="M530.209 126.469H-47.6895V131.625H530.209V126.469Z" fill="#006821"/>
<path d="M530.209 119.676H-47.6895V124.832H530.209V119.676Z" fill="#006821"/>
<path d="M530.209 112.881H-47.6895V118.037H530.209V112.881Z" fill="#006821"/>
<path d="M530.209 106.088H-47.6895V111.244H530.209V106.088Z" fill="#006821"/>
<path d="M530.209 99.293H-47.6895V104.449H530.209V99.293Z" fill="#006821"/>
<path d="M530.209 92.502H-47.6895V97.6584H530.209V92.502Z" fill="#006821"/>
<path d="M530.209 85.7051H-47.6895V90.8615H530.209V85.7051Z" fill="#006821"/>
<path d="M530.209 78.9141H-47.6895V84.0705H530.209V78.9141Z" fill="#006821"/>
<path d="M530.209 72.1172H-47.6895V77.2736H530.209V72.1172Z" fill="#006821"/>
<path d="M530.209 65.3262H-47.6895V70.4826H530.209V65.3262Z" fill="#006821"/>
<path d="M530.209 58.5293H-47.6895V63.6857H530.209V58.5293Z" fill="#006821"/>
<path d="M530.209 51.7383H-47.6895V56.8947H530.209V51.7383Z" fill="#006821"/>
<path d="M530.209 44.9414H-47.6895V50.0978H530.209V44.9414Z" fill="#006821"/>
<path d="M530.209 38.1504H-47.6895V43.3068H530.209V38.1504Z" fill="#006821"/>
<path d="M530.209 31.3535H-47.6895V36.5099H530.209V31.3535Z" fill="#006821"/>
<path d="M530.209 24.5645H-47.6895V29.7209H530.209V24.5645Z" fill="#006821"/>
<path d="M530.209 17.7676H-47.6895V22.924H530.209V17.7676Z" fill="#006821"/>
<path d="M530.209 10.9766H-47.6895V16.133H530.209V10.9766Z" fill="#006821"/>
<path d="M530.209 4.17969H-47.6895V9.33612H530.209V4.17969Z" fill="#006821"/>
<path d="M530.209 -2.61133H-47.6895V2.5451H530.209V-2.61133Z" fill="#006821"/>
</g>
</svg>
