<svg width="1162" height="729" viewBox="0 0 1162 729" fill="none" xmlns="http://www.w3.org/2000/svg">
<mask id="mask0_53_119948" style="mask-type:luminance" maskUnits="userSpaceOnUse" x="0" y="0" width="1295" height="729">
<path d="M1176.81 411.982C1175.15 410.071 1175.62 407.725 1182.57 404.806C1185.07 403.759 1183.98 396.025 1177.72 392.647C1172.82 390.01 1168.27 389.49 1163.18 389.979C1161.26 390.163 1157.17 390.377 1159.99 393.533C1166.17 400.434 1159.25 398.921 1156.15 398.294C1150.58 397.171 1141.32 400.281 1140.77 392.226C1140.27 384.653 1146.03 378.997 1154.91 377.278C1157.94 376.689 1161.02 376.307 1163.92 375.856C1159.76 368.489 1153.14 364.194 1144.86 366.678C1141.74 367.61 1133.86 368.244 1135.67 376.292C1126.76 370.835 1122.45 363.483 1119.1 354.328C1112.63 359.914 1112.09 367.129 1107.5 373.586C1103.76 368.466 1105.91 364.117 1107.13 360.006C1110.44 348.917 1110.36 337.942 1105.39 327.35C1102.79 321.809 1098.9 317.652 1092.35 324.255C1088.77 327.87 1082.7 328.282 1080.08 333.754C1077.77 338.615 1074.12 334.709 1072.18 332.348C1066.61 325.6 1061.4 318.599 1054.86 311.966C1055.79 323.895 1060.03 335.413 1058.56 347.954C1052.99 344.69 1055.13 337.873 1050.17 334.182C1046.52 339.746 1050.35 346.632 1044.65 352.746C1042.86 344.904 1039.83 338.286 1040.99 331.003C1042.07 324.201 1046.6 317.873 1044.23 310.223C1035.93 324.056 1029.23 338.745 1013.24 347.801C1012.44 341.672 1007.34 337.835 1012.67 329.757C1023.95 312.646 1026.52 307.357 1046.61 293.41C1047.85 292.554 1048.89 291.469 1049.45 290.98C1060.59 303.926 1074.7 313.517 1092.45 315.909C1104.78 317.575 1117.49 317.071 1129.63 320.64C1132.08 321.358 1135.32 322.527 1137.24 319.952C1138.95 317.644 1137.35 314.977 1136.16 312.844C1131.82 305.103 1123.5 302.535 1115.17 300.135C1107.16 297.827 1094.54 298.714 1093.61 290.223C1092.82 283.001 1105.15 280.7 1112.05 276.321C1111.22 271.789 1104.25 271.568 1103.76 266.7C1107.49 262.359 1112.85 268.006 1117 264.797C1118.24 260.058 1111.58 260.547 1110.51 257.238C1108.78 251.889 1116.12 253.15 1117.02 249.764C1107.03 242.695 1103.16 241.793 1090.86 243.994C1094 240.043 1100.07 238.981 1098.64 232.156C1097.64 227.356 1093.38 228.686 1091.93 226.149C1085.62 231.69 1080.84 224.406 1075.28 223.841C1068.53 223.153 1063.47 216.955 1065.2 207.991C1060.63 210.237 1058.52 215.518 1052.22 213.692C1048.95 212.744 1046.03 216.298 1044.5 219.37C1042.28 223.826 1039.82 228.51 1033.33 226.225C1026.13 223.688 1016.92 221.411 1016.09 213.378C1015.53 207.998 1014.18 203.046 1012.08 197.872C1015.28 196.81 1022.97 201.678 1019.17 193.256C1013.21 180.05 1006.36 167.256 997.971 155.189C994.756 150.565 991.643 146.446 1000.36 143.794C1003.46 142.854 1006.5 141.631 1003.21 137C998.936 130.978 1007.09 129.862 1010.18 126.667C1007.43 123.825 1004.19 127.783 1001.58 125.903C1000.38 122.502 1005.83 123.251 1005.77 120.416C1001.98 119.293 998.911 122.059 995.545 121.914C990.207 121.692 981.605 123.695 986.918 113.836C989.267 109.472 983.426 106.048 986.078 101.684C971.635 113.446 959.021 110.878 950.771 94.7145C945.299 103.083 933.843 106.835 920.121 104.68C923.218 103.167 926.491 102.028 929.042 100.095C930.074 99.3153 929.865 96.7398 929.562 95.0814C929.319 93.7439 927.884 94.0497 926.843 94.7528C921.682 98.2224 918.006 93.8815 913.851 92.567C905.618 89.9762 902.781 86.8811 912.349 81.6613C919.105 77.9776 919.147 70.702 921.061 63.9614C908.086 63.3959 898.291 68.4399 888.699 75.7995C882.815 80.3086 876.311 73.6291 869.908 72.7808C867.465 72.4522 865.493 69.8079 863 69.0131C859.618 67.9355 855.615 67.8514 856.538 63.1361C857.419 58.65 862.371 58.2908 864.897 59.1696C877.503 63.564 882.866 57.1903 887.012 47.2475C882.127 46.6896 877.755 45.6655 880.398 39.1236C881.447 36.5328 883.118 29.6011 874.381 32.2454C874.037 32.3524 873.575 32.276 873.214 32.1613C863.034 28.6993 860.466 28.2178 852.787 33.4682C846.475 37.7862 843.832 32.7957 839.887 30.6787C836.908 34.7521 840.265 38.6039 839.501 42.7384C835.162 41.7296 830.857 40.7361 826.618 39.7503C824.453 43.495 827.349 45.5891 828.465 48.1034C829.665 50.8088 835.28 53.3003 831.419 56.105C827.525 58.9404 822.481 55.6771 818.1 54.3855C812.779 52.8111 815.112 50.1057 816.447 46.8806C820.735 36.5022 812.72 26.399 801.734 21.3855C791.554 16.7389 794.743 26.4601 789.187 27.8969C786.728 28.7452 790.841 19.1921 783.984 23.6706C780.728 25.7952 778.042 26.2002 779.511 31.1372C781.886 39.1388 770.497 50.2509 761.735 50.014C754.408 49.8153 758.965 42.8072 754.92 40.8966C756.733 40.8202 758.537 40.7514 760.845 40.6597C753.368 33.5905 742.398 30.4112 739.385 19.6431C738.588 16.7924 731.715 15.669 727.275 18.7718C717.338 25.7035 715.055 25.2373 708.878 15.5162C707.569 13.4603 707.863 7.88136 703.415 10.6021C690.138 18.726 688.828 7.38461 683.289 1.46938C679.521 1.74451 679.966 5.28294 679.194 7.78965C675.165 20.7436 675.224 20.7588 662.316 9.17293C668.812 23.663 648.703 27.1632 653.672 39.4675C641.519 39.4599 637.902 42.7308 640.227 51.3514C641.435 55.8528 647.713 57.6488 649.593 58.2143C660.142 61.3783 669.668 64.1296 672.807 75.5397C673.805 79.1775 677.977 79.0094 681.829 77.97C687.746 76.3804 691.422 80.2551 690.339 85.6583C689.432 90.1597 692.865 97.7639 693.713 98.1001C708.358 103.817 708.131 113.851 704.204 125.834C695.962 123.121 691.178 116.129 684.305 111.765C679.21 108.532 674.519 106.064 668.048 107.462C665.472 108.02 662.308 108.188 659.958 107.317C655.661 105.712 651.506 102.067 647.192 106.186C644.725 108.547 655.056 111.169 647.914 115.38C646.899 115.976 652.589 117.497 655.476 117.94C657.876 118.307 660.637 118.849 660.268 121.601C659.899 124.413 656.886 124.39 654.628 124.016C649.66 123.183 645.438 125.376 640.873 126.201C636.937 126.912 630.592 129.09 629.635 124.39C628.779 120.202 624.146 114.424 631.473 110.221C645.187 102.365 654.477 91.413 657.029 76.0518C653.042 73.4839 649.752 78.4285 644.834 77.9853C643.047 74.4621 646.437 68.2412 636.693 67.5916C625.036 66.8044 628.385 76.2275 623.374 79.552C621.108 76.7472 625.884 71.0536 620.504 70.5645C616.534 70.2053 609.703 67.5687 607.932 74.7067C602.376 73.3616 602.376 82.8076 595.972 79.8195C595.527 81.0652 594.613 82.3415 594.722 83.5413C595.192 88.8834 595.947 94.2025 596.618 99.5293C597.181 104.046 597.164 108.975 591.155 109.778C585.985 110.466 582.343 106.981 581.151 102.342C578.986 93.8815 576.476 87.1256 566.716 97.4582C566.061 98.1536 564.013 98.8032 563.577 98.4593C549.897 87.7217 541.361 103.083 529.964 104.122C524.794 104.596 518.592 107.485 528.982 111.91C531.886 113.14 529.738 121.73 539.095 118.108C533.145 120.943 528.487 122.533 526.339 128.677C523.41 137.054 513.246 138.437 506.683 134.929C499.314 131.001 488.119 128.402 490.888 114.936C491.979 109.617 487.162 98.4364 480.036 95.4788C468.304 90.6029 463.276 81.0957 454.968 73.4228C456.537 72.8878 457.762 72.0165 458.644 72.2458C469.764 75.0964 473.541 69.4716 474.816 60.8433C475.001 59.5671 473.541 57.2132 475.446 57.1597C493.473 56.5865 505.903 44.7713 521.034 38.4663C530.317 34.5993 538.894 29.3795 549.36 28.2484C551.634 28.0038 554.748 28.2561 555.545 25.9404C556.502 23.1586 553.925 20.6519 551.6 20.0252C541.504 17.2815 535.017 8.02657 523.191 7.86608C519.692 7.82023 513.338 5.54278 511.542 3.77738C504.291 -3.33007 499.407 0.980252 494.975 5.39757C488.387 11.9701 477.024 11.7102 471.459 20.4302C469.923 22.8376 460.817 20.7359 455.597 18.4203C451.728 16.7007 448.119 14.2781 443.52 14.5455C434.355 15.0882 428.153 21.355 420.449 24.71C414.952 27.1021 408.003 28.7834 414.473 37.2435C417.696 41.4545 408.296 37.2206 408.33 42.0659C413.206 43.9994 418.409 44.6567 423.923 43.6861C427.314 43.09 432.131 41.5921 432.786 45.826C433.567 50.847 428.12 52.964 423.965 51.9323C411.183 48.753 402.17 54.8899 392.804 60.828C387.885 63.9461 380.861 66.3688 391.335 71.4816C394.541 73.0483 392.485 76.0212 390.622 77.9165C387.76 80.8359 387.222 86.6594 380.45 84.9322C378.251 84.3667 376.018 83.9234 372.46 83.121C374.86 85.6353 376.295 87.1256 377.722 88.6235C370.202 84.8787 367.29 92.7963 361.776 93.5987C364.68 98.9561 367.869 104.107 374.894 107.837C374.994 103.794 370.958 98.7039 378.637 98.1383C381.457 97.932 381.591 97.1066 385.787 102.716C388.624 106.514 392.342 108.746 398.108 110.145C397.873 101.96 403.345 96.2583 409.513 91.6958C411.939 89.8998 411.242 96.8468 415.934 96.9308C418.93 90.5571 416.253 83.954 415.824 74.9589C422.43 85.9563 420.415 95.6393 420.759 104.932C420.919 109.197 420.054 113.408 421.422 117.711C422.681 121.669 429.219 124.688 425.795 129.067C422.278 133.569 415.506 133.913 409.824 135.097C406.853 135.716 403.605 135.204 400.407 135.204C397.302 132.323 402.824 131.849 402.22 130.374C400.508 126.217 403.471 119.85 397.789 118.001C392.099 116.152 386.333 118.307 382.372 123.167C373.903 133.569 360.081 134.837 348.6 126.53C346.829 125.254 343.589 123.389 342.473 123.993C332.679 129.304 320.081 125.88 310.841 132.774C305.428 136.809 299.553 138.75 292.302 135.739C285.915 133.087 279.545 133.859 275.265 139.652C273.46 142.09 272.638 145.728 275.718 147.356C280.393 149.832 282.138 150.94 279.604 156.847C277.757 161.158 284.404 161.601 288.701 159.53C305.109 151.651 318.739 156.893 332.066 166.637C328.432 169.603 324.471 170.015 320.719 170.573C317.606 171.032 315.088 170.229 315.323 175.113C315.507 178.842 312.671 182.511 306.376 183.015C299.897 183.527 295.827 193.798 300.753 197.826C311.647 206.729 301.24 209.695 295.953 212.767C285.949 218.583 284.807 221.655 290.069 231.193C292.646 235.855 292.134 242.397 300.837 241.113C301.542 244.223 296.053 245.278 298.042 248.77C301.735 248.87 303.137 245.736 305.738 244.361C309.322 242.473 312.889 243.207 312.176 247.089C310.547 255.931 320.686 258.094 323.136 264.628C324.093 267.189 329.792 270.192 332.024 268.259C340.702 260.746 343.749 270.857 348.541 272.775C354.063 274.984 349.187 278.905 345.536 280.074C343.304 280.792 340.299 279.203 337.639 279.21C333.174 279.225 329.8 279.111 333.04 285.401C334.198 287.647 336.716 292.791 333.283 297.888C331.176 301.022 342.037 305.745 338.025 312.462C352.099 309.917 343.337 322.497 349.103 326.402C359.837 333.67 360.912 348.305 374.634 354.457C388.624 360.732 389.749 361.076 393.106 347.717C393.332 346.807 394.348 346.066 395.153 345.042C399.82 349.887 398.93 355.099 397.831 360.449C396.647 366.166 397.738 371.561 403.907 374.32C410.159 377.117 413.055 371.638 416.446 368.588C420.625 364.828 424.15 360.495 424.737 354.771C425.04 351.836 427.423 350.522 430.369 350.094C434.96 349.436 433.13 353.372 434.481 354.733C437.822 358.088 438.476 362.627 447.347 362.757C456.923 362.902 468.958 366.471 477.661 373.319C479.382 374.672 478.652 376.559 478.308 378.34C476.352 388.657 480.347 396.338 491.031 400.511C494.228 401.756 493.691 415.291 501.538 402.498C503.125 407.098 504.484 411.057 506.23 416.132C508.874 412.96 505.768 406.242 513.145 407.381C520.271 408.482 524.904 412.509 525.709 418.44C526.951 427.641 528.571 437.362 526.599 446.243C521.731 468.207 528.412 487.581 538.97 506.603C546.708 520.535 556.09 534.154 548.881 550.929C548.26 552.381 548.831 554.498 550.828 555.583C554.513 546.649 557.71 546.473 567.53 555.369V534.268C570.794 542.064 571.348 548.56 571.936 557.402C573.606 553.382 574.428 551.403 575.947 547.742C580.37 559.924 575.998 570.723 577.97 581.453C579.355 576.409 580.748 571.365 582.133 566.321C582.611 566.321 583.09 566.321 583.568 566.321C583.82 568.904 583.694 571.579 584.416 574.039C585.398 577.387 582.955 582.01 587.009 583.982C592.464 586.634 592.984 579.488 599.539 577.738C592.632 588.858 589.149 599.137 592.431 610.448C601.755 605.159 606.681 617.831 617.843 616.279C615.141 619.481 613.479 621.002 612.388 622.821C608.251 629.699 604.65 631.197 601.931 622.133C599.346 613.528 593.757 614.239 586.573 617.387C573.346 623.18 567.697 621.224 561.781 608.835C558.969 602.943 556.644 596.806 554.722 590.616C551.945 581.636 553.027 570.554 538.432 569.416C535.377 577.433 539.314 586.474 539.272 595.461C539.255 599.733 532.566 602.049 536.745 606.298C532.667 606.489 531.08 602.79 527.908 601.613C522.058 599.443 517.526 591.411 509.621 598.105C507.548 591.258 499.138 595.171 495.966 591.793C490.385 585.847 489.906 590.05 489.361 593.917C488.245 601.896 487.758 600.971 477.645 600.788C472.584 600.696 464.703 601.567 461.061 606.145C458.014 609.974 457.259 614.262 460.927 620.284C466.625 629.646 470.251 639.573 482.034 644.373C484.929 645.55 486.96 648.11 485.332 651.511C483.88 654.537 481.111 655.722 477.703 655.515C473.406 655.248 469.134 654.713 464.846 654.292L465.031 654.132C471.535 660.406 480.112 667.751 487.263 669.165C503.544 672.39 510.107 687.613 525.953 690.418C538.886 692.703 542.427 691.007 540.766 679.222C545.935 679.918 548.823 685.038 554.462 684.969C556.871 681.286 554.093 678.167 553.094 674.912C552.07 671.557 549.444 668.538 551.198 662.317C556.451 674.018 561.294 683.762 565.196 693.811C568.042 701.133 572.423 703.724 580.32 700.353C583.618 698.947 587.026 698.596 590.635 698.557C597.416 698.489 596.266 697.755 599.808 692.199C602.72 687.621 607.755 683.96 614.386 682.134C627.487 678.519 641.628 679 654.116 673.009C663.86 668.339 665.623 663.311 658.59 655.347C652.698 648.668 644.935 643.44 640.05 635.951C640.059 635.951 639.782 635.912 639.782 635.912C634.352 627.001 626.731 618.862 626.236 606.657C630.785 609.072 629.476 613.734 634.008 614.919C634.662 609.997 635.225 605.794 635.787 601.59C648.283 604.005 642.09 593.635 645.329 589.714C647.906 586.596 648.015 581.904 652.102 578.862C654.57 584.372 649.299 589.103 652.22 594.024C659.572 586.145 669.5 581.346 676.34 571.999C677.909 576.485 676.13 578.266 674.888 579.909C671.976 583.753 672.219 587.467 675.492 590.601C678.816 593.78 681.938 590.272 685.085 589.439C688.098 588.644 690.683 585.977 695.886 587.375C689.97 592.442 682.433 594.873 681.804 602.523C696.432 604.112 697.187 592.473 700.998 585.297C704.346 578.976 701.123 572.305 694.779 567.23C686.453 560.573 687.771 543.141 696.86 542.308C708.089 541.284 706.83 534.956 706.537 528.926C706.318 524.326 707.46 520.558 709.969 516.782C723.842 495.888 734.182 473.48 744.262 450.928C745.999 447.045 746.175 439.854 752.386 440.626C761.139 441.711 773.896 441.512 775.776 450.928C777.891 461.49 789.64 472.082 777.035 484.348C771.42 489.805 767.484 497.592 768.231 507.268C769.104 518.678 760.736 528.758 754.945 538.785C752.26 543.439 747.073 548.086 741.391 540.948C739.327 538.357 738.739 539.679 737.279 540.971C732.361 545.296 732.436 548.529 739.125 551.395C746.032 554.353 751.555 558.479 745.025 565.977C738.865 573.038 736.649 580.49 737.17 589.76C737.883 602.309 729.474 608.973 716.348 608.713C714.443 608.675 711.371 607.926 711.841 610.341C713.956 621.193 704.632 618.014 699.034 619.428C688.921 621.98 677.775 620.719 668.241 625.916C677.733 627.743 687.25 624.869 699.067 627.322C689.584 629.615 681.493 629.47 677.347 637.296C682.71 639.206 688.031 641.109 694.552 643.44C686.747 645.259 680.41 640.093 674.04 643.433C677.968 646.895 681.896 650.357 685.824 653.819C686.126 654.048 686.47 654.247 686.713 654.522C692.868 661.553 701.386 664.714 712.269 664.006C710.246 667.881 704.573 672.78 707.636 675.019C711.9 678.129 719.033 679.214 724.816 678.947C728.786 678.764 731.345 679.405 734.35 681.186C745.302 687.667 756.263 694.148 767.417 700.338C777.924 706.162 789.212 708.431 801.029 703.953C808.197 701.24 815.221 700.415 822.833 702.081C834.684 704.671 846.584 703.28 858.611 702.562C872.123 701.752 873.5 704.113 871.334 716.265C870.915 718.611 883.118 729.685 885.551 728.967C888.732 728.027 889.681 725.421 888.715 722.906C887.566 719.918 885.593 717.182 883.848 714.4C880.012 708.286 878.946 704.992 888.707 701.194C901.598 696.181 915.177 695.072 928.152 691.312C931.191 690.433 934.002 690.082 937.057 692.077C940.834 694.537 945.886 695.355 948.261 691.091C950.116 687.766 946.876 683.517 943.821 681.958C932.567 676.203 929 667.132 928.958 656.341C928.916 646.749 921.338 640.827 915.74 634.3C911.862 629.783 907.817 626.673 911.384 620.505C914.85 614.521 903.663 609.286 909.932 602.928C908.581 602.347 907.28 601.422 905.878 601.269C903.176 600.979 900.851 602.385 900.91 604.777C901.246 618.228 892.307 614.735 883.512 613.429C866.97 610.968 863.588 613.612 864.822 628.752C865.753 640.208 858.099 647.796 852.476 658.129C848.481 650.571 853.559 644.953 852.871 639.038C849.413 636.684 847.457 640.804 844.52 640.742C841.75 640.689 837.05 640.681 837.764 638.259C841.314 626.207 830.093 632.313 826.006 629.921C824.89 626.81 827.726 626.306 829.556 625.205C831.394 624.097 834.457 623.868 833.802 620.933C833.358 618.962 831.436 618.159 829.363 617.983C826.501 617.731 823.295 617.884 822.699 620.964C821.113 629.18 815.02 632.932 807.106 635.385C805.251 635.958 801.566 637.449 805.477 639.52C813.064 643.532 806.258 646.528 805.116 649.936C813.635 649.317 821.927 648.102 830.328 639.688C824.571 664.694 846.349 674.048 857.73 690.051C839.023 686.796 815.935 692.612 817.437 665.03C812.821 667.743 813.559 672.993 807.878 675.088C808.667 670.204 806.325 665.389 807.03 661.813C807.945 657.151 799.762 654.178 805.36 649.73C799.72 649.08 798.033 639.604 789.741 644.151C788.012 645.099 788.247 642.233 788.826 641.163C791.05 636.99 786.686 633.903 788.063 629.821C781.214 630.593 778.394 634.957 774.458 637.701C769.045 641.469 763.531 644.441 757.849 638.878C752.755 633.895 748.903 629.302 754.408 621.147C770.614 597.15 793.703 579.496 816.841 561.781C826.09 554.696 833.886 546.603 841.264 537.937C845.963 532.419 849.312 525.113 859.576 524.784C863.311 524.669 868.397 521.284 869.471 516.553C870.017 514.153 867.432 512.778 865.384 511.8C860.222 509.323 856.102 512.312 852.476 514.78C831.075 529.308 812.46 547.1 789.33 559.595C785.218 561.819 781.088 567.115 775.843 563.462C770.816 559.97 772.494 554.223 774.265 549.439C777.656 540.291 779.855 530.302 785.536 522.453C791.638 514.023 802.431 509.01 810.194 501.245C813.987 497.455 823.127 500.542 824.344 508.934C824.621 510.821 826.232 514.635 826.669 513.909C829.413 509.293 836.539 513.099 836.463 511.54C835.917 500.504 843.848 510.011 847.13 507.237C844.083 500.917 843.546 494.237 849.085 488.085C843.639 485.854 840.265 490.233 835.28 489.797C836.068 487.848 837.562 486.052 837.126 484.822C836.337 482.567 829.145 483.828 832.56 478.991C835.515 474.803 839.686 478.326 843.311 478.563C844.872 478.67 846.467 478.876 847.952 479.304C852.938 480.748 858.812 485.594 862.749 479.999C865.837 475.605 863.345 469.659 860.164 464.967C858.703 462.819 856.639 460.893 860.214 457.63C863.714 461.94 868.9 464.187 873.777 466.9C877.461 468.949 879.551 471.96 880.768 476.239C884.234 488.383 883.814 501.551 891.838 512.533C893.952 515.422 890.57 514.902 889.345 515.82C886.71 517.776 884.209 519.885 880.776 522.637C893.994 526.825 907.439 530.294 905.182 547.299C899.475 544.54 895.396 541.307 893.155 536.653C890.344 530.814 886.307 530.951 882.345 534.88C877.713 539.473 872.216 542.69 866.198 545.25C854.876 550.065 848.246 559.236 842.833 568.422C838.637 575.537 834.549 579.764 825.729 578.098C824.193 583.348 830.899 581.086 831.033 585.09C821.935 588.835 812.326 592.419 804.009 598.304C800.517 600.773 797.613 602.385 800.215 606.734C803.237 611.785 806.375 607.284 809.153 606.65C817.454 604.747 823.379 599.305 829.623 594.368C832.997 591.701 836.715 589.385 841.129 587.979C830.714 596.088 823.454 607.681 809.145 611.319C812.057 616.875 815.624 619.099 821.306 613.803C822.917 612.305 825.662 610.02 827.08 610.425C840.139 614.193 839.375 605.534 842.094 598.342C843.823 593.78 848.347 589.179 854.893 588.186C862.631 587.009 870.26 585.312 878.292 586.16C882.538 586.611 888.959 590.004 888.984 581.307C889.009 572.633 882.455 574.689 877.595 575.476C871.687 576.432 866.886 574.345 861.649 572.916C857.57 571.8 855.413 570.218 856.555 566.107C857.772 561.743 860.902 560.161 865.401 561.33C876.127 564.127 885.728 569.813 897.142 571.097C901.22 571.556 902.001 576.378 904.066 579.351C905.887 581.98 908.379 583.753 911.846 583.195C915.48 582.607 915.463 579.481 915.278 577.135C914.263 564.586 925.148 559.954 933.658 553.718C934.984 552.748 936.553 552.343 937.997 553.306C939.835 554.536 940.003 556.431 939.105 558.12C937.737 560.681 935.848 563.004 934.489 565.572C933.591 567.268 933.792 569.232 935.588 570.455C937.712 571.9 939.373 570.562 940.523 569.064C944.736 563.554 948.681 562.11 954.396 568.033C957.292 571.036 972.541 564.104 971.056 560.673C967.279 551.968 978.231 547.658 977.157 539.335C976.62 535.193 984.358 534.1 989.737 536.897C994.236 539.244 999.213 541.544 1004.07 538.212C1009.16 534.719 1006.72 529.713 1005.9 525.235C1003.48 512.143 1006.56 508.888 1021.25 510.432C1029.23 511.272 1037.91 511.265 1043.5 518.219C1044.04 517.761 1045.13 517.073 1045.03 516.874C1039.22 505.028 1051.19 496.889 1052.61 486.572C1052.7 485.907 1053.11 484.99 1053.68 484.723C1074.46 474.894 1063.42 462.506 1056.91 450.607C1055.42 447.878 1057.02 446.724 1058.86 445.288C1060.13 444.302 1060.67 441.711 1059.42 442.001C1046.55 444.982 1058.41 421.329 1041.83 428.665C1033.7 432.265 1025.38 435.528 1017.04 438.7C1014.75 439.571 1013.29 444.523 1009.64 440.328C1007.37 437.706 1005.36 434.856 1007.82 431.577C1011.36 426.877 1014.23 421.053 1019.12 418.081C1027.89 412.746 1032.68 406.533 1031.91 396.85C1031.82 395.673 1033 394.152 1034.05 393.212C1039.25 388.558 1060.48 390.125 1063.83 395.895C1067.04 401.443 1061.28 407.305 1063.26 413.419C1067.08 413.648 1068.88 408.688 1074.29 409.804C1069.19 417.385 1077.71 421.367 1080.36 426.953C1082.12 430.675 1088.18 428.558 1092.45 426.953C1097.36 425.112 1103.89 419.066 1106.84 427.603C1109.24 434.512 1107.65 442.208 1097.23 443.988C1093.52 444.623 1092.23 445.922 1091.72 449.437C1090.99 454.596 1096.43 451.891 1098.58 454.802C1091.52 458.28 1084.14 458.341 1076.22 458.899C1085.24 467.688 1098.11 473.458 1098.3 487.306C1098.32 489.079 1100.69 488.674 1102.16 488.735C1105.48 488.872 1106.93 487.29 1107.68 484.379C1109 479.281 1110.79 474.283 1112.87 467.749C1124.62 476.729 1118.38 493.733 1134.36 497.73C1134.15 495.055 1135.37 490.087 1133.23 487.13C1123.38 473.48 1131.32 462.17 1137.8 450.576C1141.28 444.355 1144.31 438.371 1139.75 431.417C1136.94 427.145 1141.06 422.956 1143.89 423.033C1154.67 423.316 1165.72 419.334 1176.27 424.195L1176.73 411.982H1176.81ZM812.376 348.336C807.315 354.534 805.419 361.511 804.495 369.192C803.002 381.565 803.723 394.206 799.644 406.265C798.923 408.39 796.615 414.03 794.567 409.972C790.572 402.047 786.401 410.721 783.103 409.017C782.515 395.658 779.67 392.899 766.922 387.091C763.749 385.646 760.652 378.928 761.693 375.78C767.971 356.758 789.926 345.363 812.2 348.504C822.481 359.952 839.333 359.57 853.559 366.211C844.461 372.127 844.612 377.155 852.426 382.161C854.306 383.361 855.909 385.081 857.193 386.831C857.948 387.863 858.41 389.643 857.94 390.698C857.251 392.242 855.271 392.058 853.92 391.202C843.362 384.561 845.695 393.205 844.797 397.66C844.125 400.992 845.359 404.737 840.684 408.91C830.546 388.397 814.978 371.057 812.393 348.328L812.376 348.336ZM908.27 395.283C912.836 384.057 916.881 382.513 927.431 388.153C929.428 389.215 931.216 389.238 932.844 388.008C935.555 385.952 935.227 383.048 933.012 381.405C926.491 376.536 928.564 370.476 929.495 364.561C930.611 357.476 931.744 350.392 933.28 343.376C934.548 337.575 932.794 332.012 926.6 331.759C921.145 331.538 922.361 337.285 922.269 341.511C921.925 356.605 912.786 360.732 898.703 352.814C887.91 346.746 882.564 337.407 877.57 326.708C896.193 329.604 906.718 330.246 907.977 314.388C915.53 315.091 920.717 319.394 925.954 323.735C928.136 325.546 930.091 328.718 933.843 326.983C936.906 325.569 935.513 322.589 935.882 320.212C937.133 312.164 935.773 303.429 942.814 295.733C951.459 308.435 956.318 320.265 944.795 332.768C949.688 334.404 948.471 327.419 952.382 330.063C956.049 333.135 947.506 338.24 957.577 342.329C964.534 345.149 956.713 361.213 952.751 364.27C945.265 370.04 947.523 375 947.279 381C947.103 385.402 950.233 389.972 943.863 394.229C940.708 396.338 947.791 403.407 949.873 402.972C960.447 400.778 971.316 405.18 981.664 401.13C984.736 399.93 988 400.9 988.974 404.553C989.729 407.389 990.426 411.776 987.035 412.02C974.757 412.907 976.393 420.755 974.992 428.237C973.607 435.612 971.458 442.727 972.298 450.37C972.608 453.159 970.082 459.113 967.354 456.193C961.06 449.453 949.47 445.968 950.057 434.818C946.104 435.223 947.716 440.282 943.763 440.282C942.37 435.834 947.036 431.913 944.107 427.251C940.104 432.655 932.852 434.733 930.46 441.382C929.554 443.889 925.786 443.255 923.134 441.933C916.394 438.578 913.516 433.793 915.983 426.778C917.67 421.978 919.651 417.102 916.864 410.744C914.237 414.771 912.483 417.462 910.117 421.076C909.496 411.332 908.975 403.124 908.455 394.916C904.301 398.929 905.148 404.836 902.723 409.536C898.04 407.572 900.927 402.521 897.67 400.908C893.315 416.162 898.308 429.506 906.718 442.521C909.798 447.282 910.469 453.366 912.013 458.891C912.584 460.924 913.079 463.377 910.998 464.936C908.631 466.702 906.676 464.715 904.695 463.721C895.748 459.212 887.742 454.168 889.874 443.041C890.654 438.975 887.943 437.08 884.133 436.262C881.901 435.78 878.896 435.062 877.746 437.263C876.689 439.281 881.212 444.745 873.55 442.04C868.691 440.32 867.214 437.332 868.472 432.685C869.211 429.98 869.991 426.61 868.884 424.271C863.026 411.799 873.785 405.776 882.043 403.537C896.403 399.647 890.562 394.695 885.862 388.451C884.376 386.479 881.414 384.179 883.948 381.94C886.785 379.433 888.581 382.742 890.587 384.217C891.712 385.042 893.071 385.593 894.364 386.296C897.318 383.262 889.647 377.713 897.788 376.85C904.519 376.131 902.135 381.611 903.604 384.316C905.509 387.817 906.726 391.63 908.245 395.306L908.27 395.283ZM705.102 412.57C698.295 413.518 697.691 419.464 690.994 418.952C700.167 404.447 689.114 391.546 688.66 377.851C688.635 376.987 686.537 375.627 685.236 375.436C675.685 374.053 678.833 369.375 681.636 364.652C683.264 361.924 688.065 360.533 686.898 356.834C685.647 352.876 679.747 357.079 676.894 353.464C682.475 349.459 687.527 345.837 692.185 342.497C690.372 338.867 686.411 342.245 685.329 339.769C695.66 328.168 709.046 338.355 720.754 335.29C723.632 334.534 725.076 338.92 725.42 341.832C727.653 360.785 729.398 379.662 716.457 396.582C714.333 399.357 712.638 403.988 717.514 404.171C725.58 404.462 728.089 407.549 729.717 414.122C731.169 419.968 734.904 425.402 733.359 431.715C732.764 434.16 731.043 439.349 728.542 436.491C723.691 430.935 722.944 436.759 722.281 437.882C720.066 441.627 718.723 445.807 716.339 451.486C714.485 438.96 714.468 438.7 702.626 439.22C698.304 439.411 695.853 437.615 693.847 434.97C691.573 431.982 692.37 429.154 694.938 426.227C698.32 422.383 701.065 418.065 705.102 412.563V412.57ZM398.041 213.936C398.041 213.73 398.041 213.524 398.049 213.317C401.574 213.317 405.107 213.21 408.624 213.348C411.553 213.47 414.616 214.38 414.079 217.605C412.333 228.144 419.937 239.34 411.058 249.474C409.136 251.667 411.427 254.441 412.828 257.154C415.153 261.656 415.195 269.176 407.524 267.372C399.409 265.469 390.21 262.42 383.807 257.857C374.625 251.315 367.55 243.153 370.253 229.32C373.282 213.845 372.644 212.072 390.999 213.516C393.341 213.699 395.682 213.791 398.032 213.929L398.041 213.936ZM583.224 201.051C582.88 200.386 582.527 199.729 582.183 199.064C573.195 201.227 564.298 203.825 555.184 205.369C550.3 206.195 544.207 205.392 544.802 198.881C545.289 193.607 545.902 187.952 555.226 188.319C567.034 188.785 577.206 194.632 588.839 195.411C592.405 195.648 594.571 198.911 596.224 201.861C605.683 218.759 606.715 237.047 607.437 255.549C604.105 250.643 598.238 250.123 593.723 247.716C586.774 244.017 582.049 238.369 581.537 231.33C580.345 215.044 580.79 215.022 560.757 219.79C569.636 212.385 576.434 206.714 583.224 201.051ZM695.996 159.889C707.015 159.606 715.475 163.068 722.76 169.45C720.233 171.513 715.626 168.854 713.536 172.973C717.875 174.303 722.004 175.564 726.133 176.825C718.857 176.045 713.352 183.374 706.637 180.592C690.213 173.783 672.412 169.389 658.539 157.971C654.578 154.715 652.329 150.16 658.506 149.61C667.444 148.815 675.182 144.589 684.699 143.313C682.433 146.11 679.336 148.311 679.68 149.862C680.368 152.935 684.237 151.238 686.747 151.742C692.68 152.942 698.572 154.341 707.057 156.228C701.602 158.032 698.799 158.964 695.987 159.889H695.996ZM852.543 258.003C868.397 244.919 893.029 248.243 907.49 231.644C909.63 240.723 899.97 248.717 908.631 256.314C886.877 274.846 872.451 275.481 852.535 258.003H852.543ZM920.935 144.933C929.118 140.867 932.433 149.236 938.307 152.361C944.753 155.793 929.655 154.272 936.889 156.962C944.073 159.637 939.608 163.359 938.417 166.079C935.823 171.995 927.976 174.257 925.542 180.822C924.468 183.718 920.297 183.993 917.511 181.617C912.483 177.321 907.851 172.583 912.307 165.797C914.749 162.075 915.177 159.125 912.651 154.998C906.407 144.818 906.743 144.65 920.926 144.925L920.935 144.933ZM906.071 211.445C900.826 211.445 896.504 211.865 892.324 211.33C887.927 210.765 885.191 208.013 886.265 203.726C887.373 199.278 906.399 193.065 909.915 196.191C920.675 205.728 931.081 215.618 936.604 230.222C930.276 229.099 923.511 233.012 922.202 223.321C921.463 217.826 916.277 215.388 909.596 218.147C907.07 219.187 903.193 221.273 901.43 217.704C900.096 215.006 905.35 214.777 906.063 211.452L906.071 211.445ZM670.146 217.872C662.173 223.451 652.874 213.531 647.478 222.618C643.55 229.229 650.398 236.191 647.352 243.574C645.715 241.717 643.701 239.141 643.491 239.256C635.082 243.933 633.538 236.993 632.824 232.981C630.827 221.716 629.895 210.36 615.863 204.131C623.433 202.954 629.618 202.916 635.804 202.977C637.633 202.992 641.15 202.946 640.47 204.72C636.777 214.395 645.959 211.926 650.231 213.31C656.366 215.297 662.895 216.267 670.146 217.872ZM1013.56 495.231C1006.26 495.3 1001.93 493.213 1006.8 485.173C1008.17 482.919 1009.8 480.114 1007.83 478.181C999.54 469.965 1007.8 467.198 1013.44 464.18C1017.68 461.91 1023.25 456.751 1027.49 463.117C1031.05 468.475 1030.22 475.062 1023.96 479.006C1018.69 482.323 1016.13 484.042 1024.16 486.946C1029.88 489.018 1027.55 491.822 1023.51 493.343C1020.71 494.398 1017.49 494.528 1013.55 495.231H1013.56ZM661.527 253.692C654.628 247.104 653.948 241.159 655.224 233.883C656.701 225.446 659.672 222.786 667.595 226.967C673.965 230.329 679.806 234.586 685.622 238.744C688.811 241.029 691.338 244.498 689.08 248.083C686.671 251.896 682.811 248.297 679.622 248.419C673.361 248.663 664.884 241.235 661.527 253.677V253.692ZM819.955 185.094C831.402 188.074 857.168 204.292 861.683 210.902C862.925 212.721 864.897 217.482 862.749 216.772C850.865 212.851 862.673 223.994 856.446 223.291C850.328 220.18 846.685 214.12 842.036 208.923C840.147 206.814 838.486 202.801 835.087 204.322C828.423 207.31 827.693 202.534 826.023 199.362C823.849 195.228 822.338 190.795 819.955 185.101V185.094ZM483.528 214.746C478.761 220.188 472.223 212.95 467.397 217.819C469.604 212.805 472.802 208.548 469.034 203.65C474.464 200.218 479.718 195.9 486.96 197.276C495.252 198.85 493.011 205.369 493.473 210.421C493.7 212.905 493.565 215.442 493.272 217.926C492.902 221.036 493.221 225.851 489.436 226.042C484.426 226.294 484.594 221.472 484.3 217.903C484.216 216.917 483.822 215.954 483.511 214.746H483.528ZM743.783 370.293C738.101 361.534 735.13 352.379 731.799 343.292C730.019 338.454 734.996 337.438 736.322 334.442C737.17 332.531 739.805 333.769 741.316 334.931C748.399 340.38 752.511 347.602 755.634 355.359C756.171 356.704 755.709 359.15 754.257 358.798C741.299 355.642 749.532 367.274 743.783 370.293ZM944.56 287.67C951.324 287.747 955.026 291.346 956.931 296.627C959.289 303.154 966.146 305.095 970.485 302.466C978.987 297.307 980.95 305.989 986.246 307.128C989.326 307.793 988.369 310.987 984.425 311.843C961.261 316.887 950.007 310.147 944.56 287.67ZM1294.06 669.126C1291.9 667.965 1289.75 667.842 1287.31 668.675C1275.62 672.68 1263.53 669.585 1252.17 668.293C1241.02 667.025 1230.82 667.315 1219.77 668.523C1206.39 669.982 1192.39 668.836 1179.52 663.708C1176.94 662.684 1173.23 661.889 1175.22 657.579C1180.15 646.933 1176.72 636.447 1166.4 629.898C1162.31 627.299 1158.97 624.189 1157.23 632.473C1156.64 635.278 1157.62 642.294 1151.18 642.653C1147.84 642.844 1144.92 642.263 1143.32 645.458C1141.15 649.806 1145.76 650.67 1147.96 652.894C1149.99 654.965 1151.42 657.518 1153.75 660.735C1148.17 661.217 1143.76 663.731 1139.08 664.954C1131.03 667.055 1121.46 671.465 1114.63 664.51C1108.79 658.565 1093.59 656.142 1102.22 642.5C1103.98 639.711 1099.97 635.347 1096.39 632.664C1093.29 630.333 1088.97 629.027 1087.32 623.868C1095.59 630.227 1102.31 624.9 1108.46 622.095C1112.46 620.268 1111.33 613.711 1108.89 611.327C1099.62 602.263 1102.55 587.001 1088.81 581.193C1091.72 576.852 1099.27 581.789 1098.73 577.349C1097.98 571.143 1100.32 570.295 1105.51 570.83C1110.48 571.349 1115.56 571.296 1116.93 577.761C1119.39 589.424 1122.47 600.994 1125.77 612.496C1128.77 622.966 1130.11 622.737 1139.46 616.363C1143.56 613.574 1142.13 610.203 1144.07 606.527C1148.51 611.189 1152.38 611.411 1155.86 605.878C1157.38 603.455 1159.68 600.391 1162.26 599.756C1173.02 597.112 1170.41 591.418 1167.22 585.152C1166.28 583.31 1165.08 579.511 1167.55 579.71C1180.35 580.734 1175.89 571.059 1178.71 565.916C1180.5 562.645 1179.9 555.407 1187.09 559.076C1193.8 562.492 1195.5 558.915 1197.72 554.987C1200.35 550.317 1202.46 545.319 1208.19 542.965C1205.64 549.163 1201.76 554.483 1198.32 560.031C1194.99 565.419 1195.39 565.862 1202.47 565.617C1204.24 565.556 1205.61 565.831 1206.41 567.238C1207.43 569.049 1207.09 571.395 1205.36 572.029C1196.57 575.247 1195.76 582.515 1195.29 589.576C1190.16 588.354 1193.33 579.557 1186.62 582.813C1183.11 584.51 1177.88 588.132 1182.02 594.246C1183.95 597.097 1188.67 601.483 1183.67 604.594C1176.77 608.896 1182.14 610.838 1184.66 613.474C1187.48 616.417 1191.53 618.557 1192.47 622.691C1193.4 626.749 1193.78 630.448 1200.4 629.31C1204.29 628.637 1205.14 632.603 1206.23 635.133C1208.25 639.795 1209.97 644.571 1211.54 649.371C1213.9 656.616 1218.14 658.985 1222.99 651.702C1227.21 645.381 1231.71 645.007 1238.63 646.948C1248.73 649.791 1251.04 647.231 1248.73 637.823C1247.31 632.068 1243.08 623.807 1249.09 620.903C1255.96 617.594 1265.99 617.219 1273.79 618.893C1278.76 619.963 1281.66 627.131 1281.73 633.429C1281.76 636.998 1277.87 643.456 1287.7 642.21C1290.13 641.904 1289.25 644.976 1289.22 646.52C1289.15 649.401 1288.67 652.275 1288.21 656.524C1291.15 654.208 1292.6 653.062 1294.05 651.916C1294.05 657.648 1294.05 663.387 1294.05 669.119L1294.06 669.126ZM464.93 654.292C464.703 651.075 464.594 647.85 464.233 644.648C463.26 636.042 459.005 633.566 451.283 638.274C444.015 642.707 439.374 641.606 434.389 635.645C430.335 630.8 425.124 626.879 419.014 624.12C416.958 623.195 414.003 622.485 414.465 619.879C415.027 616.699 418.468 616.539 421.095 616.699C431.309 617.319 436.277 610.578 442.312 604.984C446.751 600.872 445.954 597.632 440.977 594.185C449.504 594.812 462.127 587.895 461.673 582.202C461.338 577.952 456.713 573.367 461.17 569.569C469 562.882 455.161 566.229 456.923 560.879C459.206 553.948 450.083 561.215 448.824 556.057C449.672 552.962 455.505 554.253 457.276 550.891C448.967 550.126 440.815 547.011 432.82 541.544C434.062 538.556 439.122 540.298 439.953 536.744C439.542 536.194 439.215 535.231 438.686 535.132C427.398 533.038 417.528 523.492 416.219 512.747C414.843 501.475 404.52 506.366 398.225 504.914C395.959 504.394 388.599 500.519 387.684 508.116C384.176 507.696 380.676 507.1 380.055 503.179C379.442 499.32 379.157 495.414 378.553 489.912C374.155 496.591 373.123 503.21 370.446 508.957C367.936 514.352 368.163 519.511 359.518 518.731C356.069 518.418 356.573 521.238 357.252 523.454C358.31 526.901 359.3 530.363 360.727 535.201C348.835 529.102 334.777 533.015 323.984 525.105C326.838 522.094 330.127 522.698 333.182 522.53C335.507 522.4 337.849 520.443 336.262 519.343C326.544 512.587 340.039 511.7 339.645 507.367C336.111 504.356 332.116 508.605 327.635 506.358C332.268 500.871 338.73 499.358 345.394 498.387C348.868 497.883 352.536 498.272 355.91 497.516C359.107 496.798 363.715 497.317 364.646 493.443C364.99 492.006 362.716 489.721 361.13 488.284C357.823 485.303 353.853 485.471 350.412 487.955C345.486 491.509 340.987 495.399 334.592 496.981C325.679 499.182 325.738 494.535 322.339 488.857C316.716 479.465 326.678 476.576 327.425 469.827C320.509 473.74 313.779 473.863 306.821 471.593C305.453 471.142 302.633 470.89 302.6 471.02C300.518 478.838 293.108 479.999 286.393 482.239C279.016 484.7 271.925 487.558 263.658 486.931C259.722 486.633 257.766 486.327 258.689 482.216C258.941 481.092 257.875 477.332 257.17 478.815C254.283 484.837 245.966 474.184 244.766 482.82C243.935 488.811 248.635 497.768 240.62 499.939C235.148 501.421 231.287 492.342 225.74 489.025C223.717 487.818 207.528 489.209 205.975 491.463C196.433 505.265 183.693 504.287 169.535 498.754C166.857 497.707 160.68 497.539 161.184 498.815C163.928 505.869 146.958 506.855 155.687 515.307C158.204 517.745 160.924 518.051 163.76 518.976C165.699 519.61 167.352 520.718 167.369 522.744C167.386 524.509 165.59 525.227 164.104 525.197C151.205 524.922 146.354 532.671 143.517 542.285C156.148 543.409 159.22 549.324 151.23 559.718C147.94 563.997 146.312 567.574 148.234 572.404C149.921 576.638 147.151 578.587 143.895 581.185C135.167 588.124 133.614 600.154 139.657 608.744C140.454 609.875 141.847 611.579 142.854 611.526C157.885 610.685 155.015 620.88 154.856 628.408C154.696 635.691 156.224 643.318 148.041 649.394C141.864 653.987 137.953 661.133 133.152 667.224C131.189 669.715 131.079 672.313 135.15 672.741C141.57 673.422 140.79 677.976 141.268 681.629C142.779 692.994 139.942 695.034 128.083 692.528C113.984 689.547 99.3302 687.606 95.0752 671.794C94.2527 668.737 86.9679 666.047 92.163 663.272C96.1578 661.132 101.512 657.426 107.429 660.238C108.117 660.567 108.688 661.102 109.359 661.476C113.237 663.624 118.365 668.607 121.436 665.481C125.624 661.224 120.95 654.399 116.829 652.741C101.479 646.551 90.3921 634.399 73.9845 629.653C80.0608 634.483 86.1287 639.321 92.2384 644.182C77.7948 653.383 64.7357 645.343 51.3748 641.667C48.6555 640.918 45.3824 639.81 43.4689 641.629C31.9626 652.558 19.3317 647.422 7.48132 643.303C0.272095 640.796 -0.122437 643.784 0.0202637 648.209C0.666504 667.85 0.0202637 687.514 2.76465 707.132C3.83899 714.798 7.64917 718.091 15.0179 718.894C22.1096 719.666 27.2711 717.144 29.1007 710.289C29.4281 709.05 30.6366 708.011 31.6017 706.651C39.8937 719.949 42.7051 720.751 60.3129 717.472C64.7861 716.639 69.8385 717.09 74.3621 718.015C93.6652 721.958 112.649 719.605 131.617 716.257C135.301 715.608 138.507 715.936 141.83 717.511C160.21 726.238 175.787 722.509 186.597 707.002C190.012 702.103 194.88 701.637 199.823 704.648C203.718 707.018 207.1 710.105 210.625 712.948C220.402 720.835 220.822 720.743 224.523 709.417C229.147 710.35 227.066 713.957 227.729 716.303C228.904 720.468 230.859 724.358 236.105 723.762C243.616 722.899 251.287 724.863 258.345 723.579C268.668 721.699 278.924 719.223 289.415 719.742C297.43 720.14 298.529 712.696 304.387 710.426C307.325 709.287 302.44 706.093 299.637 705.657C294.266 704.824 288.198 706.123 283.708 702.761C280.334 700.239 273.251 704.603 273.192 699.138C273.133 693.33 273.217 686.842 277.489 681.645C278.404 680.537 280.107 679.963 281.005 678.848C293.217 663.777 301.425 664.044 314.123 680.261C316.708 683.555 319.402 683.089 322.112 681.293C332.033 674.736 338.436 679.299 342.582 687.262C346.225 694.247 351.101 695.455 358.763 693.789C371.318 691.06 383.916 688.187 397.101 689.585C400.617 689.96 405.166 691.343 404.243 684.679C403.513 679.451 402.531 675.898 395.942 677.709C388.926 679.642 385.829 675.347 382.481 671.412C380.332 668.882 378.192 666.215 376.841 663.303C374.961 659.23 361.474 659.558 370.529 651.832C375.548 647.544 366.694 641.247 374.852 638.014C376.438 637.387 377.395 633.582 381.205 634.445C384.789 635.255 384.721 637.846 384.747 640.399C384.797 645.764 384.78 651.121 384.923 656.486C385.007 659.428 382.732 663.693 387.927 664.434C392.317 665.053 393.114 660.827 394.835 658.129C397.419 654.086 395.086 649.761 395.179 645.618C399.837 644.61 400.139 647.98 401.037 649.852C403.966 655.997 409.396 653.689 414.238 653.544C412.56 648.24 419.274 642.6 413.827 637.624C409.731 633.88 404.998 630.716 401.196 626.413C415.623 633.956 427.792 644.824 445.081 649.264C441.279 654.102 437.536 656.272 432.962 657.533C430.335 658.251 427.238 659 427.818 662.348C428.33 665.313 431.351 665.787 434.003 666.559C449.655 671.136 459.424 664.167 457.611 649.401C460.221 651.022 461.732 653.865 465.114 654.147L464.921 654.308L464.93 654.292ZM202.559 615.851C205.161 626.054 210.423 620.964 215.123 618.9C221.006 616.31 220.562 608.759 226.235 606.321C229.575 607.62 227.083 611.648 230.893 612.336C231.296 611.281 231.606 610.272 232.06 609.325C233.646 606.015 231.111 599.664 236.944 599.833C242.542 599.993 244.187 605.618 244.808 610.417C245.177 613.26 245.169 616.142 245.505 618.985C245.857 621.904 246.73 624.839 249.776 626.291C259.671 630.991 272.101 628.071 279.94 619.504C281.433 617.876 283.28 616.516 287.115 613.13C282.021 624.418 271.329 632.901 285.311 641.889C297.866 628.408 304.035 609.6 321.256 595.583C319.989 606.734 311.244 612.275 308.726 620.597C313.695 621.438 315.575 615.438 320.174 618.044C321.987 625.809 312.948 628.744 309.985 635.057C318.26 634.529 321.172 627.047 329.683 626.275C324.697 632.061 317.429 635.293 317.102 642.554C308.256 641.216 303.044 648.201 295.659 650.334C287.283 652.756 275.701 653.192 282.6 667.598C266.881 656.111 253.301 654.3 244.288 663.089C233.344 673.765 218.044 679.864 209.131 692.764C205.312 698.298 197.272 699.176 189.786 698.58C176.979 697.556 170.55 688.232 162.384 681.24C160.101 679.283 163.332 677.984 163.979 676.387C167.386 667.965 178.464 665.229 181.167 656.845C183.676 649.057 186.546 643.685 196.928 651.427C196.718 638.618 199.672 627.873 202.534 615.851H202.559ZM369.43 612.58C371.495 608.514 374.407 603.898 376.237 598.954C379.157 591.036 383.991 592.389 389.337 596.256C393.24 599.076 397.806 602.018 396.085 607.559C393.752 615.064 388.23 619.023 379.652 620.689C372.225 622.126 370.84 618.472 369.43 612.595V612.58ZM969.922 691.519C959.944 693.147 952.919 690.686 950.384 680.988C949.117 676.119 947.942 671.205 946.18 666.482C945.022 663.364 945.81 658.16 940.808 658.007C934.548 657.816 934.732 651.832 935.437 651.174C942.613 644.487 939.021 635.011 942.227 627.857C947.363 628.194 945.785 637.586 951.257 633.192C957.518 628.163 958.777 636.868 962.999 635.156C964.358 632.374 959.13 630.41 961.773 627.437C967.139 629.409 971.777 633.615 975.688 640.055C976.024 640.605 976.872 641.041 977.585 641.247C993.371 645.924 994.043 662.898 1006.55 670.319C999.943 666.436 994.379 661.606 988.672 656.921C985.902 654.652 983.737 652.902 980.455 657.464C976.183 663.402 966.935 662.493 962.537 656.669C961.06 654.72 960.288 652.03 957.006 651.541C954.656 654.805 959.65 660.888 956.192 661.178C944.443 662.18 952.39 667.888 953.49 670.365C955.303 674.446 956.595 679.199 961.639 682.722C965.416 671.381 970.174 672.78 974.815 683.173C976.821 679.719 978.038 677.61 979.263 675.5C981.479 683.609 979.994 689.876 969.922 691.519ZM1110.14 535.751C1109.53 542.851 1108.32 549.928 1106.99 556.951C1106.26 560.856 1104.75 564.693 1099.66 565.709C1093.47 566.932 1090.91 559.947 1091.05 558.869C1092.2 549.981 1084.17 545.036 1081.47 537.975C1077.3 527.084 1079.6 521.314 1091.37 515.392C1093.6 514.268 1094.67 513.817 1093.13 511.784C1085.88 502.14 1101.16 505.686 1101.2 500.328C1112.21 500.428 1119.75 508.513 1130.11 510.776C1134.86 511.807 1134.08 519.343 1134.85 525.648C1118.02 516.385 1111.51 519.473 1110.14 535.751ZM551.349 35.5163C560.295 34.8056 569.309 29.7387 576.644 29.9603C592.128 30.4189 608.276 33.5752 621.989 41.9054C626.152 44.4351 630.197 48.0499 626.916 52.3755C623.777 56.5024 617.373 55.1574 614.52 52.0775C606.463 43.3957 599.002 48.6231 590.156 50.442C580.907 52.345 572.171 54.2174 564.282 59.0626C562.662 60.0562 560.195 60.1937 558.877 58.543C554.479 53.0634 550.761 47.2169 548.629 41.3781C548.176 38.3517 548.688 35.7227 551.349 35.5163ZM656.047 691.786C664.364 689.394 663.315 697.212 665.379 701.255C666.353 703.166 666.495 705.413 667.234 707.438C668.216 710.136 670.566 712.405 673.369 710.533C682.626 704.381 689.894 713.766 698.581 712.979C700.553 712.803 705.421 718.42 704.909 720.575C703.918 724.733 699.076 724.389 695.181 722.608C693.058 721.638 690.263 719.742 688.694 721.294C679.034 730.877 667.335 723.449 656.743 724.786C646.983 726.017 641.737 719.589 640.596 712.467C639.765 707.262 638.053 702.058 636.551 694.996C643.139 699.138 647.872 702.119 655.786 707.094C652.236 699.864 648.611 693.926 656.038 691.794L656.047 691.786ZM980.757 614.346C967.816 615.438 949.495 606.405 944.904 596.707C944.216 595.247 944.023 594.131 945.475 592.985C947.489 591.395 970.283 591.204 970.611 593.138C972.088 601.843 979.18 597.418 983.796 598.167C986.263 598.572 989.142 596.737 991.668 597.051C994.068 597.349 997.669 598.358 997.064 601.491C996.577 603.975 993.472 603.631 991.131 603.554C986.246 603.386 981.345 601.246 976.116 603.539C979.188 607.972 987.547 606.038 988.269 612.527C985.743 613.146 983.225 613.765 980.749 614.353L980.757 614.346ZM1003.37 614.399C1007.06 618.404 1008.92 623.776 1017.79 620.75C1021.71 619.412 1025.98 626.573 1027.46 631.419C1028.14 633.643 1024.99 633.994 1023.16 633.566C1014.26 631.495 1003.38 635.179 996.98 625.549C994.773 622.225 990.283 620.834 985.978 619.779C983.141 619.084 979.297 618.664 980.757 614.346C983.225 613.749 985.751 613.13 988.277 612.519C993.648 610.868 998.953 609.607 1003.38 614.407L1003.37 614.399ZM675.056 666.291C672.228 667.865 669.324 665.481 667.922 662.47C662.308 650.464 650.717 643.631 640.126 635.943C640.134 635.943 639.857 635.905 639.857 635.905C646.857 633.199 654.393 626.879 656.81 640.658C657.415 644.09 664.918 646.52 670.054 649.936C671.028 645.137 666.084 643.876 666.017 640.551C669.685 639.405 671.321 642.852 674.116 643.417C678.044 646.879 681.971 650.341 685.899 653.803C687.989 661.981 680.108 663.479 675.073 666.291H675.056Z" fill="white"/>
</mask>
<g mask="url(#mask0_53_119948)">
<path d="M29.8095 -258.977H31.6895V980.234H29.8095V-258.977Z" fill="#39FF77"/>
<path d="M36.1806 -258.977H38.0605V980.234H36.1806V-258.977Z" fill="#39FF77"/>
<path d="M42.5497 -258.977H44.4297V980.234H42.5497V-258.977Z" fill="#39FF77"/>
<path d="M48.9287 -258.977H50.8086V980.234H48.9287V-258.977Z" fill="#39FF77"/>
<path d="M55.2978 -258.977H57.1777V980.234H55.2978V-258.977Z" fill="#39FF77"/>
<path d="M61.6747 -258.977H63.5547V980.234H61.6747V-258.977Z" fill="#39FF77"/>
<path d="M68.0457 -258.977H69.9258V980.234H68.0457V-258.977Z" fill="#39FF77"/>
<path d="M74.415 -258.977H76.2949V980.234H74.415V-258.977Z" fill="#39FF77"/>
<path d="M80.7939 -258.977H82.6738V980.234H80.7939V-258.977Z" fill="#39FF77"/>
<path d="M87.165 -258.977H89.0449V980.234H87.165V-258.977Z" fill="#39FF77"/>
<path d="M93.5438 -258.977H95.4238V980.234H93.5438V-258.977Z" fill="#39FF77"/>
<path d="M99.913 -258.977H101.793V980.234H99.913V-258.977Z" fill="#39FF77"/>
<path d="M106.284 -258.977H108.164V980.234H106.284V-258.977Z" fill="#39FF77"/>
<path d="M112.661 -258.977H114.541V980.234H112.661V-258.977Z" fill="#39FF77"/>
<path d="M119.03 -258.977H120.91V980.234H119.03V-258.977Z" fill="#39FF77"/>
<path d="M125.409 -258.977H127.289V980.234H125.409V-258.977Z" fill="#39FF77"/>
<path d="M131.778 -258.977H133.658V980.234H131.778V-258.977Z" fill="#39FF77"/>
<path d="M138.149 -258.977H140.029V980.234H138.149V-258.977Z" fill="#39FF77"/>
<path d="M144.528 -258.977H146.408V980.234H144.528V-258.977Z" fill="#39FF77"/>
<path d="M150.899 -258.977H152.779V980.234H150.899V-258.977Z" fill="#39FF77"/>
<path d="M157.276 -258.977H159.156V980.234H157.276V-258.977Z" fill="#39FF77"/>
<path d="M163.645 -258.977H165.525V980.234H163.645V-258.977Z" fill="#39FF77"/>
<path d="M170.014 -258.977H171.895V980.234H170.014V-258.977Z" fill="#39FF77"/>
<path d="M176.393 -258.977H178.273V980.234H176.393V-258.977Z" fill="#39FF77"/>
<path d="M182.765 -258.977H184.645V980.234H182.765V-258.977Z" fill="#39FF77"/>
<path d="M189.143 -258.977H191.023V980.234H189.143V-258.977Z" fill="#39FF77"/>
<path d="M195.514 -258.977H197.395V980.234H195.514V-258.977Z" fill="#39FF77"/>
<path d="M201.884 -258.977H203.764V980.234H201.884V-258.977Z" fill="#39FF77"/>
<path d="M208.261 -258.977H210.141V980.234H208.261V-258.977Z" fill="#39FF77"/>
<path d="M214.63 -258.977H216.51V980.234H214.63V-258.977Z" fill="#39FF77"/>
<path d="M221.009 -258.977H222.889V980.234H221.009V-258.977Z" fill="#39FF77"/>
<path d="M227.38 -258.977H229.26V980.234H227.38V-258.977Z" fill="#39FF77"/>
<path d="M233.749 -258.977H235.629V980.234H233.749V-258.977Z" fill="#39FF77"/>
<path d="M240.13 -258.977H242.01V980.234H240.13V-258.977Z" fill="#39FF77"/>
<path d="M246.499 -258.977H248.379V980.234H246.499V-258.977Z" fill="#39FF77"/>
<path d="M252.878 -258.977H254.758V980.234H252.878V-258.977Z" fill="#39FF77"/>
<path d="M259.245 -258.977H261.125V980.234H259.245V-258.977Z" fill="#39FF77"/>
<path d="M265.618 -258.977H267.498V980.234H265.618V-258.977Z" fill="#39FF77"/>
<path d="M271.995 -258.977H273.875V980.234H271.995V-258.977Z" fill="#39FF77"/>
<path d="M278.364 -258.977H280.244V980.234H278.364V-258.977Z" fill="#39FF77"/>
<path d="M284.745 -258.977H286.625V980.234H284.745V-258.977Z" fill="#39FF77"/>
<path d="M291.114 -258.977H292.994V980.234H291.114V-258.977Z" fill="#39FF77"/>
<path d="M297.483 -258.977H299.363V980.234H297.483V-258.977Z" fill="#39FF77"/>
<path d="M303.862 -258.977H305.742V980.234H303.862V-258.977Z" fill="#39FF77"/>
<path d="M310.233 -258.977H312.113V980.234H310.233V-258.977Z" fill="#39FF77"/>
<path d="M316.602 -258.977H318.482V980.234H316.602V-258.977Z" fill="#39FF77"/>
<path d="M322.979 -258.977H324.859V980.234H322.979V-258.977Z" fill="#39FF77"/>
<path d="M329.349 -258.977H331.229V980.234H329.349V-258.977Z" fill="#39FF77"/>
<path d="M335.729 -258.977H337.609V980.234H335.729V-258.977Z" fill="#39FF77"/>
<path d="M342.099 -258.977H343.979V980.234H342.099V-258.977Z" fill="#39FF77"/>
<path d="M348.47 -258.977H350.35V980.234H348.47V-258.977Z" fill="#39FF77"/>
<path d="M354.849 -258.977H356.729V980.234H354.849V-258.977Z" fill="#39FF77"/>
<path d="M361.218 -258.977H363.098V980.234H361.218V-258.977Z" fill="#39FF77"/>
<path d="M367.595 -258.977H369.475V980.234H367.595V-258.977Z" fill="#39FF77"/>
<path d="M373.964 -258.977H375.844V980.234H373.964V-258.977Z" fill="#39FF77"/>
<path d="M380.335 -258.977H382.215V980.234H380.335V-258.977Z" fill="#39FF77"/>
<path d="M386.714 -258.977H388.594V980.234H386.714V-258.977Z" fill="#39FF77"/>
<path d="M393.085 -258.977H394.965V980.234H393.085V-258.977Z" fill="#39FF77"/>
<path d="M399.464 -258.977H401.344V980.234H399.464V-258.977Z" fill="#39FF77"/>
<path d="M405.833 -258.977H407.713V980.234H405.833V-258.977Z" fill="#39FF77"/>
<path d="M412.202 -258.977H414.082V980.234H412.202V-258.977Z" fill="#39FF77"/>
<path d="M418.579 -258.977H420.459V980.234H418.579V-258.977Z" fill="#39FF77"/>
<path d="M424.95 -258.977H426.83V980.234H424.95V-258.977Z" fill="#39FF77"/>
<path d="M431.329 -258.977H433.209V980.234H431.329V-258.977Z" fill="#39FF77"/>
<path d="M437.7 -258.977H439.58V980.234H437.7V-258.977Z" fill="#39FF77"/>
<path d="M444.069 -258.977H445.949V980.234H444.069V-258.977Z" fill="#39FF77"/>
<path d="M450.448 -258.977H452.328V980.234H450.448V-258.977Z" fill="#39FF77"/>
<path d="M456.817 -258.977H458.697V980.234H456.817V-258.977Z" fill="#39FF77"/>
<path d="M463.188 -258.977H465.068V980.234H463.188V-258.977Z" fill="#39FF77"/>
<path d="M469.565 -258.977H471.445V980.234H469.565V-258.977Z" fill="#39FF77"/>
<path d="M475.935 -258.977H477.814V980.234H475.935V-258.977Z" fill="#39FF77"/>
<path d="M482.313 -258.977H484.193V980.234H482.313V-258.977Z" fill="#39FF77"/>
<path d="M488.685 -258.977H490.564V980.234H488.685V-258.977Z" fill="#39FF77"/>
<path d="M495.054 -258.977H496.934V980.234H495.054V-258.977Z" fill="#39FF77"/>
<path d="M501.433 -258.977H503.312V980.234H501.433V-258.977Z" fill="#39FF77"/>
<path d="M507.804 -258.977H509.684V980.234H507.804V-258.977Z" fill="#39FF77"/>
<path d="M514.181 -258.977H516.061V980.234H514.181V-258.977Z" fill="#39FF77"/>
<path d="M520.55 -258.977H522.43V980.234H520.55V-258.977Z" fill="#39FF77"/>
<path d="M526.919 -258.977H528.799V980.234H526.919V-258.977Z" fill="#39FF77"/>
<path d="M533.298 -258.977H535.178V980.234H533.298V-258.977Z" fill="#39FF77"/>
<path d="M539.669 -258.977H541.549V980.234H539.669V-258.977Z" fill="#39FF77"/>
<path d="M546.048 -258.977H547.928V980.234H546.048V-258.977Z" fill="#39FF77"/>
<path d="M552.419 -258.977H554.299V980.234H552.419V-258.977Z" fill="#39FF77"/>
<path d="M558.788 -258.977H560.668V980.234H558.788V-258.977Z" fill="#39FF77"/>
<path d="M565.165 -258.977H567.045V980.234H565.165V-258.977Z" fill="#39FF77"/>
<path d="M571.534 -258.977H573.414V980.234H571.534V-258.977Z" fill="#39FF77"/>
<path d="M577.913 -258.977H579.793V980.234H577.913V-258.977Z" fill="#39FF77"/>
<path d="M584.284 -258.977H586.164V980.234H584.284V-258.977Z" fill="#39FF77"/>
<path d="M590.655 -258.977H592.535V980.234H590.655V-258.977Z" fill="#39FF77"/>
<path d="M597.034 -258.977H598.914V980.234H597.034V-258.977Z" fill="#39FF77"/>
<path d="M603.403 -258.977H605.283V980.234H603.403V-258.977Z" fill="#39FF77"/>
<path d="M609.78 -258.977H611.66V980.234H609.78V-258.977Z" fill="#39FF77"/>
<path d="M616.151 -258.977H618.031V980.234H616.151V-258.977Z" fill="#39FF77"/>
<path d="M622.522 -258.977H624.402V980.234H622.522V-258.977Z" fill="#39FF77"/>
<path d="M628.899 -258.977H630.779V980.234H628.899V-258.977Z" fill="#39FF77"/>
<path d="M635.268 -258.977H637.148V980.234H635.268V-258.977Z" fill="#39FF77"/>
<path d="M641.649 -258.977H643.529V980.234H641.649V-258.977Z" fill="#39FF77"/>
<path d="M648.018 -258.977H649.898V980.234H648.018V-258.977Z" fill="#39FF77"/>
<path d="M654.388 -258.977H656.268V980.234H654.388V-258.977Z" fill="#39FF77"/>
<path d="M660.767 -258.977H662.646V980.234H660.767V-258.977Z" fill="#39FF77"/>
<path d="M667.138 -258.977H669.018V980.234H667.138V-258.977Z" fill="#39FF77"/>
<path d="M673.515 -258.977H675.395V980.234H673.515V-258.977Z" fill="#39FF77"/>
<path d="M679.884 -258.977H681.764V980.234H679.884V-258.977Z" fill="#39FF77"/>
<path d="M686.253 -258.977H688.133V980.234H686.253V-258.977Z" fill="#39FF77"/>
<path d="M692.634 -258.977H694.514V980.234H692.634V-258.977Z" fill="#39FF77"/>
<path d="M699.003 -258.977H700.883V980.234H699.003V-258.977Z" fill="#39FF77"/>
<path d="M705.382 -258.977H707.262V980.234H705.382V-258.977Z" fill="#39FF77"/>
<path d="M711.753 -258.977H713.633V980.234H711.753V-258.977Z" fill="#39FF77"/>
<path d="M718.122 -258.977H720.002V980.234H718.122V-258.977Z" fill="#39FF77"/>
<path d="M724.499 -258.977H726.379V980.234H724.499V-258.977Z" fill="#39FF77"/>
<path d="M730.868 -258.977H732.748V980.234H730.868V-258.977Z" fill="#39FF77"/>
<path d="M737.239 -258.977H739.119V980.234H737.239V-258.977Z" fill="#39FF77"/>
<path d="M743.618 -258.977H745.498V980.234H743.618V-258.977Z" fill="#39FF77"/>
<path d="M749.989 -258.977H751.869V980.234H749.989V-258.977Z" fill="#39FF77"/>
<path d="M756.368 -258.977H758.248V980.234H756.368V-258.977Z" fill="#39FF77"/>
<path d="M762.737 -258.977H764.617V980.234H762.737V-258.977Z" fill="#39FF77"/>
<path d="M769.106 -258.977H770.986V980.234H769.106V-258.977Z" fill="#39FF77"/>
<path d="M775.483 -258.977H777.363V980.234H775.483V-258.977Z" fill="#39FF77"/>
<path d="M781.854 -258.977H783.734V980.234H781.854V-258.977Z" fill="#39FF77"/>
<path d="M788.235 -258.977H790.115V980.234H788.235V-258.977Z" fill="#39FF77"/>
<path d="M794.604 -258.977H796.484V980.234H794.604V-258.977Z" fill="#39FF77"/>
<path d="M800.974 -258.977H802.854V980.234H800.974V-258.977Z" fill="#39FF77"/>
<path d="M807.352 -258.977H809.232V980.234H807.352V-258.977Z" fill="#39FF77"/>
<path d="M813.724 -258.977H815.604V980.234H813.724V-258.977Z" fill="#39FF77"/>
<path d="M820.099 -258.977H821.979V980.234H820.099V-258.977Z" fill="#39FF77"/>
<path d="M826.47 -258.977H828.35V980.234H826.47V-258.977Z" fill="#39FF77"/>
<path d="M832.839 -258.977H834.719V980.234H832.839V-258.977Z" fill="#39FF77"/>
<path d="M839.22 -258.977H841.1V980.234H839.22V-258.977Z" fill="#39FF77"/>
<path d="M845.589 -258.977H847.469V980.234H845.589V-258.977Z" fill="#39FF77"/>
<path d="M851.968 -258.977H853.848V980.234H851.968V-258.977Z" fill="#39FF77"/>
<path d="M858.339 -258.977H860.219V980.234H858.339V-258.977Z" fill="#39FF77"/>
<path d="M864.708 -258.977H866.588V980.234H864.708V-258.977Z" fill="#39FF77"/>
<path d="M871.085 -258.977H872.965V980.234H871.085V-258.977Z" fill="#39FF77"/>
<path d="M877.456 -258.977H879.336V980.234H877.456V-258.977Z" fill="#39FF77"/>
<path d="M883.835 -258.977H885.715V980.234H883.835V-258.977Z" fill="#39FF77"/>
<path d="M890.204 -258.977H892.084V980.234H890.204V-258.977Z" fill="#39FF77"/>
<path d="M896.575 -258.977H898.455V980.234H896.575V-258.977Z" fill="#39FF77"/>
<path d="M902.954 -258.977H904.834V980.234H902.954V-258.977Z" fill="#39FF77"/>
<path d="M909.323 -258.977H911.203V980.234H909.323V-258.977Z" fill="#39FF77"/>
<path d="M915.692 -258.977H917.572V980.234H915.692V-258.977Z" fill="#39FF77"/>
<path d="M922.071 -258.977H923.951V980.234H922.071V-258.977Z" fill="#39FF77"/>
<path d="M928.442 -258.977H930.322V980.234H928.442V-258.977Z" fill="#39FF77"/>
<path d="M934.819 -258.977H936.699V980.234H934.819V-258.977Z" fill="#39FF77"/>
<path d="M941.19 -258.977H943.07V980.234H941.19V-258.977Z" fill="#39FF77"/>
<path d="M947.559 -258.977H949.439V980.234H947.559V-258.977Z" fill="#39FF77"/>
<path d="M953.938 -258.977H955.818V980.234H953.938V-258.977Z" fill="#39FF77"/>
<path d="M960.308 -258.977H962.188V980.234H960.308V-258.977Z" fill="#39FF77"/>
<path d="M966.686 -258.977H968.566V980.234H966.686V-258.977Z" fill="#39FF77"/>
<path d="M973.058 -258.977H974.938V980.234H973.058V-258.977Z" fill="#39FF77"/>
<path d="M979.427 -258.977H981.307V980.234H979.427V-258.977Z" fill="#39FF77"/>
<path d="M985.806 -258.977H987.686V980.234H985.806V-258.977Z" fill="#39FF77"/>
<path d="M992.175 -258.977H994.055V980.234H992.175V-258.977Z" fill="#39FF77"/>
<path d="M998.554 -258.977H1000.43V980.234H998.554V-258.977Z" fill="#39FF77"/>
<path d="M1004.92 -258.977H1006.8V980.234H1004.92V-258.977Z" fill="#39FF77"/>
<path d="M1011.29 -258.977H1013.17V980.234H1011.29V-258.977Z" fill="#39FF77"/>
<path d="M1017.67 -258.977H1019.55V980.234H1017.67V-258.977Z" fill="#39FF77"/>
<path d="M1024.04 -258.977H1025.92V980.234H1024.04V-258.977Z" fill="#39FF77"/>
<path d="M1030.42 -258.977H1032.3V980.234H1030.42V-258.977Z" fill="#39FF77"/>
<path d="M1036.79 -258.977H1038.67V980.234H1036.79V-258.977Z" fill="#39FF77"/>
<path d="M1043.16 -258.977H1045.04V980.234H1043.16V-258.977Z" fill="#39FF77"/>
<path d="M1049.54 -258.977H1051.42V980.234H1049.54V-258.977Z" fill="#39FF77"/>
<path d="M1055.91 -258.977H1057.79V980.234H1055.91V-258.977Z" fill="#39FF77"/>
<path d="M1062.29 -258.977H1064.17V980.234H1062.29V-258.977Z" fill="#39FF77"/>
<path d="M1068.66 -258.977H1070.54V980.234H1068.66V-258.977Z" fill="#39FF77"/>
<path d="M1075.03 -258.977H1076.91V980.234H1075.03V-258.977Z" fill="#39FF77"/>
<path d="M1081.4 -258.977H1083.28V980.234H1081.4V-258.977Z" fill="#39FF77"/>
<path d="M1087.77 -258.977H1089.65V980.234H1087.77V-258.977Z" fill="#39FF77"/>
<path d="M1094.15 -258.977H1096.03V980.234H1094.15V-258.977Z" fill="#39FF77"/>
<path d="M1100.52 -258.977H1102.4V980.234H1100.52V-258.977Z" fill="#39FF77"/>
<path d="M1106.89 -258.977H1108.77V980.234H1106.89V-258.977Z" fill="#39FF77"/>
<path d="M1113.27 -258.977H1115.15V980.234H1113.27V-258.977Z" fill="#39FF77"/>
<path d="M1119.64 -258.977H1121.52V980.234H1119.64V-258.977Z" fill="#39FF77"/>
<path d="M1126.02 -258.977H1127.9V980.234H1126.02V-258.977Z" fill="#39FF77"/>
<path d="M1132.39 -258.977H1134.27V980.234H1132.39V-258.977Z" fill="#39FF77"/>
<path d="M1138.76 -258.977H1140.64V980.234H1138.76V-258.977Z" fill="#39FF77"/>
<path d="M1145.14 -258.977H1147.02V980.234H1145.14V-258.977Z" fill="#39FF77"/>
<path d="M1151.51 -258.977H1153.39V980.234H1151.51V-258.977Z" fill="#39FF77"/>
<path d="M1157.89 -258.977H1159.77V980.234H1157.89V-258.977Z" fill="#39FF77"/>
</g>
</svg>
