<svg width="840" height="646" viewBox="0 0 840 646" fill="none" xmlns="http://www.w3.org/2000/svg">
<mask id="mask0_53_126482" style="mask-type:luminance" maskUnits="userSpaceOnUse" x="-83" y="0" width="923" height="646">
<path d="M686.666 546.407C683.778 532.594 687.948 532.321 699.649 540.087C706.683 544.759 717.872 540.681 716.249 534.731C714.067 526.769 721.591 526.553 724.619 522.879C726.413 520.707 729.565 519.988 731.732 521.762C733.999 523.627 731.662 525.603 729.806 526.727C726.11 528.976 726.708 532.307 729.55 533.334C741.686 537.734 734.224 540.464 728.89 543.551C727.096 544.585 726.079 546.009 726.747 547.839C730.404 557.791 723.097 559.46 714.797 560.759C712.693 556.869 719.479 555.801 716.847 551.61C713.33 552.106 708.64 551.638 705.852 553.426C701.916 555.94 710.34 558.503 707.716 561.835C702.941 563.65 697.366 560.27 692.591 564.6C704.812 569.482 716.932 563.399 728.727 565.878C724.161 567.868 719.448 568.7 714.789 569.712C712.584 570.194 709.37 570.816 709.96 573.197C710.822 576.696 714.518 575.404 716.614 574.447C723.012 571.521 732.228 572.429 732.221 576.926C732.205 583.638 737.431 582.018 741.088 584.099C733.564 586.892 726.91 589.832 720.256 591.767C711.878 594.204 701.799 596.858 694.951 587.395C692.102 583.456 686.697 584.413 683.514 586.641C677.931 590.552 674.74 587.975 670.384 585.09C656.416 575.851 640.281 574.28 624.193 578.337C615.543 580.516 608.097 582.576 600.24 577.569C601.078 575.886 602.67 575.139 604.572 574.468C607.624 573.386 612.655 575.013 613.556 571.186C614.643 566.556 608.656 568.001 606.288 566.171C602.67 563.378 601.591 560.075 602.755 556.08C604.122 551.38 608.159 554.125 611.125 553.552C614.014 552.993 617.453 554.509 619.868 552.169C619.193 547.092 606.847 547.504 611.087 543.747C616.436 538.998 615.171 530.799 623.828 528.131C626.67 531.623 628.541 538.125 635.227 535.583C641.096 533.348 637.129 528.054 636.803 524.046C650.282 524.486 651.338 530.059 649.428 541.931C648.651 546.771 649.288 549.788 651.874 553.328C659.545 547.518 652.456 539.417 657.053 531.539C659.654 537.545 661.672 542.099 668.148 542.636C673.35 543.069 678.646 545.346 683.328 540.995C684.71 545.988 680.843 550.018 684.617 554.669C687.761 551.841 687.171 548.642 686.705 546.401L686.666 546.407ZM-48.4312 364.684C-48.2992 358.021 -44.0287 356.883 -40.0067 355.863C-33.1274 354.117 -34.4551 348.6 -34.5483 344.941C-34.657 340.75 -38.9352 339.968 -43.2601 342.357C-45.1002 343.376 -46.4901 343.083 -47.8566 341.086C-52.2824 334.612 -59.8606 335.066 -65.0007 338.355C-66.8875 339.563 -72.6332 349.389 -61.134 351.862C-59.5733 352.197 -58.8978 354.075 -60.1401 355.193C-61.0408 356.003 -62.9353 356.596 -64.1932 356.387C-68.3161 355.696 -70.7231 353.021 -72.8351 350.032C-74.4268 347.776 -76.9969 346.365 -79.6446 348.286C-82.5718 350.409 -79.4039 351.617 -77.8898 352.895C-74.4656 355.779 -74.0696 360.179 -77.1133 361.946C-83.8917 365.878 -82.4708 371.234 -82.269 376.465C-82.0826 381.249 -78.3867 379.252 -75.8244 378.379C-72.144 377.122 -68.5491 376.71 -67.0738 380.523C-65.5675 384.413 -69.7293 384.462 -72.509 385.474C-74.1783 386.082 -75.3974 387.569 -76.9192 388.547C-85.1392 393.813 -85.0254 399.134 -76.5776 404.512C-75.9875 404.889 -75.5604 405.49 -75.1567 406.048C-66.2275 418.319 -64.6668 418.34 -52.2281 407.543C-48.0275 403.904 -44.6577 399.183 -38.019 398.192C-34.4007 397.647 -34.393 395.196 -34.7424 392.674C-35.3713 388.1 -34.424 382.786 -30.8989 380.418C-21.5893 374.154 -28.5308 369.216 -31.9161 364.509C-36.0779 358.713 -42.1187 362.135 -48.439 364.691L-48.4312 364.684ZM4.55383 437.447C8.06339 432.642 13.3044 428.11 9.64735 420.581C8.6069 418.438 11.2313 414.988 12.1087 412.124C12.5513 410.679 13.5296 409.498 15.2378 409.82C17.4817 410.239 18.6154 411.978 17.3187 413.64C13.9489 417.97 15.4241 421.608 19.6636 424.199C24.0272 426.867 26.3333 422.3 29.6565 421.147C36.3184 418.829 33.7018 413.668 33.8804 409.764C34.0667 405.699 29.144 406.258 26.869 407.061C20.1139 409.456 16.1928 404.1 10.6956 403.206C7.43446 402.682 7.03848 399.749 7.9314 397.375C8.46715 395.943 9.95017 394.092 11.4254 393.743C16.0919 392.626 14.112 396.264 15.2223 397.94C17.1634 400.873 21.364 403.848 24.726 402.403C30.7901 399.791 32.343 393.429 31.5976 388.442C30.6426 382.101 30.4019 373.232 16.6354 378.379C10.649 380.621 2.48846 381.989 -4.88783 378.875C-6.83672 378.051 -9.87263 377.988 -10.8976 380.411C-11.6507 382.206 -11.9147 384.259 -9.84935 386.04C-7.13177 388.38 -4.4996 392.332 -2.14695 393.233C11.3167 398.359 -0.104881 403.304 -1.63449 408.109C-2.39541 410.49 -5.01205 410.686 -7.40352 409.645C-10.2686 408.395 -10.1832 406.062 -8.29644 404.652C-2.72929 400.496 -8.33527 398.192 -10.1987 395.489C-11.7439 393.247 -15.6417 393.834 -15.9134 395.489C-16.5268 399.134 -20.4945 403.492 -16.7287 406.425C-14.0267 408.528 -12.9396 408.877 -15.8513 411.195C-22.3347 416.363 -16.8296 423.005 -13.6229 424.15C-5.50122 427.041 -3.5368 434.87 4.55383 437.454V437.447ZM573.04 482.534C576.566 479.447 579.05 475.257 582.257 474.81C596.419 472.813 592.661 465.962 589.222 458.559C588.228 456.429 587.669 453.698 588.274 451.547C590.014 445.381 586.333 443.998 580.471 443.307C576.208 442.804 570.424 440.911 568.459 443.921C566.068 447.595 570.276 451.275 574.71 453.629C565.377 462.547 560.912 452.839 553.707 450.716C557.209 454.495 551.634 461.702 562.217 463.196C567.473 463.937 570.564 468.078 565.944 472.987C565.051 473.937 562.706 475.097 562.853 475.355C568.11 484.343 572.707 493.792 579.423 501.9C582.614 505.755 601.668 500.343 603.648 496.062C606.482 489.951 600.077 478.742 592.545 475.928C589.175 474.671 587.552 476.912 585.161 477.667C581.356 478.875 579.275 483.023 573.04 482.534ZM324.141 640.248C317.464 635.646 312.712 632.782 313.737 626.783C308.938 628.397 310.359 632.252 307.944 633.844C304.854 635.883 301.213 637.189 297.292 635.82C293.922 634.647 292.462 632.363 294.186 629.269C300.615 617.704 288.254 613.675 281.53 608.8C279.068 607.012 277.834 606.991 278.688 604.303C279.456 601.893 279.845 599.386 276.017 598.674C274.215 598.339 272.282 598.527 270.411 598.478C270.434 600.762 270.124 603.094 270.535 605.329C271.653 611.405 277.872 613.382 286.312 616.852C279.588 617.034 276.351 617.125 273.128 617.216C272.53 621.015 276.553 620.77 278.105 622.474C280.186 624.758 280.994 632.161 279.099 635.003C278.036 636.602 277.135 639.361 278.012 640.632C279.767 643.167 281.778 641.868 282.756 639.522C283.152 638.565 284.41 637.203 284.837 638.02C288.052 644.138 296.088 639.878 298.868 642.322C308.558 650.849 314.327 641.575 324.133 640.255L324.141 640.248ZM539.451 490.489C535.949 493.771 531.555 496.474 529.582 500.161C527.742 503.597 526.43 505.392 522.105 504.044C520.288 503.478 517.462 502.291 518.735 500.769C520.91 498.164 519.714 493.394 525.739 492.912C528.084 492.724 531.081 495.112 533.084 492.186C518.79 486.899 511.833 489.05 505.404 500.713C500.605 509.408 497.639 509.778 491.047 502.41C489.518 500.699 487.18 498.464 486.024 501.355C484.114 506.16 487.592 510.958 489.502 515.344C490.589 517.844 494.728 518.012 499.122 516.377C512.912 511.244 525.747 503.478 541.835 503.716C544.056 503.751 547.829 500.72 548.225 498.695C548.924 495.133 545.267 496.425 542.573 496.257C538.271 495.985 544.001 491.823 539.436 490.482L539.451 490.489ZM508.587 534.388C516.53 525.002 502.981 529.039 500.404 526.93C495.426 522.858 488.081 528.271 481.349 528.124C478.329 528.061 477.964 533.592 478.399 537.07C479.245 543.816 501.25 555.347 508.292 552.791C510.769 551.89 510.435 550.584 509.674 548.789C507.756 544.298 508.347 539.619 508.587 534.388ZM580.223 413.786C581.053 409.338 590.014 407.92 583.422 403.01C577.955 398.946 573.048 392.528 565.02 394.162C559.484 395.293 559.212 401.362 560.757 405.413C564.911 416.28 582.358 424.709 596.986 423.27C592.584 418.403 589.486 412.753 580.223 413.786ZM192.401 508.877C186.973 502.193 177.268 500.517 182.54 491.62C183.736 489.595 176.569 486.55 172.873 486.284C166.871 485.851 172.601 489.665 171.506 491.026C169.068 494.078 165.978 496.578 162.135 498.422C152.095 503.241 151.753 506.775 159.068 514.143C162.251 517.348 171.165 523.319 156.482 523.319C154.176 523.319 152.46 524.597 153.617 526.532C155.348 529.437 156.536 533.034 161.125 533.767C163.532 534.151 165.776 534.395 166.25 531.385C167.135 525.722 168.175 520.26 164.324 514.799C162.173 511.747 160.093 507.431 163.183 504.282C166.351 501.048 170.909 502.661 175.086 504.086C179.908 505.727 184.955 506.845 192.401 508.87V508.877ZM268.936 574.713C257.902 569.153 251.823 571.276 249.051 584.217C245.937 573.672 238.879 570.138 234.306 564.782C230.09 559.844 223.762 559.111 216.937 559.76C216.626 563.329 217.169 567.505 221.828 567.554C233.025 567.673 234.834 575.397 238.072 581.675C241.372 588.058 247.257 589.916 253.251 584.951C257.677 581.284 261.381 576.989 268.928 574.713H268.936ZM607.142 125.246C606.327 125.861 605.636 126.441 605.03 126.978C605.915 126.678 606.661 126.147 607.142 125.246ZM-69.0382 186.117C-75.2421 185.914 -76.3524 181.71 -79.5048 178.4C-75.2498 177.205 -73.4795 182.01 -71.6471 180.683C-60.1013 172.352 -61.8716 184.804 -57.2828 187.269C-53.121 189.511 -54.4254 194.371 -50.9624 196.976C-47.8566 194.35 -49.1999 192.081 -50.4888 190.125C-52.0262 187.793 -53.0201 185.942 -49.4872 184.357C-46.1174 182.848 -44.58 183.889 -43.5551 186.829C-40.7133 195.021 -33.1662 191.18 -29.2063 189.476C-23.7012 187.108 -29.6023 183.128 -30.5107 179.859C-31.0465 177.925 -35.7906 177.359 -32.9721 173.958C-17.7226 179.531 -2.15471 183.505 14.5545 180.25C5.97474 172.373 -9.66299 173.776 -14.6012 160.472C-18.1186 166.876 -11.4488 168.971 -12.7921 173.511C-19.6715 172.023 -22.6763 168.846 -22.1328 162.882C-21.4883 155.758 -22.0707 151.023 -32.4596 157.022C-35.48 158.768 -42.6544 161.904 -46.8317 156.408C-50.3413 151.791 -47.0724 149.34 -42.5069 146.805C-38.9973 144.857 -43.4775 135.736 -47.4451 133.948C-52.6939 131.588 -58.727 135.505 -63.1294 131.965C-64.6047 130.777 -69.6672 131.252 -67.3145 127.439C-66.3284 125.84 -66.2353 123.158 -62.8422 123.633C-53.7421 124.904 -46.6376 118.207 -37.6929 119.897C-37.5687 113.828 -44.7664 117.802 -45.8922 114.163C-40.2707 110.525 -40.0378 100.964 -29.3693 103.171C-29.051 103.234 -27.995 101.041 -27.4981 99.8325C-23.9186 91.2006 -14.5935 92.9465 -7.62093 92.8697C-2.90786 92.8208 -5.24499 91.6266 -3.91726 90.1111C2.97763 82.2125 -5.07417 78.6369 -9.11172 73.5178C-1.55685 69.2996 6.23873 67.2045 15.9832 67.1067C8.70785 60.2347 11.4565 51.2955 16.6121 51.6308C23.5303 52.0777 32.9021 49.0537 39.0438 55.835C41.0393 58.0348 44.5799 60.9331 48.0506 58.5027C51.0167 56.4286 46.1794 54.543 46.1173 52.5386C45.9853 48.4112 46.7151 44.2629 47.0878 40.1215C49.9685 44.5981 47.5692 50.3318 53.8197 53.3278C55.9627 54.3544 57.4146 57.6857 60.4661 54.976C62.7489 52.9507 62.5004 50.7159 59.6974 48.9071C56.9177 47.1123 55.3182 45.0451 58.6958 40.9666C65.4509 49.1585 74.5432 47.3776 82.8046 44.3956C90.2352 41.7138 96.245 41.2809 102.146 48.6417C103.458 42.3424 102.457 33.2286 111.875 40.2123C118.615 45.2127 119.546 42.07 122.567 38.0404C123.933 36.2107 123.211 31.4058 128.103 33.0261C136.737 35.8824 145.759 30.889 154.945 35.4285C158.92 37.3909 164.891 34.9815 161.964 42.0491C161.211 43.8579 161.793 45.4501 164.084 46.1206C166.032 46.6932 168.719 46.7421 168.991 44.8426C170.567 34.0876 185.18 31.9157 188.239 22.1734C189.21 19.0865 192.036 15.7483 195.631 18.2066C198.814 20.3855 195.406 22.9625 192.61 24.3942C190.778 25.337 189.015 26.6709 190.436 28.333C192.284 30.484 194.536 29.4015 196.027 27.5718C196.889 26.5102 197.021 24.897 199.862 25.1554C199.746 30.6586 204.164 32.9423 209.242 35.212C212.006 28.8498 202.394 25.4697 206.517 19.2122C209.801 14.2189 214.716 11.3206 219.53 7.92654C226.099 3.29633 226.844 10.5175 230.517 11.6628C236.146 13.4227 233.56 15.0918 230.431 16.8797C229.018 17.6828 228.529 19.1005 230.02 20.2458C231.953 21.7334 233.793 21.5658 236.325 20.5601C242.707 18.039 237.645 12.5637 240.253 8.95313C248.717 17.152 255.549 18.3672 266.288 14.3725C270.232 12.9059 270.201 7.15135 275.644 7.83575C291.717 9.875 308.434 7.26308 324.91 14.3586C325.415 8.80649 325.811 4.40674 326.207 0C326.89 6.49487 333.474 8.86235 337.054 12.7174C339.81 15.6785 344.647 16.3629 347.287 13.1923C356.015 2.73063 357.164 10.4826 359.19 16.4746C363.523 17.3825 363.802 5.32859 370.938 13.9046C371.497 14.5751 377.491 14.184 377.305 11.3346C377.049 7.45862 377.887 7.31895 381.513 8.54809C386.335 10.1893 383.796 11.7187 381.832 13.5554C376.878 18.1717 382.15 22.2083 384.448 24.897C386.77 27.6137 391.374 25.9655 393.502 22.1384C394.496 20.3506 396.01 20.4414 398.083 21.9918C406.367 28.1933 413.511 26.9363 418.961 18.8421C421.772 14.6728 424.296 18.905 426.936 18.9748C429.723 19.0446 431.183 21.1607 431.152 23.179C431.105 26.1541 427.572 24.9249 425.709 25.7839C424.016 26.5661 422.393 27.4531 420.74 28.2981C418.301 29.5552 413.472 27.6137 413.379 31.5735C413.332 33.5499 415.32 36.0989 417.246 37.4747C420.46 39.7724 423.861 36.916 425.336 35.4285C431.09 29.625 433.365 32.6071 435.368 37.7471C436.113 39.6606 436.595 42.2027 439.196 42.3843C442.457 42.6078 443.73 40.1704 444.196 37.6982C444.538 35.9243 445.167 34.4368 447.519 33.2984C450.02 35.3447 451.767 37.796 455.866 39.2835C464.167 42.3005 471.628 47.9294 474.765 56.3378C477.188 62.8327 481.474 67.8051 490.279 67.7911C494.138 67.7911 496.583 70.2634 499.751 71.3389C503.005 72.4493 508.09 69.4812 509.729 74.2301C511.266 78.6997 502.453 74.6212 503.657 79.2863C503.913 80.2711 504.138 81.3815 504.806 82.1427C508.479 86.3469 504.161 88.8191 501.327 92.2901C505.567 92.2482 508.882 92.2202 512.361 92.1853C511.623 94.3223 510.87 96.2079 510.326 98.1285C506.033 113.171 509.806 118.954 527.835 121.587C533.247 122.376 532.09 126.992 535.887 128.424C539.016 122.523 541.882 117.117 544.607 111.97C550.826 112.613 552.69 120.316 560.454 117.005C572.815 111.726 581.822 116.475 584.586 128.375C585.324 131.553 588.903 133.697 592.63 134.842C593.679 135.163 595.581 134.912 595.162 133.759C591.512 123.689 600.348 128.55 605.046 126.957C595.558 135.505 611.428 134.891 612.018 139.989C605.349 141.63 595.2 140.045 596.668 150.332C604.611 152.134 615.807 145.625 620.257 154.592C623.471 161.08 613.4 163.852 608.881 168.58C610.683 161.003 609.363 155.437 597.965 152.944C611.288 164.125 594.571 161.415 592.553 165.403C599.89 171.164 607.119 176.311 617.865 173.755C621.188 172.966 624.046 174.705 625.265 177.45C626.289 179.768 625.816 182.171 623.075 183.714C615.543 187.96 608.167 186.612 600.915 183.044C600.441 182.813 600.177 181.954 600.139 181.375C599.906 177.659 599.51 177.052 597.266 178.246C593.484 180.257 587.956 179.775 585.611 183.98C589.105 187.911 598.795 185.237 598.089 192.779C597.576 198.219 593.151 200.559 586.954 201.013C582.568 201.334 585.402 203.743 585.883 205.378C586.621 207.906 587.653 209.149 590.208 206.453C593.399 203.087 598.531 203.345 601.66 204.812C605.675 206.691 602.336 209.512 600.604 212.187C598.85 214.89 600.589 217.76 602.988 220.477C610.147 228.592 616.297 219.164 623.122 219.995C629.061 220.721 633.254 216.95 636.049 212.69C642.494 202.85 657.278 201.062 667.511 209.023C668.816 210.043 669.266 211.174 668.909 212.606C661.634 210.588 656.858 219.841 652.347 217.613C642.409 212.704 642.719 220.917 638.472 223.5C633.355 226.615 626.919 227.104 620.878 228.228C620.73 228.256 620.575 228.878 620.668 229.164C623.688 238.536 616.584 235.121 612.445 233.648C608.237 232.146 605.535 233.941 602.903 235.666C599.37 237.992 595.884 240.213 591.295 239.284C585.138 238.041 585.378 242.112 584.478 245.143C583.274 249.173 586.131 250.318 590.006 251.345C592.879 252.106 596.73 252.008 597.988 254.124C596.287 260.235 590.13 252.127 588.368 258.405C590.984 260.507 597.188 258.273 597.972 262.1C600.449 274.154 607.794 264.411 612.748 264.802C613.952 264.893 615.963 259.753 616.553 262.805C617.679 268.629 631.181 267.372 625.684 274.391C621.219 280.083 627.268 279.133 628.712 279.056C632.555 278.854 636.329 277.59 640.126 276.744C630.63 276.109 629.263 268.888 625.218 264.376C624.713 263.818 625.047 262.218 625.645 261.534C626.173 260.926 627.61 260.933 628.65 260.661C631.158 270.368 644.591 266.45 649.568 274.3C650.08 268.357 639.373 264.097 648.116 258.657C654.552 268.371 655.958 268.448 663.132 259.809C665.842 256.541 669.289 255.612 673.009 258.705C675.423 260.71 677.551 262.973 680.168 265.459C671.495 270.159 661.649 270.717 650.81 274.852C657.829 276.57 662.651 278.777 667.278 276.584C674.678 273.092 680.268 276.619 684.842 280.187C688.258 282.862 689.718 286.612 695.774 284.978C697.148 284.608 699.889 288.051 702.009 289.741C687.109 292.674 699.672 301.516 695.394 307.801C700.216 306.509 703.213 305.776 706.148 304.896C708.989 304.044 711.761 302.13 714.634 304.861C706.38 313.968 706.722 318.605 716.8 325.777C722.531 329.856 716.133 331.127 713.881 332.936C718.346 335.422 724.41 330.673 724.014 332.824C722.655 340.178 740.474 337.147 732.896 346.414C743.409 351.568 737.974 361.939 742.905 368.776C747.765 362.847 765.608 359.9 771.284 365.41C774.786 368.818 775.523 368.189 779.056 366.262C782.139 364.579 786.402 364.216 790.222 363.922C797.66 363.35 805.619 362.749 802.288 373.295C807.187 373.078 810.13 369.803 814.882 370.166C821.645 370.683 825.007 373.846 822.607 379.412C821.497 381.989 823.221 382.59 825.139 382.681C830.302 382.918 834.184 387.262 840 385.712C836.506 388.673 832.608 390.782 828.508 388.736C825.62 387.29 823.749 384.112 819.75 384.503C809.183 385.537 799.135 383.33 789.639 379.831C779.491 376.088 774.359 386.717 765.336 385.237C768.978 394.602 758.077 390.677 754.187 393.387C757.339 396.446 759.893 398.932 763.271 402.207C756.43 403.353 754.583 408.988 749.427 411.6C747.851 404.735 744.574 401.809 737.656 406.614C735.226 408.304 730.683 408.863 731.53 406.628C735.249 396.767 724.192 402.417 721.956 399.03C724.969 396.578 729.697 401.16 732.586 396.53C728.362 392.612 725.691 385.314 717.453 393.24C715.224 395.384 712.328 392.807 709.797 392.821C697.102 392.884 683.359 391.026 677.403 404.91C676.44 407.166 673.777 407.529 671.588 406.251C669.693 405.147 670.897 403.332 670.827 401.865C670.4 392.821 677.046 390.531 687 389.441C676.316 382.262 665.089 386.012 653.675 383.756C658.737 380.432 661.362 377.359 666.028 377.82C664.452 374.971 663.489 372.003 658.745 371.123C654.731 370.382 654.25 367.743 656.284 364.076C658.66 359.795 663.28 360.801 666.999 360.249C665.376 355.444 660.779 356.708 658.077 355.067C640.662 344.473 621.91 338.662 600.48 342.566C597.654 343.083 593.686 343.083 593.158 346.519C592.654 349.794 596.35 352.141 598.679 352.364C608.462 353.321 607.321 359.781 609.728 365.675C602.212 365.11 602.064 353.237 591.932 359.495C585.161 363.678 596.52 365.298 590.883 369.272C580.269 359.949 562.869 379.245 552.985 361.408C552.263 364.816 551.719 367.379 550.787 371.793C549.693 366.339 543.372 368.734 543.194 365.361C542.557 352.735 539.389 350.898 527.152 356.897C524.8 358.049 522.509 360.535 520.956 356.506C520.009 354.047 519.201 351.575 515.606 352.734C511.949 353.915 508.378 355.779 508.362 359.816C508.323 371.43 500.497 369.691 491.894 367.715C492.934 364.286 495.481 363.636 498.338 363.454C504.433 363.063 505.481 359.257 506.157 355.004C506.436 353.251 507.213 351.61 504.363 351.065C499.495 350.137 497.018 352.56 493.951 355.479C491.428 357.875 488.299 363.161 482.63 356.24C478.989 351.792 471.434 352.511 464.586 356.946C470.471 359.09 475.34 360.375 479.54 362.616C481.497 363.657 482.219 366.527 483.275 368.65C483.36 368.825 481.769 370.075 480.977 370.054C479.152 370.005 476.815 366.737 475.736 370.396C475.052 372.694 478.391 373.176 479.664 374.503C485.612 380.697 492.344 372.464 499.309 375.55C492.445 378.875 489.386 381.633 498.074 385.16C501.001 386.347 503.719 389.225 501.646 392.807C501.056 393.834 498.416 395.258 498.323 394.399C497.732 389.05 490.24 391.292 488.578 386.948C484.797 377.108 476.869 377.108 467.56 380.802C462.916 382.639 458.157 385.733 453.25 380.572C452.131 379.391 448.769 380.118 449.36 382.38C452.263 393.54 441.51 392.137 434.956 394.623C440.795 392.325 443.637 388.428 436.812 385.411C428.31 381.647 433.963 379.266 436.983 377.073C441.867 373.518 442.977 370.871 435.663 369.454C429.071 368.176 433.706 366.269 434.211 363.832C434.56 362.163 430.422 361.136 427.533 361.178C423.015 361.248 419.202 362.058 417.028 366.101C413.464 372.743 420.017 386.738 428.1 389.301C418.868 397.549 406.717 398.597 394.542 399.1C390.831 399.253 388.626 403.82 384.363 401.257C383.276 404.966 387.608 405.399 389.247 407.459C391.56 410.371 392.345 414.073 391.18 417.152C387.849 425.952 382.911 433.683 371.163 436.12C367.009 436.979 360.665 436.386 360.176 441.819C359.547 448.824 354.819 446.938 350.564 445.702C349.034 445.262 347.21 442.343 346.022 444.054C340.058 452.63 340.742 444.277 340.136 442.182C339.391 439.584 337.256 438.118 335.462 436.511C333.661 434.898 330.811 432.852 328.746 433.089C325.352 433.473 326.626 436.93 326.284 439.102C325.236 445.702 325.981 452.888 323.209 458.838C323.629 460.361 320.515 461.779 318.745 462.072C316.975 462.365 315.041 462.177 313.488 462.952C310.118 464.642 311.143 469.174 313.364 471.975C314.816 473.805 316.687 475.956 315.709 478.002C315.259 478.938 314.296 479.587 313.372 480.195C308.969 483.086 304.342 486.068 298.899 486.899C293.456 487.73 286.98 485.656 285.156 481.103C284.534 479.552 284.426 477.736 283.075 476.584C281.157 474.943 277.671 475.739 276.11 477.632C274.549 479.524 274.464 482.038 274.72 484.357C267.794 483.156 260.239 485.432 255.666 490.091C254.136 485.467 252.684 480.244 255.441 476.095C256.171 475.006 257.165 474.042 257.716 472.876C258.275 471.709 257.63 469.496 256.536 468.658C257.351 466.074 257.196 463.273 257.669 460.598C258.034 458.559 257.343 457.393 254.913 457.016C252.102 456.583 252.18 458.161 251.574 459.893C248.616 468.253 245.324 476.521 242.187 484.832C240.937 488.156 239.267 492.311 234.834 491.473C229.996 490.559 231.115 486.068 230.587 482.388C229.554 475.229 235.703 467.959 228.521 460.668C224.476 456.562 216.145 452.895 220.664 444.927C221.456 443.53 219.771 441.966 217.597 441.218C213.629 439.857 185.04 445.681 184.659 448.866C183.332 459.97 174.325 451.82 169.62 453.95C164.379 456.324 160.613 462.288 152.941 458.734C151.552 458.091 149.044 459.516 148.71 456.764C147.91 450.207 140.293 449.753 137.288 446.1C133.934 447.609 139.416 450.311 133.336 451.673C135.984 443.272 126.464 442.308 122.225 438.02C124.275 435.576 129.563 437.643 128.895 434.291C127.668 428.138 121.751 424.932 116.006 421.95C113.575 426.099 103.21 424.632 106.098 432.531C108.288 438.53 102.154 438.76 98.8539 439.053C95.453 439.354 92.5413 436.749 93.3643 432.845C94.001 429.842 94.4358 426.804 95.1735 423.822C95.6316 421.964 100.244 420.421 95.6859 418.291C94.3815 417.683 92.4404 417.034 91.299 417.453C88.2009 418.591 88.1 421.238 89.0473 423.571C90.5536 427.3 89.2414 430.065 86.0036 432.614C84.7845 429.926 85.1883 425.987 80.2501 426.203C79.2174 426.252 77.253 428.466 77.4781 428.808C80.6461 433.613 69.2788 433.285 72.9825 438.837C73.7124 439.933 68.1918 439.34 67.9588 437.95C67.0038 432.286 64.0844 433.124 59.0297 434.102C54.8446 434.912 50.1781 432.803 47.2198 428.306C55.9394 428.459 61.6152 418.696 71.5616 424.004C72.6331 424.576 73.9142 423.368 73.4872 422.355C69.4885 412.941 78.0217 409.834 84.4352 405.79C87.2148 404.037 86.3607 400.231 85.4523 400.838C77.8508 405.923 75.1333 397.256 71.0802 397.437C66.965 397.619 65.1636 399.148 66.7398 394.595C69.768 385.851 65.0471 382.744 54.8989 383.386C58.5172 380.397 67.4619 380.383 64.0067 377.338C55.7686 370.075 64.1465 369.817 67.7104 367.75C70.6221 366.059 74.978 365.305 72.8194 361.29C69.0304 354.236 74.8382 350.618 79.264 346.729C80.8712 345.311 84.0392 344.396 82.3232 342.322C76.6939 335.513 84.7224 334.046 87.0518 330.009C91.431 333.76 87.1838 341.365 92.2928 341.526C103.637 341.882 103.808 347.553 103.474 354.92C106.215 350.367 113.428 347.189 106.968 341.267C109.903 339.87 105.524 333.85 111.417 335.122C113.521 335.576 114.367 337.398 116.006 334.765C117.427 332.482 117.496 331.015 114.119 330.373C112.939 330.149 110.392 330.533 112.054 328.277C112.853 327.188 113.762 326.406 115.812 327.551C119.787 329.779 122.846 332.845 127.062 337.754C126.55 331.183 129.811 327.321 122.505 323.508C119.073 321.72 110.299 313.64 119.181 306.684C120.556 305.608 121.425 304.596 119.779 303.485C113.373 299.169 110.221 289.532 97.8755 293.792C99.5449 295.594 101.121 297.291 102.69 299.002C104.592 301.069 105.92 292.695 107.736 298.75C108.435 301.062 105.159 303.248 103.559 302.731C97.0758 300.629 86.3763 319.876 83.519 299.763C83.4335 299.162 80.5684 298.178 79.3572 298.478C74.45 299.693 74.5587 294.113 69.108 293.079C75.2032 301.425 70.6997 302.766 63.2769 302.947C60.6136 303.017 57.6942 307.131 55.1862 304.484C52.2745 301.418 55.5667 298.883 58.688 297.186C62.2442 295.251 62.5858 292.779 59.5188 290.649C55.326 287.737 54.8213 292.276 52.8491 293.708C49.4094 296.208 49.6812 302.787 40.9772 300.727C50.7527 295.035 44.2305 288.023 40.2007 285.893C24.9124 277.806 10.0201 289.748 -5.56333 288.449C-6.43296 288.379 -8.31973 290.307 -8.35079 291.341C-8.47502 295.789 -13.8403 296.487 -15.96 299.826C-19.0581 304.679 -27.863 299.539 -32.6382 303.911C-34.0513 300.182 -33.2438 297.004 -30.1303 294.057C-27.6301 291.69 -30.7747 289.259 -32.0636 290.139C-35.216 292.297 -41.3655 286.934 -40.4415 290.928C-38.943 297.374 -46.9171 300.755 -43.1048 307.208C-49.1067 305.664 -48.1905 299.91 -53.2607 299.463C-55.1475 301.572 -53.7577 303.206 -52.461 304.959C-50.6752 307.375 -47.1578 311.272 -51.0246 312.424C-54.6739 313.514 -55.264 319.52 -60.0625 316.817C-63.4167 314.925 -66.9806 312.627 -65.7461 307.836C-64.5348 303.164 -69.3255 299.77 -70.6533 295.531C-71.3288 293.366 -74.388 290.977 -70.9017 289.427C-63.6264 286.186 -69.2634 281.884 -69.3566 277.555C-65.1172 277.645 -59.6354 284.797 -57.1663 275.557C-55.6522 269.893 -50.9469 265.312 -44.5179 273.553C-42.6544 270.082 -42.8563 267.784 -44.6499 265.138C-49.7357 257.623 -46.6531 252.79 -37.4211 250.758C-35.1228 250.255 -33.4069 247.853 -33.5855 247.748C-41.3966 243.181 -36.14 236.427 -37.6385 230.882C-38.2442 228.641 -40.8608 227.293 -43.0892 228.48C-51.8864 233.152 -52.4299 228.892 -52.4688 222.676C-52.4843 220.127 -57.1275 217.837 -50.8926 215.504C-48.1672 214.484 -53.517 210.546 -54.2158 211.363C-59.5189 217.592 -65.4976 206.928 -71.2822 212.215C-72.9826 213.765 -75.2343 208.863 -73.6038 207.459C-71.3521 205.524 -68.1531 202.2 -64.6435 203.799C-58.3543 206.663 -52.0417 204.945 -45.4031 206.16C-47.647 199.679 -52.5076 200.07 -57.8962 200.133C-62.7102 200.189 -69.2401 200.328 -65.0395 192.772C-63.3779 189.776 -64.0457 186.277 -69.0382 186.11V186.117ZM671.425 380.795C677.722 372.568 688.786 369.908 696.426 363.308C698.965 361.115 704.292 361.359 708.5 360.459C708.291 355.249 702.964 354.892 699.555 352.63C697.11 351.003 692.288 350.521 693.414 346.205C694.307 342.783 697.669 342.028 701.473 341.309C698.329 336.309 693.049 338.977 687.8 336.909C693.111 345.695 684.686 350.611 683.995 358.447C678.995 355.528 674.973 350.395 669.662 355.961C669.794 358.601 672.675 358.447 674.484 359.46C681.169 363.196 681.301 368.294 674.15 370.417C669.367 371.835 668.07 374.768 666.308 377.876C666.331 377.876 666.354 377.876 666.385 377.883C665.555 382.332 669.421 383.407 671.417 380.795H671.425ZM532.277 302.361C538.294 303.422 539.428 305.476 531.516 308.974C538.139 310.057 542.301 304.868 544.925 308.912C547.301 312.578 551.222 317.634 542.425 321.706C554.39 321.392 561.689 324.22 564.173 334.5C564.36 325.638 572.909 319.995 571.814 311.544C571.689 310.609 573.196 309.268 574.322 308.59C574.865 308.262 576.861 308.772 577.202 309.345C578.235 311.077 579.866 313.123 578.049 314.994C568.545 324.751 574.927 325.288 584.912 324.36C586.986 324.164 591.077 325.435 591.186 326.308C592.413 335.862 602.243 330.903 606.544 333.69C617.648 340.89 620.8 331.846 628.021 328.717C622.011 325.763 612.756 331.001 612.523 320.812C612.43 316.908 607.134 321.517 604.572 319.576C609.145 313.577 616.483 313.751 623.875 313.255C619.1 311.998 616.025 308.737 610.411 308.96C601.932 309.296 584.92 294.546 583.546 287.087C583.321 285.879 583.189 284.015 582.335 283.637C575.595 280.697 575.548 280.788 580.091 275.292C573.444 280.083 564.5 280.055 557.395 284.029C557.915 284.992 558.055 285.851 558.575 286.103C561.231 287.367 566.247 285.942 565.524 290.956C565.315 292.416 563.513 294.239 563.187 293.561C561.075 289.238 553.598 294.106 552.666 288.645C551.929 284.308 549.467 281.312 544.436 279.503C545.585 286.096 541.346 290.691 533.737 291.92C530.39 292.458 528.022 294.392 527.121 297.109C525.925 300.734 528.891 301.76 532.277 302.354V302.361ZM472.164 275.976C472.195 277.478 473.321 278.651 475.052 278.546C480.301 278.225 483.415 281.34 487.134 283.721C495.535 289.099 497.818 289.148 509.845 283.421C503.315 288.868 503.874 292.353 507.205 295.957C508.836 297.724 511.406 299.47 512.718 298.003C515.715 294.644 524.45 295.67 522.393 288.554C520.917 283.463 523.713 284.58 526.989 286.138C529.404 287.29 531.477 286.564 533.146 284.832C534.28 283.658 534.365 282.366 533.278 281.165C531.353 279.049 528.923 280.313 526.834 280.725C520.591 281.961 515.016 282.569 512.912 275.334C512.555 274.098 509.899 272.512 508.339 272.526C497.29 272.645 486.249 273.12 475.208 273.546C473.585 273.609 472.125 274.328 472.156 275.969L472.164 275.976ZM477.42 152.595C478.298 155.13 481.14 157.756 483.904 159.048C487.639 160.787 488.345 158.098 488.066 155.381C495.527 155.018 504.62 152.12 510.101 154.815C521.205 160.284 518.673 152.671 520.11 148.712C525.413 151.233 530.359 153.572 535.297 155.919C538.294 157.344 540.53 156.233 542.402 154.257C543.768 152.818 543.714 151.247 542.79 149.543C541.082 146.4 539.078 147.301 536.539 148.761C534.451 149.962 532.168 150.311 531.368 147.266C529.21 139.046 521.321 139.018 514.178 138.564C509.814 138.292 505.132 137.915 502.927 134.877C499.41 130.03 506.499 130.638 508.37 128.452C509.224 127.453 509.744 125.889 509.597 124.646C509.294 122.083 506.871 122.984 505.124 123.081C500.644 123.333 496.164 123.661 492.072 123.933C490.24 127.034 499.976 128.438 492.771 131.588C492.266 131.804 491.816 132.796 491.948 133.306C494.487 143.208 494.565 143.292 482.863 148.705C480.581 149.759 476.411 149.661 477.428 152.602L477.42 152.595ZM369.921 324.604C374.277 325.295 375.154 322.251 375.985 318.828C378.112 310.057 389.588 314.275 394.791 309.407C394.86 309.345 396.902 310.315 397.034 310.951C397.99 315.623 399.573 320.623 406.243 316.922C411.935 313.765 417.797 309.359 413.488 301.788C410.141 295.908 406.01 291.334 397.415 292.472C393.843 292.947 393.618 295.573 393.121 297.821C391.25 306.244 385.217 310.727 375.635 310.287C368.663 309.966 369.059 313.821 367.491 317.271C372.398 319.324 363.911 323.661 369.921 324.611V324.604ZM291.732 140.212C293.355 141.393 302.641 137.265 305.569 133.766C310.134 128.326 301.197 124.904 299.295 119.764C305.374 119.492 307.121 125.386 313.015 125.763C312.106 122.348 311.306 119.359 310.515 116.384C310.647 116.447 310.771 116.517 310.887 116.586C310.802 116.461 310.724 116.335 310.639 116.209C315.507 116.88 318.232 123.843 324.599 120.016C333.777 114.491 344.244 110.05 347.551 99.5112C348.506 96.4803 347.714 94.1826 344.368 92.737C341.254 91.3891 338.785 91.1727 336.564 94.3363C333.715 98.4008 330.128 101.711 324.91 96.1521C323.613 94.7693 321.843 95.0556 321.206 96.4803C320.748 97.4929 321.105 99.176 321.843 100.119C323.233 101.893 328.707 102.004 324.234 105.845C320.073 109.414 318.419 105.301 315.888 104.03C313.985 103.08 312.285 101.83 309.536 100.112C308.208 106.341 307.479 111.363 310.654 116.202C310.592 116.195 310.53 116.181 310.468 116.174C310.483 116.244 310.507 116.307 310.522 116.377C308.604 115.455 305.211 115.253 305.801 113.109C308.736 102.416 298.254 99.5322 291.724 94.6087C289.62 93.0234 286.398 90.0134 282.586 92.5135C277.577 95.8099 284.565 97.5698 284.379 97.7863C274.875 108.855 296.453 114.554 289.48 124.66C286.258 123.822 283.867 119.429 278.362 119.534C277.935 128.864 284.744 135.114 291.74 140.205L291.732 140.212ZM241.372 257.092C254.439 264.684 249.602 274.838 246.985 284.762C246.574 286.319 248.756 286.731 250.176 287.011C252.56 287.478 254.882 287.136 256.644 285.579C263.632 279.384 261.311 252.427 252.684 248.258C245.378 244.731 246.286 254.25 241.216 254.494C241.278 255.856 241.014 256.876 241.372 257.085V257.092ZM155.589 147.95C157.227 145.674 159.634 146.428 161.863 146.4C164.744 146.365 164.06 148.656 164.984 149.962C167.461 153.447 156.793 151.798 162.057 154.641C168.16 157.937 174.55 160.535 178.766 165.85C180.513 164.586 182.524 163.524 183.937 162.023C186.119 159.69 182.548 158.901 181.67 158.712C176.476 157.616 177.392 150.856 171.017 150.318C169.985 150.227 166.98 143.32 170.45 139.542C173.013 136.756 172.989 133.564 172.508 129.569C178.215 131.525 180.327 134.996 179.714 139.046C178.937 144.158 174.783 137.691 172.469 140.422C174.395 144.186 176.615 148.083 178.355 152.134C179.449 154.69 181.608 155.039 183.922 154.711C193.185 153.384 202.774 148.872 210.772 157.546C211.517 158.356 212.845 157.714 213.349 156.61C217.123 148.397 225.78 152.476 232.543 151.03C232.116 147.008 226.169 146.142 225.936 141.951C225.858 140.478 223.335 139.835 221.091 140.115C217.364 140.576 223.156 146.945 217.278 145.08C214.32 144.144 219.367 140.087 216.222 138.103C210.725 134.639 203.527 133.124 200.406 126.971C199.187 124.562 196.112 122.146 200.344 120.218C204.63 118.27 207.13 112.194 212.27 113.695C222.17 116.579 232.07 120.833 239.197 127.32C243.103 130.868 248.888 137.705 240.238 143.551C238.53 144.703 237.606 146.749 234.888 150.206C243.212 147.112 249.315 144.619 256.256 143.614C264.618 142.405 269.464 130.212 267.406 119.324C265.278 108.087 258.236 99.602 247.249 93.4843C245.533 92.5275 243.584 91.3123 242.008 92.6742C235.859 97.9818 234.329 92.2132 232.07 89.4267C228.964 85.5857 228.009 80.2641 220.368 86.3469C216.067 89.7689 209.102 84.4822 202.79 84.6499C194.101 84.8873 192.447 88.1906 195.538 93.8335C197.688 97.7653 194.435 103.08 200.421 106.188C201.415 106.704 198.108 108.946 194.994 108.031C187.913 105.964 183.068 109.198 183.736 115.434C184.186 119.645 181.414 122.502 177.602 121.21C169.441 118.444 170.342 123.005 168.401 127.223C165.73 133.019 167.36 142.154 153.462 140.841C147.662 140.289 152.879 149.242 149.378 154.355C155.007 152.874 154.23 149.85 155.597 147.95H155.589ZM84.606 165.92C81.3604 153.803 72.1051 149.235 66.305 142.447C65.1559 141.099 61.1028 140.785 64.1465 138.257C66.173 136.574 68.6189 137.601 70.1019 139.472C72.5089 142.51 74.5432 145.89 80.9101 145.178C74.054 132.502 71.5305 133.389 55.621 135.422C44.6575 136.818 45.5737 140.226 50.8692 144.026C60.932 151.247 73.5027 155.528 84.606 165.92ZM30.6892 184.741C34.4627 180.425 24.5397 177.177 27.3893 177.387C34.9364 177.946 41.2023 170.676 47.8177 174.6C56.1723 179.559 64.2707 172.701 72.3613 175.536C73.0135 175.767 78.0838 171.22 76.5309 169.663C73.6968 166.82 74.8149 160.954 68.813 160.835C57.3215 160.598 51.6301 151.875 44.9448 146.596C31.7995 136.211 22.156 136.762 14.6244 150.472C8.84761 160.982 7.48106 170.396 14.7098 180.236C14.7797 180.222 14.8496 180.208 14.9272 180.194C19.4462 183.854 24.726 185.376 30.6892 184.755V184.741Z" fill="white"/>
</mask>
<g mask="url(#mask0_53_126482)">
<path d="M945.436 -46.809L790.961 801.658L795.574 802.337L950.049 -46.1296L945.436 -46.809Z" fill="#92FE9E"/>
<path d="M935.792 -48.1852L781.316 800.281L785.929 800.961L940.405 -47.5058L935.792 -48.1852Z" fill="#92FE9E"/>
<path d="M926.147 -49.5554L771.672 798.911L776.285 799.591L930.76 -48.8759L926.147 -49.5554Z" fill="#92FE9E"/>
<path d="M916.503 -50.9335L762.027 797.533L766.64 798.213L921.116 -50.2541L916.503 -50.9335Z" fill="#92FE9E"/>
<path d="M906.858 -52.3015L752.383 796.165L756.996 796.844L911.471 -51.622L906.858 -52.3015Z" fill="#92FE9E"/>
<path d="M897.221 -53.6852L742.746 794.781L747.359 795.461L901.834 -53.0058L897.221 -53.6852Z" fill="#92FE9E"/>
<path d="M887.587 -55.0556L733.111 793.411L737.724 794.091L892.2 -54.3762L887.587 -55.0556Z" fill="#92FE9E"/>
<path d="M877.942 -56.426L723.467 792.041L728.08 792.72L882.555 -55.7465L877.942 -56.426Z" fill="#92FE9E"/>
<path d="M868.3 -57.8029L713.824 790.664L718.437 791.343L872.912 -57.1235L868.3 -57.8029Z" fill="#92FE9E"/>
<path d="M858.663 -59.1777L704.188 789.289L708.8 789.968L863.276 -58.4983L858.663 -59.1777Z" fill="#92FE9E"/>
<path d="M849.02 -60.5554L694.545 787.911L699.158 788.591L853.633 -59.8759L849.02 -60.5554Z" fill="#92FE9E"/>
<path d="M839.376 -61.9245L684.9 786.542L689.513 787.221L843.989 -61.2451L839.376 -61.9245Z" fill="#92FE9E"/>
<path d="M829.731 -63.2949L675.256 785.172L679.869 785.851L834.344 -62.6154L829.731 -63.2949Z" fill="#92FE9E"/>
<path d="M820.102 -64.6779L665.627 783.789L670.24 784.468L824.715 -63.9985L820.102 -64.6779Z" fill="#92FE9E"/>
<path d="M810.458 -66.0475L655.982 782.419L660.595 783.098L815.071 -65.3681L810.458 -66.0475Z" fill="#92FE9E"/>
<path d="M800.815 -67.4243L646.34 781.042L650.953 781.722L805.428 -66.7448L800.815 -67.4243Z" fill="#92FE9E"/>
<path d="M791.171 -68.801L636.695 779.666L641.308 780.345L795.783 -68.1215L791.171 -68.801Z" fill="#92FE9E"/>
<path d="M781.532 -70.1701L627.057 778.296L631.669 778.976L786.145 -69.4907L781.532 -70.1701Z" fill="#92FE9E"/>
<path d="M771.889 -71.5468L617.414 776.92L622.027 777.599L776.502 -70.8674L771.889 -71.5468Z" fill="#92FE9E"/>
<path d="M762.253 -72.9104L607.779 775.549L612.392 776.229L766.866 -72.231L762.253 -72.9104Z" fill="#92FE9E"/>
<path d="M752.612 -74.3L598.137 774.167L602.75 774.846L757.225 -73.6206L752.612 -74.3Z" fill="#92FE9E"/>
<path d="M742.973 -75.6694L588.498 772.797L593.111 773.477L747.586 -74.99L742.973 -75.6694Z" fill="#92FE9E"/>
<path d="M733.329 -77.0388L578.854 771.428L583.466 772.107L737.942 -76.3593L733.329 -77.0388Z" fill="#92FE9E"/>
<path d="M723.686 -78.4152L569.211 770.051L573.824 770.731L728.299 -77.7358L723.686 -78.4152Z" fill="#92FE9E"/>
<path d="M714.039 -79.7864L559.564 768.673L564.177 769.353L718.651 -79.107L714.039 -79.7864Z" fill="#92FE9E"/>
<path d="M704.415 -81.1682L549.939 767.298L554.552 767.978L709.028 -80.4887L704.415 -81.1682Z" fill="#92FE9E"/>
<path d="M694.768 -82.5388L540.293 765.928L544.906 766.607L699.381 -81.8593L694.768 -82.5388Z" fill="#92FE9E"/>
<path d="M685.124 -83.9072L530.648 764.56L535.261 765.239L689.737 -83.2278L685.124 -83.9072Z" fill="#92FE9E"/>
<path d="M675.481 -85.2922L521.006 763.174L525.619 763.854L680.094 -84.6128L675.481 -85.2922Z" fill="#92FE9E"/>
<path d="M665.837 -86.655L511.363 761.805L515.976 762.484L670.45 -85.9756L665.837 -86.655Z" fill="#92FE9E"/>
<path d="M656.204 -88.037L501.729 760.43L506.341 761.109L660.817 -87.3576L656.204 -88.037Z" fill="#92FE9E"/>
<path d="M646.565 -89.4084L492.09 759.058L496.703 759.738L651.178 -88.729L646.565 -89.4084Z" fill="#92FE9E"/>
<path d="M636.921 -90.7849L482.445 757.682L487.058 758.361L641.533 -90.1054L636.921 -90.7849Z" fill="#92FE9E"/>
<path d="M627.278 -92.162L472.803 756.305L477.416 756.984L631.891 -91.4826L627.278 -92.162Z" fill="#92FE9E"/>
<path d="M617.638 -93.5237L463.164 754.936L467.777 755.615L622.251 -92.8443L617.638 -93.5237Z" fill="#92FE9E"/>
<path d="M607.997 -94.9074L453.521 753.559L458.134 754.239L612.61 -94.228L607.997 -94.9074Z" fill="#92FE9E"/>
<path d="M598.352 -96.2841L443.877 752.183L448.49 752.862L602.965 -95.6047L598.352 -96.2841Z" fill="#92FE9E"/>
<path d="M588.718 -97.6535L434.242 750.813L438.855 751.492L593.33 -96.9741L588.718 -97.6535Z" fill="#92FE9E"/>
<path d="M579.081 -99.03L424.605 749.437L429.218 750.116L583.694 -98.3506L579.081 -99.03Z" fill="#92FE9E"/>
<path d="M569.435 -100.4L414.961 748.06L419.574 748.739L574.048 -99.7203L569.435 -100.4Z" fill="#92FE9E"/>
<path d="M559.792 -101.777L405.316 746.689L409.929 747.369L564.405 -101.098L559.792 -101.777Z" fill="#92FE9E"/>
<path d="M550.147 -103.154L395.672 745.313L400.285 745.992L554.76 -102.474L550.147 -103.154Z" fill="#92FE9E"/>
<path d="M540.511 -104.523L386.035 743.944L390.648 744.623L545.123 -103.843L540.511 -104.523Z" fill="#92FE9E"/>
<path d="M530.868 -105.905L376.393 742.561L381.005 743.24L535.481 -105.226L530.868 -105.905Z" fill="#92FE9E"/>
<path d="M521.23 -107.269L366.756 741.19L371.369 741.87L525.843 -106.59L521.23 -107.269Z" fill="#92FE9E"/>
<path d="M511.589 -108.646L357.113 739.821L361.726 740.5L516.201 -107.967L511.589 -108.646Z" fill="#92FE9E"/>
<path d="M501.952 -110.021L347.477 738.445L352.089 739.125L506.565 -109.342L501.952 -110.021Z" fill="#92FE9E"/>
<path d="M492.307 -111.399L337.832 737.068L342.445 737.747L496.92 -110.719L492.307 -111.399Z" fill="#92FE9E"/>
<path d="M482.663 -112.775L328.188 735.691L332.8 736.371L487.276 -112.096L482.663 -112.775Z" fill="#92FE9E"/>
<path d="M473.019 -114.138L318.545 734.322L323.158 735.001L477.632 -113.459L473.019 -114.138Z" fill="#92FE9E"/>
<path d="M463.391 -115.514L308.916 732.953L313.529 733.632L468.004 -114.834L463.391 -115.514Z" fill="#92FE9E"/>
<path d="M453.747 -116.898L299.271 731.569L303.884 732.248L458.36 -116.218L453.747 -116.898Z" fill="#92FE9E"/>
<path d="M444.102 -118.268L289.627 730.198L294.24 730.878L448.715 -117.589L444.102 -118.268Z" fill="#92FE9E"/>
<path d="M434.46 -119.644L279.984 728.823L284.597 729.502L439.073 -118.964L434.46 -119.644Z" fill="#92FE9E"/>
<path d="M424.82 -121.013L270.346 727.446L274.959 728.126L429.433 -120.334L424.82 -121.013Z" fill="#92FE9E"/>
<path d="M415.177 -122.39L260.701 726.076L265.314 726.756L419.789 -121.711L415.177 -122.39Z" fill="#92FE9E"/>
<path d="M405.544 -123.767L251.068 724.699L255.681 725.379L410.157 -123.088L405.544 -123.767Z" fill="#92FE9E"/>
<path d="M395.899 -125.137L241.424 723.33L246.037 724.009L400.512 -124.457L395.899 -125.137Z" fill="#92FE9E"/>
<path d="M386.262 -126.52L231.787 721.946L236.4 722.626L390.875 -125.841L386.262 -126.52Z" fill="#92FE9E"/>
<path d="M376.617 -127.884L222.143 720.576L226.755 721.256L381.23 -127.204L376.617 -127.884Z" fill="#92FE9E"/>
<path d="M366.973 -129.26L212.498 719.206L217.111 719.885L371.586 -128.581L366.973 -129.26Z" fill="#92FE9E"/>
<path d="M357.329 -130.636L202.854 717.831L207.466 718.51L361.942 -129.957L357.329 -130.636Z" fill="#92FE9E"/>
<path d="M347.69 -132.013L193.215 716.453L197.828 717.133L352.303 -131.334L347.69 -132.013Z" fill="#92FE9E"/>
<path d="M338.057 -133.389L183.582 715.077L188.195 715.757L342.67 -132.71L338.057 -133.389Z" fill="#92FE9E"/>
<path d="M328.412 -134.753L173.938 713.707L178.55 714.386L333.024 -134.073L328.412 -134.753Z" fill="#92FE9E"/>
<path d="M318.768 -136.13L164.293 712.337L168.906 713.016L323.381 -135.45L318.768 -136.13Z" fill="#92FE9E"/>
<path d="M309.128 -137.513L154.652 710.954L159.265 711.633L313.741 -136.833L309.128 -137.513Z" fill="#92FE9E"/>
<path d="M299.489 -138.882L145.014 709.585L149.626 710.264L304.102 -138.202L299.489 -138.882Z" fill="#92FE9E"/>
<path d="M289.844 -140.259L135.369 708.208L139.982 708.887L294.457 -139.58L289.844 -140.259Z" fill="#92FE9E"/>
<path d="M280.208 -141.622L125.734 706.838L130.347 707.517L284.821 -140.942L280.208 -141.622Z" fill="#92FE9E"/>
<path d="M270.565 -143.005L116.09 705.462L120.703 706.141L275.178 -142.325L270.565 -143.005Z" fill="#92FE9E"/>
<path d="M260.928 -144.382L106.453 704.084L111.066 704.764L265.541 -143.703L260.928 -144.382Z" fill="#92FE9E"/>
<path d="M251.284 -145.75L96.8086 702.716L101.421 703.396L255.897 -145.071L251.284 -145.75Z" fill="#92FE9E"/>
<path d="M241.641 -147.135L87.166 701.332L91.7788 702.011L246.254 -146.455L241.641 -147.135Z" fill="#92FE9E"/>
<path d="M231.996 -148.498L77.5215 699.961L82.1343 700.641L236.608 -147.819L231.996 -148.498Z" fill="#92FE9E"/>
<path d="M222.366 -149.874L67.8906 698.593L72.5034 699.272L226.979 -149.194L222.366 -149.874Z" fill="#92FE9E"/>
<path d="M212.725 -151.251L58.25 697.216L62.8628 697.895L217.338 -150.571L212.725 -151.251Z" fill="#92FE9E"/>
<path d="M203.081 -152.628L48.6055 695.839L53.2182 696.518L207.694 -151.948L203.081 -152.628Z" fill="#92FE9E"/>
<path d="M193.436 -154.004L38.9609 694.463L43.5738 695.142L198.049 -153.324L193.436 -154.004Z" fill="#92FE9E"/>
<path d="M183.798 -155.365L29.3242 693.095L33.937 693.774L188.411 -154.686L183.798 -155.365Z" fill="#92FE9E"/>
<path d="M174.155 -156.742L19.6797 691.724L24.2925 692.404L178.768 -156.063L174.155 -156.742Z" fill="#92FE9E"/>
<path d="M164.52 -158.127L10.0449 690.34L14.6577 691.019L169.133 -157.447L164.52 -158.127Z" fill="#92FE9E"/>
<path d="M154.876 -159.496L0.400391 688.97L5.0132 689.65L159.489 -158.817L154.876 -159.496Z" fill="#92FE9E"/>
<path d="M145.241 -160.872L-9.23438 687.594L-4.62156 688.274L149.854 -160.193L145.241 -160.872Z" fill="#92FE9E"/>
<path d="M135.593 -162.236L-18.8809 686.224L-14.268 686.903L140.206 -161.557L135.593 -162.236Z" fill="#92FE9E"/>
<path d="M125.95 -163.619L-28.5254 684.847L-23.9126 685.527L130.563 -162.94L125.95 -163.619Z" fill="#92FE9E"/>
<path d="M116.307 -164.995L-38.168 683.471L-33.5552 684.151L120.92 -164.316L116.307 -164.995Z" fill="#92FE9E"/>
<path d="M106.679 -166.366L-47.7969 682.101L-43.1841 682.78L111.291 -165.687L106.679 -166.366Z" fill="#92FE9E"/>
<path d="M97.0359 -167.742L-57.4395 680.725L-52.8266 681.404L101.649 -167.062L97.0359 -167.742Z" fill="#92FE9E"/>
<path d="M87.3901 -169.112L-67.084 679.348L-62.4712 680.027L92.0029 -168.433L87.3901 -169.112Z" fill="#92FE9E"/>
<path d="M77.7469 -170.489L-76.7285 677.978L-72.1157 678.657L82.3597 -169.81L77.7469 -170.489Z" fill="#92FE9E"/>
<path d="M68.1101 -171.864L-86.3652 676.602L-81.7524 677.281L72.7229 -171.185L68.1101 -171.864Z" fill="#92FE9E"/>
<path d="M58.4656 -173.235L-96.0098 675.232L-91.397 675.911L63.0784 -172.555L58.4656 -173.235Z" fill="#92FE9E"/>
<path d="M48.8328 -174.618L-105.643 673.848L-101.03 674.528L53.4456 -173.939L48.8328 -174.618Z" fill="#92FE9E"/>
<path d="M39.187 -175.981L-115.287 672.479L-110.674 673.158L43.7998 -175.301L39.187 -175.981Z" fill="#92FE9E"/>
<path d="M29.5496 -177.356L-124.926 671.111L-120.313 671.79L34.1624 -176.676L29.5496 -177.356Z" fill="#92FE9E"/>
<path d="M19.907 -178.741L-134.568 669.726L-129.956 670.405L24.5198 -178.061L19.907 -178.741Z" fill="#92FE9E"/>
<path d="M10.2625 -180.111L-144.213 668.356L-139.6 669.035L14.8753 -179.431L10.2625 -180.111Z" fill="#92FE9E"/>
<path d="M0.617932 -181.487L-153.857 666.979L-149.245 667.658L5.2307 -180.808L0.617932 -181.487Z" fill="#92FE9E"/>
</g>
</svg>
