<svg width="407" height="953" viewBox="0 0 407 953" fill="none" xmlns="http://www.w3.org/2000/svg">
<mask id="mask0_52_12622" style="mask-type:luminance" maskUnits="userSpaceOnUse" x="-18" y="0" width="425" height="953">
<path d="M93.4968 53.0272C95.8892 53.0272 94.8077 56.4957 94.988 58.4676C95.201 60.7617 95.2338 63.0886 95.1191 65.3882C95.0754 66.2403 94.8951 68.5399 93.4039 67.0706C90.4052 64.0991 90.2686 67.0596 90.5581 68.4634C92.4262 77.4488 87.2262 84.5497 84.506 92.4917C80.4912 89.4711 77.5198 85.9371 78.0551 80.6005C78.6669 74.5156 73.6908 71.6151 70.5336 67.9336C69.0916 66.2512 65.3937 66.3168 62.9739 67.7206C58.9592 70.0475 57.4297 74.166 56.3592 78.4156C55.5671 81.5564 56.2827 85.1614 58.9646 86.2102C68.6546 90.0064 67.4038 99.0682 69.534 106.513C67.5239 103.416 66.1748 99.9859 64.8311 96.5556C64.3121 95.2337 64.3886 93.7753 62.7445 92.8741C56.3155 89.3455 52.7049 83.5774 50.8096 76.6895C50.4217 75.2748 50.9024 73.4504 48.6247 73.6744C46.691 73.8601 45.615 75.3622 45.6587 77.0937C45.7297 80.0379 45.97 83.0038 47.0953 85.8278C50.9407 95.485 54.4747 105.235 55.0591 115.755C55.2394 118.967 56.8071 120.54 59.8495 121.78C66.4315 124.462 70.1676 131.568 77.3231 133.573C77.4378 133.606 77.5089 133.841 77.5689 133.988C79.3496 138.298 82.9765 140.876 86.374 143.771C88.8648 145.89 91.1043 148.441 92.9232 151.15C94.1795 153.019 94.8132 155.897 91.9455 157.022C89.7224 157.891 87.9908 157.459 86.2648 154.411C82.8454 148.359 77.1374 144.044 71.1727 139.226C70.8286 143.662 72.8387 145.901 75.2693 147.988C80.4475 152.434 85.4072 156.908 85.8224 164.56C85.9698 167.297 87.6522 169.908 90.3396 171.333C92.5409 172.497 93.2564 174.403 93.2892 176.659C93.3547 181.466 93.759 186.234 95.0535 190.877C95.4031 192.139 94.0703 194.602 96.2497 194.444C98.0741 194.307 100.69 194.897 101.93 192.385C102.367 191.494 102.389 189.954 104.164 190.293C104.918 191.62 102.526 192.489 103.848 194.083C106.59 191.653 108.496 192.199 110.446 195.509C111.489 197.279 113.789 200.731 116.225 198.617C121.829 193.756 120.912 200.032 122.621 201.829C126.953 198.399 127.226 197.973 128.695 198.901C130.705 200.174 131.7 199.07 133 198.071C134.043 197.268 135.059 196.356 136.239 195.82C138.642 194.728 141.133 194.657 143.159 196.623C144.798 198.213 145.557 200.496 144.825 202.544C143.929 205.041 141.373 205.254 138.981 205.286C137.178 205.314 135.343 205.144 133.655 206.051C129.804 208.116 120.66 206.723 117.678 203.347C116.618 202.146 115.848 200.993 114.117 201.414C112.101 201.905 112.707 203.763 112.358 205.095C111.915 206.767 106.246 210.159 104.722 209.547C103.837 209.192 102.712 208.853 103.351 207.466C103.695 206.712 105.219 205.691 103.454 205.325C102.318 205.09 100.947 203.921 99.7674 205.008C98.9645 205.751 99.4287 206.881 99.6309 207.837C100.292 210.923 105.694 213.955 108.884 213.043C114.646 211.399 116.214 212.049 118.798 217.642C119.562 219.303 120.36 220.821 122.31 220.411C130.05 218.789 134.229 227.228 141.433 227.103C141.761 227.097 142.269 228.435 142.416 229.2C142.7 230.637 143.891 230.56 144.825 231.134C151.402 235.176 160.021 230.648 166.172 236.295C166.406 236.514 167.133 236.104 167.597 236.181C169.411 236.481 170.164 232.45 171.962 234.69C173.147 236.164 170.722 237.847 170.274 239.54C169.771 241.435 169.58 243.418 169.198 245.346C168.843 247.149 168.979 249.252 166.854 250.175C164.74 248.22 166.281 245.942 165.817 244.15C160.545 247.761 163.282 251.874 165.248 255.856C167.357 260.127 170.924 258.783 174.332 258.013C175.446 257.762 176.725 257.374 177.746 257.669C186.983 260.318 196.891 258.947 205.969 262.465C207.559 263.082 209.268 263.252 210.738 262.23C213.19 260.531 215.785 260.87 218.358 261.575C221.575 262.454 224.814 262.771 228.14 262.858C233.624 263.006 237.328 267.299 242.288 268.976C239.163 269.62 236.224 269.708 233.291 269.604C226.726 269.369 220.034 267.376 213.791 271.199C212.589 271.936 210.476 271.674 210.361 273.542C210.252 275.389 212.234 275.509 213.453 276.263C215.026 277.229 218.041 278.404 215.96 280.392C214.534 281.752 213.283 286.433 209.072 282.855C204.555 279.021 198.634 279.229 192.98 279.005C196.47 281.179 199.589 283.921 203.823 284.379C204.959 284.5 206.734 284.827 206.226 286.166C205.15 288.984 202.818 291.049 200.157 292.371C197.951 293.463 197.06 291.322 195.979 289.885C193.625 286.75 193.603 286.766 189.943 286.788C195.76 292.371 193.734 298.281 186.207 301.656C178.456 305.13 169.984 303.612 162.25 306.578C159.895 307.479 156.902 306.72 154.198 306.72C154.805 307.228 155.444 307.321 156.05 307.517C158.634 308.348 162.059 308.227 162.539 311.849C163.014 315.405 159.601 315.552 157.558 317.038C155.395 318.606 152.117 319.572 151.511 322.309C150.675 326.056 147.89 328.197 146.153 331.671C144.678 328.618 145.382 326.111 146.218 323.893C146.939 321.987 147.043 321.184 144.989 320.217C140.658 318.185 138.243 319.889 138.21 325.286C138.172 331.376 138.178 337.472 138.052 343.562C138.019 345.065 138.631 346.856 136.293 348.402C136.266 342.339 133.502 337.035 135.021 331.158C135.479 329.394 135.993 326.641 133.305 326.242C130.88 325.881 130.159 328.427 129.881 330.328C129.504 332.917 129.684 335.588 129.504 338.215C129.394 339.766 128.471 340.689 126.838 340.367C125.434 340.089 124.779 339.253 125.746 337.876C128.728 333.627 126.412 331.425 122.785 329.295C117.121 325.963 117.208 325.827 117.536 319.813C117.552 319.485 117.443 319.157 117.454 318.83C117.487 317.699 118.273 317.289 119.098 317.732C124.85 320.796 126.379 315.416 128.854 312.564C129.553 311.761 130.918 311.745 131.088 310.549C127.947 310.074 124.194 310.467 123.069 313.143C120.655 318.879 119.431 313.766 118.41 312.794C116.493 310.986 117.514 308.55 117.776 306.474C120.89 307.179 124.402 310.407 126.467 306.977C129.22 302.41 132.786 302.388 137.003 302.689C140.679 302.945 144.361 303.12 148.037 303.333C144.465 302.274 140.865 301.951 137.282 301.476C135.982 301.301 133.606 301.864 134.032 299.635C134.392 297.745 136.463 298.679 137.855 298.865C140.089 299.16 142.34 299.745 145.333 298.598C142.225 297.177 139.866 297.795 137.604 297.538C135.894 297.347 134.327 297.09 133.863 295.009C133.393 292.895 134.502 291.977 136.282 291.393C137.697 290.929 139.226 290.513 138.888 288.427C138.32 284.953 140.188 285.652 142.427 286.16C151.484 288.208 160.677 288.389 169.897 287.913C162.211 286.794 154.504 286.034 146.786 285.439C143.498 285.182 141.439 283.986 141.488 280.359C141.537 276.35 139.609 273.46 136.233 271.461C133.54 269.866 130.443 268.599 135.485 265.71C137.724 264.426 137.599 261.4 137.948 258.953C138.156 257.5 137.937 255.675 138.735 254.67C141.695 250.956 142.433 247.996 139.461 243.347C135.621 237.339 127.291 235.624 122.447 241.135C122.244 241.364 121.977 241.883 122.048 241.954C124.227 244.057 122.534 244.319 120.884 244.167C119.262 244.014 117.978 243.943 117.356 245.833C116.793 247.548 116.607 249.186 118.317 250.241C119.486 250.962 120.338 251.644 119.164 252.824C117.842 254.157 117.159 252.513 116.4 251.868C115.788 251.355 115.264 250.617 114.969 249.875C113.729 246.805 112.522 247.4 111.058 249.727C109.233 252.633 108.141 255.768 107.955 259.728C105.803 258.172 105.23 256.336 104.503 254.556C103.569 252.256 102.023 250.53 99.2867 250.874C97.0035 251.158 94.0976 253.19 93.5241 249.088C93.0598 245.756 88.3022 246.362 88.4224 243.675C88.6736 237.961 85.1232 236.367 80.7917 235.017C79.8522 234.728 78.1698 234.979 79.1694 232.592C81.0866 228.042 81.0648 222.984 80.89 218.161C80.748 214.228 80.5022 210.809 83.5501 207.641C84.8337 206.302 86.0081 204.281 82.7471 202.135C78.6122 199.409 75.7555 194.553 75.9521 189.528C76.1925 183.383 75.4114 177.336 75.171 171.268C74.8815 163.883 72.5 156.394 65.7214 152.554C49.6079 143.432 48.5154 126.292 42.7036 111.637C42.3759 110.807 42.6708 109.659 42.8675 108.698C44.6045 100.346 40.9011 93.1854 37.4817 86.1665C35.5863 82.2774 34.5594 78.6559 36.5531 74.8979C39.0548 70.1731 37.9733 65.7214 35.6901 61.6957C33.0355 57.0146 32.2052 52.328 32.4347 47.0242C32.6149 42.8675 31.0363 39.1532 26.6501 37.1431C19.735 33.9695 28.256 29.8401 26.2077 26.1312C25.6506 25.1262 25.6287 23.0178 27.9447 22.8321C28.1086 22.8211 28.2724 22.8102 28.4418 22.8048C30.8178 22.7119 33.0956 21.7779 33.0956 19.3089C33.1011 15.9661 33.8494 10.9572 31.2057 9.68451C26.9724 7.64711 22.2312 3.73616 17.4791 5.42944C11.2412 7.6471 10.5312 4.08574 9.38409 0H-2.5126C-3.51765 6.78954 -1.34916 12.8471 1.0269 19.1178C2.97145 24.2468 3.43573 29.9712 4.19498 35.4826C4.46263 37.4271 4.55005 39.8469 1.72608 40.7918C-1.83528 41.9826 -3.06976 45.1725 -2.66556 48.3188C-1.97732 53.6827 -1.88992 59.4945 3.55591 63.0285C6.61475 65.0168 5.98114 67.6769 4.34794 70.3861C0.655482 76.5038 0.808431 77.1484 7.59797 78.066C12.2682 78.6942 11.5034 80.4967 9.32948 83.0749C5.82274 87.2371 4.23321 91.3283 6.51096 97.0854C7.86013 100.488 6.63114 104.896 6.62568 108.851C6.62021 111.817 7.43956 114.155 11.0774 113.996C12.6341 113.925 13.1749 115.094 14.1198 116.045C17.9051 119.857 19.3308 124.32 20.2758 129.602C20.9476 133.376 18.9976 137.79 22.4552 141.198C23.1871 141.919 21.685 143.558 20.6089 144.366C19.1997 145.432 17.7194 146.415 16.2883 147.42C17.1404 148.895 18.4623 148.512 19.5056 148.818C22.6682 149.741 25.1317 150.675 21.5047 154.302C18.7573 157.044 18.5879 160.742 20.3468 163.965C22.1493 167.269 25.8308 167.226 29.1573 167.319C30.3372 167.351 31.5498 167.056 31.8393 165.631C32.1451 164.129 31.3804 163.085 30.1023 162.408C29.6762 162.184 29.1628 162.108 28.6876 161.982C26.7649 161.469 23.9463 162.523 23.4056 159.546C23.0888 157.809 24.4817 156.356 25.9565 155.602C28.7804 154.166 31.7846 153.242 35.0183 154.248C35.1657 154.291 35.3187 154.411 35.4061 154.537C36.2855 155.761 36.2309 157.339 35.5754 158.311C33.3632 161.572 39.0985 166.898 32.2544 169.067C34.5376 170.798 37.8696 171.787 36.0015 175.632C35.5864 176.484 35.9905 178.582 37.5855 178.838C39.3334 179.122 39.6939 177.424 39.7868 176.156C40.1145 171.694 43.1188 171.426 46.5108 171.661C48.0457 171.77 49.5423 172.065 50.2087 173.666C50.957 175.441 50.0503 176.774 48.9087 178.107C43.9708 183.864 41.2998 190.921 37.946 197.579C37.52 198.42 36.8536 199.546 38.2246 200.048C39.317 200.447 40.0927 199.497 40.5734 198.639C44.5389 191.565 51.2848 186.48 54.6386 178.97C54.7533 178.707 55.1356 178.565 55.7091 178.123C56.4356 180.204 56.3264 182.941 59.3961 183.154C60.7726 183.246 62.7773 182.76 63.0504 184.798C63.3344 186.928 61.9907 188.578 60.2756 189.708C59.3361 190.331 58.0961 190.484 57.0802 191.014C53.9066 192.669 51.181 194.733 51.0062 198.754C50.9079 201.026 49.668 202.763 48.4608 204.56C47.0679 206.636 46.3961 208.957 48.6957 210.76C50.744 212.366 52.8415 211.573 54.36 209.722C55.4415 208.411 56.1352 207.105 57.315 209.607C58.2655 211.623 59.9806 209.536 61.3789 210.011C60.3356 214.824 59.4672 219.494 58.2873 224.087C57.0146 229.053 53.2566 230.691 48.6683 228.419C47.7015 227.938 46.7457 227.201 46.4015 228.687C45.97 230.577 45.5604 232.751 47.9801 233.799C49.2091 234.335 51.1045 233.33 51.6671 235.389C51.4268 236.749 50.4163 236.203 49.7171 236.175C44.6591 235.968 42.1355 239.524 39.5246 242.959L39.8032 242.746C39.1859 243.735 38.5687 244.729 37.946 245.718C38.3776 245.789 38.8145 245.86 39.246 245.925C39.3826 247.176 38.6889 247.253 37.7494 246.98C38.2301 247.892 38.7162 248.804 39.1969 249.716C40.3221 249.618 41.4418 249.52 42.5671 249.421V249.285C41.6931 249.656 40.8137 250.027 39.9343 250.399C41.1687 252.431 41.7477 254.643 41.7477 257.008C41.7477 259.335 41.9225 261.389 45.1398 261.187C47.6142 261.034 46.5435 263.339 47.1389 264.47C47.7343 265.6 47.1007 266.463 45.8826 266.562C44.3314 266.687 42.6162 267.736 41.2889 266.043C41.0049 265.677 40.8574 265.136 40.8191 264.661C40.699 263.213 39.3498 262.454 38.9183 261.258C36.9628 255.883 32.5221 259.898 29.5451 258.647C26.246 257.265 23.5695 255.129 20.5762 259.832C18.7354 262.727 15.1741 264.508 15.6165 269.041C15.032 268.32 14.5295 267.507 13.8467 266.895C11.9732 265.218 6.58198 266.736 8.97989 261.176C10.0887 258.598 8.81604 255.277 11.9295 253.185C14.4367 251.502 14.1035 248.706 12.5795 246.548C10.5093 243.626 7.88197 245.636 4.80128 246.717C6.86054 242.539 3.53406 240.496 2.21766 237.699C1.53489 236.246 0.251285 236.011 -1.14158 236.448C-2.29411 236.814 -3.77984 237.262 -4.42438 236.339C-8.00759 231.232 -11.4761 236.367 -12.503 237.656C-14.169 239.748 -13.448 243.189 -10.9408 245.98C-9.16012 247.963 -7.9093 249.749 -5.06348 250.41C-2.2122 251.071 -2.14119 253.365 -3.24455 255.79C-5.70255 255.173 -3.39748 253.207 -5.06892 252.3C-6.23237 255.167 -11.345 252.589 -11.6618 257.161C-11.7274 258.112 -12.5631 259.767 -11.782 259.881C-7.31937 260.537 -6.13953 266.485 -1.13068 266.179C1.69875 266.004 2.73112 267.862 2.11935 270.391C1.87901 271.379 0.9122 273.477 -0.267639 270.806C-0.841171 269.506 -1.73152 269.697 -2.69833 269.915C-3.63237 270.123 -4.36976 270.92 -3.85085 271.702C-1.46933 275.285 -4.30967 276.273 -6.6038 277.513C-9.44415 279.043 -12.2244 279.584 -14.5787 276.596C-14.666 276.486 -14.8681 276.459 -15.0156 276.394C-19.1997 285.554 -16.6215 293.032 -8.69037 294.998C-6.32523 295.582 -4.19499 293.916 -1.34371 295.768C1.7042 297.751 3.18995 299.581 3.52861 302.935C3.81264 305.748 4.75759 307.829 8.28618 308.096C17.064 308.763 19.948 312.488 19.2543 321.626C18.9757 325.291 22.0565 328.623 25.5523 328.443C32.6258 328.083 33.6363 328.842 34.7397 335.948C35.0128 337.712 35.7448 338.701 37.4544 338.892C39.6612 339.138 41.5893 339.974 43.6431 341.651C40.8956 343.65 39.6393 346.561 39.0221 349.773C38.8418 350.729 38.4376 352.22 38.891 352.63C44.2057 357.431 40.4477 363.347 40.8956 368.689C41.1469 371.693 42.1028 374.473 42.5398 377.395C42.7637 378.914 42.933 380.946 45.1398 381.077C46.9642 381.186 48.2751 380.017 49.0835 378.51C49.7717 377.221 50.0721 375.735 50.6948 374.402C51.2301 373.261 51.6398 371.578 53.3276 371.944C55.1138 372.332 54.797 374.053 54.4583 375.238C52.6339 381.618 54.6386 387.593 55.9331 393.728C56.7251 397.458 59.8331 396.595 61.9416 397.748C64.192 398.982 65.268 397.36 66.4042 395.934C68.6601 393.105 73.079 390.931 69.1189 386.239C68.4416 385.441 68.813 383.857 69.9492 383.169C71.7626 382.066 73.9748 382.94 74.8651 384.027C77.5089 387.233 80.4202 387.124 83.561 385.518C85.3635 384.595 85.5438 385.589 85.7732 386.812C85.9207 387.621 85.9316 388.456 86.0245 389.276C86.6471 394.585 86.9257 394.722 91.9619 391.335C91.9619 398.114 91.9619 404.412 91.9619 411.731C96.0148 408.295 91.5413 402.15 97.9539 400.768C95.7144 410.939 99.1556 420.432 99.822 430.406C102.236 423.682 106.497 418.652 111.528 414.113C113.822 412.042 113.27 408.929 113.581 406.17C113.953 402.833 114.166 399.436 119.033 399.572C121.409 399.638 121.059 397.453 121.136 395.836C121.283 392.553 120.628 389.194 121.786 385.998C122.49 384.043 124.036 382.098 126.002 382.464C127.838 382.809 127.297 385.316 127.084 386.818C126.194 392.996 126.756 398.829 129.116 404.728C130.421 407.995 132.879 407.689 135.037 407.869C137.763 408.093 136.484 405.548 136.768 404.155C137.102 402.516 137.244 400.462 139.368 400.561C141.772 400.67 142.427 402.991 141.624 404.619C137.32 413.299 141.772 421.852 142.291 430.319C142.618 435.623 144.142 441.2 144.776 446.733C144.995 448.634 145.77 451.114 148.348 450.611C154.056 449.502 156.154 451.933 155.351 457.881C157.487 455.582 156.159 452.37 158.863 450.873C159.672 452.687 158.153 453.828 158.213 455.259C158.262 456.434 158.077 457.635 159.245 458.351C160.354 459.028 161.496 458.925 162.424 457.996C165.571 454.839 167.264 456.822 168.75 459.722C169.919 462 170.962 464.376 173.07 460.235C174.043 458.335 175.714 458.717 177.238 459.979C180.171 462.398 182.957 465.168 187.343 462.786C189.015 461.88 188.987 463.688 189.391 464.682C190.205 466.708 191.554 468.254 193.909 467.424C196.558 466.49 196.35 464.206 195.782 462.005C194.695 457.767 191.822 454.009 192.188 448.907C195.695 449.743 197.213 451.878 197.738 455.003C198.218 457.854 199.562 459.771 202.697 460.356C207.848 461.317 206.035 466.184 207.171 469.286C207.941 471.395 206.302 472.979 203.866 473.186C203.227 473.241 202.637 473.334 202.364 474.153C200.573 479.533 197.568 479.981 191.997 479.036C187.283 478.239 183.64 475.934 179.549 474.186C175.67 472.525 170.585 475.338 170.225 479.539C170.012 481.981 169.367 483.521 167.335 484.744C166.385 485.318 165.003 486.656 165.724 487.492C169.209 491.556 164.549 490.267 162.719 491.807C166.559 491.528 168.269 493.249 168.684 496.373C169.001 498.744 170.432 499.356 172.601 498.717C174.343 498.203 176.096 497.734 177.839 497.231C181.012 496.319 182.618 494.511 181.668 490.988C181.307 489.655 180.488 487.765 182.493 487.153C184.361 486.585 185.491 488.104 186.283 489.639C187.299 491.605 186.901 494.904 189.648 495.199C192.521 495.505 192.499 492.031 193.892 490.338C195.214 488.732 196.339 488.754 197.29 490.584C198.431 492.785 199.792 494.784 201.376 496.729C203.943 499.88 206.505 502.01 210.984 501.098C213.409 500.607 215.261 502.36 216.593 504.463C217.97 506.642 215.752 507.358 215.217 508.773C213.196 514.087 208.515 516.327 204.505 519.38C203.61 520.063 203.249 522.237 201.528 521.003C200.272 520.101 199.884 518.463 200.108 516.955C200.513 514.191 201.053 511.444 201.671 508.724C202.342 505.741 201.572 503.829 198.218 503.889C196.006 503.933 194.93 502.808 194.242 500.902C193.21 498.018 191.631 498.236 190.118 500.454C188.239 503.207 186.425 503.627 183.64 501.426C180.805 499.181 178.101 499.82 176.211 503.092C175.55 504.234 174.671 505.244 174.037 506.397C172.901 508.45 171.399 509.871 168.897 509.401C165.931 508.849 167.526 506.533 167.395 504.966C167.1 501.492 164.189 499.323 163.167 496.221C163.085 495.98 162.173 495.707 161.944 495.865C155.886 500.104 155.575 494.085 153.445 491.19C152.472 491.403 151.571 491.955 151.462 493.031C151.15 496.029 149.61 496.625 146.737 496.428C141.247 496.062 139.931 497.99 140.745 503.463C141.226 506.708 141.171 510.029 141.335 513.317C141.384 514.311 141.493 515.502 140.253 515.792C133.644 517.332 135.272 522.8 134.971 527.164C134.824 529.283 134.928 531.862 132.612 531.763C130.574 531.676 128.679 529.627 128.952 526.891C129.269 523.739 128.684 521.014 125.871 519.08C124.38 518.058 123.97 516.491 123.992 514.727C124.031 511.826 122.07 509.794 120.311 507.975C118.787 506.402 116.711 505.08 114.089 505.872C111.271 506.724 110.015 508.947 110.015 511.449C110.015 515.945 108.43 517.54 103.771 517.032C99.0628 516.518 99.2048 520.795 98.3745 523.87C98.0304 525.154 100.947 527.301 97.7627 527.661C95.6543 527.901 92.6119 528.016 91.7926 525.29C90.9678 522.527 89.635 521.161 87.0295 519.741C84.1182 518.151 85.369 514.983 88.1165 514.109C95.8674 511.629 93.9665 504.682 95.4795 499.318C95.627 498.799 95.2501 497.668 94.8732 497.537C89.422 495.68 88.2039 487.683 80.453 488.415C82.8673 484.466 84.8501 481.008 82.1791 476.786C79.7757 472.99 77.2412 469.701 72.3853 469.478C69.5996 469.352 68.9769 467.44 69.1408 465.435C69.6597 459.17 67.9991 452.703 65.6067 447.754C62.8264 442.013 61.5319 433.695 52.8196 431.947C49.7608 431.335 48.8049 429.003 48.8486 425.212C48.9415 417.106 48.4936 408.765 40.2839 403.516C36.22 400.921 33.7893 390.221 35.9906 385.152C38.536 379.291 36.362 374.386 32.8498 370.344C28.8678 365.761 24.3287 361.883 22.3678 355.721C20.9695 351.33 16.5942 350.527 12.5194 350.565C9.06181 350.598 7.61433 354.012 9.96308 357.639C13.2841 362.768 14.6224 368.47 16.1736 374.184C17.3808 378.641 16.2392 382.77 14.3056 386.594C12.8198 389.527 12.8526 392.247 13.6446 395.191C14.7971 399.468 15.906 403.762 17.0749 408.039C17.7194 410.393 17.2879 412.649 16.5177 414.844C15.6329 417.384 15.4035 419.99 15.3762 422.65C15.3161 428.718 16.3812 430.04 22.4279 429.958C25.2955 429.92 26.3607 430.958 26.3716 433.618C26.3989 438.092 27.1691 442.472 28.1141 446.831C28.2834 447.618 28.4636 448.612 28.1414 449.262C23.6678 458.165 26.388 467.921 24.935 477.207C23.9682 483.368 24.2741 489.939 25.6834 496.275C26.6993 500.831 23.2745 503.944 20.1884 507.118C14.6988 512.755 5.62609 513.64 2.18489 521.948C0.360511 526.35 1.91178 530.261 1.81346 534.385C1.81346 534.522 1.96094 534.789 2.04834 534.789C7.06811 535.03 10.1379 539.956 14.7152 540.454C18.2984 540.841 18.9484 541.961 18.4896 545.009C17.9161 548.827 17.9816 548.838 21.5047 551.886C16.8783 552.689 13.9068 554.912 13.2513 559.626C13.0929 560.751 11.9404 562.139 10.8753 562.663C7.42318 564.367 3.70886 565.585 4.82315 570.753C4.98702 571.523 3.99289 572.61 2.84036 572.626C1.27271 572.642 0.387819 571.495 0.0655485 570.206C-0.813868 566.7 -1.44749 563.133 -2.26136 559.61C-2.78027 557.359 -3.41933 554.24 -5.86094 554.399C-8.04583 554.541 -8.14417 557.862 -8.13324 559.844C-8.08408 570.053 -7.73448 580.262 -7.53238 590.471C-7.37944 598.053 -7.13366 605.634 -7.24837 613.21C-7.29207 615.903 -7.54877 618.962 -10.8807 620.197C-12.4921 620.792 -12.2955 622.283 -12.3665 623.567C-12.6778 629.499 -12.9728 635.436 -13.2131 641.373C-13.3223 644.028 -13.3169 646.595 -10.8534 648.551C-9.24206 649.829 -9.77735 651.888 -9.95214 653.685C-10.7278 661.72 -11.5307 669.75 -12.3009 677.785C-13.0547 685.65 -8.0786 692.625 -9.64626 701.9C-6.6038 698.465 -8.02399 695.149 -5.5933 692.511C-5.21094 701.895 -4.78489 710.749 -4.50086 719.609C-4.23867 727.797 -2.53994 735.99 -5.06348 744.172C-5.64248 746.046 -5.50591 748.897 -3.31557 749.946C-1.12522 750.995 0.256743 749.072 1.27818 747.253C2.05927 745.866 3.16264 746.193 4.24963 746.789C5.35299 747.395 5.98114 748.22 5.63702 749.618C2.7475 761.302 7.00802 771.571 11.9349 781.747C14.5131 787.078 13.6883 792.912 14.4148 798.554C11.9186 796.861 12.148 794.01 10.6896 791.153C10.5421 810.025 16.8509 827.668 14.1635 845.994C16.7472 841.809 15.9606 837.15 17.1568 832.851C18.1346 829.345 19.7623 826.204 21.2153 822.921C23.6842 817.35 27.1308 812.264 29.4414 806.922C31.6645 801.788 33.0082 794.326 27.0325 789.055C25.5522 787.744 24.7275 785.685 27.109 784.636C29.2119 783.713 32.8334 782.435 33.6801 784.942C35.0565 789.028 38.7708 791.344 40.0599 795.397C40.6444 797.232 41.6658 798.713 41.3108 800.87C40.8574 803.623 41.9389 805.868 45.0688 806.185C47.6142 806.442 49.515 807.239 50.1705 809.959C50.8368 812.723 48.4062 812.581 47.0297 813.515C45.2763 814.701 45.462 816.126 46.6747 817.738C48.4881 820.135 48.0839 822.752 47.9364 825.669C47.7289 829.798 47.6961 833.616 45.0742 837.101C44.3095 838.117 43.8288 838.773 42.4851 838.849C37.9734 839.117 34.401 845.196 37.1048 848.976C40.038 853.073 40.1309 857.3 39.5956 861.697C39.3006 864.139 40.5897 866.116 40.8246 868.126C39.2952 869.711 37.946 865.488 37.2469 868.187C36.6296 870.59 36.4166 873.479 38.5523 875.648C38.8855 875.987 39.3881 876.161 39.825 876.385C47.0898 880.094 47.6688 882.76 42.3595 889.347C41.1141 887.457 42.3595 885.824 42.5725 884.207C42.8948 881.733 41.3435 880.193 39.825 878.674C39.1641 878.013 38.2246 878.084 37.6183 878.789C36.2637 880.362 36.646 882.186 37.1103 883.972C37.3998 885.087 37.8423 886.174 38.0389 887.304C38.7708 891.45 40.5187 895.585 36.9464 899.512C35.559 901.036 35.1494 903.429 35.7393 905.646C36.1817 907.307 36.8973 908.924 39.0658 908.481C40.8028 908.126 42.1629 907.252 41.7914 905.073C41.136 901.222 42.0372 899.551 46.6637 899.66C50.6566 899.753 51.9075 894.509 55.3159 892.761C55.4907 892.674 55.5398 892.138 55.4907 891.833C54.8298 887.435 55.7419 884.229 57.8995 880.903C59.8495 877.898 61.7285 874.883 60.1336 870.787C58.6096 866.881 59.4836 863.238 63.6403 861.146C64.9348 860.496 65.5739 859.436 66.1693 858.24C67.7315 855.105 69.4248 854.034 73.1282 856.088C77.8584 858.715 84.9484 854.842 85.9207 849.566C86.6526 845.595 89.2581 842.219 88.5316 837.664C87.969 834.146 87.6522 830.934 85.0577 828.247C83.7686 826.914 83.1513 825.019 83.6757 823.167C84.566 820.01 84.1564 817.317 81.611 815.088C80.9446 814.504 80.5513 813.625 80.9555 812.86C83.3808 808.244 87.4282 804.896 90.5253 800.805C92.4535 795.211 90.7984 789.094 92.5736 782.495C95.2938 787.236 94.6329 791.836 96.6321 795.621C97.7355 797.718 98.0523 799.723 96.1186 801.411C94.0266 803.241 92.1695 801.99 90.4052 800.657C94.0922 807.84 93.027 816.192 96.0749 823.588C97.0745 826.018 97.1783 828.569 100.041 829.913C102.766 831.196 102.892 833.747 101.909 836.304C101.45 837.494 100.352 838.527 101.581 840.018C104.782 839.155 103.706 835.561 105.388 833.731C109.375 838.816 109.512 847.332 105.404 851.871C101.674 856 101.117 859.726 103.323 865.237C104.88 869.121 104.765 874.064 105.749 878.483C105.962 879.444 105.656 880.7 106.175 881.378C109.206 885.365 109.922 889.626 109.905 893.968L111.91 893.914C110.959 888.151 112.931 886.305 119.65 885.726C122.905 885.447 126.565 885.382 129.291 884.251C136.004 881.465 140.139 885.398 143.984 889.025C149.643 894.362 152.571 894.585 157.672 888.643C159.125 886.955 161.561 886.365 162.643 884.049C164.697 879.657 163.97 877.483 159.333 875.877C157.956 875.402 157.7 874.419 157.334 872.677C159.759 873.856 161.408 874.37 161.736 870.71C162.441 862.828 165.571 861.484 171.432 866.477C172.748 867.597 173.884 868.187 175.162 867.995C178.691 867.46 181.624 868.503 184.443 870.481C185.42 871.163 186.185 870.798 186.147 868.727C186.081 865.516 187.387 865.57 189.746 866.351C194.242 867.842 199.507 863.729 198 859.371C197.033 856.574 198.349 856.672 199.447 857.415C204.456 860.807 209.711 862.276 215.845 862.637C218.887 862.817 221.919 866.242 225.502 867.187C226.988 867.58 228.261 868.531 228.08 870.344C228.026 870.901 227.55 871.644 227.059 871.884C224.967 872.922 225.409 870.257 224.437 869.945C221.28 868.935 218.03 868.126 214.578 868.837C214.818 871.147 216.632 870.661 217.587 871.366C220.428 873.463 220.357 875.959 217.123 877.216C214.032 878.417 211.12 879.253 216.14 881.979C217.221 882.569 218.145 883.617 217.779 884.786C216.855 887.687 218.849 889.391 220.116 891.417C222.159 894.689 221.733 897.196 218.183 899.19C215.217 900.856 212.682 903.418 208.897 903.134C208.586 903.112 208.067 903.205 207.974 903.402C205.254 909.137 199.578 908.077 194.378 908.727C197.863 911.923 204.855 912.392 207.471 909.618C210.465 906.444 213.354 904.226 217.68 907.236C218.636 907.902 219.477 907.651 220.16 906.608C222.23 903.445 225.284 902.751 227.436 905.717C229.402 908.421 229.113 911.912 226.021 914.441C224.273 915.872 222.132 917.008 221.504 919.57C222.891 920.389 223.907 920.034 224.874 918.849C225.841 917.669 227.157 917.33 228.321 918.455C229.582 919.673 228.725 921.148 227.9 922.006C225.633 924.36 223.388 926.878 219.663 926.955C218.412 926.982 217.003 926.692 215.779 927.96C216.38 930.139 218.319 929.697 219.69 929.533C222.176 929.232 224.197 930.276 226.294 931.188C227.55 931.734 228.517 932.608 228.823 934.039C229.074 935.235 224.186 944.882 222.908 945.455C220.821 946.395 220.39 948 221.083 949.923C221.69 951.622 222.798 952.277 224.901 952.119C229.85 951.748 234.504 950.988 238.797 948.159C241.654 946.274 244.336 941.375 243.369 938.174C242.703 935.956 240.228 935.743 238.71 935.071C235.132 933.498 235.017 931.122 236.044 928.276C237.169 925.152 238.42 921.929 242.927 922.792C246.248 923.426 250.268 923.71 251.601 920.209C252.972 916.604 254.223 912.272 251.836 908.41C250.809 906.75 250.159 905.559 251.011 903.505C254.785 894.438 251.448 887.337 242.309 884.677C239.895 883.972 238.256 882.623 239.136 880.078C241.577 873.032 238.136 865.778 240.234 858.671C241.228 855.307 238.448 853.499 235.482 852.98C232.98 852.543 231.139 851.554 229.976 849.347C228.19 845.966 223.973 846.409 221.717 843.645C219.838 845.786 221.023 848.801 218.713 850.538C217.555 851.407 218.713 852.417 219.789 852.428C223.432 852.466 226.322 854.569 229.44 855.836C225.781 858 216.855 858.109 212.923 855.662C211.377 854.7 210.525 853.695 208.93 855.662C207.056 857.967 204.806 857.191 202.872 855.46C200.66 853.477 200.687 851.008 202.331 848.91C202.932 848.14 203.965 847.774 203.309 846.726C200.294 841.908 203.981 843.35 206.27 843.514C208.657 843.689 210.629 844.83 212.622 846.081C214.075 846.993 215.687 848.654 217.549 847.386C219.324 846.179 219.505 844.038 219.39 842.006C219.319 840.712 219.09 839.428 218.882 837.746C220.624 837.991 220.417 839.488 221.078 840.154C222.214 841.296 223.738 841.804 225.136 841.362C226.627 840.892 225.611 839.368 225.726 838.308C225.912 836.571 227.174 834.151 227.037 833.507C226.092 829.164 229.779 826.128 229.73 822.637C229.692 820.059 229.473 815.678 225.021 814.864C223.984 814.673 222.76 813.766 223.022 812.969C224.344 808.987 222.367 805.032 223.142 801.138C223.508 799.319 224.737 797.544 226.862 797.757C231.642 798.237 236.41 799.177 240.567 801.668C243.052 803.159 243.609 805.677 241.84 809.435C240.021 802.777 236.164 804.295 232.341 805.781C231.281 806.196 229.877 806.436 229.626 807.692C229.304 809.298 230.915 809.817 231.882 810.626C233.362 811.866 235.29 811.724 237.038 812.161C241.714 813.33 243.123 817.535 240.075 821.206C239.027 822.473 237.738 823.544 236.722 824.838C235.902 825.882 232.69 826.111 234.892 828.285C236.618 829.989 239.54 830.606 240.938 828.105C242.943 824.522 247.449 822.828 248.034 818.284C248.159 817.29 248.946 816.853 249.847 817.497C251.562 818.721 252.136 820.572 251.087 822.293C248.318 826.821 245.193 831.005 239.726 832.77C236.798 833.715 233.406 833.54 230.702 836.364C233.062 837.533 235.132 838.915 236.891 840.848C241.479 845.912 250.475 844.715 253.715 838.767C255.129 836.167 257.254 834.927 260.138 834.927C266.551 834.927 271.734 828.012 270.205 821.949C269.162 817.819 269.058 813.728 263.437 812.527C260.351 811.866 262.607 808.119 261.848 805.895C261.039 803.552 260.619 802.088 264.06 800.837C270.396 798.532 270.849 795.375 266.775 789.782C265.901 788.58 263.552 787.242 265.633 785.849C267.299 784.729 268.626 787.029 269.276 788.345C272.259 794.403 277.404 800.105 273.165 807.638C272.739 808.403 272.45 809.397 273.466 809.757C278.682 811.603 277.967 816.082 278.158 820.125C278.382 824.98 284.123 830.028 288.908 829.274C292.3 828.738 294.441 829.257 296.577 832.649C299.668 837.56 304.524 840.52 310.909 839.679C312.859 839.423 314.957 838.783 315.459 837.161C317.382 830.973 321.473 834.086 324.478 835.162C330.18 837.199 334.594 834.741 335.085 828.717C335.276 826.395 336.041 824.259 335.593 821.719C334.998 818.338 338.139 816.443 341.017 818.557C345.338 821.73 346.512 819.038 348.795 816.001C351.974 811.767 353.416 807.638 351.696 802.531C351.45 801.799 351.696 800.575 352.553 800.422C357.579 799.521 357.562 794.283 360.348 791.442C362.211 789.542 361.626 786.838 360.566 784.434C359.523 782.069 360.086 780.518 362.926 780.54C365.215 780.556 366.334 778.786 367.858 777.612C369.12 776.645 370.278 776.716 371.343 777.913C372.337 779.032 371.846 779.972 371.076 780.982C369.989 782.402 368.356 783.418 367.929 785.347C367.536 787.138 366.717 789.023 369.464 789.673C370.48 789.913 371.152 790.487 371.715 791.41C374.446 795.905 376.664 795.736 380.771 792.327C385.103 788.733 387.446 784.205 389.412 779.196C390.417 776.64 388.997 775.225 387.599 773.592C382.874 768.075 382.951 767.578 388.751 763.525C389.276 763.159 389.986 762.766 390.172 762.23C391.898 757.249 396.18 755.446 400.495 753.502C403.21 752.273 403.925 749.383 403.39 746.893C402.68 743.604 403.691 741.064 405.302 738.503C407.558 734.919 406.547 732.713 403.396 729.752C399.25 725.863 395.262 721.952 390.423 718.893C388.396 717.61 388.555 715.37 389.068 713.065C389.773 709.902 389.243 706.838 386.938 704.298C386.026 703.293 385.179 702.436 383.573 702.796C381.951 703.162 381.563 704.227 381.268 705.609C380.924 707.215 380.476 708.805 379.924 710.35C379.012 712.923 381.235 717.124 376.199 717.664C375.997 717.686 375.577 719.074 375.822 719.439C380.056 725.699 374.031 725.213 371.076 726.732C370.54 727.01 370 727.272 368.115 728.223C374.795 728.976 378.816 732.21 383.939 736.203C377.625 735.466 372.96 738.661 367.574 737.814C365.641 737.509 362.604 737.115 362.369 740.048C362.156 742.725 365.073 742.293 366.875 742.79C368.285 743.178 369.688 743.588 372.032 744.254C369.29 745.959 367.29 745.074 365.406 744.73C361.08 743.938 357.595 744.5 355.76 749.258C354.618 752.218 351.98 753.376 348.894 752.95C346.731 752.65 345.502 753.256 345.966 755.479C346.567 758.336 345.491 759.456 342.738 759.576C338.625 759.762 339.209 763.607 337.942 766.715C336.074 764.12 334.462 762.225 331.431 762.056C329.235 761.936 330.054 760.395 330.988 759.243C333.414 756.238 335.648 753.36 333.053 749.105C332.103 747.548 333.239 745.948 335.61 746.21C337.226 746.39 338.963 746.024 340.487 746.461C343.011 747.182 344.273 745.827 345.283 744.052C346.392 742.102 346.769 739.814 349.533 739.032C351.466 738.486 350.396 736.427 350.265 735.094C349.724 729.594 350.997 727.207 356.147 726.267C358.633 725.814 359.37 724.825 359.725 722.591C360.004 720.849 360.774 719.15 361.528 717.528C363.101 714.13 362.298 711.421 359.332 709.334C355.618 706.718 351.98 704.451 354.705 698.672C355.639 696.689 353.766 693.325 350.893 693.581C347.812 693.854 345.299 691.648 342.241 692.429C341.487 692.62 340.34 691.899 339.57 691.331C334.872 687.873 332.9 688.911 330.409 694.346C328.345 698.852 323.685 701.239 319.436 703.73C319.261 705.358 320.725 705.374 321.637 705.926C322.801 706.636 325.018 706.904 323.664 708.958C322.67 710.465 320.933 709.886 319.633 709.067C316.716 707.242 315.339 704.315 313.728 701.37C312.046 698.295 311.816 695.974 313.864 693.079C314.727 691.861 314.82 689.916 314.809 688.305C314.793 685.033 314.924 682.214 319.021 681.28C321.626 680.685 321.97 678.003 322.44 675.807C323.259 671.951 325.138 669.761 329.454 669.892C333.217 670.006 334.348 666.505 334.506 663.982C334.659 661.507 335.178 659.148 335.435 656.728C335.681 654.417 336.828 653.145 338.98 652.56C342.978 651.473 345.005 648.791 345.299 644.705C345.338 644.219 345.425 643.706 345.611 643.263C346.25 641.745 346.965 639.664 348.763 639.97C350.543 640.276 350.723 642.351 350.516 644.077C350.396 645.06 350.33 646.066 350.057 647.005C349.161 650.086 346.747 653.101 351.193 655.81C352.422 656.558 352.16 659.524 352.958 661.305C353.438 662.376 351.597 664.266 353.815 664.419C355.153 664.511 356.868 664.599 357.945 663.239C360.184 660.404 362.882 657.929 365.1 655.155C366.908 652.893 367.82 649.643 365.302 646.502C362.38 642.865 360.626 639.014 364.401 634.486C366.209 632.317 363.8 630.881 362.008 630.16C358.879 628.903 356.929 627.549 358.715 623.649C359.414 622.119 358.059 620.257 357.256 618.585C355.765 615.488 356 612.992 360.069 611.779C365.794 610.07 368.661 605.203 367.361 599.484C365.755 592.421 365.969 586.101 372.9 581.781C374.659 580.683 375.314 579.099 374.588 577.116C373.435 573.97 377.505 571.463 375.538 568.163C371.72 561.756 366.28 556.851 360.807 551.973C359.862 551.132 358.534 550.52 357.169 551.586C356.77 553.383 358.534 553.126 359.277 553.787C361.184 555.475 361.337 557.993 359.403 558.79C354.569 560.784 356.939 562.767 359.092 564.504C363.702 568.213 363.068 572.55 361.402 577.351C360.643 579.536 359.698 580.016 357.852 578.826C356.328 577.837 354.345 577.072 353.476 575.652C350.751 571.173 345.835 570.321 341.46 567.601C341.946 571.534 341.935 574.915 347.009 575.428C349.451 575.674 355.295 586.784 355.011 589.455C354.902 590.46 354.76 591.684 353.662 591.869C352.084 592.143 351.887 590.613 351.652 589.57C350.958 586.511 349.413 584.031 346.07 584.397C342.082 584.834 337.401 582.463 334.255 587.172C332.84 589.291 333.097 590.143 335.353 591.225C340.728 593.798 343.027 604.29 339.269 609.103C337.521 611.342 335.735 613.434 335.254 616.357C334.949 618.203 333.397 619.148 331.89 619.721C327.367 621.447 323.942 624.981 319.605 626.981C318.032 627.707 317.098 628.931 316.251 630.438C315.667 631.476 315.017 634.491 312.898 631.454C312.488 630.864 312.22 631.367 311.832 631.689C305.715 636.813 298.232 637.659 290.705 638.298C288.82 638.457 287.771 637.626 288.367 635.644C288.722 634.464 287.405 632.213 290.694 632.77C293.845 633.306 294.883 630.848 296.429 628.084C299.685 622.267 296.292 616.919 296.779 611.419C297.035 608.524 296.271 604.706 301.443 607.071C301.913 607.284 302.765 607.071 303.246 606.759C305.294 605.443 307.769 596.594 306.889 594.229C306.272 592.574 304.628 590.924 305.66 589.127C308.266 584.577 304.797 581.011 303.852 577.105C303.311 574.86 300.526 574.707 298.494 574.172C296.353 573.609 296.893 575.668 296.276 576.608C295.828 577.291 295.326 578.137 294.643 578.427C291.327 579.842 291.109 582.152 292.584 584.96C293.343 586.402 293.255 587.418 291.699 588.193C290.049 589.013 289.787 587.855 289.284 586.751C289.044 586.221 288.443 585.566 287.93 585.495C283.385 584.856 283.462 582.611 285.953 579.71C283.227 577.28 280.337 578.815 277.634 578.815C276.022 578.815 275.094 580.169 274.651 581.666C274.181 583.245 275.438 586.036 272.794 586.069C269.659 586.112 266.452 587.598 263.301 585.877C261.318 584.796 260.051 583.818 261.575 581.305C262.989 578.973 262.902 576.291 260.657 574.56C258.407 572.828 255.473 573.096 253.299 574.62C248.99 577.635 244.434 575.985 239.966 575.876C238.83 575.849 237.186 575.505 237.399 573.587C237.541 572.309 238.306 571.108 239.502 571.184C243.123 571.413 244.052 568.802 244.33 566.312C244.691 563.111 241.146 564.307 239.638 563.1C239.36 561.505 240.611 560.309 241.375 559.784C244.669 557.512 243.446 555.89 241.441 553.459C239.136 550.668 237.59 552.104 235.717 553.601C234.602 554.491 234.531 554.502 233.116 552.738C232.548 552.028 232.04 552.279 231.407 552.421C225.95 553.639 226.698 551.192 228.616 547.822C229.959 545.452 230.467 542.409 229.55 540.191C228.277 537.122 229.151 534.483 229.304 531.599C229.517 527.546 229.965 523.854 233.963 521.642C234.493 521.352 235.121 520.637 235.132 520.112C235.323 511.198 239.376 502.295 235.629 493.418C234.471 490.671 231.538 489.573 228.474 489.628C226.829 489.66 225.147 489.699 223.558 490.059C220.755 490.693 219.27 489.759 219.565 486.875C219.838 484.193 218.718 482.194 217.342 480.036C214.949 476.289 215.189 472.788 218.543 469.336C225.458 462.224 225.628 459.771 221.602 450.529C220.297 447.53 218.243 444.848 217.718 441.478C217.544 440.348 216.67 439.271 215.364 439.255C209.705 439.179 209.951 435.076 209.858 431.253C209.831 430.286 209.957 429.177 210.416 428.358C214.01 421.891 213.731 415.598 209.897 409.339C209.247 408.279 209.842 407.083 210.159 405.974C211.339 401.915 212.999 398.086 213.447 393.711C213.95 388.822 218.298 386.457 222.798 388.085C225.475 389.052 227.343 388.243 227.916 386.146C228.807 382.896 231.287 381.956 233.712 380.656C236.946 378.925 239.343 376.948 237.836 372.55C236.803 369.53 237.628 366.269 238.639 363.319C240.196 358.786 238.469 355.53 235.001 353.001C231.035 350.112 226.098 350.243 222.678 352.941C220.329 354.793 216.697 352.695 214.61 355.547C214.326 355.934 212.89 354.613 212.977 356.273C213.021 357.158 213.578 357.77 214.392 358.147C219.046 360.282 219.685 361.888 218.385 368.159C215.692 362.806 215.326 362.79 211.939 367.777C209.301 371.677 203.697 373.058 202.856 378.652C202.184 375.527 202.747 372.845 204.746 370.529C207.663 367.143 208.558 363.729 205.434 359.873C204.2 358.349 203.528 356.388 203.358 354.367C203.227 352.821 203.205 351.259 201.059 351.281C199.202 351.302 197.721 352.182 197.377 353.99C196.918 356.41 196.94 358.911 196.596 361.358C196.318 363.347 196.006 365.755 193.035 364.155C191.445 363.297 190.659 364.139 190.364 365.193C189.288 369.071 187.441 368.443 185.186 366.296C182.422 363.658 178.909 362.828 173.922 362.331C178.216 360.244 179.275 358.158 175.916 355.519C174.638 354.514 173.731 354.028 172.874 355.847C171.284 359.206 169.738 357.005 168.318 355.437C167.046 358.616 167.641 360.938 170.203 362.691C174.327 365.521 175.976 369.355 176.299 374.424C176.544 378.324 179.783 381.727 178.871 386.157C178.194 389.44 174.425 392.673 171.858 390.898C168.526 388.593 167.286 390.33 165.429 392.384C162.386 395.743 161.059 395.475 159.022 391.379C158.514 390.357 158.186 388.844 157.35 388.446C151.604 385.698 150.626 380.383 149.79 374.981C149.506 373.151 147.829 372.425 146.977 371.098C149.304 368.044 158.601 370.666 154.084 362.221C163.047 363.325 163.812 362.052 166.488 354.072C167.373 351.439 168.941 349.041 170.072 346.485C172.874 340.149 172.377 334.086 168.094 328.563C166.084 325.974 168.87 324.718 169.46 322.926C170.181 320.73 172.306 320.321 174.425 320.851C175.845 321.206 177.178 321.91 178.587 322.314C181.247 323.074 183.361 322.773 184.486 319.676C185.579 316.677 188.119 315.301 191.079 314.198C196.203 312.286 200.851 309.866 203.036 304.027C204.647 299.728 208.892 297.893 213.245 297.046C216.768 296.363 219.565 294.626 222.432 292.551C228.665 288.039 235.629 285.98 243.424 287.728C249.694 289.137 256.02 288.569 262.279 287.673C264.076 287.416 264.754 287.591 264.89 289.345C264.939 289.989 264.918 290.721 265.212 291.256C267.059 294.626 267.108 294.637 264.333 297.27C262.847 298.679 262.749 299.947 264.229 301.471C265.354 302.623 267.419 302.585 267.965 304.3C262.503 309.719 254.741 313.1 254.343 322.325C255.326 323.085 256.413 322.118 256.975 321.326C260.804 315.935 266.523 315.956 272.068 316.322C275.634 316.557 277.377 314.329 279.638 312.57C281.2 311.357 282.697 310.03 284.368 308.976C287.444 307.037 287.924 304.775 285.188 302.339C282.965 300.356 283.265 299.127 285.455 297.292C287.405 295.659 288.684 293.245 290.508 291.42C291.513 290.415 293.108 289.192 294.293 289.323C300.023 289.962 304.011 285.881 308.877 284.27C315.154 282.184 316.246 278.879 313.974 272.199C311.893 266.076 311.991 265.912 318.065 263.831C321.446 262.673 323.107 260.723 320.911 257.145C318.983 253.999 320.124 251.333 322.599 249.285C325.199 247.133 326.313 244.33 325.182 241.506C323.948 238.431 320.725 238.579 317.852 239.136C312.16 240.245 306.523 241.496 303.677 247.449C302.814 249.246 301.143 250.131 299.499 250.765C295.992 252.13 292.458 253.026 290.186 256.67C289.044 258.494 285.658 258.74 284.396 256.981C280.512 251.568 274.941 251.054 269.173 250.59C268.026 250.497 266.906 250.17 265.764 249.962C263.721 249.596 263.53 248.067 264.999 247.378C268.621 245.674 269.97 241.168 274.132 240.316C276.989 239.731 277.797 237.617 277.639 235.159C277.421 231.713 278.879 229.44 281.91 228.119C284.647 226.922 286.04 225.235 285.521 221.984C285.281 220.471 285.75 218.565 286.548 217.227C288.918 213.234 286.078 210.568 283.5 209.908C279.316 208.831 276.787 206.122 273.832 203.593C271.581 201.665 271.86 199.988 274.356 199.24C277.776 198.218 280.015 196.099 282.003 193.362C282.648 192.478 283.8 191.352 284.707 191.369C291.082 191.483 293.9 186.955 297.199 182.646C299.663 179.428 300.22 174.927 297.095 172.295C294.332 169.957 291.874 167.33 289.186 164.964C285.843 162.015 281.577 162.375 277.393 163.118C271.046 164.243 269.358 166.33 269.741 172.622C269.817 173.89 270.396 174.365 271.439 174.627C273.75 175.206 275.536 176.67 275.536 178.991C275.536 181.635 273.482 184.41 271.39 184.656C262.574 185.677 257.194 193.565 248.657 195.045C249.05 195.542 249.197 195.924 249.421 195.979C252.027 196.58 256.173 195.897 256.134 199.475C256.091 203.495 251.885 201.796 249.383 202.299C248.165 202.544 246.22 201.802 246.002 203.462C245.74 205.489 247.985 205.543 249.235 205.642C253.922 206.007 258.303 207.346 262.547 209.236C263.749 209.771 265.256 210.432 264.743 212.049C264.207 213.742 262.509 213.611 261.433 212.813C254.665 207.837 247.154 210.273 239.294 210.481C246.461 212.742 254.621 210.721 259.789 218.09C257.412 217.762 256.62 218.603 256.08 220.974C255.113 225.18 250.426 225.781 247.378 227.987C246.171 228.861 243.385 228.708 244.298 230.872C245.09 232.751 247.236 231.27 248.733 230.855C250.628 230.336 252.606 229.943 254.004 228.31C254.545 227.682 255.282 227.103 256.091 227.889C256.762 228.55 256.56 229.419 256.238 230.2C255.015 233.16 252.278 234.176 249.574 234.832C245.538 235.809 241.643 237.077 237.929 238.923C237.486 239.141 236.831 239.207 236.601 239.556C232.27 246.171 225.032 244.27 218.915 245.609C215.386 246.379 212.229 245.669 210.284 242.38C208.602 239.54 204.702 239.316 203.375 235.766C202.741 234.072 201.873 233.258 203.413 231.724C207.318 227.835 206.963 223.082 205.68 218.297C205.259 216.735 204.484 214.49 202.867 214.529C198.628 214.627 197.191 212.671 195.039 209.072C192.565 204.942 192.827 201.201 193.128 197.257C193.319 194.777 194.974 192.412 194.947 189.725C194.941 188.867 195.072 187.862 195.946 187.622C204.369 185.328 204.669 178.844 204.86 171.738C204.959 168.051 201.337 166.953 201.092 164.096C200.742 160.087 197.869 160.229 195.16 159.764C194.384 159.633 193.024 159.18 193.007 158.83C192.636 150.954 187.288 157.071 184.546 155.903C183.312 155.373 180.685 160.824 181.422 162.419C182.088 163.867 183.41 165.074 182.924 167.095C176.998 165.98 179.598 159.437 176.817 157.268C172.251 153.701 176.512 149.37 174.343 145.836C174.272 150.451 171.093 153.816 169.891 158.421C167.428 156.487 165.046 155.242 165.5 152.052C162.861 152.287 164.374 156.105 161.671 155.449C159.77 154.99 160.021 152.532 158.967 151.658C154.39 147.851 155.591 141.919 153.237 137.353C152.855 136.61 152.538 135.703 153.368 135.102C154.231 134.474 154.908 135.234 155.482 135.78C158.776 138.904 160.267 138.303 160.425 133.677C160.513 131.17 161.856 130.869 164.112 132.164C165.385 132.896 167.182 134.742 168.466 133.529C169.962 132.109 170.765 129.171 169.64 127.576C167.728 124.866 170.143 120.311 165.576 118.841C164.669 118.546 165.778 117.083 166.095 116.209C167.051 113.587 168.717 110.938 165.019 108.966C164.593 108.736 164.506 107.841 164.293 107.24C163.746 105.716 164.609 102.493 162.31 103.209C160.786 103.684 158.311 106.207 158.808 109.08C159.032 110.38 159.579 111.571 158.912 112.899C157.798 115.111 156.176 115.63 154.958 113.363C153.587 110.801 153.024 107.704 148.933 109.321C148.818 109.364 148.059 107.791 147.305 106.945C147.835 109.354 146.224 111.249 145.634 113.259C144.743 116.274 141.067 115.111 139.052 114.062C136.304 112.636 133.742 110.812 130.864 109.539C129.176 108.796 128.766 107.081 128.684 105.361C128.313 97.2493 124.2 89.9245 124.293 81.753C123.49 81.8622 123.036 81.8131 122.965 81.9496C122.026 83.8778 122.337 87.4009 119.131 86.7455C115.624 86.0299 114.499 82.0261 114.384 79.366C114.111 73.1937 108.48 68.0374 111.265 61.3789C111.599 60.576 110.949 58.8882 110.206 58.189C105.541 53.7919 104.864 46.9696 100.226 42.436L93.5132 53.1146L93.4968 53.0272ZM216.746 824.822C217.844 830.716 214.223 836.353 215.796 842.296C215.949 842.875 215.162 843.776 214.572 843.508C211.972 842.307 207.373 840.755 207.99 838.696C209.46 833.791 212.792 829.438 215.446 824.904C215.566 824.696 216.386 824.904 216.866 824.915C214.376 822.79 212.715 823.396 211.852 826.472C211.404 828.061 211.055 829.672 210.579 831.251C210.334 832.076 209.776 832.742 208.799 832.66C207.848 832.584 207.056 831.792 207.291 831.049C208.214 828.121 206.745 824.085 209.372 822.304C212.704 820.043 217.309 822.697 221.121 820.862C221.127 820.862 221.608 821.659 221.744 822.124C222.782 825.696 222.17 828.87 219.849 832.267C218.041 829.449 222.536 825.09 216.741 824.822H216.746ZM172.699 398.217C169.389 402.396 167.772 407.804 162.752 410.764C155.482 415.052 149.621 420.476 149.67 429.926C149.681 431.745 148.403 433.023 146.376 432.81C144.383 432.602 144.536 431.16 144.416 429.532C143.979 423.639 144.694 417.881 145.688 412.097C146.147 409.437 147.387 408.803 149.779 409.366C151.079 409.672 152.254 411.048 153.865 409.972C152.21 406.187 149.064 404.078 145.743 402.243C143.667 401.096 141.914 399.507 142.706 397.207C144.175 392.919 141.794 389.505 140.789 385.791C140.352 384.169 139.871 381.776 137.522 382.164C135.61 382.481 135.747 384.698 135.468 386.272C135.266 387.402 135.239 388.566 135.212 389.718C135.13 393.345 135.168 396.972 134.993 400.594C134.933 401.839 134.791 403.538 133.081 403.609C131.596 403.669 131.623 402.123 131.328 401.041C128.127 389.352 130.449 378.892 138.374 369.732C140.1 367.738 142.176 367.673 142.602 370.562C143.034 373.495 143.771 376.27 144.694 379.04C146.77 385.305 144.989 393.602 153.821 396.3C153.958 396.344 154.078 396.513 154.166 396.65C157.121 401.484 161.638 400.621 166.079 399.856C168.34 399.463 170.569 398.857 172.819 398.354C173.627 396.715 174.911 396.164 176.763 395.972C180.641 395.579 182.831 393.591 181.739 389.309C181.236 387.326 181.591 385.414 182.154 383.486C183.17 380.001 182.82 376.642 180.859 373.534C179.986 372.152 178.478 370.562 180.745 369.464C182.717 368.503 185.071 370.207 184.885 371.704C184.23 376.92 187.474 380.525 189.124 384.819C190.118 387.413 189.37 390.319 187.403 392.673C186.251 394.05 185.011 395.47 184.312 397.087C182.58 401.08 179.8 401.325 176.315 399.796C175.108 399.266 173.906 398.742 172.699 398.217ZM152.057 741.949C157.356 736.804 162.938 734.652 169.433 740.059C170.083 740.6 171.339 740.54 172.317 740.546C174.523 740.562 175.539 742.031 176.309 743.724C178.21 747.919 176.342 750.23 170.23 751.295C170.645 753.136 171.978 753.475 173.595 753.436C177.883 753.333 181.744 754.425 184.973 757.418C185.945 758.32 187.267 759.336 188.381 757.91C189.364 756.648 187.928 755.905 187.103 755.141C186.36 754.447 185.606 753.671 186.436 752.639C187.01 751.923 187.96 751.754 188.638 752.404C190.549 754.234 192.581 756.228 192.024 759.133C191.522 761.766 189.337 762.094 186.966 761.875C186.038 761.788 185.027 762.088 184.109 762.378C177.943 764.333 174.736 763.405 170.782 758.303C169.454 756.593 168.329 754.698 165.855 754.589C164.872 754.545 163.178 755.031 163.91 755.9C166.286 758.746 163.588 762.149 165.369 764.923C167.193 767.764 168.204 770.828 165.227 773.395C161.878 776.285 158.049 778.339 153.45 776.208C151.249 775.192 149.463 773.778 146.584 774.297C144.186 774.728 144.749 771.997 145.53 771.128C151.921 764.071 149.774 755.261 148.277 747.98C147.212 742.796 148.649 742.643 151.85 741.611C148.84 739.464 146.606 736.427 143.367 734.499C141.095 733.15 141.116 730.959 142.504 728.922C144.328 726.245 145.399 728.616 146.682 729.654C147.179 730.058 147.819 730.298 148.414 730.566C154.357 733.221 155.274 736.072 152.057 741.955V741.949ZM240.021 778.486C240.305 779.409 240.529 780.354 240.878 781.25C241.408 782.588 245.112 780.889 243.702 783.905C242.785 785.866 242.124 788.247 239.327 788.859C234.924 789.82 229.97 789.034 226.469 793.261C227.643 788.422 230.369 784.221 234.46 783.806C238.677 783.38 238.825 780.851 240.048 778.453C237.59 778.524 236.099 777.17 234.963 775.149C233.816 773.111 232.314 772.489 230.866 774.788C226.922 781.042 223 775.629 219.352 774.559C216.391 773.69 215.823 770.102 217.079 765.868C220.133 769.506 220.788 769.856 227.185 770.664C228.605 770.844 230.697 772.712 231.341 770.178C231.953 767.769 229.326 766.054 227.764 766.338C221.7 767.441 215.643 759.314 209.7 766.365C209.656 766.42 209.181 766.114 208.897 765.967C208.782 764.568 211.191 765.049 210.76 763.492C209.006 757.08 210.601 750.044 206.122 744.041C202.282 738.89 203.713 737.241 209.847 735.154C214.234 733.663 220.788 734.346 221.313 726.999C221.351 726.486 222.596 725.595 223.197 725.661C229.113 726.311 235.411 724.306 240.889 728.124C243.746 730.118 245.838 729.386 247.094 726.202C247.635 724.825 247.875 723.307 248.564 722.018C249.378 720.477 250.749 720.16 251.36 722.083C252.649 726.131 256.085 728.294 258.718 731.183C264.923 737.995 268.228 745.702 265.234 755.042C264.644 756.883 264.246 759.15 261.87 759.527C259.242 759.942 257.243 758.385 256.293 756.211C253.381 749.525 247.225 748.498 241.244 747.482C238.213 746.969 235.498 746.74 233.608 743.861C232.521 742.206 230.768 741.114 228.523 742.31C228.719 744.08 232.237 743.932 230.975 746.013C228.501 750.083 230.429 754.108 230.626 758.107C230.91 763.836 232.942 765.814 238.721 766.95C240.638 767.327 242.927 766.857 244.347 768.441C246.898 771.281 249.973 771.626 253.387 770.915C255.932 770.386 257.014 770.336 256.91 773.92C256.839 776.443 255.309 775.526 254.605 776.165C252.78 777.836 250.546 777.76 248.121 777.366C245.412 776.924 242.506 776.52 240.015 778.492L240.021 778.486ZM23.2199 648.125C18.9211 644.902 18.4241 642.089 21.33 636.856C22.3623 634.994 23.9901 633.295 23.6514 630.995C22.9468 626.172 22.0837 621.415 29.7254 624.599C29.8565 624.654 30.0859 624.604 30.2006 624.517C35.0456 620.732 35.9687 626.473 37.9078 628.253C39.3826 629.608 36.2746 631.547 35.3296 633.284C34.7889 634.278 33.8712 635.065 33.1338 635.955C31.7355 637.648 31.8884 638.997 34.1225 639.664C36.0124 640.226 37.9897 640.516 39.8578 641.133C42.9385 642.149 44.1566 640.969 44.091 637.921C43.9982 633.852 45.8826 631.438 49.9848 630.7C52.2461 630.296 54.4365 629.111 53.8903 626.483C52.5684 620.147 56.2444 615.199 58.3037 609.884C58.9537 608.207 61.2916 606.301 64.0609 607.388C67.0706 608.573 65.8689 610.687 65.3937 612.768C64.6836 615.876 65.3664 618.64 68.3542 620.224C71.4294 621.857 71.8282 622.977 69.3101 626.068C65.2462 631.061 63.9025 637.971 58.6478 642.318C58.3638 642.553 58.4457 643.258 58.402 643.75C57.8449 649.408 55.9003 655.204 60.0735 660.409C60.7781 661.283 60.0188 662.332 60.0899 663.266C60.4613 668.188 55.9768 669.881 53.852 673.136C48.7667 680.931 49.1982 690.774 45.0196 698.994C44.5225 699.978 44.8448 701.534 43.6267 701.988C42.1137 702.55 41.8406 700.873 41.1797 700.076C39.765 698.366 37.9078 697.58 35.9578 696.602C31.9485 694.603 26.4644 693.265 25.7434 688.201C25.088 683.58 20.3031 678.555 25.8254 673.803C26.3224 673.371 26.0602 671.902 25.9455 670.935C24.7438 660.89 28.4855 652.107 33.3687 643.831C35.1985 640.734 33.8876 640.532 31.6208 640.226C27.7699 639.713 24.8367 642.515 23.2144 648.119L23.2199 648.125ZM195.859 581.748C197.831 581.748 199.808 581.852 201.769 581.721C203.905 581.579 206.024 580.989 208.149 580.989C213.524 580.989 215.244 584.173 212.513 588.816C208.902 594.956 199.513 598.686 192.816 596.534C191.516 596.119 190.304 595.819 188.965 596.146C187.48 596.512 186.125 596.693 185.016 595.125C183.76 593.344 184.781 591.94 185.524 590.542C186.425 588.843 188.141 587.418 186.152 585.326C184.355 583.436 183.077 584.736 181.417 585.588C179.412 586.615 177.243 585.817 177.926 583.419C178.986 579.711 178.249 577.105 175.485 574.582C174.245 573.451 174.753 571.801 175.987 570.632C177.134 569.551 177.675 567.595 179.641 567.71C180.532 567.759 180.701 568.83 180.952 569.622C182.138 573.391 184.803 574.123 188.135 571.605C191.92 568.748 192.909 562.865 190.298 557.217C192.696 557.867 194.149 557.173 194.947 554.863C195.476 553.323 196.957 552.809 197.705 554.759C199.562 559.582 203.2 562.324 207.766 564.22C209.012 564.739 210.039 565.847 209.815 567.333C209.421 569.933 211.677 569.103 212.748 569.764C214.649 570.938 214.397 568.988 214.862 568.196C217.631 563.444 219.226 562.936 224.022 565.481C224.978 565.989 226.469 565.137 226.993 566.656C224.055 571.523 221.542 576.985 214.157 575.046C213.939 574.986 213.534 575.696 213.19 576.023C211.464 577.673 209.323 579.039 207.084 578.045C204.281 576.799 207.329 574.418 206.958 572.44C200.982 572.921 201.643 581.306 195.853 581.748H195.859ZM186.535 828.831C183.869 827.198 182.252 823.615 179.363 826.728C176.643 829.656 174.212 824.959 171.65 826.75C170.558 827.515 169.296 828.383 168.417 826.51C167.641 824.855 168.302 823.659 169.88 822.877C173.136 821.272 173.294 818.961 171.426 816.154C171.093 815.651 170.672 814.957 170.776 814.449C171.945 808.561 170.159 804.503 164.03 802.809C163.156 802.569 161.747 802.056 162.878 800.313C167.422 793.305 168.362 793.141 174.895 798.844C175.654 799.51 176.506 800.564 177.38 800.198C179.554 799.292 179.691 803.787 182.083 801.782C183.285 800.777 184.377 798.805 186.169 799.838C188.07 800.936 187.857 803.23 187.944 805.224C188.119 809.277 187.551 813.39 188.802 818.027C190.336 815.012 191.713 812.674 194.406 811.5C195.695 810.937 196.203 810.101 194.892 808.872C193.603 807.665 193.51 806.136 194.805 804.967C195.886 803.989 197.394 804.393 198.552 804.994C200.01 805.759 200.305 806.971 199.879 808.73C199.043 812.182 199.229 815.968 200.605 819.027C202.304 822.796 201.419 825.046 198.218 827.635C197.601 823.375 195.285 822.238 191.533 822.965C188.436 823.566 186.273 824.696 186.529 828.831H186.535ZM77.1975 728.179C79.5408 730.358 82.9001 728.966 85.5383 730.369C86.4997 730.877 87.7287 731.79 87.9089 732.702C88.7556 737.028 89.5585 741.403 88.7829 745.855C88.6791 746.461 88.6736 747.28 87.7178 747.138C82.2282 746.324 81.611 751.18 79.7921 754.267C77.1975 758.68 74.3736 762.886 70.9487 766.655C69.545 768.195 67.3819 769.004 66.8466 771.363C66.4315 773.199 65.2134 774.269 63.2525 773.92C61.6575 773.63 59.8932 773.373 59.2815 771.478C58.7462 769.807 59.571 768.638 60.3684 767.092C62.3458 763.236 67.6987 759.86 63.1815 754.387C62.7062 753.813 63.0886 751.601 63.7386 751.191C66.5134 749.438 67.7643 746.472 69.8781 744.26C72.8878 741.114 77.8857 739.224 74.4828 733.226C73.4286 731.374 74.3244 729.02 77.1975 728.174V728.179ZM140.177 806.524C140.428 806.464 140.685 806.403 140.936 806.349C140.658 805.442 140.357 804.541 140.111 803.623C139.827 802.547 138.975 801.198 140.286 800.477C142.138 799.461 142.395 801.384 142.946 802.432C143.793 804.044 145.087 804.967 146.835 805.142C150.905 805.546 151.451 808.211 151.107 811.532C150.981 812.74 149.911 814.417 151.822 814.919C158.377 816.634 156.356 822.408 157.514 826.652C157.771 827.586 157.454 828.766 156.285 829.055C155.111 829.345 154.515 828.383 154.045 827.493C153.74 826.914 153.587 826.259 153.352 825.641C152.849 824.325 152.969 822.162 151.063 822.32C148.933 822.501 149.124 824.751 149.02 826.291C148.818 829.203 147.551 830.585 144.579 831.229C138.369 832.573 133.813 829.929 132.186 823.571C130.968 818.814 130.596 813.87 129.706 809.151C128.679 803.683 132.513 803.088 134.9 801.651C138.139 799.701 137.905 803.924 139.259 805.382C139.592 805.737 139.871 806.147 140.171 806.529L140.177 806.524ZM178.565 409.786C178.167 410.999 177.768 412.064 177.467 413.162C176.446 416.865 178.74 418.794 181.58 420.044C184.191 421.192 190.511 419.023 191.052 416.92C192.483 411.321 194.755 406.252 198.699 401.91C199.742 400.757 200.163 399.337 202.086 400.397C203.801 401.342 204.626 402.658 203.648 404.433C202.785 405.996 201.512 407.328 200.496 408.814C198.737 411.392 196.46 414.009 197.476 417.335C198.41 420.383 198.628 422.705 196.416 425.507C193.952 428.631 190.719 426.402 188.802 427.287C182.886 430.013 180.734 426.714 176.899 423.36C172.568 419.569 172.426 415.249 171.901 410.622C171.672 408.639 172.846 408.017 174.78 408.776C175.943 409.235 177.216 409.431 178.571 409.781L178.565 409.786ZM109.9 775.875C110.588 777.716 110.714 778.989 111.402 779.731C113.336 781.818 115.286 783.424 110.244 783.479C108.086 783.5 107.972 785.849 108.239 787.373C108.944 791.393 109.332 795.73 113.237 798.243C117.257 800.827 118.623 804.186 117.159 808.277C109.392 807.649 108.802 796.937 100.516 796.828C100.237 796.828 99.9039 795.736 99.7073 795.119C98.167 790.268 96.5174 785.45 95.1955 780.545C94.5619 778.191 95.3922 775.706 97.3968 774.368C99.8493 772.734 100.996 775.411 101.974 776.815C104.662 780.676 107.027 780.327 109.894 775.875H109.9ZM71.0471 333.299C72.9861 337.199 72.8933 339.28 71.1727 341.23C63.8478 349.516 64.4542 353.149 73.882 358.649C76.6731 360.277 79.661 361.719 81.5618 364.581C82.9001 366.597 82.3757 368.366 80.9883 369.972C79.6173 371.556 77.3996 372.026 76.1105 370.682C70.9542 365.297 61.734 363.155 61.9962 353.313C62.018 352.499 61.1659 351.013 60.5596 350.926C55.589 350.21 57.5882 346.01 56.6487 343.344C55.7747 340.859 57.1457 339.815 59.4453 340.302C64.7164 341.416 69.5122 341.782 71.0471 333.299ZM228.528 259.324C222.58 260.428 218.161 257.303 214.037 253.807C213.13 253.043 212.639 252.939 211.617 253.021C207.537 253.343 203.222 254.982 199.977 250.612C199.158 249.514 197.552 250.235 196.339 250.929C195.302 251.524 194.613 253.496 193.128 252.382C191.97 251.519 192.783 249.896 192.778 248.618C192.773 247.307 192.947 245.991 193.128 244.685C194.149 237.366 196.323 236.514 202.386 241.091C203.298 241.78 204.03 242.697 204.871 243.484C207.28 245.729 209.585 248.383 212.699 249.367C218.844 251.311 223.328 255.73 228.534 259.33L228.528 259.324ZM80.5295 566.284C80.4694 567.492 80.2181 568.644 78.8799 569.015C77.4706 569.409 76.2416 568.824 75.3295 567.803C71.4513 563.45 67.0323 560.232 60.8491 560.254C60.1882 560.254 59.347 559.528 58.8991 558.91C57.6428 557.179 56.2008 556.654 54.2234 557.616C52.9398 558.239 51.6726 558.397 50.8259 556.873C48.9032 553.399 53.6335 552.416 53.5789 549.575C53.5571 548.543 54.4692 548.068 55.2394 548.915C58.6041 552.602 66.8193 548.478 67.4802 556.523C67.5075 556.829 68.2122 557.152 68.6546 557.337C72.216 558.85 74.2152 562.931 78.6013 563.215C80.0488 563.307 80.4858 564.87 80.524 566.284H80.5295ZM184.732 244.303C184.066 245.396 182.957 245.379 181.777 245.325C180.679 245.27 179.21 244.702 178.653 245.975C177.959 247.564 179.592 248.263 180.565 248.995C182.383 250.361 184.661 251.114 186.027 253.097C186.671 254.037 187.562 255.02 186.748 256.2C186.043 257.221 185.011 256.686 184.066 256.396C180.93 255.441 177.795 254.468 174.633 253.616C171.923 252.884 171.066 250.929 171 248.443C170.929 245.658 171.372 240.933 172.874 240.977C175.796 241.064 180.324 235.258 182.116 242.413C182.411 243.588 184.519 242.528 184.721 244.309L184.732 244.303ZM196.552 711.568C192.336 716.763 188.507 721.548 181.236 717.795C180.439 717.386 179.292 717.632 178.303 717.621C176.146 717.599 174.174 717.134 174.157 714.513C174.135 711.612 176.424 711.339 178.631 711.039C182.209 710.547 186.191 712.486 189.359 709.252C189.566 709.039 190.735 709.4 191.123 709.804C192.527 711.268 194.433 711.355 196.552 711.563V711.568ZM105.956 117.541C108.518 115.286 108.343 112.707 107.862 109.752C107.098 105.071 103.482 100.685 106.24 95.5615C106.459 95.1573 106.098 93.9337 105.727 93.7863C101.45 92.0766 101.575 87.3627 99.4178 84.2438C97.0964 80.89 95.1901 76.7278 94.8897 71.921C97.3804 73.2046 97.4405 75.3622 98.2216 77.1156C99.5544 80.0925 100.499 83.2715 103.799 84.9648C109.026 87.6522 110.096 92.9833 109.326 97.7081C108.627 102.007 108.928 105.71 110.025 109.73C110.97 113.21 110.692 116.602 105.956 117.541ZM102.99 734.045C103.493 733.199 104.394 733.363 105.164 733.166C107.906 732.467 110.293 734.242 112.899 734.264C115.537 734.291 119.825 735.548 116.651 730.096C116.231 729.37 116.362 728.086 116.684 727.223C117.115 726.049 117.744 724.487 119.333 724.76C120.895 725.027 120.322 726.584 120.344 727.649C120.387 729.949 120.464 732.265 120.311 734.559C120.049 738.503 115.351 743.02 112.527 741.725C108.791 740.01 103.979 739.295 102.996 734.04L102.99 734.045ZM124.233 216.5C127.171 216.151 126.259 209.847 130.487 212.098C133.529 213.72 136.37 213.01 139.489 212.114C144.727 210.612 150.233 209.072 154.597 215.151C152.478 214.955 150.708 214.567 148.96 214.66C143.405 214.955 137.271 213.3 133.223 219.062C132.448 220.166 131.366 220.34 130.192 219.712C128.198 218.653 126.221 217.571 124.233 216.495V216.5ZM91.0005 752.125C92.9888 755.55 92.2623 760.242 96.2224 762.465C96.4409 762.591 96.501 763.547 96.2716 763.836C94.5182 766.092 94.1905 768.528 94.7695 771.287C95.0371 772.576 94.0102 773.324 92.7867 773.739C89.0614 774.996 87.035 773.286 87.614 769.331C88.0946 766.07 91.1152 762.864 89.7825 759.893C88.3404 756.681 89.4493 754.742 90.9951 752.125H91.0005ZM233.461 757.566C233.242 756.244 233.695 755.55 234.449 755.13C236.186 754.174 238.267 754.026 239.578 755.337C242.222 757.981 245.467 758.806 248.886 759.488C250.377 759.783 251.639 760.586 252.682 761.701C253.698 762.782 255.075 763.918 253.906 765.513C252.77 767.065 251.136 766.442 249.935 765.524C246.433 762.831 242.566 761.351 238.142 760.952C235.99 760.756 234.1 759.543 233.461 757.566ZM110.512 876.347C110.976 872.999 111.32 869.88 111.861 866.794C112.205 864.822 113.68 864.145 115.564 864.379C117.339 864.603 118.126 865.614 117.957 867.449C117.809 869.071 117.487 870.967 118.912 872.065C123.244 875.413 119.022 875.648 117.285 876.232C116.165 876.609 115.144 876.746 114.433 877.795C113.773 878.772 112.964 879.772 111.615 879.144C110.342 878.548 110.501 877.254 110.517 876.342L110.512 876.347ZM314.596 778.24C316.312 784.271 314.667 790.192 319.878 793.474C320.244 793.704 319.949 795.02 319.917 795.829C319.714 800.963 315.039 800.876 311.931 802.574C310.915 803.132 309.478 803.345 309.085 801.782C308.615 799.909 309.85 799.488 311.428 799.761C314.198 800.242 315.58 798.205 317.12 796.56C317.475 796.178 317.573 795.293 317.409 794.747C317.18 793.977 316.459 793.988 315.814 794.403C311.751 797.047 312.559 792.977 312.646 791.672C312.909 787.668 313.75 783.697 314.591 778.246L314.596 778.24ZM273.985 784.806C271.155 784.216 267.993 783.905 265.606 781.616C264.754 780.797 264.278 779.715 264.743 778.492C265.076 777.618 265.89 777.202 266.715 777.35C269.757 777.896 272.838 778.377 275.782 779.273C277.355 779.753 278.617 781.206 277.939 783.123C277.35 784.789 275.722 784.833 273.99 784.8L273.985 784.806ZM268.135 873.469C266.157 875.069 263.88 874.943 262.099 874.173C260.138 873.327 261.662 871.267 261.935 869.743C262.192 868.279 262.427 866.805 262.815 865.379C264.186 860.387 262.203 856.623 257.216 854.952C256.123 854.586 254.949 854.455 253.873 854.061C252.906 853.706 252.147 853.013 252.272 851.833C252.371 850.931 253.043 850.467 253.786 850.03C256.162 848.637 260.362 850.724 261.116 846.212C261.116 846.196 261.465 846.174 261.575 846.256C262.541 846.982 263.814 848.091 263.35 845.606C263.049 844 264.033 840.717 261.93 841.039C255.659 841.995 258.03 838.155 258.188 835.381C258.297 833.551 258.226 831.743 257.167 830.131C256.708 829.432 256.276 828.799 257.057 827.952C258.112 826.805 265.354 826.488 266.611 827.974C268.206 829.858 268.337 831.967 266.594 834.233C263.404 838.374 263.503 841.984 267.321 845.606C270.221 848.353 273.526 847.823 277.3 846.097C281.96 843.973 285.122 840.368 288.591 836.757C290.858 841.416 289.115 844.317 285.548 846.715C280.021 850.423 279.534 853.013 284.166 858.213C287.722 862.2 288.853 865.51 284.205 869.426C282.167 871.142 282.631 873.895 283.762 875.883C285.084 878.204 287.405 877.308 289.541 876.675C293.119 875.615 295.533 873.43 297.068 870.049C297.795 868.454 298.636 866.455 300.952 866.941C305.403 867.875 307.222 873.441 304.196 876.746C302.224 878.893 300.717 880.946 303.803 883.333C305.234 884.437 305.103 885.78 304.661 887.332C303.481 891.456 300.264 894.443 298.614 898.311C298.357 898.912 297.276 899.48 296.56 899.501C290.989 899.671 288.236 904.439 288.307 908.012C288.427 914.036 287.253 917.177 280.987 917.467C280.441 917.494 279.95 918.248 279.387 918.581C278.322 919.209 277.027 920.64 276.131 918.712C275.432 917.204 274.351 915.216 276.645 913.922C278.65 912.791 280.709 911.742 282.801 910.77C284.03 910.202 285.652 909.705 285.423 908.225C285.128 906.307 283.314 907.329 282.167 907.318C280.523 907.301 278.879 907.564 277.229 907.689C276.197 907.771 275.115 907.689 274.777 906.531C274.389 905.209 275.618 904.898 276.448 904.472C278.802 903.276 281.26 902.282 283.538 900.954C285.073 900.059 285.821 898.207 285.292 896.661C284.642 894.771 283.068 896.432 281.894 896.454C280.518 896.481 278.961 897.043 277.939 895.454C287.466 889.713 288.733 884.939 282.047 880.22C282.347 884.715 279.431 887.665 273.313 888.806C274.471 886.458 275.705 884.333 276.563 882.061C277.016 880.864 276.907 879.22 275.345 878.701C273.815 878.188 273.471 879.592 273.056 880.684C272.821 881.307 272.526 881.897 271.696 881.886C268.069 876.56 277.115 872.769 273.493 867.367C271.833 870.399 270.828 871.273 268.129 873.469H268.135ZM267.436 322.407C270.227 321.921 271.45 319.447 268.288 317.06C267.414 316.399 265.972 315.634 266.824 314.345C267.829 312.827 269.533 313.542 270.877 314.017C271.576 314.263 272.078 315.088 272.641 315.672C275.367 318.524 278.704 317.491 281.954 317.213C285.363 316.923 283.391 314.509 283.899 312.99C284.521 311.139 286.329 309.872 288.525 309.877C292.518 309.893 297.259 314.487 296.997 318.589C296.806 321.61 297.647 323.227 300.548 324.057C302.918 324.734 304.546 326.324 304.644 329C304.803 333.294 300.209 335.604 300.122 340.089C300.094 341.498 296.336 341.225 294.261 341.536C285.696 342.814 280.873 350.811 284.467 358.524C286.237 362.325 284.336 364.073 281.517 364.761C275.602 366.198 268.927 365.979 266.654 374.014C268.293 370.043 266.261 365.848 268.899 362.462C271.106 359.621 271.609 356.519 269.784 353.225C269.003 351.821 268.747 350.33 270.178 349.194C273.482 346.578 272.089 344.125 270.118 341.558C269.02 340.132 267.452 338.641 267.255 337.035C266.638 332.086 264.251 329.639 258.898 330.355C261.214 326.63 262.754 323.221 267.441 322.407H267.436ZM114.51 414.664C114.313 419.018 115.739 423.131 116.22 427.38C116.307 428.156 116.356 429.237 117.339 429.347C118.689 429.494 118.028 427.681 118.858 427.358C120.469 431.684 119.786 435.956 117.531 439.719C115.531 443.062 122.261 448.563 114.739 450.327C114.494 450.387 114.362 451.556 114.423 452.179C114.838 456.226 116.072 459.973 118.339 463.693C120.458 461.24 119.999 459.039 119.41 456.761C119.065 455.434 117.913 453.55 119.847 452.9C121.584 452.321 123.523 453.293 124.478 454.981C125.8 457.319 125.522 459.766 124.014 461.989C123.277 463.07 122.201 463.944 121.573 465.075C120.42 467.162 120.524 469.833 122.365 470.892C124.369 472.045 124.544 469.166 125.402 467.975C126.308 466.714 127.21 465.479 128.952 465.889C130.749 466.309 131.17 467.877 130.984 469.396C130.274 475.257 130.028 481.096 131.448 487.088C128.947 483.428 126.494 480.844 122.053 479.157C118.891 477.949 120.453 471.209 117.383 467.888C116.941 467.407 116.7 466.736 116.241 466.282C112.167 462.246 111.26 457.248 111.44 451.747C111.604 446.662 112.249 441.544 110.927 436.486C108.562 427.44 108.512 418.608 113.773 409.956C114.92 411.523 114.559 413.184 114.494 414.659L114.51 414.664ZM72.2324 409.404C74.3025 408.153 77.3068 409.044 78.1862 410.256C80.3328 413.206 83.4572 415.025 85.6367 417.772C88.0728 420.847 86.5434 428.757 83.348 431.122C79.8249 433.727 73.6962 431.979 71.3365 428.281C68.7311 424.201 71.3912 420.197 70.7193 416.21C70.9378 413.867 69.5067 411.048 72.2269 409.404H72.2324ZM213.037 176.921C213.081 180.035 212.912 183.148 212.846 186.262C212.819 187.436 212.803 188.812 214.234 189.042C215.741 189.282 215.932 187.736 216.386 186.753C216.981 185.459 216.189 184.18 216.156 182.924C216.053 178.445 214.611 173.78 217.396 169.154C218.101 171.606 218.161 174.021 219.352 175.561C223.175 180.499 218.494 186.649 221.963 191.505C222.012 191.576 221.651 192.084 221.389 192.21C218.401 193.652 217.948 196.711 217.194 199.436C215.086 199.043 214.933 195.138 212.813 196.918C209.864 199.398 212.344 202.572 213.354 205.614C204.336 202.075 205.898 186.742 209.902 171.792C211.333 173.922 213.01 174.955 213.037 176.927V176.921ZM372.507 666.248C374.118 663.14 377.308 661.229 380.198 659.519C383.628 657.487 386.687 660.508 388.358 666.041C389.374 669.406 388.069 671.011 385.785 673.071C383.54 675.097 381.814 674.748 379.695 673.366C378.226 672.41 376.478 671.716 375.418 673.628C374.446 675.381 373.08 677.43 375.222 679.423C375.937 680.09 376.882 680.658 377.286 681.483C378.275 683.504 376.653 684.869 375.544 686.147C374.774 687.043 373.217 686.497 373.157 685.574C372.916 681.87 370.595 678.981 369.251 675.447C370.3 672.377 371.016 669.116 372.501 666.248H372.507ZM124.806 391.679C125.331 397.841 129.722 402.838 129.908 409.109C129.952 410.524 130.115 413.446 132.24 412.545C137.358 410.365 136.326 414.315 136.512 416.51C137.014 422.393 135.501 428.38 137.484 434.224C137.845 435.284 137.145 437.349 136.031 436.546C133.518 434.743 131.257 436.245 128.919 436.071C126.773 435.912 124.249 434.967 124.255 432.498C124.255 429.871 126.811 431.373 128.215 431.127C132.519 430.379 134.884 427.823 132.852 424.513C130.268 420.301 129.465 415.74 127.936 411.305C127.428 409.83 126.15 408.645 124.757 408.361C119.983 407.378 121.081 404.565 122.714 401.877C123.583 400.446 124.304 399.244 123.097 397.917C120.633 395.202 121.999 392.466 122.725 389.188C123.632 390.232 124.746 390.909 124.806 391.674V391.679ZM96.7687 457.259C97.5061 464.387 99.9695 470.761 101.521 477.502C102.739 482.789 103.525 488.382 100.499 493.686C99.5871 488.235 99.314 482.696 97.2111 477.534C95.272 472.777 94.3762 467.773 94.0758 462.666C93.961 460.743 94.9716 457.805 94.0539 457.046C89.2417 453.074 92.53 448.169 92.2732 443.554C95.1573 447.656 96.3262 453.036 96.7687 457.259ZM2.08111 480.965C5.36936 481.068 8.95259 484.646 8.34629 487.787C7.83284 490.474 7.91478 494.068 4.04753 494.598C1.71516 494.915 -1.15798 489.83 -1.04873 486.039C-0.961336 483.111 0.393283 480.91 2.08111 480.965ZM42.578 234.69C42.578 234.646 42.5725 234.597 42.578 234.553C42.5835 234.553 42.578 234.69 42.578 234.69Z" fill="white"/>
</mask>
<g mask="url(#mask0_52_12622)">
<path d="M399.589 -9.3291H401.354V960.438H399.589V-9.3291Z" fill="#0A6323"/>
<path d="M391.931 -9.3291H393.695V960.438H391.931V-9.3291Z" fill="#0A6323"/>
<path d="M384.269 -9.3291H386.033V960.438H384.269V-9.3291Z" fill="#0A6323"/>
<path d="M376.609 -9.3291H378.373V960.438H376.609V-9.3291Z" fill="#0A6323"/>
<path d="M368.947 -9.3291H370.711V960.438H368.947V-9.3291Z" fill="#0A6323"/>
<path d="M361.288 -9.3291H363.053V960.438H361.288V-9.3291Z" fill="#0A6323"/>
<path d="M353.624 -9.3291H355.389V960.438H353.624V-9.3291Z" fill="#0A6323"/>
<path d="M345.966 -9.3291H347.73V960.438H345.966V-9.3291Z" fill="#0A6323"/>
<path d="M338.304 -9.3291H340.068V960.438H338.304V-9.3291Z" fill="#0A6323"/>
<path d="M330.644 -9.3291H332.408V960.438H330.644V-9.3291Z" fill="#0A6323"/>
<path d="M322.982 -9.3291H324.746V960.438H322.982V-9.3291Z" fill="#0A6323"/>
<path d="M315.32 -9.3291H317.084V960.438H315.32V-9.3291Z" fill="#0A6323"/>
<path d="M307.66 -9.3291H309.424V960.438H307.66V-9.3291Z" fill="#0A6323"/>
<path d="M299.995 -9.3291H301.76V960.438H299.995V-9.3291Z" fill="#0A6323"/>
<path d="M292.339 -9.3291H294.104V960.438H292.339V-9.3291Z" fill="#0A6323"/>
<path d="M284.675 -9.3291H286.439V960.438H284.675V-9.3291Z" fill="#0A6323"/>
<path d="M277.017 -9.3291H278.781V960.438H277.017V-9.3291Z" fill="#0A6323"/>
<path d="M269.355 -9.3291H271.119V960.438H269.355V-9.3291Z" fill="#0A6323"/>
<path d="M261.695 -9.3291H263.459V960.438H261.695V-9.3291Z" fill="#0A6323"/>
<path d="M254.033 -9.3291H255.797V960.438H254.033V-9.3291Z" fill="#0A6323"/>
<path d="M246.374 -9.3291H248.139V960.438H246.374V-9.3291Z" fill="#0A6323"/>
<path d="M238.71 -9.3291H240.475V960.438H238.71V-9.3291Z" fill="#0A6323"/>
<path d="M231.052 -9.3291H232.816V960.438H231.052V-9.3291Z" fill="#0A6323"/>
<path d="M223.39 -9.3291H225.154V960.438H223.39V-9.3291Z" fill="#0A6323"/>
<path d="M215.73 -9.3291H217.494V960.438H215.73V-9.3291Z" fill="#0A6323"/>
<path d="M208.068 -9.3291H209.832V960.438H208.068V-9.3291Z" fill="#0A6323"/>
<path d="M200.41 -9.3291H202.174V960.438H200.41V-9.3291Z" fill="#0A6323"/>
<path d="M192.747 -9.3291H194.512V960.438H192.747V-9.3291Z" fill="#0A6323"/>
<path d="M185.087 -9.3291H186.852V960.438H185.087V-9.3291Z" fill="#0A6323"/>
<path d="M177.425 -9.3291H179.189V960.438H177.425V-9.3291Z" fill="#0A6323"/>
<path d="M169.767 -9.3291H171.531V960.438H169.767V-9.3291Z" fill="#0A6323"/>
<path d="M162.103 -9.3291H163.867V960.438H162.103V-9.3291Z" fill="#0A6323"/>
<path d="M154.445 -9.3291H156.209V960.438H154.445V-9.3291Z" fill="#0A6323"/>
<path d="M146.783 -9.3291H148.547V960.438H146.783V-9.3291Z" fill="#0A6323"/>
<path d="M139.122 -9.3291H140.887V960.438H139.122V-9.3291Z" fill="#0A6323"/>
<path d="M131.46 -9.3291H133.225V960.438H131.46V-9.3291Z" fill="#0A6323"/>
<path d="M123.804 -9.3291H125.568V960.438H123.804V-9.3291Z" fill="#0A6323"/>
<path d="M116.138 -9.3291H117.902V960.438H116.138V-9.3291Z" fill="#0A6323"/>
<path d="M108.48 -9.3291H110.244V960.438H108.48V-9.3291Z" fill="#0A6323"/>
<path d="M100.818 -9.3291H102.582V960.438H100.818V-9.3291Z" fill="#0A6323"/>
<path d="M93.1576 -9.3291H94.9219V960.438H93.1576V-9.3291Z" fill="#0A6323"/>
<path d="M85.4955 -9.3291H87.2598V960.438H85.4955V-9.3291Z" fill="#0A6323"/>
<path d="M77.8392 -9.3291H79.6035V960.438H77.8392V-9.3291Z" fill="#0A6323"/>
<path d="M70.1732 -9.3291H71.9375V960.438H70.1732V-9.3291Z" fill="#0A6323"/>
<path d="M62.515 -9.3291H64.2793V960.438H62.515V-9.3291Z" fill="#0A6323"/>
<path d="M54.8529 -9.3291H56.6172V960.438H54.8529V-9.3291Z" fill="#0A6323"/>
<path d="M47.1947 -9.3291H48.959V960.438H47.1947V-9.3291Z" fill="#0A6323"/>
<path d="M39.5306 -9.3291H41.2949V960.438H39.5306V-9.3291Z" fill="#0A6323"/>
<path d="M31.8744 -9.3291H33.6387V960.438H31.8744V-9.3291Z" fill="#0A6323"/>
<path d="M24.2084 -9.3291H25.9727V960.438H24.2084V-9.3291Z" fill="#0A6323"/>
<path d="M16.5501 -9.3291H18.3145V960.438H16.5501V-9.3291Z" fill="#0A6323"/>
<path d="M8.88806 -9.3291H10.6523V960.438H8.88806V-9.3291Z" fill="#0A6323"/>
<path d="M1.22986 -9.3291H2.99414V960.438H1.22986V-9.3291Z" fill="#0A6323"/>
<path d="M455.098 18.5122L456.859 18.6055L405.685 985.381L403.923 985.288L455.098 18.5122Z" fill="#0A6323"/>
<path d="M447.457 17.6118L449.219 17.7051L398.045 984.481L396.283 984.387L447.457 17.6118Z" fill="#0A6323"/>
<path d="M439.818 16.7183L441.58 16.8115L390.406 983.587L388.644 983.494L439.818 16.7183Z" fill="#0A6323"/>
<path d="M432.185 15.8247L433.947 15.918L382.773 982.693L381.011 982.6L432.185 15.8247Z" fill="#0A6323"/>
<path d="M424.545 14.9312L426.307 15.0244L375.132 981.8L373.371 981.707L424.545 14.9312Z" fill="#0A6323"/>
<path d="M416.914 14.0366L418.676 14.1299L367.502 980.905L365.74 980.812L416.914 14.0366Z" fill="#0A6323"/>
<path d="M409.273 13.1372L411.035 13.2305L359.861 980.006L358.099 979.913L409.273 13.1372Z" fill="#0A6323"/>
<path d="M401.631 12.2427L403.393 12.3359L352.218 979.111L350.457 979.018L401.631 12.2427Z" fill="#0A6323"/>
<path d="M393.998 11.3491L395.76 11.4424L344.586 978.218L342.824 978.125L393.998 11.3491Z" fill="#0A6323"/>
<path d="M386.361 10.4546L388.123 10.5479L336.949 977.323L335.187 977.23L386.361 10.4546Z" fill="#0A6323"/>
<path d="M378.721 9.56104L380.482 9.6543L329.308 976.43L327.546 976.336L378.721 9.56104Z" fill="#0A6323"/>
<path d="M371.09 8.66065L372.852 8.75391L321.677 975.529L319.916 975.436L371.09 8.66065Z" fill="#0A6323"/>
<path d="M363.445 7.76807L365.207 7.86133L314.033 974.637L312.271 974.544L363.445 7.76807Z" fill="#0A6323"/>
<path d="M355.812 6.87354L357.574 6.9668L306.4 973.742L304.638 973.649L355.812 6.87354Z" fill="#0A6323"/>
<path d="M348.174 5.97998L349.936 6.07324L298.761 972.849L297 972.755L348.174 5.97998Z" fill="#0A6323"/>
<path d="M340.543 5.08545L342.305 5.17871L291.131 971.954L289.369 971.861L340.543 5.08545Z" fill="#0A6323"/>
<path d="M332.902 4.18604L334.664 4.2793L283.49 971.055L281.728 970.961L332.902 4.18604Z" fill="#0A6323"/>
<path d="M325.26 3.29639L327.021 3.38965L275.847 970.165L274.085 970.072L325.26 3.29639Z" fill="#0A6323"/>
<path d="M317.625 2.39795L319.387 2.49121L268.213 969.267L266.451 969.173L317.625 2.39795Z" fill="#0A6323"/>
<path d="M309.988 1.50342L311.75 1.59668L260.576 968.372L258.814 968.279L309.988 1.50342Z" fill="#0A6323"/>
<path d="M302.355 0.608889L304.117 0.702148L252.943 967.478L251.181 967.384L302.355 0.608889Z" fill="#0A6323"/>
<path d="M294.717 -0.289547L296.479 -0.196289L245.304 966.579L243.543 966.486L294.717 -0.289547Z" fill="#0A6323"/>
<path d="M287.078 -1.1792L288.84 -1.08594L237.666 965.689L235.904 965.596L287.078 -1.1792Z" fill="#0A6323"/>
<path d="M279.441 -2.07861L281.203 -1.98535L230.029 964.79L228.267 964.697L279.441 -2.07861Z" fill="#0A6323"/>
<path d="M271.801 -2.97217L273.562 -2.87891L222.388 963.896L220.627 963.803L271.801 -2.97217Z" fill="#0A6323"/>
<path d="M264.17 -3.86572L265.932 -3.77246L214.757 963.003L212.996 962.91L264.17 -3.86572Z" fill="#0A6323"/>
<path d="M256.531 -4.76025L258.293 -4.66699L207.119 962.108L205.357 962.015L256.531 -4.76025Z" fill="#0A6323"/>
<path d="M248.892 -5.65381L250.654 -5.56055L199.48 961.215L197.718 961.122L248.892 -5.65381Z" fill="#0A6323"/>
<path d="M241.254 -6.5542L243.016 -6.46094L191.841 960.314L190.08 960.221L241.254 -6.5542Z" fill="#0A6323"/>
<path d="M233.615 -7.44775L235.377 -7.35449L184.203 959.421L182.441 959.328L233.615 -7.44775Z" fill="#0A6323"/>
<path d="M225.982 -8.34228L227.744 -8.24902L176.57 958.526L174.808 958.433L225.982 -8.34228Z" fill="#0A6323"/>
<path d="M218.346 -9.23584L220.107 -9.14258L168.933 957.633L167.171 957.54L218.346 -9.23584Z" fill="#0A6323"/>
<path d="M210.705 -10.1304L212.467 -10.0371L161.293 956.738L159.531 956.645L210.705 -10.1304Z" fill="#0A6323"/>
<path d="M203.07 -11.0298L204.832 -10.9365L153.658 955.839L151.896 955.746L203.07 -11.0298Z" fill="#0A6323"/>
<path d="M195.43 -11.9243L197.191 -11.8311L146.017 954.944L144.255 954.851L195.43 -11.9243Z" fill="#0A6323"/>
<path d="M187.797 -12.8179L189.559 -12.7246L138.384 954.051L136.623 953.957L187.797 -12.8179Z" fill="#0A6323"/>
<path d="M180.158 -13.7124L181.92 -13.6191L130.746 953.156L128.984 953.063L180.158 -13.7124Z" fill="#0A6323"/>
<path d="M172.521 -14.605L174.283 -14.5117L123.109 952.264L121.347 952.17L172.521 -14.605Z" fill="#0A6323"/>
<path d="M164.887 -15.5054L166.648 -15.4121L115.474 951.363L113.712 951.27L164.887 -15.5054Z" fill="#0A6323"/>
<path d="M157.244 -16.3989L159.006 -16.3057L107.832 950.47L106.07 950.377L157.244 -16.3989Z" fill="#0A6323"/>
<path d="M149.609 -17.2876L151.371 -17.1943L100.197 949.581L98.4351 949.488L149.609 -17.2876Z" fill="#0A6323"/>
<path d="M141.975 -18.188L143.736 -18.0947L92.5622 948.681L90.8003 948.587L141.975 -18.188Z" fill="#0A6323"/>
<path d="M134.334 -19.0815L136.096 -18.9883L84.9215 947.787L83.1597 947.694L134.334 -19.0815Z" fill="#0A6323"/>
<path d="M126.703 -19.981L128.465 -19.8877L77.2907 946.888L75.5289 946.794L126.703 -19.981Z" fill="#0A6323"/>
<path d="M119.058 -20.8755L120.82 -20.7822L69.6462 945.993L67.8843 945.9L119.058 -20.8755Z" fill="#0A6323"/>
<path d="M111.426 -21.7632L113.188 -21.6699L62.0133 945.105L60.2515 945.012L111.426 -21.7632Z" fill="#0A6323"/>
<path d="M103.787 -22.6626L105.549 -22.5693L54.3747 944.206L52.6129 944.113L103.787 -22.6626Z" fill="#0A6323"/>
<path d="M96.1503 -23.5571L97.9121 -23.4639L46.7379 943.312L44.9761 943.218L96.1503 -23.5571Z" fill="#0A6323"/>
<path d="M88.5155 -24.4565L90.2773 -24.3633L39.1032 942.412L37.3414 942.319L88.5155 -24.4565Z" fill="#0A6323"/>
<path d="M80.8788 -25.3511L82.6406 -25.2578L31.4665 941.518L29.7046 941.424L80.8788 -25.3511Z" fill="#0A6323"/>
<path d="M73.2382 -26.2388L75 -26.1455L23.8258 940.63L22.064 940.537L73.2382 -26.2388Z" fill="#0A6323"/>
<path d="M65.6014 -27.1392L67.3633 -27.0459L16.1891 939.73L14.4273 939.636L65.6014 -27.1392Z" fill="#0A6323"/>
<path d="M57.9628 -28.0327L59.7246 -27.9395L8.55045 938.836L6.78863 938.743L57.9628 -28.0327Z" fill="#0A6323"/>
<path d="M50.33 -28.9321L52.0918 -28.8389L0.917643 937.936L-0.844177 937.843L50.33 -28.9321Z" fill="#0A6323"/>
<path d="M42.6913 -29.8198L44.4531 -29.7266L-6.72103 937.049L-8.48288 936.955L42.6913 -29.8198Z" fill="#0A6323"/>
<path d="M35.0546 -30.7153L36.8164 -30.6221L-14.3577 936.153L-16.1196 936.06L35.0546 -30.7153Z" fill="#0A6323"/>
<path d="M27.414 -31.6138L29.1758 -31.5205L-21.9984 935.255L-23.7602 935.162L27.414 -31.6138Z" fill="#0A6323"/>
<path d="M19.7772 -32.5083L21.5391 -32.415L-29.6351 934.36L-31.3969 934.267L19.7772 -32.5083Z" fill="#0A6323"/>
<path d="M12.1444 -33.4077L13.9062 -33.3145L-37.2679 933.461L-39.0298 933.368L12.1444 -33.4077Z" fill="#0A6323"/>
<path d="M4.50576 -34.2964L6.26758 -34.2031L-44.9066 932.572L-46.6684 932.479L4.50576 -34.2964Z" fill="#0A6323"/>
</g>
</svg>
