<svg width="474" height="480" viewBox="0 0 474 480" fill="none" xmlns="http://www.w3.org/2000/svg">
<path d="M167.429 349.563C166.573 348.544 164.814 346.912 165.008 346.621C169.867 339.509 164.443 330.893 168.833 323.458C172.191 317.768 166.396 308.539 158.405 305.257C150.753 302.121 142.859 299.551 135.918 294.67C144.183 295.559 151.77 299.972 162.489 299.357C155.225 293.942 150.689 288.301 142.456 287.622C126.926 286.361 111.445 284.616 95.9641 282.854C93.4781 282.579 90.5724 282.838 87.9734 279.864C92.2997 278.684 96.174 277.633 101.324 276.227C86.9887 276.13 74.042 278.28 61.0146 278.926C86.7949 270.537 113.302 270.505 141.358 272.412C136.063 264.96 131.446 258.786 127.249 252.352C125.925 250.316 123.262 247.439 125.764 245.143C128.751 242.412 130.51 246.242 132.141 247.891C141.746 257.541 151.754 266.852 159.81 278.991C164.297 264.75 163.232 249.12 171.965 236.221C170.932 241.021 169.834 245.806 168.898 250.607C166.703 261.986 167.284 272.784 175.759 281.852C177.05 283.242 181.554 282.611 183.168 281.722C191.337 277.229 191.676 268.516 194.695 261.243C195.679 258.883 195.841 255.925 199.521 254.211C197.923 261.695 196.486 268.565 195.001 275.435C194.291 278.732 194.42 280.138 198.859 279.621C206.301 278.764 211.386 274.966 214.647 268.84C221.734 255.553 228.514 242.088 235.133 228.559C236.763 225.229 239.604 221.124 233.922 218.327C232.986 217.858 232.566 217.083 232.792 215.725C234.987 202.6 234.713 202.179 223.122 198.122C221.686 197.621 219.894 197.492 219.458 195.471C221.492 193.451 224.188 195.552 227.707 193.596C199.134 188.893 174.5 200.951 148.655 205.541C160.972 198.171 175.032 195.407 189.432 190.509C176.776 183.284 164.749 186.387 152.561 187.842C165.508 181.118 179.682 178.079 194.695 173.343C189.206 170.757 185.59 170.158 180.343 170.692C151.609 173.553 131.818 191.996 110.202 208.031C113.189 202.325 117.967 198.074 122.616 193.726C127.427 189.248 132.302 184.852 137.419 180.148C117.095 177.739 106.296 192.885 92.8808 202.406C82.6623 209.663 73.703 218.667 63.6621 226.345C80.8543 203.311 103.826 186.339 125.36 167.217C111.187 166.004 98.095 172.066 84.3089 173.181C100.662 164.21 118.984 161.139 137.274 155.029C118.387 141.112 97.1426 131.527 80.7736 114.732C83.5502 116.316 86.3429 117.9 89.1195 119.484C110.444 131.591 134.465 138.493 154.386 153.445C158.066 156.209 159.923 161.64 165.637 161.64C167.3 161.64 169.398 163.612 170.448 161.074C171.158 159.345 172.337 157.421 170.27 155.32C167.962 152.976 166.202 150.115 164.878 146.882C172.885 152.41 179.585 159.183 185.993 166.36C186.768 159.215 186.542 158.795 174.064 144.07C181.49 147.755 187.333 150.826 193.322 153.542C195.389 154.479 197.923 156.662 200.006 154.997C202.249 153.202 199.893 150.519 199.699 148.208C199.554 146.624 199.053 145.072 199.441 143.148C201.087 146.769 202.766 150.39 204.38 154.027C205.123 155.692 205.413 158.278 207.835 157.68C210.595 157.017 209.95 154.059 209.627 152.249C208.497 146.203 206.899 140.239 206.624 133.418C208.707 136.812 210.902 140.142 212.839 143.601C217.424 151.845 217.375 151.877 223.913 144.684C224.817 143.682 225.673 142.647 226.577 141.661C235.181 132.254 234.196 127.227 222.59 122.345C223.816 118.611 227.626 123.186 229.321 119.662C214.405 110.352 198.537 103.498 180.586 100.686C185.929 98.5358 189.9 98.5681 200.603 101.267C207.286 102.949 213.856 105.05 220.862 106.084C210.934 98.8752 203.299 88.4656 188.609 89.2738C171.239 90.2436 153.772 87.9968 136.209 89.1445C144.232 84.6509 153.126 83.8104 161.876 83.1961C171.513 82.5173 181.231 82.9537 190.901 82.8405C192.467 82.8405 194.404 83.277 195.356 81.709C196.599 79.6724 194.678 78.2661 193.677 76.7952C190.933 72.738 186.268 70.9923 180.699 67.2423C188.076 66.9675 191.45 70.863 195.55 72.932C197.164 73.7402 199.15 76.6174 200.78 73.2229C202.04 70.5882 199.747 69.3436 197.729 68.4707C177.777 59.8876 158.131 51.6117 135.143 55.2324C122.987 57.1398 110.17 56.1699 97.6107 56.7195C128.008 49.3325 158.47 42.8346 192.515 44.5642C181.554 32.0371 170.593 22.5973 166.622 7.85571C184.072 13.4646 192.693 28.2708 203.234 42.5437C207.625 27.301 208.836 12.22 218.441 0C222.008 2.44076 219.829 5.2533 219.022 7.25764C214.825 17.7804 214.066 28.7073 214.792 39.8119C215.196 46.0513 215.745 52.5815 213.033 58.0934C209.449 65.3672 218.893 68.6 217.23 75.1303C221.75 63.5569 222.557 50.9651 228.901 38.0662C229.725 45.2269 227.513 50.1407 226.803 55.1678C226.254 59.0633 225.641 64.8177 228.062 65.8522C237.78 69.9901 232.13 80.5452 237.602 86.041C238.151 86.5906 238.652 87.1725 239.54 88.11C243.43 80.6422 242.704 71.6065 248.886 64.5752C249.5 71.946 246.174 77.7974 245.238 86.3481C264.933 71.5742 282.593 56.2346 308.034 52.8401C303.934 56.4609 299.947 56.8811 296.492 58.2874C289.454 61.1646 282.932 64.9308 277.411 70.1518C275.167 72.2854 269.808 74.4514 276.749 78.2823C278.589 79.3006 275.329 85.9278 279.106 87.2371C284.837 89.2253 285.257 94.026 286.822 98.2448C288.049 101.558 289.373 104.71 291.891 108.105C297.993 102.253 298.09 93.3471 304.354 85.7177C302.772 93.5896 301.545 99.7804 299.979 107.604C306.549 104.08 312.135 101.736 316.945 98.2933C321.078 95.3353 319.205 90.2113 318.479 86.2673C316.396 74.807 316.525 63.2498 315.944 51.7087C315.783 48.4112 316.267 45.0652 317.397 41.6708C322.062 56.1538 325.097 70.9761 333.621 84.5216C341.353 75.5991 344.42 63.1204 353.783 54.6828C350.571 64.3651 347.358 74.0311 344.098 83.8427C345.889 85.8309 348.279 84.9418 349.909 84.166C360.37 79.2521 371.525 80.7877 382.453 80.2866C385.698 80.1411 388.588 79.2844 391.606 77.8943C387.022 84.6671 380.629 89.6941 376.674 96.6446C375.754 98.261 372.832 100.055 375.657 101.93C377.627 103.24 380.242 102.868 382.211 100.766C398.596 83.277 418.42 71.0731 440.31 61.6172C448.365 58.1419 455.855 53.3089 464.54 51.2884C467.026 50.7065 469.48 49.1224 474 51.2237C450.464 62.4254 428.558 74.0958 414.045 94.6564C452.32 98.9399 455.726 100.023 468.382 112.647C450.221 111.176 432.835 109.349 413.351 109.349C431.931 128.488 440.31 151.845 453.127 172.615C452.546 173.02 451.965 173.424 451.384 173.844C445.508 166.166 439.244 158.731 433.836 150.746C426.298 139.609 420.018 127.663 411.753 116.979C409.154 113.601 406.361 111.661 401.76 111.451C396.449 111.208 391.235 109.333 385.924 108.654C380.952 108.008 375.851 105.082 370.976 110.109C369.232 111.903 365.39 111.855 362.646 109.851C361.112 108.735 359.579 107.652 357.496 108.412C353.622 109.851 346.987 108.671 346.632 113.31C346.341 117.011 352.766 115.767 356.14 116.607C371.977 120.616 387.619 125.109 402.228 133.321C394.835 131.462 387.361 129.813 380.032 127.679C365.697 123.509 351.281 121.214 336.333 123.768C329.747 124.899 329.246 125.061 328.326 132.513C328.052 134.775 326.373 134.695 324.968 135.147C321.514 136.295 320.545 139.592 320.61 142.211C320.706 145.783 324.371 144.021 326.453 144.377C334.751 145.815 342.774 147.674 349.231 155.789C338.431 154.35 328.681 153.057 318.931 151.748C318.802 152.136 318.689 152.54 318.559 152.928L361.79 179.808C361.451 180.423 361.112 181.037 360.773 181.651C352.589 177.497 344.291 173.569 336.268 169.14C327.567 164.339 319.141 159.038 310.536 154.027C308.938 153.089 307.114 152.006 305.371 151.958C301.48 151.877 295.992 151.376 295.023 155.514C294.345 158.423 299.866 158.375 302.739 159.393C309.745 161.915 317.187 163.321 323.386 168.057C310.44 165.471 297.929 161.074 284.691 159.717C276.136 158.844 271.131 163.596 263.528 168.558C271.018 169.577 275.732 165.924 281.495 166.263C280.801 167.136 280.462 168.057 279.962 168.154C260.316 171.823 252.502 187.793 247.756 203.65C244.173 215.612 238.313 226.102 233.502 237.239C228.498 248.829 222.218 259.853 216.552 271.151C216.003 272.25 215.745 273.511 215.196 275.128C224.833 274.594 233.212 270.181 242.462 270.602C246.174 270.763 244.754 267.013 244.818 264.896C245.141 254.147 242.655 243.414 244.786 232.649C245.028 231.388 245.174 230.095 245.948 228.769C245.125 242.703 251.792 254.761 254.73 268.581C263.447 261.889 267.08 251.9 274.586 245.095C271.261 254.793 264.674 263.021 261.946 273.527C271.729 273.463 279.8 270.909 284.885 261.566C284.094 263.667 283.206 265.752 282.528 267.902C282.012 269.535 280.494 271.491 283.352 272.606C285.37 273.382 286.596 272.606 288.211 271.135C295.475 264.556 297.574 255.715 299.495 246.76C301.238 238.694 302.449 230.483 306.985 223.096C304.66 235.17 303.369 247.18 308.002 259.772C316.348 253.419 324.758 247.018 333.169 240.617C327.099 251.771 314.314 257.735 311.15 272.024C323.774 270.036 335.493 277.584 347.875 272.832C351.766 271.345 347.036 278.376 352.169 277.374C355.462 276.728 359.272 278.716 363.033 280.51C349.845 280.251 335.397 275.806 327.777 292.439C337.786 295.834 346.212 289.901 355.64 288.22C353.848 289.368 352.185 290.887 350.216 291.599C344.776 293.587 346.293 296.125 349.36 298.953L349.505 298.775C343.113 300.166 336.979 300.376 331.329 296.044C330.053 295.074 327.68 295.3 325.824 295.365C321.465 295.543 318.624 299.018 317.526 302.105C316.203 305.839 321.142 305.419 323.338 306.696C334.315 313.113 345.421 319.336 356.14 326.27C343.42 323.749 331.442 319.368 319.318 314.018C330.118 329.277 340.756 344.455 347.326 364.417C344.759 361.653 343.549 360.49 342.499 359.197C337.495 353.022 333.427 346.637 325.388 342.742C317.349 338.862 311.844 330.344 308.099 322.003C304.757 314.535 299.204 310.915 292.166 308.506C288.517 307.245 284.885 306.308 285.063 301.232C285.16 298.388 282.544 297.903 280.543 297.482C275.829 296.496 271.051 295.737 266.272 295.042C264.142 294.734 261.462 294.476 260.751 297.03C259.864 300.149 263.141 300.085 264.852 300.812C273.973 304.724 283.206 308.377 292.343 312.272C294.49 313.178 296.928 313.905 298.574 317.219C285.709 313.226 273.924 308.312 261.494 305.273C255.618 303.835 252.68 307.342 248.596 309.153C247.417 309.67 246.449 311.109 247.143 312.483C247.514 313.242 248.725 313.824 249.661 314.034C253.584 314.923 257.62 315.376 261.446 316.524C264.012 317.283 267.176 317.752 268.791 322.44C260.897 319.045 254.246 315.069 244.592 316.879C264.61 334.029 287.759 344.552 304.983 362.866C292.263 355.075 279.267 347.688 266.918 339.363C256.522 332.364 243.446 329.536 235.439 318.883C234.309 317.38 232.388 317.332 231 317.994C223.461 321.551 215.148 322.375 207.286 324.799C194.016 328.889 184.008 336.664 175.097 346.621C173.596 348.286 171.981 349.676 169.528 348.415C168.817 348.738 168.107 349.062 167.397 349.385L167.429 349.563ZM268.145 139.221C271.374 136.263 273.311 134.452 275.264 132.674C280.284 128.1 285.644 123.606 282.867 115.621C278.88 104.209 274.667 92.8945 270.792 81.4504C269.711 78.2823 268.452 78.3469 266.289 80.1735C257.894 87.2695 249.468 94.3331 241.122 101.478C239.491 102.868 237.667 104.71 239.572 106.941C241.784 109.495 243.333 107.038 244.802 105.664C248.37 102.334 251.857 98.9237 256.974 94.0098C255.715 101.478 251.389 104.258 248.725 107.976C246.739 110.756 247.208 113.019 248.999 115.249C251.211 118.013 252.648 114.975 254.327 114.199C256.796 113.051 258.734 110.594 262.059 110.675C261.526 113.374 259.315 113.778 258.169 115.152C255.989 117.787 250.84 119.129 253.455 123.978C255.295 127.405 256.199 133.369 259.848 133.385C264.432 133.385 267.031 128.504 267.887 123.638C268 123.024 268.839 122.555 270.728 120.551C269.808 127.34 269.114 132.416 268.177 139.269L268.145 139.221ZM252.551 154.69C247.676 159.83 241.525 163.208 242.236 169.399C243.317 178.822 243.592 188.311 244.931 197.831C251.663 184.738 256.167 171.355 252.567 154.69H252.551ZM177.422 339.428C184.056 334.967 188.641 329.923 191.45 323.345C191.966 322.132 192.112 320.516 193.758 320.322C200.377 319.546 200.425 319.579 201.442 313.097C201.927 310.009 202.185 306.89 202.556 303.77C207.916 307.682 208.238 307.326 209.74 296.044C203.573 297.191 199.215 300.085 196.196 306.017C190.594 317.025 184.137 327.596 177.422 339.412V339.428ZM380.145 84.8125C371.428 85.6207 363.776 87.8837 356.834 91.4883C351.879 94.0745 352.282 100.718 349.99 105.405C349.457 106.472 350.845 107.329 352.008 107.07C354.849 106.408 358.416 106.408 360.354 104.646C367.037 98.6004 373.155 91.9247 380.145 84.8125ZM222.17 290.629C221.298 292.197 220.426 293.506 219.797 294.928C219.07 296.593 217.392 298.388 218.409 300.133C219.684 302.315 222.251 301.119 224.236 301.216C232.501 301.636 228.869 295.009 230.354 291.211C231.775 287.541 235.891 282.951 233.454 280.445C230.29 277.197 225.124 281.189 220.798 281.9C217.908 282.369 214.066 282.482 214.776 287.477C215.535 292.779 219.813 287.849 222.154 290.645L222.17 290.629ZM241.412 154.366C257.232 138.429 257.329 138.041 248.838 125.4C242.462 133.967 236.069 142.276 241.412 154.366ZM183.701 184.011C190.804 186.953 198.876 183.704 205.123 188.909C206.059 186.533 202.863 185.595 204.17 183.348C207.415 183.769 209.788 186.064 212.29 187.858C215.115 189.879 217.73 190.525 220.749 188.828C209.611 177.691 198.004 171.241 183.717 184.011H183.701ZM335.284 279.12C328.455 278.748 323.935 278.425 319.415 278.263C314.201 278.086 311.376 281.852 308.357 285.246C315.492 287.978 305.451 289.029 307.05 290.596C319.722 295.478 325.614 285.909 335.284 279.12ZM160.391 345.247C161.763 352.068 157.437 355.042 154.014 358C140.212 369.994 126.232 381.794 112.091 393.351C109.04 395.84 104.988 397.085 101.388 398.895C98.8537 400.172 96.965 399.784 97.2717 396.568C97.8852 389.989 97.8529 383.539 105.537 379.773C119.549 372.904 131.495 362.171 146.96 357.677C145.378 356.95 144.086 356.901 142.843 357.128C127.007 360.069 112.721 366.939 98.9829 374.924C94.1238 377.753 93.123 376.217 91.5087 371.659C89.846 366.971 91.5087 361.961 89.7652 356.74C84.1798 364.304 89.1518 373.906 83.4856 380.274C72.4761 372.742 65.2925 362.672 59.2066 351.599C58.7385 358.388 62.0316 363.577 64.7598 369.008C71.3461 382.133 82.2426 393.981 76.2536 410.744C74.0097 417.031 76.5119 426.148 65.5347 426.358C64.1625 426.39 63.9688 427.845 64.3401 428.863C65.8898 433.115 62.1931 434.214 59.9331 435.248C35.0567 446.741 12.0207 461.919 -13.5659 471.989C-16.0842 472.975 -20.701 473.832 -19.91 477.048C-18.9092 481.122 -14.1631 479.731 -10.8377 479.909C-9.83683 479.958 -8.69068 479.57 -7.80282 479.053C1.62467 473.428 10.7939 467.334 20.4474 462.129C37.8172 452.754 54.0732 440.809 74.3326 437.818C76.7863 437.463 77.4482 436.186 78.449 433.907C80.6768 428.799 85.2452 425.728 90.7984 428.184C98.7892 431.741 107.603 430.205 115.578 433.567C111.8 427.554 104.778 427.231 99.4349 423.756C106.505 418.211 120.808 419.149 128.96 425.372C141.181 434.715 155.29 439.467 170.06 442.764C160.697 436.267 150.592 430.916 142.44 422.495C158.502 422.786 172.11 432.371 187.785 433.874C203.751 435.41 218.667 441.197 233.841 446.062C210.434 427.15 179.391 426.39 153.74 412.554C167.849 411.196 181.748 411.519 195.954 408.545C193.952 405.555 191.918 405.668 190.126 405.603C178.309 405.248 166.557 403.001 154.708 404.391C149.882 404.957 147.928 404.003 148.994 398.313C150.511 390.118 153.433 382.877 159.035 376.718C161.246 374.294 163.361 371.788 165.508 369.315C162.118 369.962 159.713 371.562 157.533 373.421C149.188 380.549 143.973 390.021 138.388 399.202C134.675 405.296 129.719 409.628 121.26 410.744C126.587 403.922 132.899 399.202 137.242 391.428C126.555 395.646 121.518 410.016 106.618 405.361C125.102 388.712 142.617 372.855 160.294 357.16C161.698 355.915 163.248 353.83 165.831 354.622C174.903 357.418 172.094 352.893 169.576 348.544C168.866 348.868 168.155 349.191 167.445 349.514C165.33 348.221 163.2 346.912 160.407 345.198L160.391 345.247ZM349.554 298.856C353.783 300.489 351.959 309.056 357.351 307.585C364.389 305.661 362.759 309.929 363.114 313.275C365.439 335.306 363.711 357.402 363.55 380.484C366.423 376.831 365.923 373.453 366.52 370.35C367.44 365.614 367.23 357.887 369.765 356.82C374.398 354.865 373.914 352.052 374.769 348.884C376.529 342.37 374.705 336.082 373.817 329.73C372.945 323.571 371.315 317.461 371.815 310.236C386.118 317.994 400.776 322.827 414.077 331.297C406.797 313.032 390.912 306.744 373.171 300.731C400.437 290.435 424.393 275.58 453.498 279.961C416.031 271.879 382.712 285.408 349.409 299.034C349.409 299.034 349.554 298.856 349.57 298.84L349.554 298.856Z" fill="#14A7C8"/>
</svg>
