<svg width="764" height="646" viewBox="0 0 764 646" fill="none" xmlns="http://www.w3.org/2000/svg">
<mask id="mask0_59_139782" style="mask-type:luminance" maskUnits="userSpaceOnUse" x="0" y="0" width="923" height="646">
<path d="M769.666 546.407C766.778 532.594 770.948 532.321 782.649 540.087C789.683 544.759 800.872 540.681 799.249 534.731C797.067 526.769 804.591 526.553 807.619 522.879C809.413 520.707 812.565 519.988 814.732 521.762C816.999 523.627 814.662 525.603 812.806 526.727C809.11 528.976 809.708 532.307 812.55 533.334C824.686 537.734 817.224 540.464 811.89 543.551C810.096 544.585 809.079 546.009 809.747 547.839C813.404 557.791 806.097 559.46 797.797 560.759C795.693 556.869 802.479 555.801 799.847 551.61C796.33 552.106 791.64 551.638 788.852 553.426C784.916 555.94 793.34 558.503 790.716 561.835C785.941 563.65 780.366 560.27 775.591 564.6C787.812 569.482 799.932 563.399 811.727 565.878C807.161 567.868 802.448 568.7 797.789 569.712C795.584 570.194 792.37 570.816 792.96 573.197C793.822 576.696 797.518 575.404 799.614 574.447C806.012 571.521 815.228 572.429 815.221 576.926C815.205 583.638 820.431 582.018 824.088 584.099C816.564 586.892 809.91 589.832 803.256 591.767C794.878 594.204 784.799 596.858 777.951 587.395C775.102 583.456 769.697 584.413 766.514 586.641C760.931 590.552 757.74 587.975 753.384 585.09C739.416 575.851 723.281 574.28 707.193 578.337C698.543 580.516 691.097 582.576 683.24 577.569C684.078 575.886 685.67 575.139 687.572 574.468C690.624 573.386 695.655 575.013 696.556 571.186C697.643 566.556 691.656 568.001 689.288 566.171C685.67 563.378 684.591 560.075 685.755 556.08C687.122 551.38 691.159 554.125 694.125 553.552C697.014 552.993 700.453 554.509 702.868 552.169C702.193 547.092 689.847 547.504 694.087 543.747C699.436 538.998 698.171 530.799 706.828 528.131C709.67 531.623 711.541 538.125 718.227 535.583C724.096 533.348 720.129 528.054 719.803 524.046C733.282 524.486 734.338 530.059 732.428 541.931C731.651 546.771 732.288 549.788 734.874 553.328C742.545 547.518 735.456 539.417 740.053 531.539C742.654 537.545 744.672 542.099 751.148 542.636C756.35 543.069 761.646 545.346 766.328 540.995C767.71 545.988 763.843 550.018 767.617 554.669C770.761 551.841 770.171 548.642 769.705 546.401L769.666 546.407ZM34.5688 364.684C34.7008 358.021 38.9713 356.883 42.9933 355.863C49.8726 354.117 48.5449 348.6 48.4517 344.941C48.343 340.75 44.0648 339.968 39.7399 342.357C37.8998 343.376 36.5099 343.083 35.1434 341.086C30.7176 334.612 23.1394 335.066 17.9993 338.355C16.1125 339.563 10.3668 349.389 21.866 351.862C23.4267 352.197 24.1022 354.075 22.8599 355.193C21.9592 356.003 20.0647 356.596 18.8068 356.387C14.6839 355.696 12.2769 353.021 10.1649 350.032C8.57319 347.776 6.00313 346.365 3.35543 348.286C0.428213 350.409 3.59614 351.617 5.11022 352.895C8.53437 355.779 8.93036 360.179 5.88667 361.946C-0.891747 365.878 0.52916 371.234 0.731037 376.465C0.917385 381.249 4.61328 379.252 7.17557 378.379C10.856 377.122 14.4509 376.71 15.9262 380.523C17.4325 384.413 13.2707 384.462 10.491 385.474C8.82165 386.082 7.60263 387.569 6.08079 388.547C-2.13925 393.813 -2.02538 399.134 6.42242 404.512C7.01252 404.889 7.43957 405.49 7.84332 406.048C16.7725 418.319 18.3332 418.34 30.7719 407.543C34.9725 403.904 38.3423 399.183 44.981 398.192C48.5993 397.647 48.607 395.196 48.2576 392.674C47.6287 388.1 48.576 382.786 52.1011 380.418C61.4107 374.154 54.4692 369.216 51.0839 364.509C46.9221 358.713 40.8813 362.135 34.561 364.691L34.5688 364.684ZM87.5538 437.447C91.0634 432.642 96.3044 428.11 92.6473 420.581C91.6069 418.438 94.2313 414.988 95.1087 412.124C95.5513 410.679 96.5296 409.498 98.2378 409.82C100.482 410.239 101.615 411.978 100.319 413.64C96.9489 417.97 98.4241 421.608 102.664 424.199C107.027 426.867 109.333 422.3 112.656 421.147C119.318 418.829 116.702 413.668 116.88 409.764C117.067 405.699 112.144 406.258 109.869 407.061C103.114 409.456 99.1928 404.1 93.6956 403.206C90.4345 402.682 90.0385 399.749 90.9314 397.375C91.4671 395.943 92.9502 394.092 94.4254 393.743C99.0919 392.626 97.112 396.264 98.2223 397.94C100.163 400.873 104.364 403.848 107.726 402.403C113.79 399.791 115.343 393.429 114.598 388.442C113.643 382.101 113.402 373.232 99.6354 378.379C93.649 380.621 85.4885 381.989 78.1122 378.875C76.1633 378.051 73.1274 377.988 72.1024 380.411C71.3493 382.206 71.0853 384.259 73.1507 386.04C75.8682 388.38 78.5004 392.332 80.8531 393.233C94.3167 398.359 82.8951 403.304 81.3655 408.109C80.6046 410.49 77.988 410.686 75.5965 409.645C72.7314 408.395 72.8168 406.062 74.7036 404.652C80.2707 400.496 74.6647 398.192 72.8013 395.489C71.2561 393.247 67.3583 393.834 67.0866 395.489C66.4732 399.134 62.5055 403.492 66.2713 406.425C68.9733 408.528 70.0604 408.877 67.1487 411.195C60.6653 416.363 66.1704 423.005 69.3771 424.15C77.4988 427.041 79.4632 434.87 87.5538 437.454V437.447ZM656.04 482.534C659.566 479.447 662.05 475.257 665.257 474.81C679.419 472.813 675.661 465.962 672.222 458.559C671.228 456.429 670.669 453.698 671.274 451.547C673.014 445.381 669.333 443.998 663.471 443.307C659.208 442.804 653.424 440.911 651.459 443.921C649.068 447.595 653.276 451.275 657.71 453.629C648.377 462.547 643.912 452.839 636.707 450.716C640.209 454.495 634.634 461.702 645.217 463.196C650.473 463.937 653.564 468.078 648.944 472.987C648.051 473.937 645.706 475.097 645.853 475.355C651.11 484.343 655.707 493.792 662.423 501.9C665.614 505.755 684.668 500.343 686.648 496.062C689.482 489.951 683.077 478.742 675.545 475.928C672.175 474.671 670.552 476.912 668.161 477.667C664.356 478.875 662.275 483.023 656.04 482.534ZM407.141 640.248C400.464 635.646 395.712 632.782 396.737 626.783C391.938 628.397 393.359 632.252 390.944 633.844C387.854 635.883 384.213 637.189 380.292 635.82C376.922 634.647 375.462 632.363 377.186 629.269C383.615 617.704 371.254 613.675 364.53 608.8C362.068 607.012 360.834 606.991 361.688 604.303C362.456 601.893 362.845 599.386 359.017 598.674C357.215 598.339 355.282 598.527 353.411 598.478C353.434 600.762 353.124 603.094 353.535 605.329C354.653 611.405 360.872 613.382 369.312 616.852C362.588 617.034 359.351 617.125 356.128 617.216C355.53 621.015 359.553 620.77 361.105 622.474C363.186 624.758 363.994 632.161 362.099 635.003C361.036 636.602 360.135 639.361 361.012 640.632C362.767 643.167 364.778 641.868 365.756 639.522C366.152 638.565 367.41 637.203 367.837 638.02C371.052 644.138 379.088 639.878 381.868 642.322C391.558 650.849 397.327 641.575 407.133 640.255L407.141 640.248ZM622.451 490.489C618.949 493.771 614.555 496.474 612.582 500.161C610.742 503.597 609.43 505.392 605.105 504.044C603.288 503.478 600.462 502.291 601.735 500.769C603.91 498.164 602.714 493.394 608.739 492.912C611.084 492.724 614.081 495.112 616.084 492.186C601.79 486.899 594.833 489.05 588.404 500.713C583.605 509.408 580.639 509.778 574.047 502.41C572.518 500.699 570.18 498.464 569.024 501.355C567.114 506.16 570.592 510.958 572.502 515.344C573.589 517.844 577.728 518.012 582.122 516.377C595.912 511.244 608.747 503.478 624.835 503.716C627.056 503.751 630.829 500.72 631.225 498.695C631.924 495.133 628.267 496.425 625.573 496.257C621.271 495.985 627.001 491.823 622.436 490.482L622.451 490.489ZM591.587 534.388C599.53 525.002 585.981 529.039 583.404 526.93C578.426 522.858 571.081 528.271 564.349 528.124C561.329 528.061 560.964 533.592 561.399 537.07C562.245 543.816 584.25 555.347 591.292 552.791C593.769 551.89 593.435 550.584 592.674 548.789C590.756 544.298 591.347 539.619 591.587 534.388ZM663.223 413.786C664.053 409.338 673.014 407.92 666.422 403.01C660.955 398.946 656.048 392.528 648.02 394.162C642.484 395.293 642.212 401.362 643.757 405.413C647.911 416.28 665.358 424.709 679.986 423.27C675.584 418.403 672.486 412.753 663.223 413.786ZM275.401 508.877C269.973 502.193 260.268 500.517 265.54 491.62C266.736 489.595 259.569 486.55 255.873 486.284C249.871 485.851 255.601 489.665 254.506 491.026C252.068 494.078 248.978 496.578 245.135 498.422C235.095 503.241 234.753 506.775 242.068 514.143C245.251 517.348 254.165 523.319 239.482 523.319C237.176 523.319 235.46 524.597 236.617 526.532C238.348 529.437 239.536 533.034 244.125 533.767C246.532 534.151 248.776 534.395 249.25 531.385C250.135 525.722 251.175 520.26 247.324 514.799C245.173 511.747 243.093 507.431 246.183 504.282C249.351 501.048 253.909 502.661 258.086 504.086C262.908 505.727 267.955 506.845 275.401 508.87V508.877ZM351.936 574.713C340.902 569.153 334.823 571.276 332.051 584.217C328.937 573.672 321.879 570.138 317.306 564.782C313.09 559.844 306.762 559.111 299.937 559.76C299.626 563.329 300.169 567.505 304.828 567.554C316.025 567.673 317.834 575.397 321.072 581.675C324.372 588.058 330.257 589.916 336.251 584.951C340.677 581.284 344.381 576.989 351.928 574.713H351.936ZM690.142 125.246C689.327 125.861 688.636 126.441 688.03 126.978C688.915 126.678 689.661 126.147 690.142 125.246ZM13.9618 186.117C7.75792 185.914 6.64759 181.71 3.4952 178.4C7.75016 177.205 9.52046 182.01 11.3529 180.683C22.8987 172.352 21.1284 184.804 25.7172 187.269C29.879 189.511 28.5746 194.371 32.0376 196.976C35.1434 194.35 33.8001 192.081 32.5112 190.125C30.9738 187.793 29.9799 185.942 33.5128 184.357C36.8826 182.848 38.42 183.889 39.4449 186.829C42.2867 195.021 49.8338 191.18 53.7937 189.476C59.2988 187.108 53.3977 183.128 52.4893 179.859C51.9535 177.925 47.2094 177.359 50.0279 173.958C65.2774 179.531 80.8453 183.505 97.5545 180.25C88.9747 172.373 73.337 173.776 68.3988 160.472C64.8814 166.876 71.5512 168.971 70.2079 173.511C63.3285 172.023 60.3237 168.846 60.8672 162.882C61.5117 155.758 60.9293 151.023 50.5404 157.022C47.52 158.768 40.3456 161.904 36.1683 156.408C32.6587 151.791 35.9276 149.34 40.4931 146.805C44.0027 144.857 39.5225 135.736 35.5549 133.948C30.3061 131.588 24.273 135.505 19.8706 131.965C18.3953 130.777 13.3328 131.252 15.6855 127.439C16.6716 125.84 16.7647 123.158 20.1578 123.633C29.2579 124.904 36.3624 118.207 45.3071 119.897C45.4313 113.828 38.2336 117.802 37.1078 114.163C42.7293 110.525 42.9622 100.964 53.6307 103.171C53.949 103.234 55.005 101.041 55.5019 99.8325C59.0814 91.2006 68.4065 92.9465 75.3791 92.8697C80.0921 92.8208 77.755 91.6266 79.0827 90.1111C85.9776 82.2125 77.9258 78.6369 73.8883 73.5178C81.4432 69.2996 89.2387 67.2045 98.9832 67.1067C91.7078 60.2347 94.4565 51.2955 99.6121 51.6308C106.53 52.0777 115.902 49.0537 122.044 55.835C124.039 58.0348 127.58 60.9331 131.051 58.5027C134.017 56.4286 129.179 54.543 129.117 52.5386C128.985 48.4112 129.715 44.2629 130.088 40.1215C132.968 44.5981 130.569 50.3318 136.82 53.3278C138.963 54.3544 140.415 57.6857 143.466 54.976C145.749 52.9507 145.5 50.7159 142.697 48.9071C139.918 47.1123 138.318 45.0451 141.696 40.9666C148.451 49.1585 157.543 47.3776 165.805 44.3956C173.235 41.7138 179.245 41.2809 185.146 48.6417C186.458 42.3424 185.457 33.2286 194.875 40.2123C201.615 45.2127 202.546 42.07 205.567 38.0404C206.933 36.2107 206.211 31.4058 211.103 33.0261C219.737 35.8824 228.759 30.889 237.945 35.4285C241.92 37.3909 247.891 34.9815 244.964 42.0491C244.211 43.8579 244.793 45.4501 247.084 46.1206C249.032 46.6932 251.719 46.7421 251.991 44.8426C253.567 34.0876 268.18 31.9157 271.239 22.1734C272.21 19.0865 275.036 15.7483 278.631 18.2066C281.814 20.3855 278.406 22.9625 275.61 24.3942C273.778 25.337 272.015 26.6709 273.436 28.333C275.284 30.484 277.536 29.4015 279.027 27.5718C279.889 26.5102 280.021 24.897 282.862 25.1554C282.746 30.6586 287.164 32.9423 292.242 35.212C295.006 28.8498 285.394 25.4697 289.517 19.2122C292.801 14.2189 297.716 11.3206 302.53 7.92654C309.099 3.29633 309.844 10.5175 313.517 11.6628C319.146 13.4227 316.56 15.0918 313.431 16.8797C312.018 17.6828 311.529 19.1005 313.02 20.2458C314.953 21.7334 316.793 21.5658 319.325 20.5601C325.707 18.039 320.645 12.5637 323.253 8.95313C331.717 17.152 338.549 18.3672 349.288 14.3725C353.232 12.9059 353.201 7.15135 358.644 7.83575C374.717 9.875 391.434 7.26308 407.91 14.3586C408.415 8.80649 408.811 4.40674 409.207 0C409.89 6.49487 416.474 8.86235 420.054 12.7174C422.81 15.6785 427.647 16.3629 430.287 13.1923C439.015 2.73063 440.164 10.4826 442.19 16.4746C446.523 17.3825 446.802 5.32859 453.938 13.9046C454.497 14.5751 460.491 14.184 460.305 11.3346C460.049 7.45862 460.887 7.31895 464.513 8.54809C469.335 10.1893 466.796 11.7187 464.832 13.5554C459.878 18.1717 465.15 22.2083 467.448 24.897C469.77 27.6137 474.374 25.9655 476.502 22.1384C477.496 20.3506 479.01 20.4414 481.083 21.9918C489.367 28.1933 496.511 26.9363 501.961 18.8421C504.772 14.6728 507.296 18.905 509.936 18.9748C512.723 19.0446 514.183 21.1607 514.152 23.179C514.105 26.1541 510.572 24.9249 508.709 25.7839C507.016 26.5661 505.393 27.4531 503.74 28.2981C501.301 29.5552 496.472 27.6137 496.379 31.5735C496.332 33.5499 498.32 36.0989 500.246 37.4747C503.46 39.7724 506.861 36.916 508.336 35.4285C514.09 29.625 516.365 32.6071 518.368 37.7471C519.113 39.6606 519.595 42.2027 522.196 42.3843C525.457 42.6078 526.73 40.1704 527.196 37.6982C527.538 35.9243 528.167 34.4368 530.519 33.2984C533.02 35.3447 534.767 37.796 538.866 39.2835C547.167 42.3005 554.628 47.9294 557.765 56.3378C560.188 62.8327 564.474 67.8051 573.279 67.7911C577.138 67.7911 579.583 70.2634 582.751 71.3389C586.005 72.4493 591.09 69.4812 592.729 74.2301C594.266 78.6997 585.453 74.6212 586.657 79.2863C586.913 80.2711 587.138 81.3815 587.806 82.1427C591.479 86.3469 587.161 88.8191 584.327 92.2901C588.567 92.2482 591.882 92.2202 595.361 92.1853C594.623 94.3223 593.87 96.2079 593.326 98.1285C589.033 113.171 592.806 118.954 610.835 121.587C616.247 122.376 615.09 126.992 618.887 128.424C622.016 122.523 624.882 117.117 627.607 111.97C633.826 112.613 635.69 120.316 643.454 117.005C655.815 111.726 664.822 116.475 667.586 128.375C668.324 131.553 671.903 133.697 675.63 134.842C676.679 135.163 678.581 134.912 678.162 133.759C674.512 123.689 683.348 128.55 688.046 126.957C678.558 135.505 694.428 134.891 695.018 139.989C688.349 141.63 678.2 140.045 679.668 150.332C687.611 152.134 698.807 145.625 703.257 154.592C706.471 161.08 696.4 163.852 691.881 168.58C693.683 161.003 692.363 155.437 680.965 152.944C694.288 164.125 677.571 161.415 675.553 165.403C682.89 171.164 690.119 176.311 700.865 173.755C704.188 172.966 707.046 174.705 708.265 177.45C709.289 179.768 708.816 182.171 706.075 183.714C698.543 187.96 691.167 186.612 683.915 183.044C683.441 182.813 683.177 181.954 683.139 181.375C682.906 177.659 682.51 177.052 680.266 178.246C676.484 180.257 670.956 179.775 668.611 183.98C672.105 187.911 681.795 185.237 681.089 192.779C680.576 198.219 676.151 200.559 669.954 201.013C665.568 201.334 668.402 203.743 668.883 205.378C669.621 207.906 670.653 209.149 673.208 206.453C676.399 203.087 681.531 203.345 684.66 204.812C688.675 206.691 685.336 209.512 683.604 212.187C681.85 214.89 683.589 217.76 685.988 220.477C693.147 228.592 699.297 219.164 706.122 219.995C712.061 220.721 716.254 216.95 719.049 212.69C725.494 202.85 740.278 201.062 750.511 209.023C751.816 210.043 752.266 211.174 751.909 212.606C744.634 210.588 739.858 219.841 735.347 217.613C725.409 212.704 725.719 220.917 721.472 223.5C716.355 226.615 709.919 227.104 703.878 228.228C703.73 228.256 703.575 228.878 703.668 229.164C706.688 238.536 699.584 235.121 695.445 233.648C691.237 232.146 688.535 233.941 685.903 235.666C682.37 237.992 678.884 240.213 674.295 239.284C668.138 238.041 668.378 242.112 667.478 245.143C666.274 249.173 669.131 250.318 673.006 251.345C675.879 252.106 679.73 252.008 680.988 254.124C679.287 260.235 673.13 252.127 671.368 258.405C673.984 260.507 680.188 258.273 680.972 262.1C683.449 274.154 690.794 264.411 695.748 264.802C696.952 264.893 698.963 259.753 699.553 262.805C700.679 268.629 714.181 267.372 708.684 274.391C704.219 280.083 710.268 279.133 711.712 279.056C715.555 278.854 719.329 277.59 723.126 276.744C713.63 276.109 712.263 268.888 708.218 264.376C707.713 263.818 708.047 262.218 708.645 261.534C709.173 260.926 710.61 260.933 711.65 260.661C714.158 270.368 727.591 266.45 732.568 274.3C733.08 268.357 722.373 264.097 731.116 258.657C737.552 268.371 738.958 268.448 746.132 259.809C748.842 256.541 752.289 255.612 756.009 258.705C758.423 260.71 760.551 262.973 763.168 265.459C754.495 270.159 744.649 270.717 733.81 274.852C740.829 276.57 745.651 278.777 750.278 276.584C757.678 273.092 763.268 276.619 767.842 280.187C771.258 282.862 772.718 286.612 778.774 284.978C780.148 284.608 782.889 288.051 785.009 289.741C770.109 292.674 782.672 301.516 778.394 307.801C783.216 306.509 786.213 305.776 789.148 304.896C791.989 304.044 794.761 302.13 797.634 304.861C789.38 313.968 789.722 318.605 799.8 325.777C805.531 329.856 799.133 331.127 796.881 332.936C801.346 335.422 807.41 330.673 807.014 332.824C805.655 340.178 823.474 337.147 815.896 346.414C826.409 351.568 820.974 361.939 825.905 368.776C830.765 362.847 848.608 359.9 854.284 365.41C857.786 368.818 858.523 368.189 862.056 366.262C865.139 364.579 869.402 364.216 873.222 363.922C880.66 363.35 888.619 362.749 885.288 373.295C890.187 373.078 893.13 369.803 897.882 370.166C904.645 370.683 908.007 373.846 905.607 379.412C904.497 381.989 906.221 382.59 908.139 382.681C913.302 382.918 917.184 387.262 923 385.712C919.506 388.673 915.608 390.782 911.508 388.736C908.62 387.29 906.749 384.112 902.75 384.503C892.183 385.537 882.135 383.33 872.639 379.831C862.491 376.088 857.359 386.717 848.336 385.237C851.978 394.602 841.077 390.677 837.187 393.387C840.339 396.446 842.893 398.932 846.271 402.207C839.43 403.353 837.583 408.988 832.427 411.6C830.851 404.735 827.574 401.809 820.656 406.614C818.226 408.304 813.683 408.863 814.53 406.628C818.249 396.767 807.192 402.417 804.956 399.03C807.969 396.578 812.697 401.16 815.586 396.53C811.362 392.612 808.691 385.314 800.453 393.24C798.224 395.384 795.328 392.807 792.797 392.821C780.102 392.884 766.359 391.026 760.403 404.91C759.44 407.166 756.777 407.529 754.588 406.251C752.693 405.147 753.897 403.332 753.827 401.865C753.4 392.821 760.046 390.531 770 389.441C759.316 382.262 748.089 386.012 736.675 383.756C741.737 380.432 744.362 377.359 749.028 377.82C747.452 374.971 746.489 372.003 741.745 371.123C737.731 370.382 737.25 367.743 739.284 364.076C741.66 359.795 746.28 360.801 749.999 360.249C748.376 355.444 743.779 356.708 741.077 355.067C723.662 344.473 704.91 338.662 683.48 342.566C680.654 343.083 676.686 343.083 676.158 346.519C675.654 349.794 679.35 352.141 681.679 352.364C691.462 353.321 690.321 359.781 692.728 365.675C685.212 365.11 685.064 353.237 674.932 359.495C668.161 363.678 679.52 365.298 673.883 369.272C663.269 359.949 645.869 379.245 635.985 361.408C635.263 364.816 634.719 367.379 633.787 371.793C632.693 366.339 626.372 368.734 626.194 365.361C625.557 352.735 622.389 350.898 610.152 356.897C607.8 358.049 605.509 360.535 603.956 356.506C603.009 354.047 602.201 351.575 598.606 352.734C594.949 353.915 591.378 355.779 591.362 359.816C591.323 371.43 583.497 369.691 574.894 367.715C575.934 364.286 578.481 363.636 581.338 363.454C587.433 363.063 588.481 359.257 589.157 355.004C589.436 353.251 590.213 351.61 587.363 351.065C582.495 350.137 580.018 352.56 576.951 355.479C574.428 357.875 571.299 363.161 565.63 356.24C561.989 351.792 554.434 352.511 547.586 356.946C553.471 359.09 558.34 360.375 562.54 362.616C564.497 363.657 565.219 366.527 566.275 368.65C566.36 368.825 564.769 370.075 563.977 370.054C562.152 370.005 559.815 366.737 558.736 370.396C558.052 372.694 561.391 373.176 562.664 374.503C568.612 380.697 575.344 372.464 582.309 375.55C575.445 378.875 572.386 381.633 581.074 385.16C584.001 386.347 586.719 389.225 584.646 392.807C584.056 393.834 581.416 395.258 581.323 394.399C580.732 389.05 573.24 391.292 571.578 386.948C567.797 377.108 559.869 377.108 550.56 380.802C545.916 382.639 541.157 385.733 536.25 380.572C535.131 379.391 531.769 380.118 532.36 382.38C535.263 393.54 524.51 392.137 517.956 394.623C523.795 392.325 526.637 388.428 519.812 385.411C511.31 381.647 516.963 379.266 519.983 377.073C524.867 373.518 525.977 370.871 518.663 369.454C512.071 368.176 516.706 366.269 517.211 363.832C517.56 362.163 513.422 361.136 510.533 361.178C506.015 361.248 502.202 362.058 500.028 366.101C496.464 372.743 503.017 386.738 511.1 389.301C501.868 397.549 489.717 398.597 477.542 399.1C473.831 399.253 471.626 403.82 467.363 401.257C466.276 404.966 470.608 405.399 472.247 407.459C474.56 410.371 475.345 414.073 474.18 417.152C470.849 425.952 465.911 433.683 454.163 436.12C450.009 436.979 443.665 436.386 443.176 441.819C442.547 448.824 437.819 446.938 433.564 445.702C432.034 445.262 430.21 442.343 429.022 444.054C423.058 452.63 423.742 444.277 423.136 442.182C422.391 439.584 420.256 438.118 418.462 436.511C416.661 434.898 413.811 432.852 411.746 433.089C408.352 433.473 409.626 436.93 409.284 439.102C408.236 445.702 408.981 452.888 406.209 458.838C406.629 460.361 403.515 461.779 401.745 462.072C399.975 462.365 398.041 462.177 396.488 462.952C393.118 464.642 394.143 469.174 396.364 471.975C397.816 473.805 399.687 475.956 398.709 478.002C398.259 478.938 397.296 479.587 396.372 480.195C391.969 483.086 387.342 486.068 381.899 486.899C376.456 487.73 369.98 485.656 368.156 481.103C367.534 479.552 367.426 477.736 366.075 476.584C364.157 474.943 360.671 475.739 359.11 477.632C357.549 479.524 357.464 482.038 357.72 484.357C350.794 483.156 343.239 485.432 338.666 490.091C337.136 485.467 335.684 480.244 338.441 476.095C339.171 475.006 340.165 474.042 340.716 472.876C341.275 471.709 340.63 469.496 339.536 468.658C340.351 466.074 340.196 463.273 340.669 460.598C341.034 458.559 340.343 457.393 337.913 457.016C335.102 456.583 335.18 458.161 334.574 459.893C331.616 468.253 328.324 476.521 325.187 484.832C323.937 488.156 322.267 492.311 317.834 491.473C312.996 490.559 314.115 486.068 313.587 482.388C312.554 475.229 318.703 467.959 311.521 460.668C307.476 456.562 299.145 452.895 303.664 444.927C304.456 443.53 302.771 441.966 300.597 441.218C296.629 439.857 268.04 445.681 267.659 448.866C266.332 459.97 257.325 451.82 252.62 453.95C247.379 456.324 243.613 462.288 235.941 458.734C234.552 458.091 232.044 459.516 231.71 456.764C230.91 450.207 223.293 449.753 220.288 446.1C216.934 447.609 222.416 450.311 216.336 451.673C218.984 443.272 209.464 442.308 205.225 438.02C207.275 435.576 212.563 437.643 211.895 434.291C210.668 428.138 204.751 424.932 199.006 421.95C196.575 426.099 186.21 424.632 189.098 432.531C191.288 438.53 185.154 438.76 181.854 439.053C178.453 439.354 175.541 436.749 176.364 432.845C177.001 429.842 177.436 426.804 178.173 423.822C178.632 421.964 183.244 420.421 178.686 418.291C177.381 417.683 175.44 417.034 174.299 417.453C171.201 418.591 171.1 421.238 172.047 423.571C173.554 427.3 172.241 430.065 169.004 432.614C167.785 429.926 168.188 425.987 163.25 426.203C162.217 426.252 160.253 428.466 160.478 428.808C163.646 433.613 152.279 433.285 155.982 438.837C156.712 439.933 151.192 439.34 150.959 437.95C150.004 432.286 147.084 433.124 142.03 434.102C137.845 434.912 133.178 432.803 130.22 428.306C138.939 428.459 144.615 418.696 154.562 424.004C155.633 424.576 156.914 423.368 156.487 422.355C152.488 412.941 161.022 409.834 167.435 405.79C170.215 404.037 169.361 400.231 168.452 400.838C160.851 405.923 158.133 397.256 154.08 397.437C149.965 397.619 148.164 399.148 149.74 394.595C152.768 385.851 148.047 382.744 137.899 383.386C141.517 380.397 150.462 380.383 147.007 377.338C138.769 370.075 147.146 369.817 150.71 367.75C153.622 366.059 157.978 365.305 155.819 361.29C152.03 354.236 157.838 350.618 162.264 346.729C163.871 345.311 167.039 344.396 165.323 342.322C159.694 335.513 167.722 334.046 170.052 330.009C174.431 333.76 170.184 341.365 175.293 341.526C186.637 341.882 186.808 347.553 186.474 354.92C189.215 350.367 196.428 347.189 189.968 341.267C192.903 339.87 188.524 333.85 194.417 335.122C196.521 335.576 197.367 337.398 199.006 334.765C200.427 332.482 200.496 331.015 197.119 330.373C195.939 330.149 193.392 330.533 195.054 328.277C195.853 327.188 196.762 326.406 198.812 327.551C202.787 329.779 205.846 332.845 210.062 337.754C209.55 331.183 212.811 327.321 205.505 323.508C202.073 321.72 193.299 313.64 202.181 306.684C203.556 305.608 204.425 304.596 202.779 303.485C196.373 299.169 193.221 289.532 180.876 293.792C182.545 295.594 184.121 297.291 185.69 299.002C187.592 301.069 188.92 292.695 190.736 298.75C191.435 301.062 188.159 303.248 186.559 302.731C180.076 300.629 169.376 319.876 166.519 299.763C166.434 299.162 163.568 298.178 162.357 298.478C157.45 299.693 157.559 294.113 152.108 293.079C158.203 301.425 153.7 302.766 146.277 302.947C143.614 303.017 140.694 307.131 138.186 304.484C135.275 301.418 138.567 298.883 141.688 297.186C145.244 295.251 145.586 292.779 142.519 290.649C138.326 287.737 137.821 292.276 135.849 293.708C132.409 296.208 132.681 302.787 123.977 300.727C133.753 295.035 127.23 288.023 123.201 285.893C107.912 277.806 93.0201 289.748 77.4367 288.449C76.567 288.379 74.6803 290.307 74.6492 291.341C74.525 295.789 69.1597 296.487 67.04 299.826C63.9419 304.679 55.137 299.539 50.3618 303.911C48.9487 300.182 49.7562 297.004 52.8697 294.057C55.3699 291.69 52.2253 289.259 50.9364 290.139C47.784 292.297 41.6345 286.934 42.5585 290.928C44.057 297.374 36.0829 300.755 39.8952 307.208C33.8933 305.664 34.8095 299.91 29.7393 299.463C27.8525 301.572 29.2423 303.206 30.539 304.959C32.3248 307.375 35.8422 311.272 31.9754 312.424C28.3261 313.514 27.736 319.52 22.9375 316.817C19.5833 314.925 16.0194 312.627 17.2539 307.836C18.4652 303.164 13.6745 299.77 12.3467 295.531C11.6712 293.366 8.61202 290.977 12.0983 289.427C19.3736 286.186 13.7366 281.884 13.6434 277.555C17.8828 277.645 23.3646 284.797 25.8337 275.557C27.3478 269.893 32.0531 265.312 38.4821 273.553C40.3456 270.082 40.1437 267.784 38.3501 265.138C33.2643 257.623 36.3469 252.79 45.5789 250.758C47.8772 250.255 49.5931 247.853 49.4145 247.748C41.6034 243.181 46.86 236.427 45.3615 230.882C44.7558 228.641 42.1392 227.293 39.9108 228.48C31.1136 233.152 30.5701 228.892 30.5312 222.676C30.5157 220.127 25.8725 217.837 32.1074 215.504C34.8328 214.484 29.483 210.546 28.7842 211.363C23.4811 217.592 17.5024 206.928 11.7178 212.215C10.0174 213.765 7.76568 208.863 9.39623 207.459C11.6479 205.524 14.8469 202.2 18.3565 203.799C24.6457 206.663 30.9583 204.945 37.5969 206.16C35.353 199.679 30.4924 200.07 25.1038 200.133C20.2898 200.189 13.7599 200.328 17.9605 192.772C19.6221 189.776 18.9543 186.277 13.9618 186.11V186.117ZM754.425 380.795C760.722 372.568 771.786 369.908 779.426 363.308C781.965 361.115 787.292 361.359 791.5 360.459C791.291 355.249 785.964 354.892 782.555 352.63C780.11 351.003 775.288 350.521 776.414 346.205C777.307 342.783 780.669 342.028 784.473 341.309C781.329 336.309 776.049 338.977 770.8 336.909C776.111 345.695 767.686 350.611 766.995 358.447C761.995 355.528 757.973 350.395 752.662 355.961C752.794 358.601 755.675 358.447 757.484 359.46C764.169 363.196 764.301 368.294 757.15 370.417C752.367 371.835 751.07 374.768 749.308 377.876C749.331 377.876 749.354 377.876 749.385 377.883C748.555 382.332 752.421 383.407 754.417 380.795H754.425ZM615.277 302.361C621.294 303.422 622.428 305.476 614.516 308.974C621.139 310.057 625.301 304.868 627.925 308.912C630.301 312.578 634.222 317.634 625.425 321.706C637.39 321.392 644.689 324.22 647.173 334.5C647.36 325.638 655.909 319.995 654.814 311.544C654.689 310.609 656.196 309.268 657.322 308.59C657.865 308.262 659.861 308.772 660.202 309.345C661.235 311.077 662.866 313.123 661.049 314.994C651.545 324.751 657.927 325.288 667.912 324.36C669.986 324.164 674.077 325.435 674.186 326.308C675.413 335.862 685.243 330.903 689.544 333.69C700.648 340.89 703.8 331.846 711.021 328.717C705.011 325.763 695.756 331.001 695.523 320.812C695.43 316.908 690.134 321.517 687.572 319.576C692.145 313.577 699.483 313.751 706.875 313.255C702.1 311.998 699.025 308.737 693.411 308.96C684.932 309.296 667.92 294.546 666.546 287.087C666.321 285.879 666.189 284.015 665.335 283.637C658.595 280.697 658.548 280.788 663.091 275.292C656.444 280.083 647.5 280.055 640.395 284.029C640.915 284.992 641.055 285.851 641.575 286.103C644.231 287.367 649.247 285.942 648.524 290.956C648.315 292.416 646.513 294.239 646.187 293.561C644.075 289.238 636.598 294.106 635.666 288.645C634.929 284.308 632.467 281.312 627.436 279.503C628.585 286.096 624.346 290.691 616.737 291.92C613.39 292.458 611.022 294.392 610.121 297.109C608.925 300.734 611.891 301.76 615.277 302.354V302.361ZM555.164 275.976C555.195 277.478 556.321 278.651 558.052 278.546C563.301 278.225 566.415 281.34 570.134 283.721C578.535 289.099 580.818 289.148 592.845 283.421C586.315 288.868 586.874 292.353 590.205 295.957C591.836 297.724 594.406 299.47 595.718 298.003C598.715 294.644 607.45 295.67 605.393 288.554C603.917 283.463 606.713 284.58 609.989 286.138C612.404 287.29 614.477 286.564 616.146 284.832C617.28 283.658 617.365 282.366 616.278 281.165C614.353 279.049 611.923 280.313 609.834 280.725C603.591 281.961 598.016 282.569 595.912 275.334C595.555 274.098 592.899 272.512 591.339 272.526C580.29 272.645 569.249 273.12 558.208 273.546C556.585 273.609 555.125 274.328 555.156 275.969L555.164 275.976ZM560.42 152.595C561.298 155.13 564.14 157.756 566.904 159.048C570.639 160.787 571.345 158.098 571.066 155.381C578.527 155.018 587.62 152.12 593.101 154.815C604.205 160.284 601.673 152.671 603.11 148.712C608.413 151.233 613.359 153.572 618.297 155.919C621.294 157.344 623.53 156.233 625.402 154.257C626.768 152.818 626.714 151.247 625.79 149.543C624.082 146.4 622.078 147.301 619.539 148.761C617.451 149.962 615.168 150.311 614.368 147.266C612.21 139.046 604.321 139.018 597.178 138.564C592.814 138.292 588.132 137.915 585.927 134.877C582.41 130.03 589.499 130.638 591.37 128.452C592.224 127.453 592.744 125.889 592.597 124.646C592.294 122.083 589.871 122.984 588.124 123.081C583.644 123.333 579.164 123.661 575.072 123.933C573.24 127.034 582.976 128.438 575.771 131.588C575.266 131.804 574.816 132.796 574.948 133.306C577.487 143.208 577.565 143.292 565.863 148.705C563.581 149.759 559.411 149.661 560.428 152.602L560.42 152.595ZM452.921 324.604C457.277 325.295 458.154 322.251 458.985 318.828C461.112 310.057 472.588 314.275 477.791 309.407C477.86 309.345 479.902 310.315 480.034 310.951C480.99 315.623 482.573 320.623 489.243 316.922C494.935 313.765 500.797 309.359 496.488 301.788C493.141 295.908 489.01 291.334 480.415 292.472C476.843 292.947 476.618 295.573 476.121 297.821C474.25 306.244 468.217 310.727 458.635 310.287C451.663 309.966 452.059 313.821 450.491 317.271C455.398 319.324 446.911 323.661 452.921 324.611V324.604ZM374.732 140.212C376.355 141.393 385.641 137.265 388.569 133.766C393.134 128.326 384.197 124.904 382.295 119.764C388.374 119.492 390.121 125.386 396.015 125.763C395.106 122.348 394.306 119.359 393.515 116.384C393.647 116.447 393.771 116.517 393.887 116.586C393.802 116.461 393.724 116.335 393.639 116.209C398.507 116.88 401.232 123.843 407.599 120.016C416.777 114.491 427.244 110.05 430.551 99.5112C431.506 96.4803 430.714 94.1826 427.368 92.737C424.254 91.3891 421.785 91.1727 419.564 94.3363C416.715 98.4008 413.128 101.711 407.91 96.1521C406.613 94.7693 404.843 95.0556 404.206 96.4803C403.748 97.4929 404.105 99.176 404.843 100.119C406.233 101.893 411.707 102.004 407.234 105.845C403.073 109.414 401.419 105.301 398.888 104.03C396.985 103.08 395.285 101.83 392.536 100.112C391.208 106.341 390.479 111.363 393.654 116.202C393.592 116.195 393.53 116.181 393.468 116.174C393.483 116.244 393.507 116.307 393.522 116.377C391.604 115.455 388.211 115.253 388.801 113.109C391.736 102.416 381.254 99.5322 374.724 94.6087C372.62 93.0234 369.398 90.0134 365.586 92.5135C360.577 95.8099 367.565 97.5698 367.379 97.7863C357.875 108.855 379.453 114.554 372.48 124.66C369.258 123.822 366.867 119.429 361.362 119.534C360.935 128.864 367.744 135.114 374.74 140.205L374.732 140.212ZM324.372 257.092C337.439 264.684 332.602 274.838 329.985 284.762C329.574 286.319 331.756 286.731 333.176 287.011C335.56 287.478 337.882 287.136 339.644 285.579C346.632 279.384 344.311 252.427 335.684 248.258C328.378 244.731 329.286 254.25 324.216 254.494C324.278 255.856 324.014 256.876 324.372 257.085V257.092ZM238.589 147.95C240.227 145.674 242.634 146.428 244.863 146.4C247.744 146.365 247.06 148.656 247.984 149.962C250.461 153.447 239.793 151.798 245.057 154.641C251.16 157.937 257.55 160.535 261.766 165.85C263.513 164.586 265.524 163.524 266.937 162.023C269.119 159.69 265.548 158.901 264.67 158.712C259.476 157.616 260.392 150.856 254.017 150.318C252.985 150.227 249.98 143.32 253.45 139.542C256.013 136.756 255.989 133.564 255.508 129.569C261.215 131.525 263.327 134.996 262.714 139.046C261.937 144.158 257.783 137.691 255.469 140.422C257.395 144.186 259.615 148.083 261.355 152.134C262.449 154.69 264.608 155.039 266.922 154.711C276.185 153.384 285.774 148.872 293.772 157.546C294.517 158.356 295.845 157.714 296.349 156.61C300.123 148.397 308.78 152.476 315.543 151.03C315.116 147.008 309.169 146.142 308.936 141.951C308.858 140.478 306.335 139.835 304.091 140.115C300.364 140.576 306.156 146.945 300.278 145.08C297.32 144.144 302.367 140.087 299.222 138.103C293.725 134.639 286.527 133.124 283.406 126.971C282.187 124.562 279.112 122.146 283.344 120.218C287.63 118.27 290.13 112.194 295.27 113.695C305.17 116.579 315.07 120.833 322.197 127.32C326.103 130.868 331.888 137.705 323.238 143.551C321.53 144.703 320.606 146.749 317.888 150.206C326.212 147.112 332.315 144.619 339.256 143.614C347.618 142.405 352.464 130.212 350.406 119.324C348.278 108.087 341.236 99.602 330.249 93.4843C328.533 92.5275 326.584 91.3123 325.008 92.6742C318.859 97.9818 317.329 92.2132 315.07 89.4267C311.964 85.5857 311.009 80.2641 303.368 86.3469C299.067 89.7689 292.102 84.4822 285.79 84.6499C277.101 84.8873 275.447 88.1906 278.538 93.8335C280.688 97.7653 277.435 103.08 283.421 106.188C284.415 106.704 281.108 108.946 277.994 108.031C270.913 105.964 266.068 109.198 266.736 115.434C267.186 119.645 264.414 122.502 260.602 121.21C252.441 118.444 253.342 123.005 251.401 127.223C248.73 133.019 250.36 142.154 236.462 140.841C230.662 140.289 235.879 149.242 232.378 154.355C238.007 152.874 237.23 149.85 238.597 147.95H238.589ZM167.606 165.92C164.36 153.803 155.105 149.235 149.305 142.447C148.156 141.099 144.103 140.785 147.146 138.257C149.173 136.574 151.619 137.601 153.102 139.472C155.509 142.51 157.543 145.89 163.91 145.178C157.054 132.502 154.531 133.389 138.621 135.422C127.658 136.818 128.574 140.226 133.869 144.026C143.932 151.247 156.503 155.528 167.606 165.92ZM113.689 184.741C117.463 180.425 107.54 177.177 110.389 177.387C117.936 177.946 124.202 170.676 130.818 174.6C139.172 179.559 147.271 172.701 155.361 175.536C156.014 175.767 161.084 171.22 159.531 169.663C156.697 166.82 157.815 160.954 151.813 160.835C140.321 160.598 134.63 151.875 127.945 146.596C114.799 136.211 105.156 136.762 97.6244 150.472C91.8476 160.982 90.4811 170.396 97.7098 180.236C97.7797 180.222 97.8496 180.208 97.9272 180.194C102.446 183.854 107.726 185.376 113.689 184.755V184.741Z" fill="white"/>
</mask>
<g mask="url(#mask0_59_139782)">
<path d="M912.731 -63.2949L758.256 785.172L762.869 785.851L917.344 -62.6154L912.731 -63.2949Z" fill="#3DCDA4"/>
<path d="M903.102 -64.6779L748.627 783.789L753.24 784.468L907.715 -63.9985L903.102 -64.6779Z" fill="#3DCDA4"/>
<path d="M893.458 -66.0475L738.982 782.419L743.595 783.098L898.071 -65.3681L893.458 -66.0475Z" fill="#3DCDA4"/>
<path d="M883.815 -67.4243L729.34 781.042L733.953 781.722L888.428 -66.7448L883.815 -67.4243Z" fill="#3DCDA4"/>
<path d="M874.171 -68.801L719.695 779.666L724.308 780.345L878.783 -68.1215L874.171 -68.801Z" fill="#3DCDA4"/>
<path d="M864.532 -70.1701L710.057 778.296L714.669 778.976L869.145 -69.4907L864.532 -70.1701Z" fill="#3DCDA4"/>
<path d="M854.889 -71.5468L700.414 776.92L705.027 777.599L859.502 -70.8674L854.889 -71.5468Z" fill="#3DCDA4"/>
<path d="M845.253 -72.9104L690.779 775.549L695.392 776.229L849.866 -72.231L845.253 -72.9104Z" fill="#3DCDA4"/>
<path d="M835.612 -74.3L681.137 774.167L685.75 774.846L840.225 -73.6206L835.612 -74.3Z" fill="#3DCDA4"/>
<path d="M825.973 -75.6694L671.498 772.797L676.111 773.477L830.586 -74.99L825.973 -75.6694Z" fill="#3DCDA4"/>
<path d="M816.329 -77.0388L661.854 771.428L666.466 772.107L820.942 -76.3593L816.329 -77.0388Z" fill="#3DCDA4"/>
<path d="M806.686 -78.4152L652.211 770.051L656.824 770.731L811.299 -77.7358L806.686 -78.4152Z" fill="#3DCDA4"/>
<path d="M797.039 -79.7864L642.564 768.673L647.177 769.353L801.651 -79.107L797.039 -79.7864Z" fill="#3DCDA4"/>
<path d="M787.415 -81.1682L632.939 767.298L637.552 767.978L792.028 -80.4887L787.415 -81.1682Z" fill="#3DCDA4"/>
<path d="M777.768 -82.5388L623.293 765.928L627.906 766.607L782.381 -81.8593L777.768 -82.5388Z" fill="#3DCDA4"/>
<path d="M768.124 -83.9072L613.648 764.56L618.261 765.239L772.737 -83.2278L768.124 -83.9072Z" fill="#3DCDA4"/>
<path d="M758.481 -85.2922L604.006 763.174L608.619 763.854L763.094 -84.6128L758.481 -85.2922Z" fill="#3DCDA4"/>
<path d="M748.837 -86.655L594.363 761.805L598.976 762.484L753.45 -85.9756L748.837 -86.655Z" fill="#3DCDA4"/>
<path d="M739.204 -88.037L584.729 760.43L589.341 761.109L743.817 -87.3576L739.204 -88.037Z" fill="#3DCDA4"/>
<path d="M729.565 -89.4084L575.09 759.058L579.703 759.738L734.178 -88.729L729.565 -89.4084Z" fill="#3DCDA4"/>
<path d="M719.921 -90.7849L565.445 757.682L570.058 758.361L724.533 -90.1054L719.921 -90.7849Z" fill="#3DCDA4"/>
<path d="M710.278 -92.162L555.803 756.305L560.416 756.984L714.891 -91.4826L710.278 -92.162Z" fill="#3DCDA4"/>
<path d="M700.638 -93.5237L546.164 754.936L550.777 755.615L705.251 -92.8443L700.638 -93.5237Z" fill="#3DCDA4"/>
<path d="M690.997 -94.9074L536.521 753.559L541.134 754.239L695.61 -94.228L690.997 -94.9074Z" fill="#3DCDA4"/>
<path d="M681.352 -96.2841L526.877 752.183L531.49 752.862L685.965 -95.6047L681.352 -96.2841Z" fill="#3DCDA4"/>
<path d="M671.718 -97.6535L517.242 750.813L521.855 751.492L676.33 -96.9741L671.718 -97.6535Z" fill="#3DCDA4"/>
<path d="M662.081 -99.03L507.605 749.437L512.218 750.116L666.694 -98.3506L662.081 -99.03Z" fill="#3DCDA4"/>
<path d="M652.435 -100.4L497.961 748.06L502.574 748.739L657.048 -99.7203L652.435 -100.4Z" fill="#3DCDA4"/>
<path d="M642.792 -101.777L488.316 746.689L492.929 747.369L647.405 -101.098L642.792 -101.777Z" fill="#3DCDA4"/>
<path d="M633.147 -103.154L478.672 745.313L483.285 745.992L637.76 -102.474L633.147 -103.154Z" fill="#3DCDA4"/>
<path d="M623.511 -104.523L469.035 743.944L473.648 744.623L628.123 -103.843L623.511 -104.523Z" fill="#3DCDA4"/>
<path d="M613.868 -105.905L459.393 742.561L464.005 743.24L618.481 -105.226L613.868 -105.905Z" fill="#3DCDA4"/>
<path d="M604.23 -107.269L449.756 741.19L454.369 741.87L608.843 -106.59L604.23 -107.269Z" fill="#3DCDA4"/>
<path d="M594.589 -108.646L440.113 739.821L444.726 740.5L599.201 -107.967L594.589 -108.646Z" fill="#3DCDA4"/>
<path d="M584.952 -110.021L430.477 738.445L435.089 739.125L589.565 -109.342L584.952 -110.021Z" fill="#3DCDA4"/>
<path d="M575.307 -111.399L420.832 737.068L425.445 737.747L579.92 -110.719L575.307 -111.399Z" fill="#3DCDA4"/>
<path d="M565.663 -112.775L411.188 735.691L415.8 736.371L570.276 -112.096L565.663 -112.775Z" fill="#3DCDA4"/>
<path d="M556.019 -114.138L401.545 734.322L406.158 735.001L560.632 -113.459L556.019 -114.138Z" fill="#3DCDA4"/>
<path d="M546.391 -115.514L391.916 732.953L396.529 733.632L551.004 -114.834L546.391 -115.514Z" fill="#3DCDA4"/>
<path d="M536.747 -116.898L382.271 731.569L386.884 732.248L541.36 -116.218L536.747 -116.898Z" fill="#3DCDA4"/>
<path d="M527.102 -118.268L372.627 730.198L377.24 730.878L531.715 -117.589L527.102 -118.268Z" fill="#3DCDA4"/>
<path d="M517.46 -119.644L362.984 728.823L367.597 729.502L522.073 -118.964L517.46 -119.644Z" fill="#3DCDA4"/>
<path d="M507.82 -121.013L353.346 727.446L357.959 728.126L512.433 -120.334L507.82 -121.013Z" fill="#3DCDA4"/>
<path d="M498.177 -122.39L343.701 726.076L348.314 726.756L502.789 -121.711L498.177 -122.39Z" fill="#3DCDA4"/>
<path d="M488.544 -123.767L334.068 724.699L338.681 725.379L493.157 -123.088L488.544 -123.767Z" fill="#3DCDA4"/>
<path d="M478.899 -125.137L324.424 723.33L329.037 724.009L483.512 -124.457L478.899 -125.137Z" fill="#3DCDA4"/>
<path d="M469.262 -126.52L314.787 721.946L319.4 722.626L473.875 -125.841L469.262 -126.52Z" fill="#3DCDA4"/>
<path d="M459.617 -127.884L305.143 720.576L309.755 721.256L464.23 -127.204L459.617 -127.884Z" fill="#3DCDA4"/>
<path d="M449.973 -129.26L295.498 719.206L300.111 719.885L454.586 -128.581L449.973 -129.26Z" fill="#3DCDA4"/>
<path d="M440.329 -130.636L285.854 717.831L290.466 718.51L444.942 -129.957L440.329 -130.636Z" fill="#3DCDA4"/>
<path d="M430.69 -132.013L276.215 716.453L280.828 717.133L435.303 -131.334L430.69 -132.013Z" fill="#3DCDA4"/>
<path d="M421.057 -133.389L266.582 715.077L271.195 715.757L425.67 -132.71L421.057 -133.389Z" fill="#3DCDA4"/>
<path d="M411.412 -134.753L256.938 713.707L261.55 714.386L416.024 -134.073L411.412 -134.753Z" fill="#3DCDA4"/>
<path d="M401.768 -136.13L247.293 712.337L251.906 713.016L406.381 -135.45L401.768 -136.13Z" fill="#3DCDA4"/>
<path d="M392.128 -137.513L237.652 710.954L242.265 711.633L396.741 -136.833L392.128 -137.513Z" fill="#3DCDA4"/>
<path d="M382.489 -138.882L228.014 709.585L232.626 710.264L387.102 -138.202L382.489 -138.882Z" fill="#3DCDA4"/>
<path d="M372.844 -140.259L218.369 708.208L222.982 708.887L377.457 -139.58L372.844 -140.259Z" fill="#3DCDA4"/>
<path d="M363.208 -141.622L208.734 706.838L213.347 707.517L367.821 -140.942L363.208 -141.622Z" fill="#3DCDA4"/>
<path d="M353.565 -143.005L199.09 705.462L203.703 706.141L358.178 -142.325L353.565 -143.005Z" fill="#3DCDA4"/>
<path d="M343.928 -144.382L189.453 704.084L194.066 704.764L348.541 -143.703L343.928 -144.382Z" fill="#3DCDA4"/>
<path d="M334.284 -145.75L179.809 702.716L184.421 703.396L338.897 -145.071L334.284 -145.75Z" fill="#3DCDA4"/>
<path d="M324.641 -147.135L170.166 701.332L174.779 702.011L329.254 -146.455L324.641 -147.135Z" fill="#3DCDA4"/>
<path d="M314.996 -148.498L160.521 699.961L165.134 700.641L319.608 -147.819L314.996 -148.498Z" fill="#3DCDA4"/>
<path d="M305.366 -149.874L150.891 698.593L155.503 699.272L309.979 -149.194L305.366 -149.874Z" fill="#3DCDA4"/>
<path d="M295.725 -151.251L141.25 697.216L145.863 697.895L300.338 -150.571L295.725 -151.251Z" fill="#3DCDA4"/>
<path d="M286.081 -152.628L131.605 695.839L136.218 696.518L290.694 -151.948L286.081 -152.628Z" fill="#3DCDA4"/>
<path d="M276.436 -154.004L121.961 694.463L126.574 695.142L281.049 -153.324L276.436 -154.004Z" fill="#3DCDA4"/>
<path d="M266.798 -155.365L112.324 693.095L116.937 693.774L271.411 -154.686L266.798 -155.365Z" fill="#3DCDA4"/>
<path d="M257.155 -156.742L102.68 691.724L107.293 692.404L261.768 -156.063L257.155 -156.742Z" fill="#3DCDA4"/>
<path d="M247.52 -158.127L93.0449 690.34L97.6577 691.019L252.133 -157.447L247.52 -158.127Z" fill="#3DCDA4"/>
<path d="M237.876 -159.496L83.4004 688.97L88.0132 689.65L242.489 -158.817L237.876 -159.496Z" fill="#3DCDA4"/>
<path d="M228.241 -160.872L73.7656 687.594L78.3784 688.274L232.854 -160.193L228.241 -160.872Z" fill="#3DCDA4"/>
<path d="M218.593 -162.236L64.1191 686.224L68.732 686.903L223.206 -161.557L218.593 -162.236Z" fill="#3DCDA4"/>
<path d="M208.95 -163.619L54.4746 684.847L59.0874 685.527L213.563 -162.94L208.95 -163.619Z" fill="#3DCDA4"/>
<path d="M199.307 -164.995L44.832 683.471L49.4448 684.151L203.92 -164.316L199.307 -164.995Z" fill="#3DCDA4"/>
<path d="M189.679 -166.366L35.2031 682.101L39.8159 682.78L194.291 -165.687L189.679 -166.366Z" fill="#3DCDA4"/>
<path d="M180.036 -167.742L25.5605 680.725L30.1734 681.404L184.649 -167.062L180.036 -167.742Z" fill="#3DCDA4"/>
<path d="M170.39 -169.112L15.916 679.348L20.5288 680.027L175.003 -168.433L170.39 -169.112Z" fill="#3DCDA4"/>
<path d="M160.747 -170.489L6.27148 677.978L10.8843 678.657L165.36 -169.81L160.747 -170.489Z" fill="#3DCDA4"/>
<path d="M151.11 -171.864L-3.36523 676.602L1.24758 677.281L155.723 -171.185L151.11 -171.864Z" fill="#3DCDA4"/>
<path d="M141.466 -173.235L-13.0098 675.232L-8.397 675.911L146.078 -172.555L141.466 -173.235Z" fill="#3DCDA4"/>
<path d="M131.833 -174.618L-22.6426 673.848L-18.0298 674.528L136.446 -173.939L131.833 -174.618Z" fill="#3DCDA4"/>
<path d="M122.187 -175.981L-32.2871 672.479L-27.6743 673.158L126.8 -175.301L122.187 -175.981Z" fill="#3DCDA4"/>
<path d="M112.55 -177.356L-41.9258 671.111L-37.313 671.79L117.162 -176.676L112.55 -177.356Z" fill="#3DCDA4"/>
<path d="M102.907 -178.741L-51.5684 669.726L-46.9556 670.405L107.52 -178.061L102.907 -178.741Z" fill="#3DCDA4"/>
<path d="M93.2625 -180.111L-61.2129 668.356L-56.6001 669.035L97.8753 -179.431L93.2625 -180.111Z" fill="#3DCDA4"/>
<path d="M83.6179 -181.487L-70.8574 666.979L-66.2447 667.658L88.2307 -180.808L83.6179 -181.487Z" fill="#3DCDA4"/>
<path d="M73.9722 -182.851L-80.502 665.609L-75.8891 666.288L78.585 -182.171L73.9722 -182.851Z" fill="#3DCDA4"/>
<path d="M64.3445 -184.233L-90.1309 664.233L-85.5181 664.913L68.9573 -183.554L64.3445 -184.233Z" fill="#3DCDA4"/>
<path d="M54.702 -185.61L-99.7734 662.857L-95.1606 663.536L59.3148 -184.93L54.702 -185.61Z" fill="#3DCDA4"/>
</g>
</svg>
