<svg width="510" height="687" viewBox="0 0 510 687" fill="none" xmlns="http://www.w3.org/2000/svg">
<mask id="mask0_59_157741" style="mask-type:luminance" maskUnits="userSpaceOnUse" x="-85" y="0" width="595" height="687">
<path d="M-9.30395 633.106C-15.6751 634.072 -14.4725 638.646 -14.6669 642.656C-15.0495 650.539 -18.5661 653.047 -26.0669 651.144C-27.9922 650.652 -29.0855 649.766 -29.9054 648.083C-32.1405 643.514 -32.2255 643.554 -38.2869 642.729C-27.9679 640.809 -31.0169 635.19 -32.1526 629.927C-32.8814 626.538 -32.6628 621.563 -30.4642 620.213C-22.8844 615.554 -28.3566 611.838 -30.3974 607.761C-31.1383 606.276 -32.0676 604.87 -32.9725 603.328C-35.8392 603.554 -33.1486 608.591 -36.9385 607.541C-39.3376 606.88 -41.0564 604.892 -41.7852 602.65C-43.0182 598.844 -44.3604 596.845 -49.7598 597.681C-55.4689 598.562 -60.765 593.072 -61.2509 587.741C-61.7003 582.783 -58.1352 579.677 -50.3489 578.242C-44.409 577.147 -39.2829 579.959 -37.224 585.409C-36.3373 587.758 -35.5538 590.153 -34.4119 592.395C-33.3612 594.45 -33.1912 594.36 -30.8529 592.479C-30.5553 592.242 -30.1423 592.101 -29.7536 591.994C-28.1016 591.525 -26.7532 595.371 -25.4717 592.796C-24.2206 590.288 -28.1866 590.796 -29.1948 589.345C-29.796 588.481 -30.2516 587.431 -31.0776 586.821C-33.0697 585.352 -35.6935 583.681 -33.5799 581.349C-31.6849 579.253 -28.5753 578.739 -26.2248 582.619C-26.407 576.311 -27.9801 572.166 -33.7985 569.241C-39.046 566.603 -44.2268 564.717 -50.0756 564.508C-52.8815 564.406 -55.7422 564.678 -58.3113 563.509C-60.273 562.611 -64.731 564.051 -63.8807 560.922C-63.158 558.262 -59.3985 556.506 -55.5903 557.714C-54.9587 557.912 -54.406 558.37 -53.7683 558.505C-51.6608 558.951 -48.9945 560.945 -47.5308 559.149C-45.8484 557.082 -46.5651 553.948 -47.8162 551.598C-48.8062 549.74 -50.1424 547.25 -53.4525 549.08C-54.1023 549.441 -55.7968 549.452 -55.894 549.215C-59.0887 541.625 -71.5941 543.782 -73.5255 534.442C-73.9749 532.268 -77.6676 529.749 -80.0728 528.676C-84.8223 526.558 -84.6097 523.452 -84.9559 519.618C-85.2352 516.54 -84.2028 515.732 -81.4454 515.975C-78.0806 516.274 -77.1271 514.998 -77.613 512.005C-78.2689 507.995 -74.479 504.167 -76.957 499.942C-77.2607 499.423 -75.8274 497.356 -75.712 497.39C-68.9096 499.575 -63.82 491.46 -56.9387 494.69C-55.2138 495.504 -53.7987 496.543 -51.5332 496.481C-49.4014 496.424 -47.0571 499.428 -45.0892 496.492C-43.5283 494.16 -42.508 490.698 -44.6034 488.868C-48.4843 485.48 -44.9799 484.011 -43.6498 481.645C-42.016 478.737 -36.8656 476.297 -41.5362 472.191C-42.5201 471.327 -43.255 469.159 -45.1257 470.469C-46.4254 471.384 -46.6319 473.118 -45.1439 474.298C-43.7227 475.427 -42.9027 476.771 -44.6823 477.782C-46.3768 478.748 -46.6137 476.653 -47.3972 475.828C-48.7151 474.445 -50.1849 472.163 -52.1953 473.739C-54.4243 475.495 -59.939 475.111 -58.2627 479.731C-56.9144 483.447 -60.9047 481.357 -61.6214 482.944C-62.089 483.989 -63.8322 483.26 -64.1905 482.193C-64.7189 480.629 -65.1805 478.511 -63.4131 477.618C-56.9933 474.377 -58.0683 469.323 -59.9937 464.613C-62.6053 458.231 -65.0043 452.07 -62.4413 445.152C-61.9979 443.955 -62.8482 442.34 -63.2005 440.352C-60.5828 441.176 -55.9001 444.983 -57.8376 438.087C-58.1777 436.884 -58.4753 435.213 -56.8537 434.885C-54.3817 434.388 -55.2563 436.783 -54.4971 437.816C-53.2095 439.556 -52.8148 441.159 -54.4242 442.887C-55.2867 443.814 -56.556 445.039 -54.6732 445.852C-53.082 446.541 -52.6508 444.813 -51.8491 443.87C-50.8226 442.667 -51.6911 439.155 -47.7616 441.08C-46.6926 441.606 -45.5083 438.884 -46.1642 438.387C-50.1485 435.331 -48.7637 430.734 -48.5693 427.538C-48.1503 420.671 -49.8205 414.143 -50.1667 407.456C-50.2031 406.733 -49.8144 405.818 -49.2921 405.265C-45.0224 400.702 -44.5608 396.212 -49.4622 392.22C-53.3067 389.091 -54.8797 384.997 -57.7525 381.377C-57.0662 381.236 -56.6107 380.993 -56.3253 381.106C-53.8898 382.094 -52.6751 386.251 -49.1403 384.122C-45.4111 381.874 -46.9417 378.841 -48.5815 375.871C-49.5229 374.165 -45.3808 364.949 -43.9535 364.87C-38.1593 364.559 -33.9564 366.044 -33.2762 372.302C-32.5899 378.655 -27.9861 383.02 -23.3095 387.024C-21.6879 388.413 -18.4386 388.854 -18.4872 384.545C-17.072 389.108 -10.5855 389.537 -9.88702 394.467C-9.72304 395.614 -6.18216 395.964 -8.92739 397.641C-10.3182 398.488 -11.9034 397.856 -13.4097 397.308C-14.7276 396.822 -14.7884 393.264 -17.1388 395.682C-18.8273 397.421 -16.6286 399.03 -15.505 399.866C-11.8002 402.622 -11.3143 406.824 -9.72302 410.715C-0.126846 400.99 -0.618813 395.529 -9.81414 386.471C-12.5412 383.783 -16.246 382.258 -18.3839 379.248C-20.8437 375.78 -22.605 371.968 -22.1434 366.784C-19.0702 371.076 -11.5512 370.133 -12.3954 377.062C-8.7452 375.718 -10.7009 373.075 -9.69875 371.392C-9.17642 370.511 -9.02459 369.241 -7.61552 369.297C-6.29757 369.348 -5.42296 370.59 -5.58694 371.432C-7.04459 378.694 2.63053 379.733 3.62659 385.833C3.91205 387.572 6.52367 387.984 7.57439 384.94C9.2021 380.214 12.6275 375.944 11.2792 370.184C8.46111 370.099 7.31322 372.138 5.85557 373.838C5.07816 374.747 4.54368 376.221 2.81272 375.814C1.27612 375.453 0.711311 374.188 0.680946 372.934C0.504814 366.502 -2.91463 363.102 -9.56515 361.018C-12.9967 359.945 -17.0417 357.144 -15.3289 351.898C-14.3936 349.029 -17.8433 347.143 -18.5722 344.613C-20.2242 338.892 -18.3353 332.765 -22.4835 327.067C-24.591 324.17 -20.5036 323.074 -16.1124 325.209C-19.6411 318.229 -21.6697 312.231 -22.5139 305.923C-21.3781 305.116 -20.4064 305.889 -19.4346 306.251C-18.0802 306.753 -16.744 306.99 -15.8755 305.658C-14.928 304.212 -16.1914 303.099 -17.2178 302.608C-20.0784 301.241 -20.8376 299.705 -17.977 296.803C-15.256 305.635 -4.07466 302.84 0.310432 309.515C2.14464 307.572 1.33687 306.668 -0.205803 305.245C-4.45728 301.315 -7.66412 297.045 -4.20828 290.963C-2.6656 288.253 -6.57695 285.339 -4.3176 282.012C-1.93678 278.505 -0.788887 274.75 5.31502 277.122C11.1092 279.369 12.2814 273.688 14.8079 270.836C20.6325 273.457 14.7715 280.25 20.2559 282.752C22.6934 279.559 25.7849 279.936 29.5302 283.882C31.5041 281.905 30.1194 279.019 31.9961 276.642C35.7374 280.979 40.0617 284.712 43.1288 289.766C45.8376 288.162 42.7948 285.587 44.6108 284.113C47.1617 284.057 46.5179 286.553 47.7447 287.547C48.1031 287.389 48.7286 287.276 48.759 287.084C49.4392 282.187 50.9394 280.499 55.6464 284.706C60.3838 288.942 60.6389 287.874 63.1958 282.419C66.0443 276.342 63.7606 271.808 61.5134 266.708C60.7117 264.89 59.5942 262.885 61.0761 260.31C65.2183 263.184 67.6902 267.725 73.2657 269.837C71.6866 265.951 67.9392 263.41 68.2368 259.383C68.498 255.769 66.8824 251.246 74.5715 254.273C77.5597 255.447 82.6493 256.752 86.8826 254.024C89.227 252.516 95.8289 258.271 95.6892 261.021C95.5556 263.659 93.9704 267.657 99.807 266.821C103.147 266.341 100.882 269.351 102.528 270.627C110.509 276.817 114.128 284.305 107.775 293.714C105.874 296.532 108.583 298.35 111.152 298.062C114.614 297.667 115.902 300.056 116.455 301.665C117.888 305.827 122.48 307.222 124.484 310.848C125.644 307.606 126.61 305.025 122.522 302.467C117.432 299.287 117.414 293.979 118.975 288.964C120.688 283.452 122.941 278.087 124.842 272.621C126.47 267.95 124.994 262.145 130.897 259.011C131.699 258.582 132.641 256.814 131.717 255.622C129.488 252.737 132.234 252.426 133.934 252.07C138.927 251.031 140.014 248.456 138.963 243.966C137.724 238.692 141.065 234.902 146.494 234.501C147.922 234.394 149.914 235.557 150.515 233.474C151.08 231.508 149.646 228.956 148.414 228.6C143.913 227.295 143.834 224.698 144.994 221.434C145.711 219.429 145.972 217.413 143.342 216.893C140.081 216.249 142.814 220.073 140.342 220.66C139.212 217.164 139.546 213.437 137.906 209.986C137.335 208.784 136.181 202.724 142.723 205.051C145.48 206.033 146.549 203.757 147.934 201.295C141.745 201.798 140.894 199.33 142.759 194.58C144.508 190.136 145.219 185.579 143.798 180.586C142.243 175.114 145.012 173.313 150.922 175.041C153.181 175.702 154.317 174.962 154.511 172.765C154.742 170.167 155.89 167.49 154.621 164.983C151.742 159.302 152.635 153.338 152.871 147.448C152.944 145.624 151.499 142.365 156.23 143.167C159.249 143.681 158.326 141.332 158.374 139.762C158.508 135.267 157.724 131.02 165.577 130.715C169.95 130.546 173.145 125.582 172.653 120.646C172.094 115.049 170.096 109.244 179.079 107.73C181.897 107.256 180.233 103.382 184.484 102.027C189.556 100.411 194.736 100.699 199.619 99.0843C204.618 97.424 207.886 101.106 209.963 103.998C212.829 108.001 215.18 112.564 214.627 117.975C214.081 123.34 215.878 124.243 221.229 122.159C228.821 119.194 237.154 120.838 243.13 126.355C244.217 127.355 245.639 128.044 246.926 128.851C251.9 131.957 255.241 135.543 254.129 141.874C253.595 144.924 253.17 149.408 259.784 148.402C263.987 147.764 264.667 152.559 264.351 154.05C263.27 159.166 267.558 162.831 267.497 167.581C267.473 169.501 268.366 171.155 265.955 172.274C263.975 173.188 263.726 174.95 264.4 176.56C265.232 178.553 266.981 177.317 268.439 177.147C274.136 176.475 277.701 178.632 277.877 184.144C278.235 195.512 287.886 203.82 289.301 214.804C301.873 224.122 294.142 238.579 299.389 249.89C301.011 253.386 297.519 257.893 297.731 262.478C298.187 272.406 300.161 282.413 297.895 292.386C297.683 293.318 297.81 294.826 298.448 295.334C305.754 301.179 303.762 309.351 304.777 316.738C305.056 318.759 305.469 319.962 307.941 320.77C316.802 323.667 318.97 327.863 318.612 336.831C318.333 343.834 320.039 352.079 324.364 356.517C337.27 369.777 332.381 384.308 330.972 398.782C330.273 405.909 325.906 411.099 319.572 414.82C327.838 418.644 334.221 415.368 335.727 406.609C336.651 401.244 334.98 395.552 338.382 390.48C340.167 387.809 341.558 386.776 344.479 389.396C346.872 391.542 348.804 396.794 353.085 393.496C357.209 390.322 358.704 385.516 353.626 381.196C353.268 380.891 353.395 380.089 353.098 378.423C356.711 381.704 362.032 379.688 364.322 384.393C364.218 380.891 360.878 377.943 364.079 374.448C365.403 372.996 363.155 371.889 361.655 370.833C356.317 367.078 356.074 363.385 361.212 359.601C366.15 355.964 367.941 349.938 373.432 346.731C376.031 345.211 373.802 342.089 374.258 339.095C377.738 344.127 378.455 354.394 375.861 359.025C375.072 360.437 375.637 361.34 376.165 362.458C377.301 364.847 378.096 366.999 374.847 368.84C373.037 369.862 374.185 371.957 374.568 373.505C375.333 376.565 376.39 379.502 373.335 382.156C372.381 382.981 372.011 384.731 373.049 385.635C378.625 390.486 375.867 396.856 377.149 402.808C374.434 401.47 375.904 398.087 372.806 397.161C372.223 402.927 374.294 408.749 375.886 413.646C378.473 421.614 374.227 428.165 374.258 435.405C374.276 440.747 374.197 445.638 377.799 450.093C378.983 451.562 379.918 453.301 380.52 455.052C381.145 456.876 381.157 458.926 378.704 459.796C376.475 460.586 376.189 458.61 375.479 457.452C374.173 455.323 372.764 453.584 369.344 454.967C373.462 460.389 373.632 467.115 377.1 473.146C378.449 468.995 381.886 466.03 381.983 461.558C382.02 459.858 383.18 457.955 385.646 457.616C387.261 457.39 387.929 456.746 387.194 455.08C383.739 447.185 383.775 447.168 388.512 440.261C391.47 443.277 389.697 447.185 391.075 450.291C391.762 451.833 392.351 453.408 393.08 454.933C393.839 456.537 394.981 458.13 397.094 457.384C399.147 456.661 398.06 454.753 397.702 453.55C397.119 451.584 396.074 449.709 395.041 447.891C393.256 444.745 392.308 440.905 394.276 438.296C397.519 433.987 396.876 429.65 397.513 425.042C397.981 421.676 403.478 418.672 407.638 417.881C412.916 416.882 414.288 414.335 413.985 410.144C413.815 407.761 415.187 405.892 415.71 403.915C416.384 401.34 415.679 397.517 413.007 395.456C411.634 394.394 411.841 397.161 410.669 397.788C408.762 395.766 410.669 392.83 407.996 390.164C403.757 397.026 405.676 405.175 401.984 411.878C398.048 407.411 396.208 402.244 393.547 396.76C392.345 398.912 391.525 400.674 390.413 402.266C389.478 403.61 387.935 404.057 386.271 403.469C384.704 402.916 384.522 401.453 384.753 400.307C385.798 395.207 382.494 390.633 383.222 385.262C383.66 382.009 381.431 378.48 384.388 375.024C385.694 373.499 382.809 372.307 382.53 370.681C382.348 369.602 379.949 368.14 383.477 367.942C386.63 367.761 385.099 365.756 383.897 365.333C379.706 363.87 380.817 360.781 380.811 357.986C380.793 351.841 380.811 345.691 380.811 339.361C386.332 340.496 383.32 346.358 387.978 347.634C387.978 343.856 386.581 339.564 388.282 337.187C391.47 332.72 388.573 328.817 388.798 324.7C391.78 323.469 390.826 327.812 393.651 327.089C393.189 324.508 395.661 321.521 390.845 319.567C388.33 318.55 390.832 316.325 392.254 315.365C396.985 312.175 395.898 306.979 393.371 304.918C387.522 300.146 383.678 293.154 375.922 290.489C374.355 289.952 374.009 289.066 373.657 287.801C373.067 285.672 372.497 284.458 369.126 285.259C364.929 286.253 358.479 278.799 358.145 273.112C357.993 270.537 358.242 268.142 355.169 266.804C354.476 266.505 353.541 265.302 353.723 264.867C356.025 259.248 351.014 255.188 350.407 250.297C350.194 248.575 348.148 245.943 351.531 244.237C355.205 242.385 354.543 247.134 357.052 246.988C358.266 245.135 358.831 243.068 357.689 241.182C356.572 239.341 356.584 238.313 358.728 237.342C359.724 236.89 360.507 234.97 359.712 234.857C353.942 234.016 355.09 229.701 354.355 226.313C354.039 224.867 350.182 225.245 352.071 222.783C353.243 221.258 354.938 222.501 356.42 222.693C359.347 223.071 361.643 221.4 363.751 220.044C365.852 218.695 365.627 215.803 363.909 214.662C362.512 213.736 359.961 210.913 357.853 213.928C356.019 216.554 353.632 216.95 351.986 214.809C350.468 212.833 350.261 210.235 354.586 209.563C356.827 209.218 355.934 206.649 355.059 205.339C351.203 199.567 353.93 193.485 353.857 187.55C353.839 186.019 355.43 185.737 356.632 185.206C359.529 183.93 359.754 181.829 358.327 179.513C353.875 172.285 357.987 165.294 359.062 158.257C359.25 157.02 360.999 155.58 360.374 154.281C357.58 148.487 361.558 142.49 358.819 136.413C361.467 137.255 362.001 141.213 364.595 139.276C366.739 137.672 364.85 135.323 363.404 133.815C358.874 129.1 360.629 126.655 366.49 125.056C368.482 124.514 371.069 123.605 367.413 121.041C365.779 119.895 364.194 116.071 364.99 114.998C368.901 109.713 364.577 108.284 361.321 105.438C354.731 99.683 356.675 90.924 365.439 84.0907C370.766 79.9399 372.46 73.79 370.11 67.5102C368.257 62.5575 366.374 57.6217 372.375 53.6799C374.604 52.2172 373.244 49.7437 373.462 47.7785C374.021 42.6112 376.195 39.0025 382.202 38.3531C386.478 37.89 389.94 34.1402 394.835 35.8287C395.788 36.1562 398.352 35.1567 398.388 34.6654C398.819 28.0975 406.563 26.4372 408.683 21.1062L408.476 21.3546C409.29 20.564 411.646 19.604 410.675 21.1683C407.608 26.104 409.934 28.4081 415.218 30.5993C411.282 31.26 409.29 32.9316 407.559 34.9873C411.197 38.1159 414.246 41.9956 418.012 34.7049C419.196 32.4121 423.66 31.3391 425.379 28.3065C425.883 27.4142 426.964 26.7026 428.209 27.3464C429.727 28.1314 430.25 29.5489 430.341 31.0341C430.456 32.8808 429.515 32.8243 427.814 32.4121C426.071 31.9942 424.644 32.9599 425.081 34.8913C425.67 37.5003 427.772 40.3748 430.055 40.1941C437.933 39.5672 436.542 42.4474 434.623 47.3379C433.347 50.5852 431.051 53.4653 430.596 57.0852C434.021 58.8077 435.831 55.0409 438.801 54.6625C439.336 57.2095 438.4 59.5644 436.925 61.1231C432.776 65.4941 435.121 68.233 439.093 70.7461C441.656 72.3669 444.103 81.5946 442.421 83.8083C441.383 85.175 440.083 85.6833 438.376 84.8644C436.463 83.9495 434.866 84.311 433.815 86.0673C432.454 88.3488 434.343 90.4552 434.623 92.6181C434.829 94.1825 437.781 93.5217 438.759 93.0869C443.599 90.9522 442.968 94.0356 442.828 96.5374C442.731 98.2994 441.601 99.8016 443.296 101.739C449.011 108.261 447.918 117.54 440.951 123.159C438.911 124.802 435.127 125.508 441.03 127.53C443.113 128.241 442.3 132.46 438.564 132.652C434.598 132.855 434.787 135.12 434.696 137.565C434.611 139.796 435.898 140.468 437.416 138.904C440.605 135.606 441.704 137.441 442.628 140.372C443.198 142.19 443.593 144.054 446.357 144.043C448.829 144.031 449.144 142.659 449.387 140.812C449.588 139.31 450.924 138.926 452.448 139.35C461.626 141.874 465.64 149.007 463.891 158.771C463.466 161.16 462.773 163.831 465.816 166.09C470.9 169.862 467.875 175.679 469.102 180.462C469.454 181.829 466.387 186.782 472.376 184.269C472.473 184.229 472.874 184.506 472.868 184.619C472.394 191.26 479.457 193.733 481.765 198.658C483.423 202.199 478.449 204.943 478.036 208.631C477.787 210.867 474.586 213.284 480.593 213.776C484.826 214.12 484.79 219.35 483.958 222.484C483.405 224.585 483.108 227.544 479.075 228.769C476.712 229.487 474.435 235.8 476.36 237.336C479.111 239.533 477.969 245.57 484.268 244.446C486.849 243.989 492.449 252.172 492.109 255.769C491.653 260.558 491.914 265.155 492.831 269.95C493.767 274.846 490.53 279.488 489.133 284.311C491.192 285.802 494.259 280.877 495.194 284.475C496.111 288.015 497.496 293.132 493.08 295.272C485.033 299.175 488.434 302.388 491.264 308.007C497.229 319.832 499.373 327.902 487.547 336.684C483.727 339.519 478.461 345.019 471.325 341.659C469.758 340.925 468.507 341.947 468.483 343.314C468.446 345.9 467.766 348.843 470.614 350.644C471.665 351.311 473.578 352.084 474.338 351.655C479.652 348.639 479.822 350.785 478.552 354.936C478.218 356.037 478.947 356.952 480.265 357.167C481.419 357.359 481.808 356.478 482.172 355.749C483.193 353.728 484.061 349.43 485.118 350.006C490.141 352.751 495.158 347.199 500.824 350.893C496.785 351.904 495.874 354.168 496.779 356.98C499.039 363.983 492.2 371.263 497.587 378.164C497.945 378.621 497.66 379.694 498.055 379.92C507.882 385.595 505.021 393.671 504.286 402.136C504.043 404.949 504.529 409.427 505.762 412.951C506.91 416.226 506.321 419.186 505.489 422.574C503.97 428.724 502.853 434.806 498.929 440.171C498.176 441.205 498.37 443.096 499.749 444.203C500.861 445.096 501.717 446.259 501.207 447.462C497.01 457.333 502.816 469.057 494.295 478.274C492.151 480.595 491.343 484.418 491.04 487.642C490.742 490.811 488.228 494.295 494.374 496.978C498.881 498.943 496.075 504.98 494.647 509.419C491.963 517.805 487.165 525.801 490.177 535.295C491.313 538.875 492.358 539.908 496.257 539.779C522.908 538.909 503.557 544.167 498.079 544.85C492.394 545.561 491.337 547.911 492.68 552.395C494.07 557.031 495.51 561.651 487.675 562.441C486.418 562.566 485.324 563.949 486.533 565.316C489.655 568.851 489.71 572.324 485.446 574.12C481.711 575.695 476.512 584.195 476.421 586.12C476.093 592.846 468.155 598.166 472.309 605.655C472.497 605.999 472.692 606.626 472.509 606.818C463.976 615.944 476.961 611.025 477.332 614.967C476.743 615.328 474.508 615.035 473.59 617.328C472.534 619.982 470.116 619.395 469.096 616.78C467.736 613.278 465.725 613.905 463.63 615.921C462.403 617.096 461.577 618.638 460.587 620.021C459.081 622.128 457.963 623.404 462.136 624.613C468.853 626.555 471.422 633.208 476.19 637.5C478.735 636.348 477.818 634.241 477.957 632.542C478.055 631.276 477.751 629.882 479.585 629.673C481.48 629.458 481.523 630.932 481.863 632.152C482.397 634.111 482.877 633.694 485.209 635.783C486.746 637.161 485.95 640.29 484.699 641.741C482.142 644.694 481.571 647.761 481.273 651.404C480.769 657.514 471.756 664.494 465.318 666.329C460.958 667.572 459.864 665.098 457.083 663.195C456.524 666.064 453.627 668.159 458.589 671.463C462.804 674.264 462.822 680.075 461.115 685.287C460.204 681.142 458.2 678.115 453.299 677.121C452.576 680.284 457.356 679.217 456.591 682.249C452.461 681.182 447.201 677.952 445.968 685.412C445.907 685.773 443.897 686.253 442.962 686.039C432.303 683.582 421.036 686.259 410.553 682.684C408.81 682.091 407.474 682.74 406.035 683.102C399.171 684.824 398.649 684.497 399.433 678.081C399.657 676.235 400.374 674.445 400.757 672.609C401.455 669.249 403.727 668.622 407.122 668.594C411.762 668.56 409.533 672.033 410.553 675.495C412.309 670.627 414.774 669.204 418.649 669.266C422.64 669.328 424.194 670.695 425.537 674.349C427.286 679.115 438.218 679.16 440.824 674.405C442.464 671.418 444.419 670.61 447.523 670.424C455.024 669.972 455.643 668.967 453.117 661.987C452.837 661.219 452.673 660.411 452.242 658.83C445.342 666.567 441.31 657.548 435.692 656.915C436.742 650.319 435.285 643.051 442.202 637.822C437.143 638.737 434.337 634.14 429.63 634.93C428.142 635.179 426.569 634.072 425.409 636.031C424.358 637.805 425.312 638.505 426.672 639.561C430.675 642.678 430.529 646.208 427.322 649.817C425.433 651.94 424.31 654.397 423.399 657C421.656 661.97 418.534 663.122 413.778 660.473C411.312 659.101 410.146 660.823 408.598 661.885C405.585 663.958 403.581 663.043 402.773 659.874C401.485 654.826 399.931 649.777 399.384 644.649C398.941 640.504 396.493 637.856 393.833 635.071C393.049 634.247 392.011 633.253 391.221 634.58C388.737 638.748 387.085 634.885 385.773 633.914C383.72 632.4 384.006 630.074 385.864 628.425C387.796 626.713 388.676 624.189 391.233 622.935C392.776 622.179 392.43 620.688 391.209 619.846C389.199 618.451 389.612 620.575 388.853 621.281C385.47 624.443 382.937 621.252 380.331 619.841C379.59 619.44 379.566 617.938 378.315 617.604C375.855 618.57 379.281 622.568 375.242 622.726C371.786 622.862 370.693 620.309 369.642 618.113C368.281 615.255 365.895 613.555 362.931 613.041C362.25 612.923 360.307 615.854 360.07 617.52C359.73 619.925 360.028 620.208 358.242 620.405C356.104 620.643 354.197 620.309 352.928 618.508C352.314 617.638 351.895 616.639 351.209 615.831C349.016 613.239 347.243 609.444 344.376 608.461C340.55 607.157 340.756 612.878 337.252 614.295C333.225 615.921 329.982 619.248 327.388 622.913C326.307 624.443 325.609 625.669 326.077 627.419C326.647 629.565 328.561 629.921 330.292 629.605C334.1 628.922 338.193 632.971 341.856 628.786C342.9 627.589 343.586 629.221 344.084 630.113C344.947 631.672 345.779 633.214 343.471 634.343C341.71 635.207 339.712 635.828 339.469 637.997C346.235 640.295 353.11 642.204 358.631 646.767C354.525 645.807 351.099 647.784 348.087 649.212C344.965 650.698 342.269 653.741 347.243 656.774C348.549 657.57 349.939 658.322 350.99 659.361C351.853 660.213 352.806 661.461 351.95 662.704C351.209 663.782 350.091 664.144 348.488 663.596C341.855 661.332 335.005 660.885 327.971 661.478C322.432 661.947 318.302 655.955 312.229 658.22C312.12 658.259 311.755 658.022 311.725 657.881C309.32 645.976 302.256 655.272 297.792 655.752C294.336 656.125 291.968 656.266 288.609 654.854C283.744 652.81 278.108 650.026 272.824 654.747C271.688 655.758 270.224 656.864 268.651 656.012C267.042 655.142 266.198 653.256 266.574 651.692C268.493 643.621 265.699 634.755 272.951 627.487C277.239 623.19 275.241 616.531 276.061 610.895C273.644 615.69 274.3 621.332 270.795 625.991C267.175 618.333 269.477 607.151 275.672 602.87C277.956 601.289 277.962 599.657 277.549 597.483C277.124 595.23 275.66 595.557 274.069 596.015C270.619 597.009 271.372 594.495 271.718 593.202C273.352 587.018 269.344 580.309 273.808 574.368C274.269 573.753 273.984 572.042 273.364 571.449C270.595 568.8 265.28 571.624 263.082 567.467C260.859 569.608 257.604 570.443 256.541 574.103C255.429 577.926 252.562 581.309 250.036 585.624C247.23 581.117 248.305 577.825 250.832 574.758C252.35 572.917 254.518 569.297 253.127 568.964C243.853 566.778 249.75 553.902 239.529 552.869C239.28 552.841 238.848 552.152 238.921 551.864C240.913 544.212 234.081 537.525 236.164 529.834C236.704 527.835 234.506 525.852 233.309 527.066C229.896 530.534 226.95 526.846 222.359 526.937C226.877 529.642 230.042 531.81 231.888 535.153C232.417 536.102 234.433 536.848 232.489 538.107C231.135 538.988 229.987 538.288 228.997 537.266C227.649 535.871 226.264 534.504 224.867 533.154C223.81 532.132 222.693 530.556 221.004 531.838C219.401 533.064 220.488 534.538 221.508 535.667C226.568 541.264 231.53 546.962 234.239 553.919C237.099 561.267 237.804 569.162 239.911 573.397C240.865 568.354 230.066 569.133 227.946 562.825C225.693 564.175 228.517 565.926 226.902 567.518C223.246 563.622 217.64 560.928 220.166 554.157C221.223 551.327 219.298 551.339 216.814 551.661C211.694 552.333 208.554 554.851 206.367 560.109C211.499 558.364 215.131 558.573 215.332 564C215.405 565.954 216.741 568.427 213.801 569.427C211.341 570.263 209.009 568.84 208.201 566.959C203.719 556.449 190.746 558.155 183.233 551.994C182.899 551.723 178.641 554.512 177.439 556.512C175.914 559.053 177.554 561.543 180.634 562.249C186.865 563.678 191.997 567.049 197.384 569.975C200.567 571.708 204.047 573.634 198.514 577.915C206.294 575.136 210.26 579.558 214.494 583.195C218.605 586.725 224.175 589.362 223.986 596.144C221.952 592.948 218.666 593.976 215.982 593.202C211.19 591.824 206.932 588.843 202.432 586.572C197.293 583.986 192.088 581.699 185.918 582.698C184.502 582.93 183.118 582.969 182.741 584.387C182.243 586.25 183.816 586.86 185.316 587.436C189.027 588.854 193.704 588.391 196.577 591.197C204.995 599.42 213.072 607.942 220.931 616.706C215.799 615.187 213.977 609.839 208.803 607.123C208.523 613.182 211.445 617.796 212.507 622.738C214.269 630.926 216.097 639.053 216.006 647.462C215.988 649.342 216.376 651.251 215.301 652.956C214.366 654.436 214.925 657.124 212.034 657.068C208.748 657.006 209.835 654.453 209.708 652.815C209.282 647.36 205.523 647.32 202.644 650.11C193.333 659.135 182.486 656.622 171.578 654.639C168.432 654.069 164.593 656.797 162.067 652.533C161.344 651.319 160.98 653.64 160.287 654.193C157.008 656.791 153.017 656.435 149.495 655.577C145.996 654.724 147.654 651.381 147.557 649.06C147.466 646.773 147.751 644.48 147.758 642.187C147.782 636.065 146.166 635.156 139.479 636.043C132.95 636.907 128.529 632.683 123.907 629.323C122.862 628.56 122.783 626.058 120.609 627.572C118.641 628.944 119.746 630.531 120.876 631.92C121.55 632.75 122.097 634.01 122.996 634.298C130.484 636.704 129.191 643.277 130.818 648.393C131.942 651.923 131.122 654.645 126.245 654.622C123.791 654.611 121.332 654.668 118.878 654.815C112.397 655.204 111.626 650.822 112.768 647.004C113.606 644.209 112.391 643.644 110.703 643.136C107.721 642.249 108.34 644.587 108.164 646.078C107.812 649.173 106.124 650.127 102.71 649.992C98.9568 649.845 96.9889 651.217 100.208 654.837C101.678 656.492 102.364 659.242 99.2057 659.699C93.4116 660.535 96.831 663.506 97.5173 665.364C98.7867 668.837 100.973 672.073 105.771 670.186C108.784 669.001 109.367 666.487 107.763 663.573C109.895 665.093 114.274 664.517 112.64 669.266C112.094 670.847 114.529 670.469 115.726 670.503C120.633 670.661 125.559 671 130.448 670.751C135.902 670.474 135.908 665.917 136.819 662.444C137.366 660.36 136.005 658.022 137.384 655.503C140.639 661.162 139.789 667.244 141.107 672.903C141.739 675.625 139.176 675.134 137.505 675.088C131.256 674.925 124.958 675.088 118.781 674.343C113.588 673.716 108.589 673.648 103.451 674.507C98.1429 675.393 94.3591 674.111 93.7396 668.193C93.1444 662.534 90.2412 658.101 84.3134 655.712C83.4449 655.362 82.8194 654.735 82.127 655.69C77.505 662.054 76.509 656.215 74.8266 653.702C73.703 652.019 74.1646 648.857 71.7352 648.614C69.0142 648.348 68.9171 651.302 68.2247 653.194C67.508 655.148 65.7285 656.051 63.9975 657.011L64.1554 657.158C63.9246 655.103 63.7242 653.047 63.457 650.997C63.0075 647.563 61.7685 645.609 57.3288 647.1C53.6725 648.326 49.8765 646.728 46.1777 646.287C43.8152 646.005 42.3029 644.305 42.892 641.781C43.2321 640.346 42.9891 639.267 41.2703 639.013C40.0678 638.833 38.7438 639.38 38.5616 640.386C37.772 644.819 33.806 645.18 30.502 645.333C24.2341 645.632 17.7232 646.033 11.6983 644.785C6.66942 643.74 3.12856 639.753 3.09212 634.236C9.09884 634.512 12.5729 631.147 10.8176 625.494C9.83372 622.308 11.5769 621.399 13.4232 620.976C15.883 620.411 15.8162 622.964 16.1806 624.387C16.5268 625.742 16.132 627.25 16.1988 628.684C16.3871 632.722 17.7536 635.19 23.0437 634.366C28.03 633.586 29.4634 629.978 31.4676 626.708C32.0021 625.838 34.1582 625.482 32.7431 623.85C31.3705 625.234 29.925 620.123 28.4005 623.952C27.8235 625.398 26.0622 624.534 25.9893 623.619C25.382 616.13 17.8204 616.831 13.2228 614.792C4.68338 611.008 5.21786 611.725 3.25612 620.659C2.19324 625.499 7.00953 629.91 3.22572 634.377C2.34505 635.552 1.71949 637.059 0.541229 637.839C-4.23257 640.967 -8.29575 638.991 -9.54082 633.101C-8.56906 630.328 -2.84174 630.909 -3.79528 628.086C-4.80956 625.081 -9.46796 625.799 -12.5533 624.94C-12.9724 624.822 -13.4157 624.641 -13.7255 624.364C-14.5636 623.613 -15.2742 622.681 -14.1324 621.761C-11.9642 620.01 -9.91131 617.915 -7.37257 616.87C-5.70235 616.181 -2.00359 617.842 -2.8053 614.611C-3.52805 611.703 -4.09894 607.902 -8.24716 606.637C-10.2028 606.039 -11.8731 606.344 -12.8145 608.083C-13.9806 610.246 -15.1042 612.471 -15.8694 614.781C-16.8048 617.576 -17.0295 620.428 -21.6758 619.965C-23.8744 619.745 -24.8097 622.433 -23.1759 623.517C-18.4932 626.629 -14.8855 631.101 -9.32219 633.084L-9.30395 633.106ZM240.264 425.443C242.128 426.714 239.905 429.746 242.906 429.447C245.056 429.232 246.039 429.882 246.125 431.542C246.216 433.27 245.159 435.337 243.325 435.105C240.494 434.755 239.772 436.105 240.646 437.686C241.484 439.211 243.968 440.736 245.59 438.567C248.153 435.128 256.771 433.615 250.358 426.855C249.69 426.149 249.684 424.071 250.315 423.269C254.785 417.593 251.524 415.939 245.76 415.961C245.991 413.939 249.987 414.786 248.202 412.804C245.517 409.828 244.551 403.718 242.906 403.418C235.216 402.018 242.42 397.743 240.476 395.642C240.33 395.484 240.239 395.247 240.057 395.168C233.419 392.203 235.872 386.414 237.397 382.862C239.444 378.101 235.763 377.667 233.704 376.966C229.841 375.651 229.489 378.615 229.398 381.32C229.343 382.862 229.926 384.743 226.92 385.55C227.691 380.168 226.106 375.492 222.863 371.116C222.796 374.589 220.743 378.356 219.571 380.304C215.459 387.12 216.546 394.202 215.356 401.109C215.046 402.904 213.819 404 212.386 403.881C210.37 403.718 210.212 401.6 210.77 400.397C214.433 392.581 210.133 385.279 209.355 377.763C209.185 376.108 209.118 373.584 207.108 373.905C204.982 374.244 201.903 374.097 200.737 376.447C199.82 378.282 201.648 379.722 203.039 380.513C205.414 381.868 206.817 383.241 205.887 385.996C204.357 390.537 204.49 394.897 207.685 398.934C209.301 400.979 208.116 402.182 206.051 403.356C203.488 404.813 203.233 403.08 202.255 401.668C200.743 399.477 200.537 396.98 199.686 394.642C198.666 391.847 199.662 388.368 195.319 384.856C198.368 403.639 203.324 420.242 209.714 436.574C213.2 435.427 211.044 431.412 215.016 431.22C217.008 436.461 218.49 441.865 218.97 448.094C227.4 441.137 231.524 431.497 240.27 425.437L240.264 425.443ZM218.18 261.868C216.237 265.838 218.842 268.572 218.982 271.474C219.043 272.779 220.755 274.095 219.061 275.422C213.88 279.488 216.127 282.735 220.257 285.954C224.205 289.032 220.482 296.616 226.823 297.582C231.742 298.333 231.578 302.444 230.746 303.145C226.222 306.94 233.886 314.823 225.201 316.822C225.153 316.834 225.426 317.822 225.45 318.353C225.784 324.452 230.23 331.02 223.112 336.311C222.747 336.582 222.687 337.876 222.766 337.898C227.102 339.22 224.072 342.224 225.298 344.839C222.11 343.19 220.33 338.582 217.998 340.479C215.605 342.422 213.072 345.878 213.303 349.622C213.4 351.198 214.19 353.558 216.158 353.344C219.103 353.027 223.063 356.5 225.061 351.192C226.215 348.125 233.528 348.504 231.044 342.84C231.876 342.766 232.738 342.529 233.546 342.642C239.176 343.433 238.466 340.4 237.889 336.927C237.172 332.607 233.558 329.309 233.376 324.813C233.328 323.661 233.042 322.69 234.433 322.447C235.186 322.317 236.376 322.566 236.832 323.068C238.563 324.966 238.848 329.58 242.213 328.196C246.185 326.564 240.112 325.305 240.592 322.436C241.545 316.726 245.651 310.334 239.28 304.901C238.873 304.556 239.189 303.252 239.462 302.484C242.007 295.357 237.828 286.835 244.715 280.589C245.062 280.279 245.104 279.223 244.807 278.822C239.917 272.141 242.31 266.047 245.784 259.57C248.026 255.396 245.663 251.268 241.393 249.348C236.625 247.202 235.642 251.618 233.959 254.352C233.637 254.877 233.619 255.73 233.17 255.995C227.582 259.22 227.691 259.197 227.801 264.494C227.849 266.702 229.465 269.255 226.707 271.57C223.865 268.34 221.266 265.387 218.168 261.868H218.18ZM105.048 369.506C106.336 364.768 102.722 360.098 103.099 356.404C103.907 348.509 97.8635 344.607 94.7842 339.112C93.2112 336.294 89.1784 336.983 86.1598 338.068C83.287 339.101 83.4206 341.32 83.864 343.817C85.0119 350.294 90.8121 356.325 86.1963 363.413C86.0444 363.65 86.3481 364.486 86.5364 364.514C92.1787 365.44 93.8428 372.595 100.05 372.217C103.002 372.036 103.615 373.075 103.403 375.204C102.929 379.999 106.263 385.274 101.265 389.52C97.9789 392.31 99.8192 394.812 102.832 395.49C106.992 396.427 104.678 398.646 104.532 400.256C104.338 402.379 103.451 403.164 100.481 402.487C95.264 401.301 89.7736 400.962 84.3742 400.691C78.161 400.38 82.8376 405.587 80.7179 407.445C82.8437 408.004 83.038 411.545 86.7307 410.082C91.4499 408.219 92.5674 410.997 91.8264 414.809C91.3223 417.412 88.9536 420.197 91.8993 422.518C94.3044 424.409 94.3712 426.776 94.6992 429.232C94.9968 431.429 94.268 433.925 97.2197 435.89C97.5659 431.694 103.475 431.847 104.168 427.041C100.591 428.837 99.4487 427.691 98.1611 424.556C94.8936 416.577 101.441 411.81 103.652 405.643C104.35 406.186 104.629 406.637 104.496 406.931C103.19 409.89 102.85 412.618 106.379 414.521C107.563 415.159 109.956 415.673 109.986 415.046C110.15 412.087 113.94 410.189 112.118 406.519C110.436 403.13 110.32 399.352 110.466 395.337C110.818 385.403 106.95 375.481 110.758 365.254C107.873 366.101 108.863 369.704 105.036 369.495L105.048 369.506ZM80.7483 438.381C78.7015 442.103 83.5846 441.154 82.4428 443.898C79.1267 451.844 83.1838 459.716 83.2749 467.657C83.2992 469.797 91.2069 472.011 92.3002 470.458C93.0776 469.357 91.4013 466.522 94.6081 467.205C97.1529 467.747 96.1386 470.339 96.8067 471.977C97.2744 473.118 97.159 474.513 97.7906 475.535C98.4951 476.681 98.9446 478.533 100.997 478.211C102.498 477.974 103.075 476.675 103.287 475.427C104.04 470.972 108.346 467.013 104.101 461.778C102.71 460.061 101.502 456.899 100.894 454.295C97.6813 440.55 96.746 439.68 82.297 439.262C81.4771 439.239 80.5721 438.669 80.7422 438.381H80.7483ZM-0.333366 404.762C-0.491272 409.755 -10.0874 414.047 -0.497322 420.18C-4.61518 418.768 -7.16606 419.016 -8.73303 421.885C-7.58514 424.319 -5.38652 421.439 -3.91673 422.952C-6.50405 426.55 -7.23896 430.13 -4.68807 434.315C-2.48946 437.924 2.53942 438.968 3.91811 443.56C4.00922 439.629 9.83981 439.262 9.05025 435.072C8.4429 431.858 8.72834 429.3 12.9069 427.804C15.6643 426.815 15.0995 424.184 13.405 421.975C11.4614 419.445 9.75478 416.752 7.9813 414.114C7.41647 413.279 6.36575 411.782 7.56223 411.477C12.9009 410.116 11.8623 404.57 15.2635 401.944C18.446 399.488 16.0469 396.585 15.2999 393.914C15.0205 392.92 14.2067 391.887 12.8584 392.536C10.4654 393.699 9.82159 396.037 9.04417 398.189C8.77087 398.94 9.09279 399.866 8.88021 400.646C7.30109 406.327 4.47688 407.569 -0.333366 404.768V404.762ZM34.8506 414.685C33.1682 409.614 37.5351 406.643 34.6198 402.673C30.2408 396.709 32.0143 390.119 33.7209 383.901C34.2433 382.009 35.8892 378.61 39.8917 379.965C41.987 380.677 42.2603 379.434 41.9688 378.068C41.489 375.842 41.2339 373.414 40.0495 371.517C37.4197 367.287 41.9566 363.006 39.5272 358.923C41.7076 358.517 43.311 357.664 40.7784 355.879C39.3147 354.846 37.9177 354.518 35.7616 356.342C31.2126 360.182 30.3684 364.164 32.6338 369.1C34.0003 372.07 31.2126 373.499 30.0707 375.583C28.3519 378.723 26.2748 372.488 24.7078 375.859C22.4303 374.719 23.5964 372.612 23.5052 371.093C23.3291 368.185 23.2623 365.31 22.412 362.475C21.8533 360.612 21.0394 358.923 19.1323 357.974C18.1423 357.483 17.5532 358.003 17.2495 358.957C16.5207 361.244 16.4357 363.418 17.9723 365.502C18.7072 366.502 21.6468 366.564 20.6689 367.524C15.64 372.426 20.0191 377.904 19.0109 382.93C17.9298 388.306 20.2256 392.231 23.8575 396.195C27.2344 391.412 22.491 386.386 25.9043 380.236C26.1229 384.263 26.1594 386.493 26.4023 388.696C26.5117 389.673 26.7243 391.028 27.4409 391.497C30.2226 393.338 30.2408 393.214 29.4209 395.653C27.2162 402.204 27.9329 408.185 34.8628 414.673L34.8506 414.685ZM412.837 223.534C415.248 223.783 414.252 220.265 416.08 221.253C417.872 222.218 419.439 224.178 420.192 226.019C421.115 228.289 418.303 229.374 416.839 229.984C414.884 230.791 412.74 231.316 410.978 232.514C409.715 233.372 408.148 234.998 410.796 235.495C413.857 236.077 414.131 238.127 415.461 239.957C417.264 242.447 419.797 245.389 423.417 244.825C426.934 244.277 427.122 240.939 427.942 238.02C429.812 231.362 426.193 224.867 427.851 218.311C428.094 217.35 427.322 216.933 426.442 216.526C419.251 213.177 414.38 215.628 412.843 223.54L412.837 223.534ZM421.893 197.111C428.003 191.746 427.984 191.554 427.407 183.489C427.28 181.739 427.687 179.841 428.355 178.186C430.985 171.63 433.712 165.101 436.627 158.652C437.514 156.693 436.53 156.134 435.072 155.292C433.28 154.259 433.329 155.682 432.388 156.393C429.43 158.635 429.545 163.774 428.173 164.305C420.769 167.197 419.657 171.263 423.15 177.339C423.241 177.497 423.229 177.791 423.125 177.949C419.287 184.127 424.632 190.797 421.886 197.111H421.893ZM308.652 648.36C310.188 648.218 310.31 647.004 310.832 646.191C312.964 642.899 314.713 639.042 319.645 643.661C321.199 645.118 322.438 643.684 323.022 642.153C324.661 637.844 321.26 633.377 323.671 628.871C324.315 627.668 321.655 627.82 320.045 628.074C315.01 628.871 311.154 632.575 305.767 632.7C304.206 632.733 302.062 634.591 301.989 636.579C301.91 638.595 304.285 638.065 305.603 638.533C308.317 639.499 309.587 640.905 308.463 643.751C307.892 645.203 307.801 646.852 308.645 648.348L308.652 648.36ZM464.091 314.71C465.47 319.94 470.104 321.916 474.708 322.967C478.522 323.836 479.5 319.618 479.549 317.545C479.634 313.705 481.778 310.876 483.156 307.662C483.691 306.409 485.482 305.33 483.6 303.935C482.361 303.02 481.237 303.224 480.205 304.5C479.749 305.059 478.176 305.635 478.024 305.477C474.404 301.558 471.878 304.46 470.62 307.086C469.084 310.294 465.051 311.384 464.091 314.71ZM105.073 310.503C104.265 310.819 103.506 310.893 103.19 311.282C102.358 312.293 102.929 313.31 103.724 314.061C105.322 315.58 108.061 316.359 106.239 319.494C103.415 324.356 106.451 327.727 110.181 330.783C111.158 331.585 111.948 332.957 113.497 332.07C114.62 331.426 115.774 330.41 115.422 329.026C113.971 323.272 114.912 318.054 118.489 313.061C119.941 311.034 118.24 308.73 116.552 307.589C114.517 306.222 113.879 309.153 112.41 309.645C110.035 310.441 108.207 315.326 105.079 310.503H105.073ZM172.562 218.757C176.668 212.415 171.693 210.111 170.703 206.739C168.092 197.845 162.796 190.639 154.912 185.076C154.232 184.596 153.315 182.676 152.507 184.393C151.535 186.46 147.764 185.579 148.086 188.306C148.237 189.594 150.169 189.611 151.134 190.277C154.56 192.655 159.224 194.197 159.352 199.234C159.413 201.736 161.374 203.159 162.783 205.022C165.972 209.241 173.461 210.184 172.568 218.751L172.562 218.757ZM427.164 288.913C427.164 286.92 427.82 284.892 427.055 284.164C422.828 280.132 423.411 276.117 425.537 271.333C426.952 268.142 422.512 266.957 420.654 265.629C418.929 264.398 418.242 267.719 417.398 269.221C416.675 270.497 416.949 271.864 416.973 273.304C417.064 278.844 417.738 284.813 415.776 289.8C414.452 293.166 415.351 294.165 416.657 295.944C420.647 293.877 416.505 283.904 427.164 288.913ZM446.745 265.223C444.741 272.813 452.284 269.588 454.404 270.108C458 270.989 456.044 267.171 456.475 265.217C457.49 260.615 457.508 255.792 459.949 251.46C460.8 249.952 462.616 247.999 460.721 246.423C458.364 244.463 455.765 246.813 455.066 248.049C451.932 253.601 449.454 259.468 446.739 265.228L446.745 265.223ZM414.908 154.197C417.483 154.541 416.007 160.601 419.524 157.082C421.826 154.778 422.573 149.3 418.516 147.759C413.359 145.805 412.041 143.619 413.462 138.966C413.778 137.938 413.232 135.775 411.604 135.464C410.565 135.267 409.108 136.255 408.069 136.995C406.484 138.13 407.608 139.039 408.585 140.005C410.08 141.479 410.875 143.981 409.849 145.161C406.113 149.475 409.381 154.756 406.824 159.273C409.503 157.003 414.72 159.008 414.908 154.191V154.197ZM42.2846 412.369C39.8795 411.793 35.9803 407.14 36.782 414.165C36.8913 415.125 36.6301 415.713 35.7616 416.187C31.8199 418.355 34.1279 419.83 36.697 419.423C41.4708 418.661 43.6815 420.688 45.6919 424.11C46.4207 425.353 47.8055 427.267 49.9008 426.121C51.5164 425.24 51.0062 423.353 50.4232 422.105C46.9916 414.724 47.9452 405.576 39.9585 399.894C38.2761 404.474 44.6898 407.501 42.2786 412.364L42.2846 412.369ZM10.101 466.211C12.1477 465.68 15.8283 466.081 14.0609 463.466C10.7144 458.514 9.88839 451.72 2.81272 448.54C1.23968 453.68 6.06207 457.328 5.55797 461.286C4.36149 470.684 13.6297 471.344 17.9966 476.043C17.8629 470.983 17.1827 466.33 10.101 466.217V466.211ZM20.8694 508.538C22.0598 512.118 22.5457 516.308 25.8071 519.505C27.5745 521.238 30.0161 523.39 31.8199 521.261C32.9071 519.979 36.2111 516.387 31.4859 514.185C29.1051 513.078 28.8864 510.949 29.7428 508.809C30.4655 507.001 32.9435 505.166 30.2773 503.399C28.5584 502.258 26.1958 501.405 23.9729 502.382C21.4403 503.495 21.0455 505.838 20.8694 508.543V508.538ZM100.955 510.062C110.624 502.128 108.274 491.539 109.373 481.927C109.537 480.499 108.844 478.336 106.579 478.257C103.876 478.161 104.569 480.448 104.156 481.91C102.382 488.19 104.247 494.736 102.267 501.14C101.502 503.63 98.5802 506.064 100.955 510.068V510.062ZM405.354 13.2112C402.737 5.25977 400.101 -1.6469 388.354 0.578145C386.198 0.984752 383.332 -1.66949 381.461 1.86008C379.645 5.28236 381.072 7.91401 383.86 10.0374C385.3 11.133 388.269 11.0539 387.644 13.6122C387.109 15.7977 384.577 16.4471 382.633 17.4185C380.21 18.627 377.896 17.6218 375.485 17.2547C374.634 17.1248 373.165 15.9219 372.254 17.8025C369.107 24.2912 374.598 32.1692 382.445 31.6158C380.957 29.9498 377.629 30.4863 377.598 27.2561C383.083 28.1088 388.761 27.6457 393.906 31.2996C392.8 29.2439 392.539 25.8555 394.13 26.2565C400.678 27.9168 402.682 19.7677 408.646 21.1118L408.44 21.3603C408.148 18.3841 406.241 15.9276 405.348 13.2112H405.354ZM256.194 651.257C256.984 647.75 257.373 644.305 257.567 640.787C257.646 639.335 257.865 637.81 256.061 636.997C251.323 634.862 250.133 633.157 256.686 632.287C257.257 632.214 257.901 631.779 258.278 631.339C260.27 628.984 260.045 610.782 258.478 607.998C256.049 603.684 250.455 599.217 258.49 594.733C264.588 591.327 262.869 585.748 263.209 579.942C259.553 582.89 258.053 586.16 256.255 589.204C252.301 595.885 247.728 602.198 251.566 610.782C252.483 612.827 252.963 617.542 251.153 620.151C247.661 625.194 249.022 630.452 248.536 635.732C247.855 643.057 248.056 650.573 245.657 658.033C254.67 659.547 254.348 659.485 256.194 651.251V651.257ZM346.192 668.797C344.516 668.323 341.546 665.211 340.495 669.543C339.803 672.4 339.973 675.083 344.34 675.134C346.022 675.15 348.925 675.134 348.306 676.992C346.903 681.176 350.759 680.775 352.32 680.962C355.995 681.391 359.797 680.933 363.544 680.77C365.603 680.679 367.061 679.764 366.769 677.669C366.466 675.484 364.388 676.077 363.028 676.184C357.24 676.653 354.822 674.072 355.102 666.352C351.774 672.191 349.12 669.627 346.192 668.797ZM361.267 647.631C361.382 651.799 353.353 650.443 355.187 654.227C356.086 656.074 361.576 655.955 362.931 659.558C363.149 660.14 363.319 661.1 363.714 661.202C365.682 661.704 369.211 662.715 369.496 662.218C371.458 658.785 372.235 654.944 372.017 650.969C371.804 646.982 369.065 649.291 367.249 649.178C365.639 649.077 364.692 648.1 365.02 646.682C365.573 644.316 363.714 643.938 361.254 642.758C361.254 644.819 361.224 646.225 361.254 647.631H361.267Z" fill="white"/>
</mask>
<g mask="url(#mask0_59_157741)">
<path d="M305.141 -246.005L-400.502 410.119L-397.182 413.206L308.461 -242.919L305.141 -246.005Z" fill="#63F868"/>
<path d="M311.266 -240.311L-394.377 415.813L-391.057 418.9L314.586 -237.224L311.266 -240.311Z" fill="#63F868"/>
<path d="M317.389 -234.613L-388.254 421.511L-384.934 424.598L320.709 -231.527L317.389 -234.613Z" fill="#63F868"/>
<path d="M323.518 -228.927L-382.125 427.197L-378.805 430.284L326.838 -225.841L323.518 -228.927Z" fill="#63F868"/>
<path d="M329.641 -223.229L-376.002 432.895L-372.682 435.982L332.961 -220.143L329.641 -223.229Z" fill="#63F868"/>
<path d="M335.758 -217.535L-369.885 438.589L-366.565 441.676L339.078 -214.449L335.758 -217.535Z" fill="#63F868"/>
<path d="M341.885 -211.843L-363.758 444.281L-360.438 447.368L345.205 -208.757L341.885 -211.843Z" fill="#63F868"/>
<path d="M348.002 -206.149L-357.641 449.975L-354.321 453.062L351.322 -203.063L348.002 -206.149Z" fill="#63F868"/>
<path d="M354.133 -200.453L-351.51 455.671L-348.19 458.758L357.453 -197.367L354.133 -200.453Z" fill="#63F868"/>
<path d="M360.256 -194.765L-345.387 461.359L-342.067 464.446L363.576 -191.679L360.256 -194.765Z" fill="#63F868"/>
<path d="M366.379 -189.067L-339.264 467.057L-335.944 470.144L369.699 -185.981L366.379 -189.067Z" fill="#63F868"/>
<path d="M372.5 -183.375L-333.143 472.749L-329.823 475.836L375.82 -180.289L372.5 -183.375Z" fill="#63F868"/>
<path d="M378.62 -177.681L-327.023 478.443L-323.704 481.53L381.939 -174.595L378.62 -177.681Z" fill="#63F868"/>
<path d="M384.747 -171.991L-320.896 484.133L-317.577 487.22L388.066 -168.905L384.747 -171.991Z" fill="#63F868"/>
<path d="M390.866 -166.293L-314.777 489.831L-311.458 492.918L394.185 -163.207L390.866 -166.293Z" fill="#63F868"/>
<path d="M396.998 -160.605L-308.645 495.519L-305.325 498.606L400.318 -157.519L396.998 -160.605Z" fill="#63F868"/>
<path d="M403.118 -154.905L-302.525 501.219L-299.206 504.306L406.437 -151.819L403.118 -154.905Z" fill="#63F868"/>
<path d="M409.237 -149.216L-296.406 506.909L-293.086 509.995L412.557 -146.129L409.237 -149.216Z" fill="#63F868"/>
<path d="M415.364 -143.521L-290.279 512.603L-286.96 515.69L418.683 -140.435L415.364 -143.521Z" fill="#63F868"/>
<path d="M421.481 -137.83L-284.162 518.295L-280.842 521.381L424.801 -134.743L421.481 -137.83Z" fill="#63F868"/>
<path d="M427.606 -132.137L-278.037 523.987L-274.717 527.074L430.926 -129.051L427.606 -132.137Z" fill="#63F868"/>
<path d="M433.733 -126.444L-271.91 529.681L-268.59 532.767L437.053 -123.357L433.733 -126.444Z" fill="#63F868"/>
<path d="M439.854 -120.749L-265.789 535.375L-262.469 538.462L443.174 -117.663L439.854 -120.749Z" fill="#63F868"/>
<path d="M445.981 -115.053L-259.662 541.071L-256.342 544.158L449.301 -111.967L445.981 -115.053Z" fill="#63F868"/>
<path d="M452.1 -109.36L-253.543 546.765L-250.223 549.851L455.42 -106.273L452.1 -109.36Z" fill="#63F868"/>
<path d="M458.225 -103.668L-247.418 552.457L-244.098 555.543L461.545 -100.581L458.225 -103.668Z" fill="#63F868"/>
<path d="M464.342 -97.9755L-241.301 558.149L-237.981 561.235L467.662 -94.8887L464.342 -97.9755Z" fill="#63F868"/>
<path d="M470.469 -92.2815L-235.174 563.843L-231.854 566.93L473.789 -89.1947L470.469 -92.2815Z" fill="#63F868"/>
<path d="M476.596 -86.5935L-229.047 569.531L-225.727 572.618L479.916 -83.5067L476.596 -86.5935Z" fill="#63F868"/>
<path d="M482.715 -80.8915L-222.928 575.233L-219.608 578.319L486.035 -77.8047L482.715 -80.8915Z" fill="#63F868"/>
<path d="M488.842 -75.1996L-216.801 580.925L-213.481 584.011L492.162 -72.1128L488.842 -75.1996Z" fill="#63F868"/>
<path d="M494.957 -69.5056L-210.686 586.619L-207.366 589.705L498.277 -66.4188L494.957 -69.5056Z" fill="#63F868"/>
<path d="M501.079 -63.8156L-204.564 592.309L-201.245 595.395L504.398 -60.7288L501.079 -63.8156Z" fill="#63F868"/>
<path d="M507.207 -58.1196L-198.436 598.005L-195.116 601.091L510.527 -55.0328L507.207 -58.1196Z" fill="#63F868"/>
<path d="M513.332 -52.4297L-192.311 603.695L-188.991 606.781L516.652 -49.3429L513.332 -52.4297Z" fill="#63F868"/>
<path d="M519.457 -46.7297L-186.186 609.395L-182.866 612.481L522.777 -43.6429L519.457 -46.7297Z" fill="#63F868"/>
<path d="M525.575 -41.0398L-180.068 615.084L-176.749 618.171L528.894 -37.953L525.575 -41.0398Z" fill="#63F868"/>
<path d="M531.698 -35.3457L-173.945 620.779L-170.626 623.865L535.017 -32.2589L531.698 -35.3457Z" fill="#63F868"/>
<path d="M537.823 -29.6535L-167.82 626.471L-164.501 629.557L541.142 -26.5667L537.823 -29.6535Z" fill="#63F868"/>
<path d="M543.946 -23.9577L-161.697 632.167L-158.377 635.253L547.266 -20.8709L543.946 -23.9577Z" fill="#63F868"/>
<path d="M550.073 -18.2678L-155.57 637.856L-152.251 640.943L553.392 -15.181L550.073 -18.2678Z" fill="#63F868"/>
<path d="M556.192 -12.5717L-149.451 643.552L-146.131 646.639L559.512 -9.48492L556.192 -12.5717Z" fill="#63F868"/>
<path d="M562.321 -6.87961L-143.322 649.245L-140.003 652.331L565.641 -3.79283L562.321 -6.87961Z" fill="#63F868"/>
<path d="M568.438 -1.18771L-137.205 654.937L-133.885 658.023L571.758 1.89909L568.438 -1.18771Z" fill="#63F868"/>
<path d="M574.557 4.50642L-131.086 660.631L-127.766 663.717L577.877 7.5932L574.557 4.50642Z" fill="#63F868"/>
<path d="M580.68 10.1983L-124.963 666.323L-121.643 669.409L584 13.2851L580.68 10.1983Z" fill="#63F868"/>
<path d="M586.809 15.8924L-118.834 672.017L-115.514 675.103L590.129 18.9791L586.809 15.8924Z" fill="#63F868"/>
<path d="M592.938 21.5882L-112.705 677.712L-109.385 680.799L596.258 24.675L592.938 21.5882Z" fill="#63F868"/>
<path d="M599.053 27.2823L-106.59 683.406L-103.27 686.493L602.373 30.3691L599.053 27.2823Z" fill="#63F868"/>
<path d="M605.174 32.9722L-100.469 689.096L-97.149 692.183L608.494 36.059L605.174 32.9722Z" fill="#63F868"/>
<path d="M611.299 38.6663L-94.3438 694.791L-91.024 697.877L614.619 41.7531L611.299 38.6663Z" fill="#63F868"/>
<path d="M617.42 44.3562L-88.2227 700.48L-84.9029 703.567L620.74 47.4431L617.42 44.3562Z" fill="#63F868"/>
<path d="M623.555 50.0501L-82.0879 706.174L-78.7681 709.261L626.875 53.1369L623.555 50.0501Z" fill="#63F868"/>
<path d="M629.67 55.7423L-75.9727 711.866L-72.6529 714.953L632.99 58.829L629.67 55.7423Z" fill="#63F868"/>
<path d="M635.79 61.4422L-69.8535 717.566L-66.5337 720.653L639.109 64.529L635.79 61.4422Z" fill="#63F868"/>
<path d="M641.914 67.1344L-63.7285 723.259L-60.4088 726.345L645.234 70.2211L641.914 67.1344Z" fill="#63F868"/>
<path d="M648.036 72.8243L-57.6074 728.948L-54.2877 732.035L651.355 75.9111L648.036 72.8243Z" fill="#63F868"/>
<path d="M654.161 78.5183L-51.4824 734.643L-48.1627 737.729L657.48 81.6051L654.161 78.5183Z" fill="#63F868"/>
<path d="M660.286 84.2161L-45.3574 740.34L-42.0377 743.427L663.605 87.3029L660.286 84.2161Z" fill="#63F868"/>
<path d="M666.409 89.9041L-39.2344 746.028L-35.9146 749.115L669.728 92.9909L666.409 89.9041Z" fill="#63F868"/>
<path d="M672.534 95.6023L-33.1094 751.727L-29.7896 754.813L675.853 98.6891L672.534 95.6023Z" fill="#63F868"/>
<path d="M678.653 101.294L-26.9902 757.418L-23.6705 760.505L681.972 104.381L678.653 101.294Z" fill="#63F868"/>
<path d="M684.78 106.986L-20.8633 763.11L-17.5435 766.197L688.099 110.073L684.78 106.986Z" fill="#63F868"/>
<path d="M690.897 112.68L-14.7461 768.804L-11.4263 771.891L694.217 115.767L690.897 112.68Z" fill="#63F868"/>
<path d="M697.02 118.376L-8.62305 774.5L-5.3033 777.587L700.34 121.463L697.02 118.376Z" fill="#63F868"/>
<path d="M703.151 124.066L-2.49219 780.19L0.827558 783.277L706.471 127.153L703.151 124.066Z" fill="#63F868"/>
<path d="M709.27 129.762L3.62695 785.886L6.9467 788.973L712.59 132.849L709.27 129.762Z" fill="#63F868"/>
<path d="M715.395 135.456L9.75195 791.58L13.0717 794.667L718.715 138.543L715.395 135.456Z" fill="#63F868"/>
<path d="M721.514 141.148L15.8711 797.272L19.1909 800.359L724.834 144.235L721.514 141.148Z" fill="#63F868"/>
<path d="M727.633 146.842L21.9902 802.966L25.31 806.053L730.953 149.929L727.633 146.842Z" fill="#63F868"/>
<path d="M733.76 152.534L28.1172 808.658L31.4369 811.745L737.08 155.621L733.76 152.534Z" fill="#63F868"/>
<path d="M739.889 158.224L34.2461 814.348L37.5659 817.435L743.209 161.311L739.889 158.224Z" fill="#63F868"/>
<path d="M746.012 163.924L40.3691 820.048L43.6889 823.135L749.332 167.011L746.012 163.924Z" fill="#63F868"/>
<path d="M752.131 169.616L46.4883 825.74L49.808 828.827L755.451 172.703L752.131 169.616Z" fill="#63F868"/>
<path d="M758.256 175.31L52.6133 831.434L55.9331 834.521L761.576 178.397L758.256 175.31Z" fill="#63F868"/>
<path d="M764.375 181.002L58.7324 837.126L62.0522 840.213L767.695 184.089L764.375 181.002Z" fill="#63F868"/>
<path d="M770.496 186.694L64.8535 842.818L68.1733 845.905L773.816 189.781L770.496 186.694Z" fill="#63F868"/>
<path d="M776.629 192.386L70.9863 848.51L74.3061 851.597L779.949 195.473L776.629 192.386Z" fill="#63F868"/>
<path d="M782.746 198.08L77.1035 854.204L80.4233 857.291L786.066 201.167L782.746 198.08Z" fill="#63F868"/>
<path d="M788.873 203.778L83.2305 859.902L86.5502 862.989L792.193 206.865L788.873 203.778Z" fill="#63F868"/>
<path d="M794.993 209.472L89.3496 865.596L92.6694 868.683L798.312 212.559L794.993 209.472Z" fill="#63F868"/>
<path d="M801.114 215.162L95.4707 871.286L98.7904 874.373L804.433 218.249L801.114 215.162Z" fill="#63F868"/>
<path d="M807.235 220.856L101.592 876.98L104.912 880.067L810.554 223.943L807.235 220.856Z" fill="#63F868"/>
<path d="M813.362 226.55L107.719 882.674L111.038 885.761L816.682 229.637L813.362 226.55Z" fill="#63F868"/>
<path d="M819.491 232.242L113.848 888.366L117.167 891.453L822.81 235.329L819.491 232.242Z" fill="#63F868"/>
<path d="M825.612 237.938L119.969 894.062L123.288 897.149L828.931 241.025L825.612 237.938Z" fill="#63F868"/>
<path d="M831.729 243.632L126.086 899.756L129.406 902.843L835.049 246.719L831.729 243.632Z" fill="#63F868"/>
<path d="M837.854 249.324L132.211 905.448L135.531 908.535L841.174 252.411L837.854 249.324Z" fill="#63F868"/>
<path d="M843.975 255.016L138.332 911.14L141.652 914.227L847.295 258.103L843.975 255.016Z" fill="#63F868"/>
<path d="M850.104 260.714L144.461 916.838L147.781 919.925L853.424 263.801L850.104 260.714Z" fill="#63F868"/>
<path d="M856.229 266.4L150.586 922.524L153.906 925.611L859.549 269.487L856.229 266.4Z" fill="#63F868"/>
<path d="M862.346 272.098L156.703 928.222L160.023 931.309L865.666 275.185L862.346 272.098Z" fill="#63F868"/>
<path d="M868.471 277.79L162.828 933.914L166.148 937.001L871.791 280.877L868.471 277.79Z" fill="#63F868"/>
<path d="M874.592 283.484L168.949 939.608L172.269 942.695L877.912 286.571L874.592 283.484Z" fill="#63F868"/>
<path d="M880.717 289.176L175.074 945.3L178.394 948.387L884.037 292.263L880.717 289.176Z" fill="#63F868"/>
<path d="M886.836 294.868L181.193 950.992L184.513 954.079L890.156 297.955L886.836 294.868Z" fill="#63F868"/>
<path d="M892.965 300.56L187.322 956.684L190.642 959.771L896.285 303.647L892.965 300.56Z" fill="#63F868"/>
<path d="M899.088 306.26L193.445 962.384L196.765 965.471L902.408 309.347L899.088 306.26Z" fill="#63F868"/>
<path d="M905.209 311.952L199.566 968.076L202.886 971.163L908.529 315.039L905.209 311.952Z" fill="#63F868"/>
<path d="M911.334 317.644L205.691 973.768L209.011 976.855L914.654 320.731L911.334 317.644Z" fill="#63F868"/>
<path d="M917.454 323.334L211.811 979.458L215.13 982.545L920.773 326.421L917.454 323.334Z" fill="#63F868"/>
<path d="M923.573 329.028L217.93 985.152L221.249 988.239L926.892 332.115L923.573 329.028Z" fill="#63F868"/>
</g>
</svg>
