<svg width="206" height="239" viewBox="0 0 206 239" fill="none" xmlns="http://www.w3.org/2000/svg">
<path d="M148.222 138.263C148.872 143.782 149.521 149.307 150.171 154.826C149.92 154.885 149.669 154.944 149.418 154.996C149.064 154.079 148.709 153.161 148.015 151.364C146.804 156.394 144.574 154.752 141.849 153.657C137.803 152.037 133.468 151.12 129.045 149.848C128.883 160.226 136.466 156.453 141.443 157.859C141.118 158.443 140.838 158.946 140.557 159.457C149.832 160.847 157.4 165.241 163.271 172.505C163.042 172.883 162.805 173.253 162.576 173.63C159.963 171.877 157.356 170.101 154.72 168.385C153.804 167.793 152.859 167.098 151.833 166.861C147.077 165.774 142.226 165.456 137.367 165.056C133.114 164.701 128.942 163.444 124.696 162.83C122.946 162.578 121.107 162.956 119.313 163.044C119.21 163.651 119.099 164.265 118.995 164.871C128.004 165.648 135.462 169.317 141.753 176.3C130.721 173.963 120.302 169.265 108.591 174.052C111.626 174.858 114.343 176.019 117.135 176.226C122.444 176.611 126.83 178.157 130.042 182.736C131.408 184.689 133.586 186.065 135.396 187.707C135.152 188.136 134.908 188.558 134.665 188.987C128.587 186.634 122.518 184.289 116.138 181.819C115.776 184.992 115.466 187.692 115.038 191.376C113.59 187.108 112.505 183.92 111.419 180.724C111.154 180.827 110.88 180.938 110.615 181.042V186.39C110.349 186.583 110.083 186.782 109.81 186.975C107.912 185.133 106.014 183.283 104.116 181.441L103.046 181.671C104.08 190.015 105.113 198.367 106.221 207.31C109.308 203.212 111.456 199.698 114.255 196.82C118.161 192.789 123.057 191.709 128.558 193.492C129.592 193.825 130.921 193.233 132.353 193.04C132.479 194.638 132.582 196.029 132.693 197.427V197.42C130.662 197.893 128.462 198.019 126.653 198.929C123.972 200.275 121.779 200.319 119.202 197.065C118.693 199.225 118.375 200.564 117.932 202.465C113.96 203.323 110.799 205.971 110.297 210.853C110.112 212.673 110.216 214.678 110.792 216.401C112.859 222.652 115.171 228.821 117.415 235.013C117.821 236.122 118.331 237.195 118.228 239C117.496 238.467 116.507 238.09 116.086 237.373C115.481 236.337 115.311 235.057 114.919 233.896C111.05 222.267 107.151 210.646 103.341 199.003C102.736 197.146 102.891 194.993 102.101 193.255C100.513 189.756 98.5119 186.449 96.341 182.433C94.1627 186.398 95.6321 189.83 96.1195 193.122C96.8358 197.982 97.9729 202.775 98.7704 207.628C98.9919 208.982 98.6449 210.424 97.8769 211.859C96.4001 203.833 94.9159 195.814 93.4391 187.788C93.0182 187.774 92.5899 187.759 92.169 187.744C90.9359 195.452 91.1278 203.493 88.0634 210.838C86.3208 207.354 91.8219 201.976 84.5412 200.438C82.0675 199.913 81.5211 200.319 77.2605 205.719C77.4746 204.151 77.6814 202.59 77.9324 200.704C75.8353 200.719 74.3807 200.763 72.7266 203.108C70.6148 206.112 67.4101 208.723 64.1241 210.417C59.9373 212.569 57.1388 215.632 54.7463 219.464C53.8676 220.869 52.28 221.823 50.53 222.46C55.3666 209.411 61.4806 197.693 77.7995 196.288C77.7552 195.859 77.7183 195.43 77.674 195.008C75.8353 194.342 74.0041 193.677 72.1654 193.011L71.6855 193.758C72.1137 194.35 72.542 194.949 73.2657 195.955C68.8204 196.184 64.6779 196.451 60.5355 196.599C53.6609 196.85 47.7757 198.677 44.8295 205.749C44.3421 206.925 43.4634 208.434 42.4149 208.812C36.4928 210.912 34.7501 216.253 32.4242 221.165C31.8187 222.452 31.5159 223.887 30.9178 225.759C30.4969 223.399 29.9209 221.631 29.9431 219.863C29.9652 218.302 30.7184 216.771 31.0212 215.195C31.2353 214.086 31.1762 212.917 31.3461 211.793C31.6267 209.884 31.4642 207.658 32.4168 206.149C34.7428 202.472 37.1057 198.699 41.8315 197.361C43.5225 196.88 44.8442 195.245 46.4909 194.461C47.9972 193.743 49.7104 193.447 51.3349 192.989C52.029 192.789 53.0849 192.893 53.3876 192.449C56.1714 188.425 60.4764 190.296 64.737 189.009C64.1832 190.148 63.9691 190.592 63.2971 191.96C65.2687 191.117 66.5314 190.585 67.4101 190.207C71.6559 191.383 75.9313 192.574 80.2658 193.78C83.0718 189.201 80.827 185.695 77.6001 181.9C76.4187 183.513 75.3554 184.963 73.7604 187.137C73.8416 185.747 73.6939 185.17 73.9155 184.881C78.8259 178.571 73.9524 172.698 73.0072 166.699C72.6454 164.413 67.6021 164.013 65.0028 165.759C63.2971 166.898 61.5028 167.904 59.7527 168.97C59.4131 168.74 59.066 168.511 58.7264 168.282C59.546 166.773 60.2844 165.212 61.2 163.762C62.7212 161.343 64.3531 158.991 66.0292 156.461C64.8182 155.395 64.0281 154.7 63.2454 154.005C63.4522 154.338 63.6516 154.663 63.8583 154.996C61.2369 157.141 58.7264 159.457 55.9499 161.387C53.4467 163.133 50.6038 164.376 48.0268 166.011C45.9814 167.313 43.5668 168.504 42.2598 170.397C38.9812 175.146 34.4031 176.411 29.1087 177.062C25.2689 177.536 21.5547 178.993 17.7519 179.895C16.4892 180.199 15.1379 180.132 13.0113 180.295C18.7635 168.947 26.3396 161.247 39.1289 159.649C29.7585 157.422 20.6613 155.314 13.4027 147.887C15.3742 147.724 17.3532 147.562 19.5315 147.377C20.4028 142.48 12.4427 136.414 20.8311 131.902C19.3469 128.018 22.1528 123.802 27.3365 122.596C29.4114 122.108 31.6267 122.196 33.9453 122.011C32.6604 119.082 31.4125 116.36 30.3049 113.586C30.1277 113.142 30.556 112.454 30.7996 111.507C21.5178 109.081 13.1369 110.242 5.38353 117.647C7.49539 110.649 9.39311 109.036 18.1802 106.758C18.1285 106.403 18.0768 106.041 18.0325 105.686C12.3098 106.558 6.57976 107.431 0.450948 108.363C-0.19147 107.254 -0.508986 105.767 2.06807 105.279C13.3067 103.126 24.4641 100.781 34.8388 108.622C37.4453 110.59 41.2039 111.026 44.7335 111.544C35.1784 108.208 30.7701 100.337 26.3839 92.2298C24.6191 88.975 21.7172 86.3415 19.0515 83.0793C21.2077 82.4283 23.0389 81.8809 25.4905 81.1412C23.1571 87.9319 31.6414 87.4511 32.4537 92.0744C31.0359 89.0711 29.6182 86.0678 28.4441 83.5897C28.6213 81.6368 29.0791 79.9798 28.8502 78.419C28.2374 74.1803 28.2669 70.1044 30.6224 65.9323C32.5128 66.7386 34.3883 67.5375 36.5223 68.4548V64.1348C39.5867 66.1616 41.7724 67.9666 44.2609 69.1427C46.9708 70.4299 49.9097 71.2954 52.8265 72.0425C55.3001 72.6787 57.8772 72.9006 60.4099 73.3074C60.3804 73.6255 60.3509 73.9436 60.3213 74.2691C59.0217 74.5798 57.7147 74.8905 55.7506 75.3639C58.4162 77.5091 60.277 79.0108 62.2855 80.6308C62.4996 80.2017 62.8393 79.5286 63.5851 78.0565C67.1812 84.2555 67.5651 90.3804 66.9449 96.7125C65.7486 98.1032 64.5524 99.4939 63.8362 100.33C60.7274 98.806 58.4753 97.615 56.1419 96.6016C55.1672 96.1799 54.0227 96.1356 52.9594 95.9284C53.3655 97.0232 53.4615 98.4583 54.2368 99.1389C56.8434 101.439 59.6789 103.466 62.3593 105.545C62.7212 104.716 63.2897 103.422 63.9395 101.92C65.2096 102.534 66.0957 102.963 67.3362 103.57C67.1664 100.981 67.0335 98.8356 66.8932 96.683C73.4503 82.6576 68.3109 70.1636 61.7538 57.8914C60.949 56.3898 59.6272 55.1766 58.7337 53.7119C57.5449 51.7664 56.1124 51.5075 53.779 51.2042C50.3602 50.7604 46.9782 48.7113 43.9729 46.7437C37.9622 42.8083 30.8883 32.5482 29.9579 26.9484H34.0782C33.8862 24.6109 33.6794 22.4657 33.5392 20.3056C33.2733 16.1927 33.7607 15.8229 37.4453 17.3097C38.0139 17.539 38.5973 17.7314 39.1658 17.9311C41.9053 15.024 42.5404 13.9513 50.2494 19.81C52.2505 23.4421 54.2516 27.0742 56.2527 30.7063C56.5776 30.5287 56.9025 30.3512 57.2274 30.1737C55.4552 27.089 53.683 24.0117 51.9034 20.927C53.3212 22.0662 54.7315 23.2128 56.5037 24.6405C57.7812 19.5215 59.0217 14.5505 60.4542 8.8176C65.6453 15.0314 68.3995 20.927 66.9523 28.3021C66.2212 32.0378 66.1252 35.914 65.2022 39.5905C64.5303 42.2609 63.4891 45.1754 61.6948 47.1357C59.3097 49.7396 59.3762 51.87 61.3108 54.2445C67.0113 61.2424 68.7761 69.8085 71.08 78.1453C71.3753 76.5105 71.4566 74.7499 72.0178 73.1595C75.9166 62.0709 70.0462 52.9648 66.3984 43.4666C69.389 43.5184 71.3753 45.3752 72.5716 48.9629C73.3174 51.1968 74.5062 53.2829 75.8427 56.1826C78.5379 50.1316 80.8787 45.131 82.9389 40.0121C83.345 39.0061 82.673 37.5636 82.481 36.3282C82.1118 33.9611 81.0707 31.4756 81.4768 29.249C82.7469 22.2511 84.1646 15.3198 90.8399 10.7853C93.8747 8.72144 95.9201 5.2373 98.571 2.55208C99.5531 1.55344 100.986 0.998638 102.603 0C103.171 3.76524 105.039 3.3214 107.69 2.81098C110.334 2.30057 113.243 2.99591 115.99 3.43236C116.566 3.52112 117.496 4.89703 117.364 5.45922C116.153 10.5486 115.171 15.7563 113.243 20.5719C111.958 23.7676 109.241 26.3936 106.767 29.8112C106.657 28.7904 106.605 28.3317 106.428 26.8005C104.582 30.9282 98.9033 31.3646 100.269 36.8386C100.365 37.2381 99.4866 38.074 98.8959 38.4143C95.6691 40.2488 92.4274 41.8392 88.4252 41.0625C87.229 40.8332 85.0876 41.5729 84.5264 42.5346C80.6572 49.1996 76.6328 55.9163 79.0844 64.2087C79.2542 64.7931 79.4757 65.4663 79.3502 66.0211C78.3386 70.6296 79.173 74.528 83.633 77.0061C86.2617 64.4529 86.6161 50.7752 96.5847 40.8036C97.072 41.0403 97.5594 41.277 98.0541 41.5064C96.0826 44.7094 94.1184 47.9198 92.3019 50.8714C96.4075 49.1848 100.454 46.9064 104.796 45.9152C109.138 44.9239 113.797 45.0497 118.589 48.0086C106.804 50.361 94.9085 51.3078 89.5107 64.5934C95.8167 59.8887 101.879 55.5021 109.566 60.7098C100.388 59.3487 94.3252 65.4959 88.2185 70.3929C85.8777 72.2718 85.7374 77.2946 85.2427 80.9711C84.711 84.9582 84.9104 89.0415 84.8735 93.0879C84.8661 94.1383 85.1836 95.1961 85.3461 96.2539L86.3503 96.3205C87.2733 91.2681 88.0413 86.1788 89.1563 81.1634C90.5814 74.7277 98.032 69.4978 104.39 70.3781C105.084 70.4743 105.977 71.4803 106.191 72.2274C106.701 73.9806 106.62 75.9187 107.203 77.6275C107.905 79.6543 108.547 82.3987 110.105 83.3012C115.931 86.6818 115.503 91.8895 114.883 97.1786C114.307 102.076 115.311 104.753 119.557 107.084C120.76 107.742 122.252 107.875 123.618 108.252C123.743 106.913 123.876 105.582 124.031 103.955C125.095 104.421 126.335 104.961 128.048 105.708C126.631 107.261 125.486 108.326 124.585 109.569C123.98 110.398 123.662 111.463 123.315 112.454C122.983 113.408 122.843 114.437 122.488 115.383C122.281 115.931 121.462 116.404 121.506 116.855C121.971 121.664 117.26 123.121 115.34 126.945C117.718 127.13 120.044 127.315 122.37 127.5C122.451 127.145 122.532 126.79 122.614 126.435C122.178 126.146 121.705 125.902 121.329 125.555C121.004 125.259 120.79 124.845 120.827 124.896C123.485 123.765 126.055 122.67 128.624 121.575C127.125 119.097 132.494 115.753 127.399 113.963C131.632 109.209 132.563 105.937 130.19 104.147C131.039 103.644 131.777 103.207 132.915 102.534C131.925 102.268 131.268 102.09 130.027 101.75C131.726 101.003 132.907 100.478 134.214 99.9082C133.897 98.7394 133.586 97.5928 133.136 95.9506H120.081C119.992 95.7731 119.911 95.603 119.822 95.4254C122.414 94.375 124.999 93.3172 128.602 91.8525C121.949 91.5344 117.378 89.2043 114.491 84.3294C110.194 77.0653 111.124 69.4313 113.539 61.8712C114.166 59.9035 115.865 59.3487 117.556 61.1462C118.309 61.9452 118.995 62.8032 120.088 64.0682C121.336 61.8712 122.488 59.8665 123.625 57.8396C126.069 53.4826 130.995 52.7799 134.258 56.6783C136.68 59.5632 138.526 62.9364 140.816 66.3614C141.377 65.5698 142.071 64.5786 143.26 62.892C143.614 65.0816 143.873 66.6721 144.227 68.869C143.378 68.2403 142.957 67.937 142.255 67.4192V78.3746C143.614 78.7149 145.216 79.1143 147.033 79.573C146.583 81.156 146.199 82.5319 145.807 83.9004C146.043 84.1593 146.28 84.4108 146.516 84.6697C148.192 83.279 149.868 81.8883 151.227 80.7565C151.545 84.7807 147.469 89.4632 139.701 93.7758C141.303 93.6353 142.905 93.4947 143.459 93.4429C142.152 97.8443 140.756 102.564 139.353 107.276C139.575 107.431 139.797 107.587 140.011 107.742C141.606 106.011 143.149 104.236 144.803 102.571C148.761 98.5693 152.534 94.338 156.81 90.7133C164.341 84.3368 165.382 72.6417 162.281 64.1865C161.026 60.769 158.929 57.6695 157.467 54.9029C161.543 54.8807 164.821 60.3695 168.602 74.2321C170.758 67.7077 172.944 61.198 175.033 54.6514C175.225 54.0374 174.96 53.1497 174.635 52.521C171.888 47.1505 173.018 41.9724 175.425 36.9126C176.998 33.6208 178.718 30.3882 180.608 27.2665C181.221 26.2531 182.58 25.6909 183.621 24.8994C188.539 33.0438 188.406 43.0302 183.57 48.7261C184.057 46.1371 184.581 43.6664 181.207 42.3718C176.857 40.7001 178.046 45.3604 175.986 46.2406C176.208 46.4774 176.422 46.7141 176.643 46.9508C177.625 45.8264 178.607 44.702 180.232 42.8379C179.885 45.8782 179.641 47.9494 179.383 50.2056C181.015 49.6138 182.322 49.1404 183.629 48.6596C182.536 50.0799 181.701 51.87 180.306 52.8465C176.976 55.1766 175.115 58.2761 175.078 63.8611C177.441 61.309 179.132 59.2377 181.074 57.4476C183.141 55.5391 185.452 53.8895 188.059 51.8034C186.627 51.4927 185.541 51.2634 184.456 51.0267C184.323 50.7308 184.197 50.4349 184.064 50.139C187.697 48.6892 191.242 46.9138 194.993 45.8856C197.695 45.1458 201.144 45.1458 202.451 48.2009C203.167 49.8875 202.037 52.3656 201.712 54.6662C202.613 54.4147 204.046 54.0152 205.478 53.6158C206.866 56.9742 205.567 59.7851 200.59 64.2087C199.305 62.5369 198.02 60.8652 196.514 58.9049C191.655 62.0709 186.014 64.5416 182.831 70.7924C187.793 70.7924 191.928 70.3559 195.318 66.6868C196.558 65.3479 198.833 64.9707 200.634 64.1496C197.119 71.9833 183.806 76.6362 176.592 75.1938C175.425 74.957 173.675 75.7042 172.759 76.5845C171.002 78.2636 169.776 80.4828 168.1 82.2656C166.084 84.4182 166.136 86.0678 168.772 87.5103C172.264 82.9535 187.439 81.7922 191.559 87.3032C189.226 87.0369 187.025 86.3711 184.95 86.6448C181.746 87.0665 178.585 88.0059 175.477 88.9528C172.331 89.9144 169.281 91.1794 166.173 92.2668C159.158 94.7227 152.807 98.3104 147.306 103.4C150.784 101.846 154.513 100.678 157.681 98.6285C161.646 96.0616 165.855 95.4476 170.278 95.7139C175.713 96.0394 181.524 95.3219 185.696 100.123C186.929 101.543 188.059 103.052 189.233 104.517C188.967 104.864 188.694 105.212 188.428 105.552C185.15 103.836 181.893 102.098 178.593 100.426C177.559 99.9008 176.185 98.9317 175.388 99.2424C170.898 101.01 166.542 103.111 161.299 105.478C168.609 108.496 175.329 110.494 180.357 116.434C175.004 115.931 170.086 116.892 165.737 113.453C164.408 112.402 161.772 112.595 159.807 112.839C155.355 113.379 150.954 114.303 146.368 114.326C147.794 113.993 149.219 113.66 150.939 113.26C146.494 112.188 140.144 115.724 137.397 120.798C145.076 121.56 152.091 123.565 157.068 130.866C154.557 129.986 152.637 129.313 150.836 128.676C152.386 131.295 153.834 133.736 155.739 136.954C157.541 137.435 160.236 142.672 160.42 148.331C158.582 145.557 156.706 143.049 155.178 140.349C153.25 136.939 150.156 135.556 146.619 134.72C145.519 133.396 144.227 132.183 143.363 130.718C141.65 127.826 140.003 124.822 136.26 124.534C135.108 124.445 133.217 125.296 132.774 126.243C131.563 128.832 130.943 131.702 129.99 134.764C127.258 132.501 125.9 135.364 123.736 136.784C120.339 139.018 122.259 140.275 124.15 141.607C125.124 142.287 126.387 142.591 127.554 142.961C130.67 143.944 134.14 143.612 137.013 145.535C137.197 145.653 137.633 145.387 137.965 145.298C137.663 144.115 137.382 143.035 137.101 141.962C137.315 141.821 137.53 141.681 137.744 141.54C140.276 143.826 142.809 146.104 145.977 148.96C145.726 146.4 145.785 145.01 145.408 143.745C145.054 142.561 144.249 141.511 144.035 141.126C145.645 140.046 146.952 139.166 148.259 138.285L148.222 138.263ZM57.6483 133.27C55.0491 129.209 52.8412 133.536 50.4045 133.078C50.3749 133.596 50.3454 134.113 50.3085 134.639L54.3993 135.053C54.2442 136.917 53.8528 138.796 53.9931 140.63C54.1187 142.31 54.8202 143.937 55.2706 145.594C56.7179 148.331 58.9479 149.071 61.3108 146.008C61.0597 145.076 60.7865 144.026 60.5576 143.16C62.4184 141.614 64.1315 140.187 65.9776 138.655C64.7518 133.544 64.3014 132.937 61.8941 133.041V136.162C60.9711 135.741 59.9964 135.401 59.1546 134.861C58.5565 134.476 58.143 133.81 57.6483 133.27ZM78.1096 113.001C78.501 111.663 78.8924 110.324 79.1287 109.525C81.0633 109.325 83.2933 109.584 83.5739 108.963C84.3418 107.269 84.5707 105.182 84.4304 103.296C84.364 102.379 82.4884 101.647 82.3112 100.67C81.5506 96.6238 81.1224 92.5109 80.5464 88.2796C76.4482 90.092 75.6286 93.8202 74.6982 97.5337C73.6866 96.572 72.6749 95.603 71.6338 94.6117C67.5873 98.0145 71.2867 101.765 70.9249 105.286C70.2899 104.961 69.8099 104.716 69.0937 104.347C70.888 111.441 71.7224 112.521 75.7393 113.194C74.0558 114.629 72.6602 114.192 71.368 112.595C70.4597 111.47 69.4555 110.412 68.4955 109.325C70.1126 117.484 74.3364 120.384 82.326 119.23C80.8787 117.085 79.4979 115.043 78.1096 113.001ZM93.2692 138.456C90.7734 137.368 90.4928 139.521 89.9242 140.926C89.6141 141.688 89.8652 142.687 89.8652 143.582L91.0318 143.7C91.7703 141.947 92.5087 140.187 93.2471 138.433C95.1596 139.817 95.5435 141.23 93.9781 143.338C93.1215 144.492 93.0994 146.267 92.7007 147.761C93.2028 147.976 93.7123 148.19 94.2144 148.412C95.9127 145.927 97.6111 143.441 98.9328 141.511C100.114 142.85 101.237 145.209 102.389 145.232C106.442 145.298 103.275 141.548 104.781 139.743C106.191 141.814 107.528 143.789 109.197 146.245C110.002 145.254 110.888 144.159 111.375 143.56C112.313 144.81 113.31 146.149 114.307 147.488C114.639 147.31 114.964 147.14 115.296 146.963C115.399 145.631 115.495 144.3 115.621 142.687C116.529 144.285 117.253 145.55 117.969 146.815C118.272 146.726 118.567 146.644 118.87 146.556C118.7 143.456 114.986 140.201 118.796 137.265C116.743 135.119 114.868 132.715 112.52 130.97C111.789 130.422 109.751 131.643 107.521 132.271C107.617 132.294 106.686 131.931 105.734 131.813C103.821 131.584 101.746 131.902 100.011 131.251C96.0826 129.786 92.3979 127.685 88.4696 126.213C85.826 125.222 83.3671 127.988 84.1203 130.762C85.3239 135.245 87.325 136.236 93.2766 135.23V138.463L93.2692 138.456ZM92.4348 102.934L92.0508 102.031C92.1468 102.002 92.2871 101.913 92.3388 101.942C92.4274 101.994 92.5087 102.142 92.5013 102.238C92.1985 105.205 94.1996 108.245 92.169 111.189C91.7481 111.796 91.7555 112.698 91.5635 113.46C91.8958 113.682 92.2281 113.897 92.553 114.118C93.3726 113.112 94.495 112.225 94.938 111.078C95.6764 109.155 96.2819 107.076 96.4075 105.035C96.5995 101.809 99.0436 100.803 101.244 99.8564C105.335 98.0885 105.195 102.187 106.952 105.19C107.277 100.944 107.521 97.7112 107.764 94.486C107.439 94.412 107.107 94.338 106.782 94.2714C106.199 95.2331 105.615 96.2021 104.921 97.3487C102.846 93.1101 107.329 88.4645 103.555 84.5662C102.551 86.1714 101.65 87.5991 100.255 89.8257C99.2799 88.2722 98.4824 86.9925 97.5299 85.476C96.8062 88.1391 96.2893 90.0476 95.7724 91.9561C95.4623 91.9561 95.1596 91.9487 94.8494 91.9413C94.4655 90.1807 94.0815 88.4202 93.6975 86.667C93.3431 86.6448 92.9812 86.6226 92.6268 86.6004C92.4348 88.1391 91.6152 89.9736 92.1616 91.172C93.727 94.6043 91.1721 95.1887 89.7396 96.032C89.3483 98.8874 89.0086 101.38 88.5655 104.62C89.7618 104.102 91.0983 103.525 92.4422 102.948L92.4348 102.934ZM95.3072 152.984C96.437 156.342 97.3969 159.597 98.6892 162.719C98.9919 163.444 100.565 164.257 101.318 164.073C110.592 161.802 119.822 159.353 129.141 156.934C127.819 153.864 127.184 153.45 122.71 152.377C118.789 151.438 114.794 152.858 112.704 155.936C110.858 158.658 109.152 158.613 107.026 155.802C103.245 150.802 101.768 150.388 95.3072 152.984ZM126.239 64.6156C126.239 66.1246 126.549 67.4192 126.151 68.4326C125.767 69.4165 124.622 70.0896 123.891 70.9625C123.707 71.1918 123.832 71.6726 123.81 72.0425C123.441 77.339 123.448 77.3094 128.846 78.345C129.562 78.4856 130.182 79.1143 130.847 79.5286C133.823 81.3705 137.877 79.6248 139.597 76.5327C142.196 71.8798 138.379 68.7729 137.027 64.5194C136.784 65.1852 136.548 65.8435 135.994 67.3674C135.543 64.5638 135.292 63.003 134.901 60.5175C134.443 62.6331 134.199 63.7575 133.764 65.7326C132.929 63.8315 132.449 62.7219 131.785 61.2128C130.788 62.9068 130.013 64.2161 129.208 65.5772C128.196 65.2518 127.347 64.9707 126.239 64.6082V64.6156ZM31.2058 131.813C31.0729 131.946 30.9399 132.079 30.807 132.22C32.2395 134.631 33.6795 137.035 35.112 139.447C34.2333 140.527 33.7976 141.644 34.1594 142.043C36.1531 144.277 38.0656 146.77 40.5393 148.324C42.7841 149.729 45.7156 150.032 48.3443 150.817C48.3886 148.213 48.8538 145.527 48.396 143.012C47.5025 138.049 46.4687 137.509 41.6617 138.367C42.3927 139.402 43.0868 140.394 43.7809 141.378C43.5151 141.622 43.2493 141.873 42.9834 142.117C39.0551 138.685 35.1267 135.253 31.191 131.813H31.2058ZM47.7388 91.5936C48.2557 90.7577 48.8169 89.3744 49.7842 88.3684C51.7853 86.2971 54.0374 84.4774 56.0828 82.4505C56.489 82.0511 56.7622 81.0006 56.5185 80.5864C56.2379 80.0982 55.0121 79.5508 54.7389 79.7579C52.6935 81.3113 51.4235 79.6839 49.8876 78.8332C46.5204 76.9617 43.4634 74.1285 39.1289 75.0606C38.4053 75.216 37.7259 75.571 37.0245 75.8299C37.5192 76.4365 37.9253 77.1762 38.5382 77.6201C40.7165 79.2105 42.9687 80.6974 45.1913 82.2212C44.9328 82.776 44.667 83.3234 44.4086 83.8782C42.7028 83.316 40.9971 82.7538 38.1542 81.8144C40.9897 84.1667 43.0204 85.8459 45.3168 87.7544C44.3495 87.8062 43.8326 87.8358 44.4159 87.8062C45.302 88.8196 46.6164 90.3287 47.724 91.601L47.7388 91.5936ZM80.5538 126.146C71.2203 123.188 66.1179 116.804 62.9205 108.349C62.0271 113.778 64.9807 117.78 67.4248 121.531C69.9059 125.34 73.0663 129.142 78.0358 130.178C80.0369 128.632 81.9346 127.167 83.9579 125.606C82.577 124.578 81.3587 123.668 79.4092 122.219C79.8966 123.898 80.1255 124.711 80.5464 126.139L80.5538 126.146ZM80.5538 157.437C80.827 157.075 81.1076 156.712 81.3808 156.35C77.9398 152.318 74.4988 148.279 70.9323 144.092C69.8764 145.831 68.8352 147.332 68.0229 148.952C67.3953 150.203 66.2729 152.148 66.7455 152.821C68.0968 154.752 69.7065 156.949 72.8522 155.936C73.7899 155.632 74.9936 156.002 76.0347 156.224C77.5558 156.549 79.0474 157.023 80.5464 157.43L80.5538 157.437ZM182.949 63.506C188.62 61.3238 194.505 59.6298 197.843 53.5418H195.14L194.646 52.8021C195.517 52.484 196.396 52.1659 197.267 51.8552L196.411 50.6421C194.188 51.5741 192.002 52.6467 189.721 53.416C183.466 55.5243 182.573 56.7596 182.942 63.5134L182.949 63.506ZM48.3591 31.3646C47.8643 31.6605 47.377 31.9638 46.8822 32.2597C47.1481 35.9362 47.3696 39.62 47.7536 43.2817C47.7905 43.6516 48.8538 44.199 49.415 44.1694C50.9878 44.0732 52.5532 43.7182 54.0227 43.4814C54.894 42.1499 56.2231 40.848 56.6219 39.302C56.9763 37.9409 56.5259 36.2247 56.009 34.8266C55.4847 33.4211 54.4362 32.2079 53.6166 30.9134L53.0554 31.3203C53.9193 33.1918 54.7906 35.0633 55.6546 36.9348C55.4109 37.0902 55.1598 37.2455 54.9161 37.4008C52.7305 35.3888 50.5521 33.3693 48.3664 31.3572L48.3591 31.3646ZM97.2345 19.7139C96.5773 19.5511 95.9275 19.3884 95.2703 19.2256C93.3578 22.7542 91.4454 26.2827 89.2449 30.3512C90.478 30.0997 91.0835 29.9739 91.0761 29.9739C91.6373 31.5866 91.7333 33.7096 92.745 34.3236C94.111 35.1521 96.1859 34.8266 97.2345 34.9227V19.7065V19.7139ZM85.479 158.007C85.2796 156.446 85.0286 154.885 84.903 153.317C84.7627 151.615 84.5634 149.884 84.6963 148.191C85.191 141.962 84.9695 141.481 79.1139 138.433C79.3502 145.52 80.3692 152.296 85.479 158.007ZM61.2296 34.834C64.3531 34.8784 65.5567 32.4816 64.0577 31.2093C61.5988 29.1306 63.2307 27.1704 63.0239 25.2101C62.9205 24.2484 63.2528 23.235 63.3931 22.2511C62.9648 22.1994 62.5366 22.155 62.1083 22.1032C58.0175 30.0109 62.3667 38.8285 59.6272 46.8842C63.718 43.7551 64.257 39.0431 61.2296 34.8266V34.834ZM93.4021 154.138C89.1046 156.705 88.8757 160.263 89.5846 163.747C89.8208 164.923 92.0287 166.617 93.1363 166.477C94.4728 166.307 96.7619 164.22 96.5995 163.348C96.0235 160.241 94.5762 157.297 93.4095 154.145L93.4021 154.138ZM70.8511 135.756C71.0209 142.258 74.2404 146.822 79.2911 150.972C78.4715 147.177 77.5263 143.893 77.1054 140.542C76.6402 136.865 75.252 134.801 70.8511 135.748V135.756ZM108.178 18.9667C107.58 18.8558 106.856 18.73 105.837 18.5451C106.487 17.539 106.93 16.8215 107.402 16.1262C107.816 15.5122 108.266 14.9278 108.931 14.0031C102.95 15.2607 100.535 18.2344 100.602 24.1449C100.609 25.1361 101.68 26.1125 102.256 27.089C104.56 23.9303 106.346 21.4892 108.185 18.9667H108.178ZM72.4977 83.5453C72.8817 83.5971 73.2583 83.6415 73.6423 83.6859C77.0389 78.345 79.7637 72.9376 75.732 66.8718C75.3185 66.8274 74.8976 66.7756 74.484 66.7312C73.8195 72.3384 73.1623 77.9382 72.4977 83.5453ZM82.0528 166.233C79.5274 164.805 77.4303 163.614 75.3406 162.43C75.0231 162.6 74.7056 162.763 74.3954 162.933C75.54 166.98 76.6845 171.026 77.8364 175.072C78.1613 175.058 78.4789 175.035 78.8038 175.021C79.8892 172.091 80.9747 169.162 82.0601 166.233H82.0528ZM59.5977 119.777C58.6451 116.323 57.7443 113.038 56.9099 109.998C54.1482 111.041 51.933 111.87 49.9762 112.609C53.0406 114.888 56.2158 117.255 59.5977 119.777ZM83.249 170.841C82.9389 170.826 82.6287 170.819 82.3186 170.804C81.6836 172.861 81.2774 175.035 80.347 176.951C78.8997 179.94 78.9219 180.635 82.3703 183.52C82.6804 179 82.961 174.917 83.2416 170.841H83.249ZM100.011 12.0946C94.5762 16.6267 92.1493 19.3711 92.7302 20.3278C99.9371 15.0535 100.107 14.876 100.011 12.0946ZM89.0234 187.766C84.6003 189.823 84.7849 191.731 89.7987 195.733C89.5181 192.863 89.2818 190.392 89.0234 187.766ZM184.677 41.2475C185.327 41.1661 185.969 41.0773 186.619 40.9959C186.102 37.3269 185.585 33.6578 185.068 29.9813C184.589 30.0479 184.109 30.1071 183.629 30.1737C183.983 33.8649 184.33 37.5562 184.685 41.2475H184.677ZM84.9621 170.331C84.6077 175.309 84.2975 179.71 83.9652 184.437C87.6351 179.888 86.1879 175.39 84.9621 170.331ZM83.4484 190.363C81.6688 195.334 83.4336 197.516 87.4949 199.128C86.1214 196.155 84.9769 193.677 83.4484 190.363ZM172.05 68.7063C170.588 72.4346 169.503 75.2012 168.417 77.9678C168.764 78.0935 169.111 78.2193 169.458 78.345C170.308 75.4453 174.044 73.6477 172.043 68.7063H172.05ZM37.7038 209.433C40.2735 207.843 42.0456 206.74 43.8104 205.645C43.5815 205.283 43.3526 204.913 43.1237 204.551C41.0636 205.283 37.9622 204.358 37.7038 209.433ZM87.6721 174.481C88.1151 174.444 88.5508 174.399 88.9938 174.362C88.7649 171.98 88.536 169.598 88.3071 167.216C87.8936 167.253 87.4801 167.29 87.0666 167.327C87.2659 169.709 87.4727 172.099 87.6721 174.481ZM136.459 199.225C142.049 200.46 147.055 202.872 150.415 207.524C153.671 212.029 157.769 215.321 162.488 217.947C163.455 218.487 164.821 218.31 166.461 218.524C164.747 212.976 162.835 208.641 158.272 206.126C151.737 202.524 145.209 198.907 138.63 195.385C136.06 194.01 134.325 195.755 132.663 197.405V197.397C133.926 198.026 135.13 198.929 136.466 199.225H136.459ZM90.2713 203.626C92.9 211.978 95.5288 220.322 98.1649 228.673C98.5267 228.577 98.8885 228.481 99.243 228.385C99.1544 219.36 93.6237 211.837 92.0139 203.241L90.2713 203.633V203.626ZM176.267 117.24C179.449 121.065 182.846 125.14 186.117 129.068C187.557 122.041 184.648 118.564 176.267 117.24ZM148.753 58.4462C147.018 57.7657 145.445 57.1517 142.817 56.1235C143.274 58.9344 143.577 60.7912 143.932 62.9808C145.741 61.2794 147.062 60.0366 148.753 58.4462ZM151.7 72.5011C152.15 72.4641 152.601 72.4272 153.044 72.3976C154.653 69.8159 152.15 67.5745 151.7 64.8449V72.5011Z" fill="#FFCDFE"/>
</svg>
