<svg width="879" height="646" viewBox="0 0 879 646" fill="none" xmlns="http://www.w3.org/2000/svg">
<mask id="mask0_59_169559" style="mask-type:luminance" maskUnits="userSpaceOnUse" x="0" y="0" width="923" height="646">
<path d="M153.334 99.48C156.222 113.294 152.052 113.566 140.351 105.8C133.317 101.128 122.128 105.207 123.751 111.157C125.933 119.118 118.409 119.335 115.381 123.008C113.587 125.18 110.435 125.899 108.268 124.126C106.001 122.261 108.338 120.285 110.194 119.16C113.89 116.911 113.292 113.58 110.45 112.554C98.3143 108.154 105.776 105.423 111.11 102.336C112.904 101.303 113.921 99.8781 113.253 98.0483C109.596 88.0965 116.903 86.4274 125.203 85.1284C127.307 89.0184 120.521 90.0869 123.153 94.2771C126.67 93.7812 131.36 94.2492 134.148 92.4614C138.084 89.9472 129.66 87.3842 132.284 84.0529C137.059 82.2371 142.634 85.6173 147.409 81.2874C135.188 76.4058 123.068 82.4886 111.273 80.0094C115.839 78.019 120.552 77.1879 125.211 76.1752C127.416 75.6934 130.63 75.0718 130.04 72.6904C129.178 69.1915 125.482 70.4836 123.386 71.4403C116.988 74.3665 107.772 73.4586 107.779 68.9611C107.795 62.2497 102.569 63.8699 98.9122 61.7888C106.436 58.9952 113.09 56.0551 119.744 54.1206C128.122 51.6833 138.201 49.0295 145.049 58.4924C147.898 62.4313 153.303 61.4745 156.486 59.2466C162.069 55.3358 165.26 57.9128 169.616 60.7971C183.584 70.0366 199.719 71.6079 215.807 67.5504C224.457 65.3714 231.903 63.3112 239.76 68.3185C238.922 70.0016 237.33 70.7489 235.428 71.4194C232.376 72.5018 227.345 70.8746 226.444 74.7017C225.357 79.3319 231.344 77.8863 233.712 79.7161C237.33 82.5095 238.409 85.8128 237.245 89.8075C235.878 94.5076 231.841 91.7629 228.875 92.3356C225.986 92.8943 222.547 91.3789 220.132 93.7184C220.807 98.7957 233.153 98.3835 228.913 102.141C223.564 106.89 224.829 115.089 216.172 117.756C213.33 114.265 211.459 107.763 204.773 110.305C198.904 112.54 202.871 117.833 203.197 121.842C189.718 121.402 188.662 115.829 190.572 103.957C191.349 99.1168 190.712 96.0999 188.126 92.5591C180.455 98.3696 187.544 106.471 182.947 114.348C180.346 108.342 178.328 103.789 171.852 103.251C166.65 102.818 161.354 100.542 156.672 104.892C155.29 99.899 159.157 95.8694 155.383 91.2183C152.239 94.0466 152.829 97.2452 153.295 99.4869L153.334 99.48ZM888.431 281.204C888.299 287.866 884.029 289.005 880.007 290.024C873.127 291.77 874.455 297.287 874.548 300.947C874.657 305.137 878.935 305.919 883.26 303.531C885.1 302.511 886.49 302.804 887.857 304.802C892.282 311.276 899.861 310.822 905.001 307.532C906.887 306.324 912.633 296.498 901.134 294.026C899.573 293.691 898.898 291.812 900.14 290.695C901.041 289.885 902.935 289.291 904.193 289.5C908.316 290.192 910.723 292.867 912.835 295.856C914.427 298.111 916.997 299.522 919.645 297.602C922.572 295.479 919.404 294.27 917.89 292.992C914.466 290.108 914.07 285.708 917.113 283.941C923.892 280.01 922.471 274.653 922.269 269.422C922.083 264.638 918.387 266.636 915.824 267.509C912.144 268.766 908.549 269.178 907.074 265.365C905.568 261.475 909.729 261.426 912.509 260.413C914.178 259.806 915.397 258.318 916.919 257.34C925.139 252.075 925.025 246.753 916.578 241.376C915.987 240.998 915.56 240.398 915.157 239.839C906.227 227.569 904.667 227.548 892.228 238.345C888.027 241.983 884.658 246.704 878.019 247.696C874.401 248.241 874.393 250.692 874.742 253.213C875.371 257.787 874.424 263.102 870.899 265.469C861.589 271.734 868.531 276.671 871.916 281.378C876.078 287.175 882.119 283.753 888.439 281.197L888.431 281.204ZM835.446 208.44C831.937 213.245 826.696 217.777 830.353 225.306C831.393 227.45 828.769 230.9 827.891 233.763C827.449 235.209 826.47 236.389 824.762 236.068C822.518 235.649 821.385 233.91 822.681 232.248C826.051 227.918 824.576 224.279 820.336 221.688C815.973 219.021 813.667 223.588 810.344 224.74C803.682 227.059 806.298 232.22 806.12 236.124C805.933 240.188 810.856 239.63 813.131 238.826C819.886 236.431 823.807 241.788 829.304 242.681C832.566 243.205 832.962 246.138 832.069 248.513C831.533 249.945 830.05 251.795 828.575 252.144C823.908 253.262 825.888 249.623 824.778 247.947C822.837 245.014 818.636 242.039 815.274 243.485C809.21 246.097 807.657 252.459 808.402 257.445C809.357 263.786 809.598 272.656 823.365 267.509C829.351 265.267 837.512 263.898 844.888 267.013C846.837 267.837 849.873 267.9 850.898 265.476C851.651 263.682 851.915 261.628 849.849 259.847C847.132 257.508 844.5 253.555 842.147 252.654C828.683 247.528 840.105 242.584 841.634 237.779C842.395 235.397 845.012 235.202 847.404 236.243C850.269 237.493 850.183 239.825 848.296 241.236C842.729 245.391 848.335 247.696 850.199 250.398C851.744 252.64 855.642 252.054 855.913 250.398C856.527 246.753 860.494 242.395 856.729 239.462C854.027 237.36 852.94 237.011 855.851 234.692C862.335 229.524 856.83 222.883 853.623 221.737C845.501 218.846 843.537 211.017 835.446 208.433V208.44ZM266.96 163.353C263.434 166.44 260.95 170.63 257.743 171.077C243.581 173.075 247.339 179.926 250.778 187.328C251.772 189.458 252.331 192.189 251.726 194.34C249.986 200.507 253.667 201.889 259.529 202.581C263.792 203.084 269.576 204.976 271.541 201.966C273.932 198.293 269.724 194.612 265.29 192.259C274.623 183.341 279.088 193.048 286.293 195.171C282.791 191.393 288.366 184.186 277.783 182.691C272.527 181.951 269.436 177.81 274.056 172.9C274.949 171.95 277.294 170.791 277.147 170.532C271.89 161.544 267.293 152.095 260.577 143.987C257.386 140.132 238.332 145.545 236.352 149.826C233.518 155.937 239.923 167.145 247.455 169.96C250.825 171.217 252.448 168.975 254.839 168.221C258.644 167.013 260.725 162.864 266.96 163.353ZM515.859 5.63953C522.536 10.2418 527.288 13.1052 526.263 19.1042C531.062 17.4909 529.641 13.6359 532.056 12.0436C535.146 10.0044 538.787 8.69843 542.708 10.0673C546.078 11.2405 547.538 13.5242 545.814 16.618C539.385 28.1831 551.746 32.2126 558.47 37.0873C560.932 38.8751 562.166 38.8961 561.312 41.5848C560.544 43.9943 560.155 46.5013 563.983 47.2137C565.785 47.549 567.718 47.3604 569.589 47.4093C569.566 45.1256 569.876 42.793 569.465 40.5582C568.347 34.4824 562.128 32.5059 553.688 29.035C560.412 28.8535 563.649 28.7628 566.872 28.6719C567.47 24.8728 563.447 25.1172 561.895 23.4131C559.814 21.1295 559.006 13.7267 560.901 10.8843C561.964 9.28503 562.865 6.52649 561.988 5.25543C560.233 2.72034 558.222 4.01929 557.244 6.36584C556.848 7.32263 555.59 8.68445 555.163 7.86737C551.948 1.74963 543.912 6.00964 541.132 3.56537C531.442 -4.96179 525.673 4.31268 515.867 5.63263L515.859 5.63953ZM300.549 155.399C304.051 152.116 308.445 149.414 310.418 145.726C312.258 142.29 313.57 140.495 317.895 141.843C319.712 142.409 322.538 143.596 321.265 145.119C319.09 147.724 320.286 152.493 314.261 152.975C311.916 153.164 308.919 150.776 306.916 153.702C321.21 158.988 328.167 156.837 334.596 145.175C339.395 136.48 342.361 136.11 348.953 143.478C350.482 145.189 352.82 147.423 353.976 144.532C355.886 139.727 352.408 134.929 350.498 130.544C349.411 128.043 345.272 127.876 340.878 129.51C327.088 134.643 314.253 142.409 298.165 142.172C295.944 142.137 292.171 145.168 291.775 147.193C291.076 150.755 294.733 149.463 297.427 149.63C301.729 149.903 295.999 154.065 300.564 155.406L300.549 155.399ZM331.413 111.499C323.47 120.885 337.019 116.849 339.596 118.958C344.574 123.029 351.919 117.617 358.651 117.763C361.671 117.826 362.036 112.295 361.601 108.817C360.755 102.071 338.75 90.5408 331.708 93.0969C329.231 93.9978 329.565 95.3038 330.326 97.0986C332.244 101.589 331.653 106.268 331.413 111.499ZM259.777 232.101C258.947 236.55 249.986 237.967 256.578 242.877C262.045 246.942 266.952 253.36 274.98 251.725C280.516 250.594 280.788 244.525 279.243 240.475C275.089 229.608 257.642 221.179 243.014 222.617C247.416 227.485 250.514 233.135 259.777 232.101ZM647.599 137.011C653.027 143.694 662.732 145.37 657.46 154.267C656.264 156.293 663.431 159.338 667.127 159.603C673.129 160.036 667.399 156.223 668.494 154.861C670.932 151.809 674.022 149.309 677.865 147.465C687.905 142.646 688.247 139.113 680.932 131.745C677.749 128.539 668.835 122.568 683.518 122.568C685.824 122.568 687.54 121.29 686.383 119.356C684.652 116.451 683.464 112.854 678.875 112.121C676.468 111.737 674.224 111.492 673.75 114.502C672.865 120.166 671.825 125.627 675.676 131.088C677.827 134.14 679.907 138.456 676.817 141.606C673.649 144.839 669.091 143.226 664.914 141.801C660.092 140.16 655.045 139.043 647.599 137.018V137.011ZM571.064 71.1749C582.098 76.734 588.177 74.611 590.949 61.6701C594.063 72.2155 601.121 75.7493 605.694 81.1058C609.91 86.0433 616.238 86.7766 623.063 86.1271C623.374 82.5583 622.831 78.3821 618.172 78.3333C606.975 78.2145 605.166 70.4905 601.928 64.2122C598.628 57.829 592.743 55.9713 586.749 60.9368C582.323 64.6032 578.619 68.8983 571.072 71.1749H571.064ZM232.858 520.641C233.673 520.027 234.364 519.447 234.97 518.909C234.085 519.209 233.339 519.74 232.858 520.641ZM909.038 459.771C915.242 459.973 916.352 464.178 919.505 467.488C915.25 468.682 913.48 463.877 911.647 465.204C900.101 473.536 901.872 461.084 897.283 458.619C893.121 456.377 894.425 451.516 890.962 448.911C887.857 451.537 889.2 453.807 890.489 455.762C892.026 458.095 893.02 459.945 889.487 461.531C886.117 463.039 884.58 461.999 883.555 459.059C880.713 450.867 873.166 454.708 869.206 456.412C863.701 458.779 869.602 462.76 870.511 466.028C871.046 467.963 875.791 468.529 872.972 471.93C857.723 466.357 842.155 462.383 825.445 465.637C834.025 473.515 849.663 472.111 854.601 485.415C858.119 479.011 851.449 476.916 852.792 472.377C859.671 473.864 862.676 477.042 862.133 483.006C861.488 490.129 862.071 494.864 872.46 488.865C875.48 487.119 882.654 483.984 886.832 489.48C890.341 494.096 887.072 496.547 882.507 499.082C878.997 501.031 883.477 510.152 887.445 511.939C892.694 514.3 898.727 510.382 903.129 513.923C904.605 515.11 909.667 514.635 907.315 518.448C906.328 520.048 906.235 522.729 902.842 522.254C893.742 520.983 886.638 527.681 877.693 525.991C877.569 532.06 884.766 528.086 885.892 531.724C880.271 535.363 880.038 544.924 869.369 542.717C869.051 542.654 867.995 544.847 867.498 546.055C863.919 554.687 854.593 552.941 847.621 553.018C842.908 553.067 845.245 554.261 843.917 555.776C837.022 563.675 845.074 567.251 849.112 572.37C841.557 576.588 833.761 578.683 824.017 578.781C831.292 585.653 828.544 594.592 823.388 594.257C816.47 593.81 807.098 596.834 800.956 590.052C798.961 587.853 795.42 584.954 791.949 587.385C788.983 589.459 793.821 591.344 793.883 593.349C794.015 597.476 793.285 601.625 792.912 605.766C790.032 601.289 792.431 595.556 786.18 592.56C784.037 591.533 782.585 588.202 779.534 590.911C777.251 592.937 777.5 595.172 780.303 596.98C783.082 598.775 784.682 600.842 781.304 604.921C774.549 596.729 765.457 598.51 757.195 601.492C749.765 604.174 743.755 604.607 737.854 597.246C736.542 603.545 737.543 612.659 728.125 605.675C721.385 600.675 720.454 603.817 717.433 607.847C716.067 609.677 716.789 614.482 711.897 612.861C703.263 610.005 694.241 614.998 685.055 610.459C681.08 608.497 675.109 610.906 678.036 603.838C678.789 602.03 678.207 600.437 675.916 599.767C673.968 599.194 671.281 599.145 671.009 601.045C669.433 611.8 654.82 613.972 651.761 623.714C650.79 626.801 647.964 630.139 644.369 627.681C641.186 625.502 644.594 622.925 647.39 621.493C649.222 620.55 650.985 619.217 649.564 617.554C647.716 615.403 645.464 616.486 643.973 618.316C643.111 619.377 642.979 620.99 640.138 620.732C640.254 615.229 635.836 612.945 630.758 610.675C627.994 617.038 637.606 620.418 633.483 626.675C630.199 631.669 625.284 634.567 620.47 637.961C613.901 642.591 613.156 635.37 609.483 634.225C603.854 632.465 606.44 630.796 609.569 629.008C610.982 628.205 611.471 626.787 609.98 625.642C608.047 624.154 606.207 624.322 603.675 625.327C597.293 627.848 602.355 633.324 599.747 636.934C591.283 628.735 584.451 627.52 573.712 631.515C569.768 632.982 569.799 638.736 564.356 638.052C548.283 636.012 531.566 638.624 515.09 631.529C514.585 637.081 514.189 641.481 513.793 645.887C513.11 639.393 506.526 637.025 502.946 633.17C500.19 630.209 495.353 629.525 492.713 632.695C483.985 643.157 482.836 635.405 480.81 629.413C476.477 628.505 476.198 640.559 469.062 631.983C468.503 631.312 462.509 631.703 462.695 634.553C462.951 638.429 462.113 638.569 458.487 637.339C453.665 635.698 456.204 634.169 458.168 632.332C463.122 627.716 457.85 623.679 455.552 620.99C453.23 618.274 448.626 619.922 446.498 623.749C445.504 625.537 443.99 625.446 441.917 623.896C433.633 617.694 426.489 618.951 421.039 627.045C418.228 631.215 415.704 626.982 413.064 626.913C410.277 626.843 408.817 624.727 408.848 622.708C408.895 619.733 412.428 620.963 414.291 620.104C415.984 619.321 417.607 618.434 419.26 617.589C421.699 616.332 426.528 618.274 426.621 614.314C426.668 612.338 424.68 609.789 422.754 608.413C419.54 606.115 416.139 608.971 414.664 610.459C408.91 616.262 406.635 613.28 404.632 608.14C403.887 606.227 403.405 603.685 400.804 603.503C397.543 603.28 396.27 605.717 395.804 608.189C395.462 609.963 394.833 611.451 392.481 612.589C389.98 610.543 388.233 608.091 384.134 606.604C375.833 603.587 368.372 597.958 365.235 589.55C362.812 583.055 358.526 578.082 349.721 578.096C345.862 578.096 343.417 575.624 340.249 574.549C336.995 573.438 331.91 576.406 330.271 571.657C328.734 567.188 337.547 571.266 336.343 566.601C336.087 565.616 335.862 564.506 335.194 563.745C331.521 559.541 335.839 557.068 338.673 553.597C334.433 553.639 331.118 553.667 327.639 553.702C328.377 551.565 329.13 549.68 329.674 547.759C333.967 532.716 330.194 526.933 312.165 524.301C306.753 523.511 307.91 518.895 304.113 517.464C300.984 523.365 298.118 528.77 295.393 533.917C289.174 533.275 287.31 525.572 279.546 528.882C267.185 534.162 258.178 529.413 255.414 517.512C254.676 514.335 251.097 512.191 247.37 511.046C246.321 510.724 244.419 510.976 244.838 512.128C248.488 522.199 239.652 517.338 234.954 518.93C244.442 510.382 228.572 510.997 227.982 505.898C234.651 504.257 244.8 505.843 243.332 495.556C235.389 493.754 224.193 500.263 219.743 491.295C216.529 484.808 226.6 482.035 231.119 477.307C229.317 484.884 230.637 490.45 242.035 492.944C228.712 481.763 245.429 484.472 247.447 480.485C240.11 474.723 232.881 469.576 222.135 472.132C218.812 472.921 215.954 471.182 214.735 468.438C213.711 466.119 214.184 463.717 216.925 462.173C224.457 457.927 231.833 459.275 239.085 462.844C239.559 463.074 239.823 463.933 239.861 464.513C240.094 468.228 240.49 468.836 242.734 467.642C246.516 465.63 252.044 466.112 254.389 461.908C250.895 457.976 241.205 460.651 241.911 453.108C242.424 447.668 246.849 445.329 253.046 444.875C257.432 444.553 254.598 442.144 254.117 440.51C253.379 437.982 252.347 436.739 249.792 439.434C246.601 442.8 241.469 442.542 238.34 441.075C234.325 439.197 237.664 436.375 239.396 433.701C241.15 430.998 239.411 428.128 237.012 425.411C229.853 417.296 223.703 426.724 216.878 425.893C210.939 425.167 206.746 428.938 203.951 433.198C197.506 443.038 182.722 444.826 172.489 436.864C171.184 435.845 170.734 434.713 171.091 433.282C178.366 435.3 183.142 426.046 187.653 428.274C197.591 433.184 197.281 424.971 201.528 422.387C206.645 419.272 213.081 418.783 219.122 417.659C219.27 417.631 219.425 417.009 219.332 416.723C216.312 407.351 223.416 410.766 227.555 412.24C231.763 413.741 234.465 411.946 237.097 410.221C240.63 407.896 244.116 405.675 248.705 406.604C254.862 407.847 254.622 403.775 255.522 400.744C256.726 396.715 253.869 395.569 249.994 394.543C247.121 393.782 243.27 393.879 242.012 391.763C243.713 385.653 249.87 393.761 251.632 387.482C249.016 385.38 242.812 387.615 242.028 383.788C239.551 371.734 232.206 381.476 227.252 381.085C226.048 380.994 224.037 386.134 223.447 383.083C222.321 377.258 208.819 378.515 214.316 371.496C218.781 365.805 212.732 366.755 211.288 366.831C207.445 367.034 203.671 368.298 199.874 369.143C209.37 369.779 210.737 377 214.782 381.511C215.287 382.07 214.953 383.669 214.355 384.354C213.827 384.961 212.39 384.954 211.35 385.227C208.842 375.519 195.409 379.437 190.432 371.587C189.92 377.53 200.627 381.791 191.884 387.231C185.448 377.516 184.042 377.44 176.868 386.079C174.158 389.347 170.711 390.276 166.991 387.182C164.577 385.178 162.449 382.915 159.832 380.429C168.505 375.729 178.351 375.17 189.19 371.036C182.171 369.318 177.349 367.111 172.722 369.304C165.322 372.795 159.732 369.269 155.158 365.7C151.742 363.025 150.282 359.275 144.226 360.909C142.852 361.279 140.111 357.836 137.991 356.146C152.891 353.213 140.328 344.372 144.606 338.086C139.784 339.378 136.787 340.112 133.852 340.992C131.011 341.844 128.239 343.757 125.366 341.026C133.62 331.92 133.278 327.282 123.2 320.11C117.469 316.032 123.867 314.761 126.119 312.952C121.654 310.466 115.59 315.215 115.986 313.064C117.345 305.71 99.5256 308.741 107.104 299.473C96.5906 294.319 102.026 283.948 97.0953 277.111C92.2347 283.04 74.3918 285.988 68.7159 280.477C65.2142 277.069 64.4766 277.698 60.9437 279.625C57.8611 281.309 53.5984 281.672 49.7783 281.965C42.3399 282.538 34.3813 283.138 37.7123 272.593C32.8129 272.809 29.8701 276.085 25.1182 275.721C18.3553 275.205 14.9933 272.041 17.3926 266.475C18.5029 263.898 16.7792 263.297 14.8613 263.207C9.69794 262.969 5.81561 258.625 0 260.176C3.49408 257.215 7.39191 255.106 11.4915 257.152C14.3799 258.597 16.2511 261.775 20.2498 261.384C30.8173 260.35 40.8646 262.557 50.3607 266.056C60.5089 269.799 65.6412 259.17 74.6636 260.651C71.022 251.285 81.9234 255.21 85.8135 252.501C82.6611 249.442 80.1066 246.956 76.729 243.68C83.5695 242.535 85.4175 236.899 90.5731 234.287C92.1493 241.152 95.426 244.078 102.344 239.273C104.774 237.583 109.317 237.025 108.47 239.259C104.751 249.12 115.808 243.471 118.044 246.858C115.031 249.309 110.303 244.728 107.414 249.358C111.638 253.276 114.309 260.574 122.547 252.647C124.776 250.503 127.672 253.08 130.203 253.066C142.898 253.003 156.641 254.861 162.597 240.977C163.56 238.722 166.223 238.359 168.412 239.637C170.307 240.74 169.103 242.556 169.173 244.022C169.6 253.066 162.954 255.357 153 256.446C163.684 263.626 174.911 259.875 186.325 262.131C181.263 265.455 178.638 268.528 173.972 268.067C175.548 270.917 176.511 273.885 181.255 274.765C185.269 275.505 185.75 278.145 183.716 281.811C181.34 286.092 176.72 285.087 173.001 285.638C174.624 290.443 179.221 289.179 181.923 290.82C199.338 301.415 218.09 307.225 239.52 303.321C242.346 302.804 246.314 302.804 246.842 299.368C247.346 296.093 243.65 293.747 241.321 293.523C231.538 292.566 232.679 286.106 230.272 280.212C237.788 280.778 237.936 292.65 248.068 286.393C254.839 282.209 243.48 280.589 249.117 276.615C259.731 285.939 277.131 266.643 287.015 284.479C287.737 281.071 288.281 278.508 289.213 274.094C290.307 279.549 296.628 277.153 296.806 280.526C297.443 293.153 300.611 294.99 312.848 288.991C315.2 287.838 317.491 285.352 319.044 289.382C319.991 291.84 320.799 294.312 324.394 293.153C328.051 291.973 331.622 290.108 331.638 286.071C331.677 274.457 339.503 276.196 348.106 278.173C347.066 281.602 344.519 282.251 341.662 282.433C335.567 282.824 334.519 286.63 333.843 290.883C333.564 292.636 332.787 294.277 335.637 294.822C340.505 295.751 342.982 293.328 346.049 290.408C348.572 288.013 351.701 282.726 357.37 289.647C361.011 294.096 368.566 293.376 375.414 288.942C369.529 286.798 364.66 285.513 360.46 283.271C358.503 282.23 357.781 279.36 356.725 277.237C356.64 277.062 358.231 275.812 359.023 275.833C360.848 275.882 363.185 279.151 364.264 275.491C364.948 273.193 361.609 272.712 360.336 271.385C354.388 265.19 347.656 273.424 340.691 270.337C347.555 267.013 350.614 264.254 341.926 260.727C338.999 259.54 336.281 256.663 338.354 253.08C338.944 252.054 341.584 250.629 341.677 251.488C342.268 256.838 349.76 254.596 351.422 258.94C355.203 268.78 363.131 268.78 372.44 265.085C377.084 263.249 381.843 260.155 386.75 265.316C387.869 266.496 391.231 265.77 390.64 263.507C387.737 252.347 398.49 253.751 405.044 251.265C399.205 253.562 396.363 257.459 403.188 260.476C411.69 264.24 406.037 266.622 403.017 268.815C398.133 272.369 397.023 275.016 404.337 276.434C410.929 277.712 406.294 279.618 405.789 282.056C405.44 283.725 409.578 284.751 412.467 284.71C416.985 284.64 420.798 283.83 422.972 279.786C426.536 273.145 419.983 259.149 411.9 256.586C421.132 248.338 433.283 247.291 445.458 246.788C449.169 246.634 451.374 242.067 455.637 244.63C456.724 240.922 452.392 240.489 450.753 238.428C448.44 235.516 447.655 231.815 448.82 228.735C452.151 219.935 457.089 212.204 468.837 209.767C472.991 208.908 479.335 209.502 479.824 204.068C480.453 197.064 485.181 198.949 489.436 200.185C490.966 200.625 492.79 203.545 493.978 201.834C499.942 193.258 499.258 201.61 499.864 203.705C500.609 206.303 502.744 207.77 504.538 209.376C506.339 210.989 509.189 213.036 511.254 212.798C514.648 212.414 513.374 208.957 513.716 206.785C514.764 200.185 514.019 192.999 516.791 187.049C516.371 185.527 519.485 184.109 521.255 183.816C523.025 183.522 524.959 183.711 526.512 182.936C529.882 181.246 528.857 176.713 526.636 173.913C525.184 172.083 523.313 169.932 524.291 167.886C524.741 166.95 525.704 166.3 526.628 165.693C531.031 162.802 535.658 159.819 541.101 158.988C546.544 158.157 553.02 160.231 554.844 164.785C555.466 166.335 555.574 168.151 556.925 169.303C558.843 170.945 562.329 170.148 563.89 168.256C565.451 166.363 565.536 163.849 565.28 161.53C572.206 162.732 579.761 160.455 584.334 155.797C585.864 160.42 587.316 165.644 584.559 169.792C583.829 170.882 582.835 171.845 582.284 173.012C581.725 174.178 582.37 176.392 583.464 177.23C582.649 179.814 582.804 182.614 582.331 185.289C581.966 187.328 582.657 188.495 585.087 188.872C587.898 189.305 587.82 187.726 588.426 185.994C591.384 177.635 594.676 169.366 597.813 161.056C599.063 157.731 600.733 153.576 605.166 154.414C610.004 155.329 608.885 159.819 609.413 163.5C610.446 170.658 604.297 177.928 611.479 185.219C615.524 189.326 623.855 192.992 619.336 200.961C618.544 202.357 620.229 203.922 622.403 204.669C626.371 206.031 654.96 200.206 655.341 197.022C656.668 185.918 665.675 194.068 670.38 191.938C675.621 189.563 679.387 183.599 687.059 187.154C688.448 187.796 690.956 186.372 691.29 189.123C692.09 195.681 699.707 196.135 702.712 199.787C706.066 198.279 700.584 195.576 706.664 194.214C704.016 202.616 713.536 203.58 717.775 207.868C715.725 210.312 710.437 208.245 711.105 211.597C712.332 217.75 718.249 220.955 723.994 223.937C726.425 219.789 736.79 221.255 733.902 213.357C731.712 207.358 737.846 207.127 741.146 206.834C744.547 206.534 747.459 209.139 746.636 213.042C745.999 216.045 745.564 219.083 744.827 222.065C744.368 223.923 739.756 225.467 744.314 227.597C745.619 228.204 747.56 228.854 748.701 228.435C751.799 227.296 751.9 224.649 750.953 222.317C749.446 218.588 750.759 215.822 753.996 213.273C755.215 215.962 754.812 219.901 759.75 219.684C760.783 219.635 762.747 217.421 762.522 217.079C759.354 212.274 770.721 212.603 767.018 207.05C766.288 205.954 771.808 206.548 772.041 207.937C772.996 213.601 775.916 212.763 780.97 211.785C785.155 210.975 789.822 213.084 792.78 217.582C784.061 217.428 778.385 227.192 768.438 221.884C767.367 221.311 766.086 222.519 766.513 223.532C770.512 232.946 761.978 236.054 755.565 240.097C752.785 241.85 753.639 245.657 754.548 245.049C762.149 239.965 764.867 248.632 768.92 248.45C773.035 248.268 774.836 246.739 773.26 251.292C770.232 260.036 774.953 263.144 785.101 262.501C781.483 265.49 772.538 265.504 775.993 268.549C784.231 275.812 775.854 276.071 772.29 278.138C769.378 279.828 765.022 280.582 767.181 284.598C770.97 291.651 765.162 295.269 760.736 299.159C759.129 300.577 755.961 301.492 757.677 303.566C763.306 310.375 755.278 311.841 752.948 315.878C748.569 312.128 752.816 304.522 747.707 304.362C736.363 304.006 736.192 298.335 736.526 290.967C733.785 295.52 726.572 298.698 733.032 304.62C730.097 306.017 734.476 312.037 728.583 310.766C726.479 310.312 725.633 308.489 723.994 311.122C722.573 313.406 722.504 314.872 725.881 315.515C727.061 315.738 729.608 315.354 727.946 317.61C727.147 318.699 726.238 319.482 724.188 318.336C720.213 316.108 717.154 313.043 712.938 308.133C713.45 314.705 710.189 318.567 717.495 322.38C720.927 324.168 729.701 332.248 720.819 339.204C719.444 340.279 718.575 341.292 720.221 342.402C726.627 346.718 729.779 356.356 742.124 352.096C740.455 350.294 738.879 348.597 737.31 346.886C735.408 344.819 734.08 353.192 732.264 347.137C731.565 344.826 734.841 342.64 736.441 343.156C742.924 345.259 753.624 326.011 756.481 346.125C756.566 346.725 759.432 347.71 760.643 347.41C765.55 346.194 765.441 351.774 770.892 352.808C764.797 344.462 769.3 343.122 776.723 342.94C779.386 342.87 782.306 338.757 784.814 341.404C787.725 344.469 784.433 347.005 781.312 348.702C777.756 350.636 777.414 353.108 780.481 355.238C784.674 358.151 785.179 353.611 787.151 352.18C790.591 349.679 790.319 343.101 799.023 345.161C789.247 350.853 795.77 357.864 799.799 359.994C815.088 368.081 829.98 356.139 845.563 357.438C846.433 357.508 848.32 355.581 848.351 354.547C848.475 350.098 853.84 349.4 855.96 346.062C859.058 341.208 867.863 346.348 872.638 341.976C874.051 345.706 873.244 348.883 870.13 351.83C867.63 354.198 870.775 356.628 872.064 355.748C875.216 353.59 881.366 358.954 880.442 354.959C878.943 348.513 886.917 345.133 883.105 338.68C889.107 340.223 888.191 345.978 893.261 346.425C895.148 344.316 893.758 342.682 892.461 340.929C890.675 338.512 887.158 334.615 891.025 333.463C894.674 332.374 895.264 326.368 900.062 329.07C903.417 330.963 906.981 333.261 905.746 338.051C904.535 342.723 909.326 346.118 910.653 350.357C911.329 352.522 914.388 354.91 910.902 356.461C903.626 359.701 909.263 364.003 909.357 368.333C905.117 368.242 899.635 361.091 897.166 370.33C895.652 375.994 890.947 380.575 884.518 372.335C882.654 375.805 882.856 378.103 884.65 380.75C889.736 388.264 886.653 393.097 877.421 395.129C875.123 395.632 873.407 398.035 873.585 398.139C881.397 402.707 876.14 409.46 877.639 415.005C878.244 417.247 880.861 418.595 883.089 417.408C891.886 412.735 892.43 416.996 892.469 423.211C892.484 425.76 897.127 428.051 890.893 430.383C888.167 431.403 893.517 435.342 894.216 434.525C899.519 428.295 905.498 438.959 911.282 433.673C912.983 432.122 915.234 437.025 913.604 438.429C911.352 440.363 908.153 443.687 904.644 442.088C898.354 439.225 892.042 440.943 885.403 439.728C887.647 446.208 892.508 445.817 897.896 445.755C902.71 445.699 909.24 445.559 905.04 453.115C903.378 456.111 904.046 459.61 909.038 459.778V459.771ZM168.575 265.092C162.278 273.319 151.214 275.98 143.574 282.58C141.035 284.772 135.708 284.528 131.5 285.429C131.709 290.639 137.036 290.995 140.445 293.258C142.89 294.885 147.712 295.367 146.586 299.683C145.693 303.105 142.331 303.859 138.527 304.578C141.671 309.579 146.951 306.911 152.2 308.978C146.889 300.193 155.314 295.276 156.005 287.44C161.005 290.359 165.027 295.492 170.338 289.926C170.206 287.287 167.325 287.44 165.516 286.428C158.831 282.691 158.699 277.593 165.85 275.47C170.633 274.052 171.93 271.119 173.692 268.012C173.669 268.012 173.646 268.012 173.615 268.005C174.445 263.556 170.579 262.48 168.583 265.092H168.575ZM307.723 343.527C301.706 342.465 300.572 340.412 308.484 336.913C301.861 335.831 297.699 341.019 295.075 336.976C292.699 333.309 288.778 328.253 297.575 324.182C285.61 324.496 278.311 321.668 275.827 311.387C275.64 320.25 267.091 325.893 268.186 334.343C268.311 335.279 266.804 336.62 265.678 337.297C265.135 337.625 263.139 337.116 262.798 336.543C261.765 334.811 260.134 332.765 261.951 330.893C271.455 321.137 265.073 320.599 255.088 321.528C253.014 321.723 248.923 320.452 248.814 319.579C247.587 310.026 237.757 314.984 233.456 312.198C222.352 304.997 219.2 314.041 211.979 317.17C217.989 320.124 227.244 314.886 227.477 325.076C227.57 328.98 232.866 324.37 235.428 326.312C230.855 332.311 223.517 332.136 216.125 332.632C220.9 333.889 223.975 337.15 229.589 336.927C238.068 336.592 255.08 351.341 256.454 358.8C256.679 360.008 256.811 361.873 257.665 362.25C264.405 365.19 264.452 365.099 259.909 370.596C266.556 365.805 275.5 365.833 282.605 361.859C282.085 360.895 281.945 360.036 281.425 359.785C278.769 358.521 273.753 359.945 274.476 354.931C274.685 353.471 276.487 351.649 276.813 352.326C278.925 356.649 286.402 351.781 287.334 357.243C288.071 361.58 290.533 364.576 295.564 366.384C294.415 359.792 298.654 355.196 306.263 353.967C309.61 353.43 311.978 351.495 312.879 348.778C314.075 345.154 311.109 344.127 307.723 343.534V343.527ZM367.836 369.911C367.805 368.41 366.679 367.236 364.948 367.341C359.699 367.662 356.585 364.548 352.866 362.166C344.465 356.789 342.182 356.74 330.155 362.467C336.685 357.019 336.126 353.534 332.795 349.931C331.164 348.164 328.594 346.418 327.282 347.884C324.285 351.244 315.55 350.217 317.607 357.333C319.083 362.425 316.287 361.307 313.011 359.75C310.596 358.598 308.523 359.324 306.854 361.056C305.72 362.229 305.635 363.521 306.722 364.722C308.647 366.838 311.077 365.574 313.166 365.162C319.409 363.926 324.984 363.319 327.088 370.554C327.445 371.79 330.101 373.375 331.661 373.361C342.71 373.242 353.751 372.768 364.792 372.342C366.415 372.279 367.875 371.559 367.844 369.918L367.836 369.911ZM362.58 493.293C361.702 490.758 358.86 488.132 356.096 486.84C352.361 485.101 351.655 487.79 351.934 490.506C344.473 490.869 335.38 493.768 329.899 491.072C318.795 485.604 321.327 493.216 319.89 497.176C314.587 494.655 309.641 492.315 304.703 489.969C301.706 488.544 299.47 489.654 297.598 491.631C296.232 493.069 296.286 494.641 297.21 496.345C298.918 499.487 300.922 498.587 303.461 497.127C305.549 495.926 307.832 495.577 308.632 498.621C310.79 506.841 318.679 506.869 325.822 507.323C330.186 507.596 334.868 507.973 337.073 511.011C340.59 515.857 333.501 515.25 331.63 517.436C330.776 518.434 330.256 519.999 330.403 521.242C330.706 523.805 333.129 522.904 334.876 522.806C339.356 522.555 343.836 522.226 347.928 521.954C349.76 518.853 340.024 517.45 347.229 514.3C347.734 514.083 348.184 513.092 348.052 512.582C345.513 502.679 345.435 502.595 357.137 497.183C359.419 496.128 363.589 496.226 362.572 493.286L362.58 493.293ZM470.079 321.283C465.723 320.592 464.846 323.637 464.015 327.059C461.888 335.831 450.412 331.612 445.209 336.48C445.14 336.543 443.098 335.572 442.966 334.937C442.01 330.265 440.427 325.264 433.757 328.966C428.065 332.122 422.203 336.529 426.512 344.099C429.859 349.98 433.99 354.554 442.585 353.416C446.157 352.941 446.382 350.315 446.879 348.066C448.75 339.644 454.783 335.16 464.365 335.6C471.337 335.921 470.941 332.066 472.509 328.616C467.602 326.563 476.089 322.226 470.079 321.276V321.283ZM548.268 505.675C546.645 504.495 537.359 508.622 534.431 512.121C529.866 517.561 538.803 520.983 540.705 526.123C534.626 526.396 532.879 520.501 526.985 520.124C527.894 523.539 528.694 526.528 529.485 529.504C529.353 529.441 529.229 529.371 529.113 529.301C529.198 529.427 529.276 529.552 529.361 529.678C524.493 529.008 521.768 522.045 515.401 525.872C506.223 531.396 495.756 535.838 492.449 546.376C491.494 549.407 492.286 551.705 495.632 553.15C498.746 554.498 501.215 554.715 503.436 551.551C506.285 547.487 509.872 544.176 515.09 549.735C516.387 551.118 518.157 550.832 518.794 549.407C519.252 548.395 518.895 546.711 518.157 545.769C516.767 543.995 511.293 543.883 515.766 540.042C519.927 536.473 521.581 540.587 524.112 541.858C526.015 542.808 527.715 544.058 530.464 545.776C531.792 539.546 532.521 534.525 529.346 529.685C529.408 529.692 529.47 529.706 529.532 529.713C529.517 529.643 529.493 529.58 529.478 529.51C531.396 530.432 534.789 530.635 534.199 532.779C531.264 543.471 541.746 546.355 548.276 551.279C550.38 552.864 553.602 555.874 557.414 553.374C562.423 550.078 555.435 548.318 555.621 548.101C565.125 537.032 543.547 531.333 550.52 521.228C553.742 522.066 556.133 526.459 561.638 526.354C562.065 517.024 555.256 510.773 548.26 505.682L548.268 505.675ZM598.628 388.795C585.561 381.204 590.398 371.05 593.015 361.126C593.426 359.568 591.244 359.156 589.824 358.877C587.44 358.409 585.118 358.751 583.356 360.309C576.368 366.503 578.689 393.46 587.316 397.63C594.622 401.156 593.714 391.638 598.784 391.393C598.722 390.031 598.986 389.012 598.628 388.802V388.795ZM684.411 497.937C682.773 500.214 680.366 499.459 678.137 499.487C675.256 499.522 675.94 497.232 675.016 495.926C672.539 492.441 683.207 494.089 677.943 491.247C671.84 487.95 665.45 485.352 661.234 480.038C659.487 481.302 657.476 482.363 656.063 483.865C653.881 486.197 657.452 486.987 658.33 487.175C663.524 488.272 662.608 495.032 668.983 495.57C670.015 495.66 673.02 502.567 669.55 506.345C666.987 509.132 667.011 512.324 667.492 516.318C661.785 514.363 659.673 510.892 660.286 506.841C661.063 501.729 665.217 508.196 667.531 505.465C665.605 501.701 663.385 497.804 661.645 493.754C660.551 491.198 658.392 490.849 656.078 491.177C646.815 492.504 637.226 497.015 629.228 488.341C628.483 487.531 627.155 488.174 626.651 489.277C622.877 497.49 614.22 493.412 607.457 494.857C607.884 498.88 613.831 499.746 614.064 503.936C614.142 505.41 616.665 506.052 618.909 505.773C622.636 505.312 616.844 498.943 622.722 500.807C625.68 501.743 620.633 505.801 623.778 507.784C629.275 511.248 636.473 512.763 639.594 518.916C640.813 521.326 643.888 523.742 639.656 525.669C635.37 527.618 632.87 533.694 627.73 532.192C617.83 529.308 607.93 525.055 600.803 518.567C596.897 515.019 591.112 508.182 599.762 502.337C601.47 501.184 602.394 499.138 605.112 495.681C596.788 498.775 590.685 501.268 583.744 502.274C575.382 503.482 570.536 515.676 572.594 526.563C574.722 537.8 581.764 546.285 592.751 552.403C594.467 553.36 596.416 554.575 597.992 553.213C604.141 547.906 605.671 553.674 607.93 556.461C611.036 560.302 611.991 565.623 619.632 559.541C623.933 556.119 630.898 561.405 637.21 561.238C645.899 561 647.553 557.697 644.462 552.054C642.312 548.122 645.565 542.808 639.579 539.7C638.585 539.183 641.892 536.941 645.006 537.856C652.087 539.923 656.932 536.69 656.264 530.453C655.814 526.242 658.586 523.386 662.398 524.678C670.559 527.443 669.658 522.883 671.599 518.665C674.27 512.868 672.64 503.734 686.538 505.046C692.338 505.598 687.121 496.645 690.622 491.533C684.993 493.013 685.77 496.037 684.403 497.937H684.411ZM755.394 479.968C758.64 492.085 767.895 496.652 773.695 503.44C774.844 504.788 778.897 505.102 775.854 507.63C773.827 509.314 771.381 508.287 769.898 506.415C767.491 503.377 765.457 499.997 759.09 500.71C765.946 513.385 768.469 512.498 784.379 510.466C795.342 509.069 794.426 505.661 789.131 501.862C779.068 494.641 766.497 490.36 755.394 479.968ZM809.311 461.147C805.537 465.463 815.46 468.71 812.611 468.501C805.064 467.942 798.798 475.212 792.182 471.287C783.828 466.329 775.729 473.187 767.639 470.351C766.986 470.121 761.916 474.667 763.469 476.225C766.303 479.067 765.185 484.933 771.187 485.052C782.679 485.289 788.37 494.012 795.055 499.292C808.201 509.677 817.844 509.125 825.376 495.416C831.152 484.905 832.519 475.491 825.29 465.651C825.22 465.665 825.15 465.679 825.073 465.693C820.554 462.034 815.274 460.511 809.311 461.133V461.147Z" fill="white"/>
</mask>
<g mask="url(#mask0_59_169559)">
<path d="M-105.436 692.696L49.0391 -155.77L44.4262 -156.45L-110.049 692.017L-105.436 692.696Z" fill="#54F967"/>
<path d="M-95.7918 694.073L58.6836 -154.394L54.0708 -155.073L-100.405 693.393L-95.7918 694.073Z" fill="#54F967"/>
<path d="M-86.1472 695.443L68.3281 -153.024L63.7153 -153.703L-90.76 694.763L-86.1472 695.443Z" fill="#54F967"/>
<path d="M-76.5027 696.821L77.9727 -151.646L73.3598 -152.325L-81.1156 696.141L-76.5027 696.821Z" fill="#54F967"/>
<path d="M-66.8582 698.189L87.6172 -150.278L83.0044 -150.957L-71.4709 697.509L-66.8582 698.189Z" fill="#54F967"/>
<path d="M-57.2214 699.572L97.2539 -148.894L92.6411 -149.574L-61.8343 698.893L-57.2214 699.572Z" fill="#54F967"/>
<path d="M-47.5867 700.943L106.889 -147.524L102.276 -148.204L-52.1995 700.263L-47.5867 700.943Z" fill="#54F967"/>
<path d="M-37.9422 702.313L116.533 -146.153L111.92 -146.833L-42.555 701.634L-37.9422 702.313Z" fill="#54F967"/>
<path d="M-28.2996 703.69L126.176 -144.776L121.563 -145.456L-32.9124 703.011L-28.2996 703.69Z" fill="#54F967"/>
<path d="M-18.6629 705.065L135.812 -143.402L131.2 -144.081L-23.2757 704.386L-18.6629 705.065Z" fill="#54F967"/>
<path d="M-9.02028 706.443L145.455 -142.024L140.842 -142.703L-13.6331 705.763L-9.02028 706.443Z" fill="#54F967"/>
<path d="M0.624256 707.811L155.1 -140.655L150.487 -141.334L-3.98856 707.132L0.624256 707.811Z" fill="#54F967"/>
<path d="M10.2687 709.182L164.744 -139.285L160.131 -139.964L5.65593 708.502L10.2687 709.182Z" fill="#54F967"/>
<path d="M19.8977 710.565L174.373 -137.901L169.76 -138.581L15.2849 709.886L19.8977 710.565Z" fill="#54F967"/>
<path d="M29.5422 711.935L184.018 -136.532L179.405 -137.211L24.9294 711.255L29.5422 711.935Z" fill="#54F967"/>
<path d="M39.1848 713.311L193.66 -135.155L189.047 -135.835L34.572 712.632L39.1848 713.311Z" fill="#54F967"/>
<path d="M48.8293 714.688L203.305 -133.778L198.692 -134.458L44.2165 714.009L48.8293 714.688Z" fill="#54F967"/>
<path d="M58.468 716.057L212.943 -132.409L208.331 -133.089L53.8552 715.378L58.468 716.057Z" fill="#54F967"/>
<path d="M68.1105 717.434L222.586 -131.033L217.973 -131.712L63.4977 716.755L68.1105 717.434Z" fill="#54F967"/>
<path d="M77.7466 718.798L232.221 -129.662L227.608 -130.342L73.1338 718.118L77.7466 718.798Z" fill="#54F967"/>
<path d="M87.3879 720.187L241.863 -128.279L237.25 -128.959L82.7751 719.508L87.3879 720.187Z" fill="#54F967"/>
<path d="M97.0266 721.557L251.502 -126.91L246.889 -127.59L92.4138 720.877L97.0266 721.557Z" fill="#54F967"/>
<path d="M106.671 722.926L261.146 -125.541L256.534 -126.22L102.058 722.246L106.671 722.926Z" fill="#54F967"/>
<path d="M116.314 724.302L270.789 -124.164L266.176 -124.844L111.701 723.623L116.314 724.302Z" fill="#54F967"/>
<path d="M125.961 725.674L280.436 -122.786L275.823 -123.466L121.349 724.994L125.961 725.674Z" fill="#54F967"/>
<path d="M135.585 727.055L290.061 -121.411L285.448 -122.091L130.972 726.376L135.585 727.055Z" fill="#54F967"/>
<path d="M145.232 728.426L299.707 -120.041L295.094 -120.72L140.619 727.747L145.232 728.426Z" fill="#54F967"/>
<path d="M154.876 729.794L309.352 -118.672L304.739 -119.352L150.263 729.115L154.876 729.794Z" fill="#54F967"/>
<path d="M164.519 731.179L318.994 -117.287L314.381 -117.967L159.906 730.5L164.519 731.179Z" fill="#54F967"/>
<path d="M174.163 732.542L328.637 -115.917L324.024 -116.597L169.55 731.863L174.163 732.542Z" fill="#54F967"/>
<path d="M183.796 733.924L338.271 -114.543L333.659 -115.222L179.183 733.245L183.796 733.924Z" fill="#54F967"/>
<path d="M193.435 735.296L347.91 -113.171L343.297 -113.85L188.822 734.616L193.435 735.296Z" fill="#54F967"/>
<path d="M203.079 736.672L357.555 -111.794L352.942 -112.474L198.467 735.993L203.079 736.672Z" fill="#54F967"/>
<path d="M212.722 738.049L367.197 -110.417L362.584 -111.097L208.109 737.37L212.722 738.049Z" fill="#54F967"/>
<path d="M222.362 739.411L376.836 -109.049L372.223 -109.728L217.749 738.731L222.362 739.411Z" fill="#54F967"/>
<path d="M232.003 740.795L386.479 -107.672L381.866 -108.351L227.39 740.115L232.003 740.795Z" fill="#54F967"/>
<path d="M241.648 742.171L396.123 -106.295L391.51 -106.975L237.035 741.492L241.648 742.171Z" fill="#54F967"/>
<path d="M251.282 743.541L405.758 -104.926L401.145 -105.605L246.67 742.861L251.282 743.541Z" fill="#54F967"/>
<path d="M260.919 744.917L415.395 -103.549L410.782 -104.229L256.306 744.238L260.919 744.917Z" fill="#54F967"/>
<path d="M270.565 746.287L425.039 -102.173L420.426 -102.852L265.952 745.607L270.565 746.287Z" fill="#54F967"/>
<path d="M280.208 747.664L434.684 -100.802L430.071 -101.481L275.595 746.985L280.208 747.664Z" fill="#54F967"/>
<path d="M289.853 749.041L444.328 -99.4255L439.715 -100.105L285.24 748.362L289.853 749.041Z" fill="#54F967"/>
<path d="M299.489 750.41L453.965 -98.0566L449.352 -98.7361L294.877 749.731L299.489 750.41Z" fill="#54F967"/>
<path d="M309.132 751.793L463.607 -96.6738L458.995 -97.3532L304.519 751.113L309.132 751.793Z" fill="#54F967"/>
<path d="M318.77 753.157L473.244 -95.303L468.631 -95.9824L314.157 752.477L318.77 753.157Z" fill="#54F967"/>
<path d="M328.411 754.533L482.887 -93.9336L478.274 -94.613L323.799 753.854L328.411 754.533Z" fill="#54F967"/>
<path d="M338.048 755.908L492.523 -92.5581L487.911 -93.2375L333.435 755.229L338.048 755.908Z" fill="#54F967"/>
<path d="M347.693 757.286L502.168 -91.1807L497.555 -91.8601L343.08 756.606L347.693 757.286Z" fill="#54F967"/>
<path d="M357.337 758.663L511.812 -89.804L507.2 -90.4834L352.724 757.983L357.337 758.663Z" fill="#54F967"/>
<path d="M366.981 760.025L521.455 -88.4346L516.842 -89.114L362.368 759.346L366.981 760.025Z" fill="#54F967"/>
<path d="M376.609 761.401L531.084 -87.0654L526.471 -87.7448L371.996 760.722L376.609 761.401Z" fill="#54F967"/>
<path d="M386.253 762.785L540.729 -85.6814L536.116 -86.3608L381.64 762.106L386.253 762.785Z" fill="#54F967"/>
<path d="M395.898 764.156L550.373 -84.3108L545.76 -84.9902L391.285 763.476L395.898 764.156Z" fill="#54F967"/>
<path d="M405.54 765.531L560.016 -82.9355L555.403 -83.615L400.927 764.852L405.54 765.531Z" fill="#54F967"/>
<path d="M415.18 766.901L569.654 -81.5591L565.041 -82.2385L410.567 766.221L415.18 766.901Z" fill="#54F967"/>
<path d="M424.823 768.278L579.299 -80.189L574.686 -80.8684L420.211 767.598L424.823 768.278Z" fill="#54F967"/>
<path d="M434.456 769.655L588.932 -78.8118L584.319 -79.4912L429.843 768.975L434.456 769.655Z" fill="#54F967"/>
<path d="M444.101 771.024L598.576 -77.4424L593.963 -78.1218L439.488 770.345L444.101 771.024Z" fill="#54F967"/>
<path d="M453.738 772.407L608.213 -76.0593L603.6 -76.7387L449.125 771.728L453.738 772.407Z" fill="#54F967"/>
<path d="M463.383 773.77L617.857 -74.6892L613.245 -75.3686L458.77 773.091L463.383 773.77Z" fill="#54F967"/>
<path d="M473.027 775.147L627.502 -73.3191L622.889 -73.9985L468.414 774.468L473.027 775.147Z" fill="#54F967"/>
<path d="M482.671 776.523L637.146 -71.9431L632.534 -72.6225L478.058 775.844L482.671 776.523Z" fill="#54F967"/>
<path d="M492.31 777.9L646.785 -70.5662L642.172 -71.2456L487.697 777.221L492.31 777.9Z" fill="#54F967"/>
<path d="M501.943 779.276L656.418 -69.1902L651.805 -69.8696L497.33 778.597L501.943 779.276Z" fill="#54F967"/>
<path d="M511.588 780.64L666.062 -67.8201L661.45 -68.4995L506.976 779.96L511.588 780.64Z" fill="#54F967"/>
<path d="M521.232 782.017L675.707 -66.45L671.094 -67.1294L516.619 781.337L521.232 782.017Z" fill="#54F967"/>
<path d="M530.872 783.4L685.348 -65.0664L680.735 -65.7458L526.259 782.721L530.872 783.4Z" fill="#54F967"/>
<path d="M540.511 784.769L694.986 -63.6975L690.374 -64.3769L535.898 784.09L540.511 784.769Z" fill="#54F967"/>
<path d="M550.156 786.146L704.631 -62.3203L700.018 -62.9997L545.543 785.467L550.156 786.146Z" fill="#54F967"/>
<path d="M559.792 787.509L714.266 -60.9509L709.653 -61.6303L555.179 786.829L559.792 787.509Z" fill="#54F967"/>
<path d="M569.435 788.892L723.91 -59.5745L719.297 -60.2539L564.822 788.213L569.435 788.892Z" fill="#54F967"/>
<path d="M579.072 790.269L733.547 -58.1973L728.934 -58.8767L574.459 789.59L579.072 790.269Z" fill="#54F967"/>
<path d="M588.716 791.637L743.191 -56.8291L738.579 -57.5085L584.103 790.958L588.716 791.637Z" fill="#54F967"/>
<path d="M598.359 793.022L752.834 -55.4448L748.221 -56.1242L593.746 792.342L598.359 793.022Z" fill="#54F967"/>
<path d="M608.004 794.385L762.479 -54.0742L757.866 -54.7536L603.392 793.706L608.004 794.385Z" fill="#54F967"/>
<path d="M617.634 795.761L772.109 -52.7053L767.497 -53.3847L613.021 795.082L617.634 795.761Z" fill="#54F967"/>
<path d="M627.275 797.138L781.75 -51.3289L777.137 -52.0083L622.662 796.458L627.275 797.138Z" fill="#54F967"/>
<path d="M636.919 798.515L791.395 -49.9517L786.782 -50.6311L632.306 797.835L636.919 798.515Z" fill="#54F967"/>
<path d="M646.564 799.891L801.039 -48.5757L796.426 -49.2551L641.951 799.211L646.564 799.891Z" fill="#54F967"/>
<path d="M656.202 801.252L810.676 -47.2075L806.063 -47.8869L651.589 800.573L656.202 801.252Z" fill="#54F967"/>
<path d="M665.845 802.63L820.32 -45.8367L815.707 -46.5161L661.232 801.95L665.845 802.63Z" fill="#54F967"/>
<path d="M675.48 804.014L829.955 -44.4526L825.342 -45.132L670.867 803.335L675.48 804.014Z" fill="#54F967"/>
<path d="M685.124 805.383L839.6 -43.083L834.987 -43.7624L680.511 804.704L685.124 805.383Z" fill="#54F967"/>
<path d="M694.759 806.759L849.234 -41.7073L844.622 -42.3867L690.146 806.08L694.759 806.759Z" fill="#54F967"/>
<path d="M704.407 808.123L858.881 -40.3364L854.268 -41.0158L699.794 807.444L704.407 808.123Z" fill="#54F967"/>
<path d="M714.05 809.507L868.525 -38.96L863.913 -39.6394L709.437 808.827L714.05 809.507Z" fill="#54F967"/>
<path d="M723.693 810.883L878.168 -37.584L873.555 -38.2634L719.08 810.203L723.693 810.883Z" fill="#54F967"/>
<path d="M733.321 812.253L887.797 -36.2134L883.184 -36.8928L728.709 811.574L733.321 812.253Z" fill="#54F967"/>
<path d="M742.964 813.629L897.439 -34.8374L892.827 -35.5168L738.351 812.95L742.964 813.629Z" fill="#54F967"/>
<path d="M752.61 814.999L907.084 -33.4604L902.471 -34.1399L747.997 814.32L752.61 814.999Z" fill="#54F967"/>
<path d="M762.253 816.376L916.729 -32.0903L912.116 -32.7698L757.64 815.697L762.253 816.376Z" fill="#54F967"/>
<path d="M771.89 817.752L926.365 -30.7148L921.752 -31.3943L767.277 817.072L771.89 817.752Z" fill="#54F967"/>
<path d="M781.534 819.122L936.01 -29.3447L931.397 -30.0241L776.922 818.442L781.534 819.122Z" fill="#54F967"/>
<path d="M791.167 820.506L945.643 -27.9609L941.03 -28.6404L786.554 819.826L791.167 820.506Z" fill="#54F967"/>
<path d="M800.813 821.868L955.287 -26.5918L950.674 -27.2712L796.2 821.188L800.813 821.868Z" fill="#54F967"/>
<path d="M810.45 823.243L964.926 -25.2236L960.313 -25.9031L805.838 822.563L810.45 823.243Z" fill="#54F967"/>
<path d="M820.093 824.628L974.568 -23.8384L969.956 -24.5178L815.48 823.949L820.093 824.628Z" fill="#54F967"/>
<path d="M829.738 825.998L984.213 -22.4688L979.6 -23.1482L825.125 825.318L829.738 825.998Z" fill="#54F967"/>
<path d="M839.382 827.375L993.857 -21.0918L989.245 -21.7712L834.769 826.695L839.382 827.375Z" fill="#54F967"/>
<path d="M849.028 828.738L1003.5 -19.7217L998.889 -20.4011L844.415 828.059L849.028 828.738Z" fill="#54F967"/>
<path d="M858.656 830.12L1013.13 -18.3462L1008.52 -19.0256L854.043 829.441L858.656 830.12Z" fill="#54F967"/>
<path d="M868.298 831.497L1022.77 -16.9697L1018.16 -17.6491L863.685 830.818L868.298 831.497Z" fill="#54F967"/>
</g>
</svg>
