<svg width="545" height="852" viewBox="0 0 545 852" fill="none" xmlns="http://www.w3.org/2000/svg">
<mask id="mask0_59_170305" style="mask-type:luminance" maskUnits="userSpaceOnUse" x="-118" y="0" width="663" height="852">
<path d="M163.657 770.039C157.496 783.409 147.155 782.799 135.531 781.027C127.773 779.847 128.086 777.747 131.223 771.944C136.164 762.807 130.485 747.5 121.901 744.158C118.78 742.947 118.932 745.704 117.954 746.821C114.32 750.944 111.191 751.46 110.156 745.376C108.6 736.27 102.005 735.762 94.8415 736.129C88.3515 736.457 82.6717 734.864 76.6228 732.318C66.3383 727.984 58.5727 733.201 57.2971 744.079C57.1286 745.524 57.1046 746.29 55.7167 747.32C46.3065 754.31 16.8968 749.374 10.142 739.214C7.59088 735.38 4.27766 734.95 0.218369 734.95C-6.53642 734.95 -13.4837 733.56 -20.0059 734.669C-31.7184 736.653 -34.4781 732.443 -30.7558 722.494C-28.6379 716.832 -30.7558 713.435 -35.7697 710.85C-39.7006 708.827 -46.6078 710.381 -46.5196 703.36C-46.4233 695.121 -37.1094 698.253 -33.4673 693.864C-34.2535 689.725 -39.099 688.319 -40.9441 689.287C-50.9399 694.535 -53.7397 683.383 -59.1788 680.58C-64.5537 677.807 -63.6472 666.733 -57.9033 659.119C-55.1035 655.401 -53.0899 648.826 -55.9378 644.39C-62.6605 633.941 -56.748 624.413 -49.8649 620.906C-37.7432 614.729 -42.6288 600.601 -33.0261 594.471C-35.7216 591.816 -29.3519 578.891 -41.7223 587.192C-44.883 581.554 -50.5628 575.923 -50.5789 570.277C-50.603 562.795 -51.3009 555.493 -51.9347 548.097C-52.3358 543.365 -51.8945 538.96 -45.1478 537.593C-37.7191 536.086 -34.1813 529.073 -36.4356 523.489C-38.9225 517.32 -46.3672 519.436 -52.0951 521.263C-54.8788 522.154 -57.6626 523.068 -60.4704 523.888C-65.7491 525.442 -67.6263 522.513 -68.236 518.124C-68.7093 514.696 -70.9876 511.626 -64.8426 509.362C-51.4293 504.418 -52.063 504.075 -59.0585 494.648C-62.6846 489.76 -58.0075 484.535 -56.2105 480.162C-51.0602 467.619 -57.5984 459.154 -65.741 451.61C-70.4261 447.275 -75.6005 446.143 -76.4187 455.85C-76.7878 460.224 -80.0609 466.299 -85.8289 458.857C-90.7867 452.461 -92.9367 460.255 -96.5307 460.739C-101.777 461.442 -106.751 463.949 -112.278 462.824C-104.617 456.608 -124.039 451.563 -113.041 444.87C-110.273 443.191 -113.947 440.77 -114.316 438.607C-117.998 416.974 -116.586 414.615 -94.2283 407.79C-115.415 408.376 -112.046 395.052 -112.19 382.815C-112.752 334.84 -99.0737 292.262 -62.7487 257.189C-62.7487 266.561 -62.4439 275.729 -62.837 284.867C-63.214 293.754 -59.8848 295.816 -51.4934 292.528C-35.7456 286.374 -19.3561 282.555 -0.41539 279.704C-9.49664 291.364 -23.6881 288.537 -34.3417 297.87C-20.2706 300.041 -8.20506 302.149 3.94072 303.688C10.6393 304.539 12.5727 300.853 11.0645 294.816C8.50542 284.57 13.4552 279.79 22.2717 273.816C29.9089 268.638 33.9121 262.242 43.4426 269.716C46.82 272.363 50.5263 268.771 54.0641 267.139C60.137 264.351 64.2123 256.611 73.3578 260.438C75.8126 261.469 82.9284 256.69 81.2758 254.222C78.5723 250.192 72.5636 248.169 67.7582 245.655C67.0041 245.264 65.2472 246.787 63.9155 247.341C49.4754 253.394 40.5626 249.716 37.7949 233.862C37.49 232.113 36.4953 225.756 31.1604 229.942C26.9567 233.245 23.0499 240.344 19.3115 229.606C18.0439 225.959 14.7147 224.256 13.407 219.274C9.52425 204.49 20.1137 198.25 26.3069 189.457C28.6976 186.052 34.8106 182.67 30.1576 179.538C22.3519 174.275 28.3125 184.591 25.0875 185.154C21.5096 185.778 17.6749 186.692 14.2654 186.013C11.2972 185.419 14.0569 181.952 13.1584 179.929C22.3519 176.258 18.774 165.481 25.0474 159.921C31.73 154.009 39.9689 153.907 48.97 152.486C45.2957 148.925 45.7931 141.06 37.6184 145.059C35.0031 146.332 33.7115 153.556 29.7004 146.988C27.1814 142.864 26.2026 137.905 31.4572 134.344C34.5218 132.267 41.3568 132.712 37.105 125.91C34.586 121.88 35.1154 114.547 26.7161 117.226C23.9805 106.659 9.21139 108.635 4.28569 98.5996C6.95712 98.3263 8.06419 97.8655 8.70598 98.2091C13.9125 101.021 19.1109 104.019 25.1196 100.458C27.1011 99.2869 27.053 96.8737 25.6491 95.4836C21.0122 90.8759 14.7548 91.9536 9.01884 91.8755C4.6868 91.8209 0.282555 93.3594 -3.98531 92.9923C-6.55245 92.7737 -11.767 94.6948 -11.5022 89.3218C-11.3097 85.417 -8.11681 84.2221 -4.12972 84.2221C6.58808 84.2221 17.3139 83.488 28.0157 83.8238C37.129 84.105 44.67 78.1931 54.008 78.7242C57.2971 78.9116 62.7924 74.4992 63.8674 71.1488C65.183 67.0332 58.7171 66.7208 55.8852 64.456C54.5455 63.3783 51.7617 64.2842 51.5371 60.887C57.1046 55.8732 64.6375 57.8647 71.7453 56.3965C71.4806 55.1626 71.3362 53.8506 70.9029 52.6323C68.5685 46.1269 60.4017 42.222 61.7896 34.2328C62.1827 31.9837 92.9402 29.7657 95.9005 31.7806C97.2963 32.7256 98.8206 34.7248 98.7644 36.193C98.6441 39.1919 95.6357 39.3403 93.2772 39.5434C84.3403 40.3009 86.5224 44.7289 91.769 46.6032C103.072 50.633 93.6943 54.7955 92.1942 58.3255C91.3759 60.2622 83.5702 56.7011 86.1935 62.7769C88.3194 67.7048 92.8921 71.6408 96.438 75.9674C96.6064 76.1782 97.7536 75.983 97.7616 75.9127C99.3501 58.6691 116.317 74.4523 123.834 64.3623C128.174 58.5285 142.261 56.0529 151.27 67.205C157.046 74.3586 167.869 65.4947 175.361 70.9224C177.239 66.6115 188.582 63.1674 175.69 57.607C168.976 54.7096 169.032 47.3452 175.69 44.4556C186.456 39.7933 187.21 33.1082 184.515 23.4868C183.287 19.0978 183.833 13.7873 191.462 14.0528C199.942 14.3496 194.687 19.9334 195.658 23.6586C206.817 18.2153 215.465 9.8356 224.723 2.22123C232.28 -3.99521 239.58 5.01707 248.011 3.06467C252.68 1.98694 259.965 3.39268 266.014 4.00964C272.728 4.68907 281.368 3.43172 283.719 12.9673C283.815 13.3577 284.328 13.881 284.722 13.9513C299.234 16.4269 300.285 27.9227 303.582 39.1841C306.767 28.2975 309.952 17.4187 313.113 6.60243C317.092 5.92299 316.329 10.4369 317.709 10.7259C326.157 12.4674 324.897 16.7783 321.135 21.6984C319.073 24.3927 315.944 26.7278 319.883 29.9766C323.229 32.7412 324.625 29.5627 326.847 27.7665C333.61 22.3154 338.367 29.1253 342.603 31.804C349.991 36.482 340.669 37.7784 339.402 40.871C338.343 43.4638 337.308 46.9937 339.747 48.7353C344.295 51.9841 344.985 47.6653 346.389 44.7289C346.935 43.5965 349.044 43.2217 349.71 42.0971C361.038 22.8933 363.14 22.4169 380.692 35.4667C387.431 40.4727 388.241 61.2697 379.345 67.3456C368.844 74.5148 376.874 81.2076 378.639 86.073C379.93 89.642 386.461 94.8432 395.55 92.0708C404.864 89.2359 415.557 85.378 426.179 90.2199C427.727 90.9228 430.062 90.501 430.752 92.5315C433.6 100.966 439.191 109.783 439.271 117.444C439.352 125.348 451.802 133.641 438.934 141.841C447.35 140.662 455.468 143.989 461.028 134.86C462.697 132.118 471.296 128.846 476.126 135.727C478.46 139.053 481.91 139.647 484.75 136.484C487.766 133.118 488.649 129.908 482.544 128.19C478.581 127.073 480.987 124.27 482.207 122.567C489.603 112.235 494.545 99.9975 508.6 90.9931C502.126 102.926 513.357 112.587 507.06 122.919C506.579 123.715 509.178 127.62 510.983 128.198C522.84 132.017 521.187 140.248 520.89 149.885C520.473 163.388 508.648 164.185 502.158 164.068C494.938 163.935 481.862 162.748 483.522 148.847C484.012 144.793 480.795 144.536 478.244 143.364C475.179 141.951 473.037 141.748 471.28 145.426C467.959 152.392 463.114 155.133 456.022 149.409C453.038 147.004 451.112 149.432 451.104 151.674C451.088 156.883 447.663 157.976 443.66 158.788C439.64 159.593 436.945 162.053 438.75 165.77C440.731 169.854 443.395 167.215 445.408 164.973C448.601 161.42 450.358 165.387 452.637 166.325C456.487 167.902 455.926 171.159 454.329 173.494C451.144 178.172 448.064 185.036 443.547 186.317C430.72 189.949 424.077 198.25 419.44 209.27C419.071 210.144 418.726 211.183 418.036 211.761C410.608 217.998 410.038 227.195 416.328 239.352C424.117 224.772 440.659 223.483 453.054 216.064C455.476 214.619 463.402 220.765 460.161 228.364C457.707 234.12 455.91 240.008 461.14 245.772C468.826 242.578 464.301 229.887 475.203 229.457C476.968 236.135 473.607 242.273 472.123 250.348C481.87 246.881 490.807 250.661 500.008 247.568C493.751 254.628 493.462 265.382 482.295 268.256C509.587 283.914 517.665 307.975 503.49 337.574C509.948 331.146 518.066 332.474 517.024 322.587C516.574 318.331 522.294 318.542 525.944 320.744C528.889 322.517 534.777 323.68 529.161 328.452C524.292 332.591 527.188 333.809 529.506 338.308C532.844 344.782 530.164 353.818 523.578 359.8C517.826 365.017 516.679 368.375 525.976 371.28C533.269 373.56 534.28 385.275 544.5 384.416C542.398 390.937 540.858 397.715 537.962 403.885C536.47 407.064 533.004 408.649 528.159 407.368C519.101 404.971 523.626 398.215 522.286 392.819C519.695 393.779 517.232 395.458 514.809 395.396C511.6 395.31 508.456 394.951 507.902 398.621C506.707 406.556 513.341 398.332 514.152 401.206C516.181 408.446 527.356 411.929 522.391 422.206C518.604 430.047 529.98 428.696 531.079 434.913C530.926 436.482 519.334 431.804 527.316 439.997C533.782 446.619 531.159 451.243 522.278 452.242C516.791 452.859 513.975 455.327 515.299 460.45C516.727 465.964 514.015 473.516 522.142 476.085C523.682 476.569 525.038 476.749 524.452 478.272C523.81 479.927 522.663 481.903 521.163 482.668C512.29 487.182 512.515 487.089 512.258 494.937C512.202 496.694 509.362 498.35 507.822 500.068C502.319 506.222 493.671 508.573 492.772 520.217C492.315 526.137 476.872 526.879 467.767 528.605C464.012 529.315 460.37 525.723 456.431 528.003C459.512 532.525 470.27 540.225 476.968 542.982C478.156 543.474 479.928 545.544 479.84 545.653C473.101 553.869 485.287 565.005 475.364 572.823C473.318 574.431 469.973 577.875 472.051 580.054C480.193 588.598 472.452 596.361 470.109 603.069C465.609 615.971 460.025 626.732 477.618 634.792C483.169 637.338 482.937 639.767 488.913 636.838C486.098 643.242 470.422 659.993 470.318 663.102C469.997 673.043 457.715 678.135 460.354 688.131C462.448 696.058 459.472 696.394 452.508 696.425C438.1 696.48 430.8 706.265 435.308 719.503C437.851 726.961 432.156 728.148 428.666 731.748C424.887 735.653 417.042 739.597 427.912 745.524C434.097 748.898 431.963 754.622 426.323 757.762C422.994 759.613 418.999 760.12 416.929 763.963C412.974 771.296 411.659 784.354 398.141 772.413C397.042 771.437 392.477 773.186 390.271 774.701C388.458 775.951 390.295 777.84 391.571 779.394C399.344 788.875 389.71 790.32 384.599 790.765C375.518 791.546 370.48 795.693 366.998 803.261C364.383 808.954 359.514 812.531 354.556 816.592C345.819 823.753 335.872 830.024 330.465 840.911C325.651 850.595 306.759 855.046 299.948 847.682C293.995 841.247 303.678 838.419 307.256 834.452C303.863 830.407 299.796 834.116 296.121 833.132C286.783 830.625 276.884 831.344 271.637 819.473C268.966 813.421 261.224 800.223 250.619 816.021C246.72 821.832 224.378 816.49 218.201 812.468C208.429 806.103 199.846 801.363 198.971 787.454C198.658 782.456 185.245 779.457 177.423 782.011C165.534 785.892 163.496 780.91 163.673 770.031L163.657 770.039ZM411.113 384.408C409.444 384.416 407.768 384.424 406.099 384.431C401.727 382.955 393.584 388.281 394.05 378.09C377.58 387.305 375.751 402.393 390.584 414.858C396.256 419.629 393.255 410.984 395.774 410.047C400.852 410.125 405.931 410.211 411.009 410.289L410.166 410.203C426.123 408.274 420.387 396.083 420.9 387.336C420.972 386.118 416.705 377.036 410.784 384.525L411.121 384.4L411.113 384.408ZM314.316 451.875C321.014 444.737 318.006 436.373 315.848 429.11C314.613 424.971 308.893 428.829 305.435 429.516C297.044 431.187 296.522 441.465 297.357 444.37C299.418 451.516 293.578 448.002 292.263 449.806C282.13 438.052 280.133 452.258 275.841 455.475C269.319 460.364 277.229 460.895 279.419 463.918C286.43 473.586 285.724 474.078 294.3 465.784C293.634 466.463 292.303 467.604 292.407 467.744C299.787 477.709 299.065 484.996 286.318 490.298C283.695 491.392 285.01 497.343 287.168 500.818C288.436 502.864 290.417 503.223 291.893 501.615C297.581 495.414 307.577 499.139 313.265 492.134C316.923 487.628 321.416 486.925 328.483 490.111C341.961 496.187 350.769 485.48 359.008 476.241C362.666 482.114 357.829 485.253 356.89 489.119C356.08 492.438 353.649 495.695 358.607 496.991C363.003 498.147 362.498 494.078 363.1 491.525C364.279 486.511 365.073 481.38 366.653 476.491C369.894 466.44 365.538 460.06 356.24 457.014C346.63 453.867 340.268 459.818 339.121 467.791C337.412 479.677 330.112 474.999 324.552 473.601C317.982 471.946 316.362 466.534 317.741 460.349C318.544 456.74 320.846 452.648 314.324 451.867L314.316 451.875ZM269.84 290.318C258.184 295.761 248.758 291.723 239.355 289.076C227.763 285.812 228.012 275.94 227.883 266.256C223.487 272.457 219.821 278.103 217.342 284.211C216.067 287.366 212.545 291.926 216.291 294.48C218.401 295.917 223.327 293.895 226.784 292.817C228.429 292.301 229.536 290.169 232.905 291.856C229.031 297.979 235.505 303.211 234.919 309.475C233.716 322.368 234.117 334.176 251.605 335.559C258.625 336.113 258.32 340.799 258.665 350.561C252.175 329.764 245.677 353.818 239.059 345.485C238.264 344.485 237.029 348.249 237.414 349.796C238.762 355.192 241.425 359.113 248.22 359.011C251.87 358.956 256.307 362.033 253.378 365.181C242.998 376.333 241.674 393.178 227.964 402.12C215.649 410.156 221.57 422.167 223.215 432.062C224.362 438.974 228.236 447.174 239.002 447.26C245.492 447.314 251.983 449.048 252.36 457.436C252.656 463.98 259.628 463.714 262.139 463.386C268.789 462.504 264.112 457.576 263.43 454.53C262.123 448.704 262.123 444.253 269.656 442.793C271.685 442.402 275.071 438.974 274.806 438.482C269.158 428.009 279.034 425.494 283.462 419.512C285.957 416.146 289.062 404.9 282.949 403.698C274.044 401.948 275.632 396.7 275.953 392.6C276.747 382.362 276.587 373.717 265.388 367.984C259.917 365.181 263.069 358.66 263.807 353.568C265.275 343.392 274.782 338.034 279.587 330.092C276.033 327.093 274.325 329.6 272.279 330.506C265.653 333.435 259.917 333.232 256.347 325.992C252.809 318.823 256.379 315.597 263.206 313.598C268.364 312.083 270.578 307.452 267.674 303.516C263.831 298.315 269.391 295.902 269.864 290.341L269.84 290.318ZM229.681 548.503C216.741 541.319 206.681 537.219 218.024 525.114C220.238 522.755 218.048 519.709 216.484 519.092C212.08 517.359 211.526 508.768 204.089 512.618C196.388 516.601 194.888 523.763 198.594 529.628C206.191 541.662 204.21 553.4 200.921 565.661C199.661 570.355 200.006 574.728 205.301 577.001C211.743 579.773 217.743 575.439 224.049 575.657C221.987 572.299 230.194 566.075 221.04 564.872C217.992 564.474 214.518 564.911 215.112 560.827C215.906 555.345 219.059 557.141 222.492 559.007C225.509 560.647 225.958 557.961 227.314 555.821C229.929 551.705 232.994 547.223 241.393 548.097C237.005 553.267 240.695 558.39 236.082 564.013C232.801 568.02 235.938 577.329 236.965 584.162C237.254 586.099 240.19 585.49 241.931 584.209C249.431 578.688 241.104 574.181 240.984 569.16C240.968 568.449 241.923 567.707 242.685 566.598C249.119 566.512 258.457 575.283 261.77 563.185C266.527 545.794 261.24 529.932 251.028 515.414C248.846 512.306 244.506 509.846 242.661 513.056C236.548 523.638 217.751 528.331 229.681 548.496V548.503ZM332.438 403.877C333.706 397.656 333.69 392.452 332.39 388.266C329.229 378.059 333.89 361.307 340.34 362.018C349.63 363.049 354.411 361.198 356.89 352.217C357.468 350.124 365.947 350.717 361.254 345.227C358.439 341.931 353.713 340.19 349.847 337.745C342.065 352.217 339.418 334.653 333.81 335.364C328.034 342.65 331.556 360.268 312.76 353.458C311.997 353.185 310.505 354.833 309.35 355.583C314.019 361.901 303.694 368.796 309.398 374.216C314.26 378.84 321.215 379.363 328.812 375.536C319.843 386.821 327.28 394.506 332.43 403.885L332.438 403.877ZM330.898 211.199C338.92 209.941 340.108 204.342 343.653 206.091C347.095 207.786 345.571 211.909 345.057 214.994C344.383 219.071 341.76 225.373 347.649 225.365C353.537 225.365 361.615 232.222 366.204 222.249C370.408 213.104 377.09 201.96 366.87 195.392C358.471 189.995 351.395 182.326 341.64 178.828C338.696 177.773 336.506 171.276 332.847 177.094C330.89 180.202 327.817 184.443 333.265 188.129C342.715 194.517 341.56 201.835 330.906 211.191L330.898 211.199ZM60.1691 284.008C54.5134 284.148 47.4297 281.891 45.4883 288.092C43.1618 295.511 51.4569 299.9 54.1123 306.078C60.6103 301.977 66.1778 316.144 72.8684 306.999C74.1279 305.281 73.5182 301.501 76.9758 302.345C80.9469 303.305 79.3344 306.351 79.0215 309.233C77.8583 320.01 90.4052 306.242 91.432 315.574C91.6647 317.706 95.2747 314.082 96.3176 312.52C98.267 309.6 90.1244 287.225 86.7711 286.624C78.4198 285.117 72.7721 289.685 69.1541 296.269C67.5496 299.182 68.5524 302.454 63.1774 299.291C56.6473 295.456 63.0972 294.683 64.0038 292.59C65.159 289.943 71.5688 290.544 68.7369 285.484C66.4345 281.368 62.9127 283.422 60.1691 284V284.008ZM420.692 544.138C421.574 541.014 421.727 538.093 423.122 535.946C428.377 527.894 430.808 523.044 416.705 526.02C409.156 527.613 409.813 520.358 411.506 516.234C412.998 512.61 416.929 509.932 419.97 506.644C415.999 503.622 410.03 505.238 406.067 500.724C401.55 495.578 391.852 498.889 390.728 505.746C389.774 511.587 392.702 517.156 395.951 521.584C401.093 528.597 403.781 534.594 395.855 541.225C394.082 542.709 392.373 545.091 395.253 547.066C397.411 548.55 400.74 548.355 401.799 546.27C404.751 540.452 410.816 538.265 415.253 533.954C418.534 536.484 414.843 541.803 420.684 544.138H420.692ZM224.578 716.777C227.715 708.772 227.234 699.416 239.243 697.987C251.742 696.496 250.306 690.459 243.238 683.399C240.31 680.47 237.085 677.768 234.542 674.551C229.817 668.576 226.263 669.599 220.246 673.926C211.534 680.189 221.04 688.483 219.268 690.099C206.031 702.197 222.276 707.968 224.57 716.785L224.578 716.777ZM68.7128 189.995C64.1401 201.374 69.7878 218.868 75.7966 216.087C92.7156 208.254 87.0599 226.763 94.4244 229.09C102.078 222.577 106.843 205.99 101.805 205.255C85.7923 202.92 83.7627 190.815 79.1739 179.171C78.0348 187.278 76.8956 195.376 75.6361 204.287C69.0016 199.992 76.2378 192.206 68.7048 189.995H68.7128ZM-100.341 554.946C-99.0898 559.585 -100.718 567.231 -93.8031 567.309C-85.0588 567.41 -84.4972 559.679 -85.7647 553.517C-88.9095 538.249 -82.5959 524.497 -79.6598 510.197C-78.6169 505.137 -75.9695 497.874 -81.7536 496.031C-95.3674 491.696 -85.1069 488.682 -81.8097 485.527C-79.2988 483.121 -74.357 482.957 -77.245 477.1C-79.5474 472.422 -82.6842 471.188 -87.3211 470.884C-95.4717 470.353 -116.201 485.706 -117.87 493.524C-118.752 497.647 -114.902 498.1 -113.546 500.053C-106.904 509.674 -87.0162 513.118 -97.2286 532.228C-98.4159 534.454 -107.2 542.763 -100.02 548.378C-100.205 551.206 -100.815 553.22 -100.349 554.962L-100.341 554.946ZM411.113 384.408C409.444 384.408 407.768 384.424 406.099 384.431C401.727 382.955 393.584 388.281 394.026 378.074C391.603 380.886 389.204 383.713 386.805 386.54L386.533 386.188C392.646 389.5 398.751 392.819 404.864 396.13C407.936 392.795 415.309 391.538 410.776 384.533L411.113 384.408ZM410.182 410.211C412.926 409.094 416.127 408.087 413.375 404.377C412.83 403.643 410.367 403.245 409.701 403.776C406.332 406.478 408.249 408.54 411.001 410.297C411.001 410.297 410.158 410.211 410.182 410.211ZM394.098 404.385C389.485 406.611 391.611 409.602 396.208 410.43C399.104 405.463 405.345 402.393 405.048 395.622C401.494 398.621 398.703 402.159 394.098 404.385ZM386.838 386.571C386.308 388.117 385.755 389.625 385.201 391.14C385.578 391.179 385.955 391.21 386.332 391.249C386.396 389.562 386.469 387.875 386.533 386.188C386.533 386.188 386.805 386.54 386.838 386.571Z" fill="white"/>
</mask>
<g mask="url(#mask0_59_170305)">
<path d="M597.745 0.0269775L-147.375 0.0269775V3.05711L597.745 3.05711V0.0269775Z" fill="#7DFF8A"/>
<path d="M597.745 5.95166L-147.375 5.95166V8.98179L597.745 8.98179V5.95166Z" fill="#7DFF8A"/>
<path d="M597.745 11.8881L-147.375 11.8881V14.9182L597.745 14.9182V11.8881Z" fill="#7DFF8A"/>
<path d="M597.745 17.8234L-147.375 17.8234V20.8535L597.745 20.8535V17.8234Z" fill="#7DFF8A"/>
<path d="M597.745 23.7513L-147.375 23.7513V26.7815L597.745 26.7815V23.7513Z" fill="#7DFF8A"/>
<path d="M597.745 29.6844L-147.375 29.6844V32.7146L597.745 32.7146V29.6844Z" fill="#7DFF8A"/>
<path d="M597.745 35.6122L-147.375 35.6122V38.6423L597.745 38.6423V35.6122Z" fill="#7DFF8A"/>
<path d="M597.745 41.5508L-147.375 41.5508V44.5809L597.745 44.5809V41.5508Z" fill="#7DFF8A"/>
<path d="M597.745 47.4755L-147.375 47.4755V50.5056L597.745 50.5056V47.4755Z" fill="#7DFF8A"/>
<path d="M597.745 53.4119L-147.375 53.4119V56.442L597.745 56.442V53.4119Z" fill="#7DFF8A"/>
<path d="M597.745 59.3397L-147.375 59.3397V62.3698L597.745 62.3698V59.3397Z" fill="#7DFF8A"/>
<path d="M597.745 65.2751L-147.375 65.2751V68.3053L597.745 68.3053V65.2751Z" fill="#7DFF8A"/>
<path d="M597.745 71.2084L-147.375 71.2084V74.2385L597.745 74.2385V71.2084Z" fill="#7DFF8A"/>
<path d="M597.745 77.1383L-147.375 77.1383V80.1684L597.745 80.1684V77.1383Z" fill="#7DFF8A"/>
<path d="M597.745 83.0715L-147.375 83.0715V86.1017L597.745 86.1017V83.0715Z" fill="#7DFF8A"/>
<path d="M597.745 88.9994L-147.375 88.9994V92.0295L597.745 92.0295V88.9994Z" fill="#7DFF8A"/>
<path d="M597.745 94.9347L-147.375 94.9347V97.9648L597.745 97.9648V94.9347Z" fill="#7DFF8A"/>
<path d="M597.745 100.863L-147.375 100.863V103.893L597.745 103.893V100.863Z" fill="#7DFF8A"/>
<path d="M597.745 106.799L-147.375 106.799V109.829L597.745 109.829V106.799Z" fill="#7DFF8A"/>
<path d="M597.745 112.727L-147.375 112.727V115.757L597.745 115.757V112.727Z" fill="#7DFF8A"/>
<path d="M597.745 118.66L-147.375 118.66V121.69L597.745 121.69V118.66Z" fill="#7DFF8A"/>
<path d="M597.745 124.595L-147.375 124.595V127.625L597.745 127.625V124.595Z" fill="#7DFF8A"/>
<path d="M597.745 130.523L-147.375 130.523V133.553L597.745 133.553V130.523Z" fill="#7DFF8A"/>
<path d="M597.745 136.459L-147.375 136.459V139.489L597.745 139.489V136.459Z" fill="#7DFF8A"/>
<path d="M597.745 142.386L-147.375 142.386V145.416L597.745 145.416V142.386Z" fill="#7DFF8A"/>
<path d="M597.745 148.322L-147.375 148.322V151.352L597.745 151.352V148.322Z" fill="#7DFF8A"/>
<path d="M597.745 154.25L-147.375 154.25V157.28L597.745 157.28V154.25Z" fill="#7DFF8A"/>
<path d="M597.745 160.183L-147.375 160.183V163.213L597.745 163.213V160.183Z" fill="#7DFF8A"/>
<path d="M597.745 166.119L-147.375 166.119V169.15L597.745 169.15V166.119Z" fill="#7DFF8A"/>
<path d="M597.745 172.047L-147.375 172.047V175.077L597.745 175.077V172.047Z" fill="#7DFF8A"/>
<path d="M597.745 177.983L-147.375 177.983V181.013L597.745 181.013V177.983Z" fill="#7DFF8A"/>
<path d="M597.745 183.91L-147.375 183.91V186.94L597.745 186.94V183.91Z" fill="#7DFF8A"/>
<path d="M597.745 189.846L-147.375 189.846V192.876L597.745 192.876V189.846Z" fill="#7DFF8A"/>
<path d="M597.745 195.774L-147.375 195.774V198.804L597.745 198.804V195.774Z" fill="#7DFF8A"/>
<path d="M597.745 201.71L-147.375 201.71V204.74L597.745 204.74V201.71Z" fill="#7DFF8A"/>
<path d="M597.745 207.635L-147.375 207.635V210.665L597.745 210.665V207.635Z" fill="#7DFF8A"/>
<path d="M597.745 213.57L-147.375 213.57V216.6L597.745 216.6V213.57Z" fill="#7DFF8A"/>
<path d="M597.745 219.506L-147.375 219.506V222.536L597.745 222.536V219.506Z" fill="#7DFF8A"/>
<path d="M597.745 225.434L-147.375 225.434V228.464L597.745 228.464V225.434Z" fill="#7DFF8A"/>
<path d="M597.745 231.37L-147.375 231.37V234.4L597.745 234.4V231.37Z" fill="#7DFF8A"/>
<path d="M597.745 237.297L-147.375 237.297V240.327L597.745 240.327V237.297Z" fill="#7DFF8A"/>
<path d="M597.745 243.233L-147.375 243.233V246.263L597.745 246.263V243.233Z" fill="#7DFF8A"/>
<path d="M597.745 249.158L-147.375 249.158V252.189L597.745 252.189V249.158Z" fill="#7DFF8A"/>
<path d="M597.745 255.094L-147.375 255.094V258.124L597.745 258.124V255.094Z" fill="#7DFF8A"/>
<path d="M597.745 261.029L-147.375 261.029V264.059L597.745 264.059V261.029Z" fill="#7DFF8A"/>
<path d="M597.745 266.957L-147.375 266.957V269.987L597.745 269.987V266.957Z" fill="#7DFF8A"/>
<path d="M597.745 272.893L-147.375 272.893V275.923L597.745 275.923V272.893Z" fill="#7DFF8A"/>
<path d="M597.745 278.821L-147.375 278.821V281.851L597.745 281.851V278.821Z" fill="#7DFF8A"/>
<path d="M597.745 284.757L-147.375 284.757V287.787L597.745 287.787V284.757Z" fill="#7DFF8A"/>
<path d="M597.745 290.684L-147.375 290.684V293.714L597.745 293.714V290.684Z" fill="#7DFF8A"/>
<path d="M597.745 296.618L-147.375 296.618V299.648L597.745 299.648V296.618Z" fill="#7DFF8A"/>
<path d="M597.745 302.545L-147.375 302.545V305.576L597.745 305.576V302.545Z" fill="#7DFF8A"/>
<path d="M597.745 308.481L-147.375 308.481V311.511L597.745 311.511V308.481Z" fill="#7DFF8A"/>
<path d="M597.745 314.417L-147.375 314.417V317.447L597.745 317.447V314.417Z" fill="#7DFF8A"/>
<path d="M597.745 320.345L-147.375 320.345V323.375L597.745 323.375V320.345Z" fill="#7DFF8A"/>
<path d="M597.745 326.281L-147.375 326.281V329.311L597.745 329.311V326.281Z" fill="#7DFF8A"/>
<path d="M597.745 332.208L-147.375 332.208V335.239L597.745 335.239V332.208Z" fill="#7DFF8A"/>
<path d="M597.745 338.142L-147.375 338.142V341.172L597.745 341.172V338.142Z" fill="#7DFF8A"/>
<path d="M597.745 344.069L-147.375 344.069V347.099L597.745 347.099V344.069Z" fill="#7DFF8A"/>
<path d="M597.745 350.005L-147.375 350.005V353.035L597.745 353.035V350.005Z" fill="#7DFF8A"/>
<path d="M597.745 355.94L-147.375 355.94V358.97L597.745 358.97V355.94Z" fill="#7DFF8A"/>
<path d="M597.745 361.868L-147.375 361.868V364.898L597.745 364.898V361.868Z" fill="#7DFF8A"/>
<path d="M597.745 367.804L-147.375 367.804V370.835L597.745 370.835V367.804Z" fill="#7DFF8A"/>
<path d="M597.745 373.729L-147.375 373.729V376.759L597.745 376.759V373.729Z" fill="#7DFF8A"/>
<path d="M597.745 379.664L-147.375 379.664V382.694L597.745 382.694V379.664Z" fill="#7DFF8A"/>
<path d="M597.745 385.593L-147.375 385.593V388.623L597.745 388.623V385.593Z" fill="#7DFF8A"/>
<path d="M597.745 391.529L-147.375 391.529V394.559L597.745 394.559V391.529Z" fill="#7DFF8A"/>
<path d="M597.745 397.457L-147.375 397.457V400.487L597.745 400.487V397.457Z" fill="#7DFF8A"/>
<path d="M597.745 403.392L-147.375 403.392V406.422L597.745 406.422V403.392Z" fill="#7DFF8A"/>
<path d="M597.745 409.327L-147.375 409.327V412.357L597.745 412.357V409.327Z" fill="#7DFF8A"/>
<path d="M597.745 415.255L-147.375 415.255V418.285L597.745 418.285V415.255Z" fill="#7DFF8A"/>
<path d="M597.745 421.188L-147.375 421.188V424.218L597.745 424.218V421.188Z" fill="#7DFF8A"/>
<path d="M597.745 427.116L-147.375 427.116V430.146L597.745 430.146V427.116Z" fill="#7DFF8A"/>
<path d="M597.745 433.053L-147.375 433.053V436.083L597.745 436.083V433.053Z" fill="#7DFF8A"/>
<path d="M597.745 438.98L-147.375 438.98V442.01L597.745 442.01V438.98Z" fill="#7DFF8A"/>
<path d="M597.745 444.916L-147.375 444.916V447.946L597.745 447.946V444.916Z" fill="#7DFF8A"/>
<path d="M597.745 450.851L-147.375 450.851V453.881L597.745 453.881V450.851Z" fill="#7DFF8A"/>
<path d="M597.745 456.779L-147.375 456.779V459.809L597.745 459.809V456.779Z" fill="#7DFF8A"/>
<path d="M597.745 462.712L-147.375 462.712V465.742L597.745 465.742V462.712Z" fill="#7DFF8A"/>
<path d="M597.745 468.64L-147.375 468.64V471.67L597.745 471.67V468.64Z" fill="#7DFF8A"/>
<path d="M597.745 474.575L-147.375 474.575V477.605L597.745 477.605V474.575Z" fill="#7DFF8A"/>
<path d="M597.745 480.503L-147.375 480.503V483.533L597.745 483.533V480.503Z" fill="#7DFF8A"/>
<path d="M597.745 486.439L-147.375 486.439V489.47L597.745 489.47V486.439Z" fill="#7DFF8A"/>
<path d="M597.745 492.367L-147.375 492.367V495.398L597.745 495.398V492.367Z" fill="#7DFF8A"/>
<path d="M597.745 498.303L-147.375 498.303V501.333L597.745 501.333V498.303Z" fill="#7DFF8A"/>
<path d="M597.745 504.236L-147.375 504.236V507.266L597.745 507.266V504.236Z" fill="#7DFF8A"/>
<path d="M597.745 510.164L-147.375 510.164V513.194H597.745V510.164Z" fill="#7DFF8A"/>
<path d="M597.745 516.099H-147.375V519.129H597.745V516.099Z" fill="#7DFF8A"/>
<path d="M597.745 522.027H-147.375V525.057H597.745V522.027Z" fill="#7DFF8A"/>
<path d="M597.745 527.962H-147.375V530.993H597.745V527.962Z" fill="#7DFF8A"/>
<path d="M597.745 533.89H-147.375V536.921H597.745V533.89Z" fill="#7DFF8A"/>
<path d="M597.745 539.827H-147.375V542.857H597.745V539.827Z" fill="#7DFF8A"/>
<path d="M597.745 545.751H-147.375V548.781H597.745V545.751Z" fill="#7DFF8A"/>
<path d="M597.745 551.688H-147.375V554.718H597.745V551.688Z" fill="#7DFF8A"/>
<path d="M597.745 557.623H-147.375V560.653H597.745V557.623Z" fill="#7DFF8A"/>
<path d="M597.745 563.551H-147.375V566.581H597.745V563.551Z" fill="#7DFF8A"/>
<path d="M597.745 569.486H-147.375V572.516H597.745V569.486Z" fill="#7DFF8A"/>
<path d="M597.745 575.412H-147.375V578.442H597.745V575.412Z" fill="#7DFF8A"/>
<path d="M597.745 581.351H-147.375V584.381H597.745V581.351Z" fill="#7DFF8A"/>
<path d="M597.745 587.275H-147.375V590.306H597.745V587.275Z" fill="#7DFF8A"/>
<path d="M597.745 593.21H-147.375V596.241H597.745V593.21Z" fill="#7DFF8A"/>
<path d="M597.745 599.147H-147.375V602.177H597.745V599.147Z" fill="#7DFF8A"/>
<path d="M597.745 605.075H-147.375V608.105H597.745V605.075Z" fill="#7DFF8A"/>
<path d="M597.745 611.01H-147.375V614.04H597.745V611.01Z" fill="#7DFF8A"/>
<path d="M597.745 616.938H-147.375V619.968H597.745V616.938Z" fill="#7DFF8A"/>
<path d="M597.745 622.871H-147.375V625.901H597.745V622.871Z" fill="#7DFF8A"/>
<path d="M597.747 628.799H-147.373V631.829H597.747V628.799Z" fill="#7DFF8A"/>
<path d="M597.745 634.738H-147.375V637.768H597.745V634.738Z" fill="#7DFF8A"/>
<path d="M597.745 640.67H-147.375V643.7H597.745V640.67Z" fill="#7DFF8A"/>
<path d="M597.747 646.598H-147.373V649.628H597.747V646.598Z" fill="#7DFF8A"/>
<path d="M597.747 652.534H-147.373V655.564H597.747V652.534Z" fill="#7DFF8A"/>
<path d="M597.747 658.462H-147.373V661.492H597.747V658.462Z" fill="#7DFF8A"/>
<path d="M597.747 664.397H-147.373V667.428H597.747V664.397Z" fill="#7DFF8A"/>
<path d="M597.747 670.323H-147.373V673.353H597.747V670.323Z" fill="#7DFF8A"/>
<path d="M597.747 676.258H-147.373V679.288H597.747V676.258Z" fill="#7DFF8A"/>
<path d="M597.747 682.186H-147.373V685.216H597.747V682.186Z" fill="#7DFF8A"/>
<path d="M597.747 688.121H-147.373V691.151H597.747V688.121Z" fill="#7DFF8A"/>
<path d="M597.747 694.058H-147.373V697.088H597.747V694.058Z" fill="#7DFF8A"/>
<path d="M597.747 699.986H-147.373V703.016H597.747V699.986Z" fill="#7DFF8A"/>
<path d="M597.747 705.918H-147.373V708.948H597.747V705.918Z" fill="#7DFF8A"/>
<path d="M597.747 711.849H-147.373V714.879H597.747V711.849Z" fill="#7DFF8A"/>
<path d="M597.747 717.782H-147.373V720.812H597.747V717.782Z" fill="#7DFF8A"/>
<path d="M597.747 723.71H-147.373V726.74H597.747V723.71Z" fill="#7DFF8A"/>
<path d="M597.747 729.646H-147.373V732.676H597.747V729.646Z" fill="#7DFF8A"/>
<path d="M597.747 735.573H-147.373V738.603H597.747V735.573Z" fill="#7DFF8A"/>
<path d="M597.747 741.509H-147.373V744.539H597.747V741.509Z" fill="#7DFF8A"/>
<path d="M597.747 747.445H-147.373V750.475H597.747V747.445Z" fill="#7DFF8A"/>
<path d="M597.747 753.373H-147.373V756.403H597.747V753.373Z" fill="#7DFF8A"/>
<path d="M597.747 759.306H-147.373V762.336H597.747V759.306Z" fill="#7DFF8A"/>
<path d="M597.747 765.234H-147.373V768.264H597.747V765.234Z" fill="#7DFF8A"/>
<path d="M597.747 771.169H-147.373V774.2H597.747V771.169Z" fill="#7DFF8A"/>
<path d="M597.747 777.097H-147.373V780.127H597.747V777.097Z" fill="#7DFF8A"/>
<path d="M597.747 783.032H-147.373V786.063H597.747V783.032Z" fill="#7DFF8A"/>
<path d="M597.747 788.968H-147.373V791.998H597.747V788.968Z" fill="#7DFF8A"/>
<path d="M597.747 794.894H-147.373V797.924H597.747V794.894Z" fill="#7DFF8A"/>
<path d="M597.747 800.829H-147.373V803.859H597.747V800.829Z" fill="#7DFF8A"/>
<path d="M597.747 806.757H-147.373V809.787H597.747V806.757Z" fill="#7DFF8A"/>
<path d="M597.747 812.693H-147.373V815.723H597.747V812.693Z" fill="#7DFF8A"/>
<path d="M597.747 818.621H-147.373V821.651H597.747V818.621Z" fill="#7DFF8A"/>
<path d="M597.747 824.556H-147.373V827.586H597.747V824.556Z" fill="#7DFF8A"/>
<path d="M597.747 830.484H-147.373V833.514H597.747V830.484Z" fill="#7DFF8A"/>
<path d="M597.747 836.419H-147.373V839.45H597.747V836.419Z" fill="#7DFF8A"/>
<path d="M597.747 842.355H-147.373V845.385H597.747V842.355Z" fill="#7DFF8A"/>
<path d="M597.747 848.281H-147.373V851.311H597.747V848.281Z" fill="#7DFF8A"/>
</g>
</svg>
