<svg width="385" height="564" viewBox="0 0 385 564" fill="none" xmlns="http://www.w3.org/2000/svg">
<mask id="mask0_59_169665" style="mask-type:luminance" maskUnits="userSpaceOnUse" x="-20" y="0" width="405" height="564">
<path d="M321.9 350.493C322.715 354.502 326.307 358.715 320.821 362.398C318.345 358.791 315.717 355.511 315.197 363.376C315.182 363.615 314.896 363.931 314.657 364.043C312.616 364.997 311.501 366.744 311.31 369.284C317.983 370.787 323.423 366.32 329.653 365.337C328.971 368.709 325.242 368.261 323.632 370.375C327.458 373.253 331.874 372.555 336.112 372.855C331.166 374.358 325.797 377.134 321.824 371.969C320.082 369.702 319.542 369.865 317.525 370.991C313.078 373.466 308.346 374.394 303.109 373.935C298.235 373.507 292.056 374.414 289.621 377.924C285.663 383.634 282.964 383.786 279.051 379.11C276.978 379.976 277.559 383.038 274.686 383.022C275.022 381.657 275.318 380.445 275.853 378.265C272.119 381.296 269.215 381.01 266.322 378.255C265.334 377.312 262.593 375.652 262.853 378.993C263.301 384.8 259.42 385.946 255.386 387.25C254.082 387.673 252.63 387.8 252.885 389.787C254.703 391.152 256.837 389.7 259.833 390.561C254.326 392.471 253.639 396.918 252.263 400.876C251.469 399.302 252.931 397.412 251.143 395.793C248.015 398.452 250.898 402.883 248.957 404.839C244.19 409.632 246.385 415.597 245.061 421.694C244.062 417.635 243.242 414.314 242.427 410.997C241.515 416.061 233.126 415.118 234.017 421.231C236.595 422.158 236.722 418.455 238.938 419.056C238.749 427.644 239.712 428.342 246.711 424.898C246.879 424.817 247.129 424.853 247.261 424.741C251.046 421.491 253.134 421.577 252.36 427.318C252.253 428.102 252.014 428.953 253.002 429.279C254.026 429.615 254.902 429.167 255.554 428.362C256.837 426.778 256.404 425.168 255.747 423.442C254.922 421.277 254.688 419.137 258.014 417.049C256.241 423.314 259.038 426.243 264.458 429.172C262.502 421.19 266.765 415.786 268.156 409.699C265.319 415.668 271.156 418.2 273.183 422.229C273.586 423.024 274.757 422.779 275.083 422.036C276.393 419.005 277.788 415.383 276.683 412.602C275.639 409.974 272.628 407.508 268.762 408.614C264.977 403.571 260.286 398.752 264.488 391.702C264.641 391.442 265.028 391.325 265.339 391.116C267.55 392.446 268.355 394.402 269.343 396.862C270.978 400.917 269.908 407.182 276 408.349C278.44 408.817 279.352 411.089 280.743 411.466C283.921 412.322 284.823 419.3 290.497 414.13C289.453 417.212 288.725 419.356 287.996 421.501C283.972 420.482 282.215 416.723 279.26 413.769C276.235 417.838 276.657 421.516 280.029 424.15C283.453 426.824 285.811 423.645 288.067 421.363C291.226 423.951 291.378 420.711 292.244 419.122C292.586 418.496 292.306 417.558 292.57 416.86C292.84 416.152 292.988 415.108 294.837 415.093C291.592 424.511 293.197 435.015 285.271 443.822C283.524 437.877 289.229 433.97 287.803 428.928C285.5 433.935 280.483 438.545 281.206 443.73C281.945 448.987 286.707 453.363 290.991 457.137C287.395 458.074 286.152 457.825 284.527 455.853C279.001 449.16 278.557 449.629 270.723 452.884C266.404 454.682 263.862 461.467 257.372 458.084C256.303 457.524 255.024 459.271 255.1 460.825C255.284 464.492 257.428 464.727 260.352 463.815C261.58 463.433 263.658 462.149 263.684 464.864C263.704 467.35 263.444 467.05 265.507 467.416C270.957 468.384 273.28 462.582 278.094 462.363C277.574 459.867 273.688 458.584 276.652 455.436C278.262 457.82 280.513 458.726 283.116 458.747C286.626 458.772 288.378 462.373 288.658 464.024C289.045 466.296 285.521 467.426 282.948 467.783C281.053 468.043 279.123 467.895 277.208 467.87C270.137 467.773 264.32 472.439 257.372 473.468C269.312 476.555 280.228 467.044 292.046 471.232C288.602 478.281 286.198 479.239 278.934 476.336C276.423 475.332 273.127 473.238 271.283 474.904C267.183 478.607 262.695 480.023 257.27 480.146C266.358 479.382 274.976 486.89 284.701 479.31C282.536 486.533 277.085 486.554 271.416 488.927C286.886 492.101 301.612 489.849 316.012 495.722C309.838 495.722 304.734 495.722 298.861 495.722C302.727 498.55 306.884 496.96 310.45 498.127C308.387 504.051 303.171 499.894 299.681 502.018C303.018 504.341 306.67 502.782 310.338 503.75C306.92 506.531 304.052 507.489 300.379 505.523C296.829 503.623 296.212 499.66 293.671 497.118C297.155 495.07 295.275 494.454 292.84 494.362C285.098 494.082 277.36 493.777 269.699 492.483C268.181 492.228 265.319 492.651 265.66 493.532C267.784 498.998 262.14 497.434 261.422 497.332C257.296 496.736 259.858 500.337 258.605 501.55C257.851 502.278 256.736 505.034 259.323 506.384C260.215 506.847 261.982 506.7 261.712 508.33C261.463 509.827 260.103 510.474 258.692 510.668C250.384 511.809 242.05 512.787 233.768 514.096C231.338 514.478 227.793 515.059 230.548 519.047C231.389 520.259 231.7 521.528 230.319 521.747C225.358 522.536 221.094 527.294 215.461 524.289C208.345 520.489 200.684 522.928 193.267 522.572C191.871 522.506 189.961 523.346 191.418 524.89C193.012 526.581 193.822 529.713 197.683 528.71C202.1 527.559 206.445 529.515 210.835 530.039C201.85 532.337 194.163 536.544 187.19 542.203C187.689 541.388 188.188 540.573 188.683 539.758C190.236 537.191 189.172 534.95 187.689 532.861C186.543 531.247 185.316 532.296 184.251 533.086C182.728 534.216 180.431 535.688 181.918 537.558C183.298 539.285 182.774 544.098 187.368 542.045C190.379 544.959 194.255 544.786 198.019 545.02C197.49 547.516 197.138 550.43 193.476 549.416C187.883 547.863 182.351 549.217 176.799 549.401C174.883 549.462 172.566 550.313 171.231 548.785C169.377 546.66 173.666 546.177 173.009 543.956C170.401 543.349 167.869 543.619 165.144 544.078C162.103 544.592 158.553 548.642 155.731 542.208C154.208 538.734 148.447 545.723 145.019 541.663C143.012 539.29 140.938 540.049 138.728 540.818C136.981 541.424 135.3 541.658 133.858 540.207C132.967 539.31 132.04 538.571 130.888 539.606C128.301 541.918 128.336 545.137 128.24 548.209C128.143 551.357 130.97 550.165 132.539 550.807C133.522 551.209 135.244 550.628 135.279 552.228C135.325 554.138 133.527 553.955 132.238 554.097C125.927 554.785 120.146 558.025 113.417 557.357C114.634 560.47 118.22 557.923 119.224 560.755C116.84 562.543 113.946 562.395 112.011 561.3C108.466 559.293 104.773 559.848 101.94 561.157C98.0793 562.945 96.76 560.775 95.2727 558.559C94.2284 557.001 94.0858 554.719 91.4014 555.172C89.0073 555.58 87.6829 556.95 87.4486 559.456C87.3416 560.617 86.7711 562.1 85.5129 562.008C83.7352 561.876 83.7862 560.083 83.9441 558.799C84.5146 554.143 83.1902 548.983 80.0473 546.915C77.48 545.224 77.7296 542.478 77.8366 542.163C79.1508 538.251 76.4205 537.976 74.2557 538.485C68.8257 539.758 69.4777 535.79 69.4471 533.009C69.3962 528.73 69.3503 524.395 70.7766 520.203C71.1536 519.098 71.6222 517.249 70.0125 516.576C66.5539 515.125 67.6338 514.279 70.2316 513.337C73.9602 511.982 76.2779 509.399 77.2152 505.482C78.2034 501.356 80.0677 498.101 84.9017 497.347C87.306 496.976 88.0802 494.541 88.8596 492.457C85.243 491.327 88.9665 490.155 88.8698 488.988C88.7679 487.751 95.5579 484.694 87.8917 485.474C87.6676 485.499 87.1226 484.654 87.1277 484.221C87.143 483.273 88.0293 483.217 88.7475 482.901C91.2587 481.796 94.8753 481.175 95.9297 479.214C98.2372 474.94 104.36 472.597 102.44 465.832C101.793 463.56 104.365 460.881 106.927 458.92C111.018 455.787 114.293 451.615 119.117 449.333C119.82 449.002 120.584 447.78 120.533 447.026C120.156 441.377 123.024 437.047 126.375 433.125C132.676 425.754 138.952 418.45 140.949 407.916C137.103 411.273 134.607 414.935 132.029 418.552C130.476 420.732 129.157 423.263 126.452 424.308C122.698 425.754 120.36 428.846 117.578 431.48C115.51 433.436 117.023 435.932 116.32 437.511C114.461 441.693 111.573 445.488 107.783 448.325C102.394 452.359 98.3646 457.213 96.0826 463.764C94.7836 467.493 93.0518 471.634 88.1974 473.626C87.7542 469.775 89.8121 467.304 91.0041 464.559C91.7172 462.913 93.5255 461.197 91.3861 459.388C87.6676 456.251 88.7169 452.12 89.8427 448.641C91.3148 444.082 93.714 439.777 96.0826 435.57C99.582 429.355 102.058 422.815 103.759 415.913C99.4597 418.791 97.6871 423.314 95.3898 427.461C91.4625 434.551 87.4893 441.392 80.9795 446.781C73.5324 452.95 65.8051 460.423 66.2381 470.62C66.6557 480.436 63.0341 487.919 58.4089 495.605C58.0065 496.268 57.2271 496.981 57.2883 497.602C57.5837 500.495 56.7229 504.193 61.73 504.611C59.8046 505.89 58.1695 506.924 57.3239 509.104C55.6226 513.469 50.0704 514.391 48.4709 510.306C47.0141 506.593 44.4774 508.763 42.0629 507.576C47.4929 501.351 47.3961 493.211 51.3285 486.635C53.5443 482.932 53.1317 482.728 49.347 479.422C48.8631 479 48.5015 477.981 48.6492 477.375C49.3929 474.278 48.2009 471.537 47.3146 468.725C46.7645 466.978 47.279 463.993 45.0224 463.978C42.4144 463.963 42.8015 467.141 42.1292 469.026C41.4415 470.956 42.2871 472.846 42.6436 474.741C43.1428 477.415 43.6063 480.11 43.0155 482.82C42.7557 484.027 42.0935 485.031 40.6061 484.664C39.6281 484.424 38.4005 483.518 38.7876 482.764C41.9356 476.646 34.3407 471.119 37.9115 464.997C38.3343 464.273 37.8555 463.046 36.8673 462.521C36.0268 462.073 35.0895 462.572 34.9316 463.224C33.541 468.965 25.4826 470.304 25.7883 477.252C25.8392 478.424 25.34 480.512 23.2516 480.609C22.2583 480.655 21.3872 480.222 21.0052 479.132C20.4704 477.594 19.5891 476.585 21.4076 474.69C23.8832 472.113 22.9561 470.585 19.421 469.724C20.8575 466.754 20.8269 462.908 24.8052 461.757C23.5521 459.791 21.9781 461.11 20.8473 460.468L20.9645 460.58C20.6996 457.173 18.3615 457.809 16.1814 458.125L16.3036 458.268C16.9811 453.388 11.7803 455.858 10.3999 453.551C7.43535 455.456 3.36032 456.154 2.74906 460.606C2.74906 460.606 2.73378 460.326 2.73378 460.321C1.43996 460.504 -1.94741 458.828 -2.56885 456.541C-3.8423 451.834 -5.93075 454.412 -6.83745 456.083C-10.1382 462.149 -12.7106 457.916 -14.1012 455.268C-16.7245 450.266 -16.2508 444.443 -16.4189 438.952C-16.7245 429.101 -16.5055 419.229 -16.5055 409.092C-19.1746 410.014 -18.6194 411.762 -18.6245 413.157C-18.6958 425.907 -18.7213 438.662 -18.7467 451.417C-18.7467 453.556 -18.655 455.685 -16.9996 457.346L-16.9741 457.264C-19.3223 459.643 -18.7264 462.659 -18.7264 465.526C-18.7365 495.559 -19.5515 395.37 -19.5363 320.338C-19.5363 303.086 -20.285 285.777 -19.2255 268.585C-18.2068 252.015 -23.163 235.257 -16.2355 218.676C-13.9178 213.129 -15.609 205.371 -15.6191 198.622C-15.6395 187.365 -15.502 176.072 -13.872 164.815C-13.2047 160.2 -12.8532 155.162 -12.0331 150.735C-10.8666 144.409 -13.6733 137.93 -10.5457 131.965C-13.6784 130.518 -9.45566 128.465 -10.9532 126.683C-12.2776 127.07 -13.5409 127.442 -15.0283 127.875C-15.9808 123.693 -13.4899 119.312 -12.3031 116.78C-9.909 111.666 -16.2559 115.364 -14.4374 114.162C-10.7189 111.712 -13.0264 109.45 -13.1232 106.562C-13.2505 102.839 -12.2827 99.1506 -12.5068 95.0196C-12.8226 89.2228 -13.2251 83.3039 -13.3575 77.4307C-13.5307 69.5201 -16.2559 61.5687 -13.2251 52.3387C-13.1079 57.081 -10.7036 59.4191 -9.29775 62.2105C-10.3878 64.956 -8.93609 67.233 -8.24333 70.0498C-5.41628 65.6692 -5.8951 63.377 -9.46584 62.3735C-4.0868 58.9555 -6.54201 54.1114 -7.54548 49.8682C-9.51678 41.5195 -7.72886 33.2625 -7.99883 24.9443C-6.88838 28.1381 -6.52672 31.3625 -6.1345 34.5869C-5.08009 43.2259 -4.95784 52.1095 -2.75223 60.4429C1.62843 76.9876 4.48095 93.6697 5.48443 110.719C5.60159 112.67 4.36379 115.598 6.72731 116.464C9.30477 117.402 11.2761 115.074 13.1047 113.332C18.3615 108.314 23.6489 103.328 29.1807 98.086C28.1263 101.3 26.0073 103.689 24.036 106.17C22.3602 108.284 19.9661 110.184 19.2122 112.593C17.6178 117.687 17.9795 117.804 13.8332 120.081C12.1369 121.013 10.3999 121.874 8.7088 122.811C5.61687 124.523 4.48095 127.08 5.18899 130.579C5.60668 132.652 5.84609 134.777 5.94287 136.891C6.21284 142.728 6.9871 143.202 12.5444 140.69C15.3103 139.443 17.8471 137.324 21.2293 138.358L21.102 138.215C19.3599 143.625 14.8061 146.446 10.4865 149.33C7.61873 151.245 7.74098 153.725 8.11792 156.466C8.34204 158.086 9.70718 159.278 10.9399 158.631C16.65 155.641 23.5623 158.346 28.9413 154.897C32.7515 152.452 36.7348 150.618 40.9983 149.518C46.4742 148.107 49.2044 142.962 53.6105 140.324C54.8636 147.939 44.9817 146.91 43.5911 153.685C51.7564 150.053 57.0183 144.124 63.8491 139.04C63.3346 142.484 61.5772 144.557 59.825 145.978C53.2744 151.291 46.8918 156.772 40.5399 162.309C38.5329 164.061 36.7705 168.895 32.1504 166.103C31.8957 165.951 30.1842 167.387 29.8327 168.334C28.218 172.725 31.259 177.595 35.9911 178.629C37.0812 178.868 38.8997 177.972 38.9965 180.208C35.6906 181.889 31.4882 177.682 28.7681 181.655C26.8274 184.492 23.98 187.024 23.7915 192.066C33.4239 186.825 42.4602 182.47 52.5256 179.205C51.4813 183.682 49.2859 185.796 45.9444 187.034C43.9935 187.757 41.5332 188.353 40.7997 190.498C40.1222 192.479 39.8777 192.112 38.0337 191.613C32.0129 189.993 19.5993 195.352 16.7315 200.502C16.1203 201.597 15.9369 203.477 16.4666 204.536C17.2409 206.079 18.8047 205.025 20.0272 204.546C21.9425 203.792 23.8679 203.049 27.1992 201.755C23.7915 205.091 23.0173 208.041 22.0494 210.633C25.0548 212.406 28.162 206.762 29.4507 210.323C31.0298 214.698 36.0115 216.084 36.9946 220.709C37.6364 218.681 38.2833 216.654 39.0983 214.082C39.3989 216.191 38.4667 218.06 40.2801 219.44C44.187 215.926 44.5487 210.068 48.8784 206.788C50.106 210.944 45.1701 213.032 47.1363 217.5C51.8532 210.124 57.1864 204.001 63.7625 199.147C66.0852 205.356 59.1984 208.198 58.1542 213.257C58.9132 213.46 59.3309 213.73 59.6314 213.634C72.1621 209.604 81.7843 201.164 90.6526 192.031C92.2266 190.406 92.8225 187.426 95.5579 186.244C98.222 185.093 100.754 183.631 103.387 182.398C104.732 181.767 106.428 180.534 107.549 182.078C108.094 182.826 107.538 184.752 106.943 185.852C106.036 187.533 104.671 188.969 103.489 190.498C96.3576 199.733 86.9443 206.426 76.9452 211.82C71.3318 214.846 70.4251 218.778 70.257 223.847C70.2316 224.539 70.8989 225.227 70.527 226.322C68.8308 231.263 71.8259 232.246 75.8704 232.567C77.4902 232.695 79.3851 229.842 80.8368 233.026C78.9623 233.795 77.531 235.445 75.1369 234.849C70.9804 233.81 70.5627 236.377 71.0568 239.49C71.7342 243.763 72.6511 248.006 71.6375 252.469C74.4696 252.387 75.1624 250.227 76.6243 249.102C78.4682 247.675 78.3511 243.122 81.4074 244.476C83.562 245.434 80.6331 248.531 80.8572 250.752C80.8827 251.012 81.336 251.231 82.1256 251.964C83.9033 247.324 90.2858 247.263 91.4014 242.49C92.196 239.087 94.4322 237.106 96.3882 234.961C98.3544 232.807 101.895 231.655 104.508 232.511C107.34 233.433 105.954 236.861 105.873 239.26C105.659 245.724 99.9997 249.015 97.1523 253.956C96.76 254.639 95.7311 254.97 95.1555 254.2C91.814 249.698 91.8598 254.262 91.381 255.764C90.3062 259.131 89.644 262.631 88.8035 266.12C91.3402 265.906 91.977 262.274 94.2284 262.967C98.9198 264.414 100.244 261.637 101.614 258.225C101.961 257.364 103.244 256.885 104.141 256.192C105.231 258.708 105.542 261.133 105.71 263.787C107.029 260.945 106.927 257.104 111.389 257.354C112.719 260.868 111.751 264.301 110.692 267.358C113.743 268.539 113.167 263.649 115.846 264.862C117.889 265.784 113.682 267.954 115.582 268.759C125.26 268.096 125.983 260.42 128.841 254.18C129.106 257.481 129.376 260.782 129.64 264.123C134.668 261.592 132.855 257.359 132.804 254.027C143.964 255.072 134.179 262.855 136.802 266.68C139.207 266.308 139.191 263.665 141.203 262.692C139.926 268.495 140.368 272.657 142.528 275.177C148.951 268.876 143.99 259.946 147.54 252.84C145.411 252.917 145.92 256.325 143.226 256.151C142.9 252.779 145.263 250.283 145.844 247.309C146.017 246.412 147.306 245.913 147.515 246.427C148.528 248.908 153.439 248.383 152.114 252.657C151.437 254.847 151.274 257.211 150.999 259.508C150.866 260.629 150.724 261.994 152.583 261.846C153.571 261.77 154.85 261.51 154.656 260.354C153.754 254.98 156.857 249.27 152.945 244.069C151.63 242.317 150.209 240.6 152.206 237.203C154.931 232.562 158.105 227.804 159.256 222.288C159.388 221.646 159.21 220.938 159.174 220.291C157.631 220.306 157.947 222.624 156.434 221.977C155.262 217.994 156.449 214.632 158.568 211.418C159.347 210.236 161.166 208.132 159.358 207.562C155.848 206.456 158.349 204.862 158.222 203.339C157.738 197.634 163.463 191.74 157.646 186.153C156.79 185.332 157.819 183.758 158.767 183.183C162.149 181.12 163.545 177.86 164.339 173.194C166.856 183.993 164.884 193.926 166.321 203.701C166.642 205.886 169.178 207.745 167.711 209.92C163.484 216.186 163.02 223.485 161.37 230.519C160.168 235.649 161.329 240.682 160.718 245.806C159.801 253.452 160.478 261.286 160.478 269.003C162.394 268.188 161.008 265.086 163.489 264.51C165.261 267.903 166.193 271.367 164.65 275.065C164.064 276.465 162.725 279.028 162.088 278.493C158.726 275.676 159.872 278.686 159.612 280.102C159.409 281.228 159.261 282.466 158.68 283.398C155.018 289.317 156.897 295.664 156.108 302.637C159.495 300.447 158.502 298.216 158.39 296.224C158.278 294.227 158.746 292.908 161.059 292.562C163.086 292.261 164.925 291.716 165.547 294.508C166.025 296.657 167.762 296.703 169.484 297.508C171.97 298.674 176.87 298.797 176.121 303.147C175.627 306.014 177.115 307.329 178.419 309.208C174.211 308.75 170.391 312.952 171.807 316.228C173.921 321.107 181.118 324.775 187.399 324.077C184.623 321.52 181.368 319.34 181.093 313.803C184.343 317.211 187.964 318.357 189.844 321.683C190.516 322.875 191.428 324.327 192.936 323.15C193.995 322.32 193.165 321.051 192.462 320.084C191.362 318.576 189.92 317.241 189.722 315.25C191.179 314.144 191.948 316.971 193.348 315.683C192.854 311.108 186.182 310.762 186.457 305.658C186.64 305.714 186.834 305.755 187.012 305.826C189.161 306.702 190.45 311.679 193.338 308.205C195.804 305.24 191.739 302.744 190.618 300.06C190.124 298.873 188.667 299.255 187.654 300.146C185.784 301.787 184.154 303.437 186.64 305.841C185.499 305.138 184.434 304.069 183.191 303.794C179.183 302.897 181.317 299.535 181.195 297.757C181.032 295.328 183.894 299.413 185 297.024C182.453 292.302 173.987 293.779 173.401 286.414C176.162 286.704 176.814 289.246 178.806 290.015C184.592 292.261 189.762 295.424 193.18 300.829C194.006 302.133 195.182 302.963 196.522 302.398C198.132 301.72 197.587 300.146 197.164 298.853C196.654 297.289 194.459 295.837 196.822 294.003C198.463 296.026 198.626 300.559 202.028 299.117C211.543 295.093 213.515 290.891 213.545 280.433C213.581 269.558 214.243 258.851 221.094 249.468C223.422 246.275 224.584 242.149 225.888 238.318C227.08 234.824 228.71 231.655 230.941 227.973C234.379 235.445 228.776 241.41 229.193 248.939C235.948 236.24 243.013 224.891 242.524 210.837C242.463 209.11 242.626 206.253 244.903 206.146C247.735 206.013 246.716 208.963 247.118 210.664C247.338 211.591 247.073 212.64 247.332 213.552C247.832 215.33 247.083 218.147 249.243 218.605C251.545 219.094 251.927 216.277 252.762 214.673C255.513 209.406 257.581 203.869 259.67 198.291C265.991 181.39 270.341 163.939 275.15 146.609C275.766 144.383 276.581 141.903 273.117 141.057C267.051 139.58 266.5 133.004 262.257 129.662C264.952 131.593 267.753 132.54 270.866 132.831C272.088 132.948 273.917 132.912 272.959 135.138C272.394 136.447 272.48 137.522 274.151 137.532C275.669 137.543 275.949 136.152 276.036 135.036C276.698 126.764 280.574 118.818 279.459 110.469C278.476 103.103 284.914 100.643 287.711 95.8244C288.658 94.1944 290.023 95.529 291.083 96.4153C292.219 97.3678 291.689 99.6142 294.74 99.9605C294.99 92.8802 293.793 85.5197 297.267 78.9487C299.967 80.6449 295.051 84.0985 298.805 84.9237C300.685 85.3363 304.011 87.0478 304.495 82.1883C305.315 86.2175 302.941 89.6864 304.765 93.8022C308.524 87.6183 309.726 81.083 312.859 75.4543C309.792 87.5215 306.212 99.3697 302.819 111.274C302.305 113.082 300.318 116.057 302.778 116.872C306.828 118.222 304.526 120.163 303.726 121.609C302.391 124.034 301.989 126.749 300.955 129.107C300.114 131.022 302.249 136.381 296.498 134.828C296.202 134.746 295.331 136.264 294.944 137.135C293.604 140.14 292.025 143.095 291.139 146.238C287.838 157.979 285.342 169.949 280.906 181.37C279.958 183.804 279.174 186.163 275.842 187.538C276.55 180.463 279.602 174.956 281.542 169.144C286.881 153.17 287.441 136.412 290.115 120C290.38 118.38 290.681 116.551 288.658 116.215C286.015 115.777 286.514 118.13 286.066 119.735C281.257 137.028 279.785 155.162 272.088 171.758C266.363 184.095 265.522 198.148 258.065 210.216C255.172 214.902 254.499 221.346 250.277 225.889C249.054 227.203 248.927 228.788 250.929 230.219C254.988 233.127 254.673 242.928 250.577 245.653C249.446 246.407 247.455 247.151 247.679 244.991C248.244 239.561 243.533 235.002 245.453 229.358C244.276 235.303 238.76 239.372 239.748 246.438C240.191 249.606 238.795 254.201 233.62 256.34C227.553 258.846 226.947 264.276 230.869 270.149C231.97 268.392 233.294 266.92 233.89 265.188C235.367 260.894 237.318 259.742 240.593 263.583C241.678 264.857 242.58 265.183 243.813 263.629C246.91 259.717 248.178 261.755 248.84 265.916C251.372 262.554 256.308 260.96 253.363 255.627C252.869 254.735 253.511 253.936 254.122 253.075C259.119 246.066 262.043 238.099 265.37 230.229C267.076 226.18 267.137 221.733 269.903 217.714C273.749 212.131 278.145 206.798 280.717 200.104C283.666 192.428 283.02 184.247 285.852 176.663C287.589 172.007 287.161 171.849 291.185 174.87C291.643 171.482 293.39 168.793 294.781 165.915C296.07 163.251 298.591 160.327 297.109 157.271C295.642 154.24 297.022 152.172 297.939 149.691C300.746 142.086 303.884 134.563 306.105 126.784C313.567 100.623 315.951 73.3251 323.688 47.1991C324.875 43.2005 325.812 38.4989 324.86 34.6123C322.13 23.4416 327.774 13.7991 329.388 3.46381C329.531 2.54693 330.152 0.529788 332.032 2.20564C334.059 4.01394 335.216 3.88659 337.386 1.55873C338.185 0.69788 338.934 -0.387093 340.258 0.137567C341.736 0.723353 341.231 2.03755 340.961 3.13271C340.264 5.94958 339.499 8.75626 338.771 11.5629C337.411 16.7892 334.625 22.1478 336.453 27.4097C338.226 32.5086 336.52 36.4767 334.584 40.5822C333.02 43.8983 330.682 46.8374 328.94 50.0771C326.612 54.4017 326.057 58.8282 329.144 63.1274L329.062 63.0611C326.953 63.4024 325.884 65.2005 326.057 66.7643C326.867 74.2318 323.352 80.7519 321.646 87.6081C319.741 95.2692 319.669 102.996 318.513 110.754C321.096 110.698 320.143 106.868 322.608 107.871C324.488 108.635 323.505 110.54 323.434 112.007C321.228 114.661 320.433 118.181 317.892 120.682C316.221 122.322 317.398 124.243 318.151 126.02C319.109 128.272 319.985 130.559 321.33 133.9C324.294 126.153 319.96 118.573 323.332 111.885C325.329 108.803 326.959 108.488 329.592 111.686C333.107 115.955 334.513 120.295 332.776 125.572L332.913 125.394C331.543 130.447 328.176 134.843 329.684 140.792C331.66 148.596 321.686 146.263 320.087 150.97C319.114 153.838 316.934 151.148 315.824 152.753C311.636 158.809 307.261 164.733 303.013 170.749C302.59 171.35 302.468 172.201 302.325 172.96C298.403 193.936 290.477 213.715 284.079 233.953C283.575 235.547 282.49 237.457 283.789 238.909C285.424 240.738 286.331 238.318 287.599 237.804C288.22 237.554 289.137 237.651 289.789 237.916C293.666 239.49 296.742 237.656 299.248 235.231C304.526 230.122 312.742 230.122 317.836 224.55C316.608 226.363 315.375 228.171 313.995 230.209C318.085 231.273 320.841 230.351 324.05 228.176C329.786 224.295 334.961 220.261 337.65 213.659C338.058 212.656 338.781 211.352 340.207 212.253C341.186 212.869 340.849 214.021 340.391 214.887C337.966 219.425 336.372 224.392 330.718 226.607C326.923 228.095 323.688 230.993 319.649 233.627C325.028 234.727 337.742 228.935 340.044 224.962C340.136 224.804 340.437 224.672 340.427 224.555C339.734 218.799 345.123 217.281 347.639 213.705C347.425 218.646 341.99 221.61 343.218 226.989C345.913 227.998 348.245 224.967 351.506 226.495C344.67 231.222 337.075 233.362 329.974 236.566C325.008 238.807 320.051 238.619 316.251 235.685C311.102 231.711 306.609 233.795 302.223 235.781C298.953 237.264 296.019 239.622 292.637 241.089C289.433 242.48 289.804 245.862 290.105 248.052C290.487 250.828 293.747 249.728 295.56 249.407C300.787 248.48 305.921 247.049 311.504 245.714C309.726 248.821 307.128 248.898 304.653 248.883C300.583 248.862 297.16 250.564 293.793 252.509C292.418 253.304 290.884 254.307 292.3 256.126C295.856 260.68 291.068 260.333 289.264 260.782C282.76 262.401 277.651 267.5 276.413 274.306C279.199 274.555 279.729 270.771 283.04 270.592C281.242 275.151 281.884 279.797 279.377 283.826C280.468 283.388 281.344 282.889 281.822 282.135C283.585 279.374 285.189 276.511 286.911 273.72C289.692 269.207 296.712 266.533 301.291 268.198C302.345 268.58 302.921 269.436 302.722 270.445C302.187 273.175 303.441 274.499 305.697 275.931C308.387 277.637 307.964 279.659 304.887 280.958C301.296 282.471 297.654 283.648 293.701 283.474C291.699 283.388 289.738 283.286 289.137 285.879C288.388 289.113 286.402 289.195 283.412 288.828C275.954 287.916 267.3 294.324 266.74 299.983C271.528 300.788 275.664 297.691 280.483 297.554C282.189 297.503 284.492 297.926 285.24 296.127C287.349 291.074 289.662 293.907 291.832 295.786C292.856 296.672 293.447 298.364 294.71 296.173C296.452 293.142 299.554 293.586 302.325 292.878C305.952 291.951 310.098 293.458 313.277 290.682C317.199 287.254 320.968 283.653 324.906 280.245C328.787 276.878 332.465 273.098 338.705 272.182C336.178 282.486 326.658 285.767 321.04 292.664C323.001 291.732 324.957 290.804 327.392 289.648C327.035 290.728 327.009 291.365 326.684 291.706C319.949 298.72 312.136 303.233 301.989 302.714C299.804 302.602 297.608 303.325 295.958 305.429C299.854 306.56 304.332 306.391 303.441 312.743C307.261 310.069 310.409 307.548 313.847 305.515C321.793 300.814 328.976 294.986 336.963 290.305C343.666 286.378 351.984 284.488 355.825 276.409C356.615 274.754 358.958 273.837 360.588 272.579C359.207 274.667 357.562 276.257 356.202 278.172C355.015 279.843 357.318 282.685 355.03 283.429C349.448 285.242 349.02 291.859 344.237 294.329C343.299 294.813 343.029 296.402 343.631 297.518C344.435 299.011 345.602 298.033 346.636 297.696C352.489 295.812 357.511 291.543 364.021 292.159C363.629 293.937 362.452 295.959 360.567 297.284C352.438 303.009 343.763 307.548 333.55 307.869C329.852 307.986 327.071 308.77 324.773 312.132C322.802 315.01 320.067 317.995 316.083 317.995C308.687 317.995 301.561 321.489 293.992 319.498C292.438 319.09 290.543 319.819 288.842 320.19C286.972 320.598 286.264 321.907 286.916 323.685C287.716 325.88 293.39 327.312 295.26 325.865C296.549 324.867 297.792 322.676 298.933 326.064C300.736 331.417 307.347 334.85 313.027 333.501C308.891 336.969 308.657 343.383 312.131 349.271C314.968 354.079 318.421 352.21 321.972 350.595L321.865 350.524L321.9 350.493ZM215.598 482.586C213.739 481.796 213.184 483.986 212.257 485.046C211.635 485.754 211.223 486.686 211.951 487.664C213.601 489.895 214.941 486.757 216.5 487.409C218.364 489.365 220.106 489.085 221.996 487.318C223.371 486.034 224.803 484.7 223.132 483.003C221.466 481.312 220.544 483.156 219.546 484.317C218.542 485.479 217.396 486.513 216.311 487.608C216.632 485.835 218.176 483.676 215.603 482.586H215.598ZM241.052 462.307C239.503 460.458 236.33 458.956 240.288 456.297C241.016 455.808 240.583 454.397 239.809 453.734C238.296 452.441 229.632 455.813 229.881 457.738C230.171 459.984 229.3 461.395 228.485 463.29C226.764 467.284 230.1 470.844 234.379 469.617C237.002 468.863 240.023 468.343 241.928 465.883C243.96 466.754 246.13 467.33 247.954 465.766C249.12 464.768 248.519 463.178 247.872 461.981C247.292 460.906 247.348 459.098 245.371 459.287C243.573 459.455 243.466 460.855 243.171 462.21C242.88 463.525 242.381 464.788 241.974 466.072C242.335 464.65 241.953 463.377 241.052 462.302V462.307ZM243.532 280.286C241.765 277.326 241.042 273.119 236.707 274.051C232.759 274.897 234.104 278.004 235.062 280.586C232.81 279.048 232.484 282.318 230.869 282.384C229.275 280.26 233.788 278.019 230.706 276.195C227.823 274.489 226.341 277.785 224.14 278.508C222.643 276.797 224.405 275.172 224.166 273.297C223.524 273.491 222.938 273.501 222.597 273.796C215.685 279.72 215.634 280.851 221.92 287.651C223.631 289.5 222.943 296.688 220.447 297.645C215.196 299.663 215.802 304.013 215.012 308.215C226.81 304.502 231.206 294.615 235.877 285.028C236.722 283.296 235.683 281.656 234.654 280.199C237.583 281.248 240.441 278.294 243.527 280.291L243.532 280.286ZM130.099 380.185C134.123 379.981 138.529 376.971 141.147 372.87C142.981 369.992 144.871 367.12 148.712 372.224C148.712 370.303 148.87 369.361 148.676 368.5C148.294 366.789 147.438 364.547 149.567 364.023C150.978 363.671 152.547 366.223 154.661 365.265C154.875 366.529 154.569 368.098 156.933 367.237C158.716 366.585 159.388 365.556 159.449 363.844C159.48 363.07 159.617 362.291 159.556 361.527C159.118 356.173 160.611 353.366 166.28 356.652C168.725 358.068 170.61 356.142 171.19 355.057C172.393 352.816 173.391 349.77 172.815 347.478C172.296 345.415 170.498 347.305 169.555 348.41C168.776 349.327 168.689 351.115 166.642 350.259C164.757 349.47 166.942 347.651 165.526 346.785C163.575 347.6 162.174 352.434 159.251 347.396C158.39 345.909 157.391 349.414 154.539 349.128C153.994 349.037 154.676 347.493 154.325 346.541C153.632 344.666 152.746 343.418 150.505 344.483C148.431 345.471 149.252 346.958 149.771 348.41C151.14 352.227 150.564 355.596 148.044 358.516C148.661 353.188 146.644 348.741 147.683 343.495C144.657 344.361 143.475 345.817 143.042 348.359C142.589 351.033 143.827 354.818 138.371 354.462C136.227 354.324 139.497 356.616 138.763 357.976C131.591 358.475 131.785 352.556 130.374 347.697C125.947 350.167 125.402 354.309 127.878 356.901C130.792 359.963 127.216 363.707 130.359 366.05C128.01 368.072 125.362 364.394 122.85 367.16C126.411 368.255 129.218 370.252 131.342 373.237C129.136 374.149 127.521 371.072 125.377 372.397C124.939 372.667 124.373 373.635 124.445 373.706C128.438 377.74 117.864 381.184 124.404 385.62C124.536 381.713 125.734 380.414 130.104 380.19L130.099 380.185ZM49.2146 260.507C52.388 257.715 51.9805 260.206 52.2148 262.34C52.2454 262.605 54.8381 263.109 55.8518 262.641C58.0269 261.642 61.8625 260.817 61.3429 258.316C60.3598 253.559 63.6708 250.553 64.5775 246.657C64.9697 244.955 65.5606 243.356 63.0341 243.6C60.0949 243.886 60.2223 241.405 58.9234 240.035C52.8923 233.683 59.5652 229.98 62.107 226.073C63.2531 224.315 63.2378 223.48 62.8201 222.054C62.0764 219.517 60.8488 221.463 59.7995 221.789C50.6205 224.641 49.3114 226.765 51.5425 236.983C52.1028 239.551 51.7258 241.43 50.4626 243.478C47.3656 248.506 45.379 255.708 45.2669 262.233C46.8969 261.444 45.9189 255.948 49.2146 260.507ZM132.574 312.998C133.232 314.913 134.602 317.104 130.761 318.316C128.591 319.004 129.88 321.754 131.586 322.855C132.748 323.603 134.199 323.741 133.512 325.641C132.865 327.429 131.342 327.184 130.099 326.874C128 326.354 126.615 326.858 126.304 329.038C125.953 331.55 128.464 331.295 129.508 331.305C131.546 331.331 135.162 335.594 135.565 329.247C135.702 327.042 138.534 330.475 140.312 328.427C141.234 325.457 134.867 325.157 136.95 321.321C139.594 321.219 143.847 324.347 144.249 318.117C139.634 319.055 136.42 316.9 136.843 311.765C137.189 307.568 135.228 306.137 132.31 304.471C131.856 307.385 131.581 310.125 132.569 312.993L132.574 312.998ZM188.81 362.423C191.561 363.06 191.54 360.324 192.732 359.031C197.245 354.125 194.688 346.729 198.926 341.671C200.062 340.316 198.508 339.216 197.373 338.492C196.237 337.774 194.846 338.014 194.316 339.094C191.423 344.977 185.341 349.536 186.905 357.319C187.338 358.959 185.743 361.715 188.81 362.423ZM148.1 329.303C147.362 330.541 149.201 331.504 150.352 332.258C152.277 333.511 154.315 332.635 154.885 331.213C156.388 327.485 162.5 327.76 162.017 322.63C161.976 322.187 161.324 321.393 161.069 321.438C154.513 322.534 154.62 317.74 154.269 312.102C149.231 317.924 151.034 324.388 148.095 329.303H148.1ZM-18.2985 319.747C-12.8328 307.196 -14.7939 294.34 -16.5055 281.615C-19.4395 294.329 -18.4818 307.043 -18.2985 319.747ZM140.77 291.543C142.472 296.362 136.252 299.841 138.621 304.685C139.889 307.283 142.808 306.921 145.146 308.225C145.538 306.065 145.691 304.12 146.267 302.311C147.138 299.591 141.881 300.08 143.669 296.362C144.779 294.054 146.012 289.898 142.171 288.202C140.923 287.651 140.872 284.906 138.779 286.276C137.276 287.259 137.994 288.584 138.213 289.923C138.386 290.998 138.06 292.149 137.959 293.27C139.4 293.275 139.258 291.115 140.77 291.543ZM237.695 406.607C235.79 405.028 236.911 402.746 236.106 400.958C235.678 404.732 233.61 408.186 234.415 412.098C243.604 407.408 247.855 402.946 247.169 398.711C246.762 403.229 241.969 399.75 240.797 402.914C238.953 401.177 240.95 398.869 239.717 396.48C237.7 400.046 239.585 403.617 237.695 406.602V406.607ZM279.831 326.782C280.126 325.371 281.838 323.848 280.35 322.595C278.613 321.133 277.213 322.834 275.914 323.929C271.467 327.678 270.535 333.867 266.363 337.907C270.3 333.424 278.343 333.903 279.831 326.782ZM333.56 22.1224C334.222 20.4669 333.988 18.3326 332.063 17.6959C329.964 17.0031 329.129 18.9795 328.456 20.5738C326.357 25.5607 324.906 30.6545 327.32 36.548C329.419 31.7445 331.619 26.9869 333.565 22.1224H333.56ZM274.813 440.669C271.798 436.461 274.268 433.079 275.837 428.413C271.294 430.196 271.604 433.644 272.246 435.825C273.092 438.713 268.049 439.441 270.586 442.472C272.552 444.825 268.63 447.739 271.401 450.525C277.926 447.255 278.629 445.992 274.813 440.664V440.669ZM152.751 409.515C147.459 415.455 137.006 417.003 137.23 428.933C143.75 422.749 148.381 416.244 152.751 409.515ZM294.751 345.013C293.869 345.746 292.642 346.281 292.708 347.565C292.789 349.128 294.216 348.772 295.255 349.118C296.447 349.521 297.353 350.733 298.535 351.232C300.435 352.032 302.335 351.344 303.7 350.05C305.631 348.227 303.476 348.003 302.457 346.994C300.165 344.727 304.205 344.264 304.001 341.895C300.894 343.174 297.42 342.797 294.751 345.018V345.013ZM259.359 430.512C259.95 432.799 258.381 435.02 259.619 437.2C260.347 438.489 259.527 441.137 262.359 440.608C265.064 440.103 264.993 438.494 263.953 436.365C262.191 432.753 265.415 434.842 267.096 434.108C264.402 432.264 262.359 430.598 259.359 430.512ZM100.224 553.267C98.8689 553.608 97.738 554.602 98.2118 556.201C98.6753 557.78 100.112 557.882 101.502 557.688C104.854 557.225 107.279 555.809 107.258 551.647C104.345 551.179 102.404 552.717 100.224 553.262V553.267ZM275.654 301.675C276.016 303.366 276.632 306.468 279.082 306.208C281.502 305.948 282.627 303.35 282.857 300.961C283.081 298.593 281.283 298.792 279.602 299.011C278.145 299.703 275.007 298.644 275.654 301.68V301.675ZM303.563 364.812C303.537 364.705 302.412 364.619 302.198 364.868C301.046 366.208 300.405 367.828 300.41 369.605C300.41 370.624 301.337 370.736 302.091 370.767C305.896 370.909 309.161 370.329 308.911 365.026C306.894 364.736 305.06 370.634 303.563 364.812ZM123.477 541.954C123.151 542.932 122.051 544.124 123.752 544.771C125.097 545.28 125.754 544.098 126.487 543.197C129.085 539.972 126.589 536.59 126.411 533.325C125.433 536.203 124.445 539.076 123.482 541.959L123.477 541.954ZM163.397 401.722C163.636 400.637 164.665 399.475 163.514 398.548C162.287 397.565 161.339 398.762 160.601 399.552C158.93 401.35 157.386 403.27 155.39 405.618C158.425 404.06 162.419 406.118 163.397 401.722ZM177.497 523.993C171.69 524.024 170.044 525.134 167.467 531.583C170.696 529.138 173.926 526.698 177.497 523.993ZM-0.536428 102.12C-0.806398 101.804 -3.09351 103.215 -4.44846 103.822C-2.43641 105.37 -3.94417 109.435 0.293858 109.792C1.2464 106.852 1.27187 104.239 -0.541523 102.115L-0.536428 102.12ZM203.215 487.914C202.67 488.897 204.03 489.595 205.013 489.238C207.433 488.367 209.307 486.915 209.231 483.981C209.2 482.856 208.737 482.183 208.059 482.26C204.356 482.84 204.341 485.881 203.21 487.914H203.215ZM39.9745 250.1C42.175 249.382 43.912 248.587 43.4383 245.862C43.2702 244.894 42.6334 243.631 41.6809 244.15C39.8471 245.154 38.2884 246.667 36.6788 247.92C37.7281 249.366 38.0643 250.716 39.9694 250.1H39.9745ZM246.354 473.641C247.307 473.086 248.392 471.7 247.602 470.824C245.58 468.573 243.033 470.406 240.573 470.681C242.172 472.612 243.293 475.424 246.354 473.641ZM-16.2711 384.316C-19.2001 388.483 -19.3784 391.804 -17.351 398.93C-15.5325 394 -17.565 389.456 -16.2711 384.316ZM186.808 344.753C189.304 344.085 189.375 341.289 190.47 339.425C191.184 338.212 189.645 337.657 188.902 337.677C185.53 337.764 186.767 340.963 185.738 342.369C185.687 343.596 185.626 345.069 186.803 344.748L186.808 344.753ZM-17.0811 361.868C-19.0727 364.95 -18.6194 368.143 -17.0811 371.363C-17.0811 368.199 -17.0811 365.031 -17.0811 361.868ZM155.456 278.136C155.379 277.418 154.32 276.766 153.678 277.296C152.135 278.574 151.365 280.092 152.899 282.074C153.337 282.639 153.087 283.744 153.164 284.707C157.279 283.449 155.7 280.525 155.456 278.136ZM144.84 324.912C144.901 325.167 146.048 325.508 146.226 325.335C148.584 322.992 147.204 320.053 147.662 317.063C145.39 319.493 144.117 321.897 144.845 324.912H144.84ZM307.495 428.179C311.545 426.727 310.465 422.728 311.051 419.947C312.08 415.042 312.426 409.933 314.367 405.287C316.226 400.84 313.394 397.249 313.21 392.594C309.079 395.675 307.342 400.29 303.349 402.832C303.502 398.217 307.505 394.366 305.824 389.568C303.466 388.987 303.649 391.646 301.653 392.171C301.24 389.624 300.13 387.301 297.71 385.223C295.718 391.514 290.655 391.977 285.286 391.83L285.444 391.672C285.663 391.962 285.841 392.471 286.101 392.517C290.696 393.337 296.915 393.037 291.297 400.53C291.114 400.774 291.48 401.839 291.837 402.012C293.722 402.924 294.048 400.168 295.652 400.301C295.433 402.97 296.182 403.902 298.591 403.917C299.834 403.927 300.583 404.681 299.875 405.705C297.14 409.658 300.328 414.365 298.041 418.358C300.486 416.132 299.926 412.994 300.736 410.289C301.281 408.476 302.274 406.311 304.714 406.994C308.035 407.926 304.668 409.648 304.948 410.671C305.544 412.862 305.504 414.721 304.419 416.636L304.363 416.56C307.521 416.025 306.426 411.14 310.811 411.043C311.051 417.018 308.621 422.494 307.526 428.174C307.546 428.184 307.49 428.174 307.49 428.174L307.495 428.179ZM308.193 444.611C311.81 443.012 315.131 440.959 319.099 439.879C324.529 438.397 325.227 434.123 322.069 426.488C319.175 427.868 318.1 431.031 315.706 432.809C311.575 435.881 309.512 435.137 308.646 430.186C308.524 429.483 307.918 428.861 307.516 428.194C307.495 428.184 307.551 428.189 307.531 428.179C307.979 437.531 303.685 444.071 294.99 442.452C295.204 444.504 298.479 447.52 293.472 448.136C291.974 448.32 293.243 449.95 294.093 450.663C296.039 452.293 300.058 452.868 300.058 451.31C300.058 446.333 304.174 448.411 305.952 446.848C306.797 446.104 307.551 445.253 308.361 444.438C307.083 443.323 304.704 445.182 303.965 442.88C303.833 442.462 304.724 441.199 305.147 441.193C308.392 441.173 310.618 438 314.229 438C312.548 440.974 309.263 441.759 308.193 444.611ZM152.007 227.748C151.325 219.986 150.622 214.082 150.362 208.158C150.235 205.254 147.917 205.066 146.603 205.326C144.866 205.667 144.56 207.144 145.472 209.37C147.153 213.481 147.79 217.923 141.285 218.799C140.786 218.865 140.246 219.308 139.91 219.731C139.39 220.378 141.417 234.824 142.039 235.364C142.961 236.168 144.744 236.892 145.064 235.965C146.465 231.92 152.114 230.871 152.002 227.748H152.007ZM2.78472 460.586C2.78472 460.586 2.76944 460.305 2.76944 460.3C0.375359 469.897 5.44877 475.775 12.7482 480.691C15.7433 482.708 15.4275 479.84 15.9267 478.679C17.2358 475.643 15.9012 471.537 19.6859 469.495C15.1372 469.194 14.8825 467.218 17.5873 464.1C18.6621 462.862 20.7709 462.557 20.8779 460.448L20.995 460.56C18.8454 460.27 18.1629 462.251 16.8589 463.26C16.0744 463.866 15.2441 464.574 14.3171 463.876C13.2066 463.041 13.3747 461.864 14.1031 460.815C14.7551 459.877 15.509 459.006 16.217 458.105L16.3393 458.247C11.0519 461.187 8.3777 461.65 3.35013 460.529C3.17694 460.489 2.97319 460.565 2.78472 460.586ZM326.892 398.976C330 398.834 332.047 397.224 334.66 396.837C340.493 395.976 339.082 389.492 340.61 385.447C341.649 382.696 337.946 383.19 336.392 382.192C335.582 381.673 334.742 381.204 333.937 380.679C331.426 379.059 329.404 378.056 330.163 382.737C330.351 383.888 330.412 385.967 328.94 386.328C322.338 387.953 322.924 393.643 321.401 398.599C323.846 397.241 325.811 395.127 327.295 392.257C329.505 394.489 326.541 396.429 326.892 398.981V398.976ZM316.251 58.9555C322.339 39.426 322.395 20.6095 325.441 1.80323C322.69 2.45524 322.98 4.16675 322.257 5.17023C315.844 14.0436 321.829 24.2312 319.191 33.5121C318.049 37.5158 317.912 41.8863 316.272 45.6353C314.545 49.583 313.862 53.1741 316.251 58.9555ZM295.046 232.46C292.769 231.421 294.037 227.815 291.475 228.706C289.377 229.44 289.754 232.027 290.324 233.871C291.256 236.871 293.136 234.467 294.577 234.36C296.304 234.233 297.262 232.908 298.133 231.615C299.416 229.71 300.613 229.032 303.339 229.521C307.842 230.321 310.281 227.356 311.04 223.057C309.125 221.804 308.555 224.025 306.787 223.908C306.991 221.6 307.297 219.064 305.254 216.7C302.931 217.301 300.369 221.514 297.338 217.413C296.238 218.254 292.596 216.338 294.873 220.882C296.284 223.694 297.99 228.406 295.041 232.46H295.046ZM332.949 125.368C333.443 127.727 331.793 131.287 334.263 132.22C336.54 133.08 338.985 130.442 341.338 129.153C349.55 124.655 346.977 115.084 352.315 108.982C349.835 108.533 349.86 109.949 349.381 110.744C348.887 111.569 348.51 112.471 348.098 113.347C346.962 115.756 345.821 117.702 342.398 116.551C339.708 115.644 338.262 117.972 336.886 119.887C335.531 121.772 334.176 123.652 332.816 125.547C332.816 125.557 332.949 125.373 332.949 125.373V125.368ZM188.107 270.103C185.81 271.397 183.798 273.205 185.005 276.74C185.31 277.632 185.341 279.023 184.338 279.303C175.316 281.804 182.076 284.396 184.353 286.694C185.891 288.247 187.862 289.373 189.875 290.86C190.827 289.256 189.314 287.565 190.399 286.037C191.78 284.101 193.466 285.711 195.065 285.716C193.292 280.026 193.44 274.132 188.112 270.103H188.107ZM33.9282 519.444C23.7406 512.934 23.1955 511.08 27.5711 500.287C28.2893 498.519 28.8751 496.604 29.0177 494.719C29.1553 492.926 29.848 490.807 27.8665 489.391C26.8172 492.513 20.7964 488.128 21.5095 493.4C21.861 496.003 17.2358 498.188 21.4942 501.422C22.7982 502.411 19.8642 507.347 21.3261 510.668C22.732 513.872 25.4877 515.685 28.0805 517.661C29.5679 518.797 31.096 520.117 33.9231 519.439L33.9282 519.444ZM71.994 188.898C70.2316 189.464 69.4268 189.723 68.2144 190.116C70.4761 186.713 72.972 184.146 76.0589 181.874C74.7345 179.597 72.4423 178.955 70.1093 178.553C66.5844 177.946 62.9627 176.963 63.8236 183.086C64.17 185.562 62.9526 188.287 62.3209 190.869C61.6129 193.763 63.4008 195.413 65.4995 196.289C67.7254 197.216 68.1533 194.827 69.004 193.416C69.7782 192.133 70.6544 190.91 71.994 188.898ZM342.133 341.498C343.829 339.532 345.108 338.156 346.264 336.684C347.39 335.243 348.215 333.552 346.656 332.003C344.822 330.179 343.371 331.886 342.301 333.083C340.258 335.36 338.491 337.881 336.306 340.688C341.114 342.909 346.02 344.075 351.057 344.636C353.207 344.875 355.606 342.96 355.412 341.64C355.163 339.934 355.285 337.968 354.679 336.516C354.052 335.024 352.397 336.613 351.236 337.066C348.322 338.197 346.452 341.508 342.133 341.498ZM5.07183 531.338C3.54879 532 2.02065 532.668 0.441578 533.355C0.0187931 531.69 2.67775 531.145 1.46034 529.678C0.655518 528.71 -0.694338 529.041 -1.79969 529.316C-5.53853 530.248 -9.26718 531.221 -12.9857 532.23C-14.1063 532.535 -15.3746 533.014 -15.2014 534.44C-15.0792 535.444 -14.0604 535.938 -13.0315 536.035C-11.2945 536.203 -9.73581 536.325 -8.70177 538.251C-7.67792 540.166 -5.85435 539.881 -4.19886 538.796C-3.71495 538.48 -3.30745 538.052 -2.82354 537.731C0.0136986 535.846 2.86113 533.977 5.70346 532.102C5.49462 531.843 5.28068 531.588 5.07183 531.328V531.338ZM-16.9333 457.239C-16.4392 463.733 -13.22 468.934 -8.6814 473.376C-10.9685 475.342 -13.1894 472.77 -15.4307 474.43C-13.3881 477.589 -10.0822 477.527 -7.04629 477.915C-6.06319 478.042 -4.73881 477.237 -4.89671 476.402C-5.42137 473.605 -7.46398 471.481 -5.94603 467.88C-4.4943 464.426 -8.86987 463.978 -11.1977 462.582C-13.4084 461.253 -16.154 460.331 -16.9741 457.356C-16.9588 457.32 -16.9282 457.239 -16.9282 457.239H-16.9333ZM-15.2269 513.484C-15.2728 518.237 -12.2165 518.94 -10.8768 521.003C-10.7851 523.448 -13.8108 521.36 -14.1368 523.178C-9.11437 527.019 -2.034 527.207 2.83566 523.626C3.74745 522.954 5.03617 522.414 4.48604 520.972C4.05817 519.857 2.85094 520.208 1.93915 520.132C-4.00021 519.623 -10.2808 520.229 -15.2218 513.479L-15.2269 513.484ZM261.615 546.238C265.258 544.852 269.129 543.385 272.995 541.908C274.014 541.521 276.021 540.879 275.618 542.31C273.927 548.352 278.537 545.086 280.024 545.188C283.239 545.407 286.519 544.883 289.759 544.506C290.64 544.404 291.694 543.91 291.822 542.784C291.964 541.541 290.986 541.159 290.013 541.011C279.872 539.453 269.603 537.242 261.615 546.243V546.238ZM-13.7293 495.57C-13.2047 497.862 -11.2945 498.193 -9.92938 499.156C-6.84763 501.331 -2.6096 501.86 -1.37181 498.718C-0.490587 496.481 -1.93213 491.973 -4.96293 489.625C-5.24818 489.406 -5.74228 489.024 -5.87981 489.116C-12.3642 493.344 -12.6953 486.197 -15.7872 483.497C-16.5106 490.562 -10.2197 492.096 -6.50635 495.616C-9.36397 498.606 -11.1417 493.904 -13.7242 495.575L-13.7293 495.57ZM361.688 383.644C359.121 384.622 360.033 387.474 357.964 388.437C356.008 388.508 356.864 385.111 354.373 385.427C353.202 388.519 351.923 391.692 350.787 394.916C349.57 398.365 354.241 396.755 354.44 399.037C358.509 398.044 363.038 388.733 361.683 383.644H361.688ZM326.668 81.358C330.799 79.4733 332.312 76.9162 332.389 74.3897C332.541 69.5099 335.577 68.7967 339.301 67.5742C346.6 65.1802 353.92 62.3531 355.377 53.0569C351.77 54.3762 351.18 58.4156 348.439 60.4226C345.322 62.7046 342.327 65.4501 338.506 66.1938C330.499 67.7474 329.108 74.0739 326.668 81.358ZM276.698 113.077C275.486 110.968 277.854 107.815 274.161 107.194C272.134 106.852 266.77 112.593 267.015 115.059C267.198 116.908 267.942 118.762 268.767 120.448C269.093 121.115 270.463 121.864 271.105 121.68C272.868 121.181 271.273 120.28 271.059 119.567C270.83 118.808 270.662 117.626 271.706 118.079C279.046 121.288 274.493 114.244 276.698 113.077ZM207.183 237.269C208.615 240.111 208.339 243.045 211.131 245.465C213.494 247.512 212.45 251.491 210.968 254.659C210.26 256.172 208.452 258.79 211.044 259.473C213.199 260.038 213.627 257.017 213.703 255.204C213.841 252.036 215.817 249.27 215.919 246.336C216.097 241.125 214.345 236.759 207.188 237.274L207.183 237.269ZM279.77 88.5861C276.367 86.681 273.489 82.4124 273.601 81.1186C274.192 74.1809 267.203 78.1795 265.828 74.7208C267.29 78.9538 270.545 82.1527 270.55 87.0376C270.55 90.0022 274.375 90.6083 279.77 88.5861ZM203.806 267.959C203.954 271.616 204.071 274.861 202.655 277.871C204.351 278.549 204.815 276.98 206.511 276.43C204.122 280.194 207.565 282.064 209.17 282.104C212.175 282.181 211.192 278.712 211.543 276.72C211.793 275.294 211.161 273.699 210.866 272.192C210.453 270.098 210.616 267.388 207.224 270.322C205.889 271.479 205.894 268.402 203.806 267.959ZM381.987 398.467C381.477 401.319 381.095 404.192 379.246 406.612C377.428 408.991 375.589 410.941 380.851 411.762C383.943 412.245 381.584 415.134 380.953 416.753C380.321 418.378 378.778 420.503 380.652 421.318C383.25 422.448 383.871 419.229 383.958 417.793C384.31 411.914 384.192 406.006 384.101 400.107C384.085 399.032 382.817 398.828 381.87 398.63L381.987 398.467ZM337.982 319.365C334.732 320.42 332.577 321.194 330.382 321.81C328.746 322.269 326.245 323.379 325.553 322.712C323.928 321.158 326.113 319.33 327.137 316.625C324.081 317.975 322.761 319.299 322.975 321.866C323.247 325.092 322.468 327.575 320.637 329.314C329.495 327.281 334.828 324.413 337.982 319.36V319.365ZM187.21 555.895C194.301 557.714 200.439 557.933 207.27 558.422C201.916 552.07 194.515 551.087 187.21 555.895ZM21.1325 138.189C25.4928 133.452 27.9277 138.271 30.4389 140.436C31.7531 141.572 31.8601 142.881 34.244 141.857C36.689 140.803 34.8145 139.982 34.7279 139.06C34.5343 137.048 34.3662 134.955 31.3914 135.795C28.2893 136.677 26.2977 135.867 25.6609 132.428C25.2738 130.335 23.0325 133.223 22.406 131.389C20.7709 132.016 22.5741 132.703 22.3805 133.401C21.9323 135.016 21.6165 136.671 21.2548 138.317C21.265 138.327 21.1376 138.184 21.1376 138.184L21.1325 138.189ZM139.451 560.454C133.929 557.673 128.515 557.821 121.776 561.178C128.662 563.618 134.062 562.298 139.451 560.454ZM351.2 2.92896C346.468 8.59835 346.167 15.8825 343.895 22.4484C349.707 17.1661 349.025 9.53051 351.2 2.92896ZM359.421 349.515C357.582 352.434 351.414 349.933 351.888 356.158C351.989 357.523 348.765 356.586 347.196 357.452C353.774 357.951 357.851 355.307 359.426 349.521L359.421 349.515ZM-13.4186 504.051C-8.81384 507.657 -5.69135 511.437 -0.271553 511.727C-2.24794 505.747 -5.92566 503.455 -13.4186 504.051ZM283.672 549.615C288.918 550.078 293.253 550.221 297.481 550.965C299.075 551.245 299.753 550.7 300.063 549.722C300.384 548.708 299.371 548.005 298.433 547.74C293.599 546.396 288.893 546.243 283.677 549.615H283.672ZM377.57 382.61C374.377 387.678 374.412 393.205 369.879 396.613C376.664 396.429 379.618 391.32 377.57 382.61ZM370.465 381.041C367.566 386.68 365.325 391.035 362.931 395.691C369.986 392.65 372.176 388.88 370.465 381.041ZM381.87 398.63C382.977 394.725 382.832 391.488 381.437 388.921C379.72 393.633 378.085 398.115 376.272 403.077C379.919 402.929 380.785 400.494 381.992 398.467L381.875 398.63H381.87ZM346.779 386.624C344.018 390.067 343.32 394.137 341.899 398.232C348.5 395.604 349.707 392.675 346.779 386.624ZM199.925 268.682C194.831 272.472 193.827 276.374 196.94 281.788C198.116 277.148 200.862 273.516 199.925 268.682ZM342.367 365.52C348.847 368.948 352.636 365.515 356.864 360.37C350.955 360.732 347.553 365.316 342.367 365.52ZM321.9 350.493C328.283 351.446 333.682 348.706 339.107 346.062C332.694 344.921 327.702 348.945 322.033 350.58C322.007 350.56 321.906 350.488 321.906 350.488L321.9 350.493ZM6.493 487.949C4.03779 483.716 2.72869 480.563 1.97481 477.181C1.76596 476.239 1.23621 475.149 0.18689 475.281C-1.3769 475.48 -1.30559 477.044 -0.979589 478.006C0.248014 481.623 0.82361 485.774 6.493 487.944V487.949ZM290.497 90.7765C293.38 87.7406 294.175 84.3073 294.43 80.5685C290.538 81.8963 289.227 85.2989 290.497 90.7765ZM285.286 391.835C284.97 390.261 286.254 387.912 282.515 388.463C280.228 388.799 277.651 387.179 274.324 386.17C277.213 391.254 280.977 392.207 285.444 391.672L285.286 391.83V391.835ZM264.845 206.844C270.219 204.134 271.136 198.551 273.082 193.63C268.772 197.043 266.638 201.857 264.85 206.889V206.844H264.845ZM264.85 206.889C263.872 212.956 259.17 217.714 259.099 224.101C263.138 219.109 265.823 213.639 264.85 206.864C264.845 206.844 264.85 206.889 264.85 206.889ZM344.425 0.983134C343.32 6.46405 342.214 11.9501 341.028 17.8385C345.042 14.5683 345.128 14.1811 344.425 0.983134ZM298.168 74.6903C300.664 69.7595 299.539 65.4909 298.642 61.2274C296.808 65.445 296.151 69.6831 298.168 74.6903ZM313.755 429.631C317.652 428.383 319.741 425.759 320.026 420.956C315.793 422.769 314.993 426.345 313.755 429.631ZM298.189 244.68C303.476 246.32 307.628 244.471 312.655 240.152C306.813 241.98 302.498 243.33 298.189 244.68ZM237.191 523.153C231.878 523.474 226.484 523.56 222.546 528.165C227.426 526.494 232.311 524.823 237.191 523.153ZM313.592 553.257C308.56 555.732 304.408 558.992 301.719 563.959C305.677 560.393 309.635 556.823 313.592 553.257ZM81.1883 459.149C77.8977 463.56 77.2814 466.999 77.5157 472.128C80.3835 467.819 81.7537 464.549 81.1883 459.149ZM332.266 521.701C326.408 521.548 321.513 524.125 316.934 527.61C322.043 525.638 327.152 523.672 332.266 521.701ZM353.334 15.7042C352.657 22.7846 351.052 28.0413 349.295 33.945C353.273 30.2979 354.623 24.4451 353.334 15.7042ZM271.08 93.7563C272.852 97.1793 275.756 97.6582 278.878 97.5206C279.882 97.4748 280.885 96.8992 280.926 95.8753C280.972 94.663 279.795 94.5051 278.853 94.5204C276.255 94.5713 273.632 94.9635 271.08 93.7563ZM151.172 199.59C151.768 197.186 154.187 195.057 152.094 192.448C151.753 192.021 150.194 191.847 150.051 192.077C148.38 194.807 150.24 197.104 151.167 199.59H151.172ZM304.424 416.636C303.196 421.964 301.968 427.293 300.746 432.621C302.274 427.349 306.329 422.581 304.388 416.585C304.368 416.56 304.424 416.636 304.424 416.636ZM329.098 63.0357C330.555 57.9674 335.567 54.8041 336.306 49.3487C334.212 54.0706 328.288 56.7601 329.154 63.0713C329.179 63.0968 329.098 63.0306 329.098 63.0306V63.0357ZM272.735 496.008C274.284 500.215 277.544 502.212 281.975 502.579C278.894 500.388 275.817 498.198 272.735 496.008Z" fill="white"/>
</mask>
<g mask="url(#mask0_59_169665)">
<path d="M382.955 -48.9712H381.213V630.479H382.955V-48.9712Z" fill="#23C3B5"/>
<path d="M378.885 -48.9712H377.143V630.479H378.885V-48.9712Z" fill="#23C3B5"/>
<path d="M374.808 -48.9712H373.066V630.479H374.808V-48.9712Z" fill="#23C3B5"/>
<path d="M370.734 -48.9712H368.992V630.479H370.734V-48.9712Z" fill="#23C3B5"/>
<path d="M366.664 -48.9712H364.922V630.479H366.664V-48.9712Z" fill="#23C3B5"/>
<path d="M362.59 -48.9712H360.848V630.479H362.59V-48.9712Z" fill="#23C3B5"/>
<path d="M358.514 -48.9712H356.771V630.479H358.514V-48.9712Z" fill="#23C3B5"/>
<path d="M354.443 -48.9712H352.701V630.479H354.443V-48.9712Z" fill="#23C3B5"/>
<path d="M350.369 -48.9712H348.627V630.479H350.369V-48.9712Z" fill="#23C3B5"/>
<path d="M346.293 -48.9712H344.551V630.479H346.293V-48.9712Z" fill="#23C3B5"/>
<path d="M342.224 -48.9712H340.482V630.479H342.224V-48.9712Z" fill="#23C3B5"/>
<path d="M338.15 -48.9712H336.408V630.479H338.15V-48.9712Z" fill="#23C3B5"/>
<path d="M334.074 -48.9712H332.332V630.479H334.074V-48.9712Z" fill="#23C3B5"/>
<path d="M330.006 -48.9712H328.264V630.479H330.006V-48.9712Z" fill="#23C3B5"/>
<path d="M325.93 -48.9712H324.188V630.479H325.93V-48.9712Z" fill="#23C3B5"/>
<path d="M321.853 -48.9712H320.111V630.479H321.853V-48.9712Z" fill="#23C3B5"/>
<path d="M317.785 -48.9712H316.043V630.479H317.785V-48.9712Z" fill="#23C3B5"/>
<path d="M313.709 -48.9712H311.967V630.479H313.709V-48.9712Z" fill="#23C3B5"/>
<path d="M309.635 -48.9712H307.893V630.479H309.635V-48.9712Z" fill="#23C3B5"/>
<path d="M305.56 -48.9712H303.818V630.479H305.56V-48.9712Z" fill="#23C3B5"/>
<path d="M301.49 -48.9712H299.748V630.479H301.49V-48.9712Z" fill="#23C3B5"/>
<path d="M297.414 -48.9712H295.672V630.479H297.414V-48.9712Z" fill="#23C3B5"/>
<path d="M293.34 -48.9712H291.598V630.479H293.34V-48.9712Z" fill="#23C3B5"/>
<path d="M289.269 -48.9712H287.527V630.479H289.269V-48.9712Z" fill="#23C3B5"/>
<path d="M285.195 -48.9712H283.453V630.479H285.195V-48.9712Z" fill="#23C3B5"/>
<path d="M281.121 -48.9712H279.379V630.479H281.121V-48.9712Z" fill="#23C3B5"/>
<path d="M277.049 -48.9712H275.307V630.479H277.049V-48.9712Z" fill="#23C3B5"/>
<path d="M272.974 -48.9712H271.232V630.479H272.974V-48.9712Z" fill="#23C3B5"/>
<path d="M268.9 -48.9712H267.158V630.479H268.9V-48.9712Z" fill="#23C3B5"/>
<path d="M264.828 -48.9712H263.086V630.479H264.828V-48.9712Z" fill="#23C3B5"/>
<path d="M260.756 -48.9712H259.014V630.479H260.756V-48.9712Z" fill="#23C3B5"/>
<path d="M256.68 -48.9712H254.938V630.479H256.68V-48.9712Z" fill="#23C3B5"/>
<path d="M252.609 -48.9712H250.867V630.479H252.609V-48.9712Z" fill="#23C3B5"/>
<path d="M248.535 -48.9712H246.793V630.479H248.535V-48.9712Z" fill="#23C3B5"/>
<path d="M244.459 -48.9712H242.717V630.479H244.459V-48.9712Z" fill="#23C3B5"/>
<path d="M240.391 -48.9712H238.648V630.479H240.391V-48.9712Z" fill="#23C3B5"/>
<path d="M236.314 -48.9712H234.572V630.479H236.314V-48.9712Z" fill="#23C3B5"/>
<path d="M232.24 -48.9712H230.498V630.479H232.24V-48.9712Z" fill="#23C3B5"/>
<path d="M228.164 -48.9712H226.422V630.479H228.164V-48.9712Z" fill="#23C3B5"/>
<path d="M224.096 -48.9712H222.354V630.479H224.096V-48.9712Z" fill="#23C3B5"/>
<path d="M220.019 -48.9712H218.277V630.479H220.019V-48.9712Z" fill="#23C3B5"/>
<path d="M215.945 -48.9712H214.203V630.479H215.945V-48.9712Z" fill="#23C3B5"/>
<path d="M211.875 -48.9712H210.133V630.479H211.875V-48.9712Z" fill="#23C3B5"/>
<path d="M207.801 -48.9712H206.059V630.479H207.801V-48.9712Z" fill="#23C3B5"/>
<path d="M203.725 -48.9712H201.982V630.479H203.725V-48.9712Z" fill="#23C3B5"/>
<path d="M199.656 -48.9712H197.914V630.479H199.656V-48.9712Z" fill="#23C3B5"/>
<path d="M195.58 -48.9712H193.838V630.479H195.58V-48.9712Z" fill="#23C3B5"/>
<path d="M191.504 -48.9712H189.762V630.479H191.504V-48.9712Z" fill="#23C3B5"/>
<path d="M187.435 -48.9712H185.693V630.479H187.435V-48.9712Z" fill="#23C3B5"/>
<path d="M183.359 -48.9712H181.617V630.479H183.359V-48.9712Z" fill="#23C3B5"/>
<path d="M179.285 -48.9712H177.543V630.479H179.285V-48.9712Z" fill="#23C3B5"/>
<path d="M175.215 -48.9712H173.473V630.479H175.215V-48.9712Z" fill="#23C3B5"/>
<path d="M171.139 -48.9712H169.396V630.479H171.139V-48.9712Z" fill="#23C3B5"/>
<path d="M167.064 -48.9712H165.322V630.479H167.064V-48.9712Z" fill="#23C3B5"/>
<path d="M162.994 -48.9712H161.252V630.479H162.994V-48.9712Z" fill="#23C3B5"/>
<path d="M158.92 -48.9712H157.178V630.479H158.92V-48.9712Z" fill="#23C3B5"/>
<path d="M154.844 -48.9712H153.102V630.479H154.844V-48.9712Z" fill="#23C3B5"/>
<path d="M150.769 -48.9712H149.027V630.479H150.769V-48.9712Z" fill="#23C3B5"/>
<path d="M146.699 -48.9712H144.957V630.479H146.699V-48.9712Z" fill="#23C3B5"/>
<path d="M142.623 -48.9712H140.881V630.479H142.623V-48.9712Z" fill="#23C3B5"/>
<path d="M138.549 -48.9712H136.807V630.479H138.549V-48.9712Z" fill="#23C3B5"/>
<path d="M134.478 -48.9712H132.736V630.479H134.478V-48.9712Z" fill="#23C3B5"/>
<path d="M130.404 -48.9712H128.662V630.479H130.404V-48.9712Z" fill="#23C3B5"/>
<path d="M126.328 -48.9712H124.586V630.479H126.328V-48.9712Z" fill="#23C3B5"/>
<path d="M122.26 -48.9712H120.518V630.479H122.26V-48.9712Z" fill="#23C3B5"/>
<path d="M118.183 -48.9712H116.441V630.479H118.183V-48.9712Z" fill="#23C3B5"/>
<path d="M114.109 -48.9712H112.367V630.479H114.109V-48.9712Z" fill="#23C3B5"/>
<path d="M110.039 -48.9712H108.297V630.479H110.039V-48.9712Z" fill="#23C3B5"/>
<path d="M105.965 -48.9712H104.223V630.479H105.965V-48.9712Z" fill="#23C3B5"/>
<path d="M101.891 -48.9712H100.148V630.479H101.891V-48.9712Z" fill="#23C3B5"/>
<path d="M97.8202 -48.9712H96.0781V630.479H97.8202V-48.9712Z" fill="#23C3B5"/>
<path d="M93.744 -48.9712H92.002V630.479H93.744V-48.9712Z" fill="#23C3B5"/>
<path d="M89.6698 -48.9712H87.9277V630.479H89.6698V-48.9712Z" fill="#23C3B5"/>
<path d="M85.5995 -48.9712H83.8574V630.479H85.5995V-48.9712Z" fill="#23C3B5"/>
<path d="M81.5233 -48.9712H79.7812V630.479H81.5233V-48.9712Z" fill="#23C3B5"/>
<path d="M77.4511 -48.9712H75.709V630.479H77.4511V-48.9712Z" fill="#23C3B5"/>
<path d="M73.3749 -48.9712H71.6328V630.479H73.3749V-48.9712Z" fill="#23C3B5"/>
<path d="M69.3046 -48.9712H67.5625V630.479H69.3046V-48.9712Z" fill="#23C3B5"/>
<path d="M65.2304 -48.9712H63.4883V630.479H65.2304V-48.9712Z" fill="#23C3B5"/>
<path d="M61.1542 -48.9712H59.4121V630.479H61.1542V-48.9712Z" fill="#23C3B5"/>
<path d="M57.0839 -48.9712H55.3418V630.479H57.0839V-48.9712Z" fill="#23C3B5"/>
<path d="M53.0097 -48.9712H51.2676V630.479H53.0097V-48.9712Z" fill="#23C3B5"/>
<path d="M48.9354 -48.9712H47.1934V630.479H48.9354V-48.9712Z" fill="#23C3B5"/>
<path d="M44.8651 -48.9712H43.123V630.479H44.8651V-48.9712Z" fill="#23C3B5"/>
<path d="M40.7889 -48.9712H39.0469V630.479H40.7889V-48.9712Z" fill="#23C3B5"/>
<path d="M36.7147 -48.9712H34.9727V630.479H36.7147V-48.9712Z" fill="#23C3B5"/>
<path d="M32.6444 -48.9712H30.9023V630.479H32.6444V-48.9712Z" fill="#23C3B5"/>
<path d="M28.5702 -48.9712H26.8281V630.479H28.5702V-48.9712Z" fill="#23C3B5"/>
<path d="M24.494 -48.9712H22.752V630.479H24.494V-48.9712Z" fill="#23C3B5"/>
<path d="M20.4257 -48.9712H18.6836V630.479H20.4257V-48.9712Z" fill="#23C3B5"/>
<path d="M16.3514 -48.9712H14.6094V630.479H16.3514V-48.9712Z" fill="#23C3B5"/>
<path d="M12.2753 -48.9712H10.5332V630.479H12.2753V-48.9712Z" fill="#23C3B5"/>
<path d="M8.20497 -48.9712H6.46289V630.479H8.20497V-48.9712Z" fill="#23C3B5"/>
<path d="M4.13075 -48.9712H2.38867V630.479H4.13075V-48.9712Z" fill="#23C3B5"/>
<path d="M0.054575 -48.9712H-1.6875V630.479H0.054575V-48.9712Z" fill="#23C3B5"/>
</g>
</svg>
