<svg width="440" height="537" viewBox="0 0 440 537" fill="none" xmlns="http://www.w3.org/2000/svg">
<mask id="mask0_59_169778" style="mask-type:luminance" maskUnits="userSpaceOnUse" x="0" y="0" width="440" height="537">
<path d="M387.634 335.823C387.884 339.035 387.812 341.223 388.281 343.291C388.793 345.542 389.242 348.365 390.79 349.64C391.894 350.549 395.777 350.033 396.61 348.861C397.845 347.13 397.571 344.26 397.718 341.862C397.758 341.215 397.007 340.516 396.618 339.845C405.226 341.211 399.064 347.841 402.375 352.042C394.018 352.042 387.217 352.042 380.416 352.042C380.404 351.791 380.392 351.541 380.376 351.291C382.377 350.882 384.374 350.473 386.538 350.033C386.034 345.415 385.577 341.211 385.069 336.542C382.572 336.415 379.995 336.288 378.268 336.201C377.832 338.837 377.494 340.874 377.117 343.16C377.736 343.847 378.808 345.038 380.122 346.499C375.144 347.647 374.596 349.092 376.184 352.848C377.045 354.884 376.982 357.322 377.268 359.585C377.407 360.689 376.946 362.443 377.506 362.832C383.31 366.89 377.998 371.289 378.463 373.949C374.413 375.735 371.305 377.085 368.216 378.479C366.092 379.44 363.972 380.428 361.887 381.472C353.284 385.78 343.394 385.176 334.712 391.1C323.889 398.48 309.882 395.959 297.122 396.666C295.673 396.745 293.966 396.035 292.719 395.189C287.769 391.838 282.857 392.922 277.395 394.661C279.618 398.016 281.567 400.962 283.898 404.475C280.884 405.281 278.891 405.817 276.632 406.421C277.573 411.824 278.49 417.077 279.53 423.052C272.285 423.052 265.135 423.052 257.734 423.052C257.734 425.43 257.734 427.073 257.734 429.106C254.209 429.106 250.941 429.198 247.686 429.07C246.014 429.007 244.359 428.554 241.937 428.149C241.937 433.144 241.937 437.801 241.937 442.458C241.937 446.313 242.977 448.941 247.722 448.365C252.946 447.73 251.728 443.911 251.64 440.798C251.557 437.67 251.017 434.557 250.675 431.437C251.545 431.373 252.418 431.31 253.288 431.246C253.836 437.785 254.384 444.324 254.923 450.787C253.994 451.196 253.47 451.629 252.938 451.633C246.471 451.716 239.865 452.598 233.56 451.585C221.153 449.596 217.1 459.776 210.378 466.16C209.572 466.926 208.993 468.053 208.62 469.121C207.897 471.186 207.397 473.33 206.646 476.006C208.714 478.822 208.311 480.913 205.44 482.278C206.694 484.351 207.957 486.439 209.39 488.813C201.128 489.695 200.957 490.183 204.217 497.135C204.86 498.508 204.836 500.688 204.197 502.062C203.252 504.09 201.473 505.73 200.048 507.533C200.489 507.795 200.925 508.057 201.366 508.323C202.375 508.069 203.387 507.81 204.395 507.556C204.562 508.458 204.923 509.375 204.86 510.26C204.594 513.984 203.653 517.74 203.955 521.404C204.804 531.707 200.532 536.606 190.107 536.566C183.624 536.543 177.14 536.531 170.661 536.531C152.668 536.527 134.679 536.531 116.905 536.531C117.771 535.355 119.172 534.232 118.978 533.593C117.965 530.274 116.548 527.078 115.218 523.695C114.507 525.529 113.8 527.34 112.717 530.135C110.946 527.506 109.791 525.795 108.639 524.088C106.932 524.191 105.221 524.295 103.021 524.422C101.711 517.117 98.0032 510.193 103.105 503.15C100.004 502.784 96.8956 502.415 92.3458 501.875C96.0459 499.239 98.3685 497.587 100.695 495.932L100.417 494.368C92.9333 495.273 92.3497 490.894 92.5443 485.772C94.2554 485.324 95.641 484.958 97.503 484.47C96.4827 483.084 95.371 482.255 95.232 481.286C93.6202 470.094 91.3095 458.902 91.0158 447.659C90.8728 442.232 90.0788 438.865 85.2431 436.518C84.2824 439.198 83.3216 441.866 82.2894 444.745C76.5287 439.961 85.9737 432.052 79.3157 429.372C79.8914 423.981 80.3956 419.498 80.7013 415.004C80.7092 414.861 78.6249 414.579 77.5133 414.361C81.0268 412.205 81.8804 409.192 82.1107 405.007C82.9881 389.031 77.3187 374.203 74.8175 358.834C74.1307 354.614 74.1744 349.794 72.0543 346.388C67.3417 338.829 70.4146 329.805 66.4207 322.329C65.4281 320.475 64.4078 318.641 63.9195 317.747C64.4356 314.913 65.2852 312.88 65.0668 310.97C64.114 302.625 62.3592 294.343 61.851 285.982C61.4143 278.816 56.9002 277.228 50.9371 276.025C50.3971 277.808 49.8611 279.582 49.0552 282.254C47.1972 276.053 45.5496 270.554 43.7273 264.464C39.368 269.542 39.5427 271.447 43.5049 275.449C39.1933 285.744 49.5634 293.097 47.2289 302.617C48.0468 302.542 48.8646 302.466 49.6785 302.395C49.48 299.834 49.1108 297.273 49.1346 294.716C49.1545 292.219 49.5753 289.726 49.8214 287.229C50.6194 287.094 51.4214 286.959 52.2194 286.824C53.7162 292.592 55.2367 298.353 56.6938 304.13C57.6307 307.842 58.3493 311.613 59.3816 315.298C60.4337 319.038 62.1527 322.627 62.8832 326.418C65.4996 339.992 68.1516 353.578 70.1248 367.255C71.2087 374.779 70.8474 382.505 71.3556 390.123C71.6573 394.685 69.7437 399.918 75.5719 403.09C76.3857 403.534 74.8771 408.247 74.4443 410.986C73.7019 411.157 72.9555 411.328 72.2131 411.499C73.9044 412.527 75.5917 413.555 77.283 414.583C74.3888 419.788 70.3432 422.639 65.0589 421.384C66.2063 418.24 67.9253 415.223 68.2271 412.066C68.4137 410.113 65.9839 408.045 65.5472 405.861C64.4475 400.358 63.8083 394.764 62.9825 389.206L63.1135 389.385C62.8197 380.833 62.2996 380.4 55.872 383.354L56.0586 383.465C55.7409 380.972 55.4273 378.479 55.1772 376.502C57.3608 374.743 59.4173 373.087 61.4738 371.428C60.8267 370.777 60.1835 370.126 59.5364 369.474C58.2382 370.586 56.936 371.694 55.6377 372.805C55.1017 372.436 54.5658 372.071 54.0298 371.702C55.0581 370.169 55.7529 367.946 57.1861 367.247C60.2709 365.739 61.5413 362.697 58.9131 361.625C54.6372 359.887 53.7162 356.012 52.0011 353.661C43.8503 362.443 50.3415 373.064 48.5431 382.771C47.8443 383.211 47.1495 383.652 46.4508 384.093C46.157 382.508 45.8592 380.92 45.5654 379.336C44.9461 379.757 44.3307 380.178 43.7114 380.599C44.1124 386.439 44.2076 392.323 44.9858 398.115C46.5143 409.51 48.2413 420.888 50.2423 432.207C51.2031 437.65 52.8626 442.978 54.4229 448.298C55.3955 451.621 57.1702 454.745 57.8809 458.104C59.453 465.532 60.5369 473.064 61.9344 480.532C62.1686 481.782 62.7086 483.192 63.578 484.057C65.2812 485.756 67.3139 487.126 69.4022 488.79C69.7794 487.253 70.1923 485.562 70.6052 483.871C73.0746 496.174 74.3332 508.458 75.8537 520.706C76.215 523.628 77.4497 526.438 78.2755 529.277C78.2755 531.342 78.2755 533.688 78.2755 536.602C73.9917 536.273 70.1129 535.975 67.0162 535.737C68.3779 534.22 69.9422 533.279 70.0653 532.171C70.2955 530.119 68.7035 527.308 69.6007 525.986C73.1779 520.698 69.168 515.437 71.1015 510.328C70.4623 510.272 69.827 510.216 69.1879 510.161C68.5209 516.382 67.8578 522.599 67.1909 528.821C64.9874 527.181 62.5775 524.048 60.8942 524.402C56.6898 525.279 55.4154 522.667 53.343 520.416C50.806 517.653 49.2537 514.528 47.8165 511.038C43.6677 500.946 38.8321 491.136 34.3934 481.159C32.7379 477.439 30.9354 473.671 30.0779 469.733C28.3628 461.88 27.2352 453.896 25.9013 445.96C25.7425 445.007 25.9013 443.998 25.7306 443.045C24.3251 435.03 23.9043 426.661 21.2125 419.097C16.9764 407.199 11.1402 395.872 6.12595 384.243C5.0818 381.822 4.65699 379.138 4.19248 377.466C6.36415 376.208 9.09959 375.195 9.01225 374.576C8.63111 371.833 8.12293 367.541 6.4118 366.834C0.968718 364.591 1.05606 359.605 0.952836 355.936C0.226298 330.031 0.0158806 304.106 0 278.189C0 275.187 1.33 270.904 3.52947 269.431C9.65938 265.322 12.0375 259.652 13.5859 252.958C14.7372 247.988 18.0166 245.054 22.1733 245.526C30.1017 240.23 27.2194 233.203 26.7747 226.577C26.6834 225.203 26.735 223.818 26.5762 222.456C25.9052 216.647 28.0968 212.757 33.6272 210.379C40.5432 207.401 44.9898 199.27 44.2434 191.489C49.3768 190.301 54.53 188.904 59.7667 187.959C64.2688 187.149 68.8544 186.752 73.42 186.395C74.6746 186.296 76.0443 186.871 77.2751 187.352C83.3295 189.698 84.1831 194.871 84.8382 200.513C85.3186 204.669 86.7836 208.739 88.058 212.769C88.7409 214.932 89.9438 216.929 90.9125 219.006C90.4083 219.296 89.9041 219.581 89.3999 219.871C90.8609 220.824 92.4569 221.63 93.7472 222.777C95.0494 223.933 95.8832 226.37 97.2211 226.616C104.161 227.895 103.363 234.299 105.261 238.602C107.682 244.101 108.933 250.112 110.688 255.904C110.93 255.833 111.176 255.765 111.418 255.694C112.463 239.071 113.511 222.444 114.555 205.821C114.094 206.047 113.63 206.273 113.169 206.496C112.2 204.55 111.232 202.605 110.263 200.66C115.905 198.603 112.939 193.696 113.761 190.051C119.065 189.182 120.026 185.815 117.223 179.765C116.429 178.054 116.405 175.652 116.854 173.762C118.084 168.545 119.934 163.471 121.137 158.25C121.522 156.583 120.657 154.63 120.319 152.533C121.661 152.609 122.594 152.664 122.511 152.66C124.139 149.246 125.536 146.316 126.954 143.35C124.742 143.251 123.114 143.18 121.483 143.104C121.55 142.183 121.514 140.48 121.705 140.452C124.159 140.123 126.64 140.031 130.142 139.817C130.646 138.956 131.908 137.221 132.734 135.299C135.208 129.534 137.665 123.754 139.817 117.866C140.96 114.734 141.453 111.367 142.33 107.734C152.553 103.057 152.228 90.5673 157.786 81.9799C156.575 81.3049 155.169 80.5268 152.367 78.9625C156.456 78.0931 159.076 77.5333 162.224 76.8623C161.148 75.31 160.458 74.3175 159.771 73.3249C160.394 73.2971 161.021 73.2733 161.645 73.2455C162.002 71.1294 161.649 68.4019 162.848 67.0084C166.139 63.1772 165.559 58.4329 166.607 54.1491C167.695 49.7065 165.94 43.4297 168.434 40.6982C173.849 34.7628 179.959 28.8632 188.932 27.5213C192.993 26.9138 197.67 26.894 200.441 22.0107C202.017 19.2356 205.555 17.0559 209.457 19.6564C209.553 19.7199 210.025 19.2236 210.347 18.9656C209.592 17.7547 208.842 16.5517 207.913 15.0629C210.831 14.8922 213.352 15.4004 215.206 14.515C221.237 11.6287 226.986 8.16677 232.917 5.05417C235.791 3.54551 238.698 1.72718 241.802 1.09989C250.993 -0.758137 260.029 -0.738285 268.287 4.94697C269.331 5.66557 271.535 4.48644 273.15 4.66906C274.457 4.81596 275.683 5.68145 276.946 6.22933C274.619 7.65859 275.362 9.25062 277.311 9.67146C278.212 9.86599 279.566 7.93253 280.638 7.0313C282.989 7.69035 285.637 7.92459 287.737 9.12357C293.196 12.2362 300.894 11.0729 304.4 18.1835C305.098 19.6048 308.354 19.6127 310.212 20.6608C311.911 21.6176 313.531 22.9079 314.785 24.3928C315.893 25.7069 316.199 27.692 317.291 29.0299C321.193 33.81 325.235 38.4829 329.312 43.1121C330.964 44.986 332.877 46.6217 334.616 48.4201C335.911 49.7581 337.118 51.1794 338.817 53.0652C336.292 53.7441 334.974 54.0975 333.66 54.4508C334.95 56.4796 336.498 57.2696 338.126 57.8215C340.012 58.4607 341.969 58.8974 343.899 59.4016C345.312 59.7708 346.717 60.2353 348.159 60.4219C351.12 60.8031 353.776 63.8482 357.06 61.4819C359.958 66.8178 367.43 66.5518 370.034 73.5195C371.618 77.7596 368.577 85.823 377.006 86.744C377.065 86.752 377.089 87.1053 377.347 88.3122C376.625 88.6219 375.35 89.1698 373.496 89.9599C378.578 94.7995 383.302 98.5036 386.776 103.145C387.689 104.364 391.278 109.596 385.272 111.554C392.485 121.181 383.969 127.009 380.138 134.338C381.242 135.013 382.453 135.748 382.365 135.696C382.159 138.991 381.111 141.739 382.056 143.116C385.593 148.273 383.255 153.474 383.382 159.168C384.644 159.831 386.308 160.7 389.397 162.316C382.596 162.236 379.026 164.265 377.935 169.744C377.736 170.729 376.136 172.047 375.08 172.15C368.565 172.773 370.3 177.331 370.757 181.063C371.571 187.697 372.67 194.295 373.647 200.906C373.032 200.989 372.416 201.076 371.801 201.16C370.634 193.41 369.47 185.664 368.184 177.121C365.719 181.071 364.396 184.505 361.979 186.768C357.544 190.925 359.076 193.16 362.761 194.498C359.835 201.958 357.028 209.124 354.463 215.659C354.15 214.317 353.653 212.193 353.157 210.065C352.685 210.029 352.212 209.997 351.736 209.962C350.866 211.836 349.997 213.71 348.953 215.953C348.381 214.42 348.016 213.44 347.337 211.625C344.629 217.279 339.031 220.51 340.139 227.121C340.369 228.498 340.171 229.951 340.171 231.369C339.948 231.369 339.722 231.369 339.5 231.365C338.031 226.7 336.562 222.035 335.093 217.37C334.37 217.485 333.648 217.604 332.929 217.719C332.341 227.895 331.754 238.07 331.166 248.246L330.301 247.67C328.844 250.803 327.391 253.935 325.358 258.31C329.388 256.921 331.575 256.166 334.62 255.114C333.961 257.6 333.624 258.874 333.314 260.033C340.901 259.386 346.046 269.828 354.15 263.023C354.872 265.433 355.384 267.14 355.416 267.251C358.235 268.426 360.593 268.645 361.248 269.812C365.472 277.375 369.323 285.141 373.063 292.382C372.126 294.975 371.213 297.496 370.3 300.017C373.603 300.696 376.891 301.494 380.221 301.99C381.289 302.149 382.508 301.172 383.6 301.287C386.026 301.541 388.412 302.157 390.814 302.625C390.814 302.625 390.588 302.371 390.58 302.367C390.552 303.34 390.604 305.158 390.5 305.166C383.362 305.761 376.104 307.369 369.073 303.201C368.748 305.559 368.434 307.798 368.124 310.041C368.7 309.835 369.272 309.624 369.848 309.418C370.892 311.193 373.182 313.348 372.773 314.674C370.896 320.773 375.283 329.412 381.397 329.475C386.756 329.531 392.128 328.36 399.246 327.522C401.458 330.166 404.956 334.343 408.449 338.519L409.855 338.19C409.49 333.283 409.12 328.371 408.755 323.496C401.513 323.496 395.257 323.496 388.21 323.496C390.85 318.252 393.589 316.286 398.472 317.688C402.855 318.946 405.166 313.805 409.196 313.527C408.854 309.358 412.261 310.347 414.305 310.176C417.878 309.882 421.551 310.557 425.092 310.125C427.796 309.791 430.361 308.37 432.989 307.433C434.295 307.473 435.982 309.128 437.253 311.058C438.15 312.423 439.317 315.278 438.936 315.568C433.767 319.451 436.792 324.501 436.578 329.09C436.51 330.539 435.474 333.148 434.783 333.179C428.177 333.493 421.547 333.366 414.925 333.366C414.948 332.762 414.972 332.159 415 331.552C418.323 331.758 421.666 331.81 424.969 332.195C431.822 332.997 434.398 330.249 433.279 323.393C432.941 321.332 433.227 319.169 433.227 317.517C427.192 317.517 420.733 317.517 414.96 317.517C416.171 320.233 417.426 323.051 418.68 325.87C416.699 325.247 414.718 324.624 412.642 323.973C412.642 329.582 412.642 335.248 412.642 342.017C409.168 340.814 406.234 340.076 403.558 338.797C400.827 337.491 398.5 336.574 396.737 339.98C393.923 338.69 391.108 337.4 387.626 335.8L387.634 335.823ZM165.353 189.877C169.192 192.501 170.578 192.163 172.17 187.554C166.603 187.344 163.348 185.283 165.365 178.343C166.965 180.114 168.128 181.396 170.204 183.687C171.006 174.282 171.733 165.746 172.463 157.214C173.174 157.21 173.889 157.202 174.599 157.198C175.056 160.299 174.873 163.701 176.16 166.405C177.311 168.827 180.074 170.482 182.127 172.475C183.187 170.625 184.902 168.875 185.2 166.909C186.609 157.635 185.569 148.579 182.226 139.73C180.694 135.672 179.904 131.333 178.776 127.12C180.293 126.851 182.607 126.438 184.811 126.041C190.631 129.487 184.834 140.595 195.605 141.655C195.069 139.345 194.617 137.411 194.168 135.482C193.712 135.295 193.255 135.108 192.799 134.926C192.417 135.946 192.036 136.962 191.655 137.983C191.254 137.808 190.857 137.633 190.456 137.459C190.115 129.876 189.833 122.289 189.412 114.71C189.217 111.192 185.89 107.587 189.813 104.233C190.103 103.982 190.416 103.756 191.29 103.073C192.894 109.568 194.434 115.817 195.979 122.066L197.194 121.876C196.816 119.061 196.443 116.246 196.066 113.431C196.491 113.336 196.916 113.237 197.34 113.142C199.079 121.681 200.818 130.225 202.561 138.765C203.133 138.654 203.701 138.543 204.272 138.431C200.953 120.578 197.634 102.72 194.315 84.8661C193.66 84.7748 193.005 84.6835 192.35 84.5882C191.429 86.4939 189.674 88.4353 189.746 90.3053C189.964 96.1136 185.748 98.9681 182.679 102.724C180.094 105.88 177.859 109.338 175.612 112.752C172.884 116.897 171.125 121.578 166.893 124.826C163.34 127.553 164.559 131.19 166.631 134.707C168.458 137.812 171.411 140.949 168.045 146.955C165.952 142.509 164.511 139.444 163.003 136.236C162.304 136.74 161.506 137.018 161.442 137.415C160.462 143.581 159.628 149.77 158.655 155.936C157.333 164.349 155.92 172.745 154.546 181.15C151.906 192.334 149.262 203.514 146.63 214.698C145.852 218.009 144.668 221.3 144.438 224.651C144.069 230.027 144.339 235.446 144.339 240.568C140.758 239.496 138.288 243.827 138.145 254.042C139.305 253.197 140.218 252.53 141.131 251.859C141.599 252.196 142.072 252.534 142.54 252.871C141.036 255.468 139.527 258.064 138.304 260.172C138.904 262.701 139.634 265.762 140.615 269.883C149.687 273.039 144.303 283.036 147.134 289.889C148.55 288.626 148.509 284.042 147.011 276.136C147.829 276.672 148.484 277.101 149.345 277.669C149.897 266.195 150.441 254.924 151.013 243.069C150.346 244.137 149.917 244.82 149.488 245.506C149.159 245.479 148.825 245.451 148.496 245.419C149.175 238.96 149.853 232.496 150.616 225.243C152.081 226.982 152.95 228.018 153.824 229.054C154.268 228.931 154.713 228.812 155.158 228.689C154.816 226.033 154.471 223.377 154.129 220.721C154.546 220.59 154.967 220.459 155.384 220.332C156.162 222.281 156.94 224.234 157.718 226.184C158.215 226.223 158.711 226.267 159.207 226.307C160.374 215.599 161.542 204.896 162.784 193.493C161.236 193.91 160.267 194.172 159.818 194.292C158.024 189.837 156.261 185.462 154.498 181.087C160.744 180.587 161.434 187.193 165.357 189.873L165.353 189.877ZM239.384 380.948C237.689 369.193 238.237 357.54 240.869 346.011C241.584 342.886 243.18 339.96 244.315 337.074C239.4 336.447 238.181 338.392 236.542 350.664C230.956 346.467 228.057 339.674 229.677 334.589L228.26 333.688C226.926 336.097 224.953 338.372 224.393 340.953C223.325 345.852 223.131 350.303 216.135 350.811C210.839 351.196 212.55 355.118 215.476 358.711C211.772 358.588 208.54 359.636 208.719 354.896C208.83 352.002 209.235 349.116 209.529 345.987C206.452 345.987 203.935 345.987 200.044 345.987C202.081 344.069 203.073 343.136 204.264 342.017C202.76 341.529 201.489 341.12 199.985 340.631C199.985 337.809 199.985 334.954 199.985 330.607C196.094 336.042 193.001 340.361 189.865 344.744C189.599 343.375 189.202 341.318 188.606 338.253C187.479 340.048 186.847 341.048 186.891 340.981C182.361 335.585 177.648 329.967 172.42 323.742C170.28 328.939 168.795 332.54 167.314 336.141C167.036 336.141 166.754 336.145 166.476 336.149V320.066C156.69 330.099 158.858 345.399 170.756 353.896C171.677 352.578 172.59 351.263 173.504 349.949C173.972 350.009 174.437 350.072 174.905 350.132C174.456 353.582 174.008 357.036 173.543 360.585C185.938 363.285 182.917 373.905 183.631 382.385C193.239 379.809 190.516 390.123 195.947 392.732C197.043 391.171 198.353 389.309 199.742 387.328C204.896 392.096 209.973 392.045 215.722 391.306C221.165 390.608 226.831 391.652 232.691 391.946C233.64 395.999 235.073 397.897 240.448 396.797C246.737 395.515 253.558 396.71 260.14 397.008C263.741 397.17 267.08 393.526 270.915 396.305C271.11 396.444 273.019 395.07 273.139 394.252C273.305 393.113 272.861 391.052 272.122 390.755C268.279 389.198 264.321 387.304 260.287 386.975C252.99 386.379 245.61 386.804 238.92 386.804C239.079 385.089 239.682 382.949 239.392 380.94L239.384 380.948ZM223.686 408.275C225.239 405.063 226.057 403.368 227.379 400.632C221.57 400.251 216.147 399.525 210.791 399.842C209.648 399.91 207.568 403.975 207.897 405.853C209.568 415.346 216.564 420.368 226.569 420.181C232.663 420.07 238.757 420.161 245.816 420.161C244.748 417.621 244.228 416.378 243.549 414.766C244.621 414.849 245.308 414.687 245.669 414.961C248.635 417.2 251.406 421.21 254.495 421.456C260.645 421.948 266.977 420.499 273.178 419.494C273.81 419.391 274.425 416.842 274.385 415.449C274.29 412.162 273.794 408.886 273.472 405.726C262.451 405.726 251.271 405.726 240.087 405.726C239.893 405.726 239.607 405.583 239.519 405.67C235.581 409.605 233.711 406.961 232.675 403.856C229.983 405.178 227.537 406.381 223.682 408.275H223.686ZM285.136 155.134C288.602 155.646 292.501 156.222 296.694 156.837C295.979 159.6 295.197 162.626 294.415 165.655C295.062 165.822 295.713 165.988 296.36 166.155C302.74 152.883 309.652 139.754 306.929 123.079C296.904 138.527 279.344 147.618 276.497 168.092C282.75 165.722 281.527 159.025 285.14 155.138L285.136 155.134ZM162.796 530.79C163.316 528.535 163.253 526.121 163.261 523.775C163.296 510.911 163.423 498.048 163.185 485.193C163.126 482.044 161.819 478.92 159.874 475.998C155.983 495.213 156.372 514.23 159.489 534.943C161.081 533.025 162.51 532.036 162.8 530.79H162.796ZM227.577 444.808C227.577 445.312 227.577 446.976 227.577 449.195C230.813 449.195 233.973 449.723 236.796 448.973C238.189 448.604 239.706 445.932 239.837 444.201C240.071 441.14 239.166 438.007 238.983 434.887C238.888 433.263 239.321 431.611 239.599 429.281C233.358 429.281 226.43 429.281 219.502 429.281C219.256 429.904 219.01 430.524 218.767 431.147C221.848 433.596 224.933 436.05 228.963 439.258C225.874 439.671 224.008 439.917 222.146 440.167C221.932 440.695 221.721 441.227 221.507 441.755C223.297 442.656 225.088 443.554 227.581 444.808H227.577ZM314.091 87.7008C314.452 88.1574 314.817 88.61 315.179 89.0666C312.209 92.5603 309.239 96.058 306.059 99.8019C314.833 100.247 323.027 83.4885 319.792 73.2177C314.75 74.8693 309.708 76.5169 304.666 78.1685C304.431 77.6683 304.197 77.1641 303.963 76.6638C302.954 78.2876 301.946 79.9114 300.934 81.5352C301.116 81.9679 301.303 82.4007 301.485 82.8374C305.392 81.4042 309.303 79.967 313.563 78.4027C313.376 87.8755 302.51 85.688 300.072 91.8457C300.509 92.4174 300.946 92.9931 301.386 93.5648C305.622 91.6114 309.859 89.6581 314.095 87.7048L314.091 87.7008ZM136.915 337.126C134.711 332.782 143.664 329.59 137.328 324.707C136.144 326.077 135.025 327.371 133.564 329.058C132.996 327.986 132.508 327.065 132.329 326.728C130.543 328.927 128.569 331.365 125.874 334.684C125.175 332.227 124.857 331.111 124.941 331.405C122.789 335.252 120.006 339.667 117.81 344.359C116.306 347.575 114.714 351.148 117.223 354.924C115.527 344.995 126.052 343.156 129.213 336.324C131.777 336.59 134.064 336.828 136.915 337.126ZM226.029 306.365C224.814 316.215 223.766 324.707 222.519 334.803C228.145 328.689 230.285 312.4 226.029 306.365ZM149.357 325.259C149.913 325.35 150.473 325.442 151.029 325.537C152.549 318.764 154.066 311.987 155.586 305.214C150.921 307.35 155.59 315.651 146.499 315.044C146.499 318.216 146.499 322.15 146.499 326.081C146.773 326.136 147.047 326.196 147.32 326.251C147.729 324.751 148.138 323.25 148.75 320.999C149.04 323.012 149.198 324.135 149.361 325.259H149.357ZM247.44 328.078C250.759 327.379 255.463 315.326 254.372 308.743C251.529 315.862 245.594 320.384 247.44 328.078ZM305.773 117.159C306.968 115.905 306.932 113.479 307.441 111.573C305.587 111.55 303.312 110.827 301.966 111.645C298.702 113.618 295.264 116.135 299.389 120.879C301.593 119.665 304.153 118.863 305.769 117.163L305.773 117.159ZM289.829 84.5684C289.702 86.0969 287.773 87.8517 286.232 88.7966C283.671 90.3648 280.761 91.3613 277.633 92.7668C283.235 95.3513 293.128 89.2532 296.491 81.297C293.033 80.7332 290.234 79.701 289.829 84.5684ZM33.0952 395.535C33.659 400.799 34.8778 405.988 35.8862 411.205C36.5294 411.125 37.1765 411.046 37.8197 410.967C37.8197 405.412 37.8197 399.862 37.8197 392.736C36.1125 393.708 33.0158 394.792 33.0952 395.535ZM41.0514 346.916C40.44 346.992 39.8246 347.067 39.2132 347.142C40.3487 356.381 41.4802 365.619 42.6156 374.858C43.5327 374.735 44.4498 374.616 45.3669 374.493C43.9297 365.302 42.4925 356.107 41.0554 346.916H41.0514ZM99.6469 477.407C100.326 477.328 101.005 477.248 101.684 477.173C101.231 470.32 100.778 463.472 100.33 456.619C99.5158 456.663 98.7059 456.707 97.8921 456.75C94.6087 464.119 100.806 470.304 99.6508 477.407H99.6469ZM258.461 192.827C258.989 193.212 259.517 193.593 260.045 193.978C264.551 187.753 269.053 181.527 273.559 175.302C272.821 174.786 272.086 174.266 271.348 173.75C267.052 180.11 262.757 186.466 258.461 192.827ZM248.853 206.615C248.19 206.099 247.531 205.579 246.868 205.063C243.188 209.652 239.507 214.238 235.831 218.827C236.673 219.45 237.51 220.074 238.352 220.697C241.854 216.004 245.351 211.308 248.853 206.615ZM121.971 497.254C122.547 497.234 123.126 497.214 123.702 497.198C126.973 491.434 123.428 485.756 121.971 479.972V497.254ZM230.638 94.4938C231.857 89.7256 233.08 84.9575 234.299 80.1893C233.612 80.0146 232.925 79.8399 232.234 79.6653C229.892 84.2865 226.45 88.7172 230.634 94.4977L230.638 94.4938ZM259.747 102.16C264.484 97.7612 268.95 93.6164 273.413 89.4715C265.81 90.4323 261.093 94.4025 259.747 102.16ZM14.4236 328.554C13.9273 328.558 13.431 328.566 12.9348 328.57C12.9348 334.108 12.9348 339.647 12.9348 345.185C14.1377 345.137 15.3367 345.086 16.5397 345.038C15.833 339.543 15.1303 334.049 14.4236 328.554ZM48.9718 340.623C50.2939 342.12 51.9812 344.026 54.1886 346.519C56.5667 340.874 51.612 336.451 50.949 331.377C50.2979 334.422 49.6468 337.471 48.9718 340.623ZM294.816 174.218C293.819 171.975 292.942 169.998 291.552 166.874C290.155 170.788 289.063 173.849 287.971 176.914C288.571 177.264 289.17 177.613 289.77 177.962C291.373 176.771 292.973 175.584 294.816 174.214V174.218ZM289.952 185.823C286.583 184.632 283.843 186.21 281.734 190.556C282.179 191.115 282.623 191.671 283.072 192.231C285.236 190.218 287.399 188.201 289.952 185.827V185.823ZM202.728 304.078C201.918 303.919 201.108 303.757 200.298 303.598C199.595 307.608 198.897 311.621 198.194 315.631C198.909 315.738 199.619 315.846 200.334 315.953C201.132 311.995 201.93 308.036 202.732 304.078H202.728ZM115.242 294.486C114.904 294.482 114.563 294.474 114.225 294.47C113.793 299.135 113.364 303.796 112.931 308.461C113.701 308.469 114.471 308.481 115.242 308.489C115.242 303.82 115.242 299.155 115.242 294.486ZM209.942 328.574C209.398 328.57 208.854 328.562 208.31 328.558C208.068 331.897 207.826 335.236 207.583 338.575C208.52 338.575 209.461 338.575 210.398 338.579C210.243 335.244 210.093 331.909 209.938 328.578L209.942 328.574ZM87.796 427.542C86.9503 428.074 86.1087 428.602 85.263 429.134C86.5295 430.936 87.792 432.735 89.0545 434.537C89.7135 434.14 90.3686 433.743 91.0277 433.346C89.9518 431.413 88.8719 429.475 87.796 427.542ZM68.2747 171.65C68.7075 177.768 76.0046 182.373 83.0596 180.928C88.5225 179.808 94.0609 179.054 99.4761 177.752C100.31 177.553 101.469 174.48 101.076 174.064C94.9105 167.537 91.7145 157.992 81.4834 155.507C77.4418 154.526 75.0279 155.035 73.4716 158.818C71.7168 163.086 70.0057 167.37 68.2747 171.65ZM56.0546 383.469C55.0065 383.918 53.9583 384.367 53.2914 384.652C55.7529 390.413 58.0754 395.856 60.3463 401.18C61.1999 397.285 62.0892 393.248 62.9746 389.214L63.1056 389.393C60.6917 387.384 58.2779 385.371 55.864 383.362L56.0546 383.473V383.469ZM390.818 302.645C390.818 302.645 390.592 302.391 390.584 302.387C394.419 302.387 398.258 302.387 401.414 302.387C399.33 300.739 396.765 298.71 393.597 296.205C392.541 298.647 391.679 300.648 390.814 302.645H390.818ZM428.098 301.39H415.155C415.151 301.752 415.147 302.113 415.143 302.474C419.447 302.736 423.746 302.998 428.05 303.26C428.066 302.637 428.082 302.014 428.098 301.39Z" fill="white"/>
</mask>
<g mask="url(#mask0_59_169778)">
<path d="M445.013 529.479H-18.6016V535.351H445.013V529.479Z" fill="#CBAFFF"/>
<path d="M445.013 518.534H-18.6016V524.322H445.013V518.534Z" fill="#CBAFFF"/>
<path d="M445.013 507.589H-18.6016V513.298H445.013V507.589Z" fill="#CBAFFF"/>
<path d="M445.013 496.646H-18.6016V502.272H445.013V496.646Z" fill="#CBAFFF"/>
<path d="M445.013 485.701H-18.6016V491.243H445.013V485.701Z" fill="#CBAFFF"/>
<path d="M445.013 474.755H-18.6016V480.214H445.013V474.755Z" fill="#CBAFFF"/>
<path d="M445.013 463.809H-18.6016V469.189H445.013V463.809Z" fill="#CBAFFF"/>
<path d="M445.013 452.864H-18.6016V458.16H445.013V452.864Z" fill="#CBAFFF"/>
<path d="M445.013 441.918H-18.6016V447.131H445.013V441.918Z" fill="#CBAFFF"/>
<path d="M445.013 430.972H-18.6016V436.101H445.013V430.972Z" fill="#CBAFFF"/>
<path d="M445.013 420.027H-18.6016V425.077H445.013V420.027Z" fill="#CBAFFF"/>
<path d="M445.013 409.084H-18.6016V414.051H445.013V409.084Z" fill="#CBAFFF"/>
<path d="M445.013 398.139H-18.6016V403.022H445.013V398.139Z" fill="#CBAFFF"/>
<path d="M445.013 387.194H-18.6016V391.994H445.013V387.194Z" fill="#CBAFFF"/>
<path d="M445.013 376.247H-18.6016V380.964H445.013V376.247Z" fill="#CBAFFF"/>
<path d="M445.013 365.302H-18.6016V369.939H445.013V365.302Z" fill="#CBAFFF"/>
<path d="M445.013 354.356H-18.6016V358.91H445.013V354.356Z" fill="#CBAFFF"/>
<path d="M445.013 343.411H-18.6016V347.881H445.013V343.411Z" fill="#CBAFFF"/>
<path d="M445.013 332.469H-18.6016V336.856H445.013V332.469Z" fill="#CBAFFF"/>
<path d="M445.013 321.523H-18.6016V325.83H445.013V321.523Z" fill="#CBAFFF"/>
<path d="M445.013 310.577H-18.6016V314.801H445.013V310.577Z" fill="#CBAFFF"/>
<path d="M445.013 299.632H-18.6016V303.773H445.013V299.632Z" fill="#CBAFFF"/>
<path d="M445.013 288.686H-18.6016V292.744H445.013V288.686Z" fill="#CBAFFF"/>
<path d="M445.013 277.74H-18.6016V281.719H445.013V277.74Z" fill="#CBAFFF"/>
<path d="M445.013 266.794H-18.6016V270.689H445.013V266.794Z" fill="#CBAFFF"/>
<path d="M445.013 255.853H-18.6016V259.664H445.013V255.853Z" fill="#CBAFFF"/>
<path d="M445.013 244.907H-18.6016V248.635H445.013V244.907Z" fill="#CBAFFF"/>
<path d="M445.013 233.961H-18.6016V237.606H445.013V233.961Z" fill="#CBAFFF"/>
<path d="M445.013 223.016H-18.6016V226.581H445.013V223.016Z" fill="#CBAFFF"/>
<path d="M445.013 212.07H-18.6016V215.552H445.013V212.07Z" fill="#CBAFFF"/>
<path d="M445.013 201.125H-18.6016V204.523H445.013V201.125Z" fill="#CBAFFF"/>
<path d="M445.013 190.178H-18.6016V193.494H445.013V190.178Z" fill="#CBAFFF"/>
<path d="M445.013 179.233H-18.6016V182.469H445.013V179.233Z" fill="#CBAFFF"/>
<path d="M445.013 168.291H-18.6016V171.443H445.013V168.291Z" fill="#CBAFFF"/>
<path d="M445.013 157.345H-18.6016V160.414H445.013V157.345Z" fill="#CBAFFF"/>
<path d="M445.013 146.4H-18.6016V149.385H445.013V146.4Z" fill="#CBAFFF"/>
<path d="M445.013 135.454H-18.6016V138.36H445.013V135.454Z" fill="#CBAFFF"/>
<path d="M445.013 124.508H-18.6016V127.331H445.013V124.508Z" fill="#CBAFFF"/>
<path d="M445.013 113.563H-18.6016V116.302H445.013V113.563Z" fill="#CBAFFF"/>
<path d="M445.013 102.617H-18.6016V105.273H445.013V102.617Z" fill="#CBAFFF"/>
<path d="M445.013 91.675H-18.6016V94.2477H445.013V91.675Z" fill="#CBAFFF"/>
<path d="M445.013 80.7292H-18.6016V83.2225H445.013V80.7292Z" fill="#CBAFFF"/>
<path d="M445.013 69.7837H-18.6016V72.1936H445.013V69.7837Z" fill="#CBAFFF"/>
<path d="M445.013 58.8381H-18.6016V61.1646H445.013V58.8381Z" fill="#CBAFFF"/>
<path d="M445.013 47.8921H-18.6016V50.1352H445.013V47.8921Z" fill="#CBAFFF"/>
<path d="M445.013 36.9468H-18.6016V39.1105H445.013V36.9468Z" fill="#CBAFFF"/>
<path d="M445.013 26.001H-18.6016V28.0813H445.013V26.001Z" fill="#CBAFFF"/>
<path d="M445.013 15.0591H-18.6016V17.0561H445.013V15.0591Z" fill="#CBAFFF"/>
<path d="M445.013 4.11328H-18.6016V6.02689H445.013V4.11328Z" fill="#CBAFFF"/>
<path d="M1.7349 -22.4906H0.246094V580.953H1.7349V-22.4906Z" fill="#F2FF7D"/>
<path d="M8.2642 -22.4906H6.77539V580.953H8.2642V-22.4906Z" fill="#F2FF7D"/>
<path d="M14.7954 -22.4906H13.3066V580.953H14.7954V-22.4906Z" fill="#F2FF7D"/>
<path d="M21.3208 -22.4906H19.832V580.953H21.3208V-22.4906Z" fill="#F2FF7D"/>
<path d="M27.854 -22.4906H26.3652V580.953H27.854V-22.4906Z" fill="#F2FF7D"/>
<path d="M34.3853 -22.4906H32.8965V580.953H34.3853V-22.4906Z" fill="#F2FF7D"/>
<path d="M40.9107 -22.4906H39.4219V580.953H40.9107V-22.4906Z" fill="#F2FF7D"/>
<path d="M47.4419 -22.4906H45.9531V580.953H47.4419V-22.4906Z" fill="#F2FF7D"/>
<path d="M53.9732 -22.4906H52.4844V580.953H53.9732V-22.4906Z" fill="#F2FF7D"/>
<path d="M60.5044 -22.4906H59.0156V580.953H60.5044V-22.4906Z" fill="#F2FF7D"/>
<path d="M67.0298 -22.4906H65.541V580.953H67.0298V-22.4906Z" fill="#F2FF7D"/>
<path d="M73.5611 -22.4906H72.0723V580.953H73.5611V-22.4906Z" fill="#F2FF7D"/>
<path d="M80.0923 -22.4906H78.6035V580.953H80.0923V-22.4906Z" fill="#F2FF7D"/>
<path d="M86.6197 -22.4906H85.1309V580.953H86.6197V-22.4906Z" fill="#F2FF7D"/>
<path d="M93.1509 -22.4906H91.6621V580.953H93.1509V-22.4906Z" fill="#F2FF7D"/>
<path d="M99.6822 -22.4906H98.1934V580.953H99.6822V-22.4906Z" fill="#F2FF7D"/>
<path d="M106.213 -22.4906H104.725V580.953H106.213V-22.4906Z" fill="#F2FF7D"/>
<path d="M112.739 -22.4906H111.25V580.953H112.739V-22.4906Z" fill="#F2FF7D"/>
<path d="M119.27 -22.4906H117.781V580.953H119.27V-22.4906Z" fill="#F2FF7D"/>
<path d="M125.801 -22.4906H124.312V580.953H125.801V-22.4906Z" fill="#F2FF7D"/>
<path d="M132.329 -22.4906H130.84V580.953H132.329V-22.4906Z" fill="#F2FF7D"/>
<path d="M138.858 -22.4906H137.369V580.953H138.858V-22.4906Z" fill="#F2FF7D"/>
<path d="M145.389 -22.4906H143.9V580.953H145.389V-22.4906Z" fill="#F2FF7D"/>
<path d="M151.922 -22.4906H150.434V580.953H151.922V-22.4906Z" fill="#F2FF7D"/>
<path d="M158.448 -22.4906H156.959V580.953H158.448V-22.4906Z" fill="#F2FF7D"/>
<path d="M164.979 -22.4906H163.49V580.953H164.979V-22.4906Z" fill="#F2FF7D"/>
<path d="M171.508 -22.4906H170.02V580.953H171.508V-22.4906Z" fill="#F2FF7D"/>
<path d="M178.04 -22.4906H176.551V580.953H178.04V-22.4906Z" fill="#F2FF7D"/>
<path d="M184.567 -22.4906H183.078V580.953H184.567V-22.4906Z" fill="#F2FF7D"/>
<path d="M191.098 -22.4906H189.609V580.953H191.098V-22.4906Z" fill="#F2FF7D"/>
<path d="M197.629 -22.4906H196.141V580.953H197.629V-22.4906Z" fill="#F2FF7D"/>
<path d="M204.155 -22.4906H202.666V580.953H204.155V-22.4906Z" fill="#F2FF7D"/>
<path d="M210.688 -22.4906H209.199V580.953H210.688V-22.4906Z" fill="#F2FF7D"/>
<path d="M217.217 -22.4906H215.729V580.953H217.217V-22.4906Z" fill="#F2FF7D"/>
<path d="M223.745 -22.4906H222.256V580.953H223.745V-22.4906Z" fill="#F2FF7D"/>
<path d="M230.276 -22.4906H228.787V580.953H230.276V-22.4906Z" fill="#F2FF7D"/>
<path d="M236.807 -22.4906H235.318V580.953H236.807V-22.4906Z" fill="#F2FF7D"/>
<path d="M243.338 -22.4906H241.85V580.953H243.338V-22.4906Z" fill="#F2FF7D"/>
<path d="M249.864 -22.4906H248.375V580.953H249.864V-22.4906Z" fill="#F2FF7D"/>
<path d="M256.395 -22.4906H254.906V580.953H256.395V-22.4906Z" fill="#F2FF7D"/>
<path d="M262.926 -22.4906H261.438V580.953H262.926V-22.4906Z" fill="#F2FF7D"/>
<path d="M269.454 -22.4906H267.965V580.953H269.454V-22.4906Z" fill="#F2FF7D"/>
<path d="M275.983 -22.4906H274.494V580.953H275.983V-22.4906Z" fill="#F2FF7D"/>
<path d="M282.516 -22.4906H281.027V580.953H282.516V-22.4906Z" fill="#F2FF7D"/>
<path d="M289.045 -22.4906H287.557V580.953H289.045V-22.4906Z" fill="#F2FF7D"/>
<path d="M295.573 -22.4906H294.084V580.953H295.573V-22.4906Z" fill="#F2FF7D"/>
<path d="M302.104 -22.4906H300.615V580.953H302.104V-22.4906Z" fill="#F2FF7D"/>
<path d="M308.633 -22.4906H307.145V580.953H308.633V-22.4906Z" fill="#F2FF7D"/>
<path d="M315.167 -22.4906H313.678V580.953H315.167V-22.4906Z" fill="#F2FF7D"/>
<path d="M321.692 -22.4906H320.203V580.953H321.692V-22.4906Z" fill="#F2FF7D"/>
<path d="M328.223 -22.4906H326.734V580.953H328.223V-22.4906Z" fill="#F2FF7D"/>
<path d="M334.754 -22.4906H333.266V580.953H334.754V-22.4906Z" fill="#F2FF7D"/>
<path d="M341.282 -22.4906H339.793V580.953H341.282V-22.4906Z" fill="#F2FF7D"/>
<path d="M347.811 -22.4906H346.322V580.953H347.811V-22.4906Z" fill="#F2FF7D"/>
<path d="M354.342 -22.4906H352.854V580.953H354.342V-22.4906Z" fill="#F2FF7D"/>
<path d="M360.874 -22.4906H359.385V580.953H360.874V-22.4906Z" fill="#F2FF7D"/>
<path d="M367.401 -22.4906H365.912V580.953H367.401V-22.4906Z" fill="#F2FF7D"/>
<path d="M373.932 -22.4906H372.443V580.953H373.932V-22.4906Z" fill="#F2FF7D"/>
<path d="M380.461 -22.4906H378.973V580.953H380.461V-22.4906Z" fill="#F2FF7D"/>
<path d="M386.991 -22.4906H385.502V580.953H386.991V-22.4906Z" fill="#F2FF7D"/>
<path d="M393.52 -22.4906H392.031V580.953H393.52V-22.4906Z" fill="#F2FF7D"/>
<path d="M400.051 -22.4906H398.562V580.953H400.051V-22.4906Z" fill="#F2FF7D"/>
<path d="M406.583 -22.4906H405.094V580.953H406.583V-22.4906Z" fill="#F2FF7D"/>
<path d="M413.108 -22.4906H411.619V580.953H413.108V-22.4906Z" fill="#F2FF7D"/>
<path d="M419.639 -22.4906H418.15V580.953H419.639V-22.4906Z" fill="#F2FF7D"/>
<path d="M426.17 -22.4906H424.682V580.953H426.17V-22.4906Z" fill="#F2FF7D"/>
<path d="M432.698 -22.4906H431.209V580.953H432.698V-22.4906Z" fill="#F2FF7D"/>
<path d="M439.229 -22.4906H437.74V580.953H439.229V-22.4906Z" fill="#F2FF7D"/>
</g>
</svg>
