<svg width="396" height="564" viewBox="0 0 396 564" fill="none" xmlns="http://www.w3.org/2000/svg">
<mask id="mask0_59_183009" style="mask-type:luminance" maskUnits="userSpaceOnUse" x="0" y="0" width="405" height="564">
<path d="M62.2949 350.493C61.4799 354.502 57.8888 358.715 63.3748 362.398C65.8504 358.791 68.4787 355.511 68.9983 363.376C69.0136 363.615 69.2988 363.931 69.5382 364.043C71.5792 364.997 72.6947 366.744 72.8849 369.284C66.212 370.787 60.7719 366.32 54.5421 365.337C55.2247 368.709 58.9534 368.261 60.563 370.375C56.7375 373.253 52.3213 372.555 48.0832 372.855C53.0293 374.358 58.3981 377.134 62.3713 371.969C64.1134 369.702 64.6533 369.865 66.6704 370.991C71.1173 373.466 75.8495 374.394 81.0858 373.935C85.9606 373.507 92.1394 374.414 94.5742 377.924C98.5321 383.634 101.232 383.786 105.144 379.11C107.217 379.976 106.636 383.038 109.509 383.022C109.173 381.657 108.878 380.445 108.343 378.265C112.076 381.296 114.98 381.01 117.873 378.255C118.861 377.312 121.602 375.652 121.342 378.993C120.894 384.8 124.775 385.946 128.81 387.25C130.114 387.673 131.565 387.8 131.311 389.787C129.492 391.152 127.358 389.7 124.363 390.561C129.869 392.471 130.557 396.918 131.932 400.876C132.727 399.302 131.265 397.412 133.053 395.793C136.18 398.452 133.297 402.883 135.238 404.839C140.006 409.632 137.81 415.597 139.135 421.694C140.133 417.635 140.953 414.314 141.768 410.997C142.68 416.061 151.069 415.118 150.178 421.231C147.601 422.158 147.473 418.455 145.257 419.056C145.446 427.644 144.483 428.342 137.484 424.898C137.316 424.817 137.067 424.853 136.934 424.741C133.149 421.491 131.061 421.577 131.835 427.318C131.942 428.102 132.182 428.953 131.193 429.279C130.17 429.615 129.294 429.167 128.642 428.362C127.358 426.778 127.791 425.168 128.448 423.442C129.273 421.277 129.507 419.137 126.181 417.049C127.954 423.314 125.157 426.243 119.738 429.172C121.694 421.19 117.43 415.786 116.039 409.699C118.877 415.668 113.039 418.2 111.012 422.229C110.609 423.024 109.438 422.779 109.112 422.036C107.803 419.005 106.407 415.383 107.512 412.602C108.557 409.974 111.567 407.508 115.433 408.614C119.218 403.571 123.909 398.752 119.707 391.702C119.554 391.442 119.167 391.325 118.856 391.116C116.646 392.446 115.841 394.402 114.853 396.862C113.217 400.917 114.287 407.182 108.195 408.349C105.755 408.817 104.843 411.089 103.453 411.466C100.274 412.322 99.3726 419.3 93.6981 414.13C94.7423 417.212 95.4707 419.356 96.1992 421.501C100.223 420.482 101.981 416.723 104.935 413.769C107.961 417.838 107.538 421.516 104.166 424.15C100.743 426.824 98.3844 423.645 96.1278 421.363C92.9697 423.951 92.8169 420.711 91.9509 419.122C91.6096 418.496 91.8898 417.558 91.6249 416.86C91.3549 416.152 91.2072 415.108 89.3582 415.093C92.6029 424.511 90.9984 435.015 98.9243 443.822C100.671 437.877 94.9665 433.97 96.3927 428.928C98.6951 433.935 103.712 438.545 102.989 443.73C102.251 448.987 97.4879 453.363 93.204 457.137C96.8002 458.074 98.0431 457.825 99.668 455.853C105.195 449.16 105.638 449.629 113.472 452.884C117.792 454.682 120.334 461.467 126.823 458.084C127.893 457.524 129.171 459.271 129.095 460.825C128.911 464.492 126.767 464.727 123.843 463.815C122.616 463.433 120.537 462.149 120.512 464.864C120.491 467.35 120.751 467.05 118.688 467.416C113.238 468.384 110.915 462.582 106.101 462.363C106.621 459.867 110.508 458.584 107.543 455.436C105.933 457.82 103.682 458.726 101.079 458.747C97.5694 458.772 95.8171 462.373 95.537 464.024C95.1498 466.296 98.6747 467.426 101.247 467.783C103.142 468.043 105.073 467.895 106.988 467.87C114.058 467.773 119.875 472.439 126.823 473.468C114.883 476.555 103.967 467.044 92.1496 471.232C95.593 478.281 97.9973 479.239 105.261 476.336C107.772 475.332 111.068 473.238 112.912 474.904C117.012 478.607 121.5 480.023 126.925 480.146C117.838 479.382 109.219 486.89 99.4948 479.31C101.66 486.533 107.11 486.554 112.779 488.927C97.3096 492.101 82.5835 489.849 68.1833 495.722C74.357 495.722 79.461 495.722 85.3341 495.722C81.4679 498.55 77.3114 496.96 73.7457 498.127C75.8087 504.051 81.0247 499.894 84.514 502.018C81.1776 504.341 77.5253 502.782 73.8578 503.75C77.2757 506.531 80.1435 507.489 83.8162 505.523C87.3665 503.623 87.9829 499.66 90.5247 497.118C87.0405 495.07 88.9201 494.454 91.3549 494.362C99.0975 494.082 106.835 493.777 114.496 492.483C116.014 492.228 118.877 492.651 118.535 493.532C116.411 498.998 122.055 497.434 122.773 497.332C126.899 496.736 124.337 500.337 125.59 501.55C126.344 502.278 127.46 505.034 124.872 506.384C123.981 506.847 122.213 506.7 122.483 508.33C122.733 509.827 124.093 510.474 125.504 510.668C133.812 511.809 142.145 512.787 150.428 514.096C152.857 514.478 156.403 515.059 153.647 519.047C152.806 520.259 152.496 521.528 153.876 521.747C158.837 522.536 163.101 527.294 168.735 524.289C175.851 520.489 183.512 522.928 190.928 522.572C192.324 522.506 194.234 523.346 192.777 524.89C191.183 526.581 190.373 529.713 186.512 528.71C182.096 527.559 177.751 529.515 173.36 530.039C182.345 532.337 190.032 536.544 197.005 542.203C196.506 541.388 196.007 540.573 195.513 539.758C193.959 537.191 195.024 534.95 196.506 532.861C197.652 531.247 198.88 532.296 199.944 533.086C201.467 534.216 203.765 535.688 202.277 537.558C200.897 539.285 201.422 544.098 196.827 542.045C193.817 544.959 189.94 544.786 186.176 545.02C186.706 547.516 187.057 550.43 190.719 549.416C196.312 547.863 201.844 549.217 207.397 549.401C209.312 549.462 211.63 550.313 212.964 548.785C214.818 546.66 210.529 546.177 211.186 543.956C213.794 543.349 216.326 543.619 219.051 544.078C222.092 544.592 225.643 548.642 228.464 542.208C229.988 538.734 235.749 545.723 239.177 541.663C241.184 539.29 243.257 540.049 245.468 540.818C247.215 541.424 248.896 541.658 250.337 540.207C251.229 539.31 252.156 538.571 253.307 539.606C255.895 541.918 255.859 545.137 255.956 548.209C256.052 551.357 253.225 550.165 251.656 550.807C250.673 551.209 248.952 550.628 248.916 552.228C248.87 554.138 250.668 553.955 251.957 554.097C258.268 554.785 264.05 558.025 270.779 557.357C269.561 560.47 265.975 557.923 264.972 560.755C267.356 562.543 270.249 562.395 272.184 561.3C275.73 559.293 279.423 559.848 282.255 561.157C286.116 562.945 287.435 560.775 288.923 558.559C289.967 557.001 290.11 554.719 292.794 555.172C295.188 555.58 296.512 556.95 296.747 559.456C296.854 560.617 297.424 562.1 298.682 562.008C300.46 561.876 300.409 560.083 300.251 558.799C299.681 554.143 301.005 548.983 304.148 546.915C306.715 545.224 306.466 542.478 306.359 542.163C305.045 538.251 307.775 537.976 309.94 538.485C315.37 539.758 314.718 535.79 314.748 533.009C314.799 528.73 314.845 524.395 313.419 520.203C313.042 519.098 312.573 517.249 314.183 516.576C317.641 515.125 316.562 514.279 313.964 513.337C310.235 511.982 307.917 509.399 306.98 505.482C305.992 501.356 304.128 498.101 299.294 497.347C296.889 496.976 296.115 494.541 295.336 492.457C298.952 491.327 295.229 490.155 295.326 488.988C295.427 487.751 288.637 484.694 296.304 485.474C296.528 485.499 297.073 484.654 297.068 484.221C297.052 483.273 296.166 483.217 295.448 482.901C292.937 481.796 289.32 481.175 288.266 479.214C285.958 474.94 279.835 472.597 281.756 465.832C282.403 463.56 279.83 460.881 277.268 458.92C273.178 455.787 269.902 451.615 265.079 449.333C264.376 449.002 263.612 447.78 263.663 447.026C264.039 441.377 261.172 437.047 257.82 433.125C251.519 425.754 245.243 418.45 243.247 407.916C247.092 411.273 249.588 414.935 252.166 418.552C253.719 420.732 255.039 423.263 257.744 424.308C261.498 425.754 263.836 428.846 266.617 431.48C268.685 433.436 267.172 435.932 267.875 437.511C269.734 441.693 272.623 445.488 276.412 448.325C281.802 452.359 285.831 457.213 288.113 463.764C289.412 467.493 291.144 471.634 295.998 473.626C296.441 469.775 294.383 467.304 293.191 464.559C292.478 462.913 290.67 461.197 292.809 459.388C296.528 456.251 295.478 452.12 294.353 448.641C292.881 444.082 290.481 439.777 288.113 435.57C284.613 429.355 282.138 422.815 280.436 415.913C284.736 418.791 286.508 423.314 288.806 427.461C292.733 434.551 296.706 441.392 303.216 446.781C310.663 452.95 318.39 460.423 317.957 470.62C317.54 480.436 321.161 487.919 325.786 495.605C326.189 496.268 326.968 496.981 326.907 497.602C326.612 500.495 327.472 504.193 322.465 504.611C324.391 505.89 326.026 506.924 326.871 509.104C328.573 513.469 334.125 514.391 335.724 510.306C337.181 506.593 339.718 508.763 342.132 507.576C336.702 501.351 336.799 493.211 332.867 486.635C330.651 482.932 331.064 482.728 334.848 479.422C335.332 479 335.694 477.981 335.546 477.375C334.802 474.278 335.994 471.537 336.881 468.725C337.431 466.978 336.916 463.993 339.173 463.978C341.781 463.963 341.394 467.141 342.066 469.026C342.754 470.956 341.908 472.846 341.552 474.741C341.052 477.415 340.589 480.11 341.18 482.82C341.44 484.027 342.102 485.031 343.589 484.664C344.567 484.424 345.795 483.518 345.408 482.764C342.26 476.646 349.855 471.119 346.284 464.997C345.861 464.273 346.34 463.046 347.328 462.521C348.169 462.073 349.106 462.572 349.264 463.224C350.654 468.965 358.713 470.304 358.407 477.252C358.356 478.424 358.855 480.512 360.944 480.609C361.937 480.655 362.808 480.222 363.19 479.132C363.725 477.594 364.606 476.585 362.788 474.69C360.312 472.113 361.239 470.585 364.774 469.724C363.338 466.754 363.368 462.908 359.39 461.757C360.643 459.791 362.217 461.11 363.348 460.468L363.231 460.58C363.496 457.173 365.834 457.809 368.014 458.125L367.892 458.268C367.214 453.388 372.415 455.858 373.795 453.551C376.76 455.456 380.835 456.154 381.446 460.606C381.446 460.606 381.462 460.326 381.462 460.321C382.755 460.504 386.143 458.828 386.764 456.541C388.038 451.834 390.126 454.412 391.033 456.083C394.334 462.149 396.906 457.916 398.297 455.268C400.92 450.266 400.446 444.443 400.614 438.952C400.92 429.101 400.701 419.229 400.701 409.092C403.37 410.014 402.815 411.762 402.82 413.157C402.891 425.907 402.917 438.662 402.942 451.417C402.942 453.556 402.85 455.685 401.195 457.346L401.169 457.264C403.518 459.643 402.922 462.659 402.922 465.526C402.932 495.559 403.747 395.37 403.732 320.338C403.732 303.086 404.48 285.777 403.421 268.585C402.402 252.015 407.358 235.257 400.431 218.676C398.113 213.129 399.804 205.371 399.814 198.622C399.835 187.365 399.697 176.072 398.067 164.815C397.4 160.2 397.049 155.162 396.228 150.735C395.062 144.409 397.869 137.93 394.741 131.965C397.874 130.518 393.651 128.465 395.149 126.683C396.473 127.07 397.736 127.442 399.224 127.875C400.176 123.693 397.685 119.312 396.498 116.78C394.104 111.666 400.451 115.364 398.633 114.162C394.914 111.712 397.222 109.45 397.318 106.562C397.446 102.839 396.478 99.1506 396.702 95.0196C397.018 89.2228 397.42 83.3039 397.553 77.4307C397.726 69.5201 400.451 61.5687 397.42 52.3387C397.303 57.081 394.899 59.4191 393.493 62.2105C394.583 64.956 393.131 67.233 392.439 70.0498C389.612 65.6692 390.09 63.377 393.661 62.3735C388.282 58.9555 390.737 54.1114 391.741 49.8682C393.712 41.5195 391.924 33.2625 392.194 24.9443C391.084 28.1381 390.722 31.3625 390.33 34.5869C389.275 43.2259 389.153 52.1095 386.948 60.4429C382.567 76.9876 379.714 93.6697 378.711 110.719C378.594 112.67 379.832 115.598 377.468 116.464C374.891 117.402 372.919 115.074 371.091 113.332C365.834 108.314 360.546 103.328 355.015 98.086C356.069 101.3 358.188 103.689 360.159 106.17C361.835 108.284 364.229 110.184 364.983 112.593C366.577 117.687 366.216 117.804 370.362 120.081C372.058 121.013 373.795 121.874 375.487 122.811C378.578 124.523 379.714 127.08 379.006 130.579C378.589 132.652 378.349 134.777 378.252 136.891C377.982 142.728 377.208 143.202 371.651 140.69C368.885 139.443 366.348 137.324 362.966 138.358L363.093 138.215C364.835 143.625 369.389 146.446 373.709 149.33C376.577 151.245 376.454 153.725 376.077 156.466C375.853 158.086 374.488 159.278 373.255 158.631C367.545 155.641 360.633 158.346 355.254 154.897C351.444 152.452 347.46 150.618 343.197 149.518C337.721 148.107 334.991 142.962 330.585 140.324C329.332 147.939 339.214 146.91 340.604 153.685C332.439 150.053 327.177 144.124 320.346 139.04C320.861 142.484 322.618 144.557 324.37 145.978C330.921 151.291 337.303 156.772 343.655 162.309C345.662 164.061 347.425 168.895 352.045 166.103C352.3 165.951 354.011 167.387 354.363 168.334C355.977 172.725 352.936 177.595 348.204 178.629C347.114 178.868 345.296 177.972 345.199 180.208C348.505 181.889 352.707 177.682 355.427 181.655C357.368 184.492 360.215 187.024 360.404 192.066C350.771 186.825 341.735 182.47 331.67 179.205C332.714 183.682 334.909 185.796 338.251 187.034C340.202 187.757 342.662 188.353 343.396 190.498C344.073 192.479 344.318 192.112 346.162 191.613C352.182 189.993 364.596 195.352 367.464 200.502C368.075 201.597 368.258 203.477 367.729 204.536C366.954 206.079 365.391 205.025 364.168 204.546C362.253 203.792 360.327 203.049 356.996 201.755C360.404 205.091 361.178 208.041 362.146 210.633C359.141 212.406 356.033 206.762 354.745 210.323C353.166 214.698 348.184 216.084 347.201 220.709C346.559 218.681 345.912 216.654 345.097 214.082C344.796 216.191 345.729 218.06 343.915 219.44C340.008 215.926 339.647 210.068 335.317 206.788C334.089 210.944 339.025 213.032 337.059 217.5C332.342 210.124 327.009 204.001 320.433 199.147C318.11 205.356 324.997 208.198 326.041 213.257C325.282 213.46 324.864 213.73 324.564 213.634C312.033 209.604 302.411 201.164 293.543 192.031C291.969 190.406 291.373 187.426 288.637 186.244C285.973 185.093 283.442 183.631 280.808 182.398C279.464 181.767 277.767 180.534 276.647 182.078C276.102 182.826 276.657 184.752 277.253 185.852C278.159 187.533 279.525 188.969 280.706 190.498C287.838 199.733 297.251 206.426 307.25 211.82C312.863 214.846 313.77 218.778 313.938 223.847C313.964 224.539 313.296 225.227 313.668 226.322C315.365 231.263 312.369 232.246 308.325 232.567C306.705 232.695 304.81 229.842 303.358 233.026C305.233 233.795 306.664 235.445 309.058 234.849C313.215 233.81 313.633 236.377 313.139 239.49C312.461 243.763 311.544 248.006 312.558 252.469C309.726 252.387 309.033 250.227 307.571 249.102C305.727 247.675 305.844 243.122 302.788 244.476C300.633 245.434 303.562 248.531 303.338 250.752C303.313 251.012 302.859 251.231 302.07 251.964C300.292 247.324 293.909 247.263 292.794 242.49C291.999 239.087 289.763 237.106 287.807 234.961C285.841 232.807 282.301 231.655 279.688 232.511C276.855 233.433 278.241 236.861 278.322 239.26C278.536 245.724 284.196 249.015 287.043 253.956C287.435 254.639 288.464 254.97 289.04 254.2C292.381 249.698 292.336 254.262 292.814 255.764C293.889 259.131 294.551 262.631 295.392 266.12C292.855 265.906 292.218 262.274 289.967 262.967C285.276 264.414 283.951 261.637 282.581 258.225C282.235 257.364 280.951 256.885 280.054 256.192C278.964 258.708 278.654 261.133 278.485 263.787C277.166 260.945 277.268 257.104 272.806 257.354C271.476 260.868 272.444 264.301 273.504 267.358C270.453 268.539 271.028 263.649 268.349 264.862C266.306 265.784 270.514 267.954 268.614 268.759C258.936 268.096 258.212 260.42 255.355 254.18C255.09 257.481 254.82 260.782 254.555 264.123C249.527 261.592 251.341 257.359 251.392 254.027C240.231 255.072 250.016 262.855 247.393 266.68C244.989 266.308 245.004 263.665 242.992 262.692C244.269 268.495 243.827 272.657 241.668 275.177C235.244 268.876 240.206 259.946 236.655 252.84C238.785 252.917 238.275 256.325 240.97 256.151C241.296 252.779 238.932 250.283 238.352 247.309C238.178 246.412 236.89 245.913 236.681 246.427C235.667 248.908 230.757 248.383 232.081 252.657C232.759 254.847 232.922 257.211 233.197 259.508C233.329 260.629 233.472 261.994 231.612 261.846C230.624 261.77 229.346 261.51 229.539 260.354C230.441 254.98 227.339 249.27 231.251 244.069C232.565 242.317 233.986 240.6 231.989 237.203C229.264 232.562 226.091 227.804 224.94 222.288C224.807 221.646 224.985 220.938 225.021 220.291C226.564 220.306 226.249 222.624 227.762 221.977C228.933 217.994 227.746 214.632 225.627 211.418C224.848 210.236 223.029 208.132 224.838 207.562C228.347 206.456 225.846 204.862 225.974 203.339C226.458 197.634 220.732 191.74 226.549 186.153C227.405 185.332 226.376 183.758 225.429 183.183C222.046 181.12 220.651 177.86 219.856 173.194C217.34 183.993 219.311 193.926 217.874 203.701C217.554 205.886 215.017 207.745 216.484 209.92C220.712 216.186 221.175 223.485 222.826 230.519C224.028 235.649 222.866 240.682 223.478 245.806C224.395 253.452 223.717 261.286 223.717 269.003C221.802 268.188 223.187 265.086 220.707 264.51C218.934 267.903 218.002 271.367 219.545 275.065C220.131 276.465 221.471 279.028 222.107 278.493C225.469 275.676 224.323 278.686 224.583 280.102C224.787 281.228 224.934 282.466 225.515 283.398C229.178 289.317 227.298 295.664 228.088 302.637C224.7 300.447 225.693 298.216 225.806 296.224C225.918 294.227 225.449 292.908 223.136 292.562C221.109 292.261 219.27 291.716 218.649 294.508C218.17 296.657 216.433 296.703 214.711 297.508C212.225 298.674 207.325 298.797 208.074 303.147C208.568 306.014 207.081 307.329 205.777 309.208C209.984 308.75 213.805 312.952 212.388 316.228C210.275 321.107 203.077 324.775 196.796 324.077C199.573 321.52 202.827 319.34 203.103 313.803C199.853 317.211 196.231 318.357 194.351 321.683C193.679 322.875 192.767 324.327 191.259 323.15C190.2 322.32 191.03 321.051 191.733 320.084C192.833 318.576 194.275 317.241 194.474 315.25C193.017 314.144 192.248 316.971 190.847 315.683C191.341 311.108 198.014 310.762 197.739 305.658C197.555 305.714 197.362 305.755 197.184 305.826C195.034 306.702 193.745 311.679 190.857 308.205C188.392 305.24 192.456 302.744 193.577 300.06C194.071 298.873 195.528 299.255 196.542 300.146C198.411 301.787 200.041 303.437 197.555 305.841C198.696 305.138 199.761 304.069 201.004 303.794C205.013 302.897 202.878 299.535 203.001 297.757C203.164 295.328 200.301 299.413 199.196 297.024C201.742 292.302 210.208 293.779 210.794 286.414C208.033 286.704 207.381 289.246 205.39 290.015C199.603 292.261 194.433 295.424 191.015 300.829C190.19 302.133 189.013 302.963 187.673 302.398C186.064 301.72 186.609 300.146 187.032 298.853C187.541 297.289 189.736 295.837 187.373 294.003C185.733 296.026 185.57 300.559 182.167 299.117C172.652 295.093 170.681 290.891 170.65 280.433C170.614 269.558 169.952 258.851 163.101 249.468C160.773 246.275 159.612 242.149 158.308 238.318C157.116 234.824 155.486 231.655 153.255 227.973C149.816 235.445 155.42 241.41 155.002 248.939C148.247 236.24 141.182 224.891 141.671 210.837C141.733 209.11 141.57 206.253 139.293 206.146C136.46 206.013 137.479 208.963 137.077 210.664C136.858 211.591 137.123 212.64 136.863 213.552C136.364 215.33 137.112 218.147 134.953 218.605C132.65 219.094 132.268 216.277 131.433 214.673C128.682 209.406 126.614 203.869 124.526 198.291C118.204 181.39 113.854 163.939 109.046 146.609C108.429 144.383 107.614 141.903 111.078 141.057C117.145 139.58 117.695 133.004 121.938 129.662C119.243 131.593 116.442 132.54 113.33 132.831C112.107 132.948 110.278 132.912 111.236 135.138C111.801 136.447 111.715 137.522 110.044 137.532C108.526 137.543 108.246 136.152 108.159 135.036C107.497 126.764 103.621 118.818 104.736 110.469C105.719 103.103 99.2809 100.643 96.4844 95.8244C95.537 94.1944 94.1718 95.529 93.1123 96.4153C91.9764 97.3678 92.5062 99.6142 89.455 99.9605C89.2054 92.8802 90.4024 85.5197 86.9285 78.9487C84.2288 80.6449 89.1443 84.0985 85.3901 84.9237C83.5105 85.3363 80.1843 87.0478 79.7004 82.1883C78.8803 86.2175 81.254 89.6864 79.4304 93.8022C75.6712 87.6183 74.4691 81.083 71.3364 75.4543C74.4028 87.5215 77.9837 99.3697 81.3762 111.274C81.8907 113.082 83.8773 116.057 81.417 116.872C77.3674 118.222 79.6698 120.163 80.4695 121.609C81.8041 124.034 82.2065 126.749 83.2406 129.107C84.081 131.022 81.9467 136.381 87.6976 134.828C87.9931 134.746 88.8641 136.264 89.2512 137.135C90.5909 140.14 92.17 143.095 93.0563 146.238C96.3571 157.979 98.853 169.949 103.29 181.37C104.237 183.804 105.022 186.163 108.353 187.538C107.645 180.463 104.594 174.956 102.653 169.144C97.3147 153.17 96.7544 136.412 94.0801 120C93.8152 118.38 93.5147 116.551 95.537 116.215C98.1806 115.777 97.6814 118.13 98.1297 119.735C102.938 137.028 104.41 155.162 112.107 171.758C117.832 184.095 118.673 198.148 126.13 210.216C129.024 214.902 129.696 221.346 133.919 225.889C135.141 227.203 135.268 228.788 133.267 230.219C129.207 233.127 129.523 242.928 133.618 245.653C134.749 246.407 136.741 247.151 136.516 244.991C135.951 239.561 140.663 235.002 138.742 229.358C139.919 235.303 145.436 239.372 144.448 246.438C144.004 249.606 145.4 254.201 150.575 256.34C156.642 258.846 157.248 264.276 153.326 270.149C152.226 268.392 150.901 266.92 150.305 265.188C148.828 260.894 146.877 259.742 143.602 263.583C142.517 264.857 141.615 265.183 140.383 263.629C137.286 259.717 136.017 261.755 135.355 265.916C132.823 262.554 127.888 260.96 130.832 255.627C131.326 254.735 130.684 253.936 130.073 253.075C125.076 246.066 122.152 238.099 118.826 230.229C117.119 226.18 117.058 221.733 114.292 217.714C110.446 212.131 106.051 206.798 103.478 200.104C100.529 192.428 101.176 184.247 98.3436 176.663C96.6066 172.007 97.0345 171.849 93.0104 174.87C92.552 171.482 90.8048 168.793 89.4142 165.915C88.1255 163.251 85.6041 160.327 87.0864 157.271C88.5534 154.24 87.1729 152.172 86.2561 149.691C83.4494 142.086 80.3116 134.563 78.0907 126.784C70.6283 100.623 68.2444 73.3251 60.507 47.1991C59.3201 43.2005 58.3829 38.4989 59.3354 34.6123C62.0657 23.4416 56.4218 13.7991 54.807 3.46381C54.6644 2.54693 54.0429 0.529788 52.1633 2.20564C50.136 4.01394 48.9797 3.88659 46.8098 1.55873C46.01 0.69788 45.2613 -0.387093 43.9369 0.137567C42.4597 0.723353 42.964 2.03755 43.2339 3.13271C43.9318 5.94958 44.6959 8.75626 45.4243 11.5629C46.7843 16.7892 49.5706 22.1478 47.7419 27.4097C45.9693 32.5086 47.6757 36.4767 49.6114 40.5822C51.1751 43.8983 53.5132 46.8374 55.2553 50.0771C57.5831 54.4017 58.1383 58.8282 55.0515 63.1274L55.133 63.0611C57.2419 63.4024 58.3115 65.2005 58.1383 66.7643C57.3284 74.2318 60.8432 80.7519 62.5496 87.6081C64.4547 95.2692 64.526 102.996 65.6823 110.754C63.0997 110.698 64.0522 106.868 61.5869 107.871C59.7072 108.635 60.6903 110.54 60.7617 112.007C62.9673 114.661 63.7619 118.181 66.3037 120.682C67.9745 122.322 66.7978 124.243 66.0439 126.02C65.0863 128.272 64.2101 130.559 62.8654 133.9C59.9008 126.153 64.2356 118.573 60.8636 111.885C58.8668 108.803 57.2368 108.488 54.6033 111.686C51.0885 115.955 49.6826 120.295 51.4196 125.572L51.2821 125.394C52.6523 130.447 56.0193 134.843 54.5116 140.792C52.5352 148.596 62.5088 146.263 64.1083 150.97C65.0812 153.838 67.2613 151.148 68.3718 152.753C72.5589 158.809 76.9344 164.733 81.1826 170.749C81.6054 171.35 81.7277 172.201 81.8703 172.96C85.7925 193.936 93.7185 213.715 100.116 233.953C100.621 235.547 101.706 237.457 100.407 238.909C98.7715 240.738 97.8648 238.318 96.5965 237.804C95.975 237.554 95.0581 237.651 94.4061 237.916C90.5298 239.49 87.4531 237.656 84.947 235.231C79.6698 230.122 71.4535 230.122 66.3597 224.55C67.5873 226.363 68.82 228.171 70.2004 230.209C66.1101 231.273 63.3544 230.351 60.1453 228.176C54.4097 224.295 49.2344 220.261 46.5449 213.659C46.1374 212.656 45.4141 211.352 43.9878 212.253C43.0098 212.869 43.346 214.021 43.8044 214.887C46.2291 219.425 47.8235 224.392 53.4775 226.607C57.2724 228.095 60.507 230.993 64.5464 233.627C59.1673 234.727 46.4532 228.935 44.1508 224.962C44.0591 224.804 43.7586 224.672 43.7688 224.555C44.4615 218.799 39.0723 217.281 36.556 213.705C36.7699 218.646 42.205 221.61 40.9774 226.989C38.2827 227.998 35.9498 224.967 32.6898 226.495C39.5257 231.222 47.1205 233.362 54.2212 236.566C59.1877 238.807 64.1439 238.619 67.9439 235.685C73.0937 231.711 77.5865 233.795 81.9722 235.781C85.2424 237.264 88.1764 239.622 91.5587 241.089C94.7627 242.48 94.3908 245.862 94.0903 248.052C93.7083 250.828 90.4482 249.728 88.6349 249.407C83.4086 248.48 78.2741 247.049 72.6913 245.714C74.469 248.821 77.0669 248.898 79.5424 248.883C83.6124 248.862 87.0354 250.564 90.4024 252.509C91.7777 253.304 93.311 254.307 91.8949 256.126C88.3394 260.68 93.1276 260.333 94.9308 260.782C101.436 262.401 106.545 267.5 107.782 274.306C104.996 274.555 104.466 270.771 101.155 270.592C102.954 275.151 102.312 279.797 104.818 283.826C103.728 283.388 102.852 282.889 102.373 282.135C100.61 279.374 99.0058 276.511 97.2841 273.72C94.5029 269.207 87.4837 266.533 82.9044 268.198C81.8499 268.58 81.2743 269.436 81.473 270.445C82.0078 273.175 80.7548 274.499 78.4982 275.931C75.8087 277.637 76.2315 279.659 79.3081 280.958C82.8993 282.471 86.5413 283.648 90.4941 283.474C92.496 283.388 94.4571 283.286 95.0582 285.879C95.8069 289.113 97.7935 289.195 100.784 288.828C108.241 287.916 116.895 294.324 117.456 299.983C112.667 300.788 108.531 297.691 103.712 297.554C102.006 297.503 99.7037 297.926 98.9549 296.127C96.846 291.074 94.5335 293.907 92.3635 295.786C91.3397 296.672 90.7488 298.364 89.4855 296.173C87.7435 293.142 84.6414 293.586 81.8703 292.878C78.2436 291.951 74.0972 293.458 70.9187 290.682C66.9965 287.254 63.2271 283.653 59.2896 280.245C55.4081 276.878 51.7304 273.098 45.4905 272.182C48.017 282.486 57.5373 285.767 63.1558 292.664C61.1946 291.732 59.2386 290.804 56.8038 289.648C57.1603 290.728 57.1858 291.365 57.5118 291.706C64.2458 298.72 72.0597 303.233 82.2065 302.714C84.3917 302.602 86.5872 303.325 88.2375 305.429C84.3408 306.56 79.8634 306.391 80.7548 312.743C76.9344 310.069 73.7865 307.548 70.3482 305.515C62.4019 300.814 55.2196 294.986 47.2325 290.305C40.5291 286.378 32.211 284.488 28.3702 276.409C27.5807 274.754 25.2376 273.837 23.6076 272.579C24.988 274.667 26.6333 276.257 27.9933 278.172C29.1801 279.843 26.8777 282.685 29.1649 283.429C34.7477 285.242 35.1755 291.859 39.9586 294.329C40.8959 294.813 41.1658 296.402 40.5648 297.518C39.7599 299.011 38.5935 298.033 37.5594 297.696C31.7067 295.812 26.6842 291.543 20.1743 292.159C20.5666 293.937 21.7432 295.959 23.6279 297.284C31.7576 303.009 40.4323 307.548 50.6454 307.869C54.3435 307.986 57.1247 308.77 59.422 312.132C61.3933 315.01 64.1287 317.995 68.112 317.995C75.5082 317.995 82.6344 321.489 90.2038 319.498C91.7574 319.09 93.6523 319.819 95.3536 320.19C97.223 320.598 97.931 321.907 97.279 323.685C96.4793 325.88 90.8048 327.312 88.9354 325.865C87.6467 324.867 86.4038 322.676 85.2628 326.064C83.4596 331.417 76.8478 334.85 71.1683 333.501C75.3044 336.969 75.5388 343.383 72.0648 349.271C69.2275 354.079 65.774 352.21 62.2236 350.595L62.3306 350.524L62.2949 350.493ZM168.597 482.586C170.456 481.796 171.012 483.986 171.939 485.046C172.56 485.754 172.973 486.686 172.244 487.664C170.594 489.895 169.254 486.757 167.696 487.409C165.831 489.365 164.089 489.085 162.199 487.318C160.824 486.034 159.393 484.7 161.063 483.003C162.729 481.312 163.651 483.156 164.649 484.317C165.653 485.479 166.799 486.513 167.884 487.608C167.563 485.835 166.02 483.676 168.592 482.586H168.597ZM143.143 462.307C144.692 460.458 147.865 458.956 143.908 456.297C143.179 455.808 143.612 454.397 144.386 453.734C145.899 452.441 154.564 455.813 154.314 457.738C154.024 459.984 154.895 461.395 155.71 463.29C157.432 467.284 154.095 470.844 149.816 469.617C147.193 468.863 144.172 468.343 142.267 465.883C140.235 466.754 138.065 467.33 136.241 465.766C135.075 464.768 135.676 463.178 136.323 461.981C136.904 460.906 136.848 459.098 138.824 459.287C140.622 459.455 140.729 460.855 141.025 462.21C141.315 463.525 141.814 464.788 142.222 466.072C141.86 464.65 142.242 463.377 143.143 462.302V462.307ZM140.663 280.286C142.43 277.326 143.154 273.119 147.489 274.051C151.436 274.897 150.091 278.004 149.134 280.586C151.385 279.048 151.711 282.318 153.326 282.384C154.92 280.26 150.407 278.019 153.489 276.195C156.372 274.489 157.854 277.785 160.055 278.508C161.552 276.797 159.79 275.172 160.029 273.297C160.671 273.491 161.257 273.501 161.598 273.796C168.511 279.72 168.562 280.851 162.276 287.651C160.564 289.5 161.252 296.688 163.748 297.645C169 299.663 168.393 304.013 169.183 308.215C157.386 304.502 152.99 294.615 148.319 285.028C147.473 283.296 148.512 281.656 149.541 280.199C146.612 281.248 143.755 278.294 140.668 280.291L140.663 280.286ZM254.096 380.185C250.072 379.981 245.666 376.971 243.048 372.87C241.214 369.992 239.324 367.12 235.484 372.224C235.484 370.303 235.326 369.361 235.519 368.5C235.901 366.789 236.757 364.547 234.628 364.023C233.217 363.671 231.648 366.223 229.534 365.265C229.32 366.529 229.626 368.098 227.262 367.237C225.48 366.585 224.807 365.556 224.746 363.844C224.715 363.07 224.578 362.291 224.639 361.527C225.077 356.173 223.585 353.366 217.915 356.652C215.47 358.068 213.586 356.142 213.005 355.057C211.803 352.816 210.804 349.77 211.38 347.478C211.899 345.415 213.698 347.305 214.64 348.41C215.419 349.327 215.506 351.115 217.554 350.259C219.438 349.47 217.253 347.651 218.669 346.785C220.62 347.6 222.021 352.434 224.945 347.396C225.806 345.909 226.804 349.414 229.656 349.128C230.201 349.037 229.519 347.493 229.87 346.541C230.563 344.666 231.449 343.418 233.691 344.483C235.764 345.471 234.944 346.958 234.424 348.41C233.056 352.227 233.631 355.596 236.151 358.516C235.535 353.188 237.552 348.741 236.513 343.495C239.538 344.361 240.72 345.817 241.153 348.359C241.606 351.033 240.369 354.818 245.824 354.462C247.969 354.324 244.698 356.616 245.432 357.976C252.604 358.475 252.41 352.556 253.821 347.697C258.248 350.167 258.793 354.309 256.317 356.901C253.404 359.963 256.98 363.707 253.837 366.05C256.185 368.072 258.834 364.394 261.345 367.16C257.784 368.255 254.978 370.252 252.854 373.237C255.059 374.149 256.674 371.072 258.818 372.397C259.256 372.667 259.822 373.635 259.751 373.706C255.757 377.74 266.332 381.184 259.791 385.62C259.659 381.713 258.462 380.414 254.091 380.19L254.096 380.185ZM334.981 260.507C331.807 257.715 332.215 260.206 331.98 262.34C331.95 262.605 329.357 263.109 328.344 262.641C326.168 261.642 322.333 260.817 322.852 258.316C323.835 253.559 320.525 250.553 319.618 246.657C319.226 244.955 318.635 243.356 321.161 243.6C324.1 243.886 323.973 241.405 325.272 240.035C331.303 233.683 324.63 229.98 322.088 226.073C320.942 224.315 320.958 223.48 321.375 222.054C322.119 219.517 323.346 221.463 324.396 221.789C333.575 224.641 334.884 226.765 332.653 236.983C332.093 239.551 332.469 241.43 333.733 243.478C336.83 248.506 338.816 255.708 338.928 262.233C337.298 261.444 338.276 255.948 334.981 260.507ZM251.621 312.998C250.964 314.913 249.594 317.104 253.434 318.316C255.604 319.004 254.315 321.754 252.609 322.855C251.448 323.603 249.996 323.741 250.684 325.641C251.33 327.429 252.854 327.184 254.096 326.874C256.195 326.354 257.581 326.858 257.891 329.038C258.243 331.55 255.732 331.295 254.687 331.305C252.65 331.331 249.033 335.594 248.631 329.247C248.493 327.042 245.661 330.475 243.883 328.427C242.961 325.457 249.329 325.157 247.245 321.321C244.602 321.219 240.348 324.347 239.946 318.117C244.561 319.055 247.775 316.9 247.352 311.765C247.006 307.568 248.967 306.137 251.886 304.471C252.339 307.385 252.614 310.125 251.626 312.993L251.621 312.998ZM195.385 362.423C192.635 363.06 192.655 360.324 191.463 359.031C186.95 354.125 189.507 346.729 185.269 341.671C184.133 340.316 185.687 339.216 186.823 338.492C187.959 337.774 189.349 338.014 189.879 339.094C192.772 344.977 198.854 349.536 197.29 357.319C196.858 358.959 198.452 361.715 195.385 362.423ZM236.095 329.303C236.834 330.541 234.995 331.504 233.844 332.258C231.918 333.511 229.881 332.635 229.31 331.213C227.807 327.485 221.695 327.76 222.179 322.63C222.219 322.187 222.872 321.393 223.126 321.438C229.682 322.534 229.575 317.74 229.926 312.102C234.964 317.924 233.161 324.388 236.1 329.303H236.095ZM402.494 319.747C397.028 307.196 398.989 294.34 400.701 281.615C403.635 294.329 402.677 307.043 402.494 319.747ZM243.425 291.543C241.724 296.362 247.943 299.841 245.575 304.685C244.306 307.283 241.387 306.921 239.049 308.225C238.657 306.065 238.504 304.12 237.929 302.311C237.058 299.591 242.314 300.08 240.527 296.362C239.416 294.054 238.183 289.898 242.024 288.202C243.272 287.651 243.323 284.906 245.417 286.276C246.919 287.259 246.201 288.584 245.982 289.923C245.809 290.998 246.135 292.149 246.237 293.27C244.795 293.275 244.938 291.115 243.425 291.543ZM146.5 406.607C148.405 405.028 147.285 402.746 148.09 400.958C148.517 404.732 150.586 408.186 149.781 412.098C140.592 407.408 136.34 402.946 137.026 398.711C137.433 403.229 142.227 399.75 143.398 402.914C145.242 401.177 143.245 398.869 144.478 396.48C146.495 400.046 144.611 403.617 146.5 406.602V406.607ZM104.364 326.782C104.069 325.371 102.358 323.848 103.845 322.595C105.582 321.133 106.983 322.834 108.282 323.929C112.728 327.678 113.661 333.867 117.832 337.907C113.895 333.424 105.852 333.903 104.364 326.782ZM50.6352 22.1224C49.973 20.4669 50.2073 18.3326 52.1328 17.6959C54.2314 17.0031 55.0668 18.9795 55.7392 20.5738C57.8378 25.5607 59.2896 30.6545 56.8751 36.548C54.7765 31.7445 52.5759 26.9869 50.6301 22.1224H50.6352ZM109.382 440.669C112.397 436.461 109.927 433.079 108.358 428.413C112.902 430.196 112.591 433.644 111.949 435.825C111.104 438.713 116.146 439.441 113.61 442.472C111.644 444.825 115.566 447.739 112.795 450.525C106.27 447.255 105.567 445.992 109.382 440.664V440.669ZM231.444 409.515C236.737 415.455 247.189 417.003 246.965 428.933C240.445 422.749 235.815 416.244 231.444 409.515ZM89.4448 345.013C90.326 345.746 91.5536 346.281 91.4874 347.565C91.4059 349.128 89.9796 348.772 88.9405 349.118C87.7486 349.521 86.8419 350.733 85.6601 351.232C83.7601 352.032 81.8601 351.344 80.495 350.05C78.5645 348.227 80.7191 348.003 81.7379 346.994C84.0301 344.727 79.9907 344.264 80.1945 341.895C83.3017 343.174 86.7756 342.797 89.4448 345.018V345.013ZM124.836 430.512C124.246 432.799 125.814 435.02 124.577 437.2C123.848 438.489 124.668 441.137 121.836 440.608C119.131 440.103 119.203 438.494 120.242 436.365C122.004 432.753 118.78 434.842 117.099 434.108C119.794 432.264 121.836 430.598 124.836 430.512ZM283.971 553.267C285.326 553.608 286.457 554.602 285.984 556.201C285.52 557.78 284.084 557.882 282.693 557.688C279.341 557.225 276.917 555.809 276.937 551.647C279.851 551.179 281.791 552.717 283.971 553.262V553.267ZM108.541 301.675C108.18 303.366 107.563 306.468 105.113 306.208C102.694 305.948 101.568 303.35 101.339 300.961C101.115 298.593 102.913 298.792 104.594 299.011C106.051 299.703 109.188 298.644 108.541 301.68V301.675ZM80.6325 364.812C80.658 364.705 81.7837 364.619 81.9977 364.868C83.1489 366.208 83.7907 367.828 83.7856 369.605C83.7856 370.624 82.8585 370.736 82.1046 370.767C78.2996 370.909 75.0345 370.329 75.2841 365.026C77.3012 364.736 79.1349 370.634 80.6325 364.812ZM260.718 541.954C261.044 542.932 262.145 544.124 260.443 544.771C259.099 545.28 258.441 544.098 257.708 543.197C255.11 539.972 257.606 536.59 257.784 533.325C258.762 536.203 259.751 539.076 260.713 541.959L260.718 541.954ZM220.798 401.722C220.559 400.637 219.53 399.475 220.681 398.548C221.909 397.565 222.856 398.762 223.595 399.552C225.266 401.35 226.809 403.27 228.806 405.618C225.77 404.06 221.776 406.118 220.798 401.722ZM206.699 523.993C212.506 524.024 214.151 525.134 216.728 531.583C213.499 529.138 210.269 526.698 206.699 523.993ZM384.732 102.12C385.002 101.804 387.289 103.215 388.644 103.822C386.632 105.37 388.139 109.435 383.901 109.792C382.949 106.852 382.923 104.239 384.737 102.115L384.732 102.12ZM180.98 487.914C181.525 488.897 180.165 489.595 179.182 489.238C176.763 488.367 174.888 486.915 174.964 483.981C174.995 482.856 175.459 482.183 176.136 482.26C179.839 482.84 179.854 485.881 180.985 487.914H180.98ZM344.221 250.1C342.02 249.382 340.283 248.587 340.757 245.862C340.925 244.894 341.562 243.631 342.514 244.15C344.348 245.154 345.907 246.667 347.517 247.92C346.467 249.366 346.131 250.716 344.226 250.1H344.221ZM137.841 473.641C136.888 473.086 135.803 471.7 136.593 470.824C138.615 468.573 141.162 470.406 143.622 470.681C142.023 472.612 140.902 475.424 137.841 473.641ZM400.466 384.316C403.395 388.483 403.574 391.804 401.546 398.93C399.728 394 401.76 389.456 400.466 384.316ZM197.387 344.753C194.891 344.085 194.82 341.289 193.725 339.425C193.012 338.212 194.55 337.657 195.294 337.677C198.666 337.764 197.428 340.963 198.457 342.369C198.508 343.596 198.569 345.069 197.392 344.748L197.387 344.753ZM401.276 361.868C403.268 364.95 402.815 368.143 401.276 371.363C401.276 368.199 401.276 365.031 401.276 361.868ZM228.74 278.136C228.816 277.418 229.875 276.766 230.517 277.296C232.061 278.574 232.83 280.092 231.297 282.074C230.859 282.639 231.108 283.744 231.032 284.707C226.916 283.449 228.495 280.525 228.74 278.136ZM239.355 324.912C239.294 325.167 238.148 325.508 237.969 325.335C235.611 322.992 236.991 320.053 236.533 317.063C238.805 319.493 240.078 321.897 239.35 324.912H239.355ZM76.7001 428.179C72.6505 426.727 73.7304 422.728 73.1447 419.947C72.1157 415.042 71.7693 409.933 69.8286 405.287C67.9694 400.84 70.8015 397.249 70.9849 392.594C75.116 395.675 76.8529 400.29 80.8465 402.832C80.6937 398.217 76.6899 394.366 78.3709 389.568C80.7293 388.987 80.5459 391.646 82.5427 392.171C82.9553 389.624 84.0657 387.301 86.4853 385.223C88.477 391.514 93.5402 391.977 98.9091 391.83L98.7512 391.672C98.5321 391.962 98.3538 392.471 98.094 392.517C93.4994 393.337 87.2799 393.037 92.8983 400.53C93.0817 400.774 92.715 401.839 92.3584 402.012C90.4737 402.924 90.1477 400.168 88.5432 400.301C88.7622 402.97 88.0134 403.902 85.6041 403.917C84.3612 403.927 83.6124 404.681 84.3204 405.705C87.0558 409.658 83.8671 414.365 86.1542 418.358C83.7092 416.132 84.2695 412.994 83.4596 410.289C82.9146 408.476 81.9213 406.311 79.4813 406.994C76.1602 407.926 79.5272 409.648 79.247 410.671C78.651 412.862 78.6918 414.721 79.7768 416.636L79.8328 416.56C76.6747 416.025 77.7698 411.14 73.3841 411.043C73.1447 417.018 75.5744 422.494 76.6696 428.174C76.6492 428.184 76.7052 428.174 76.7052 428.174L76.7001 428.179ZM76.0023 444.611C72.3857 443.012 69.0645 440.959 65.0965 439.879C59.6665 438.397 58.9687 434.123 62.1268 426.488C65.0201 427.868 66.0948 431.031 68.4889 432.809C72.62 435.881 74.683 435.137 75.5489 430.186C75.6712 429.483 76.2773 428.861 76.6797 428.194C76.7001 428.184 76.6441 428.189 76.6645 428.179C76.2162 437.531 80.5103 444.071 89.2054 442.452C88.9914 444.504 85.7161 447.52 90.7233 448.136C92.2209 448.32 90.9525 449.95 90.1019 450.663C88.156 452.293 84.1371 452.868 84.1371 451.31C84.1371 446.333 80.0213 448.411 78.2436 446.848C77.398 446.104 76.6441 445.253 75.8342 444.438C77.1127 443.323 79.4915 445.182 80.2301 442.88C80.3625 442.462 79.4711 441.199 79.0483 441.193C75.8036 441.173 73.5776 438 69.9662 438C71.6471 440.974 74.9326 441.759 76.0023 444.611ZM232.188 227.748C232.871 219.986 233.574 214.082 233.833 208.158C233.961 205.254 236.278 205.066 237.593 205.326C239.33 205.667 239.635 207.144 238.723 209.37C237.042 213.481 236.406 217.923 242.91 218.799C243.41 218.865 243.95 219.308 244.286 219.731C244.805 220.378 242.778 234.824 242.157 235.364C241.235 236.168 239.452 236.892 239.131 235.965C237.73 231.92 232.081 230.871 232.193 227.748H232.188ZM381.411 460.586C381.411 460.586 381.426 460.305 381.426 460.3C383.82 469.897 378.747 475.775 371.447 480.691C368.452 482.708 368.768 479.84 368.269 478.679C366.96 475.643 368.294 471.537 364.509 469.495C369.058 469.194 369.313 467.218 366.608 464.1C365.533 462.862 363.424 462.557 363.317 460.448L363.2 460.56C365.35 460.27 366.032 462.251 367.336 463.26C368.121 463.866 368.951 464.574 369.878 463.876C370.989 463.041 370.821 461.864 370.092 460.815C369.44 459.877 368.686 459.006 367.978 458.105L367.856 458.247C373.143 461.187 375.818 461.65 380.845 460.529C381.018 460.489 381.222 460.565 381.411 460.586ZM57.3029 398.976C54.1957 398.834 52.148 397.224 49.5349 396.837C43.7025 395.976 45.1135 389.492 43.5854 385.447C42.5463 382.696 46.2495 383.19 47.8031 382.192C48.613 381.673 49.4535 381.204 50.2583 380.679C52.7695 379.059 54.7917 378.056 54.0327 382.737C53.8443 383.888 53.7832 385.967 55.2553 386.328C61.8568 387.953 61.271 393.643 62.7941 398.599C60.3491 397.241 58.3846 395.127 56.9006 392.257C54.6898 394.489 57.6544 396.429 57.3029 398.981V398.976ZM67.9439 58.9555C61.8568 39.426 61.8008 20.6095 58.7547 1.80323C61.5053 2.45524 61.215 4.16675 61.9383 5.17023C68.3514 14.0436 62.3662 24.2312 65.0048 33.5121C66.1458 37.5158 66.2833 41.8863 67.9235 45.6353C69.6503 49.583 70.3329 53.1741 67.9439 58.9555ZM89.1493 232.46C91.4263 231.421 90.1579 227.815 92.7201 228.706C94.8187 229.44 94.4418 232.027 93.8713 233.871C92.9391 236.871 91.0595 234.467 89.618 234.36C87.8912 234.233 86.9335 232.908 86.0625 231.615C84.7789 229.71 83.5818 229.032 80.8567 229.521C76.3538 230.321 73.9138 227.356 73.1548 223.057C75.0701 221.804 75.6406 224.025 77.4082 223.908C77.2044 221.6 76.8988 219.064 78.9414 216.7C81.2642 217.301 83.8263 221.514 86.8571 217.413C87.9574 218.254 91.5995 216.338 89.3225 220.882C87.9116 223.694 86.2051 228.406 89.1544 232.46H89.1493ZM51.2465 125.368C50.7524 127.727 52.4027 131.287 49.9323 132.22C47.6553 133.08 45.2103 130.442 42.857 129.153C34.6458 124.655 37.2182 115.084 31.8799 108.982C34.3605 108.533 34.3351 109.949 34.8139 110.744C35.308 111.569 35.6849 112.471 36.0975 113.347C37.2335 115.756 38.3745 117.702 41.7975 116.551C44.487 115.644 45.9336 117.972 47.309 119.887C48.6639 121.772 50.0189 123.652 51.3789 125.547C51.3789 125.557 51.2465 125.373 51.2465 125.373V125.368ZM196.088 270.103C198.386 271.397 200.398 273.205 199.19 276.74C198.885 277.632 198.854 279.023 199.858 279.303C208.879 281.804 202.119 284.396 199.842 286.694C198.304 288.247 196.333 289.373 194.321 290.86C193.368 289.256 194.881 287.565 193.796 286.037C192.416 284.101 190.73 285.711 189.13 285.716C190.903 280.026 190.755 274.132 196.083 270.103H196.088ZM350.267 519.444C360.455 512.934 361 511.08 356.624 500.287C355.906 498.519 355.32 496.604 355.178 494.719C355.04 492.926 354.347 490.807 356.329 489.391C357.378 492.513 363.399 488.128 362.686 493.4C362.334 496.003 366.96 498.188 362.701 501.422C361.397 502.411 364.331 507.347 362.869 510.668C361.463 513.872 358.708 515.685 356.115 517.661C354.627 518.797 353.099 520.117 350.272 519.439L350.267 519.444ZM312.201 188.898C313.964 189.464 314.769 189.723 315.981 190.116C313.719 186.713 311.223 184.146 308.136 181.874C309.461 179.597 311.753 178.955 314.086 178.553C317.611 177.946 321.233 176.963 320.372 183.086C320.025 185.562 321.243 188.287 321.874 190.869C322.582 193.763 320.795 195.413 318.696 196.289C316.47 197.216 316.042 194.827 315.191 193.416C314.417 192.133 313.541 190.91 312.201 188.898ZM42.0623 341.498C40.3661 339.532 39.0876 338.156 37.9313 336.684C36.8056 335.243 35.9804 333.552 37.5391 332.003C39.3728 330.179 40.8246 331.886 41.8943 333.083C43.9369 335.36 45.7044 337.881 47.8896 340.688C43.0811 342.909 38.1758 344.075 33.1381 344.636C30.9885 344.875 28.5893 342.96 28.7828 341.64C29.0324 339.934 28.9102 337.968 29.5164 336.516C30.1429 335.024 31.7984 336.613 32.9597 337.066C35.8734 338.197 37.7428 341.508 42.0623 341.498ZM379.123 531.338C380.647 532 382.175 532.668 383.754 533.355C384.177 531.69 381.518 531.145 382.735 529.678C383.54 528.71 384.89 529.041 385.995 529.316C389.734 530.248 393.462 531.221 397.181 532.23C398.302 532.535 399.57 533.014 399.397 534.44C399.275 535.444 398.256 535.938 397.227 536.035C395.49 536.203 393.931 536.325 392.897 538.251C391.873 540.166 390.05 539.881 388.394 538.796C387.91 538.48 387.503 538.052 387.019 537.731C384.182 535.846 381.334 533.977 378.492 532.102C378.701 531.843 378.915 531.588 379.123 531.328V531.338ZM401.129 457.239C400.635 463.733 397.415 468.934 392.877 473.376C395.164 475.342 397.385 472.77 399.626 474.43C397.583 477.589 394.278 477.527 391.242 477.915C390.259 478.042 388.934 477.237 389.092 476.402C389.617 473.605 391.659 471.481 390.141 467.88C388.69 464.426 393.065 463.978 395.393 462.582C397.604 461.253 400.349 460.331 401.169 457.356C401.154 457.32 401.124 457.239 401.124 457.239H401.129ZM399.422 513.484C399.468 518.237 396.412 518.94 395.072 521.003C394.98 523.448 398.006 521.36 398.332 523.178C393.31 527.019 386.229 527.207 381.36 523.626C380.448 522.954 379.159 522.414 379.709 520.972C380.137 519.857 381.344 520.208 382.256 520.132C388.196 519.623 394.476 520.229 399.417 513.479L399.422 513.484ZM122.58 546.238C118.938 544.852 115.067 543.385 111.2 541.908C110.182 541.521 108.175 540.879 108.577 542.31C110.268 548.352 105.658 545.086 104.171 545.188C100.957 545.407 97.6763 544.883 94.4367 544.506C93.5555 544.404 92.5011 543.91 92.3737 542.784C92.2311 541.541 93.2091 541.159 94.182 541.011C104.324 539.453 114.593 537.242 122.58 546.243V546.238ZM397.925 495.57C397.4 497.862 395.49 498.193 394.125 499.156C391.043 501.331 386.805 501.86 385.567 498.718C384.686 496.481 386.127 491.973 389.158 489.625C389.443 489.406 389.938 489.024 390.075 489.116C396.56 493.344 396.891 486.197 399.983 483.497C400.706 490.562 394.415 492.096 390.702 495.616C393.559 498.606 395.337 493.904 397.92 495.575L397.925 495.57ZM22.5073 383.644C25.0746 384.622 24.1628 387.474 26.2308 388.437C28.1869 388.508 27.3311 385.111 29.822 385.427C30.9936 388.519 32.2721 391.692 33.408 394.916C34.6254 398.365 29.9544 396.755 29.7558 399.037C25.6858 398.044 21.1574 388.733 22.5124 383.644H22.5073ZM57.5271 81.358C53.396 79.4733 51.8832 76.9162 51.8068 74.3897C51.654 69.5099 48.618 68.7967 44.8945 67.5742C37.5951 65.1802 30.2753 62.3531 28.8185 53.0569C32.4249 54.3762 33.0158 58.4156 35.7562 60.4226C38.8736 62.7046 41.8688 65.4501 45.6891 66.1938C53.6966 67.7474 55.0872 74.0739 57.5271 81.358ZM107.497 113.077C108.71 110.968 106.341 107.815 110.034 107.194C112.061 106.852 117.425 112.593 117.18 115.059C116.997 116.908 116.253 118.762 115.428 120.448C115.102 121.115 113.732 121.864 113.09 121.68C111.328 121.181 112.922 120.28 113.136 119.567C113.365 118.808 113.533 117.626 112.489 118.079C105.149 121.288 109.703 114.244 107.497 113.077ZM177.012 237.269C175.581 240.111 175.856 243.045 173.064 245.465C170.701 247.512 171.745 251.491 173.227 254.659C173.935 256.172 175.744 258.79 173.151 259.473C170.996 260.038 170.568 257.017 170.492 255.204C170.355 252.036 168.378 249.27 168.276 246.336C168.098 241.125 169.85 236.759 177.007 237.274L177.012 237.269ZM104.426 88.5861C107.828 86.681 110.706 82.4124 110.594 81.1186C110.003 74.1809 116.992 78.1795 118.367 74.7208C116.905 78.9538 113.65 82.1527 113.645 87.0376C113.645 90.0022 109.82 90.6083 104.426 88.5861ZM180.389 267.959C180.242 271.616 180.124 274.861 181.54 277.871C179.844 278.549 179.381 276.98 177.684 276.43C180.073 280.194 176.63 282.064 175.026 282.104C172.02 282.181 173.003 278.712 172.652 276.72C172.402 275.294 173.034 273.699 173.329 272.192C173.742 270.098 173.579 267.388 176.971 270.322C178.306 271.479 178.301 268.402 180.389 267.959ZM2.20856 398.467C2.71793 401.319 3.09998 404.192 4.94901 406.612C6.76749 408.991 8.60632 410.941 3.34445 411.762C0.252533 412.245 2.61096 415.134 3.24261 416.753C3.87424 418.378 5.41763 420.503 3.54312 421.318C0.945282 422.448 0.323853 419.229 0.237244 417.793C-0.114227 411.914 0.00292969 406.006 0.0946045 400.107C0.109894 399.032 1.37827 398.828 2.32568 398.63L2.20856 398.467ZM46.2138 319.365C49.4636 320.42 51.6183 321.194 53.8137 321.81C55.4488 322.269 57.9499 323.379 58.6426 322.712C60.2675 321.158 58.0823 319.33 57.0585 316.625C60.1147 317.975 61.434 319.299 61.2201 321.866C60.9484 325.092 61.7278 327.575 63.5581 329.314C54.7 327.281 49.3669 324.413 46.2138 319.36V319.365ZM196.985 555.895C189.894 557.714 183.756 557.933 176.926 558.422C182.279 552.07 189.68 551.087 196.985 555.895ZM363.063 138.189C358.702 133.452 356.268 138.271 353.756 140.436C352.442 141.572 352.335 142.881 349.951 141.857C347.506 140.803 349.381 139.982 349.467 139.06C349.661 137.048 349.829 134.955 352.804 135.795C355.906 136.677 357.898 135.867 358.534 132.428C358.922 130.335 361.163 133.223 361.789 131.389C363.424 132.016 361.621 132.703 361.815 133.401C362.263 135.016 362.579 136.671 362.941 138.317C362.93 138.327 363.058 138.184 363.058 138.184L363.063 138.189ZM244.744 560.454C250.266 557.673 255.681 557.821 262.42 561.178C255.533 563.618 250.133 562.298 244.744 560.454ZM32.9954 2.92896C37.7275 8.59835 38.0281 15.8825 40.2999 22.4484C34.4879 17.1661 35.1705 9.53051 32.9954 2.92896ZM24.774 349.515C26.6129 352.434 32.7815 349.933 32.3078 356.158C32.2059 357.523 35.4302 356.586 36.9991 357.452C30.4214 357.951 26.3446 355.307 24.7689 349.521L24.774 349.515ZM397.614 504.051C393.009 507.657 389.887 511.437 384.467 511.727C386.443 505.747 390.121 503.455 397.614 504.051ZM100.524 549.615C95.2772 550.078 90.9424 550.221 86.7145 550.965C85.1202 551.245 84.4427 550.7 84.132 549.722C83.8111 548.708 84.8247 548.005 85.762 547.74C90.596 546.396 95.3026 546.243 100.519 549.615H100.524ZM6.62485 382.61C9.81866 387.678 9.78302 393.205 14.3165 396.613C7.53156 396.429 4.57715 391.32 6.62485 382.61ZM13.7307 381.041C16.6291 386.68 18.8703 391.035 21.2644 395.691C14.2095 392.65 12.0192 388.88 13.7307 381.041ZM2.32568 398.63C1.21866 394.725 1.36298 391.488 2.7587 388.921C4.47528 393.633 6.11041 398.115 7.9238 403.077C4.27664 402.929 3.41068 400.494 2.20346 398.467L2.32062 398.63H2.32568ZM37.4168 386.624C40.1776 390.067 40.8755 394.137 42.2967 398.232C35.6951 395.604 34.4879 392.675 37.4168 386.624ZM184.271 268.682C189.365 272.472 190.368 276.374 187.256 281.788C186.079 277.148 183.334 273.516 184.271 268.682ZM41.8281 365.52C35.3488 368.948 31.559 365.515 27.3311 360.37C33.2399 360.732 36.6426 365.316 41.8281 365.52ZM62.2949 350.493C55.9124 351.446 50.5129 348.706 45.0881 346.062C51.5011 344.921 56.4931 348.945 62.1624 350.58C62.1879 350.56 62.2898 350.488 62.2898 350.488L62.2949 350.493ZM377.702 487.949C380.158 483.716 381.467 480.563 382.221 477.181C382.429 476.239 382.959 475.149 384.008 475.281C385.572 475.48 385.501 477.044 385.175 478.006C383.947 481.623 383.372 485.774 377.702 487.944V487.949ZM93.6981 90.7765C90.815 87.7406 90.0204 84.3073 89.7657 80.5685C93.6573 81.8963 94.9681 85.2989 93.6981 90.7765ZM98.9091 391.835C99.2249 390.261 97.9412 387.912 101.68 388.463C103.967 388.799 106.545 387.179 109.871 386.17C106.983 391.254 103.218 392.207 98.7512 391.672L98.9091 391.83V391.835ZM119.35 206.844C113.976 204.134 113.06 198.551 111.114 193.63C115.423 197.043 117.557 201.857 119.345 206.889V206.844H119.35ZM119.345 206.889C120.323 212.956 125.025 217.714 125.096 224.101C121.057 219.109 118.372 213.639 119.345 206.864C119.35 206.844 119.345 206.889 119.345 206.889ZM39.7701 0.983134C40.8755 6.46405 41.9808 11.9501 43.1677 17.8385C39.1538 14.5683 39.0672 14.1811 39.7701 0.983134ZM86.0269 74.6903C83.5309 69.7595 84.6566 65.4909 85.5531 61.2274C87.3869 65.445 88.044 69.6831 86.0269 74.6903ZM70.4398 429.631C66.5431 428.383 64.4547 425.759 64.1694 420.956C68.4023 422.769 69.2021 426.345 70.4398 429.631ZM86.0065 244.68C80.7191 246.32 76.5677 244.471 71.5401 240.152C77.3827 241.98 81.6971 243.33 86.0065 244.68ZM147.005 523.153C152.317 523.474 157.712 523.56 161.649 528.165C156.769 526.494 151.884 524.823 147.005 523.153ZM70.6029 553.257C75.6355 555.732 79.787 558.992 82.4765 563.959C78.5186 560.393 74.5607 556.823 70.6029 553.257ZM303.007 459.149C306.298 463.56 306.914 466.999 306.68 472.128C303.812 467.819 302.442 464.549 303.007 459.149ZM51.929 521.701C57.7869 521.548 62.682 524.125 67.2614 527.61C62.1523 525.638 57.0432 523.672 51.929 521.701ZM30.8611 15.7042C31.5386 22.7846 33.1431 28.0413 34.9005 33.945C30.9222 30.2979 29.5724 24.4451 30.8611 15.7042ZM113.116 93.7563C111.343 97.1793 108.44 97.6582 105.317 97.5206C104.314 97.4748 103.31 96.8992 103.269 95.8753C103.223 94.663 104.4 94.5051 105.342 94.5204C107.94 94.5713 110.564 94.9635 113.116 93.7563ZM233.023 199.59C232.427 197.186 230.008 195.057 232.101 192.448C232.443 192.021 234.001 191.847 234.144 192.077C235.815 194.807 233.956 197.104 233.029 199.59H233.023ZM79.7717 416.636C80.9993 421.964 82.2269 427.293 83.4494 432.621C81.9213 427.349 77.8666 422.581 79.8073 416.585C79.8277 416.56 79.7717 416.636 79.7717 416.636ZM55.0974 63.0357C53.6405 57.9674 48.6282 54.8041 47.8896 49.3487C49.9832 54.0706 55.9073 56.7601 55.0414 63.0713C55.0159 63.0968 55.0974 63.0306 55.0974 63.0306V63.0357ZM111.46 496.008C109.912 500.215 106.652 502.212 102.22 502.579C105.302 500.388 108.378 498.198 111.46 496.008Z" fill="white"/>
</mask>
<g mask="url(#mask0_59_183009)">
<path d="M1.24032 -48.9712H2.98242V630.479H1.24032V-48.9712Z" fill="#D3FED8"/>
<path d="M5.31067 -48.9712H7.05273V630.479H5.31067V-48.9712Z" fill="#D3FED8"/>
<path d="M9.38684 -48.9712H11.1289V630.479H9.38684V-48.9712Z" fill="#D3FED8"/>
<path d="M13.4611 -48.9712H15.2031V630.479H13.4611V-48.9712Z" fill="#D3FED8"/>
<path d="M17.5314 -48.9712H19.2734V630.479H17.5314V-48.9712Z" fill="#D3FED8"/>
<path d="M21.6056 -48.9712H23.3477V630.479H21.6056V-48.9712Z" fill="#D3FED8"/>
<path d="M25.6818 -48.9712H27.4238V630.479H25.6818V-48.9712Z" fill="#D3FED8"/>
<path d="M29.7521 -48.9712H31.4941V630.479H29.7521V-48.9712Z" fill="#D3FED8"/>
<path d="M33.8263 -48.9712H35.5684V630.479H33.8263V-48.9712Z" fill="#D3FED8"/>
<path d="M37.9025 -48.9712H39.6445V630.479H37.9025V-48.9712Z" fill="#D3FED8"/>
<path d="M41.9708 -48.9712H43.7129V630.479H41.9708V-48.9712Z" fill="#D3FED8"/>
<path d="M46.045 -48.9712H47.7871V630.479H46.045V-48.9712Z" fill="#D3FED8"/>
<path d="M50.1212 -48.9712H51.8633V630.479H50.1212V-48.9712Z" fill="#D3FED8"/>
<path d="M54.1895 -48.9712H55.9316V630.479H54.1895V-48.9712Z" fill="#D3FED8"/>
<path d="M58.2657 -48.9712H60.0078V630.479H58.2657V-48.9712Z" fill="#D3FED8"/>
<path d="M62.3419 -48.9712H64.084V630.479H62.3419V-48.9712Z" fill="#D3FED8"/>
<path d="M66.4102 -48.9712H68.1523V630.479H66.4102V-48.9712Z" fill="#D3FED8"/>
<path d="M70.4864 -48.9712H72.2285V630.479H70.4864V-48.9712Z" fill="#D3FED8"/>
<path d="M74.5606 -48.9712H76.3027V630.479H74.5606V-48.9712Z" fill="#D3FED8"/>
<path d="M78.6349 -48.9712H80.377V630.479H78.6349V-48.9712Z" fill="#D3FED8"/>
<path d="M82.7052 -48.9712H84.4473V630.479H82.7052V-48.9712Z" fill="#D3FED8"/>
<path d="M86.7814 -48.9712H88.5234V630.479H86.7814V-48.9712Z" fill="#D3FED8"/>
<path d="M90.8556 -48.9712H92.5977V630.479H90.8556V-48.9712Z" fill="#D3FED8"/>
<path d="M94.9259 -48.9712H96.668V630.479H94.9259V-48.9712Z" fill="#D3FED8"/>
<path d="M99.0001 -48.9712H100.742V630.479H99.0001V-48.9712Z" fill="#D3FED8"/>
<path d="M103.074 -48.9712H104.816V630.479H103.074V-48.9712Z" fill="#D3FED8"/>
<path d="M107.147 -48.9712H108.889V630.479H107.147V-48.9712Z" fill="#D3FED8"/>
<path d="M111.221 -48.9712H112.963V630.479H111.221V-48.9712Z" fill="#D3FED8"/>
<path d="M115.295 -48.9712H117.037V630.479H115.295V-48.9712Z" fill="#D3FED8"/>
<path d="M119.367 -48.9712H121.109V630.479H119.367V-48.9712Z" fill="#D3FED8"/>
<path d="M123.44 -48.9712H125.182V630.479H123.44V-48.9712Z" fill="#D3FED8"/>
<path d="M127.516 -48.9712H129.258V630.479H127.516V-48.9712Z" fill="#D3FED8"/>
<path d="M131.586 -48.9712H133.328V630.479H131.586V-48.9712Z" fill="#D3FED8"/>
<path d="M135.66 -48.9712H137.402V630.479H135.66V-48.9712Z" fill="#D3FED8"/>
<path d="M139.736 -48.9712H141.479V630.479H139.736V-48.9712Z" fill="#D3FED8"/>
<path d="M143.805 -48.9712H145.547V630.479H143.805V-48.9712Z" fill="#D3FED8"/>
<path d="M147.881 -48.9712H149.623V630.479H147.881V-48.9712Z" fill="#D3FED8"/>
<path d="M151.955 -48.9712H153.697V630.479H151.955V-48.9712Z" fill="#D3FED8"/>
<path d="M156.031 -48.9712H157.773V630.479H156.031V-48.9712Z" fill="#D3FED8"/>
<path d="M160.1 -48.9712H161.842V630.479H160.1V-48.9712Z" fill="#D3FED8"/>
<path d="M164.176 -48.9712H165.918V630.479H164.176V-48.9712Z" fill="#D3FED8"/>
<path d="M168.25 -48.9712H169.992V630.479H168.25V-48.9712Z" fill="#D3FED8"/>
<path d="M172.32 -48.9712H174.062V630.479H172.32V-48.9712Z" fill="#D3FED8"/>
<path d="M176.395 -48.9712H178.137V630.479H176.395V-48.9712Z" fill="#D3FED8"/>
<path d="M180.471 -48.9712H182.213V630.479H180.471V-48.9712Z" fill="#D3FED8"/>
<path d="M184.539 -48.9712H186.281V630.479H184.539V-48.9712Z" fill="#D3FED8"/>
<path d="M188.615 -48.9712H190.357V630.479H188.615V-48.9712Z" fill="#D3FED8"/>
<path d="M192.692 -48.9712H194.434V630.479H192.692V-48.9712Z" fill="#D3FED8"/>
<path d="M196.76 -48.9712H198.502V630.479H196.76V-48.9712Z" fill="#D3FED8"/>
<path d="M200.836 -48.9712H202.578V630.479H200.836V-48.9712Z" fill="#D3FED8"/>
<path d="M204.91 -48.9712H206.652V630.479H204.91V-48.9712Z" fill="#D3FED8"/>
<path d="M208.981 -48.9712H210.723V630.479H208.981V-48.9712Z" fill="#D3FED8"/>
<path d="M213.057 -48.9712H214.799V630.479H213.057V-48.9712Z" fill="#D3FED8"/>
<path d="M217.131 -48.9712H218.873V630.479H217.131V-48.9712Z" fill="#D3FED8"/>
<path d="M221.201 -48.9712H222.943V630.479H221.201V-48.9712Z" fill="#D3FED8"/>
<path d="M225.276 -48.9712H227.018V630.479H225.276V-48.9712Z" fill="#D3FED8"/>
<path d="M229.352 -48.9712H231.094V630.479H229.352V-48.9712Z" fill="#D3FED8"/>
<path d="M233.426 -48.9712H235.168V630.479H233.426V-48.9712Z" fill="#D3FED8"/>
<path d="M237.496 -48.9712H239.238V630.479H237.496V-48.9712Z" fill="#D3FED8"/>
<path d="M241.572 -48.9712H243.314V630.479H241.572V-48.9712Z" fill="#D3FED8"/>
<path d="M245.647 -48.9712H247.389V630.479H245.647V-48.9712Z" fill="#D3FED8"/>
<path d="M249.717 -48.9712H251.459V630.479H249.717V-48.9712Z" fill="#D3FED8"/>
<path d="M253.791 -48.9712H255.533V630.479H253.791V-48.9712Z" fill="#D3FED8"/>
<path d="M257.867 -48.9712H259.609V630.479H257.867V-48.9712Z" fill="#D3FED8"/>
<path d="M261.936 -48.9712H263.678V630.479H261.936V-48.9712Z" fill="#D3FED8"/>
<path d="M266.012 -48.9712H267.754V630.479H266.012V-48.9712Z" fill="#D3FED8"/>
<path d="M270.086 -48.9712H271.828V630.479H270.086V-48.9712Z" fill="#D3FED8"/>
<path d="M274.156 -48.9712H275.898V630.479H274.156V-48.9712Z" fill="#D3FED8"/>
<path d="M278.231 -48.9712H279.973V630.479H278.231V-48.9712Z" fill="#D3FED8"/>
<path d="M282.305 -48.9712H284.047V630.479H282.305V-48.9712Z" fill="#D3FED8"/>
<path d="M286.375 -48.9712H288.117V630.479H286.375V-48.9712Z" fill="#D3FED8"/>
<path d="M290.451 -48.9712H292.193V630.479H290.451V-48.9712Z" fill="#D3FED8"/>
<path d="M294.525 -48.9712H296.268V630.479H294.525V-48.9712Z" fill="#D3FED8"/>
<path d="M298.596 -48.9712H300.338V630.479H298.596V-48.9712Z" fill="#D3FED8"/>
<path d="M302.672 -48.9712H304.414V630.479H302.672V-48.9712Z" fill="#D3FED8"/>
<path d="M306.744 -48.9712H308.486V630.479H306.744V-48.9712Z" fill="#D3FED8"/>
<path d="M310.82 -48.9712H312.562V630.479H310.82V-48.9712Z" fill="#D3FED8"/>
<path d="M314.891 -48.9712H316.633V630.479H314.891V-48.9712Z" fill="#D3FED8"/>
<path d="M318.965 -48.9712H320.707V630.479H318.965V-48.9712Z" fill="#D3FED8"/>
<path d="M323.041 -48.9712H324.783V630.479H323.041V-48.9712Z" fill="#D3FED8"/>
<path d="M327.111 -48.9712H328.854V630.479H327.111V-48.9712Z" fill="#D3FED8"/>
<path d="M331.186 -48.9712H332.928V630.479H331.186V-48.9712Z" fill="#D3FED8"/>
<path d="M335.26 -48.9712H337.002V630.479H335.26V-48.9712Z" fill="#D3FED8"/>
<path d="M339.33 -48.9712H341.072V630.479H339.33V-48.9712Z" fill="#D3FED8"/>
<path d="M343.406 -48.9712H345.148V630.479H343.406V-48.9712Z" fill="#D3FED8"/>
<path d="M347.481 -48.9712H349.223V630.479H347.481V-48.9712Z" fill="#D3FED8"/>
<path d="M351.551 -48.9712H353.293V630.479H351.551V-48.9712Z" fill="#D3FED8"/>
<path d="M355.625 -48.9712H357.367V630.479H355.625V-48.9712Z" fill="#D3FED8"/>
<path d="M359.701 -48.9712H361.443V630.479H359.701V-48.9712Z" fill="#D3FED8"/>
<path d="M363.77 -48.9712H365.512V630.479H363.77V-48.9712Z" fill="#D3FED8"/>
<path d="M367.844 -48.9712H369.586V630.479H367.844V-48.9712Z" fill="#D3FED8"/>
<path d="M371.92 -48.9712H373.662V630.479H371.92V-48.9712Z" fill="#D3FED8"/>
<path d="M375.99 -48.9712H377.732V630.479H375.99V-48.9712Z" fill="#D3FED8"/>
<path d="M380.065 -48.9712H381.807V630.479H380.065V-48.9712Z" fill="#D3FED8"/>
<path d="M384.141 -48.9712H385.883V630.479H384.141V-48.9712Z" fill="#D3FED8"/>
<path d="M388.215 -48.9712H389.957V630.479H388.215V-48.9712Z" fill="#D3FED8"/>
<path d="M392.285 -48.9712H394.027V630.479H392.285V-48.9712Z" fill="#D3FED8"/>
</g>
</svg>
